MetaMessage('track_name', name='Drum Kit', time=0)
program_change channel=9 program=0 time=0
note_on channel=9 note=31 velocity=50 time=30720
note_off channel=9 note=31 velocity=0 time=96
note_on channel=9 note=31 velocity=50 time=96
note_off channel=9 note=31 velocity=0 time=96
note_on channel=9 note=31 velocity=50 time=96
note_off channel=9 note=31 velocity=0 time=96
note_on channel=9 note=31 velocity=50 time=96
note_off channel=9 note=31 velocity=0 time=96
note_on channel=9 note=31 velocity=50 time=96
note_off channel=9 note=31 velocity=0 time=96
note_on channel=9 note=31 velocity=50 time=96
note_off channel=9 note=31 velocity=0 time=96
note_on channel=9 note=31 velocity=50 time=96
note_off channel=9 note=31 velocity=0 time=96
note_on channel=9 note=31 velocity=50 time=96
note_off channel=9 note=31 velocity=0 time=96
note_on channel=9 note=28 velocity=50 time=96
note_on channel=9 note=35 velocity=50 time=0
note_on channel=9 note=36 velocity=50 time=0
note_on channel=9 note=37 velocity=50 time=0
note_on channel=9 note=38 velocity=50 time=0
note_on channel=9 note=39 velocity=50 time=0
note_off channel=9 note=28 velocity=0 time=96
note_off channel=9 note=39 velocity=0 time=96
note_off channel=9 note=38 velocity=0 time=0
note_off channel=9 note=37 velocity=0 time=0
note_off channel=9 note=36 velocity=0 time=0
note_off channel=9 note=35 velocity=0 time=0
note_on channel=9 note=28 velocity=50 time=0
note_on channel=9 note=35 velocity=50 time=0
note_on channel=9 note=39 velocity=50 time=0
note_off channel=9 note=39 velocity=0 time=96
note_off channel=9 note=35 velocity=0 time=0
note_off channel=9 note=28 velocity=0 time=0
note_on channel=9 note=28 velocity=50 time=96
note_on channel=9 note=39 velocity=50 time=0
note_off channel=9 note=39 velocity=0 time=96
note_off channel=9 note=28 velocity=0 time=0
note_on channel=9 note=28 velocity=50 time=96
note_on channel=9 note=35 velocity=50 time=0
note_on channel=9 note=36 velocity=50 time=0
note_on channel=9 note=39 velocity=50 time=0
note_off channel=9 note=39 velocity=0 time=96
note_off channel=9 note=36 velocity=0 time=0
note_off channel=9 note=35 velocity=0 time=0
note_off channel=9 note=28 velocity=0 time=0
note_on channel=9 note=28 velocity=50 time=96
note_on channel=9 note=39 velocity=50 time=0
note_off channel=9 note=39 velocity=0 time=96
note_off channel=9 note=28 velocity=0 time=0
note_on channel=9 note=28 velocity=50 time=96
note_on channel=9 note=35 velocity=50 time=0
note_on channel=9 note=39 velocity=50 time=0
note_off channel=9 note=39 velocity=0 time=96
note_off channel=9 note=35 velocity=0 time=0
note_off channel=9 note=28 velocity=0 time=0
note_on channel=9 note=28 velocity=50 time=96
note_on channel=9 note=39 velocity=50 time=0
note_off channel=9 note=39 velocity=0 time=96
note_off channel=9 note=28 velocity=0 time=0
note_on channel=9 note=28 velocity=50 time=96
note_on channel=9 note=35 velocity=50 time=0
note_on channel=9 note=36 velocity=50 time=0
note_on channel=9 note=37 velocity=50 time=0
note_on channel=9 note=39 velocity=50 time=0
note_off channel=9 note=39 velocity=0 time=96
note_off channel=9 note=37 velocity=0 time=0
note_off channel=9 note=36 velocity=0 time=0
note_off channel=9 note=35 velocity=0 time=0
note_off channel=9 note=28 velocity=0 time=0
note_on channel=9 note=39 velocity=50 time=96
note_on channel=9 note=38 velocity=50 time=0
note_on channel=9 note=37 velocity=50 time=0
note_on channel=9 note=36 velocity=50 time=0
note_on channel=9 note=35 velocity=50 time=0
note_off channel=9 note=35 velocity=0 time=288
note_off channel=9 note=36 velocity=0 time=0
note_off channel=9 note=37 velocity=0 time=0
note_off channel=9 note=38 velocity=0 time=0
note_off channel=9 note=39 velocity=0 time=0
MetaMessage('end_of_track', time=0)
