pitchwheel channel=2 pitch=0 time=0
control_change channel=2 control=7 value=103 time=0
control_change channel=2 control=10 value=63 time=0
control_change channel=2 control=93 value=0 time=0
control_change channel=2 control=91 value=0 time=0
control_change channel=2 control=95 value=0 time=0
control_change channel=2 control=92 value=0 time=0
control_change channel=2 control=11 value=127 time=0
program_change channel=2 program=25 time=0
control_change channel=3 control=7 value=103 time=0
control_change channel=3 control=10 value=63 time=0
control_change channel=3 control=93 value=0 time=0
control_change channel=3 control=91 value=0 time=0
control_change channel=3 control=95 value=0 time=0
control_change channel=3 control=92 value=0 time=0
control_change channel=3 control=11 value=127 time=0
program_change channel=3 program=25 time=0
note_on channel=0 note=64 velocity=95 time=0
note_off channel=0 note=64 velocity=0 time=0
note_on channel=0 note=52 velocity=95 time=0
note_off channel=0 note=52 velocity=0 time=0
note_on channel=0 note=64 velocity=95 time=0
note_off channel=0 note=64 velocity=0 time=0
note_on channel=0 note=52 velocity=95 time=0
note_off channel=0 note=52 velocity=0 time=0
note_on channel=0 note=64 velocity=95 time=0
note_off channel=0 note=64 velocity=0 time=0
note_on channel=0 note=52 velocity=95 time=0
note_off channel=0 note=52 velocity=0 time=0
note_on channel=0 note=64 velocity=95 time=0
note_off channel=0 note=64 velocity=0 time=0
note_on channel=0 note=52 velocity=95 time=0
note_off channel=0 note=52 velocity=0 time=0
note_on channel=0 note=64 velocity=95 time=0
note_off channel=0 note=64 velocity=0 time=0
note_on channel=0 note=52 velocity=95 time=0
note_off channel=0 note=52 velocity=0 time=0
note_on channel=0 note=64 velocity=95 time=0
note_off channel=0 note=64 velocity=0 time=0
note_on channel=0 note=52 velocity=95 time=0
note_off channel=0 note=52 velocity=0 time=0
note_on channel=0 note=64 velocity=95 time=0
note_off channel=0 note=64 velocity=0 time=0
note_on channel=0 note=52 velocity=95 time=0
note_off channel=0 note=52 velocity=0 time=0
note_on channel=0 note=67 velocity=95 time=240
note_off channel=0 note=67 velocity=0 time=240
note_on channel=0 note=52 velocity=95 time=0
note_off channel=0 note=52 velocity=0 time=0
note_on channel=0 note=67 velocity=95 time=0
note_off channel=0 note=67 velocity=0 time=0
note_on channel=0 note=52 velocity=95 time=0
note_off channel=0 note=52 velocity=0 time=0
note_on channel=0 note=67 velocity=95 time=0
note_off channel=0 note=67 velocity=0 time=0
note_on channel=0 note=52 velocity=95 time=0
note_off channel=0 note=52 velocity=0 time=0
note_on channel=0 note=66 velocity=95 time=0
note_off channel=0 note=66 velocity=0 time=0
note_on channel=0 note=52 velocity=95 time=0
note_off channel=0 note=52 velocity=0 time=0
note_on channel=0 note=64 velocity=95 time=0
note_off channel=0 note=64 velocity=0 time=0
note_on channel=0 note=52 velocity=95 time=0
note_off channel=0 note=52 velocity=0 time=0
note_on channel=0 note=60 velocity=95 time=0
note_off channel=0 note=60 velocity=0 time=0
note_on channel=0 note=52 velocity=95 time=0
note_off channel=0 note=52 velocity=0 time=0
note_on channel=0 note=60 velocity=95 time=0
note_off channel=0 note=60 velocity=0 time=0
note_on channel=0 note=52 velocity=95 time=0
note_off channel=0 note=52 velocity=0 time=0
note_on channel=0 note=60 velocity=95 time=0
note_off channel=0 note=60 velocity=0 time=0
note_on channel=0 note=52 velocity=95 time=0
note_off channel=0 note=52 velocity=0 time=0
note_on channel=0 note=60 velocity=95 time=0
note_off channel=0 note=60 velocity=0 time=0
note_on channel=0 note=52 velocity=95 time=0
note_off channel=0 note=52 velocity=0 time=0
note_on channel=0 note=60 velocity=95 time=0
note_off channel=0 note=60 velocity=0 time=0
note_on channel=0 note=52 velocity=95 time=0
note_off channel=0 note=52 velocity=0 time=0
note_on channel=0 note=60 velocity=95 time=0
note_off channel=0 note=60 velocity=0 time=0
note_on channel=0 note=52 velocity=95 time=0
note_off channel=0 note=52 velocity=0 time=0
note_on channel=0 note=59 velocity=95 time=0
note_off channel=0 note=59 velocity=0 time=0
note_on channel=0 note=52 velocity=95 time=0
note_off channel=0 note=52 velocity=0 time=0
note_on channel=0 note=59 velocity=95 time=0
note_off channel=0 note=59 velocity=0 time=0
note_on channel=0 note=52 velocity=95 time=0
note_off channel=0 note=52 velocity=0 time=0
note_on channel=0 note=59 velocity=95 time=0
note_off channel=0 note=59 velocity=0 time=0
note_on channel=0 note=52 velocity=95 time=0
note_off channel=0 note=52 velocity=0 time=0
note_on channel=0 note=60 velocity=95 time=0
note_off channel=0 note=60 velocity=0 time=0
note_on channel=0 note=52 velocity=95 time=0
note_off channel=0 note=52 velocity=0 time=0
note_on channel=0 note=60 velocity=95 time=0
note_off channel=0 note=60 velocity=0 time=0
note_on channel=0 note=52 velocity=95 time=0
note_off channel=0 note=52 velocity=0 time=0
note_on channel=0 note=60 velocity=95 time=0
note_off channel=0 note=60 velocity=0 time=0
note_on channel=0 note=52 velocity=95 time=0
note_off channel=0 note=52 velocity=0 time=0
note_on channel=0 note=62 velocity=95 time=0
note_off channel=0 note=62 velocity=0 time=0
note_on channel=0 note=52 velocity=95 time=0
note_off channel=0 note=52 velocity=0 time=0
note_on channel=0 note=64 velocity=95 time=0
note_off channel=0 note=64 velocity=0 time=0
note_on channel=0 note=52 velocity=95 time=0
note_off channel=0 note=52 velocity=0 time=0
note_on channel=0 note=64 velocity=95 time=0
note_off channel=0 note=64 velocity=0 time=0
note_on channel=0 note=52 velocity=95 time=0
note_off channel=0 note=52 velocity=0 time=0
note_on channel=0 note=64 velocity=95 time=0
note_off channel=0 note=64 velocity=0 time=0
note_on channel=0 note=52 velocity=95 time=0
note_off channel=0 note=52 velocity=0 time=0
note_on channel=0 note=64 velocity=95 time=0
note_off channel=0 note=64 velocity=0 time=0
note_on channel=0 note=52 velocity=95 time=0
note_off channel=0 note=52 velocity=0 time=0
note_on channel=0 note=64 velocity=95 time=0
note_off channel=0 note=64 velocity=0 time=0
note_on channel=0 note=52 velocity=95 time=0
note_off channel=0 note=52 velocity=0 time=0
note_on channel=0 note=64 velocity=95 time=0
note_off channel=0 note=64 velocity=0 time=0
note_on channel=0 note=52 velocity=95 time=0
note_off channel=0 note=52 velocity=0 time=0
note_on channel=0 note=64 velocity=95 time=0
note_off channel=0 note=64 velocity=0 time=0
note_on channel=0 note=52 velocity=95 time=0
note_off channel=0 note=52 velocity=0 time=0
note_on channel=0 note=67 velocity=95 time=240
note_off channel=0 note=67 velocity=0 time=240
note_on channel=0 note=52 velocity=95 time=0
note_off channel=0 note=52 velocity=0 time=0
note_on channel=0 note=67 velocity=95 time=0
note_off channel=0 note=67 velocity=0 time=0
note_on channel=0 note=52 velocity=95 time=0
note_off channel=0 note=52 velocity=0 time=0
note_on channel=0 note=67 velocity=95 time=0
note_off channel=0 note=67 velocity=0 time=0
note_on channel=0 note=52 velocity=95 time=0
note_off channel=0 note=52 velocity=0 time=0
note_on channel=0 note=66 velocity=95 time=0
note_off channel=0 note=66 velocity=0 time=0
note_on channel=0 note=52 velocity=95 time=0
note_off channel=0 note=52 velocity=0 time=0
note_on channel=0 note=64 velocity=95 time=0
note_off channel=0 note=64 velocity=0 time=0
note_on channel=0 note=52 velocity=95 time=0
note_off channel=0 note=52 velocity=0 time=0
note_on channel=0 note=60 velocity=95 time=0
note_off channel=0 note=60 velocity=0 time=0
note_on channel=0 note=52 velocity=95 time=0
note_off channel=0 note=52 velocity=0 time=0
note_on channel=0 note=60 velocity=95 time=0
note_off channel=0 note=60 velocity=0 time=0
note_on channel=0 note=52 velocity=95 time=0
note_off channel=0 note=52 velocity=0 time=0
note_on channel=0 note=60 velocity=95 time=0
note_off channel=0 note=60 velocity=0 time=0
note_on channel=0 note=52 velocity=95 time=0
note_off channel=0 note=52 velocity=0 time=0
note_on channel=0 note=60 velocity=95 time=0
note_off channel=0 note=60 velocity=0 time=0
note_on channel=0 note=52 velocity=95 time=0
note_off channel=0 note=52 velocity=0 time=0
note_on channel=0 note=60 velocity=95 time=0
note_off channel=0 note=60 velocity=0 time=0
note_on channel=0 note=52 velocity=95 time=0
note_off channel=0 note=52 velocity=0 time=0
note_on channel=0 note=60 velocity=95 time=0
note_off channel=0 note=60 velocity=0 time=0
note_on channel=0 note=52 velocity=95 time=0
note_off channel=0 note=52 velocity=0 time=0
note_on channel=0 note=59 velocity=95 time=0
note_off channel=0 note=59 velocity=0 time=0
note_on channel=0 note=52 velocity=95 time=0
note_off channel=0 note=52 velocity=0 time=0
note_on channel=0 note=59 velocity=95 time=0
note_off channel=0 note=59 velocity=0 time=0
note_on channel=0 note=52 velocity=95 time=0
note_off channel=0 note=52 velocity=0 time=0
note_on channel=0 note=59 velocity=95 time=0
note_off channel=0 note=59 velocity=0 time=0
note_on channel=0 note=52 velocity=95 time=0
note_off channel=0 note=52 velocity=0 time=0
note_on channel=0 note=60 velocity=95 time=0
note_off channel=0 note=60 velocity=0 time=0
note_on channel=0 note=52 velocity=95 time=0
note_off channel=0 note=52 velocity=0 time=0
note_on channel=0 note=60 velocity=95 time=0
note_off channel=0 note=60 velocity=0 time=0
note_on channel=0 note=52 velocity=95 time=0
note_off channel=0 note=52 velocity=0 time=0
note_on channel=0 note=60 velocity=95 time=0
note_off channel=0 note=60 velocity=0 time=0
note_on channel=0 note=52 velocity=95 time=0
note_off channel=0 note=52 velocity=0 time=0
note_on channel=0 note=62 velocity=95 time=0
note_off channel=0 note=62 velocity=0 time=0
note_on channel=0 note=52 velocity=95 time=0
note_off channel=0 note=52 velocity=0 time=0
note_on channel=0 note=64 velocity=95 time=0
note_off channel=0 note=64 velocity=0 time=0
note_on channel=0 note=52 velocity=95 time=0
note_off channel=0 note=52 velocity=0 time=0
note_on channel=0 note=64 velocity=95 time=0
note_off channel=0 note=64 velocity=0 time=0
note_on channel=0 note=52 velocity=95 time=0
note_off channel=0 note=52 velocity=0 time=0
note_on channel=0 note=64 velocity=95 time=0
note_off channel=0 note=64 velocity=0 time=0
note_on channel=0 note=52 velocity=95 time=0
note_off channel=0 note=52 velocity=0 time=0
note_on channel=0 note=64 velocity=95 time=0
note_off channel=0 note=64 velocity=0 time=0
note_on channel=0 note=52 velocity=95 time=0
note_off channel=0 note=52 velocity=0 time=0
note_on channel=0 note=64 velocity=95 time=0
note_off channel=0 note=64 velocity=0 time=0
note_on channel=0 note=52 velocity=95 time=0
note_off channel=0 note=52 velocity=0 time=0
note_on channel=0 note=64 velocity=95 time=0
note_off channel=0 note=64 velocity=0 time=0
note_on channel=0 note=52 velocity=95 time=0
note_off channel=0 note=52 velocity=0 time=0
note_on channel=0 note=64 velocity=95 time=0
note_off channel=0 note=64 velocity=0 time=0
note_on channel=0 note=52 velocity=95 time=0
note_off channel=0 note=52 velocity=0 time=0
note_on channel=0 note=67 velocity=95 time=240
note_off channel=0 note=67 velocity=0 time=240
note_on channel=0 note=52 velocity=95 time=0
note_off channel=0 note=52 velocity=0 time=0
note_on channel=0 note=67 velocity=95 time=0
note_off channel=0 note=67 velocity=0 time=0
note_on channel=0 note=52 velocity=95 time=0
note_off channel=0 note=52 velocity=0 time=0
note_on channel=0 note=67 velocity=95 time=0
note_off channel=0 note=67 velocity=0 time=0
note_on channel=0 note=52 velocity=95 time=0
note_off channel=0 note=52 velocity=0 time=0
note_on channel=0 note=66 velocity=95 time=0
note_off channel=0 note=66 velocity=0 time=0
note_on channel=0 note=52 velocity=95 time=0
note_off channel=0 note=52 velocity=0 time=0
note_on channel=0 note=64 velocity=95 time=0
note_off channel=0 note=64 velocity=0 time=0
note_on channel=0 note=52 velocity=95 time=0
note_off channel=0 note=52 velocity=0 time=0
note_on channel=0 note=60 velocity=95 time=0
note_off channel=0 note=60 velocity=0 time=0
note_on channel=0 note=52 velocity=95 time=0
note_off channel=0 note=52 velocity=0 time=0
note_on channel=0 note=60 velocity=95 time=0
note_off channel=0 note=60 velocity=0 time=0
note_on channel=0 note=52 velocity=95 time=0
note_off channel=0 note=52 velocity=0 time=0
note_on channel=0 note=60 velocity=95 time=0
note_off channel=0 note=60 velocity=0 time=0
note_on channel=0 note=52 velocity=95 time=0
note_off channel=0 note=52 velocity=0 time=0
note_on channel=0 note=60 velocity=95 time=0
note_off channel=0 note=60 velocity=0 time=0
note_on channel=0 note=52 velocity=95 time=0
note_off channel=0 note=52 velocity=0 time=0
note_on channel=0 note=60 velocity=95 time=0
note_off channel=0 note=60 velocity=0 time=0
note_on channel=0 note=52 velocity=95 time=0
note_off channel=0 note=52 velocity=0 time=0
note_on channel=0 note=60 velocity=95 time=0
note_off channel=0 note=60 velocity=0 time=0
note_on channel=0 note=52 velocity=95 time=0
note_off channel=0 note=52 velocity=0 time=0
note_on channel=0 note=59 velocity=95 time=0
note_off channel=0 note=59 velocity=0 time=0
note_on channel=0 note=52 velocity=95 time=0
note_off channel=0 note=52 velocity=0 time=0
note_on channel=0 note=59 velocity=95 time=0
note_off channel=0 note=59 velocity=0 time=0
note_on channel=0 note=52 velocity=95 time=0
note_off channel=0 note=52 velocity=0 time=0
note_on channel=0 note=59 velocity=95 time=0
note_off channel=0 note=59 velocity=0 time=0
note_on channel=0 note=52 velocity=95 time=0
note_off channel=0 note=52 velocity=0 time=0
note_on channel=0 note=60 velocity=95 time=0
note_off channel=0 note=60 velocity=0 time=0
note_on channel=0 note=52 velocity=95 time=0
note_off channel=0 note=52 velocity=0 time=0
note_on channel=0 note=60 velocity=95 time=0
note_off channel=0 note=60 velocity=0 time=0
note_on channel=0 note=52 velocity=95 time=0
note_off channel=0 note=52 velocity=0 time=0
note_on channel=0 note=60 velocity=95 time=0
note_off channel=0 note=60 velocity=0 time=0
note_on channel=0 note=52 velocity=95 time=0
note_off channel=0 note=52 velocity=0 time=0
note_on channel=0 note=62 velocity=95 time=0
note_off channel=0 note=62 velocity=0 time=0
note_on channel=0 note=52 velocity=95 time=0
note_off channel=0 note=52 velocity=0 time=0
note_on channel=0 note=64 velocity=95 time=0
note_off channel=0 note=64 velocity=0 time=0
note_on channel=0 note=52 velocity=95 time=0
note_off channel=0 note=52 velocity=0 time=0
note_on channel=0 note=64 velocity=95 time=0
note_off channel=0 note=64 velocity=0 time=0
note_on channel=0 note=52 velocity=95 time=0
note_off channel=0 note=52 velocity=0 time=0
note_on channel=0 note=64 velocity=95 time=0
note_off channel=0 note=64 velocity=0 time=0
note_on channel=0 note=52 velocity=95 time=0
note_off channel=0 note=52 velocity=0 time=0
note_on channel=0 note=64 velocity=95 time=0
note_off channel=0 note=64 velocity=0 time=0
note_on channel=0 note=52 velocity=95 time=0
note_off channel=0 note=52 velocity=0 time=0
note_on channel=0 note=64 velocity=95 time=0
note_off channel=0 note=64 velocity=0 time=0
note_on channel=0 note=52 velocity=95 time=0
note_off channel=0 note=52 velocity=0 time=0
note_on channel=0 note=64 velocity=95 time=0
note_off channel=0 note=64 velocity=0 time=0
note_on channel=0 note=52 velocity=95 time=0
note_off channel=0 note=52 velocity=0 time=0
note_on channel=0 note=64 velocity=95 time=0
note_off channel=0 note=64 velocity=0 time=0
note_on channel=0 note=52 velocity=95 time=0
note_off channel=0 note=52 velocity=0 time=0
note_on channel=0 note=67 velocity=95 time=240
note_off channel=0 note=67 velocity=0 time=240
note_on channel=0 note=52 velocity=95 time=0
note_off channel=0 note=52 velocity=0 time=0
note_on channel=0 note=67 velocity=95 time=0
note_off channel=0 note=67 velocity=0 time=0
note_on channel=0 note=52 velocity=95 time=0
note_off channel=0 note=52 velocity=0 time=0
note_on channel=0 note=67 velocity=95 time=0
note_off channel=0 note=67 velocity=0 time=0
note_on channel=0 note=52 velocity=95 time=0
note_off channel=0 note=52 velocity=0 time=0
note_on channel=0 note=66 velocity=95 time=0
note_off channel=0 note=66 velocity=0 time=0
note_on channel=0 note=52 velocity=95 time=0
note_off channel=0 note=52 velocity=0 time=0
note_on channel=0 note=64 velocity=95 time=0
note_off channel=0 note=64 velocity=0 time=0
note_on channel=0 note=52 velocity=95 time=0
note_off channel=0 note=52 velocity=0 time=0
note_on channel=0 note=60 velocity=95 time=0
note_off channel=0 note=60 velocity=0 time=0
note_on channel=0 note=52 velocity=95 time=0
note_off channel=0 note=52 velocity=0 time=0
note_on channel=0 note=60 velocity=95 time=0
note_off channel=0 note=60 velocity=0 time=0
note_on channel=0 note=52 velocity=95 time=0
note_off channel=0 note=52 velocity=0 time=0
note_on channel=0 note=60 velocity=95 time=0
note_off channel=0 note=60 velocity=0 time=0
note_on channel=0 note=52 velocity=95 time=0
note_off channel=0 note=52 velocity=0 time=0
note_on channel=0 note=60 velocity=95 time=0
note_off channel=0 note=60 velocity=0 time=0
note_on channel=0 note=52 velocity=95 time=0
note_off channel=0 note=52 velocity=0 time=0
note_on channel=0 note=60 velocity=95 time=0
note_off channel=0 note=60 velocity=0 time=0
note_on channel=0 note=52 velocity=95 time=0
note_off channel=0 note=52 velocity=0 time=0
note_on channel=0 note=60 velocity=95 time=0
note_off channel=0 note=60 velocity=0 time=0
note_on channel=0 note=52 velocity=95 time=0
note_off channel=0 note=52 velocity=0 time=0
note_on channel=0 note=59 velocity=95 time=0
note_off channel=0 note=59 velocity=0 time=0
note_on channel=0 note=52 velocity=95 time=0
note_off channel=0 note=52 velocity=0 time=0
note_on channel=0 note=59 velocity=95 time=0
note_off channel=0 note=59 velocity=0 time=0
note_on channel=0 note=52 velocity=95 time=0
note_off channel=0 note=52 velocity=0 time=0
note_on channel=0 note=59 velocity=95 time=0
note_off channel=0 note=59 velocity=0 time=0
note_on channel=0 note=52 velocity=95 time=0
note_off channel=0 note=52 velocity=0 time=0
note_on channel=0 note=60 velocity=95 time=0
note_off channel=0 note=60 velocity=0 time=0
note_on channel=0 note=52 velocity=95 time=0
note_off channel=0 note=52 velocity=0 time=0
note_on channel=0 note=60 velocity=95 time=0
note_off channel=0 note=60 velocity=0 time=0
note_on channel=0 note=52 velocity=95 time=0
note_off channel=0 note=52 velocity=0 time=0
note_on channel=0 note=60 velocity=95 time=0
note_off channel=0 note=60 velocity=0 time=0
note_on channel=0 note=52 velocity=95 time=0
note_off channel=0 note=52 velocity=0 time=0
note_on channel=0 note=62 velocity=95 time=0
note_off channel=0 note=62 velocity=0 time=0
note_on channel=0 note=52 velocity=95 time=0
note_off channel=0 note=52 velocity=0 time=0
note_on channel=0 note=66 velocity=95 time=168960
note_off channel=0 note=66 velocity=0 time=168960
note_on channel=0 note=61 velocity=95 time=0
note_off channel=0 note=61 velocity=0 time=0
note_on channel=0 note=54 velocity=95 time=0
note_off channel=0 note=54 velocity=0 time=0
MetaMessage('end_of_track', time=0)
