MetaMessage type: track_name, time: 0, actual_time: 0
type: program_change, time: 0, actual_time: 0
type=control_change channel=0 control=7 value=124 time=0 actual_time=0
type=note_on channel=0 note=59 velocity=80 time=7800 actual_time=7800
type=note_on channel=0 note=59 velocity=0 time=96 actual_time=7896
type=note_on channel=0 note=59 velocity=80 time=24 actual_time=7920
type=note_on channel=0 note=59 velocity=0 time=96 actual_time=8016
type=note_on channel=0 note=59 velocity=80 time=24 actual_time=8040
type=note_on channel=0 note=59 velocity=0 time=48 actual_time=8088
type=note_on channel=0 note=62 velocity=80 time=12 actual_time=8100
type=note_on channel=0 note=62 velocity=0 time=144 actual_time=8244
type=note_on channel=0 note=59 velocity=80 time=36 actual_time=8280
type=note_on channel=0 note=59 velocity=0 time=96 actual_time=8376
type=note_on channel=0 note=57 velocity=80 time=24 actual_time=8400
type=note_on channel=0 note=57 velocity=0 time=96 actual_time=8496
type=note_on channel=0 note=57 velocity=80 time=24 actual_time=8520
type=note_on channel=0 note=57 velocity=0 time=48 actual_time=8568
type=note_on channel=0 note=57 velocity=80 time=12 actual_time=8580
type=note_on channel=0 note=57 velocity=0 time=156 actual_time=8736
type=note_on channel=0 note=57 velocity=80 time=24 actual_time=8760
type=note_on channel=0 note=57 velocity=0 time=96 actual_time=8856
type=note_on channel=0 note=57 velocity=80 time=24 actual_time=8880
type=note_on channel=0 note=57 velocity=0 time=96 actual_time=8976
type=note_on channel=0 note=57 velocity=80 time=24 actual_time=9000
type=note_on channel=0 note=57 velocity=0 time=96 actual_time=9096
type=note_on channel=0 note=57 velocity=80 time=24 actual_time=9120
type=note_on channel=0 note=57 velocity=0 time=48 actual_time=9168
type=note_on channel=0 note=57 velocity=80 time=12 actual_time=9180
type=note_on channel=0 note=57 velocity=0 time=96 actual_time=9276
type=note_on channel=0 note=59 velocity=80 time=24 actual_time=9300
type=note_on channel=0 note=59 velocity=0 time=192 actual_time=9492
type=note_on channel=0 note=59 velocity=80 time=228 actual_time=9720
type=note_on channel=0 note=59 velocity=0 time=96 actual_time=9816
type=note_on channel=0 note=59 velocity=80 time=24 actual_time=9840
type=note_on channel=0 note=59 velocity=0 time=96 actual_time=9936
type=note_on channel=0 note=59 velocity=80 time=24 actual_time=9960
type=note_on channel=0 note=59 velocity=0 time=96 actual_time=10056
type=note_on channel=0 note=62 velocity=80 time=24 actual_time=10080
type=note_on channel=0 note=62 velocity=0 time=48 actual_time=10128
type=note_on channel=0 note=62 velocity=80 time=12 actual_time=10140
type=note_on channel=0 note=62 velocity=0 time=96 actual_time=10236
type=note_on channel=0 note=62 velocity=80 time=24 actual_time=10260
type=note_on channel=0 note=62 velocity=0 time=96 actual_time=10356
type=note_on channel=0 note=62 velocity=80 time=24 actual_time=10380
type=note_on channel=0 note=62 velocity=0 time=96 actual_time=10476
type=note_on channel=0 note=62 velocity=80 time=24 actual_time=10500
type=note_on channel=0 note=62 velocity=0 time=108 actual_time=10608
type=note_on channel=0 note=62 velocity=80 time=12 actual_time=10620
type=note_on channel=0 note=62 velocity=0 time=144 actual_time=10764
type=note_on channel=0 note=62 velocity=80 time=36 actual_time=10800
type=note_on channel=0 note=62 velocity=0 time=96 actual_time=10896
type=note_on channel=0 note=62 velocity=80 time=24 actual_time=10920
type=note_on channel=0 note=62 velocity=0 time=96 actual_time=11016
type=note_on channel=0 note=61 velocity=80 time=24 actual_time=11040
type=note_on channel=0 note=61 velocity=0 time=96 actual_time=11136
type=note_on channel=0 note=61 velocity=80 time=24 actual_time=11160
type=note_on channel=0 note=61 velocity=0 time=48 actual_time=11208
type=note_on channel=0 note=62 velocity=80 time=12 actual_time=11220
type=note_on channel=0 note=62 velocity=0 time=96 actual_time=11316
type=note_on channel=0 note=59 velocity=80 time=24 actual_time=11340
type=note_on channel=0 note=59 velocity=0 time=96 actual_time=11436
type=note_on channel=0 note=59 velocity=80 time=164 actual_time=11600
type=note_on channel=0 note=59 velocity=0 time=32 actual_time=11632
type=note_on channel=0 note=59 velocity=80 time=8 actual_time=11640
type=note_on channel=0 note=59 velocity=0 time=96 actual_time=11736
type=note_on channel=0 note=59 velocity=80 time=24 actual_time=11760
type=note_on channel=0 note=59 velocity=0 time=96 actual_time=11856
type=note_on channel=0 note=59 velocity=80 time=24 actual_time=11880
type=note_on channel=0 note=59 velocity=0 time=48 actual_time=11928
type=note_on channel=0 note=62 velocity=80 time=12 actual_time=11940
type=note_on channel=0 note=62 velocity=0 time=144 actual_time=12084
type=note_on channel=0 note=59 velocity=80 time=36 actual_time=12120
type=note_on channel=0 note=59 velocity=0 time=96 actual_time=12216
type=note_on channel=0 note=57 velocity=80 time=24 actual_time=12240
type=note_on channel=0 note=57 velocity=0 time=96 actual_time=12336
type=note_on channel=0 note=57 velocity=80 time=24 actual_time=12360
type=note_on channel=0 note=57 velocity=0 time=48 actual_time=12408
type=note_on channel=0 note=57 velocity=80 time=12 actual_time=12420
type=note_on channel=0 note=57 velocity=0 time=156 actual_time=12576
type=note_on channel=0 note=57 velocity=80 time=24 actual_time=12600
type=note_on channel=0 note=57 velocity=0 time=96 actual_time=12696
type=note_on channel=0 note=57 velocity=80 time=24 actual_time=12720
type=note_on channel=0 note=57 velocity=0 time=48 actual_time=12768
type=note_on channel=0 note=57 velocity=80 time=12 actual_time=12780
type=note_on channel=0 note=57 velocity=0 time=96 actual_time=12876
type=note_on channel=0 note=59 velocity=80 time=24 actual_time=12900
type=note_on channel=0 note=59 velocity=0 time=384 actual_time=13284
type=note_on channel=0 note=59 velocity=80 time=276 actual_time=13560
type=note_on channel=0 note=59 velocity=0 time=96 actual_time=13656
type=note_on channel=0 note=59 velocity=80 time=24 actual_time=13680
type=note_on channel=0 note=59 velocity=0 time=96 actual_time=13776
type=note_on channel=0 note=59 velocity=80 time=24 actual_time=13800
type=note_on channel=0 note=59 velocity=0 time=96 actual_time=13896
type=note_on channel=0 note=59 velocity=80 time=24 actual_time=13920
type=note_on channel=0 note=59 velocity=0 time=48 actual_time=13968
type=note_on channel=0 note=59 velocity=80 time=12 actual_time=13980
type=note_on channel=0 note=59 velocity=0 time=96 actual_time=14076
type=note_on channel=0 note=59 velocity=80 time=24 actual_time=14100
type=note_on channel=0 note=59 velocity=0 time=96 actual_time=14196
type=note_on channel=0 note=59 velocity=80 time=24 actual_time=14220
type=note_on channel=0 note=59 velocity=0 time=96 actual_time=14316
type=note_on channel=0 note=59 velocity=80 time=24 actual_time=14340
type=note_on channel=0 note=57 velocity=80 time=60 actual_time=14400
type=note_on channel=0 note=59 velocity=0 time=36 actual_time=14436
type=note_on channel=0 note=57 velocity=0 time=348 actual_time=14784
type=note_on channel=0 note=57 velocity=80 time=456 actual_time=15240
type=note_on channel=0 note=57 velocity=0 time=312 actual_time=15552
type=note_on channel=0 note=59 velocity=80 time=3768 actual_time=19320
type=note_on channel=0 note=59 velocity=0 time=96 actual_time=19416
type=note_on channel=0 note=59 velocity=80 time=24 actual_time=19440
type=note_on channel=0 note=59 velocity=0 time=96 actual_time=19536
type=note_on channel=0 note=59 velocity=80 time=24 actual_time=19560
type=note_on channel=0 note=59 velocity=0 time=48 actual_time=19608
type=note_on channel=0 note=59 velocity=80 time=12 actual_time=19620
type=note_on channel=0 note=59 velocity=0 time=144 actual_time=19764
type=note_on channel=0 note=57 velocity=80 time=36 actual_time=19800
type=note_on channel=0 note=57 velocity=0 time=96 actual_time=19896
type=note_on channel=0 note=57 velocity=80 time=24 actual_time=19920
type=note_on channel=0 note=57 velocity=0 time=96 actual_time=20016
type=note_on channel=0 note=54 velocity=80 time=24 actual_time=20040
type=note_on channel=0 note=54 velocity=0 time=48 actual_time=20088
type=note_on channel=0 note=57 velocity=80 time=12 actual_time=20100
type=note_on channel=0 note=57 velocity=0 time=156 actual_time=20256
type=note_on channel=0 note=57 velocity=80 time=24 actual_time=20280
type=note_on channel=0 note=57 velocity=0 time=96 actual_time=20376
type=note_on channel=0 note=57 velocity=80 time=24 actual_time=20400
type=note_on channel=0 note=57 velocity=0 time=48 actual_time=20448
type=note_on channel=0 note=57 velocity=80 time=12 actual_time=20460
type=note_on channel=0 note=57 velocity=0 time=96 actual_time=20556
type=note_on channel=0 note=57 velocity=80 time=24 actual_time=20580
type=note_on channel=0 note=57 velocity=0 time=384 actual_time=20964
type=note_on channel=0 note=54 velocity=80 time=396 actual_time=21360
type=note_on channel=0 note=54 velocity=0 time=96 actual_time=21456
type=note_on channel=0 note=54 velocity=80 time=24 actual_time=21480
type=note_on channel=0 note=54 velocity=0 time=48 actual_time=21528
type=note_on channel=0 note=57 velocity=80 time=12 actual_time=21540
type=note_on channel=0 note=57 velocity=0 time=96 actual_time=21636
type=note_on channel=0 note=57 velocity=80 time=24 actual_time=21660
type=note_on channel=0 note=57 velocity=0 time=96 actual_time=21756
type=note_on channel=0 note=57 velocity=80 time=24 actual_time=21780
type=note_on channel=0 note=57 velocity=0 time=96 actual_time=21876
type=note_on channel=0 note=57 velocity=80 time=24 actual_time=21900
type=note_on channel=0 note=57 velocity=0 time=48 actual_time=21948
type=note_on channel=0 note=57 velocity=80 time=12 actual_time=21960
type=note_on channel=0 note=57 velocity=0 time=48 actual_time=22008
type=note_on channel=0 note=57 velocity=80 time=12 actual_time=22020
type=note_on channel=0 note=57 velocity=0 time=108 actual_time=22128
type=note_on channel=0 note=59 velocity=80 time=12 actual_time=22140
type=note_on channel=0 note=59 velocity=0 time=96 actual_time=22236
type=note_on channel=0 note=57 velocity=80 time=24 actual_time=22260
type=note_on channel=0 note=57 velocity=0 time=48 actual_time=22308
type=note_on channel=0 note=57 velocity=80 time=12 actual_time=22320
type=note_on channel=0 note=57 velocity=0 time=96 actual_time=22416
type=note_on channel=0 note=57 velocity=80 time=24 actual_time=22440
type=note_on channel=0 note=57 velocity=0 time=48 actual_time=22488
type=note_on channel=0 note=52 velocity=80 time=12 actual_time=22500
type=note_on channel=0 note=52 velocity=0 time=96 actual_time=22596
type=note_on channel=0 note=52 velocity=80 time=24 actual_time=22620
type=note_on channel=0 note=52 velocity=0 time=96 actual_time=22716
type=note_on channel=0 note=52 velocity=80 time=24 actual_time=22740
type=note_on channel=0 note=52 velocity=0 time=96 actual_time=22836
type=note_on channel=0 note=50 velocity=80 time=24 actual_time=22860
type=note_on channel=0 note=50 velocity=0 time=96 actual_time=22956
type=note_on channel=0 note=57 velocity=80 time=204 actual_time=23160
type=note_on channel=0 note=57 velocity=0 time=96 actual_time=23256
type=note_on channel=0 note=57 velocity=80 time=24 actual_time=23280
type=note_on channel=0 note=57 velocity=0 time=48 actual_time=23328
type=note_on channel=0 note=57 velocity=80 time=12 actual_time=23340
type=note_on channel=0 note=57 velocity=0 time=96 actual_time=23436
type=note_on channel=0 note=59 velocity=80 time=24 actual_time=23460
type=note_on channel=0 note=59 velocity=0 time=96 actual_time=23556
type=note_on channel=0 note=57 velocity=80 time=24 actual_time=23580
type=note_on channel=0 note=57 velocity=0 time=192 actual_time=23772
type=note_on channel=0 note=57 velocity=80 time=48 actual_time=23820
type=note_on channel=0 note=57 velocity=0 time=144 actual_time=23964
type=note_on channel=0 note=57 velocity=80 time=36 actual_time=24000
type=note_on channel=0 note=57 velocity=0 time=48 actual_time=24048
type=note_on channel=0 note=57 velocity=80 time=12 actual_time=24060
type=note_on channel=0 note=57 velocity=0 time=96 actual_time=24156
type=note_on channel=0 note=57 velocity=80 time=24 actual_time=24180
type=note_on channel=0 note=57 velocity=0 time=96 actual_time=24276
type=note_on channel=0 note=57 velocity=80 time=24 actual_time=24300
type=note_on channel=0 note=57 velocity=0 time=96 actual_time=24396
type=note_on channel=0 note=59 velocity=80 time=24 actual_time=24420
type=note_on channel=0 note=59 velocity=0 time=288 actual_time=24708
type=note_on channel=0 note=59 velocity=80 time=192 actual_time=24900
type=note_on channel=0 note=59 velocity=0 time=48 actual_time=24948
type=note_on channel=0 note=59 velocity=80 time=12 actual_time=24960
type=note_on channel=0 note=59 velocity=0 time=96 actual_time=25056
type=note_on channel=0 note=59 velocity=80 time=24 actual_time=25080
type=note_on channel=0 note=59 velocity=0 time=96 actual_time=25176
type=note_on channel=0 note=59 velocity=80 time=24 actual_time=25200
type=note_on channel=0 note=59 velocity=0 time=96 actual_time=25296
type=note_on channel=0 note=62 velocity=80 time=24 actual_time=25320
type=note_on channel=0 note=62 velocity=0 time=192 actual_time=25512
type=note_on channel=0 note=62 velocity=80 time=48 actual_time=25560
type=note_on channel=0 note=62 velocity=0 time=192 actual_time=25752
type=note_on channel=0 note=62 velocity=80 time=48 actual_time=25800
type=note_on channel=0 note=62 velocity=0 time=216 actual_time=26016
type=note_on channel=0 note=61 velocity=80 time=24 actual_time=26040
type=note_on channel=0 note=61 velocity=0 time=96 actual_time=26136
type=note_on channel=0 note=61 velocity=80 time=24 actual_time=26160
type=note_on channel=0 note=61 velocity=0 time=96 actual_time=26256
type=note_on channel=0 note=62 velocity=80 time=24 actual_time=26280
type=note_on channel=0 note=62 velocity=0 time=96 actual_time=26376
type=note_on channel=0 note=59 velocity=80 time=24 actual_time=26400
type=note_on channel=0 note=59 velocity=0 time=192 actual_time=26592
type=note_on channel=0 note=59 velocity=80 time=408 actual_time=27000
type=note_on channel=0 note=59 velocity=0 time=96 actual_time=27096
type=note_on channel=0 note=59 velocity=80 time=24 actual_time=27120
type=note_on channel=0 note=59 velocity=0 time=96 actual_time=27216
type=note_on channel=0 note=59 velocity=80 time=24 actual_time=27240
type=note_on channel=0 note=59 velocity=0 time=96 actual_time=27336
type=note_on channel=0 note=62 velocity=80 time=24 actual_time=27360
type=note_on channel=0 note=62 velocity=0 time=96 actual_time=27456
type=note_on channel=0 note=59 velocity=80 time=24 actual_time=27480
type=note_on channel=0 note=59 velocity=0 time=96 actual_time=27576
type=note_on channel=0 note=59 velocity=80 time=24 actual_time=27600
type=note_on channel=0 note=59 velocity=0 time=96 actual_time=27696
type=note_on channel=0 note=59 velocity=80 time=24 actual_time=27720
type=note_on channel=0 note=59 velocity=0 time=96 actual_time=27816
type=note_on channel=0 note=62 velocity=80 time=24 actual_time=27840
type=note_on channel=0 note=62 velocity=0 time=96 actual_time=27936
type=note_on channel=0 note=62 velocity=80 time=24 actual_time=27960
type=note_on channel=0 note=62 velocity=0 time=96 actual_time=28056
type=note_on channel=0 note=62 velocity=80 time=24 actual_time=28080
type=note_on channel=0 note=62 velocity=0 time=96 actual_time=28176
type=note_on channel=0 note=62 velocity=80 time=24 actual_time=28200
type=note_on channel=0 note=62 velocity=0 time=96 actual_time=28296
type=note_on channel=0 note=61 velocity=80 time=24 actual_time=28320
type=note_on channel=0 note=61 velocity=0 time=96 actual_time=28416
type=note_on channel=0 note=61 velocity=80 time=24 actual_time=28440
type=note_on channel=0 note=61 velocity=0 time=48 actual_time=28488
type=note_on channel=0 note=62 velocity=80 time=12 actual_time=28500
type=note_on channel=0 note=62 velocity=0 time=192 actual_time=28692
type=note_on channel=0 note=59 velocity=80 time=228 actual_time=28920
type=note_on channel=0 note=59 velocity=0 time=96 actual_time=29016
type=note_on channel=0 note=59 velocity=80 time=24 actual_time=29040
type=note_on channel=0 note=59 velocity=0 time=96 actual_time=29136
type=note_on channel=0 note=59 velocity=80 time=24 actual_time=29160
type=note_on channel=0 note=59 velocity=0 time=48 actual_time=29208
type=note_on channel=0 note=62 velocity=80 time=12 actual_time=29220
type=note_on channel=0 note=62 velocity=0 time=168 actual_time=29388
type=note_on channel=0 note=59 velocity=80 time=12 actual_time=29400
type=note_on channel=0 note=59 velocity=0 time=96 actual_time=29496
type=note_on channel=0 note=59 velocity=80 time=24 actual_time=29520
type=note_on channel=0 note=59 velocity=0 time=96 actual_time=29616
type=note_on channel=0 note=59 velocity=80 time=24 actual_time=29640
type=note_on channel=0 note=59 velocity=0 time=96 actual_time=29736
type=note_on channel=0 note=62 velocity=80 time=24 actual_time=29760
type=note_on channel=0 note=62 velocity=0 time=96 actual_time=29856
type=note_on channel=0 note=62 velocity=80 time=24 actual_time=29880
type=note_on channel=0 note=62 velocity=0 time=96 actual_time=29976
type=note_on channel=0 note=62 velocity=80 time=24 actual_time=30000
type=note_on channel=0 note=62 velocity=0 time=96 actual_time=30096
type=note_on channel=0 note=62 velocity=80 time=24 actual_time=30120
type=note_on channel=0 note=62 velocity=0 time=96 actual_time=30216
type=note_on channel=0 note=61 velocity=80 time=24 actual_time=30240
type=note_on channel=0 note=61 velocity=0 time=96 actual_time=30336
type=note_on channel=0 note=61 velocity=80 time=24 actual_time=30360
type=note_on channel=0 note=61 velocity=0 time=96 actual_time=30456
type=note_on channel=0 note=61 velocity=80 time=24 actual_time=30480
type=note_on channel=0 note=61 velocity=0 time=96 actual_time=30576
type=note_on channel=0 note=62 velocity=80 time=24 actual_time=30600
type=note_on channel=0 note=62 velocity=0 time=96 actual_time=30696
type=note_on channel=0 note=59 velocity=80 time=144 actual_time=30840
type=note_on channel=0 note=59 velocity=0 time=96 actual_time=30936
type=note_on channel=0 note=59 velocity=80 time=24 actual_time=30960
type=note_on channel=0 note=59 velocity=0 time=96 actual_time=31056
type=note_on channel=0 note=59 velocity=80 time=24 actual_time=31080
type=note_on channel=0 note=59 velocity=0 time=96 actual_time=31176
type=note_on channel=0 note=62 velocity=80 time=24 actual_time=31200
type=note_on channel=0 note=62 velocity=0 time=96 actual_time=31296
type=note_on channel=0 note=59 velocity=80 time=24 actual_time=31320
type=note_on channel=0 note=59 velocity=0 time=96 actual_time=31416
type=note_on channel=0 note=57 velocity=80 time=24 actual_time=31440
type=note_on channel=0 note=57 velocity=0 time=96 actual_time=31536
type=note_on channel=0 note=57 velocity=80 time=24 actual_time=31560
type=note_on channel=0 note=57 velocity=0 time=96 actual_time=31656
type=note_on channel=0 note=62 velocity=80 time=24 actual_time=31680
type=note_on channel=0 note=62 velocity=0 time=96 actual_time=31776
type=note_on channel=0 note=62 velocity=80 time=24 actual_time=31800
type=note_on channel=0 note=62 velocity=0 time=96 actual_time=31896
type=note_on channel=0 note=62 velocity=80 time=24 actual_time=31920
type=note_on channel=0 note=62 velocity=0 time=96 actual_time=32016
type=note_on channel=0 note=61 velocity=80 time=24 actual_time=32040
type=note_on channel=0 note=61 velocity=0 time=192 actual_time=32232
type=note_on channel=0 note=61 velocity=80 time=48 actual_time=32280
type=note_on channel=0 note=61 velocity=0 time=192 actual_time=32472
type=note_on channel=0 note=61 velocity=80 time=48 actual_time=32520
type=note_on channel=0 note=61 velocity=0 time=96 actual_time=32616
type=note_on channel=0 note=62 velocity=80 time=24 actual_time=32640
type=note_on channel=0 note=62 velocity=0 time=96 actual_time=32736
type=note_on channel=0 note=62 velocity=80 time=144 actual_time=32880
type=note_on channel=0 note=62 velocity=0 time=96 actual_time=32976
type=note_on channel=0 note=59 velocity=80 time=24 actual_time=33000
type=note_on channel=0 note=59 velocity=0 time=48 actual_time=33048
type=note_on channel=0 note=57 velocity=80 time=12 actual_time=33060
type=note_on channel=0 note=57 velocity=0 time=192 actual_time=33252
type=note_on channel=0 note=59 velocity=80 time=5268 actual_time=38520
type=note_on channel=0 note=59 velocity=0 time=96 actual_time=38616
type=note_on channel=0 note=59 velocity=80 time=24 actual_time=38640
type=note_on channel=0 note=59 velocity=0 time=96 actual_time=38736
type=note_on channel=0 note=59 velocity=80 time=24 actual_time=38760
type=note_on channel=0 note=59 velocity=0 time=96 actual_time=38856
type=note_on channel=0 note=59 velocity=80 time=24 actual_time=38880
type=note_on channel=0 note=59 velocity=0 time=96 actual_time=38976
type=note_on channel=0 note=57 velocity=80 time=24 actual_time=39000
type=note_on channel=0 note=57 velocity=0 time=96 actual_time=39096
type=note_on channel=0 note=57 velocity=80 time=24 actual_time=39120
type=note_on channel=0 note=57 velocity=0 time=96 actual_time=39216
type=note_on channel=0 note=57 velocity=80 time=24 actual_time=39240
type=note_on channel=0 note=57 velocity=0 time=96 actual_time=39336
type=note_on channel=0 note=57 velocity=80 time=24 actual_time=39360
type=note_on channel=0 note=57 velocity=0 time=96 actual_time=39456
type=note_on channel=0 note=57 velocity=80 time=24 actual_time=39480
type=note_on channel=0 note=57 velocity=0 time=96 actual_time=39576
type=note_on channel=0 note=57 velocity=80 time=24 actual_time=39600
type=note_on channel=0 note=57 velocity=0 time=96 actual_time=39696
type=note_on channel=0 note=57 velocity=80 time=24 actual_time=39720
type=note_on channel=0 note=57 velocity=0 time=96 actual_time=39816
type=note_on channel=0 note=57 velocity=80 time=24 actual_time=39840
type=note_on channel=0 note=57 velocity=0 time=48 actual_time=39888
type=note_on channel=0 note=57 velocity=80 time=12 actual_time=39900
type=note_on channel=0 note=57 velocity=0 time=96 actual_time=39996
type=note_on channel=0 note=57 velocity=80 time=24 actual_time=40020
type=note_on channel=0 note=57 velocity=0 time=96 actual_time=40116
type=note_on channel=0 note=57 velocity=80 time=24 actual_time=40140
type=note_on channel=0 note=57 velocity=0 time=96 actual_time=40236
type=note_on channel=0 note=54 velocity=80 time=24 actual_time=40260
type=note_on channel=0 note=54 velocity=0 time=156 actual_time=40416
type=note_on channel=0 note=54 velocity=80 time=24 actual_time=40440
type=note_on channel=0 note=54 velocity=0 time=96 actual_time=40536
type=note_on channel=0 note=54 velocity=80 time=24 actual_time=40560
type=note_on channel=0 note=54 velocity=0 time=96 actual_time=40656
type=note_on channel=0 note=54 velocity=80 time=24 actual_time=40680
type=note_on channel=0 note=54 velocity=0 time=96 actual_time=40776
type=note_on channel=0 note=57 velocity=80 time=24 actual_time=40800
type=note_on channel=0 note=57 velocity=0 time=48 actual_time=40848
type=note_on channel=0 note=57 velocity=80 time=12 actual_time=40860
type=note_on channel=0 note=57 velocity=0 time=144 actual_time=41004
type=note_on channel=0 note=57 velocity=80 time=36 actual_time=41040
type=note_on channel=0 note=57 velocity=0 time=96 actual_time=41136
type=note_on channel=0 note=57 velocity=80 time=24 actual_time=41160
type=note_on channel=0 note=57 velocity=0 time=48 actual_time=41208
type=note_on channel=0 note=59 velocity=80 time=12 actual_time=41220
type=note_on channel=0 note=59 velocity=0 time=156 actual_time=41376
type=note_on channel=0 note=57 velocity=80 time=24 actual_time=41400
type=note_on channel=0 note=57 velocity=0 time=96 actual_time=41496
type=note_on channel=0 note=57 velocity=80 time=24 actual_time=41520
type=note_on channel=0 note=57 velocity=0 time=48 actual_time=41568
type=note_on channel=0 note=57 velocity=80 time=12 actual_time=41580
type=note_on channel=0 note=57 velocity=0 time=96 actual_time=41676
type=note_on channel=0 note=57 velocity=80 time=24 actual_time=41700
type=note_on channel=0 note=57 velocity=0 time=96 actual_time=41796
type=note_on channel=0 note=57 velocity=80 time=24 actual_time=41820
type=note_on channel=0 note=57 velocity=0 time=96 actual_time=41916
type=note_on channel=0 note=59 velocity=80 time=24 actual_time=41940
type=note_on channel=0 note=59 velocity=0 time=192 actual_time=42132
type=note_on channel=0 note=59 velocity=80 time=228 actual_time=42360
type=note_on channel=0 note=59 velocity=0 time=96 actual_time=42456
type=note_on channel=0 note=59 velocity=80 time=24 actual_time=42480
type=note_on channel=0 note=59 velocity=0 time=96 actual_time=42576
type=note_on channel=0 note=59 velocity=80 time=24 actual_time=42600
type=note_on channel=0 note=59 velocity=0 time=48 actual_time=42648
type=note_on channel=0 note=59 velocity=80 time=12 actual_time=42660
type=note_on channel=0 note=59 velocity=0 time=168 actual_time=42828
type=note_on channel=0 note=57 velocity=80 time=12 actual_time=42840
type=note_on channel=0 note=57 velocity=0 time=96 actual_time=42936
type=note_on channel=0 note=57 velocity=80 time=24 actual_time=42960
type=note_on channel=0 note=57 velocity=0 time=96 actual_time=43056
type=note_on channel=0 note=54 velocity=80 time=24 actual_time=43080
type=note_on channel=0 note=54 velocity=0 time=48 actual_time=43128
type=note_on channel=0 note=57 velocity=80 time=12 actual_time=43140
type=note_on channel=0 note=57 velocity=0 time=156 actual_time=43296
type=note_on channel=0 note=57 velocity=80 time=24 actual_time=43320
type=note_on channel=0 note=57 velocity=0 time=96 actual_time=43416
type=note_on channel=0 note=57 velocity=80 time=24 actual_time=43440
type=note_on channel=0 note=57 velocity=0 time=96 actual_time=43536
type=note_on channel=0 note=54 velocity=80 time=24 actual_time=43560
type=note_on channel=0 note=54 velocity=0 time=48 actual_time=43608
type=note_on channel=0 note=57 velocity=80 time=12 actual_time=43620
type=note_on channel=0 note=57 velocity=0 time=144 actual_time=43764
type=note_on channel=0 note=57 velocity=80 time=36 actual_time=43800
type=note_on channel=0 note=57 velocity=0 time=48 actual_time=43848
type=note_on channel=0 note=57 velocity=80 time=12 actual_time=43860
type=note_on channel=0 note=57 velocity=0 time=96 actual_time=43956
type=note_on channel=0 note=57 velocity=80 time=24 actual_time=43980
type=note_on channel=0 note=57 velocity=0 time=96 actual_time=44076
type=note_on channel=0 note=54 velocity=80 time=24 actual_time=44100
type=note_on channel=0 note=54 velocity=0 time=156 actual_time=44256
type=note_on channel=0 note=54 velocity=80 time=24 actual_time=44280
type=note_on channel=0 note=54 velocity=0 time=96 actual_time=44376
type=note_on channel=0 note=54 velocity=80 time=24 actual_time=44400
type=note_on channel=0 note=54 velocity=0 time=96 actual_time=44496
type=note_on channel=0 note=54 velocity=80 time=24 actual_time=44520
type=note_on channel=0 note=54 velocity=0 time=48 actual_time=44568
type=note_on channel=0 note=54 velocity=80 time=12 actual_time=44580
type=note_on channel=0 note=54 velocity=0 time=144 actual_time=44724
type=note_on channel=0 note=54 velocity=80 time=96 actual_time=44820
type=note_on channel=0 note=54 velocity=0 time=48 actual_time=44868
type=note_on channel=0 note=54 velocity=80 time=12 actual_time=44880
type=note_on channel=0 note=54 velocity=0 time=48 actual_time=44928
type=note_on channel=0 note=54 velocity=80 time=12 actual_time=44940
type=note_on channel=0 note=54 velocity=0 time=144 actual_time=45084
type=note_on channel=0 note=62 velocity=80 time=36 actual_time=45120
type=note_on channel=0 note=62 velocity=0 time=48 actual_time=45168
type=note_on channel=0 note=62 velocity=80 time=12 actual_time=45180
type=note_on channel=0 note=62 velocity=0 time=144 actual_time=45324
type=note_on channel=0 note=62 velocity=80 time=36 actual_time=45360
type=note_on channel=0 note=62 velocity=0 time=48 actual_time=45408
type=note_on channel=0 note=62 velocity=80 time=12 actual_time=45420
type=note_on channel=0 note=62 velocity=0 time=96 actual_time=45516
type=note_on channel=0 note=61 velocity=80 time=24 actual_time=45540
type=note_on channel=0 note=61 velocity=0 time=192 actual_time=45732
type=note_on channel=0 note=59 velocity=80 time=468 actual_time=46200
type=note_on channel=0 note=59 velocity=0 time=96 actual_time=46296
type=note_on channel=0 note=59 velocity=80 time=24 actual_time=46320
type=note_on channel=0 note=59 velocity=0 time=96 actual_time=46416
type=note_on channel=0 note=59 velocity=80 time=24 actual_time=46440
type=note_on channel=0 note=59 velocity=0 time=96 actual_time=46536
type=note_on channel=0 note=62 velocity=80 time=24 actual_time=46560
type=note_on channel=0 note=62 velocity=0 time=96 actual_time=46656
type=note_on channel=0 note=59 velocity=80 time=24 actual_time=46680
type=note_on channel=0 note=59 velocity=0 time=96 actual_time=46776
type=note_on channel=0 note=59 velocity=80 time=24 actual_time=46800
type=note_on channel=0 note=59 velocity=0 time=96 actual_time=46896
type=note_on channel=0 note=59 velocity=80 time=24 actual_time=46920
type=note_on channel=0 note=59 velocity=0 time=96 actual_time=47016
type=note_on channel=0 note=62 velocity=80 time=24 actual_time=47040
type=note_on channel=0 note=62 velocity=0 time=96 actual_time=47136
type=note_on channel=0 note=62 velocity=80 time=24 actual_time=47160
type=note_on channel=0 note=62 velocity=0 time=96 actual_time=47256
type=note_on channel=0 note=62 velocity=80 time=24 actual_time=47280
type=note_on channel=0 note=62 velocity=0 time=96 actual_time=47376
type=note_on channel=0 note=62 velocity=80 time=24 actual_time=47400
type=note_on channel=0 note=62 velocity=0 time=96 actual_time=47496
type=note_on channel=0 note=61 velocity=80 time=24 actual_time=47520
type=note_on channel=0 note=61 velocity=0 time=96 actual_time=47616
type=note_on channel=0 note=61 velocity=80 time=24 actual_time=47640
type=note_on channel=0 note=61 velocity=0 time=48 actual_time=47688
type=note_on channel=0 note=62 velocity=80 time=12 actual_time=47700
type=note_on channel=0 note=62 velocity=0 time=192 actual_time=47892
type=note_on channel=0 note=59 velocity=80 time=228 actual_time=48120
type=note_on channel=0 note=59 velocity=0 time=96 actual_time=48216
type=note_on channel=0 note=59 velocity=80 time=24 actual_time=48240
type=note_on channel=0 note=59 velocity=0 time=96 actual_time=48336
type=note_on channel=0 note=59 velocity=80 time=24 actual_time=48360
type=note_on channel=0 note=59 velocity=0 time=48 actual_time=48408
type=note_on channel=0 note=62 velocity=80 time=12 actual_time=48420
type=note_on channel=0 note=62 velocity=0 time=168 actual_time=48588
type=note_on channel=0 note=59 velocity=80 time=12 actual_time=48600
type=note_on channel=0 note=59 velocity=0 time=96 actual_time=48696
type=note_on channel=0 note=59 velocity=80 time=24 actual_time=48720
type=note_on channel=0 note=59 velocity=0 time=96 actual_time=48816
type=note_on channel=0 note=59 velocity=80 time=24 actual_time=48840
type=note_on channel=0 note=59 velocity=0 time=96 actual_time=48936
type=note_on channel=0 note=62 velocity=80 time=24 actual_time=48960
type=note_on channel=0 note=62 velocity=0 time=96 actual_time=49056
type=note_on channel=0 note=62 velocity=80 time=24 actual_time=49080
type=note_on channel=0 note=62 velocity=0 time=96 actual_time=49176
type=note_on channel=0 note=62 velocity=80 time=24 actual_time=49200
type=note_on channel=0 note=62 velocity=0 time=96 actual_time=49296
type=note_on channel=0 note=62 velocity=80 time=24 actual_time=49320
type=note_on channel=0 note=62 velocity=0 time=96 actual_time=49416
type=note_on channel=0 note=61 velocity=80 time=24 actual_time=49440
type=note_on channel=0 note=61 velocity=0 time=96 actual_time=49536
type=note_on channel=0 note=61 velocity=80 time=24 actual_time=49560
type=note_on channel=0 note=61 velocity=0 time=96 actual_time=49656
type=note_on channel=0 note=61 velocity=80 time=24 actual_time=49680
type=note_on channel=0 note=61 velocity=0 time=96 actual_time=49776
type=note_on channel=0 note=62 velocity=80 time=24 actual_time=49800
type=note_on channel=0 note=62 velocity=0 time=96 actual_time=49896
type=note_on channel=0 note=59 velocity=80 time=144 actual_time=50040
type=note_on channel=0 note=59 velocity=0 time=96 actual_time=50136
type=note_on channel=0 note=59 velocity=80 time=24 actual_time=50160
type=note_on channel=0 note=59 velocity=0 time=96 actual_time=50256
type=note_on channel=0 note=59 velocity=80 time=24 actual_time=50280
type=note_on channel=0 note=59 velocity=0 time=96 actual_time=50376
type=note_on channel=0 note=62 velocity=80 time=24 actual_time=50400
type=note_on channel=0 note=62 velocity=0 time=96 actual_time=50496
type=note_on channel=0 note=59 velocity=80 time=24 actual_time=50520
type=note_on channel=0 note=59 velocity=0 time=96 actual_time=50616
type=note_on channel=0 note=57 velocity=80 time=24 actual_time=50640
type=note_on channel=0 note=57 velocity=0 time=96 actual_time=50736
type=note_on channel=0 note=57 velocity=80 time=24 actual_time=50760
type=note_on channel=0 note=57 velocity=0 time=96 actual_time=50856
type=note_on channel=0 note=62 velocity=80 time=24 actual_time=50880
type=note_on channel=0 note=62 velocity=0 time=96 actual_time=50976
type=note_on channel=0 note=62 velocity=80 time=24 actual_time=51000
type=note_on channel=0 note=62 velocity=0 time=96 actual_time=51096
type=note_on channel=0 note=62 velocity=80 time=24 actual_time=51120
type=note_on channel=0 note=62 velocity=0 time=96 actual_time=51216
type=note_on channel=0 note=61 velocity=80 time=24 actual_time=51240
type=note_on channel=0 note=61 velocity=0 time=192 actual_time=51432
type=note_on channel=0 note=61 velocity=80 time=48 actual_time=51480
type=note_on channel=0 note=61 velocity=0 time=192 actual_time=51672
type=note_on channel=0 note=61 velocity=80 time=48 actual_time=51720
type=note_on channel=0 note=61 velocity=0 time=96 actual_time=51816
type=note_on channel=0 note=62 velocity=80 time=24 actual_time=51840
type=note_on channel=0 note=62 velocity=0 time=96 actual_time=51936
type=note_on channel=0 note=62 velocity=80 time=144 actual_time=52080
type=note_on channel=0 note=62 velocity=0 time=96 actual_time=52176
type=note_on channel=0 note=59 velocity=80 time=24 actual_time=52200
type=note_on channel=0 note=59 velocity=0 time=48 actual_time=52248
type=note_on channel=0 note=57 velocity=80 time=12 actual_time=52260
type=note_on channel=0 note=57 velocity=0 time=192 actual_time=52452
type=note_on channel=0 note=57 velocity=80 time=4428 actual_time=56880
type=note_on channel=0 note=57 velocity=0 time=96 actual_time=56976
type=note_on channel=0 note=57 velocity=80 time=24 actual_time=57000
type=note_on channel=0 note=57 velocity=0 time=48 actual_time=57048
type=note_on channel=0 note=57 velocity=80 time=12 actual_time=57060
type=note_on channel=0 note=57 velocity=0 time=96 actual_time=57156
type=note_on channel=0 note=57 velocity=80 time=24 actual_time=57180
type=note_on channel=0 note=57 velocity=0 time=96 actual_time=57276
type=note_on channel=0 note=57 velocity=80 time=24 actual_time=57300
type=note_on channel=0 note=57 velocity=0 time=96 actual_time=57396
type=note_on channel=0 note=57 velocity=80 time=24 actual_time=57420
type=note_on channel=0 note=57 velocity=0 time=96 actual_time=57516
type=note_on channel=0 note=57 velocity=80 time=24 actual_time=57540
type=note_on channel=0 note=57 velocity=0 time=156 actual_time=57696
type=note_on channel=0 note=59 velocity=80 time=7704 actual_time=65400
type=note_on channel=0 note=59 velocity=0 time=96 actual_time=65496
type=note_on channel=0 note=59 velocity=80 time=24 actual_time=65520
type=note_on channel=0 note=59 velocity=0 time=96 actual_time=65616
type=note_on channel=0 note=59 velocity=80 time=24 actual_time=65640
type=note_on channel=0 note=59 velocity=0 time=96 actual_time=65736
type=note_on channel=0 note=59 velocity=80 time=24 actual_time=65760
type=note_on channel=0 note=59 velocity=0 time=96 actual_time=65856
type=note_on channel=0 note=57 velocity=80 time=24 actual_time=65880
type=note_on channel=0 note=57 velocity=0 time=96 actual_time=65976
type=note_on channel=0 note=57 velocity=80 time=24 actual_time=66000
type=note_on channel=0 note=57 velocity=0 time=96 actual_time=66096
type=note_on channel=0 note=57 velocity=80 time=24 actual_time=66120
type=note_on channel=0 note=57 velocity=0 time=96 actual_time=66216
type=note_on channel=0 note=57 velocity=80 time=24 actual_time=66240
type=note_on channel=0 note=57 velocity=0 time=96 actual_time=66336
type=note_on channel=0 note=57 velocity=80 time=24 actual_time=66360
type=note_on channel=0 note=57 velocity=0 time=96 actual_time=66456
type=note_on channel=0 note=57 velocity=80 time=24 actual_time=66480
type=note_on channel=0 note=57 velocity=0 time=96 actual_time=66576
type=note_on channel=0 note=57 velocity=80 time=24 actual_time=66600
type=note_on channel=0 note=57 velocity=0 time=96 actual_time=66696
type=note_on channel=0 note=57 velocity=80 time=24 actual_time=66720
type=note_on channel=0 note=57 velocity=0 time=96 actual_time=66816
type=note_on channel=0 note=57 velocity=80 time=24 actual_time=66840
type=note_on channel=0 note=57 velocity=0 time=48 actual_time=66888
type=note_on channel=0 note=57 velocity=80 time=12 actual_time=66900
type=note_on channel=0 note=57 velocity=0 time=192 actual_time=67092
type=note_on channel=0 note=54 velocity=80 time=228 actual_time=67320
type=note_on channel=0 note=54 velocity=0 time=96 actual_time=67416
type=note_on channel=0 note=54 velocity=80 time=24 actual_time=67440
type=note_on channel=0 note=54 velocity=0 time=96 actual_time=67536
type=note_on channel=0 note=54 velocity=80 time=24 actual_time=67560
type=note_on channel=0 note=54 velocity=0 time=48 actual_time=67608
type=note_on channel=0 note=57 velocity=80 time=12 actual_time=67620
type=note_on channel=0 note=57 velocity=0 time=144 actual_time=67764
type=note_on channel=0 note=57 velocity=80 time=36 actual_time=67800
type=note_on channel=0 note=57 velocity=0 time=96 actual_time=67896
type=note_on channel=0 note=57 velocity=80 time=24 actual_time=67920
type=note_on channel=0 note=57 velocity=0 time=96 actual_time=68016
type=note_on channel=0 note=57 velocity=80 time=24 actual_time=68040
type=note_on channel=0 note=57 velocity=0 time=96 actual_time=68136
type=note_on channel=0 note=59 velocity=80 time=24 actual_time=68160
type=note_on channel=0 note=59 velocity=0 time=96 actual_time=68256
type=note_on channel=0 note=59 velocity=80 time=24 actual_time=68280
type=note_on channel=0 note=59 velocity=0 time=96 actual_time=68376
type=note_on channel=0 note=59 velocity=80 time=24 actual_time=68400
type=note_on channel=0 note=59 velocity=0 time=96 actual_time=68496
type=note_on channel=0 note=62 velocity=80 time=144 actual_time=68640
type=note_on channel=0 note=62 velocity=0 time=96 actual_time=68736
type=note_on channel=0 note=59 velocity=80 time=24 actual_time=68760
type=note_on channel=0 note=59 velocity=0 time=96 actual_time=68856
type=note_on channel=0 note=59 velocity=80 time=24 actual_time=68880
type=note_on channel=0 note=59 velocity=0 time=96 actual_time=68976
type=note_on channel=0 note=59 velocity=80 time=24 actual_time=69000
type=note_on channel=0 note=57 velocity=80 time=120 actual_time=69120
type=note_on channel=0 note=59 velocity=0 time=24 actual_time=69144
type=note_on channel=0 note=57 velocity=0 time=72 actual_time=69216
type=note_on channel=0 note=57 velocity=80 time=24 actual_time=69240
type=note_on channel=0 note=57 velocity=0 time=96 actual_time=69336
type=note_on channel=0 note=57 velocity=80 time=24 actual_time=69360
type=note_on channel=0 note=57 velocity=0 time=96 actual_time=69456
type=note_on channel=0 note=57 velocity=80 time=24 actual_time=69480
type=note_on channel=0 note=57 velocity=0 time=96 actual_time=69576
type=note_on channel=0 note=57 velocity=80 time=24 actual_time=69600
type=note_on channel=0 note=57 velocity=0 time=96 actual_time=69696
type=note_on channel=0 note=57 velocity=80 time=24 actual_time=69720
type=note_on channel=0 note=57 velocity=0 time=96 actual_time=69816
type=note_on channel=0 note=57 velocity=80 time=24 actual_time=69840
type=note_on channel=0 note=57 velocity=0 time=96 actual_time=69936
type=note_on channel=0 note=57 velocity=80 time=24 actual_time=69960
type=note_on channel=0 note=57 velocity=0 time=96 actual_time=70056
type=note_on channel=0 note=57 velocity=80 time=24 actual_time=70080
type=note_on channel=0 note=57 velocity=0 time=96 actual_time=70176
type=note_on channel=0 note=57 velocity=80 time=24 actual_time=70200
type=note_on channel=0 note=57 velocity=0 time=96 actual_time=70296
type=note_on channel=0 note=57 velocity=80 time=24 actual_time=70320
type=note_on channel=0 note=57 velocity=0 time=96 actual_time=70416
type=note_on channel=0 note=57 velocity=80 time=24 actual_time=70440
type=note_on channel=0 note=57 velocity=0 time=192 actual_time=70632
type=note_on channel=0 note=57 velocity=80 time=48 actual_time=70680
type=note_on channel=0 note=57 velocity=0 time=192 actual_time=70872
type=note_on channel=0 note=59 velocity=80 time=48 actual_time=70920
type=note_on channel=0 note=59 velocity=0 time=216 actual_time=71136
type=note_on channel=0 note=62 velocity=80 time=144 actual_time=71280
type=note_on channel=0 note=62 velocity=0 time=96 actual_time=71376
type=note_on channel=0 note=59 velocity=80 time=24 actual_time=71400
type=note_on channel=0 note=59 velocity=0 time=48 actual_time=71448
type=note_on channel=0 note=62 velocity=80 time=12 actual_time=71460
type=note_on channel=0 note=62 velocity=0 time=384 actual_time=71844
type=note_on channel=0 note=66 velocity=80 time=156 actual_time=72000
type=note_on channel=0 note=66 velocity=0 time=768 actual_time=72768
type=note_on channel=0 note=59 velocity=80 time=312 actual_time=73080
type=note_on channel=0 note=59 velocity=0 time=96 actual_time=73176
type=note_on channel=0 note=59 velocity=80 time=24 actual_time=73200
type=note_on channel=0 note=59 velocity=0 time=96 actual_time=73296
type=note_on channel=0 note=59 velocity=80 time=24 actual_time=73320
type=note_on channel=0 note=59 velocity=0 time=96 actual_time=73416
type=note_on channel=0 note=62 velocity=80 time=24 actual_time=73440
type=note_on channel=0 note=62 velocity=0 time=96 actual_time=73536
type=note_on channel=0 note=59 velocity=80 time=24 actual_time=73560
type=note_on channel=0 note=59 velocity=0 time=96 actual_time=73656
type=note_on channel=0 note=59 velocity=80 time=24 actual_time=73680
type=note_on channel=0 note=59 velocity=0 time=96 actual_time=73776
type=note_on channel=0 note=59 velocity=80 time=24 actual_time=73800
type=note_on channel=0 note=59 velocity=0 time=96 actual_time=73896
type=note_on channel=0 note=62 velocity=80 time=24 actual_time=73920
type=note_on channel=0 note=62 velocity=0 time=96 actual_time=74016
type=note_on channel=0 note=62 velocity=80 time=24 actual_time=74040
type=note_on channel=0 note=62 velocity=0 time=96 actual_time=74136
type=note_on channel=0 note=62 velocity=80 time=24 actual_time=74160
type=note_on channel=0 note=62 velocity=0 time=96 actual_time=74256
type=note_on channel=0 note=62 velocity=80 time=24 actual_time=74280
type=note_on channel=0 note=62 velocity=0 time=96 actual_time=74376
type=note_on channel=0 note=61 velocity=80 time=24 actual_time=74400
type=note_on channel=0 note=61 velocity=0 time=96 actual_time=74496
type=note_on channel=0 note=61 velocity=80 time=24 actual_time=74520
type=note_on channel=0 note=61 velocity=0 time=48 actual_time=74568
type=note_on channel=0 note=62 velocity=80 time=12 actual_time=74580
type=note_on channel=0 note=62 velocity=0 time=192 actual_time=74772
type=note_on channel=0 note=59 velocity=80 time=228 actual_time=75000
type=note_on channel=0 note=59 velocity=0 time=96 actual_time=75096
type=note_on channel=0 note=59 velocity=80 time=24 actual_time=75120
type=note_on channel=0 note=59 velocity=0 time=96 actual_time=75216
type=note_on channel=0 note=59 velocity=80 time=24 actual_time=75240
type=note_on channel=0 note=59 velocity=0 time=48 actual_time=75288
type=note_on channel=0 note=62 velocity=80 time=12 actual_time=75300
type=note_on channel=0 note=62 velocity=0 time=168 actual_time=75468
type=note_on channel=0 note=59 velocity=80 time=12 actual_time=75480
type=note_on channel=0 note=59 velocity=0 time=96 actual_time=75576
type=note_on channel=0 note=59 velocity=80 time=24 actual_time=75600
type=note_on channel=0 note=59 velocity=0 time=96 actual_time=75696
type=note_on channel=0 note=59 velocity=80 time=24 actual_time=75720
type=note_on channel=0 note=59 velocity=0 time=96 actual_time=75816
type=note_on channel=0 note=62 velocity=80 time=24 actual_time=75840
type=note_on channel=0 note=62 velocity=0 time=96 actual_time=75936
type=note_on channel=0 note=62 velocity=80 time=24 actual_time=75960
type=note_on channel=0 note=62 velocity=0 time=96 actual_time=76056
type=note_on channel=0 note=62 velocity=80 time=24 actual_time=76080
type=note_on channel=0 note=62 velocity=0 time=96 actual_time=76176
type=note_on channel=0 note=62 velocity=80 time=24 actual_time=76200
type=note_on channel=0 note=62 velocity=0 time=96 actual_time=76296
type=note_on channel=0 note=61 velocity=80 time=24 actual_time=76320
type=note_on channel=0 note=61 velocity=0 time=96 actual_time=76416
type=note_on channel=0 note=61 velocity=80 time=24 actual_time=76440
type=note_on channel=0 note=61 velocity=0 time=96 actual_time=76536
type=note_on channel=0 note=61 velocity=80 time=24 actual_time=76560
type=note_on channel=0 note=61 velocity=0 time=96 actual_time=76656
type=note_on channel=0 note=62 velocity=80 time=24 actual_time=76680
type=note_on channel=0 note=62 velocity=0 time=96 actual_time=76776
type=note_on channel=0 note=59 velocity=80 time=144 actual_time=76920
type=note_on channel=0 note=59 velocity=0 time=96 actual_time=77016
type=note_on channel=0 note=59 velocity=80 time=24 actual_time=77040
type=note_on channel=0 note=59 velocity=0 time=96 actual_time=77136
type=note_on channel=0 note=59 velocity=80 time=24 actual_time=77160
type=note_on channel=0 note=59 velocity=0 time=96 actual_time=77256
type=note_on channel=0 note=62 velocity=80 time=24 actual_time=77280
type=note_on channel=0 note=62 velocity=0 time=96 actual_time=77376
type=note_on channel=0 note=59 velocity=80 time=24 actual_time=77400
type=note_on channel=0 note=59 velocity=0 time=96 actual_time=77496
type=note_on channel=0 note=57 velocity=80 time=24 actual_time=77520
type=note_on channel=0 note=57 velocity=0 time=96 actual_time=77616
type=note_on channel=0 note=57 velocity=80 time=24 actual_time=77640
type=note_on channel=0 note=57 velocity=0 time=96 actual_time=77736
type=note_on channel=0 note=62 velocity=80 time=24 actual_time=77760
type=note_on channel=0 note=62 velocity=0 time=96 actual_time=77856
type=note_on channel=0 note=62 velocity=80 time=24 actual_time=77880
type=note_on channel=0 note=62 velocity=0 time=96 actual_time=77976
type=note_on channel=0 note=62 velocity=80 time=24 actual_time=78000
type=note_on channel=0 note=62 velocity=0 time=96 actual_time=78096
type=note_on channel=0 note=61 velocity=80 time=24 actual_time=78120
type=note_on channel=0 note=61 velocity=0 time=192 actual_time=78312
type=note_on channel=0 note=61 velocity=80 time=48 actual_time=78360
type=note_on channel=0 note=61 velocity=0 time=192 actual_time=78552
type=note_on channel=0 note=61 velocity=80 time=48 actual_time=78600
type=note_on channel=0 note=61 velocity=0 time=96 actual_time=78696
type=note_on channel=0 note=62 velocity=80 time=24 actual_time=78720
type=note_on channel=0 note=62 velocity=0 time=96 actual_time=78816
type=note_on channel=0 note=62 velocity=80 time=144 actual_time=78960
type=note_on channel=0 note=62 velocity=0 time=96 actual_time=79056
type=note_on channel=0 note=59 velocity=80 time=24 actual_time=79080
type=note_on channel=0 note=59 velocity=0 time=48 actual_time=79128
type=note_on channel=0 note=57 velocity=80 time=12 actual_time=79140
type=note_on channel=0 note=57 velocity=0 time=192 actual_time=79332
type=note_on channel=0 note=59 velocity=80 time=2748 actual_time=82080
type=note_on channel=0 note=59 velocity=0 time=96 actual_time=82176
type=note_on channel=0 note=57 velocity=80 time=24 actual_time=82200
type=note_on channel=0 note=57 velocity=0 time=96 actual_time=82296
type=note_on channel=0 note=57 velocity=80 time=24 actual_time=82320
type=note_on channel=0 note=57 velocity=0 time=96 actual_time=82416
type=note_on channel=0 note=59 velocity=80 time=24 actual_time=82440
type=note_on channel=0 note=59 velocity=0 time=96 actual_time=82536
type=note_on channel=0 note=59 velocity=80 time=24 actual_time=82560
type=note_on channel=0 note=59 velocity=0 time=768 actual_time=83328
type=note_on channel=0 note=59 velocity=80 time=672 actual_time=84000
type=note_on channel=0 note=59 velocity=0 time=96 actual_time=84096
type=note_on channel=0 note=57 velocity=80 time=24 actual_time=84120
type=note_on channel=0 note=57 velocity=0 time=96 actual_time=84216
type=note_on channel=0 note=57 velocity=80 time=24 actual_time=84240
type=note_on channel=0 note=57 velocity=0 time=96 actual_time=84336
type=note_on channel=0 note=59 velocity=80 time=24 actual_time=84360
type=note_on channel=0 note=59 velocity=0 time=96 actual_time=84456
type=note_on channel=0 note=59 velocity=80 time=24 actual_time=84480
type=note_on channel=0 note=59 velocity=0 time=768 actual_time=85248
type=note_on channel=0 note=59 velocity=80 time=672 actual_time=85920
type=note_on channel=0 note=59 velocity=0 time=96 actual_time=86016
type=note_on channel=0 note=57 velocity=80 time=24 actual_time=86040
type=note_on channel=0 note=57 velocity=0 time=96 actual_time=86136
type=note_on channel=0 note=57 velocity=80 time=24 actual_time=86160
type=note_on channel=0 note=57 velocity=0 time=96 actual_time=86256
type=note_on channel=0 note=59 velocity=80 time=24 actual_time=86280
type=note_on channel=0 note=59 velocity=0 time=96 actual_time=86376
type=note_on channel=0 note=59 velocity=80 time=24 actual_time=86400
type=note_on channel=0 note=59 velocity=0 time=1728 actual_time=88128
MetaMessage type: end_of_track, time: 0, actual_time: 88128
MetaMessage type: track_name, time: 0, actual_time: 0
type: program_change, time: 0, actual_time: 0
type=control_change channel=0 control=7 value=124 time=0 actual_time=0
type=note_on channel=0 note=59 velocity=80 time=7800 actual_time=7800
type=note_on channel=0 note=59 velocity=0 time=96 actual_time=7896
type=note_on channel=0 note=59 velocity=80 time=24 actual_time=7920
type=note_on channel=0 note=59 velocity=0 time=96 actual_time=8016
type=note_on channel=0 note=59 velocity=80 time=24 actual_time=8040
type=note_on channel=0 note=59 velocity=0 time=48 actual_time=8088
type=note_on channel=0 note=62 velocity=80 time=12 actual_time=8100
type=note_on channel=0 note=62 velocity=0 time=144 actual_time=8244
type=note_on channel=0 note=59 velocity=80 time=36 actual_time=8280
type=note_on channel=0 note=59 velocity=0 time=96 actual_time=8376
type=note_on channel=0 note=57 velocity=80 time=24 actual_time=8400
type=note_on channel=0 note=57 velocity=0 time=96 actual_time=8496
type=note_on channel=0 note=57 velocity=80 time=24 actual_time=8520
type=note_on channel=0 note=57 velocity=0 time=48 actual_time=8568
type=note_on channel=0 note=57 velocity=80 time=12 actual_time=8580
type=note_on channel=0 note=57 velocity=0 time=156 actual_time=8736
type=note_on channel=0 note=57 velocity=80 time=24 actual_time=8760
type=note_on channel=0 note=57 velocity=0 time=96 actual_time=8856
type=note_on channel=0 note=57 velocity=80 time=24 actual_time=8880
type=note_on channel=0 note=57 velocity=0 time=96 actual_time=8976
type=note_on channel=0 note=57 velocity=80 time=24 actual_time=9000
type=note_on channel=0 note=57 velocity=0 time=96 actual_time=9096
type=note_on channel=0 note=57 velocity=80 time=24 actual_time=9120
type=note_on channel=0 note=57 velocity=0 time=48 actual_time=9168
type=note_on channel=0 note=57 velocity=80 time=12 actual_time=9180
type=note_on channel=0 note=57 velocity=0 time=96 actual_time=9276
type=note_on channel=0 note=59 velocity=80 time=24 actual_time=9300
type=note_on channel=0 note=59 velocity=0 time=192 actual_time=9492
type=note_on channel=0 note=59 velocity=80 time=228 actual_time=9720
type=note_on channel=0 note=59 velocity=0 time=96 actual_time=9816
type=note_on channel=0 note=59 velocity=80 time=24 actual_time=9840
type=note_on channel=0 note=59 velocity=0 time=96 actual_time=9936
type=note_on channel=0 note=59 velocity=80 time=24 actual_time=9960
type=note_on channel=0 note=59 velocity=0 time=96 actual_time=10056
type=note_on channel=0 note=62 velocity=80 time=24 actual_time=10080
type=note_on channel=0 note=62 velocity=0 time=48 actual_time=10128
type=note_on channel=0 note=62 velocity=80 time=12 actual_time=10140
type=note_on channel=0 note=62 velocity=0 time=96 actual_time=10236
type=note_on channel=0 note=62 velocity=80 time=24 actual_time=10260
type=note_on channel=0 note=62 velocity=0 time=96 actual_time=10356
type=note_on channel=0 note=62 velocity=80 time=24 actual_time=10380
type=note_on channel=0 note=62 velocity=0 time=96 actual_time=10476
type=note_on channel=0 note=62 velocity=80 time=24 actual_time=10500
type=note_on channel=0 note=62 velocity=0 time=108 actual_time=10608
type=note_on channel=0 note=62 velocity=80 time=12 actual_time=10620
type=note_on channel=0 note=62 velocity=0 time=144 actual_time=10764
type=note_on channel=0 note=62 velocity=80 time=36 actual_time=10800
type=note_on channel=0 note=62 velocity=0 time=96 actual_time=10896
type=note_on channel=0 note=62 velocity=80 time=24 actual_time=10920
type=note_on channel=0 note=62 velocity=0 time=96 actual_time=11016
type=note_on channel=0 note=61 velocity=80 time=24 actual_time=11040
type=note_on channel=0 note=61 velocity=0 time=96 actual_time=11136
type=note_on channel=0 note=61 velocity=80 time=24 actual_time=11160
type=note_on channel=0 note=61 velocity=0 time=48 actual_time=11208
type=note_on channel=0 note=62 velocity=80 time=12 actual_time=11220
type=note_on channel=0 note=62 velocity=0 time=96 actual_time=11316
type=note_on channel=0 note=59 velocity=80 time=24 actual_time=11340
type=note_on channel=0 note=59 velocity=0 time=96 actual_time=11436
type=note_on channel=0 note=59 velocity=80 time=164 actual_time=11600
type=note_on channel=0 note=59 velocity=0 time=32 actual_time=11632
type=note_on channel=0 note=59 velocity=80 time=8 actual_time=11640
type=note_on channel=0 note=59 velocity=0 time=96 actual_time=11736
type=note_on channel=0 note=59 velocity=80 time=24 actual_time=11760
type=note_on channel=0 note=59 velocity=0 time=96 actual_time=11856
type=note_on channel=0 note=59 velocity=80 time=24 actual_time=11880
type=note_on channel=0 note=59 velocity=0 time=48 actual_time=11928
type=note_on channel=0 note=62 velocity=80 time=12 actual_time=11940
type=note_on channel=0 note=62 velocity=0 time=144 actual_time=12084
type=note_on channel=0 note=59 velocity=80 time=36 actual_time=12120
type=note_on channel=0 note=59 velocity=0 time=96 actual_time=12216
type=note_on channel=0 note=57 velocity=80 time=24 actual_time=12240
type=note_on channel=0 note=57 velocity=0 time=96 actual_time=12336
type=note_on channel=0 note=57 velocity=80 time=24 actual_time=12360
type=note_on channel=0 note=57 velocity=0 time=48 actual_time=12408
type=note_on channel=0 note=57 velocity=80 time=12 actual_time=12420
type=note_on channel=0 note=57 velocity=0 time=156 actual_time=12576
type=note_on channel=0 note=57 velocity=80 time=24 actual_time=12600
type=note_on channel=0 note=57 velocity=0 time=96 actual_time=12696
type=note_on channel=0 note=57 velocity=80 time=24 actual_time=12720
type=note_on channel=0 note=57 velocity=0 time=48 actual_time=12768
type=note_on channel=0 note=57 velocity=80 time=12 actual_time=12780
type=note_on channel=0 note=57 velocity=0 time=96 actual_time=12876
type=note_on channel=0 note=59 velocity=80 time=24 actual_time=12900
type=note_on channel=0 note=59 velocity=0 time=384 actual_time=13284
type=note_on channel=0 note=59 velocity=80 time=276 actual_time=13560
type=note_on channel=0 note=59 velocity=0 time=96 actual_time=13656
type=note_on channel=0 note=59 velocity=80 time=24 actual_time=13680
type=note_on channel=0 note=59 velocity=0 time=96 actual_time=13776
type=note_on channel=0 note=59 velocity=80 time=24 actual_time=13800
type=note_on channel=0 note=59 velocity=0 time=96 actual_time=13896
type=note_on channel=0 note=59 velocity=80 time=24 actual_time=13920
type=note_on channel=0 note=59 velocity=0 time=48 actual_time=13968
type=note_on channel=0 note=59 velocity=80 time=12 actual_time=13980
type=note_on channel=0 note=59 velocity=0 time=96 actual_time=14076
type=note_on channel=0 note=59 velocity=80 time=24 actual_time=14100
type=note_on channel=0 note=59 velocity=0 time=96 actual_time=14196
type=note_on channel=0 note=59 velocity=80 time=24 actual_time=14220
type=note_on channel=0 note=59 velocity=0 time=96 actual_time=14316
type=note_on channel=0 note=59 velocity=80 time=24 actual_time=14340
type=note_on channel=0 note=57 velocity=80 time=60 actual_time=14400
type=note_on channel=0 note=59 velocity=0 time=36 actual_time=14436
type=note_on channel=0 note=57 velocity=0 time=348 actual_time=14784
type=note_on channel=0 note=57 velocity=80 time=456 actual_time=15240
type=note_on channel=0 note=57 velocity=0 time=312 actual_time=15552
type=note_on channel=0 note=59 velocity=80 time=3768 actual_time=19320
type=note_on channel=0 note=59 velocity=0 time=96 actual_time=19416
type=note_on channel=0 note=59 velocity=80 time=24 actual_time=19440
type=note_on channel=0 note=59 velocity=0 time=96 actual_time=19536
type=note_on channel=0 note=59 velocity=80 time=24 actual_time=19560
type=note_on channel=0 note=59 velocity=0 time=48 actual_time=19608
type=note_on channel=0 note=59 velocity=80 time=12 actual_time=19620
type=note_on channel=0 note=59 velocity=0 time=144 actual_time=19764
type=note_on channel=0 note=57 velocity=80 time=36 actual_time=19800
type=note_on channel=0 note=57 velocity=0 time=96 actual_time=19896
type=note_on channel=0 note=57 velocity=80 time=24 actual_time=19920
type=note_on channel=0 note=57 velocity=0 time=96 actual_time=20016
type=note_on channel=0 note=54 velocity=80 time=24 actual_time=20040
type=note_on channel=0 note=54 velocity=0 time=48 actual_time=20088
type=note_on channel=0 note=57 velocity=80 time=12 actual_time=20100
type=note_on channel=0 note=57 velocity=0 time=156 actual_time=20256
type=note_on channel=0 note=57 velocity=80 time=24 actual_time=20280
type=note_on channel=0 note=57 velocity=0 time=96 actual_time=20376
type=note_on channel=0 note=57 velocity=80 time=24 actual_time=20400
type=note_on channel=0 note=57 velocity=0 time=48 actual_time=20448
type=note_on channel=0 note=57 velocity=80 time=12 actual_time=20460
type=note_on channel=0 note=57 velocity=0 time=96 actual_time=20556
type=note_on channel=0 note=57 velocity=80 time=24 actual_time=20580
type=note_on channel=0 note=57 velocity=0 time=384 actual_time=20964
type=note_on channel=0 note=54 velocity=80 time=396 actual_time=21360
type=note_on channel=0 note=54 velocity=0 time=96 actual_time=21456
type=note_on channel=0 note=54 velocity=80 time=24 actual_time=21480
type=note_on channel=0 note=54 velocity=0 time=48 actual_time=21528
type=note_on channel=0 note=57 velocity=80 time=12 actual_time=21540
type=note_on channel=0 note=57 velocity=0 time=96 actual_time=21636
type=note_on channel=0 note=57 velocity=80 time=24 actual_time=21660
type=note_on channel=0 note=57 velocity=0 time=96 actual_time=21756
type=note_on channel=0 note=57 velocity=80 time=24 actual_time=21780
type=note_on channel=0 note=57 velocity=0 time=96 actual_time=21876
type=note_on channel=0 note=57 velocity=80 time=24 actual_time=21900
type=note_on channel=0 note=57 velocity=0 time=48 actual_time=21948
type=note_on channel=0 note=57 velocity=80 time=12 actual_time=21960
type=note_on channel=0 note=57 velocity=0 time=48 actual_time=22008
type=note_on channel=0 note=57 velocity=80 time=12 actual_time=22020
type=note_on channel=0 note=57 velocity=0 time=108 actual_time=22128
type=note_on channel=0 note=59 velocity=80 time=12 actual_time=22140
type=note_on channel=0 note=59 velocity=0 time=96 actual_time=22236
type=note_on channel=0 note=57 velocity=80 time=24 actual_time=22260
type=note_on channel=0 note=57 velocity=0 time=48 actual_time=22308
type=note_on channel=0 note=57 velocity=80 time=12 actual_time=22320
type=note_on channel=0 note=57 velocity=0 time=96 actual_time=22416
type=note_on channel=0 note=57 velocity=80 time=24 actual_time=22440
type=note_on channel=0 note=57 velocity=0 time=48 actual_time=22488
type=note_on channel=0 note=52 velocity=80 time=12 actual_time=22500
type=note_on channel=0 note=52 velocity=0 time=96 actual_time=22596
type=note_on channel=0 note=52 velocity=80 time=24 actual_time=22620
type=note_on channel=0 note=52 velocity=0 time=96 actual_time=22716
type=note_on channel=0 note=52 velocity=80 time=24 actual_time=22740
type=note_on channel=0 note=52 velocity=0 time=96 actual_time=22836
type=note_on channel=0 note=50 velocity=80 time=24 actual_time=22860
type=note_on channel=0 note=50 velocity=0 time=96 actual_time=22956
type=note_on channel=0 note=57 velocity=80 time=204 actual_time=23160
type=note_on channel=0 note=57 velocity=0 time=96 actual_time=23256
type=note_on channel=0 note=57 velocity=80 time=24 actual_time=23280
type=note_on channel=0 note=57 velocity=0 time=48 actual_time=23328
type=note_on channel=0 note=57 velocity=80 time=12 actual_time=23340
type=note_on channel=0 note=57 velocity=0 time=96 actual_time=23436
type=note_on channel=0 note=59 velocity=80 time=24 actual_time=23460
type=note_on channel=0 note=59 velocity=0 time=96 actual_time=23556
type=note_on channel=0 note=57 velocity=80 time=24 actual_time=23580
type=note_on channel=0 note=57 velocity=0 time=192 actual_time=23772
type=note_on channel=0 note=57 velocity=80 time=48 actual_time=23820
type=note_on channel=0 note=57 velocity=0 time=144 actual_time=23964
type=note_on channel=0 note=57 velocity=80 time=36 actual_time=24000
type=note_on channel=0 note=57 velocity=0 time=48 actual_time=24048
type=note_on channel=0 note=57 velocity=80 time=12 actual_time=24060
type=note_on channel=0 note=57 velocity=0 time=96 actual_time=24156
type=note_on channel=0 note=57 velocity=80 time=24 actual_time=24180
type=note_on channel=0 note=57 velocity=0 time=96 actual_time=24276
type=note_on channel=0 note=57 velocity=80 time=24 actual_time=24300
type=note_on channel=0 note=57 velocity=0 time=96 actual_time=24396
type=note_on channel=0 note=59 velocity=80 time=24 actual_time=24420
type=note_on channel=0 note=59 velocity=0 time=288 actual_time=24708
type=note_on channel=0 note=59 velocity=80 time=192 actual_time=24900
type=note_on channel=0 note=59 velocity=0 time=48 actual_time=24948
type=note_on channel=0 note=59 velocity=80 time=12 actual_time=24960
type=note_on channel=0 note=59 velocity=0 time=96 actual_time=25056
type=note_on channel=0 note=59 velocity=80 time=24 actual_time=25080
type=note_on channel=0 note=59 velocity=0 time=96 actual_time=25176
type=note_on channel=0 note=59 velocity=80 time=24 actual_time=25200
type=note_on channel=0 note=59 velocity=0 time=96 actual_time=25296
type=note_on channel=0 note=62 velocity=80 time=24 actual_time=25320
type=note_on channel=0 note=62 velocity=0 time=192 actual_time=25512
type=note_on channel=0 note=62 velocity=80 time=48 actual_time=25560
type=note_on channel=0 note=62 velocity=0 time=192 actual_time=25752
type=note_on channel=0 note=62 velocity=80 time=48 actual_time=25800
type=note_on channel=0 note=62 velocity=0 time=216 actual_time=26016
type=note_on channel=0 note=61 velocity=80 time=24 actual_time=26040
type=note_on channel=0 note=61 velocity=0 time=96 actual_time=26136
type=note_on channel=0 note=61 velocity=80 time=24 actual_time=26160
type=note_on channel=0 note=61 velocity=0 time=96 actual_time=26256
type=note_on channel=0 note=62 velocity=80 time=24 actual_time=26280
type=note_on channel=0 note=62 velocity=0 time=96 actual_time=26376
type=note_on channel=0 note=59 velocity=80 time=24 actual_time=26400
type=note_on channel=0 note=59 velocity=0 time=192 actual_time=26592
type=note_on channel=0 note=59 velocity=80 time=408 actual_time=27000
type=note_on channel=0 note=59 velocity=0 time=96 actual_time=27096
type=note_on channel=0 note=59 velocity=80 time=24 actual_time=27120
type=note_on channel=0 note=59 velocity=0 time=96 actual_time=27216
type=note_on channel=0 note=59 velocity=80 time=24 actual_time=27240
type=note_on channel=0 note=59 velocity=0 time=96 actual_time=27336
type=note_on channel=0 note=62 velocity=80 time=24 actual_time=27360
type=note_on channel=0 note=62 velocity=0 time=96 actual_time=27456
type=note_on channel=0 note=59 velocity=80 time=24 actual_time=27480
type=note_on channel=0 note=59 velocity=0 time=96 actual_time=27576
type=note_on channel=0 note=59 velocity=80 time=24 actual_time=27600
type=note_on channel=0 note=59 velocity=0 time=96 actual_time=27696
type=note_on channel=0 note=59 velocity=80 time=24 actual_time=27720
type=note_on channel=0 note=59 velocity=0 time=96 actual_time=27816
type=note_on channel=0 note=62 velocity=80 time=24 actual_time=27840
type=note_on channel=0 note=62 velocity=0 time=96 actual_time=27936
type=note_on channel=0 note=62 velocity=80 time=24 actual_time=27960
type=note_on channel=0 note=62 velocity=0 time=96 actual_time=28056
type=note_on channel=0 note=62 velocity=80 time=24 actual_time=28080
type=note_on channel=0 note=62 velocity=0 time=96 actual_time=28176
type=note_on channel=0 note=62 velocity=80 time=24 actual_time=28200
type=note_on channel=0 note=62 velocity=0 time=96 actual_time=28296
type=note_on channel=0 note=61 velocity=80 time=24 actual_time=28320
type=note_on channel=0 note=61 velocity=0 time=96 actual_time=28416
type=note_on channel=0 note=61 velocity=80 time=24 actual_time=28440
type=note_on channel=0 note=61 velocity=0 time=48 actual_time=28488
type=note_on channel=0 note=62 velocity=80 time=12 actual_time=28500
type=note_on channel=0 note=62 velocity=0 time=192 actual_time=28692
type=note_on channel=0 note=59 velocity=80 time=228 actual_time=28920
type=note_on channel=0 note=59 velocity=0 time=96 actual_time=29016
type=note_on channel=0 note=59 velocity=80 time=24 actual_time=29040
type=note_on channel=0 note=59 velocity=0 time=96 actual_time=29136
type=note_on channel=0 note=59 velocity=80 time=24 actual_time=29160
type=note_on channel=0 note=59 velocity=0 time=48 actual_time=29208
type=note_on channel=0 note=62 velocity=80 time=12 actual_time=29220
type=note_on channel=0 note=62 velocity=0 time=168 actual_time=29388
type=note_on channel=0 note=59 velocity=80 time=12 actual_time=29400
type=note_on channel=0 note=59 velocity=0 time=96 actual_time=29496
type=note_on channel=0 note=59 velocity=80 time=24 actual_time=29520
type=note_on channel=0 note=59 velocity=0 time=96 actual_time=29616
type=note_on channel=0 note=59 velocity=80 time=24 actual_time=29640
type=note_on channel=0 note=59 velocity=0 time=96 actual_time=29736
type=note_on channel=0 note=62 velocity=80 time=24 actual_time=29760
type=note_on channel=0 note=62 velocity=0 time=96 actual_time=29856
type=note_on channel=0 note=62 velocity=80 time=24 actual_time=29880
type=note_on channel=0 note=62 velocity=0 time=96 actual_time=29976
type=note_on channel=0 note=62 velocity=80 time=24 actual_time=30000
type=note_on channel=0 note=62 velocity=0 time=96 actual_time=30096
type=note_on channel=0 note=62 velocity=80 time=24 actual_time=30120
type=note_on channel=0 note=62 velocity=0 time=96 actual_time=30216
type=note_on channel=0 note=61 velocity=80 time=24 actual_time=30240
type=note_on channel=0 note=61 velocity=0 time=96 actual_time=30336
type=note_on channel=0 note=61 velocity=80 time=24 actual_time=30360
type=note_on channel=0 note=61 velocity=0 time=96 actual_time=30456
type=note_on channel=0 note=61 velocity=80 time=24 actual_time=30480
type=note_on channel=0 note=61 velocity=0 time=96 actual_time=30576
type=note_on channel=0 note=62 velocity=80 time=24 actual_time=30600
type=note_on channel=0 note=62 velocity=0 time=96 actual_time=30696
type=note_on channel=0 note=59 velocity=80 time=144 actual_time=30840
type=note_on channel=0 note=59 velocity=0 time=96 actual_time=30936
type=note_on channel=0 note=59 velocity=80 time=24 actual_time=30960
type=note_on channel=0 note=59 velocity=0 time=96 actual_time=31056
type=note_on channel=0 note=59 velocity=80 time=24 actual_time=31080
type=note_on channel=0 note=59 velocity=0 time=96 actual_time=31176
type=note_on channel=0 note=62 velocity=80 time=24 actual_time=31200
type=note_on channel=0 note=62 velocity=0 time=96 actual_time=31296
type=note_on channel=0 note=59 velocity=80 time=24 actual_time=31320
type=note_on channel=0 note=59 velocity=0 time=96 actual_time=31416
type=note_on channel=0 note=57 velocity=80 time=24 actual_time=31440
type=note_on channel=0 note=57 velocity=0 time=96 actual_time=31536
type=note_on channel=0 note=57 velocity=80 time=24 actual_time=31560
type=note_on channel=0 note=57 velocity=0 time=96 actual_time=31656
type=note_on channel=0 note=62 velocity=80 time=24 actual_time=31680
type=note_on channel=0 note=62 velocity=0 time=96 actual_time=31776
type=note_on channel=0 note=62 velocity=80 time=24 actual_time=31800
type=note_on channel=0 note=62 velocity=0 time=96 actual_time=31896
type=note_on channel=0 note=62 velocity=80 time=24 actual_time=31920
type=note_on channel=0 note=62 velocity=0 time=96 actual_time=32016
type=note_on channel=0 note=61 velocity=80 time=24 actual_time=32040
type=note_on channel=0 note=61 velocity=0 time=192 actual_time=32232
type=note_on channel=0 note=61 velocity=80 time=48 actual_time=32280
type=note_on channel=0 note=61 velocity=0 time=192 actual_time=32472
type=note_on channel=0 note=61 velocity=80 time=48 actual_time=32520
type=note_on channel=0 note=61 velocity=0 time=96 actual_time=32616
type=note_on channel=0 note=62 velocity=80 time=24 actual_time=32640
type=note_on channel=0 note=62 velocity=0 time=96 actual_time=32736
type=note_on channel=0 note=62 velocity=80 time=144 actual_time=32880
type=note_on channel=0 note=62 velocity=0 time=96 actual_time=32976
type=note_on channel=0 note=59 velocity=80 time=24 actual_time=33000
type=note_on channel=0 note=59 velocity=0 time=48 actual_time=33048
type=note_on channel=0 note=57 velocity=80 time=12 actual_time=33060
type=note_on channel=0 note=57 velocity=0 time=192 actual_time=33252
type=note_on channel=0 note=59 velocity=80 time=5268 actual_time=38520
type=note_on channel=0 note=59 velocity=0 time=96 actual_time=38616
type=note_on channel=0 note=59 velocity=80 time=24 actual_time=38640
type=note_on channel=0 note=59 velocity=0 time=96 actual_time=38736
type=note_on channel=0 note=59 velocity=80 time=24 actual_time=38760
type=note_on channel=0 note=59 velocity=0 time=96 actual_time=38856
type=note_on channel=0 note=59 velocity=80 time=24 actual_time=38880
type=note_on channel=0 note=59 velocity=0 time=96 actual_time=38976
type=note_on channel=0 note=57 velocity=80 time=24 actual_time=39000
type=note_on channel=0 note=57 velocity=0 time=96 actual_time=39096
type=note_on channel=0 note=57 velocity=80 time=24 actual_time=39120
type=note_on channel=0 note=57 velocity=0 time=96 actual_time=39216
type=note_on channel=0 note=57 velocity=80 time=24 actual_time=39240
type=note_on channel=0 note=57 velocity=0 time=96 actual_time=39336
type=note_on channel=0 note=57 velocity=80 time=24 actual_time=39360
type=note_on channel=0 note=57 velocity=0 time=96 actual_time=39456
type=note_on channel=0 note=57 velocity=80 time=24 actual_time=39480
type=note_on channel=0 note=57 velocity=0 time=96 actual_time=39576
type=note_on channel=0 note=57 velocity=80 time=24 actual_time=39600
type=note_on channel=0 note=57 velocity=0 time=96 actual_time=39696
type=note_on channel=0 note=57 velocity=80 time=24 actual_time=39720
type=note_on channel=0 note=57 velocity=0 time=96 actual_time=39816
type=note_on channel=0 note=57 velocity=80 time=24 actual_time=39840
type=note_on channel=0 note=57 velocity=0 time=48 actual_time=39888
type=note_on channel=0 note=57 velocity=80 time=12 actual_time=39900
type=note_on channel=0 note=57 velocity=0 time=96 actual_time=39996
type=note_on channel=0 note=57 velocity=80 time=24 actual_time=40020
type=note_on channel=0 note=57 velocity=0 time=96 actual_time=40116
type=note_on channel=0 note=57 velocity=80 time=24 actual_time=40140
type=note_on channel=0 note=57 velocity=0 time=96 actual_time=40236
type=note_on channel=0 note=54 velocity=80 time=24 actual_time=40260
type=note_on channel=0 note=54 velocity=0 time=156 actual_time=40416
type=note_on channel=0 note=54 velocity=80 time=24 actual_time=40440
type=note_on channel=0 note=54 velocity=0 time=96 actual_time=40536
type=note_on channel=0 note=54 velocity=80 time=24 actual_time=40560
type=note_on channel=0 note=54 velocity=0 time=96 actual_time=40656
type=note_on channel=0 note=54 velocity=80 time=24 actual_time=40680
type=note_on channel=0 note=54 velocity=0 time=96 actual_time=40776
type=note_on channel=0 note=57 velocity=80 time=24 actual_time=40800
type=note_on channel=0 note=57 velocity=0 time=48 actual_time=40848
type=note_on channel=0 note=57 velocity=80 time=12 actual_time=40860
type=note_on channel=0 note=57 velocity=0 time=144 actual_time=41004
type=note_on channel=0 note=57 velocity=80 time=36 actual_time=41040
type=note_on channel=0 note=57 velocity=0 time=96 actual_time=41136
type=note_on channel=0 note=57 velocity=80 time=24 actual_time=41160
type=note_on channel=0 note=57 velocity=0 time=48 actual_time=41208
type=note_on channel=0 note=59 velocity=80 time=12 actual_time=41220
type=note_on channel=0 note=59 velocity=0 time=156 actual_time=41376
type=note_on channel=0 note=57 velocity=80 time=24 actual_time=41400
type=note_on channel=0 note=57 velocity=0 time=96 actual_time=41496
type=note_on channel=0 note=57 velocity=80 time=24 actual_time=41520
type=note_on channel=0 note=57 velocity=0 time=48 actual_time=41568
type=note_on channel=0 note=57 velocity=80 time=12 actual_time=41580
type=note_on channel=0 note=57 velocity=0 time=96 actual_time=41676
type=note_on channel=0 note=57 velocity=80 time=24 actual_time=41700
type=note_on channel=0 note=57 velocity=0 time=96 actual_time=41796
type=note_on channel=0 note=57 velocity=80 time=24 actual_time=41820
type=note_on channel=0 note=57 velocity=0 time=96 actual_time=41916
type=note_on channel=0 note=59 velocity=80 time=24 actual_time=41940
type=note_on channel=0 note=59 velocity=0 time=192 actual_time=42132
type=note_on channel=0 note=59 velocity=80 time=228 actual_time=42360
type=note_on channel=0 note=59 velocity=0 time=96 actual_time=42456
type=note_on channel=0 note=59 velocity=80 time=24 actual_time=42480
type=note_on channel=0 note=59 velocity=0 time=96 actual_time=42576
type=note_on channel=0 note=59 velocity=80 time=24 actual_time=42600
type=note_on channel=0 note=59 velocity=0 time=48 actual_time=42648
type=note_on channel=0 note=59 velocity=80 time=12 actual_time=42660
type=note_on channel=0 note=59 velocity=0 time=168 actual_time=42828
type=note_on channel=0 note=57 velocity=80 time=12 actual_time=42840
type=note_on channel=0 note=57 velocity=0 time=96 actual_time=42936
type=note_on channel=0 note=57 velocity=80 time=24 actual_time=42960
type=note_on channel=0 note=57 velocity=0 time=96 actual_time=43056
type=note_on channel=0 note=54 velocity=80 time=24 actual_time=43080
type=note_on channel=0 note=54 velocity=0 time=48 actual_time=43128
type=note_on channel=0 note=57 velocity=80 time=12 actual_time=43140
type=note_on channel=0 note=57 velocity=0 time=156 actual_time=43296
type=note_on channel=0 note=57 velocity=80 time=24 actual_time=43320
type=note_on channel=0 note=57 velocity=0 time=96 actual_time=43416
type=note_on channel=0 note=57 velocity=80 time=24 actual_time=43440
type=note_on channel=0 note=57 velocity=0 time=96 actual_time=43536
type=note_on channel=0 note=54 velocity=80 time=24 actual_time=43560
type=note_on channel=0 note=54 velocity=0 time=48 actual_time=43608
type=note_on channel=0 note=57 velocity=80 time=12 actual_time=43620
type=note_on channel=0 note=57 velocity=0 time=144 actual_time=43764
type=note_on channel=0 note=57 velocity=80 time=36 actual_time=43800
type=note_on channel=0 note=57 velocity=0 time=48 actual_time=43848
type=note_on channel=0 note=57 velocity=80 time=12 actual_time=43860
type=note_on channel=0 note=57 velocity=0 time=96 actual_time=43956
type=note_on channel=0 note=57 velocity=80 time=24 actual_time=43980
type=note_on channel=0 note=57 velocity=0 time=96 actual_time=44076
type=note_on channel=0 note=54 velocity=80 time=24 actual_time=44100
type=note_on channel=0 note=54 velocity=0 time=156 actual_time=44256
type=note_on channel=0 note=54 velocity=80 time=24 actual_time=44280
type=note_on channel=0 note=54 velocity=0 time=96 actual_time=44376
type=note_on channel=0 note=54 velocity=80 time=24 actual_time=44400
type=note_on channel=0 note=54 velocity=0 time=96 actual_time=44496
type=note_on channel=0 note=54 velocity=80 time=24 actual_time=44520
type=note_on channel=0 note=54 velocity=0 time=48 actual_time=44568
type=note_on channel=0 note=54 velocity=80 time=12 actual_time=44580
type=note_on channel=0 note=54 velocity=0 time=144 actual_time=44724
type=note_on channel=0 note=54 velocity=80 time=96 actual_time=44820
type=note_on channel=0 note=54 velocity=0 time=48 actual_time=44868
type=note_on channel=0 note=54 velocity=80 time=12 actual_time=44880
type=note_on channel=0 note=54 velocity=0 time=48 actual_time=44928
type=note_on channel=0 note=54 velocity=80 time=12 actual_time=44940
type=note_on channel=0 note=54 velocity=0 time=144 actual_time=45084
type=note_on channel=0 note=62 velocity=80 time=36 actual_time=45120
type=note_on channel=0 note=62 velocity=0 time=48 actual_time=45168
type=note_on channel=0 note=62 velocity=80 time=12 actual_time=45180
type=note_on channel=0 note=62 velocity=0 time=144 actual_time=45324
type=note_on channel=0 note=62 velocity=80 time=36 actual_time=45360
type=note_on channel=0 note=62 velocity=0 time=48 actual_time=45408
type=note_on channel=0 note=62 velocity=80 time=12 actual_time=45420
type=note_on channel=0 note=62 velocity=0 time=96 actual_time=45516
type=note_on channel=0 note=61 velocity=80 time=24 actual_time=45540
type=note_on channel=0 note=61 velocity=0 time=192 actual_time=45732
type=note_on channel=0 note=59 velocity=80 time=468 actual_time=46200
type=note_on channel=0 note=59 velocity=0 time=96 actual_time=46296
type=note_on channel=0 note=59 velocity=80 time=24 actual_time=46320
type=note_on channel=0 note=59 velocity=0 time=96 actual_time=46416
type=note_on channel=0 note=59 velocity=80 time=24 actual_time=46440
type=note_on channel=0 note=59 velocity=0 time=96 actual_time=46536
type=note_on channel=0 note=62 velocity=80 time=24 actual_time=46560
type=note_on channel=0 note=62 velocity=0 time=96 actual_time=46656
type=note_on channel=0 note=59 velocity=80 time=24 actual_time=46680
type=note_on channel=0 note=59 velocity=0 time=96 actual_time=46776
type=note_on channel=0 note=59 velocity=80 time=24 actual_time=46800
type=note_on channel=0 note=59 velocity=0 time=96 actual_time=46896
type=note_on channel=0 note=59 velocity=80 time=24 actual_time=46920
type=note_on channel=0 note=59 velocity=0 time=96 actual_time=47016
type=note_on channel=0 note=62 velocity=80 time=24 actual_time=47040
type=note_on channel=0 note=62 velocity=0 time=96 actual_time=47136
type=note_on channel=0 note=62 velocity=80 time=24 actual_time=47160
type=note_on channel=0 note=62 velocity=0 time=96 actual_time=47256
type=note_on channel=0 note=62 velocity=80 time=24 actual_time=47280
type=note_on channel=0 note=62 velocity=0 time=96 actual_time=47376
type=note_on channel=0 note=62 velocity=80 time=24 actual_time=47400
type=note_on channel=0 note=62 velocity=0 time=96 actual_time=47496
type=note_on channel=0 note=61 velocity=80 time=24 actual_time=47520
type=note_on channel=0 note=61 velocity=0 time=96 actual_time=47616
type=note_on channel=0 note=61 velocity=80 time=24 actual_time=47640
type=note_on channel=0 note=61 velocity=0 time=48 actual_time=47688
type=note_on channel=0 note=62 velocity=80 time=12 actual_time=47700
type=note_on channel=0 note=62 velocity=0 time=192 actual_time=47892
type=note_on channel=0 note=59 velocity=80 time=228 actual_time=48120
type=note_on channel=0 note=59 velocity=0 time=96 actual_time=48216
type=note_on channel=0 note=59 velocity=80 time=24 actual_time=48240
type=note_on channel=0 note=59 velocity=0 time=96 actual_time=48336
type=note_on channel=0 note=59 velocity=80 time=24 actual_time=48360
type=note_on channel=0 note=59 velocity=0 time=48 actual_time=48408
type=note_on channel=0 note=62 velocity=80 time=12 actual_time=48420
type=note_on channel=0 note=62 velocity=0 time=168 actual_time=48588
type=note_on channel=0 note=59 velocity=80 time=12 actual_time=48600
type=note_on channel=0 note=59 velocity=0 time=96 actual_time=48696
type=note_on channel=0 note=59 velocity=80 time=24 actual_time=48720
type=note_on channel=0 note=59 velocity=0 time=96 actual_time=48816
type=note_on channel=0 note=59 velocity=80 time=24 actual_time=48840
type=note_on channel=0 note=59 velocity=0 time=96 actual_time=48936
type=note_on channel=0 note=62 velocity=80 time=24 actual_time=48960
type=note_on channel=0 note=62 velocity=0 time=96 actual_time=49056
type=note_on channel=0 note=62 velocity=80 time=24 actual_time=49080
type=note_on channel=0 note=62 velocity=0 time=96 actual_time=49176
type=note_on channel=0 note=62 velocity=80 time=24 actual_time=49200
type=note_on channel=0 note=62 velocity=0 time=96 actual_time=49296
type=note_on channel=0 note=62 velocity=80 time=24 actual_time=49320
type=note_on channel=0 note=62 velocity=0 time=96 actual_time=49416
type=note_on channel=0 note=61 velocity=80 time=24 actual_time=49440
type=note_on channel=0 note=61 velocity=0 time=96 actual_time=49536
type=note_on channel=0 note=61 velocity=80 time=24 actual_time=49560
type=note_on channel=0 note=61 velocity=0 time=96 actual_time=49656
type=note_on channel=0 note=61 velocity=80 time=24 actual_time=49680
type=note_on channel=0 note=61 velocity=0 time=96 actual_time=49776
type=note_on channel=0 note=62 velocity=80 time=24 actual_time=49800
type=note_on channel=0 note=62 velocity=0 time=96 actual_time=49896
type=note_on channel=0 note=59 velocity=80 time=144 actual_time=50040
type=note_on channel=0 note=59 velocity=0 time=96 actual_time=50136
type=note_on channel=0 note=59 velocity=80 time=24 actual_time=50160
type=note_on channel=0 note=59 velocity=0 time=96 actual_time=50256
type=note_on channel=0 note=59 velocity=80 time=24 actual_time=50280
type=note_on channel=0 note=59 velocity=0 time=96 actual_time=50376
type=note_on channel=0 note=62 velocity=80 time=24 actual_time=50400
type=note_on channel=0 note=62 velocity=0 time=96 actual_time=50496
type=note_on channel=0 note=59 velocity=80 time=24 actual_time=50520
type=note_on channel=0 note=59 velocity=0 time=96 actual_time=50616
type=note_on channel=0 note=57 velocity=80 time=24 actual_time=50640
type=note_on channel=0 note=57 velocity=0 time=96 actual_time=50736
type=note_on channel=0 note=57 velocity=80 time=24 actual_time=50760
type=note_on channel=0 note=57 velocity=0 time=96 actual_time=50856
type=note_on channel=0 note=62 velocity=80 time=24 actual_time=50880
type=note_on channel=0 note=62 velocity=0 time=96 actual_time=50976
type=note_on channel=0 note=62 velocity=80 time=24 actual_time=51000
type=note_on channel=0 note=62 velocity=0 time=96 actual_time=51096
type=note_on channel=0 note=62 velocity=80 time=24 actual_time=51120
type=note_on channel=0 note=62 velocity=0 time=96 actual_time=51216
type=note_on channel=0 note=61 velocity=80 time=24 actual_time=51240
type=note_on channel=0 note=61 velocity=0 time=192 actual_time=51432
type=note_on channel=0 note=61 velocity=80 time=48 actual_time=51480
type=note_on channel=0 note=61 velocity=0 time=192 actual_time=51672
type=note_on channel=0 note=61 velocity=80 time=48 actual_time=51720
type=note_on channel=0 note=61 velocity=0 time=96 actual_time=51816
type=note_on channel=0 note=62 velocity=80 time=24 actual_time=51840
type=note_on channel=0 note=62 velocity=0 time=96 actual_time=51936
type=note_on channel=0 note=62 velocity=80 time=144 actual_time=52080
type=note_on channel=0 note=62 velocity=0 time=96 actual_time=52176
type=note_on channel=0 note=59 velocity=80 time=24 actual_time=52200
type=note_on channel=0 note=59 velocity=0 time=48 actual_time=52248
type=note_on channel=0 note=57 velocity=80 time=12 actual_time=52260
type=note_on channel=0 note=57 velocity=0 time=192 actual_time=52452
type=note_on channel=0 note=57 velocity=80 time=4428 actual_time=56880
type=note_on channel=0 note=57 velocity=0 time=96 actual_time=56976
type=note_on channel=0 note=57 velocity=80 time=24 actual_time=57000
type=note_on channel=0 note=57 velocity=0 time=48 actual_time=57048
type=note_on channel=0 note=57 velocity=80 time=12 actual_time=57060
type=note_on channel=0 note=57 velocity=0 time=96 actual_time=57156
type=note_on channel=0 note=57 velocity=80 time=24 actual_time=57180
type=note_on channel=0 note=57 velocity=0 time=96 actual_time=57276
type=note_on channel=0 note=57 velocity=80 time=24 actual_time=57300
type=note_on channel=0 note=57 velocity=0 time=96 actual_time=57396
type=note_on channel=0 note=57 velocity=80 time=24 actual_time=57420
type=note_on channel=0 note=57 velocity=0 time=96 actual_time=57516
type=note_on channel=0 note=57 velocity=80 time=24 actual_time=57540
type=note_on channel=0 note=57 velocity=0 time=156 actual_time=57696
type=note_on channel=0 note=59 velocity=80 time=7704 actual_time=65400
type=note_on channel=0 note=59 velocity=0 time=96 actual_time=65496
type=note_on channel=0 note=59 velocity=80 time=24 actual_time=65520
type=note_on channel=0 note=59 velocity=0 time=96 actual_time=65616
type=note_on channel=0 note=59 velocity=80 time=24 actual_time=65640
type=note_on channel=0 note=59 velocity=0 time=96 actual_time=65736
type=note_on channel=0 note=59 velocity=80 time=24 actual_time=65760
type=note_on channel=0 note=59 velocity=0 time=96 actual_time=65856
type=note_on channel=0 note=57 velocity=80 time=24 actual_time=65880
type=note_on channel=0 note=57 velocity=0 time=96 actual_time=65976
type=note_on channel=0 note=57 velocity=80 time=24 actual_time=66000
type=note_on channel=0 note=57 velocity=0 time=96 actual_time=66096
type=note_on channel=0 note=57 velocity=80 time=24 actual_time=66120
type=note_on channel=0 note=57 velocity=0 time=96 actual_time=66216
type=note_on channel=0 note=57 velocity=80 time=24 actual_time=66240
type=note_on channel=0 note=57 velocity=0 time=96 actual_time=66336
type=note_on channel=0 note=57 velocity=80 time=24 actual_time=66360
type=note_on channel=0 note=57 velocity=0 time=96 actual_time=66456
type=note_on channel=0 note=57 velocity=80 time=24 actual_time=66480
type=note_on channel=0 note=57 velocity=0 time=96 actual_time=66576
type=note_on channel=0 note=57 velocity=80 time=24 actual_time=66600
type=note_on channel=0 note=57 velocity=0 time=96 actual_time=66696
type=note_on channel=0 note=57 velocity=80 time=24 actual_time=66720
type=note_on channel=0 note=57 velocity=0 time=96 actual_time=66816
type=note_on channel=0 note=57 velocity=80 time=24 actual_time=66840
type=note_on channel=0 note=57 velocity=0 time=48 actual_time=66888
type=note_on channel=0 note=57 velocity=80 time=12 actual_time=66900
type=note_on channel=0 note=57 velocity=0 time=192 actual_time=67092
type=note_on channel=0 note=54 velocity=80 time=228 actual_time=67320
type=note_on channel=0 note=54 velocity=0 time=96 actual_time=67416
type=note_on channel=0 note=54 velocity=80 time=24 actual_time=67440
type=note_on channel=0 note=54 velocity=0 time=96 actual_time=67536
type=note_on channel=0 note=54 velocity=80 time=24 actual_time=67560
type=note_on channel=0 note=54 velocity=0 time=48 actual_time=67608
type=note_on channel=0 note=57 velocity=80 time=12 actual_time=67620
type=note_on channel=0 note=57 velocity=0 time=144 actual_time=67764
type=note_on channel=0 note=57 velocity=80 time=36 actual_time=67800
type=note_on channel=0 note=57 velocity=0 time=96 actual_time=67896
type=note_on channel=0 note=57 velocity=80 time=24 actual_time=67920
type=note_on channel=0 note=57 velocity=0 time=96 actual_time=68016
type=note_on channel=0 note=57 velocity=80 time=24 actual_time=68040
type=note_on channel=0 note=57 velocity=0 time=96 actual_time=68136
type=note_on channel=0 note=59 velocity=80 time=24 actual_time=68160
type=note_on channel=0 note=59 velocity=0 time=96 actual_time=68256
type=note_on channel=0 note=59 velocity=80 time=24 actual_time=68280
type=note_on channel=0 note=59 velocity=0 time=96 actual_time=68376
type=note_on channel=0 note=59 velocity=80 time=24 actual_time=68400
type=note_on channel=0 note=59 velocity=0 time=96 actual_time=68496
type=note_on channel=0 note=62 velocity=80 time=144 actual_time=68640
type=note_on channel=0 note=62 velocity=0 time=96 actual_time=68736
type=note_on channel=0 note=59 velocity=80 time=24 actual_time=68760
type=note_on channel=0 note=59 velocity=0 time=96 actual_time=68856
type=note_on channel=0 note=59 velocity=80 time=24 actual_time=68880
type=note_on channel=0 note=59 velocity=0 time=96 actual_time=68976
type=note_on channel=0 note=59 velocity=80 time=24 actual_time=69000
type=note_on channel=0 note=57 velocity=80 time=120 actual_time=69120
type=note_on channel=0 note=59 velocity=0 time=24 actual_time=69144
type=note_on channel=0 note=57 velocity=0 time=72 actual_time=69216
type=note_on channel=0 note=57 velocity=80 time=24 actual_time=69240
type=note_on channel=0 note=57 velocity=0 time=96 actual_time=69336
type=note_on channel=0 note=57 velocity=80 time=24 actual_time=69360
type=note_on channel=0 note=57 velocity=0 time=96 actual_time=69456
type=note_on channel=0 note=57 velocity=80 time=24 actual_time=69480
type=note_on channel=0 note=57 velocity=0 time=96 actual_time=69576
type=note_on channel=0 note=57 velocity=80 time=24 actual_time=69600
type=note_on channel=0 note=57 velocity=0 time=96 actual_time=69696
type=note_on channel=0 note=57 velocity=80 time=24 actual_time=69720
type=note_on channel=0 note=57 velocity=0 time=96 actual_time=69816
type=note_on channel=0 note=57 velocity=80 time=24 actual_time=69840
type=note_on channel=0 note=57 velocity=0 time=96 actual_time=69936
type=note_on channel=0 note=57 velocity=80 time=24 actual_time=69960
type=note_on channel=0 note=57 velocity=0 time=96 actual_time=70056
type=note_on channel=0 note=57 velocity=80 time=24 actual_time=70080
type=note_on channel=0 note=57 velocity=0 time=96 actual_time=70176
type=note_on channel=0 note=57 velocity=80 time=24 actual_time=70200
type=note_on channel=0 note=57 velocity=0 time=96 actual_time=70296
type=note_on channel=0 note=57 velocity=80 time=24 actual_time=70320
type=note_on channel=0 note=57 velocity=0 time=96 actual_time=70416
type=note_on channel=0 note=57 velocity=80 time=24 actual_time=70440
type=note_on channel=0 note=57 velocity=0 time=192 actual_time=70632
type=note_on channel=0 note=57 velocity=80 time=48 actual_time=70680
type=note_on channel=0 note=57 velocity=0 time=192 actual_time=70872
type=note_on channel=0 note=59 velocity=80 time=48 actual_time=70920
type=note_on channel=0 note=59 velocity=0 time=216 actual_time=71136
type=note_on channel=0 note=62 velocity=80 time=144 actual_time=71280
type=note_on channel=0 note=62 velocity=0 time=96 actual_time=71376
type=note_on channel=0 note=59 velocity=80 time=24 actual_time=71400
type=note_on channel=0 note=59 velocity=0 time=48 actual_time=71448
type=note_on channel=0 note=62 velocity=80 time=12 actual_time=71460
type=note_on channel=0 note=62 velocity=0 time=384 actual_time=71844
type=note_on channel=0 note=66 velocity=80 time=156 actual_time=72000
type=note_on channel=0 note=66 velocity=0 time=768 actual_time=72768
type=note_on channel=0 note=59 velocity=80 time=312 actual_time=73080
type=note_on channel=0 note=59 velocity=0 time=96 actual_time=73176
type=note_on channel=0 note=59 velocity=80 time=24 actual_time=73200
type=note_on channel=0 note=59 velocity=0 time=96 actual_time=73296
type=note_on channel=0 note=59 velocity=80 time=24 actual_time=73320
type=note_on channel=0 note=59 velocity=0 time=96 actual_time=73416
type=note_on channel=0 note=62 velocity=80 time=24 actual_time=73440
type=note_on channel=0 note=62 velocity=0 time=96 actual_time=73536
type=note_on channel=0 note=59 velocity=80 time=24 actual_time=73560
type=note_on channel=0 note=59 velocity=0 time=96 actual_time=73656
type=note_on channel=0 note=59 velocity=80 time=24 actual_time=73680
type=note_on channel=0 note=59 velocity=0 time=96 actual_time=73776
type=note_on channel=0 note=59 velocity=80 time=24 actual_time=73800
type=note_on channel=0 note=59 velocity=0 time=96 actual_time=73896
type=note_on channel=0 note=62 velocity=80 time=24 actual_time=73920
type=note_on channel=0 note=62 velocity=0 time=96 actual_time=74016
type=note_on channel=0 note=62 velocity=80 time=24 actual_time=74040
type=note_on channel=0 note=62 velocity=0 time=96 actual_time=74136
type=note_on channel=0 note=62 velocity=80 time=24 actual_time=74160
type=note_on channel=0 note=62 velocity=0 time=96 actual_time=74256
type=note_on channel=0 note=62 velocity=80 time=24 actual_time=74280
type=note_on channel=0 note=62 velocity=0 time=96 actual_time=74376
type=note_on channel=0 note=61 velocity=80 time=24 actual_time=74400
type=note_on channel=0 note=61 velocity=0 time=96 actual_time=74496
type=note_on channel=0 note=61 velocity=80 time=24 actual_time=74520
type=note_on channel=0 note=61 velocity=0 time=48 actual_time=74568
type=note_on channel=0 note=62 velocity=80 time=12 actual_time=74580
type=note_on channel=0 note=62 velocity=0 time=192 actual_time=74772
type=note_on channel=0 note=59 velocity=80 time=228 actual_time=75000
type=note_on channel=0 note=59 velocity=0 time=96 actual_time=75096
type=note_on channel=0 note=59 velocity=80 time=24 actual_time=75120
type=note_on channel=0 note=59 velocity=0 time=96 actual_time=75216
type=note_on channel=0 note=59 velocity=80 time=24 actual_time=75240
type=note_on channel=0 note=59 velocity=0 time=48 actual_time=75288
type=note_on channel=0 note=62 velocity=80 time=12 actual_time=75300
type=note_on channel=0 note=62 velocity=0 time=168 actual_time=75468
type=note_on channel=0 note=59 velocity=80 time=12 actual_time=75480
type=note_on channel=0 note=59 velocity=0 time=96 actual_time=75576
type=note_on channel=0 note=59 velocity=80 time=24 actual_time=75600
type=note_on channel=0 note=59 velocity=0 time=96 actual_time=75696
type=note_on channel=0 note=59 velocity=80 time=24 actual_time=75720
type=note_on channel=0 note=59 velocity=0 time=96 actual_time=75816
type=note_on channel=0 note=62 velocity=80 time=24 actual_time=75840
type=note_on channel=0 note=62 velocity=0 time=96 actual_time=75936
type=note_on channel=0 note=62 velocity=80 time=24 actual_time=75960
type=note_on channel=0 note=62 velocity=0 time=96 actual_time=76056
type=note_on channel=0 note=62 velocity=80 time=24 actual_time=76080
type=note_on channel=0 note=62 velocity=0 time=96 actual_time=76176
type=note_on channel=0 note=62 velocity=80 time=24 actual_time=76200
type=note_on channel=0 note=62 velocity=0 time=96 actual_time=76296
type=note_on channel=0 note=61 velocity=80 time=24 actual_time=76320
type=note_on channel=0 note=61 velocity=0 time=96 actual_time=76416
type=note_on channel=0 note=61 velocity=80 time=24 actual_time=76440
type=note_on channel=0 note=61 velocity=0 time=96 actual_time=76536
type=note_on channel=0 note=61 velocity=80 time=24 actual_time=76560
type=note_on channel=0 note=61 velocity=0 time=96 actual_time=76656
type=note_on channel=0 note=62 velocity=80 time=24 actual_time=76680
type=note_on channel=0 note=62 velocity=0 time=96 actual_time=76776
type=note_on channel=0 note=59 velocity=80 time=144 actual_time=76920
type=note_on channel=0 note=59 velocity=0 time=96 actual_time=77016
type=note_on channel=0 note=59 velocity=80 time=24 actual_time=77040
type=note_on channel=0 note=59 velocity=0 time=96 actual_time=77136
type=note_on channel=0 note=59 velocity=80 time=24 actual_time=77160
type=note_on channel=0 note=59 velocity=0 time=96 actual_time=77256
type=note_on channel=0 note=62 velocity=80 time=24 actual_time=77280
type=note_on channel=0 note=62 velocity=0 time=96 actual_time=77376
type=note_on channel=0 note=59 velocity=80 time=24 actual_time=77400
type=note_on channel=0 note=59 velocity=0 time=96 actual_time=77496
type=note_on channel=0 note=57 velocity=80 time=24 actual_time=77520
type=note_on channel=0 note=57 velocity=0 time=96 actual_time=77616
type=note_on channel=0 note=57 velocity=80 time=24 actual_time=77640
type=note_on channel=0 note=57 velocity=0 time=96 actual_time=77736
type=note_on channel=0 note=62 velocity=80 time=24 actual_time=77760
type=note_on channel=0 note=62 velocity=0 time=96 actual_time=77856
type=note_on channel=0 note=62 velocity=80 time=24 actual_time=77880
type=note_on channel=0 note=62 velocity=0 time=96 actual_time=77976
type=note_on channel=0 note=62 velocity=80 time=24 actual_time=78000
type=note_on channel=0 note=62 velocity=0 time=96 actual_time=78096
type=note_on channel=0 note=61 velocity=80 time=24 actual_time=78120
type=note_on channel=0 note=61 velocity=0 time=192 actual_time=78312
type=note_on channel=0 note=61 velocity=80 time=48 actual_time=78360
type=note_on channel=0 note=61 velocity=0 time=192 actual_time=78552
type=note_on channel=0 note=61 velocity=80 time=48 actual_time=78600
type=note_on channel=0 note=61 velocity=0 time=96 actual_time=78696
type=note_on channel=0 note=62 velocity=80 time=24 actual_time=78720
type=note_on channel=0 note=62 velocity=0 time=96 actual_time=78816
type=note_on channel=0 note=62 velocity=80 time=144 actual_time=78960
type=note_on channel=0 note=62 velocity=0 time=96 actual_time=79056
type=note_on channel=0 note=59 velocity=80 time=24 actual_time=79080
type=note_on channel=0 note=59 velocity=0 time=48 actual_time=79128
type=note_on channel=0 note=57 velocity=80 time=12 actual_time=79140
type=note_on channel=0 note=57 velocity=0 time=192 actual_time=79332
type=note_on channel=0 note=59 velocity=80 time=2748 actual_time=82080
type=note_on channel=0 note=59 velocity=0 time=96 actual_time=82176
type=note_on channel=0 note=57 velocity=80 time=24 actual_time=82200
type=note_on channel=0 note=57 velocity=0 time=96 actual_time=82296
type=note_on channel=0 note=57 velocity=80 time=24 actual_time=82320
type=note_on channel=0 note=57 velocity=0 time=96 actual_time=82416
type=note_on channel=0 note=59 velocity=80 time=24 actual_time=82440
type=note_on channel=0 note=59 velocity=0 time=96 actual_time=82536
type=note_on channel=0 note=59 velocity=80 time=24 actual_time=82560
type=note_on channel=0 note=59 velocity=0 time=768 actual_time=83328
type=note_on channel=0 note=59 velocity=80 time=672 actual_time=84000
type=note_on channel=0 note=59 velocity=0 time=96 actual_time=84096
type=note_on channel=0 note=57 velocity=80 time=24 actual_time=84120
type=note_on channel=0 note=57 velocity=0 time=96 actual_time=84216
type=note_on channel=0 note=57 velocity=80 time=24 actual_time=84240
type=note_on channel=0 note=57 velocity=0 time=96 actual_time=84336
type=note_on channel=0 note=59 velocity=80 time=24 actual_time=84360
type=note_on channel=0 note=59 velocity=0 time=96 actual_time=84456
type=note_on channel=0 note=59 velocity=80 time=24 actual_time=84480
type=note_on channel=0 note=59 velocity=0 time=768 actual_time=85248
type=note_on channel=0 note=59 velocity=80 time=672 actual_time=85920
type=note_on channel=0 note=59 velocity=0 time=96 actual_time=86016
type=note_on channel=0 note=57 velocity=80 time=24 actual_time=86040
type=note_on channel=0 note=57 velocity=0 time=96 actual_time=86136
type=note_on channel=0 note=57 velocity=80 time=24 actual_time=86160
type=note_on channel=0 note=57 velocity=0 time=96 actual_time=86256
type=note_on channel=0 note=59 velocity=80 time=24 actual_time=86280
type=note_on channel=0 note=59 velocity=0 time=96 actual_time=86376
type=note_on channel=0 note=59 velocity=80 time=24 actual_time=86400
type=note_on channel=0 note=59 velocity=0 time=1728 actual_time=88128
MetaMessage type: end_of_track, time: 0, actual_time: 88128
MetaMessage type: track_name, time: 0, actual_time: 0
type: program_change, time: 0, actual_time: 0
type=control_change channel=1 control=7 value=99 time=0 actual_time=0
type=note_on channel=1 note=66 velocity=80 time=27840 actual_time=27840
type=note_on channel=1 note=66 velocity=0 time=96 actual_time=27936
type=note_on channel=1 note=66 velocity=80 time=24 actual_time=27960
type=note_on channel=1 note=66 velocity=0 time=96 actual_time=28056
type=note_on channel=1 note=66 velocity=80 time=24 actual_time=28080
type=note_on channel=1 note=66 velocity=0 time=96 actual_time=28176
type=note_on channel=1 note=66 velocity=80 time=24 actual_time=28200
type=note_on channel=1 note=66 velocity=0 time=96 actual_time=28296
type=note_on channel=1 note=64 velocity=80 time=24 actual_time=28320
type=note_on channel=1 note=64 velocity=0 time=96 actual_time=28416
type=note_on channel=1 note=64 velocity=80 time=24 actual_time=28440
type=note_on channel=1 note=64 velocity=0 time=48 actual_time=28488
type=note_on channel=1 note=66 velocity=80 time=12 actual_time=28500
type=note_on channel=1 note=66 velocity=0 time=192 actual_time=28692
type=note_on channel=1 note=64 velocity=80 time=1548 actual_time=30240
type=note_on channel=1 note=64 velocity=0 time=96 actual_time=30336
type=note_on channel=1 note=64 velocity=80 time=24 actual_time=30360
type=note_on channel=1 note=64 velocity=0 time=96 actual_time=30456
type=note_on channel=1 note=64 velocity=80 time=24 actual_time=30480
type=note_on channel=1 note=64 velocity=0 time=96 actual_time=30576
type=note_on channel=1 note=66 velocity=80 time=24 actual_time=30600
type=note_on channel=1 note=66 velocity=0 time=96 actual_time=30696
type=note_on channel=1 note=66 velocity=80 time=984 actual_time=31680
type=note_on channel=1 note=66 velocity=0 time=96 actual_time=31776
type=note_on channel=1 note=66 velocity=80 time=24 actual_time=31800
type=note_on channel=1 note=66 velocity=0 time=96 actual_time=31896
type=note_on channel=1 note=66 velocity=80 time=24 actual_time=31920
type=note_on channel=1 note=66 velocity=0 time=96 actual_time=32016
type=note_on channel=1 note=64 velocity=80 time=24 actual_time=32040
type=note_on channel=1 note=64 velocity=0 time=192 actual_time=32232
type=note_on channel=1 note=64 velocity=80 time=48 actual_time=32280
type=note_on channel=1 note=64 velocity=0 time=192 actual_time=32472
type=note_on channel=1 note=64 velocity=80 time=48 actual_time=32520
type=note_on channel=1 note=64 velocity=0 time=96 actual_time=32616
type=note_on channel=1 note=66 velocity=80 time=24 actual_time=32640
type=note_on channel=1 note=66 velocity=0 time=96 actual_time=32736
type=note_on channel=1 note=66 velocity=80 time=14304 actual_time=47040
type=note_on channel=1 note=66 velocity=0 time=96 actual_time=47136
type=note_on channel=1 note=66 velocity=80 time=24 actual_time=47160
type=note_on channel=1 note=66 velocity=0 time=96 actual_time=47256
type=note_on channel=1 note=66 velocity=80 time=24 actual_time=47280
type=note_on channel=1 note=66 velocity=0 time=96 actual_time=47376
type=note_on channel=1 note=66 velocity=80 time=24 actual_time=47400
type=note_on channel=1 note=66 velocity=0 time=96 actual_time=47496
type=note_on channel=1 note=64 velocity=80 time=24 actual_time=47520
type=note_on channel=1 note=64 velocity=0 time=96 actual_time=47616
type=note_on channel=1 note=64 velocity=80 time=24 actual_time=47640
type=note_on channel=1 note=64 velocity=0 time=48 actual_time=47688
type=note_on channel=1 note=66 velocity=80 time=12 actual_time=47700
type=note_on channel=1 note=66 velocity=0 time=192 actual_time=47892
type=note_on channel=1 note=64 velocity=80 time=1548 actual_time=49440
type=note_on channel=1 note=64 velocity=0 time=96 actual_time=49536
type=note_on channel=1 note=64 velocity=80 time=24 actual_time=49560
type=note_on channel=1 note=64 velocity=0 time=96 actual_time=49656
type=note_on channel=1 note=64 velocity=80 time=24 actual_time=49680
type=note_on channel=1 note=64 velocity=0 time=96 actual_time=49776
type=note_on channel=1 note=66 velocity=80 time=24 actual_time=49800
type=note_on channel=1 note=66 velocity=0 time=96 actual_time=49896
type=note_on channel=1 note=66 velocity=80 time=984 actual_time=50880
type=note_on channel=1 note=66 velocity=0 time=96 actual_time=50976
type=note_on channel=1 note=66 velocity=80 time=24 actual_time=51000
type=note_on channel=1 note=66 velocity=0 time=96 actual_time=51096
type=note_on channel=1 note=66 velocity=80 time=24 actual_time=51120
type=note_on channel=1 note=66 velocity=0 time=96 actual_time=51216
type=note_on channel=1 note=64 velocity=80 time=24 actual_time=51240
type=note_on channel=1 note=64 velocity=0 time=192 actual_time=51432
type=note_on channel=1 note=64 velocity=80 time=48 actual_time=51480
type=note_on channel=1 note=64 velocity=0 time=192 actual_time=51672
type=note_on channel=1 note=64 velocity=80 time=48 actual_time=51720
type=note_on channel=1 note=64 velocity=0 time=96 actual_time=51816
type=note_on channel=1 note=66 velocity=80 time=24 actual_time=51840
type=note_on channel=1 note=66 velocity=0 time=96 actual_time=51936
type=note_on channel=1 note=66 velocity=80 time=21984 actual_time=73920
type=note_on channel=1 note=66 velocity=0 time=96 actual_time=74016
type=note_on channel=1 note=66 velocity=80 time=24 actual_time=74040
type=note_on channel=1 note=66 velocity=0 time=96 actual_time=74136
type=note_on channel=1 note=66 velocity=80 time=24 actual_time=74160
type=note_on channel=1 note=66 velocity=0 time=96 actual_time=74256
type=note_on channel=1 note=66 velocity=80 time=24 actual_time=74280
type=note_on channel=1 note=66 velocity=0 time=96 actual_time=74376
type=note_on channel=1 note=64 velocity=80 time=24 actual_time=74400
type=note_on channel=1 note=64 velocity=0 time=96 actual_time=74496
type=note_on channel=1 note=64 velocity=80 time=24 actual_time=74520
type=note_on channel=1 note=64 velocity=0 time=48 actual_time=74568
type=note_on channel=1 note=66 velocity=80 time=12 actual_time=74580
type=note_on channel=1 note=66 velocity=0 time=192 actual_time=74772
type=note_on channel=1 note=64 velocity=80 time=1548 actual_time=76320
type=note_on channel=1 note=64 velocity=0 time=96 actual_time=76416
type=note_on channel=1 note=64 velocity=80 time=24 actual_time=76440
type=note_on channel=1 note=64 velocity=0 time=96 actual_time=76536
type=note_on channel=1 note=64 velocity=80 time=24 actual_time=76560
type=note_on channel=1 note=64 velocity=0 time=96 actual_time=76656
type=note_on channel=1 note=66 velocity=80 time=24 actual_time=76680
type=note_on channel=1 note=66 velocity=0 time=96 actual_time=76776
type=note_on channel=1 note=66 velocity=80 time=984 actual_time=77760
type=note_on channel=1 note=66 velocity=0 time=96 actual_time=77856
type=note_on channel=1 note=66 velocity=80 time=24 actual_time=77880
type=note_on channel=1 note=66 velocity=0 time=96 actual_time=77976
type=note_on channel=1 note=66 velocity=80 time=24 actual_time=78000
type=note_on channel=1 note=66 velocity=0 time=96 actual_time=78096
type=note_on channel=1 note=64 velocity=80 time=24 actual_time=78120
type=note_on channel=1 note=64 velocity=0 time=192 actual_time=78312
type=note_on channel=1 note=64 velocity=80 time=48 actual_time=78360
type=note_on channel=1 note=64 velocity=0 time=192 actual_time=78552
type=note_on channel=1 note=64 velocity=80 time=48 actual_time=78600
type=note_on channel=1 note=64 velocity=0 time=96 actual_time=78696
type=note_on channel=1 note=66 velocity=80 time=24 actual_time=78720
type=note_on channel=1 note=66 velocity=0 time=96 actual_time=78816
type=note_on channel=1 note=62 velocity=80 time=3264 actual_time=82080
type=note_on channel=1 note=62 velocity=0 time=96 actual_time=82176
type=note_on channel=1 note=61 velocity=80 time=24 actual_time=82200
type=note_on channel=1 note=61 velocity=0 time=96 actual_time=82296
type=note_on channel=1 note=61 velocity=80 time=24 actual_time=82320
type=note_on channel=1 note=61 velocity=0 time=96 actual_time=82416
type=note_on channel=1 note=62 velocity=80 time=24 actual_time=82440
type=note_on channel=1 note=62 velocity=0 time=96 actual_time=82536
type=note_on channel=1 note=62 velocity=80 time=24 actual_time=82560
type=note_on channel=1 note=62 velocity=0 time=768 actual_time=83328
type=note_on channel=1 note=62 velocity=80 time=672 actual_time=84000
type=note_on channel=1 note=62 velocity=0 time=96 actual_time=84096
type=note_on channel=1 note=61 velocity=80 time=24 actual_time=84120
type=note_on channel=1 note=61 velocity=0 time=96 actual_time=84216
type=note_on channel=1 note=61 velocity=80 time=24 actual_time=84240
type=note_on channel=1 note=61 velocity=0 time=96 actual_time=84336
type=note_on channel=1 note=62 velocity=80 time=24 actual_time=84360
type=note_on channel=1 note=62 velocity=0 time=96 actual_time=84456
type=note_on channel=1 note=62 velocity=80 time=24 actual_time=84480
type=note_on channel=1 note=62 velocity=0 time=768 actual_time=85248
type=note_on channel=1 note=62 velocity=80 time=672 actual_time=85920
type=note_on channel=1 note=62 velocity=0 time=96 actual_time=86016
type=note_on channel=1 note=61 velocity=80 time=24 actual_time=86040
type=note_on channel=1 note=61 velocity=0 time=96 actual_time=86136
type=note_on channel=1 note=61 velocity=80 time=24 actual_time=86160
type=note_on channel=1 note=61 velocity=0 time=96 actual_time=86256
type=note_on channel=1 note=62 velocity=80 time=24 actual_time=86280
type=note_on channel=1 note=62 velocity=0 time=96 actual_time=86376
type=note_on channel=1 note=62 velocity=80 time=24 actual_time=86400
type=note_on channel=1 note=62 velocity=0 time=1728 actual_time=88128
MetaMessage type: end_of_track, time: 0, actual_time: 88128
MetaMessage type: track_name, time: 0, actual_time: 0
type: program_change, time: 0, actual_time: 0
type=control_change channel=2 control=7 value=109 time=0 actual_time=0
type=note_on channel=2 note=59 velocity=80 time=3780 actual_time=3780
type=note_on channel=2 note=59 velocity=0 time=16 actual_time=3796
type=note_on channel=2 note=66 velocity=80 time=4 actual_time=3800
type=note_on channel=2 note=66 velocity=0 time=16 actual_time=3816
type=note_on channel=2 note=71 velocity=80 time=4 actual_time=3820
type=note_on channel=2 note=71 velocity=0 time=16 actual_time=3836
type=note_on channel=2 note=59 velocity=80 time=4 actual_time=3840
type=note_on channel=2 note=71 velocity=80 time=0 actual_time=3840
type=note_on channel=2 note=66 velocity=80 time=0 actual_time=3840
type=note_on channel=2 note=66 velocity=0 time=768 actual_time=4608
type=note_on channel=2 note=71 velocity=0 time=0 actual_time=4608
type=note_on channel=2 note=59 velocity=0 time=0 actual_time=4608
type=note_on channel=2 note=55 velocity=80 time=192 actual_time=4800
type=note_on channel=2 note=62 velocity=80 time=0 actual_time=4800
type=note_on channel=2 note=62 velocity=0 time=384 actual_time=5184
type=note_on channel=2 note=55 velocity=0 time=0 actual_time=5184
type=note_on channel=2 note=57 velocity=80 time=96 actual_time=5280
type=note_on channel=2 note=64 velocity=80 time=0 actual_time=5280
type=note_on channel=2 note=64 velocity=0 time=384 actual_time=5664
type=note_on channel=2 note=57 velocity=0 time=0 actual_time=5664
type=note_on channel=2 note=66 velocity=80 time=96 actual_time=5760
type=note_on channel=2 note=59 velocity=80 time=0 actual_time=5760
type=note_on channel=2 note=59 velocity=0 time=768 actual_time=6528
type=note_on channel=2 note=66 velocity=0 time=0 actual_time=6528
type=note_on channel=2 note=62 velocity=80 time=192 actual_time=6720
type=note_on channel=2 note=55 velocity=80 time=0 actual_time=6720
type=note_on channel=2 note=55 velocity=0 time=384 actual_time=7104
type=note_on channel=2 note=62 velocity=0 time=0 actual_time=7104
type=note_on channel=2 note=64 velocity=80 time=96 actual_time=7200
type=note_on channel=2 note=57 velocity=80 time=0 actual_time=7200
type=note_on channel=2 note=57 velocity=0 time=384 actual_time=7584
type=note_on channel=2 note=64 velocity=0 time=0 actual_time=7584
type=note_on channel=2 note=59 velocity=80 time=96 actual_time=7680
type=note_on channel=2 note=66 velocity=80 time=0 actual_time=7680
type=note_on channel=2 note=66 velocity=0 time=768 actual_time=8448
type=note_on channel=2 note=59 velocity=0 time=0 actual_time=8448
type=note_on channel=2 note=47 velocity=80 time=6912 actual_time=15360
type=note_on channel=2 note=47 velocity=0 time=96 actual_time=15456
type=note_on channel=2 note=54 velocity=80 time=24 actual_time=15480
type=note_on channel=2 note=59 velocity=80 time=0 actual_time=15480
type=note_on channel=2 note=47 velocity=80 time=0 actual_time=15480
type=note_on channel=2 note=47 velocity=0 time=144 actual_time=15624
type=note_on channel=2 note=59 velocity=0 time=0 actual_time=15624
type=note_on channel=2 note=54 velocity=0 time=0 actual_time=15624
type=note_on channel=2 note=47 velocity=80 time=36 actual_time=15660
type=note_on channel=2 note=59 velocity=80 time=0 actual_time=15660
type=note_on channel=2 note=54 velocity=80 time=0 actual_time=15660
type=note_on channel=2 note=54 velocity=0 time=48 actual_time=15708
type=note_on channel=2 note=59 velocity=0 time=0 actual_time=15708
type=note_on channel=2 note=54 velocity=80 time=12 actual_time=15720
type=note_on channel=2 note=54 velocity=0 time=48 actual_time=15768
type=note_on channel=2 note=47 velocity=0 time=0 actual_time=15768
type=note_on channel=2 note=47 velocity=80 time=12 actual_time=15780
type=note_on channel=2 note=59 velocity=80 time=0 actual_time=15780
type=note_on channel=2 note=54 velocity=80 time=0 actual_time=15780
type=note_on channel=2 note=54 velocity=0 time=48 actual_time=15828
type=note_on channel=2 note=59 velocity=0 time=0 actual_time=15828
type=note_on channel=2 note=47 velocity=0 time=0 actual_time=15828
type=note_on channel=2 note=47 velocity=80 time=12 actual_time=15840
type=note_on channel=2 note=47 velocity=0 time=96 actual_time=15936
type=note_on channel=2 note=59 velocity=80 time=24 actual_time=15960
type=note_on channel=2 note=47 velocity=80 time=0 actual_time=15960
type=note_on channel=2 note=54 velocity=80 time=0 actual_time=15960
type=note_on channel=2 note=54 velocity=0 time=144 actual_time=16104
type=note_on channel=2 note=47 velocity=0 time=0 actual_time=16104
type=note_on channel=2 note=59 velocity=0 time=0 actual_time=16104
type=note_on channel=2 note=59 velocity=80 time=36 actual_time=16140
type=note_on channel=2 note=47 velocity=80 time=0 actual_time=16140
type=note_on channel=2 note=54 velocity=80 time=0 actual_time=16140
type=note_on channel=2 note=54 velocity=0 time=48 actual_time=16188
type=note_on channel=2 note=59 velocity=0 time=0 actual_time=16188
type=note_on channel=2 note=54 velocity=80 time=12 actual_time=16200
type=note_on channel=2 note=54 velocity=0 time=48 actual_time=16248
type=note_on channel=2 note=47 velocity=0 time=0 actual_time=16248
type=note_on channel=2 note=54 velocity=80 time=12 actual_time=16260
type=note_on channel=2 note=47 velocity=80 time=0 actual_time=16260
type=note_on channel=2 note=59 velocity=80 time=0 actual_time=16260
type=note_on channel=2 note=59 velocity=0 time=48 actual_time=16308
type=note_on channel=2 note=47 velocity=0 time=0 actual_time=16308
type=note_on channel=2 note=54 velocity=0 time=0 actual_time=16308
type=note_on channel=2 note=43 velocity=80 time=12 actual_time=16320
type=note_on channel=2 note=43 velocity=0 time=96 actual_time=16416
type=note_on channel=2 note=50 velocity=80 time=24 actual_time=16440
type=note_on channel=2 note=43 velocity=80 time=0 actual_time=16440
type=note_on channel=2 note=55 velocity=80 time=0 actual_time=16440
type=note_on channel=2 note=55 velocity=0 time=144 actual_time=16584
type=note_on channel=2 note=43 velocity=0 time=0 actual_time=16584
type=note_on channel=2 note=50 velocity=0 time=0 actual_time=16584
type=note_on channel=2 note=43 velocity=80 time=36 actual_time=16620
type=note_on channel=2 note=50 velocity=80 time=0 actual_time=16620
type=note_on channel=2 note=55 velocity=80 time=0 actual_time=16620
type=note_on channel=2 note=55 velocity=0 time=48 actual_time=16668
type=note_on channel=2 note=50 velocity=0 time=0 actual_time=16668
type=note_on channel=2 note=50 velocity=80 time=12 actual_time=16680
type=note_on channel=2 note=50 velocity=0 time=48 actual_time=16728
type=note_on channel=2 note=43 velocity=0 time=0 actual_time=16728
type=note_on channel=2 note=50 velocity=80 time=12 actual_time=16740
type=note_on channel=2 note=43 velocity=80 time=0 actual_time=16740
type=note_on channel=2 note=55 velocity=80 time=0 actual_time=16740
type=note_on channel=2 note=55 velocity=0 time=48 actual_time=16788
type=note_on channel=2 note=43 velocity=0 time=0 actual_time=16788
type=note_on channel=2 note=50 velocity=0 time=0 actual_time=16788
type=note_on channel=2 note=45 velocity=80 time=12 actual_time=16800
type=note_on channel=2 note=45 velocity=0 time=96 actual_time=16896
type=note_on channel=2 note=57 velocity=80 time=24 actual_time=16920
type=note_on channel=2 note=45 velocity=80 time=0 actual_time=16920
type=note_on channel=2 note=52 velocity=80 time=0 actual_time=16920
type=note_on channel=2 note=52 velocity=0 time=144 actual_time=17064
type=note_on channel=2 note=45 velocity=0 time=0 actual_time=17064
type=note_on channel=2 note=57 velocity=0 time=0 actual_time=17064
type=note_on channel=2 note=52 velocity=80 time=36 actual_time=17100
type=note_on channel=2 note=45 velocity=80 time=0 actual_time=17100
type=note_on channel=2 note=57 velocity=80 time=0 actual_time=17100
type=note_on channel=2 note=57 velocity=0 time=48 actual_time=17148
type=note_on channel=2 note=52 velocity=0 time=0 actual_time=17148
type=note_on channel=2 note=52 velocity=80 time=12 actual_time=17160
type=note_on channel=2 note=52 velocity=0 time=48 actual_time=17208
type=note_on channel=2 note=45 velocity=0 time=0 actual_time=17208
type=note_on channel=2 note=57 velocity=80 time=12 actual_time=17220
type=note_on channel=2 note=45 velocity=80 time=0 actual_time=17220
type=note_on channel=2 note=52 velocity=80 time=0 actual_time=17220
type=note_on channel=2 note=52 velocity=0 time=48 actual_time=17268
type=note_on channel=2 note=45 velocity=0 time=0 actual_time=17268
type=note_on channel=2 note=57 velocity=0 time=0 actual_time=17268
type=note_on channel=2 note=47 velocity=80 time=12 actual_time=17280
type=note_on channel=2 note=47 velocity=0 time=96 actual_time=17376
type=note_on channel=2 note=54 velocity=80 time=24 actual_time=17400
type=note_on channel=2 note=47 velocity=80 time=0 actual_time=17400
type=note_on channel=2 note=59 velocity=80 time=0 actual_time=17400
type=note_on channel=2 note=59 velocity=0 time=144 actual_time=17544
type=note_on channel=2 note=47 velocity=0 time=0 actual_time=17544
type=note_on channel=2 note=54 velocity=0 time=0 actual_time=17544
type=note_on channel=2 note=47 velocity=80 time=36 actual_time=17580
type=note_on channel=2 note=54 velocity=80 time=0 actual_time=17580
type=note_on channel=2 note=59 velocity=80 time=0 actual_time=17580
type=note_on channel=2 note=59 velocity=0 time=48 actual_time=17628
type=note_on channel=2 note=54 velocity=0 time=0 actual_time=17628
type=note_on channel=2 note=54 velocity=80 time=12 actual_time=17640
type=note_on channel=2 note=54 velocity=0 time=48 actual_time=17688
type=note_on channel=2 note=47 velocity=0 time=0 actual_time=17688
type=note_on channel=2 note=54 velocity=80 time=12 actual_time=17700
type=note_on channel=2 note=47 velocity=80 time=0 actual_time=17700
type=note_on channel=2 note=59 velocity=80 time=0 actual_time=17700
type=note_on channel=2 note=59 velocity=0 time=48 actual_time=17748
type=note_on channel=2 note=47 velocity=0 time=0 actual_time=17748
type=note_on channel=2 note=54 velocity=0 time=0 actual_time=17748
type=note_on channel=2 note=47 velocity=80 time=12 actual_time=17760
type=note_on channel=2 note=47 velocity=0 time=96 actual_time=17856
type=note_on channel=2 note=59 velocity=80 time=24 actual_time=17880
type=note_on channel=2 note=47 velocity=80 time=0 actual_time=17880
type=note_on channel=2 note=54 velocity=80 time=0 actual_time=17880
type=note_on channel=2 note=54 velocity=0 time=144 actual_time=18024
type=note_on channel=2 note=47 velocity=0 time=0 actual_time=18024
type=note_on channel=2 note=59 velocity=0 time=0 actual_time=18024
type=note_on channel=2 note=59 velocity=80 time=36 actual_time=18060
type=note_on channel=2 note=54 velocity=80 time=0 actual_time=18060
type=note_on channel=2 note=47 velocity=80 time=0 actual_time=18060
type=note_on channel=2 note=54 velocity=0 time=48 actual_time=18108
type=note_on channel=2 note=59 velocity=0 time=0 actual_time=18108
type=note_on channel=2 note=54 velocity=80 time=12 actual_time=18120
type=note_on channel=2 note=54 velocity=0 time=48 actual_time=18168
type=note_on channel=2 note=47 velocity=0 time=0 actual_time=18168
type=note_on channel=2 note=59 velocity=80 time=12 actual_time=18180
type=note_on channel=2 note=47 velocity=80 time=0 actual_time=18180
type=note_on channel=2 note=54 velocity=80 time=0 actual_time=18180
type=note_on channel=2 note=54 velocity=0 time=48 actual_time=18228
type=note_on channel=2 note=47 velocity=0 time=0 actual_time=18228
type=note_on channel=2 note=59 velocity=0 time=0 actual_time=18228
type=note_on channel=2 note=43 velocity=80 time=12 actual_time=18240
type=note_on channel=2 note=43 velocity=0 time=96 actual_time=18336
type=note_on channel=2 note=55 velocity=80 time=24 actual_time=18360
type=note_on channel=2 note=43 velocity=80 time=0 actual_time=18360
type=note_on channel=2 note=50 velocity=80 time=0 actual_time=18360
type=note_on channel=2 note=50 velocity=0 time=144 actual_time=18504
type=note_on channel=2 note=43 velocity=0 time=0 actual_time=18504
type=note_on channel=2 note=55 velocity=0 time=0 actual_time=18504
type=note_on channel=2 note=55 velocity=80 time=36 actual_time=18540
type=note_on channel=2 note=50 velocity=80 time=0 actual_time=18540
type=note_on channel=2 note=43 velocity=80 time=0 actual_time=18540
type=note_on channel=2 note=50 velocity=0 time=48 actual_time=18588
type=note_on channel=2 note=55 velocity=0 time=0 actual_time=18588
type=note_on channel=2 note=50 velocity=80 time=12 actual_time=18600
type=note_on channel=2 note=50 velocity=0 time=48 actual_time=18648
type=note_on channel=2 note=43 velocity=0 time=0 actual_time=18648
type=note_on channel=2 note=55 velocity=80 time=12 actual_time=18660
type=note_on channel=2 note=43 velocity=80 time=0 actual_time=18660
type=note_on channel=2 note=50 velocity=80 time=0 actual_time=18660
type=note_on channel=2 note=50 velocity=0 time=48 actual_time=18708
type=note_on channel=2 note=43 velocity=0 time=0 actual_time=18708
type=note_on channel=2 note=55 velocity=0 time=0 actual_time=18708
type=note_on channel=2 note=45 velocity=80 time=12 actual_time=18720
type=note_on channel=2 note=45 velocity=0 time=96 actual_time=18816
type=note_on channel=2 note=52 velocity=80 time=24 actual_time=18840
type=note_on channel=2 note=45 velocity=80 time=0 actual_time=18840
type=note_on channel=2 note=57 velocity=80 time=0 actual_time=18840
type=note_on channel=2 note=57 velocity=0 time=144 actual_time=18984
type=note_on channel=2 note=45 velocity=0 time=0 actual_time=18984
type=note_on channel=2 note=52 velocity=0 time=0 actual_time=18984
type=note_on channel=2 note=45 velocity=80 time=36 actual_time=19020
type=note_on channel=2 note=52 velocity=80 time=0 actual_time=19020
type=note_on channel=2 note=57 velocity=80 time=0 actual_time=19020
type=note_on channel=2 note=57 velocity=0 time=48 actual_time=19068
type=note_on channel=2 note=52 velocity=0 time=0 actual_time=19068
type=note_on channel=2 note=52 velocity=80 time=12 actual_time=19080
type=note_on channel=2 note=52 velocity=0 time=48 actual_time=19128
type=note_on channel=2 note=45 velocity=0 time=0 actual_time=19128
type=note_on channel=2 note=52 velocity=80 time=12 actual_time=19140
type=note_on channel=2 note=45 velocity=80 time=0 actual_time=19140
type=note_on channel=2 note=57 velocity=80 time=0 actual_time=19140
type=note_on channel=2 note=57 velocity=0 time=48 actual_time=19188
type=note_on channel=2 note=45 velocity=0 time=0 actual_time=19188
type=note_on channel=2 note=52 velocity=0 time=0 actual_time=19188
type=note_on channel=2 note=66 velocity=80 time=12 actual_time=19200
type=note_on channel=2 note=59 velocity=80 time=0 actual_time=19200
type=note_on channel=2 note=59 velocity=0 time=384 actual_time=19584
type=note_on channel=2 note=66 velocity=0 time=0 actual_time=19584
type=note_on channel=2 note=47 velocity=80 time=14976 actual_time=34560
type=note_on channel=2 note=47 velocity=0 time=96 actual_time=34656
type=note_on channel=2 note=47 velocity=80 time=24 actual_time=34680
type=note_on channel=2 note=59 velocity=80 time=0 actual_time=34680
type=note_on channel=2 note=54 velocity=80 time=0 actual_time=34680
type=note_on channel=2 note=54 velocity=0 time=144 actual_time=34824
type=note_on channel=2 note=59 velocity=0 time=0 actual_time=34824
type=note_on channel=2 note=47 velocity=0 time=0 actual_time=34824
type=note_on channel=2 note=54 velocity=80 time=36 actual_time=34860
type=note_on channel=2 note=59 velocity=80 time=0 actual_time=34860
type=note_on channel=2 note=47 velocity=80 time=0 actual_time=34860
type=note_on channel=2 note=59 velocity=0 time=48 actual_time=34908
type=note_on channel=2 note=54 velocity=0 time=0 actual_time=34908
type=note_on channel=2 note=54 velocity=80 time=12 actual_time=34920
type=note_on channel=2 note=54 velocity=0 time=48 actual_time=34968
type=note_on channel=2 note=47 velocity=0 time=0 actual_time=34968
type=note_on channel=2 note=54 velocity=80 time=12 actual_time=34980
type=note_on channel=2 note=59 velocity=80 time=0 actual_time=34980
type=note_on channel=2 note=47 velocity=80 time=0 actual_time=34980
type=note_on channel=2 note=47 velocity=0 time=48 actual_time=35028
type=note_on channel=2 note=59 velocity=0 time=0 actual_time=35028
type=note_on channel=2 note=54 velocity=0 time=0 actual_time=35028
type=note_on channel=2 note=47 velocity=80 time=12 actual_time=35040
type=note_on channel=2 note=47 velocity=0 time=96 actual_time=35136
type=note_on channel=2 note=54 velocity=80 time=24 actual_time=35160
type=note_on channel=2 note=47 velocity=80 time=0 actual_time=35160
type=note_on channel=2 note=59 velocity=80 time=0 actual_time=35160
type=note_on channel=2 note=59 velocity=0 time=144 actual_time=35304
type=note_on channel=2 note=47 velocity=0 time=0 actual_time=35304
type=note_on channel=2 note=54 velocity=0 time=0 actual_time=35304
type=note_on channel=2 note=54 velocity=80 time=36 actual_time=35340
type=note_on channel=2 note=47 velocity=80 time=0 actual_time=35340
type=note_on channel=2 note=59 velocity=80 time=0 actual_time=35340
type=note_on channel=2 note=59 velocity=0 time=48 actual_time=35388
type=note_on channel=2 note=54 velocity=0 time=0 actual_time=35388
type=note_on channel=2 note=54 velocity=80 time=12 actual_time=35400
type=note_on channel=2 note=54 velocity=0 time=48 actual_time=35448
type=note_on channel=2 note=47 velocity=0 time=0 actual_time=35448
type=note_on channel=2 note=59 velocity=80 time=12 actual_time=35460
type=note_on channel=2 note=47 velocity=80 time=0 actual_time=35460
type=note_on channel=2 note=54 velocity=80 time=0 actual_time=35460
type=note_on channel=2 note=54 velocity=0 time=48 actual_time=35508
type=note_on channel=2 note=47 velocity=0 time=0 actual_time=35508
type=note_on channel=2 note=59 velocity=0 time=0 actual_time=35508
type=note_on channel=2 note=43 velocity=80 time=12 actual_time=35520
type=note_on channel=2 note=43 velocity=0 time=96 actual_time=35616
type=note_on channel=2 note=55 velocity=80 time=24 actual_time=35640
type=note_on channel=2 note=43 velocity=80 time=0 actual_time=35640
type=note_on channel=2 note=50 velocity=80 time=0 actual_time=35640
type=note_on channel=2 note=50 velocity=0 time=144 actual_time=35784
type=note_on channel=2 note=43 velocity=0 time=0 actual_time=35784
type=note_on channel=2 note=55 velocity=0 time=0 actual_time=35784
type=note_on channel=2 note=55 velocity=80 time=36 actual_time=35820
type=note_on channel=2 note=50 velocity=80 time=0 actual_time=35820
type=note_on channel=2 note=43 velocity=80 time=0 actual_time=35820
type=note_on channel=2 note=50 velocity=0 time=48 actual_time=35868
type=note_on channel=2 note=55 velocity=0 time=0 actual_time=35868
type=note_on channel=2 note=50 velocity=80 time=12 actual_time=35880
type=note_on channel=2 note=50 velocity=0 time=48 actual_time=35928
type=note_on channel=2 note=43 velocity=0 time=0 actual_time=35928
type=note_on channel=2 note=55 velocity=80 time=12 actual_time=35940
type=note_on channel=2 note=43 velocity=80 time=0 actual_time=35940
type=note_on channel=2 note=50 velocity=80 time=0 actual_time=35940
type=note_on channel=2 note=50 velocity=0 time=48 actual_time=35988
type=note_on channel=2 note=43 velocity=0 time=0 actual_time=35988
type=note_on channel=2 note=55 velocity=0 time=0 actual_time=35988
type=note_on channel=2 note=45 velocity=80 time=12 actual_time=36000
type=note_on channel=2 note=45 velocity=0 time=96 actual_time=36096
type=note_on channel=2 note=52 velocity=80 time=24 actual_time=36120
type=note_on channel=2 note=45 velocity=80 time=0 actual_time=36120
type=note_on channel=2 note=57 velocity=80 time=0 actual_time=36120
type=note_on channel=2 note=57 velocity=0 time=144 actual_time=36264
type=note_on channel=2 note=45 velocity=0 time=0 actual_time=36264
type=note_on channel=2 note=52 velocity=0 time=0 actual_time=36264
type=note_on channel=2 note=57 velocity=80 time=36 actual_time=36300
type=note_on channel=2 note=45 velocity=80 time=0 actual_time=36300
type=note_on channel=2 note=52 velocity=80 time=0 actual_time=36300
type=note_on channel=2 note=52 velocity=0 time=48 actual_time=36348
type=note_on channel=2 note=57 velocity=0 time=0 actual_time=36348
type=note_on channel=2 note=52 velocity=80 time=12 actual_time=36360
type=note_on channel=2 note=52 velocity=0 time=48 actual_time=36408
type=note_on channel=2 note=45 velocity=0 time=0 actual_time=36408
type=note_on channel=2 note=52 velocity=80 time=12 actual_time=36420
type=note_on channel=2 note=45 velocity=80 time=0 actual_time=36420
type=note_on channel=2 note=57 velocity=80 time=0 actual_time=36420
type=note_on channel=2 note=57 velocity=0 time=48 actual_time=36468
type=note_on channel=2 note=45 velocity=0 time=0 actual_time=36468
type=note_on channel=2 note=52 velocity=0 time=0 actual_time=36468
type=note_on channel=2 note=47 velocity=80 time=12 actual_time=36480
type=note_on channel=2 note=47 velocity=0 time=96 actual_time=36576
type=note_on channel=2 note=59 velocity=80 time=24 actual_time=36600
type=note_on channel=2 note=47 velocity=80 time=0 actual_time=36600
type=note_on channel=2 note=54 velocity=80 time=0 actual_time=36600
type=note_on channel=2 note=54 velocity=0 time=144 actual_time=36744
type=note_on channel=2 note=47 velocity=0 time=0 actual_time=36744
type=note_on channel=2 note=59 velocity=0 time=0 actual_time=36744
type=note_on channel=2 note=59 velocity=80 time=36 actual_time=36780
type=note_on channel=2 note=54 velocity=80 time=0 actual_time=36780
type=note_on channel=2 note=47 velocity=80 time=0 actual_time=36780
type=note_on channel=2 note=54 velocity=0 time=48 actual_time=36828
type=note_on channel=2 note=59 velocity=0 time=0 actual_time=36828
type=note_on channel=2 note=54 velocity=80 time=12 actual_time=36840
type=note_on channel=2 note=54 velocity=0 time=48 actual_time=36888
type=note_on channel=2 note=47 velocity=0 time=0 actual_time=36888
type=note_on channel=2 note=59 velocity=80 time=12 actual_time=36900
type=note_on channel=2 note=47 velocity=80 time=0 actual_time=36900
type=note_on channel=2 note=54 velocity=80 time=0 actual_time=36900
type=note_on channel=2 note=54 velocity=0 time=48 actual_time=36948
type=note_on channel=2 note=47 velocity=0 time=0 actual_time=36948
type=note_on channel=2 note=59 velocity=0 time=0 actual_time=36948
type=note_on channel=2 note=47 velocity=80 time=12 actual_time=36960
type=note_on channel=2 note=47 velocity=0 time=96 actual_time=37056
type=note_on channel=2 note=54 velocity=80 time=24 actual_time=37080
type=note_on channel=2 note=47 velocity=80 time=0 actual_time=37080
type=note_on channel=2 note=59 velocity=80 time=0 actual_time=37080
type=note_on channel=2 note=59 velocity=0 time=144 actual_time=37224
type=note_on channel=2 note=47 velocity=0 time=0 actual_time=37224
type=note_on channel=2 note=54 velocity=0 time=0 actual_time=37224
type=note_on channel=2 note=47 velocity=80 time=36 actual_time=37260
type=note_on channel=2 note=54 velocity=80 time=0 actual_time=37260
type=note_on channel=2 note=59 velocity=80 time=0 actual_time=37260
type=note_on channel=2 note=59 velocity=0 time=48 actual_time=37308
type=note_on channel=2 note=54 velocity=0 time=0 actual_time=37308
type=note_on channel=2 note=54 velocity=80 time=12 actual_time=37320
type=note_on channel=2 note=54 velocity=0 time=48 actual_time=37368
type=note_on channel=2 note=47 velocity=0 time=0 actual_time=37368
type=note_on channel=2 note=54 velocity=80 time=12 actual_time=37380
type=note_on channel=2 note=47 velocity=80 time=0 actual_time=37380
type=note_on channel=2 note=59 velocity=80 time=0 actual_time=37380
type=note_on channel=2 note=59 velocity=0 time=48 actual_time=37428
type=note_on channel=2 note=47 velocity=0 time=0 actual_time=37428
type=note_on channel=2 note=54 velocity=0 time=0 actual_time=37428
type=note_on channel=2 note=43 velocity=80 time=12 actual_time=37440
type=note_on channel=2 note=43 velocity=0 time=96 actual_time=37536
type=note_on channel=2 note=50 velocity=80 time=24 actual_time=37560
type=note_on channel=2 note=43 velocity=80 time=0 actual_time=37560
type=note_on channel=2 note=55 velocity=80 time=0 actual_time=37560
type=note_on channel=2 note=55 velocity=0 time=144 actual_time=37704
type=note_on channel=2 note=43 velocity=0 time=0 actual_time=37704
type=note_on channel=2 note=50 velocity=0 time=0 actual_time=37704
type=note_on channel=2 note=43 velocity=80 time=36 actual_time=37740
type=note_on channel=2 note=50 velocity=80 time=0 actual_time=37740
type=note_on channel=2 note=55 velocity=80 time=0 actual_time=37740
type=note_on channel=2 note=55 velocity=0 time=48 actual_time=37788
type=note_on channel=2 note=50 velocity=0 time=0 actual_time=37788
type=note_on channel=2 note=50 velocity=80 time=12 actual_time=37800
type=note_on channel=2 note=50 velocity=0 time=48 actual_time=37848
type=note_on channel=2 note=43 velocity=0 time=0 actual_time=37848
type=note_on channel=2 note=50 velocity=80 time=12 actual_time=37860
type=note_on channel=2 note=43 velocity=80 time=0 actual_time=37860
type=note_on channel=2 note=55 velocity=80 time=0 actual_time=37860
type=note_on channel=2 note=55 velocity=0 time=48 actual_time=37908
type=note_on channel=2 note=43 velocity=0 time=0 actual_time=37908
type=note_on channel=2 note=50 velocity=0 time=0 actual_time=37908
type=note_on channel=2 note=45 velocity=80 time=12 actual_time=37920
type=note_on channel=2 note=45 velocity=0 time=96 actual_time=38016
type=note_on channel=2 note=57 velocity=80 time=24 actual_time=38040
type=note_on channel=2 note=45 velocity=80 time=0 actual_time=38040
type=note_on channel=2 note=52 velocity=80 time=0 actual_time=38040
type=note_on channel=2 note=52 velocity=0 time=144 actual_time=38184
type=note_on channel=2 note=45 velocity=0 time=0 actual_time=38184
type=note_on channel=2 note=57 velocity=0 time=0 actual_time=38184
type=note_on channel=2 note=45 velocity=80 time=36 actual_time=38220
type=note_on channel=2 note=57 velocity=80 time=0 actual_time=38220
type=note_on channel=2 note=52 velocity=80 time=0 actual_time=38220
type=note_on channel=2 note=52 velocity=0 time=48 actual_time=38268
type=note_on channel=2 note=57 velocity=0 time=0 actual_time=38268
type=note_on channel=2 note=52 velocity=80 time=12 actual_time=38280
type=note_on channel=2 note=52 velocity=0 time=48 actual_time=38328
type=note_on channel=2 note=45 velocity=0 time=0 actual_time=38328
type=note_on channel=2 note=57 velocity=80 time=12 actual_time=38340
type=note_on channel=2 note=45 velocity=80 time=0 actual_time=38340
type=note_on channel=2 note=52 velocity=80 time=0 actual_time=38340
type=note_on channel=2 note=52 velocity=0 time=48 actual_time=38388
type=note_on channel=2 note=45 velocity=0 time=0 actual_time=38388
type=note_on channel=2 note=57 velocity=0 time=0 actual_time=38388
type=note_on channel=2 note=59 velocity=80 time=12 actual_time=38400
type=note_on channel=2 note=66 velocity=80 time=0 actual_time=38400
type=note_on channel=2 note=66 velocity=0 time=384 actual_time=38784
type=note_on channel=2 note=59 velocity=0 time=0 actual_time=38784
type=note_on channel=2 note=71 velocity=80 time=22656 actual_time=61440
type=note_on channel=2 note=66 velocity=80 time=0 actual_time=61440
type=note_on channel=2 note=59 velocity=80 time=0 actual_time=61440
type=note_on channel=2 note=59 velocity=0 time=384 actual_time=61824
type=note_on channel=2 note=66 velocity=0 time=0 actual_time=61824
type=note_on channel=2 note=71 velocity=0 time=0 actual_time=61824
type=note_on channel=2 note=71 velocity=80 time=5736 actual_time=67560
type=note_on channel=2 note=71 velocity=0 time=96 actual_time=67656
type=note_on channel=2 note=66 velocity=80 time=24 actual_time=67680
type=note_on channel=2 note=66 velocity=0 time=96 actual_time=67776
type=note_on channel=2 note=59 velocity=80 time=24 actual_time=67800
type=note_on channel=2 note=59 velocity=0 time=96 actual_time=67896
type=note_on channel=2 note=67 velocity=80 time=264 actual_time=68160
type=note_on channel=2 note=67 velocity=0 time=96 actual_time=68256
type=note_on channel=2 note=62 velocity=80 time=24 actual_time=68280
type=note_on channel=2 note=62 velocity=0 time=96 actual_time=68376
type=note_on channel=2 note=55 velocity=80 time=24 actual_time=68400
type=note_on channel=2 note=55 velocity=0 time=96 actual_time=68496
type=note_on channel=2 note=69 velocity=80 time=144 actual_time=68640
type=note_on channel=2 note=69 velocity=0 time=96 actual_time=68736
type=note_on channel=2 note=64 velocity=80 time=24 actual_time=68760
type=note_on channel=2 note=64 velocity=0 time=96 actual_time=68856
type=note_on channel=2 note=57 velocity=80 time=24 actual_time=68880
type=note_on channel=2 note=57 velocity=0 time=96 actual_time=68976
type=note_on channel=2 note=71 velocity=80 time=504 actual_time=69480
type=note_on channel=2 note=71 velocity=0 time=96 actual_time=69576
type=note_on channel=2 note=66 velocity=80 time=24 actual_time=69600
type=note_on channel=2 note=66 velocity=0 time=96 actual_time=69696
type=note_on channel=2 note=59 velocity=80 time=24 actual_time=69720
type=note_on channel=2 note=59 velocity=0 time=96 actual_time=69816
type=note_on channel=2 note=67 velocity=80 time=264 actual_time=70080
type=note_on channel=2 note=67 velocity=0 time=96 actual_time=70176
type=note_on channel=2 note=62 velocity=80 time=24 actual_time=70200
type=note_on channel=2 note=62 velocity=0 time=96 actual_time=70296
type=note_on channel=2 note=55 velocity=80 time=24 actual_time=70320
type=note_on channel=2 note=55 velocity=0 time=96 actual_time=70416
type=note_on channel=2 note=69 velocity=80 time=144 actual_time=70560
type=note_on channel=2 note=69 velocity=0 time=96 actual_time=70656
type=note_on channel=2 note=64 velocity=80 time=24 actual_time=70680
type=note_on channel=2 note=64 velocity=0 time=96 actual_time=70776
type=note_on channel=2 note=57 velocity=80 time=24 actual_time=70800
type=note_on channel=2 note=57 velocity=0 time=96 actual_time=70896
type=note_on channel=2 note=71 velocity=80 time=504 actual_time=71400
type=note_on channel=2 note=71 velocity=0 time=96 actual_time=71496
type=note_on channel=2 note=66 velocity=80 time=24 actual_time=71520
type=note_on channel=2 note=66 velocity=0 time=96 actual_time=71616
type=note_on channel=2 note=59 velocity=80 time=24 actual_time=71640
type=note_on channel=2 note=59 velocity=0 time=96 actual_time=71736
type=note_on channel=2 note=67 velocity=80 time=264 actual_time=72000
type=note_on channel=2 note=67 velocity=0 time=96 actual_time=72096
type=note_on channel=2 note=62 velocity=80 time=24 actual_time=72120
type=note_on channel=2 note=62 velocity=0 time=96 actual_time=72216
type=note_on channel=2 note=55 velocity=80 time=24 actual_time=72240
type=note_on channel=2 note=55 velocity=0 time=96 actual_time=72336
type=note_on channel=2 note=69 velocity=80 time=144 actual_time=72480
type=note_on channel=2 note=69 velocity=0 time=96 actual_time=72576
type=note_on channel=2 note=64 velocity=80 time=24 actual_time=72600
type=note_on channel=2 note=64 velocity=0 time=96 actual_time=72696
type=note_on channel=2 note=57 velocity=80 time=24 actual_time=72720
type=note_on channel=2 note=57 velocity=0 time=96 actual_time=72816
MetaMessage type: end_of_track, time: 0, actual_time: 72816
MetaMessage type: track_name, time: 0, actual_time: 0
type: program_change, time: 0, actual_time: 0
type=control_change channel=3 control=7 value=89 time=0 actual_time=0
type=note_on channel=3 note=47 velocity=81 time=0 actual_time=0
type=control_change channel=3 control=64 value=127 time=0 actual_time=0
type=note_on channel=3 note=54 velocity=80 time=120 actual_time=120
type=note_on channel=3 note=54 velocity=0 time=96 actual_time=216
type=note_on channel=3 note=59 velocity=80 time=24 actual_time=240
type=note_on channel=3 note=47 velocity=0 time=60 actual_time=300
type=note_on channel=3 note=59 velocity=0 time=36 actual_time=336
type=note_on channel=3 note=62 velocity=80 time=24 actual_time=360
type=note_on channel=3 note=62 velocity=0 time=192 actual_time=552
type=note_on channel=3 note=59 velocity=80 time=48 actual_time=600
type=note_on channel=3 note=59 velocity=0 time=96 actual_time=696
type=note_on channel=3 note=54 velocity=80 time=24 actual_time=720
type=note_on channel=3 note=54 velocity=0 time=96 actual_time=816
type=note_on channel=3 note=55 velocity=80 time=24 actual_time=840
type=note_on channel=3 note=55 velocity=0 time=96 actual_time=936
type=note_on channel=3 note=43 velocity=80 time=24 actual_time=960
type=note_on channel=3 note=43 velocity=0 time=96 actual_time=1056
type=note_on channel=3 note=47 velocity=80 time=24 actual_time=1080
type=note_on channel=3 note=47 velocity=0 time=96 actual_time=1176
type=note_on channel=3 note=50 velocity=80 time=24 actual_time=1200
type=note_on channel=3 note=50 velocity=0 time=96 actual_time=1296
type=note_on channel=3 note=55 velocity=80 time=24 actual_time=1320
type=note_on channel=3 note=55 velocity=0 time=96 actual_time=1416
type=note_on channel=3 note=45 velocity=80 time=24 actual_time=1440
type=note_on channel=3 note=45 velocity=0 time=96 actual_time=1536
type=note_on channel=3 note=52 velocity=80 time=24 actual_time=1560
type=note_on channel=3 note=52 velocity=0 time=96 actual_time=1656
type=note_on channel=3 note=57 velocity=80 time=24 actual_time=1680
type=note_on channel=3 note=57 velocity=0 time=96 actual_time=1776
type=note_on channel=3 note=59 velocity=80 time=24 actual_time=1800
type=note_on channel=3 note=59 velocity=0 time=96 actual_time=1896
type=control_change channel=3 control=64 value=127 time=24 actual_time=1920
type=note_on channel=3 note=47 velocity=81 time=0 actual_time=1920
type=note_on channel=3 note=54 velocity=80 time=120 actual_time=2040
type=note_on channel=3 note=54 velocity=0 time=96 actual_time=2136
type=note_on channel=3 note=59 velocity=80 time=24 actual_time=2160
type=note_on channel=3 note=47 velocity=0 time=60 actual_time=2220
type=note_on channel=3 note=59 velocity=0 time=36 actual_time=2256
type=note_on channel=3 note=62 velocity=80 time=24 actual_time=2280
type=note_on channel=3 note=62 velocity=0 time=192 actual_time=2472
type=note_on channel=3 note=59 velocity=80 time=48 actual_time=2520
type=note_on channel=3 note=59 velocity=0 time=96 actual_time=2616
type=note_on channel=3 note=54 velocity=80 time=24 actual_time=2640
type=note_on channel=3 note=54 velocity=0 time=96 actual_time=2736
type=note_on channel=3 note=55 velocity=80 time=24 actual_time=2760
type=note_on channel=3 note=55 velocity=0 time=96 actual_time=2856
type=note_on channel=3 note=43 velocity=80 time=24 actual_time=2880
type=note_on channel=3 note=43 velocity=0 time=96 actual_time=2976
type=note_on channel=3 note=47 velocity=80 time=24 actual_time=3000
type=note_on channel=3 note=47 velocity=0 time=96 actual_time=3096
type=note_on channel=3 note=50 velocity=80 time=24 actual_time=3120
type=note_on channel=3 note=50 velocity=0 time=96 actual_time=3216
type=note_on channel=3 note=55 velocity=80 time=24 actual_time=3240
type=note_on channel=3 note=55 velocity=0 time=96 actual_time=3336
type=note_on channel=3 note=45 velocity=80 time=24 actual_time=3360
type=note_on channel=3 note=45 velocity=0 time=96 actual_time=3456
type=note_on channel=3 note=52 velocity=80 time=24 actual_time=3480
type=note_on channel=3 note=52 velocity=0 time=96 actual_time=3576
type=note_on channel=3 note=57 velocity=80 time=24 actual_time=3600
type=note_on channel=3 note=57 velocity=0 time=96 actual_time=3696
type=note_on channel=3 note=59 velocity=80 time=24 actual_time=3720
type=note_on channel=3 note=59 velocity=0 time=96 actual_time=3816
type=control_change channel=3 control=64 value=127 time=24 actual_time=3840
type=note_on channel=3 note=47 velocity=81 time=0 actual_time=3840
type=note_on channel=3 note=54 velocity=80 time=120 actual_time=3960
type=note_on channel=3 note=54 velocity=0 time=96 actual_time=4056
type=note_on channel=3 note=59 velocity=80 time=24 actual_time=4080
type=note_on channel=3 note=47 velocity=0 time=60 actual_time=4140
type=note_on channel=3 note=59 velocity=0 time=36 actual_time=4176
type=note_on channel=3 note=62 velocity=80 time=24 actual_time=4200
type=note_on channel=3 note=62 velocity=0 time=192 actual_time=4392
type=note_on channel=3 note=59 velocity=80 time=48 actual_time=4440
type=note_on channel=3 note=59 velocity=0 time=96 actual_time=4536
type=note_on channel=3 note=54 velocity=80 time=24 actual_time=4560
type=note_on channel=3 note=54 velocity=0 time=96 actual_time=4656
type=note_on channel=3 note=55 velocity=80 time=24 actual_time=4680
type=note_on channel=3 note=55 velocity=0 time=96 actual_time=4776
type=note_on channel=3 note=43 velocity=80 time=24 actual_time=4800
type=note_on channel=3 note=43 velocity=0 time=96 actual_time=4896
type=note_on channel=3 note=47 velocity=80 time=24 actual_time=4920
type=note_on channel=3 note=47 velocity=0 time=96 actual_time=5016
type=note_on channel=3 note=50 velocity=80 time=24 actual_time=5040
type=note_on channel=3 note=50 velocity=0 time=96 actual_time=5136
type=note_on channel=3 note=55 velocity=80 time=24 actual_time=5160
type=note_on channel=3 note=55 velocity=0 time=96 actual_time=5256
type=note_on channel=3 note=45 velocity=80 time=24 actual_time=5280
type=note_on channel=3 note=45 velocity=0 time=96 actual_time=5376
type=note_on channel=3 note=52 velocity=80 time=24 actual_time=5400
type=note_on channel=3 note=52 velocity=0 time=96 actual_time=5496
type=note_on channel=3 note=57 velocity=80 time=24 actual_time=5520
type=note_on channel=3 note=57 velocity=0 time=96 actual_time=5616
type=note_on channel=3 note=59 velocity=80 time=24 actual_time=5640
type=note_on channel=3 note=59 velocity=0 time=96 actual_time=5736
type=note_on channel=3 note=47 velocity=81 time=24 actual_time=5760
type=control_change channel=3 control=64 value=127 time=0 actual_time=5760
type=note_on channel=3 note=54 velocity=80 time=120 actual_time=5880
type=note_on channel=3 note=54 velocity=0 time=96 actual_time=5976
type=note_on channel=3 note=59 velocity=80 time=24 actual_time=6000
type=note_on channel=3 note=47 velocity=0 time=60 actual_time=6060
type=note_on channel=3 note=59 velocity=0 time=36 actual_time=6096
type=note_on channel=3 note=62 velocity=80 time=24 actual_time=6120
type=note_on channel=3 note=62 velocity=0 time=192 actual_time=6312
type=note_on channel=3 note=59 velocity=80 time=48 actual_time=6360
type=note_on channel=3 note=59 velocity=0 time=96 actual_time=6456
type=note_on channel=3 note=54 velocity=80 time=24 actual_time=6480
type=note_on channel=3 note=54 velocity=0 time=96 actual_time=6576
type=note_on channel=3 note=55 velocity=80 time=24 actual_time=6600
type=note_on channel=3 note=55 velocity=0 time=96 actual_time=6696
type=note_on channel=3 note=43 velocity=80 time=24 actual_time=6720
type=note_on channel=3 note=43 velocity=0 time=96 actual_time=6816
type=note_on channel=3 note=47 velocity=80 time=24 actual_time=6840
type=note_on channel=3 note=47 velocity=0 time=96 actual_time=6936
type=note_on channel=3 note=50 velocity=80 time=24 actual_time=6960
type=note_on channel=3 note=50 velocity=0 time=96 actual_time=7056
type=note_on channel=3 note=55 velocity=80 time=24 actual_time=7080
type=note_on channel=3 note=55 velocity=0 time=96 actual_time=7176
type=note_on channel=3 note=45 velocity=80 time=24 actual_time=7200
type=note_on channel=3 note=45 velocity=0 time=96 actual_time=7296
type=note_on channel=3 note=64 velocity=80 time=24 actual_time=7320
type=note_on channel=3 note=64 velocity=0 time=96 actual_time=7416
type=note_on channel=3 note=59 velocity=80 time=24 actual_time=7440
type=note_on channel=3 note=59 velocity=0 time=96 actual_time=7536
type=note_on channel=3 note=57 velocity=80 time=24 actual_time=7560
type=note_on channel=3 note=57 velocity=0 time=96 actual_time=7656
type=control_change channel=3 control=64 value=127 time=24 actual_time=7680
type=note_on channel=3 note=47 velocity=81 time=0 actual_time=7680
type=note_on channel=3 note=54 velocity=80 time=120 actual_time=7800
type=note_on channel=3 note=54 velocity=0 time=96 actual_time=7896
type=note_on channel=3 note=59 velocity=80 time=24 actual_time=7920
type=note_on channel=3 note=47 velocity=0 time=60 actual_time=7980
type=note_on channel=3 note=59 velocity=0 time=36 actual_time=8016
type=note_on channel=3 note=62 velocity=80 time=24 actual_time=8040
type=note_on channel=3 note=62 velocity=0 time=192 actual_time=8232
type=note_on channel=3 note=59 velocity=80 time=48 actual_time=8280
type=note_on channel=3 note=59 velocity=0 time=96 actual_time=8376
type=note_on channel=3 note=54 velocity=80 time=24 actual_time=8400
type=note_on channel=3 note=54 velocity=0 time=96 actual_time=8496
type=note_on channel=3 note=55 velocity=80 time=24 actual_time=8520
type=note_on channel=3 note=55 velocity=0 time=96 actual_time=8616
type=note_on channel=3 note=43 velocity=80 time=24 actual_time=8640
type=note_on channel=3 note=43 velocity=0 time=96 actual_time=8736
type=note_on channel=3 note=47 velocity=80 time=24 actual_time=8760
type=note_on channel=3 note=47 velocity=0 time=96 actual_time=8856
type=note_on channel=3 note=50 velocity=80 time=24 actual_time=8880
type=note_on channel=3 note=50 velocity=0 time=96 actual_time=8976
type=note_on channel=3 note=55 velocity=80 time=24 actual_time=9000
type=note_on channel=3 note=55 velocity=0 time=96 actual_time=9096
type=note_on channel=3 note=45 velocity=80 time=24 actual_time=9120
type=note_on channel=3 note=45 velocity=0 time=96 actual_time=9216
type=note_on channel=3 note=52 velocity=80 time=24 actual_time=9240
type=note_on channel=3 note=52 velocity=0 time=96 actual_time=9336
type=note_on channel=3 note=57 velocity=80 time=24 actual_time=9360
type=note_on channel=3 note=57 velocity=0 time=96 actual_time=9456
type=note_on channel=3 note=59 velocity=80 time=24 actual_time=9480
type=note_on channel=3 note=59 velocity=0 time=96 actual_time=9576
type=note_on channel=3 note=47 velocity=81 time=24 actual_time=9600
type=control_change channel=3 control=64 value=127 time=0 actual_time=9600
type=note_on channel=3 note=54 velocity=80 time=120 actual_time=9720
type=note_on channel=3 note=54 velocity=0 time=96 actual_time=9816
type=note_on channel=3 note=59 velocity=80 time=24 actual_time=9840
type=note_on channel=3 note=47 velocity=0 time=60 actual_time=9900
type=note_on channel=3 note=59 velocity=0 time=36 actual_time=9936
type=note_on channel=3 note=62 velocity=80 time=24 actual_time=9960
type=note_on channel=3 note=62 velocity=0 time=192 actual_time=10152
type=note_on channel=3 note=59 velocity=80 time=48 actual_time=10200
type=note_on channel=3 note=59 velocity=0 time=96 actual_time=10296
type=note_on channel=3 note=54 velocity=80 time=24 actual_time=10320
type=note_on channel=3 note=54 velocity=0 time=96 actual_time=10416
type=note_on channel=3 note=55 velocity=80 time=24 actual_time=10440
type=note_on channel=3 note=55 velocity=0 time=96 actual_time=10536
type=note_on channel=3 note=43 velocity=80 time=24 actual_time=10560
type=note_on channel=3 note=43 velocity=0 time=96 actual_time=10656
type=note_on channel=3 note=47 velocity=80 time=24 actual_time=10680
type=note_on channel=3 note=47 velocity=0 time=96 actual_time=10776
type=note_on channel=3 note=50 velocity=80 time=24 actual_time=10800
type=note_on channel=3 note=50 velocity=0 time=96 actual_time=10896
type=note_on channel=3 note=55 velocity=80 time=24 actual_time=10920
type=note_on channel=3 note=55 velocity=0 time=96 actual_time=11016
type=note_on channel=3 note=45 velocity=80 time=24 actual_time=11040
type=note_on channel=3 note=45 velocity=0 time=96 actual_time=11136
type=note_on channel=3 note=52 velocity=80 time=24 actual_time=11160
type=note_on channel=3 note=52 velocity=0 time=96 actual_time=11256
type=note_on channel=3 note=57 velocity=80 time=24 actual_time=11280
type=note_on channel=3 note=57 velocity=0 time=96 actual_time=11376
type=note_on channel=3 note=59 velocity=80 time=24 actual_time=11400
type=note_on channel=3 note=59 velocity=0 time=96 actual_time=11496
type=control_change channel=3 control=64 value=127 time=24 actual_time=11520
type=note_on channel=3 note=47 velocity=81 time=0 actual_time=11520
type=note_on channel=3 note=54 velocity=80 time=120 actual_time=11640
type=note_on channel=3 note=54 velocity=0 time=96 actual_time=11736
type=note_on channel=3 note=59 velocity=80 time=24 actual_time=11760
type=note_on channel=3 note=47 velocity=0 time=60 actual_time=11820
type=note_on channel=3 note=59 velocity=0 time=36 actual_time=11856
type=note_on channel=3 note=62 velocity=80 time=24 actual_time=11880
type=note_on channel=3 note=62 velocity=0 time=192 actual_time=12072
type=note_on channel=3 note=59 velocity=80 time=48 actual_time=12120
type=note_on channel=3 note=59 velocity=0 time=96 actual_time=12216
type=note_on channel=3 note=54 velocity=80 time=24 actual_time=12240
type=note_on channel=3 note=54 velocity=0 time=96 actual_time=12336
type=note_on channel=3 note=55 velocity=80 time=24 actual_time=12360
type=note_on channel=3 note=55 velocity=0 time=96 actual_time=12456
type=note_on channel=3 note=43 velocity=80 time=24 actual_time=12480
type=note_on channel=3 note=43 velocity=0 time=96 actual_time=12576
type=note_on channel=3 note=47 velocity=80 time=24 actual_time=12600
type=note_on channel=3 note=47 velocity=0 time=96 actual_time=12696
type=note_on channel=3 note=50 velocity=80 time=24 actual_time=12720
type=note_on channel=3 note=50 velocity=0 time=96 actual_time=12816
type=note_on channel=3 note=55 velocity=80 time=24 actual_time=12840
type=note_on channel=3 note=55 velocity=0 time=96 actual_time=12936
type=note_on channel=3 note=45 velocity=80 time=24 actual_time=12960
type=note_on channel=3 note=45 velocity=0 time=96 actual_time=13056
type=note_on channel=3 note=52 velocity=80 time=24 actual_time=13080
type=note_on channel=3 note=52 velocity=0 time=96 actual_time=13176
type=note_on channel=3 note=57 velocity=80 time=24 actual_time=13200
type=note_on channel=3 note=57 velocity=0 time=96 actual_time=13296
type=note_on channel=3 note=59 velocity=80 time=24 actual_time=13320
type=note_on channel=3 note=59 velocity=0 time=96 actual_time=13416
type=note_on channel=3 note=47 velocity=81 time=24 actual_time=13440
type=control_change channel=3 control=64 value=127 time=0 actual_time=13440
type=note_on channel=3 note=54 velocity=80 time=120 actual_time=13560
type=note_on channel=3 note=54 velocity=0 time=96 actual_time=13656
type=note_on channel=3 note=59 velocity=80 time=24 actual_time=13680
type=note_on channel=3 note=47 velocity=0 time=60 actual_time=13740
type=note_on channel=3 note=59 velocity=0 time=36 actual_time=13776
type=note_on channel=3 note=62 velocity=80 time=24 actual_time=13800
type=note_on channel=3 note=62 velocity=0 time=192 actual_time=13992
type=note_on channel=3 note=59 velocity=80 time=48 actual_time=14040
type=note_on channel=3 note=59 velocity=0 time=96 actual_time=14136
type=note_on channel=3 note=54 velocity=80 time=24 actual_time=14160
type=note_on channel=3 note=54 velocity=0 time=96 actual_time=14256
type=note_on channel=3 note=55 velocity=80 time=24 actual_time=14280
type=note_on channel=3 note=55 velocity=0 time=96 actual_time=14376
type=note_on channel=3 note=43 velocity=80 time=24 actual_time=14400
type=note_on channel=3 note=43 velocity=0 time=96 actual_time=14496
type=note_on channel=3 note=47 velocity=80 time=24 actual_time=14520
type=note_on channel=3 note=47 velocity=0 time=96 actual_time=14616
type=note_on channel=3 note=50 velocity=80 time=24 actual_time=14640
type=note_on channel=3 note=50 velocity=0 time=96 actual_time=14736
type=note_on channel=3 note=55 velocity=80 time=24 actual_time=14760
type=note_on channel=3 note=55 velocity=0 time=96 actual_time=14856
type=note_on channel=3 note=45 velocity=80 time=24 actual_time=14880
type=note_on channel=3 note=45 velocity=0 time=96 actual_time=14976
type=note_on channel=3 note=64 velocity=80 time=24 actual_time=15000
type=note_on channel=3 note=64 velocity=0 time=96 actual_time=15096
type=note_on channel=3 note=59 velocity=80 time=24 actual_time=15120
type=note_on channel=3 note=59 velocity=0 time=96 actual_time=15216
type=note_on channel=3 note=57 velocity=80 time=24 actual_time=15240
type=note_on channel=3 note=57 velocity=0 time=96 actual_time=15336
type=note_on channel=3 note=54 velocity=80 time=24 actual_time=15360
type=note_on channel=3 note=54 velocity=0 time=96 actual_time=15456
type=note_on channel=3 note=59 velocity=80 time=24 actual_time=15480
type=note_on channel=3 note=59 velocity=0 time=192 actual_time=15672
type=note_on channel=3 note=61 velocity=80 time=48 actual_time=15720
type=note_on channel=3 note=61 velocity=0 time=192 actual_time=15912
type=note_on channel=3 note=62 velocity=80 time=48 actual_time=15960
type=note_on channel=3 note=62 velocity=0 time=192 actual_time=16152
type=note_on channel=3 note=64 velocity=80 time=48 actual_time=16200
type=note_on channel=3 note=64 velocity=0 time=216 actual_time=16416
type=note_on channel=3 note=62 velocity=80 time=24 actual_time=16440
type=note_on channel=3 note=62 velocity=0 time=192 actual_time=16632
type=note_on channel=3 note=61 velocity=80 time=48 actual_time=16680
type=note_on channel=3 note=61 velocity=0 time=192 actual_time=16872
type=note_on channel=3 note=57 velocity=80 time=48 actual_time=16920
type=note_on channel=3 note=57 velocity=0 time=96 actual_time=17016
type=note_on channel=3 note=66 velocity=80 time=24 actual_time=17040
type=note_on channel=3 note=66 velocity=0 time=96 actual_time=17136
type=note_on channel=3 note=57 velocity=80 time=24 actual_time=17160
type=note_on channel=3 note=57 velocity=0 time=96 actual_time=17256
type=note_on channel=3 note=54 velocity=80 time=24 actual_time=17280
type=note_on channel=3 note=54 velocity=0 time=192 actual_time=17472
type=note_on channel=3 note=59 velocity=80 time=48 actual_time=17520
type=note_on channel=3 note=59 velocity=0 time=96 actual_time=17616
type=note_on channel=3 note=61 velocity=80 time=24 actual_time=17640
type=note_on channel=3 note=61 velocity=0 time=192 actual_time=17832
type=note_on channel=3 note=62 velocity=80 time=48 actual_time=17880
type=note_on channel=3 note=62 velocity=0 time=192 actual_time=18072
type=note_on channel=3 note=69 velocity=80 time=48 actual_time=18120
type=note_on channel=3 note=69 velocity=0 time=216 actual_time=18336
type=note_on channel=3 note=67 velocity=80 time=24 actual_time=18360
type=note_on channel=3 note=67 velocity=0 time=192 actual_time=18552
type=note_on channel=3 note=66 velocity=80 time=48 actual_time=18600
type=note_on channel=3 note=66 velocity=0 time=192 actual_time=18792
type=note_on channel=3 note=59 velocity=80 time=48 actual_time=18840
type=note_on channel=3 note=59 velocity=0 time=96 actual_time=18936
type=note_on channel=3 note=64 velocity=80 time=24 actual_time=18960
type=note_on channel=3 note=64 velocity=0 time=96 actual_time=19056
type=note_on channel=3 note=57 velocity=80 time=24 actual_time=19080
type=note_on channel=3 note=57 velocity=0 time=96 actual_time=19176
type=control_change channel=3 control=64 value=127 time=24 actual_time=19200
type=note_on channel=3 note=47 velocity=81 time=0 actual_time=19200
type=note_on channel=3 note=54 velocity=80 time=120 actual_time=19320
type=note_on channel=3 note=54 velocity=0 time=96 actual_time=19416
type=note_on channel=3 note=59 velocity=80 time=24 actual_time=19440
type=note_on channel=3 note=47 velocity=0 time=60 actual_time=19500
type=note_on channel=3 note=59 velocity=0 time=36 actual_time=19536
type=note_on channel=3 note=62 velocity=80 time=24 actual_time=19560
type=note_on channel=3 note=62 velocity=0 time=192 actual_time=19752
type=note_on channel=3 note=59 velocity=80 time=48 actual_time=19800
type=note_on channel=3 note=59 velocity=0 time=96 actual_time=19896
type=note_on channel=3 note=54 velocity=80 time=24 actual_time=19920
type=note_on channel=3 note=54 velocity=0 time=96 actual_time=20016
type=note_on channel=3 note=55 velocity=80 time=24 actual_time=20040
type=note_on channel=3 note=55 velocity=0 time=96 actual_time=20136
type=note_on channel=3 note=43 velocity=80 time=24 actual_time=20160
type=note_on channel=3 note=43 velocity=0 time=96 actual_time=20256
type=note_on channel=3 note=47 velocity=80 time=24 actual_time=20280
type=note_on channel=3 note=47 velocity=0 time=96 actual_time=20376
type=note_on channel=3 note=50 velocity=80 time=24 actual_time=20400
type=note_on channel=3 note=50 velocity=0 time=96 actual_time=20496
type=note_on channel=3 note=55 velocity=80 time=24 actual_time=20520
type=note_on channel=3 note=55 velocity=0 time=96 actual_time=20616
type=note_on channel=3 note=45 velocity=80 time=24 actual_time=20640
type=note_on channel=3 note=45 velocity=0 time=96 actual_time=20736
type=note_on channel=3 note=52 velocity=80 time=24 actual_time=20760
type=note_on channel=3 note=52 velocity=0 time=96 actual_time=20856
type=note_on channel=3 note=57 velocity=80 time=24 actual_time=20880
type=note_on channel=3 note=57 velocity=0 time=96 actual_time=20976
type=note_on channel=3 note=59 velocity=80 time=24 actual_time=21000
type=note_on channel=3 note=59 velocity=0 time=96 actual_time=21096
type=note_on channel=3 note=47 velocity=81 time=24 actual_time=21120
type=control_change channel=3 control=64 value=127 time=0 actual_time=21120
type=note_on channel=3 note=54 velocity=80 time=120 actual_time=21240
type=note_on channel=3 note=54 velocity=0 time=96 actual_time=21336
type=note_on channel=3 note=59 velocity=80 time=24 actual_time=21360
type=note_on channel=3 note=47 velocity=0 time=60 actual_time=21420
type=note_on channel=3 note=59 velocity=0 time=36 actual_time=21456
type=note_on channel=3 note=62 velocity=80 time=24 actual_time=21480
type=note_on channel=3 note=62 velocity=0 time=192 actual_time=21672
type=note_on channel=3 note=59 velocity=80 time=48 actual_time=21720
type=note_on channel=3 note=59 velocity=0 time=96 actual_time=21816
type=note_on channel=3 note=54 velocity=80 time=24 actual_time=21840
type=note_on channel=3 note=54 velocity=0 time=96 actual_time=21936
type=note_on channel=3 note=55 velocity=80 time=24 actual_time=21960
type=note_on channel=3 note=55 velocity=0 time=96 actual_time=22056
type=note_on channel=3 note=43 velocity=80 time=24 actual_time=22080
type=note_on channel=3 note=43 velocity=0 time=96 actual_time=22176
type=note_on channel=3 note=47 velocity=80 time=24 actual_time=22200
type=note_on channel=3 note=47 velocity=0 time=96 actual_time=22296
type=note_on channel=3 note=50 velocity=80 time=24 actual_time=22320
type=note_on channel=3 note=50 velocity=0 time=96 actual_time=22416
type=note_on channel=3 note=55 velocity=80 time=24 actual_time=22440
type=note_on channel=3 note=55 velocity=0 time=96 actual_time=22536
type=note_on channel=3 note=45 velocity=80 time=24 actual_time=22560
type=note_on channel=3 note=45 velocity=0 time=96 actual_time=22656
type=note_on channel=3 note=52 velocity=80 time=24 actual_time=22680
type=note_on channel=3 note=52 velocity=0 time=96 actual_time=22776
type=note_on channel=3 note=57 velocity=80 time=24 actual_time=22800
type=note_on channel=3 note=57 velocity=0 time=96 actual_time=22896
type=note_on channel=3 note=59 velocity=80 time=24 actual_time=22920
type=note_on channel=3 note=59 velocity=0 time=96 actual_time=23016
type=control_change channel=3 control=64 value=127 time=24 actual_time=23040
type=note_on channel=3 note=47 velocity=81 time=0 actual_time=23040
type=note_on channel=3 note=54 velocity=80 time=120 actual_time=23160
type=note_on channel=3 note=54 velocity=0 time=96 actual_time=23256
type=note_on channel=3 note=59 velocity=80 time=24 actual_time=23280
type=note_on channel=3 note=47 velocity=0 time=60 actual_time=23340
type=note_on channel=3 note=59 velocity=0 time=36 actual_time=23376
type=note_on channel=3 note=62 velocity=80 time=24 actual_time=23400
type=note_on channel=3 note=62 velocity=0 time=192 actual_time=23592
type=note_on channel=3 note=59 velocity=80 time=48 actual_time=23640
type=note_on channel=3 note=59 velocity=0 time=96 actual_time=23736
type=note_on channel=3 note=54 velocity=80 time=24 actual_time=23760
type=note_on channel=3 note=54 velocity=0 time=96 actual_time=23856
type=note_on channel=3 note=55 velocity=80 time=24 actual_time=23880
type=note_on channel=3 note=55 velocity=0 time=96 actual_time=23976
type=note_on channel=3 note=43 velocity=80 time=24 actual_time=24000
type=note_on channel=3 note=43 velocity=0 time=96 actual_time=24096
type=note_on channel=3 note=47 velocity=80 time=24 actual_time=24120
type=note_on channel=3 note=47 velocity=0 time=96 actual_time=24216
type=note_on channel=3 note=50 velocity=80 time=24 actual_time=24240
type=note_on channel=3 note=50 velocity=0 time=96 actual_time=24336
type=note_on channel=3 note=55 velocity=80 time=24 actual_time=24360
type=note_on channel=3 note=55 velocity=0 time=96 actual_time=24456
type=note_on channel=3 note=45 velocity=80 time=24 actual_time=24480
type=note_on channel=3 note=45 velocity=0 time=96 actual_time=24576
type=note_on channel=3 note=52 velocity=80 time=24 actual_time=24600
type=note_on channel=3 note=52 velocity=0 time=96 actual_time=24696
type=note_on channel=3 note=57 velocity=80 time=24 actual_time=24720
type=note_on channel=3 note=57 velocity=0 time=96 actual_time=24816
type=note_on channel=3 note=59 velocity=80 time=24 actual_time=24840
type=note_on channel=3 note=59 velocity=0 time=96 actual_time=24936
type=note_on channel=3 note=47 velocity=81 time=24 actual_time=24960
type=control_change channel=3 control=64 value=127 time=0 actual_time=24960
type=note_on channel=3 note=54 velocity=80 time=120 actual_time=25080
type=note_on channel=3 note=54 velocity=0 time=96 actual_time=25176
type=note_on channel=3 note=59 velocity=80 time=24 actual_time=25200
type=note_on channel=3 note=47 velocity=0 time=60 actual_time=25260
type=note_on channel=3 note=59 velocity=0 time=36 actual_time=25296
type=note_on channel=3 note=62 velocity=80 time=24 actual_time=25320
type=note_on channel=3 note=62 velocity=0 time=192 actual_time=25512
type=note_on channel=3 note=59 velocity=80 time=48 actual_time=25560
type=note_on channel=3 note=59 velocity=0 time=96 actual_time=25656
type=note_on channel=3 note=54 velocity=80 time=24 actual_time=25680
type=note_on channel=3 note=54 velocity=0 time=96 actual_time=25776
type=note_on channel=3 note=55 velocity=80 time=24 actual_time=25800
type=note_on channel=3 note=55 velocity=0 time=96 actual_time=25896
type=note_on channel=3 note=43 velocity=80 time=24 actual_time=25920
type=note_on channel=3 note=43 velocity=0 time=96 actual_time=26016
type=note_on channel=3 note=47 velocity=80 time=24 actual_time=26040
type=note_on channel=3 note=47 velocity=0 time=96 actual_time=26136
type=note_on channel=3 note=50 velocity=80 time=24 actual_time=26160
type=note_on channel=3 note=50 velocity=0 time=96 actual_time=26256
type=note_on channel=3 note=55 velocity=80 time=24 actual_time=26280
type=note_on channel=3 note=55 velocity=0 time=96 actual_time=26376
type=note_on channel=3 note=45 velocity=80 time=24 actual_time=26400
type=note_on channel=3 note=45 velocity=0 time=96 actual_time=26496
type=note_on channel=3 note=64 velocity=80 time=24 actual_time=26520
type=note_on channel=3 note=64 velocity=0 time=96 actual_time=26616
type=note_on channel=3 note=59 velocity=80 time=24 actual_time=26640
type=note_on channel=3 note=59 velocity=0 time=96 actual_time=26736
type=note_on channel=3 note=57 velocity=80 time=24 actual_time=26760
type=note_on channel=3 note=57 velocity=0 time=96 actual_time=26856
type=note_on channel=3 note=54 velocity=80 time=7704 actual_time=34560
type=note_on channel=3 note=54 velocity=0 time=96 actual_time=34656
type=note_on channel=3 note=59 velocity=80 time=24 actual_time=34680
type=note_on channel=3 note=59 velocity=0 time=192 actual_time=34872
type=note_on channel=3 note=61 velocity=80 time=48 actual_time=34920
type=note_on channel=3 note=61 velocity=0 time=192 actual_time=35112
type=note_on channel=3 note=62 velocity=80 time=48 actual_time=35160
type=note_on channel=3 note=62 velocity=0 time=192 actual_time=35352
type=note_on channel=3 note=64 velocity=80 time=48 actual_time=35400
type=note_on channel=3 note=64 velocity=0 time=216 actual_time=35616
type=note_on channel=3 note=62 velocity=80 time=24 actual_time=35640
type=note_on channel=3 note=62 velocity=0 time=192 actual_time=35832
type=note_on channel=3 note=61 velocity=80 time=48 actual_time=35880
type=note_on channel=3 note=61 velocity=0 time=192 actual_time=36072
type=note_on channel=3 note=57 velocity=80 time=48 actual_time=36120
type=note_on channel=3 note=57 velocity=0 time=192 actual_time=36312
type=note_on channel=3 note=61 velocity=80 time=48 actual_time=36360
type=note_on channel=3 note=61 velocity=0 time=96 actual_time=36456
type=note_on channel=3 note=54 velocity=80 time=24 actual_time=36480
type=note_on channel=3 note=54 velocity=0 time=192 actual_time=36672
type=note_on channel=3 note=59 velocity=80 time=48 actual_time=36720
type=note_on channel=3 note=59 velocity=0 time=96 actual_time=36816
type=note_on channel=3 note=61 velocity=80 time=24 actual_time=36840
type=note_on channel=3 note=61 velocity=0 time=192 actual_time=37032
type=note_on channel=3 note=62 velocity=80 time=48 actual_time=37080
type=note_on channel=3 note=62 velocity=0 time=192 actual_time=37272
type=note_on channel=3 note=69 velocity=80 time=48 actual_time=37320
type=note_on channel=3 note=69 velocity=0 time=216 actual_time=37536
type=note_on channel=3 note=67 velocity=80 time=24 actual_time=37560
type=note_on channel=3 note=67 velocity=0 time=192 actual_time=37752
type=note_on channel=3 note=66 velocity=80 time=48 actual_time=37800
type=note_on channel=3 note=66 velocity=0 time=192 actual_time=37992
type=note_on channel=3 note=59 velocity=80 time=48 actual_time=38040
type=note_on channel=3 note=59 velocity=0 time=96 actual_time=38136
type=note_on channel=3 note=64 velocity=80 time=24 actual_time=38160
type=note_on channel=3 note=64 velocity=0 time=96 actual_time=38256
type=note_on channel=3 note=57 velocity=80 time=24 actual_time=38280
type=note_on channel=3 note=57 velocity=0 time=96 actual_time=38376
type=note_on channel=3 note=47 velocity=81 time=24 actual_time=38400
type=control_change channel=3 control=64 value=127 time=0 actual_time=38400
type=note_on channel=3 note=54 velocity=80 time=120 actual_time=38520
type=note_on channel=3 note=54 velocity=0 time=96 actual_time=38616
type=note_on channel=3 note=59 velocity=80 time=24 actual_time=38640
type=note_on channel=3 note=47 velocity=0 time=60 actual_time=38700
type=note_on channel=3 note=59 velocity=0 time=36 actual_time=38736
type=note_on channel=3 note=62 velocity=80 time=24 actual_time=38760
type=note_on channel=3 note=62 velocity=0 time=192 actual_time=38952
type=note_on channel=3 note=59 velocity=80 time=48 actual_time=39000
type=note_on channel=3 note=59 velocity=0 time=96 actual_time=39096
type=note_on channel=3 note=54 velocity=80 time=24 actual_time=39120
type=note_on channel=3 note=54 velocity=0 time=96 actual_time=39216
type=note_on channel=3 note=55 velocity=80 time=24 actual_time=39240
type=note_on channel=3 note=55 velocity=0 time=96 actual_time=39336
type=note_on channel=3 note=43 velocity=80 time=24 actual_time=39360
type=note_on channel=3 note=43 velocity=0 time=96 actual_time=39456
type=note_on channel=3 note=47 velocity=80 time=24 actual_time=39480
type=note_on channel=3 note=47 velocity=0 time=96 actual_time=39576
type=note_on channel=3 note=50 velocity=80 time=24 actual_time=39600
type=note_on channel=3 note=50 velocity=0 time=96 actual_time=39696
type=note_on channel=3 note=55 velocity=80 time=24 actual_time=39720
type=note_on channel=3 note=55 velocity=0 time=96 actual_time=39816
type=note_on channel=3 note=45 velocity=80 time=24 actual_time=39840
type=note_on channel=3 note=45 velocity=0 time=96 actual_time=39936
type=note_on channel=3 note=52 velocity=80 time=24 actual_time=39960
type=note_on channel=3 note=52 velocity=0 time=96 actual_time=40056
type=note_on channel=3 note=57 velocity=80 time=24 actual_time=40080
type=note_on channel=3 note=57 velocity=0 time=96 actual_time=40176
type=note_on channel=3 note=59 velocity=80 time=24 actual_time=40200
type=note_on channel=3 note=59 velocity=0 time=96 actual_time=40296
type=control_change channel=3 control=64 value=127 time=24 actual_time=40320
type=note_on channel=3 note=47 velocity=81 time=0 actual_time=40320
type=note_on channel=3 note=54 velocity=80 time=120 actual_time=40440
type=note_on channel=3 note=54 velocity=0 time=96 actual_time=40536
type=note_on channel=3 note=59 velocity=80 time=24 actual_time=40560
type=note_on channel=3 note=47 velocity=0 time=60 actual_time=40620
type=note_on channel=3 note=59 velocity=0 time=36 actual_time=40656
type=note_on channel=3 note=62 velocity=80 time=24 actual_time=40680
type=note_on channel=3 note=62 velocity=0 time=192 actual_time=40872
type=note_on channel=3 note=59 velocity=80 time=48 actual_time=40920
type=note_on channel=3 note=59 velocity=0 time=96 actual_time=41016
type=note_on channel=3 note=54 velocity=80 time=24 actual_time=41040
type=note_on channel=3 note=54 velocity=0 time=96 actual_time=41136
type=note_on channel=3 note=55 velocity=80 time=24 actual_time=41160
type=note_on channel=3 note=55 velocity=0 time=96 actual_time=41256
type=note_on channel=3 note=43 velocity=80 time=24 actual_time=41280
type=note_on channel=3 note=43 velocity=0 time=96 actual_time=41376
type=note_on channel=3 note=47 velocity=80 time=24 actual_time=41400
type=note_on channel=3 note=47 velocity=0 time=96 actual_time=41496
type=note_on channel=3 note=50 velocity=80 time=24 actual_time=41520
type=note_on channel=3 note=50 velocity=0 time=96 actual_time=41616
type=note_on channel=3 note=55 velocity=80 time=24 actual_time=41640
type=note_on channel=3 note=55 velocity=0 time=96 actual_time=41736
type=note_on channel=3 note=45 velocity=80 time=24 actual_time=41760
type=note_on channel=3 note=45 velocity=0 time=96 actual_time=41856
type=note_on channel=3 note=52 velocity=80 time=24 actual_time=41880
type=note_on channel=3 note=52 velocity=0 time=96 actual_time=41976
type=note_on channel=3 note=57 velocity=80 time=24 actual_time=42000
type=note_on channel=3 note=57 velocity=0 time=96 actual_time=42096
type=note_on channel=3 note=59 velocity=80 time=24 actual_time=42120
type=note_on channel=3 note=59 velocity=0 time=96 actual_time=42216
type=note_on channel=3 note=47 velocity=81 time=24 actual_time=42240
type=control_change channel=3 control=64 value=127 time=0 actual_time=42240
type=note_on channel=3 note=54 velocity=80 time=120 actual_time=42360
type=note_on channel=3 note=54 velocity=0 time=96 actual_time=42456
type=note_on channel=3 note=59 velocity=80 time=24 actual_time=42480
type=note_on channel=3 note=47 velocity=0 time=60 actual_time=42540
type=note_on channel=3 note=59 velocity=0 time=36 actual_time=42576
type=note_on channel=3 note=62 velocity=80 time=24 actual_time=42600
type=note_on channel=3 note=62 velocity=0 time=192 actual_time=42792
type=note_on channel=3 note=59 velocity=80 time=48 actual_time=42840
type=note_on channel=3 note=59 velocity=0 time=96 actual_time=42936
type=note_on channel=3 note=54 velocity=80 time=24 actual_time=42960
type=note_on channel=3 note=54 velocity=0 time=96 actual_time=43056
type=note_on channel=3 note=55 velocity=80 time=24 actual_time=43080
type=note_on channel=3 note=55 velocity=0 time=96 actual_time=43176
type=note_on channel=3 note=43 velocity=80 time=24 actual_time=43200
type=note_on channel=3 note=43 velocity=0 time=96 actual_time=43296
type=note_on channel=3 note=47 velocity=80 time=24 actual_time=43320
type=note_on channel=3 note=47 velocity=0 time=96 actual_time=43416
type=note_on channel=3 note=50 velocity=80 time=24 actual_time=43440
type=note_on channel=3 note=50 velocity=0 time=96 actual_time=43536
type=note_on channel=3 note=55 velocity=80 time=24 actual_time=43560
type=note_on channel=3 note=55 velocity=0 time=96 actual_time=43656
type=note_on channel=3 note=45 velocity=80 time=24 actual_time=43680
type=note_on channel=3 note=45 velocity=0 time=96 actual_time=43776
type=note_on channel=3 note=52 velocity=80 time=24 actual_time=43800
type=note_on channel=3 note=52 velocity=0 time=96 actual_time=43896
type=note_on channel=3 note=57 velocity=80 time=24 actual_time=43920
type=note_on channel=3 note=57 velocity=0 time=96 actual_time=44016
type=note_on channel=3 note=59 velocity=80 time=24 actual_time=44040
type=note_on channel=3 note=59 velocity=0 time=96 actual_time=44136
type=control_change channel=3 control=64 value=127 time=24 actual_time=44160
type=note_on channel=3 note=47 velocity=81 time=0 actual_time=44160
type=note_on channel=3 note=54 velocity=80 time=120 actual_time=44280
type=note_on channel=3 note=54 velocity=0 time=96 actual_time=44376
type=note_on channel=3 note=59 velocity=80 time=24 actual_time=44400
type=note_on channel=3 note=47 velocity=0 time=60 actual_time=44460
type=note_on channel=3 note=59 velocity=0 time=36 actual_time=44496
type=note_on channel=3 note=62 velocity=80 time=24 actual_time=44520
type=note_on channel=3 note=62 velocity=0 time=192 actual_time=44712
type=note_on channel=3 note=59 velocity=80 time=48 actual_time=44760
type=note_on channel=3 note=59 velocity=0 time=96 actual_time=44856
type=note_on channel=3 note=54 velocity=80 time=24 actual_time=44880
type=note_on channel=3 note=54 velocity=0 time=96 actual_time=44976
type=note_on channel=3 note=55 velocity=80 time=24 actual_time=45000
type=note_on channel=3 note=55 velocity=0 time=96 actual_time=45096
type=note_on channel=3 note=43 velocity=80 time=24 actual_time=45120
type=note_on channel=3 note=43 velocity=0 time=96 actual_time=45216
type=note_on channel=3 note=47 velocity=80 time=24 actual_time=45240
type=note_on channel=3 note=47 velocity=0 time=96 actual_time=45336
type=note_on channel=3 note=50 velocity=80 time=24 actual_time=45360
type=note_on channel=3 note=50 velocity=0 time=96 actual_time=45456
type=note_on channel=3 note=55 velocity=80 time=24 actual_time=45480
type=note_on channel=3 note=55 velocity=0 time=96 actual_time=45576
type=note_on channel=3 note=45 velocity=80 time=24 actual_time=45600
type=note_on channel=3 note=45 velocity=0 time=96 actual_time=45696
type=note_on channel=3 note=64 velocity=80 time=24 actual_time=45720
type=note_on channel=3 note=64 velocity=0 time=96 actual_time=45816
type=note_on channel=3 note=59 velocity=80 time=24 actual_time=45840
type=note_on channel=3 note=59 velocity=0 time=96 actual_time=45936
type=note_on channel=3 note=57 velocity=80 time=24 actual_time=45960
type=note_on channel=3 note=57 velocity=0 time=96 actual_time=46056
type=note_on channel=3 note=59 velocity=80 time=15384 actual_time=61440
type=note_on channel=3 note=59 velocity=0 time=96 actual_time=61536
type=note_on channel=3 note=61 velocity=80 time=24 actual_time=61560
type=note_on channel=3 note=61 velocity=0 time=192 actual_time=61752
type=note_on channel=3 note=62 velocity=80 time=48 actual_time=61800
type=note_on channel=3 note=62 velocity=0 time=192 actual_time=61992
type=note_on channel=3 note=61 velocity=80 time=48 actual_time=62040
type=note_on channel=3 note=61 velocity=0 time=192 actual_time=62232
type=note_on channel=3 note=62 velocity=80 time=48 actual_time=62280
type=note_on channel=3 note=62 velocity=0 time=216 actual_time=62496
type=note_on channel=3 note=64 velocity=80 time=24 actual_time=62520
type=note_on channel=3 note=64 velocity=0 time=192 actual_time=62712
type=note_on channel=3 note=69 velocity=80 time=48 actual_time=62760
type=note_on channel=3 note=69 velocity=0 time=192 actual_time=62952
type=note_on channel=3 note=62 velocity=80 time=48 actual_time=63000
type=note_on channel=3 note=62 velocity=0 time=96 actual_time=63096
type=note_on channel=3 note=62 velocity=80 time=24 actual_time=63120
type=note_on channel=3 note=62 velocity=0 time=96 actual_time=63216
type=note_on channel=3 note=57 velocity=80 time=24 actual_time=63240
type=note_on channel=3 note=57 velocity=0 time=96 actual_time=63336
type=note_on channel=3 note=59 velocity=80 time=24 actual_time=63360
type=note_on channel=3 note=59 velocity=0 time=96 actual_time=63456
type=note_on channel=3 note=62 velocity=80 time=24 actual_time=63480
type=note_on channel=3 note=62 velocity=0 time=96 actual_time=63576
type=note_on channel=3 note=59 velocity=80 time=24 actual_time=63600
type=note_on channel=3 note=59 velocity=0 time=96 actual_time=63696
type=note_on channel=3 note=62 velocity=80 time=24 actual_time=63720
type=note_on channel=3 note=62 velocity=0 time=192 actual_time=63912
type=note_on channel=3 note=61 velocity=80 time=48 actual_time=63960
type=note_on channel=3 note=61 velocity=0 time=96 actual_time=64056
type=note_on channel=3 note=64 velocity=80 time=24 actual_time=64080
type=note_on channel=3 note=64 velocity=0 time=96 actual_time=64176
type=note_on channel=3 note=69 velocity=80 time=24 actual_time=64200
type=note_on channel=3 note=69 velocity=0 time=216 actual_time=64416
type=note_on channel=3 note=64 velocity=80 time=24 actual_time=64440
type=note_on channel=3 note=64 velocity=0 time=96 actual_time=64536
type=note_on channel=3 note=69 velocity=80 time=24 actual_time=64560
type=note_on channel=3 note=69 velocity=0 time=96 actual_time=64656
type=note_on channel=3 note=57 velocity=80 time=24 actual_time=64680
type=note_on channel=3 note=57 velocity=0 time=192 actual_time=64872
type=note_on channel=3 note=59 velocity=80 time=48 actual_time=64920
type=note_on channel=3 note=59 velocity=0 time=96 actual_time=65016
type=note_on channel=3 note=64 velocity=80 time=24 actual_time=65040
type=note_on channel=3 note=64 velocity=0 time=96 actual_time=65136
type=note_on channel=3 note=57 velocity=80 time=24 actual_time=65160
type=note_on channel=3 note=57 velocity=0 time=96 actual_time=65256
type=note_on channel=3 note=59 velocity=80 time=24 actual_time=65280
type=note_on channel=3 note=59 velocity=0 time=96 actual_time=65376
type=note_on channel=3 note=66 velocity=80 time=24 actual_time=65400
type=note_on channel=3 note=66 velocity=0 time=192 actual_time=65592
type=note_on channel=3 note=61 velocity=80 time=48 actual_time=65640
type=note_on channel=3 note=61 velocity=0 time=192 actual_time=65832
type=note_on channel=3 note=59 velocity=80 time=48 actual_time=65880
type=note_on channel=3 note=59 velocity=0 time=192 actual_time=66072
type=note_on channel=3 note=64 velocity=80 time=48 actual_time=66120
type=note_on channel=3 note=64 velocity=0 time=216 actual_time=66336
type=note_on channel=3 note=64 velocity=80 time=24 actual_time=66360
type=note_on channel=3 note=64 velocity=0 time=96 actual_time=66456
type=note_on channel=3 note=69 velocity=80 time=24 actual_time=66480
type=note_on channel=3 note=69 velocity=0 time=96 actual_time=66576
type=note_on channel=3 note=64 velocity=80 time=24 actual_time=66600
type=note_on channel=3 note=64 velocity=0 time=192 actual_time=66792
type=note_on channel=3 note=62 velocity=80 time=48 actual_time=66840
type=note_on channel=3 note=62 velocity=0 time=96 actual_time=66936
type=note_on channel=3 note=67 velocity=80 time=24 actual_time=66960
type=note_on channel=3 note=67 velocity=0 time=96 actual_time=67056
type=note_on channel=3 note=59 velocity=80 time=24 actual_time=67080
type=note_on channel=3 note=59 velocity=0 time=216 actual_time=67296
type=note_on channel=3 note=62 velocity=80 time=24 actual_time=67320
type=note_on channel=3 note=62 velocity=0 time=96 actual_time=67416
type=note_on channel=3 note=59 velocity=80 time=24 actual_time=67440
type=note_on channel=3 note=59 velocity=0 time=96 actual_time=67536
type=note_on channel=3 note=62 velocity=80 time=24 actual_time=67560
type=note_on channel=3 note=62 velocity=0 time=192 actual_time=67752
type=note_on channel=3 note=61 velocity=80 time=48 actual_time=67800
type=note_on channel=3 note=61 velocity=0 time=96 actual_time=67896
type=note_on channel=3 note=69 velocity=80 time=24 actual_time=67920
type=note_on channel=3 note=69 velocity=0 time=96 actual_time=68016
type=note_on channel=3 note=66 velocity=80 time=24 actual_time=68040
type=note_on channel=3 note=66 velocity=0 time=216 actual_time=68256
type=note_on channel=3 note=66 velocity=80 time=24 actual_time=68280
type=note_on channel=3 note=66 velocity=0 time=96 actual_time=68376
type=note_on channel=3 note=69 velocity=80 time=24 actual_time=68400
type=note_on channel=3 note=69 velocity=0 time=96 actual_time=68496
type=note_on channel=3 note=64 velocity=80 time=24 actual_time=68520
type=note_on channel=3 note=64 velocity=0 time=192 actual_time=68712
type=note_on channel=3 note=62 velocity=80 time=48 actual_time=68760
type=note_on channel=3 note=62 velocity=0 time=96 actual_time=68856
type=note_on channel=3 note=67 velocity=80 time=24 actual_time=68880
type=note_on channel=3 note=67 velocity=0 time=96 actual_time=68976
type=note_on channel=3 note=59 velocity=80 time=24 actual_time=69000
type=note_on channel=3 note=59 velocity=0 time=216 actual_time=69216
type=note_on channel=3 note=66 velocity=80 time=24 actual_time=69240
type=note_on channel=3 note=66 velocity=0 time=192 actual_time=69432
type=note_on channel=3 note=61 velocity=80 time=48 actual_time=69480
type=note_on channel=3 note=61 velocity=0 time=192 actual_time=69672
type=note_on channel=3 note=59 velocity=80 time=48 actual_time=69720
type=note_on channel=3 note=59 velocity=0 time=192 actual_time=69912
type=note_on channel=3 note=64 velocity=80 time=48 actual_time=69960
type=note_on channel=3 note=64 velocity=0 time=216 actual_time=70176
type=note_on channel=3 note=64 velocity=80 time=24 actual_time=70200
type=note_on channel=3 note=64 velocity=0 time=96 actual_time=70296
type=note_on channel=3 note=69 velocity=80 time=24 actual_time=70320
type=note_on channel=3 note=69 velocity=0 time=96 actual_time=70416
type=note_on channel=3 note=64 velocity=80 time=24 actual_time=70440
type=note_on channel=3 note=64 velocity=0 time=192 actual_time=70632
type=note_on channel=3 note=62 velocity=80 time=48 actual_time=70680
type=note_on channel=3 note=62 velocity=0 time=96 actual_time=70776
type=note_on channel=3 note=67 velocity=80 time=24 actual_time=70800
type=note_on channel=3 note=67 velocity=0 time=96 actual_time=70896
type=note_on channel=3 note=59 velocity=80 time=24 actual_time=70920
type=note_on channel=3 note=59 velocity=0 time=216 actual_time=71136
type=note_on channel=3 note=62 velocity=80 time=24 actual_time=71160
type=note_on channel=3 note=62 velocity=0 time=96 actual_time=71256
type=note_on channel=3 note=59 velocity=80 time=24 actual_time=71280
type=note_on channel=3 note=59 velocity=0 time=96 actual_time=71376
type=note_on channel=3 note=62 velocity=80 time=24 actual_time=71400
type=note_on channel=3 note=62 velocity=0 time=192 actual_time=71592
type=note_on channel=3 note=61 velocity=80 time=48 actual_time=71640
type=note_on channel=3 note=61 velocity=0 time=96 actual_time=71736
type=note_on channel=3 note=69 velocity=80 time=24 actual_time=71760
type=note_on channel=3 note=69 velocity=0 time=96 actual_time=71856
type=note_on channel=3 note=66 velocity=80 time=24 actual_time=71880
type=note_on channel=3 note=66 velocity=0 time=216 actual_time=72096
type=note_on channel=3 note=66 velocity=80 time=24 actual_time=72120
type=note_on channel=3 note=66 velocity=0 time=96 actual_time=72216
type=note_on channel=3 note=69 velocity=80 time=24 actual_time=72240
type=note_on channel=3 note=69 velocity=0 time=96 actual_time=72336
type=note_on channel=3 note=64 velocity=80 time=24 actual_time=72360
type=note_on channel=3 note=64 velocity=0 time=192 actual_time=72552
type=note_on channel=3 note=62 velocity=80 time=48 actual_time=72600
type=note_on channel=3 note=62 velocity=0 time=96 actual_time=72696
type=note_on channel=3 note=67 velocity=80 time=24 actual_time=72720
type=note_on channel=3 note=67 velocity=0 time=96 actual_time=72816
type=note_on channel=3 note=59 velocity=80 time=24 actual_time=72840
type=note_on channel=3 note=59 velocity=0 time=96 actual_time=72936
type=note_on channel=3 note=47 velocity=60 time=15864 actual_time=88800
type=note_on channel=3 note=47 velocity=0 time=96 actual_time=88896
type=note_on channel=3 note=50 velocity=60 time=24 actual_time=88920
type=note_on channel=3 note=50 velocity=0 time=96 actual_time=89016
type=note_on channel=3 note=57 velocity=60 time=24 actual_time=89040
type=note_on channel=3 note=57 velocity=0 time=96 actual_time=89136
type=note_on channel=3 note=50 velocity=60 time=24 actual_time=89160
type=note_on channel=3 note=50 velocity=0 time=216 actual_time=89376
type=note_on channel=3 note=52 velocity=60 time=24 actual_time=89400
type=note_on channel=3 note=52 velocity=0 time=96 actual_time=89496
type=note_on channel=3 note=50 velocity=60 time=24 actual_time=89520
type=note_on channel=3 note=50 velocity=0 time=96 actual_time=89616
type=note_on channel=3 note=57 velocity=60 time=24 actual_time=89640
type=note_on channel=3 note=57 velocity=0 time=576 actual_time=90216
MetaMessage type: end_of_track, time: 0, actual_time: 90216
MetaMessage type: track_name, time: 0, actual_time: 0
type: program_change, time: 0, actual_time: 0
type=control_change channel=4 control=7 value=109 time=0 actual_time=0
type=note_on channel=4 note=59 velocity=80 time=15360 actual_time=15360
type=note_on channel=4 note=54 velocity=80 time=0 actual_time=15360
type=note_on channel=4 note=47 velocity=80 time=0 actual_time=15360
type=note_on channel=4 note=47 velocity=0 time=3648 actual_time=19008
type=note_on channel=4 note=54 velocity=0 time=0 actual_time=19008
type=note_on channel=4 note=59 velocity=0 time=0 actual_time=19008
type=note_on channel=4 note=47 velocity=80 time=7392 actual_time=26400
type=note_on channel=4 note=47 velocity=0 time=32 actual_time=26432
type=note_on channel=4 note=47 velocity=80 time=8 actual_time=26440
type=note_on channel=4 note=47 velocity=0 time=32 actual_time=26472
type=note_on channel=4 note=47 velocity=80 time=8 actual_time=26480
type=note_on channel=4 note=47 velocity=0 time=32 actual_time=26512
type=note_on channel=4 note=49 velocity=80 time=8 actual_time=26520
type=note_on channel=4 note=49 velocity=0 time=32 actual_time=26552
type=note_on channel=4 note=49 velocity=80 time=8 actual_time=26560
type=note_on channel=4 note=49 velocity=0 time=32 actual_time=26592
type=note_on channel=4 note=49 velocity=80 time=8 actual_time=26600
type=note_on channel=4 note=49 velocity=0 time=32 actual_time=26632
type=note_on channel=4 note=52 velocity=80 time=8 actual_time=26640
type=note_on channel=4 note=52 velocity=0 time=32 actual_time=26672
type=note_on channel=4 note=52 velocity=80 time=8 actual_time=26680
type=note_on channel=4 note=52 velocity=0 time=32 actual_time=26712
type=note_on channel=4 note=52 velocity=80 time=8 actual_time=26720
type=note_on channel=4 note=52 velocity=0 time=32 actual_time=26752
type=note_on channel=4 note=45 velocity=80 time=8 actual_time=26760
type=note_on channel=4 note=45 velocity=0 time=32 actual_time=26792
type=note_on channel=4 note=45 velocity=80 time=8 actual_time=26800
type=note_on channel=4 note=45 velocity=0 time=32 actual_time=26832
type=note_on channel=4 note=45 velocity=80 time=8 actual_time=26840
type=note_on channel=4 note=45 velocity=0 time=32 actual_time=26872
type=note_on channel=4 note=47 velocity=80 time=8 actual_time=26880
type=note_on channel=4 note=59 velocity=80 time=0 actual_time=26880
type=note_on channel=4 note=54 velocity=80 time=0 actual_time=26880
type=note_on channel=4 note=54 velocity=0 time=96 actual_time=26976
type=note_on channel=4 note=59 velocity=0 time=0 actual_time=26976
type=note_on channel=4 note=47 velocity=0 time=0 actual_time=26976
type=note_on channel=4 note=47 velocity=80 time=24 actual_time=27000
type=note_on channel=4 note=54 velocity=80 time=0 actual_time=27000
type=note_on channel=4 note=54 velocity=0 time=48 actual_time=27048
type=note_on channel=4 note=47 velocity=0 time=0 actual_time=27048
type=note_on channel=4 note=47 velocity=80 time=12 actual_time=27060
type=note_on channel=4 note=54 velocity=80 time=0 actual_time=27060
type=note_on channel=4 note=54 velocity=0 time=48 actual_time=27108
type=note_on channel=4 note=47 velocity=0 time=0 actual_time=27108
type=note_on channel=4 note=54 velocity=80 time=12 actual_time=27120
type=note_on channel=4 note=59 velocity=80 time=0 actual_time=27120
type=note_on channel=4 note=47 velocity=80 time=0 actual_time=27120
type=note_on channel=4 note=47 velocity=0 time=96 actual_time=27216
type=note_on channel=4 note=59 velocity=0 time=0 actual_time=27216
type=note_on channel=4 note=54 velocity=0 time=0 actual_time=27216
type=note_on channel=4 note=54 velocity=80 time=24 actual_time=27240
type=note_on channel=4 note=47 velocity=80 time=0 actual_time=27240
type=note_on channel=4 note=47 velocity=0 time=48 actual_time=27288
type=note_on channel=4 note=54 velocity=0 time=0 actual_time=27288
type=note_on channel=4 note=47 velocity=80 time=12 actual_time=27300
type=note_on channel=4 note=54 velocity=80 time=0 actual_time=27300
type=note_on channel=4 note=54 velocity=0 time=48 actual_time=27348
type=note_on channel=4 note=47 velocity=0 time=0 actual_time=27348
type=note_on channel=4 note=47 velocity=80 time=12 actual_time=27360
type=note_on channel=4 note=59 velocity=80 time=0 actual_time=27360
type=note_on channel=4 note=54 velocity=80 time=0 actual_time=27360
type=note_on channel=4 note=54 velocity=0 time=96 actual_time=27456
type=note_on channel=4 note=59 velocity=0 time=0 actual_time=27456
type=note_on channel=4 note=47 velocity=0 time=0 actual_time=27456
type=note_on channel=4 note=47 velocity=80 time=24 actual_time=27480
type=note_on channel=4 note=54 velocity=80 time=0 actual_time=27480
type=note_on channel=4 note=54 velocity=0 time=48 actual_time=27528
type=note_on channel=4 note=47 velocity=0 time=0 actual_time=27528
type=note_on channel=4 note=47 velocity=80 time=12 actual_time=27540
type=note_on channel=4 note=54 velocity=80 time=0 actual_time=27540
type=note_on channel=4 note=54 velocity=0 time=48 actual_time=27588
type=note_on channel=4 note=47 velocity=0 time=0 actual_time=27588
type=note_on channel=4 note=47 velocity=80 time=12 actual_time=27600
type=note_on channel=4 note=59 velocity=80 time=0 actual_time=27600
type=note_on channel=4 note=54 velocity=80 time=0 actual_time=27600
type=note_on channel=4 note=54 velocity=0 time=96 actual_time=27696
type=note_on channel=4 note=59 velocity=0 time=0 actual_time=27696
type=note_on channel=4 note=47 velocity=0 time=0 actual_time=27696
type=note_on channel=4 note=47 velocity=80 time=24 actual_time=27720
type=note_on channel=4 note=54 velocity=80 time=0 actual_time=27720
type=note_on channel=4 note=54 velocity=0 time=48 actual_time=27768
type=note_on channel=4 note=47 velocity=0 time=0 actual_time=27768
type=note_on channel=4 note=54 velocity=80 time=12 actual_time=27780
type=note_on channel=4 note=47 velocity=80 time=0 actual_time=27780
type=note_on channel=4 note=47 velocity=0 time=48 actual_time=27828
type=note_on channel=4 note=54 velocity=0 time=0 actual_time=27828
type=note_on channel=4 note=50 velocity=80 time=12 actual_time=27840
type=note_on channel=4 note=55 velocity=80 time=0 actual_time=27840
type=note_on channel=4 note=43 velocity=80 time=0 actual_time=27840
type=note_on channel=4 note=43 velocity=0 time=96 actual_time=27936
type=note_on channel=4 note=55 velocity=0 time=0 actual_time=27936
type=note_on channel=4 note=50 velocity=0 time=0 actual_time=27936
type=note_on channel=4 note=50 velocity=80 time=24 actual_time=27960
type=note_on channel=4 note=43 velocity=80 time=0 actual_time=27960
type=note_on channel=4 note=43 velocity=0 time=48 actual_time=28008
type=note_on channel=4 note=50 velocity=0 time=0 actual_time=28008
type=note_on channel=4 note=50 velocity=80 time=12 actual_time=28020
type=note_on channel=4 note=43 velocity=80 time=0 actual_time=28020
type=note_on channel=4 note=43 velocity=0 time=48 actual_time=28068
type=note_on channel=4 note=50 velocity=0 time=0 actual_time=28068
type=note_on channel=4 note=55 velocity=80 time=12 actual_time=28080
type=note_on channel=4 note=43 velocity=80 time=0 actual_time=28080
type=note_on channel=4 note=50 velocity=80 time=0 actual_time=28080
type=note_on channel=4 note=50 velocity=0 time=96 actual_time=28176
type=note_on channel=4 note=43 velocity=0 time=0 actual_time=28176
type=note_on channel=4 note=55 velocity=0 time=0 actual_time=28176
type=note_on channel=4 note=43 velocity=80 time=24 actual_time=28200
type=note_on channel=4 note=50 velocity=80 time=0 actual_time=28200
type=note_on channel=4 note=50 velocity=0 time=48 actual_time=28248
type=note_on channel=4 note=43 velocity=0 time=0 actual_time=28248
type=note_on channel=4 note=43 velocity=80 time=12 actual_time=28260
type=note_on channel=4 note=50 velocity=80 time=0 actual_time=28260
type=note_on channel=4 note=50 velocity=0 time=48 actual_time=28308
type=note_on channel=4 note=43 velocity=0 time=0 actual_time=28308
type=note_on channel=4 note=52 velocity=80 time=12 actual_time=28320
type=note_on channel=4 note=45 velocity=80 time=0 actual_time=28320
type=note_on channel=4 note=57 velocity=80 time=0 actual_time=28320
type=note_on channel=4 note=57 velocity=0 time=96 actual_time=28416
type=note_on channel=4 note=45 velocity=0 time=0 actual_time=28416
type=note_on channel=4 note=52 velocity=0 time=0 actual_time=28416
type=note_on channel=4 note=45 velocity=80 time=24 actual_time=28440
type=note_on channel=4 note=52 velocity=80 time=0 actual_time=28440
type=note_on channel=4 note=52 velocity=0 time=48 actual_time=28488
type=note_on channel=4 note=45 velocity=0 time=0 actual_time=28488
type=note_on channel=4 note=45 velocity=80 time=12 actual_time=28500
type=note_on channel=4 note=52 velocity=80 time=0 actual_time=28500
type=note_on channel=4 note=52 velocity=0 time=48 actual_time=28548
type=note_on channel=4 note=45 velocity=0 time=0 actual_time=28548
type=note_on channel=4 note=45 velocity=80 time=12 actual_time=28560
type=note_on channel=4 note=57 velocity=80 time=0 actual_time=28560
type=note_on channel=4 note=52 velocity=80 time=0 actual_time=28560
type=note_on channel=4 note=52 velocity=0 time=96 actual_time=28656
type=note_on channel=4 note=57 velocity=0 time=0 actual_time=28656
type=note_on channel=4 note=45 velocity=0 time=0 actual_time=28656
type=note_on channel=4 note=45 velocity=80 time=24 actual_time=28680
type=note_on channel=4 note=52 velocity=80 time=0 actual_time=28680
type=note_on channel=4 note=52 velocity=0 time=48 actual_time=28728
type=note_on channel=4 note=45 velocity=0 time=0 actual_time=28728
type=note_on channel=4 note=52 velocity=80 time=12 actual_time=28740
type=note_on channel=4 note=45 velocity=80 time=0 actual_time=28740
type=note_on channel=4 note=45 velocity=0 time=48 actual_time=28788
type=note_on channel=4 note=52 velocity=0 time=0 actual_time=28788
type=note_on channel=4 note=54 velocity=80 time=12 actual_time=28800
type=note_on channel=4 note=59 velocity=80 time=0 actual_time=28800
type=note_on channel=4 note=47 velocity=80 time=0 actual_time=28800
type=note_on channel=4 note=47 velocity=0 time=96 actual_time=28896
type=note_on channel=4 note=59 velocity=0 time=0 actual_time=28896
type=note_on channel=4 note=54 velocity=0 time=0 actual_time=28896
type=note_on channel=4 note=59 velocity=80 time=24 actual_time=28920
type=note_on channel=4 note=54 velocity=80 time=0 actual_time=28920
type=note_on channel=4 note=47 velocity=80 time=0 actual_time=28920
type=note_on channel=4 note=47 velocity=0 time=48 actual_time=28968
type=note_on channel=4 note=54 velocity=0 time=0 actual_time=28968
type=note_on channel=4 note=59 velocity=0 time=0 actual_time=28968
type=note_on channel=4 note=54 velocity=80 time=12 actual_time=28980
type=note_on channel=4 note=59 velocity=80 time=0 actual_time=28980
type=note_on channel=4 note=47 velocity=80 time=0 actual_time=28980
type=note_on channel=4 note=47 velocity=0 time=48 actual_time=29028
type=note_on channel=4 note=59 velocity=0 time=0 actual_time=29028
type=note_on channel=4 note=54 velocity=0 time=0 actual_time=29028
type=note_on channel=4 note=47 velocity=80 time=12 actual_time=29040
type=note_on channel=4 note=59 velocity=80 time=0 actual_time=29040
type=note_on channel=4 note=54 velocity=80 time=0 actual_time=29040
type=note_on channel=4 note=54 velocity=0 time=96 actual_time=29136
type=note_on channel=4 note=59 velocity=0 time=0 actual_time=29136
type=note_on channel=4 note=47 velocity=0 time=0 actual_time=29136
type=note_on channel=4 note=47 velocity=80 time=24 actual_time=29160
type=note_on channel=4 note=54 velocity=80 time=0 actual_time=29160
type=note_on channel=4 note=59 velocity=80 time=0 actual_time=29160
type=note_on channel=4 note=59 velocity=0 time=48 actual_time=29208
type=note_on channel=4 note=54 velocity=0 time=0 actual_time=29208
type=note_on channel=4 note=47 velocity=0 time=0 actual_time=29208
type=note_on channel=4 note=47 velocity=80 time=12 actual_time=29220
type=note_on channel=4 note=59 velocity=80 time=0 actual_time=29220
type=note_on channel=4 note=54 velocity=80 time=0 actual_time=29220
type=note_on channel=4 note=54 velocity=0 time=48 actual_time=29268
type=note_on channel=4 note=59 velocity=0 time=0 actual_time=29268
type=note_on channel=4 note=47 velocity=0 time=0 actual_time=29268
type=note_on channel=4 note=47 velocity=80 time=12 actual_time=29280
type=note_on channel=4 note=59 velocity=80 time=0 actual_time=29280
type=note_on channel=4 note=54 velocity=80 time=0 actual_time=29280
type=note_on channel=4 note=54 velocity=0 time=96 actual_time=29376
type=note_on channel=4 note=59 velocity=0 time=0 actual_time=29376
type=note_on channel=4 note=47 velocity=0 time=0 actual_time=29376
type=note_on channel=4 note=47 velocity=80 time=24 actual_time=29400
type=note_on channel=4 note=54 velocity=80 time=0 actual_time=29400
type=note_on channel=4 note=59 velocity=80 time=0 actual_time=29400
type=note_on channel=4 note=59 velocity=0 time=48 actual_time=29448
type=note_on channel=4 note=54 velocity=0 time=0 actual_time=29448
type=note_on channel=4 note=47 velocity=0 time=0 actual_time=29448
type=note_on channel=4 note=47 velocity=80 time=12 actual_time=29460
type=note_on channel=4 note=59 velocity=80 time=0 actual_time=29460
type=note_on channel=4 note=54 velocity=80 time=0 actual_time=29460
type=note_on channel=4 note=54 velocity=0 time=48 actual_time=29508
type=note_on channel=4 note=59 velocity=0 time=0 actual_time=29508
type=note_on channel=4 note=47 velocity=0 time=0 actual_time=29508
type=note_on channel=4 note=47 velocity=80 time=12 actual_time=29520
type=note_on channel=4 note=59 velocity=80 time=0 actual_time=29520
type=note_on channel=4 note=54 velocity=80 time=0 actual_time=29520
type=note_on channel=4 note=54 velocity=0 time=96 actual_time=29616
type=note_on channel=4 note=59 velocity=0 time=0 actual_time=29616
type=note_on channel=4 note=47 velocity=0 time=0 actual_time=29616
type=note_on channel=4 note=47 velocity=80 time=24 actual_time=29640
type=note_on channel=4 note=54 velocity=80 time=0 actual_time=29640
type=note_on channel=4 note=59 velocity=80 time=0 actual_time=29640
type=note_on channel=4 note=59 velocity=0 time=48 actual_time=29688
type=note_on channel=4 note=54 velocity=0 time=0 actual_time=29688
type=note_on channel=4 note=47 velocity=0 time=0 actual_time=29688
type=note_on channel=4 note=47 velocity=80 time=12 actual_time=29700
type=note_on channel=4 note=59 velocity=80 time=0 actual_time=29700
type=note_on channel=4 note=54 velocity=80 time=0 actual_time=29700
type=note_on channel=4 note=54 velocity=0 time=48 actual_time=29748
type=note_on channel=4 note=59 velocity=0 time=0 actual_time=29748
type=note_on channel=4 note=47 velocity=0 time=0 actual_time=29748
type=note_on channel=4 note=40 velocity=80 time=12 actual_time=29760
type=note_on channel=4 note=52 velocity=80 time=0 actual_time=29760
type=note_on channel=4 note=47 velocity=80 time=0 actual_time=29760
type=note_on channel=4 note=47 velocity=0 time=96 actual_time=29856
type=note_on channel=4 note=52 velocity=0 time=0 actual_time=29856
type=note_on channel=4 note=40 velocity=0 time=0 actual_time=29856
type=note_on channel=4 note=40 velocity=80 time=24 actual_time=29880
type=note_on channel=4 note=47 velocity=80 time=0 actual_time=29880
type=note_on channel=4 note=52 velocity=80 time=0 actual_time=29880
type=note_on channel=4 note=52 velocity=0 time=48 actual_time=29928
type=note_on channel=4 note=47 velocity=0 time=0 actual_time=29928
type=note_on channel=4 note=40 velocity=0 time=0 actual_time=29928
type=note_on channel=4 note=40 velocity=80 time=12 actual_time=29940
type=note_on channel=4 note=52 velocity=80 time=0 actual_time=29940
type=note_on channel=4 note=47 velocity=80 time=0 actual_time=29940
type=note_on channel=4 note=47 velocity=0 time=48 actual_time=29988
type=note_on channel=4 note=52 velocity=0 time=0 actual_time=29988
type=note_on channel=4 note=40 velocity=0 time=0 actual_time=29988
type=note_on channel=4 note=40 velocity=80 time=12 actual_time=30000
type=note_on channel=4 note=52 velocity=80 time=0 actual_time=30000
type=note_on channel=4 note=47 velocity=80 time=0 actual_time=30000
type=note_on channel=4 note=47 velocity=0 time=96 actual_time=30096
type=note_on channel=4 note=52 velocity=0 time=0 actual_time=30096
type=note_on channel=4 note=40 velocity=0 time=0 actual_time=30096
type=note_on channel=4 note=40 velocity=80 time=24 actual_time=30120
type=note_on channel=4 note=47 velocity=80 time=0 actual_time=30120
type=note_on channel=4 note=52 velocity=80 time=0 actual_time=30120
type=note_on channel=4 note=52 velocity=0 time=48 actual_time=30168
type=note_on channel=4 note=47 velocity=0 time=0 actual_time=30168
type=note_on channel=4 note=40 velocity=0 time=0 actual_time=30168
type=note_on channel=4 note=40 velocity=80 time=12 actual_time=30180
type=note_on channel=4 note=52 velocity=80 time=0 actual_time=30180
type=note_on channel=4 note=47 velocity=80 time=0 actual_time=30180
type=note_on channel=4 note=47 velocity=0 time=48 actual_time=30228
type=note_on channel=4 note=52 velocity=0 time=0 actual_time=30228
type=note_on channel=4 note=40 velocity=0 time=0 actual_time=30228
type=note_on channel=4 note=42 velocity=80 time=12 actual_time=30240
type=note_on channel=4 note=54 velocity=80 time=0 actual_time=30240
type=note_on channel=4 note=49 velocity=80 time=0 actual_time=30240
type=note_on channel=4 note=49 velocity=0 time=96 actual_time=30336
type=note_on channel=4 note=54 velocity=0 time=0 actual_time=30336
type=note_on channel=4 note=42 velocity=0 time=0 actual_time=30336
type=note_on channel=4 note=42 velocity=80 time=24 actual_time=30360
type=note_on channel=4 note=49 velocity=80 time=0 actual_time=30360
type=note_on channel=4 note=54 velocity=80 time=0 actual_time=30360
type=note_on channel=4 note=54 velocity=0 time=48 actual_time=30408
type=note_on channel=4 note=49 velocity=0 time=0 actual_time=30408
type=note_on channel=4 note=42 velocity=0 time=0 actual_time=30408
type=note_on channel=4 note=42 velocity=80 time=12 actual_time=30420
type=note_on channel=4 note=54 velocity=80 time=0 actual_time=30420
type=note_on channel=4 note=49 velocity=80 time=0 actual_time=30420
type=note_on channel=4 note=49 velocity=0 time=48 actual_time=30468
type=note_on channel=4 note=54 velocity=0 time=0 actual_time=30468
type=note_on channel=4 note=42 velocity=0 time=0 actual_time=30468
type=note_on channel=4 note=42 velocity=80 time=12 actual_time=30480
type=note_on channel=4 note=54 velocity=80 time=0 actual_time=30480
type=note_on channel=4 note=49 velocity=80 time=0 actual_time=30480
type=note_on channel=4 note=49 velocity=0 time=96 actual_time=30576
type=note_on channel=4 note=54 velocity=0 time=0 actual_time=30576
type=note_on channel=4 note=42 velocity=0 time=0 actual_time=30576
type=note_on channel=4 note=42 velocity=80 time=24 actual_time=30600
type=note_on channel=4 note=49 velocity=80 time=0 actual_time=30600
type=note_on channel=4 note=54 velocity=80 time=0 actual_time=30600
type=note_on channel=4 note=54 velocity=0 time=48 actual_time=30648
type=note_on channel=4 note=49 velocity=0 time=0 actual_time=30648
type=note_on channel=4 note=42 velocity=0 time=0 actual_time=30648
type=note_on channel=4 note=42 velocity=80 time=12 actual_time=30660
type=note_on channel=4 note=54 velocity=80 time=0 actual_time=30660
type=note_on channel=4 note=49 velocity=80 time=0 actual_time=30660
type=note_on channel=4 note=49 velocity=0 time=48 actual_time=30708
type=note_on channel=4 note=54 velocity=0 time=0 actual_time=30708
type=note_on channel=4 note=42 velocity=0 time=0 actual_time=30708
type=note_on channel=4 note=47 velocity=80 time=12 actual_time=30720
type=note_on channel=4 note=59 velocity=80 time=0 actual_time=30720
type=note_on channel=4 note=54 velocity=80 time=0 actual_time=30720
type=note_on channel=4 note=54 velocity=0 time=96 actual_time=30816
type=note_on channel=4 note=59 velocity=0 time=0 actual_time=30816
type=note_on channel=4 note=47 velocity=0 time=0 actual_time=30816
type=note_on channel=4 note=47 velocity=80 time=24 actual_time=30840
type=note_on channel=4 note=54 velocity=80 time=0 actual_time=30840
type=note_on channel=4 note=54 velocity=0 time=48 actual_time=30888
type=note_on channel=4 note=47 velocity=0 time=0 actual_time=30888
type=note_on channel=4 note=47 velocity=80 time=12 actual_time=30900
type=note_on channel=4 note=54 velocity=80 time=0 actual_time=30900
type=note_on channel=4 note=54 velocity=0 time=48 actual_time=30948
type=note_on channel=4 note=47 velocity=0 time=0 actual_time=30948
type=note_on channel=4 note=54 velocity=80 time=12 actual_time=30960
type=note_on channel=4 note=59 velocity=80 time=0 actual_time=30960
type=note_on channel=4 note=47 velocity=80 time=0 actual_time=30960
type=note_on channel=4 note=47 velocity=0 time=96 actual_time=31056
type=note_on channel=4 note=59 velocity=0 time=0 actual_time=31056
type=note_on channel=4 note=54 velocity=0 time=0 actual_time=31056
type=note_on channel=4 note=54 velocity=80 time=24 actual_time=31080
type=note_on channel=4 note=47 velocity=80 time=0 actual_time=31080
type=note_on channel=4 note=47 velocity=0 time=48 actual_time=31128
type=note_on channel=4 note=54 velocity=0 time=0 actual_time=31128
type=note_on channel=4 note=54 velocity=80 time=12 actual_time=31140
type=note_on channel=4 note=47 velocity=80 time=0 actual_time=31140
type=note_on channel=4 note=47 velocity=0 time=48 actual_time=31188
type=note_on channel=4 note=54 velocity=0 time=0 actual_time=31188
type=note_on channel=4 note=54 velocity=80 time=12 actual_time=31200
type=note_on channel=4 note=59 velocity=80 time=0 actual_time=31200
type=note_on channel=4 note=47 velocity=80 time=0 actual_time=31200
type=note_on channel=4 note=47 velocity=0 time=96 actual_time=31296
type=note_on channel=4 note=59 velocity=0 time=0 actual_time=31296
type=note_on channel=4 note=54 velocity=0 time=0 actual_time=31296
type=note_on channel=4 note=54 velocity=80 time=24 actual_time=31320
type=note_on channel=4 note=47 velocity=80 time=0 actual_time=31320
type=note_on channel=4 note=47 velocity=0 time=48 actual_time=31368
type=note_on channel=4 note=54 velocity=0 time=0 actual_time=31368
type=note_on channel=4 note=54 velocity=80 time=12 actual_time=31380
type=note_on channel=4 note=47 velocity=80 time=0 actual_time=31380
type=note_on channel=4 note=47 velocity=0 time=48 actual_time=31428
type=note_on channel=4 note=54 velocity=0 time=0 actual_time=31428
type=note_on channel=4 note=54 velocity=80 time=12 actual_time=31440
type=note_on channel=4 note=59 velocity=80 time=0 actual_time=31440
type=note_on channel=4 note=47 velocity=80 time=0 actual_time=31440
type=note_on channel=4 note=47 velocity=0 time=96 actual_time=31536
type=note_on channel=4 note=59 velocity=0 time=0 actual_time=31536
type=note_on channel=4 note=54 velocity=0 time=0 actual_time=31536
type=note_on channel=4 note=54 velocity=80 time=24 actual_time=31560
type=note_on channel=4 note=47 velocity=80 time=0 actual_time=31560
type=note_on channel=4 note=47 velocity=0 time=48 actual_time=31608
type=note_on channel=4 note=54 velocity=0 time=0 actual_time=31608
type=note_on channel=4 note=54 velocity=80 time=12 actual_time=31620
type=note_on channel=4 note=47 velocity=80 time=0 actual_time=31620
type=note_on channel=4 note=47 velocity=0 time=48 actual_time=31668
type=note_on channel=4 note=54 velocity=0 time=0 actual_time=31668
type=note_on channel=4 note=50 velocity=80 time=12 actual_time=31680
type=note_on channel=4 note=55 velocity=80 time=0 actual_time=31680
type=note_on channel=4 note=43 velocity=80 time=0 actual_time=31680
type=note_on channel=4 note=43 velocity=0 time=96 actual_time=31776
type=note_on channel=4 note=55 velocity=0 time=0 actual_time=31776
type=note_on channel=4 note=50 velocity=0 time=0 actual_time=31776
type=note_on channel=4 note=50 velocity=80 time=24 actual_time=31800
type=note_on channel=4 note=43 velocity=80 time=0 actual_time=31800
type=note_on channel=4 note=43 velocity=0 time=48 actual_time=31848
type=note_on channel=4 note=50 velocity=0 time=0 actual_time=31848
type=note_on channel=4 note=50 velocity=80 time=12 actual_time=31860
type=note_on channel=4 note=43 velocity=80 time=0 actual_time=31860
type=note_on channel=4 note=43 velocity=0 time=48 actual_time=31908
type=note_on channel=4 note=50 velocity=0 time=0 actual_time=31908
type=note_on channel=4 note=50 velocity=80 time=12 actual_time=31920
type=note_on channel=4 note=55 velocity=80 time=0 actual_time=31920
type=note_on channel=4 note=43 velocity=80 time=0 actual_time=31920
type=note_on channel=4 note=43 velocity=0 time=96 actual_time=32016
type=note_on channel=4 note=55 velocity=0 time=0 actual_time=32016
type=note_on channel=4 note=50 velocity=0 time=0 actual_time=32016
type=note_on channel=4 note=50 velocity=80 time=24 actual_time=32040
type=note_on channel=4 note=43 velocity=80 time=0 actual_time=32040
type=note_on channel=4 note=43 velocity=0 time=48 actual_time=32088
type=note_on channel=4 note=50 velocity=0 time=0 actual_time=32088
type=note_on channel=4 note=50 velocity=80 time=12 actual_time=32100
type=note_on channel=4 note=43 velocity=80 time=0 actual_time=32100
type=note_on channel=4 note=43 velocity=0 time=48 actual_time=32148
type=note_on channel=4 note=50 velocity=0 time=0 actual_time=32148
type=note_on channel=4 note=52 velocity=80 time=12 actual_time=32160
type=note_on channel=4 note=57 velocity=80 time=0 actual_time=32160
type=note_on channel=4 note=45 velocity=80 time=0 actual_time=32160
type=note_on channel=4 note=45 velocity=0 time=96 actual_time=32256
type=note_on channel=4 note=57 velocity=0 time=0 actual_time=32256
type=note_on channel=4 note=52 velocity=0 time=0 actual_time=32256
type=note_on channel=4 note=52 velocity=80 time=24 actual_time=32280
type=note_on channel=4 note=45 velocity=80 time=0 actual_time=32280
type=note_on channel=4 note=45 velocity=0 time=48 actual_time=32328
type=note_on channel=4 note=52 velocity=0 time=0 actual_time=32328
type=note_on channel=4 note=52 velocity=80 time=12 actual_time=32340
type=note_on channel=4 note=45 velocity=80 time=0 actual_time=32340
type=note_on channel=4 note=45 velocity=0 time=48 actual_time=32388
type=note_on channel=4 note=52 velocity=0 time=0 actual_time=32388
type=note_on channel=4 note=52 velocity=80 time=12 actual_time=32400
type=note_on channel=4 note=57 velocity=80 time=0 actual_time=32400
type=note_on channel=4 note=45 velocity=80 time=0 actual_time=32400
type=note_on channel=4 note=45 velocity=0 time=96 actual_time=32496
type=note_on channel=4 note=57 velocity=0 time=0 actual_time=32496
type=note_on channel=4 note=52 velocity=0 time=0 actual_time=32496
type=note_on channel=4 note=52 velocity=80 time=24 actual_time=32520
type=note_on channel=4 note=45 velocity=80 time=0 actual_time=32520
type=note_on channel=4 note=45 velocity=0 time=48 actual_time=32568
type=note_on channel=4 note=52 velocity=0 time=0 actual_time=32568
type=note_on channel=4 note=52 velocity=80 time=12 actual_time=32580
type=note_on channel=4 note=45 velocity=80 time=0 actual_time=32580
type=note_on channel=4 note=45 velocity=0 time=48 actual_time=32628
type=note_on channel=4 note=52 velocity=0 time=0 actual_time=32628
type=note_on channel=4 note=47 velocity=80 time=12 actual_time=32640
type=note_on channel=4 note=59 velocity=80 time=0 actual_time=32640
type=note_on channel=4 note=54 velocity=80 time=0 actual_time=32640
type=note_on channel=4 note=54 velocity=0 time=96 actual_time=32736
type=note_on channel=4 note=59 velocity=0 time=0 actual_time=32736
type=note_on channel=4 note=47 velocity=0 time=0 actual_time=32736
type=note_on channel=4 note=47 velocity=80 time=24 actual_time=32760
type=note_on channel=4 note=54 velocity=80 time=0 actual_time=32760
type=note_on channel=4 note=54 velocity=0 time=48 actual_time=32808
type=note_on channel=4 note=47 velocity=0 time=0 actual_time=32808
type=note_on channel=4 note=47 velocity=80 time=12 actual_time=32820
type=note_on channel=4 note=54 velocity=80 time=0 actual_time=32820
type=note_on channel=4 note=54 velocity=0 time=48 actual_time=32868
type=note_on channel=4 note=47 velocity=0 time=0 actual_time=32868
type=note_on channel=4 note=54 velocity=80 time=12 actual_time=32880
type=note_on channel=4 note=59 velocity=80 time=0 actual_time=32880
type=note_on channel=4 note=47 velocity=80 time=0 actual_time=32880
type=note_on channel=4 note=47 velocity=0 time=96 actual_time=32976
type=note_on channel=4 note=59 velocity=0 time=0 actual_time=32976
type=note_on channel=4 note=54 velocity=0 time=0 actual_time=32976
type=note_on channel=4 note=54 velocity=80 time=24 actual_time=33000
type=note_on channel=4 note=47 velocity=80 time=0 actual_time=33000
type=note_on channel=4 note=47 velocity=0 time=48 actual_time=33048
type=note_on channel=4 note=54 velocity=0 time=0 actual_time=33048
type=note_on channel=4 note=54 velocity=80 time=12 actual_time=33060
type=note_on channel=4 note=47 velocity=80 time=0 actual_time=33060
type=note_on channel=4 note=47 velocity=0 time=48 actual_time=33108
type=note_on channel=4 note=54 velocity=0 time=0 actual_time=33108
type=note_on channel=4 note=54 velocity=80 time=12 actual_time=33120
type=note_on channel=4 note=59 velocity=80 time=0 actual_time=33120
type=note_on channel=4 note=47 velocity=80 time=0 actual_time=33120
type=note_on channel=4 note=47 velocity=0 time=96 actual_time=33216
type=note_on channel=4 note=59 velocity=0 time=0 actual_time=33216
type=note_on channel=4 note=54 velocity=0 time=0 actual_time=33216
type=note_on channel=4 note=54 velocity=80 time=24 actual_time=33240
type=note_on channel=4 note=47 velocity=80 time=0 actual_time=33240
type=note_on channel=4 note=47 velocity=0 time=48 actual_time=33288
type=note_on channel=4 note=54 velocity=0 time=0 actual_time=33288
type=note_on channel=4 note=54 velocity=80 time=12 actual_time=33300
type=note_on channel=4 note=47 velocity=80 time=0 actual_time=33300
type=note_on channel=4 note=47 velocity=0 time=48 actual_time=33348
type=note_on channel=4 note=54 velocity=0 time=0 actual_time=33348
type=note_on channel=4 note=54 velocity=80 time=12 actual_time=33360
type=note_on channel=4 note=59 velocity=80 time=0 actual_time=33360
type=note_on channel=4 note=47 velocity=80 time=0 actual_time=33360
type=note_on channel=4 note=47 velocity=0 time=96 actual_time=33456
type=note_on channel=4 note=59 velocity=0 time=0 actual_time=33456
type=note_on channel=4 note=54 velocity=0 time=0 actual_time=33456
type=note_on channel=4 note=54 velocity=80 time=24 actual_time=33480
type=note_on channel=4 note=47 velocity=80 time=0 actual_time=33480
type=note_on channel=4 note=47 velocity=0 time=48 actual_time=33528
type=note_on channel=4 note=54 velocity=0 time=0 actual_time=33528
type=note_on channel=4 note=54 velocity=80 time=12 actual_time=33540
type=note_on channel=4 note=47 velocity=80 time=0 actual_time=33540
type=note_on channel=4 note=47 velocity=0 time=48 actual_time=33588
type=note_on channel=4 note=54 velocity=0 time=0 actual_time=33588
type=note_on channel=4 note=40 velocity=80 time=12 actual_time=33600
type=note_on channel=4 note=52 velocity=80 time=0 actual_time=33600
type=note_on channel=4 note=47 velocity=80 time=0 actual_time=33600
type=note_on channel=4 note=47 velocity=0 time=96 actual_time=33696
type=note_on channel=4 note=52 velocity=0 time=0 actual_time=33696
type=note_on channel=4 note=40 velocity=0 time=0 actual_time=33696
type=note_on channel=4 note=40 velocity=80 time=24 actual_time=33720
type=note_on channel=4 note=52 velocity=80 time=0 actual_time=33720
type=note_on channel=4 note=47 velocity=80 time=0 actual_time=33720
type=note_on channel=4 note=47 velocity=0 time=96 actual_time=33816
type=note_on channel=4 note=52 velocity=0 time=0 actual_time=33816
type=note_on channel=4 note=40 velocity=0 time=0 actual_time=33816
type=note_on channel=4 note=40 velocity=80 time=24 actual_time=33840
type=note_on channel=4 note=52 velocity=80 time=0 actual_time=33840
type=note_on channel=4 note=47 velocity=80 time=0 actual_time=33840
type=note_on channel=4 note=47 velocity=0 time=96 actual_time=33936
type=note_on channel=4 note=52 velocity=0 time=0 actual_time=33936
type=note_on channel=4 note=40 velocity=0 time=0 actual_time=33936
type=note_on channel=4 note=52 velocity=80 time=24 actual_time=33960
type=note_on channel=4 note=47 velocity=80 time=0 actual_time=33960
type=note_on channel=4 note=40 velocity=80 time=0 actual_time=33960
type=note_on channel=4 note=40 velocity=0 time=96 actual_time=34056
type=note_on channel=4 note=47 velocity=0 time=0 actual_time=34056
type=note_on channel=4 note=52 velocity=0 time=0 actual_time=34056
type=note_on channel=4 note=54 velocity=80 time=24 actual_time=34080
type=note_on channel=4 note=49 velocity=80 time=0 actual_time=34080
type=note_on channel=4 note=42 velocity=80 time=0 actual_time=34080
type=note_on channel=4 note=42 velocity=0 time=96 actual_time=34176
type=note_on channel=4 note=49 velocity=0 time=0 actual_time=34176
type=note_on channel=4 note=54 velocity=0 time=0 actual_time=34176
type=note_on channel=4 note=49 velocity=80 time=24 actual_time=34200
type=note_on channel=4 note=42 velocity=80 time=0 actual_time=34200
type=note_on channel=4 note=54 velocity=80 time=0 actual_time=34200
type=note_on channel=4 note=54 velocity=0 time=96 actual_time=34296
type=note_on channel=4 note=42 velocity=0 time=0 actual_time=34296
type=note_on channel=4 note=49 velocity=0 time=0 actual_time=34296
type=note_on channel=4 note=42 velocity=80 time=24 actual_time=34320
type=note_on channel=4 note=54 velocity=80 time=0 actual_time=34320
type=note_on channel=4 note=49 velocity=80 time=0 actual_time=34320
type=note_on channel=4 note=49 velocity=0 time=96 actual_time=34416
type=note_on channel=4 note=54 velocity=0 time=0 actual_time=34416
type=note_on channel=4 note=42 velocity=0 time=0 actual_time=34416
type=note_on channel=4 note=42 velocity=80 time=24 actual_time=34440
type=note_on channel=4 note=49 velocity=80 time=0 actual_time=34440
type=note_on channel=4 note=54 velocity=80 time=0 actual_time=34440
type=note_on channel=4 note=54 velocity=0 time=96 actual_time=34536
type=note_on channel=4 note=49 velocity=0 time=0 actual_time=34536
type=note_on channel=4 note=42 velocity=0 time=0 actual_time=34536
type=note_on channel=4 note=47 velocity=80 time=24 actual_time=34560
type=note_on channel=4 note=54 velocity=80 time=0 actual_time=34560
type=note_on channel=4 note=59 velocity=80 time=0 actual_time=34560
type=note_on channel=4 note=59 velocity=0 time=3648 actual_time=38208
type=note_on channel=4 note=54 velocity=0 time=0 actual_time=38208
type=note_on channel=4 note=47 velocity=0 time=0 actual_time=38208
type=note_on channel=4 note=57 velocity=80 time=7632 actual_time=45840
type=note_on channel=4 note=52 velocity=80 time=0 actual_time=45840
type=note_on channel=4 note=45 velocity=80 time=0 actual_time=45840
type=note_on channel=4 note=45 velocity=0 time=32 actual_time=45872
type=note_on channel=4 note=52 velocity=0 time=0 actual_time=45872
type=note_on channel=4 note=57 velocity=0 time=0 actual_time=45872
type=note_on channel=4 note=57 velocity=80 time=8 actual_time=45880
type=note_on channel=4 note=45 velocity=80 time=0 actual_time=45880
type=note_on channel=4 note=52 velocity=80 time=0 actual_time=45880
type=note_on channel=4 note=52 velocity=0 time=32 actual_time=45912
type=note_on channel=4 note=45 velocity=0 time=0 actual_time=45912
type=note_on channel=4 note=57 velocity=0 time=0 actual_time=45912
type=note_on channel=4 note=57 velocity=80 time=8 actual_time=45920
type=note_on channel=4 note=45 velocity=80 time=0 actual_time=45920
type=note_on channel=4 note=52 velocity=80 time=0 actual_time=45920
type=note_on channel=4 note=52 velocity=0 time=32 actual_time=45952
type=note_on channel=4 note=45 velocity=0 time=0 actual_time=45952
type=note_on channel=4 note=57 velocity=0 time=0 actual_time=45952
type=note_on channel=4 note=57 velocity=80 time=8 actual_time=45960
type=note_on channel=4 note=45 velocity=80 time=0 actual_time=45960
type=note_on channel=4 note=52 velocity=80 time=0 actual_time=45960
type=note_on channel=4 note=52 velocity=0 time=32 actual_time=45992
type=note_on channel=4 note=45 velocity=0 time=0 actual_time=45992
type=note_on channel=4 note=57 velocity=0 time=0 actual_time=45992
type=note_on channel=4 note=57 velocity=80 time=8 actual_time=46000
type=note_on channel=4 note=45 velocity=80 time=0 actual_time=46000
type=note_on channel=4 note=52 velocity=80 time=0 actual_time=46000
type=note_on channel=4 note=52 velocity=0 time=32 actual_time=46032
type=note_on channel=4 note=45 velocity=0 time=0 actual_time=46032
type=note_on channel=4 note=57 velocity=0 time=0 actual_time=46032
type=note_on channel=4 note=57 velocity=80 time=8 actual_time=46040
type=note_on channel=4 note=45 velocity=80 time=0 actual_time=46040
type=note_on channel=4 note=52 velocity=80 time=0 actual_time=46040
type=note_on channel=4 note=52 velocity=0 time=32 actual_time=46072
type=note_on channel=4 note=45 velocity=0 time=0 actual_time=46072
type=note_on channel=4 note=57 velocity=0 time=0 actual_time=46072
type=note_on channel=4 note=54 velocity=80 time=8 actual_time=46080
type=note_on channel=4 note=59 velocity=80 time=0 actual_time=46080
type=note_on channel=4 note=47 velocity=80 time=0 actual_time=46080
type=note_on channel=4 note=47 velocity=0 time=96 actual_time=46176
type=note_on channel=4 note=59 velocity=0 time=0 actual_time=46176
type=note_on channel=4 note=54 velocity=0 time=0 actual_time=46176
type=note_on channel=4 note=54 velocity=80 time=24 actual_time=46200
type=note_on channel=4 note=47 velocity=80 time=0 actual_time=46200
type=note_on channel=4 note=47 velocity=0 time=48 actual_time=46248
type=note_on channel=4 note=54 velocity=0 time=0 actual_time=46248
type=note_on channel=4 note=54 velocity=80 time=12 actual_time=46260
type=note_on channel=4 note=47 velocity=80 time=0 actual_time=46260
type=note_on channel=4 note=47 velocity=0 time=48 actual_time=46308
type=note_on channel=4 note=54 velocity=0 time=0 actual_time=46308
type=note_on channel=4 note=47 velocity=80 time=12 actual_time=46320
type=note_on channel=4 note=59 velocity=80 time=0 actual_time=46320
type=note_on channel=4 note=54 velocity=80 time=0 actual_time=46320
type=note_on channel=4 note=54 velocity=0 time=96 actual_time=46416
type=note_on channel=4 note=59 velocity=0 time=0 actual_time=46416
type=note_on channel=4 note=47 velocity=0 time=0 actual_time=46416
type=note_on channel=4 note=47 velocity=80 time=24 actual_time=46440
type=note_on channel=4 note=54 velocity=80 time=0 actual_time=46440
type=note_on channel=4 note=54 velocity=0 time=48 actual_time=46488
type=note_on channel=4 note=47 velocity=0 time=0 actual_time=46488
type=note_on channel=4 note=47 velocity=80 time=12 actual_time=46500
type=note_on channel=4 note=54 velocity=80 time=0 actual_time=46500
type=note_on channel=4 note=54 velocity=0 time=48 actual_time=46548
type=note_on channel=4 note=47 velocity=0 time=0 actual_time=46548
type=note_on channel=4 note=47 velocity=80 time=12 actual_time=46560
type=note_on channel=4 note=59 velocity=80 time=0 actual_time=46560
type=note_on channel=4 note=54 velocity=80 time=0 actual_time=46560
type=note_on channel=4 note=54 velocity=0 time=96 actual_time=46656
type=note_on channel=4 note=59 velocity=0 time=0 actual_time=46656
type=note_on channel=4 note=47 velocity=0 time=0 actual_time=46656
type=note_on channel=4 note=47 velocity=80 time=24 actual_time=46680
type=note_on channel=4 note=54 velocity=80 time=0 actual_time=46680
type=note_on channel=4 note=54 velocity=0 time=48 actual_time=46728
type=note_on channel=4 note=47 velocity=0 time=0 actual_time=46728
type=note_on channel=4 note=47 velocity=80 time=12 actual_time=46740
type=note_on channel=4 note=54 velocity=80 time=0 actual_time=46740
type=note_on channel=4 note=54 velocity=0 time=48 actual_time=46788
type=note_on channel=4 note=47 velocity=0 time=0 actual_time=46788
type=note_on channel=4 note=47 velocity=80 time=12 actual_time=46800
type=note_on channel=4 note=59 velocity=80 time=0 actual_time=46800
type=note_on channel=4 note=54 velocity=80 time=0 actual_time=46800
type=note_on channel=4 note=54 velocity=0 time=96 actual_time=46896
type=note_on channel=4 note=59 velocity=0 time=0 actual_time=46896
type=note_on channel=4 note=47 velocity=0 time=0 actual_time=46896
type=note_on channel=4 note=47 velocity=80 time=24 actual_time=46920
type=note_on channel=4 note=54 velocity=80 time=0 actual_time=46920
type=note_on channel=4 note=54 velocity=0 time=48 actual_time=46968
type=note_on channel=4 note=47 velocity=0 time=0 actual_time=46968
type=note_on channel=4 note=47 velocity=80 time=12 actual_time=46980
type=note_on channel=4 note=54 velocity=80 time=0 actual_time=46980
type=note_on channel=4 note=54 velocity=0 time=48 actual_time=47028
type=note_on channel=4 note=47 velocity=0 time=0 actual_time=47028
type=note_on channel=4 note=43 velocity=80 time=12 actual_time=47040
type=note_on channel=4 note=55 velocity=80 time=0 actual_time=47040
type=note_on channel=4 note=50 velocity=80 time=0 actual_time=47040
type=note_on channel=4 note=50 velocity=0 time=96 actual_time=47136
type=note_on channel=4 note=55 velocity=0 time=0 actual_time=47136
type=note_on channel=4 note=43 velocity=0 time=0 actual_time=47136
type=note_on channel=4 note=43 velocity=80 time=24 actual_time=47160
type=note_on channel=4 note=50 velocity=80 time=0 actual_time=47160
type=note_on channel=4 note=50 velocity=0 time=48 actual_time=47208
type=note_on channel=4 note=43 velocity=0 time=0 actual_time=47208
type=note_on channel=4 note=43 velocity=80 time=12 actual_time=47220
type=note_on channel=4 note=50 velocity=80 time=0 actual_time=47220
type=note_on channel=4 note=50 velocity=0 time=48 actual_time=47268
type=note_on channel=4 note=43 velocity=0 time=0 actual_time=47268
type=note_on channel=4 note=43 velocity=80 time=12 actual_time=47280
type=note_on channel=4 note=55 velocity=80 time=0 actual_time=47280
type=note_on channel=4 note=50 velocity=80 time=0 actual_time=47280
type=note_on channel=4 note=50 velocity=0 time=96 actual_time=47376
type=note_on channel=4 note=55 velocity=0 time=0 actual_time=47376
type=note_on channel=4 note=43 velocity=0 time=0 actual_time=47376
type=note_on channel=4 note=43 velocity=80 time=24 actual_time=47400
type=note_on channel=4 note=50 velocity=80 time=0 actual_time=47400
type=note_on channel=4 note=50 velocity=0 time=48 actual_time=47448
type=note_on channel=4 note=43 velocity=0 time=0 actual_time=47448
type=note_on channel=4 note=43 velocity=80 time=12 actual_time=47460
type=note_on channel=4 note=50 velocity=80 time=0 actual_time=47460
type=note_on channel=4 note=50 velocity=0 time=48 actual_time=47508
type=note_on channel=4 note=43 velocity=0 time=0 actual_time=47508
type=note_on channel=4 note=45 velocity=80 time=12 actual_time=47520
type=note_on channel=4 note=57 velocity=80 time=0 actual_time=47520
type=note_on channel=4 note=52 velocity=80 time=0 actual_time=47520
type=note_on channel=4 note=52 velocity=0 time=96 actual_time=47616
type=note_on channel=4 note=57 velocity=0 time=0 actual_time=47616
type=note_on channel=4 note=45 velocity=0 time=0 actual_time=47616
type=note_on channel=4 note=45 velocity=80 time=24 actual_time=47640
type=note_on channel=4 note=52 velocity=80 time=0 actual_time=47640
type=note_on channel=4 note=52 velocity=0 time=48 actual_time=47688
type=note_on channel=4 note=45 velocity=0 time=0 actual_time=47688
type=note_on channel=4 note=45 velocity=80 time=12 actual_time=47700
type=note_on channel=4 note=52 velocity=80 time=0 actual_time=47700
type=note_on channel=4 note=52 velocity=0 time=48 actual_time=47748
type=note_on channel=4 note=45 velocity=0 time=0 actual_time=47748
type=note_on channel=4 note=45 velocity=80 time=12 actual_time=47760
type=note_on channel=4 note=57 velocity=80 time=0 actual_time=47760
type=note_on channel=4 note=52 velocity=80 time=0 actual_time=47760
type=note_on channel=4 note=52 velocity=0 time=96 actual_time=47856
type=note_on channel=4 note=57 velocity=0 time=0 actual_time=47856
type=note_on channel=4 note=45 velocity=0 time=0 actual_time=47856
type=note_on channel=4 note=45 velocity=80 time=24 actual_time=47880
type=note_on channel=4 note=52 velocity=80 time=0 actual_time=47880
type=note_on channel=4 note=52 velocity=0 time=48 actual_time=47928
type=note_on channel=4 note=45 velocity=0 time=0 actual_time=47928
type=note_on channel=4 note=45 velocity=80 time=12 actual_time=47940
type=note_on channel=4 note=52 velocity=80 time=0 actual_time=47940
type=note_on channel=4 note=52 velocity=0 time=48 actual_time=47988
type=note_on channel=4 note=45 velocity=0 time=0 actual_time=47988
type=note_on channel=4 note=47 velocity=80 time=12 actual_time=48000
type=note_on channel=4 note=59 velocity=80 time=0 actual_time=48000
type=note_on channel=4 note=54 velocity=80 time=0 actual_time=48000
type=note_on channel=4 note=54 velocity=0 time=96 actual_time=48096
type=note_on channel=4 note=59 velocity=0 time=0 actual_time=48096
type=note_on channel=4 note=47 velocity=0 time=0 actual_time=48096
type=note_on channel=4 note=47 velocity=80 time=24 actual_time=48120
type=note_on channel=4 note=54 velocity=80 time=0 actual_time=48120
type=note_on channel=4 note=59 velocity=80 time=0 actual_time=48120
type=note_on channel=4 note=59 velocity=0 time=48 actual_time=48168
type=note_on channel=4 note=54 velocity=0 time=0 actual_time=48168
type=note_on channel=4 note=47 velocity=0 time=0 actual_time=48168
type=note_on channel=4 note=47 velocity=80 time=12 actual_time=48180
type=note_on channel=4 note=59 velocity=80 time=0 actual_time=48180
type=note_on channel=4 note=54 velocity=80 time=0 actual_time=48180
type=note_on channel=4 note=54 velocity=0 time=48 actual_time=48228
type=note_on channel=4 note=59 velocity=0 time=0 actual_time=48228
type=note_on channel=4 note=47 velocity=0 time=0 actual_time=48228
type=note_on channel=4 note=54 velocity=80 time=12 actual_time=48240
type=note_on channel=4 note=59 velocity=80 time=0 actual_time=48240
type=note_on channel=4 note=47 velocity=80 time=0 actual_time=48240
type=note_on channel=4 note=47 velocity=0 time=96 actual_time=48336
type=note_on channel=4 note=59 velocity=0 time=0 actual_time=48336
type=note_on channel=4 note=54 velocity=0 time=0 actual_time=48336
type=note_on channel=4 note=59 velocity=80 time=24 actual_time=48360
type=note_on channel=4 note=54 velocity=80 time=0 actual_time=48360
type=note_on channel=4 note=47 velocity=80 time=0 actual_time=48360
type=note_on channel=4 note=47 velocity=0 time=48 actual_time=48408
type=note_on channel=4 note=54 velocity=0 time=0 actual_time=48408
type=note_on channel=4 note=59 velocity=0 time=0 actual_time=48408
type=note_on channel=4 note=54 velocity=80 time=12 actual_time=48420
type=note_on channel=4 note=59 velocity=80 time=0 actual_time=48420
type=note_on channel=4 note=47 velocity=80 time=0 actual_time=48420
type=note_on channel=4 note=47 velocity=0 time=48 actual_time=48468
type=note_on channel=4 note=59 velocity=0 time=0 actual_time=48468
type=note_on channel=4 note=54 velocity=0 time=0 actual_time=48468
type=note_on channel=4 note=54 velocity=80 time=12 actual_time=48480
type=note_on channel=4 note=59 velocity=80 time=0 actual_time=48480
type=note_on channel=4 note=47 velocity=80 time=0 actual_time=48480
type=note_on channel=4 note=47 velocity=0 time=96 actual_time=48576
type=note_on channel=4 note=59 velocity=0 time=0 actual_time=48576
type=note_on channel=4 note=54 velocity=0 time=0 actual_time=48576
type=note_on channel=4 note=59 velocity=80 time=24 actual_time=48600
type=note_on channel=4 note=54 velocity=80 time=0 actual_time=48600
type=note_on channel=4 note=47 velocity=80 time=0 actual_time=48600
type=note_on channel=4 note=47 velocity=0 time=48 actual_time=48648
type=note_on channel=4 note=54 velocity=0 time=0 actual_time=48648
type=note_on channel=4 note=59 velocity=0 time=0 actual_time=48648
type=note_on channel=4 note=54 velocity=80 time=12 actual_time=48660
type=note_on channel=4 note=59 velocity=80 time=0 actual_time=48660
type=note_on channel=4 note=47 velocity=80 time=0 actual_time=48660
type=note_on channel=4 note=47 velocity=0 time=48 actual_time=48708
type=note_on channel=4 note=59 velocity=0 time=0 actual_time=48708
type=note_on channel=4 note=54 velocity=0 time=0 actual_time=48708
type=note_on channel=4 note=54 velocity=80 time=12 actual_time=48720
type=note_on channel=4 note=59 velocity=80 time=0 actual_time=48720
type=note_on channel=4 note=47 velocity=80 time=0 actual_time=48720
type=note_on channel=4 note=47 velocity=0 time=96 actual_time=48816
type=note_on channel=4 note=59 velocity=0 time=0 actual_time=48816
type=note_on channel=4 note=54 velocity=0 time=0 actual_time=48816
type=note_on channel=4 note=59 velocity=80 time=24 actual_time=48840
type=note_on channel=4 note=54 velocity=80 time=0 actual_time=48840
type=note_on channel=4 note=47 velocity=80 time=0 actual_time=48840
type=note_on channel=4 note=47 velocity=0 time=48 actual_time=48888
type=note_on channel=4 note=54 velocity=0 time=0 actual_time=48888
type=note_on channel=4 note=59 velocity=0 time=0 actual_time=48888
type=note_on channel=4 note=54 velocity=80 time=12 actual_time=48900
type=note_on channel=4 note=59 velocity=80 time=0 actual_time=48900
type=note_on channel=4 note=47 velocity=80 time=0 actual_time=48900
type=note_on channel=4 note=47 velocity=0 time=48 actual_time=48948
type=note_on channel=4 note=59 velocity=0 time=0 actual_time=48948
type=note_on channel=4 note=54 velocity=0 time=0 actual_time=48948
type=note_on channel=4 note=47 velocity=80 time=12 actual_time=48960
type=note_on channel=4 note=52 velocity=80 time=0 actual_time=48960
type=note_on channel=4 note=40 velocity=80 time=0 actual_time=48960
type=note_on channel=4 note=40 velocity=0 time=96 actual_time=49056
type=note_on channel=4 note=52 velocity=0 time=0 actual_time=49056
type=note_on channel=4 note=47 velocity=0 time=0 actual_time=49056
type=note_on channel=4 note=52 velocity=80 time=24 actual_time=49080
type=note_on channel=4 note=47 velocity=80 time=0 actual_time=49080
type=note_on channel=4 note=40 velocity=80 time=0 actual_time=49080
type=note_on channel=4 note=40 velocity=0 time=48 actual_time=49128
type=note_on channel=4 note=47 velocity=0 time=0 actual_time=49128
type=note_on channel=4 note=52 velocity=0 time=0 actual_time=49128
type=note_on channel=4 note=47 velocity=80 time=12 actual_time=49140
type=note_on channel=4 note=52 velocity=80 time=0 actual_time=49140
type=note_on channel=4 note=40 velocity=80 time=0 actual_time=49140
type=note_on channel=4 note=40 velocity=0 time=48 actual_time=49188
type=note_on channel=4 note=52 velocity=0 time=0 actual_time=49188
type=note_on channel=4 note=47 velocity=0 time=0 actual_time=49188
type=note_on channel=4 note=47 velocity=80 time=12 actual_time=49200
type=note_on channel=4 note=52 velocity=80 time=0 actual_time=49200
type=note_on channel=4 note=40 velocity=80 time=0 actual_time=49200
type=note_on channel=4 note=40 velocity=0 time=96 actual_time=49296
type=note_on channel=4 note=52 velocity=0 time=0 actual_time=49296
type=note_on channel=4 note=47 velocity=0 time=0 actual_time=49296
type=note_on channel=4 note=52 velocity=80 time=24 actual_time=49320
type=note_on channel=4 note=47 velocity=80 time=0 actual_time=49320
type=note_on channel=4 note=40 velocity=80 time=0 actual_time=49320
type=note_on channel=4 note=40 velocity=0 time=48 actual_time=49368
type=note_on channel=4 note=47 velocity=0 time=0 actual_time=49368
type=note_on channel=4 note=52 velocity=0 time=0 actual_time=49368
type=note_on channel=4 note=47 velocity=80 time=12 actual_time=49380
type=note_on channel=4 note=52 velocity=80 time=0 actual_time=49380
type=note_on channel=4 note=40 velocity=80 time=0 actual_time=49380
type=note_on channel=4 note=40 velocity=0 time=48 actual_time=49428
type=note_on channel=4 note=52 velocity=0 time=0 actual_time=49428
type=note_on channel=4 note=47 velocity=0 time=0 actual_time=49428
type=note_on channel=4 note=49 velocity=80 time=12 actual_time=49440
type=note_on channel=4 note=54 velocity=80 time=0 actual_time=49440
type=note_on channel=4 note=42 velocity=80 time=0 actual_time=49440
type=note_on channel=4 note=42 velocity=0 time=96 actual_time=49536
type=note_on channel=4 note=54 velocity=0 time=0 actual_time=49536
type=note_on channel=4 note=49 velocity=0 time=0 actual_time=49536
type=note_on channel=4 note=54 velocity=80 time=24 actual_time=49560
type=note_on channel=4 note=49 velocity=80 time=0 actual_time=49560
type=note_on channel=4 note=42 velocity=80 time=0 actual_time=49560
type=note_on channel=4 note=42 velocity=0 time=48 actual_time=49608
type=note_on channel=4 note=49 velocity=0 time=0 actual_time=49608
type=note_on channel=4 note=54 velocity=0 time=0 actual_time=49608
type=note_on channel=4 note=49 velocity=80 time=12 actual_time=49620
type=note_on channel=4 note=54 velocity=80 time=0 actual_time=49620
type=note_on channel=4 note=42 velocity=80 time=0 actual_time=49620
type=note_on channel=4 note=42 velocity=0 time=48 actual_time=49668
type=note_on channel=4 note=54 velocity=0 time=0 actual_time=49668
type=note_on channel=4 note=49 velocity=0 time=0 actual_time=49668
type=note_on channel=4 note=49 velocity=80 time=12 actual_time=49680
type=note_on channel=4 note=54 velocity=80 time=0 actual_time=49680
type=note_on channel=4 note=42 velocity=80 time=0 actual_time=49680
type=note_on channel=4 note=42 velocity=0 time=96 actual_time=49776
type=note_on channel=4 note=54 velocity=0 time=0 actual_time=49776
type=note_on channel=4 note=49 velocity=0 time=0 actual_time=49776
type=note_on channel=4 note=54 velocity=80 time=24 actual_time=49800
type=note_on channel=4 note=49 velocity=80 time=0 actual_time=49800
type=note_on channel=4 note=42 velocity=80 time=0 actual_time=49800
type=note_on channel=4 note=42 velocity=0 time=48 actual_time=49848
type=note_on channel=4 note=49 velocity=0 time=0 actual_time=49848
type=note_on channel=4 note=54 velocity=0 time=0 actual_time=49848
type=note_on channel=4 note=49 velocity=80 time=12 actual_time=49860
type=note_on channel=4 note=54 velocity=80 time=0 actual_time=49860
type=note_on channel=4 note=42 velocity=80 time=0 actual_time=49860
type=note_on channel=4 note=42 velocity=0 time=48 actual_time=49908
type=note_on channel=4 note=54 velocity=0 time=0 actual_time=49908
type=note_on channel=4 note=49 velocity=0 time=0 actual_time=49908
type=note_on channel=4 note=54 velocity=80 time=12 actual_time=49920
type=note_on channel=4 note=59 velocity=80 time=0 actual_time=49920
type=note_on channel=4 note=47 velocity=80 time=0 actual_time=49920
type=note_on channel=4 note=47 velocity=0 time=96 actual_time=50016
type=note_on channel=4 note=59 velocity=0 time=0 actual_time=50016
type=note_on channel=4 note=54 velocity=0 time=0 actual_time=50016
type=note_on channel=4 note=54 velocity=80 time=24 actual_time=50040
type=note_on channel=4 note=47 velocity=80 time=0 actual_time=50040
type=note_on channel=4 note=47 velocity=0 time=48 actual_time=50088
type=note_on channel=4 note=54 velocity=0 time=0 actual_time=50088
type=note_on channel=4 note=54 velocity=80 time=12 actual_time=50100
type=note_on channel=4 note=47 velocity=80 time=0 actual_time=50100
type=note_on channel=4 note=47 velocity=0 time=48 actual_time=50148
type=note_on channel=4 note=54 velocity=0 time=0 actual_time=50148
type=note_on channel=4 note=47 velocity=80 time=12 actual_time=50160
type=note_on channel=4 note=59 velocity=80 time=0 actual_time=50160
type=note_on channel=4 note=54 velocity=80 time=0 actual_time=50160
type=note_on channel=4 note=54 velocity=0 time=96 actual_time=50256
type=note_on channel=4 note=59 velocity=0 time=0 actual_time=50256
type=note_on channel=4 note=47 velocity=0 time=0 actual_time=50256
type=note_on channel=4 note=47 velocity=80 time=24 actual_time=50280
type=note_on channel=4 note=54 velocity=80 time=0 actual_time=50280
type=note_on channel=4 note=54 velocity=0 time=48 actual_time=50328
type=note_on channel=4 note=47 velocity=0 time=0 actual_time=50328
type=note_on channel=4 note=47 velocity=80 time=12 actual_time=50340
type=note_on channel=4 note=54 velocity=80 time=0 actual_time=50340
type=note_on channel=4 note=54 velocity=0 time=48 actual_time=50388
type=note_on channel=4 note=47 velocity=0 time=0 actual_time=50388
type=note_on channel=4 note=47 velocity=80 time=12 actual_time=50400
type=note_on channel=4 note=59 velocity=80 time=0 actual_time=50400
type=note_on channel=4 note=54 velocity=80 time=0 actual_time=50400
type=note_on channel=4 note=54 velocity=0 time=96 actual_time=50496
type=note_on channel=4 note=59 velocity=0 time=0 actual_time=50496
type=note_on channel=4 note=47 velocity=0 time=0 actual_time=50496
type=note_on channel=4 note=47 velocity=80 time=24 actual_time=50520
type=note_on channel=4 note=54 velocity=80 time=0 actual_time=50520
type=note_on channel=4 note=54 velocity=0 time=48 actual_time=50568
type=note_on channel=4 note=47 velocity=0 time=0 actual_time=50568
type=note_on channel=4 note=47 velocity=80 time=12 actual_time=50580
type=note_on channel=4 note=54 velocity=80 time=0 actual_time=50580
type=note_on channel=4 note=54 velocity=0 time=48 actual_time=50628
type=note_on channel=4 note=47 velocity=0 time=0 actual_time=50628
type=note_on channel=4 note=47 velocity=80 time=12 actual_time=50640
type=note_on channel=4 note=59 velocity=80 time=0 actual_time=50640
type=note_on channel=4 note=54 velocity=80 time=0 actual_time=50640
type=note_on channel=4 note=54 velocity=0 time=96 actual_time=50736
type=note_on channel=4 note=59 velocity=0 time=0 actual_time=50736
type=note_on channel=4 note=47 velocity=0 time=0 actual_time=50736
type=note_on channel=4 note=47 velocity=80 time=24 actual_time=50760
type=note_on channel=4 note=54 velocity=80 time=0 actual_time=50760
type=note_on channel=4 note=54 velocity=0 time=48 actual_time=50808
type=note_on channel=4 note=47 velocity=0 time=0 actual_time=50808
type=note_on channel=4 note=47 velocity=80 time=12 actual_time=50820
type=note_on channel=4 note=54 velocity=80 time=0 actual_time=50820
type=note_on channel=4 note=54 velocity=0 time=48 actual_time=50868
type=note_on channel=4 note=47 velocity=0 time=0 actual_time=50868
type=note_on channel=4 note=43 velocity=80 time=12 actual_time=50880
type=note_on channel=4 note=55 velocity=80 time=0 actual_time=50880
type=note_on channel=4 note=50 velocity=80 time=0 actual_time=50880
type=note_on channel=4 note=50 velocity=0 time=96 actual_time=50976
type=note_on channel=4 note=55 velocity=0 time=0 actual_time=50976
type=note_on channel=4 note=43 velocity=0 time=0 actual_time=50976
type=note_on channel=4 note=43 velocity=80 time=24 actual_time=51000
type=note_on channel=4 note=50 velocity=80 time=0 actual_time=51000
type=note_on channel=4 note=50 velocity=0 time=48 actual_time=51048
type=note_on channel=4 note=43 velocity=0 time=0 actual_time=51048
type=note_on channel=4 note=43 velocity=80 time=12 actual_time=51060
type=note_on channel=4 note=50 velocity=80 time=0 actual_time=51060
type=note_on channel=4 note=50 velocity=0 time=48 actual_time=51108
type=note_on channel=4 note=43 velocity=0 time=0 actual_time=51108
type=note_on channel=4 note=43 velocity=80 time=12 actual_time=51120
type=note_on channel=4 note=55 velocity=80 time=0 actual_time=51120
type=note_on channel=4 note=50 velocity=80 time=0 actual_time=51120
type=note_on channel=4 note=50 velocity=0 time=96 actual_time=51216
type=note_on channel=4 note=55 velocity=0 time=0 actual_time=51216
type=note_on channel=4 note=43 velocity=0 time=0 actual_time=51216
type=note_on channel=4 note=43 velocity=80 time=24 actual_time=51240
type=note_on channel=4 note=50 velocity=80 time=0 actual_time=51240
type=note_on channel=4 note=50 velocity=0 time=48 actual_time=51288
type=note_on channel=4 note=43 velocity=0 time=0 actual_time=51288
type=note_on channel=4 note=43 velocity=80 time=12 actual_time=51300
type=note_on channel=4 note=50 velocity=80 time=0 actual_time=51300
type=note_on channel=4 note=50 velocity=0 time=48 actual_time=51348
type=note_on channel=4 note=43 velocity=0 time=0 actual_time=51348
type=note_on channel=4 note=45 velocity=80 time=12 actual_time=51360
type=note_on channel=4 note=57 velocity=80 time=0 actual_time=51360
type=note_on channel=4 note=52 velocity=80 time=0 actual_time=51360
type=note_on channel=4 note=52 velocity=0 time=96 actual_time=51456
type=note_on channel=4 note=57 velocity=0 time=0 actual_time=51456
type=note_on channel=4 note=45 velocity=0 time=0 actual_time=51456
type=note_on channel=4 note=45 velocity=80 time=24 actual_time=51480
type=note_on channel=4 note=52 velocity=80 time=0 actual_time=51480
type=note_on channel=4 note=52 velocity=0 time=48 actual_time=51528
type=note_on channel=4 note=45 velocity=0 time=0 actual_time=51528
type=note_on channel=4 note=45 velocity=80 time=12 actual_time=51540
type=note_on channel=4 note=52 velocity=80 time=0 actual_time=51540
type=note_on channel=4 note=52 velocity=0 time=48 actual_time=51588
type=note_on channel=4 note=45 velocity=0 time=0 actual_time=51588
type=note_on channel=4 note=45 velocity=80 time=12 actual_time=51600
type=note_on channel=4 note=57 velocity=80 time=0 actual_time=51600
type=note_on channel=4 note=52 velocity=80 time=0 actual_time=51600
type=note_on channel=4 note=52 velocity=0 time=96 actual_time=51696
type=note_on channel=4 note=57 velocity=0 time=0 actual_time=51696
type=note_on channel=4 note=45 velocity=0 time=0 actual_time=51696
type=note_on channel=4 note=45 velocity=80 time=24 actual_time=51720
type=note_on channel=4 note=52 velocity=80 time=0 actual_time=51720
type=note_on channel=4 note=52 velocity=0 time=48 actual_time=51768
type=note_on channel=4 note=45 velocity=0 time=0 actual_time=51768
type=note_on channel=4 note=45 velocity=80 time=12 actual_time=51780
type=note_on channel=4 note=52 velocity=80 time=0 actual_time=51780
type=note_on channel=4 note=52 velocity=0 time=48 actual_time=51828
type=note_on channel=4 note=45 velocity=0 time=0 actual_time=51828
type=note_on channel=4 note=54 velocity=80 time=12 actual_time=51840
type=note_on channel=4 note=59 velocity=80 time=0 actual_time=51840
type=note_on channel=4 note=47 velocity=80 time=0 actual_time=51840
type=note_on channel=4 note=47 velocity=0 time=96 actual_time=51936
type=note_on channel=4 note=59 velocity=0 time=0 actual_time=51936
type=note_on channel=4 note=54 velocity=0 time=0 actual_time=51936
type=note_on channel=4 note=54 velocity=80 time=24 actual_time=51960
type=note_on channel=4 note=47 velocity=80 time=0 actual_time=51960
type=note_on channel=4 note=47 velocity=0 time=48 actual_time=52008
type=note_on channel=4 note=54 velocity=0 time=0 actual_time=52008
type=note_on channel=4 note=54 velocity=80 time=12 actual_time=52020
type=note_on channel=4 note=47 velocity=80 time=0 actual_time=52020
type=note_on channel=4 note=47 velocity=0 time=48 actual_time=52068
type=note_on channel=4 note=54 velocity=0 time=0 actual_time=52068
type=note_on channel=4 note=47 velocity=80 time=12 actual_time=52080
type=note_on channel=4 note=59 velocity=80 time=0 actual_time=52080
type=note_on channel=4 note=54 velocity=80 time=0 actual_time=52080
type=note_on channel=4 note=54 velocity=0 time=96 actual_time=52176
type=note_on channel=4 note=59 velocity=0 time=0 actual_time=52176
type=note_on channel=4 note=47 velocity=0 time=0 actual_time=52176
type=note_on channel=4 note=47 velocity=80 time=24 actual_time=52200
type=note_on channel=4 note=54 velocity=80 time=0 actual_time=52200
type=note_on channel=4 note=54 velocity=0 time=48 actual_time=52248
type=note_on channel=4 note=47 velocity=0 time=0 actual_time=52248
type=note_on channel=4 note=47 velocity=80 time=12 actual_time=52260
type=note_on channel=4 note=54 velocity=80 time=0 actual_time=52260
type=note_on channel=4 note=54 velocity=0 time=48 actual_time=52308
type=note_on channel=4 note=47 velocity=0 time=0 actual_time=52308
type=note_on channel=4 note=47 velocity=80 time=12 actual_time=52320
type=note_on channel=4 note=59 velocity=80 time=0 actual_time=52320
type=note_on channel=4 note=54 velocity=80 time=0 actual_time=52320
type=note_on channel=4 note=54 velocity=0 time=96 actual_time=52416
type=note_on channel=4 note=59 velocity=0 time=0 actual_time=52416
type=note_on channel=4 note=47 velocity=0 time=0 actual_time=52416
type=note_on channel=4 note=47 velocity=80 time=24 actual_time=52440
type=note_on channel=4 note=54 velocity=80 time=0 actual_time=52440
type=note_on channel=4 note=54 velocity=0 time=48 actual_time=52488
type=note_on channel=4 note=47 velocity=0 time=0 actual_time=52488
type=note_on channel=4 note=47 velocity=80 time=12 actual_time=52500
type=note_on channel=4 note=54 velocity=80 time=0 actual_time=52500
type=note_on channel=4 note=54 velocity=0 time=48 actual_time=52548
type=note_on channel=4 note=47 velocity=0 time=0 actual_time=52548
type=note_on channel=4 note=47 velocity=80 time=12 actual_time=52560
type=note_on channel=4 note=59 velocity=80 time=0 actual_time=52560
type=note_on channel=4 note=54 velocity=80 time=0 actual_time=52560
type=note_on channel=4 note=54 velocity=0 time=96 actual_time=52656
type=note_on channel=4 note=59 velocity=0 time=0 actual_time=52656
type=note_on channel=4 note=47 velocity=0 time=0 actual_time=52656
type=note_on channel=4 note=47 velocity=80 time=24 actual_time=52680
type=note_on channel=4 note=54 velocity=80 time=0 actual_time=52680
type=note_on channel=4 note=54 velocity=0 time=48 actual_time=52728
type=note_on channel=4 note=47 velocity=0 time=0 actual_time=52728
type=note_on channel=4 note=47 velocity=80 time=12 actual_time=52740
type=note_on channel=4 note=54 velocity=80 time=0 actual_time=52740
type=note_on channel=4 note=54 velocity=0 time=48 actual_time=52788
type=note_on channel=4 note=47 velocity=0 time=0 actual_time=52788
type=note_on channel=4 note=47 velocity=80 time=12 actual_time=52800
type=note_on channel=4 note=52 velocity=80 time=0 actual_time=52800
type=note_on channel=4 note=40 velocity=80 time=0 actual_time=52800
type=note_on channel=4 note=40 velocity=0 time=96 actual_time=52896
type=note_on channel=4 note=52 velocity=0 time=0 actual_time=52896
type=note_on channel=4 note=47 velocity=0 time=0 actual_time=52896
type=note_on channel=4 note=47 velocity=80 time=24 actual_time=52920
type=note_on channel=4 note=40 velocity=80 time=0 actual_time=52920
type=note_on channel=4 note=52 velocity=80 time=0 actual_time=52920
type=note_on channel=4 note=52 velocity=0 time=96 actual_time=53016
type=note_on channel=4 note=40 velocity=0 time=0 actual_time=53016
type=note_on channel=4 note=47 velocity=0 time=0 actual_time=53016
type=note_on channel=4 note=40 velocity=80 time=24 actual_time=53040
type=note_on channel=4 note=52 velocity=80 time=0 actual_time=53040
type=note_on channel=4 note=47 velocity=80 time=0 actual_time=53040
type=note_on channel=4 note=47 velocity=0 time=96 actual_time=53136
type=note_on channel=4 note=52 velocity=0 time=0 actual_time=53136
type=note_on channel=4 note=40 velocity=0 time=0 actual_time=53136
type=note_on channel=4 note=52 velocity=80 time=24 actual_time=53160
type=note_on channel=4 note=47 velocity=80 time=0 actual_time=53160
type=note_on channel=4 note=40 velocity=80 time=0 actual_time=53160
type=note_on channel=4 note=40 velocity=0 time=96 actual_time=53256
type=note_on channel=4 note=47 velocity=0 time=0 actual_time=53256
type=note_on channel=4 note=52 velocity=0 time=0 actual_time=53256
type=note_on channel=4 note=49 velocity=80 time=24 actual_time=53280
type=note_on channel=4 note=54 velocity=80 time=0 actual_time=53280
type=note_on channel=4 note=42 velocity=80 time=0 actual_time=53280
type=note_on channel=4 note=42 velocity=0 time=96 actual_time=53376
type=note_on channel=4 note=54 velocity=0 time=0 actual_time=53376
type=note_on channel=4 note=49 velocity=0 time=0 actual_time=53376
type=note_on channel=4 note=49 velocity=80 time=24 actual_time=53400
type=note_on channel=4 note=42 velocity=80 time=0 actual_time=53400
type=note_on channel=4 note=54 velocity=80 time=0 actual_time=53400
type=note_on channel=4 note=54 velocity=0 time=96 actual_time=53496
type=note_on channel=4 note=42 velocity=0 time=0 actual_time=53496
type=note_on channel=4 note=49 velocity=0 time=0 actual_time=53496
type=note_on channel=4 note=42 velocity=80 time=24 actual_time=53520
type=note_on channel=4 note=54 velocity=80 time=0 actual_time=53520
type=note_on channel=4 note=49 velocity=80 time=0 actual_time=53520
type=note_on channel=4 note=49 velocity=0 time=96 actual_time=53616
type=note_on channel=4 note=54 velocity=0 time=0 actual_time=53616
type=note_on channel=4 note=42 velocity=0 time=0 actual_time=53616
type=note_on channel=4 note=54 velocity=80 time=24 actual_time=53640
type=note_on channel=4 note=49 velocity=80 time=0 actual_time=53640
type=note_on channel=4 note=42 velocity=80 time=0 actual_time=53640
type=note_on channel=4 note=42 velocity=0 time=96 actual_time=53736
type=note_on channel=4 note=49 velocity=0 time=0 actual_time=53736
type=note_on channel=4 note=54 velocity=0 time=0 actual_time=53736
type=note_on channel=4 note=54 velocity=80 time=24 actual_time=53760
type=note_on channel=4 note=59 velocity=80 time=0 actual_time=53760
type=note_on channel=4 note=47 velocity=80 time=0 actual_time=53760
type=note_on channel=4 note=47 velocity=0 time=936 actual_time=54696
type=note_on channel=4 note=59 velocity=0 time=0 actual_time=54696
type=note_on channel=4 note=54 velocity=0 time=0 actual_time=54696
type=note_on channel=4 note=43 velocity=80 time=24 actual_time=54720
type=note_on channel=4 note=50 velocity=80 time=0 actual_time=54720
type=note_on channel=4 note=55 velocity=80 time=0 actual_time=54720
type=note_on channel=4 note=55 velocity=0 time=408 actual_time=55128
type=note_on channel=4 note=50 velocity=0 time=0 actual_time=55128
type=note_on channel=4 note=43 velocity=0 time=0 actual_time=55128
type=note_on channel=4 note=50 velocity=80 time=12 actual_time=55140
type=note_on channel=4 note=43 velocity=80 time=0 actual_time=55140
type=note_on channel=4 note=43 velocity=0 time=48 actual_time=55188
type=note_on channel=4 note=50 velocity=0 time=0 actual_time=55188
type=note_on channel=4 note=45 velocity=80 time=12 actual_time=55200
type=note_on channel=4 note=52 velocity=80 time=0 actual_time=55200
type=note_on channel=4 note=57 velocity=80 time=0 actual_time=55200
type=note_on channel=4 note=57 velocity=0 time=408 actual_time=55608
type=note_on channel=4 note=52 velocity=0 time=0 actual_time=55608
type=note_on channel=4 note=45 velocity=0 time=0 actual_time=55608
type=note_on channel=4 note=45 velocity=80 time=12 actual_time=55620
type=note_on channel=4 note=52 velocity=80 time=0 actual_time=55620
type=note_on channel=4 note=52 velocity=0 time=48 actual_time=55668
type=note_on channel=4 note=45 velocity=0 time=0 actual_time=55668
type=note_on channel=4 note=47 velocity=80 time=12 actual_time=55680
type=note_on channel=4 note=59 velocity=80 time=0 actual_time=55680
type=note_on channel=4 note=54 velocity=80 time=0 actual_time=55680
type=note_on channel=4 note=54 velocity=0 time=936 actual_time=56616
type=note_on channel=4 note=59 velocity=0 time=0 actual_time=56616
type=note_on channel=4 note=47 velocity=0 time=0 actual_time=56616
type=note_on channel=4 note=55 velocity=80 time=24 actual_time=56640
type=note_on channel=4 note=50 velocity=80 time=0 actual_time=56640
type=note_on channel=4 note=43 velocity=80 time=0 actual_time=56640
type=note_on channel=4 note=43 velocity=0 time=408 actual_time=57048
type=note_on channel=4 note=50 velocity=0 time=0 actual_time=57048
type=note_on channel=4 note=55 velocity=0 time=0 actual_time=57048
type=note_on channel=4 note=50 velocity=80 time=12 actual_time=57060
type=note_on channel=4 note=43 velocity=80 time=0 actual_time=57060
type=note_on channel=4 note=43 velocity=0 time=48 actual_time=57108
type=note_on channel=4 note=50 velocity=0 time=0 actual_time=57108
type=note_on channel=4 note=57 velocity=80 time=12 actual_time=57120
type=note_on channel=4 note=52 velocity=80 time=0 actual_time=57120
type=note_on channel=4 note=45 velocity=80 time=0 actual_time=57120
type=note_on channel=4 note=45 velocity=0 time=408 actual_time=57528
type=note_on channel=4 note=52 velocity=0 time=0 actual_time=57528
type=note_on channel=4 note=57 velocity=0 time=0 actual_time=57528
type=note_on channel=4 note=52 velocity=80 time=12 actual_time=57540
type=note_on channel=4 note=45 velocity=80 time=0 actual_time=57540
type=note_on channel=4 note=45 velocity=0 time=48 actual_time=57588
type=note_on channel=4 note=52 velocity=0 time=0 actual_time=57588
type=note_on channel=4 note=47 velocity=80 time=12 actual_time=57600
type=note_on channel=4 note=59 velocity=80 time=0 actual_time=57600
type=note_on channel=4 note=54 velocity=80 time=0 actual_time=57600
type=note_on channel=4 note=54 velocity=0 time=936 actual_time=58536
type=note_on channel=4 note=59 velocity=0 time=0 actual_time=58536
type=note_on channel=4 note=47 velocity=0 time=0 actual_time=58536
type=note_on channel=4 note=55 velocity=80 time=24 actual_time=58560
type=note_on channel=4 note=50 velocity=80 time=0 actual_time=58560
type=note_on channel=4 note=43 velocity=80 time=0 actual_time=58560
type=note_on channel=4 note=43 velocity=0 time=408 actual_time=58968
type=note_on channel=4 note=50 velocity=0 time=0 actual_time=58968
type=note_on channel=4 note=55 velocity=0 time=0 actual_time=58968
type=note_on channel=4 note=50 velocity=80 time=12 actual_time=58980
type=note_on channel=4 note=43 velocity=80 time=0 actual_time=58980
type=note_on channel=4 note=43 velocity=0 time=48 actual_time=59028
type=note_on channel=4 note=50 velocity=0 time=0 actual_time=59028
type=note_on channel=4 note=57 velocity=80 time=12 actual_time=59040
type=note_on channel=4 note=52 velocity=80 time=0 actual_time=59040
type=note_on channel=4 note=45 velocity=80 time=0 actual_time=59040
type=note_on channel=4 note=45 velocity=0 time=408 actual_time=59448
type=note_on channel=4 note=52 velocity=0 time=0 actual_time=59448
type=note_on channel=4 note=57 velocity=0 time=0 actual_time=59448
type=note_on channel=4 note=52 velocity=80 time=12 actual_time=59460
type=note_on channel=4 note=45 velocity=80 time=0 actual_time=59460
type=note_on channel=4 note=45 velocity=0 time=48 actual_time=59508
type=note_on channel=4 note=52 velocity=0 time=0 actual_time=59508
type=note_on channel=4 note=54 velocity=80 time=12 actual_time=59520
type=note_on channel=4 note=59 velocity=80 time=0 actual_time=59520
type=note_on channel=4 note=47 velocity=80 time=0 actual_time=59520
type=note_on channel=4 note=47 velocity=0 time=936 actual_time=60456
type=note_on channel=4 note=59 velocity=0 time=0 actual_time=60456
type=note_on channel=4 note=54 velocity=0 time=0 actual_time=60456
type=note_on channel=4 note=43 velocity=80 time=24 actual_time=60480
type=note_on channel=4 note=50 velocity=80 time=0 actual_time=60480
type=note_on channel=4 note=55 velocity=80 time=0 actual_time=60480
type=note_on channel=4 note=55 velocity=0 time=408 actual_time=60888
type=note_on channel=4 note=50 velocity=0 time=0 actual_time=60888
type=note_on channel=4 note=43 velocity=0 time=0 actual_time=60888
type=note_on channel=4 note=43 velocity=80 time=12 actual_time=60900
type=note_on channel=4 note=50 velocity=80 time=0 actual_time=60900
type=note_on channel=4 note=50 velocity=0 time=48 actual_time=60948
type=note_on channel=4 note=43 velocity=0 time=0 actual_time=60948
type=note_on channel=4 note=45 velocity=80 time=12 actual_time=60960
type=note_on channel=4 note=52 velocity=80 time=0 actual_time=60960
type=note_on channel=4 note=57 velocity=80 time=0 actual_time=60960
type=note_on channel=4 note=57 velocity=0 time=468 actual_time=61428
type=note_on channel=4 note=52 velocity=0 time=0 actual_time=61428
type=note_on channel=4 note=45 velocity=0 time=0 actual_time=61428
type=note_on channel=4 note=47 velocity=80 time=12 actual_time=61440
type=note_on channel=4 note=54 velocity=80 time=0 actual_time=61440
type=note_on channel=4 note=59 velocity=80 time=0 actual_time=61440
type=note_on channel=4 note=59 velocity=0 time=7488 actual_time=68928
type=note_on channel=4 note=54 velocity=0 time=0 actual_time=68928
type=note_on channel=4 note=47 velocity=0 time=0 actual_time=68928
type=note_on channel=4 note=45 velocity=80 time=3792 actual_time=72720
type=note_on channel=4 note=52 velocity=80 time=0 actual_time=72720
type=note_on channel=4 note=52 velocity=0 time=32 actual_time=72752
type=note_on channel=4 note=45 velocity=0 time=0 actual_time=72752
type=note_on channel=4 note=45 velocity=80 time=8 actual_time=72760
type=note_on channel=4 note=52 velocity=80 time=0 actual_time=72760
type=note_on channel=4 note=52 velocity=0 time=32 actual_time=72792
type=note_on channel=4 note=45 velocity=0 time=0 actual_time=72792
type=note_on channel=4 note=45 velocity=80 time=8 actual_time=72800
type=note_on channel=4 note=52 velocity=80 time=0 actual_time=72800
type=note_on channel=4 note=52 velocity=0 time=32 actual_time=72832
type=note_on channel=4 note=45 velocity=0 time=0 actual_time=72832
type=note_on channel=4 note=45 velocity=80 time=8 actual_time=72840
type=note_on channel=4 note=52 velocity=80 time=0 actual_time=72840
type=note_on channel=4 note=52 velocity=0 time=32 actual_time=72872
type=note_on channel=4 note=45 velocity=0 time=0 actual_time=72872
type=note_on channel=4 note=52 velocity=80 time=8 actual_time=72880
type=note_on channel=4 note=45 velocity=80 time=0 actual_time=72880
type=note_on channel=4 note=45 velocity=0 time=32 actual_time=72912
type=note_on channel=4 note=52 velocity=0 time=0 actual_time=72912
type=note_on channel=4 note=52 velocity=80 time=8 actual_time=72920
type=note_on channel=4 note=45 velocity=80 time=0 actual_time=72920
type=note_on channel=4 note=45 velocity=0 time=32 actual_time=72952
type=note_on channel=4 note=52 velocity=0 time=0 actual_time=72952
type=note_on channel=4 note=47 velocity=80 time=8 actual_time=72960
type=note_on channel=4 note=59 velocity=80 time=0 actual_time=72960
type=note_on channel=4 note=54 velocity=80 time=0 actual_time=72960
type=note_on channel=4 note=54 velocity=0 time=96 actual_time=73056
type=note_on channel=4 note=59 velocity=0 time=0 actual_time=73056
type=note_on channel=4 note=47 velocity=0 time=0 actual_time=73056
type=note_on channel=4 note=47 velocity=80 time=24 actual_time=73080
type=note_on channel=4 note=54 velocity=80 time=0 actual_time=73080
type=note_on channel=4 note=54 velocity=0 time=48 actual_time=73128
type=note_on channel=4 note=47 velocity=0 time=0 actual_time=73128
type=note_on channel=4 note=47 velocity=80 time=12 actual_time=73140
type=note_on channel=4 note=54 velocity=80 time=0 actual_time=73140
type=note_on channel=4 note=54 velocity=0 time=48 actual_time=73188
type=note_on channel=4 note=47 velocity=0 time=0 actual_time=73188
type=note_on channel=4 note=54 velocity=80 time=12 actual_time=73200
type=note_on channel=4 note=59 velocity=80 time=0 actual_time=73200
type=note_on channel=4 note=47 velocity=80 time=0 actual_time=73200
type=note_on channel=4 note=47 velocity=0 time=96 actual_time=73296
type=note_on channel=4 note=59 velocity=0 time=0 actual_time=73296
type=note_on channel=4 note=54 velocity=0 time=0 actual_time=73296
type=note_on channel=4 note=54 velocity=80 time=24 actual_time=73320
type=note_on channel=4 note=47 velocity=80 time=0 actual_time=73320
type=note_on channel=4 note=47 velocity=0 time=48 actual_time=73368
type=note_on channel=4 note=54 velocity=0 time=0 actual_time=73368
type=note_on channel=4 note=54 velocity=80 time=12 actual_time=73380
type=note_on channel=4 note=47 velocity=80 time=0 actual_time=73380
type=note_on channel=4 note=47 velocity=0 time=48 actual_time=73428
type=note_on channel=4 note=54 velocity=0 time=0 actual_time=73428
type=note_on channel=4 note=54 velocity=80 time=12 actual_time=73440
type=note_on channel=4 note=59 velocity=80 time=0 actual_time=73440
type=note_on channel=4 note=47 velocity=80 time=0 actual_time=73440
type=note_on channel=4 note=47 velocity=0 time=96 actual_time=73536
type=note_on channel=4 note=59 velocity=0 time=0 actual_time=73536
type=note_on channel=4 note=54 velocity=0 time=0 actual_time=73536
type=note_on channel=4 note=54 velocity=80 time=24 actual_time=73560
type=note_on channel=4 note=47 velocity=80 time=0 actual_time=73560
type=note_on channel=4 note=47 velocity=0 time=48 actual_time=73608
type=note_on channel=4 note=54 velocity=0 time=0 actual_time=73608
type=note_on channel=4 note=54 velocity=80 time=12 actual_time=73620
type=note_on channel=4 note=47 velocity=80 time=0 actual_time=73620
type=note_on channel=4 note=47 velocity=0 time=48 actual_time=73668
type=note_on channel=4 note=54 velocity=0 time=0 actual_time=73668
type=note_on channel=4 note=54 velocity=80 time=12 actual_time=73680
type=note_on channel=4 note=59 velocity=80 time=0 actual_time=73680
type=note_on channel=4 note=47 velocity=80 time=0 actual_time=73680
type=note_on channel=4 note=47 velocity=0 time=96 actual_time=73776
type=note_on channel=4 note=59 velocity=0 time=0 actual_time=73776
type=note_on channel=4 note=54 velocity=0 time=0 actual_time=73776
type=note_on channel=4 note=54 velocity=80 time=24 actual_time=73800
type=note_on channel=4 note=47 velocity=80 time=0 actual_time=73800
type=note_on channel=4 note=47 velocity=0 time=48 actual_time=73848
type=note_on channel=4 note=54 velocity=0 time=0 actual_time=73848
type=note_on channel=4 note=54 velocity=80 time=12 actual_time=73860
type=note_on channel=4 note=47 velocity=80 time=0 actual_time=73860
type=note_on channel=4 note=47 velocity=0 time=48 actual_time=73908
type=note_on channel=4 note=54 velocity=0 time=0 actual_time=73908
type=note_on channel=4 note=50 velocity=80 time=12 actual_time=73920
type=note_on channel=4 note=55 velocity=80 time=0 actual_time=73920
type=note_on channel=4 note=43 velocity=80 time=0 actual_time=73920
type=note_on channel=4 note=43 velocity=0 time=96 actual_time=74016
type=note_on channel=4 note=55 velocity=0 time=0 actual_time=74016
type=note_on channel=4 note=50 velocity=0 time=0 actual_time=74016
type=note_on channel=4 note=50 velocity=80 time=24 actual_time=74040
type=note_on channel=4 note=43 velocity=80 time=0 actual_time=74040
type=note_on channel=4 note=43 velocity=0 time=48 actual_time=74088
type=note_on channel=4 note=50 velocity=0 time=0 actual_time=74088
type=note_on channel=4 note=50 velocity=80 time=12 actual_time=74100
type=note_on channel=4 note=43 velocity=80 time=0 actual_time=74100
type=note_on channel=4 note=43 velocity=0 time=48 actual_time=74148
type=note_on channel=4 note=50 velocity=0 time=0 actual_time=74148
type=note_on channel=4 note=50 velocity=80 time=12 actual_time=74160
type=note_on channel=4 note=55 velocity=80 time=0 actual_time=74160
type=note_on channel=4 note=43 velocity=80 time=0 actual_time=74160
type=note_on channel=4 note=43 velocity=0 time=96 actual_time=74256
type=note_on channel=4 note=55 velocity=0 time=0 actual_time=74256
type=note_on channel=4 note=50 velocity=0 time=0 actual_time=74256
type=note_on channel=4 note=50 velocity=80 time=24 actual_time=74280
type=note_on channel=4 note=43 velocity=80 time=0 actual_time=74280
type=note_on channel=4 note=43 velocity=0 time=48 actual_time=74328
type=note_on channel=4 note=50 velocity=0 time=0 actual_time=74328
type=note_on channel=4 note=50 velocity=80 time=12 actual_time=74340
type=note_on channel=4 note=43 velocity=80 time=0 actual_time=74340
type=note_on channel=4 note=43 velocity=0 time=48 actual_time=74388
type=note_on channel=4 note=50 velocity=0 time=0 actual_time=74388
type=note_on channel=4 note=52 velocity=80 time=12 actual_time=74400
type=note_on channel=4 note=57 velocity=80 time=0 actual_time=74400
type=note_on channel=4 note=45 velocity=80 time=0 actual_time=74400
type=note_on channel=4 note=45 velocity=0 time=96 actual_time=74496
type=note_on channel=4 note=57 velocity=0 time=0 actual_time=74496
type=note_on channel=4 note=52 velocity=0 time=0 actual_time=74496
type=note_on channel=4 note=52 velocity=80 time=24 actual_time=74520
type=note_on channel=4 note=45 velocity=80 time=0 actual_time=74520
type=note_on channel=4 note=45 velocity=0 time=48 actual_time=74568
type=note_on channel=4 note=52 velocity=0 time=0 actual_time=74568
type=note_on channel=4 note=52 velocity=80 time=12 actual_time=74580
type=note_on channel=4 note=45 velocity=80 time=0 actual_time=74580
type=note_on channel=4 note=45 velocity=0 time=48 actual_time=74628
type=note_on channel=4 note=52 velocity=0 time=0 actual_time=74628
type=note_on channel=4 note=52 velocity=80 time=12 actual_time=74640
type=note_on channel=4 note=57 velocity=80 time=0 actual_time=74640
type=note_on channel=4 note=45 velocity=80 time=0 actual_time=74640
type=note_on channel=4 note=45 velocity=0 time=96 actual_time=74736
type=note_on channel=4 note=57 velocity=0 time=0 actual_time=74736
type=note_on channel=4 note=52 velocity=0 time=0 actual_time=74736
type=note_on channel=4 note=52 velocity=80 time=24 actual_time=74760
type=note_on channel=4 note=45 velocity=80 time=0 actual_time=74760
type=note_on channel=4 note=45 velocity=0 time=48 actual_time=74808
type=note_on channel=4 note=52 velocity=0 time=0 actual_time=74808
type=note_on channel=4 note=52 velocity=80 time=12 actual_time=74820
type=note_on channel=4 note=45 velocity=80 time=0 actual_time=74820
type=note_on channel=4 note=45 velocity=0 time=48 actual_time=74868
type=note_on channel=4 note=52 velocity=0 time=0 actual_time=74868
type=note_on channel=4 note=54 velocity=80 time=12 actual_time=74880
type=note_on channel=4 note=59 velocity=80 time=0 actual_time=74880
type=note_on channel=4 note=47 velocity=80 time=0 actual_time=74880
type=note_on channel=4 note=47 velocity=0 time=96 actual_time=74976
type=note_on channel=4 note=59 velocity=0 time=0 actual_time=74976
type=note_on channel=4 note=54 velocity=0 time=0 actual_time=74976
type=note_on channel=4 note=59 velocity=80 time=24 actual_time=75000
type=note_on channel=4 note=54 velocity=80 time=0 actual_time=75000
type=note_on channel=4 note=47 velocity=80 time=0 actual_time=75000
type=note_on channel=4 note=47 velocity=0 time=48 actual_time=75048
type=note_on channel=4 note=54 velocity=0 time=0 actual_time=75048
type=note_on channel=4 note=59 velocity=0 time=0 actual_time=75048
type=note_on channel=4 note=54 velocity=80 time=12 actual_time=75060
type=note_on channel=4 note=59 velocity=80 time=0 actual_time=75060
type=note_on channel=4 note=47 velocity=80 time=0 actual_time=75060
type=note_on channel=4 note=47 velocity=0 time=48 actual_time=75108
type=note_on channel=4 note=59 velocity=0 time=0 actual_time=75108
type=note_on channel=4 note=54 velocity=0 time=0 actual_time=75108
type=note_on channel=4 note=47 velocity=80 time=12 actual_time=75120
type=note_on channel=4 note=59 velocity=80 time=0 actual_time=75120
type=note_on channel=4 note=54 velocity=80 time=0 actual_time=75120
type=note_on channel=4 note=54 velocity=0 time=96 actual_time=75216
type=note_on channel=4 note=59 velocity=0 time=0 actual_time=75216
type=note_on channel=4 note=47 velocity=0 time=0 actual_time=75216
type=note_on channel=4 note=47 velocity=80 time=24 actual_time=75240
type=note_on channel=4 note=54 velocity=80 time=0 actual_time=75240
type=note_on channel=4 note=59 velocity=80 time=0 actual_time=75240
type=note_on channel=4 note=59 velocity=0 time=48 actual_time=75288
type=note_on channel=4 note=54 velocity=0 time=0 actual_time=75288
type=note_on channel=4 note=47 velocity=0 time=0 actual_time=75288
type=note_on channel=4 note=47 velocity=80 time=12 actual_time=75300
type=note_on channel=4 note=59 velocity=80 time=0 actual_time=75300
type=note_on channel=4 note=54 velocity=80 time=0 actual_time=75300
type=note_on channel=4 note=54 velocity=0 time=48 actual_time=75348
type=note_on channel=4 note=59 velocity=0 time=0 actual_time=75348
type=note_on channel=4 note=47 velocity=0 time=0 actual_time=75348
type=note_on channel=4 note=47 velocity=80 time=12 actual_time=75360
type=note_on channel=4 note=59 velocity=80 time=0 actual_time=75360
type=note_on channel=4 note=54 velocity=80 time=0 actual_time=75360
type=note_on channel=4 note=54 velocity=0 time=96 actual_time=75456
type=note_on channel=4 note=59 velocity=0 time=0 actual_time=75456
type=note_on channel=4 note=47 velocity=0 time=0 actual_time=75456
type=note_on channel=4 note=47 velocity=80 time=24 actual_time=75480
type=note_on channel=4 note=54 velocity=80 time=0 actual_time=75480
type=note_on channel=4 note=59 velocity=80 time=0 actual_time=75480
type=note_on channel=4 note=59 velocity=0 time=48 actual_time=75528
type=note_on channel=4 note=54 velocity=0 time=0 actual_time=75528
type=note_on channel=4 note=47 velocity=0 time=0 actual_time=75528
type=note_on channel=4 note=47 velocity=80 time=12 actual_time=75540
type=note_on channel=4 note=59 velocity=80 time=0 actual_time=75540
type=note_on channel=4 note=54 velocity=80 time=0 actual_time=75540
type=note_on channel=4 note=54 velocity=0 time=48 actual_time=75588
type=note_on channel=4 note=59 velocity=0 time=0 actual_time=75588
type=note_on channel=4 note=47 velocity=0 time=0 actual_time=75588
type=note_on channel=4 note=47 velocity=80 time=12 actual_time=75600
type=note_on channel=4 note=59 velocity=80 time=0 actual_time=75600
type=note_on channel=4 note=54 velocity=80 time=0 actual_time=75600
type=note_on channel=4 note=54 velocity=0 time=96 actual_time=75696
type=note_on channel=4 note=59 velocity=0 time=0 actual_time=75696
type=note_on channel=4 note=47 velocity=0 time=0 actual_time=75696
type=note_on channel=4 note=47 velocity=80 time=24 actual_time=75720
type=note_on channel=4 note=54 velocity=80 time=0 actual_time=75720
type=note_on channel=4 note=59 velocity=80 time=0 actual_time=75720
type=note_on channel=4 note=59 velocity=0 time=48 actual_time=75768
type=note_on channel=4 note=54 velocity=0 time=0 actual_time=75768
type=note_on channel=4 note=47 velocity=0 time=0 actual_time=75768
type=note_on channel=4 note=47 velocity=80 time=12 actual_time=75780
type=note_on channel=4 note=59 velocity=80 time=0 actual_time=75780
type=note_on channel=4 note=54 velocity=80 time=0 actual_time=75780
type=note_on channel=4 note=54 velocity=0 time=48 actual_time=75828
type=note_on channel=4 note=59 velocity=0 time=0 actual_time=75828
type=note_on channel=4 note=47 velocity=0 time=0 actual_time=75828
type=note_on channel=4 note=40 velocity=80 time=12 actual_time=75840
type=note_on channel=4 note=52 velocity=80 time=0 actual_time=75840
type=note_on channel=4 note=47 velocity=80 time=0 actual_time=75840
type=note_on channel=4 note=47 velocity=0 time=96 actual_time=75936
type=note_on channel=4 note=52 velocity=0 time=0 actual_time=75936
type=note_on channel=4 note=40 velocity=0 time=0 actual_time=75936
type=note_on channel=4 note=40 velocity=80 time=24 actual_time=75960
type=note_on channel=4 note=47 velocity=80 time=0 actual_time=75960
type=note_on channel=4 note=52 velocity=80 time=0 actual_time=75960
type=note_on channel=4 note=52 velocity=0 time=48 actual_time=76008
type=note_on channel=4 note=47 velocity=0 time=0 actual_time=76008
type=note_on channel=4 note=40 velocity=0 time=0 actual_time=76008
type=note_on channel=4 note=40 velocity=80 time=12 actual_time=76020
type=note_on channel=4 note=52 velocity=80 time=0 actual_time=76020
type=note_on channel=4 note=47 velocity=80 time=0 actual_time=76020
type=note_on channel=4 note=47 velocity=0 time=48 actual_time=76068
type=note_on channel=4 note=52 velocity=0 time=0 actual_time=76068
type=note_on channel=4 note=40 velocity=0 time=0 actual_time=76068
type=note_on channel=4 note=40 velocity=80 time=12 actual_time=76080
type=note_on channel=4 note=52 velocity=80 time=0 actual_time=76080
type=note_on channel=4 note=47 velocity=80 time=0 actual_time=76080
type=note_on channel=4 note=47 velocity=0 time=96 actual_time=76176
type=note_on channel=4 note=52 velocity=0 time=0 actual_time=76176
type=note_on channel=4 note=40 velocity=0 time=0 actual_time=76176
type=note_on channel=4 note=40 velocity=80 time=24 actual_time=76200
type=note_on channel=4 note=47 velocity=80 time=0 actual_time=76200
type=note_on channel=4 note=52 velocity=80 time=0 actual_time=76200
type=note_on channel=4 note=52 velocity=0 time=48 actual_time=76248
type=note_on channel=4 note=47 velocity=0 time=0 actual_time=76248
type=note_on channel=4 note=40 velocity=0 time=0 actual_time=76248
type=note_on channel=4 note=40 velocity=80 time=12 actual_time=76260
type=note_on channel=4 note=52 velocity=80 time=0 actual_time=76260
type=note_on channel=4 note=47 velocity=80 time=0 actual_time=76260
type=note_on channel=4 note=47 velocity=0 time=48 actual_time=76308
type=note_on channel=4 note=52 velocity=0 time=0 actual_time=76308
type=note_on channel=4 note=40 velocity=0 time=0 actual_time=76308
type=note_on channel=4 note=42 velocity=80 time=12 actual_time=76320
type=note_on channel=4 note=54 velocity=80 time=0 actual_time=76320
type=note_on channel=4 note=49 velocity=80 time=0 actual_time=76320
type=note_on channel=4 note=49 velocity=0 time=96 actual_time=76416
type=note_on channel=4 note=54 velocity=0 time=0 actual_time=76416
type=note_on channel=4 note=42 velocity=0 time=0 actual_time=76416
type=note_on channel=4 note=42 velocity=80 time=24 actual_time=76440
type=note_on channel=4 note=49 velocity=80 time=0 actual_time=76440
type=note_on channel=4 note=54 velocity=80 time=0 actual_time=76440
type=note_on channel=4 note=54 velocity=0 time=48 actual_time=76488
type=note_on channel=4 note=49 velocity=0 time=0 actual_time=76488
type=note_on channel=4 note=42 velocity=0 time=0 actual_time=76488
type=note_on channel=4 note=42 velocity=80 time=12 actual_time=76500
type=note_on channel=4 note=54 velocity=80 time=0 actual_time=76500
type=note_on channel=4 note=49 velocity=80 time=0 actual_time=76500
type=note_on channel=4 note=49 velocity=0 time=48 actual_time=76548
type=note_on channel=4 note=54 velocity=0 time=0 actual_time=76548
type=note_on channel=4 note=42 velocity=0 time=0 actual_time=76548
type=note_on channel=4 note=42 velocity=80 time=12 actual_time=76560
type=note_on channel=4 note=54 velocity=80 time=0 actual_time=76560
type=note_on channel=4 note=49 velocity=80 time=0 actual_time=76560
type=note_on channel=4 note=49 velocity=0 time=96 actual_time=76656
type=note_on channel=4 note=54 velocity=0 time=0 actual_time=76656
type=note_on channel=4 note=42 velocity=0 time=0 actual_time=76656
type=note_on channel=4 note=42 velocity=80 time=24 actual_time=76680
type=note_on channel=4 note=49 velocity=80 time=0 actual_time=76680
type=note_on channel=4 note=54 velocity=80 time=0 actual_time=76680
type=note_on channel=4 note=54 velocity=0 time=48 actual_time=76728
type=note_on channel=4 note=49 velocity=0 time=0 actual_time=76728
type=note_on channel=4 note=42 velocity=0 time=0 actual_time=76728
type=note_on channel=4 note=42 velocity=80 time=12 actual_time=76740
type=note_on channel=4 note=54 velocity=80 time=0 actual_time=76740
type=note_on channel=4 note=49 velocity=80 time=0 actual_time=76740
type=note_on channel=4 note=49 velocity=0 time=48 actual_time=76788
type=note_on channel=4 note=54 velocity=0 time=0 actual_time=76788
type=note_on channel=4 note=42 velocity=0 time=0 actual_time=76788
type=note_on channel=4 note=54 velocity=80 time=12 actual_time=76800
type=note_on channel=4 note=59 velocity=80 time=0 actual_time=76800
type=note_on channel=4 note=47 velocity=80 time=0 actual_time=76800
type=note_on channel=4 note=47 velocity=0 time=96 actual_time=76896
type=note_on channel=4 note=59 velocity=0 time=0 actual_time=76896
type=note_on channel=4 note=54 velocity=0 time=0 actual_time=76896
type=note_on channel=4 note=54 velocity=80 time=24 actual_time=76920
type=note_on channel=4 note=47 velocity=80 time=0 actual_time=76920
type=note_on channel=4 note=47 velocity=0 time=48 actual_time=76968
type=note_on channel=4 note=54 velocity=0 time=0 actual_time=76968
type=note_on channel=4 note=54 velocity=80 time=12 actual_time=76980
type=note_on channel=4 note=47 velocity=80 time=0 actual_time=76980
type=note_on channel=4 note=47 velocity=0 time=48 actual_time=77028
type=note_on channel=4 note=54 velocity=0 time=0 actual_time=77028
type=note_on channel=4 note=47 velocity=80 time=12 actual_time=77040
type=note_on channel=4 note=59 velocity=80 time=0 actual_time=77040
type=note_on channel=4 note=54 velocity=80 time=0 actual_time=77040
type=note_on channel=4 note=54 velocity=0 time=96 actual_time=77136
type=note_on channel=4 note=59 velocity=0 time=0 actual_time=77136
type=note_on channel=4 note=47 velocity=0 time=0 actual_time=77136
type=note_on channel=4 note=47 velocity=80 time=24 actual_time=77160
type=note_on channel=4 note=54 velocity=80 time=0 actual_time=77160
type=note_on channel=4 note=54 velocity=0 time=48 actual_time=77208
type=note_on channel=4 note=47 velocity=0 time=0 actual_time=77208
type=note_on channel=4 note=47 velocity=80 time=12 actual_time=77220
type=note_on channel=4 note=54 velocity=80 time=0 actual_time=77220
type=note_on channel=4 note=54 velocity=0 time=48 actual_time=77268
type=note_on channel=4 note=47 velocity=0 time=0 actual_time=77268
type=note_on channel=4 note=47 velocity=80 time=12 actual_time=77280
type=note_on channel=4 note=59 velocity=80 time=0 actual_time=77280
type=note_on channel=4 note=54 velocity=80 time=0 actual_time=77280
type=note_on channel=4 note=54 velocity=0 time=96 actual_time=77376
type=note_on channel=4 note=59 velocity=0 time=0 actual_time=77376
type=note_on channel=4 note=47 velocity=0 time=0 actual_time=77376
type=note_on channel=4 note=47 velocity=80 time=24 actual_time=77400
type=note_on channel=4 note=54 velocity=80 time=0 actual_time=77400
type=note_on channel=4 note=54 velocity=0 time=48 actual_time=77448
type=note_on channel=4 note=47 velocity=0 time=0 actual_time=77448
type=note_on channel=4 note=47 velocity=80 time=12 actual_time=77460
type=note_on channel=4 note=54 velocity=80 time=0 actual_time=77460
type=note_on channel=4 note=54 velocity=0 time=48 actual_time=77508
type=note_on channel=4 note=47 velocity=0 time=0 actual_time=77508
type=note_on channel=4 note=47 velocity=80 time=12 actual_time=77520
type=note_on channel=4 note=59 velocity=80 time=0 actual_time=77520
type=note_on channel=4 note=54 velocity=80 time=0 actual_time=77520
type=note_on channel=4 note=54 velocity=0 time=96 actual_time=77616
type=note_on channel=4 note=59 velocity=0 time=0 actual_time=77616
type=note_on channel=4 note=47 velocity=0 time=0 actual_time=77616
type=note_on channel=4 note=47 velocity=80 time=24 actual_time=77640
type=note_on channel=4 note=54 velocity=80 time=0 actual_time=77640
type=note_on channel=4 note=54 velocity=0 time=48 actual_time=77688
type=note_on channel=4 note=47 velocity=0 time=0 actual_time=77688
type=note_on channel=4 note=47 velocity=80 time=12 actual_time=77700
type=note_on channel=4 note=54 velocity=80 time=0 actual_time=77700
type=note_on channel=4 note=54 velocity=0 time=48 actual_time=77748
type=note_on channel=4 note=47 velocity=0 time=0 actual_time=77748
type=note_on channel=4 note=43 velocity=80 time=12 actual_time=77760
type=note_on channel=4 note=55 velocity=80 time=0 actual_time=77760
type=note_on channel=4 note=50 velocity=80 time=0 actual_time=77760
type=note_on channel=4 note=50 velocity=0 time=96 actual_time=77856
type=note_on channel=4 note=55 velocity=0 time=0 actual_time=77856
type=note_on channel=4 note=43 velocity=0 time=0 actual_time=77856
type=note_on channel=4 note=43 velocity=80 time=24 actual_time=77880
type=note_on channel=4 note=50 velocity=80 time=0 actual_time=77880
type=note_on channel=4 note=50 velocity=0 time=48 actual_time=77928
type=note_on channel=4 note=43 velocity=0 time=0 actual_time=77928
type=note_on channel=4 note=43 velocity=80 time=12 actual_time=77940
type=note_on channel=4 note=50 velocity=80 time=0 actual_time=77940
type=note_on channel=4 note=50 velocity=0 time=48 actual_time=77988
type=note_on channel=4 note=43 velocity=0 time=0 actual_time=77988
type=note_on channel=4 note=43 velocity=80 time=12 actual_time=78000
type=note_on channel=4 note=55 velocity=80 time=0 actual_time=78000
type=note_on channel=4 note=50 velocity=80 time=0 actual_time=78000
type=note_on channel=4 note=50 velocity=0 time=96 actual_time=78096
type=note_on channel=4 note=55 velocity=0 time=0 actual_time=78096
type=note_on channel=4 note=43 velocity=0 time=0 actual_time=78096
type=note_on channel=4 note=43 velocity=80 time=24 actual_time=78120
type=note_on channel=4 note=50 velocity=80 time=0 actual_time=78120
type=note_on channel=4 note=50 velocity=0 time=48 actual_time=78168
type=note_on channel=4 note=43 velocity=0 time=0 actual_time=78168
type=note_on channel=4 note=43 velocity=80 time=12 actual_time=78180
type=note_on channel=4 note=50 velocity=80 time=0 actual_time=78180
type=note_on channel=4 note=50 velocity=0 time=48 actual_time=78228
type=note_on channel=4 note=43 velocity=0 time=0 actual_time=78228
type=note_on channel=4 note=45 velocity=80 time=12 actual_time=78240
type=note_on channel=4 note=57 velocity=80 time=0 actual_time=78240
type=note_on channel=4 note=52 velocity=80 time=0 actual_time=78240
type=note_on channel=4 note=52 velocity=0 time=96 actual_time=78336
type=note_on channel=4 note=57 velocity=0 time=0 actual_time=78336
type=note_on channel=4 note=45 velocity=0 time=0 actual_time=78336
type=note_on channel=4 note=45 velocity=80 time=24 actual_time=78360
type=note_on channel=4 note=52 velocity=80 time=0 actual_time=78360
type=note_on channel=4 note=52 velocity=0 time=48 actual_time=78408
type=note_on channel=4 note=45 velocity=0 time=0 actual_time=78408
type=note_on channel=4 note=45 velocity=80 time=12 actual_time=78420
type=note_on channel=4 note=52 velocity=80 time=0 actual_time=78420
type=note_on channel=4 note=52 velocity=0 time=48 actual_time=78468
type=note_on channel=4 note=45 velocity=0 time=0 actual_time=78468
type=note_on channel=4 note=45 velocity=80 time=12 actual_time=78480
type=note_on channel=4 note=57 velocity=80 time=0 actual_time=78480
type=note_on channel=4 note=52 velocity=80 time=0 actual_time=78480
type=note_on channel=4 note=52 velocity=0 time=96 actual_time=78576
type=note_on channel=4 note=57 velocity=0 time=0 actual_time=78576
type=note_on channel=4 note=45 velocity=0 time=0 actual_time=78576
type=note_on channel=4 note=45 velocity=80 time=24 actual_time=78600
type=note_on channel=4 note=52 velocity=80 time=0 actual_time=78600
type=note_on channel=4 note=52 velocity=0 time=48 actual_time=78648
type=note_on channel=4 note=45 velocity=0 time=0 actual_time=78648
type=note_on channel=4 note=45 velocity=80 time=12 actual_time=78660
type=note_on channel=4 note=52 velocity=80 time=0 actual_time=78660
type=note_on channel=4 note=52 velocity=0 time=48 actual_time=78708
type=note_on channel=4 note=45 velocity=0 time=0 actual_time=78708
type=note_on channel=4 note=54 velocity=80 time=12 actual_time=78720
type=note_on channel=4 note=59 velocity=80 time=0 actual_time=78720
type=note_on channel=4 note=47 velocity=80 time=0 actual_time=78720
type=note_on channel=4 note=47 velocity=0 time=96 actual_time=78816
type=note_on channel=4 note=59 velocity=0 time=0 actual_time=78816
type=note_on channel=4 note=54 velocity=0 time=0 actual_time=78816
type=note_on channel=4 note=54 velocity=80 time=24 actual_time=78840
type=note_on channel=4 note=47 velocity=80 time=0 actual_time=78840
type=note_on channel=4 note=47 velocity=0 time=48 actual_time=78888
type=note_on channel=4 note=54 velocity=0 time=0 actual_time=78888
type=note_on channel=4 note=54 velocity=80 time=12 actual_time=78900
type=note_on channel=4 note=47 velocity=80 time=0 actual_time=78900
type=note_on channel=4 note=47 velocity=0 time=48 actual_time=78948
type=note_on channel=4 note=54 velocity=0 time=0 actual_time=78948
type=note_on channel=4 note=47 velocity=80 time=12 actual_time=78960
type=note_on channel=4 note=59 velocity=80 time=0 actual_time=78960
type=note_on channel=4 note=54 velocity=80 time=0 actual_time=78960
type=note_on channel=4 note=54 velocity=0 time=96 actual_time=79056
type=note_on channel=4 note=59 velocity=0 time=0 actual_time=79056
type=note_on channel=4 note=47 velocity=0 time=0 actual_time=79056
type=note_on channel=4 note=47 velocity=80 time=24 actual_time=79080
type=note_on channel=4 note=54 velocity=80 time=0 actual_time=79080
type=note_on channel=4 note=54 velocity=0 time=48 actual_time=79128
type=note_on channel=4 note=47 velocity=0 time=0 actual_time=79128
type=note_on channel=4 note=47 velocity=80 time=12 actual_time=79140
type=note_on channel=4 note=54 velocity=80 time=0 actual_time=79140
type=note_on channel=4 note=54 velocity=0 time=48 actual_time=79188
type=note_on channel=4 note=47 velocity=0 time=0 actual_time=79188
type=note_on channel=4 note=47 velocity=80 time=12 actual_time=79200
type=note_on channel=4 note=59 velocity=80 time=0 actual_time=79200
type=note_on channel=4 note=54 velocity=80 time=0 actual_time=79200
type=note_on channel=4 note=54 velocity=0 time=96 actual_time=79296
type=note_on channel=4 note=59 velocity=0 time=0 actual_time=79296
type=note_on channel=4 note=47 velocity=0 time=0 actual_time=79296
type=note_on channel=4 note=47 velocity=80 time=24 actual_time=79320
type=note_on channel=4 note=54 velocity=80 time=0 actual_time=79320
type=note_on channel=4 note=54 velocity=0 time=48 actual_time=79368
type=note_on channel=4 note=47 velocity=0 time=0 actual_time=79368
type=note_on channel=4 note=47 velocity=80 time=12 actual_time=79380
type=note_on channel=4 note=54 velocity=80 time=0 actual_time=79380
type=note_on channel=4 note=54 velocity=0 time=48 actual_time=79428
type=note_on channel=4 note=47 velocity=0 time=0 actual_time=79428
type=note_on channel=4 note=47 velocity=80 time=12 actual_time=79440
type=note_on channel=4 note=59 velocity=80 time=0 actual_time=79440
type=note_on channel=4 note=54 velocity=80 time=0 actual_time=79440
type=note_on channel=4 note=54 velocity=0 time=96 actual_time=79536
type=note_on channel=4 note=59 velocity=0 time=0 actual_time=79536
type=note_on channel=4 note=47 velocity=0 time=0 actual_time=79536
type=note_on channel=4 note=47 velocity=80 time=24 actual_time=79560
type=note_on channel=4 note=54 velocity=80 time=0 actual_time=79560
type=note_on channel=4 note=54 velocity=0 time=48 actual_time=79608
type=note_on channel=4 note=47 velocity=0 time=0 actual_time=79608
type=note_on channel=4 note=47 velocity=80 time=12 actual_time=79620
type=note_on channel=4 note=54 velocity=80 time=0 actual_time=79620
type=note_on channel=4 note=54 velocity=0 time=48 actual_time=79668
type=note_on channel=4 note=47 velocity=0 time=0 actual_time=79668
type=note_on channel=4 note=47 velocity=80 time=12 actual_time=79680
type=note_on channel=4 note=52 velocity=80 time=0 actual_time=79680
type=note_on channel=4 note=40 velocity=80 time=0 actual_time=79680
type=note_on channel=4 note=40 velocity=0 time=96 actual_time=79776
type=note_on channel=4 note=52 velocity=0 time=0 actual_time=79776
type=note_on channel=4 note=47 velocity=0 time=0 actual_time=79776
type=note_on channel=4 note=47 velocity=80 time=24 actual_time=79800
type=note_on channel=4 note=40 velocity=80 time=0 actual_time=79800
type=note_on channel=4 note=52 velocity=80 time=0 actual_time=79800
type=note_on channel=4 note=52 velocity=0 time=96 actual_time=79896
type=note_on channel=4 note=40 velocity=0 time=0 actual_time=79896
type=note_on channel=4 note=47 velocity=0 time=0 actual_time=79896
type=note_on channel=4 note=40 velocity=80 time=24 actual_time=79920
type=note_on channel=4 note=52 velocity=80 time=0 actual_time=79920
type=note_on channel=4 note=47 velocity=80 time=0 actual_time=79920
type=note_on channel=4 note=47 velocity=0 time=96 actual_time=80016
type=note_on channel=4 note=52 velocity=0 time=0 actual_time=80016
type=note_on channel=4 note=40 velocity=0 time=0 actual_time=80016
type=note_on channel=4 note=52 velocity=80 time=24 actual_time=80040
type=note_on channel=4 note=47 velocity=80 time=0 actual_time=80040
type=note_on channel=4 note=40 velocity=80 time=0 actual_time=80040
type=note_on channel=4 note=40 velocity=0 time=96 actual_time=80136
type=note_on channel=4 note=47 velocity=0 time=0 actual_time=80136
type=note_on channel=4 note=52 velocity=0 time=0 actual_time=80136
type=note_on channel=4 note=49 velocity=80 time=24 actual_time=80160
type=note_on channel=4 note=54 velocity=80 time=0 actual_time=80160
type=note_on channel=4 note=42 velocity=80 time=0 actual_time=80160
type=note_on channel=4 note=42 velocity=0 time=96 actual_time=80256
type=note_on channel=4 note=54 velocity=0 time=0 actual_time=80256
type=note_on channel=4 note=49 velocity=0 time=0 actual_time=80256
type=note_on channel=4 note=49 velocity=80 time=24 actual_time=80280
type=note_on channel=4 note=42 velocity=80 time=0 actual_time=80280
type=note_on channel=4 note=54 velocity=80 time=0 actual_time=80280
type=note_on channel=4 note=54 velocity=0 time=96 actual_time=80376
type=note_on channel=4 note=42 velocity=0 time=0 actual_time=80376
type=note_on channel=4 note=49 velocity=0 time=0 actual_time=80376
type=note_on channel=4 note=42 velocity=80 time=24 actual_time=80400
type=note_on channel=4 note=54 velocity=80 time=0 actual_time=80400
type=note_on channel=4 note=49 velocity=80 time=0 actual_time=80400
type=note_on channel=4 note=49 velocity=0 time=96 actual_time=80496
type=note_on channel=4 note=54 velocity=0 time=0 actual_time=80496
type=note_on channel=4 note=42 velocity=0 time=0 actual_time=80496
type=note_on channel=4 note=54 velocity=80 time=24 actual_time=80520
type=note_on channel=4 note=49 velocity=80 time=0 actual_time=80520
type=note_on channel=4 note=42 velocity=80 time=0 actual_time=80520
type=note_on channel=4 note=42 velocity=0 time=96 actual_time=80616
type=note_on channel=4 note=49 velocity=0 time=0 actual_time=80616
type=note_on channel=4 note=54 velocity=0 time=0 actual_time=80616
type=note_on channel=4 note=47 velocity=80 time=24 actual_time=80640
type=note_on channel=4 note=59 velocity=80 time=0 actual_time=80640
type=note_on channel=4 note=54 velocity=80 time=0 actual_time=80640
type=note_on channel=4 note=54 velocity=0 time=936 actual_time=81576
type=note_on channel=4 note=59 velocity=0 time=0 actual_time=81576
type=note_on channel=4 note=47 velocity=0 time=0 actual_time=81576
type=note_on channel=4 note=55 velocity=80 time=24 actual_time=81600
type=note_on channel=4 note=50 velocity=80 time=0 actual_time=81600
type=note_on channel=4 note=43 velocity=80 time=0 actual_time=81600
type=note_on channel=4 note=43 velocity=0 time=408 actual_time=82008
type=note_on channel=4 note=50 velocity=0 time=0 actual_time=82008
type=note_on channel=4 note=55 velocity=0 time=0 actual_time=82008
type=note_on channel=4 note=43 velocity=80 time=12 actual_time=82020
type=note_on channel=4 note=50 velocity=80 time=0 actual_time=82020
type=note_on channel=4 note=50 velocity=0 time=48 actual_time=82068
type=note_on channel=4 note=43 velocity=0 time=0 actual_time=82068
type=note_on channel=4 note=57 velocity=80 time=12 actual_time=82080
type=note_on channel=4 note=52 velocity=80 time=0 actual_time=82080
type=note_on channel=4 note=45 velocity=80 time=0 actual_time=82080
type=note_on channel=4 note=45 velocity=0 time=408 actual_time=82488
type=note_on channel=4 note=52 velocity=0 time=0 actual_time=82488
type=note_on channel=4 note=57 velocity=0 time=0 actual_time=82488
type=note_on channel=4 note=52 velocity=80 time=12 actual_time=82500
type=note_on channel=4 note=45 velocity=80 time=0 actual_time=82500
type=note_on channel=4 note=45 velocity=0 time=48 actual_time=82548
type=note_on channel=4 note=52 velocity=0 time=0 actual_time=82548
type=note_on channel=4 note=54 velocity=80 time=12 actual_time=82560
type=note_on channel=4 note=59 velocity=80 time=0 actual_time=82560
type=note_on channel=4 note=47 velocity=80 time=0 actual_time=82560
type=note_on channel=4 note=47 velocity=0 time=936 actual_time=83496
type=note_on channel=4 note=59 velocity=0 time=0 actual_time=83496
type=note_on channel=4 note=54 velocity=0 time=0 actual_time=83496
type=note_on channel=4 note=43 velocity=80 time=24 actual_time=83520
type=note_on channel=4 note=50 velocity=80 time=0 actual_time=83520
type=note_on channel=4 note=55 velocity=80 time=0 actual_time=83520
type=note_on channel=4 note=55 velocity=0 time=408 actual_time=83928
type=note_on channel=4 note=50 velocity=0 time=0 actual_time=83928
type=note_on channel=4 note=43 velocity=0 time=0 actual_time=83928
type=note_on channel=4 note=43 velocity=80 time=12 actual_time=83940
type=note_on channel=4 note=50 velocity=80 time=0 actual_time=83940
type=note_on channel=4 note=50 velocity=0 time=48 actual_time=83988
type=note_on channel=4 note=43 velocity=0 time=0 actual_time=83988
type=note_on channel=4 note=45 velocity=80 time=12 actual_time=84000
type=note_on channel=4 note=52 velocity=80 time=0 actual_time=84000
type=note_on channel=4 note=57 velocity=80 time=0 actual_time=84000
type=note_on channel=4 note=57 velocity=0 time=408 actual_time=84408
type=note_on channel=4 note=52 velocity=0 time=0 actual_time=84408
type=note_on channel=4 note=45 velocity=0 time=0 actual_time=84408
type=note_on channel=4 note=45 velocity=80 time=12 actual_time=84420
type=note_on channel=4 note=52 velocity=80 time=0 actual_time=84420
type=note_on channel=4 note=52 velocity=0 time=48 actual_time=84468
type=note_on channel=4 note=45 velocity=0 time=0 actual_time=84468
type=note_on channel=4 note=54 velocity=80 time=12 actual_time=84480
type=note_on channel=4 note=59 velocity=80 time=0 actual_time=84480
type=note_on channel=4 note=47 velocity=80 time=0 actual_time=84480
type=note_on channel=4 note=47 velocity=0 time=936 actual_time=85416
type=note_on channel=4 note=59 velocity=0 time=0 actual_time=85416
type=note_on channel=4 note=54 velocity=0 time=0 actual_time=85416
type=note_on channel=4 note=43 velocity=80 time=24 actual_time=85440
type=note_on channel=4 note=50 velocity=80 time=0 actual_time=85440
type=note_on channel=4 note=55 velocity=80 time=0 actual_time=85440
type=note_on channel=4 note=55 velocity=0 time=408 actual_time=85848
type=note_on channel=4 note=50 velocity=0 time=0 actual_time=85848
type=note_on channel=4 note=43 velocity=0 time=0 actual_time=85848
type=note_on channel=4 note=43 velocity=80 time=12 actual_time=85860
type=note_on channel=4 note=50 velocity=80 time=0 actual_time=85860
type=note_on channel=4 note=50 velocity=0 time=48 actual_time=85908
type=note_on channel=4 note=43 velocity=0 time=0 actual_time=85908
type=note_on channel=4 note=45 velocity=80 time=12 actual_time=85920
type=note_on channel=4 note=52 velocity=80 time=0 actual_time=85920
type=note_on channel=4 note=57 velocity=80 time=0 actual_time=85920
type=note_on channel=4 note=57 velocity=0 time=408 actual_time=86328
type=note_on channel=4 note=52 velocity=0 time=0 actual_time=86328
type=note_on channel=4 note=45 velocity=0 time=0 actual_time=86328
type=note_on channel=4 note=45 velocity=80 time=12 actual_time=86340
type=note_on channel=4 note=52 velocity=80 time=0 actual_time=86340
type=note_on channel=4 note=52 velocity=0 time=48 actual_time=86388
type=note_on channel=4 note=45 velocity=0 time=0 actual_time=86388
type=note_on channel=4 note=47 velocity=80 time=12 actual_time=86400
type=note_on channel=4 note=59 velocity=80 time=0 actual_time=86400
type=note_on channel=4 note=54 velocity=80 time=0 actual_time=86400
type=note_on channel=4 note=54 velocity=0 time=936 actual_time=87336
type=note_on channel=4 note=59 velocity=0 time=0 actual_time=87336
type=note_on channel=4 note=47 velocity=0 time=0 actual_time=87336
type=note_on channel=4 note=55 velocity=80 time=24 actual_time=87360
type=note_on channel=4 note=50 velocity=80 time=0 actual_time=87360
type=note_on channel=4 note=43 velocity=80 time=0 actual_time=87360
type=note_on channel=4 note=43 velocity=0 time=408 actual_time=87768
type=note_on channel=4 note=50 velocity=0 time=0 actual_time=87768
type=note_on channel=4 note=55 velocity=0 time=0 actual_time=87768
type=note_on channel=4 note=50 velocity=80 time=12 actual_time=87780
type=note_on channel=4 note=43 velocity=80 time=0 actual_time=87780
type=note_on channel=4 note=43 velocity=0 time=48 actual_time=87828
type=note_on channel=4 note=50 velocity=0 time=0 actual_time=87828
type=note_on channel=4 note=57 velocity=80 time=12 actual_time=87840
type=note_on channel=4 note=52 velocity=80 time=0 actual_time=87840
type=note_on channel=4 note=45 velocity=80 time=0 actual_time=87840
type=note_on channel=4 note=45 velocity=0 time=468 actual_time=88308
type=note_on channel=4 note=52 velocity=0 time=0 actual_time=88308
type=note_on channel=4 note=57 velocity=0 time=0 actual_time=88308
type=note_on channel=4 note=59 velocity=80 time=12 actual_time=88320
type=note_on channel=4 note=54 velocity=80 time=0 actual_time=88320
type=note_on channel=4 note=47 velocity=80 time=0 actual_time=88320
type=note_on channel=4 note=47 velocity=0 time=3648 actual_time=91968
type=note_on channel=4 note=54 velocity=0 time=0 actual_time=91968
type=note_on channel=4 note=59 velocity=0 time=0 actual_time=91968
MetaMessage type: end_of_track, time: 0, actual_time: 91968
MetaMessage type: track_name, time: 0, actual_time: 0
type: program_change, time: 0, actual_time: 0
type=control_change channel=5 control=7 value=114 time=0 actual_time=0
type=note_on channel=5 note=47 velocity=80 time=15360 actual_time=15360
type=note_on channel=5 note=54 velocity=80 time=0 actual_time=15360
type=note_on channel=5 note=59 velocity=80 time=0 actual_time=15360
type=note_on channel=5 note=59 velocity=0 time=3648 actual_time=19008
type=note_on channel=5 note=54 velocity=0 time=0 actual_time=19008
type=note_on channel=5 note=47 velocity=0 time=0 actual_time=19008
type=note_on channel=5 note=45 velocity=80 time=7392 actual_time=26400
type=note_on channel=5 note=52 velocity=80 time=0 actual_time=26400
type=note_on channel=5 note=52 velocity=0 time=32 actual_time=26432
type=note_on channel=5 note=45 velocity=0 time=0 actual_time=26432
type=note_on channel=5 note=45 velocity=80 time=8 actual_time=26440
type=note_on channel=5 note=52 velocity=80 time=0 actual_time=26440
type=note_on channel=5 note=52 velocity=0 time=32 actual_time=26472
type=note_on channel=5 note=45 velocity=0 time=0 actual_time=26472
type=note_on channel=5 note=52 velocity=80 time=8 actual_time=26480
type=note_on channel=5 note=45 velocity=80 time=0 actual_time=26480
type=note_on channel=5 note=45 velocity=0 time=32 actual_time=26512
type=note_on channel=5 note=52 velocity=0 time=0 actual_time=26512
type=note_on channel=5 note=45 velocity=80 time=8 actual_time=26520
type=note_on channel=5 note=52 velocity=80 time=0 actual_time=26520
type=note_on channel=5 note=52 velocity=0 time=32 actual_time=26552
type=note_on channel=5 note=45 velocity=0 time=0 actual_time=26552
type=note_on channel=5 note=45 velocity=80 time=8 actual_time=26560
type=note_on channel=5 note=52 velocity=80 time=0 actual_time=26560
type=note_on channel=5 note=52 velocity=0 time=32 actual_time=26592
type=note_on channel=5 note=45 velocity=0 time=0 actual_time=26592
type=note_on channel=5 note=45 velocity=80 time=8 actual_time=26600
type=note_on channel=5 note=52 velocity=80 time=0 actual_time=26600
type=note_on channel=5 note=52 velocity=0 time=32 actual_time=26632
type=note_on channel=5 note=45 velocity=0 time=0 actual_time=26632
type=note_on channel=5 note=45 velocity=80 time=8 actual_time=26640
type=note_on channel=5 note=52 velocity=80 time=0 actual_time=26640
type=note_on channel=5 note=52 velocity=0 time=32 actual_time=26672
type=note_on channel=5 note=45 velocity=0 time=0 actual_time=26672
type=note_on channel=5 note=45 velocity=80 time=8 actual_time=26680
type=note_on channel=5 note=52 velocity=80 time=0 actual_time=26680
type=note_on channel=5 note=52 velocity=0 time=32 actual_time=26712
type=note_on channel=5 note=45 velocity=0 time=0 actual_time=26712
type=note_on channel=5 note=45 velocity=80 time=8 actual_time=26720
type=note_on channel=5 note=52 velocity=80 time=0 actual_time=26720
type=note_on channel=5 note=52 velocity=0 time=32 actual_time=26752
type=note_on channel=5 note=45 velocity=0 time=0 actual_time=26752
type=note_on channel=5 note=45 velocity=80 time=8 actual_time=26760
type=note_on channel=5 note=52 velocity=80 time=0 actual_time=26760
type=note_on channel=5 note=52 velocity=0 time=32 actual_time=26792
type=note_on channel=5 note=45 velocity=0 time=0 actual_time=26792
type=note_on channel=5 note=52 velocity=80 time=8 actual_time=26800
type=note_on channel=5 note=45 velocity=80 time=0 actual_time=26800
type=note_on channel=5 note=45 velocity=0 time=32 actual_time=26832
type=note_on channel=5 note=52 velocity=0 time=0 actual_time=26832
type=note_on channel=5 note=52 velocity=80 time=8 actual_time=26840
type=note_on channel=5 note=45 velocity=80 time=0 actual_time=26840
type=note_on channel=5 note=45 velocity=0 time=32 actual_time=26872
type=note_on channel=5 note=52 velocity=0 time=0 actual_time=26872
type=note_on channel=5 note=54 velocity=80 time=8 actual_time=26880
type=note_on channel=5 note=59 velocity=80 time=0 actual_time=26880
type=note_on channel=5 note=47 velocity=80 time=0 actual_time=26880
type=note_on channel=5 note=47 velocity=0 time=96 actual_time=26976
type=note_on channel=5 note=59 velocity=0 time=0 actual_time=26976
type=note_on channel=5 note=54 velocity=0 time=0 actual_time=26976
type=note_on channel=5 note=54 velocity=80 time=24 actual_time=27000
type=note_on channel=5 note=47 velocity=80 time=0 actual_time=27000
type=note_on channel=5 note=47 velocity=0 time=48 actual_time=27048
type=note_on channel=5 note=54 velocity=0 time=0 actual_time=27048
type=note_on channel=5 note=54 velocity=80 time=12 actual_time=27060
type=note_on channel=5 note=47 velocity=80 time=0 actual_time=27060
type=note_on channel=5 note=47 velocity=0 time=48 actual_time=27108
type=note_on channel=5 note=54 velocity=0 time=0 actual_time=27108
type=note_on channel=5 note=47 velocity=80 time=12 actual_time=27120
type=note_on channel=5 note=59 velocity=80 time=0 actual_time=27120
type=note_on channel=5 note=54 velocity=80 time=0 actual_time=27120
type=note_on channel=5 note=54 velocity=0 time=96 actual_time=27216
type=note_on channel=5 note=59 velocity=0 time=0 actual_time=27216
type=note_on channel=5 note=47 velocity=0 time=0 actual_time=27216
type=note_on channel=5 note=47 velocity=80 time=24 actual_time=27240
type=note_on channel=5 note=54 velocity=80 time=0 actual_time=27240
type=note_on channel=5 note=54 velocity=0 time=48 actual_time=27288
type=note_on channel=5 note=47 velocity=0 time=0 actual_time=27288
type=note_on channel=5 note=47 velocity=80 time=12 actual_time=27300
type=note_on channel=5 note=54 velocity=80 time=0 actual_time=27300
type=note_on channel=5 note=54 velocity=0 time=48 actual_time=27348
type=note_on channel=5 note=47 velocity=0 time=0 actual_time=27348
type=note_on channel=5 note=47 velocity=80 time=12 actual_time=27360
type=note_on channel=5 note=59 velocity=80 time=0 actual_time=27360
type=note_on channel=5 note=54 velocity=80 time=0 actual_time=27360
type=note_on channel=5 note=54 velocity=0 time=96 actual_time=27456
type=note_on channel=5 note=59 velocity=0 time=0 actual_time=27456
type=note_on channel=5 note=47 velocity=0 time=0 actual_time=27456
type=note_on channel=5 note=54 velocity=80 time=24 actual_time=27480
type=note_on channel=5 note=47 velocity=80 time=0 actual_time=27480
type=note_on channel=5 note=47 velocity=0 time=48 actual_time=27528
type=note_on channel=5 note=54 velocity=0 time=0 actual_time=27528
type=note_on channel=5 note=47 velocity=80 time=12 actual_time=27540
type=note_on channel=5 note=54 velocity=80 time=0 actual_time=27540
type=note_on channel=5 note=54 velocity=0 time=48 actual_time=27588
type=note_on channel=5 note=47 velocity=0 time=0 actual_time=27588
type=note_on channel=5 note=47 velocity=80 time=12 actual_time=27600
type=note_on channel=5 note=59 velocity=80 time=0 actual_time=27600
type=note_on channel=5 note=54 velocity=80 time=0 actual_time=27600
type=note_on channel=5 note=54 velocity=0 time=96 actual_time=27696
type=note_on channel=5 note=59 velocity=0 time=0 actual_time=27696
type=note_on channel=5 note=47 velocity=0 time=0 actual_time=27696
type=note_on channel=5 note=54 velocity=80 time=24 actual_time=27720
type=note_on channel=5 note=47 velocity=80 time=0 actual_time=27720
type=note_on channel=5 note=47 velocity=0 time=48 actual_time=27768
type=note_on channel=5 note=54 velocity=0 time=0 actual_time=27768
type=note_on channel=5 note=47 velocity=80 time=12 actual_time=27780
type=note_on channel=5 note=54 velocity=80 time=0 actual_time=27780
type=note_on channel=5 note=54 velocity=0 time=48 actual_time=27828
type=note_on channel=5 note=47 velocity=0 time=0 actual_time=27828
type=note_on channel=5 note=43 velocity=80 time=12 actual_time=27840
type=note_on channel=5 note=55 velocity=80 time=0 actual_time=27840
type=note_on channel=5 note=50 velocity=80 time=0 actual_time=27840
type=note_on channel=5 note=50 velocity=0 time=96 actual_time=27936
type=note_on channel=5 note=55 velocity=0 time=0 actual_time=27936
type=note_on channel=5 note=43 velocity=0 time=0 actual_time=27936
type=note_on channel=5 note=43 velocity=80 time=24 actual_time=27960
type=note_on channel=5 note=50 velocity=80 time=0 actual_time=27960
type=note_on channel=5 note=50 velocity=0 time=48 actual_time=28008
type=note_on channel=5 note=43 velocity=0 time=0 actual_time=28008
type=note_on channel=5 note=43 velocity=80 time=12 actual_time=28020
type=note_on channel=5 note=50 velocity=80 time=0 actual_time=28020
type=note_on channel=5 note=50 velocity=0 time=48 actual_time=28068
type=note_on channel=5 note=43 velocity=0 time=0 actual_time=28068
type=note_on channel=5 note=43 velocity=80 time=12 actual_time=28080
type=note_on channel=5 note=55 velocity=80 time=0 actual_time=28080
type=note_on channel=5 note=50 velocity=80 time=0 actual_time=28080
type=note_on channel=5 note=50 velocity=0 time=96 actual_time=28176
type=note_on channel=5 note=55 velocity=0 time=0 actual_time=28176
type=note_on channel=5 note=43 velocity=0 time=0 actual_time=28176
type=note_on channel=5 note=50 velocity=80 time=24 actual_time=28200
type=note_on channel=5 note=43 velocity=80 time=0 actual_time=28200
type=note_on channel=5 note=43 velocity=0 time=48 actual_time=28248
type=note_on channel=5 note=50 velocity=0 time=0 actual_time=28248
type=note_on channel=5 note=50 velocity=80 time=12 actual_time=28260
type=note_on channel=5 note=43 velocity=80 time=0 actual_time=28260
type=note_on channel=5 note=43 velocity=0 time=48 actual_time=28308
type=note_on channel=5 note=50 velocity=0 time=0 actual_time=28308
type=note_on channel=5 note=52 velocity=80 time=12 actual_time=28320
type=note_on channel=5 note=57 velocity=80 time=0 actual_time=28320
type=note_on channel=5 note=45 velocity=80 time=0 actual_time=28320
type=note_on channel=5 note=45 velocity=0 time=96 actual_time=28416
type=note_on channel=5 note=57 velocity=0 time=0 actual_time=28416
type=note_on channel=5 note=52 velocity=0 time=0 actual_time=28416
type=note_on channel=5 note=52 velocity=80 time=24 actual_time=28440
type=note_on channel=5 note=45 velocity=80 time=0 actual_time=28440
type=note_on channel=5 note=45 velocity=0 time=48 actual_time=28488
type=note_on channel=5 note=52 velocity=0 time=0 actual_time=28488
type=note_on channel=5 note=45 velocity=80 time=12 actual_time=28500
type=note_on channel=5 note=52 velocity=80 time=0 actual_time=28500
type=note_on channel=5 note=52 velocity=0 time=48 actual_time=28548
type=note_on channel=5 note=45 velocity=0 time=0 actual_time=28548
type=note_on channel=5 note=52 velocity=80 time=12 actual_time=28560
type=note_on channel=5 note=57 velocity=80 time=0 actual_time=28560
type=note_on channel=5 note=45 velocity=80 time=0 actual_time=28560
type=note_on channel=5 note=45 velocity=0 time=96 actual_time=28656
type=note_on channel=5 note=57 velocity=0 time=0 actual_time=28656
type=note_on channel=5 note=52 velocity=0 time=0 actual_time=28656
type=note_on channel=5 note=52 velocity=80 time=24 actual_time=28680
type=note_on channel=5 note=45 velocity=80 time=0 actual_time=28680
type=note_on channel=5 note=45 velocity=0 time=48 actual_time=28728
type=note_on channel=5 note=52 velocity=0 time=0 actual_time=28728
type=note_on channel=5 note=45 velocity=80 time=12 actual_time=28740
type=note_on channel=5 note=52 velocity=80 time=0 actual_time=28740
type=note_on channel=5 note=52 velocity=0 time=48 actual_time=28788
type=note_on channel=5 note=45 velocity=0 time=0 actual_time=28788
type=note_on channel=5 note=47 velocity=80 time=12 actual_time=28800
type=note_on channel=5 note=59 velocity=80 time=0 actual_time=28800
type=note_on channel=5 note=54 velocity=80 time=0 actual_time=28800
type=note_on channel=5 note=54 velocity=0 time=96 actual_time=28896
type=note_on channel=5 note=59 velocity=0 time=0 actual_time=28896
type=note_on channel=5 note=47 velocity=0 time=0 actual_time=28896
type=note_on channel=5 note=47 velocity=80 time=24 actual_time=28920
type=note_on channel=5 note=54 velocity=80 time=0 actual_time=28920
type=note_on channel=5 note=54 velocity=0 time=48 actual_time=28968
type=note_on channel=5 note=47 velocity=0 time=0 actual_time=28968
type=note_on channel=5 note=47 velocity=80 time=12 actual_time=28980
type=note_on channel=5 note=54 velocity=80 time=0 actual_time=28980
type=note_on channel=5 note=54 velocity=0 time=48 actual_time=29028
type=note_on channel=5 note=47 velocity=0 time=0 actual_time=29028
type=note_on channel=5 note=54 velocity=80 time=12 actual_time=29040
type=note_on channel=5 note=59 velocity=80 time=0 actual_time=29040
type=note_on channel=5 note=47 velocity=80 time=0 actual_time=29040
type=note_on channel=5 note=47 velocity=0 time=96 actual_time=29136
type=note_on channel=5 note=59 velocity=0 time=0 actual_time=29136
type=note_on channel=5 note=54 velocity=0 time=0 actual_time=29136
type=note_on channel=5 note=54 velocity=80 time=24 actual_time=29160
type=note_on channel=5 note=47 velocity=80 time=0 actual_time=29160
type=note_on channel=5 note=47 velocity=0 time=48 actual_time=29208
type=note_on channel=5 note=54 velocity=0 time=0 actual_time=29208
type=note_on channel=5 note=54 velocity=80 time=12 actual_time=29220
type=note_on channel=5 note=47 velocity=80 time=0 actual_time=29220
type=note_on channel=5 note=47 velocity=0 time=48 actual_time=29268
type=note_on channel=5 note=54 velocity=0 time=0 actual_time=29268
type=note_on channel=5 note=54 velocity=80 time=12 actual_time=29280
type=note_on channel=5 note=59 velocity=80 time=0 actual_time=29280
type=note_on channel=5 note=47 velocity=80 time=0 actual_time=29280
type=note_on channel=5 note=47 velocity=0 time=96 actual_time=29376
type=note_on channel=5 note=59 velocity=0 time=0 actual_time=29376
type=note_on channel=5 note=54 velocity=0 time=0 actual_time=29376
type=note_on channel=5 note=54 velocity=80 time=24 actual_time=29400
type=note_on channel=5 note=47 velocity=80 time=0 actual_time=29400
type=note_on channel=5 note=47 velocity=0 time=48 actual_time=29448
type=note_on channel=5 note=54 velocity=0 time=0 actual_time=29448
type=note_on channel=5 note=54 velocity=80 time=12 actual_time=29460
type=note_on channel=5 note=47 velocity=80 time=0 actual_time=29460
type=note_on channel=5 note=47 velocity=0 time=48 actual_time=29508
type=note_on channel=5 note=54 velocity=0 time=0 actual_time=29508
type=note_on channel=5 note=54 velocity=80 time=12 actual_time=29520
type=note_on channel=5 note=59 velocity=80 time=0 actual_time=29520
type=note_on channel=5 note=47 velocity=80 time=0 actual_time=29520
type=note_on channel=5 note=47 velocity=0 time=96 actual_time=29616
type=note_on channel=5 note=59 velocity=0 time=0 actual_time=29616
type=note_on channel=5 note=54 velocity=0 time=0 actual_time=29616
type=note_on channel=5 note=54 velocity=80 time=24 actual_time=29640
type=note_on channel=5 note=47 velocity=80 time=0 actual_time=29640
type=note_on channel=5 note=47 velocity=0 time=48 actual_time=29688
type=note_on channel=5 note=54 velocity=0 time=0 actual_time=29688
type=note_on channel=5 note=54 velocity=80 time=12 actual_time=29700
type=note_on channel=5 note=47 velocity=80 time=0 actual_time=29700
type=note_on channel=5 note=47 velocity=0 time=48 actual_time=29748
type=note_on channel=5 note=54 velocity=0 time=0 actual_time=29748
type=note_on channel=5 note=47 velocity=80 time=12 actual_time=29760
type=note_on channel=5 note=52 velocity=80 time=0 actual_time=29760
type=note_on channel=5 note=40 velocity=80 time=0 actual_time=29760
type=note_on channel=5 note=40 velocity=0 time=96 actual_time=29856
type=note_on channel=5 note=52 velocity=0 time=0 actual_time=29856
type=note_on channel=5 note=47 velocity=0 time=0 actual_time=29856
type=note_on channel=5 note=47 velocity=80 time=24 actual_time=29880
type=note_on channel=5 note=40 velocity=80 time=0 actual_time=29880
type=note_on channel=5 note=40 velocity=0 time=48 actual_time=29928
type=note_on channel=5 note=47 velocity=0 time=0 actual_time=29928
type=note_on channel=5 note=47 velocity=80 time=12 actual_time=29940
type=note_on channel=5 note=40 velocity=80 time=0 actual_time=29940
type=note_on channel=5 note=40 velocity=0 time=48 actual_time=29988
type=note_on channel=5 note=47 velocity=0 time=0 actual_time=29988
type=note_on channel=5 note=47 velocity=80 time=12 actual_time=30000
type=note_on channel=5 note=52 velocity=80 time=0 actual_time=30000
type=note_on channel=5 note=40 velocity=80 time=0 actual_time=30000
type=note_on channel=5 note=40 velocity=0 time=96 actual_time=30096
type=note_on channel=5 note=52 velocity=0 time=0 actual_time=30096
type=note_on channel=5 note=47 velocity=0 time=0 actual_time=30096
type=note_on channel=5 note=47 velocity=80 time=24 actual_time=30120
type=note_on channel=5 note=40 velocity=80 time=0 actual_time=30120
type=note_on channel=5 note=40 velocity=0 time=48 actual_time=30168
type=note_on channel=5 note=47 velocity=0 time=0 actual_time=30168
type=note_on channel=5 note=47 velocity=80 time=12 actual_time=30180
type=note_on channel=5 note=40 velocity=80 time=0 actual_time=30180
type=note_on channel=5 note=40 velocity=0 time=48 actual_time=30228
type=note_on channel=5 note=47 velocity=0 time=0 actual_time=30228
type=note_on channel=5 note=49 velocity=80 time=12 actual_time=30240
type=note_on channel=5 note=54 velocity=80 time=0 actual_time=30240
type=note_on channel=5 note=42 velocity=80 time=0 actual_time=30240
type=note_on channel=5 note=42 velocity=0 time=96 actual_time=30336
type=note_on channel=5 note=54 velocity=0 time=0 actual_time=30336
type=note_on channel=5 note=49 velocity=0 time=0 actual_time=30336
type=note_on channel=5 note=49 velocity=80 time=24 actual_time=30360
type=note_on channel=5 note=42 velocity=80 time=0 actual_time=30360
type=note_on channel=5 note=42 velocity=0 time=48 actual_time=30408
type=note_on channel=5 note=49 velocity=0 time=0 actual_time=30408
type=note_on channel=5 note=49 velocity=80 time=12 actual_time=30420
type=note_on channel=5 note=42 velocity=80 time=0 actual_time=30420
type=note_on channel=5 note=42 velocity=0 time=48 actual_time=30468
type=note_on channel=5 note=49 velocity=0 time=0 actual_time=30468
type=note_on channel=5 note=49 velocity=80 time=12 actual_time=30480
type=note_on channel=5 note=54 velocity=80 time=0 actual_time=30480
type=note_on channel=5 note=42 velocity=80 time=0 actual_time=30480
type=note_on channel=5 note=42 velocity=0 time=96 actual_time=30576
type=note_on channel=5 note=54 velocity=0 time=0 actual_time=30576
type=note_on channel=5 note=49 velocity=0 time=0 actual_time=30576
type=note_on channel=5 note=49 velocity=80 time=24 actual_time=30600
type=note_on channel=5 note=42 velocity=80 time=0 actual_time=30600
type=note_on channel=5 note=42 velocity=0 time=48 actual_time=30648
type=note_on channel=5 note=49 velocity=0 time=0 actual_time=30648
type=note_on channel=5 note=49 velocity=80 time=12 actual_time=30660
type=note_on channel=5 note=42 velocity=80 time=0 actual_time=30660
type=note_on channel=5 note=42 velocity=0 time=48 actual_time=30708
type=note_on channel=5 note=49 velocity=0 time=0 actual_time=30708
type=note_on channel=5 note=47 velocity=80 time=12 actual_time=30720
type=note_on channel=5 note=59 velocity=80 time=0 actual_time=30720
type=note_on channel=5 note=54 velocity=80 time=0 actual_time=30720
type=note_on channel=5 note=54 velocity=0 time=96 actual_time=30816
type=note_on channel=5 note=59 velocity=0 time=0 actual_time=30816
type=note_on channel=5 note=47 velocity=0 time=0 actual_time=30816
type=note_on channel=5 note=47 velocity=80 time=24 actual_time=30840
type=note_on channel=5 note=54 velocity=80 time=0 actual_time=30840
type=note_on channel=5 note=54 velocity=0 time=48 actual_time=30888
type=note_on channel=5 note=47 velocity=0 time=0 actual_time=30888
type=note_on channel=5 note=47 velocity=80 time=12 actual_time=30900
type=note_on channel=5 note=54 velocity=80 time=0 actual_time=30900
type=note_on channel=5 note=54 velocity=0 time=48 actual_time=30948
type=note_on channel=5 note=47 velocity=0 time=0 actual_time=30948
type=note_on channel=5 note=54 velocity=80 time=12 actual_time=30960
type=note_on channel=5 note=59 velocity=80 time=0 actual_time=30960
type=note_on channel=5 note=47 velocity=80 time=0 actual_time=30960
type=note_on channel=5 note=47 velocity=0 time=96 actual_time=31056
type=note_on channel=5 note=59 velocity=0 time=0 actual_time=31056
type=note_on channel=5 note=54 velocity=0 time=0 actual_time=31056
type=note_on channel=5 note=54 velocity=80 time=24 actual_time=31080
type=note_on channel=5 note=47 velocity=80 time=0 actual_time=31080
type=note_on channel=5 note=47 velocity=0 time=48 actual_time=31128
type=note_on channel=5 note=54 velocity=0 time=0 actual_time=31128
type=note_on channel=5 note=54 velocity=80 time=12 actual_time=31140
type=note_on channel=5 note=47 velocity=80 time=0 actual_time=31140
type=note_on channel=5 note=47 velocity=0 time=48 actual_time=31188
type=note_on channel=5 note=54 velocity=0 time=0 actual_time=31188
type=note_on channel=5 note=54 velocity=80 time=12 actual_time=31200
type=note_on channel=5 note=59 velocity=80 time=0 actual_time=31200
type=note_on channel=5 note=47 velocity=80 time=0 actual_time=31200
type=note_on channel=5 note=47 velocity=0 time=96 actual_time=31296
type=note_on channel=5 note=59 velocity=0 time=0 actual_time=31296
type=note_on channel=5 note=54 velocity=0 time=0 actual_time=31296
type=note_on channel=5 note=54 velocity=80 time=24 actual_time=31320
type=note_on channel=5 note=47 velocity=80 time=0 actual_time=31320
type=note_on channel=5 note=47 velocity=0 time=48 actual_time=31368
type=note_on channel=5 note=54 velocity=0 time=0 actual_time=31368
type=note_on channel=5 note=54 velocity=80 time=12 actual_time=31380
type=note_on channel=5 note=47 velocity=80 time=0 actual_time=31380
type=note_on channel=5 note=47 velocity=0 time=48 actual_time=31428
type=note_on channel=5 note=54 velocity=0 time=0 actual_time=31428
type=note_on channel=5 note=54 velocity=80 time=12 actual_time=31440
type=note_on channel=5 note=59 velocity=80 time=0 actual_time=31440
type=note_on channel=5 note=47 velocity=80 time=0 actual_time=31440
type=note_on channel=5 note=47 velocity=0 time=96 actual_time=31536
type=note_on channel=5 note=59 velocity=0 time=0 actual_time=31536
type=note_on channel=5 note=54 velocity=0 time=0 actual_time=31536
type=note_on channel=5 note=54 velocity=80 time=24 actual_time=31560
type=note_on channel=5 note=47 velocity=80 time=0 actual_time=31560
type=note_on channel=5 note=47 velocity=0 time=48 actual_time=31608
type=note_on channel=5 note=54 velocity=0 time=0 actual_time=31608
type=note_on channel=5 note=54 velocity=80 time=12 actual_time=31620
type=note_on channel=5 note=47 velocity=80 time=0 actual_time=31620
type=note_on channel=5 note=47 velocity=0 time=48 actual_time=31668
type=note_on channel=5 note=54 velocity=0 time=0 actual_time=31668
type=note_on channel=5 note=50 velocity=80 time=12 actual_time=31680
type=note_on channel=5 note=55 velocity=80 time=0 actual_time=31680
type=note_on channel=5 note=43 velocity=80 time=0 actual_time=31680
type=note_on channel=5 note=43 velocity=0 time=96 actual_time=31776
type=note_on channel=5 note=55 velocity=0 time=0 actual_time=31776
type=note_on channel=5 note=50 velocity=0 time=0 actual_time=31776
type=note_on channel=5 note=50 velocity=80 time=24 actual_time=31800
type=note_on channel=5 note=43 velocity=80 time=0 actual_time=31800
type=note_on channel=5 note=43 velocity=0 time=48 actual_time=31848
type=note_on channel=5 note=50 velocity=0 time=0 actual_time=31848
type=note_on channel=5 note=50 velocity=80 time=12 actual_time=31860
type=note_on channel=5 note=43 velocity=80 time=0 actual_time=31860
type=note_on channel=5 note=43 velocity=0 time=48 actual_time=31908
type=note_on channel=5 note=50 velocity=0 time=0 actual_time=31908
type=note_on channel=5 note=50 velocity=80 time=12 actual_time=31920
type=note_on channel=5 note=55 velocity=80 time=0 actual_time=31920
type=note_on channel=5 note=43 velocity=80 time=0 actual_time=31920
type=note_on channel=5 note=43 velocity=0 time=96 actual_time=32016
type=note_on channel=5 note=55 velocity=0 time=0 actual_time=32016
type=note_on channel=5 note=50 velocity=0 time=0 actual_time=32016
type=note_on channel=5 note=50 velocity=80 time=24 actual_time=32040
type=note_on channel=5 note=43 velocity=80 time=0 actual_time=32040
type=note_on channel=5 note=43 velocity=0 time=48 actual_time=32088
type=note_on channel=5 note=50 velocity=0 time=0 actual_time=32088
type=note_on channel=5 note=50 velocity=80 time=12 actual_time=32100
type=note_on channel=5 note=43 velocity=80 time=0 actual_time=32100
type=note_on channel=5 note=43 velocity=0 time=48 actual_time=32148
type=note_on channel=5 note=50 velocity=0 time=0 actual_time=32148
type=note_on channel=5 note=52 velocity=80 time=12 actual_time=32160
type=note_on channel=5 note=57 velocity=80 time=0 actual_time=32160
type=note_on channel=5 note=45 velocity=80 time=0 actual_time=32160
type=note_on channel=5 note=45 velocity=0 time=96 actual_time=32256
type=note_on channel=5 note=57 velocity=0 time=0 actual_time=32256
type=note_on channel=5 note=52 velocity=0 time=0 actual_time=32256
type=note_on channel=5 note=52 velocity=80 time=24 actual_time=32280
type=note_on channel=5 note=45 velocity=80 time=0 actual_time=32280
type=note_on channel=5 note=45 velocity=0 time=48 actual_time=32328
type=note_on channel=5 note=52 velocity=0 time=0 actual_time=32328
type=note_on channel=5 note=52 velocity=80 time=12 actual_time=32340
type=note_on channel=5 note=45 velocity=80 time=0 actual_time=32340
type=note_on channel=5 note=45 velocity=0 time=48 actual_time=32388
type=note_on channel=5 note=52 velocity=0 time=0 actual_time=32388
type=note_on channel=5 note=52 velocity=80 time=12 actual_time=32400
type=note_on channel=5 note=57 velocity=80 time=0 actual_time=32400
type=note_on channel=5 note=45 velocity=80 time=0 actual_time=32400
type=note_on channel=5 note=45 velocity=0 time=96 actual_time=32496
type=note_on channel=5 note=57 velocity=0 time=0 actual_time=32496
type=note_on channel=5 note=52 velocity=0 time=0 actual_time=32496
type=note_on channel=5 note=52 velocity=80 time=24 actual_time=32520
type=note_on channel=5 note=45 velocity=80 time=0 actual_time=32520
type=note_on channel=5 note=45 velocity=0 time=48 actual_time=32568
type=note_on channel=5 note=52 velocity=0 time=0 actual_time=32568
type=note_on channel=5 note=52 velocity=80 time=12 actual_time=32580
type=note_on channel=5 note=45 velocity=80 time=0 actual_time=32580
type=note_on channel=5 note=45 velocity=0 time=48 actual_time=32628
type=note_on channel=5 note=52 velocity=0 time=0 actual_time=32628
type=note_on channel=5 note=47 velocity=80 time=12 actual_time=32640
type=note_on channel=5 note=59 velocity=80 time=0 actual_time=32640
type=note_on channel=5 note=54 velocity=80 time=0 actual_time=32640
type=note_on channel=5 note=54 velocity=0 time=96 actual_time=32736
type=note_on channel=5 note=59 velocity=0 time=0 actual_time=32736
type=note_on channel=5 note=47 velocity=0 time=0 actual_time=32736
type=note_on channel=5 note=47 velocity=80 time=24 actual_time=32760
type=note_on channel=5 note=54 velocity=80 time=0 actual_time=32760
type=note_on channel=5 note=54 velocity=0 time=48 actual_time=32808
type=note_on channel=5 note=47 velocity=0 time=0 actual_time=32808
type=note_on channel=5 note=47 velocity=80 time=12 actual_time=32820
type=note_on channel=5 note=54 velocity=80 time=0 actual_time=32820
type=note_on channel=5 note=54 velocity=0 time=48 actual_time=32868
type=note_on channel=5 note=47 velocity=0 time=0 actual_time=32868
type=note_on channel=5 note=54 velocity=80 time=12 actual_time=32880
type=note_on channel=5 note=59 velocity=80 time=0 actual_time=32880
type=note_on channel=5 note=47 velocity=80 time=0 actual_time=32880
type=note_on channel=5 note=47 velocity=0 time=96 actual_time=32976
type=note_on channel=5 note=59 velocity=0 time=0 actual_time=32976
type=note_on channel=5 note=54 velocity=0 time=0 actual_time=32976
type=note_on channel=5 note=54 velocity=80 time=24 actual_time=33000
type=note_on channel=5 note=47 velocity=80 time=0 actual_time=33000
type=note_on channel=5 note=47 velocity=0 time=48 actual_time=33048
type=note_on channel=5 note=54 velocity=0 time=0 actual_time=33048
type=note_on channel=5 note=54 velocity=80 time=12 actual_time=33060
type=note_on channel=5 note=47 velocity=80 time=0 actual_time=33060
type=note_on channel=5 note=47 velocity=0 time=48 actual_time=33108
type=note_on channel=5 note=54 velocity=0 time=0 actual_time=33108
type=note_on channel=5 note=54 velocity=80 time=12 actual_time=33120
type=note_on channel=5 note=59 velocity=80 time=0 actual_time=33120
type=note_on channel=5 note=47 velocity=80 time=0 actual_time=33120
type=note_on channel=5 note=47 velocity=0 time=96 actual_time=33216
type=note_on channel=5 note=59 velocity=0 time=0 actual_time=33216
type=note_on channel=5 note=54 velocity=0 time=0 actual_time=33216
type=note_on channel=5 note=54 velocity=80 time=24 actual_time=33240
type=note_on channel=5 note=47 velocity=80 time=0 actual_time=33240
type=note_on channel=5 note=47 velocity=0 time=48 actual_time=33288
type=note_on channel=5 note=54 velocity=0 time=0 actual_time=33288
type=note_on channel=5 note=54 velocity=80 time=12 actual_time=33300
type=note_on channel=5 note=47 velocity=80 time=0 actual_time=33300
type=note_on channel=5 note=47 velocity=0 time=48 actual_time=33348
type=note_on channel=5 note=54 velocity=0 time=0 actual_time=33348
type=note_on channel=5 note=54 velocity=80 time=12 actual_time=33360
type=note_on channel=5 note=59 velocity=80 time=0 actual_time=33360
type=note_on channel=5 note=47 velocity=80 time=0 actual_time=33360
type=note_on channel=5 note=47 velocity=0 time=96 actual_time=33456
type=note_on channel=5 note=59 velocity=0 time=0 actual_time=33456
type=note_on channel=5 note=54 velocity=0 time=0 actual_time=33456
type=note_on channel=5 note=54 velocity=80 time=24 actual_time=33480
type=note_on channel=5 note=47 velocity=80 time=0 actual_time=33480
type=note_on channel=5 note=47 velocity=0 time=48 actual_time=33528
type=note_on channel=5 note=54 velocity=0 time=0 actual_time=33528
type=note_on channel=5 note=54 velocity=80 time=12 actual_time=33540
type=note_on channel=5 note=47 velocity=80 time=0 actual_time=33540
type=note_on channel=5 note=47 velocity=0 time=48 actual_time=33588
type=note_on channel=5 note=54 velocity=0 time=0 actual_time=33588
type=note_on channel=5 note=47 velocity=80 time=12 actual_time=33600
type=note_on channel=5 note=52 velocity=80 time=0 actual_time=33600
type=note_on channel=5 note=40 velocity=80 time=0 actual_time=33600
type=note_on channel=5 note=40 velocity=0 time=96 actual_time=33696
type=note_on channel=5 note=52 velocity=0 time=0 actual_time=33696
type=note_on channel=5 note=47 velocity=0 time=0 actual_time=33696
type=note_on channel=5 note=47 velocity=80 time=24 actual_time=33720
type=note_on channel=5 note=52 velocity=80 time=0 actual_time=33720
type=note_on channel=5 note=40 velocity=80 time=0 actual_time=33720
type=note_on channel=5 note=40 velocity=0 time=96 actual_time=33816
type=note_on channel=5 note=52 velocity=0 time=0 actual_time=33816
type=note_on channel=5 note=47 velocity=0 time=0 actual_time=33816
type=note_on channel=5 note=47 velocity=80 time=24 actual_time=33840
type=note_on channel=5 note=52 velocity=80 time=0 actual_time=33840
type=note_on channel=5 note=40 velocity=80 time=0 actual_time=33840
type=note_on channel=5 note=40 velocity=0 time=96 actual_time=33936
type=note_on channel=5 note=52 velocity=0 time=0 actual_time=33936
type=note_on channel=5 note=47 velocity=0 time=0 actual_time=33936
type=note_on channel=5 note=40 velocity=80 time=24 actual_time=33960
type=note_on channel=5 note=47 velocity=80 time=0 actual_time=33960
type=note_on channel=5 note=52 velocity=80 time=0 actual_time=33960
type=note_on channel=5 note=52 velocity=0 time=96 actual_time=34056
type=note_on channel=5 note=47 velocity=0 time=0 actual_time=34056
type=note_on channel=5 note=40 velocity=0 time=0 actual_time=34056
type=note_on channel=5 note=42 velocity=80 time=24 actual_time=34080
type=note_on channel=5 note=49 velocity=80 time=0 actual_time=34080
type=note_on channel=5 note=54 velocity=80 time=0 actual_time=34080
type=note_on channel=5 note=54 velocity=0 time=96 actual_time=34176
type=note_on channel=5 note=49 velocity=0 time=0 actual_time=34176
type=note_on channel=5 note=42 velocity=0 time=0 actual_time=34176
type=note_on channel=5 note=54 velocity=80 time=24 actual_time=34200
type=note_on channel=5 note=42 velocity=80 time=0 actual_time=34200
type=note_on channel=5 note=49 velocity=80 time=0 actual_time=34200
type=note_on channel=5 note=49 velocity=0 time=96 actual_time=34296
type=note_on channel=5 note=42 velocity=0 time=0 actual_time=34296
type=note_on channel=5 note=54 velocity=0 time=0 actual_time=34296
type=note_on channel=5 note=49 velocity=80 time=24 actual_time=34320
type=note_on channel=5 note=54 velocity=80 time=0 actual_time=34320
type=note_on channel=5 note=42 velocity=80 time=0 actual_time=34320
type=note_on channel=5 note=42 velocity=0 time=96 actual_time=34416
type=note_on channel=5 note=54 velocity=0 time=0 actual_time=34416
type=note_on channel=5 note=49 velocity=0 time=0 actual_time=34416
type=note_on channel=5 note=54 velocity=80 time=24 actual_time=34440
type=note_on channel=5 note=49 velocity=80 time=0 actual_time=34440
type=note_on channel=5 note=42 velocity=80 time=0 actual_time=34440
type=note_on channel=5 note=42 velocity=0 time=96 actual_time=34536
type=note_on channel=5 note=49 velocity=0 time=0 actual_time=34536
type=note_on channel=5 note=54 velocity=0 time=0 actual_time=34536
type=note_on channel=5 note=59 velocity=80 time=24 actual_time=34560
type=note_on channel=5 note=54 velocity=80 time=0 actual_time=34560
type=note_on channel=5 note=47 velocity=80 time=0 actual_time=34560
type=note_on channel=5 note=47 velocity=0 time=3648 actual_time=38208
type=note_on channel=5 note=54 velocity=0 time=0 actual_time=38208
type=note_on channel=5 note=59 velocity=0 time=0 actual_time=38208
type=note_on channel=5 note=45 velocity=80 time=7632 actual_time=45840
type=note_on channel=5 note=52 velocity=80 time=0 actual_time=45840
type=note_on channel=5 note=57 velocity=80 time=0 actual_time=45840
type=note_on channel=5 note=57 velocity=0 time=32 actual_time=45872
type=note_on channel=5 note=52 velocity=0 time=0 actual_time=45872
type=note_on channel=5 note=45 velocity=0 time=0 actual_time=45872
type=note_on channel=5 note=52 velocity=80 time=8 actual_time=45880
type=note_on channel=5 note=45 velocity=80 time=0 actual_time=45880
type=note_on channel=5 note=57 velocity=80 time=0 actual_time=45880
type=note_on channel=5 note=57 velocity=0 time=32 actual_time=45912
type=note_on channel=5 note=45 velocity=0 time=0 actual_time=45912
type=note_on channel=5 note=52 velocity=0 time=0 actual_time=45912
type=note_on channel=5 note=52 velocity=80 time=8 actual_time=45920
type=note_on channel=5 note=45 velocity=80 time=0 actual_time=45920
type=note_on channel=5 note=57 velocity=80 time=0 actual_time=45920
type=note_on channel=5 note=57 velocity=0 time=32 actual_time=45952
type=note_on channel=5 note=45 velocity=0 time=0 actual_time=45952
type=note_on channel=5 note=52 velocity=0 time=0 actual_time=45952
type=note_on channel=5 note=52 velocity=80 time=8 actual_time=45960
type=note_on channel=5 note=45 velocity=80 time=0 actual_time=45960
type=note_on channel=5 note=57 velocity=80 time=0 actual_time=45960
type=note_on channel=5 note=57 velocity=0 time=32 actual_time=45992
type=note_on channel=5 note=45 velocity=0 time=0 actual_time=45992
type=note_on channel=5 note=52 velocity=0 time=0 actual_time=45992
type=note_on channel=5 note=52 velocity=80 time=8 actual_time=46000
type=note_on channel=5 note=45 velocity=80 time=0 actual_time=46000
type=note_on channel=5 note=57 velocity=80 time=0 actual_time=46000
type=note_on channel=5 note=57 velocity=0 time=32 actual_time=46032
type=note_on channel=5 note=45 velocity=0 time=0 actual_time=46032
type=note_on channel=5 note=52 velocity=0 time=0 actual_time=46032
type=note_on channel=5 note=52 velocity=80 time=8 actual_time=46040
type=note_on channel=5 note=45 velocity=80 time=0 actual_time=46040
type=note_on channel=5 note=57 velocity=80 time=0 actual_time=46040
type=note_on channel=5 note=57 velocity=0 time=32 actual_time=46072
type=note_on channel=5 note=45 velocity=0 time=0 actual_time=46072
type=note_on channel=5 note=52 velocity=0 time=0 actual_time=46072
type=note_on channel=5 note=47 velocity=80 time=8 actual_time=46080
type=note_on channel=5 note=59 velocity=80 time=0 actual_time=46080
type=note_on channel=5 note=54 velocity=80 time=0 actual_time=46080
type=note_on channel=5 note=54 velocity=0 time=96 actual_time=46176
type=note_on channel=5 note=59 velocity=0 time=0 actual_time=46176
type=note_on channel=5 note=47 velocity=0 time=0 actual_time=46176
type=note_on channel=5 note=47 velocity=80 time=24 actual_time=46200
type=note_on channel=5 note=54 velocity=80 time=0 actual_time=46200
type=note_on channel=5 note=54 velocity=0 time=48 actual_time=46248
type=note_on channel=5 note=47 velocity=0 time=0 actual_time=46248
type=note_on channel=5 note=47 velocity=80 time=12 actual_time=46260
type=note_on channel=5 note=54 velocity=80 time=0 actual_time=46260
type=note_on channel=5 note=54 velocity=0 time=48 actual_time=46308
type=note_on channel=5 note=47 velocity=0 time=0 actual_time=46308
type=note_on channel=5 note=54 velocity=80 time=12 actual_time=46320
type=note_on channel=5 note=59 velocity=80 time=0 actual_time=46320
type=note_on channel=5 note=47 velocity=80 time=0 actual_time=46320
type=note_on channel=5 note=47 velocity=0 time=96 actual_time=46416
type=note_on channel=5 note=59 velocity=0 time=0 actual_time=46416
type=note_on channel=5 note=54 velocity=0 time=0 actual_time=46416
type=note_on channel=5 note=54 velocity=80 time=24 actual_time=46440
type=note_on channel=5 note=47 velocity=80 time=0 actual_time=46440
type=note_on channel=5 note=47 velocity=0 time=48 actual_time=46488
type=note_on channel=5 note=54 velocity=0 time=0 actual_time=46488
type=note_on channel=5 note=54 velocity=80 time=12 actual_time=46500
type=note_on channel=5 note=47 velocity=80 time=0 actual_time=46500
type=note_on channel=5 note=47 velocity=0 time=48 actual_time=46548
type=note_on channel=5 note=54 velocity=0 time=0 actual_time=46548
type=note_on channel=5 note=54 velocity=80 time=12 actual_time=46560
type=note_on channel=5 note=59 velocity=80 time=0 actual_time=46560
type=note_on channel=5 note=47 velocity=80 time=0 actual_time=46560
type=note_on channel=5 note=47 velocity=0 time=96 actual_time=46656
type=note_on channel=5 note=59 velocity=0 time=0 actual_time=46656
type=note_on channel=5 note=54 velocity=0 time=0 actual_time=46656
type=note_on channel=5 note=54 velocity=80 time=24 actual_time=46680
type=note_on channel=5 note=47 velocity=80 time=0 actual_time=46680
type=note_on channel=5 note=47 velocity=0 time=48 actual_time=46728
type=note_on channel=5 note=54 velocity=0 time=0 actual_time=46728
type=note_on channel=5 note=54 velocity=80 time=12 actual_time=46740
type=note_on channel=5 note=47 velocity=80 time=0 actual_time=46740
type=note_on channel=5 note=47 velocity=0 time=48 actual_time=46788
type=note_on channel=5 note=54 velocity=0 time=0 actual_time=46788
type=note_on channel=5 note=54 velocity=80 time=12 actual_time=46800
type=note_on channel=5 note=59 velocity=80 time=0 actual_time=46800
type=note_on channel=5 note=47 velocity=80 time=0 actual_time=46800
type=note_on channel=5 note=47 velocity=0 time=96 actual_time=46896
type=note_on channel=5 note=59 velocity=0 time=0 actual_time=46896
type=note_on channel=5 note=54 velocity=0 time=0 actual_time=46896
type=note_on channel=5 note=54 velocity=80 time=24 actual_time=46920
type=note_on channel=5 note=47 velocity=80 time=0 actual_time=46920
type=note_on channel=5 note=47 velocity=0 time=48 actual_time=46968
type=note_on channel=5 note=54 velocity=0 time=0 actual_time=46968
type=note_on channel=5 note=54 velocity=80 time=12 actual_time=46980
type=note_on channel=5 note=47 velocity=80 time=0 actual_time=46980
type=note_on channel=5 note=47 velocity=0 time=48 actual_time=47028
type=note_on channel=5 note=54 velocity=0 time=0 actual_time=47028
type=note_on channel=5 note=50 velocity=80 time=12 actual_time=47040
type=note_on channel=5 note=55 velocity=80 time=0 actual_time=47040
type=note_on channel=5 note=43 velocity=80 time=0 actual_time=47040
type=note_on channel=5 note=43 velocity=0 time=96 actual_time=47136
type=note_on channel=5 note=55 velocity=0 time=0 actual_time=47136
type=note_on channel=5 note=50 velocity=0 time=0 actual_time=47136
type=note_on channel=5 note=50 velocity=80 time=24 actual_time=47160
type=note_on channel=5 note=43 velocity=80 time=0 actual_time=47160
type=note_on channel=5 note=43 velocity=0 time=48 actual_time=47208
type=note_on channel=5 note=50 velocity=0 time=0 actual_time=47208
type=note_on channel=5 note=50 velocity=80 time=12 actual_time=47220
type=note_on channel=5 note=43 velocity=80 time=0 actual_time=47220
type=note_on channel=5 note=43 velocity=0 time=48 actual_time=47268
type=note_on channel=5 note=50 velocity=0 time=0 actual_time=47268
type=note_on channel=5 note=50 velocity=80 time=12 actual_time=47280
type=note_on channel=5 note=55 velocity=80 time=0 actual_time=47280
type=note_on channel=5 note=43 velocity=80 time=0 actual_time=47280
type=note_on channel=5 note=43 velocity=0 time=96 actual_time=47376
type=note_on channel=5 note=55 velocity=0 time=0 actual_time=47376
type=note_on channel=5 note=50 velocity=0 time=0 actual_time=47376
type=note_on channel=5 note=50 velocity=80 time=24 actual_time=47400
type=note_on channel=5 note=43 velocity=80 time=0 actual_time=47400
type=note_on channel=5 note=43 velocity=0 time=48 actual_time=47448
type=note_on channel=5 note=50 velocity=0 time=0 actual_time=47448
type=note_on channel=5 note=50 velocity=80 time=12 actual_time=47460
type=note_on channel=5 note=43 velocity=80 time=0 actual_time=47460
type=note_on channel=5 note=43 velocity=0 time=48 actual_time=47508
type=note_on channel=5 note=50 velocity=0 time=0 actual_time=47508
type=note_on channel=5 note=52 velocity=80 time=12 actual_time=47520
type=note_on channel=5 note=57 velocity=80 time=0 actual_time=47520
type=note_on channel=5 note=45 velocity=80 time=0 actual_time=47520
type=note_on channel=5 note=45 velocity=0 time=96 actual_time=47616
type=note_on channel=5 note=57 velocity=0 time=0 actual_time=47616
type=note_on channel=5 note=52 velocity=0 time=0 actual_time=47616
type=note_on channel=5 note=52 velocity=80 time=24 actual_time=47640
type=note_on channel=5 note=45 velocity=80 time=0 actual_time=47640
type=note_on channel=5 note=45 velocity=0 time=48 actual_time=47688
type=note_on channel=5 note=52 velocity=0 time=0 actual_time=47688
type=note_on channel=5 note=52 velocity=80 time=12 actual_time=47700
type=note_on channel=5 note=45 velocity=80 time=0 actual_time=47700
type=note_on channel=5 note=45 velocity=0 time=48 actual_time=47748
type=note_on channel=5 note=52 velocity=0 time=0 actual_time=47748
type=note_on channel=5 note=52 velocity=80 time=12 actual_time=47760
type=note_on channel=5 note=57 velocity=80 time=0 actual_time=47760
type=note_on channel=5 note=45 velocity=80 time=0 actual_time=47760
type=note_on channel=5 note=45 velocity=0 time=96 actual_time=47856
type=note_on channel=5 note=57 velocity=0 time=0 actual_time=47856
type=note_on channel=5 note=52 velocity=0 time=0 actual_time=47856
type=note_on channel=5 note=52 velocity=80 time=24 actual_time=47880
type=note_on channel=5 note=45 velocity=80 time=0 actual_time=47880
type=note_on channel=5 note=45 velocity=0 time=48 actual_time=47928
type=note_on channel=5 note=52 velocity=0 time=0 actual_time=47928
type=note_on channel=5 note=52 velocity=80 time=12 actual_time=47940
type=note_on channel=5 note=45 velocity=80 time=0 actual_time=47940
type=note_on channel=5 note=45 velocity=0 time=48 actual_time=47988
type=note_on channel=5 note=52 velocity=0 time=0 actual_time=47988
type=note_on channel=5 note=54 velocity=80 time=12 actual_time=48000
type=note_on channel=5 note=59 velocity=80 time=0 actual_time=48000
type=note_on channel=5 note=47 velocity=80 time=0 actual_time=48000
type=note_on channel=5 note=47 velocity=0 time=96 actual_time=48096
type=note_on channel=5 note=59 velocity=0 time=0 actual_time=48096
type=note_on channel=5 note=54 velocity=0 time=0 actual_time=48096
type=note_on channel=5 note=54 velocity=80 time=24 actual_time=48120
type=note_on channel=5 note=47 velocity=80 time=0 actual_time=48120
type=note_on channel=5 note=47 velocity=0 time=48 actual_time=48168
type=note_on channel=5 note=54 velocity=0 time=0 actual_time=48168
type=note_on channel=5 note=54 velocity=80 time=12 actual_time=48180
type=note_on channel=5 note=47 velocity=80 time=0 actual_time=48180
type=note_on channel=5 note=47 velocity=0 time=48 actual_time=48228
type=note_on channel=5 note=54 velocity=0 time=0 actual_time=48228
type=note_on channel=5 note=47 velocity=80 time=12 actual_time=48240
type=note_on channel=5 note=59 velocity=80 time=0 actual_time=48240
type=note_on channel=5 note=54 velocity=80 time=0 actual_time=48240
type=note_on channel=5 note=54 velocity=0 time=96 actual_time=48336
type=note_on channel=5 note=59 velocity=0 time=0 actual_time=48336
type=note_on channel=5 note=47 velocity=0 time=0 actual_time=48336
type=note_on channel=5 note=47 velocity=80 time=24 actual_time=48360
type=note_on channel=5 note=54 velocity=80 time=0 actual_time=48360
type=note_on channel=5 note=54 velocity=0 time=48 actual_time=48408
type=note_on channel=5 note=47 velocity=0 time=0 actual_time=48408
type=note_on channel=5 note=47 velocity=80 time=12 actual_time=48420
type=note_on channel=5 note=54 velocity=80 time=0 actual_time=48420
type=note_on channel=5 note=54 velocity=0 time=48 actual_time=48468
type=note_on channel=5 note=47 velocity=0 time=0 actual_time=48468
type=note_on channel=5 note=47 velocity=80 time=12 actual_time=48480
type=note_on channel=5 note=59 velocity=80 time=0 actual_time=48480
type=note_on channel=5 note=54 velocity=80 time=0 actual_time=48480
type=note_on channel=5 note=54 velocity=0 time=96 actual_time=48576
type=note_on channel=5 note=59 velocity=0 time=0 actual_time=48576
type=note_on channel=5 note=47 velocity=0 time=0 actual_time=48576
type=note_on channel=5 note=47 velocity=80 time=24 actual_time=48600
type=note_on channel=5 note=54 velocity=80 time=0 actual_time=48600
type=note_on channel=5 note=54 velocity=0 time=48 actual_time=48648
type=note_on channel=5 note=47 velocity=0 time=0 actual_time=48648
type=note_on channel=5 note=47 velocity=80 time=12 actual_time=48660
type=note_on channel=5 note=54 velocity=80 time=0 actual_time=48660
type=note_on channel=5 note=54 velocity=0 time=48 actual_time=48708
type=note_on channel=5 note=47 velocity=0 time=0 actual_time=48708
type=note_on channel=5 note=47 velocity=80 time=12 actual_time=48720
type=note_on channel=5 note=59 velocity=80 time=0 actual_time=48720
type=note_on channel=5 note=54 velocity=80 time=0 actual_time=48720
type=note_on channel=5 note=54 velocity=0 time=96 actual_time=48816
type=note_on channel=5 note=59 velocity=0 time=0 actual_time=48816
type=note_on channel=5 note=47 velocity=0 time=0 actual_time=48816
type=note_on channel=5 note=47 velocity=80 time=24 actual_time=48840
type=note_on channel=5 note=54 velocity=80 time=0 actual_time=48840
type=note_on channel=5 note=54 velocity=0 time=48 actual_time=48888
type=note_on channel=5 note=47 velocity=0 time=0 actual_time=48888
type=note_on channel=5 note=47 velocity=80 time=12 actual_time=48900
type=note_on channel=5 note=54 velocity=80 time=0 actual_time=48900
type=note_on channel=5 note=54 velocity=0 time=48 actual_time=48948
type=note_on channel=5 note=47 velocity=0 time=0 actual_time=48948
type=note_on channel=5 note=40 velocity=80 time=12 actual_time=48960
type=note_on channel=5 note=52 velocity=80 time=0 actual_time=48960
type=note_on channel=5 note=47 velocity=80 time=0 actual_time=48960
type=note_on channel=5 note=47 velocity=0 time=96 actual_time=49056
type=note_on channel=5 note=52 velocity=0 time=0 actual_time=49056
type=note_on channel=5 note=40 velocity=0 time=0 actual_time=49056
type=note_on channel=5 note=40 velocity=80 time=24 actual_time=49080
type=note_on channel=5 note=47 velocity=80 time=0 actual_time=49080
type=note_on channel=5 note=47 velocity=0 time=48 actual_time=49128
type=note_on channel=5 note=40 velocity=0 time=0 actual_time=49128
type=note_on channel=5 note=40 velocity=80 time=12 actual_time=49140
type=note_on channel=5 note=47 velocity=80 time=0 actual_time=49140
type=note_on channel=5 note=47 velocity=0 time=48 actual_time=49188
type=note_on channel=5 note=40 velocity=0 time=0 actual_time=49188
type=note_on channel=5 note=40 velocity=80 time=12 actual_time=49200
type=note_on channel=5 note=52 velocity=80 time=0 actual_time=49200
type=note_on channel=5 note=47 velocity=80 time=0 actual_time=49200
type=note_on channel=5 note=47 velocity=0 time=96 actual_time=49296
type=note_on channel=5 note=52 velocity=0 time=0 actual_time=49296
type=note_on channel=5 note=40 velocity=0 time=0 actual_time=49296
type=note_on channel=5 note=40 velocity=80 time=24 actual_time=49320
type=note_on channel=5 note=47 velocity=80 time=0 actual_time=49320
type=note_on channel=5 note=47 velocity=0 time=48 actual_time=49368
type=note_on channel=5 note=40 velocity=0 time=0 actual_time=49368
type=note_on channel=5 note=40 velocity=80 time=12 actual_time=49380
type=note_on channel=5 note=47 velocity=80 time=0 actual_time=49380
type=note_on channel=5 note=47 velocity=0 time=48 actual_time=49428
type=note_on channel=5 note=40 velocity=0 time=0 actual_time=49428
type=note_on channel=5 note=42 velocity=80 time=12 actual_time=49440
type=note_on channel=5 note=54 velocity=80 time=0 actual_time=49440
type=note_on channel=5 note=49 velocity=80 time=0 actual_time=49440
type=note_on channel=5 note=49 velocity=0 time=96 actual_time=49536
type=note_on channel=5 note=54 velocity=0 time=0 actual_time=49536
type=note_on channel=5 note=42 velocity=0 time=0 actual_time=49536
type=note_on channel=5 note=42 velocity=80 time=24 actual_time=49560
type=note_on channel=5 note=49 velocity=80 time=0 actual_time=49560
type=note_on channel=5 note=49 velocity=0 time=48 actual_time=49608
type=note_on channel=5 note=42 velocity=0 time=0 actual_time=49608
type=note_on channel=5 note=42 velocity=80 time=12 actual_time=49620
type=note_on channel=5 note=49 velocity=80 time=0 actual_time=49620
type=note_on channel=5 note=49 velocity=0 time=48 actual_time=49668
type=note_on channel=5 note=42 velocity=0 time=0 actual_time=49668
type=note_on channel=5 note=42 velocity=80 time=12 actual_time=49680
type=note_on channel=5 note=54 velocity=80 time=0 actual_time=49680
type=note_on channel=5 note=49 velocity=80 time=0 actual_time=49680
type=note_on channel=5 note=49 velocity=0 time=96 actual_time=49776
type=note_on channel=5 note=54 velocity=0 time=0 actual_time=49776
type=note_on channel=5 note=42 velocity=0 time=0 actual_time=49776
type=note_on channel=5 note=42 velocity=80 time=24 actual_time=49800
type=note_on channel=5 note=49 velocity=80 time=0 actual_time=49800
type=note_on channel=5 note=49 velocity=0 time=48 actual_time=49848
type=note_on channel=5 note=42 velocity=0 time=0 actual_time=49848
type=note_on channel=5 note=42 velocity=80 time=12 actual_time=49860
type=note_on channel=5 note=49 velocity=80 time=0 actual_time=49860
type=note_on channel=5 note=49 velocity=0 time=48 actual_time=49908
type=note_on channel=5 note=42 velocity=0 time=0 actual_time=49908
type=note_on channel=5 note=54 velocity=80 time=12 actual_time=49920
type=note_on channel=5 note=59 velocity=80 time=0 actual_time=49920
type=note_on channel=5 note=47 velocity=80 time=0 actual_time=49920
type=note_on channel=5 note=47 velocity=0 time=96 actual_time=50016
type=note_on channel=5 note=59 velocity=0 time=0 actual_time=50016
type=note_on channel=5 note=54 velocity=0 time=0 actual_time=50016
type=note_on channel=5 note=54 velocity=80 time=24 actual_time=50040
type=note_on channel=5 note=47 velocity=80 time=0 actual_time=50040
type=note_on channel=5 note=47 velocity=0 time=48 actual_time=50088
type=note_on channel=5 note=54 velocity=0 time=0 actual_time=50088
type=note_on channel=5 note=54 velocity=80 time=12 actual_time=50100
type=note_on channel=5 note=47 velocity=80 time=0 actual_time=50100
type=note_on channel=5 note=47 velocity=0 time=48 actual_time=50148
type=note_on channel=5 note=54 velocity=0 time=0 actual_time=50148
type=note_on channel=5 note=47 velocity=80 time=12 actual_time=50160
type=note_on channel=5 note=59 velocity=80 time=0 actual_time=50160
type=note_on channel=5 note=54 velocity=80 time=0 actual_time=50160
type=note_on channel=5 note=54 velocity=0 time=96 actual_time=50256
type=note_on channel=5 note=59 velocity=0 time=0 actual_time=50256
type=note_on channel=5 note=47 velocity=0 time=0 actual_time=50256
type=note_on channel=5 note=47 velocity=80 time=24 actual_time=50280
type=note_on channel=5 note=54 velocity=80 time=0 actual_time=50280
type=note_on channel=5 note=54 velocity=0 time=48 actual_time=50328
type=note_on channel=5 note=47 velocity=0 time=0 actual_time=50328
type=note_on channel=5 note=47 velocity=80 time=12 actual_time=50340
type=note_on channel=5 note=54 velocity=80 time=0 actual_time=50340
type=note_on channel=5 note=54 velocity=0 time=48 actual_time=50388
type=note_on channel=5 note=47 velocity=0 time=0 actual_time=50388
type=note_on channel=5 note=47 velocity=80 time=12 actual_time=50400
type=note_on channel=5 note=59 velocity=80 time=0 actual_time=50400
type=note_on channel=5 note=54 velocity=80 time=0 actual_time=50400
type=note_on channel=5 note=54 velocity=0 time=96 actual_time=50496
type=note_on channel=5 note=59 velocity=0 time=0 actual_time=50496
type=note_on channel=5 note=47 velocity=0 time=0 actual_time=50496
type=note_on channel=5 note=47 velocity=80 time=24 actual_time=50520
type=note_on channel=5 note=54 velocity=80 time=0 actual_time=50520
type=note_on channel=5 note=54 velocity=0 time=48 actual_time=50568
type=note_on channel=5 note=47 velocity=0 time=0 actual_time=50568
type=note_on channel=5 note=47 velocity=80 time=12 actual_time=50580
type=note_on channel=5 note=54 velocity=80 time=0 actual_time=50580
type=note_on channel=5 note=54 velocity=0 time=48 actual_time=50628
type=note_on channel=5 note=47 velocity=0 time=0 actual_time=50628
type=note_on channel=5 note=47 velocity=80 time=12 actual_time=50640
type=note_on channel=5 note=59 velocity=80 time=0 actual_time=50640
type=note_on channel=5 note=54 velocity=80 time=0 actual_time=50640
type=note_on channel=5 note=54 velocity=0 time=96 actual_time=50736
type=note_on channel=5 note=59 velocity=0 time=0 actual_time=50736
type=note_on channel=5 note=47 velocity=0 time=0 actual_time=50736
type=note_on channel=5 note=47 velocity=80 time=24 actual_time=50760
type=note_on channel=5 note=54 velocity=80 time=0 actual_time=50760
type=note_on channel=5 note=54 velocity=0 time=48 actual_time=50808
type=note_on channel=5 note=47 velocity=0 time=0 actual_time=50808
type=note_on channel=5 note=47 velocity=80 time=12 actual_time=50820
type=note_on channel=5 note=54 velocity=80 time=0 actual_time=50820
type=note_on channel=5 note=54 velocity=0 time=48 actual_time=50868
type=note_on channel=5 note=47 velocity=0 time=0 actual_time=50868
type=note_on channel=5 note=43 velocity=80 time=12 actual_time=50880
type=note_on channel=5 note=55 velocity=80 time=0 actual_time=50880
type=note_on channel=5 note=50 velocity=80 time=0 actual_time=50880
type=note_on channel=5 note=50 velocity=0 time=96 actual_time=50976
type=note_on channel=5 note=55 velocity=0 time=0 actual_time=50976
type=note_on channel=5 note=43 velocity=0 time=0 actual_time=50976
type=note_on channel=5 note=43 velocity=80 time=24 actual_time=51000
type=note_on channel=5 note=50 velocity=80 time=0 actual_time=51000
type=note_on channel=5 note=50 velocity=0 time=48 actual_time=51048
type=note_on channel=5 note=43 velocity=0 time=0 actual_time=51048
type=note_on channel=5 note=43 velocity=80 time=12 actual_time=51060
type=note_on channel=5 note=50 velocity=80 time=0 actual_time=51060
type=note_on channel=5 note=50 velocity=0 time=48 actual_time=51108
type=note_on channel=5 note=43 velocity=0 time=0 actual_time=51108
type=note_on channel=5 note=43 velocity=80 time=12 actual_time=51120
type=note_on channel=5 note=55 velocity=80 time=0 actual_time=51120
type=note_on channel=5 note=50 velocity=80 time=0 actual_time=51120
type=note_on channel=5 note=50 velocity=0 time=96 actual_time=51216
type=note_on channel=5 note=55 velocity=0 time=0 actual_time=51216
type=note_on channel=5 note=43 velocity=0 time=0 actual_time=51216
type=note_on channel=5 note=43 velocity=80 time=24 actual_time=51240
type=note_on channel=5 note=50 velocity=80 time=0 actual_time=51240
type=note_on channel=5 note=50 velocity=0 time=48 actual_time=51288
type=note_on channel=5 note=43 velocity=0 time=0 actual_time=51288
type=note_on channel=5 note=43 velocity=80 time=12 actual_time=51300
type=note_on channel=5 note=50 velocity=80 time=0 actual_time=51300
type=note_on channel=5 note=50 velocity=0 time=48 actual_time=51348
type=note_on channel=5 note=43 velocity=0 time=0 actual_time=51348
type=note_on channel=5 note=45 velocity=80 time=12 actual_time=51360
type=note_on channel=5 note=57 velocity=80 time=0 actual_time=51360
type=note_on channel=5 note=52 velocity=80 time=0 actual_time=51360
type=note_on channel=5 note=52 velocity=0 time=96 actual_time=51456
type=note_on channel=5 note=57 velocity=0 time=0 actual_time=51456
type=note_on channel=5 note=45 velocity=0 time=0 actual_time=51456
type=note_on channel=5 note=45 velocity=80 time=24 actual_time=51480
type=note_on channel=5 note=52 velocity=80 time=0 actual_time=51480
type=note_on channel=5 note=52 velocity=0 time=48 actual_time=51528
type=note_on channel=5 note=45 velocity=0 time=0 actual_time=51528
type=note_on channel=5 note=45 velocity=80 time=12 actual_time=51540
type=note_on channel=5 note=52 velocity=80 time=0 actual_time=51540
type=note_on channel=5 note=52 velocity=0 time=48 actual_time=51588
type=note_on channel=5 note=45 velocity=0 time=0 actual_time=51588
type=note_on channel=5 note=45 velocity=80 time=12 actual_time=51600
type=note_on channel=5 note=57 velocity=80 time=0 actual_time=51600
type=note_on channel=5 note=52 velocity=80 time=0 actual_time=51600
type=note_on channel=5 note=52 velocity=0 time=96 actual_time=51696
type=note_on channel=5 note=57 velocity=0 time=0 actual_time=51696
type=note_on channel=5 note=45 velocity=0 time=0 actual_time=51696
type=note_on channel=5 note=45 velocity=80 time=24 actual_time=51720
type=note_on channel=5 note=52 velocity=80 time=0 actual_time=51720
type=note_on channel=5 note=52 velocity=0 time=48 actual_time=51768
type=note_on channel=5 note=45 velocity=0 time=0 actual_time=51768
type=note_on channel=5 note=45 velocity=80 time=12 actual_time=51780
type=note_on channel=5 note=52 velocity=80 time=0 actual_time=51780
type=note_on channel=5 note=52 velocity=0 time=48 actual_time=51828
type=note_on channel=5 note=45 velocity=0 time=0 actual_time=51828
type=note_on channel=5 note=54 velocity=80 time=12 actual_time=51840
type=note_on channel=5 note=59 velocity=80 time=0 actual_time=51840
type=note_on channel=5 note=47 velocity=80 time=0 actual_time=51840
type=note_on channel=5 note=47 velocity=0 time=96 actual_time=51936
type=note_on channel=5 note=59 velocity=0 time=0 actual_time=51936
type=note_on channel=5 note=54 velocity=0 time=0 actual_time=51936
type=note_on channel=5 note=54 velocity=80 time=24 actual_time=51960
type=note_on channel=5 note=47 velocity=80 time=0 actual_time=51960
type=note_on channel=5 note=47 velocity=0 time=48 actual_time=52008
type=note_on channel=5 note=54 velocity=0 time=0 actual_time=52008
type=note_on channel=5 note=54 velocity=80 time=12 actual_time=52020
type=note_on channel=5 note=47 velocity=80 time=0 actual_time=52020
type=note_on channel=5 note=47 velocity=0 time=48 actual_time=52068
type=note_on channel=5 note=54 velocity=0 time=0 actual_time=52068
type=note_on channel=5 note=47 velocity=80 time=12 actual_time=52080
type=note_on channel=5 note=59 velocity=80 time=0 actual_time=52080
type=note_on channel=5 note=54 velocity=80 time=0 actual_time=52080
type=note_on channel=5 note=54 velocity=0 time=96 actual_time=52176
type=note_on channel=5 note=59 velocity=0 time=0 actual_time=52176
type=note_on channel=5 note=47 velocity=0 time=0 actual_time=52176
type=note_on channel=5 note=47 velocity=80 time=24 actual_time=52200
type=note_on channel=5 note=54 velocity=80 time=0 actual_time=52200
type=note_on channel=5 note=54 velocity=0 time=48 actual_time=52248
type=note_on channel=5 note=47 velocity=0 time=0 actual_time=52248
type=note_on channel=5 note=47 velocity=80 time=12 actual_time=52260
type=note_on channel=5 note=54 velocity=80 time=0 actual_time=52260
type=note_on channel=5 note=54 velocity=0 time=48 actual_time=52308
type=note_on channel=5 note=47 velocity=0 time=0 actual_time=52308
type=note_on channel=5 note=47 velocity=80 time=12 actual_time=52320
type=note_on channel=5 note=59 velocity=80 time=0 actual_time=52320
type=note_on channel=5 note=54 velocity=80 time=0 actual_time=52320
type=note_on channel=5 note=54 velocity=0 time=96 actual_time=52416
type=note_on channel=5 note=59 velocity=0 time=0 actual_time=52416
type=note_on channel=5 note=47 velocity=0 time=0 actual_time=52416
type=note_on channel=5 note=47 velocity=80 time=24 actual_time=52440
type=note_on channel=5 note=54 velocity=80 time=0 actual_time=52440
type=note_on channel=5 note=54 velocity=0 time=48 actual_time=52488
type=note_on channel=5 note=47 velocity=0 time=0 actual_time=52488
type=note_on channel=5 note=47 velocity=80 time=12 actual_time=52500
type=note_on channel=5 note=54 velocity=80 time=0 actual_time=52500
type=note_on channel=5 note=54 velocity=0 time=48 actual_time=52548
type=note_on channel=5 note=47 velocity=0 time=0 actual_time=52548
type=note_on channel=5 note=47 velocity=80 time=12 actual_time=52560
type=note_on channel=5 note=59 velocity=80 time=0 actual_time=52560
type=note_on channel=5 note=54 velocity=80 time=0 actual_time=52560
type=note_on channel=5 note=54 velocity=0 time=96 actual_time=52656
type=note_on channel=5 note=59 velocity=0 time=0 actual_time=52656
type=note_on channel=5 note=47 velocity=0 time=0 actual_time=52656
type=note_on channel=5 note=47 velocity=80 time=24 actual_time=52680
type=note_on channel=5 note=54 velocity=80 time=0 actual_time=52680
type=note_on channel=5 note=54 velocity=0 time=48 actual_time=52728
type=note_on channel=5 note=47 velocity=0 time=0 actual_time=52728
type=note_on channel=5 note=47 velocity=80 time=12 actual_time=52740
type=note_on channel=5 note=54 velocity=80 time=0 actual_time=52740
type=note_on channel=5 note=54 velocity=0 time=48 actual_time=52788
type=note_on channel=5 note=47 velocity=0 time=0 actual_time=52788
type=note_on channel=5 note=40 velocity=80 time=12 actual_time=52800
type=note_on channel=5 note=52 velocity=80 time=0 actual_time=52800
type=note_on channel=5 note=47 velocity=80 time=0 actual_time=52800
type=note_on channel=5 note=47 velocity=0 time=96 actual_time=52896
type=note_on channel=5 note=52 velocity=0 time=0 actual_time=52896
type=note_on channel=5 note=40 velocity=0 time=0 actual_time=52896
type=note_on channel=5 note=52 velocity=80 time=24 actual_time=52920
type=note_on channel=5 note=40 velocity=80 time=0 actual_time=52920
type=note_on channel=5 note=47 velocity=80 time=0 actual_time=52920
type=note_on channel=5 note=47 velocity=0 time=96 actual_time=53016
type=note_on channel=5 note=40 velocity=0 time=0 actual_time=53016
type=note_on channel=5 note=52 velocity=0 time=0 actual_time=53016
type=note_on channel=5 note=47 velocity=80 time=24 actual_time=53040
type=note_on channel=5 note=52 velocity=80 time=0 actual_time=53040
type=note_on channel=5 note=40 velocity=80 time=0 actual_time=53040
type=note_on channel=5 note=40 velocity=0 time=96 actual_time=53136
type=note_on channel=5 note=52 velocity=0 time=0 actual_time=53136
type=note_on channel=5 note=47 velocity=0 time=0 actual_time=53136
type=note_on channel=5 note=40 velocity=80 time=24 actual_time=53160
type=note_on channel=5 note=47 velocity=80 time=0 actual_time=53160
type=note_on channel=5 note=52 velocity=80 time=0 actual_time=53160
type=note_on channel=5 note=52 velocity=0 time=96 actual_time=53256
type=note_on channel=5 note=47 velocity=0 time=0 actual_time=53256
type=note_on channel=5 note=40 velocity=0 time=0 actual_time=53256
type=note_on channel=5 note=42 velocity=80 time=24 actual_time=53280
type=note_on channel=5 note=54 velocity=80 time=0 actual_time=53280
type=note_on channel=5 note=49 velocity=80 time=0 actual_time=53280
type=note_on channel=5 note=49 velocity=0 time=96 actual_time=53376
type=note_on channel=5 note=54 velocity=0 time=0 actual_time=53376
type=note_on channel=5 note=42 velocity=0 time=0 actual_time=53376
type=note_on channel=5 note=54 velocity=80 time=24 actual_time=53400
type=note_on channel=5 note=42 velocity=80 time=0 actual_time=53400
type=note_on channel=5 note=49 velocity=80 time=0 actual_time=53400
type=note_on channel=5 note=49 velocity=0 time=96 actual_time=53496
type=note_on channel=5 note=42 velocity=0 time=0 actual_time=53496
type=note_on channel=5 note=54 velocity=0 time=0 actual_time=53496
type=note_on channel=5 note=49 velocity=80 time=24 actual_time=53520
type=note_on channel=5 note=54 velocity=80 time=0 actual_time=53520
type=note_on channel=5 note=42 velocity=80 time=0 actual_time=53520
type=note_on channel=5 note=42 velocity=0 time=96 actual_time=53616
type=note_on channel=5 note=54 velocity=0 time=0 actual_time=53616
type=note_on channel=5 note=49 velocity=0 time=0 actual_time=53616
type=note_on channel=5 note=42 velocity=80 time=24 actual_time=53640
type=note_on channel=5 note=49 velocity=80 time=0 actual_time=53640
type=note_on channel=5 note=54 velocity=80 time=0 actual_time=53640
type=note_on channel=5 note=54 velocity=0 time=96 actual_time=53736
type=note_on channel=5 note=49 velocity=0 time=0 actual_time=53736
type=note_on channel=5 note=42 velocity=0 time=0 actual_time=53736
type=note_on channel=5 note=47 velocity=80 time=24 actual_time=53760
type=note_on channel=5 note=54 velocity=80 time=0 actual_time=53760
type=note_on channel=5 note=59 velocity=80 time=0 actual_time=53760
type=note_on channel=5 note=47 velocity=80 time=0 actual_time=53760
type=note_on channel=5 note=47 velocity=0 time=144 actual_time=53904
type=note_on channel=5 note=49 velocity=80 time=36 actual_time=53940
type=note_on channel=5 note=49 velocity=80 time=0 actual_time=53940
type=note_on channel=5 note=49 velocity=0 time=144 actual_time=54084
type=note_on channel=5 note=49 velocity=0 time=0 actual_time=54084
type=note_on channel=5 note=50 velocity=80 time=36 actual_time=54120
type=note_on channel=5 note=50 velocity=80 time=0 actual_time=54120
type=note_on channel=5 note=50 velocity=0 time=144 actual_time=54264
type=note_on channel=5 note=50 velocity=0 time=0 actual_time=54264
type=note_on channel=5 note=49 velocity=80 time=36 actual_time=54300
type=note_on channel=5 note=49 velocity=80 time=0 actual_time=54300
type=note_on channel=5 note=49 velocity=0 time=144 actual_time=54444
type=note_on channel=5 note=49 velocity=0 time=0 actual_time=54444
type=note_on channel=5 note=50 velocity=80 time=36 actual_time=54480
type=note_on channel=5 note=50 velocity=80 time=0 actual_time=54480
type=note_on channel=5 note=50 velocity=0 time=96 actual_time=54576
type=note_on channel=5 note=50 velocity=0 time=0 actual_time=54576
type=note_on channel=5 note=49 velocity=80 time=24 actual_time=54600
type=note_on channel=5 note=49 velocity=80 time=0 actual_time=54600
type=note_on channel=5 note=49 velocity=0 time=96 actual_time=54696
type=note_on channel=5 note=54 velocity=0 time=0 actual_time=54696
type=note_on channel=5 note=47 velocity=0 time=0 actual_time=54696
type=note_on channel=5 note=59 velocity=0 time=0 actual_time=54696
type=note_on channel=5 note=49 velocity=0 time=0 actual_time=54696
type=note_on channel=5 note=43 velocity=80 time=24 actual_time=54720
type=note_on channel=5 note=55 velocity=80 time=0 actual_time=54720
type=note_on channel=5 note=52 velocity=80 time=0 actual_time=54720
type=note_on channel=5 note=52 velocity=80 time=0 actual_time=54720
type=note_on channel=5 note=52 velocity=0 time=144 actual_time=54864
type=note_on channel=5 note=52 velocity=0 time=0 actual_time=54864
type=note_on channel=5 note=50 velocity=80 time=36 actual_time=54900
type=note_on channel=5 note=50 velocity=80 time=0 actual_time=54900
type=note_on channel=5 note=50 velocity=0 time=144 actual_time=55044
type=note_on channel=5 note=50 velocity=0 time=0 actual_time=55044
type=note_on channel=5 note=49 velocity=80 time=36 actual_time=55080
type=note_on channel=5 note=49 velocity=80 time=0 actual_time=55080
type=note_on channel=5 note=49 velocity=0 time=48 actual_time=55128
type=note_on channel=5 note=43 velocity=0 time=0 actual_time=55128
type=note_on channel=5 note=55 velocity=0 time=0 actual_time=55128
type=note_on channel=5 note=50 velocity=80 time=12 actual_time=55140
type=note_on channel=5 note=55 velocity=80 time=0 actual_time=55140
type=note_on channel=5 note=43 velocity=80 time=0 actual_time=55140
type=note_on channel=5 note=43 velocity=0 time=48 actual_time=55188
type=note_on channel=5 note=55 velocity=0 time=0 actual_time=55188
type=note_on channel=5 note=50 velocity=0 time=0 actual_time=55188
type=note_on channel=5 note=52 velocity=80 time=12 actual_time=55200
type=note_on channel=5 note=45 velocity=80 time=0 actual_time=55200
type=note_on channel=5 note=57 velocity=80 time=0 actual_time=55200
type=note_on channel=5 note=49 velocity=0 time=48 actual_time=55248
type=note_on channel=5 note=50 velocity=80 time=12 actual_time=55260
type=note_on channel=5 note=50 velocity=80 time=0 actual_time=55260
type=note_on channel=5 note=50 velocity=0 time=144 actual_time=55404
type=note_on channel=5 note=50 velocity=0 time=0 actual_time=55404
type=note_on channel=5 note=49 velocity=80 time=36 actual_time=55440
type=note_on channel=5 note=49 velocity=80 time=0 actual_time=55440
type=note_on channel=5 note=49 velocity=0 time=96 actual_time=55536
type=note_on channel=5 note=45 velocity=0 time=0 actual_time=55536
type=note_on channel=5 note=49 velocity=0 time=0 actual_time=55536
type=note_on channel=5 note=45 velocity=80 time=24 actual_time=55560
type=note_on channel=5 note=45 velocity=80 time=0 actual_time=55560
type=note_on channel=5 note=45 velocity=0 time=48 actual_time=55608
type=note_on channel=5 note=57 velocity=0 time=0 actual_time=55608
type=note_on channel=5 note=52 velocity=0 time=0 actual_time=55608
type=note_on channel=5 note=57 velocity=80 time=12 actual_time=55620
type=note_on channel=5 note=52 velocity=80 time=0 actual_time=55620
type=note_on channel=5 note=52 velocity=0 time=48 actual_time=55668
type=note_on channel=5 note=57 velocity=0 time=0 actual_time=55668
type=note_on channel=5 note=45 velocity=0 time=0 actual_time=55668
type=note_on channel=5 note=47 velocity=80 time=12 actual_time=55680
type=note_on channel=5 note=54 velocity=80 time=0 actual_time=55680
type=note_on channel=5 note=59 velocity=80 time=0 actual_time=55680
type=note_on channel=5 note=47 velocity=80 time=0 actual_time=55680
type=note_on channel=5 note=47 velocity=0 time=144 actual_time=55824
type=note_on channel=5 note=47 velocity=0 time=0 actual_time=55824
type=note_on channel=5 note=45 velocity=80 time=36 actual_time=55860
type=note_on channel=5 note=45 velocity=80 time=0 actual_time=55860
type=note_on channel=5 note=45 velocity=0 time=96 actual_time=55956
type=note_on channel=5 note=45 velocity=0 time=0 actual_time=55956
type=note_on channel=5 note=45 velocity=80 time=24 actual_time=55980
type=note_on channel=5 note=45 velocity=80 time=0 actual_time=55980
type=note_on channel=5 note=45 velocity=0 time=48 actual_time=56028
type=note_on channel=5 note=45 velocity=0 time=0 actual_time=56028
type=note_on channel=5 note=47 velocity=80 time=12 actual_time=56040
type=note_on channel=5 note=47 velocity=80 time=0 actual_time=56040
type=note_on channel=5 note=47 velocity=0 time=144 actual_time=56184
type=note_on channel=5 note=47 velocity=0 time=0 actual_time=56184
type=note_on channel=5 note=45 velocity=80 time=36 actual_time=56220
type=note_on channel=5 note=45 velocity=80 time=0 actual_time=56220
type=note_on channel=5 note=45 velocity=0 time=96 actual_time=56316
type=note_on channel=5 note=45 velocity=0 time=0 actual_time=56316
type=note_on channel=5 note=45 velocity=80 time=24 actual_time=56340
type=note_on channel=5 note=45 velocity=80 time=0 actual_time=56340
type=note_on channel=5 note=45 velocity=0 time=48 actual_time=56388
type=note_on channel=5 note=45 velocity=0 time=0 actual_time=56388
type=note_on channel=5 note=47 velocity=80 time=12 actual_time=56400
type=note_on channel=5 note=47 velocity=80 time=0 actual_time=56400
type=note_on channel=5 note=47 velocity=0 time=96 actual_time=56496
type=note_on channel=5 note=47 velocity=0 time=0 actual_time=56496
type=note_on channel=5 note=47 velocity=80 time=24 actual_time=56520
type=note_on channel=5 note=47 velocity=80 time=0 actual_time=56520
type=note_on channel=5 note=47 velocity=0 time=96 actual_time=56616
type=note_on channel=5 note=54 velocity=0 time=0 actual_time=56616
type=note_on channel=5 note=59 velocity=0 time=0 actual_time=56616
type=note_on channel=5 note=47 velocity=0 time=0 actual_time=56616
type=note_on channel=5 note=43 velocity=80 time=24 actual_time=56640
type=note_on channel=5 note=52 velocity=80 time=0 actual_time=56640
type=note_on channel=5 note=55 velocity=80 time=0 actual_time=56640
type=note_on channel=5 note=52 velocity=80 time=0 actual_time=56640
type=note_on channel=5 note=52 velocity=0 time=48 actual_time=56688
type=note_on channel=5 note=52 velocity=0 time=0 actual_time=56688
type=note_on channel=5 note=50 velocity=80 time=12 actual_time=56700
type=note_on channel=5 note=50 velocity=80 time=0 actual_time=56700
type=note_on channel=5 note=50 velocity=0 time=48 actual_time=56748
type=note_on channel=5 note=50 velocity=0 time=0 actual_time=56748
type=note_on channel=5 note=52 velocity=80 time=12 actual_time=56760
type=note_on channel=5 note=52 velocity=80 time=0 actual_time=56760
type=note_on channel=5 note=52 velocity=0 time=48 actual_time=56808
type=note_on channel=5 note=52 velocity=0 time=0 actual_time=56808
type=note_on channel=5 note=50 velocity=80 time=12 actual_time=56820
type=note_on channel=5 note=50 velocity=80 time=0 actual_time=56820
type=note_on channel=5 note=50 velocity=0 time=48 actual_time=56868
type=note_on channel=5 note=50 velocity=0 time=0 actual_time=56868
type=note_on channel=5 note=52 velocity=80 time=12 actual_time=56880
type=note_on channel=5 note=52 velocity=80 time=0 actual_time=56880
type=note_on channel=5 note=52 velocity=0 time=48 actual_time=56928
type=note_on channel=5 note=52 velocity=0 time=0 actual_time=56928
type=note_on channel=5 note=50 velocity=80 time=12 actual_time=56940
type=note_on channel=5 note=50 velocity=80 time=0 actual_time=56940
type=note_on channel=5 note=50 velocity=0 time=48 actual_time=56988
type=note_on channel=5 note=50 velocity=0 time=0 actual_time=56988
type=note_on channel=5 note=52 velocity=80 time=12 actual_time=57000
type=note_on channel=5 note=52 velocity=80 time=0 actual_time=57000
type=note_on channel=5 note=52 velocity=0 time=48 actual_time=57048
type=note_on channel=5 note=43 velocity=0 time=0 actual_time=57048
type=note_on channel=5 note=55 velocity=0 time=0 actual_time=57048
type=note_on channel=5 note=52 velocity=0 time=0 actual_time=57048
type=note_on channel=5 note=43 velocity=80 time=12 actual_time=57060
type=note_on channel=5 note=50 velocity=80 time=0 actual_time=57060
type=note_on channel=5 note=50 velocity=80 time=0 actual_time=57060
type=note_on channel=5 note=50 velocity=0 time=48 actual_time=57108
type=note_on channel=5 note=50 velocity=0 time=0 actual_time=57108
type=note_on channel=5 note=43 velocity=0 time=0 actual_time=57108
type=note_on channel=5 note=45 velocity=80 time=12 actual_time=57120
type=note_on channel=5 note=57 velocity=80 time=0 actual_time=57120
type=note_on channel=5 note=50 velocity=80 time=0 actual_time=57120
type=note_on channel=5 note=50 velocity=80 time=0 actual_time=57120
type=note_on channel=5 note=50 velocity=0 time=48 actual_time=57168
type=note_on channel=5 note=50 velocity=0 time=0 actual_time=57168
type=note_on channel=5 note=49 velocity=80 time=12 actual_time=57180
type=note_on channel=5 note=49 velocity=80 time=0 actual_time=57180
type=note_on channel=5 note=49 velocity=0 time=48 actual_time=57228
type=note_on channel=5 note=49 velocity=0 time=0 actual_time=57228
type=note_on channel=5 note=50 velocity=80 time=12 actual_time=57240
type=note_on channel=5 note=50 velocity=80 time=0 actual_time=57240
type=note_on channel=5 note=50 velocity=0 time=48 actual_time=57288
type=note_on channel=5 note=50 velocity=0 time=0 actual_time=57288
type=note_on channel=5 note=49 velocity=80 time=12 actual_time=57300
type=note_on channel=5 note=49 velocity=80 time=0 actual_time=57300
type=note_on channel=5 note=49 velocity=0 time=48 actual_time=57348
type=note_on channel=5 note=49 velocity=0 time=0 actual_time=57348
type=note_on channel=5 note=50 velocity=80 time=12 actual_time=57360
type=note_on channel=5 note=50 velocity=80 time=0 actual_time=57360
type=note_on channel=5 note=50 velocity=0 time=48 actual_time=57408
type=note_on channel=5 note=50 velocity=0 time=0 actual_time=57408
type=note_on channel=5 note=49 velocity=80 time=12 actual_time=57420
type=note_on channel=5 note=49 velocity=80 time=0 actual_time=57420
type=note_on channel=5 note=49 velocity=0 time=48 actual_time=57468
type=note_on channel=5 note=49 velocity=0 time=0 actual_time=57468
type=note_on channel=5 note=50 velocity=80 time=12 actual_time=57480
type=note_on channel=5 note=50 velocity=80 time=0 actual_time=57480
type=note_on channel=5 note=50 velocity=0 time=48 actual_time=57528
type=note_on channel=5 note=45 velocity=0 time=0 actual_time=57528
type=note_on channel=5 note=57 velocity=0 time=0 actual_time=57528
type=note_on channel=5 note=50 velocity=0 time=0 actual_time=57528
type=note_on channel=5 note=52 velocity=80 time=12 actual_time=57540
type=note_on channel=5 note=45 velocity=80 time=0 actual_time=57540
type=note_on channel=5 note=45 velocity=80 time=0 actual_time=57540
type=note_on channel=5 note=45 velocity=0 time=48 actual_time=57588
type=note_on channel=5 note=45 velocity=0 time=0 actual_time=57588
type=note_on channel=5 note=52 velocity=0 time=0 actual_time=57588
type=note_on channel=5 note=47 velocity=80 time=12 actual_time=57600
type=note_on channel=5 note=59 velocity=80 time=0 actual_time=57600
type=note_on channel=5 note=54 velocity=80 time=0 actual_time=57600
type=note_on channel=5 note=47 velocity=80 time=0 actual_time=57600
type=note_on channel=5 note=47 velocity=0 time=144 actual_time=57744
type=note_on channel=5 note=49 velocity=80 time=36 actual_time=57780
type=note_on channel=5 note=49 velocity=80 time=0 actual_time=57780
type=note_on channel=5 note=49 velocity=0 time=144 actual_time=57924
type=note_on channel=5 note=49 velocity=0 time=0 actual_time=57924
type=note_on channel=5 note=50 velocity=80 time=36 actual_time=57960
type=note_on channel=5 note=50 velocity=80 time=0 actual_time=57960
type=note_on channel=5 note=50 velocity=0 time=144 actual_time=58104
type=note_on channel=5 note=50 velocity=0 time=0 actual_time=58104
type=note_on channel=5 note=49 velocity=80 time=36 actual_time=58140
type=note_on channel=5 note=49 velocity=80 time=0 actual_time=58140
type=note_on channel=5 note=49 velocity=0 time=144 actual_time=58284
type=note_on channel=5 note=49 velocity=0 time=0 actual_time=58284
type=note_on channel=5 note=50 velocity=80 time=36 actual_time=58320
type=note_on channel=5 note=50 velocity=80 time=0 actual_time=58320
type=note_on channel=5 note=50 velocity=0 time=96 actual_time=58416
type=note_on channel=5 note=50 velocity=0 time=0 actual_time=58416
type=note_on channel=5 note=49 velocity=80 time=24 actual_time=58440
type=note_on channel=5 note=49 velocity=80 time=0 actual_time=58440
type=note_on channel=5 note=49 velocity=0 time=96 actual_time=58536
type=note_on channel=5 note=59 velocity=0 time=0 actual_time=58536
type=note_on channel=5 note=47 velocity=0 time=0 actual_time=58536
type=note_on channel=5 note=54 velocity=0 time=0 actual_time=58536
type=note_on channel=5 note=49 velocity=0 time=0 actual_time=58536
type=note_on channel=5 note=52 velocity=80 time=24 actual_time=58560
type=note_on channel=5 note=52 velocity=80 time=0 actual_time=58560
type=note_on channel=5 note=55 velocity=80 time=0 actual_time=58560
type=note_on channel=5 note=43 velocity=80 time=0 actual_time=58560
type=note_on channel=5 note=52 velocity=0 time=144 actual_time=58704
type=note_on channel=5 note=52 velocity=0 time=0 actual_time=58704
type=note_on channel=5 note=50 velocity=80 time=36 actual_time=58740
type=note_on channel=5 note=50 velocity=80 time=0 actual_time=58740
type=note_on channel=5 note=50 velocity=0 time=144 actual_time=58884
type=note_on channel=5 note=50 velocity=0 time=0 actual_time=58884
type=note_on channel=5 note=49 velocity=80 time=36 actual_time=58920
type=note_on channel=5 note=49 velocity=80 time=0 actual_time=58920
type=note_on channel=5 note=49 velocity=0 time=48 actual_time=58968
type=note_on channel=5 note=43 velocity=0 time=0 actual_time=58968
type=note_on channel=5 note=55 velocity=0 time=0 actual_time=58968
type=note_on channel=5 note=43 velocity=80 time=12 actual_time=58980
type=note_on channel=5 note=55 velocity=80 time=0 actual_time=58980
type=note_on channel=5 note=50 velocity=80 time=0 actual_time=58980
type=note_on channel=5 note=50 velocity=0 time=48 actual_time=59028
type=note_on channel=5 note=55 velocity=0 time=0 actual_time=59028
type=note_on channel=5 note=43 velocity=0 time=0 actual_time=59028
type=note_on channel=5 note=57 velocity=80 time=12 actual_time=59040
type=note_on channel=5 note=45 velocity=80 time=0 actual_time=59040
type=note_on channel=5 note=52 velocity=80 time=0 actual_time=59040
type=note_on channel=5 note=49 velocity=0 time=48 actual_time=59088
type=note_on channel=5 note=50 velocity=80 time=12 actual_time=59100
type=note_on channel=5 note=50 velocity=80 time=0 actual_time=59100
type=note_on channel=5 note=50 velocity=0 time=144 actual_time=59244
type=note_on channel=5 note=50 velocity=0 time=0 actual_time=59244
type=note_on channel=5 note=49 velocity=80 time=36 actual_time=59280
type=note_on channel=5 note=49 velocity=80 time=0 actual_time=59280
type=note_on channel=5 note=49 velocity=0 time=96 actual_time=59376
type=note_on channel=5 note=45 velocity=0 time=0 actual_time=59376
type=note_on channel=5 note=49 velocity=0 time=0 actual_time=59376
type=note_on channel=5 note=45 velocity=80 time=24 actual_time=59400
type=note_on channel=5 note=45 velocity=80 time=0 actual_time=59400
type=note_on channel=5 note=45 velocity=0 time=48 actual_time=59448
type=note_on channel=5 note=52 velocity=0 time=0 actual_time=59448
type=note_on channel=5 note=57 velocity=0 time=0 actual_time=59448
type=note_on channel=5 note=52 velocity=80 time=12 actual_time=59460
type=note_on channel=5 note=57 velocity=80 time=0 actual_time=59460
type=note_on channel=5 note=57 velocity=0 time=48 actual_time=59508
type=note_on channel=5 note=52 velocity=0 time=0 actual_time=59508
type=note_on channel=5 note=45 velocity=0 time=0 actual_time=59508
type=note_on channel=5 note=47 velocity=80 time=12 actual_time=59520
type=note_on channel=5 note=54 velocity=80 time=0 actual_time=59520
type=note_on channel=5 note=59 velocity=80 time=0 actual_time=59520
type=note_on channel=5 note=47 velocity=80 time=0 actual_time=59520
type=note_on channel=5 note=47 velocity=0 time=144 actual_time=59664
type=note_on channel=5 note=47 velocity=0 time=0 actual_time=59664
type=note_on channel=5 note=45 velocity=80 time=36 actual_time=59700
type=note_on channel=5 note=45 velocity=80 time=0 actual_time=59700
type=note_on channel=5 note=45 velocity=0 time=144 actual_time=59844
type=note_on channel=5 note=45 velocity=0 time=0 actual_time=59844
type=note_on channel=5 note=47 velocity=80 time=36 actual_time=59880
type=note_on channel=5 note=47 velocity=80 time=0 actual_time=59880
type=note_on channel=5 note=47 velocity=0 time=144 actual_time=60024
type=note_on channel=5 note=47 velocity=0 time=0 actual_time=60024
type=note_on channel=5 note=45 velocity=80 time=36 actual_time=60060
type=note_on channel=5 note=45 velocity=80 time=0 actual_time=60060
type=note_on channel=5 note=45 velocity=0 time=96 actual_time=60156
type=note_on channel=5 note=45 velocity=0 time=0 actual_time=60156
type=note_on channel=5 note=45 velocity=80 time=24 actual_time=60180
type=note_on channel=5 note=45 velocity=80 time=0 actual_time=60180
type=note_on channel=5 note=45 velocity=0 time=48 actual_time=60228
type=note_on channel=5 note=45 velocity=0 time=0 actual_time=60228
type=note_on channel=5 note=47 velocity=80 time=12 actual_time=60240
type=note_on channel=5 note=47 velocity=80 time=0 actual_time=60240
type=note_on channel=5 note=47 velocity=0 time=96 actual_time=60336
type=note_on channel=5 note=47 velocity=0 time=0 actual_time=60336
type=note_on channel=5 note=47 velocity=80 time=24 actual_time=60360
type=note_on channel=5 note=47 velocity=80 time=0 actual_time=60360
type=note_on channel=5 note=47 velocity=0 time=96 actual_time=60456
type=note_on channel=5 note=54 velocity=0 time=0 actual_time=60456
type=note_on channel=5 note=59 velocity=0 time=0 actual_time=60456
type=note_on channel=5 note=47 velocity=0 time=0 actual_time=60456
type=note_on channel=5 note=52 velocity=80 time=24 actual_time=60480
type=note_on channel=5 note=55 velocity=80 time=0 actual_time=60480
type=note_on channel=5 note=52 velocity=80 time=0 actual_time=60480
type=note_on channel=5 note=43 velocity=80 time=0 actual_time=60480
type=note_on channel=5 note=52 velocity=0 time=48 actual_time=60528
type=note_on channel=5 note=52 velocity=0 time=0 actual_time=60528
type=note_on channel=5 note=50 velocity=80 time=12 actual_time=60540
type=note_on channel=5 note=50 velocity=80 time=0 actual_time=60540
type=note_on channel=5 note=50 velocity=0 time=48 actual_time=60588
type=note_on channel=5 note=50 velocity=0 time=0 actual_time=60588
type=note_on channel=5 note=52 velocity=80 time=12 actual_time=60600
type=note_on channel=5 note=52 velocity=80 time=0 actual_time=60600
type=note_on channel=5 note=52 velocity=0 time=48 actual_time=60648
type=note_on channel=5 note=52 velocity=0 time=0 actual_time=60648
type=note_on channel=5 note=50 velocity=80 time=12 actual_time=60660
type=note_on channel=5 note=50 velocity=80 time=0 actual_time=60660
type=note_on channel=5 note=50 velocity=0 time=48 actual_time=60708
type=note_on channel=5 note=50 velocity=0 time=0 actual_time=60708
type=note_on channel=5 note=52 velocity=80 time=12 actual_time=60720
type=note_on channel=5 note=52 velocity=80 time=0 actual_time=60720
type=note_on channel=5 note=52 velocity=0 time=48 actual_time=60768
type=note_on channel=5 note=52 velocity=0 time=0 actual_time=60768
type=note_on channel=5 note=50 velocity=80 time=12 actual_time=60780
type=note_on channel=5 note=50 velocity=80 time=0 actual_time=60780
type=note_on channel=5 note=50 velocity=0 time=48 actual_time=60828
type=note_on channel=5 note=50 velocity=0 time=0 actual_time=60828
type=note_on channel=5 note=52 velocity=80 time=12 actual_time=60840
type=note_on channel=5 note=52 velocity=80 time=0 actual_time=60840
type=note_on channel=5 note=52 velocity=0 time=48 actual_time=60888
type=note_on channel=5 note=43 velocity=0 time=0 actual_time=60888
type=note_on channel=5 note=55 velocity=0 time=0 actual_time=60888
type=note_on channel=5 note=52 velocity=0 time=0 actual_time=60888
type=note_on channel=5 note=50 velocity=80 time=12 actual_time=60900
type=note_on channel=5 note=50 velocity=80 time=0 actual_time=60900
type=note_on channel=5 note=43 velocity=80 time=0 actual_time=60900
type=note_on channel=5 note=43 velocity=0 time=48 actual_time=60948
type=note_on channel=5 note=50 velocity=0 time=0 actual_time=60948
type=note_on channel=5 note=50 velocity=0 time=0 actual_time=60948
type=note_on channel=5 note=50 velocity=80 time=12 actual_time=60960
type=note_on channel=5 note=50 velocity=80 time=0 actual_time=60960
type=note_on channel=5 note=57 velocity=80 time=0 actual_time=60960
type=note_on channel=5 note=45 velocity=80 time=0 actual_time=60960
type=note_on channel=5 note=50 velocity=0 time=48 actual_time=61008
type=note_on channel=5 note=50 velocity=0 time=0 actual_time=61008
type=note_on channel=5 note=49 velocity=80 time=12 actual_time=61020
type=note_on channel=5 note=49 velocity=80 time=0 actual_time=61020
type=note_on channel=5 note=49 velocity=0 time=48 actual_time=61068
type=note_on channel=5 note=49 velocity=0 time=0 actual_time=61068
type=note_on channel=5 note=50 velocity=80 time=12 actual_time=61080
type=note_on channel=5 note=50 velocity=80 time=0 actual_time=61080
type=note_on channel=5 note=50 velocity=0 time=48 actual_time=61128
type=note_on channel=5 note=50 velocity=0 time=0 actual_time=61128
type=note_on channel=5 note=49 velocity=80 time=12 actual_time=61140
type=note_on channel=5 note=49 velocity=80 time=0 actual_time=61140
type=note_on channel=5 note=49 velocity=0 time=48 actual_time=61188
type=note_on channel=5 note=49 velocity=0 time=0 actual_time=61188
type=note_on channel=5 note=50 velocity=80 time=12 actual_time=61200
type=note_on channel=5 note=50 velocity=80 time=0 actual_time=61200
type=note_on channel=5 note=50 velocity=0 time=48 actual_time=61248
type=note_on channel=5 note=50 velocity=0 time=0 actual_time=61248
type=note_on channel=5 note=49 velocity=80 time=12 actual_time=61260
type=note_on channel=5 note=49 velocity=80 time=0 actual_time=61260
type=note_on channel=5 note=49 velocity=0 time=48 actual_time=61308
type=note_on channel=5 note=49 velocity=0 time=0 actual_time=61308
type=note_on channel=5 note=50 velocity=80 time=12 actual_time=61320
type=note_on channel=5 note=50 velocity=80 time=0 actual_time=61320
type=note_on channel=5 note=50 velocity=0 time=48 actual_time=61368
type=note_on channel=5 note=50 velocity=0 time=0 actual_time=61368
type=note_on channel=5 note=45 velocity=80 time=12 actual_time=61380
type=note_on channel=5 note=45 velocity=80 time=0 actual_time=61380
type=note_on channel=5 note=45 velocity=0 time=48 actual_time=61428
type=note_on channel=5 note=45 velocity=0 time=0 actual_time=61428
type=note_on channel=5 note=57 velocity=0 time=0 actual_time=61428
type=note_on channel=5 note=45 velocity=0 time=0 actual_time=61428
type=note_on channel=5 note=59 velocity=80 time=12 actual_time=61440
type=note_on channel=5 note=54 velocity=80 time=0 actual_time=61440
type=note_on channel=5 note=47 velocity=80 time=0 actual_time=61440
type=note_on channel=5 note=47 velocity=0 time=7488 actual_time=68928
type=note_on channel=5 note=54 velocity=0 time=0 actual_time=68928
type=note_on channel=5 note=59 velocity=0 time=0 actual_time=68928
type=note_on channel=5 note=52 velocity=80 time=3552 actual_time=72480
type=note_on channel=5 note=45 velocity=80 time=0 actual_time=72480
type=note_on channel=5 note=45 velocity=0 time=32 actual_time=72512
type=note_on channel=5 note=52 velocity=0 time=0 actual_time=72512
type=note_on channel=5 note=52 velocity=80 time=8 actual_time=72520
type=note_on channel=5 note=45 velocity=80 time=0 actual_time=72520
type=note_on channel=5 note=45 velocity=0 time=32 actual_time=72552
type=note_on channel=5 note=52 velocity=0 time=0 actual_time=72552
type=note_on channel=5 note=45 velocity=80 time=8 actual_time=72560
type=note_on channel=5 note=52 velocity=80 time=0 actual_time=72560
type=note_on channel=5 note=52 velocity=0 time=32 actual_time=72592
type=note_on channel=5 note=45 velocity=0 time=0 actual_time=72592
type=note_on channel=5 note=52 velocity=80 time=8 actual_time=72600
type=note_on channel=5 note=45 velocity=80 time=0 actual_time=72600
type=note_on channel=5 note=45 velocity=0 time=32 actual_time=72632
type=note_on channel=5 note=52 velocity=0 time=0 actual_time=72632
type=note_on channel=5 note=52 velocity=80 time=8 actual_time=72640
type=note_on channel=5 note=45 velocity=80 time=0 actual_time=72640
type=note_on channel=5 note=45 velocity=0 time=32 actual_time=72672
type=note_on channel=5 note=52 velocity=0 time=0 actual_time=72672
type=note_on channel=5 note=52 velocity=80 time=8 actual_time=72680
type=note_on channel=5 note=45 velocity=80 time=0 actual_time=72680
type=note_on channel=5 note=45 velocity=0 time=32 actual_time=72712
type=note_on channel=5 note=52 velocity=0 time=0 actual_time=72712
type=note_on channel=5 note=52 velocity=80 time=8 actual_time=72720
type=note_on channel=5 note=45 velocity=80 time=0 actual_time=72720
type=note_on channel=5 note=45 velocity=0 time=32 actual_time=72752
type=note_on channel=5 note=52 velocity=0 time=0 actual_time=72752
type=note_on channel=5 note=52 velocity=80 time=8 actual_time=72760
type=note_on channel=5 note=45 velocity=80 time=0 actual_time=72760
type=note_on channel=5 note=45 velocity=0 time=32 actual_time=72792
type=note_on channel=5 note=52 velocity=0 time=0 actual_time=72792
type=note_on channel=5 note=45 velocity=80 time=8 actual_time=72800
type=note_on channel=5 note=52 velocity=80 time=0 actual_time=72800
type=note_on channel=5 note=52 velocity=0 time=32 actual_time=72832
type=note_on channel=5 note=45 velocity=0 time=0 actual_time=72832
type=note_on channel=5 note=45 velocity=80 time=8 actual_time=72840
type=note_on channel=5 note=52 velocity=80 time=0 actual_time=72840
type=note_on channel=5 note=52 velocity=0 time=32 actual_time=72872
type=note_on channel=5 note=45 velocity=0 time=0 actual_time=72872
type=note_on channel=5 note=52 velocity=80 time=8 actual_time=72880
type=note_on channel=5 note=45 velocity=80 time=0 actual_time=72880
type=note_on channel=5 note=45 velocity=0 time=32 actual_time=72912
type=note_on channel=5 note=52 velocity=0 time=0 actual_time=72912
type=note_on channel=5 note=52 velocity=80 time=8 actual_time=72920
type=note_on channel=5 note=45 velocity=80 time=0 actual_time=72920
type=note_on channel=5 note=45 velocity=0 time=32 actual_time=72952
type=note_on channel=5 note=52 velocity=0 time=0 actual_time=72952
type=note_on channel=5 note=54 velocity=80 time=8 actual_time=72960
type=note_on channel=5 note=59 velocity=80 time=0 actual_time=72960
type=note_on channel=5 note=47 velocity=80 time=0 actual_time=72960
type=note_on channel=5 note=47 velocity=0 time=96 actual_time=73056
type=note_on channel=5 note=59 velocity=0 time=0 actual_time=73056
type=note_on channel=5 note=54 velocity=0 time=0 actual_time=73056
type=note_on channel=5 note=54 velocity=80 time=24 actual_time=73080
type=note_on channel=5 note=47 velocity=80 time=0 actual_time=73080
type=note_on channel=5 note=47 velocity=0 time=48 actual_time=73128
type=note_on channel=5 note=54 velocity=0 time=0 actual_time=73128
type=note_on channel=5 note=54 velocity=80 time=12 actual_time=73140
type=note_on channel=5 note=47 velocity=80 time=0 actual_time=73140
type=note_on channel=5 note=47 velocity=0 time=48 actual_time=73188
type=note_on channel=5 note=54 velocity=0 time=0 actual_time=73188
type=note_on channel=5 note=47 velocity=80 time=12 actual_time=73200
type=note_on channel=5 note=59 velocity=80 time=0 actual_time=73200
type=note_on channel=5 note=54 velocity=80 time=0 actual_time=73200
type=note_on channel=5 note=54 velocity=0 time=96 actual_time=73296
type=note_on channel=5 note=59 velocity=0 time=0 actual_time=73296
type=note_on channel=5 note=47 velocity=0 time=0 actual_time=73296
type=note_on channel=5 note=47 velocity=80 time=24 actual_time=73320
type=note_on channel=5 note=54 velocity=80 time=0 actual_time=73320
type=note_on channel=5 note=54 velocity=0 time=48 actual_time=73368
type=note_on channel=5 note=47 velocity=0 time=0 actual_time=73368
type=note_on channel=5 note=47 velocity=80 time=12 actual_time=73380
type=note_on channel=5 note=54 velocity=80 time=0 actual_time=73380
type=note_on channel=5 note=54 velocity=0 time=48 actual_time=73428
type=note_on channel=5 note=47 velocity=0 time=0 actual_time=73428
type=note_on channel=5 note=47 velocity=80 time=12 actual_time=73440
type=note_on channel=5 note=59 velocity=80 time=0 actual_time=73440
type=note_on channel=5 note=54 velocity=80 time=0 actual_time=73440
type=note_on channel=5 note=54 velocity=0 time=96 actual_time=73536
type=note_on channel=5 note=59 velocity=0 time=0 actual_time=73536
type=note_on channel=5 note=47 velocity=0 time=0 actual_time=73536
type=note_on channel=5 note=47 velocity=80 time=24 actual_time=73560
type=note_on channel=5 note=54 velocity=80 time=0 actual_time=73560
type=note_on channel=5 note=54 velocity=0 time=48 actual_time=73608
type=note_on channel=5 note=47 velocity=0 time=0 actual_time=73608
type=note_on channel=5 note=47 velocity=80 time=12 actual_time=73620
type=note_on channel=5 note=54 velocity=80 time=0 actual_time=73620
type=note_on channel=5 note=54 velocity=0 time=48 actual_time=73668
type=note_on channel=5 note=47 velocity=0 time=0 actual_time=73668
type=note_on channel=5 note=47 velocity=80 time=12 actual_time=73680
type=note_on channel=5 note=59 velocity=80 time=0 actual_time=73680
type=note_on channel=5 note=54 velocity=80 time=0 actual_time=73680
type=note_on channel=5 note=54 velocity=0 time=96 actual_time=73776
type=note_on channel=5 note=59 velocity=0 time=0 actual_time=73776
type=note_on channel=5 note=47 velocity=0 time=0 actual_time=73776
type=note_on channel=5 note=47 velocity=80 time=24 actual_time=73800
type=note_on channel=5 note=54 velocity=80 time=0 actual_time=73800
type=note_on channel=5 note=54 velocity=0 time=48 actual_time=73848
type=note_on channel=5 note=47 velocity=0 time=0 actual_time=73848
type=note_on channel=5 note=47 velocity=80 time=12 actual_time=73860
type=note_on channel=5 note=54 velocity=80 time=0 actual_time=73860
type=note_on channel=5 note=54 velocity=0 time=48 actual_time=73908
type=note_on channel=5 note=47 velocity=0 time=0 actual_time=73908
type=note_on channel=5 note=43 velocity=80 time=12 actual_time=73920
type=note_on channel=5 note=55 velocity=80 time=0 actual_time=73920
type=note_on channel=5 note=50 velocity=80 time=0 actual_time=73920
type=note_on channel=5 note=50 velocity=0 time=96 actual_time=74016
type=note_on channel=5 note=55 velocity=0 time=0 actual_time=74016
type=note_on channel=5 note=43 velocity=0 time=0 actual_time=74016
type=note_on channel=5 note=43 velocity=80 time=24 actual_time=74040
type=note_on channel=5 note=50 velocity=80 time=0 actual_time=74040
type=note_on channel=5 note=50 velocity=0 time=48 actual_time=74088
type=note_on channel=5 note=43 velocity=0 time=0 actual_time=74088
type=note_on channel=5 note=43 velocity=80 time=12 actual_time=74100
type=note_on channel=5 note=50 velocity=80 time=0 actual_time=74100
type=note_on channel=5 note=50 velocity=0 time=48 actual_time=74148
type=note_on channel=5 note=43 velocity=0 time=0 actual_time=74148
type=note_on channel=5 note=43 velocity=80 time=12 actual_time=74160
type=note_on channel=5 note=55 velocity=80 time=0 actual_time=74160
type=note_on channel=5 note=50 velocity=80 time=0 actual_time=74160
type=note_on channel=5 note=50 velocity=0 time=96 actual_time=74256
type=note_on channel=5 note=55 velocity=0 time=0 actual_time=74256
type=note_on channel=5 note=43 velocity=0 time=0 actual_time=74256
type=note_on channel=5 note=43 velocity=80 time=24 actual_time=74280
type=note_on channel=5 note=50 velocity=80 time=0 actual_time=74280
type=note_on channel=5 note=50 velocity=0 time=48 actual_time=74328
type=note_on channel=5 note=43 velocity=0 time=0 actual_time=74328
type=note_on channel=5 note=43 velocity=80 time=12 actual_time=74340
type=note_on channel=5 note=50 velocity=80 time=0 actual_time=74340
type=note_on channel=5 note=50 velocity=0 time=48 actual_time=74388
type=note_on channel=5 note=43 velocity=0 time=0 actual_time=74388
type=note_on channel=5 note=45 velocity=80 time=12 actual_time=74400
type=note_on channel=5 note=57 velocity=80 time=0 actual_time=74400
type=note_on channel=5 note=52 velocity=80 time=0 actual_time=74400
type=note_on channel=5 note=52 velocity=0 time=96 actual_time=74496
type=note_on channel=5 note=57 velocity=0 time=0 actual_time=74496
type=note_on channel=5 note=45 velocity=0 time=0 actual_time=74496
type=note_on channel=5 note=45 velocity=80 time=24 actual_time=74520
type=note_on channel=5 note=52 velocity=80 time=0 actual_time=74520
type=note_on channel=5 note=52 velocity=0 time=48 actual_time=74568
type=note_on channel=5 note=45 velocity=0 time=0 actual_time=74568
type=note_on channel=5 note=45 velocity=80 time=12 actual_time=74580
type=note_on channel=5 note=52 velocity=80 time=0 actual_time=74580
type=note_on channel=5 note=52 velocity=0 time=48 actual_time=74628
type=note_on channel=5 note=45 velocity=0 time=0 actual_time=74628
type=note_on channel=5 note=45 velocity=80 time=12 actual_time=74640
type=note_on channel=5 note=57 velocity=80 time=0 actual_time=74640
type=note_on channel=5 note=52 velocity=80 time=0 actual_time=74640
type=note_on channel=5 note=52 velocity=0 time=96 actual_time=74736
type=note_on channel=5 note=57 velocity=0 time=0 actual_time=74736
type=note_on channel=5 note=45 velocity=0 time=0 actual_time=74736
type=note_on channel=5 note=45 velocity=80 time=24 actual_time=74760
type=note_on channel=5 note=52 velocity=80 time=0 actual_time=74760
type=note_on channel=5 note=52 velocity=0 time=48 actual_time=74808
type=note_on channel=5 note=45 velocity=0 time=0 actual_time=74808
type=note_on channel=5 note=45 velocity=80 time=12 actual_time=74820
type=note_on channel=5 note=52 velocity=80 time=0 actual_time=74820
type=note_on channel=5 note=52 velocity=0 time=48 actual_time=74868
type=note_on channel=5 note=45 velocity=0 time=0 actual_time=74868
type=note_on channel=5 note=47 velocity=80 time=12 actual_time=74880
type=note_on channel=5 note=59 velocity=80 time=0 actual_time=74880
type=note_on channel=5 note=54 velocity=80 time=0 actual_time=74880
type=note_on channel=5 note=54 velocity=0 time=96 actual_time=74976
type=note_on channel=5 note=59 velocity=0 time=0 actual_time=74976
type=note_on channel=5 note=47 velocity=0 time=0 actual_time=74976
type=note_on channel=5 note=47 velocity=80 time=24 actual_time=75000
type=note_on channel=5 note=54 velocity=80 time=0 actual_time=75000
type=note_on channel=5 note=54 velocity=0 time=48 actual_time=75048
type=note_on channel=5 note=47 velocity=0 time=0 actual_time=75048
type=note_on channel=5 note=47 velocity=80 time=12 actual_time=75060
type=note_on channel=5 note=54 velocity=80 time=0 actual_time=75060
type=note_on channel=5 note=54 velocity=0 time=48 actual_time=75108
type=note_on channel=5 note=47 velocity=0 time=0 actual_time=75108
type=note_on channel=5 note=54 velocity=80 time=12 actual_time=75120
type=note_on channel=5 note=59 velocity=80 time=0 actual_time=75120
type=note_on channel=5 note=47 velocity=80 time=0 actual_time=75120
type=note_on channel=5 note=47 velocity=0 time=96 actual_time=75216
type=note_on channel=5 note=59 velocity=0 time=0 actual_time=75216
type=note_on channel=5 note=54 velocity=0 time=0 actual_time=75216
type=note_on channel=5 note=54 velocity=80 time=24 actual_time=75240
type=note_on channel=5 note=47 velocity=80 time=0 actual_time=75240
type=note_on channel=5 note=47 velocity=0 time=48 actual_time=75288
type=note_on channel=5 note=54 velocity=0 time=0 actual_time=75288
type=note_on channel=5 note=54 velocity=80 time=12 actual_time=75300
type=note_on channel=5 note=47 velocity=80 time=0 actual_time=75300
type=note_on channel=5 note=47 velocity=0 time=48 actual_time=75348
type=note_on channel=5 note=54 velocity=0 time=0 actual_time=75348
type=note_on channel=5 note=54 velocity=80 time=12 actual_time=75360
type=note_on channel=5 note=59 velocity=80 time=0 actual_time=75360
type=note_on channel=5 note=47 velocity=80 time=0 actual_time=75360
type=note_on channel=5 note=47 velocity=0 time=96 actual_time=75456
type=note_on channel=5 note=59 velocity=0 time=0 actual_time=75456
type=note_on channel=5 note=54 velocity=0 time=0 actual_time=75456
type=note_on channel=5 note=54 velocity=80 time=24 actual_time=75480
type=note_on channel=5 note=47 velocity=80 time=0 actual_time=75480
type=note_on channel=5 note=47 velocity=0 time=48 actual_time=75528
type=note_on channel=5 note=54 velocity=0 time=0 actual_time=75528
type=note_on channel=5 note=54 velocity=80 time=12 actual_time=75540
type=note_on channel=5 note=47 velocity=80 time=0 actual_time=75540
type=note_on channel=5 note=47 velocity=0 time=48 actual_time=75588
type=note_on channel=5 note=54 velocity=0 time=0 actual_time=75588
type=note_on channel=5 note=54 velocity=80 time=12 actual_time=75600
type=note_on channel=5 note=59 velocity=80 time=0 actual_time=75600
type=note_on channel=5 note=47 velocity=80 time=0 actual_time=75600
type=note_on channel=5 note=47 velocity=0 time=96 actual_time=75696
type=note_on channel=5 note=59 velocity=0 time=0 actual_time=75696
type=note_on channel=5 note=54 velocity=0 time=0 actual_time=75696
type=note_on channel=5 note=54 velocity=80 time=24 actual_time=75720
type=note_on channel=5 note=47 velocity=80 time=0 actual_time=75720
type=note_on channel=5 note=47 velocity=0 time=48 actual_time=75768
type=note_on channel=5 note=54 velocity=0 time=0 actual_time=75768
type=note_on channel=5 note=54 velocity=80 time=12 actual_time=75780
type=note_on channel=5 note=47 velocity=80 time=0 actual_time=75780
type=note_on channel=5 note=47 velocity=0 time=48 actual_time=75828
type=note_on channel=5 note=54 velocity=0 time=0 actual_time=75828
type=note_on channel=5 note=47 velocity=80 time=12 actual_time=75840
type=note_on channel=5 note=52 velocity=80 time=0 actual_time=75840
type=note_on channel=5 note=40 velocity=80 time=0 actual_time=75840
type=note_on channel=5 note=40 velocity=0 time=96 actual_time=75936
type=note_on channel=5 note=52 velocity=0 time=0 actual_time=75936
type=note_on channel=5 note=47 velocity=0 time=0 actual_time=75936
type=note_on channel=5 note=47 velocity=80 time=24 actual_time=75960
type=note_on channel=5 note=40 velocity=80 time=0 actual_time=75960
type=note_on channel=5 note=40 velocity=0 time=48 actual_time=76008
type=note_on channel=5 note=47 velocity=0 time=0 actual_time=76008
type=note_on channel=5 note=47 velocity=80 time=12 actual_time=76020
type=note_on channel=5 note=40 velocity=80 time=0 actual_time=76020
type=note_on channel=5 note=40 velocity=0 time=48 actual_time=76068
type=note_on channel=5 note=47 velocity=0 time=0 actual_time=76068
type=note_on channel=5 note=47 velocity=80 time=12 actual_time=76080
type=note_on channel=5 note=52 velocity=80 time=0 actual_time=76080
type=note_on channel=5 note=40 velocity=80 time=0 actual_time=76080
type=note_on channel=5 note=40 velocity=0 time=96 actual_time=76176
type=note_on channel=5 note=52 velocity=0 time=0 actual_time=76176
type=note_on channel=5 note=47 velocity=0 time=0 actual_time=76176
type=note_on channel=5 note=47 velocity=80 time=24 actual_time=76200
type=note_on channel=5 note=40 velocity=80 time=0 actual_time=76200
type=note_on channel=5 note=40 velocity=0 time=48 actual_time=76248
type=note_on channel=5 note=47 velocity=0 time=0 actual_time=76248
type=note_on channel=5 note=47 velocity=80 time=12 actual_time=76260
type=note_on channel=5 note=40 velocity=80 time=0 actual_time=76260
type=note_on channel=5 note=40 velocity=0 time=48 actual_time=76308
type=note_on channel=5 note=47 velocity=0 time=0 actual_time=76308
type=note_on channel=5 note=49 velocity=80 time=12 actual_time=76320
type=note_on channel=5 note=54 velocity=80 time=0 actual_time=76320
type=note_on channel=5 note=42 velocity=80 time=0 actual_time=76320
type=note_on channel=5 note=42 velocity=0 time=96 actual_time=76416
type=note_on channel=5 note=54 velocity=0 time=0 actual_time=76416
type=note_on channel=5 note=49 velocity=0 time=0 actual_time=76416
type=note_on channel=5 note=49 velocity=80 time=24 actual_time=76440
type=note_on channel=5 note=42 velocity=80 time=0 actual_time=76440
type=note_on channel=5 note=42 velocity=0 time=48 actual_time=76488
type=note_on channel=5 note=49 velocity=0 time=0 actual_time=76488
type=note_on channel=5 note=49 velocity=80 time=12 actual_time=76500
type=note_on channel=5 note=42 velocity=80 time=0 actual_time=76500
type=note_on channel=5 note=42 velocity=0 time=48 actual_time=76548
type=note_on channel=5 note=49 velocity=0 time=0 actual_time=76548
type=note_on channel=5 note=49 velocity=80 time=12 actual_time=76560
type=note_on channel=5 note=54 velocity=80 time=0 actual_time=76560
type=note_on channel=5 note=42 velocity=80 time=0 actual_time=76560
type=note_on channel=5 note=42 velocity=0 time=96 actual_time=76656
type=note_on channel=5 note=54 velocity=0 time=0 actual_time=76656
type=note_on channel=5 note=49 velocity=0 time=0 actual_time=76656
type=note_on channel=5 note=49 velocity=80 time=24 actual_time=76680
type=note_on channel=5 note=42 velocity=80 time=0 actual_time=76680
type=note_on channel=5 note=42 velocity=0 time=48 actual_time=76728
type=note_on channel=5 note=49 velocity=0 time=0 actual_time=76728
type=note_on channel=5 note=49 velocity=80 time=12 actual_time=76740
type=note_on channel=5 note=42 velocity=80 time=0 actual_time=76740
type=note_on channel=5 note=42 velocity=0 time=48 actual_time=76788
type=note_on channel=5 note=49 velocity=0 time=0 actual_time=76788
type=note_on channel=5 note=54 velocity=80 time=12 actual_time=76800
type=note_on channel=5 note=59 velocity=80 time=0 actual_time=76800
type=note_on channel=5 note=47 velocity=80 time=0 actual_time=76800
type=note_on channel=5 note=47 velocity=0 time=96 actual_time=76896
type=note_on channel=5 note=59 velocity=0 time=0 actual_time=76896
type=note_on channel=5 note=54 velocity=0 time=0 actual_time=76896
type=note_on channel=5 note=54 velocity=80 time=24 actual_time=76920
type=note_on channel=5 note=47 velocity=80 time=0 actual_time=76920
type=note_on channel=5 note=47 velocity=0 time=48 actual_time=76968
type=note_on channel=5 note=54 velocity=0 time=0 actual_time=76968
type=note_on channel=5 note=54 velocity=80 time=12 actual_time=76980
type=note_on channel=5 note=47 velocity=80 time=0 actual_time=76980
type=note_on channel=5 note=47 velocity=0 time=48 actual_time=77028
type=note_on channel=5 note=54 velocity=0 time=0 actual_time=77028
type=note_on channel=5 note=47 velocity=80 time=12 actual_time=77040
type=note_on channel=5 note=59 velocity=80 time=0 actual_time=77040
type=note_on channel=5 note=54 velocity=80 time=0 actual_time=77040
type=note_on channel=5 note=54 velocity=0 time=96 actual_time=77136
type=note_on channel=5 note=59 velocity=0 time=0 actual_time=77136
type=note_on channel=5 note=47 velocity=0 time=0 actual_time=77136
type=note_on channel=5 note=47 velocity=80 time=24 actual_time=77160
type=note_on channel=5 note=54 velocity=80 time=0 actual_time=77160
type=note_on channel=5 note=54 velocity=0 time=48 actual_time=77208
type=note_on channel=5 note=47 velocity=0 time=0 actual_time=77208
type=note_on channel=5 note=47 velocity=80 time=12 actual_time=77220
type=note_on channel=5 note=54 velocity=80 time=0 actual_time=77220
type=note_on channel=5 note=54 velocity=0 time=48 actual_time=77268
type=note_on channel=5 note=47 velocity=0 time=0 actual_time=77268
type=note_on channel=5 note=47 velocity=80 time=12 actual_time=77280
type=note_on channel=5 note=59 velocity=80 time=0 actual_time=77280
type=note_on channel=5 note=54 velocity=80 time=0 actual_time=77280
type=note_on channel=5 note=54 velocity=0 time=96 actual_time=77376
type=note_on channel=5 note=59 velocity=0 time=0 actual_time=77376
type=note_on channel=5 note=47 velocity=0 time=0 actual_time=77376
type=note_on channel=5 note=47 velocity=80 time=24 actual_time=77400
type=note_on channel=5 note=54 velocity=80 time=0 actual_time=77400
type=note_on channel=5 note=54 velocity=0 time=48 actual_time=77448
type=note_on channel=5 note=47 velocity=0 time=0 actual_time=77448
type=note_on channel=5 note=47 velocity=80 time=12 actual_time=77460
type=note_on channel=5 note=54 velocity=80 time=0 actual_time=77460
type=note_on channel=5 note=54 velocity=0 time=48 actual_time=77508
type=note_on channel=5 note=47 velocity=0 time=0 actual_time=77508
type=note_on channel=5 note=47 velocity=80 time=12 actual_time=77520
type=note_on channel=5 note=59 velocity=80 time=0 actual_time=77520
type=note_on channel=5 note=54 velocity=80 time=0 actual_time=77520
type=note_on channel=5 note=54 velocity=0 time=96 actual_time=77616
type=note_on channel=5 note=59 velocity=0 time=0 actual_time=77616
type=note_on channel=5 note=47 velocity=0 time=0 actual_time=77616
type=note_on channel=5 note=47 velocity=80 time=24 actual_time=77640
type=note_on channel=5 note=54 velocity=80 time=0 actual_time=77640
type=note_on channel=5 note=54 velocity=0 time=48 actual_time=77688
type=note_on channel=5 note=47 velocity=0 time=0 actual_time=77688
type=note_on channel=5 note=47 velocity=80 time=12 actual_time=77700
type=note_on channel=5 note=54 velocity=80 time=0 actual_time=77700
type=note_on channel=5 note=54 velocity=0 time=48 actual_time=77748
type=note_on channel=5 note=47 velocity=0 time=0 actual_time=77748
type=note_on channel=5 note=43 velocity=80 time=12 actual_time=77760
type=note_on channel=5 note=55 velocity=80 time=0 actual_time=77760
type=note_on channel=5 note=50 velocity=80 time=0 actual_time=77760
type=note_on channel=5 note=50 velocity=0 time=96 actual_time=77856
type=note_on channel=5 note=55 velocity=0 time=0 actual_time=77856
type=note_on channel=5 note=43 velocity=0 time=0 actual_time=77856
type=note_on channel=5 note=43 velocity=80 time=24 actual_time=77880
type=note_on channel=5 note=50 velocity=80 time=0 actual_time=77880
type=note_on channel=5 note=50 velocity=0 time=48 actual_time=77928
type=note_on channel=5 note=43 velocity=0 time=0 actual_time=77928
type=note_on channel=5 note=43 velocity=80 time=12 actual_time=77940
type=note_on channel=5 note=50 velocity=80 time=0 actual_time=77940
type=note_on channel=5 note=50 velocity=0 time=48 actual_time=77988
type=note_on channel=5 note=43 velocity=0 time=0 actual_time=77988
type=note_on channel=5 note=43 velocity=80 time=12 actual_time=78000
type=note_on channel=5 note=55 velocity=80 time=0 actual_time=78000
type=note_on channel=5 note=50 velocity=80 time=0 actual_time=78000
type=note_on channel=5 note=50 velocity=0 time=96 actual_time=78096
type=note_on channel=5 note=55 velocity=0 time=0 actual_time=78096
type=note_on channel=5 note=43 velocity=0 time=0 actual_time=78096
type=note_on channel=5 note=43 velocity=80 time=24 actual_time=78120
type=note_on channel=5 note=50 velocity=80 time=0 actual_time=78120
type=note_on channel=5 note=50 velocity=0 time=48 actual_time=78168
type=note_on channel=5 note=43 velocity=0 time=0 actual_time=78168
type=note_on channel=5 note=43 velocity=80 time=12 actual_time=78180
type=note_on channel=5 note=50 velocity=80 time=0 actual_time=78180
type=note_on channel=5 note=50 velocity=0 time=48 actual_time=78228
type=note_on channel=5 note=43 velocity=0 time=0 actual_time=78228
type=note_on channel=5 note=45 velocity=80 time=12 actual_time=78240
type=note_on channel=5 note=57 velocity=80 time=0 actual_time=78240
type=note_on channel=5 note=52 velocity=80 time=0 actual_time=78240
type=note_on channel=5 note=52 velocity=0 time=96 actual_time=78336
type=note_on channel=5 note=57 velocity=0 time=0 actual_time=78336
type=note_on channel=5 note=45 velocity=0 time=0 actual_time=78336
type=note_on channel=5 note=45 velocity=80 time=24 actual_time=78360
type=note_on channel=5 note=52 velocity=80 time=0 actual_time=78360
type=note_on channel=5 note=52 velocity=0 time=48 actual_time=78408
type=note_on channel=5 note=45 velocity=0 time=0 actual_time=78408
type=note_on channel=5 note=45 velocity=80 time=12 actual_time=78420
type=note_on channel=5 note=52 velocity=80 time=0 actual_time=78420
type=note_on channel=5 note=52 velocity=0 time=48 actual_time=78468
type=note_on channel=5 note=45 velocity=0 time=0 actual_time=78468
type=note_on channel=5 note=45 velocity=80 time=12 actual_time=78480
type=note_on channel=5 note=57 velocity=80 time=0 actual_time=78480
type=note_on channel=5 note=52 velocity=80 time=0 actual_time=78480
type=note_on channel=5 note=52 velocity=0 time=96 actual_time=78576
type=note_on channel=5 note=57 velocity=0 time=0 actual_time=78576
type=note_on channel=5 note=45 velocity=0 time=0 actual_time=78576
type=note_on channel=5 note=45 velocity=80 time=24 actual_time=78600
type=note_on channel=5 note=52 velocity=80 time=0 actual_time=78600
type=note_on channel=5 note=52 velocity=0 time=48 actual_time=78648
type=note_on channel=5 note=45 velocity=0 time=0 actual_time=78648
type=note_on channel=5 note=45 velocity=80 time=12 actual_time=78660
type=note_on channel=5 note=52 velocity=80 time=0 actual_time=78660
type=note_on channel=5 note=52 velocity=0 time=48 actual_time=78708
type=note_on channel=5 note=45 velocity=0 time=0 actual_time=78708
type=note_on channel=5 note=54 velocity=80 time=12 actual_time=78720
type=note_on channel=5 note=59 velocity=80 time=0 actual_time=78720
type=note_on channel=5 note=47 velocity=80 time=0 actual_time=78720
type=note_on channel=5 note=47 velocity=0 time=96 actual_time=78816
type=note_on channel=5 note=59 velocity=0 time=0 actual_time=78816
type=note_on channel=5 note=54 velocity=0 time=0 actual_time=78816
type=note_on channel=5 note=54 velocity=80 time=24 actual_time=78840
type=note_on channel=5 note=47 velocity=80 time=0 actual_time=78840
type=note_on channel=5 note=47 velocity=0 time=48 actual_time=78888
type=note_on channel=5 note=54 velocity=0 time=0 actual_time=78888
type=note_on channel=5 note=54 velocity=80 time=12 actual_time=78900
type=note_on channel=5 note=47 velocity=80 time=0 actual_time=78900
type=note_on channel=5 note=47 velocity=0 time=48 actual_time=78948
type=note_on channel=5 note=54 velocity=0 time=0 actual_time=78948
type=note_on channel=5 note=47 velocity=80 time=12 actual_time=78960
type=note_on channel=5 note=59 velocity=80 time=0 actual_time=78960
type=note_on channel=5 note=54 velocity=80 time=0 actual_time=78960
type=note_on channel=5 note=54 velocity=0 time=96 actual_time=79056
type=note_on channel=5 note=59 velocity=0 time=0 actual_time=79056
type=note_on channel=5 note=47 velocity=0 time=0 actual_time=79056
type=note_on channel=5 note=47 velocity=80 time=24 actual_time=79080
type=note_on channel=5 note=54 velocity=80 time=0 actual_time=79080
type=note_on channel=5 note=54 velocity=0 time=48 actual_time=79128
type=note_on channel=5 note=47 velocity=0 time=0 actual_time=79128
type=note_on channel=5 note=47 velocity=80 time=12 actual_time=79140
type=note_on channel=5 note=54 velocity=80 time=0 actual_time=79140
type=note_on channel=5 note=54 velocity=0 time=48 actual_time=79188
type=note_on channel=5 note=47 velocity=0 time=0 actual_time=79188
type=note_on channel=5 note=47 velocity=80 time=12 actual_time=79200
type=note_on channel=5 note=59 velocity=80 time=0 actual_time=79200
type=note_on channel=5 note=54 velocity=80 time=0 actual_time=79200
type=note_on channel=5 note=54 velocity=0 time=96 actual_time=79296
type=note_on channel=5 note=59 velocity=0 time=0 actual_time=79296
type=note_on channel=5 note=47 velocity=0 time=0 actual_time=79296
type=note_on channel=5 note=47 velocity=80 time=24 actual_time=79320
type=note_on channel=5 note=54 velocity=80 time=0 actual_time=79320
type=note_on channel=5 note=54 velocity=0 time=48 actual_time=79368
type=note_on channel=5 note=47 velocity=0 time=0 actual_time=79368
type=note_on channel=5 note=47 velocity=80 time=12 actual_time=79380
type=note_on channel=5 note=54 velocity=80 time=0 actual_time=79380
type=note_on channel=5 note=54 velocity=0 time=48 actual_time=79428
type=note_on channel=5 note=47 velocity=0 time=0 actual_time=79428
type=note_on channel=5 note=47 velocity=80 time=12 actual_time=79440
type=note_on channel=5 note=59 velocity=80 time=0 actual_time=79440
type=note_on channel=5 note=54 velocity=80 time=0 actual_time=79440
type=note_on channel=5 note=54 velocity=0 time=96 actual_time=79536
type=note_on channel=5 note=59 velocity=0 time=0 actual_time=79536
type=note_on channel=5 note=47 velocity=0 time=0 actual_time=79536
type=note_on channel=5 note=47 velocity=80 time=24 actual_time=79560
type=note_on channel=5 note=54 velocity=80 time=0 actual_time=79560
type=note_on channel=5 note=54 velocity=0 time=48 actual_time=79608
type=note_on channel=5 note=47 velocity=0 time=0 actual_time=79608
type=note_on channel=5 note=47 velocity=80 time=12 actual_time=79620
type=note_on channel=5 note=54 velocity=80 time=0 actual_time=79620
type=note_on channel=5 note=54 velocity=0 time=48 actual_time=79668
type=note_on channel=5 note=47 velocity=0 time=0 actual_time=79668
type=note_on channel=5 note=40 velocity=80 time=12 actual_time=79680
type=note_on channel=5 note=52 velocity=80 time=0 actual_time=79680
type=note_on channel=5 note=47 velocity=80 time=0 actual_time=79680
type=note_on channel=5 note=47 velocity=0 time=96 actual_time=79776
type=note_on channel=5 note=52 velocity=0 time=0 actual_time=79776
type=note_on channel=5 note=40 velocity=0 time=0 actual_time=79776
type=note_on channel=5 note=52 velocity=80 time=24 actual_time=79800
type=note_on channel=5 note=40 velocity=80 time=0 actual_time=79800
type=note_on channel=5 note=47 velocity=80 time=0 actual_time=79800
type=note_on channel=5 note=47 velocity=0 time=96 actual_time=79896
type=note_on channel=5 note=40 velocity=0 time=0 actual_time=79896
type=note_on channel=5 note=52 velocity=0 time=0 actual_time=79896
type=note_on channel=5 note=47 velocity=80 time=24 actual_time=79920
type=note_on channel=5 note=52 velocity=80 time=0 actual_time=79920
type=note_on channel=5 note=40 velocity=80 time=0 actual_time=79920
type=note_on channel=5 note=40 velocity=0 time=96 actual_time=80016
type=note_on channel=5 note=52 velocity=0 time=0 actual_time=80016
type=note_on channel=5 note=47 velocity=0 time=0 actual_time=80016
type=note_on channel=5 note=40 velocity=80 time=24 actual_time=80040
type=note_on channel=5 note=47 velocity=80 time=0 actual_time=80040
type=note_on channel=5 note=52 velocity=80 time=0 actual_time=80040
type=note_on channel=5 note=52 velocity=0 time=96 actual_time=80136
type=note_on channel=5 note=47 velocity=0 time=0 actual_time=80136
type=note_on channel=5 note=40 velocity=0 time=0 actual_time=80136
type=note_on channel=5 note=42 velocity=80 time=24 actual_time=80160
type=note_on channel=5 note=54 velocity=80 time=0 actual_time=80160
type=note_on channel=5 note=49 velocity=80 time=0 actual_time=80160
type=note_on channel=5 note=49 velocity=0 time=96 actual_time=80256
type=note_on channel=5 note=54 velocity=0 time=0 actual_time=80256
type=note_on channel=5 note=42 velocity=0 time=0 actual_time=80256
type=note_on channel=5 note=54 velocity=80 time=24 actual_time=80280
type=note_on channel=5 note=42 velocity=80 time=0 actual_time=80280
type=note_on channel=5 note=49 velocity=80 time=0 actual_time=80280
type=note_on channel=5 note=49 velocity=0 time=96 actual_time=80376
type=note_on channel=5 note=42 velocity=0 time=0 actual_time=80376
type=note_on channel=5 note=54 velocity=0 time=0 actual_time=80376
type=note_on channel=5 note=49 velocity=80 time=24 actual_time=80400
type=note_on channel=5 note=54 velocity=80 time=0 actual_time=80400
type=note_on channel=5 note=42 velocity=80 time=0 actual_time=80400
type=note_on channel=5 note=42 velocity=0 time=96 actual_time=80496
type=note_on channel=5 note=54 velocity=0 time=0 actual_time=80496
type=note_on channel=5 note=49 velocity=0 time=0 actual_time=80496
type=note_on channel=5 note=42 velocity=80 time=24 actual_time=80520
type=note_on channel=5 note=49 velocity=80 time=0 actual_time=80520
type=note_on channel=5 note=54 velocity=80 time=0 actual_time=80520
type=note_on channel=5 note=54 velocity=0 time=96 actual_time=80616
type=note_on channel=5 note=49 velocity=0 time=0 actual_time=80616
type=note_on channel=5 note=42 velocity=0 time=0 actual_time=80616
type=note_on channel=5 note=47 velocity=80 time=24 actual_time=80640
type=note_on channel=5 note=59 velocity=80 time=0 actual_time=80640
type=note_on channel=5 note=54 velocity=80 time=0 actual_time=80640
type=note_on channel=5 note=47 velocity=80 time=0 actual_time=80640
type=note_on channel=5 note=47 velocity=0 time=144 actual_time=80784
type=note_on channel=5 note=49 velocity=80 time=36 actual_time=80820
type=note_on channel=5 note=49 velocity=80 time=0 actual_time=80820
type=note_on channel=5 note=49 velocity=0 time=144 actual_time=80964
type=note_on channel=5 note=49 velocity=0 time=0 actual_time=80964
type=note_on channel=5 note=50 velocity=80 time=36 actual_time=81000
type=note_on channel=5 note=50 velocity=80 time=0 actual_time=81000
type=note_on channel=5 note=50 velocity=0 time=144 actual_time=81144
type=note_on channel=5 note=47 velocity=0 time=0 actual_time=81144
type=note_on channel=5 note=50 velocity=0 time=0 actual_time=81144
type=note_on channel=5 note=49 velocity=80 time=36 actual_time=81180
type=note_on channel=5 note=49 velocity=80 time=0 actual_time=81180
type=note_on channel=5 note=49 velocity=0 time=144 actual_time=81324
type=note_on channel=5 note=49 velocity=0 time=0 actual_time=81324
type=note_on channel=5 note=50 velocity=80 time=36 actual_time=81360
type=note_on channel=5 note=50 velocity=80 time=0 actual_time=81360
type=note_on channel=5 note=50 velocity=0 time=96 actual_time=81456
type=note_on channel=5 note=50 velocity=0 time=0 actual_time=81456
type=note_on channel=5 note=49 velocity=80 time=24 actual_time=81480
type=note_on channel=5 note=49 velocity=80 time=0 actual_time=81480
type=note_on channel=5 note=49 velocity=0 time=96 actual_time=81576
type=note_on channel=5 note=59 velocity=0 time=0 actual_time=81576
type=note_on channel=5 note=54 velocity=0 time=0 actual_time=81576
type=note_on channel=5 note=49 velocity=0 time=0 actual_time=81576
type=note_on channel=5 note=47 velocity=64 time=0 actual_time=81576
type=note_on channel=5 note=47 velocity=0 time=0 actual_time=81576
type=note_on channel=5 note=52 velocity=80 time=24 actual_time=81600
type=note_on channel=5 note=52 velocity=80 time=0 actual_time=81600
type=note_on channel=5 note=55 velocity=80 time=0 actual_time=81600
type=note_on channel=5 note=43 velocity=80 time=0 actual_time=81600
type=note_on channel=5 note=52 velocity=0 time=144 actual_time=81744
type=note_on channel=5 note=52 velocity=0 time=0 actual_time=81744
type=note_on channel=5 note=50 velocity=80 time=36 actual_time=81780
type=note_on channel=5 note=50 velocity=80 time=0 actual_time=81780
type=note_on channel=5 note=50 velocity=0 time=144 actual_time=81924
type=note_on channel=5 note=50 velocity=0 time=0 actual_time=81924
type=note_on channel=5 note=49 velocity=80 time=36 actual_time=81960
type=note_on channel=5 note=49 velocity=80 time=0 actual_time=81960
type=note_on channel=5 note=49 velocity=0 time=48 actual_time=82008
type=note_on channel=5 note=43 velocity=0 time=0 actual_time=82008
type=note_on channel=5 note=55 velocity=0 time=0 actual_time=82008
type=note_on channel=5 note=49 velocity=0 time=0 actual_time=82008
type=note_on channel=5 note=43 velocity=80 time=12 actual_time=82020
type=note_on channel=5 note=55 velocity=80 time=0 actual_time=82020
type=note_on channel=5 note=50 velocity=80 time=0 actual_time=82020
type=note_on channel=5 note=50 velocity=0 time=48 actual_time=82068
type=note_on channel=5 note=55 velocity=0 time=0 actual_time=82068
type=note_on channel=5 note=43 velocity=0 time=0 actual_time=82068
type=note_on channel=5 note=57 velocity=80 time=12 actual_time=82080
type=note_on channel=5 note=45 velocity=80 time=0 actual_time=82080
type=note_on channel=5 note=52 velocity=80 time=0 actual_time=82080
type=note_on channel=5 note=49 velocity=64 time=48 actual_time=82128
type=note_on channel=5 note=49 velocity=0 time=0 actual_time=82128
type=note_on channel=5 note=50 velocity=80 time=12 actual_time=82140
type=note_on channel=5 note=50 velocity=80 time=0 actual_time=82140
type=note_on channel=5 note=50 velocity=0 time=144 actual_time=82284
type=note_on channel=5 note=50 velocity=0 time=0 actual_time=82284
type=note_on channel=5 note=49 velocity=80 time=36 actual_time=82320
type=note_on channel=5 note=49 velocity=80 time=0 actual_time=82320
type=note_on channel=5 note=49 velocity=0 time=96 actual_time=82416
type=note_on channel=5 note=45 velocity=0 time=0 actual_time=82416
type=note_on channel=5 note=49 velocity=0 time=0 actual_time=82416
type=note_on channel=5 note=45 velocity=80 time=24 actual_time=82440
type=note_on channel=5 note=45 velocity=80 time=0 actual_time=82440
type=note_on channel=5 note=45 velocity=0 time=48 actual_time=82488
type=note_on channel=5 note=57 velocity=0 time=0 actual_time=82488
type=note_on channel=5 note=52 velocity=0 time=0 actual_time=82488
type=note_on channel=5 note=52 velocity=80 time=12 actual_time=82500
type=note_on channel=5 note=57 velocity=80 time=0 actual_time=82500
type=note_on channel=5 note=57 velocity=0 time=48 actual_time=82548
type=note_on channel=5 note=52 velocity=0 time=0 actual_time=82548
type=note_on channel=5 note=45 velocity=0 time=0 actual_time=82548
type=note_on channel=5 note=47 velocity=80 time=12 actual_time=82560
type=note_on channel=5 note=59 velocity=80 time=0 actual_time=82560
type=note_on channel=5 note=54 velocity=80 time=0 actual_time=82560
type=note_on channel=5 note=47 velocity=80 time=0 actual_time=82560
type=note_on channel=5 note=47 velocity=0 time=144 actual_time=82704
type=note_on channel=5 note=47 velocity=0 time=0 actual_time=82704
type=note_on channel=5 note=45 velocity=80 time=36 actual_time=82740
type=note_on channel=5 note=45 velocity=80 time=0 actual_time=82740
type=note_on channel=5 note=45 velocity=0 time=96 actual_time=82836
type=note_on channel=5 note=45 velocity=0 time=0 actual_time=82836
type=note_on channel=5 note=45 velocity=80 time=24 actual_time=82860
type=note_on channel=5 note=45 velocity=80 time=0 actual_time=82860
type=note_on channel=5 note=45 velocity=0 time=48 actual_time=82908
type=note_on channel=5 note=45 velocity=0 time=0 actual_time=82908
type=note_on channel=5 note=47 velocity=80 time=12 actual_time=82920
type=note_on channel=5 note=47 velocity=80 time=0 actual_time=82920
type=note_on channel=5 note=47 velocity=0 time=144 actual_time=83064
type=note_on channel=5 note=47 velocity=0 time=0 actual_time=83064
type=note_on channel=5 note=45 velocity=80 time=36 actual_time=83100
type=note_on channel=5 note=45 velocity=80 time=0 actual_time=83100
type=note_on channel=5 note=45 velocity=0 time=96 actual_time=83196
type=note_on channel=5 note=45 velocity=0 time=0 actual_time=83196
type=note_on channel=5 note=45 velocity=80 time=24 actual_time=83220
type=note_on channel=5 note=45 velocity=80 time=0 actual_time=83220
type=note_on channel=5 note=45 velocity=0 time=48 actual_time=83268
type=note_on channel=5 note=45 velocity=0 time=0 actual_time=83268
type=note_on channel=5 note=47 velocity=80 time=12 actual_time=83280
type=note_on channel=5 note=47 velocity=80 time=0 actual_time=83280
type=note_on channel=5 note=47 velocity=0 time=96 actual_time=83376
type=note_on channel=5 note=47 velocity=0 time=0 actual_time=83376
type=note_on channel=5 note=47 velocity=80 time=24 actual_time=83400
type=note_on channel=5 note=47 velocity=80 time=0 actual_time=83400
type=note_on channel=5 note=47 velocity=0 time=96 actual_time=83496
type=note_on channel=5 note=59 velocity=0 time=0 actual_time=83496
type=note_on channel=5 note=54 velocity=0 time=0 actual_time=83496
type=note_on channel=5 note=47 velocity=0 time=0 actual_time=83496
type=note_on channel=5 note=52 velocity=80 time=24 actual_time=83520
type=note_on channel=5 note=55 velocity=80 time=0 actual_time=83520
type=note_on channel=5 note=52 velocity=80 time=0 actual_time=83520
type=note_on channel=5 note=43 velocity=80 time=0 actual_time=83520
type=note_on channel=5 note=52 velocity=0 time=48 actual_time=83568
type=note_on channel=5 note=52 velocity=0 time=0 actual_time=83568
type=note_on channel=5 note=50 velocity=80 time=12 actual_time=83580
type=note_on channel=5 note=50 velocity=80 time=0 actual_time=83580
type=note_on channel=5 note=50 velocity=0 time=48 actual_time=83628
type=note_on channel=5 note=50 velocity=0 time=0 actual_time=83628
type=note_on channel=5 note=52 velocity=80 time=12 actual_time=83640
type=note_on channel=5 note=52 velocity=80 time=0 actual_time=83640
type=note_on channel=5 note=52 velocity=0 time=48 actual_time=83688
type=note_on channel=5 note=52 velocity=0 time=0 actual_time=83688
type=note_on channel=5 note=50 velocity=80 time=12 actual_time=83700
type=note_on channel=5 note=50 velocity=80 time=0 actual_time=83700
type=note_on channel=5 note=50 velocity=0 time=48 actual_time=83748
type=note_on channel=5 note=50 velocity=0 time=0 actual_time=83748
type=note_on channel=5 note=52 velocity=80 time=12 actual_time=83760
type=note_on channel=5 note=52 velocity=80 time=0 actual_time=83760
type=note_on channel=5 note=52 velocity=0 time=48 actual_time=83808
type=note_on channel=5 note=52 velocity=0 time=0 actual_time=83808
type=note_on channel=5 note=50 velocity=80 time=12 actual_time=83820
type=note_on channel=5 note=50 velocity=80 time=0 actual_time=83820
type=note_on channel=5 note=50 velocity=0 time=48 actual_time=83868
type=note_on channel=5 note=50 velocity=0 time=0 actual_time=83868
type=note_on channel=5 note=52 velocity=80 time=12 actual_time=83880
type=note_on channel=5 note=52 velocity=80 time=0 actual_time=83880
type=note_on channel=5 note=52 velocity=0 time=48 actual_time=83928
type=note_on channel=5 note=43 velocity=0 time=0 actual_time=83928
type=note_on channel=5 note=55 velocity=0 time=0 actual_time=83928
type=note_on channel=5 note=52 velocity=0 time=0 actual_time=83928
type=note_on channel=5 note=50 velocity=80 time=12 actual_time=83940
type=note_on channel=5 note=50 velocity=80 time=0 actual_time=83940
type=note_on channel=5 note=43 velocity=80 time=0 actual_time=83940
type=note_on channel=5 note=43 velocity=0 time=48 actual_time=83988
type=note_on channel=5 note=50 velocity=0 time=0 actual_time=83988
type=note_on channel=5 note=50 velocity=0 time=0 actual_time=83988
type=note_on channel=5 note=50 velocity=80 time=12 actual_time=84000
type=note_on channel=5 note=50 velocity=80 time=0 actual_time=84000
type=note_on channel=5 note=57 velocity=80 time=0 actual_time=84000
type=note_on channel=5 note=45 velocity=80 time=0 actual_time=84000
type=note_on channel=5 note=50 velocity=0 time=48 actual_time=84048
type=note_on channel=5 note=50 velocity=0 time=0 actual_time=84048
type=note_on channel=5 note=49 velocity=80 time=12 actual_time=84060
type=note_on channel=5 note=49 velocity=80 time=0 actual_time=84060
type=note_on channel=5 note=49 velocity=0 time=48 actual_time=84108
type=note_on channel=5 note=49 velocity=0 time=0 actual_time=84108
type=note_on channel=5 note=50 velocity=80 time=12 actual_time=84120
type=note_on channel=5 note=50 velocity=80 time=0 actual_time=84120
type=note_on channel=5 note=50 velocity=0 time=48 actual_time=84168
type=note_on channel=5 note=50 velocity=0 time=0 actual_time=84168
type=note_on channel=5 note=49 velocity=80 time=12 actual_time=84180
type=note_on channel=5 note=49 velocity=80 time=0 actual_time=84180
type=note_on channel=5 note=49 velocity=0 time=48 actual_time=84228
type=note_on channel=5 note=49 velocity=0 time=0 actual_time=84228
type=note_on channel=5 note=50 velocity=80 time=12 actual_time=84240
type=note_on channel=5 note=50 velocity=80 time=0 actual_time=84240
type=note_on channel=5 note=50 velocity=0 time=48 actual_time=84288
type=note_on channel=5 note=50 velocity=0 time=0 actual_time=84288
type=note_on channel=5 note=49 velocity=80 time=12 actual_time=84300
type=note_on channel=5 note=49 velocity=80 time=0 actual_time=84300
type=note_on channel=5 note=49 velocity=0 time=48 actual_time=84348
type=note_on channel=5 note=49 velocity=0 time=0 actual_time=84348
type=note_on channel=5 note=50 velocity=80 time=12 actual_time=84360
type=note_on channel=5 note=50 velocity=80 time=0 actual_time=84360
type=note_on channel=5 note=50 velocity=0 time=48 actual_time=84408
type=note_on channel=5 note=45 velocity=0 time=0 actual_time=84408
type=note_on channel=5 note=57 velocity=0 time=0 actual_time=84408
type=note_on channel=5 note=50 velocity=0 time=0 actual_time=84408
type=note_on channel=5 note=45 velocity=80 time=12 actual_time=84420
type=note_on channel=5 note=45 velocity=80 time=0 actual_time=84420
type=note_on channel=5 note=52 velocity=80 time=0 actual_time=84420
type=note_on channel=5 note=52 velocity=0 time=48 actual_time=84468
type=note_on channel=5 note=45 velocity=0 time=0 actual_time=84468
type=note_on channel=5 note=45 velocity=0 time=0 actual_time=84468
type=note_on channel=5 note=47 velocity=80 time=12 actual_time=84480
type=note_on channel=5 note=54 velocity=80 time=0 actual_time=84480
type=note_on channel=5 note=59 velocity=80 time=0 actual_time=84480
type=note_on channel=5 note=47 velocity=80 time=0 actual_time=84480
type=note_on channel=5 note=47 velocity=0 time=144 actual_time=84624
type=note_on channel=5 note=49 velocity=80 time=36 actual_time=84660
type=note_on channel=5 note=49 velocity=80 time=0 actual_time=84660
type=note_on channel=5 note=49 velocity=0 time=144 actual_time=84804
type=note_on channel=5 note=49 velocity=0 time=0 actual_time=84804
type=note_on channel=5 note=50 velocity=80 time=36 actual_time=84840
type=note_on channel=5 note=50 velocity=80 time=0 actual_time=84840
type=note_on channel=5 note=50 velocity=0 time=144 actual_time=84984
type=note_on channel=5 note=50 velocity=0 time=0 actual_time=84984
type=note_on channel=5 note=49 velocity=80 time=36 actual_time=85020
type=note_on channel=5 note=49 velocity=80 time=0 actual_time=85020
type=note_on channel=5 note=49 velocity=0 time=144 actual_time=85164
type=note_on channel=5 note=49 velocity=0 time=0 actual_time=85164
type=note_on channel=5 note=50 velocity=80 time=36 actual_time=85200
type=note_on channel=5 note=50 velocity=80 time=0 actual_time=85200
type=note_on channel=5 note=50 velocity=0 time=96 actual_time=85296
type=note_on channel=5 note=50 velocity=0 time=0 actual_time=85296
type=note_on channel=5 note=49 velocity=80 time=24 actual_time=85320
type=note_on channel=5 note=49 velocity=80 time=0 actual_time=85320
type=note_on channel=5 note=49 velocity=0 time=96 actual_time=85416
type=note_on channel=5 note=54 velocity=0 time=0 actual_time=85416
type=note_on channel=5 note=47 velocity=0 time=0 actual_time=85416
type=note_on channel=5 note=59 velocity=0 time=0 actual_time=85416
type=note_on channel=5 note=49 velocity=0 time=0 actual_time=85416
type=note_on channel=5 note=43 velocity=80 time=24 actual_time=85440
type=note_on channel=5 note=55 velocity=80 time=0 actual_time=85440
type=note_on channel=5 note=55 velocity=80 time=0 actual_time=85440
type=note_on channel=5 note=55 velocity=80 time=0 actual_time=85440
type=note_on channel=5 note=55 velocity=0 time=144 actual_time=85584
type=note_on channel=5 note=55 velocity=0 time=0 actual_time=85584
type=note_on channel=5 note=54 velocity=80 time=36 actual_time=85620
type=note_on channel=5 note=54 velocity=80 time=0 actual_time=85620
type=note_on channel=5 note=54 velocity=0 time=144 actual_time=85764
type=note_on channel=5 note=54 velocity=0 time=0 actual_time=85764
type=note_on channel=5 note=52 velocity=80 time=36 actual_time=85800
type=note_on channel=5 note=52 velocity=80 time=0 actual_time=85800
type=note_on channel=5 note=52 velocity=0 time=48 actual_time=85848
type=note_on channel=5 note=55 velocity=0 time=0 actual_time=85848
type=note_on channel=5 note=43 velocity=0 time=0 actual_time=85848
type=note_on channel=5 note=55 velocity=80 time=12 actual_time=85860
type=note_on channel=5 note=43 velocity=80 time=0 actual_time=85860
type=note_on channel=5 note=43 velocity=0 time=48 actual_time=85908
type=note_on channel=5 note=55 velocity=0 time=0 actual_time=85908
type=note_on channel=5 note=45 velocity=80 time=12 actual_time=85920
type=note_on channel=5 note=57 velocity=80 time=0 actual_time=85920
type=note_on channel=5 note=50 velocity=80 time=60 actual_time=85980
type=note_on channel=5 note=50 velocity=80 time=0 actual_time=85980
type=note_on channel=5 note=50 velocity=0 time=144 actual_time=86124
type=note_on channel=5 note=50 velocity=0 time=0 actual_time=86124
type=note_on channel=5 note=49 velocity=80 time=36 actual_time=86160
type=note_on channel=5 note=49 velocity=80 time=0 actual_time=86160
type=note_on channel=5 note=49 velocity=0 time=96 actual_time=86256
type=note_on channel=5 note=45 velocity=0 time=0 actual_time=86256
type=note_on channel=5 note=49 velocity=0 time=0 actual_time=86256
type=note_on channel=5 note=45 velocity=80 time=24 actual_time=86280
type=note_on channel=5 note=45 velocity=80 time=0 actual_time=86280
type=note_on channel=5 note=45 velocity=0 time=48 actual_time=86328
type=note_on channel=5 note=52 velocity=0 time=0 actual_time=86328
type=note_on channel=5 note=57 velocity=0 time=0 actual_time=86328
type=note_on channel=5 note=57 velocity=80 time=12 actual_time=86340
type=note_on channel=5 note=52 velocity=80 time=0 actual_time=86340
type=note_on channel=5 note=52 velocity=0 time=48 actual_time=86388
type=note_on channel=5 note=57 velocity=0 time=0 actual_time=86388
type=note_on channel=5 note=45 velocity=0 time=0 actual_time=86388
type=note_on channel=5 note=47 velocity=80 time=12 actual_time=86400
type=note_on channel=5 note=59 velocity=80 time=0 actual_time=86400
type=note_on channel=5 note=54 velocity=80 time=0 actual_time=86400
type=note_on channel=5 note=47 velocity=80 time=0 actual_time=86400
type=note_on channel=5 note=47 velocity=0 time=144 actual_time=86544
type=note_on channel=5 note=47 velocity=0 time=0 actual_time=86544
type=note_on channel=5 note=45 velocity=80 time=36 actual_time=86580
type=note_on channel=5 note=45 velocity=80 time=0 actual_time=86580
type=note_on channel=5 note=45 velocity=0 time=144 actual_time=86724
type=note_on channel=5 note=45 velocity=0 time=0 actual_time=86724
type=note_on channel=5 note=47 velocity=80 time=36 actual_time=86760
type=note_on channel=5 note=47 velocity=80 time=0 actual_time=86760
type=note_on channel=5 note=47 velocity=0 time=144 actual_time=86904
type=note_on channel=5 note=47 velocity=0 time=0 actual_time=86904
type=note_on channel=5 note=45 velocity=80 time=36 actual_time=86940
type=note_on channel=5 note=45 velocity=80 time=0 actual_time=86940
type=note_on channel=5 note=45 velocity=0 time=96 actual_time=87036
type=note_on channel=5 note=45 velocity=0 time=0 actual_time=87036
type=note_on channel=5 note=45 velocity=80 time=24 actual_time=87060
type=note_on channel=5 note=45 velocity=80 time=0 actual_time=87060
type=note_on channel=5 note=45 velocity=0 time=48 actual_time=87108
type=note_on channel=5 note=45 velocity=0 time=0 actual_time=87108
type=note_on channel=5 note=47 velocity=80 time=12 actual_time=87120
type=note_on channel=5 note=47 velocity=80 time=0 actual_time=87120
type=note_on channel=5 note=47 velocity=0 time=96 actual_time=87216
type=note_on channel=5 note=47 velocity=0 time=0 actual_time=87216
type=note_on channel=5 note=47 velocity=80 time=24 actual_time=87240
type=note_on channel=5 note=47 velocity=80 time=0 actual_time=87240
type=note_on channel=5 note=47 velocity=0 time=96 actual_time=87336
type=note_on channel=5 note=59 velocity=0 time=0 actual_time=87336
type=note_on channel=5 note=54 velocity=0 time=0 actual_time=87336
type=note_on channel=5 note=47 velocity=0 time=0 actual_time=87336
type=note_on channel=5 note=43 velocity=80 time=24 actual_time=87360
type=note_on channel=5 note=52 velocity=80 time=0 actual_time=87360
type=note_on channel=5 note=55 velocity=80 time=0 actual_time=87360
type=note_on channel=5 note=52 velocity=80 time=0 actual_time=87360
type=note_on channel=5 note=52 velocity=0 time=48 actual_time=87408
type=note_on channel=5 note=52 velocity=0 time=0 actual_time=87408
type=note_on channel=5 note=50 velocity=80 time=12 actual_time=87420
type=note_on channel=5 note=50 velocity=80 time=0 actual_time=87420
type=note_on channel=5 note=50 velocity=0 time=48 actual_time=87468
type=note_on channel=5 note=50 velocity=0 time=0 actual_time=87468
type=note_on channel=5 note=52 velocity=80 time=12 actual_time=87480
type=note_on channel=5 note=52 velocity=80 time=0 actual_time=87480
type=note_on channel=5 note=52 velocity=0 time=48 actual_time=87528
type=note_on channel=5 note=52 velocity=0 time=0 actual_time=87528
type=note_on channel=5 note=50 velocity=80 time=12 actual_time=87540
type=note_on channel=5 note=50 velocity=80 time=0 actual_time=87540
type=note_on channel=5 note=50 velocity=0 time=48 actual_time=87588
type=note_on channel=5 note=50 velocity=0 time=0 actual_time=87588
type=note_on channel=5 note=52 velocity=80 time=12 actual_time=87600
type=note_on channel=5 note=52 velocity=80 time=0 actual_time=87600
type=note_on channel=5 note=52 velocity=0 time=48 actual_time=87648
type=note_on channel=5 note=52 velocity=0 time=0 actual_time=87648
type=note_on channel=5 note=50 velocity=80 time=12 actual_time=87660
type=note_on channel=5 note=50 velocity=80 time=0 actual_time=87660
type=note_on channel=5 note=50 velocity=0 time=48 actual_time=87708
type=note_on channel=5 note=50 velocity=0 time=0 actual_time=87708
type=note_on channel=5 note=52 velocity=80 time=12 actual_time=87720
type=note_on channel=5 note=52 velocity=80 time=0 actual_time=87720
type=note_on channel=5 note=52 velocity=0 time=48 actual_time=87768
type=note_on channel=5 note=43 velocity=0 time=0 actual_time=87768
type=note_on channel=5 note=55 velocity=0 time=0 actual_time=87768
type=note_on channel=5 note=52 velocity=0 time=0 actual_time=87768
type=note_on channel=5 note=43 velocity=80 time=12 actual_time=87780
type=note_on channel=5 note=50 velocity=80 time=0 actual_time=87780
type=note_on channel=5 note=50 velocity=80 time=0 actual_time=87780
type=note_on channel=5 note=50 velocity=0 time=48 actual_time=87828
type=note_on channel=5 note=50 velocity=0 time=0 actual_time=87828
type=note_on channel=5 note=43 velocity=0 time=0 actual_time=87828
type=note_on channel=5 note=45 velocity=80 time=12 actual_time=87840
type=note_on channel=5 note=57 velocity=80 time=0 actual_time=87840
type=note_on channel=5 note=50 velocity=80 time=0 actual_time=87840
type=note_on channel=5 note=50 velocity=80 time=0 actual_time=87840
type=note_on channel=5 note=50 velocity=0 time=48 actual_time=87888
type=note_on channel=5 note=50 velocity=0 time=0 actual_time=87888
type=note_on channel=5 note=49 velocity=80 time=12 actual_time=87900
type=note_on channel=5 note=49 velocity=80 time=0 actual_time=87900
type=note_on channel=5 note=49 velocity=0 time=48 actual_time=87948
type=note_on channel=5 note=49 velocity=0 time=0 actual_time=87948
type=note_on channel=5 note=50 velocity=80 time=12 actual_time=87960
type=note_on channel=5 note=50 velocity=80 time=0 actual_time=87960
type=note_on channel=5 note=50 velocity=0 time=48 actual_time=88008
type=note_on channel=5 note=50 velocity=0 time=0 actual_time=88008
type=note_on channel=5 note=49 velocity=80 time=12 actual_time=88020
type=note_on channel=5 note=49 velocity=80 time=0 actual_time=88020
type=note_on channel=5 note=49 velocity=0 time=48 actual_time=88068
type=note_on channel=5 note=49 velocity=0 time=0 actual_time=88068
type=note_on channel=5 note=50 velocity=80 time=12 actual_time=88080
type=note_on channel=5 note=50 velocity=80 time=0 actual_time=88080
type=note_on channel=5 note=50 velocity=0 time=48 actual_time=88128
type=note_on channel=5 note=50 velocity=0 time=0 actual_time=88128
type=note_on channel=5 note=49 velocity=80 time=12 actual_time=88140
type=note_on channel=5 note=49 velocity=80 time=0 actual_time=88140
type=note_on channel=5 note=49 velocity=0 time=48 actual_time=88188
type=note_on channel=5 note=49 velocity=0 time=0 actual_time=88188
type=note_on channel=5 note=50 velocity=80 time=12 actual_time=88200
type=note_on channel=5 note=50 velocity=80 time=0 actual_time=88200
type=note_on channel=5 note=50 velocity=0 time=48 actual_time=88248
type=note_on channel=5 note=50 velocity=0 time=0 actual_time=88248
type=note_on channel=5 note=45 velocity=80 time=12 actual_time=88260
type=note_on channel=5 note=45 velocity=80 time=0 actual_time=88260
type=note_on channel=5 note=45 velocity=0 time=48 actual_time=88308
type=note_on channel=5 note=45 velocity=0 time=0 actual_time=88308
type=note_on channel=5 note=57 velocity=0 time=0 actual_time=88308
type=note_on channel=5 note=45 velocity=0 time=0 actual_time=88308
type=note_on channel=5 note=47 velocity=80 time=12 actual_time=88320
type=note_on channel=5 note=54 velocity=80 time=0 actual_time=88320
type=note_on channel=5 note=59 velocity=80 time=0 actual_time=88320
type=note_on channel=5 note=59 velocity=0 time=3648 actual_time=91968
type=note_on channel=5 note=54 velocity=0 time=0 actual_time=91968
type=note_on channel=5 note=47 velocity=0 time=0 actual_time=91968
MetaMessage type: end_of_track, time: 0, actual_time: 91968
MetaMessage type: track_name, time: 0, actual_time: 0
type: program_change, time: 0, actual_time: 0
type=control_change channel=6 control=7 value=99 time=0 actual_time=0
type=note_on channel=6 note=35 velocity=80 time=3840 actual_time=3840
type=note_on channel=6 note=35 velocity=0 time=912 actual_time=4752
type=note_on channel=6 note=31 velocity=80 time=48 actual_time=4800
type=note_on channel=6 note=31 velocity=0 time=456 actual_time=5256
type=note_on channel=6 note=33 velocity=80 time=24 actual_time=5280
type=note_on channel=6 note=33 velocity=0 time=456 actual_time=5736
type=note_on channel=6 note=35 velocity=80 time=24 actual_time=5760
type=note_on channel=6 note=35 velocity=0 time=912 actual_time=6672
type=note_on channel=6 note=31 velocity=80 time=48 actual_time=6720
type=note_on channel=6 note=31 velocity=0 time=456 actual_time=7176
type=note_on channel=6 note=33 velocity=80 time=24 actual_time=7200
type=note_on channel=6 note=33 velocity=0 time=456 actual_time=7656
type=note_on channel=6 note=35 velocity=80 time=24 actual_time=7680
type=note_on channel=6 note=35 velocity=0 time=912 actual_time=8592
type=note_on channel=6 note=31 velocity=80 time=48 actual_time=8640
type=note_on channel=6 note=31 velocity=0 time=456 actual_time=9096
type=note_on channel=6 note=33 velocity=80 time=24 actual_time=9120
type=note_on channel=6 note=33 velocity=0 time=456 actual_time=9576
type=note_on channel=6 note=35 velocity=80 time=24 actual_time=9600
type=note_on channel=6 note=35 velocity=0 time=912 actual_time=10512
type=note_on channel=6 note=31 velocity=80 time=48 actual_time=10560
type=note_on channel=6 note=31 velocity=0 time=456 actual_time=11016
type=note_on channel=6 note=33 velocity=80 time=24 actual_time=11040
type=note_on channel=6 note=33 velocity=0 time=456 actual_time=11496
type=note_on channel=6 note=35 velocity=80 time=24 actual_time=11520
type=note_on channel=6 note=35 velocity=0 time=912 actual_time=12432
type=note_on channel=6 note=31 velocity=80 time=48 actual_time=12480
type=note_on channel=6 note=31 velocity=0 time=456 actual_time=12936
type=note_on channel=6 note=33 velocity=80 time=24 actual_time=12960
type=note_on channel=6 note=33 velocity=0 time=456 actual_time=13416
type=note_on channel=6 note=35 velocity=80 time=24 actual_time=13440
type=note_on channel=6 note=35 velocity=0 time=912 actual_time=14352
type=note_on channel=6 note=31 velocity=80 time=48 actual_time=14400
type=note_on channel=6 note=31 velocity=0 time=456 actual_time=14856
type=note_on channel=6 note=33 velocity=80 time=24 actual_time=14880
type=note_on channel=6 note=33 velocity=0 time=456 actual_time=15336
type=note_on channel=6 note=35 velocity=80 time=24 actual_time=15360
type=note_on channel=6 note=35 velocity=0 time=912 actual_time=16272
type=note_on channel=6 note=31 velocity=80 time=48 actual_time=16320
type=note_on channel=6 note=31 velocity=0 time=456 actual_time=16776
type=note_on channel=6 note=33 velocity=80 time=24 actual_time=16800
type=note_on channel=6 note=33 velocity=0 time=456 actual_time=17256
type=note_on channel=6 note=35 velocity=80 time=24 actual_time=17280
type=note_on channel=6 note=35 velocity=0 time=912 actual_time=18192
type=note_on channel=6 note=31 velocity=80 time=48 actual_time=18240
type=note_on channel=6 note=31 velocity=0 time=456 actual_time=18696
type=note_on channel=6 note=33 velocity=80 time=24 actual_time=18720
type=note_on channel=6 note=33 velocity=0 time=456 actual_time=19176
type=note_on channel=6 note=35 velocity=80 time=24 actual_time=19200
type=note_on channel=6 note=35 velocity=0 time=912 actual_time=20112
type=note_on channel=6 note=31 velocity=80 time=48 actual_time=20160
type=note_on channel=6 note=31 velocity=0 time=456 actual_time=20616
type=note_on channel=6 note=33 velocity=80 time=24 actual_time=20640
type=note_on channel=6 note=33 velocity=0 time=456 actual_time=21096
type=note_on channel=6 note=35 velocity=80 time=24 actual_time=21120
type=note_on channel=6 note=35 velocity=0 time=912 actual_time=22032
type=note_on channel=6 note=31 velocity=80 time=48 actual_time=22080
type=note_on channel=6 note=31 velocity=0 time=456 actual_time=22536
type=note_on channel=6 note=33 velocity=80 time=24 actual_time=22560
type=note_on channel=6 note=33 velocity=0 time=456 actual_time=23016
type=note_on channel=6 note=35 velocity=80 time=24 actual_time=23040
type=note_on channel=6 note=35 velocity=0 time=912 actual_time=23952
type=note_on channel=6 note=31 velocity=80 time=48 actual_time=24000
type=note_on channel=6 note=31 velocity=0 time=456 actual_time=24456
type=note_on channel=6 note=33 velocity=80 time=24 actual_time=24480
type=note_on channel=6 note=33 velocity=0 time=456 actual_time=24936
type=note_on channel=6 note=35 velocity=80 time=24 actual_time=24960
type=note_on channel=6 note=35 velocity=0 time=912 actual_time=25872
type=note_on channel=6 note=31 velocity=80 time=48 actual_time=25920
type=note_on channel=6 note=31 velocity=0 time=456 actual_time=26376
type=note_on channel=6 note=33 velocity=80 time=24 actual_time=26400
type=note_on channel=6 note=33 velocity=0 time=456 actual_time=26856
type=note_on channel=6 note=35 velocity=80 time=24 actual_time=26880
type=note_on channel=6 note=35 velocity=0 time=96 actual_time=26976
type=note_on channel=6 note=35 velocity=80 time=24 actual_time=27000
type=note_on channel=6 note=35 velocity=0 time=48 actual_time=27048
type=note_on channel=6 note=35 velocity=80 time=12 actual_time=27060
type=note_on channel=6 note=35 velocity=0 time=48 actual_time=27108
type=note_on channel=6 note=35 velocity=80 time=12 actual_time=27120
type=note_on channel=6 note=35 velocity=0 time=96 actual_time=27216
type=note_on channel=6 note=35 velocity=80 time=24 actual_time=27240
type=note_on channel=6 note=35 velocity=0 time=48 actual_time=27288
type=note_on channel=6 note=35 velocity=80 time=12 actual_time=27300
type=note_on channel=6 note=35 velocity=0 time=48 actual_time=27348
type=note_on channel=6 note=35 velocity=80 time=12 actual_time=27360
type=note_on channel=6 note=35 velocity=0 time=96 actual_time=27456
type=note_on channel=6 note=35 velocity=80 time=24 actual_time=27480
type=note_on channel=6 note=35 velocity=0 time=48 actual_time=27528
type=note_on channel=6 note=35 velocity=80 time=12 actual_time=27540
type=note_on channel=6 note=35 velocity=0 time=48 actual_time=27588
type=note_on channel=6 note=35 velocity=80 time=12 actual_time=27600
type=note_on channel=6 note=35 velocity=0 time=96 actual_time=27696
type=note_on channel=6 note=35 velocity=80 time=24 actual_time=27720
type=note_on channel=6 note=35 velocity=0 time=48 actual_time=27768
type=note_on channel=6 note=35 velocity=80 time=12 actual_time=27780
type=note_on channel=6 note=35 velocity=0 time=48 actual_time=27828
type=note_on channel=6 note=31 velocity=80 time=12 actual_time=27840
type=note_on channel=6 note=31 velocity=0 time=96 actual_time=27936
type=note_on channel=6 note=31 velocity=80 time=24 actual_time=27960
type=note_on channel=6 note=31 velocity=0 time=48 actual_time=28008
type=note_on channel=6 note=31 velocity=80 time=12 actual_time=28020
type=note_on channel=6 note=31 velocity=0 time=48 actual_time=28068
type=note_on channel=6 note=31 velocity=80 time=12 actual_time=28080
type=note_on channel=6 note=31 velocity=0 time=96 actual_time=28176
type=note_on channel=6 note=31 velocity=80 time=24 actual_time=28200
type=note_on channel=6 note=31 velocity=0 time=48 actual_time=28248
type=note_on channel=6 note=31 velocity=80 time=12 actual_time=28260
type=note_on channel=6 note=31 velocity=0 time=48 actual_time=28308
type=note_on channel=6 note=33 velocity=80 time=12 actual_time=28320
type=note_on channel=6 note=33 velocity=0 time=96 actual_time=28416
type=note_on channel=6 note=33 velocity=80 time=24 actual_time=28440
type=note_on channel=6 note=33 velocity=0 time=48 actual_time=28488
type=note_on channel=6 note=33 velocity=80 time=12 actual_time=28500
type=note_on channel=6 note=33 velocity=0 time=48 actual_time=28548
type=note_on channel=6 note=33 velocity=80 time=12 actual_time=28560
type=note_on channel=6 note=33 velocity=0 time=96 actual_time=28656
type=note_on channel=6 note=33 velocity=80 time=24 actual_time=28680
type=note_on channel=6 note=33 velocity=0 time=48 actual_time=28728
type=note_on channel=6 note=33 velocity=80 time=12 actual_time=28740
type=note_on channel=6 note=33 velocity=0 time=48 actual_time=28788
type=note_on channel=6 note=35 velocity=80 time=12 actual_time=28800
type=note_on channel=6 note=35 velocity=0 time=96 actual_time=28896
type=note_on channel=6 note=35 velocity=80 time=24 actual_time=28920
type=note_on channel=6 note=35 velocity=0 time=48 actual_time=28968
type=note_on channel=6 note=35 velocity=80 time=12 actual_time=28980
type=note_on channel=6 note=35 velocity=0 time=48 actual_time=29028
type=note_on channel=6 note=35 velocity=80 time=12 actual_time=29040
type=note_on channel=6 note=35 velocity=0 time=96 actual_time=29136
type=note_on channel=6 note=35 velocity=80 time=24 actual_time=29160
type=note_on channel=6 note=35 velocity=0 time=48 actual_time=29208
type=note_on channel=6 note=35 velocity=80 time=12 actual_time=29220
type=note_on channel=6 note=35 velocity=0 time=48 actual_time=29268
type=note_on channel=6 note=35 velocity=80 time=12 actual_time=29280
type=note_on channel=6 note=35 velocity=0 time=96 actual_time=29376
type=note_on channel=6 note=35 velocity=80 time=24 actual_time=29400
type=note_on channel=6 note=35 velocity=0 time=48 actual_time=29448
type=note_on channel=6 note=35 velocity=80 time=12 actual_time=29460
type=note_on channel=6 note=35 velocity=0 time=48 actual_time=29508
type=note_on channel=6 note=35 velocity=80 time=12 actual_time=29520
type=note_on channel=6 note=35 velocity=0 time=96 actual_time=29616
type=note_on channel=6 note=35 velocity=80 time=24 actual_time=29640
type=note_on channel=6 note=35 velocity=0 time=48 actual_time=29688
type=note_on channel=6 note=35 velocity=80 time=12 actual_time=29700
type=note_on channel=6 note=35 velocity=0 time=48 actual_time=29748
type=note_on channel=6 note=28 velocity=80 time=12 actual_time=29760
type=note_on channel=6 note=28 velocity=0 time=96 actual_time=29856
type=note_on channel=6 note=28 velocity=80 time=24 actual_time=29880
type=note_on channel=6 note=28 velocity=0 time=48 actual_time=29928
type=note_on channel=6 note=28 velocity=80 time=12 actual_time=29940
type=note_on channel=6 note=28 velocity=0 time=48 actual_time=29988
type=note_on channel=6 note=28 velocity=80 time=12 actual_time=30000
type=note_on channel=6 note=28 velocity=0 time=96 actual_time=30096
type=note_on channel=6 note=28 velocity=80 time=24 actual_time=30120
type=note_on channel=6 note=28 velocity=0 time=48 actual_time=30168
type=note_on channel=6 note=28 velocity=80 time=12 actual_time=30180
type=note_on channel=6 note=28 velocity=0 time=48 actual_time=30228
type=note_on channel=6 note=30 velocity=80 time=12 actual_time=30240
type=note_on channel=6 note=30 velocity=0 time=96 actual_time=30336
type=note_on channel=6 note=30 velocity=80 time=24 actual_time=30360
type=note_on channel=6 note=30 velocity=0 time=48 actual_time=30408
type=note_on channel=6 note=30 velocity=80 time=12 actual_time=30420
type=note_on channel=6 note=30 velocity=0 time=48 actual_time=30468
type=note_on channel=6 note=30 velocity=80 time=12 actual_time=30480
type=note_on channel=6 note=30 velocity=0 time=96 actual_time=30576
type=note_on channel=6 note=30 velocity=80 time=24 actual_time=30600
type=note_on channel=6 note=30 velocity=0 time=48 actual_time=30648
type=note_on channel=6 note=30 velocity=80 time=12 actual_time=30660
type=note_on channel=6 note=30 velocity=0 time=48 actual_time=30708
type=note_on channel=6 note=35 velocity=80 time=12 actual_time=30720
type=note_on channel=6 note=35 velocity=0 time=96 actual_time=30816
type=note_on channel=6 note=35 velocity=80 time=24 actual_time=30840
type=note_on channel=6 note=35 velocity=0 time=48 actual_time=30888
type=note_on channel=6 note=35 velocity=80 time=12 actual_time=30900
type=note_on channel=6 note=35 velocity=0 time=48 actual_time=30948
type=note_on channel=6 note=35 velocity=80 time=12 actual_time=30960
type=note_on channel=6 note=35 velocity=0 time=96 actual_time=31056
type=note_on channel=6 note=35 velocity=80 time=24 actual_time=31080
type=note_on channel=6 note=35 velocity=0 time=48 actual_time=31128
type=note_on channel=6 note=35 velocity=80 time=12 actual_time=31140
type=note_on channel=6 note=35 velocity=0 time=48 actual_time=31188
type=note_on channel=6 note=35 velocity=80 time=12 actual_time=31200
type=note_on channel=6 note=35 velocity=0 time=96 actual_time=31296
type=note_on channel=6 note=35 velocity=80 time=24 actual_time=31320
type=note_on channel=6 note=35 velocity=0 time=48 actual_time=31368
type=note_on channel=6 note=35 velocity=80 time=12 actual_time=31380
type=note_on channel=6 note=35 velocity=0 time=48 actual_time=31428
type=note_on channel=6 note=35 velocity=80 time=12 actual_time=31440
type=note_on channel=6 note=35 velocity=0 time=96 actual_time=31536
type=note_on channel=6 note=35 velocity=80 time=24 actual_time=31560
type=note_on channel=6 note=35 velocity=0 time=48 actual_time=31608
type=note_on channel=6 note=35 velocity=80 time=12 actual_time=31620
type=note_on channel=6 note=35 velocity=0 time=48 actual_time=31668
type=note_on channel=6 note=31 velocity=80 time=12 actual_time=31680
type=note_on channel=6 note=31 velocity=0 time=96 actual_time=31776
type=note_on channel=6 note=31 velocity=80 time=24 actual_time=31800
type=note_on channel=6 note=31 velocity=0 time=48 actual_time=31848
type=note_on channel=6 note=31 velocity=80 time=12 actual_time=31860
type=note_on channel=6 note=31 velocity=0 time=48 actual_time=31908
type=note_on channel=6 note=31 velocity=80 time=12 actual_time=31920
type=note_on channel=6 note=31 velocity=0 time=96 actual_time=32016
type=note_on channel=6 note=31 velocity=80 time=24 actual_time=32040
type=note_on channel=6 note=31 velocity=0 time=48 actual_time=32088
type=note_on channel=6 note=31 velocity=80 time=12 actual_time=32100
type=note_on channel=6 note=31 velocity=0 time=48 actual_time=32148
type=note_on channel=6 note=33 velocity=80 time=12 actual_time=32160
type=note_on channel=6 note=33 velocity=0 time=96 actual_time=32256
type=note_on channel=6 note=33 velocity=80 time=24 actual_time=32280
type=note_on channel=6 note=33 velocity=0 time=48 actual_time=32328
type=note_on channel=6 note=33 velocity=80 time=12 actual_time=32340
type=note_on channel=6 note=33 velocity=0 time=48 actual_time=32388
type=note_on channel=6 note=33 velocity=80 time=12 actual_time=32400
type=note_on channel=6 note=33 velocity=0 time=96 actual_time=32496
type=note_on channel=6 note=33 velocity=80 time=24 actual_time=32520
type=note_on channel=6 note=33 velocity=0 time=48 actual_time=32568
type=note_on channel=6 note=33 velocity=80 time=12 actual_time=32580
type=note_on channel=6 note=33 velocity=0 time=48 actual_time=32628
type=note_on channel=6 note=35 velocity=80 time=12 actual_time=32640
type=note_on channel=6 note=35 velocity=0 time=96 actual_time=32736
type=note_on channel=6 note=35 velocity=80 time=24 actual_time=32760
type=note_on channel=6 note=35 velocity=0 time=48 actual_time=32808
type=note_on channel=6 note=35 velocity=80 time=12 actual_time=32820
type=note_on channel=6 note=35 velocity=0 time=48 actual_time=32868
type=note_on channel=6 note=35 velocity=80 time=12 actual_time=32880
type=note_on channel=6 note=35 velocity=0 time=96 actual_time=32976
type=note_on channel=6 note=35 velocity=80 time=24 actual_time=33000
type=note_on channel=6 note=35 velocity=0 time=48 actual_time=33048
type=note_on channel=6 note=35 velocity=80 time=12 actual_time=33060
type=note_on channel=6 note=35 velocity=0 time=48 actual_time=33108
type=note_on channel=6 note=35 velocity=80 time=12 actual_time=33120
type=note_on channel=6 note=35 velocity=0 time=96 actual_time=33216
type=note_on channel=6 note=35 velocity=80 time=24 actual_time=33240
type=note_on channel=6 note=35 velocity=0 time=48 actual_time=33288
type=note_on channel=6 note=35 velocity=80 time=12 actual_time=33300
type=note_on channel=6 note=35 velocity=0 time=48 actual_time=33348
type=note_on channel=6 note=35 velocity=80 time=12 actual_time=33360
type=note_on channel=6 note=35 velocity=0 time=96 actual_time=33456
type=note_on channel=6 note=35 velocity=80 time=24 actual_time=33480
type=note_on channel=6 note=35 velocity=0 time=48 actual_time=33528
type=note_on channel=6 note=35 velocity=80 time=12 actual_time=33540
type=note_on channel=6 note=35 velocity=0 time=48 actual_time=33588
type=note_on channel=6 note=28 velocity=80 time=12 actual_time=33600
type=note_on channel=6 note=28 velocity=0 time=96 actual_time=33696
type=note_on channel=6 note=28 velocity=80 time=24 actual_time=33720
type=note_on channel=6 note=28 velocity=0 time=96 actual_time=33816
type=note_on channel=6 note=28 velocity=80 time=24 actual_time=33840
type=note_on channel=6 note=28 velocity=0 time=96 actual_time=33936
type=note_on channel=6 note=28 velocity=80 time=24 actual_time=33960
type=note_on channel=6 note=28 velocity=0 time=96 actual_time=34056
type=note_on channel=6 note=30 velocity=80 time=24 actual_time=34080
type=note_on channel=6 note=30 velocity=0 time=96 actual_time=34176
type=note_on channel=6 note=30 velocity=80 time=24 actual_time=34200
type=note_on channel=6 note=30 velocity=0 time=96 actual_time=34296
type=note_on channel=6 note=30 velocity=80 time=24 actual_time=34320
type=note_on channel=6 note=30 velocity=0 time=96 actual_time=34416
type=note_on channel=6 note=30 velocity=80 time=24 actual_time=34440
type=note_on channel=6 note=30 velocity=0 time=96 actual_time=34536
type=note_on channel=6 note=35 velocity=80 time=24 actual_time=34560
type=note_on channel=6 note=35 velocity=0 time=912 actual_time=35472
type=note_on channel=6 note=31 velocity=80 time=48 actual_time=35520
type=note_on channel=6 note=31 velocity=0 time=456 actual_time=35976
type=note_on channel=6 note=33 velocity=80 time=24 actual_time=36000
type=note_on channel=6 note=33 velocity=0 time=456 actual_time=36456
type=note_on channel=6 note=35 velocity=80 time=24 actual_time=36480
type=note_on channel=6 note=35 velocity=0 time=912 actual_time=37392
type=note_on channel=6 note=31 velocity=80 time=48 actual_time=37440
type=note_on channel=6 note=31 velocity=0 time=456 actual_time=37896
type=note_on channel=6 note=33 velocity=80 time=24 actual_time=37920
type=note_on channel=6 note=33 velocity=0 time=456 actual_time=38376
type=note_on channel=6 note=35 velocity=80 time=24 actual_time=38400
type=note_on channel=6 note=35 velocity=0 time=912 actual_time=39312
type=note_on channel=6 note=31 velocity=80 time=48 actual_time=39360
type=note_on channel=6 note=31 velocity=0 time=456 actual_time=39816
type=note_on channel=6 note=33 velocity=80 time=24 actual_time=39840
type=note_on channel=6 note=33 velocity=0 time=456 actual_time=40296
type=note_on channel=6 note=35 velocity=80 time=24 actual_time=40320
type=note_on channel=6 note=35 velocity=0 time=912 actual_time=41232
type=note_on channel=6 note=31 velocity=80 time=48 actual_time=41280
type=note_on channel=6 note=31 velocity=0 time=456 actual_time=41736
type=note_on channel=6 note=33 velocity=80 time=24 actual_time=41760
type=note_on channel=6 note=33 velocity=0 time=456 actual_time=42216
type=note_on channel=6 note=35 velocity=80 time=24 actual_time=42240
type=note_on channel=6 note=35 velocity=0 time=912 actual_time=43152
type=note_on channel=6 note=31 velocity=80 time=48 actual_time=43200
type=note_on channel=6 note=31 velocity=0 time=456 actual_time=43656
type=note_on channel=6 note=33 velocity=80 time=24 actual_time=43680
type=note_on channel=6 note=33 velocity=0 time=456 actual_time=44136
type=note_on channel=6 note=35 velocity=80 time=24 actual_time=44160
type=note_on channel=6 note=35 velocity=0 time=912 actual_time=45072
type=note_on channel=6 note=31 velocity=80 time=48 actual_time=45120
type=note_on channel=6 note=31 velocity=0 time=456 actual_time=45576
type=note_on channel=6 note=33 velocity=80 time=24 actual_time=45600
type=note_on channel=6 note=33 velocity=0 time=456 actual_time=46056
type=note_on channel=6 note=35 velocity=80 time=24 actual_time=46080
type=note_on channel=6 note=35 velocity=0 time=96 actual_time=46176
type=note_on channel=6 note=35 velocity=80 time=24 actual_time=46200
type=note_on channel=6 note=35 velocity=0 time=48 actual_time=46248
type=note_on channel=6 note=35 velocity=80 time=12 actual_time=46260
type=note_on channel=6 note=35 velocity=0 time=48 actual_time=46308
type=note_on channel=6 note=35 velocity=80 time=12 actual_time=46320
type=note_on channel=6 note=35 velocity=0 time=96 actual_time=46416
type=note_on channel=6 note=35 velocity=80 time=24 actual_time=46440
type=note_on channel=6 note=35 velocity=0 time=48 actual_time=46488
type=note_on channel=6 note=35 velocity=80 time=12 actual_time=46500
type=note_on channel=6 note=35 velocity=0 time=48 actual_time=46548
type=note_on channel=6 note=35 velocity=80 time=12 actual_time=46560
type=note_on channel=6 note=35 velocity=0 time=96 actual_time=46656
type=note_on channel=6 note=35 velocity=80 time=24 actual_time=46680
type=note_on channel=6 note=35 velocity=0 time=48 actual_time=46728
type=note_on channel=6 note=35 velocity=80 time=12 actual_time=46740
type=note_on channel=6 note=35 velocity=0 time=48 actual_time=46788
type=note_on channel=6 note=35 velocity=80 time=12 actual_time=46800
type=note_on channel=6 note=35 velocity=0 time=96 actual_time=46896
type=note_on channel=6 note=35 velocity=80 time=24 actual_time=46920
type=note_on channel=6 note=35 velocity=0 time=48 actual_time=46968
type=note_on channel=6 note=35 velocity=80 time=12 actual_time=46980
type=note_on channel=6 note=35 velocity=0 time=48 actual_time=47028
type=note_on channel=6 note=31 velocity=80 time=12 actual_time=47040
type=note_on channel=6 note=31 velocity=0 time=96 actual_time=47136
type=note_on channel=6 note=31 velocity=80 time=24 actual_time=47160
type=note_on channel=6 note=31 velocity=0 time=48 actual_time=47208
type=note_on channel=6 note=31 velocity=80 time=12 actual_time=47220
type=note_on channel=6 note=31 velocity=0 time=48 actual_time=47268
type=note_on channel=6 note=31 velocity=80 time=12 actual_time=47280
type=note_on channel=6 note=31 velocity=0 time=96 actual_time=47376
type=note_on channel=6 note=31 velocity=80 time=24 actual_time=47400
type=note_on channel=6 note=31 velocity=0 time=48 actual_time=47448
type=note_on channel=6 note=31 velocity=80 time=12 actual_time=47460
type=note_on channel=6 note=31 velocity=0 time=48 actual_time=47508
type=note_on channel=6 note=33 velocity=80 time=12 actual_time=47520
type=note_on channel=6 note=33 velocity=0 time=96 actual_time=47616
type=note_on channel=6 note=33 velocity=80 time=24 actual_time=47640
type=note_on channel=6 note=33 velocity=0 time=48 actual_time=47688
type=note_on channel=6 note=33 velocity=80 time=12 actual_time=47700
type=note_on channel=6 note=33 velocity=0 time=48 actual_time=47748
type=note_on channel=6 note=33 velocity=80 time=12 actual_time=47760
type=note_on channel=6 note=33 velocity=0 time=96 actual_time=47856
type=note_on channel=6 note=33 velocity=80 time=24 actual_time=47880
type=note_on channel=6 note=33 velocity=0 time=48 actual_time=47928
type=note_on channel=6 note=33 velocity=80 time=12 actual_time=47940
type=note_on channel=6 note=33 velocity=0 time=48 actual_time=47988
type=note_on channel=6 note=35 velocity=80 time=12 actual_time=48000
type=note_on channel=6 note=35 velocity=0 time=96 actual_time=48096
type=note_on channel=6 note=35 velocity=80 time=24 actual_time=48120
type=note_on channel=6 note=35 velocity=0 time=48 actual_time=48168
type=note_on channel=6 note=35 velocity=80 time=12 actual_time=48180
type=note_on channel=6 note=35 velocity=0 time=48 actual_time=48228
type=note_on channel=6 note=35 velocity=80 time=12 actual_time=48240
type=note_on channel=6 note=35 velocity=0 time=96 actual_time=48336
type=note_on channel=6 note=35 velocity=80 time=24 actual_time=48360
type=note_on channel=6 note=35 velocity=0 time=48 actual_time=48408
type=note_on channel=6 note=35 velocity=80 time=12 actual_time=48420
type=note_on channel=6 note=35 velocity=0 time=48 actual_time=48468
type=note_on channel=6 note=35 velocity=80 time=12 actual_time=48480
type=note_on channel=6 note=35 velocity=0 time=96 actual_time=48576
type=note_on channel=6 note=35 velocity=80 time=24 actual_time=48600
type=note_on channel=6 note=35 velocity=0 time=48 actual_time=48648
type=note_on channel=6 note=35 velocity=80 time=12 actual_time=48660
type=note_on channel=6 note=35 velocity=0 time=48 actual_time=48708
type=note_on channel=6 note=35 velocity=80 time=12 actual_time=48720
type=note_on channel=6 note=35 velocity=0 time=96 actual_time=48816
type=note_on channel=6 note=35 velocity=80 time=24 actual_time=48840
type=note_on channel=6 note=35 velocity=0 time=48 actual_time=48888
type=note_on channel=6 note=35 velocity=80 time=12 actual_time=48900
type=note_on channel=6 note=35 velocity=0 time=48 actual_time=48948
type=note_on channel=6 note=28 velocity=80 time=12 actual_time=48960
type=note_on channel=6 note=28 velocity=0 time=96 actual_time=49056
type=note_on channel=6 note=28 velocity=80 time=24 actual_time=49080
type=note_on channel=6 note=28 velocity=0 time=48 actual_time=49128
type=note_on channel=6 note=28 velocity=80 time=12 actual_time=49140
type=note_on channel=6 note=28 velocity=0 time=48 actual_time=49188
type=note_on channel=6 note=28 velocity=80 time=12 actual_time=49200
type=note_on channel=6 note=28 velocity=0 time=96 actual_time=49296
type=note_on channel=6 note=28 velocity=80 time=24 actual_time=49320
type=note_on channel=6 note=28 velocity=0 time=48 actual_time=49368
type=note_on channel=6 note=28 velocity=80 time=12 actual_time=49380
type=note_on channel=6 note=28 velocity=0 time=48 actual_time=49428
type=note_on channel=6 note=30 velocity=80 time=12 actual_time=49440
type=note_on channel=6 note=30 velocity=0 time=96 actual_time=49536
type=note_on channel=6 note=30 velocity=80 time=24 actual_time=49560
type=note_on channel=6 note=30 velocity=0 time=48 actual_time=49608
type=note_on channel=6 note=30 velocity=80 time=12 actual_time=49620
type=note_on channel=6 note=30 velocity=0 time=48 actual_time=49668
type=note_on channel=6 note=30 velocity=80 time=12 actual_time=49680
type=note_on channel=6 note=30 velocity=0 time=96 actual_time=49776
type=note_on channel=6 note=30 velocity=80 time=24 actual_time=49800
type=note_on channel=6 note=30 velocity=0 time=48 actual_time=49848
type=note_on channel=6 note=30 velocity=80 time=12 actual_time=49860
type=note_on channel=6 note=30 velocity=0 time=48 actual_time=49908
type=note_on channel=6 note=35 velocity=80 time=12 actual_time=49920
type=note_on channel=6 note=35 velocity=0 time=96 actual_time=50016
type=note_on channel=6 note=35 velocity=80 time=24 actual_time=50040
type=note_on channel=6 note=35 velocity=0 time=48 actual_time=50088
type=note_on channel=6 note=35 velocity=80 time=12 actual_time=50100
type=note_on channel=6 note=35 velocity=0 time=48 actual_time=50148
type=note_on channel=6 note=35 velocity=80 time=12 actual_time=50160
type=note_on channel=6 note=35 velocity=0 time=96 actual_time=50256
type=note_on channel=6 note=35 velocity=80 time=24 actual_time=50280
type=note_on channel=6 note=35 velocity=0 time=48 actual_time=50328
type=note_on channel=6 note=35 velocity=80 time=12 actual_time=50340
type=note_on channel=6 note=35 velocity=0 time=48 actual_time=50388
type=note_on channel=6 note=35 velocity=80 time=12 actual_time=50400
type=note_on channel=6 note=35 velocity=0 time=96 actual_time=50496
type=note_on channel=6 note=35 velocity=80 time=24 actual_time=50520
type=note_on channel=6 note=35 velocity=0 time=48 actual_time=50568
type=note_on channel=6 note=35 velocity=80 time=12 actual_time=50580
type=note_on channel=6 note=35 velocity=0 time=48 actual_time=50628
type=note_on channel=6 note=35 velocity=80 time=12 actual_time=50640
type=note_on channel=6 note=35 velocity=0 time=96 actual_time=50736
type=note_on channel=6 note=35 velocity=80 time=24 actual_time=50760
type=note_on channel=6 note=35 velocity=0 time=48 actual_time=50808
type=note_on channel=6 note=35 velocity=80 time=12 actual_time=50820
type=note_on channel=6 note=35 velocity=0 time=48 actual_time=50868
type=note_on channel=6 note=31 velocity=80 time=12 actual_time=50880
type=note_on channel=6 note=31 velocity=0 time=96 actual_time=50976
type=note_on channel=6 note=31 velocity=80 time=24 actual_time=51000
type=note_on channel=6 note=31 velocity=0 time=48 actual_time=51048
type=note_on channel=6 note=31 velocity=80 time=12 actual_time=51060
type=note_on channel=6 note=31 velocity=0 time=48 actual_time=51108
type=note_on channel=6 note=31 velocity=80 time=12 actual_time=51120
type=note_on channel=6 note=31 velocity=0 time=96 actual_time=51216
type=note_on channel=6 note=31 velocity=80 time=24 actual_time=51240
type=note_on channel=6 note=31 velocity=0 time=48 actual_time=51288
type=note_on channel=6 note=31 velocity=80 time=12 actual_time=51300
type=note_on channel=6 note=31 velocity=0 time=48 actual_time=51348
type=note_on channel=6 note=33 velocity=80 time=12 actual_time=51360
type=note_on channel=6 note=33 velocity=0 time=96 actual_time=51456
type=note_on channel=6 note=33 velocity=80 time=24 actual_time=51480
type=note_on channel=6 note=33 velocity=0 time=48 actual_time=51528
type=note_on channel=6 note=33 velocity=80 time=12 actual_time=51540
type=note_on channel=6 note=33 velocity=0 time=48 actual_time=51588
type=note_on channel=6 note=33 velocity=80 time=12 actual_time=51600
type=note_on channel=6 note=33 velocity=0 time=96 actual_time=51696
type=note_on channel=6 note=33 velocity=80 time=24 actual_time=51720
type=note_on channel=6 note=33 velocity=0 time=48 actual_time=51768
type=note_on channel=6 note=33 velocity=80 time=12 actual_time=51780
type=note_on channel=6 note=33 velocity=0 time=48 actual_time=51828
type=note_on channel=6 note=35 velocity=80 time=12 actual_time=51840
type=note_on channel=6 note=35 velocity=0 time=96 actual_time=51936
type=note_on channel=6 note=35 velocity=80 time=24 actual_time=51960
type=note_on channel=6 note=35 velocity=0 time=48 actual_time=52008
type=note_on channel=6 note=35 velocity=80 time=12 actual_time=52020
type=note_on channel=6 note=35 velocity=0 time=48 actual_time=52068
type=note_on channel=6 note=35 velocity=80 time=12 actual_time=52080
type=note_on channel=6 note=35 velocity=0 time=96 actual_time=52176
type=note_on channel=6 note=35 velocity=80 time=24 actual_time=52200
type=note_on channel=6 note=35 velocity=0 time=48 actual_time=52248
type=note_on channel=6 note=35 velocity=80 time=12 actual_time=52260
type=note_on channel=6 note=35 velocity=0 time=48 actual_time=52308
type=note_on channel=6 note=35 velocity=80 time=12 actual_time=52320
type=note_on channel=6 note=35 velocity=0 time=96 actual_time=52416
type=note_on channel=6 note=35 velocity=80 time=24 actual_time=52440
type=note_on channel=6 note=35 velocity=0 time=48 actual_time=52488
type=note_on channel=6 note=35 velocity=80 time=12 actual_time=52500
type=note_on channel=6 note=35 velocity=0 time=48 actual_time=52548
type=note_on channel=6 note=35 velocity=80 time=12 actual_time=52560
type=note_on channel=6 note=35 velocity=0 time=96 actual_time=52656
type=note_on channel=6 note=35 velocity=80 time=24 actual_time=52680
type=note_on channel=6 note=35 velocity=0 time=48 actual_time=52728
type=note_on channel=6 note=35 velocity=80 time=12 actual_time=52740
type=note_on channel=6 note=35 velocity=0 time=48 actual_time=52788
type=note_on channel=6 note=28 velocity=80 time=12 actual_time=52800
type=note_on channel=6 note=28 velocity=0 time=96 actual_time=52896
type=note_on channel=6 note=28 velocity=80 time=24 actual_time=52920
type=note_on channel=6 note=28 velocity=0 time=96 actual_time=53016
type=note_on channel=6 note=28 velocity=80 time=24 actual_time=53040
type=note_on channel=6 note=28 velocity=0 time=96 actual_time=53136
type=note_on channel=6 note=28 velocity=80 time=24 actual_time=53160
type=note_on channel=6 note=28 velocity=0 time=96 actual_time=53256
type=note_on channel=6 note=30 velocity=80 time=24 actual_time=53280
type=note_on channel=6 note=30 velocity=0 time=96 actual_time=53376
type=note_on channel=6 note=30 velocity=80 time=24 actual_time=53400
type=note_on channel=6 note=30 velocity=0 time=96 actual_time=53496
type=note_on channel=6 note=30 velocity=80 time=24 actual_time=53520
type=note_on channel=6 note=30 velocity=0 time=96 actual_time=53616
type=note_on channel=6 note=30 velocity=80 time=24 actual_time=53640
type=note_on channel=6 note=30 velocity=0 time=96 actual_time=53736
type=note_on channel=6 note=35 velocity=80 time=24 actual_time=53760
type=note_on channel=6 note=35 velocity=0 time=48 actual_time=53808
type=note_on channel=6 note=35 velocity=80 time=12 actual_time=53820
type=note_on channel=6 note=35 velocity=0 time=48 actual_time=53868
type=note_on channel=6 note=35 velocity=80 time=12 actual_time=53880
type=note_on channel=6 note=35 velocity=0 time=96 actual_time=53976
type=note_on channel=6 note=35 velocity=80 time=24 actual_time=54000
type=note_on channel=6 note=35 velocity=0 time=96 actual_time=54096
type=note_on channel=6 note=35 velocity=80 time=24 actual_time=54120
type=note_on channel=6 note=35 velocity=0 time=96 actual_time=54216
type=note_on channel=6 note=35 velocity=80 time=24 actual_time=54240
type=note_on channel=6 note=35 velocity=0 time=96 actual_time=54336
type=note_on channel=6 note=35 velocity=80 time=24 actual_time=54360
type=note_on channel=6 note=35 velocity=0 time=96 actual_time=54456
type=note_on channel=6 note=35 velocity=80 time=24 actual_time=54480
type=note_on channel=6 note=35 velocity=0 time=96 actual_time=54576
type=note_on channel=6 note=35 velocity=80 time=24 actual_time=54600
type=note_on channel=6 note=35 velocity=0 time=96 actual_time=54696
type=note_on channel=6 note=31 velocity=80 time=24 actual_time=54720
type=note_on channel=6 note=31 velocity=0 time=96 actual_time=54816
type=note_on channel=6 note=31 velocity=80 time=24 actual_time=54840
type=note_on channel=6 note=31 velocity=0 time=96 actual_time=54936
type=note_on channel=6 note=31 velocity=80 time=24 actual_time=54960
type=note_on channel=6 note=31 velocity=0 time=96 actual_time=55056
type=note_on channel=6 note=31 velocity=80 time=24 actual_time=55080
type=note_on channel=6 note=31 velocity=0 time=48 actual_time=55128
type=note_on channel=6 note=31 velocity=80 time=12 actual_time=55140
type=note_on channel=6 note=31 velocity=0 time=48 actual_time=55188
type=note_on channel=6 note=33 velocity=80 time=12 actual_time=55200
type=note_on channel=6 note=33 velocity=0 time=96 actual_time=55296
type=note_on channel=6 note=33 velocity=80 time=24 actual_time=55320
type=note_on channel=6 note=33 velocity=0 time=96 actual_time=55416
type=note_on channel=6 note=33 velocity=80 time=24 actual_time=55440
type=note_on channel=6 note=33 velocity=0 time=96 actual_time=55536
type=note_on channel=6 note=33 velocity=80 time=24 actual_time=55560
type=note_on channel=6 note=33 velocity=0 time=48 actual_time=55608
type=note_on channel=6 note=33 velocity=80 time=12 actual_time=55620
type=note_on channel=6 note=33 velocity=0 time=48 actual_time=55668
type=note_on channel=6 note=35 velocity=80 time=12 actual_time=55680
type=note_on channel=6 note=35 velocity=0 time=96 actual_time=55776
type=note_on channel=6 note=35 velocity=80 time=24 actual_time=55800
type=note_on channel=6 note=35 velocity=0 time=96 actual_time=55896
type=note_on channel=6 note=35 velocity=80 time=24 actual_time=55920
type=note_on channel=6 note=35 velocity=0 time=96 actual_time=56016
type=note_on channel=6 note=35 velocity=80 time=24 actual_time=56040
type=note_on channel=6 note=35 velocity=0 time=96 actual_time=56136
type=note_on channel=6 note=35 velocity=80 time=24 actual_time=56160
type=note_on channel=6 note=35 velocity=0 time=96 actual_time=56256
type=note_on channel=6 note=35 velocity=80 time=24 actual_time=56280
type=note_on channel=6 note=35 velocity=0 time=96 actual_time=56376
type=note_on channel=6 note=35 velocity=80 time=24 actual_time=56400
type=note_on channel=6 note=35 velocity=0 time=96 actual_time=56496
type=note_on channel=6 note=35 velocity=80 time=24 actual_time=56520
type=note_on channel=6 note=35 velocity=0 time=96 actual_time=56616
type=note_on channel=6 note=31 velocity=80 time=24 actual_time=56640
type=note_on channel=6 note=31 velocity=0 time=96 actual_time=56736
type=note_on channel=6 note=31 velocity=80 time=24 actual_time=56760
type=note_on channel=6 note=31 velocity=0 time=96 actual_time=56856
type=note_on channel=6 note=31 velocity=80 time=24 actual_time=56880
type=note_on channel=6 note=31 velocity=0 time=96 actual_time=56976
type=note_on channel=6 note=31 velocity=80 time=24 actual_time=57000
type=note_on channel=6 note=31 velocity=0 time=48 actual_time=57048
type=note_on channel=6 note=31 velocity=80 time=12 actual_time=57060
type=note_on channel=6 note=31 velocity=0 time=48 actual_time=57108
type=note_on channel=6 note=33 velocity=80 time=12 actual_time=57120
type=note_on channel=6 note=33 velocity=0 time=96 actual_time=57216
type=note_on channel=6 note=33 velocity=80 time=24 actual_time=57240
type=note_on channel=6 note=33 velocity=0 time=96 actual_time=57336
type=note_on channel=6 note=33 velocity=80 time=24 actual_time=57360
type=note_on channel=6 note=33 velocity=0 time=96 actual_time=57456
type=note_on channel=6 note=33 velocity=80 time=24 actual_time=57480
type=note_on channel=6 note=33 velocity=0 time=48 actual_time=57528
type=note_on channel=6 note=33 velocity=80 time=12 actual_time=57540
type=note_on channel=6 note=33 velocity=0 time=48 actual_time=57588
type=note_on channel=6 note=35 velocity=80 time=12 actual_time=57600
type=note_on channel=6 note=35 velocity=0 time=96 actual_time=57696
type=note_on channel=6 note=35 velocity=80 time=24 actual_time=57720
type=note_on channel=6 note=35 velocity=0 time=96 actual_time=57816
type=note_on channel=6 note=35 velocity=80 time=24 actual_time=57840
type=note_on channel=6 note=35 velocity=0 time=96 actual_time=57936
type=note_on channel=6 note=35 velocity=80 time=24 actual_time=57960
type=note_on channel=6 note=35 velocity=0 time=96 actual_time=58056
type=note_on channel=6 note=35 velocity=80 time=24 actual_time=58080
type=note_on channel=6 note=35 velocity=0 time=96 actual_time=58176
type=note_on channel=6 note=35 velocity=80 time=24 actual_time=58200
type=note_on channel=6 note=35 velocity=0 time=96 actual_time=58296
type=note_on channel=6 note=35 velocity=80 time=24 actual_time=58320
type=note_on channel=6 note=35 velocity=0 time=96 actual_time=58416
type=note_on channel=6 note=35 velocity=80 time=24 actual_time=58440
type=note_on channel=6 note=35 velocity=0 time=96 actual_time=58536
type=note_on channel=6 note=31 velocity=80 time=24 actual_time=58560
type=note_on channel=6 note=31 velocity=0 time=96 actual_time=58656
type=note_on channel=6 note=31 velocity=80 time=24 actual_time=58680
type=note_on channel=6 note=31 velocity=0 time=96 actual_time=58776
type=note_on channel=6 note=31 velocity=80 time=24 actual_time=58800
type=note_on channel=6 note=31 velocity=0 time=96 actual_time=58896
type=note_on channel=6 note=31 velocity=80 time=24 actual_time=58920
type=note_on channel=6 note=31 velocity=0 time=48 actual_time=58968
type=note_on channel=6 note=31 velocity=80 time=12 actual_time=58980
type=note_on channel=6 note=31 velocity=0 time=48 actual_time=59028
type=note_on channel=6 note=33 velocity=80 time=12 actual_time=59040
type=note_on channel=6 note=33 velocity=0 time=96 actual_time=59136
type=note_on channel=6 note=33 velocity=80 time=24 actual_time=59160
type=note_on channel=6 note=33 velocity=0 time=96 actual_time=59256
type=note_on channel=6 note=33 velocity=80 time=24 actual_time=59280
type=note_on channel=6 note=33 velocity=0 time=96 actual_time=59376
type=note_on channel=6 note=33 velocity=80 time=24 actual_time=59400
type=note_on channel=6 note=33 velocity=0 time=48 actual_time=59448
type=note_on channel=6 note=33 velocity=80 time=12 actual_time=59460
type=note_on channel=6 note=33 velocity=0 time=48 actual_time=59508
type=note_on channel=6 note=35 velocity=80 time=12 actual_time=59520
type=note_on channel=6 note=35 velocity=0 time=96 actual_time=59616
type=note_on channel=6 note=35 velocity=80 time=24 actual_time=59640
type=note_on channel=6 note=35 velocity=0 time=96 actual_time=59736
type=note_on channel=6 note=35 velocity=80 time=24 actual_time=59760
type=note_on channel=6 note=35 velocity=0 time=96 actual_time=59856
type=note_on channel=6 note=35 velocity=80 time=24 actual_time=59880
type=note_on channel=6 note=35 velocity=0 time=96 actual_time=59976
type=note_on channel=6 note=35 velocity=80 time=24 actual_time=60000
type=note_on channel=6 note=35 velocity=0 time=96 actual_time=60096
type=note_on channel=6 note=35 velocity=80 time=24 actual_time=60120
type=note_on channel=6 note=35 velocity=0 time=96 actual_time=60216
type=note_on channel=6 note=35 velocity=80 time=24 actual_time=60240
type=note_on channel=6 note=35 velocity=0 time=96 actual_time=60336
type=note_on channel=6 note=35 velocity=80 time=24 actual_time=60360
type=note_on channel=6 note=35 velocity=0 time=96 actual_time=60456
type=note_on channel=6 note=31 velocity=80 time=24 actual_time=60480
type=note_on channel=6 note=31 velocity=0 time=96 actual_time=60576
type=note_on channel=6 note=31 velocity=80 time=24 actual_time=60600
type=note_on channel=6 note=31 velocity=0 time=96 actual_time=60696
type=note_on channel=6 note=31 velocity=80 time=24 actual_time=60720
type=note_on channel=6 note=31 velocity=0 time=96 actual_time=60816
type=note_on channel=6 note=31 velocity=80 time=24 actual_time=60840
type=note_on channel=6 note=31 velocity=0 time=48 actual_time=60888
type=note_on channel=6 note=31 velocity=80 time=12 actual_time=60900
type=note_on channel=6 note=31 velocity=0 time=48 actual_time=60948
type=note_on channel=6 note=33 velocity=80 time=12 actual_time=60960
type=note_on channel=6 note=33 velocity=0 time=96 actual_time=61056
type=note_on channel=6 note=33 velocity=80 time=24 actual_time=61080
type=note_on channel=6 note=33 velocity=0 time=96 actual_time=61176
type=note_on channel=6 note=33 velocity=80 time=24 actual_time=61200
type=note_on channel=6 note=33 velocity=0 time=96 actual_time=61296
type=note_on channel=6 note=33 velocity=80 time=24 actual_time=61320
type=note_on channel=6 note=33 velocity=0 time=108 actual_time=61428
type=note_on channel=6 note=35 velocity=80 time=12 actual_time=61440
type=note_on channel=6 note=35 velocity=0 time=96 actual_time=61536
type=note_on channel=6 note=35 velocity=80 time=24 actual_time=61560
type=note_on channel=6 note=35 velocity=0 time=96 actual_time=61656
type=note_on channel=6 note=35 velocity=80 time=24 actual_time=61680
type=note_on channel=6 note=35 velocity=0 time=96 actual_time=61776
type=note_on channel=6 note=35 velocity=80 time=24 actual_time=61800
type=note_on channel=6 note=35 velocity=0 time=96 actual_time=61896
type=note_on channel=6 note=35 velocity=80 time=24 actual_time=61920
type=note_on channel=6 note=35 velocity=0 time=96 actual_time=62016
type=note_on channel=6 note=35 velocity=80 time=24 actual_time=62040
type=note_on channel=6 note=35 velocity=0 time=96 actual_time=62136
type=note_on channel=6 note=35 velocity=80 time=24 actual_time=62160
type=note_on channel=6 note=35 velocity=0 time=96 actual_time=62256
type=note_on channel=6 note=35 velocity=80 time=24 actual_time=62280
type=note_on channel=6 note=35 velocity=0 time=96 actual_time=62376
type=note_on channel=6 note=31 velocity=80 time=24 actual_time=62400
type=note_on channel=6 note=31 velocity=0 time=96 actual_time=62496
type=note_on channel=6 note=31 velocity=80 time=24 actual_time=62520
type=note_on channel=6 note=31 velocity=0 time=96 actual_time=62616
type=note_on channel=6 note=31 velocity=80 time=24 actual_time=62640
type=note_on channel=6 note=31 velocity=0 time=96 actual_time=62736
type=note_on channel=6 note=31 velocity=80 time=24 actual_time=62760
type=note_on channel=6 note=31 velocity=0 time=96 actual_time=62856
type=note_on channel=6 note=33 velocity=80 time=24 actual_time=62880
type=note_on channel=6 note=33 velocity=0 time=96 actual_time=62976
type=note_on channel=6 note=33 velocity=80 time=24 actual_time=63000
type=note_on channel=6 note=33 velocity=0 time=96 actual_time=63096
type=note_on channel=6 note=33 velocity=80 time=24 actual_time=63120
type=note_on channel=6 note=33 velocity=0 time=96 actual_time=63216
type=note_on channel=6 note=33 velocity=80 time=24 actual_time=63240
type=note_on channel=6 note=33 velocity=0 time=96 actual_time=63336
type=note_on channel=6 note=35 velocity=80 time=24 actual_time=63360
type=note_on channel=6 note=35 velocity=0 time=96 actual_time=63456
type=note_on channel=6 note=35 velocity=80 time=24 actual_time=63480
type=note_on channel=6 note=35 velocity=0 time=96 actual_time=63576
type=note_on channel=6 note=35 velocity=80 time=24 actual_time=63600
type=note_on channel=6 note=35 velocity=0 time=96 actual_time=63696
type=note_on channel=6 note=35 velocity=80 time=24 actual_time=63720
type=note_on channel=6 note=35 velocity=0 time=96 actual_time=63816
type=note_on channel=6 note=35 velocity=80 time=24 actual_time=63840
type=note_on channel=6 note=35 velocity=0 time=96 actual_time=63936
type=note_on channel=6 note=35 velocity=80 time=24 actual_time=63960
type=note_on channel=6 note=35 velocity=0 time=96 actual_time=64056
type=note_on channel=6 note=35 velocity=80 time=24 actual_time=64080
type=note_on channel=6 note=35 velocity=0 time=96 actual_time=64176
type=note_on channel=6 note=35 velocity=80 time=24 actual_time=64200
type=note_on channel=6 note=35 velocity=0 time=96 actual_time=64296
type=note_on channel=6 note=31 velocity=80 time=24 actual_time=64320
type=note_on channel=6 note=31 velocity=0 time=96 actual_time=64416
type=note_on channel=6 note=31 velocity=80 time=24 actual_time=64440
type=note_on channel=6 note=31 velocity=0 time=96 actual_time=64536
type=note_on channel=6 note=31 velocity=80 time=24 actual_time=64560
type=note_on channel=6 note=31 velocity=0 time=96 actual_time=64656
type=note_on channel=6 note=31 velocity=80 time=24 actual_time=64680
type=note_on channel=6 note=31 velocity=0 time=96 actual_time=64776
type=note_on channel=6 note=33 velocity=80 time=24 actual_time=64800
type=note_on channel=6 note=33 velocity=0 time=96 actual_time=64896
type=note_on channel=6 note=33 velocity=80 time=24 actual_time=64920
type=note_on channel=6 note=33 velocity=0 time=96 actual_time=65016
type=note_on channel=6 note=33 velocity=80 time=24 actual_time=65040
type=note_on channel=6 note=33 velocity=0 time=96 actual_time=65136
type=note_on channel=6 note=33 velocity=80 time=24 actual_time=65160
type=note_on channel=6 note=33 velocity=0 time=96 actual_time=65256
type=note_on channel=6 note=35 velocity=80 time=24 actual_time=65280
type=note_on channel=6 note=35 velocity=0 time=96 actual_time=65376
type=note_on channel=6 note=35 velocity=80 time=24 actual_time=65400
type=note_on channel=6 note=35 velocity=0 time=96 actual_time=65496
type=note_on channel=6 note=35 velocity=80 time=24 actual_time=65520
type=note_on channel=6 note=35 velocity=0 time=96 actual_time=65616
type=note_on channel=6 note=35 velocity=80 time=24 actual_time=65640
type=note_on channel=6 note=35 velocity=0 time=96 actual_time=65736
type=note_on channel=6 note=35 velocity=80 time=24 actual_time=65760
type=note_on channel=6 note=35 velocity=0 time=96 actual_time=65856
type=note_on channel=6 note=35 velocity=80 time=24 actual_time=65880
type=note_on channel=6 note=35 velocity=0 time=96 actual_time=65976
type=note_on channel=6 note=35 velocity=80 time=24 actual_time=66000
type=note_on channel=6 note=35 velocity=0 time=96 actual_time=66096
type=note_on channel=6 note=35 velocity=80 time=24 actual_time=66120
type=note_on channel=6 note=35 velocity=0 time=96 actual_time=66216
type=note_on channel=6 note=31 velocity=80 time=24 actual_time=66240
type=note_on channel=6 note=31 velocity=0 time=96 actual_time=66336
type=note_on channel=6 note=31 velocity=80 time=24 actual_time=66360
type=note_on channel=6 note=31 velocity=0 time=96 actual_time=66456
type=note_on channel=6 note=31 velocity=80 time=24 actual_time=66480
type=note_on channel=6 note=31 velocity=0 time=96 actual_time=66576
type=note_on channel=6 note=31 velocity=80 time=24 actual_time=66600
type=note_on channel=6 note=31 velocity=0 time=96 actual_time=66696
type=note_on channel=6 note=33 velocity=80 time=24 actual_time=66720
type=note_on channel=6 note=33 velocity=0 time=96 actual_time=66816
type=note_on channel=6 note=33 velocity=80 time=24 actual_time=66840
type=note_on channel=6 note=33 velocity=0 time=96 actual_time=66936
type=note_on channel=6 note=33 velocity=80 time=24 actual_time=66960
type=note_on channel=6 note=33 velocity=0 time=96 actual_time=67056
type=note_on channel=6 note=33 velocity=80 time=24 actual_time=67080
type=note_on channel=6 note=33 velocity=0 time=96 actual_time=67176
type=note_on channel=6 note=35 velocity=80 time=24 actual_time=67200
type=note_on channel=6 note=35 velocity=0 time=96 actual_time=67296
type=note_on channel=6 note=35 velocity=80 time=24 actual_time=67320
type=note_on channel=6 note=35 velocity=0 time=96 actual_time=67416
type=note_on channel=6 note=35 velocity=80 time=24 actual_time=67440
type=note_on channel=6 note=35 velocity=0 time=96 actual_time=67536
type=note_on channel=6 note=35 velocity=80 time=24 actual_time=67560
type=note_on channel=6 note=35 velocity=0 time=96 actual_time=67656
type=note_on channel=6 note=35 velocity=80 time=24 actual_time=67680
type=note_on channel=6 note=35 velocity=0 time=96 actual_time=67776
type=note_on channel=6 note=35 velocity=80 time=24 actual_time=67800
type=note_on channel=6 note=35 velocity=0 time=96 actual_time=67896
type=note_on channel=6 note=35 velocity=80 time=24 actual_time=67920
type=note_on channel=6 note=35 velocity=0 time=96 actual_time=68016
type=note_on channel=6 note=35 velocity=80 time=24 actual_time=68040
type=note_on channel=6 note=35 velocity=0 time=96 actual_time=68136
type=note_on channel=6 note=31 velocity=80 time=24 actual_time=68160
type=note_on channel=6 note=31 velocity=0 time=96 actual_time=68256
type=note_on channel=6 note=31 velocity=80 time=24 actual_time=68280
type=note_on channel=6 note=31 velocity=0 time=96 actual_time=68376
type=note_on channel=6 note=31 velocity=80 time=24 actual_time=68400
type=note_on channel=6 note=31 velocity=0 time=96 actual_time=68496
type=note_on channel=6 note=31 velocity=80 time=24 actual_time=68520
type=note_on channel=6 note=31 velocity=0 time=96 actual_time=68616
type=note_on channel=6 note=33 velocity=80 time=24 actual_time=68640
type=note_on channel=6 note=33 velocity=0 time=96 actual_time=68736
type=note_on channel=6 note=33 velocity=80 time=24 actual_time=68760
type=note_on channel=6 note=33 velocity=0 time=96 actual_time=68856
type=note_on channel=6 note=33 velocity=80 time=24 actual_time=68880
type=note_on channel=6 note=33 velocity=0 time=96 actual_time=68976
type=note_on channel=6 note=33 velocity=80 time=24 actual_time=69000
type=note_on channel=6 note=33 velocity=0 time=96 actual_time=69096
type=note_on channel=6 note=35 velocity=80 time=24 actual_time=69120
type=note_on channel=6 note=35 velocity=0 time=96 actual_time=69216
type=note_on channel=6 note=35 velocity=80 time=24 actual_time=69240
type=note_on channel=6 note=35 velocity=0 time=96 actual_time=69336
type=note_on channel=6 note=35 velocity=80 time=24 actual_time=69360
type=note_on channel=6 note=35 velocity=0 time=96 actual_time=69456
type=note_on channel=6 note=35 velocity=80 time=24 actual_time=69480
type=note_on channel=6 note=35 velocity=0 time=96 actual_time=69576
type=note_on channel=6 note=35 velocity=80 time=24 actual_time=69600
type=note_on channel=6 note=35 velocity=0 time=96 actual_time=69696
type=note_on channel=6 note=35 velocity=80 time=24 actual_time=69720
type=note_on channel=6 note=35 velocity=0 time=96 actual_time=69816
type=note_on channel=6 note=35 velocity=80 time=24 actual_time=69840
type=note_on channel=6 note=35 velocity=0 time=96 actual_time=69936
type=note_on channel=6 note=35 velocity=80 time=24 actual_time=69960
type=note_on channel=6 note=35 velocity=0 time=96 actual_time=70056
type=note_on channel=6 note=31 velocity=80 time=24 actual_time=70080
type=note_on channel=6 note=31 velocity=0 time=96 actual_time=70176
type=note_on channel=6 note=31 velocity=80 time=24 actual_time=70200
type=note_on channel=6 note=31 velocity=0 time=96 actual_time=70296
type=note_on channel=6 note=31 velocity=80 time=24 actual_time=70320
type=note_on channel=6 note=31 velocity=0 time=96 actual_time=70416
type=note_on channel=6 note=31 velocity=80 time=24 actual_time=70440
type=note_on channel=6 note=31 velocity=0 time=96 actual_time=70536
type=note_on channel=6 note=33 velocity=80 time=24 actual_time=70560
type=note_on channel=6 note=33 velocity=0 time=96 actual_time=70656
type=note_on channel=6 note=33 velocity=80 time=24 actual_time=70680
type=note_on channel=6 note=33 velocity=0 time=96 actual_time=70776
type=note_on channel=6 note=33 velocity=80 time=24 actual_time=70800
type=note_on channel=6 note=33 velocity=0 time=96 actual_time=70896
type=note_on channel=6 note=33 velocity=80 time=24 actual_time=70920
type=note_on channel=6 note=33 velocity=0 time=96 actual_time=71016
type=note_on channel=6 note=35 velocity=80 time=24 actual_time=71040
type=note_on channel=6 note=35 velocity=0 time=96 actual_time=71136
type=note_on channel=6 note=35 velocity=80 time=24 actual_time=71160
type=note_on channel=6 note=35 velocity=0 time=96 actual_time=71256
type=note_on channel=6 note=35 velocity=80 time=24 actual_time=71280
type=note_on channel=6 note=35 velocity=0 time=96 actual_time=71376
type=note_on channel=6 note=35 velocity=80 time=24 actual_time=71400
type=note_on channel=6 note=35 velocity=0 time=96 actual_time=71496
type=note_on channel=6 note=35 velocity=80 time=24 actual_time=71520
type=note_on channel=6 note=35 velocity=0 time=96 actual_time=71616
type=note_on channel=6 note=35 velocity=80 time=24 actual_time=71640
type=note_on channel=6 note=35 velocity=0 time=96 actual_time=71736
type=note_on channel=6 note=35 velocity=80 time=24 actual_time=71760
type=note_on channel=6 note=35 velocity=0 time=96 actual_time=71856
type=note_on channel=6 note=35 velocity=80 time=24 actual_time=71880
type=note_on channel=6 note=35 velocity=0 time=96 actual_time=71976
type=note_on channel=6 note=31 velocity=80 time=24 actual_time=72000
type=note_on channel=6 note=31 velocity=0 time=96 actual_time=72096
type=note_on channel=6 note=31 velocity=80 time=24 actual_time=72120
type=note_on channel=6 note=31 velocity=0 time=96 actual_time=72216
type=note_on channel=6 note=31 velocity=80 time=24 actual_time=72240
type=note_on channel=6 note=31 velocity=0 time=96 actual_time=72336
type=note_on channel=6 note=31 velocity=80 time=24 actual_time=72360
type=note_on channel=6 note=31 velocity=0 time=96 actual_time=72456
type=note_on channel=6 note=33 velocity=80 time=24 actual_time=72480
type=note_on channel=6 note=33 velocity=0 time=96 actual_time=72576
type=note_on channel=6 note=33 velocity=80 time=24 actual_time=72600
type=note_on channel=6 note=33 velocity=0 time=96 actual_time=72696
type=note_on channel=6 note=33 velocity=80 time=24 actual_time=72720
type=note_on channel=6 note=33 velocity=0 time=96 actual_time=72816
type=note_on channel=6 note=33 velocity=80 time=24 actual_time=72840
type=note_on channel=6 note=33 velocity=0 time=96 actual_time=72936
type=note_on channel=6 note=35 velocity=80 time=24 actual_time=72960
type=note_on channel=6 note=35 velocity=0 time=96 actual_time=73056
type=note_on channel=6 note=35 velocity=80 time=24 actual_time=73080
type=note_on channel=6 note=35 velocity=0 time=48 actual_time=73128
type=note_on channel=6 note=35 velocity=80 time=12 actual_time=73140
type=note_on channel=6 note=35 velocity=0 time=48 actual_time=73188
type=note_on channel=6 note=35 velocity=80 time=12 actual_time=73200
type=note_on channel=6 note=35 velocity=0 time=96 actual_time=73296
type=note_on channel=6 note=35 velocity=80 time=24 actual_time=73320
type=note_on channel=6 note=35 velocity=0 time=48 actual_time=73368
type=note_on channel=6 note=35 velocity=80 time=12 actual_time=73380
type=note_on channel=6 note=35 velocity=0 time=48 actual_time=73428
type=note_on channel=6 note=35 velocity=80 time=12 actual_time=73440
type=note_on channel=6 note=35 velocity=0 time=96 actual_time=73536
type=note_on channel=6 note=35 velocity=80 time=24 actual_time=73560
type=note_on channel=6 note=35 velocity=0 time=48 actual_time=73608
type=note_on channel=6 note=35 velocity=80 time=12 actual_time=73620
type=note_on channel=6 note=35 velocity=0 time=48 actual_time=73668
type=note_on channel=6 note=35 velocity=80 time=12 actual_time=73680
type=note_on channel=6 note=35 velocity=0 time=96 actual_time=73776
type=note_on channel=6 note=35 velocity=80 time=24 actual_time=73800
type=note_on channel=6 note=35 velocity=0 time=48 actual_time=73848
type=note_on channel=6 note=35 velocity=80 time=12 actual_time=73860
type=note_on channel=6 note=35 velocity=0 time=48 actual_time=73908
type=note_on channel=6 note=31 velocity=80 time=12 actual_time=73920
type=note_on channel=6 note=31 velocity=0 time=96 actual_time=74016
type=note_on channel=6 note=31 velocity=80 time=24 actual_time=74040
type=note_on channel=6 note=31 velocity=0 time=48 actual_time=74088
type=note_on channel=6 note=31 velocity=80 time=12 actual_time=74100
type=note_on channel=6 note=31 velocity=0 time=48 actual_time=74148
type=note_on channel=6 note=31 velocity=80 time=12 actual_time=74160
type=note_on channel=6 note=31 velocity=0 time=96 actual_time=74256
type=note_on channel=6 note=31 velocity=80 time=24 actual_time=74280
type=note_on channel=6 note=31 velocity=0 time=48 actual_time=74328
type=note_on channel=6 note=31 velocity=80 time=12 actual_time=74340
type=note_on channel=6 note=31 velocity=0 time=48 actual_time=74388
type=note_on channel=6 note=33 velocity=80 time=12 actual_time=74400
type=note_on channel=6 note=33 velocity=0 time=96 actual_time=74496
type=note_on channel=6 note=33 velocity=80 time=24 actual_time=74520
type=note_on channel=6 note=33 velocity=0 time=48 actual_time=74568
type=note_on channel=6 note=33 velocity=80 time=12 actual_time=74580
type=note_on channel=6 note=33 velocity=0 time=48 actual_time=74628
type=note_on channel=6 note=33 velocity=80 time=12 actual_time=74640
type=note_on channel=6 note=33 velocity=0 time=96 actual_time=74736
type=note_on channel=6 note=33 velocity=80 time=24 actual_time=74760
type=note_on channel=6 note=33 velocity=0 time=48 actual_time=74808
type=note_on channel=6 note=33 velocity=80 time=12 actual_time=74820
type=note_on channel=6 note=33 velocity=0 time=48 actual_time=74868
type=note_on channel=6 note=35 velocity=80 time=12 actual_time=74880
type=note_on channel=6 note=35 velocity=0 time=96 actual_time=74976
type=note_on channel=6 note=35 velocity=80 time=24 actual_time=75000
type=note_on channel=6 note=35 velocity=0 time=48 actual_time=75048
type=note_on channel=6 note=35 velocity=80 time=12 actual_time=75060
type=note_on channel=6 note=35 velocity=0 time=48 actual_time=75108
type=note_on channel=6 note=35 velocity=80 time=12 actual_time=75120
type=note_on channel=6 note=35 velocity=0 time=96 actual_time=75216
type=note_on channel=6 note=35 velocity=80 time=24 actual_time=75240
type=note_on channel=6 note=35 velocity=0 time=48 actual_time=75288
type=note_on channel=6 note=35 velocity=80 time=12 actual_time=75300
type=note_on channel=6 note=35 velocity=0 time=48 actual_time=75348
type=note_on channel=6 note=35 velocity=80 time=12 actual_time=75360
type=note_on channel=6 note=35 velocity=0 time=96 actual_time=75456
type=note_on channel=6 note=35 velocity=80 time=24 actual_time=75480
type=note_on channel=6 note=35 velocity=0 time=48 actual_time=75528
type=note_on channel=6 note=35 velocity=80 time=12 actual_time=75540
type=note_on channel=6 note=35 velocity=0 time=48 actual_time=75588
type=note_on channel=6 note=35 velocity=80 time=12 actual_time=75600
type=note_on channel=6 note=35 velocity=0 time=96 actual_time=75696
type=note_on channel=6 note=35 velocity=80 time=24 actual_time=75720
type=note_on channel=6 note=35 velocity=0 time=48 actual_time=75768
type=note_on channel=6 note=35 velocity=80 time=12 actual_time=75780
type=note_on channel=6 note=35 velocity=0 time=48 actual_time=75828
type=note_on channel=6 note=28 velocity=80 time=12 actual_time=75840
type=note_on channel=6 note=28 velocity=0 time=96 actual_time=75936
type=note_on channel=6 note=28 velocity=80 time=24 actual_time=75960
type=note_on channel=6 note=28 velocity=0 time=48 actual_time=76008
type=note_on channel=6 note=28 velocity=80 time=12 actual_time=76020
type=note_on channel=6 note=28 velocity=0 time=48 actual_time=76068
type=note_on channel=6 note=28 velocity=80 time=12 actual_time=76080
type=note_on channel=6 note=28 velocity=0 time=96 actual_time=76176
type=note_on channel=6 note=28 velocity=80 time=24 actual_time=76200
type=note_on channel=6 note=28 velocity=0 time=48 actual_time=76248
type=note_on channel=6 note=28 velocity=80 time=12 actual_time=76260
type=note_on channel=6 note=28 velocity=0 time=48 actual_time=76308
type=note_on channel=6 note=30 velocity=80 time=12 actual_time=76320
type=note_on channel=6 note=30 velocity=0 time=96 actual_time=76416
type=note_on channel=6 note=30 velocity=80 time=24 actual_time=76440
type=note_on channel=6 note=30 velocity=0 time=48 actual_time=76488
type=note_on channel=6 note=30 velocity=80 time=12 actual_time=76500
type=note_on channel=6 note=30 velocity=0 time=48 actual_time=76548
type=note_on channel=6 note=30 velocity=80 time=12 actual_time=76560
type=note_on channel=6 note=30 velocity=0 time=96 actual_time=76656
type=note_on channel=6 note=30 velocity=80 time=24 actual_time=76680
type=note_on channel=6 note=30 velocity=0 time=48 actual_time=76728
type=note_on channel=6 note=30 velocity=80 time=12 actual_time=76740
type=note_on channel=6 note=30 velocity=0 time=48 actual_time=76788
type=note_on channel=6 note=35 velocity=80 time=12 actual_time=76800
type=note_on channel=6 note=35 velocity=0 time=96 actual_time=76896
type=note_on channel=6 note=35 velocity=80 time=24 actual_time=76920
type=note_on channel=6 note=35 velocity=0 time=48 actual_time=76968
type=note_on channel=6 note=35 velocity=80 time=12 actual_time=76980
type=note_on channel=6 note=35 velocity=0 time=48 actual_time=77028
type=note_on channel=6 note=35 velocity=80 time=12 actual_time=77040
type=note_on channel=6 note=35 velocity=0 time=96 actual_time=77136
type=note_on channel=6 note=35 velocity=80 time=24 actual_time=77160
type=note_on channel=6 note=35 velocity=0 time=48 actual_time=77208
type=note_on channel=6 note=35 velocity=80 time=12 actual_time=77220
type=note_on channel=6 note=35 velocity=0 time=48 actual_time=77268
type=note_on channel=6 note=35 velocity=80 time=12 actual_time=77280
type=note_on channel=6 note=35 velocity=0 time=96 actual_time=77376
type=note_on channel=6 note=35 velocity=80 time=24 actual_time=77400
type=note_on channel=6 note=35 velocity=0 time=48 actual_time=77448
type=note_on channel=6 note=35 velocity=80 time=12 actual_time=77460
type=note_on channel=6 note=35 velocity=0 time=48 actual_time=77508
type=note_on channel=6 note=35 velocity=80 time=12 actual_time=77520
type=note_on channel=6 note=35 velocity=0 time=96 actual_time=77616
type=note_on channel=6 note=35 velocity=80 time=24 actual_time=77640
type=note_on channel=6 note=35 velocity=0 time=48 actual_time=77688
type=note_on channel=6 note=35 velocity=80 time=12 actual_time=77700
type=note_on channel=6 note=35 velocity=0 time=48 actual_time=77748
type=note_on channel=6 note=31 velocity=80 time=12 actual_time=77760
type=note_on channel=6 note=31 velocity=0 time=96 actual_time=77856
type=note_on channel=6 note=31 velocity=80 time=24 actual_time=77880
type=note_on channel=6 note=31 velocity=0 time=48 actual_time=77928
type=note_on channel=6 note=31 velocity=80 time=12 actual_time=77940
type=note_on channel=6 note=31 velocity=0 time=48 actual_time=77988
type=note_on channel=6 note=31 velocity=80 time=12 actual_time=78000
type=note_on channel=6 note=31 velocity=0 time=96 actual_time=78096
type=note_on channel=6 note=31 velocity=80 time=24 actual_time=78120
type=note_on channel=6 note=31 velocity=0 time=48 actual_time=78168
type=note_on channel=6 note=31 velocity=80 time=12 actual_time=78180
type=note_on channel=6 note=31 velocity=0 time=48 actual_time=78228
type=note_on channel=6 note=33 velocity=80 time=12 actual_time=78240
type=note_on channel=6 note=33 velocity=0 time=96 actual_time=78336
type=note_on channel=6 note=33 velocity=80 time=24 actual_time=78360
type=note_on channel=6 note=33 velocity=0 time=48 actual_time=78408
type=note_on channel=6 note=33 velocity=80 time=12 actual_time=78420
type=note_on channel=6 note=33 velocity=0 time=48 actual_time=78468
type=note_on channel=6 note=33 velocity=80 time=12 actual_time=78480
type=note_on channel=6 note=33 velocity=0 time=96 actual_time=78576
type=note_on channel=6 note=33 velocity=80 time=24 actual_time=78600
type=note_on channel=6 note=33 velocity=0 time=48 actual_time=78648
type=note_on channel=6 note=33 velocity=80 time=12 actual_time=78660
type=note_on channel=6 note=33 velocity=0 time=48 actual_time=78708
type=note_on channel=6 note=35 velocity=80 time=12 actual_time=78720
type=note_on channel=6 note=35 velocity=0 time=96 actual_time=78816
type=note_on channel=6 note=35 velocity=80 time=24 actual_time=78840
type=note_on channel=6 note=35 velocity=0 time=48 actual_time=78888
type=note_on channel=6 note=35 velocity=80 time=12 actual_time=78900
type=note_on channel=6 note=35 velocity=0 time=48 actual_time=78948
type=note_on channel=6 note=35 velocity=80 time=12 actual_time=78960
type=note_on channel=6 note=35 velocity=0 time=96 actual_time=79056
type=note_on channel=6 note=35 velocity=80 time=24 actual_time=79080
type=note_on channel=6 note=35 velocity=0 time=48 actual_time=79128
type=note_on channel=6 note=35 velocity=80 time=12 actual_time=79140
type=note_on channel=6 note=35 velocity=0 time=48 actual_time=79188
type=note_on channel=6 note=35 velocity=80 time=12 actual_time=79200
type=note_on channel=6 note=35 velocity=0 time=96 actual_time=79296
type=note_on channel=6 note=35 velocity=80 time=24 actual_time=79320
type=note_on channel=6 note=35 velocity=0 time=48 actual_time=79368
type=note_on channel=6 note=35 velocity=80 time=12 actual_time=79380
type=note_on channel=6 note=35 velocity=0 time=48 actual_time=79428
type=note_on channel=6 note=35 velocity=80 time=12 actual_time=79440
type=note_on channel=6 note=35 velocity=0 time=96 actual_time=79536
type=note_on channel=6 note=35 velocity=80 time=24 actual_time=79560
type=note_on channel=6 note=35 velocity=0 time=48 actual_time=79608
type=note_on channel=6 note=35 velocity=80 time=12 actual_time=79620
type=note_on channel=6 note=35 velocity=0 time=48 actual_time=79668
type=note_on channel=6 note=28 velocity=80 time=12 actual_time=79680
type=note_on channel=6 note=28 velocity=0 time=96 actual_time=79776
type=note_on channel=6 note=28 velocity=80 time=24 actual_time=79800
type=note_on channel=6 note=28 velocity=0 time=96 actual_time=79896
type=note_on channel=6 note=28 velocity=80 time=24 actual_time=79920
type=note_on channel=6 note=28 velocity=0 time=96 actual_time=80016
type=note_on channel=6 note=28 velocity=80 time=24 actual_time=80040
type=note_on channel=6 note=28 velocity=0 time=96 actual_time=80136
type=note_on channel=6 note=30 velocity=80 time=24 actual_time=80160
type=note_on channel=6 note=30 velocity=0 time=96 actual_time=80256
type=note_on channel=6 note=30 velocity=80 time=24 actual_time=80280
type=note_on channel=6 note=30 velocity=0 time=96 actual_time=80376
type=note_on channel=6 note=30 velocity=80 time=24 actual_time=80400
type=note_on channel=6 note=30 velocity=0 time=96 actual_time=80496
type=note_on channel=6 note=30 velocity=80 time=24 actual_time=80520
type=note_on channel=6 note=30 velocity=0 time=96 actual_time=80616
type=note_on channel=6 note=35 velocity=80 time=24 actual_time=80640
type=note_on channel=6 note=35 velocity=0 time=96 actual_time=80736
type=note_on channel=6 note=35 velocity=80 time=24 actual_time=80760
type=note_on channel=6 note=35 velocity=0 time=96 actual_time=80856
type=note_on channel=6 note=35 velocity=80 time=24 actual_time=80880
type=note_on channel=6 note=35 velocity=0 time=96 actual_time=80976
type=note_on channel=6 note=35 velocity=80 time=24 actual_time=81000
type=note_on channel=6 note=35 velocity=0 time=96 actual_time=81096
type=note_on channel=6 note=35 velocity=80 time=24 actual_time=81120
type=note_on channel=6 note=35 velocity=0 time=96 actual_time=81216
type=note_on channel=6 note=35 velocity=80 time=24 actual_time=81240
type=note_on channel=6 note=35 velocity=0 time=96 actual_time=81336
type=note_on channel=6 note=35 velocity=80 time=24 actual_time=81360
type=note_on channel=6 note=35 velocity=0 time=96 actual_time=81456
type=note_on channel=6 note=35 velocity=80 time=24 actual_time=81480
type=note_on channel=6 note=35 velocity=0 time=96 actual_time=81576
type=note_on channel=6 note=31 velocity=80 time=24 actual_time=81600
type=note_on channel=6 note=31 velocity=0 time=96 actual_time=81696
type=note_on channel=6 note=31 velocity=80 time=24 actual_time=81720
type=note_on channel=6 note=31 velocity=0 time=96 actual_time=81816
type=note_on channel=6 note=31 velocity=80 time=24 actual_time=81840
type=note_on channel=6 note=31 velocity=0 time=96 actual_time=81936
type=note_on channel=6 note=31 velocity=80 time=24 actual_time=81960
type=note_on channel=6 note=31 velocity=0 time=96 actual_time=82056
type=note_on channel=6 note=33 velocity=80 time=24 actual_time=82080
type=note_on channel=6 note=33 velocity=0 time=96 actual_time=82176
type=note_on channel=6 note=33 velocity=80 time=24 actual_time=82200
type=note_on channel=6 note=33 velocity=0 time=96 actual_time=82296
type=note_on channel=6 note=33 velocity=80 time=24 actual_time=82320
type=note_on channel=6 note=33 velocity=0 time=96 actual_time=82416
type=note_on channel=6 note=33 velocity=80 time=24 actual_time=82440
type=note_on channel=6 note=33 velocity=0 time=96 actual_time=82536
type=note_on channel=6 note=35 velocity=80 time=24 actual_time=82560
type=note_on channel=6 note=35 velocity=0 time=96 actual_time=82656
type=note_on channel=6 note=35 velocity=80 time=24 actual_time=82680
type=note_on channel=6 note=35 velocity=0 time=96 actual_time=82776
type=note_on channel=6 note=35 velocity=80 time=24 actual_time=82800
type=note_on channel=6 note=35 velocity=0 time=96 actual_time=82896
type=note_on channel=6 note=35 velocity=80 time=24 actual_time=82920
type=note_on channel=6 note=35 velocity=0 time=96 actual_time=83016
type=note_on channel=6 note=35 velocity=80 time=24 actual_time=83040
type=note_on channel=6 note=35 velocity=0 time=96 actual_time=83136
type=note_on channel=6 note=35 velocity=80 time=24 actual_time=83160
type=note_on channel=6 note=35 velocity=0 time=96 actual_time=83256
type=note_on channel=6 note=35 velocity=80 time=24 actual_time=83280
type=note_on channel=6 note=35 velocity=0 time=96 actual_time=83376
type=note_on channel=6 note=35 velocity=80 time=24 actual_time=83400
type=note_on channel=6 note=35 velocity=0 time=96 actual_time=83496
type=note_on channel=6 note=31 velocity=80 time=24 actual_time=83520
type=note_on channel=6 note=31 velocity=0 time=96 actual_time=83616
type=note_on channel=6 note=31 velocity=80 time=24 actual_time=83640
type=note_on channel=6 note=31 velocity=0 time=96 actual_time=83736
type=note_on channel=6 note=31 velocity=80 time=24 actual_time=83760
type=note_on channel=6 note=31 velocity=0 time=96 actual_time=83856
type=note_on channel=6 note=31 velocity=80 time=24 actual_time=83880
type=note_on channel=6 note=31 velocity=0 time=96 actual_time=83976
type=note_on channel=6 note=33 velocity=80 time=24 actual_time=84000
type=note_on channel=6 note=33 velocity=0 time=96 actual_time=84096
type=note_on channel=6 note=33 velocity=80 time=24 actual_time=84120
type=note_on channel=6 note=33 velocity=0 time=96 actual_time=84216
type=note_on channel=6 note=33 velocity=80 time=24 actual_time=84240
type=note_on channel=6 note=33 velocity=0 time=96 actual_time=84336
type=note_on channel=6 note=33 velocity=80 time=24 actual_time=84360
type=note_on channel=6 note=33 velocity=0 time=96 actual_time=84456
type=note_on channel=6 note=35 velocity=80 time=24 actual_time=84480
type=note_on channel=6 note=35 velocity=0 time=96 actual_time=84576
type=note_on channel=6 note=35 velocity=80 time=24 actual_time=84600
type=note_on channel=6 note=35 velocity=0 time=96 actual_time=84696
type=note_on channel=6 note=35 velocity=80 time=24 actual_time=84720
type=note_on channel=6 note=35 velocity=0 time=96 actual_time=84816
type=note_on channel=6 note=35 velocity=80 time=24 actual_time=84840
type=note_on channel=6 note=35 velocity=0 time=96 actual_time=84936
type=note_on channel=6 note=35 velocity=80 time=24 actual_time=84960
type=note_on channel=6 note=35 velocity=0 time=96 actual_time=85056
type=note_on channel=6 note=35 velocity=80 time=24 actual_time=85080
type=note_on channel=6 note=35 velocity=0 time=96 actual_time=85176
type=note_on channel=6 note=35 velocity=80 time=24 actual_time=85200
type=note_on channel=6 note=35 velocity=0 time=96 actual_time=85296
type=note_on channel=6 note=35 velocity=80 time=24 actual_time=85320
type=note_on channel=6 note=35 velocity=0 time=96 actual_time=85416
type=note_on channel=6 note=31 velocity=80 time=24 actual_time=85440
type=note_on channel=6 note=31 velocity=0 time=96 actual_time=85536
type=note_on channel=6 note=31 velocity=80 time=24 actual_time=85560
type=note_on channel=6 note=31 velocity=0 time=96 actual_time=85656
type=note_on channel=6 note=31 velocity=80 time=24 actual_time=85680
type=note_on channel=6 note=31 velocity=0 time=96 actual_time=85776
type=note_on channel=6 note=31 velocity=80 time=24 actual_time=85800
type=note_on channel=6 note=31 velocity=0 time=96 actual_time=85896
type=note_on channel=6 note=33 velocity=80 time=24 actual_time=85920
type=note_on channel=6 note=33 velocity=0 time=96 actual_time=86016
type=note_on channel=6 note=33 velocity=80 time=24 actual_time=86040
type=note_on channel=6 note=33 velocity=0 time=96 actual_time=86136
type=note_on channel=6 note=33 velocity=80 time=24 actual_time=86160
type=note_on channel=6 note=33 velocity=0 time=96 actual_time=86256
type=note_on channel=6 note=33 velocity=80 time=24 actual_time=86280
type=note_on channel=6 note=33 velocity=0 time=96 actual_time=86376
type=note_on channel=6 note=35 velocity=80 time=24 actual_time=86400
type=note_on channel=6 note=35 velocity=0 time=96 actual_time=86496
type=note_on channel=6 note=35 velocity=80 time=24 actual_time=86520
type=note_on channel=6 note=35 velocity=0 time=96 actual_time=86616
type=note_on channel=6 note=35 velocity=80 time=24 actual_time=86640
type=note_on channel=6 note=35 velocity=0 time=96 actual_time=86736
type=note_on channel=6 note=35 velocity=80 time=24 actual_time=86760
type=note_on channel=6 note=35 velocity=0 time=96 actual_time=86856
type=note_on channel=6 note=35 velocity=80 time=24 actual_time=86880
type=note_on channel=6 note=35 velocity=0 time=96 actual_time=86976
type=note_on channel=6 note=35 velocity=80 time=24 actual_time=87000
type=note_on channel=6 note=35 velocity=0 time=96 actual_time=87096
type=note_on channel=6 note=35 velocity=80 time=24 actual_time=87120
type=note_on channel=6 note=35 velocity=0 time=96 actual_time=87216
type=note_on channel=6 note=35 velocity=80 time=24 actual_time=87240
type=note_on channel=6 note=35 velocity=0 time=96 actual_time=87336
type=note_on channel=6 note=31 velocity=80 time=24 actual_time=87360
type=note_on channel=6 note=31 velocity=0 time=96 actual_time=87456
type=note_on channel=6 note=31 velocity=80 time=24 actual_time=87480
type=note_on channel=6 note=31 velocity=0 time=96 actual_time=87576
type=note_on channel=6 note=31 velocity=80 time=24 actual_time=87600
type=note_on channel=6 note=31 velocity=0 time=96 actual_time=87696
type=note_on channel=6 note=31 velocity=80 time=24 actual_time=87720
type=note_on channel=6 note=31 velocity=0 time=96 actual_time=87816
type=note_on channel=6 note=33 velocity=80 time=24 actual_time=87840
type=note_on channel=6 note=33 velocity=0 time=96 actual_time=87936
type=note_on channel=6 note=33 velocity=80 time=24 actual_time=87960
type=note_on channel=6 note=33 velocity=0 time=96 actual_time=88056
type=note_on channel=6 note=33 velocity=80 time=24 actual_time=88080
type=note_on channel=6 note=33 velocity=0 time=96 actual_time=88176
type=note_on channel=6 note=33 velocity=80 time=24 actual_time=88200
type=note_on channel=6 note=33 velocity=0 time=96 actual_time=88296
type=note_on channel=6 note=35 velocity=80 time=24 actual_time=88320
type=note_on channel=6 note=35 velocity=0 time=3648 actual_time=91968
MetaMessage type: end_of_track, time: 0, actual_time: 91968
type=control_change channel=9 control=7 value=87 time=0 actual_time=0
type=note_on channel=9 note=40 velocity=80 time=3960 actual_time=3960
type=note_on channel=9 note=40 velocity=0 time=96 actual_time=4056
type=note_on channel=9 note=31 velocity=80 time=24 actual_time=4080
type=note_on channel=9 note=31 velocity=0 time=32 actual_time=4112
type=note_on channel=9 note=31 velocity=80 time=8 actual_time=4120
type=note_on channel=9 note=31 velocity=0 time=32 actual_time=4152
type=note_on channel=9 note=31 velocity=80 time=8 actual_time=4160
type=note_on channel=9 note=31 velocity=0 time=32 actual_time=4192
type=note_on channel=9 note=40 velocity=80 time=8 actual_time=4200
type=note_on channel=9 note=40 velocity=0 time=96 actual_time=4296
type=note_on channel=9 note=31 velocity=80 time=24 actual_time=4320
type=note_on channel=9 note=31 velocity=0 time=96 actual_time=4416
type=note_on channel=9 note=40 velocity=80 time=24 actual_time=4440
type=note_on channel=9 note=40 velocity=0 time=96 actual_time=4536
type=note_on channel=9 note=31 velocity=80 time=24 actual_time=4560
type=note_on channel=9 note=31 velocity=0 time=32 actual_time=4592
type=note_on channel=9 note=31 velocity=80 time=8 actual_time=4600
type=note_on channel=9 note=31 velocity=0 time=32 actual_time=4632
type=note_on channel=9 note=31 velocity=80 time=8 actual_time=4640
type=note_on channel=9 note=31 velocity=0 time=32 actual_time=4672
type=note_on channel=9 note=40 velocity=80 time=8 actual_time=4680
type=note_on channel=9 note=40 velocity=0 time=96 actual_time=4776
type=note_on channel=9 note=31 velocity=80 time=24 actual_time=4800
type=note_on channel=9 note=31 velocity=0 time=96 actual_time=4896
type=note_on channel=9 note=40 velocity=80 time=24 actual_time=4920
type=note_on channel=9 note=40 velocity=0 time=96 actual_time=5016
type=note_on channel=9 note=31 velocity=80 time=24 actual_time=5040
type=note_on channel=9 note=31 velocity=0 time=32 actual_time=5072
type=note_on channel=9 note=31 velocity=80 time=8 actual_time=5080
type=note_on channel=9 note=31 velocity=0 time=32 actual_time=5112
type=note_on channel=9 note=31 velocity=80 time=8 actual_time=5120
type=note_on channel=9 note=31 velocity=0 time=32 actual_time=5152
type=note_on channel=9 note=40 velocity=80 time=8 actual_time=5160
type=note_on channel=9 note=40 velocity=0 time=96 actual_time=5256
type=note_on channel=9 note=31 velocity=80 time=24 actual_time=5280
type=note_on channel=9 note=31 velocity=0 time=96 actual_time=5376
type=note_on channel=9 note=40 velocity=80 time=24 actual_time=5400
type=note_on channel=9 note=40 velocity=0 time=96 actual_time=5496
type=note_on channel=9 note=31 velocity=80 time=24 actual_time=5520
type=note_on channel=9 note=31 velocity=0 time=32 actual_time=5552
type=note_on channel=9 note=31 velocity=80 time=8 actual_time=5560
type=note_on channel=9 note=31 velocity=0 time=32 actual_time=5592
type=note_on channel=9 note=31 velocity=80 time=8 actual_time=5600
type=note_on channel=9 note=31 velocity=0 time=32 actual_time=5632
type=note_on channel=9 note=40 velocity=80 time=8 actual_time=5640
type=note_on channel=9 note=40 velocity=0 time=96 actual_time=5736
type=note_on channel=9 note=31 velocity=80 time=24 actual_time=5760
type=note_on channel=9 note=31 velocity=0 time=96 actual_time=5856
type=note_on channel=9 note=40 velocity=80 time=24 actual_time=5880
type=note_on channel=9 note=40 velocity=0 time=96 actual_time=5976
type=note_on channel=9 note=31 velocity=80 time=24 actual_time=6000
type=note_on channel=9 note=31 velocity=0 time=32 actual_time=6032
type=note_on channel=9 note=31 velocity=80 time=8 actual_time=6040
type=note_on channel=9 note=31 velocity=0 time=32 actual_time=6072
type=note_on channel=9 note=31 velocity=80 time=8 actual_time=6080
type=note_on channel=9 note=31 velocity=0 time=32 actual_time=6112
type=note_on channel=9 note=40 velocity=80 time=8 actual_time=6120
type=note_on channel=9 note=40 velocity=0 time=96 actual_time=6216
type=note_on channel=9 note=31 velocity=80 time=24 actual_time=6240
type=note_on channel=9 note=31 velocity=0 time=96 actual_time=6336
type=note_on channel=9 note=40 velocity=80 time=24 actual_time=6360
type=note_on channel=9 note=40 velocity=0 time=96 actual_time=6456
type=note_on channel=9 note=31 velocity=80 time=24 actual_time=6480
type=note_on channel=9 note=31 velocity=0 time=32 actual_time=6512
type=note_on channel=9 note=31 velocity=80 time=8 actual_time=6520
type=note_on channel=9 note=31 velocity=0 time=32 actual_time=6552
type=note_on channel=9 note=31 velocity=80 time=8 actual_time=6560
type=note_on channel=9 note=31 velocity=0 time=32 actual_time=6592
type=note_on channel=9 note=40 velocity=80 time=8 actual_time=6600
type=note_on channel=9 note=40 velocity=0 time=96 actual_time=6696
type=note_on channel=9 note=31 velocity=80 time=24 actual_time=6720
type=note_on channel=9 note=31 velocity=0 time=96 actual_time=6816
type=note_on channel=9 note=40 velocity=80 time=24 actual_time=6840
type=note_on channel=9 note=40 velocity=0 time=96 actual_time=6936
type=note_on channel=9 note=31 velocity=80 time=24 actual_time=6960
type=note_on channel=9 note=31 velocity=0 time=32 actual_time=6992
type=note_on channel=9 note=31 velocity=80 time=8 actual_time=7000
type=note_on channel=9 note=31 velocity=0 time=32 actual_time=7032
type=note_on channel=9 note=31 velocity=80 time=8 actual_time=7040
type=note_on channel=9 note=31 velocity=0 time=32 actual_time=7072
type=note_on channel=9 note=40 velocity=80 time=8 actual_time=7080
type=note_on channel=9 note=40 velocity=0 time=96 actual_time=7176
type=note_on channel=9 note=31 velocity=80 time=24 actual_time=7200
type=note_on channel=9 note=31 velocity=0 time=96 actual_time=7296
type=note_on channel=9 note=40 velocity=80 time=24 actual_time=7320
type=note_on channel=9 note=40 velocity=0 time=96 actual_time=7416
type=note_on channel=9 note=31 velocity=80 time=24 actual_time=7440
type=note_on channel=9 note=31 velocity=0 time=32 actual_time=7472
type=note_on channel=9 note=31 velocity=80 time=8 actual_time=7480
type=note_on channel=9 note=31 velocity=0 time=32 actual_time=7512
type=note_on channel=9 note=31 velocity=80 time=8 actual_time=7520
type=note_on channel=9 note=31 velocity=0 time=32 actual_time=7552
type=note_on channel=9 note=40 velocity=80 time=8 actual_time=7560
type=note_on channel=9 note=40 velocity=0 time=96 actual_time=7656
type=note_on channel=9 note=31 velocity=80 time=24 actual_time=7680
type=note_on channel=9 note=31 velocity=0 time=96 actual_time=7776
type=note_on channel=9 note=40 velocity=80 time=24 actual_time=7800
type=note_on channel=9 note=40 velocity=0 time=96 actual_time=7896
type=note_on channel=9 note=31 velocity=80 time=24 actual_time=7920
type=note_on channel=9 note=31 velocity=0 time=32 actual_time=7952
type=note_on channel=9 note=31 velocity=80 time=8 actual_time=7960
type=note_on channel=9 note=31 velocity=0 time=32 actual_time=7992
type=note_on channel=9 note=31 velocity=80 time=8 actual_time=8000
type=note_on channel=9 note=31 velocity=0 time=32 actual_time=8032
type=note_on channel=9 note=40 velocity=80 time=8 actual_time=8040
type=note_on channel=9 note=40 velocity=0 time=96 actual_time=8136
type=note_on channel=9 note=31 velocity=80 time=24 actual_time=8160
type=note_on channel=9 note=31 velocity=0 time=96 actual_time=8256
type=note_on channel=9 note=40 velocity=80 time=24 actual_time=8280
type=note_on channel=9 note=40 velocity=0 time=96 actual_time=8376
type=note_on channel=9 note=31 velocity=80 time=24 actual_time=8400
type=note_on channel=9 note=31 velocity=0 time=32 actual_time=8432
type=note_on channel=9 note=31 velocity=80 time=8 actual_time=8440
type=note_on channel=9 note=31 velocity=0 time=32 actual_time=8472
type=note_on channel=9 note=31 velocity=80 time=8 actual_time=8480
type=note_on channel=9 note=31 velocity=0 time=32 actual_time=8512
type=note_on channel=9 note=40 velocity=80 time=8 actual_time=8520
type=note_on channel=9 note=40 velocity=0 time=96 actual_time=8616
type=note_on channel=9 note=31 velocity=80 time=24 actual_time=8640
type=note_on channel=9 note=31 velocity=0 time=96 actual_time=8736
type=note_on channel=9 note=40 velocity=80 time=24 actual_time=8760
type=note_on channel=9 note=40 velocity=0 time=96 actual_time=8856
type=note_on channel=9 note=31 velocity=80 time=24 actual_time=8880
type=note_on channel=9 note=31 velocity=0 time=32 actual_time=8912
type=note_on channel=9 note=31 velocity=80 time=8 actual_time=8920
type=note_on channel=9 note=31 velocity=0 time=32 actual_time=8952
type=note_on channel=9 note=31 velocity=80 time=8 actual_time=8960
type=note_on channel=9 note=31 velocity=0 time=32 actual_time=8992
type=note_on channel=9 note=40 velocity=80 time=8 actual_time=9000
type=note_on channel=9 note=40 velocity=0 time=96 actual_time=9096
type=note_on channel=9 note=31 velocity=80 time=24 actual_time=9120
type=note_on channel=9 note=31 velocity=0 time=96 actual_time=9216
type=note_on channel=9 note=40 velocity=80 time=24 actual_time=9240
type=note_on channel=9 note=40 velocity=0 time=96 actual_time=9336
type=note_on channel=9 note=31 velocity=80 time=24 actual_time=9360
type=note_on channel=9 note=31 velocity=0 time=32 actual_time=9392
type=note_on channel=9 note=31 velocity=80 time=8 actual_time=9400
type=note_on channel=9 note=31 velocity=0 time=32 actual_time=9432
type=note_on channel=9 note=31 velocity=80 time=8 actual_time=9440
type=note_on channel=9 note=31 velocity=0 time=32 actual_time=9472
type=note_on channel=9 note=40 velocity=80 time=8 actual_time=9480
type=note_on channel=9 note=40 velocity=0 time=96 actual_time=9576
type=note_on channel=9 note=31 velocity=80 time=24 actual_time=9600
type=note_on channel=9 note=31 velocity=0 time=96 actual_time=9696
type=note_on channel=9 note=40 velocity=80 time=24 actual_time=9720
type=note_on channel=9 note=40 velocity=0 time=96 actual_time=9816
type=note_on channel=9 note=31 velocity=80 time=24 actual_time=9840
type=note_on channel=9 note=31 velocity=0 time=32 actual_time=9872
type=note_on channel=9 note=31 velocity=80 time=8 actual_time=9880
type=note_on channel=9 note=31 velocity=0 time=32 actual_time=9912
type=note_on channel=9 note=31 velocity=80 time=8 actual_time=9920
type=note_on channel=9 note=31 velocity=0 time=32 actual_time=9952
type=note_on channel=9 note=40 velocity=80 time=8 actual_time=9960
type=note_on channel=9 note=40 velocity=0 time=96 actual_time=10056
type=note_on channel=9 note=31 velocity=80 time=24 actual_time=10080
type=note_on channel=9 note=31 velocity=0 time=96 actual_time=10176
type=note_on channel=9 note=40 velocity=80 time=24 actual_time=10200
type=note_on channel=9 note=40 velocity=0 time=96 actual_time=10296
type=note_on channel=9 note=31 velocity=80 time=24 actual_time=10320
type=note_on channel=9 note=31 velocity=0 time=32 actual_time=10352
type=note_on channel=9 note=31 velocity=80 time=8 actual_time=10360
type=note_on channel=9 note=31 velocity=0 time=32 actual_time=10392
type=note_on channel=9 note=31 velocity=80 time=8 actual_time=10400
type=note_on channel=9 note=31 velocity=0 time=32 actual_time=10432
type=note_on channel=9 note=40 velocity=80 time=8 actual_time=10440
type=note_on channel=9 note=40 velocity=0 time=96 actual_time=10536
type=note_on channel=9 note=31 velocity=80 time=24 actual_time=10560
type=note_on channel=9 note=31 velocity=0 time=96 actual_time=10656
type=note_on channel=9 note=40 velocity=80 time=24 actual_time=10680
type=note_on channel=9 note=40 velocity=0 time=96 actual_time=10776
type=note_on channel=9 note=31 velocity=80 time=24 actual_time=10800
type=note_on channel=9 note=31 velocity=0 time=32 actual_time=10832
type=note_on channel=9 note=31 velocity=80 time=8 actual_time=10840
type=note_on channel=9 note=31 velocity=0 time=32 actual_time=10872
type=note_on channel=9 note=31 velocity=80 time=8 actual_time=10880
type=note_on channel=9 note=31 velocity=0 time=32 actual_time=10912
type=note_on channel=9 note=40 velocity=80 time=8 actual_time=10920
type=note_on channel=9 note=40 velocity=0 time=96 actual_time=11016
type=note_on channel=9 note=31 velocity=80 time=24 actual_time=11040
type=note_on channel=9 note=31 velocity=0 time=96 actual_time=11136
type=note_on channel=9 note=40 velocity=80 time=24 actual_time=11160
type=note_on channel=9 note=40 velocity=0 time=96 actual_time=11256
type=note_on channel=9 note=31 velocity=80 time=24 actual_time=11280
type=note_on channel=9 note=31 velocity=0 time=32 actual_time=11312
type=note_on channel=9 note=31 velocity=80 time=8 actual_time=11320
type=note_on channel=9 note=31 velocity=0 time=32 actual_time=11352
type=note_on channel=9 note=31 velocity=80 time=8 actual_time=11360
type=note_on channel=9 note=31 velocity=0 time=32 actual_time=11392
type=note_on channel=9 note=40 velocity=80 time=8 actual_time=11400
type=note_on channel=9 note=40 velocity=0 time=96 actual_time=11496
type=note_on channel=9 note=31 velocity=80 time=24 actual_time=11520
type=note_on channel=9 note=31 velocity=0 time=96 actual_time=11616
type=note_on channel=9 note=40 velocity=80 time=24 actual_time=11640
type=note_on channel=9 note=40 velocity=0 time=96 actual_time=11736
type=note_on channel=9 note=31 velocity=80 time=24 actual_time=11760
type=note_on channel=9 note=31 velocity=0 time=32 actual_time=11792
type=note_on channel=9 note=31 velocity=80 time=8 actual_time=11800
type=note_on channel=9 note=31 velocity=0 time=32 actual_time=11832
type=note_on channel=9 note=31 velocity=80 time=8 actual_time=11840
type=note_on channel=9 note=31 velocity=0 time=32 actual_time=11872
type=note_on channel=9 note=40 velocity=80 time=8 actual_time=11880
type=note_on channel=9 note=40 velocity=0 time=96 actual_time=11976
type=note_on channel=9 note=31 velocity=80 time=24 actual_time=12000
type=note_on channel=9 note=31 velocity=0 time=96 actual_time=12096
type=note_on channel=9 note=40 velocity=80 time=24 actual_time=12120
type=note_on channel=9 note=40 velocity=0 time=96 actual_time=12216
type=note_on channel=9 note=31 velocity=80 time=24 actual_time=12240
type=note_on channel=9 note=31 velocity=0 time=32 actual_time=12272
type=note_on channel=9 note=31 velocity=80 time=8 actual_time=12280
type=note_on channel=9 note=31 velocity=0 time=32 actual_time=12312
type=note_on channel=9 note=31 velocity=80 time=8 actual_time=12320
type=note_on channel=9 note=31 velocity=0 time=32 actual_time=12352
type=note_on channel=9 note=40 velocity=80 time=8 actual_time=12360
type=note_on channel=9 note=40 velocity=0 time=96 actual_time=12456
type=note_on channel=9 note=31 velocity=80 time=24 actual_time=12480
type=note_on channel=9 note=31 velocity=0 time=96 actual_time=12576
type=note_on channel=9 note=40 velocity=80 time=24 actual_time=12600
type=note_on channel=9 note=40 velocity=0 time=96 actual_time=12696
type=note_on channel=9 note=31 velocity=80 time=24 actual_time=12720
type=note_on channel=9 note=31 velocity=0 time=32 actual_time=12752
type=note_on channel=9 note=31 velocity=80 time=8 actual_time=12760
type=note_on channel=9 note=31 velocity=0 time=32 actual_time=12792
type=note_on channel=9 note=31 velocity=80 time=8 actual_time=12800
type=note_on channel=9 note=31 velocity=0 time=32 actual_time=12832
type=note_on channel=9 note=40 velocity=80 time=8 actual_time=12840
type=note_on channel=9 note=40 velocity=0 time=96 actual_time=12936
type=note_on channel=9 note=31 velocity=80 time=24 actual_time=12960
type=note_on channel=9 note=31 velocity=0 time=96 actual_time=13056
type=note_on channel=9 note=40 velocity=80 time=24 actual_time=13080
type=note_on channel=9 note=40 velocity=0 time=96 actual_time=13176
type=note_on channel=9 note=31 velocity=80 time=24 actual_time=13200
type=note_on channel=9 note=31 velocity=0 time=32 actual_time=13232
type=note_on channel=9 note=31 velocity=80 time=8 actual_time=13240
type=note_on channel=9 note=31 velocity=0 time=32 actual_time=13272
type=note_on channel=9 note=31 velocity=80 time=8 actual_time=13280
type=note_on channel=9 note=31 velocity=0 time=32 actual_time=13312
type=note_on channel=9 note=40 velocity=80 time=8 actual_time=13320
type=note_on channel=9 note=40 velocity=0 time=96 actual_time=13416
type=note_on channel=9 note=31 velocity=80 time=24 actual_time=13440
type=note_on channel=9 note=31 velocity=0 time=96 actual_time=13536
type=note_on channel=9 note=40 velocity=80 time=24 actual_time=13560
type=note_on channel=9 note=40 velocity=0 time=96 actual_time=13656
type=note_on channel=9 note=31 velocity=80 time=24 actual_time=13680
type=note_on channel=9 note=31 velocity=0 time=32 actual_time=13712
type=note_on channel=9 note=31 velocity=80 time=8 actual_time=13720
type=note_on channel=9 note=31 velocity=0 time=32 actual_time=13752
type=note_on channel=9 note=31 velocity=80 time=8 actual_time=13760
type=note_on channel=9 note=31 velocity=0 time=32 actual_time=13792
type=note_on channel=9 note=40 velocity=80 time=8 actual_time=13800
type=note_on channel=9 note=40 velocity=0 time=96 actual_time=13896
type=note_on channel=9 note=31 velocity=80 time=24 actual_time=13920
type=note_on channel=9 note=31 velocity=0 time=96 actual_time=14016
type=note_on channel=9 note=40 velocity=80 time=24 actual_time=14040
type=note_on channel=9 note=40 velocity=0 time=96 actual_time=14136
type=note_on channel=9 note=31 velocity=80 time=24 actual_time=14160
type=note_on channel=9 note=31 velocity=0 time=32 actual_time=14192
type=note_on channel=9 note=31 velocity=80 time=8 actual_time=14200
type=note_on channel=9 note=31 velocity=0 time=32 actual_time=14232
type=note_on channel=9 note=31 velocity=80 time=8 actual_time=14240
type=note_on channel=9 note=31 velocity=0 time=32 actual_time=14272
type=note_on channel=9 note=40 velocity=80 time=8 actual_time=14280
type=note_on channel=9 note=40 velocity=0 time=96 actual_time=14376
type=note_on channel=9 note=31 velocity=80 time=24 actual_time=14400
type=note_on channel=9 note=31 velocity=0 time=96 actual_time=14496
type=note_on channel=9 note=40 velocity=80 time=24 actual_time=14520
type=note_on channel=9 note=40 velocity=0 time=96 actual_time=14616
type=note_on channel=9 note=31 velocity=80 time=24 actual_time=14640
type=note_on channel=9 note=31 velocity=0 time=32 actual_time=14672
type=note_on channel=9 note=31 velocity=80 time=8 actual_time=14680
type=note_on channel=9 note=31 velocity=0 time=32 actual_time=14712
type=note_on channel=9 note=31 velocity=80 time=8 actual_time=14720
type=note_on channel=9 note=31 velocity=0 time=32 actual_time=14752
type=note_on channel=9 note=40 velocity=80 time=8 actual_time=14760
type=note_on channel=9 note=40 velocity=0 time=96 actual_time=14856
type=note_on channel=9 note=31 velocity=80 time=24 actual_time=14880
type=note_on channel=9 note=31 velocity=80 time=0 actual_time=14880
type=note_on channel=9 note=31 velocity=0 time=32 actual_time=14912
type=note_on channel=9 note=31 velocity=0 time=0 actual_time=14912
type=note_on channel=9 note=31 velocity=80 time=8 actual_time=14920
type=note_on channel=9 note=31 velocity=0 time=32 actual_time=14952
type=note_on channel=9 note=31 velocity=80 time=8 actual_time=14960
type=note_on channel=9 note=31 velocity=0 time=32 actual_time=14992
type=note_on channel=9 note=31 velocity=80 time=8 actual_time=15000
type=note_on channel=9 note=31 velocity=80 time=0 actual_time=15000
type=note_on channel=9 note=31 velocity=0 time=32 actual_time=15032
type=note_on channel=9 note=31 velocity=0 time=0 actual_time=15032
type=note_on channel=9 note=31 velocity=80 time=8 actual_time=15040
type=note_on channel=9 note=31 velocity=0 time=32 actual_time=15072
type=note_on channel=9 note=31 velocity=80 time=8 actual_time=15080
type=note_on channel=9 note=31 velocity=0 time=32 actual_time=15112
type=note_on channel=9 note=47 velocity=80 time=8 actual_time=15120
type=note_on channel=9 note=47 velocity=0 time=32 actual_time=15152
type=note_on channel=9 note=45 velocity=80 time=8 actual_time=15160
type=note_on channel=9 note=45 velocity=0 time=32 actual_time=15192
type=note_on channel=9 note=43 velocity=80 time=8 actual_time=15200
type=note_on channel=9 note=43 velocity=0 time=32 actual_time=15232
type=note_on channel=9 note=47 velocity=80 time=8 actual_time=15240
type=note_on channel=9 note=47 velocity=0 time=32 actual_time=15272
type=note_on channel=9 note=45 velocity=80 time=8 actual_time=15280
type=note_on channel=9 note=45 velocity=0 time=32 actual_time=15312
type=note_on channel=9 note=43 velocity=80 time=8 actual_time=15320
type=note_on channel=9 note=43 velocity=0 time=32 actual_time=15352
type=note_on channel=9 note=53 velocity=80 time=8 actual_time=15360
type=note_on channel=9 note=35 velocity=80 time=0 actual_time=15360
type=note_on channel=9 note=49 velocity=80 time=0 actual_time=15360
type=note_on channel=9 note=49 velocity=0 time=96 actual_time=15456
type=note_on channel=9 note=35 velocity=0 time=0 actual_time=15456
type=note_on channel=9 note=53 velocity=0 time=0 actual_time=15456
type=note_on channel=9 note=53 velocity=80 time=24 actual_time=15480
type=note_on channel=9 note=40 velocity=80 time=0 actual_time=15480
type=note_on channel=9 note=40 velocity=0 time=96 actual_time=15576
type=note_on channel=9 note=53 velocity=0 time=0 actual_time=15576
type=note_on channel=9 note=53 velocity=80 time=24 actual_time=15600
type=note_on channel=9 note=53 velocity=0 time=64 actual_time=15664
type=note_on channel=9 note=35 velocity=80 time=16 actual_time=15680
type=note_on channel=9 note=35 velocity=0 time=32 actual_time=15712
type=note_on channel=9 note=40 velocity=80 time=8 actual_time=15720
type=note_on channel=9 note=53 velocity=80 time=0 actual_time=15720
type=note_on channel=9 note=53 velocity=0 time=96 actual_time=15816
type=note_on channel=9 note=40 velocity=0 time=0 actual_time=15816
type=note_on channel=9 note=53 velocity=80 time=24 actual_time=15840
type=note_on channel=9 note=35 velocity=80 time=0 actual_time=15840
type=note_on channel=9 note=35 velocity=0 time=96 actual_time=15936
type=note_on channel=9 note=53 velocity=0 time=0 actual_time=15936
type=note_on channel=9 note=40 velocity=80 time=24 actual_time=15960
type=note_on channel=9 note=53 velocity=80 time=0 actual_time=15960
type=note_on channel=9 note=53 velocity=0 time=96 actual_time=16056
type=note_on channel=9 note=40 velocity=0 time=0 actual_time=16056
type=note_on channel=9 note=53 velocity=80 time=24 actual_time=16080
type=note_on channel=9 note=53 velocity=0 time=64 actual_time=16144
type=note_on channel=9 note=35 velocity=80 time=16 actual_time=16160
type=note_on channel=9 note=35 velocity=0 time=32 actual_time=16192
type=note_on channel=9 note=53 velocity=80 time=8 actual_time=16200
type=note_on channel=9 note=40 velocity=80 time=0 actual_time=16200
type=note_on channel=9 note=40 velocity=0 time=96 actual_time=16296
type=note_on channel=9 note=53 velocity=0 time=0 actual_time=16296
type=note_on channel=9 note=35 velocity=80 time=24 actual_time=16320
type=note_on channel=9 note=53 velocity=80 time=0 actual_time=16320
type=note_on channel=9 note=53 velocity=0 time=96 actual_time=16416
type=note_on channel=9 note=35 velocity=0 time=0 actual_time=16416
type=note_on channel=9 note=40 velocity=80 time=24 actual_time=16440
type=note_on channel=9 note=53 velocity=80 time=0 actual_time=16440
type=note_on channel=9 note=53 velocity=0 time=96 actual_time=16536
type=note_on channel=9 note=40 velocity=0 time=0 actual_time=16536
type=note_on channel=9 note=53 velocity=80 time=24 actual_time=16560
type=note_on channel=9 note=53 velocity=0 time=64 actual_time=16624
type=note_on channel=9 note=35 velocity=80 time=16 actual_time=16640
type=note_on channel=9 note=35 velocity=0 time=32 actual_time=16672
type=note_on channel=9 note=53 velocity=80 time=8 actual_time=16680
type=note_on channel=9 note=40 velocity=80 time=0 actual_time=16680
type=note_on channel=9 note=40 velocity=0 time=96 actual_time=16776
type=note_on channel=9 note=53 velocity=0 time=0 actual_time=16776
type=note_on channel=9 note=53 velocity=80 time=24 actual_time=16800
type=note_on channel=9 note=35 velocity=80 time=0 actual_time=16800
type=note_on channel=9 note=35 velocity=0 time=96 actual_time=16896
type=note_on channel=9 note=53 velocity=0 time=0 actual_time=16896
type=note_on channel=9 note=40 velocity=80 time=24 actual_time=16920
type=note_on channel=9 note=53 velocity=80 time=0 actual_time=16920
type=note_on channel=9 note=53 velocity=0 time=96 actual_time=17016
type=note_on channel=9 note=40 velocity=0 time=0 actual_time=17016
type=note_on channel=9 note=53 velocity=80 time=24 actual_time=17040
type=note_on channel=9 note=53 velocity=0 time=64 actual_time=17104
type=note_on channel=9 note=35 velocity=80 time=16 actual_time=17120
type=note_on channel=9 note=35 velocity=0 time=32 actual_time=17152
type=note_on channel=9 note=40 velocity=80 time=8 actual_time=17160
type=note_on channel=9 note=53 velocity=80 time=0 actual_time=17160
type=note_on channel=9 note=53 velocity=0 time=96 actual_time=17256
type=note_on channel=9 note=40 velocity=0 time=0 actual_time=17256
type=note_on channel=9 note=53 velocity=80 time=24 actual_time=17280
type=note_on channel=9 note=35 velocity=80 time=0 actual_time=17280
type=note_on channel=9 note=35 velocity=0 time=96 actual_time=17376
type=note_on channel=9 note=53 velocity=0 time=0 actual_time=17376
type=note_on channel=9 note=53 velocity=80 time=24 actual_time=17400
type=note_on channel=9 note=40 velocity=80 time=0 actual_time=17400
type=note_on channel=9 note=40 velocity=0 time=96 actual_time=17496
type=note_on channel=9 note=53 velocity=0 time=0 actual_time=17496
type=note_on channel=9 note=53 velocity=80 time=24 actual_time=17520
type=note_on channel=9 note=53 velocity=0 time=64 actual_time=17584
type=note_on channel=9 note=35 velocity=80 time=16 actual_time=17600
type=note_on channel=9 note=35 velocity=0 time=32 actual_time=17632
type=note_on channel=9 note=40 velocity=80 time=8 actual_time=17640
type=note_on channel=9 note=53 velocity=80 time=0 actual_time=17640
type=note_on channel=9 note=53 velocity=0 time=96 actual_time=17736
type=note_on channel=9 note=40 velocity=0 time=0 actual_time=17736
type=note_on channel=9 note=35 velocity=80 time=24 actual_time=17760
type=note_on channel=9 note=53 velocity=80 time=0 actual_time=17760
type=note_on channel=9 note=53 velocity=0 time=96 actual_time=17856
type=note_on channel=9 note=35 velocity=0 time=0 actual_time=17856
type=note_on channel=9 note=40 velocity=80 time=24 actual_time=17880
type=note_on channel=9 note=53 velocity=80 time=0 actual_time=17880
type=note_on channel=9 note=53 velocity=0 time=96 actual_time=17976
type=note_on channel=9 note=40 velocity=0 time=0 actual_time=17976
type=note_on channel=9 note=53 velocity=80 time=24 actual_time=18000
type=note_on channel=9 note=53 velocity=0 time=64 actual_time=18064
type=note_on channel=9 note=35 velocity=80 time=16 actual_time=18080
type=note_on channel=9 note=35 velocity=0 time=32 actual_time=18112
type=note_on channel=9 note=53 velocity=80 time=8 actual_time=18120
type=note_on channel=9 note=40 velocity=80 time=0 actual_time=18120
type=note_on channel=9 note=40 velocity=0 time=96 actual_time=18216
type=note_on channel=9 note=53 velocity=0 time=0 actual_time=18216
type=note_on channel=9 note=35 velocity=80 time=24 actual_time=18240
type=note_on channel=9 note=53 velocity=80 time=0 actual_time=18240
type=note_on channel=9 note=53 velocity=0 time=96 actual_time=18336
type=note_on channel=9 note=35 velocity=0 time=0 actual_time=18336
type=note_on channel=9 note=40 velocity=80 time=24 actual_time=18360
type=note_on channel=9 note=53 velocity=80 time=0 actual_time=18360
type=note_on channel=9 note=53 velocity=0 time=96 actual_time=18456
type=note_on channel=9 note=40 velocity=0 time=0 actual_time=18456
type=note_on channel=9 note=53 velocity=80 time=24 actual_time=18480
type=note_on channel=9 note=53 velocity=0 time=64 actual_time=18544
type=note_on channel=9 note=35 velocity=80 time=16 actual_time=18560
type=note_on channel=9 note=35 velocity=0 time=32 actual_time=18592
type=note_on channel=9 note=53 velocity=80 time=8 actual_time=18600
type=note_on channel=9 note=40 velocity=80 time=0 actual_time=18600
type=note_on channel=9 note=40 velocity=0 time=96 actual_time=18696
type=note_on channel=9 note=53 velocity=0 time=0 actual_time=18696
type=note_on channel=9 note=35 velocity=80 time=24 actual_time=18720
type=note_on channel=9 note=53 velocity=80 time=0 actual_time=18720
type=note_on channel=9 note=53 velocity=0 time=96 actual_time=18816
type=note_on channel=9 note=35 velocity=0 time=0 actual_time=18816
type=note_on channel=9 note=40 velocity=80 time=24 actual_time=18840
type=note_on channel=9 note=53 velocity=80 time=0 actual_time=18840
type=note_on channel=9 note=53 velocity=0 time=96 actual_time=18936
type=note_on channel=9 note=40 velocity=0 time=0 actual_time=18936
type=note_on channel=9 note=40 velocity=80 time=24 actual_time=18960
type=note_on channel=9 note=47 velocity=80 time=0 actual_time=18960
type=note_on channel=9 note=47 velocity=0 time=32 actual_time=18992
type=note_on channel=9 note=40 velocity=0 time=0 actual_time=18992
type=note_on channel=9 note=45 velocity=80 time=8 actual_time=19000
type=note_on channel=9 note=45 velocity=0 time=32 actual_time=19032
type=note_on channel=9 note=43 velocity=80 time=8 actual_time=19040
type=note_on channel=9 note=43 velocity=0 time=32 actual_time=19072
type=note_on channel=9 note=41 velocity=80 time=8 actual_time=19080
type=note_on channel=9 note=49 velocity=80 time=120 actual_time=19200
type=note_on channel=9 note=35 velocity=80 time=0 actual_time=19200
type=note_on channel=9 note=53 velocity=80 time=0 actual_time=19200
type=note_on channel=9 note=41 velocity=0 time=72 actual_time=19272
type=note_on channel=9 note=49 velocity=0 time=24 actual_time=19296
type=note_on channel=9 note=35 velocity=0 time=0 actual_time=19296
type=note_on channel=9 note=53 velocity=0 time=0 actual_time=19296
type=note_on channel=9 note=40 velocity=80 time=24 actual_time=19320
type=note_on channel=9 note=53 velocity=80 time=0 actual_time=19320
type=note_on channel=9 note=53 velocity=0 time=96 actual_time=19416
type=note_on channel=9 note=40 velocity=0 time=0 actual_time=19416
type=note_on channel=9 note=53 velocity=80 time=24 actual_time=19440
type=note_on channel=9 note=53 velocity=0 time=64 actual_time=19504
type=note_on channel=9 note=35 velocity=80 time=16 actual_time=19520
type=note_on channel=9 note=35 velocity=0 time=32 actual_time=19552
type=note_on channel=9 note=53 velocity=80 time=8 actual_time=19560
type=note_on channel=9 note=40 velocity=80 time=0 actual_time=19560
type=note_on channel=9 note=40 velocity=0 time=96 actual_time=19656
type=note_on channel=9 note=53 velocity=0 time=0 actual_time=19656
type=note_on channel=9 note=35 velocity=80 time=24 actual_time=19680
type=note_on channel=9 note=53 velocity=80 time=0 actual_time=19680
type=note_on channel=9 note=53 velocity=0 time=96 actual_time=19776
type=note_on channel=9 note=35 velocity=0 time=0 actual_time=19776
type=note_on channel=9 note=40 velocity=80 time=24 actual_time=19800
type=note_on channel=9 note=53 velocity=80 time=0 actual_time=19800
type=note_on channel=9 note=53 velocity=0 time=96 actual_time=19896
type=note_on channel=9 note=40 velocity=0 time=0 actual_time=19896
type=note_on channel=9 note=53 velocity=80 time=24 actual_time=19920
type=note_on channel=9 note=53 velocity=0 time=64 actual_time=19984
type=note_on channel=9 note=35 velocity=80 time=16 actual_time=20000
type=note_on channel=9 note=35 velocity=0 time=32 actual_time=20032
type=note_on channel=9 note=40 velocity=80 time=8 actual_time=20040
type=note_on channel=9 note=53 velocity=80 time=0 actual_time=20040
type=note_on channel=9 note=53 velocity=0 time=96 actual_time=20136
type=note_on channel=9 note=40 velocity=0 time=0 actual_time=20136
type=note_on channel=9 note=53 velocity=80 time=24 actual_time=20160
type=note_on channel=9 note=35 velocity=80 time=0 actual_time=20160
type=note_on channel=9 note=35 velocity=0 time=96 actual_time=20256
type=note_on channel=9 note=53 velocity=0 time=0 actual_time=20256
type=note_on channel=9 note=53 velocity=80 time=24 actual_time=20280
type=note_on channel=9 note=40 velocity=80 time=0 actual_time=20280
type=note_on channel=9 note=40 velocity=0 time=96 actual_time=20376
type=note_on channel=9 note=53 velocity=0 time=0 actual_time=20376
type=note_on channel=9 note=53 velocity=80 time=24 actual_time=20400
type=note_on channel=9 note=53 velocity=0 time=64 actual_time=20464
type=note_on channel=9 note=35 velocity=80 time=16 actual_time=20480
type=note_on channel=9 note=35 velocity=0 time=32 actual_time=20512
type=note_on channel=9 note=40 velocity=80 time=8 actual_time=20520
type=note_on channel=9 note=53 velocity=80 time=0 actual_time=20520
type=note_on channel=9 note=53 velocity=0 time=96 actual_time=20616
type=note_on channel=9 note=40 velocity=0 time=0 actual_time=20616
type=note_on channel=9 note=35 velocity=80 time=24 actual_time=20640
type=note_on channel=9 note=53 velocity=80 time=0 actual_time=20640
type=note_on channel=9 note=53 velocity=0 time=96 actual_time=20736
type=note_on channel=9 note=35 velocity=0 time=0 actual_time=20736
type=note_on channel=9 note=40 velocity=80 time=24 actual_time=20760
type=note_on channel=9 note=53 velocity=80 time=0 actual_time=20760
type=note_on channel=9 note=53 velocity=0 time=96 actual_time=20856
type=note_on channel=9 note=40 velocity=0 time=0 actual_time=20856
type=note_on channel=9 note=53 velocity=80 time=24 actual_time=20880
type=note_on channel=9 note=53 velocity=0 time=64 actual_time=20944
type=note_on channel=9 note=35 velocity=80 time=16 actual_time=20960
type=note_on channel=9 note=35 velocity=0 time=32 actual_time=20992
type=note_on channel=9 note=53 velocity=80 time=8 actual_time=21000
type=note_on channel=9 note=40 velocity=80 time=0 actual_time=21000
type=note_on channel=9 note=40 velocity=0 time=96 actual_time=21096
type=note_on channel=9 note=53 velocity=0 time=0 actual_time=21096
type=note_on channel=9 note=49 velocity=80 time=24 actual_time=21120
type=note_on channel=9 note=35 velocity=80 time=0 actual_time=21120
type=note_on channel=9 note=53 velocity=80 time=0 actual_time=21120
type=note_on channel=9 note=53 velocity=0 time=96 actual_time=21216
type=note_on channel=9 note=35 velocity=0 time=0 actual_time=21216
type=note_on channel=9 note=49 velocity=0 time=0 actual_time=21216
type=note_on channel=9 note=40 velocity=80 time=24 actual_time=21240
type=note_on channel=9 note=53 velocity=80 time=0 actual_time=21240
type=note_on channel=9 note=53 velocity=0 time=96 actual_time=21336
type=note_on channel=9 note=40 velocity=0 time=0 actual_time=21336
type=note_on channel=9 note=53 velocity=80 time=24 actual_time=21360
type=note_on channel=9 note=53 velocity=0 time=64 actual_time=21424
type=note_on channel=9 note=35 velocity=80 time=16 actual_time=21440
type=note_on channel=9 note=35 velocity=0 time=32 actual_time=21472
type=note_on channel=9 note=40 velocity=80 time=8 actual_time=21480
type=note_on channel=9 note=53 velocity=80 time=0 actual_time=21480
type=note_on channel=9 note=53 velocity=0 time=96 actual_time=21576
type=note_on channel=9 note=40 velocity=0 time=0 actual_time=21576
type=note_on channel=9 note=53 velocity=80 time=24 actual_time=21600
type=note_on channel=9 note=35 velocity=80 time=0 actual_time=21600
type=note_on channel=9 note=35 velocity=0 time=96 actual_time=21696
type=note_on channel=9 note=53 velocity=0 time=0 actual_time=21696
type=note_on channel=9 note=40 velocity=80 time=24 actual_time=21720
type=note_on channel=9 note=53 velocity=80 time=0 actual_time=21720
type=note_on channel=9 note=53 velocity=0 time=96 actual_time=21816
type=note_on channel=9 note=40 velocity=0 time=0 actual_time=21816
type=note_on channel=9 note=53 velocity=80 time=24 actual_time=21840
type=note_on channel=9 note=53 velocity=0 time=64 actual_time=21904
type=note_on channel=9 note=35 velocity=80 time=16 actual_time=21920
type=note_on channel=9 note=35 velocity=0 time=32 actual_time=21952
type=note_on channel=9 note=40 velocity=80 time=8 actual_time=21960
type=note_on channel=9 note=53 velocity=80 time=0 actual_time=21960
type=note_on channel=9 note=53 velocity=0 time=96 actual_time=22056
type=note_on channel=9 note=40 velocity=0 time=0 actual_time=22056
type=note_on channel=9 note=53 velocity=80 time=24 actual_time=22080
type=note_on channel=9 note=35 velocity=80 time=0 actual_time=22080
type=note_on channel=9 note=35 velocity=0 time=96 actual_time=22176
type=note_on channel=9 note=53 velocity=0 time=0 actual_time=22176
type=note_on channel=9 note=53 velocity=80 time=24 actual_time=22200
type=note_on channel=9 note=40 velocity=80 time=0 actual_time=22200
type=note_on channel=9 note=40 velocity=0 time=96 actual_time=22296
type=note_on channel=9 note=53 velocity=0 time=0 actual_time=22296
type=note_on channel=9 note=53 velocity=80 time=24 actual_time=22320
type=note_on channel=9 note=53 velocity=0 time=64 actual_time=22384
type=note_on channel=9 note=35 velocity=80 time=16 actual_time=22400
type=note_on channel=9 note=35 velocity=0 time=32 actual_time=22432
type=note_on channel=9 note=40 velocity=80 time=8 actual_time=22440
type=note_on channel=9 note=53 velocity=80 time=0 actual_time=22440
type=note_on channel=9 note=53 velocity=0 time=96 actual_time=22536
type=note_on channel=9 note=40 velocity=0 time=0 actual_time=22536
type=note_on channel=9 note=35 velocity=80 time=24 actual_time=22560
type=note_on channel=9 note=53 velocity=80 time=0 actual_time=22560
type=note_on channel=9 note=53 velocity=0 time=96 actual_time=22656
type=note_on channel=9 note=35 velocity=0 time=0 actual_time=22656
type=note_on channel=9 note=40 velocity=80 time=24 actual_time=22680
type=note_on channel=9 note=53 velocity=80 time=0 actual_time=22680
type=note_on channel=9 note=53 velocity=0 time=96 actual_time=22776
type=note_on channel=9 note=40 velocity=0 time=0 actual_time=22776
type=note_on channel=9 note=53 velocity=80 time=24 actual_time=22800
type=note_on channel=9 note=53 velocity=0 time=64 actual_time=22864
type=note_on channel=9 note=35 velocity=80 time=16 actual_time=22880
type=note_on channel=9 note=35 velocity=0 time=32 actual_time=22912
type=note_on channel=9 note=53 velocity=80 time=8 actual_time=22920
type=note_on channel=9 note=40 velocity=80 time=0 actual_time=22920
type=note_on channel=9 note=40 velocity=0 time=96 actual_time=23016
type=note_on channel=9 note=53 velocity=0 time=0 actual_time=23016
type=note_on channel=9 note=49 velocity=80 time=24 actual_time=23040
type=note_on channel=9 note=35 velocity=80 time=0 actual_time=23040
type=note_on channel=9 note=53 velocity=80 time=0 actual_time=23040
type=note_on channel=9 note=53 velocity=0 time=96 actual_time=23136
type=note_on channel=9 note=35 velocity=0 time=0 actual_time=23136
type=note_on channel=9 note=49 velocity=0 time=0 actual_time=23136
type=note_on channel=9 note=40 velocity=80 time=24 actual_time=23160
type=note_on channel=9 note=53 velocity=80 time=0 actual_time=23160
type=note_on channel=9 note=53 velocity=0 time=96 actual_time=23256
type=note_on channel=9 note=40 velocity=0 time=0 actual_time=23256
type=note_on channel=9 note=53 velocity=80 time=24 actual_time=23280
type=note_on channel=9 note=53 velocity=0 time=64 actual_time=23344
type=note_on channel=9 note=35 velocity=80 time=16 actual_time=23360
type=note_on channel=9 note=35 velocity=0 time=32 actual_time=23392
type=note_on channel=9 note=53 velocity=80 time=8 actual_time=23400
type=note_on channel=9 note=40 velocity=80 time=0 actual_time=23400
type=note_on channel=9 note=40 velocity=0 time=96 actual_time=23496
type=note_on channel=9 note=53 velocity=0 time=0 actual_time=23496
type=note_on channel=9 note=53 velocity=80 time=24 actual_time=23520
type=note_on channel=9 note=35 velocity=80 time=0 actual_time=23520
type=note_on channel=9 note=35 velocity=0 time=96 actual_time=23616
type=note_on channel=9 note=53 velocity=0 time=0 actual_time=23616
type=note_on channel=9 note=53 velocity=80 time=24 actual_time=23640
type=note_on channel=9 note=40 velocity=80 time=0 actual_time=23640
type=note_on channel=9 note=40 velocity=0 time=96 actual_time=23736
type=note_on channel=9 note=53 velocity=0 time=0 actual_time=23736
type=note_on channel=9 note=53 velocity=80 time=24 actual_time=23760
type=note_on channel=9 note=53 velocity=0 time=64 actual_time=23824
type=note_on channel=9 note=35 velocity=80 time=16 actual_time=23840
type=note_on channel=9 note=35 velocity=0 time=32 actual_time=23872
type=note_on channel=9 note=40 velocity=80 time=8 actual_time=23880
type=note_on channel=9 note=53 velocity=80 time=0 actual_time=23880
type=note_on channel=9 note=53 velocity=0 time=96 actual_time=23976
type=note_on channel=9 note=40 velocity=0 time=0 actual_time=23976
type=note_on channel=9 note=53 velocity=80 time=24 actual_time=24000
type=note_on channel=9 note=35 velocity=80 time=0 actual_time=24000
type=note_on channel=9 note=35 velocity=0 time=96 actual_time=24096
type=note_on channel=9 note=53 velocity=0 time=0 actual_time=24096
type=note_on channel=9 note=53 velocity=80 time=24 actual_time=24120
type=note_on channel=9 note=40 velocity=80 time=0 actual_time=24120
type=note_on channel=9 note=40 velocity=0 time=96 actual_time=24216
type=note_on channel=9 note=53 velocity=0 time=0 actual_time=24216
type=note_on channel=9 note=53 velocity=80 time=24 actual_time=24240
type=note_on channel=9 note=53 velocity=0 time=64 actual_time=24304
type=note_on channel=9 note=35 velocity=80 time=16 actual_time=24320
type=note_on channel=9 note=35 velocity=0 time=32 actual_time=24352
type=note_on channel=9 note=40 velocity=80 time=8 actual_time=24360
type=note_on channel=9 note=53 velocity=80 time=0 actual_time=24360
type=note_on channel=9 note=53 velocity=0 time=96 actual_time=24456
type=note_on channel=9 note=40 velocity=0 time=0 actual_time=24456
type=note_on channel=9 note=53 velocity=80 time=24 actual_time=24480
type=note_on channel=9 note=35 velocity=80 time=0 actual_time=24480
type=note_on channel=9 note=35 velocity=0 time=96 actual_time=24576
type=note_on channel=9 note=53 velocity=0 time=0 actual_time=24576
type=note_on channel=9 note=53 velocity=80 time=24 actual_time=24600
type=note_on channel=9 note=40 velocity=80 time=0 actual_time=24600
type=note_on channel=9 note=40 velocity=0 time=96 actual_time=24696
type=note_on channel=9 note=53 velocity=0 time=0 actual_time=24696
type=note_on channel=9 note=53 velocity=80 time=24 actual_time=24720
type=note_on channel=9 note=53 velocity=0 time=64 actual_time=24784
type=note_on channel=9 note=35 velocity=80 time=16 actual_time=24800
type=note_on channel=9 note=35 velocity=0 time=32 actual_time=24832
type=note_on channel=9 note=53 velocity=80 time=8 actual_time=24840
type=note_on channel=9 note=40 velocity=80 time=0 actual_time=24840
type=note_on channel=9 note=40 velocity=0 time=96 actual_time=24936
type=note_on channel=9 note=53 velocity=0 time=0 actual_time=24936
type=note_on channel=9 note=53 velocity=80 time=24 actual_time=24960
type=note_on channel=9 note=35 velocity=80 time=0 actual_time=24960
type=note_on channel=9 note=49 velocity=80 time=0 actual_time=24960
type=note_on channel=9 note=49 velocity=0 time=96 actual_time=25056
type=note_on channel=9 note=35 velocity=0 time=0 actual_time=25056
type=note_on channel=9 note=53 velocity=0 time=0 actual_time=25056
type=note_on channel=9 note=53 velocity=80 time=24 actual_time=25080
type=note_on channel=9 note=40 velocity=80 time=0 actual_time=25080
type=note_on channel=9 note=40 velocity=0 time=96 actual_time=25176
type=note_on channel=9 note=53 velocity=0 time=0 actual_time=25176
type=note_on channel=9 note=53 velocity=80 time=24 actual_time=25200
type=note_on channel=9 note=53 velocity=0 time=64 actual_time=25264
type=note_on channel=9 note=35 velocity=80 time=16 actual_time=25280
type=note_on channel=9 note=35 velocity=0 time=32 actual_time=25312
type=note_on channel=9 note=40 velocity=80 time=8 actual_time=25320
type=note_on channel=9 note=53 velocity=80 time=0 actual_time=25320
type=note_on channel=9 note=53 velocity=0 time=96 actual_time=25416
type=note_on channel=9 note=40 velocity=0 time=0 actual_time=25416
type=note_on channel=9 note=35 velocity=80 time=24 actual_time=25440
type=note_on channel=9 note=53 velocity=80 time=0 actual_time=25440
type=note_on channel=9 note=53 velocity=0 time=96 actual_time=25536
type=note_on channel=9 note=35 velocity=0 time=0 actual_time=25536
type=note_on channel=9 note=40 velocity=80 time=24 actual_time=25560
type=note_on channel=9 note=53 velocity=80 time=0 actual_time=25560
type=note_on channel=9 note=53 velocity=0 time=96 actual_time=25656
type=note_on channel=9 note=40 velocity=0 time=0 actual_time=25656
type=note_on channel=9 note=53 velocity=80 time=24 actual_time=25680
type=note_on channel=9 note=53 velocity=0 time=64 actual_time=25744
type=note_on channel=9 note=35 velocity=80 time=16 actual_time=25760
type=note_on channel=9 note=35 velocity=0 time=32 actual_time=25792
type=note_on channel=9 note=53 velocity=80 time=8 actual_time=25800
type=note_on channel=9 note=40 velocity=80 time=0 actual_time=25800
type=note_on channel=9 note=40 velocity=0 time=96 actual_time=25896
type=note_on channel=9 note=53 velocity=0 time=0 actual_time=25896
type=note_on channel=9 note=35 velocity=80 time=24 actual_time=25920
type=note_on channel=9 note=53 velocity=80 time=0 actual_time=25920
type=note_on channel=9 note=53 velocity=0 time=96 actual_time=26016
type=note_on channel=9 note=35 velocity=0 time=0 actual_time=26016
type=note_on channel=9 note=40 velocity=80 time=24 actual_time=26040
type=note_on channel=9 note=53 velocity=80 time=0 actual_time=26040
type=note_on channel=9 note=53 velocity=0 time=96 actual_time=26136
type=note_on channel=9 note=40 velocity=0 time=0 actual_time=26136
type=note_on channel=9 note=53 velocity=80 time=24 actual_time=26160
type=note_on channel=9 note=53 velocity=0 time=64 actual_time=26224
type=note_on channel=9 note=35 velocity=80 time=16 actual_time=26240
type=note_on channel=9 note=35 velocity=0 time=32 actual_time=26272
type=note_on channel=9 note=40 velocity=80 time=8 actual_time=26280
type=note_on channel=9 note=53 velocity=80 time=0 actual_time=26280
type=note_on channel=9 note=53 velocity=0 time=96 actual_time=26376
type=note_on channel=9 note=40 velocity=0 time=0 actual_time=26376
type=note_on channel=9 note=40 velocity=80 time=24 actual_time=26400
type=note_on channel=9 note=40 velocity=0 time=32 actual_time=26432
type=note_on channel=9 note=40 velocity=80 time=8 actual_time=26440
type=note_on channel=9 note=40 velocity=0 time=32 actual_time=26472
type=note_on channel=9 note=40 velocity=80 time=8 actual_time=26480
type=note_on channel=9 note=40 velocity=0 time=32 actual_time=26512
type=note_on channel=9 note=41 velocity=80 time=8 actual_time=26520
type=note_on channel=9 note=41 velocity=0 time=32 actual_time=26552
type=note_on channel=9 note=41 velocity=80 time=8 actual_time=26560
type=note_on channel=9 note=41 velocity=0 time=32 actual_time=26592
type=note_on channel=9 note=41 velocity=80 time=8 actual_time=26600
type=note_on channel=9 note=41 velocity=0 time=32 actual_time=26632
type=note_on channel=9 note=47 velocity=80 time=8 actual_time=26640
type=note_on channel=9 note=47 velocity=0 time=32 actual_time=26672
type=note_on channel=9 note=47 velocity=80 time=8 actual_time=26680
type=note_on channel=9 note=47 velocity=0 time=32 actual_time=26712
type=note_on channel=9 note=45 velocity=80 time=8 actual_time=26720
type=note_on channel=9 note=45 velocity=0 time=32 actual_time=26752
type=note_on channel=9 note=47 velocity=80 time=8 actual_time=26760
type=note_on channel=9 note=47 velocity=0 time=32 actual_time=26792
type=note_on channel=9 note=47 velocity=80 time=8 actual_time=26800
type=note_on channel=9 note=47 velocity=0 time=32 actual_time=26832
type=note_on channel=9 note=45 velocity=80 time=8 actual_time=26840
type=note_on channel=9 note=45 velocity=0 time=32 actual_time=26872
type=note_on channel=9 note=59 velocity=80 time=8 actual_time=26880
type=note_on channel=9 note=35 velocity=80 time=0 actual_time=26880
type=note_on channel=9 note=49 velocity=80 time=0 actual_time=26880
type=note_on channel=9 note=53 velocity=80 time=0 actual_time=26880
type=note_on channel=9 note=53 velocity=0 time=96 actual_time=26976
type=note_on channel=9 note=59 velocity=0 time=0 actual_time=26976
type=note_on channel=9 note=35 velocity=0 time=0 actual_time=26976
type=note_on channel=9 note=49 velocity=0 time=0 actual_time=26976
type=note_on channel=9 note=59 velocity=80 time=24 actual_time=27000
type=note_on channel=9 note=40 velocity=80 time=0 actual_time=27000
type=note_on channel=9 note=53 velocity=80 time=0 actual_time=27000
type=note_on channel=9 note=53 velocity=0 time=96 actual_time=27096
type=note_on channel=9 note=40 velocity=0 time=0 actual_time=27096
type=note_on channel=9 note=59 velocity=0 time=0 actual_time=27096
type=note_on channel=9 note=59 velocity=80 time=24 actual_time=27120
type=note_on channel=9 note=53 velocity=80 time=0 actual_time=27120
type=note_on channel=9 note=53 velocity=0 time=64 actual_time=27184
type=note_on channel=9 note=59 velocity=0 time=0 actual_time=27184
type=note_on channel=9 note=35 velocity=80 time=16 actual_time=27200
type=note_on channel=9 note=35 velocity=0 time=32 actual_time=27232
type=note_on channel=9 note=59 velocity=80 time=8 actual_time=27240
type=note_on channel=9 note=53 velocity=80 time=0 actual_time=27240
type=note_on channel=9 note=40 velocity=80 time=0 actual_time=27240
type=note_on channel=9 note=40 velocity=0 time=96 actual_time=27336
type=note_on channel=9 note=53 velocity=0 time=0 actual_time=27336
type=note_on channel=9 note=59 velocity=0 time=0 actual_time=27336
type=note_on channel=9 note=35 velocity=80 time=24 actual_time=27360
type=note_on channel=9 note=59 velocity=80 time=0 actual_time=27360
type=note_on channel=9 note=53 velocity=80 time=0 actual_time=27360
type=note_on channel=9 note=53 velocity=0 time=96 actual_time=27456
type=note_on channel=9 note=59 velocity=0 time=0 actual_time=27456
type=note_on channel=9 note=35 velocity=0 time=0 actual_time=27456
type=note_on channel=9 note=53 velocity=80 time=24 actual_time=27480
type=note_on channel=9 note=40 velocity=80 time=0 actual_time=27480
type=note_on channel=9 note=59 velocity=80 time=0 actual_time=27480
type=note_on channel=9 note=59 velocity=0 time=96 actual_time=27576
type=note_on channel=9 note=40 velocity=0 time=0 actual_time=27576
type=note_on channel=9 note=53 velocity=0 time=0 actual_time=27576
type=note_on channel=9 note=53 velocity=80 time=24 actual_time=27600
type=note_on channel=9 note=59 velocity=80 time=0 actual_time=27600
type=note_on channel=9 note=59 velocity=0 time=64 actual_time=27664
type=note_on channel=9 note=53 velocity=0 time=0 actual_time=27664
type=note_on channel=9 note=35 velocity=80 time=16 actual_time=27680
type=note_on channel=9 note=35 velocity=0 time=32 actual_time=27712
type=note_on channel=9 note=40 velocity=80 time=8 actual_time=27720
type=note_on channel=9 note=53 velocity=80 time=0 actual_time=27720
type=note_on channel=9 note=59 velocity=80 time=0 actual_time=27720
type=note_on channel=9 note=59 velocity=0 time=96 actual_time=27816
type=note_on channel=9 note=53 velocity=0 time=0 actual_time=27816
type=note_on channel=9 note=40 velocity=0 time=0 actual_time=27816
type=note_on channel=9 note=53 velocity=80 time=24 actual_time=27840
type=note_on channel=9 note=49 velocity=80 time=0 actual_time=27840
type=note_on channel=9 note=35 velocity=80 time=0 actual_time=27840
type=note_on channel=9 note=59 velocity=80 time=0 actual_time=27840
type=note_on channel=9 note=59 velocity=0 time=96 actual_time=27936
type=note_on channel=9 note=53 velocity=0 time=0 actual_time=27936
type=note_on channel=9 note=49 velocity=0 time=0 actual_time=27936
type=note_on channel=9 note=35 velocity=0 time=0 actual_time=27936
type=note_on channel=9 note=53 velocity=80 time=24 actual_time=27960
type=note_on channel=9 note=40 velocity=80 time=0 actual_time=27960
type=note_on channel=9 note=59 velocity=80 time=0 actual_time=27960
type=note_on channel=9 note=59 velocity=0 time=96 actual_time=28056
type=note_on channel=9 note=40 velocity=0 time=0 actual_time=28056
type=note_on channel=9 note=53 velocity=0 time=0 actual_time=28056
type=note_on channel=9 note=53 velocity=80 time=24 actual_time=28080
type=note_on channel=9 note=59 velocity=80 time=0 actual_time=28080
type=note_on channel=9 note=59 velocity=0 time=64 actual_time=28144
type=note_on channel=9 note=53 velocity=0 time=0 actual_time=28144
type=note_on channel=9 note=35 velocity=80 time=16 actual_time=28160
type=note_on channel=9 note=35 velocity=0 time=32 actual_time=28192
type=note_on channel=9 note=40 velocity=80 time=8 actual_time=28200
type=note_on channel=9 note=53 velocity=80 time=0 actual_time=28200
type=note_on channel=9 note=59 velocity=80 time=0 actual_time=28200
type=note_on channel=9 note=59 velocity=0 time=96 actual_time=28296
type=note_on channel=9 note=53 velocity=0 time=0 actual_time=28296
type=note_on channel=9 note=40 velocity=0 time=0 actual_time=28296
type=note_on channel=9 note=35 velocity=80 time=24 actual_time=28320
type=note_on channel=9 note=53 velocity=80 time=0 actual_time=28320
type=note_on channel=9 note=59 velocity=80 time=0 actual_time=28320
type=note_on channel=9 note=59 velocity=0 time=64 actual_time=28384
type=note_on channel=9 note=53 velocity=0 time=0 actual_time=28384
type=note_on channel=9 note=35 velocity=0 time=0 actual_time=28384
type=note_on channel=9 note=35 velocity=80 time=16 actual_time=28400
type=note_on channel=9 note=35 velocity=0 time=32 actual_time=28432
type=note_on channel=9 note=49 velocity=80 time=8 actual_time=28440
type=note_on channel=9 note=40 velocity=80 time=0 actual_time=28440
type=note_on channel=9 note=53 velocity=80 time=0 actual_time=28440
type=note_on channel=9 note=59 velocity=80 time=0 actual_time=28440
type=note_on channel=9 note=59 velocity=0 time=96 actual_time=28536
type=note_on channel=9 note=49 velocity=0 time=0 actual_time=28536
type=note_on channel=9 note=40 velocity=0 time=0 actual_time=28536
type=note_on channel=9 note=53 velocity=0 time=0 actual_time=28536
type=note_on channel=9 note=35 velocity=80 time=24 actual_time=28560
type=note_on channel=9 note=53 velocity=80 time=0 actual_time=28560
type=note_on channel=9 note=59 velocity=80 time=0 actual_time=28560
type=note_on channel=9 note=59 velocity=0 time=64 actual_time=28624
type=note_on channel=9 note=53 velocity=0 time=0 actual_time=28624
type=note_on channel=9 note=35 velocity=0 time=0 actual_time=28624
type=note_on channel=9 note=35 velocity=80 time=16 actual_time=28640
type=note_on channel=9 note=35 velocity=0 time=32 actual_time=28672
type=note_on channel=9 note=49 velocity=80 time=8 actual_time=28680
type=note_on channel=9 note=40 velocity=80 time=0 actual_time=28680
type=note_on channel=9 note=53 velocity=80 time=0 actual_time=28680
type=note_on channel=9 note=59 velocity=80 time=0 actual_time=28680
type=note_on channel=9 note=59 velocity=0 time=96 actual_time=28776
type=note_on channel=9 note=49 velocity=0 time=0 actual_time=28776
type=note_on channel=9 note=40 velocity=0 time=0 actual_time=28776
type=note_on channel=9 note=53 velocity=0 time=0 actual_time=28776
type=note_on channel=9 note=59 velocity=80 time=24 actual_time=28800
type=note_on channel=9 note=35 velocity=80 time=0 actual_time=28800
type=note_on channel=9 note=49 velocity=80 time=0 actual_time=28800
type=note_on channel=9 note=53 velocity=80 time=0 actual_time=28800
type=note_on channel=9 note=53 velocity=0 time=96 actual_time=28896
type=note_on channel=9 note=59 velocity=0 time=0 actual_time=28896
type=note_on channel=9 note=35 velocity=0 time=0 actual_time=28896
type=note_on channel=9 note=49 velocity=0 time=0 actual_time=28896
type=note_on channel=9 note=59 velocity=80 time=24 actual_time=28920
type=note_on channel=9 note=40 velocity=80 time=0 actual_time=28920
type=note_on channel=9 note=53 velocity=80 time=0 actual_time=28920
type=note_on channel=9 note=53 velocity=0 time=96 actual_time=29016
type=note_on channel=9 note=40 velocity=0 time=0 actual_time=29016
type=note_on channel=9 note=59 velocity=0 time=0 actual_time=29016
type=note_on channel=9 note=59 velocity=80 time=24 actual_time=29040
type=note_on channel=9 note=53 velocity=80 time=0 actual_time=29040
type=note_on channel=9 note=53 velocity=0 time=64 actual_time=29104
type=note_on channel=9 note=59 velocity=0 time=0 actual_time=29104
type=note_on channel=9 note=35 velocity=80 time=16 actual_time=29120
type=note_on channel=9 note=35 velocity=0 time=32 actual_time=29152
type=note_on channel=9 note=59 velocity=80 time=8 actual_time=29160
type=note_on channel=9 note=53 velocity=80 time=0 actual_time=29160
type=note_on channel=9 note=40 velocity=80 time=0 actual_time=29160
type=note_on channel=9 note=40 velocity=0 time=96 actual_time=29256
type=note_on channel=9 note=53 velocity=0 time=0 actual_time=29256
type=note_on channel=9 note=59 velocity=0 time=0 actual_time=29256
type=note_on channel=9 note=35 velocity=80 time=24 actual_time=29280
type=note_on channel=9 note=59 velocity=80 time=0 actual_time=29280
type=note_on channel=9 note=53 velocity=80 time=0 actual_time=29280
type=note_on channel=9 note=53 velocity=0 time=96 actual_time=29376
type=note_on channel=9 note=59 velocity=0 time=0 actual_time=29376
type=note_on channel=9 note=35 velocity=0 time=0 actual_time=29376
type=note_on channel=9 note=53 velocity=80 time=24 actual_time=29400
type=note_on channel=9 note=40 velocity=80 time=0 actual_time=29400
type=note_on channel=9 note=59 velocity=80 time=0 actual_time=29400
type=note_on channel=9 note=59 velocity=0 time=96 actual_time=29496
type=note_on channel=9 note=40 velocity=0 time=0 actual_time=29496
type=note_on channel=9 note=53 velocity=0 time=0 actual_time=29496
type=note_on channel=9 note=53 velocity=80 time=24 actual_time=29520
type=note_on channel=9 note=59 velocity=80 time=0 actual_time=29520
type=note_on channel=9 note=59 velocity=0 time=64 actual_time=29584
type=note_on channel=9 note=53 velocity=0 time=0 actual_time=29584
type=note_on channel=9 note=35 velocity=80 time=16 actual_time=29600
type=note_on channel=9 note=35 velocity=0 time=32 actual_time=29632
type=note_on channel=9 note=40 velocity=80 time=8 actual_time=29640
type=note_on channel=9 note=53 velocity=80 time=0 actual_time=29640
type=note_on channel=9 note=59 velocity=80 time=0 actual_time=29640
type=note_on channel=9 note=59 velocity=0 time=96 actual_time=29736
type=note_on channel=9 note=53 velocity=0 time=0 actual_time=29736
type=note_on channel=9 note=40 velocity=0 time=0 actual_time=29736
type=note_on channel=9 note=53 velocity=80 time=24 actual_time=29760
type=note_on channel=9 note=49 velocity=80 time=0 actual_time=29760
type=note_on channel=9 note=35 velocity=80 time=0 actual_time=29760
type=note_on channel=9 note=59 velocity=80 time=0 actual_time=29760
type=note_on channel=9 note=59 velocity=0 time=96 actual_time=29856
type=note_on channel=9 note=53 velocity=0 time=0 actual_time=29856
type=note_on channel=9 note=49 velocity=0 time=0 actual_time=29856
type=note_on channel=9 note=35 velocity=0 time=0 actual_time=29856
type=note_on channel=9 note=53 velocity=80 time=24 actual_time=29880
type=note_on channel=9 note=40 velocity=80 time=0 actual_time=29880
type=note_on channel=9 note=59 velocity=80 time=0 actual_time=29880
type=note_on channel=9 note=59 velocity=0 time=96 actual_time=29976
type=note_on channel=9 note=40 velocity=0 time=0 actual_time=29976
type=note_on channel=9 note=53 velocity=0 time=0 actual_time=29976
type=note_on channel=9 note=53 velocity=80 time=24 actual_time=30000
type=note_on channel=9 note=59 velocity=80 time=0 actual_time=30000
type=note_on channel=9 note=59 velocity=0 time=64 actual_time=30064
type=note_on channel=9 note=53 velocity=0 time=0 actual_time=30064
type=note_on channel=9 note=35 velocity=80 time=16 actual_time=30080
type=note_on channel=9 note=35 velocity=0 time=32 actual_time=30112
type=note_on channel=9 note=40 velocity=80 time=8 actual_time=30120
type=note_on channel=9 note=53 velocity=80 time=0 actual_time=30120
type=note_on channel=9 note=59 velocity=80 time=0 actual_time=30120
type=note_on channel=9 note=59 velocity=0 time=96 actual_time=30216
type=note_on channel=9 note=53 velocity=0 time=0 actual_time=30216
type=note_on channel=9 note=40 velocity=0 time=0 actual_time=30216
type=note_on channel=9 note=35 velocity=80 time=24 actual_time=30240
type=note_on channel=9 note=53 velocity=80 time=0 actual_time=30240
type=note_on channel=9 note=59 velocity=80 time=0 actual_time=30240
type=note_on channel=9 note=59 velocity=0 time=64 actual_time=30304
type=note_on channel=9 note=53 velocity=0 time=0 actual_time=30304
type=note_on channel=9 note=35 velocity=0 time=0 actual_time=30304
type=note_on channel=9 note=35 velocity=80 time=16 actual_time=30320
type=note_on channel=9 note=35 velocity=0 time=32 actual_time=30352
type=note_on channel=9 note=49 velocity=80 time=8 actual_time=30360
type=note_on channel=9 note=40 velocity=80 time=0 actual_time=30360
type=note_on channel=9 note=53 velocity=80 time=0 actual_time=30360
type=note_on channel=9 note=59 velocity=80 time=0 actual_time=30360
type=note_on channel=9 note=59 velocity=0 time=96 actual_time=30456
type=note_on channel=9 note=49 velocity=0 time=0 actual_time=30456
type=note_on channel=9 note=40 velocity=0 time=0 actual_time=30456
type=note_on channel=9 note=53 velocity=0 time=0 actual_time=30456
type=note_on channel=9 note=35 velocity=80 time=24 actual_time=30480
type=note_on channel=9 note=53 velocity=80 time=0 actual_time=30480
type=note_on channel=9 note=59 velocity=80 time=0 actual_time=30480
type=note_on channel=9 note=59 velocity=0 time=64 actual_time=30544
type=note_on channel=9 note=53 velocity=0 time=0 actual_time=30544
type=note_on channel=9 note=35 velocity=0 time=0 actual_time=30544
type=note_on channel=9 note=35 velocity=80 time=16 actual_time=30560
type=note_on channel=9 note=35 velocity=0 time=32 actual_time=30592
type=note_on channel=9 note=49 velocity=80 time=8 actual_time=30600
type=note_on channel=9 note=40 velocity=80 time=0 actual_time=30600
type=note_on channel=9 note=53 velocity=80 time=0 actual_time=30600
type=note_on channel=9 note=59 velocity=80 time=0 actual_time=30600
type=note_on channel=9 note=59 velocity=0 time=96 actual_time=30696
type=note_on channel=9 note=49 velocity=0 time=0 actual_time=30696
type=note_on channel=9 note=40 velocity=0 time=0 actual_time=30696
type=note_on channel=9 note=53 velocity=0 time=0 actual_time=30696
type=note_on channel=9 note=59 velocity=80 time=24 actual_time=30720
type=note_on channel=9 note=35 velocity=80 time=0 actual_time=30720
type=note_on channel=9 note=49 velocity=80 time=0 actual_time=30720
type=note_on channel=9 note=53 velocity=80 time=0 actual_time=30720
type=note_on channel=9 note=53 velocity=0 time=96 actual_time=30816
type=note_on channel=9 note=59 velocity=0 time=0 actual_time=30816
type=note_on channel=9 note=35 velocity=0 time=0 actual_time=30816
type=note_on channel=9 note=49 velocity=0 time=0 actual_time=30816
type=note_on channel=9 note=59 velocity=80 time=24 actual_time=30840
type=note_on channel=9 note=40 velocity=80 time=0 actual_time=30840
type=note_on channel=9 note=53 velocity=80 time=0 actual_time=30840
type=note_on channel=9 note=53 velocity=0 time=96 actual_time=30936
type=note_on channel=9 note=40 velocity=0 time=0 actual_time=30936
type=note_on channel=9 note=59 velocity=0 time=0 actual_time=30936
type=note_on channel=9 note=59 velocity=80 time=24 actual_time=30960
type=note_on channel=9 note=53 velocity=80 time=0 actual_time=30960
type=note_on channel=9 note=53 velocity=0 time=64 actual_time=31024
type=note_on channel=9 note=59 velocity=0 time=0 actual_time=31024
type=note_on channel=9 note=35 velocity=80 time=16 actual_time=31040
type=note_on channel=9 note=35 velocity=0 time=32 actual_time=31072
type=note_on channel=9 note=59 velocity=80 time=8 actual_time=31080
type=note_on channel=9 note=53 velocity=80 time=0 actual_time=31080
type=note_on channel=9 note=40 velocity=80 time=0 actual_time=31080
type=note_on channel=9 note=40 velocity=0 time=96 actual_time=31176
type=note_on channel=9 note=53 velocity=0 time=0 actual_time=31176
type=note_on channel=9 note=59 velocity=0 time=0 actual_time=31176
type=note_on channel=9 note=35 velocity=80 time=24 actual_time=31200
type=note_on channel=9 note=59 velocity=80 time=0 actual_time=31200
type=note_on channel=9 note=53 velocity=80 time=0 actual_time=31200
type=note_on channel=9 note=53 velocity=0 time=96 actual_time=31296
type=note_on channel=9 note=59 velocity=0 time=0 actual_time=31296
type=note_on channel=9 note=35 velocity=0 time=0 actual_time=31296
type=note_on channel=9 note=53 velocity=80 time=24 actual_time=31320
type=note_on channel=9 note=40 velocity=80 time=0 actual_time=31320
type=note_on channel=9 note=59 velocity=80 time=0 actual_time=31320
type=note_on channel=9 note=59 velocity=0 time=96 actual_time=31416
type=note_on channel=9 note=40 velocity=0 time=0 actual_time=31416
type=note_on channel=9 note=53 velocity=0 time=0 actual_time=31416
type=note_on channel=9 note=53 velocity=80 time=24 actual_time=31440
type=note_on channel=9 note=59 velocity=80 time=0 actual_time=31440
type=note_on channel=9 note=59 velocity=0 time=64 actual_time=31504
type=note_on channel=9 note=53 velocity=0 time=0 actual_time=31504
type=note_on channel=9 note=35 velocity=80 time=16 actual_time=31520
type=note_on channel=9 note=35 velocity=0 time=32 actual_time=31552
type=note_on channel=9 note=40 velocity=80 time=8 actual_time=31560
type=note_on channel=9 note=53 velocity=80 time=0 actual_time=31560
type=note_on channel=9 note=59 velocity=80 time=0 actual_time=31560
type=note_on channel=9 note=59 velocity=0 time=96 actual_time=31656
type=note_on channel=9 note=53 velocity=0 time=0 actual_time=31656
type=note_on channel=9 note=40 velocity=0 time=0 actual_time=31656
type=note_on channel=9 note=53 velocity=80 time=24 actual_time=31680
type=note_on channel=9 note=49 velocity=80 time=0 actual_time=31680
type=note_on channel=9 note=35 velocity=80 time=0 actual_time=31680
type=note_on channel=9 note=59 velocity=80 time=0 actual_time=31680
type=note_on channel=9 note=59 velocity=0 time=96 actual_time=31776
type=note_on channel=9 note=53 velocity=0 time=0 actual_time=31776
type=note_on channel=9 note=49 velocity=0 time=0 actual_time=31776
type=note_on channel=9 note=35 velocity=0 time=0 actual_time=31776
type=note_on channel=9 note=53 velocity=80 time=24 actual_time=31800
type=note_on channel=9 note=40 velocity=80 time=0 actual_time=31800
type=note_on channel=9 note=59 velocity=80 time=0 actual_time=31800
type=note_on channel=9 note=59 velocity=0 time=96 actual_time=31896
type=note_on channel=9 note=40 velocity=0 time=0 actual_time=31896
type=note_on channel=9 note=53 velocity=0 time=0 actual_time=31896
type=note_on channel=9 note=53 velocity=80 time=24 actual_time=31920
type=note_on channel=9 note=59 velocity=80 time=0 actual_time=31920
type=note_on channel=9 note=59 velocity=0 time=64 actual_time=31984
type=note_on channel=9 note=53 velocity=0 time=0 actual_time=31984
type=note_on channel=9 note=35 velocity=80 time=16 actual_time=32000
type=note_on channel=9 note=35 velocity=0 time=32 actual_time=32032
type=note_on channel=9 note=40 velocity=80 time=8 actual_time=32040
type=note_on channel=9 note=53 velocity=80 time=0 actual_time=32040
type=note_on channel=9 note=59 velocity=80 time=0 actual_time=32040
type=note_on channel=9 note=59 velocity=0 time=96 actual_time=32136
type=note_on channel=9 note=53 velocity=0 time=0 actual_time=32136
type=note_on channel=9 note=40 velocity=0 time=0 actual_time=32136
type=note_on channel=9 note=35 velocity=80 time=24 actual_time=32160
type=note_on channel=9 note=53 velocity=80 time=0 actual_time=32160
type=note_on channel=9 note=59 velocity=80 time=0 actual_time=32160
type=note_on channel=9 note=59 velocity=0 time=64 actual_time=32224
type=note_on channel=9 note=53 velocity=0 time=0 actual_time=32224
type=note_on channel=9 note=35 velocity=0 time=0 actual_time=32224
type=note_on channel=9 note=35 velocity=80 time=16 actual_time=32240
type=note_on channel=9 note=35 velocity=0 time=32 actual_time=32272
type=note_on channel=9 note=49 velocity=80 time=8 actual_time=32280
type=note_on channel=9 note=40 velocity=80 time=0 actual_time=32280
type=note_on channel=9 note=53 velocity=80 time=0 actual_time=32280
type=note_on channel=9 note=59 velocity=80 time=0 actual_time=32280
type=note_on channel=9 note=59 velocity=0 time=96 actual_time=32376
type=note_on channel=9 note=49 velocity=0 time=0 actual_time=32376
type=note_on channel=9 note=40 velocity=0 time=0 actual_time=32376
type=note_on channel=9 note=53 velocity=0 time=0 actual_time=32376
type=note_on channel=9 note=35 velocity=80 time=24 actual_time=32400
type=note_on channel=9 note=53 velocity=80 time=0 actual_time=32400
type=note_on channel=9 note=59 velocity=80 time=0 actual_time=32400
type=note_on channel=9 note=59 velocity=0 time=64 actual_time=32464
type=note_on channel=9 note=53 velocity=0 time=0 actual_time=32464
type=note_on channel=9 note=35 velocity=0 time=0 actual_time=32464
type=note_on channel=9 note=35 velocity=80 time=16 actual_time=32480
type=note_on channel=9 note=35 velocity=0 time=32 actual_time=32512
type=note_on channel=9 note=49 velocity=80 time=8 actual_time=32520
type=note_on channel=9 note=40 velocity=80 time=0 actual_time=32520
type=note_on channel=9 note=53 velocity=80 time=0 actual_time=32520
type=note_on channel=9 note=59 velocity=80 time=0 actual_time=32520
type=note_on channel=9 note=59 velocity=0 time=96 actual_time=32616
type=note_on channel=9 note=49 velocity=0 time=0 actual_time=32616
type=note_on channel=9 note=40 velocity=0 time=0 actual_time=32616
type=note_on channel=9 note=53 velocity=0 time=0 actual_time=32616
type=note_on channel=9 note=53 velocity=80 time=24 actual_time=32640
type=note_on channel=9 note=49 velocity=80 time=0 actual_time=32640
type=note_on channel=9 note=35 velocity=80 time=0 actual_time=32640
type=note_on channel=9 note=59 velocity=80 time=0 actual_time=32640
type=note_on channel=9 note=59 velocity=0 time=96 actual_time=32736
type=note_on channel=9 note=53 velocity=0 time=0 actual_time=32736
type=note_on channel=9 note=49 velocity=0 time=0 actual_time=32736
type=note_on channel=9 note=35 velocity=0 time=0 actual_time=32736
type=note_on channel=9 note=53 velocity=80 time=24 actual_time=32760
type=note_on channel=9 note=40 velocity=80 time=0 actual_time=32760
type=note_on channel=9 note=59 velocity=80 time=0 actual_time=32760
type=note_on channel=9 note=59 velocity=0 time=96 actual_time=32856
type=note_on channel=9 note=40 velocity=0 time=0 actual_time=32856
type=note_on channel=9 note=53 velocity=0 time=0 actual_time=32856
type=note_on channel=9 note=53 velocity=80 time=24 actual_time=32880
type=note_on channel=9 note=59 velocity=80 time=0 actual_time=32880
type=note_on channel=9 note=59 velocity=0 time=64 actual_time=32944
type=note_on channel=9 note=53 velocity=0 time=0 actual_time=32944
type=note_on channel=9 note=35 velocity=80 time=16 actual_time=32960
type=note_on channel=9 note=35 velocity=0 time=32 actual_time=32992
type=note_on channel=9 note=40 velocity=80 time=8 actual_time=33000
type=note_on channel=9 note=53 velocity=80 time=0 actual_time=33000
type=note_on channel=9 note=59 velocity=80 time=0 actual_time=33000
type=note_on channel=9 note=59 velocity=0 time=96 actual_time=33096
type=note_on channel=9 note=53 velocity=0 time=0 actual_time=33096
type=note_on channel=9 note=40 velocity=0 time=0 actual_time=33096
type=note_on channel=9 note=53 velocity=80 time=24 actual_time=33120
type=note_on channel=9 note=59 velocity=80 time=0 actual_time=33120
type=note_on channel=9 note=35 velocity=80 time=0 actual_time=33120
type=note_on channel=9 note=35 velocity=0 time=96 actual_time=33216
type=note_on channel=9 note=59 velocity=0 time=0 actual_time=33216
type=note_on channel=9 note=53 velocity=0 time=0 actual_time=33216
type=note_on channel=9 note=59 velocity=80 time=24 actual_time=33240
type=note_on channel=9 note=40 velocity=80 time=0 actual_time=33240
type=note_on channel=9 note=53 velocity=80 time=0 actual_time=33240
type=note_on channel=9 note=53 velocity=0 time=96 actual_time=33336
type=note_on channel=9 note=40 velocity=0 time=0 actual_time=33336
type=note_on channel=9 note=59 velocity=0 time=0 actual_time=33336
type=note_on channel=9 note=59 velocity=80 time=24 actual_time=33360
type=note_on channel=9 note=53 velocity=80 time=0 actual_time=33360
type=note_on channel=9 note=53 velocity=0 time=64 actual_time=33424
type=note_on channel=9 note=59 velocity=0 time=0 actual_time=33424
type=note_on channel=9 note=35 velocity=80 time=16 actual_time=33440
type=note_on channel=9 note=35 velocity=0 time=32 actual_time=33472
type=note_on channel=9 note=59 velocity=80 time=8 actual_time=33480
type=note_on channel=9 note=53 velocity=80 time=0 actual_time=33480
type=note_on channel=9 note=40 velocity=80 time=0 actual_time=33480
type=note_on channel=9 note=40 velocity=0 time=96 actual_time=33576
type=note_on channel=9 note=53 velocity=0 time=0 actual_time=33576
type=note_on channel=9 note=59 velocity=0 time=0 actual_time=33576
type=note_on channel=9 note=53 velocity=80 time=24 actual_time=33600
type=note_on channel=9 note=49 velocity=80 time=0 actual_time=33600
type=note_on channel=9 note=35 velocity=80 time=0 actual_time=33600
type=note_on channel=9 note=59 velocity=80 time=0 actual_time=33600
type=note_on channel=9 note=59 velocity=0 time=96 actual_time=33696
type=note_on channel=9 note=53 velocity=0 time=0 actual_time=33696
type=note_on channel=9 note=49 velocity=0 time=0 actual_time=33696
type=note_on channel=9 note=35 velocity=0 time=0 actual_time=33696
type=note_on channel=9 note=53 velocity=80 time=24 actual_time=33720
type=note_on channel=9 note=40 velocity=80 time=0 actual_time=33720
type=note_on channel=9 note=59 velocity=80 time=0 actual_time=33720
type=note_on channel=9 note=59 velocity=0 time=96 actual_time=33816
type=note_on channel=9 note=40 velocity=0 time=0 actual_time=33816
type=note_on channel=9 note=53 velocity=0 time=0 actual_time=33816
type=note_on channel=9 note=53 velocity=80 time=24 actual_time=33840
type=note_on channel=9 note=59 velocity=80 time=0 actual_time=33840
type=note_on channel=9 note=59 velocity=0 time=64 actual_time=33904
type=note_on channel=9 note=53 velocity=0 time=0 actual_time=33904
type=note_on channel=9 note=35 velocity=80 time=16 actual_time=33920
type=note_on channel=9 note=35 velocity=0 time=32 actual_time=33952
type=note_on channel=9 note=53 velocity=80 time=8 actual_time=33960
type=note_on channel=9 note=59 velocity=80 time=0 actual_time=33960
type=note_on channel=9 note=40 velocity=80 time=0 actual_time=33960
type=note_on channel=9 note=40 velocity=0 time=96 actual_time=34056
type=note_on channel=9 note=59 velocity=0 time=0 actual_time=34056
type=note_on channel=9 note=53 velocity=0 time=0 actual_time=34056
type=note_on channel=9 note=59 velocity=80 time=24 actual_time=34080
type=note_on channel=9 note=35 velocity=80 time=0 actual_time=34080
type=note_on channel=9 note=53 velocity=80 time=0 actual_time=34080
type=note_on channel=9 note=53 velocity=0 time=96 actual_time=34176
type=note_on channel=9 note=35 velocity=0 time=0 actual_time=34176
type=note_on channel=9 note=59 velocity=0 time=0 actual_time=34176
type=note_on channel=9 note=40 velocity=80 time=24 actual_time=34200
type=note_on channel=9 note=59 velocity=80 time=0 actual_time=34200
type=note_on channel=9 note=53 velocity=80 time=0 actual_time=34200
type=note_on channel=9 note=53 velocity=0 time=96 actual_time=34296
type=note_on channel=9 note=59 velocity=0 time=0 actual_time=34296
type=note_on channel=9 note=40 velocity=0 time=0 actual_time=34296
type=note_on channel=9 note=40 velocity=80 time=24 actual_time=34320
type=note_on channel=9 note=40 velocity=0 time=32 actual_time=34352
type=note_on channel=9 note=40 velocity=80 time=8 actual_time=34360
type=note_on channel=9 note=40 velocity=0 time=32 actual_time=34392
type=note_on channel=9 note=40 velocity=80 time=8 actual_time=34400
type=note_on channel=9 note=40 velocity=0 time=32 actual_time=34432
type=note_on channel=9 note=47 velocity=80 time=8 actual_time=34440
type=note_on channel=9 note=47 velocity=0 time=32 actual_time=34472
type=note_on channel=9 note=45 velocity=80 time=8 actual_time=34480
type=note_on channel=9 note=45 velocity=0 time=32 actual_time=34512
type=note_on channel=9 note=43 velocity=80 time=8 actual_time=34520
type=note_on channel=9 note=43 velocity=0 time=32 actual_time=34552
type=note_on channel=9 note=49 velocity=80 time=8 actual_time=34560
type=note_on channel=9 note=35 velocity=80 time=0 actual_time=34560
type=note_on channel=9 note=53 velocity=80 time=0 actual_time=34560
type=note_on channel=9 note=53 velocity=0 time=96 actual_time=34656
type=note_on channel=9 note=35 velocity=0 time=0 actual_time=34656
type=note_on channel=9 note=49 velocity=0 time=0 actual_time=34656
type=note_on channel=9 note=40 velocity=80 time=24 actual_time=34680
type=note_on channel=9 note=53 velocity=80 time=0 actual_time=34680
type=note_on channel=9 note=53 velocity=0 time=96 actual_time=34776
type=note_on channel=9 note=40 velocity=0 time=0 actual_time=34776
type=note_on channel=9 note=53 velocity=80 time=24 actual_time=34800
type=note_on channel=9 note=53 velocity=0 time=64 actual_time=34864
type=note_on channel=9 note=35 velocity=80 time=16 actual_time=34880
type=note_on channel=9 note=35 velocity=0 time=32 actual_time=34912
type=note_on channel=9 note=53 velocity=80 time=8 actual_time=34920
type=note_on channel=9 note=40 velocity=80 time=0 actual_time=34920
type=note_on channel=9 note=40 velocity=0 time=96 actual_time=35016
type=note_on channel=9 note=53 velocity=0 time=0 actual_time=35016
type=note_on channel=9 note=53 velocity=80 time=24 actual_time=35040
type=note_on channel=9 note=35 velocity=80 time=0 actual_time=35040
type=note_on channel=9 note=35 velocity=0 time=96 actual_time=35136
type=note_on channel=9 note=53 velocity=0 time=0 actual_time=35136
type=note_on channel=9 note=53 velocity=80 time=24 actual_time=35160
type=note_on channel=9 note=40 velocity=80 time=0 actual_time=35160
type=note_on channel=9 note=40 velocity=0 time=96 actual_time=35256
type=note_on channel=9 note=53 velocity=0 time=0 actual_time=35256
type=note_on channel=9 note=53 velocity=80 time=24 actual_time=35280
type=note_on channel=9 note=53 velocity=0 time=64 actual_time=35344
type=note_on channel=9 note=35 velocity=80 time=16 actual_time=35360
type=note_on channel=9 note=35 velocity=0 time=32 actual_time=35392
type=note_on channel=9 note=40 velocity=80 time=8 actual_time=35400
type=note_on channel=9 note=53 velocity=80 time=0 actual_time=35400
type=note_on channel=9 note=53 velocity=0 time=96 actual_time=35496
type=note_on channel=9 note=40 velocity=0 time=0 actual_time=35496
type=note_on channel=9 note=53 velocity=80 time=24 actual_time=35520
type=note_on channel=9 note=35 velocity=80 time=0 actual_time=35520
type=note_on channel=9 note=35 velocity=0 time=96 actual_time=35616
type=note_on channel=9 note=53 velocity=0 time=0 actual_time=35616
type=note_on channel=9 note=53 velocity=80 time=24 actual_time=35640
type=note_on channel=9 note=40 velocity=80 time=0 actual_time=35640
type=note_on channel=9 note=40 velocity=0 time=96 actual_time=35736
type=note_on channel=9 note=53 velocity=0 time=0 actual_time=35736
type=note_on channel=9 note=53 velocity=80 time=24 actual_time=35760
type=note_on channel=9 note=53 velocity=0 time=64 actual_time=35824
type=note_on channel=9 note=35 velocity=80 time=16 actual_time=35840
type=note_on channel=9 note=35 velocity=0 time=32 actual_time=35872
type=note_on channel=9 note=40 velocity=80 time=8 actual_time=35880
type=note_on channel=9 note=53 velocity=80 time=0 actual_time=35880
type=note_on channel=9 note=53 velocity=0 time=96 actual_time=35976
type=note_on channel=9 note=40 velocity=0 time=0 actual_time=35976
type=note_on channel=9 note=35 velocity=80 time=24 actual_time=36000
type=note_on channel=9 note=53 velocity=80 time=0 actual_time=36000
type=note_on channel=9 note=53 velocity=0 time=96 actual_time=36096
type=note_on channel=9 note=35 velocity=0 time=0 actual_time=36096
type=note_on channel=9 note=40 velocity=80 time=24 actual_time=36120
type=note_on channel=9 note=53 velocity=80 time=0 actual_time=36120
type=note_on channel=9 note=53 velocity=0 time=96 actual_time=36216
type=note_on channel=9 note=40 velocity=0 time=0 actual_time=36216
type=note_on channel=9 note=53 velocity=80 time=24 actual_time=36240
type=note_on channel=9 note=53 velocity=0 time=64 actual_time=36304
type=note_on channel=9 note=35 velocity=80 time=16 actual_time=36320
type=note_on channel=9 note=35 velocity=0 time=32 actual_time=36352
type=note_on channel=9 note=53 velocity=80 time=8 actual_time=36360
type=note_on channel=9 note=40 velocity=80 time=0 actual_time=36360
type=note_on channel=9 note=40 velocity=0 time=96 actual_time=36456
type=note_on channel=9 note=53 velocity=0 time=0 actual_time=36456
type=note_on channel=9 note=35 velocity=80 time=24 actual_time=36480
type=note_on channel=9 note=53 velocity=80 time=0 actual_time=36480
type=note_on channel=9 note=53 velocity=0 time=96 actual_time=36576
type=note_on channel=9 note=35 velocity=0 time=0 actual_time=36576
type=note_on channel=9 note=40 velocity=80 time=24 actual_time=36600
type=note_on channel=9 note=53 velocity=80 time=0 actual_time=36600
type=note_on channel=9 note=53 velocity=0 time=96 actual_time=36696
type=note_on channel=9 note=40 velocity=0 time=0 actual_time=36696
type=note_on channel=9 note=53 velocity=80 time=24 actual_time=36720
type=note_on channel=9 note=53 velocity=0 time=64 actual_time=36784
type=note_on channel=9 note=35 velocity=80 time=16 actual_time=36800
type=note_on channel=9 note=35 velocity=0 time=32 actual_time=36832
type=note_on channel=9 note=53 velocity=80 time=8 actual_time=36840
type=note_on channel=9 note=40 velocity=80 time=0 actual_time=36840
type=note_on channel=9 note=40 velocity=0 time=96 actual_time=36936
type=note_on channel=9 note=53 velocity=0 time=0 actual_time=36936
type=note_on channel=9 note=53 velocity=80 time=24 actual_time=36960
type=note_on channel=9 note=35 velocity=80 time=0 actual_time=36960
type=note_on channel=9 note=35 velocity=0 time=96 actual_time=37056
type=note_on channel=9 note=53 velocity=0 time=0 actual_time=37056
type=note_on channel=9 note=53 velocity=80 time=24 actual_time=37080
type=note_on channel=9 note=40 velocity=80 time=0 actual_time=37080
type=note_on channel=9 note=40 velocity=0 time=96 actual_time=37176
type=note_on channel=9 note=53 velocity=0 time=0 actual_time=37176
type=note_on channel=9 note=53 velocity=80 time=24 actual_time=37200
type=note_on channel=9 note=53 velocity=0 time=64 actual_time=37264
type=note_on channel=9 note=35 velocity=80 time=16 actual_time=37280
type=note_on channel=9 note=35 velocity=0 time=32 actual_time=37312
type=note_on channel=9 note=40 velocity=80 time=8 actual_time=37320
type=note_on channel=9 note=53 velocity=80 time=0 actual_time=37320
type=note_on channel=9 note=53 velocity=0 time=96 actual_time=37416
type=note_on channel=9 note=40 velocity=0 time=0 actual_time=37416
type=note_on channel=9 note=53 velocity=80 time=24 actual_time=37440
type=note_on channel=9 note=35 velocity=80 time=0 actual_time=37440
type=note_on channel=9 note=35 velocity=0 time=96 actual_time=37536
type=note_on channel=9 note=53 velocity=0 time=0 actual_time=37536
type=note_on channel=9 note=53 velocity=80 time=24 actual_time=37560
type=note_on channel=9 note=40 velocity=80 time=0 actual_time=37560
type=note_on channel=9 note=40 velocity=0 time=96 actual_time=37656
type=note_on channel=9 note=53 velocity=0 time=0 actual_time=37656
type=note_on channel=9 note=53 velocity=80 time=24 actual_time=37680
type=note_on channel=9 note=53 velocity=0 time=64 actual_time=37744
type=note_on channel=9 note=35 velocity=80 time=16 actual_time=37760
type=note_on channel=9 note=35 velocity=0 time=32 actual_time=37792
type=note_on channel=9 note=40 velocity=80 time=8 actual_time=37800
type=note_on channel=9 note=53 velocity=80 time=0 actual_time=37800
type=note_on channel=9 note=53 velocity=0 time=96 actual_time=37896
type=note_on channel=9 note=40 velocity=0 time=0 actual_time=37896
type=note_on channel=9 note=53 velocity=80 time=24 actual_time=37920
type=note_on channel=9 note=35 velocity=80 time=0 actual_time=37920
type=note_on channel=9 note=35 velocity=0 time=96 actual_time=38016
type=note_on channel=9 note=53 velocity=0 time=0 actual_time=38016
type=note_on channel=9 note=53 velocity=80 time=24 actual_time=38040
type=note_on channel=9 note=40 velocity=80 time=0 actual_time=38040
type=note_on channel=9 note=40 velocity=0 time=96 actual_time=38136
type=note_on channel=9 note=53 velocity=0 time=0 actual_time=38136
type=note_on channel=9 note=40 velocity=80 time=24 actual_time=38160
type=note_on channel=9 note=47 velocity=80 time=0 actual_time=38160
type=note_on channel=9 note=47 velocity=0 time=32 actual_time=38192
type=note_on channel=9 note=40 velocity=0 time=0 actual_time=38192
type=note_on channel=9 note=45 velocity=80 time=8 actual_time=38200
type=note_on channel=9 note=45 velocity=0 time=32 actual_time=38232
type=note_on channel=9 note=43 velocity=80 time=8 actual_time=38240
type=note_on channel=9 note=43 velocity=0 time=32 actual_time=38272
type=note_on channel=9 note=41 velocity=80 time=8 actual_time=38280
type=note_on channel=9 note=49 velocity=80 time=120 actual_time=38400
type=note_on channel=9 note=35 velocity=80 time=0 actual_time=38400
type=note_on channel=9 note=53 velocity=80 time=0 actual_time=38400
type=note_on channel=9 note=41 velocity=0 time=72 actual_time=38472
type=note_on channel=9 note=49 velocity=0 time=24 actual_time=38496
type=note_on channel=9 note=35 velocity=0 time=0 actual_time=38496
type=note_on channel=9 note=53 velocity=0 time=0 actual_time=38496
type=note_on channel=9 note=40 velocity=80 time=24 actual_time=38520
type=note_on channel=9 note=53 velocity=80 time=0 actual_time=38520
type=note_on channel=9 note=53 velocity=0 time=96 actual_time=38616
type=note_on channel=9 note=40 velocity=0 time=0 actual_time=38616
type=note_on channel=9 note=53 velocity=80 time=24 actual_time=38640
type=note_on channel=9 note=53 velocity=0 time=64 actual_time=38704
type=note_on channel=9 note=35 velocity=80 time=16 actual_time=38720
type=note_on channel=9 note=35 velocity=0 time=32 actual_time=38752
type=note_on channel=9 note=53 velocity=80 time=8 actual_time=38760
type=note_on channel=9 note=40 velocity=80 time=0 actual_time=38760
type=note_on channel=9 note=40 velocity=0 time=96 actual_time=38856
type=note_on channel=9 note=53 velocity=0 time=0 actual_time=38856
type=note_on channel=9 note=53 velocity=80 time=24 actual_time=38880
type=note_on channel=9 note=35 velocity=80 time=0 actual_time=38880
type=note_on channel=9 note=35 velocity=0 time=96 actual_time=38976
type=note_on channel=9 note=53 velocity=0 time=0 actual_time=38976
type=note_on channel=9 note=53 velocity=80 time=24 actual_time=39000
type=note_on channel=9 note=40 velocity=80 time=0 actual_time=39000
type=note_on channel=9 note=40 velocity=0 time=96 actual_time=39096
type=note_on channel=9 note=53 velocity=0 time=0 actual_time=39096
type=note_on channel=9 note=53 velocity=80 time=24 actual_time=39120
type=note_on channel=9 note=53 velocity=0 time=64 actual_time=39184
type=note_on channel=9 note=35 velocity=80 time=16 actual_time=39200
type=note_on channel=9 note=35 velocity=0 time=32 actual_time=39232
type=note_on channel=9 note=40 velocity=80 time=8 actual_time=39240
type=note_on channel=9 note=53 velocity=80 time=0 actual_time=39240
type=note_on channel=9 note=53 velocity=0 time=96 actual_time=39336
type=note_on channel=9 note=40 velocity=0 time=0 actual_time=39336
type=note_on channel=9 note=53 velocity=80 time=24 actual_time=39360
type=note_on channel=9 note=35 velocity=80 time=0 actual_time=39360
type=note_on channel=9 note=35 velocity=0 time=96 actual_time=39456
type=note_on channel=9 note=53 velocity=0 time=0 actual_time=39456
type=note_on channel=9 note=53 velocity=80 time=24 actual_time=39480
type=note_on channel=9 note=40 velocity=80 time=0 actual_time=39480
type=note_on channel=9 note=40 velocity=0 time=96 actual_time=39576
type=note_on channel=9 note=53 velocity=0 time=0 actual_time=39576
type=note_on channel=9 note=53 velocity=80 time=24 actual_time=39600
type=note_on channel=9 note=53 velocity=0 time=64 actual_time=39664
type=note_on channel=9 note=35 velocity=80 time=16 actual_time=39680
type=note_on channel=9 note=35 velocity=0 time=32 actual_time=39712
type=note_on channel=9 note=40 velocity=80 time=8 actual_time=39720
type=note_on channel=9 note=53 velocity=80 time=0 actual_time=39720
type=note_on channel=9 note=53 velocity=0 time=96 actual_time=39816
type=note_on channel=9 note=40 velocity=0 time=0 actual_time=39816
type=note_on channel=9 note=35 velocity=80 time=24 actual_time=39840
type=note_on channel=9 note=53 velocity=80 time=0 actual_time=39840
type=note_on channel=9 note=53 velocity=0 time=96 actual_time=39936
type=note_on channel=9 note=35 velocity=0 time=0 actual_time=39936
type=note_on channel=9 note=40 velocity=80 time=24 actual_time=39960
type=note_on channel=9 note=53 velocity=80 time=0 actual_time=39960
type=note_on channel=9 note=53 velocity=0 time=96 actual_time=40056
type=note_on channel=9 note=40 velocity=0 time=0 actual_time=40056
type=note_on channel=9 note=53 velocity=80 time=24 actual_time=40080
type=note_on channel=9 note=53 velocity=0 time=64 actual_time=40144
type=note_on channel=9 note=35 velocity=80 time=16 actual_time=40160
type=note_on channel=9 note=35 velocity=0 time=32 actual_time=40192
type=note_on channel=9 note=53 velocity=80 time=8 actual_time=40200
type=note_on channel=9 note=40 velocity=80 time=0 actual_time=40200
type=note_on channel=9 note=40 velocity=0 time=96 actual_time=40296
type=note_on channel=9 note=53 velocity=0 time=0 actual_time=40296
type=note_on channel=9 note=53 velocity=80 time=24 actual_time=40320
type=note_on channel=9 note=35 velocity=80 time=0 actual_time=40320
type=note_on channel=9 note=49 velocity=80 time=0 actual_time=40320
type=note_on channel=9 note=49 velocity=0 time=96 actual_time=40416
type=note_on channel=9 note=35 velocity=0 time=0 actual_time=40416
type=note_on channel=9 note=53 velocity=0 time=0 actual_time=40416
type=note_on channel=9 note=53 velocity=80 time=24 actual_time=40440
type=note_on channel=9 note=40 velocity=80 time=0 actual_time=40440
type=note_on channel=9 note=40 velocity=0 time=96 actual_time=40536
type=note_on channel=9 note=53 velocity=0 time=0 actual_time=40536
type=note_on channel=9 note=53 velocity=80 time=24 actual_time=40560
type=note_on channel=9 note=53 velocity=0 time=64 actual_time=40624
type=note_on channel=9 note=35 velocity=80 time=16 actual_time=40640
type=note_on channel=9 note=35 velocity=0 time=32 actual_time=40672
type=note_on channel=9 note=53 velocity=80 time=8 actual_time=40680
type=note_on channel=9 note=40 velocity=80 time=0 actual_time=40680
type=note_on channel=9 note=40 velocity=0 time=96 actual_time=40776
type=note_on channel=9 note=53 velocity=0 time=0 actual_time=40776
type=note_on channel=9 note=53 velocity=80 time=24 actual_time=40800
type=note_on channel=9 note=35 velocity=80 time=0 actual_time=40800
type=note_on channel=9 note=35 velocity=0 time=96 actual_time=40896
type=note_on channel=9 note=53 velocity=0 time=0 actual_time=40896
type=note_on channel=9 note=40 velocity=80 time=24 actual_time=40920
type=note_on channel=9 note=53 velocity=80 time=0 actual_time=40920
type=note_on channel=9 note=53 velocity=0 time=96 actual_time=41016
type=note_on channel=9 note=40 velocity=0 time=0 actual_time=41016
type=note_on channel=9 note=53 velocity=80 time=24 actual_time=41040
type=note_on channel=9 note=53 velocity=0 time=64 actual_time=41104
type=note_on channel=9 note=35 velocity=80 time=16 actual_time=41120
type=note_on channel=9 note=35 velocity=0 time=32 actual_time=41152
type=note_on channel=9 note=53 velocity=80 time=8 actual_time=41160
type=note_on channel=9 note=40 velocity=80 time=0 actual_time=41160
type=note_on channel=9 note=40 velocity=0 time=96 actual_time=41256
type=note_on channel=9 note=53 velocity=0 time=0 actual_time=41256
type=note_on channel=9 note=35 velocity=80 time=24 actual_time=41280
type=note_on channel=9 note=53 velocity=80 time=0 actual_time=41280
type=note_on channel=9 note=53 velocity=0 time=96 actual_time=41376
type=note_on channel=9 note=35 velocity=0 time=0 actual_time=41376
type=note_on channel=9 note=40 velocity=80 time=24 actual_time=41400
type=note_on channel=9 note=53 velocity=80 time=0 actual_time=41400
type=note_on channel=9 note=53 velocity=0 time=96 actual_time=41496
type=note_on channel=9 note=40 velocity=0 time=0 actual_time=41496
type=note_on channel=9 note=53 velocity=80 time=24 actual_time=41520
type=note_on channel=9 note=53 velocity=0 time=64 actual_time=41584
type=note_on channel=9 note=35 velocity=80 time=16 actual_time=41600
type=note_on channel=9 note=35 velocity=0 time=32 actual_time=41632
type=note_on channel=9 note=53 velocity=80 time=8 actual_time=41640
type=note_on channel=9 note=40 velocity=80 time=0 actual_time=41640
type=note_on channel=9 note=40 velocity=0 time=96 actual_time=41736
type=note_on channel=9 note=53 velocity=0 time=0 actual_time=41736
type=note_on channel=9 note=53 velocity=80 time=24 actual_time=41760
type=note_on channel=9 note=35 velocity=80 time=0 actual_time=41760
type=note_on channel=9 note=35 velocity=0 time=96 actual_time=41856
type=note_on channel=9 note=53 velocity=0 time=0 actual_time=41856
type=note_on channel=9 note=53 velocity=80 time=24 actual_time=41880
type=note_on channel=9 note=40 velocity=80 time=0 actual_time=41880
type=note_on channel=9 note=40 velocity=0 time=96 actual_time=41976
type=note_on channel=9 note=53 velocity=0 time=0 actual_time=41976
type=note_on channel=9 note=53 velocity=80 time=24 actual_time=42000
type=note_on channel=9 note=53 velocity=0 time=64 actual_time=42064
type=note_on channel=9 note=35 velocity=80 time=16 actual_time=42080
type=note_on channel=9 note=35 velocity=0 time=32 actual_time=42112
type=note_on channel=9 note=40 velocity=80 time=8 actual_time=42120
type=note_on channel=9 note=53 velocity=80 time=0 actual_time=42120
type=note_on channel=9 note=53 velocity=0 time=96 actual_time=42216
type=note_on channel=9 note=40 velocity=0 time=0 actual_time=42216
type=note_on channel=9 note=53 velocity=80 time=24 actual_time=42240
type=note_on channel=9 note=35 velocity=80 time=0 actual_time=42240
type=note_on channel=9 note=49 velocity=80 time=0 actual_time=42240
type=note_on channel=9 note=49 velocity=0 time=96 actual_time=42336
type=note_on channel=9 note=35 velocity=0 time=0 actual_time=42336
type=note_on channel=9 note=53 velocity=0 time=0 actual_time=42336
type=note_on channel=9 note=53 velocity=80 time=24 actual_time=42360
type=note_on channel=9 note=40 velocity=80 time=0 actual_time=42360
type=note_on channel=9 note=40 velocity=0 time=96 actual_time=42456
type=note_on channel=9 note=53 velocity=0 time=0 actual_time=42456
type=note_on channel=9 note=53 velocity=80 time=24 actual_time=42480
type=note_on channel=9 note=53 velocity=0 time=64 actual_time=42544
type=note_on channel=9 note=35 velocity=80 time=16 actual_time=42560
type=note_on channel=9 note=35 velocity=0 time=32 actual_time=42592
type=note_on channel=9 note=40 velocity=80 time=8 actual_time=42600
type=note_on channel=9 note=53 velocity=80 time=0 actual_time=42600
type=note_on channel=9 note=53 velocity=0 time=96 actual_time=42696
type=note_on channel=9 note=40 velocity=0 time=0 actual_time=42696
type=note_on channel=9 note=35 velocity=80 time=24 actual_time=42720
type=note_on channel=9 note=53 velocity=80 time=0 actual_time=42720
type=note_on channel=9 note=53 velocity=0 time=96 actual_time=42816
type=note_on channel=9 note=35 velocity=0 time=0 actual_time=42816
type=note_on channel=9 note=40 velocity=80 time=24 actual_time=42840
type=note_on channel=9 note=53 velocity=80 time=0 actual_time=42840
type=note_on channel=9 note=53 velocity=0 time=96 actual_time=42936
type=note_on channel=9 note=40 velocity=0 time=0 actual_time=42936
type=note_on channel=9 note=53 velocity=80 time=24 actual_time=42960
type=note_on channel=9 note=53 velocity=0 time=64 actual_time=43024
type=note_on channel=9 note=35 velocity=80 time=16 actual_time=43040
type=note_on channel=9 note=35 velocity=0 time=32 actual_time=43072
type=note_on channel=9 note=53 velocity=80 time=8 actual_time=43080
type=note_on channel=9 note=40 velocity=80 time=0 actual_time=43080
type=note_on channel=9 note=40 velocity=0 time=96 actual_time=43176
type=note_on channel=9 note=53 velocity=0 time=0 actual_time=43176
type=note_on channel=9 note=35 velocity=80 time=24 actual_time=43200
type=note_on channel=9 note=53 velocity=80 time=0 actual_time=43200
type=note_on channel=9 note=53 velocity=0 time=96 actual_time=43296
type=note_on channel=9 note=35 velocity=0 time=0 actual_time=43296
type=note_on channel=9 note=40 velocity=80 time=24 actual_time=43320
type=note_on channel=9 note=53 velocity=80 time=0 actual_time=43320
type=note_on channel=9 note=53 velocity=0 time=96 actual_time=43416
type=note_on channel=9 note=40 velocity=0 time=0 actual_time=43416
type=note_on channel=9 note=53 velocity=80 time=24 actual_time=43440
type=note_on channel=9 note=53 velocity=0 time=64 actual_time=43504
type=note_on channel=9 note=35 velocity=80 time=16 actual_time=43520
type=note_on channel=9 note=35 velocity=0 time=32 actual_time=43552
type=note_on channel=9 note=53 velocity=80 time=8 actual_time=43560
type=note_on channel=9 note=40 velocity=80 time=0 actual_time=43560
type=note_on channel=9 note=40 velocity=0 time=96 actual_time=43656
type=note_on channel=9 note=53 velocity=0 time=0 actual_time=43656
type=note_on channel=9 note=53 velocity=80 time=24 actual_time=43680
type=note_on channel=9 note=35 velocity=80 time=0 actual_time=43680
type=note_on channel=9 note=35 velocity=0 time=96 actual_time=43776
type=note_on channel=9 note=53 velocity=0 time=0 actual_time=43776
type=note_on channel=9 note=40 velocity=80 time=24 actual_time=43800
type=note_on channel=9 note=53 velocity=80 time=0 actual_time=43800
type=note_on channel=9 note=53 velocity=0 time=96 actual_time=43896
type=note_on channel=9 note=40 velocity=0 time=0 actual_time=43896
type=note_on channel=9 note=53 velocity=80 time=24 actual_time=43920
type=note_on channel=9 note=53 velocity=0 time=64 actual_time=43984
type=note_on channel=9 note=35 velocity=80 time=16 actual_time=44000
type=note_on channel=9 note=35 velocity=0 time=32 actual_time=44032
type=note_on channel=9 note=40 velocity=80 time=8 actual_time=44040
type=note_on channel=9 note=53 velocity=80 time=0 actual_time=44040
type=note_on channel=9 note=53 velocity=0 time=96 actual_time=44136
type=note_on channel=9 note=40 velocity=0 time=0 actual_time=44136
type=note_on channel=9 note=49 velocity=80 time=24 actual_time=44160
type=note_on channel=9 note=35 velocity=80 time=0 actual_time=44160
type=note_on channel=9 note=53 velocity=80 time=0 actual_time=44160
type=note_on channel=9 note=53 velocity=0 time=96 actual_time=44256
type=note_on channel=9 note=35 velocity=0 time=0 actual_time=44256
type=note_on channel=9 note=49 velocity=0 time=0 actual_time=44256
type=note_on channel=9 note=40 velocity=80 time=24 actual_time=44280
type=note_on channel=9 note=53 velocity=80 time=0 actual_time=44280
type=note_on channel=9 note=53 velocity=0 time=96 actual_time=44376
type=note_on channel=9 note=40 velocity=0 time=0 actual_time=44376
type=note_on channel=9 note=53 velocity=80 time=24 actual_time=44400
type=note_on channel=9 note=53 velocity=0 time=64 actual_time=44464
type=note_on channel=9 note=35 velocity=80 time=16 actual_time=44480
type=note_on channel=9 note=35 velocity=0 time=32 actual_time=44512
type=note_on channel=9 note=53 velocity=80 time=8 actual_time=44520
type=note_on channel=9 note=40 velocity=80 time=0 actual_time=44520
type=note_on channel=9 note=40 velocity=0 time=96 actual_time=44616
type=note_on channel=9 note=53 velocity=0 time=0 actual_time=44616
type=note_on channel=9 note=35 velocity=80 time=24 actual_time=44640
type=note_on channel=9 note=53 velocity=80 time=0 actual_time=44640
type=note_on channel=9 note=53 velocity=0 time=96 actual_time=44736
type=note_on channel=9 note=35 velocity=0 time=0 actual_time=44736
type=note_on channel=9 note=53 velocity=80 time=24 actual_time=44760
type=note_on channel=9 note=40 velocity=80 time=0 actual_time=44760
type=note_on channel=9 note=40 velocity=0 time=96 actual_time=44856
type=note_on channel=9 note=53 velocity=0 time=0 actual_time=44856
type=note_on channel=9 note=53 velocity=80 time=24 actual_time=44880
type=note_on channel=9 note=53 velocity=0 time=64 actual_time=44944
type=note_on channel=9 note=35 velocity=80 time=16 actual_time=44960
type=note_on channel=9 note=35 velocity=0 time=32 actual_time=44992
type=note_on channel=9 note=53 velocity=80 time=8 actual_time=45000
type=note_on channel=9 note=40 velocity=80 time=0 actual_time=45000
type=note_on channel=9 note=40 velocity=0 time=96 actual_time=45096
type=note_on channel=9 note=53 velocity=0 time=0 actual_time=45096
type=note_on channel=9 note=53 velocity=80 time=24 actual_time=45120
type=note_on channel=9 note=35 velocity=80 time=0 actual_time=45120
type=note_on channel=9 note=35 velocity=0 time=96 actual_time=45216
type=note_on channel=9 note=53 velocity=0 time=0 actual_time=45216
type=note_on channel=9 note=40 velocity=80 time=24 actual_time=45240
type=note_on channel=9 note=53 velocity=80 time=0 actual_time=45240
type=note_on channel=9 note=53 velocity=0 time=96 actual_time=45336
type=note_on channel=9 note=40 velocity=0 time=0 actual_time=45336
type=note_on channel=9 note=53 velocity=80 time=24 actual_time=45360
type=note_on channel=9 note=53 velocity=0 time=64 actual_time=45424
type=note_on channel=9 note=35 velocity=80 time=16 actual_time=45440
type=note_on channel=9 note=35 velocity=0 time=32 actual_time=45472
type=note_on channel=9 note=40 velocity=80 time=8 actual_time=45480
type=note_on channel=9 note=53 velocity=80 time=0 actual_time=45480
type=note_on channel=9 note=53 velocity=0 time=96 actual_time=45576
type=note_on channel=9 note=40 velocity=0 time=0 actual_time=45576
type=note_on channel=9 note=40 velocity=80 time=24 actual_time=45600
type=note_on channel=9 note=40 velocity=0 time=32 actual_time=45632
type=note_on channel=9 note=40 velocity=80 time=8 actual_time=45640
type=note_on channel=9 note=40 velocity=0 time=32 actual_time=45672
type=note_on channel=9 note=40 velocity=80 time=8 actual_time=45680
type=note_on channel=9 note=40 velocity=0 time=32 actual_time=45712
type=note_on channel=9 note=41 velocity=80 time=8 actual_time=45720
type=note_on channel=9 note=41 velocity=0 time=32 actual_time=45752
type=note_on channel=9 note=41 velocity=80 time=8 actual_time=45760
type=note_on channel=9 note=41 velocity=0 time=32 actual_time=45792
type=note_on channel=9 note=41 velocity=80 time=8 actual_time=45800
type=note_on channel=9 note=41 velocity=0 time=32 actual_time=45832
type=note_on channel=9 note=47 velocity=80 time=8 actual_time=45840
type=note_on channel=9 note=47 velocity=0 time=32 actual_time=45872
type=note_on channel=9 note=47 velocity=80 time=8 actual_time=45880
type=note_on channel=9 note=47 velocity=0 time=32 actual_time=45912
type=note_on channel=9 note=45 velocity=80 time=8 actual_time=45920
type=note_on channel=9 note=45 velocity=0 time=32 actual_time=45952
type=note_on channel=9 note=47 velocity=80 time=8 actual_time=45960
type=note_on channel=9 note=47 velocity=0 time=32 actual_time=45992
type=note_on channel=9 note=47 velocity=80 time=8 actual_time=46000
type=note_on channel=9 note=47 velocity=0 time=32 actual_time=46032
type=note_on channel=9 note=45 velocity=80 time=8 actual_time=46040
type=note_on channel=9 note=45 velocity=0 time=32 actual_time=46072
type=note_on channel=9 note=59 velocity=80 time=8 actual_time=46080
type=note_on channel=9 note=35 velocity=80 time=0 actual_time=46080
type=note_on channel=9 note=49 velocity=80 time=0 actual_time=46080
type=note_on channel=9 note=53 velocity=80 time=0 actual_time=46080
type=note_on channel=9 note=53 velocity=0 time=96 actual_time=46176
type=note_on channel=9 note=59 velocity=0 time=0 actual_time=46176
type=note_on channel=9 note=35 velocity=0 time=0 actual_time=46176
type=note_on channel=9 note=49 velocity=0 time=0 actual_time=46176
type=note_on channel=9 note=59 velocity=80 time=24 actual_time=46200
type=note_on channel=9 note=40 velocity=80 time=0 actual_time=46200
type=note_on channel=9 note=53 velocity=80 time=0 actual_time=46200
type=note_on channel=9 note=53 velocity=0 time=96 actual_time=46296
type=note_on channel=9 note=40 velocity=0 time=0 actual_time=46296
type=note_on channel=9 note=59 velocity=0 time=0 actual_time=46296
type=note_on channel=9 note=59 velocity=80 time=24 actual_time=46320
type=note_on channel=9 note=53 velocity=80 time=0 actual_time=46320
type=note_on channel=9 note=53 velocity=0 time=64 actual_time=46384
type=note_on channel=9 note=59 velocity=0 time=0 actual_time=46384
type=note_on channel=9 note=35 velocity=80 time=16 actual_time=46400
type=note_on channel=9 note=35 velocity=0 time=32 actual_time=46432
type=note_on channel=9 note=59 velocity=80 time=8 actual_time=46440
type=note_on channel=9 note=53 velocity=80 time=0 actual_time=46440
type=note_on channel=9 note=40 velocity=80 time=0 actual_time=46440
type=note_on channel=9 note=40 velocity=0 time=96 actual_time=46536
type=note_on channel=9 note=53 velocity=0 time=0 actual_time=46536
type=note_on channel=9 note=59 velocity=0 time=0 actual_time=46536
type=note_on channel=9 note=35 velocity=80 time=24 actual_time=46560
type=note_on channel=9 note=59 velocity=80 time=0 actual_time=46560
type=note_on channel=9 note=53 velocity=80 time=0 actual_time=46560
type=note_on channel=9 note=53 velocity=0 time=96 actual_time=46656
type=note_on channel=9 note=59 velocity=0 time=0 actual_time=46656
type=note_on channel=9 note=35 velocity=0 time=0 actual_time=46656
type=note_on channel=9 note=53 velocity=80 time=24 actual_time=46680
type=note_on channel=9 note=40 velocity=80 time=0 actual_time=46680
type=note_on channel=9 note=59 velocity=80 time=0 actual_time=46680
type=note_on channel=9 note=59 velocity=0 time=96 actual_time=46776
type=note_on channel=9 note=40 velocity=0 time=0 actual_time=46776
type=note_on channel=9 note=53 velocity=0 time=0 actual_time=46776
type=note_on channel=9 note=53 velocity=80 time=24 actual_time=46800
type=note_on channel=9 note=59 velocity=80 time=0 actual_time=46800
type=note_on channel=9 note=59 velocity=0 time=64 actual_time=46864
type=note_on channel=9 note=53 velocity=0 time=0 actual_time=46864
type=note_on channel=9 note=35 velocity=80 time=16 actual_time=46880
type=note_on channel=9 note=35 velocity=0 time=32 actual_time=46912
type=note_on channel=9 note=40 velocity=80 time=8 actual_time=46920
type=note_on channel=9 note=53 velocity=80 time=0 actual_time=46920
type=note_on channel=9 note=59 velocity=80 time=0 actual_time=46920
type=note_on channel=9 note=59 velocity=0 time=96 actual_time=47016
type=note_on channel=9 note=53 velocity=0 time=0 actual_time=47016
type=note_on channel=9 note=40 velocity=0 time=0 actual_time=47016
type=note_on channel=9 note=53 velocity=80 time=24 actual_time=47040
type=note_on channel=9 note=49 velocity=80 time=0 actual_time=47040
type=note_on channel=9 note=35 velocity=80 time=0 actual_time=47040
type=note_on channel=9 note=59 velocity=80 time=0 actual_time=47040
type=note_on channel=9 note=59 velocity=0 time=96 actual_time=47136
type=note_on channel=9 note=53 velocity=0 time=0 actual_time=47136
type=note_on channel=9 note=49 velocity=0 time=0 actual_time=47136
type=note_on channel=9 note=35 velocity=0 time=0 actual_time=47136
type=note_on channel=9 note=53 velocity=80 time=24 actual_time=47160
type=note_on channel=9 note=40 velocity=80 time=0 actual_time=47160
type=note_on channel=9 note=59 velocity=80 time=0 actual_time=47160
type=note_on channel=9 note=59 velocity=0 time=96 actual_time=47256
type=note_on channel=9 note=40 velocity=0 time=0 actual_time=47256
type=note_on channel=9 note=53 velocity=0 time=0 actual_time=47256
type=note_on channel=9 note=53 velocity=80 time=24 actual_time=47280
type=note_on channel=9 note=59 velocity=80 time=0 actual_time=47280
type=note_on channel=9 note=59 velocity=0 time=64 actual_time=47344
type=note_on channel=9 note=53 velocity=0 time=0 actual_time=47344
type=note_on channel=9 note=35 velocity=80 time=16 actual_time=47360
type=note_on channel=9 note=35 velocity=0 time=32 actual_time=47392
type=note_on channel=9 note=40 velocity=80 time=8 actual_time=47400
type=note_on channel=9 note=53 velocity=80 time=0 actual_time=47400
type=note_on channel=9 note=59 velocity=80 time=0 actual_time=47400
type=note_on channel=9 note=59 velocity=0 time=96 actual_time=47496
type=note_on channel=9 note=53 velocity=0 time=0 actual_time=47496
type=note_on channel=9 note=40 velocity=0 time=0 actual_time=47496
type=note_on channel=9 note=35 velocity=80 time=24 actual_time=47520
type=note_on channel=9 note=53 velocity=80 time=0 actual_time=47520
type=note_on channel=9 note=59 velocity=80 time=0 actual_time=47520
type=note_on channel=9 note=59 velocity=0 time=64 actual_time=47584
type=note_on channel=9 note=53 velocity=0 time=0 actual_time=47584
type=note_on channel=9 note=35 velocity=0 time=0 actual_time=47584
type=note_on channel=9 note=35 velocity=80 time=16 actual_time=47600
type=note_on channel=9 note=35 velocity=0 time=32 actual_time=47632
type=note_on channel=9 note=49 velocity=80 time=8 actual_time=47640
type=note_on channel=9 note=40 velocity=80 time=0 actual_time=47640
type=note_on channel=9 note=53 velocity=80 time=0 actual_time=47640
type=note_on channel=9 note=59 velocity=80 time=0 actual_time=47640
type=note_on channel=9 note=59 velocity=0 time=96 actual_time=47736
type=note_on channel=9 note=49 velocity=0 time=0 actual_time=47736
type=note_on channel=9 note=40 velocity=0 time=0 actual_time=47736
type=note_on channel=9 note=53 velocity=0 time=0 actual_time=47736
type=note_on channel=9 note=35 velocity=80 time=24 actual_time=47760
type=note_on channel=9 note=53 velocity=80 time=0 actual_time=47760
type=note_on channel=9 note=59 velocity=80 time=0 actual_time=47760
type=note_on channel=9 note=59 velocity=0 time=64 actual_time=47824
type=note_on channel=9 note=53 velocity=0 time=0 actual_time=47824
type=note_on channel=9 note=35 velocity=0 time=0 actual_time=47824
type=note_on channel=9 note=35 velocity=80 time=16 actual_time=47840
type=note_on channel=9 note=35 velocity=0 time=32 actual_time=47872
type=note_on channel=9 note=49 velocity=80 time=8 actual_time=47880
type=note_on channel=9 note=40 velocity=80 time=0 actual_time=47880
type=note_on channel=9 note=53 velocity=80 time=0 actual_time=47880
type=note_on channel=9 note=59 velocity=80 time=0 actual_time=47880
type=note_on channel=9 note=59 velocity=0 time=96 actual_time=47976
type=note_on channel=9 note=49 velocity=0 time=0 actual_time=47976
type=note_on channel=9 note=40 velocity=0 time=0 actual_time=47976
type=note_on channel=9 note=53 velocity=0 time=0 actual_time=47976
type=note_on channel=9 note=53 velocity=80 time=24 actual_time=48000
type=note_on channel=9 note=49 velocity=80 time=0 actual_time=48000
type=note_on channel=9 note=35 velocity=80 time=0 actual_time=48000
type=note_on channel=9 note=59 velocity=80 time=0 actual_time=48000
type=note_on channel=9 note=59 velocity=0 time=96 actual_time=48096
type=note_on channel=9 note=53 velocity=0 time=0 actual_time=48096
type=note_on channel=9 note=49 velocity=0 time=0 actual_time=48096
type=note_on channel=9 note=35 velocity=0 time=0 actual_time=48096
type=note_on channel=9 note=53 velocity=80 time=24 actual_time=48120
type=note_on channel=9 note=40 velocity=80 time=0 actual_time=48120
type=note_on channel=9 note=59 velocity=80 time=0 actual_time=48120
type=note_on channel=9 note=59 velocity=0 time=96 actual_time=48216
type=note_on channel=9 note=40 velocity=0 time=0 actual_time=48216
type=note_on channel=9 note=53 velocity=0 time=0 actual_time=48216
type=note_on channel=9 note=53 velocity=80 time=24 actual_time=48240
type=note_on channel=9 note=59 velocity=80 time=0 actual_time=48240
type=note_on channel=9 note=59 velocity=0 time=64 actual_time=48304
type=note_on channel=9 note=53 velocity=0 time=0 actual_time=48304
type=note_on channel=9 note=35 velocity=80 time=16 actual_time=48320
type=note_on channel=9 note=35 velocity=0 time=32 actual_time=48352
type=note_on channel=9 note=40 velocity=80 time=8 actual_time=48360
type=note_on channel=9 note=53 velocity=80 time=0 actual_time=48360
type=note_on channel=9 note=59 velocity=80 time=0 actual_time=48360
type=note_on channel=9 note=59 velocity=0 time=96 actual_time=48456
type=note_on channel=9 note=53 velocity=0 time=0 actual_time=48456
type=note_on channel=9 note=40 velocity=0 time=0 actual_time=48456
type=note_on channel=9 note=53 velocity=80 time=24 actual_time=48480
type=note_on channel=9 note=59 velocity=80 time=0 actual_time=48480
type=note_on channel=9 note=35 velocity=80 time=0 actual_time=48480
type=note_on channel=9 note=35 velocity=0 time=96 actual_time=48576
type=note_on channel=9 note=59 velocity=0 time=0 actual_time=48576
type=note_on channel=9 note=53 velocity=0 time=0 actual_time=48576
type=note_on channel=9 note=59 velocity=80 time=24 actual_time=48600
type=note_on channel=9 note=40 velocity=80 time=0 actual_time=48600
type=note_on channel=9 note=53 velocity=80 time=0 actual_time=48600
type=note_on channel=9 note=53 velocity=0 time=96 actual_time=48696
type=note_on channel=9 note=40 velocity=0 time=0 actual_time=48696
type=note_on channel=9 note=59 velocity=0 time=0 actual_time=48696
type=note_on channel=9 note=59 velocity=80 time=24 actual_time=48720
type=note_on channel=9 note=53 velocity=80 time=0 actual_time=48720
type=note_on channel=9 note=53 velocity=0 time=64 actual_time=48784
type=note_on channel=9 note=59 velocity=0 time=0 actual_time=48784
type=note_on channel=9 note=35 velocity=80 time=16 actual_time=48800
type=note_on channel=9 note=35 velocity=0 time=32 actual_time=48832
type=note_on channel=9 note=59 velocity=80 time=8 actual_time=48840
type=note_on channel=9 note=53 velocity=80 time=0 actual_time=48840
type=note_on channel=9 note=40 velocity=80 time=0 actual_time=48840
type=note_on channel=9 note=40 velocity=0 time=96 actual_time=48936
type=note_on channel=9 note=53 velocity=0 time=0 actual_time=48936
type=note_on channel=9 note=59 velocity=0 time=0 actual_time=48936
type=note_on channel=9 note=59 velocity=80 time=24 actual_time=48960
type=note_on channel=9 note=35 velocity=80 time=0 actual_time=48960
type=note_on channel=9 note=49 velocity=80 time=0 actual_time=48960
type=note_on channel=9 note=53 velocity=80 time=0 actual_time=48960
type=note_on channel=9 note=53 velocity=0 time=96 actual_time=49056
type=note_on channel=9 note=59 velocity=0 time=0 actual_time=49056
type=note_on channel=9 note=35 velocity=0 time=0 actual_time=49056
type=note_on channel=9 note=49 velocity=0 time=0 actual_time=49056
type=note_on channel=9 note=59 velocity=80 time=24 actual_time=49080
type=note_on channel=9 note=40 velocity=80 time=0 actual_time=49080
type=note_on channel=9 note=53 velocity=80 time=0 actual_time=49080
type=note_on channel=9 note=53 velocity=0 time=96 actual_time=49176
type=note_on channel=9 note=40 velocity=0 time=0 actual_time=49176
type=note_on channel=9 note=59 velocity=0 time=0 actual_time=49176
type=note_on channel=9 note=59 velocity=80 time=24 actual_time=49200
type=note_on channel=9 note=53 velocity=80 time=0 actual_time=49200
type=note_on channel=9 note=53 velocity=0 time=64 actual_time=49264
type=note_on channel=9 note=59 velocity=0 time=0 actual_time=49264
type=note_on channel=9 note=35 velocity=80 time=16 actual_time=49280
type=note_on channel=9 note=35 velocity=0 time=32 actual_time=49312
type=note_on channel=9 note=59 velocity=80 time=8 actual_time=49320
type=note_on channel=9 note=53 velocity=80 time=0 actual_time=49320
type=note_on channel=9 note=40 velocity=80 time=0 actual_time=49320
type=note_on channel=9 note=40 velocity=0 time=96 actual_time=49416
type=note_on channel=9 note=53 velocity=0 time=0 actual_time=49416
type=note_on channel=9 note=59 velocity=0 time=0 actual_time=49416
type=note_on channel=9 note=59 velocity=80 time=24 actual_time=49440
type=note_on channel=9 note=53 velocity=80 time=0 actual_time=49440
type=note_on channel=9 note=35 velocity=80 time=0 actual_time=49440
type=note_on channel=9 note=35 velocity=0 time=64 actual_time=49504
type=note_on channel=9 note=53 velocity=0 time=0 actual_time=49504
type=note_on channel=9 note=59 velocity=0 time=0 actual_time=49504
type=note_on channel=9 note=35 velocity=80 time=16 actual_time=49520
type=note_on channel=9 note=35 velocity=0 time=32 actual_time=49552
type=note_on channel=9 note=59 velocity=80 time=8 actual_time=49560
type=note_on channel=9 note=53 velocity=80 time=0 actual_time=49560
type=note_on channel=9 note=40 velocity=80 time=0 actual_time=49560
type=note_on channel=9 note=49 velocity=80 time=0 actual_time=49560
type=note_on channel=9 note=49 velocity=0 time=96 actual_time=49656
type=note_on channel=9 note=59 velocity=0 time=0 actual_time=49656
type=note_on channel=9 note=53 velocity=0 time=0 actual_time=49656
type=note_on channel=9 note=40 velocity=0 time=0 actual_time=49656
type=note_on channel=9 note=59 velocity=80 time=24 actual_time=49680
type=note_on channel=9 note=53 velocity=80 time=0 actual_time=49680
type=note_on channel=9 note=35 velocity=80 time=0 actual_time=49680
type=note_on channel=9 note=35 velocity=0 time=64 actual_time=49744
type=note_on channel=9 note=53 velocity=0 time=0 actual_time=49744
type=note_on channel=9 note=59 velocity=0 time=0 actual_time=49744
type=note_on channel=9 note=35 velocity=80 time=16 actual_time=49760
type=note_on channel=9 note=35 velocity=0 time=32 actual_time=49792
type=note_on channel=9 note=59 velocity=80 time=8 actual_time=49800
type=note_on channel=9 note=53 velocity=80 time=0 actual_time=49800
type=note_on channel=9 note=40 velocity=80 time=0 actual_time=49800
type=note_on channel=9 note=49 velocity=80 time=0 actual_time=49800
type=note_on channel=9 note=49 velocity=0 time=96 actual_time=49896
type=note_on channel=9 note=59 velocity=0 time=0 actual_time=49896
type=note_on channel=9 note=53 velocity=0 time=0 actual_time=49896
type=note_on channel=9 note=40 velocity=0 time=0 actual_time=49896
type=note_on channel=9 note=53 velocity=80 time=24 actual_time=49920
type=note_on channel=9 note=49 velocity=80 time=0 actual_time=49920
type=note_on channel=9 note=35 velocity=80 time=0 actual_time=49920
type=note_on channel=9 note=59 velocity=80 time=0 actual_time=49920
type=note_on channel=9 note=59 velocity=0 time=96 actual_time=50016
type=note_on channel=9 note=53 velocity=0 time=0 actual_time=50016
type=note_on channel=9 note=49 velocity=0 time=0 actual_time=50016
type=note_on channel=9 note=35 velocity=0 time=0 actual_time=50016
type=note_on channel=9 note=53 velocity=80 time=24 actual_time=50040
type=note_on channel=9 note=40 velocity=80 time=0 actual_time=50040
type=note_on channel=9 note=59 velocity=80 time=0 actual_time=50040
type=note_on channel=9 note=59 velocity=0 time=96 actual_time=50136
type=note_on channel=9 note=40 velocity=0 time=0 actual_time=50136
type=note_on channel=9 note=53 velocity=0 time=0 actual_time=50136
type=note_on channel=9 note=53 velocity=80 time=24 actual_time=50160
type=note_on channel=9 note=59 velocity=80 time=0 actual_time=50160
type=note_on channel=9 note=59 velocity=0 time=64 actual_time=50224
type=note_on channel=9 note=53 velocity=0 time=0 actual_time=50224
type=note_on channel=9 note=35 velocity=80 time=16 actual_time=50240
type=note_on channel=9 note=35 velocity=0 time=32 actual_time=50272
type=note_on channel=9 note=40 velocity=80 time=8 actual_time=50280
type=note_on channel=9 note=53 velocity=80 time=0 actual_time=50280
type=note_on channel=9 note=59 velocity=80 time=0 actual_time=50280
type=note_on channel=9 note=59 velocity=0 time=96 actual_time=50376
type=note_on channel=9 note=53 velocity=0 time=0 actual_time=50376
type=note_on channel=9 note=40 velocity=0 time=0 actual_time=50376
type=note_on channel=9 note=53 velocity=80 time=24 actual_time=50400
type=note_on channel=9 note=59 velocity=80 time=0 actual_time=50400
type=note_on channel=9 note=35 velocity=80 time=0 actual_time=50400
type=note_on channel=9 note=35 velocity=0 time=96 actual_time=50496
type=note_on channel=9 note=59 velocity=0 time=0 actual_time=50496
type=note_on channel=9 note=53 velocity=0 time=0 actual_time=50496
type=note_on channel=9 note=59 velocity=80 time=24 actual_time=50520
type=note_on channel=9 note=40 velocity=80 time=0 actual_time=50520
type=note_on channel=9 note=53 velocity=80 time=0 actual_time=50520
type=note_on channel=9 note=53 velocity=0 time=96 actual_time=50616
type=note_on channel=9 note=40 velocity=0 time=0 actual_time=50616
type=note_on channel=9 note=59 velocity=0 time=0 actual_time=50616
type=note_on channel=9 note=59 velocity=80 time=24 actual_time=50640
type=note_on channel=9 note=53 velocity=80 time=0 actual_time=50640
type=note_on channel=9 note=53 velocity=0 time=64 actual_time=50704
type=note_on channel=9 note=59 velocity=0 time=0 actual_time=50704
type=note_on channel=9 note=35 velocity=80 time=16 actual_time=50720
type=note_on channel=9 note=35 velocity=0 time=32 actual_time=50752
type=note_on channel=9 note=59 velocity=80 time=8 actual_time=50760
type=note_on channel=9 note=53 velocity=80 time=0 actual_time=50760
type=note_on channel=9 note=40 velocity=80 time=0 actual_time=50760
type=note_on channel=9 note=40 velocity=0 time=96 actual_time=50856
type=note_on channel=9 note=53 velocity=0 time=0 actual_time=50856
type=note_on channel=9 note=59 velocity=0 time=0 actual_time=50856
type=note_on channel=9 note=59 velocity=80 time=24 actual_time=50880
type=note_on channel=9 note=35 velocity=80 time=0 actual_time=50880
type=note_on channel=9 note=49 velocity=80 time=0 actual_time=50880
type=note_on channel=9 note=53 velocity=80 time=0 actual_time=50880
type=note_on channel=9 note=53 velocity=0 time=96 actual_time=50976
type=note_on channel=9 note=59 velocity=0 time=0 actual_time=50976
type=note_on channel=9 note=35 velocity=0 time=0 actual_time=50976
type=note_on channel=9 note=49 velocity=0 time=0 actual_time=50976
type=note_on channel=9 note=59 velocity=80 time=24 actual_time=51000
type=note_on channel=9 note=40 velocity=80 time=0 actual_time=51000
type=note_on channel=9 note=53 velocity=80 time=0 actual_time=51000
type=note_on channel=9 note=53 velocity=0 time=96 actual_time=51096
type=note_on channel=9 note=40 velocity=0 time=0 actual_time=51096
type=note_on channel=9 note=59 velocity=0 time=0 actual_time=51096
type=note_on channel=9 note=59 velocity=80 time=24 actual_time=51120
type=note_on channel=9 note=53 velocity=80 time=0 actual_time=51120
type=note_on channel=9 note=53 velocity=0 time=64 actual_time=51184
type=note_on channel=9 note=59 velocity=0 time=0 actual_time=51184
type=note_on channel=9 note=35 velocity=80 time=16 actual_time=51200
type=note_on channel=9 note=35 velocity=0 time=32 actual_time=51232
type=note_on channel=9 note=59 velocity=80 time=8 actual_time=51240
type=note_on channel=9 note=53 velocity=80 time=0 actual_time=51240
type=note_on channel=9 note=40 velocity=80 time=0 actual_time=51240
type=note_on channel=9 note=40 velocity=0 time=96 actual_time=51336
type=note_on channel=9 note=53 velocity=0 time=0 actual_time=51336
type=note_on channel=9 note=59 velocity=0 time=0 actual_time=51336
type=note_on channel=9 note=59 velocity=80 time=24 actual_time=51360
type=note_on channel=9 note=53 velocity=80 time=0 actual_time=51360
type=note_on channel=9 note=35 velocity=80 time=0 actual_time=51360
type=note_on channel=9 note=35 velocity=0 time=64 actual_time=51424
type=note_on channel=9 note=53 velocity=0 time=0 actual_time=51424
type=note_on channel=9 note=59 velocity=0 time=0 actual_time=51424
type=note_on channel=9 note=35 velocity=80 time=16 actual_time=51440
type=note_on channel=9 note=35 velocity=0 time=32 actual_time=51472
type=note_on channel=9 note=59 velocity=80 time=8 actual_time=51480
type=note_on channel=9 note=53 velocity=80 time=0 actual_time=51480
type=note_on channel=9 note=40 velocity=80 time=0 actual_time=51480
type=note_on channel=9 note=49 velocity=80 time=0 actual_time=51480
type=note_on channel=9 note=49 velocity=0 time=96 actual_time=51576
type=note_on channel=9 note=59 velocity=0 time=0 actual_time=51576
type=note_on channel=9 note=53 velocity=0 time=0 actual_time=51576
type=note_on channel=9 note=40 velocity=0 time=0 actual_time=51576
type=note_on channel=9 note=59 velocity=80 time=24 actual_time=51600
type=note_on channel=9 note=53 velocity=80 time=0 actual_time=51600
type=note_on channel=9 note=35 velocity=80 time=0 actual_time=51600
type=note_on channel=9 note=35 velocity=0 time=64 actual_time=51664
type=note_on channel=9 note=53 velocity=0 time=0 actual_time=51664
type=note_on channel=9 note=59 velocity=0 time=0 actual_time=51664
type=note_on channel=9 note=35 velocity=80 time=16 actual_time=51680
type=note_on channel=9 note=35 velocity=0 time=32 actual_time=51712
type=note_on channel=9 note=59 velocity=80 time=8 actual_time=51720
type=note_on channel=9 note=53 velocity=80 time=0 actual_time=51720
type=note_on channel=9 note=40 velocity=80 time=0 actual_time=51720
type=note_on channel=9 note=49 velocity=80 time=0 actual_time=51720
type=note_on channel=9 note=49 velocity=0 time=96 actual_time=51816
type=note_on channel=9 note=59 velocity=0 time=0 actual_time=51816
type=note_on channel=9 note=53 velocity=0 time=0 actual_time=51816
type=note_on channel=9 note=40 velocity=0 time=0 actual_time=51816
type=note_on channel=9 note=59 velocity=80 time=24 actual_time=51840
type=note_on channel=9 note=35 velocity=80 time=0 actual_time=51840
type=note_on channel=9 note=49 velocity=80 time=0 actual_time=51840
type=note_on channel=9 note=53 velocity=80 time=0 actual_time=51840
type=note_on channel=9 note=53 velocity=0 time=96 actual_time=51936
type=note_on channel=9 note=59 velocity=0 time=0 actual_time=51936
type=note_on channel=9 note=35 velocity=0 time=0 actual_time=51936
type=note_on channel=9 note=49 velocity=0 time=0 actual_time=51936
type=note_on channel=9 note=59 velocity=80 time=24 actual_time=51960
type=note_on channel=9 note=40 velocity=80 time=0 actual_time=51960
type=note_on channel=9 note=53 velocity=80 time=0 actual_time=51960
type=note_on channel=9 note=53 velocity=0 time=96 actual_time=52056
type=note_on channel=9 note=40 velocity=0 time=0 actual_time=52056
type=note_on channel=9 note=59 velocity=0 time=0 actual_time=52056
type=note_on channel=9 note=59 velocity=80 time=24 actual_time=52080
type=note_on channel=9 note=53 velocity=80 time=0 actual_time=52080
type=note_on channel=9 note=53 velocity=0 time=64 actual_time=52144
type=note_on channel=9 note=59 velocity=0 time=0 actual_time=52144
type=note_on channel=9 note=35 velocity=80 time=16 actual_time=52160
type=note_on channel=9 note=35 velocity=0 time=32 actual_time=52192
type=note_on channel=9 note=59 velocity=80 time=8 actual_time=52200
type=note_on channel=9 note=53 velocity=80 time=0 actual_time=52200
type=note_on channel=9 note=40 velocity=80 time=0 actual_time=52200
type=note_on channel=9 note=40 velocity=0 time=96 actual_time=52296
type=note_on channel=9 note=53 velocity=0 time=0 actual_time=52296
type=note_on channel=9 note=59 velocity=0 time=0 actual_time=52296
type=note_on channel=9 note=35 velocity=80 time=24 actual_time=52320
type=note_on channel=9 note=59 velocity=80 time=0 actual_time=52320
type=note_on channel=9 note=53 velocity=80 time=0 actual_time=52320
type=note_on channel=9 note=53 velocity=0 time=96 actual_time=52416
type=note_on channel=9 note=59 velocity=0 time=0 actual_time=52416
type=note_on channel=9 note=35 velocity=0 time=0 actual_time=52416
type=note_on channel=9 note=53 velocity=80 time=24 actual_time=52440
type=note_on channel=9 note=40 velocity=80 time=0 actual_time=52440
type=note_on channel=9 note=59 velocity=80 time=0 actual_time=52440
type=note_on channel=9 note=59 velocity=0 time=96 actual_time=52536
type=note_on channel=9 note=40 velocity=0 time=0 actual_time=52536
type=note_on channel=9 note=53 velocity=0 time=0 actual_time=52536
type=note_on channel=9 note=53 velocity=80 time=24 actual_time=52560
type=note_on channel=9 note=59 velocity=80 time=0 actual_time=52560
type=note_on channel=9 note=59 velocity=0 time=64 actual_time=52624
type=note_on channel=9 note=53 velocity=0 time=0 actual_time=52624
type=note_on channel=9 note=35 velocity=80 time=16 actual_time=52640
type=note_on channel=9 note=35 velocity=0 time=32 actual_time=52672
type=note_on channel=9 note=40 velocity=80 time=8 actual_time=52680
type=note_on channel=9 note=53 velocity=80 time=0 actual_time=52680
type=note_on channel=9 note=59 velocity=80 time=0 actual_time=52680
type=note_on channel=9 note=59 velocity=0 time=96 actual_time=52776
type=note_on channel=9 note=53 velocity=0 time=0 actual_time=52776
type=note_on channel=9 note=40 velocity=0 time=0 actual_time=52776
type=note_on channel=9 note=59 velocity=80 time=24 actual_time=52800
type=note_on channel=9 note=35 velocity=80 time=0 actual_time=52800
type=note_on channel=9 note=49 velocity=80 time=0 actual_time=52800
type=note_on channel=9 note=53 velocity=80 time=0 actual_time=52800
type=note_on channel=9 note=53 velocity=0 time=96 actual_time=52896
type=note_on channel=9 note=59 velocity=0 time=0 actual_time=52896
type=note_on channel=9 note=35 velocity=0 time=0 actual_time=52896
type=note_on channel=9 note=49 velocity=0 time=0 actual_time=52896
type=note_on channel=9 note=59 velocity=80 time=24 actual_time=52920
type=note_on channel=9 note=40 velocity=80 time=0 actual_time=52920
type=note_on channel=9 note=53 velocity=80 time=0 actual_time=52920
type=note_on channel=9 note=53 velocity=0 time=96 actual_time=53016
type=note_on channel=9 note=40 velocity=0 time=0 actual_time=53016
type=note_on channel=9 note=59 velocity=0 time=0 actual_time=53016
type=note_on channel=9 note=59 velocity=80 time=24 actual_time=53040
type=note_on channel=9 note=53 velocity=80 time=0 actual_time=53040
type=note_on channel=9 note=53 velocity=0 time=64 actual_time=53104
type=note_on channel=9 note=59 velocity=0 time=0 actual_time=53104
type=note_on channel=9 note=35 velocity=80 time=16 actual_time=53120
type=note_on channel=9 note=35 velocity=0 time=32 actual_time=53152
type=note_on channel=9 note=59 velocity=80 time=8 actual_time=53160
type=note_on channel=9 note=53 velocity=80 time=0 actual_time=53160
type=note_on channel=9 note=40 velocity=80 time=0 actual_time=53160
type=note_on channel=9 note=40 velocity=0 time=96 actual_time=53256
type=note_on channel=9 note=53 velocity=0 time=0 actual_time=53256
type=note_on channel=9 note=59 velocity=0 time=0 actual_time=53256
type=note_on channel=9 note=59 velocity=80 time=24 actual_time=53280
type=note_on channel=9 note=35 velocity=80 time=0 actual_time=53280
type=note_on channel=9 note=53 velocity=80 time=0 actual_time=53280
type=note_on channel=9 note=53 velocity=0 time=96 actual_time=53376
type=note_on channel=9 note=35 velocity=0 time=0 actual_time=53376
type=note_on channel=9 note=59 velocity=0 time=0 actual_time=53376
type=note_on channel=9 note=53 velocity=80 time=24 actual_time=53400
type=note_on channel=9 note=59 velocity=80 time=0 actual_time=53400
type=note_on channel=9 note=40 velocity=80 time=0 actual_time=53400
type=note_on channel=9 note=40 velocity=0 time=96 actual_time=53496
type=note_on channel=9 note=59 velocity=0 time=0 actual_time=53496
type=note_on channel=9 note=53 velocity=0 time=0 actual_time=53496
type=note_on channel=9 note=47 velocity=80 time=24 actual_time=53520
type=note_on channel=9 note=40 velocity=80 time=0 actual_time=53520
type=note_on channel=9 note=40 velocity=0 time=32 actual_time=53552
type=note_on channel=9 note=47 velocity=0 time=0 actual_time=53552
type=note_on channel=9 note=45 velocity=80 time=8 actual_time=53560
type=note_on channel=9 note=45 velocity=0 time=32 actual_time=53592
type=note_on channel=9 note=43 velocity=80 time=8 actual_time=53600
type=note_on channel=9 note=43 velocity=0 time=32 actual_time=53632
type=note_on channel=9 note=41 velocity=80 time=8 actual_time=53640
type=note_on channel=9 note=49 velocity=80 time=120 actual_time=53760
type=note_on channel=9 note=35 velocity=80 time=0 actual_time=53760
type=note_on channel=9 note=53 velocity=80 time=0 actual_time=53760
type=note_on channel=9 note=41 velocity=0 time=72 actual_time=53832
type=note_on channel=9 note=49 velocity=0 time=24 actual_time=53856
type=note_on channel=9 note=35 velocity=0 time=0 actual_time=53856
type=note_on channel=9 note=53 velocity=0 time=0 actual_time=53856
type=note_on channel=9 note=40 velocity=80 time=24 actual_time=53880
type=note_on channel=9 note=53 velocity=80 time=0 actual_time=53880
type=note_on channel=9 note=53 velocity=0 time=96 actual_time=53976
type=note_on channel=9 note=40 velocity=0 time=0 actual_time=53976
type=note_on channel=9 note=53 velocity=80 time=24 actual_time=54000
type=note_on channel=9 note=53 velocity=0 time=64 actual_time=54064
type=note_on channel=9 note=35 velocity=80 time=16 actual_time=54080
type=note_on channel=9 note=35 velocity=0 time=32 actual_time=54112
type=note_on channel=9 note=40 velocity=80 time=8 actual_time=54120
type=note_on channel=9 note=53 velocity=80 time=0 actual_time=54120
type=note_on channel=9 note=53 velocity=0 time=96 actual_time=54216
type=note_on channel=9 note=40 velocity=0 time=0 actual_time=54216
type=note_on channel=9 note=53 velocity=80 time=24 actual_time=54240
type=note_on channel=9 note=35 velocity=80 time=0 actual_time=54240
type=note_on channel=9 note=35 velocity=0 time=96 actual_time=54336
type=note_on channel=9 note=53 velocity=0 time=0 actual_time=54336
type=note_on channel=9 note=53 velocity=80 time=24 actual_time=54360
type=note_on channel=9 note=40 velocity=80 time=0 actual_time=54360
type=note_on channel=9 note=40 velocity=0 time=96 actual_time=54456
type=note_on channel=9 note=53 velocity=0 time=0 actual_time=54456
type=note_on channel=9 note=53 velocity=80 time=24 actual_time=54480
type=note_on channel=9 note=53 velocity=0 time=64 actual_time=54544
type=note_on channel=9 note=35 velocity=80 time=16 actual_time=54560
type=note_on channel=9 note=35 velocity=0 time=32 actual_time=54592
type=note_on channel=9 note=40 velocity=80 time=8 actual_time=54600
type=note_on channel=9 note=53 velocity=80 time=0 actual_time=54600
type=note_on channel=9 note=53 velocity=0 time=96 actual_time=54696
type=note_on channel=9 note=40 velocity=0 time=0 actual_time=54696
type=note_on channel=9 note=49 velocity=80 time=24 actual_time=54720
type=note_on channel=9 note=35 velocity=80 time=0 actual_time=54720
type=note_on channel=9 note=53 velocity=80 time=0 actual_time=54720
type=note_on channel=9 note=53 velocity=0 time=96 actual_time=54816
type=note_on channel=9 note=35 velocity=0 time=0 actual_time=54816
type=note_on channel=9 note=49 velocity=0 time=0 actual_time=54816
type=note_on channel=9 note=53 velocity=80 time=24 actual_time=54840
type=note_on channel=9 note=40 velocity=80 time=0 actual_time=54840
type=note_on channel=9 note=40 velocity=0 time=96 actual_time=54936
type=note_on channel=9 note=53 velocity=0 time=0 actual_time=54936
type=note_on channel=9 note=53 velocity=80 time=24 actual_time=54960
type=note_on channel=9 note=53 velocity=0 time=64 actual_time=55024
type=note_on channel=9 note=35 velocity=80 time=16 actual_time=55040
type=note_on channel=9 note=35 velocity=0 time=32 actual_time=55072
type=note_on channel=9 note=53 velocity=80 time=8 actual_time=55080
type=note_on channel=9 note=40 velocity=80 time=0 actual_time=55080
type=note_on channel=9 note=40 velocity=0 time=96 actual_time=55176
type=note_on channel=9 note=53 velocity=0 time=0 actual_time=55176
type=note_on channel=9 note=35 velocity=80 time=24 actual_time=55200
type=note_on channel=9 note=53 velocity=80 time=0 actual_time=55200
type=note_on channel=9 note=53 velocity=0 time=96 actual_time=55296
type=note_on channel=9 note=35 velocity=0 time=0 actual_time=55296
type=note_on channel=9 note=49 velocity=80 time=24 actual_time=55320
type=note_on channel=9 note=53 velocity=80 time=0 actual_time=55320
type=note_on channel=9 note=40 velocity=80 time=0 actual_time=55320
type=note_on channel=9 note=40 velocity=0 time=96 actual_time=55416
type=note_on channel=9 note=53 velocity=0 time=0 actual_time=55416
type=note_on channel=9 note=49 velocity=0 time=0 actual_time=55416
type=note_on channel=9 note=53 velocity=80 time=24 actual_time=55440
type=note_on channel=9 note=53 velocity=0 time=64 actual_time=55504
type=note_on channel=9 note=35 velocity=80 time=16 actual_time=55520
type=note_on channel=9 note=35 velocity=0 time=32 actual_time=55552
type=note_on channel=9 note=40 velocity=80 time=8 actual_time=55560
type=note_on channel=9 note=53 velocity=80 time=0 actual_time=55560
type=note_on channel=9 note=49 velocity=80 time=0 actual_time=55560
type=note_on channel=9 note=49 velocity=0 time=96 actual_time=55656
type=note_on channel=9 note=53 velocity=0 time=0 actual_time=55656
type=note_on channel=9 note=40 velocity=0 time=0 actual_time=55656
type=note_on channel=9 note=53 velocity=80 time=24 actual_time=55680
type=note_on channel=9 note=35 velocity=80 time=0 actual_time=55680
type=note_on channel=9 note=35 velocity=0 time=96 actual_time=55776
type=note_on channel=9 note=53 velocity=0 time=0 actual_time=55776
type=note_on channel=9 note=53 velocity=80 time=24 actual_time=55800
type=note_on channel=9 note=40 velocity=80 time=0 actual_time=55800
type=note_on channel=9 note=40 velocity=0 time=96 actual_time=55896
type=note_on channel=9 note=53 velocity=0 time=0 actual_time=55896
type=note_on channel=9 note=53 velocity=80 time=24 actual_time=55920
type=note_on channel=9 note=53 velocity=0 time=64 actual_time=55984
type=note_on channel=9 note=35 velocity=80 time=16 actual_time=56000
type=note_on channel=9 note=35 velocity=0 time=32 actual_time=56032
type=note_on channel=9 note=40 velocity=80 time=8 actual_time=56040
type=note_on channel=9 note=53 velocity=80 time=0 actual_time=56040
type=note_on channel=9 note=53 velocity=0 time=96 actual_time=56136
type=note_on channel=9 note=40 velocity=0 time=0 actual_time=56136
type=note_on channel=9 note=53 velocity=80 time=24 actual_time=56160
type=note_on channel=9 note=35 velocity=80 time=0 actual_time=56160
type=note_on channel=9 note=35 velocity=0 time=96 actual_time=56256
type=note_on channel=9 note=53 velocity=0 time=0 actual_time=56256
type=note_on channel=9 note=40 velocity=80 time=24 actual_time=56280
type=note_on channel=9 note=53 velocity=80 time=0 actual_time=56280
type=note_on channel=9 note=53 velocity=0 time=96 actual_time=56376
type=note_on channel=9 note=40 velocity=0 time=0 actual_time=56376
type=note_on channel=9 note=53 velocity=80 time=24 actual_time=56400
type=note_on channel=9 note=53 velocity=0 time=64 actual_time=56464
type=note_on channel=9 note=35 velocity=80 time=16 actual_time=56480
type=note_on channel=9 note=35 velocity=0 time=32 actual_time=56512
type=note_on channel=9 note=53 velocity=80 time=8 actual_time=56520
type=note_on channel=9 note=40 velocity=80 time=0 actual_time=56520
type=note_on channel=9 note=40 velocity=0 time=96 actual_time=56616
type=note_on channel=9 note=53 velocity=0 time=0 actual_time=56616
type=note_on channel=9 note=53 velocity=80 time=24 actual_time=56640
type=note_on channel=9 note=35 velocity=80 time=0 actual_time=56640
type=note_on channel=9 note=49 velocity=80 time=0 actual_time=56640
type=note_on channel=9 note=49 velocity=0 time=96 actual_time=56736
type=note_on channel=9 note=35 velocity=0 time=0 actual_time=56736
type=note_on channel=9 note=53 velocity=0 time=0 actual_time=56736
type=note_on channel=9 note=53 velocity=80 time=24 actual_time=56760
type=note_on channel=9 note=40 velocity=80 time=0 actual_time=56760
type=note_on channel=9 note=40 velocity=0 time=96 actual_time=56856
type=note_on channel=9 note=53 velocity=0 time=0 actual_time=56856
type=note_on channel=9 note=53 velocity=80 time=24 actual_time=56880
type=note_on channel=9 note=53 velocity=0 time=64 actual_time=56944
type=note_on channel=9 note=35 velocity=80 time=16 actual_time=56960
type=note_on channel=9 note=35 velocity=0 time=32 actual_time=56992
type=note_on channel=9 note=40 velocity=80 time=8 actual_time=57000
type=note_on channel=9 note=53 velocity=80 time=0 actual_time=57000
type=note_on channel=9 note=53 velocity=0 time=96 actual_time=57096
type=note_on channel=9 note=40 velocity=0 time=0 actual_time=57096
type=note_on channel=9 note=35 velocity=80 time=24 actual_time=57120
type=note_on channel=9 note=53 velocity=80 time=0 actual_time=57120
type=note_on channel=9 note=53 velocity=0 time=96 actual_time=57216
type=note_on channel=9 note=35 velocity=0 time=0 actual_time=57216
type=note_on channel=9 note=49 velocity=80 time=24 actual_time=57240
type=note_on channel=9 note=40 velocity=80 time=0 actual_time=57240
type=note_on channel=9 note=53 velocity=80 time=0 actual_time=57240
type=note_on channel=9 note=53 velocity=0 time=96 actual_time=57336
type=note_on channel=9 note=40 velocity=0 time=0 actual_time=57336
type=note_on channel=9 note=49 velocity=0 time=0 actual_time=57336
type=note_on channel=9 note=53 velocity=80 time=24 actual_time=57360
type=note_on channel=9 note=53 velocity=0 time=64 actual_time=57424
type=note_on channel=9 note=35 velocity=80 time=16 actual_time=57440
type=note_on channel=9 note=35 velocity=0 time=32 actual_time=57472
type=note_on channel=9 note=49 velocity=80 time=8 actual_time=57480
type=note_on channel=9 note=53 velocity=80 time=0 actual_time=57480
type=note_on channel=9 note=40 velocity=80 time=0 actual_time=57480
type=note_on channel=9 note=40 velocity=0 time=96 actual_time=57576
type=note_on channel=9 note=53 velocity=0 time=0 actual_time=57576
type=note_on channel=9 note=49 velocity=0 time=0 actual_time=57576
type=note_on channel=9 note=35 velocity=80 time=24 actual_time=57600
type=note_on channel=9 note=53 velocity=80 time=0 actual_time=57600
type=note_on channel=9 note=53 velocity=0 time=96 actual_time=57696
type=note_on channel=9 note=35 velocity=0 time=0 actual_time=57696
type=note_on channel=9 note=40 velocity=80 time=24 actual_time=57720
type=note_on channel=9 note=53 velocity=80 time=0 actual_time=57720
type=note_on channel=9 note=53 velocity=0 time=96 actual_time=57816
type=note_on channel=9 note=40 velocity=0 time=0 actual_time=57816
type=note_on channel=9 note=53 velocity=80 time=24 actual_time=57840
type=note_on channel=9 note=53 velocity=0 time=64 actual_time=57904
type=note_on channel=9 note=35 velocity=80 time=16 actual_time=57920
type=note_on channel=9 note=35 velocity=0 time=32 actual_time=57952
type=note_on channel=9 note=53 velocity=80 time=8 actual_time=57960
type=note_on channel=9 note=40 velocity=80 time=0 actual_time=57960
type=note_on channel=9 note=40 velocity=0 time=96 actual_time=58056
type=note_on channel=9 note=53 velocity=0 time=0 actual_time=58056
type=note_on channel=9 note=53 velocity=80 time=24 actual_time=58080
type=note_on channel=9 note=35 velocity=80 time=0 actual_time=58080
type=note_on channel=9 note=35 velocity=0 time=96 actual_time=58176
type=note_on channel=9 note=53 velocity=0 time=0 actual_time=58176
type=note_on channel=9 note=53 velocity=80 time=24 actual_time=58200
type=note_on channel=9 note=40 velocity=80 time=0 actual_time=58200
type=note_on channel=9 note=40 velocity=0 time=96 actual_time=58296
type=note_on channel=9 note=53 velocity=0 time=0 actual_time=58296
type=note_on channel=9 note=53 velocity=80 time=24 actual_time=58320
type=note_on channel=9 note=53 velocity=0 time=64 actual_time=58384
type=note_on channel=9 note=35 velocity=80 time=16 actual_time=58400
type=note_on channel=9 note=35 velocity=0 time=32 actual_time=58432
type=note_on channel=9 note=40 velocity=80 time=8 actual_time=58440
type=note_on channel=9 note=53 velocity=80 time=0 actual_time=58440
type=note_on channel=9 note=53 velocity=0 time=96 actual_time=58536
type=note_on channel=9 note=40 velocity=0 time=0 actual_time=58536
type=note_on channel=9 note=49 velocity=80 time=24 actual_time=58560
type=note_on channel=9 note=35 velocity=80 time=0 actual_time=58560
type=note_on channel=9 note=53 velocity=80 time=0 actual_time=58560
type=note_on channel=9 note=53 velocity=0 time=96 actual_time=58656
type=note_on channel=9 note=35 velocity=0 time=0 actual_time=58656
type=note_on channel=9 note=49 velocity=0 time=0 actual_time=58656
type=note_on channel=9 note=40 velocity=80 time=24 actual_time=58680
type=note_on channel=9 note=53 velocity=80 time=0 actual_time=58680
type=note_on channel=9 note=53 velocity=0 time=96 actual_time=58776
type=note_on channel=9 note=40 velocity=0 time=0 actual_time=58776
type=note_on channel=9 note=53 velocity=80 time=24 actual_time=58800
type=note_on channel=9 note=53 velocity=0 time=64 actual_time=58864
type=note_on channel=9 note=35 velocity=80 time=16 actual_time=58880
type=note_on channel=9 note=35 velocity=0 time=32 actual_time=58912
type=note_on channel=9 note=53 velocity=80 time=8 actual_time=58920
type=note_on channel=9 note=40 velocity=80 time=0 actual_time=58920
type=note_on channel=9 note=40 velocity=0 time=96 actual_time=59016
type=note_on channel=9 note=53 velocity=0 time=0 actual_time=59016
type=note_on channel=9 note=53 velocity=80 time=24 actual_time=59040
type=note_on channel=9 note=35 velocity=80 time=0 actual_time=59040
type=note_on channel=9 note=35 velocity=0 time=96 actual_time=59136
type=note_on channel=9 note=53 velocity=0 time=0 actual_time=59136
type=note_on channel=9 note=53 velocity=80 time=24 actual_time=59160
type=note_on channel=9 note=40 velocity=80 time=0 actual_time=59160
type=note_on channel=9 note=49 velocity=80 time=0 actual_time=59160
type=note_on channel=9 note=49 velocity=0 time=96 actual_time=59256
type=note_on channel=9 note=40 velocity=0 time=0 actual_time=59256
type=note_on channel=9 note=53 velocity=0 time=0 actual_time=59256
type=note_on channel=9 note=53 velocity=80 time=24 actual_time=59280
type=note_on channel=9 note=53 velocity=0 time=64 actual_time=59344
type=note_on channel=9 note=35 velocity=80 time=16 actual_time=59360
type=note_on channel=9 note=35 velocity=0 time=32 actual_time=59392
type=note_on channel=9 note=40 velocity=80 time=8 actual_time=59400
type=note_on channel=9 note=53 velocity=80 time=0 actual_time=59400
type=note_on channel=9 note=49 velocity=80 time=0 actual_time=59400
type=note_on channel=9 note=49 velocity=0 time=96 actual_time=59496
type=note_on channel=9 note=53 velocity=0 time=0 actual_time=59496
type=note_on channel=9 note=40 velocity=0 time=0 actual_time=59496
type=note_on channel=9 note=53 velocity=80 time=24 actual_time=59520
type=note_on channel=9 note=35 velocity=80 time=0 actual_time=59520
type=note_on channel=9 note=35 velocity=0 time=96 actual_time=59616
type=note_on channel=9 note=53 velocity=0 time=0 actual_time=59616
type=note_on channel=9 note=53 velocity=80 time=24 actual_time=59640
type=note_on channel=9 note=40 velocity=80 time=0 actual_time=59640
type=note_on channel=9 note=40 velocity=0 time=96 actual_time=59736
type=note_on channel=9 note=53 velocity=0 time=0 actual_time=59736
type=note_on channel=9 note=53 velocity=80 time=24 actual_time=59760
type=note_on channel=9 note=53 velocity=0 time=64 actual_time=59824
type=note_on channel=9 note=35 velocity=80 time=16 actual_time=59840
type=note_on channel=9 note=35 velocity=0 time=32 actual_time=59872
type=note_on channel=9 note=40 velocity=80 time=8 actual_time=59880
type=note_on channel=9 note=53 velocity=80 time=0 actual_time=59880
type=note_on channel=9 note=53 velocity=0 time=96 actual_time=59976
type=note_on channel=9 note=40 velocity=0 time=0 actual_time=59976
type=note_on channel=9 note=53 velocity=80 time=24 actual_time=60000
type=note_on channel=9 note=35 velocity=80 time=0 actual_time=60000
type=note_on channel=9 note=35 velocity=0 time=96 actual_time=60096
type=note_on channel=9 note=53 velocity=0 time=0 actual_time=60096
type=note_on channel=9 note=53 velocity=80 time=24 actual_time=60120
type=note_on channel=9 note=40 velocity=80 time=0 actual_time=60120
type=note_on channel=9 note=40 velocity=0 time=96 actual_time=60216
type=note_on channel=9 note=53 velocity=0 time=0 actual_time=60216
type=note_on channel=9 note=53 velocity=80 time=24 actual_time=60240
type=note_on channel=9 note=53 velocity=0 time=64 actual_time=60304
type=note_on channel=9 note=35 velocity=80 time=16 actual_time=60320
type=note_on channel=9 note=35 velocity=0 time=32 actual_time=60352
type=note_on channel=9 note=53 velocity=80 time=8 actual_time=60360
type=note_on channel=9 note=40 velocity=80 time=0 actual_time=60360
type=note_on channel=9 note=40 velocity=0 time=96 actual_time=60456
type=note_on channel=9 note=53 velocity=0 time=0 actual_time=60456
type=note_on channel=9 note=53 velocity=80 time=24 actual_time=60480
type=note_on channel=9 note=35 velocity=80 time=0 actual_time=60480
type=note_on channel=9 note=49 velocity=80 time=0 actual_time=60480
type=note_on channel=9 note=49 velocity=0 time=96 actual_time=60576
type=note_on channel=9 note=35 velocity=0 time=0 actual_time=60576
type=note_on channel=9 note=53 velocity=0 time=0 actual_time=60576
type=note_on channel=9 note=53 velocity=80 time=24 actual_time=60600
type=note_on channel=9 note=40 velocity=80 time=0 actual_time=60600
type=note_on channel=9 note=40 velocity=0 time=96 actual_time=60696
type=note_on channel=9 note=53 velocity=0 time=0 actual_time=60696
type=note_on channel=9 note=53 velocity=80 time=24 actual_time=60720
type=note_on channel=9 note=53 velocity=0 time=64 actual_time=60784
type=note_on channel=9 note=35 velocity=80 time=16 actual_time=60800
type=note_on channel=9 note=35 velocity=0 time=32 actual_time=60832
type=note_on channel=9 note=53 velocity=80 time=8 actual_time=60840
type=note_on channel=9 note=40 velocity=80 time=0 actual_time=60840
type=note_on channel=9 note=40 velocity=0 time=96 actual_time=60936
type=note_on channel=9 note=53 velocity=0 time=0 actual_time=60936
type=note_on channel=9 note=53 velocity=80 time=24 actual_time=60960
type=note_on channel=9 note=35 velocity=80 time=0 actual_time=60960
type=note_on channel=9 note=35 velocity=0 time=96 actual_time=61056
type=note_on channel=9 note=53 velocity=0 time=0 actual_time=61056
type=note_on channel=9 note=53 velocity=80 time=24 actual_time=61080
type=note_on channel=9 note=40 velocity=80 time=0 actual_time=61080
type=note_on channel=9 note=57 velocity=80 time=0 actual_time=61080
type=note_on channel=9 note=57 velocity=0 time=96 actual_time=61176
type=note_on channel=9 note=40 velocity=0 time=0 actual_time=61176
type=note_on channel=9 note=53 velocity=0 time=0 actual_time=61176
type=note_on channel=9 note=53 velocity=80 time=24 actual_time=61200
type=note_on channel=9 note=53 velocity=0 time=64 actual_time=61264
type=note_on channel=9 note=35 velocity=80 time=16 actual_time=61280
type=note_on channel=9 note=35 velocity=0 time=32 actual_time=61312
type=note_on channel=9 note=40 velocity=80 time=8 actual_time=61320
type=note_on channel=9 note=53 velocity=80 time=0 actual_time=61320
type=note_on channel=9 note=53 velocity=0 time=96 actual_time=61416
type=note_on channel=9 note=40 velocity=0 time=0 actual_time=61416
type=note_on channel=9 note=35 velocity=80 time=24 actual_time=61440
type=note_on channel=9 note=31 velocity=80 time=0 actual_time=61440
type=note_on channel=9 note=49 velocity=80 time=0 actual_time=61440
type=note_on channel=9 note=49 velocity=0 time=32 actual_time=61472
type=note_on channel=9 note=31 velocity=0 time=0 actual_time=61472
type=note_on channel=9 note=35 velocity=0 time=0 actual_time=61472
type=note_on channel=9 note=31 velocity=80 time=8 actual_time=61480
type=note_on channel=9 note=31 velocity=0 time=32 actual_time=61512
type=note_on channel=9 note=31 velocity=80 time=8 actual_time=61520
type=note_on channel=9 note=31 velocity=0 time=32 actual_time=61552
type=note_on channel=9 note=40 velocity=80 time=8 actual_time=61560
type=note_on channel=9 note=40 velocity=0 time=96 actual_time=61656
type=note_on channel=9 note=35 velocity=80 time=24 actual_time=61680
type=note_on channel=9 note=35 velocity=0 time=96 actual_time=61776
type=note_on channel=9 note=40 velocity=80 time=24 actual_time=61800
type=note_on channel=9 note=40 velocity=0 time=96 actual_time=61896
type=note_on channel=9 note=31 velocity=80 time=24 actual_time=61920
type=note_on channel=9 note=35 velocity=80 time=0 actual_time=61920
type=note_on channel=9 note=35 velocity=0 time=32 actual_time=61952
type=note_on channel=9 note=31 velocity=0 time=0 actual_time=61952
type=note_on channel=9 note=31 velocity=80 time=8 actual_time=61960
type=note_on channel=9 note=31 velocity=0 time=32 actual_time=61992
type=note_on channel=9 note=31 velocity=80 time=8 actual_time=62000
type=note_on channel=9 note=31 velocity=0 time=32 actual_time=62032
type=note_on channel=9 note=40 velocity=80 time=8 actual_time=62040
type=note_on channel=9 note=40 velocity=0 time=96 actual_time=62136
type=note_on channel=9 note=35 velocity=80 time=24 actual_time=62160
type=note_on channel=9 note=35 velocity=0 time=96 actual_time=62256
type=note_on channel=9 note=40 velocity=80 time=24 actual_time=62280
type=note_on channel=9 note=40 velocity=0 time=96 actual_time=62376
type=note_on channel=9 note=35 velocity=80 time=24 actual_time=62400
type=note_on channel=9 note=31 velocity=80 time=0 actual_time=62400
type=note_on channel=9 note=31 velocity=0 time=32 actual_time=62432
type=note_on channel=9 note=35 velocity=0 time=0 actual_time=62432
type=note_on channel=9 note=31 velocity=80 time=8 actual_time=62440
type=note_on channel=9 note=31 velocity=0 time=32 actual_time=62472
type=note_on channel=9 note=31 velocity=80 time=8 actual_time=62480
type=note_on channel=9 note=31 velocity=0 time=32 actual_time=62512
type=note_on channel=9 note=40 velocity=80 time=8 actual_time=62520
type=note_on channel=9 note=40 velocity=0 time=96 actual_time=62616
type=note_on channel=9 note=35 velocity=80 time=24 actual_time=62640
type=note_on channel=9 note=35 velocity=0 time=96 actual_time=62736
type=note_on channel=9 note=40 velocity=80 time=24 actual_time=62760
type=note_on channel=9 note=40 velocity=0 time=96 actual_time=62856
type=note_on channel=9 note=31 velocity=80 time=24 actual_time=62880
type=note_on channel=9 note=35 velocity=80 time=0 actual_time=62880
type=note_on channel=9 note=35 velocity=0 time=32 actual_time=62912
type=note_on channel=9 note=31 velocity=0 time=0 actual_time=62912
type=note_on channel=9 note=31 velocity=80 time=8 actual_time=62920
type=note_on channel=9 note=31 velocity=0 time=32 actual_time=62952
type=note_on channel=9 note=31 velocity=80 time=8 actual_time=62960
type=note_on channel=9 note=31 velocity=0 time=32 actual_time=62992
type=note_on channel=9 note=40 velocity=80 time=8 actual_time=63000
type=note_on channel=9 note=40 velocity=0 time=96 actual_time=63096
type=note_on channel=9 note=35 velocity=80 time=24 actual_time=63120
type=note_on channel=9 note=35 velocity=0 time=96 actual_time=63216
type=note_on channel=9 note=40 velocity=80 time=24 actual_time=63240
type=note_on channel=9 note=40 velocity=0 time=96 actual_time=63336
type=note_on channel=9 note=31 velocity=80 time=24 actual_time=63360
type=note_on channel=9 note=35 velocity=80 time=0 actual_time=63360
type=note_on channel=9 note=35 velocity=0 time=32 actual_time=63392
type=note_on channel=9 note=31 velocity=0 time=0 actual_time=63392
type=note_on channel=9 note=31 velocity=80 time=8 actual_time=63400
type=note_on channel=9 note=31 velocity=0 time=32 actual_time=63432
type=note_on channel=9 note=31 velocity=80 time=8 actual_time=63440
type=note_on channel=9 note=31 velocity=0 time=32 actual_time=63472
type=note_on channel=9 note=40 velocity=80 time=8 actual_time=63480
type=note_on channel=9 note=40 velocity=0 time=96 actual_time=63576
type=note_on channel=9 note=35 velocity=80 time=24 actual_time=63600
type=note_on channel=9 note=35 velocity=0 time=96 actual_time=63696
type=note_on channel=9 note=40 velocity=80 time=24 actual_time=63720
type=note_on channel=9 note=40 velocity=0 time=96 actual_time=63816
type=note_on channel=9 note=35 velocity=80 time=24 actual_time=63840
type=note_on channel=9 note=31 velocity=80 time=0 actual_time=63840
type=note_on channel=9 note=31 velocity=0 time=32 actual_time=63872
type=note_on channel=9 note=35 velocity=0 time=0 actual_time=63872
type=note_on channel=9 note=31 velocity=80 time=8 actual_time=63880
type=note_on channel=9 note=31 velocity=0 time=32 actual_time=63912
type=note_on channel=9 note=31 velocity=80 time=8 actual_time=63920
type=note_on channel=9 note=31 velocity=0 time=32 actual_time=63952
type=note_on channel=9 note=40 velocity=80 time=8 actual_time=63960
type=note_on channel=9 note=40 velocity=0 time=96 actual_time=64056
type=note_on channel=9 note=35 velocity=80 time=24 actual_time=64080
type=note_on channel=9 note=35 velocity=0 time=96 actual_time=64176
type=note_on channel=9 note=40 velocity=80 time=24 actual_time=64200
type=note_on channel=9 note=40 velocity=0 time=96 actual_time=64296
type=note_on channel=9 note=35 velocity=80 time=24 actual_time=64320
type=note_on channel=9 note=31 velocity=80 time=0 actual_time=64320
type=note_on channel=9 note=31 velocity=0 time=32 actual_time=64352
type=note_on channel=9 note=35 velocity=0 time=0 actual_time=64352
type=note_on channel=9 note=31 velocity=80 time=8 actual_time=64360
type=note_on channel=9 note=31 velocity=0 time=32 actual_time=64392
type=note_on channel=9 note=31 velocity=80 time=8 actual_time=64400
type=note_on channel=9 note=31 velocity=0 time=32 actual_time=64432
type=note_on channel=9 note=40 velocity=80 time=8 actual_time=64440
type=note_on channel=9 note=40 velocity=0 time=96 actual_time=64536
type=note_on channel=9 note=35 velocity=80 time=24 actual_time=64560
type=note_on channel=9 note=35 velocity=0 time=96 actual_time=64656
type=note_on channel=9 note=40 velocity=80 time=24 actual_time=64680
type=note_on channel=9 note=40 velocity=0 time=96 actual_time=64776
type=note_on channel=9 note=31 velocity=80 time=24 actual_time=64800
type=note_on channel=9 note=35 velocity=80 time=0 actual_time=64800
type=note_on channel=9 note=35 velocity=0 time=32 actual_time=64832
type=note_on channel=9 note=31 velocity=0 time=0 actual_time=64832
type=note_on channel=9 note=31 velocity=80 time=8 actual_time=64840
type=note_on channel=9 note=31 velocity=0 time=32 actual_time=64872
type=note_on channel=9 note=31 velocity=80 time=8 actual_time=64880
type=note_on channel=9 note=31 velocity=0 time=32 actual_time=64912
type=note_on channel=9 note=40 velocity=80 time=8 actual_time=64920
type=note_on channel=9 note=40 velocity=0 time=96 actual_time=65016
type=note_on channel=9 note=35 velocity=80 time=24 actual_time=65040
type=note_on channel=9 note=35 velocity=0 time=96 actual_time=65136
type=note_on channel=9 note=40 velocity=80 time=24 actual_time=65160
type=note_on channel=9 note=40 velocity=0 time=96 actual_time=65256
type=note_on channel=9 note=31 velocity=80 time=24 actual_time=65280
type=note_on channel=9 note=35 velocity=80 time=0 actual_time=65280
type=note_on channel=9 note=35 velocity=0 time=32 actual_time=65312
type=note_on channel=9 note=31 velocity=0 time=0 actual_time=65312
type=note_on channel=9 note=31 velocity=80 time=8 actual_time=65320
type=note_on channel=9 note=31 velocity=0 time=32 actual_time=65352
type=note_on channel=9 note=31 velocity=80 time=8 actual_time=65360
type=note_on channel=9 note=31 velocity=0 time=32 actual_time=65392
type=note_on channel=9 note=40 velocity=80 time=8 actual_time=65400
type=note_on channel=9 note=40 velocity=0 time=96 actual_time=65496
type=note_on channel=9 note=35 velocity=80 time=24 actual_time=65520
type=note_on channel=9 note=35 velocity=0 time=96 actual_time=65616
type=note_on channel=9 note=40 velocity=80 time=24 actual_time=65640
type=note_on channel=9 note=40 velocity=0 time=96 actual_time=65736
type=note_on channel=9 note=35 velocity=80 time=24 actual_time=65760
type=note_on channel=9 note=31 velocity=80 time=0 actual_time=65760
type=note_on channel=9 note=31 velocity=0 time=32 actual_time=65792
type=note_on channel=9 note=35 velocity=0 time=0 actual_time=65792
type=note_on channel=9 note=31 velocity=80 time=8 actual_time=65800
type=note_on channel=9 note=31 velocity=0 time=32 actual_time=65832
type=note_on channel=9 note=31 velocity=80 time=8 actual_time=65840
type=note_on channel=9 note=31 velocity=0 time=32 actual_time=65872
type=note_on channel=9 note=40 velocity=80 time=8 actual_time=65880
type=note_on channel=9 note=40 velocity=0 time=96 actual_time=65976
type=note_on channel=9 note=35 velocity=80 time=24 actual_time=66000
type=note_on channel=9 note=35 velocity=0 time=96 actual_time=66096
type=note_on channel=9 note=40 velocity=80 time=24 actual_time=66120
type=note_on channel=9 note=40 velocity=0 time=96 actual_time=66216
type=note_on channel=9 note=31 velocity=80 time=24 actual_time=66240
type=note_on channel=9 note=35 velocity=80 time=0 actual_time=66240
type=note_on channel=9 note=35 velocity=0 time=32 actual_time=66272
type=note_on channel=9 note=31 velocity=0 time=0 actual_time=66272
type=note_on channel=9 note=31 velocity=80 time=8 actual_time=66280
type=note_on channel=9 note=31 velocity=0 time=32 actual_time=66312
type=note_on channel=9 note=31 velocity=80 time=8 actual_time=66320
type=note_on channel=9 note=31 velocity=0 time=32 actual_time=66352
type=note_on channel=9 note=40 velocity=80 time=8 actual_time=66360
type=note_on channel=9 note=40 velocity=0 time=96 actual_time=66456
type=note_on channel=9 note=35 velocity=80 time=24 actual_time=66480
type=note_on channel=9 note=35 velocity=0 time=96 actual_time=66576
type=note_on channel=9 note=40 velocity=80 time=24 actual_time=66600
type=note_on channel=9 note=40 velocity=0 time=96 actual_time=66696
type=note_on channel=9 note=35 velocity=80 time=24 actual_time=66720
type=note_on channel=9 note=31 velocity=80 time=0 actual_time=66720
type=note_on channel=9 note=31 velocity=0 time=32 actual_time=66752
type=note_on channel=9 note=35 velocity=0 time=0 actual_time=66752
type=note_on channel=9 note=31 velocity=80 time=8 actual_time=66760
type=note_on channel=9 note=31 velocity=0 time=32 actual_time=66792
type=note_on channel=9 note=31 velocity=80 time=8 actual_time=66800
type=note_on channel=9 note=31 velocity=0 time=32 actual_time=66832
type=note_on channel=9 note=40 velocity=80 time=8 actual_time=66840
type=note_on channel=9 note=40 velocity=0 time=96 actual_time=66936
type=note_on channel=9 note=35 velocity=80 time=24 actual_time=66960
type=note_on channel=9 note=35 velocity=0 time=96 actual_time=67056
type=note_on channel=9 note=40 velocity=80 time=24 actual_time=67080
type=note_on channel=9 note=40 velocity=0 time=96 actual_time=67176
type=note_on channel=9 note=35 velocity=80 time=24 actual_time=67200
type=note_on channel=9 note=31 velocity=80 time=0 actual_time=67200
type=note_on channel=9 note=31 velocity=0 time=32 actual_time=67232
type=note_on channel=9 note=35 velocity=0 time=0 actual_time=67232
type=note_on channel=9 note=31 velocity=80 time=8 actual_time=67240
type=note_on channel=9 note=31 velocity=0 time=32 actual_time=67272
type=note_on channel=9 note=31 velocity=80 time=8 actual_time=67280
type=note_on channel=9 note=31 velocity=0 time=32 actual_time=67312
type=note_on channel=9 note=40 velocity=80 time=8 actual_time=67320
type=note_on channel=9 note=40 velocity=0 time=96 actual_time=67416
type=note_on channel=9 note=35 velocity=80 time=24 actual_time=67440
type=note_on channel=9 note=35 velocity=0 time=96 actual_time=67536
type=note_on channel=9 note=40 velocity=80 time=24 actual_time=67560
type=note_on channel=9 note=40 velocity=0 time=96 actual_time=67656
type=note_on channel=9 note=35 velocity=80 time=24 actual_time=67680
type=note_on channel=9 note=31 velocity=80 time=0 actual_time=67680
type=note_on channel=9 note=31 velocity=0 time=32 actual_time=67712
type=note_on channel=9 note=35 velocity=0 time=0 actual_time=67712
type=note_on channel=9 note=31 velocity=80 time=8 actual_time=67720
type=note_on channel=9 note=31 velocity=0 time=32 actual_time=67752
type=note_on channel=9 note=31 velocity=80 time=8 actual_time=67760
type=note_on channel=9 note=31 velocity=0 time=32 actual_time=67792
type=note_on channel=9 note=40 velocity=80 time=8 actual_time=67800
type=note_on channel=9 note=40 velocity=0 time=96 actual_time=67896
type=note_on channel=9 note=35 velocity=80 time=24 actual_time=67920
type=note_on channel=9 note=35 velocity=0 time=96 actual_time=68016
type=note_on channel=9 note=40 velocity=80 time=24 actual_time=68040
type=note_on channel=9 note=40 velocity=0 time=96 actual_time=68136
type=note_on channel=9 note=35 velocity=80 time=24 actual_time=68160
type=note_on channel=9 note=31 velocity=80 time=0 actual_time=68160
type=note_on channel=9 note=31 velocity=0 time=32 actual_time=68192
type=note_on channel=9 note=35 velocity=0 time=0 actual_time=68192
type=note_on channel=9 note=31 velocity=80 time=8 actual_time=68200
type=note_on channel=9 note=31 velocity=0 time=32 actual_time=68232
type=note_on channel=9 note=31 velocity=80 time=8 actual_time=68240
type=note_on channel=9 note=31 velocity=0 time=32 actual_time=68272
type=note_on channel=9 note=40 velocity=80 time=8 actual_time=68280
type=note_on channel=9 note=40 velocity=0 time=96 actual_time=68376
type=note_on channel=9 note=35 velocity=80 time=24 actual_time=68400
type=note_on channel=9 note=35 velocity=0 time=96 actual_time=68496
type=note_on channel=9 note=40 velocity=80 time=24 actual_time=68520
type=note_on channel=9 note=40 velocity=0 time=96 actual_time=68616
type=note_on channel=9 note=35 velocity=80 time=24 actual_time=68640
type=note_on channel=9 note=31 velocity=80 time=0 actual_time=68640
type=note_on channel=9 note=31 velocity=0 time=32 actual_time=68672
type=note_on channel=9 note=35 velocity=0 time=0 actual_time=68672
type=note_on channel=9 note=31 velocity=80 time=8 actual_time=68680
type=note_on channel=9 note=31 velocity=0 time=32 actual_time=68712
type=note_on channel=9 note=31 velocity=80 time=8 actual_time=68720
type=note_on channel=9 note=31 velocity=0 time=32 actual_time=68752
type=note_on channel=9 note=40 velocity=80 time=8 actual_time=68760
type=note_on channel=9 note=40 velocity=0 time=96 actual_time=68856
type=note_on channel=9 note=35 velocity=80 time=24 actual_time=68880
type=note_on channel=9 note=35 velocity=0 time=96 actual_time=68976
type=note_on channel=9 note=40 velocity=80 time=24 actual_time=69000
type=note_on channel=9 note=40 velocity=0 time=96 actual_time=69096
type=note_on channel=9 note=35 velocity=80 time=24 actual_time=69120
type=note_on channel=9 note=31 velocity=80 time=0 actual_time=69120
type=note_on channel=9 note=31 velocity=0 time=32 actual_time=69152
type=note_on channel=9 note=35 velocity=0 time=0 actual_time=69152
type=note_on channel=9 note=31 velocity=80 time=8 actual_time=69160
type=note_on channel=9 note=31 velocity=0 time=32 actual_time=69192
type=note_on channel=9 note=31 velocity=80 time=8 actual_time=69200
type=note_on channel=9 note=31 velocity=0 time=32 actual_time=69232
type=note_on channel=9 note=40 velocity=80 time=8 actual_time=69240
type=note_on channel=9 note=40 velocity=0 time=96 actual_time=69336
type=note_on channel=9 note=35 velocity=80 time=24 actual_time=69360
type=note_on channel=9 note=35 velocity=0 time=96 actual_time=69456
type=note_on channel=9 note=40 velocity=80 time=24 actual_time=69480
type=note_on channel=9 note=40 velocity=0 time=96 actual_time=69576
type=note_on channel=9 note=31 velocity=80 time=24 actual_time=69600
type=note_on channel=9 note=35 velocity=80 time=0 actual_time=69600
type=note_on channel=9 note=35 velocity=0 time=32 actual_time=69632
type=note_on channel=9 note=31 velocity=0 time=0 actual_time=69632
type=note_on channel=9 note=31 velocity=80 time=8 actual_time=69640
type=note_on channel=9 note=31 velocity=0 time=32 actual_time=69672
type=note_on channel=9 note=31 velocity=80 time=8 actual_time=69680
type=note_on channel=9 note=31 velocity=0 time=32 actual_time=69712
type=note_on channel=9 note=40 velocity=80 time=8 actual_time=69720
type=note_on channel=9 note=40 velocity=0 time=96 actual_time=69816
type=note_on channel=9 note=35 velocity=80 time=24 actual_time=69840
type=note_on channel=9 note=35 velocity=0 time=96 actual_time=69936
type=note_on channel=9 note=40 velocity=80 time=24 actual_time=69960
type=note_on channel=9 note=40 velocity=0 time=96 actual_time=70056
type=note_on channel=9 note=35 velocity=80 time=24 actual_time=70080
type=note_on channel=9 note=31 velocity=80 time=0 actual_time=70080
type=note_on channel=9 note=31 velocity=0 time=32 actual_time=70112
type=note_on channel=9 note=35 velocity=0 time=0 actual_time=70112
type=note_on channel=9 note=31 velocity=80 time=8 actual_time=70120
type=note_on channel=9 note=31 velocity=0 time=32 actual_time=70152
type=note_on channel=9 note=31 velocity=80 time=8 actual_time=70160
type=note_on channel=9 note=31 velocity=0 time=32 actual_time=70192
type=note_on channel=9 note=40 velocity=80 time=8 actual_time=70200
type=note_on channel=9 note=40 velocity=0 time=96 actual_time=70296
type=note_on channel=9 note=35 velocity=80 time=24 actual_time=70320
type=note_on channel=9 note=35 velocity=0 time=96 actual_time=70416
type=note_on channel=9 note=40 velocity=80 time=24 actual_time=70440
type=note_on channel=9 note=40 velocity=0 time=96 actual_time=70536
type=note_on channel=9 note=31 velocity=80 time=24 actual_time=70560
type=note_on channel=9 note=35 velocity=80 time=0 actual_time=70560
type=note_on channel=9 note=35 velocity=0 time=32 actual_time=70592
type=note_on channel=9 note=31 velocity=0 time=0 actual_time=70592
type=note_on channel=9 note=31 velocity=80 time=8 actual_time=70600
type=note_on channel=9 note=31 velocity=0 time=32 actual_time=70632
type=note_on channel=9 note=31 velocity=80 time=8 actual_time=70640
type=note_on channel=9 note=31 velocity=0 time=32 actual_time=70672
type=note_on channel=9 note=40 velocity=80 time=8 actual_time=70680
type=note_on channel=9 note=40 velocity=0 time=96 actual_time=70776
type=note_on channel=9 note=35 velocity=80 time=24 actual_time=70800
type=note_on channel=9 note=35 velocity=0 time=96 actual_time=70896
type=note_on channel=9 note=40 velocity=80 time=24 actual_time=70920
type=note_on channel=9 note=40 velocity=0 time=96 actual_time=71016
type=note_on channel=9 note=31 velocity=80 time=24 actual_time=71040
type=note_on channel=9 note=35 velocity=80 time=0 actual_time=71040
type=note_on channel=9 note=35 velocity=0 time=32 actual_time=71072
type=note_on channel=9 note=31 velocity=0 time=0 actual_time=71072
type=note_on channel=9 note=31 velocity=80 time=8 actual_time=71080
type=note_on channel=9 note=31 velocity=0 time=32 actual_time=71112
type=note_on channel=9 note=31 velocity=80 time=8 actual_time=71120
type=note_on channel=9 note=31 velocity=0 time=32 actual_time=71152
type=note_on channel=9 note=40 velocity=80 time=8 actual_time=71160
type=note_on channel=9 note=40 velocity=0 time=96 actual_time=71256
type=note_on channel=9 note=35 velocity=80 time=24 actual_time=71280
type=note_on channel=9 note=35 velocity=0 time=96 actual_time=71376
type=note_on channel=9 note=40 velocity=80 time=24 actual_time=71400
type=note_on channel=9 note=40 velocity=0 time=96 actual_time=71496
type=note_on channel=9 note=35 velocity=80 time=24 actual_time=71520
type=note_on channel=9 note=31 velocity=80 time=0 actual_time=71520
type=note_on channel=9 note=31 velocity=0 time=32 actual_time=71552
type=note_on channel=9 note=35 velocity=0 time=0 actual_time=71552
type=note_on channel=9 note=31 velocity=80 time=8 actual_time=71560
type=note_on channel=9 note=31 velocity=0 time=32 actual_time=71592
type=note_on channel=9 note=31 velocity=80 time=8 actual_time=71600
type=note_on channel=9 note=31 velocity=0 time=32 actual_time=71632
type=note_on channel=9 note=40 velocity=80 time=8 actual_time=71640
type=note_on channel=9 note=40 velocity=0 time=96 actual_time=71736
type=note_on channel=9 note=35 velocity=80 time=24 actual_time=71760
type=note_on channel=9 note=35 velocity=0 time=96 actual_time=71856
type=note_on channel=9 note=40 velocity=80 time=24 actual_time=71880
type=note_on channel=9 note=40 velocity=0 time=96 actual_time=71976
type=note_on channel=9 note=35 velocity=80 time=24 actual_time=72000
type=note_on channel=9 note=31 velocity=80 time=0 actual_time=72000
type=note_on channel=9 note=31 velocity=0 time=32 actual_time=72032
type=note_on channel=9 note=35 velocity=0 time=0 actual_time=72032
type=note_on channel=9 note=31 velocity=80 time=8 actual_time=72040
type=note_on channel=9 note=31 velocity=0 time=32 actual_time=72072
type=note_on channel=9 note=31 velocity=80 time=8 actual_time=72080
type=note_on channel=9 note=31 velocity=0 time=32 actual_time=72112
type=note_on channel=9 note=40 velocity=80 time=8 actual_time=72120
type=note_on channel=9 note=40 velocity=0 time=96 actual_time=72216
type=note_on channel=9 note=35 velocity=80 time=24 actual_time=72240
type=note_on channel=9 note=35 velocity=0 time=96 actual_time=72336
type=note_on channel=9 note=40 velocity=80 time=24 actual_time=72360
type=note_on channel=9 note=40 velocity=0 time=96 actual_time=72456
type=note_on channel=9 note=40 velocity=80 time=24 actual_time=72480
type=note_on channel=9 note=40 velocity=0 time=32 actual_time=72512
type=note_on channel=9 note=40 velocity=80 time=8 actual_time=72520
type=note_on channel=9 note=40 velocity=0 time=32 actual_time=72552
type=note_on channel=9 note=40 velocity=80 time=8 actual_time=72560
type=note_on channel=9 note=40 velocity=0 time=32 actual_time=72592
type=note_on channel=9 note=40 velocity=80 time=8 actual_time=72600
type=note_on channel=9 note=40 velocity=0 time=32 actual_time=72632
type=note_on channel=9 note=40 velocity=80 time=8 actual_time=72640
type=note_on channel=9 note=40 velocity=0 time=32 actual_time=72672
type=note_on channel=9 note=40 velocity=80 time=8 actual_time=72680
type=note_on channel=9 note=40 velocity=0 time=32 actual_time=72712
type=note_on channel=9 note=40 velocity=80 time=8 actual_time=72720
type=note_on channel=9 note=47 velocity=80 time=0 actual_time=72720
type=note_on channel=9 note=47 velocity=0 time=32 actual_time=72752
type=note_on channel=9 note=40 velocity=0 time=0 actual_time=72752
type=note_on channel=9 note=45 velocity=80 time=8 actual_time=72760
type=note_on channel=9 note=40 velocity=80 time=0 actual_time=72760
type=note_on channel=9 note=40 velocity=0 time=32 actual_time=72792
type=note_on channel=9 note=45 velocity=0 time=0 actual_time=72792
type=note_on channel=9 note=43 velocity=80 time=8 actual_time=72800
type=note_on channel=9 note=40 velocity=80 time=0 actual_time=72800
type=note_on channel=9 note=40 velocity=0 time=32 actual_time=72832
type=note_on channel=9 note=43 velocity=0 time=0 actual_time=72832
type=note_on channel=9 note=40 velocity=80 time=8 actual_time=72840
type=note_on channel=9 note=47 velocity=80 time=0 actual_time=72840
type=note_on channel=9 note=47 velocity=0 time=32 actual_time=72872
type=note_on channel=9 note=40 velocity=0 time=0 actual_time=72872
type=note_on channel=9 note=40 velocity=80 time=8 actual_time=72880
type=note_on channel=9 note=45 velocity=80 time=0 actual_time=72880
type=note_on channel=9 note=45 velocity=0 time=32 actual_time=72912
type=note_on channel=9 note=40 velocity=0 time=0 actual_time=72912
type=note_on channel=9 note=40 velocity=80 time=8 actual_time=72920
type=note_on channel=9 note=43 velocity=80 time=0 actual_time=72920
type=note_on channel=9 note=43 velocity=0 time=32 actual_time=72952
type=note_on channel=9 note=40 velocity=0 time=0 actual_time=72952
type=note_on channel=9 note=53 velocity=80 time=8 actual_time=72960
type=note_on channel=9 note=49 velocity=80 time=0 actual_time=72960
type=note_on channel=9 note=35 velocity=80 time=0 actual_time=72960
type=note_on channel=9 note=59 velocity=80 time=0 actual_time=72960
type=note_on channel=9 note=59 velocity=0 time=96 actual_time=73056
type=note_on channel=9 note=53 velocity=0 time=0 actual_time=73056
type=note_on channel=9 note=49 velocity=0 time=0 actual_time=73056
type=note_on channel=9 note=35 velocity=0 time=0 actual_time=73056
type=note_on channel=9 note=53 velocity=80 time=24 actual_time=73080
type=note_on channel=9 note=40 velocity=80 time=0 actual_time=73080
type=note_on channel=9 note=59 velocity=80 time=0 actual_time=73080
type=note_on channel=9 note=59 velocity=0 time=96 actual_time=73176
type=note_on channel=9 note=40 velocity=0 time=0 actual_time=73176
type=note_on channel=9 note=53 velocity=0 time=0 actual_time=73176
type=note_on channel=9 note=53 velocity=80 time=24 actual_time=73200
type=note_on channel=9 note=59 velocity=80 time=0 actual_time=73200
type=note_on channel=9 note=59 velocity=0 time=64 actual_time=73264
type=note_on channel=9 note=53 velocity=0 time=0 actual_time=73264
type=note_on channel=9 note=35 velocity=80 time=16 actual_time=73280
type=note_on channel=9 note=35 velocity=0 time=32 actual_time=73312
type=note_on channel=9 note=40 velocity=80 time=8 actual_time=73320
type=note_on channel=9 note=53 velocity=80 time=0 actual_time=73320
type=note_on channel=9 note=59 velocity=80 time=0 actual_time=73320
type=note_on channel=9 note=59 velocity=0 time=96 actual_time=73416
type=note_on channel=9 note=53 velocity=0 time=0 actual_time=73416
type=note_on channel=9 note=40 velocity=0 time=0 actual_time=73416
type=note_on channel=9 note=53 velocity=80 time=24 actual_time=73440
type=note_on channel=9 note=59 velocity=80 time=0 actual_time=73440
type=note_on channel=9 note=35 velocity=80 time=0 actual_time=73440
type=note_on channel=9 note=35 velocity=0 time=96 actual_time=73536
type=note_on channel=9 note=59 velocity=0 time=0 actual_time=73536
type=note_on channel=9 note=53 velocity=0 time=0 actual_time=73536
type=note_on channel=9 note=59 velocity=80 time=24 actual_time=73560
type=note_on channel=9 note=40 velocity=80 time=0 actual_time=73560
type=note_on channel=9 note=53 velocity=80 time=0 actual_time=73560
type=note_on channel=9 note=53 velocity=0 time=96 actual_time=73656
type=note_on channel=9 note=40 velocity=0 time=0 actual_time=73656
type=note_on channel=9 note=59 velocity=0 time=0 actual_time=73656
type=note_on channel=9 note=59 velocity=80 time=24 actual_time=73680
type=note_on channel=9 note=53 velocity=80 time=0 actual_time=73680
type=note_on channel=9 note=53 velocity=0 time=64 actual_time=73744
type=note_on channel=9 note=59 velocity=0 time=0 actual_time=73744
type=note_on channel=9 note=35 velocity=80 time=16 actual_time=73760
type=note_on channel=9 note=35 velocity=0 time=32 actual_time=73792
type=note_on channel=9 note=59 velocity=80 time=8 actual_time=73800
type=note_on channel=9 note=53 velocity=80 time=0 actual_time=73800
type=note_on channel=9 note=40 velocity=80 time=0 actual_time=73800
type=note_on channel=9 note=40 velocity=0 time=96 actual_time=73896
type=note_on channel=9 note=53 velocity=0 time=0 actual_time=73896
type=note_on channel=9 note=59 velocity=0 time=0 actual_time=73896
type=note_on channel=9 note=59 velocity=80 time=24 actual_time=73920
type=note_on channel=9 note=35 velocity=80 time=0 actual_time=73920
type=note_on channel=9 note=49 velocity=80 time=0 actual_time=73920
type=note_on channel=9 note=53 velocity=80 time=0 actual_time=73920
type=note_on channel=9 note=53 velocity=0 time=96 actual_time=74016
type=note_on channel=9 note=59 velocity=0 time=0 actual_time=74016
type=note_on channel=9 note=35 velocity=0 time=0 actual_time=74016
type=note_on channel=9 note=49 velocity=0 time=0 actual_time=74016
type=note_on channel=9 note=59 velocity=80 time=24 actual_time=74040
type=note_on channel=9 note=40 velocity=80 time=0 actual_time=74040
type=note_on channel=9 note=53 velocity=80 time=0 actual_time=74040
type=note_on channel=9 note=53 velocity=0 time=96 actual_time=74136
type=note_on channel=9 note=40 velocity=0 time=0 actual_time=74136
type=note_on channel=9 note=59 velocity=0 time=0 actual_time=74136
type=note_on channel=9 note=59 velocity=80 time=24 actual_time=74160
type=note_on channel=9 note=53 velocity=80 time=0 actual_time=74160
type=note_on channel=9 note=53 velocity=0 time=64 actual_time=74224
type=note_on channel=9 note=59 velocity=0 time=0 actual_time=74224
type=note_on channel=9 note=35 velocity=80 time=16 actual_time=74240
type=note_on channel=9 note=35 velocity=0 time=32 actual_time=74272
type=note_on channel=9 note=59 velocity=80 time=8 actual_time=74280
type=note_on channel=9 note=53 velocity=80 time=0 actual_time=74280
type=note_on channel=9 note=40 velocity=80 time=0 actual_time=74280
type=note_on channel=9 note=40 velocity=0 time=96 actual_time=74376
type=note_on channel=9 note=53 velocity=0 time=0 actual_time=74376
type=note_on channel=9 note=59 velocity=0 time=0 actual_time=74376
type=note_on channel=9 note=59 velocity=80 time=24 actual_time=74400
type=note_on channel=9 note=53 velocity=80 time=0 actual_time=74400
type=note_on channel=9 note=35 velocity=80 time=0 actual_time=74400
type=note_on channel=9 note=35 velocity=0 time=64 actual_time=74464
type=note_on channel=9 note=53 velocity=0 time=0 actual_time=74464
type=note_on channel=9 note=59 velocity=0 time=0 actual_time=74464
type=note_on channel=9 note=35 velocity=80 time=16 actual_time=74480
type=note_on channel=9 note=35 velocity=0 time=32 actual_time=74512
type=note_on channel=9 note=59 velocity=80 time=8 actual_time=74520
type=note_on channel=9 note=53 velocity=80 time=0 actual_time=74520
type=note_on channel=9 note=40 velocity=80 time=0 actual_time=74520
type=note_on channel=9 note=49 velocity=80 time=0 actual_time=74520
type=note_on channel=9 note=49 velocity=0 time=96 actual_time=74616
type=note_on channel=9 note=59 velocity=0 time=0 actual_time=74616
type=note_on channel=9 note=53 velocity=0 time=0 actual_time=74616
type=note_on channel=9 note=40 velocity=0 time=0 actual_time=74616
type=note_on channel=9 note=59 velocity=80 time=24 actual_time=74640
type=note_on channel=9 note=53 velocity=80 time=0 actual_time=74640
type=note_on channel=9 note=35 velocity=80 time=0 actual_time=74640
type=note_on channel=9 note=35 velocity=0 time=64 actual_time=74704
type=note_on channel=9 note=53 velocity=0 time=0 actual_time=74704
type=note_on channel=9 note=59 velocity=0 time=0 actual_time=74704
type=note_on channel=9 note=35 velocity=80 time=16 actual_time=74720
type=note_on channel=9 note=35 velocity=0 time=32 actual_time=74752
type=note_on channel=9 note=59 velocity=80 time=8 actual_time=74760
type=note_on channel=9 note=53 velocity=80 time=0 actual_time=74760
type=note_on channel=9 note=40 velocity=80 time=0 actual_time=74760
type=note_on channel=9 note=49 velocity=80 time=0 actual_time=74760
type=note_on channel=9 note=49 velocity=0 time=96 actual_time=74856
type=note_on channel=9 note=59 velocity=0 time=0 actual_time=74856
type=note_on channel=9 note=53 velocity=0 time=0 actual_time=74856
type=note_on channel=9 note=40 velocity=0 time=0 actual_time=74856
type=note_on channel=9 note=53 velocity=80 time=24 actual_time=74880
type=note_on channel=9 note=49 velocity=80 time=0 actual_time=74880
type=note_on channel=9 note=35 velocity=80 time=0 actual_time=74880
type=note_on channel=9 note=59 velocity=80 time=0 actual_time=74880
type=note_on channel=9 note=59 velocity=0 time=96 actual_time=74976
type=note_on channel=9 note=53 velocity=0 time=0 actual_time=74976
type=note_on channel=9 note=49 velocity=0 time=0 actual_time=74976
type=note_on channel=9 note=35 velocity=0 time=0 actual_time=74976
type=note_on channel=9 note=53 velocity=80 time=24 actual_time=75000
type=note_on channel=9 note=40 velocity=80 time=0 actual_time=75000
type=note_on channel=9 note=59 velocity=80 time=0 actual_time=75000
type=note_on channel=9 note=59 velocity=0 time=96 actual_time=75096
type=note_on channel=9 note=40 velocity=0 time=0 actual_time=75096
type=note_on channel=9 note=53 velocity=0 time=0 actual_time=75096
type=note_on channel=9 note=53 velocity=80 time=24 actual_time=75120
type=note_on channel=9 note=59 velocity=80 time=0 actual_time=75120
type=note_on channel=9 note=59 velocity=0 time=64 actual_time=75184
type=note_on channel=9 note=53 velocity=0 time=0 actual_time=75184
type=note_on channel=9 note=35 velocity=80 time=16 actual_time=75200
type=note_on channel=9 note=35 velocity=0 time=32 actual_time=75232
type=note_on channel=9 note=40 velocity=80 time=8 actual_time=75240
type=note_on channel=9 note=53 velocity=80 time=0 actual_time=75240
type=note_on channel=9 note=59 velocity=80 time=0 actual_time=75240
type=note_on channel=9 note=59 velocity=0 time=96 actual_time=75336
type=note_on channel=9 note=53 velocity=0 time=0 actual_time=75336
type=note_on channel=9 note=40 velocity=0 time=0 actual_time=75336
type=note_on channel=9 note=53 velocity=80 time=24 actual_time=75360
type=note_on channel=9 note=59 velocity=80 time=0 actual_time=75360
type=note_on channel=9 note=35 velocity=80 time=0 actual_time=75360
type=note_on channel=9 note=35 velocity=0 time=96 actual_time=75456
type=note_on channel=9 note=59 velocity=0 time=0 actual_time=75456
type=note_on channel=9 note=53 velocity=0 time=0 actual_time=75456
type=note_on channel=9 note=59 velocity=80 time=24 actual_time=75480
type=note_on channel=9 note=40 velocity=80 time=0 actual_time=75480
type=note_on channel=9 note=53 velocity=80 time=0 actual_time=75480
type=note_on channel=9 note=53 velocity=0 time=96 actual_time=75576
type=note_on channel=9 note=40 velocity=0 time=0 actual_time=75576
type=note_on channel=9 note=59 velocity=0 time=0 actual_time=75576
type=note_on channel=9 note=59 velocity=80 time=24 actual_time=75600
type=note_on channel=9 note=53 velocity=80 time=0 actual_time=75600
type=note_on channel=9 note=53 velocity=0 time=64 actual_time=75664
type=note_on channel=9 note=59 velocity=0 time=0 actual_time=75664
type=note_on channel=9 note=35 velocity=80 time=16 actual_time=75680
type=note_on channel=9 note=35 velocity=0 time=32 actual_time=75712
type=note_on channel=9 note=59 velocity=80 time=8 actual_time=75720
type=note_on channel=9 note=53 velocity=80 time=0 actual_time=75720
type=note_on channel=9 note=40 velocity=80 time=0 actual_time=75720
type=note_on channel=9 note=40 velocity=0 time=96 actual_time=75816
type=note_on channel=9 note=53 velocity=0 time=0 actual_time=75816
type=note_on channel=9 note=59 velocity=0 time=0 actual_time=75816
type=note_on channel=9 note=59 velocity=80 time=24 actual_time=75840
type=note_on channel=9 note=35 velocity=80 time=0 actual_time=75840
type=note_on channel=9 note=49 velocity=80 time=0 actual_time=75840
type=note_on channel=9 note=53 velocity=80 time=0 actual_time=75840
type=note_on channel=9 note=53 velocity=0 time=96 actual_time=75936
type=note_on channel=9 note=59 velocity=0 time=0 actual_time=75936
type=note_on channel=9 note=35 velocity=0 time=0 actual_time=75936
type=note_on channel=9 note=49 velocity=0 time=0 actual_time=75936
type=note_on channel=9 note=59 velocity=80 time=24 actual_time=75960
type=note_on channel=9 note=40 velocity=80 time=0 actual_time=75960
type=note_on channel=9 note=53 velocity=80 time=0 actual_time=75960
type=note_on channel=9 note=53 velocity=0 time=96 actual_time=76056
type=note_on channel=9 note=40 velocity=0 time=0 actual_time=76056
type=note_on channel=9 note=59 velocity=0 time=0 actual_time=76056
type=note_on channel=9 note=59 velocity=80 time=24 actual_time=76080
type=note_on channel=9 note=53 velocity=80 time=0 actual_time=76080
type=note_on channel=9 note=53 velocity=0 time=64 actual_time=76144
type=note_on channel=9 note=59 velocity=0 time=0 actual_time=76144
type=note_on channel=9 note=35 velocity=80 time=16 actual_time=76160
type=note_on channel=9 note=35 velocity=0 time=32 actual_time=76192
type=note_on channel=9 note=59 velocity=80 time=8 actual_time=76200
type=note_on channel=9 note=53 velocity=80 time=0 actual_time=76200
type=note_on channel=9 note=40 velocity=80 time=0 actual_time=76200
type=note_on channel=9 note=40 velocity=0 time=96 actual_time=76296
type=note_on channel=9 note=53 velocity=0 time=0 actual_time=76296
type=note_on channel=9 note=59 velocity=0 time=0 actual_time=76296
type=note_on channel=9 note=59 velocity=80 time=24 actual_time=76320
type=note_on channel=9 note=53 velocity=80 time=0 actual_time=76320
type=note_on channel=9 note=35 velocity=80 time=0 actual_time=76320
type=note_on channel=9 note=35 velocity=0 time=64 actual_time=76384
type=note_on channel=9 note=53 velocity=0 time=0 actual_time=76384
type=note_on channel=9 note=59 velocity=0 time=0 actual_time=76384
type=note_on channel=9 note=35 velocity=80 time=16 actual_time=76400
type=note_on channel=9 note=35 velocity=0 time=32 actual_time=76432
type=note_on channel=9 note=59 velocity=80 time=8 actual_time=76440
type=note_on channel=9 note=53 velocity=80 time=0 actual_time=76440
type=note_on channel=9 note=40 velocity=80 time=0 actual_time=76440
type=note_on channel=9 note=49 velocity=80 time=0 actual_time=76440
type=note_on channel=9 note=49 velocity=0 time=96 actual_time=76536
type=note_on channel=9 note=59 velocity=0 time=0 actual_time=76536
type=note_on channel=9 note=53 velocity=0 time=0 actual_time=76536
type=note_on channel=9 note=40 velocity=0 time=0 actual_time=76536
type=note_on channel=9 note=59 velocity=80 time=24 actual_time=76560
type=note_on channel=9 note=53 velocity=80 time=0 actual_time=76560
type=note_on channel=9 note=35 velocity=80 time=0 actual_time=76560
type=note_on channel=9 note=35 velocity=0 time=64 actual_time=76624
type=note_on channel=9 note=53 velocity=0 time=0 actual_time=76624
type=note_on channel=9 note=59 velocity=0 time=0 actual_time=76624
type=note_on channel=9 note=35 velocity=80 time=16 actual_time=76640
type=note_on channel=9 note=35 velocity=0 time=32 actual_time=76672
type=note_on channel=9 note=59 velocity=80 time=8 actual_time=76680
type=note_on channel=9 note=53 velocity=80 time=0 actual_time=76680
type=note_on channel=9 note=40 velocity=80 time=0 actual_time=76680
type=note_on channel=9 note=49 velocity=80 time=0 actual_time=76680
type=note_on channel=9 note=49 velocity=0 time=96 actual_time=76776
type=note_on channel=9 note=59 velocity=0 time=0 actual_time=76776
type=note_on channel=9 note=53 velocity=0 time=0 actual_time=76776
type=note_on channel=9 note=40 velocity=0 time=0 actual_time=76776
type=note_on channel=9 note=53 velocity=80 time=24 actual_time=76800
type=note_on channel=9 note=49 velocity=80 time=0 actual_time=76800
type=note_on channel=9 note=35 velocity=80 time=0 actual_time=76800
type=note_on channel=9 note=59 velocity=80 time=0 actual_time=76800
type=note_on channel=9 note=59 velocity=0 time=96 actual_time=76896
type=note_on channel=9 note=53 velocity=0 time=0 actual_time=76896
type=note_on channel=9 note=49 velocity=0 time=0 actual_time=76896
type=note_on channel=9 note=35 velocity=0 time=0 actual_time=76896
type=note_on channel=9 note=53 velocity=80 time=24 actual_time=76920
type=note_on channel=9 note=40 velocity=80 time=0 actual_time=76920
type=note_on channel=9 note=59 velocity=80 time=0 actual_time=76920
type=note_on channel=9 note=59 velocity=0 time=96 actual_time=77016
type=note_on channel=9 note=40 velocity=0 time=0 actual_time=77016
type=note_on channel=9 note=53 velocity=0 time=0 actual_time=77016
type=note_on channel=9 note=53 velocity=80 time=24 actual_time=77040
type=note_on channel=9 note=59 velocity=80 time=0 actual_time=77040
type=note_on channel=9 note=59 velocity=0 time=64 actual_time=77104
type=note_on channel=9 note=53 velocity=0 time=0 actual_time=77104
type=note_on channel=9 note=35 velocity=80 time=16 actual_time=77120
type=note_on channel=9 note=35 velocity=0 time=32 actual_time=77152
type=note_on channel=9 note=40 velocity=80 time=8 actual_time=77160
type=note_on channel=9 note=53 velocity=80 time=0 actual_time=77160
type=note_on channel=9 note=59 velocity=80 time=0 actual_time=77160
type=note_on channel=9 note=59 velocity=0 time=96 actual_time=77256
type=note_on channel=9 note=53 velocity=0 time=0 actual_time=77256
type=note_on channel=9 note=40 velocity=0 time=0 actual_time=77256
type=note_on channel=9 note=53 velocity=80 time=24 actual_time=77280
type=note_on channel=9 note=59 velocity=80 time=0 actual_time=77280
type=note_on channel=9 note=35 velocity=80 time=0 actual_time=77280
type=note_on channel=9 note=35 velocity=0 time=96 actual_time=77376
type=note_on channel=9 note=59 velocity=0 time=0 actual_time=77376
type=note_on channel=9 note=53 velocity=0 time=0 actual_time=77376
type=note_on channel=9 note=59 velocity=80 time=24 actual_time=77400
type=note_on channel=9 note=40 velocity=80 time=0 actual_time=77400
type=note_on channel=9 note=53 velocity=80 time=0 actual_time=77400
type=note_on channel=9 note=53 velocity=0 time=96 actual_time=77496
type=note_on channel=9 note=40 velocity=0 time=0 actual_time=77496
type=note_on channel=9 note=59 velocity=0 time=0 actual_time=77496
type=note_on channel=9 note=59 velocity=80 time=24 actual_time=77520
type=note_on channel=9 note=53 velocity=80 time=0 actual_time=77520
type=note_on channel=9 note=53 velocity=0 time=64 actual_time=77584
type=note_on channel=9 note=59 velocity=0 time=0 actual_time=77584
type=note_on channel=9 note=35 velocity=80 time=16 actual_time=77600
type=note_on channel=9 note=35 velocity=0 time=32 actual_time=77632
type=note_on channel=9 note=59 velocity=80 time=8 actual_time=77640
type=note_on channel=9 note=53 velocity=80 time=0 actual_time=77640
type=note_on channel=9 note=40 velocity=80 time=0 actual_time=77640
type=note_on channel=9 note=40 velocity=0 time=96 actual_time=77736
type=note_on channel=9 note=53 velocity=0 time=0 actual_time=77736
type=note_on channel=9 note=59 velocity=0 time=0 actual_time=77736
type=note_on channel=9 note=59 velocity=80 time=24 actual_time=77760
type=note_on channel=9 note=35 velocity=80 time=0 actual_time=77760
type=note_on channel=9 note=49 velocity=80 time=0 actual_time=77760
type=note_on channel=9 note=53 velocity=80 time=0 actual_time=77760
type=note_on channel=9 note=53 velocity=0 time=96 actual_time=77856
type=note_on channel=9 note=59 velocity=0 time=0 actual_time=77856
type=note_on channel=9 note=35 velocity=0 time=0 actual_time=77856
type=note_on channel=9 note=49 velocity=0 time=0 actual_time=77856
type=note_on channel=9 note=59 velocity=80 time=24 actual_time=77880
type=note_on channel=9 note=40 velocity=80 time=0 actual_time=77880
type=note_on channel=9 note=53 velocity=80 time=0 actual_time=77880
type=note_on channel=9 note=53 velocity=0 time=96 actual_time=77976
type=note_on channel=9 note=40 velocity=0 time=0 actual_time=77976
type=note_on channel=9 note=59 velocity=0 time=0 actual_time=77976
type=note_on channel=9 note=59 velocity=80 time=24 actual_time=78000
type=note_on channel=9 note=53 velocity=80 time=0 actual_time=78000
type=note_on channel=9 note=53 velocity=0 time=64 actual_time=78064
type=note_on channel=9 note=59 velocity=0 time=0 actual_time=78064
type=note_on channel=9 note=35 velocity=80 time=16 actual_time=78080
type=note_on channel=9 note=35 velocity=0 time=32 actual_time=78112
type=note_on channel=9 note=59 velocity=80 time=8 actual_time=78120
type=note_on channel=9 note=53 velocity=80 time=0 actual_time=78120
type=note_on channel=9 note=40 velocity=80 time=0 actual_time=78120
type=note_on channel=9 note=40 velocity=0 time=96 actual_time=78216
type=note_on channel=9 note=53 velocity=0 time=0 actual_time=78216
type=note_on channel=9 note=59 velocity=0 time=0 actual_time=78216
type=note_on channel=9 note=59 velocity=80 time=24 actual_time=78240
type=note_on channel=9 note=53 velocity=80 time=0 actual_time=78240
type=note_on channel=9 note=35 velocity=80 time=0 actual_time=78240
type=note_on channel=9 note=35 velocity=0 time=64 actual_time=78304
type=note_on channel=9 note=53 velocity=0 time=0 actual_time=78304
type=note_on channel=9 note=59 velocity=0 time=0 actual_time=78304
type=note_on channel=9 note=35 velocity=80 time=16 actual_time=78320
type=note_on channel=9 note=35 velocity=0 time=32 actual_time=78352
type=note_on channel=9 note=59 velocity=80 time=8 actual_time=78360
type=note_on channel=9 note=53 velocity=80 time=0 actual_time=78360
type=note_on channel=9 note=40 velocity=80 time=0 actual_time=78360
type=note_on channel=9 note=49 velocity=80 time=0 actual_time=78360
type=note_on channel=9 note=49 velocity=0 time=96 actual_time=78456
type=note_on channel=9 note=59 velocity=0 time=0 actual_time=78456
type=note_on channel=9 note=53 velocity=0 time=0 actual_time=78456
type=note_on channel=9 note=40 velocity=0 time=0 actual_time=78456
type=note_on channel=9 note=59 velocity=80 time=24 actual_time=78480
type=note_on channel=9 note=53 velocity=80 time=0 actual_time=78480
type=note_on channel=9 note=35 velocity=80 time=0 actual_time=78480
type=note_on channel=9 note=35 velocity=0 time=64 actual_time=78544
type=note_on channel=9 note=53 velocity=0 time=0 actual_time=78544
type=note_on channel=9 note=59 velocity=0 time=0 actual_time=78544
type=note_on channel=9 note=35 velocity=80 time=16 actual_time=78560
type=note_on channel=9 note=35 velocity=0 time=32 actual_time=78592
type=note_on channel=9 note=59 velocity=80 time=8 actual_time=78600
type=note_on channel=9 note=53 velocity=80 time=0 actual_time=78600
type=note_on channel=9 note=40 velocity=80 time=0 actual_time=78600
type=note_on channel=9 note=49 velocity=80 time=0 actual_time=78600
type=note_on channel=9 note=49 velocity=0 time=96 actual_time=78696
type=note_on channel=9 note=59 velocity=0 time=0 actual_time=78696
type=note_on channel=9 note=53 velocity=0 time=0 actual_time=78696
type=note_on channel=9 note=40 velocity=0 time=0 actual_time=78696
type=note_on channel=9 note=59 velocity=80 time=24 actual_time=78720
type=note_on channel=9 note=35 velocity=80 time=0 actual_time=78720
type=note_on channel=9 note=49 velocity=80 time=0 actual_time=78720
type=note_on channel=9 note=53 velocity=80 time=0 actual_time=78720
type=note_on channel=9 note=53 velocity=0 time=96 actual_time=78816
type=note_on channel=9 note=59 velocity=0 time=0 actual_time=78816
type=note_on channel=9 note=35 velocity=0 time=0 actual_time=78816
type=note_on channel=9 note=49 velocity=0 time=0 actual_time=78816
type=note_on channel=9 note=59 velocity=80 time=24 actual_time=78840
type=note_on channel=9 note=40 velocity=80 time=0 actual_time=78840
type=note_on channel=9 note=53 velocity=80 time=0 actual_time=78840
type=note_on channel=9 note=53 velocity=0 time=96 actual_time=78936
type=note_on channel=9 note=40 velocity=0 time=0 actual_time=78936
type=note_on channel=9 note=59 velocity=0 time=0 actual_time=78936
type=note_on channel=9 note=59 velocity=80 time=24 actual_time=78960
type=note_on channel=9 note=53 velocity=80 time=0 actual_time=78960
type=note_on channel=9 note=53 velocity=0 time=64 actual_time=79024
type=note_on channel=9 note=59 velocity=0 time=0 actual_time=79024
type=note_on channel=9 note=35 velocity=80 time=16 actual_time=79040
type=note_on channel=9 note=35 velocity=0 time=32 actual_time=79072
type=note_on channel=9 note=59 velocity=80 time=8 actual_time=79080
type=note_on channel=9 note=53 velocity=80 time=0 actual_time=79080
type=note_on channel=9 note=40 velocity=80 time=0 actual_time=79080
type=note_on channel=9 note=40 velocity=0 time=96 actual_time=79176
type=note_on channel=9 note=53 velocity=0 time=0 actual_time=79176
type=note_on channel=9 note=59 velocity=0 time=0 actual_time=79176
type=note_on channel=9 note=35 velocity=80 time=24 actual_time=79200
type=note_on channel=9 note=59 velocity=80 time=0 actual_time=79200
type=note_on channel=9 note=53 velocity=80 time=0 actual_time=79200
type=note_on channel=9 note=53 velocity=0 time=96 actual_time=79296
type=note_on channel=9 note=59 velocity=0 time=0 actual_time=79296
type=note_on channel=9 note=35 velocity=0 time=0 actual_time=79296
type=note_on channel=9 note=53 velocity=80 time=24 actual_time=79320
type=note_on channel=9 note=40 velocity=80 time=0 actual_time=79320
type=note_on channel=9 note=59 velocity=80 time=0 actual_time=79320
type=note_on channel=9 note=59 velocity=0 time=96 actual_time=79416
type=note_on channel=9 note=40 velocity=0 time=0 actual_time=79416
type=note_on channel=9 note=53 velocity=0 time=0 actual_time=79416
type=note_on channel=9 note=53 velocity=80 time=24 actual_time=79440
type=note_on channel=9 note=59 velocity=80 time=0 actual_time=79440
type=note_on channel=9 note=59 velocity=0 time=64 actual_time=79504
type=note_on channel=9 note=53 velocity=0 time=0 actual_time=79504
type=note_on channel=9 note=35 velocity=80 time=16 actual_time=79520
type=note_on channel=9 note=35 velocity=0 time=32 actual_time=79552
type=note_on channel=9 note=40 velocity=80 time=8 actual_time=79560
type=note_on channel=9 note=53 velocity=80 time=0 actual_time=79560
type=note_on channel=9 note=59 velocity=80 time=0 actual_time=79560
type=note_on channel=9 note=59 velocity=0 time=96 actual_time=79656
type=note_on channel=9 note=53 velocity=0 time=0 actual_time=79656
type=note_on channel=9 note=40 velocity=0 time=0 actual_time=79656
type=note_on channel=9 note=31 velocity=80 time=24 actual_time=79680
type=note_on channel=9 note=31 velocity=80 time=0 actual_time=79680
type=note_on channel=9 note=31 velocity=0 time=32 actual_time=79712
type=note_on channel=9 note=31 velocity=0 time=0 actual_time=79712
type=note_on channel=9 note=31 velocity=80 time=8 actual_time=79720
type=note_on channel=9 note=31 velocity=0 time=32 actual_time=79752
type=note_on channel=9 note=31 velocity=80 time=8 actual_time=79760
type=note_on channel=9 note=31 velocity=0 time=32 actual_time=79792
type=note_on channel=9 note=31 velocity=80 time=8 actual_time=79800
type=note_on channel=9 note=31 velocity=80 time=0 actual_time=79800
type=note_on channel=9 note=31 velocity=0 time=32 actual_time=79832
type=note_on channel=9 note=31 velocity=0 time=0 actual_time=79832
type=note_on channel=9 note=31 velocity=80 time=8 actual_time=79840
type=note_on channel=9 note=31 velocity=0 time=32 actual_time=79872
type=note_on channel=9 note=31 velocity=80 time=8 actual_time=79880
type=note_on channel=9 note=31 velocity=0 time=32 actual_time=79912
type=note_on channel=9 note=31 velocity=80 time=8 actual_time=79920
type=note_on channel=9 note=31 velocity=80 time=0 actual_time=79920
type=note_on channel=9 note=31 velocity=0 time=32 actual_time=79952
type=note_on channel=9 note=31 velocity=0 time=0 actual_time=79952
type=note_on channel=9 note=31 velocity=80 time=8 actual_time=79960
type=note_on channel=9 note=31 velocity=0 time=32 actual_time=79992
type=note_on channel=9 note=31 velocity=80 time=8 actual_time=80000
type=note_on channel=9 note=31 velocity=0 time=32 actual_time=80032
type=note_on channel=9 note=31 velocity=80 time=8 actual_time=80040
type=note_on channel=9 note=31 velocity=80 time=0 actual_time=80040
type=note_on channel=9 note=31 velocity=0 time=32 actual_time=80072
type=note_on channel=9 note=31 velocity=0 time=0 actual_time=80072
type=note_on channel=9 note=31 velocity=80 time=8 actual_time=80080
type=note_on channel=9 note=31 velocity=0 time=32 actual_time=80112
type=note_on channel=9 note=31 velocity=80 time=8 actual_time=80120
type=note_on channel=9 note=31 velocity=0 time=32 actual_time=80152
type=note_on channel=9 note=31 velocity=80 time=8 actual_time=80160
type=note_on channel=9 note=31 velocity=80 time=0 actual_time=80160
type=note_on channel=9 note=31 velocity=0 time=32 actual_time=80192
type=note_on channel=9 note=31 velocity=0 time=0 actual_time=80192
type=note_on channel=9 note=31 velocity=80 time=8 actual_time=80200
type=note_on channel=9 note=31 velocity=0 time=32 actual_time=80232
type=note_on channel=9 note=31 velocity=80 time=8 actual_time=80240
type=note_on channel=9 note=31 velocity=0 time=32 actual_time=80272
type=note_on channel=9 note=47 velocity=80 time=8 actual_time=80280
type=note_on channel=9 note=47 velocity=0 time=32 actual_time=80312
type=note_on channel=9 note=47 velocity=80 time=8 actual_time=80320
type=note_on channel=9 note=47 velocity=0 time=32 actual_time=80352
type=note_on channel=9 note=47 velocity=80 time=8 actual_time=80360
type=note_on channel=9 note=47 velocity=0 time=32 actual_time=80392
type=note_on channel=9 note=45 velocity=80 time=8 actual_time=80400
type=note_on channel=9 note=45 velocity=0 time=32 actual_time=80432
type=note_on channel=9 note=45 velocity=80 time=8 actual_time=80440
type=note_on channel=9 note=45 velocity=0 time=32 actual_time=80472
type=note_on channel=9 note=45 velocity=80 time=8 actual_time=80480
type=note_on channel=9 note=45 velocity=0 time=32 actual_time=80512
type=note_on channel=9 note=43 velocity=80 time=8 actual_time=80520
type=note_on channel=9 note=43 velocity=0 time=32 actual_time=80552
type=note_on channel=9 note=43 velocity=80 time=8 actual_time=80560
type=note_on channel=9 note=43 velocity=0 time=32 actual_time=80592
type=note_on channel=9 note=43 velocity=80 time=8 actual_time=80600
type=note_on channel=9 note=43 velocity=0 time=32 actual_time=80632
type=note_on channel=9 note=53 velocity=80 time=8 actual_time=80640
type=note_on channel=9 note=35 velocity=80 time=0 actual_time=80640
type=note_on channel=9 note=49 velocity=80 time=0 actual_time=80640
type=note_on channel=9 note=49 velocity=0 time=96 actual_time=80736
type=note_on channel=9 note=35 velocity=0 time=0 actual_time=80736
type=note_on channel=9 note=53 velocity=0 time=0 actual_time=80736
type=note_on channel=9 note=53 velocity=80 time=24 actual_time=80760
type=note_on channel=9 note=40 velocity=80 time=0 actual_time=80760
type=note_on channel=9 note=40 velocity=0 time=96 actual_time=80856
type=note_on channel=9 note=53 velocity=0 time=0 actual_time=80856
type=note_on channel=9 note=53 velocity=80 time=24 actual_time=80880
type=note_on channel=9 note=53 velocity=0 time=64 actual_time=80944
type=note_on channel=9 note=35 velocity=80 time=16 actual_time=80960
type=note_on channel=9 note=35 velocity=0 time=32 actual_time=80992
type=note_on channel=9 note=40 velocity=80 time=8 actual_time=81000
type=note_on channel=9 note=53 velocity=80 time=0 actual_time=81000
type=note_on channel=9 note=53 velocity=0 time=96 actual_time=81096
type=note_on channel=9 note=40 velocity=0 time=0 actual_time=81096
type=note_on channel=9 note=53 velocity=80 time=24 actual_time=81120
type=note_on channel=9 note=35 velocity=80 time=0 actual_time=81120
type=note_on channel=9 note=35 velocity=0 time=96 actual_time=81216
type=note_on channel=9 note=53 velocity=0 time=0 actual_time=81216
type=note_on channel=9 note=40 velocity=80 time=24 actual_time=81240
type=note_on channel=9 note=53 velocity=80 time=0 actual_time=81240
type=note_on channel=9 note=53 velocity=0 time=96 actual_time=81336
type=note_on channel=9 note=40 velocity=0 time=0 actual_time=81336
type=note_on channel=9 note=53 velocity=80 time=24 actual_time=81360
type=note_on channel=9 note=53 velocity=0 time=64 actual_time=81424
type=note_on channel=9 note=35 velocity=80 time=16 actual_time=81440
type=note_on channel=9 note=35 velocity=0 time=32 actual_time=81472
type=note_on channel=9 note=53 velocity=80 time=8 actual_time=81480
type=note_on channel=9 note=40 velocity=80 time=0 actual_time=81480
type=note_on channel=9 note=40 velocity=0 time=96 actual_time=81576
type=note_on channel=9 note=53 velocity=0 time=0 actual_time=81576
type=note_on channel=9 note=53 velocity=80 time=24 actual_time=81600
type=note_on channel=9 note=35 velocity=80 time=0 actual_time=81600
type=note_on channel=9 note=49 velocity=80 time=0 actual_time=81600
type=note_on channel=9 note=49 velocity=0 time=96 actual_time=81696
type=note_on channel=9 note=35 velocity=0 time=0 actual_time=81696
type=note_on channel=9 note=53 velocity=0 time=0 actual_time=81696
type=note_on channel=9 note=53 velocity=80 time=24 actual_time=81720
type=note_on channel=9 note=40 velocity=80 time=0 actual_time=81720
type=note_on channel=9 note=40 velocity=0 time=96 actual_time=81816
type=note_on channel=9 note=53 velocity=0 time=0 actual_time=81816
type=note_on channel=9 note=53 velocity=80 time=24 actual_time=81840
type=note_on channel=9 note=53 velocity=0 time=64 actual_time=81904
type=note_on channel=9 note=35 velocity=80 time=16 actual_time=81920
type=note_on channel=9 note=35 velocity=0 time=32 actual_time=81952
type=note_on channel=9 note=40 velocity=80 time=8 actual_time=81960
type=note_on channel=9 note=53 velocity=80 time=0 actual_time=81960
type=note_on channel=9 note=53 velocity=0 time=96 actual_time=82056
type=note_on channel=9 note=40 velocity=0 time=0 actual_time=82056
type=note_on channel=9 note=35 velocity=80 time=24 actual_time=82080
type=note_on channel=9 note=53 velocity=80 time=0 actual_time=82080
type=note_on channel=9 note=53 velocity=0 time=96 actual_time=82176
type=note_on channel=9 note=35 velocity=0 time=0 actual_time=82176
type=note_on channel=9 note=49 velocity=80 time=24 actual_time=82200
type=note_on channel=9 note=40 velocity=80 time=0 actual_time=82200
type=note_on channel=9 note=53 velocity=80 time=0 actual_time=82200
type=note_on channel=9 note=53 velocity=0 time=96 actual_time=82296
type=note_on channel=9 note=40 velocity=0 time=0 actual_time=82296
type=note_on channel=9 note=49 velocity=0 time=0 actual_time=82296
type=note_on channel=9 note=53 velocity=80 time=24 actual_time=82320
type=note_on channel=9 note=53 velocity=0 time=64 actual_time=82384
type=note_on channel=9 note=35 velocity=80 time=16 actual_time=82400
type=note_on channel=9 note=35 velocity=0 time=32 actual_time=82432
type=note_on channel=9 note=49 velocity=80 time=8 actual_time=82440
type=note_on channel=9 note=53 velocity=80 time=0 actual_time=82440
type=note_on channel=9 note=40 velocity=80 time=0 actual_time=82440
type=note_on channel=9 note=40 velocity=0 time=96 actual_time=82536
type=note_on channel=9 note=53 velocity=0 time=0 actual_time=82536
type=note_on channel=9 note=49 velocity=0 time=0 actual_time=82536
type=note_on channel=9 note=35 velocity=80 time=24 actual_time=82560
type=note_on channel=9 note=53 velocity=80 time=0 actual_time=82560
type=note_on channel=9 note=53 velocity=0 time=96 actual_time=82656
type=note_on channel=9 note=35 velocity=0 time=0 actual_time=82656
type=note_on channel=9 note=40 velocity=80 time=24 actual_time=82680
type=note_on channel=9 note=53 velocity=80 time=0 actual_time=82680
type=note_on channel=9 note=53 velocity=0 time=96 actual_time=82776
type=note_on channel=9 note=40 velocity=0 time=0 actual_time=82776
type=note_on channel=9 note=53 velocity=80 time=24 actual_time=82800
type=note_on channel=9 note=53 velocity=0 time=64 actual_time=82864
type=note_on channel=9 note=35 velocity=80 time=16 actual_time=82880
type=note_on channel=9 note=35 velocity=0 time=32 actual_time=82912
type=note_on channel=9 note=53 velocity=80 time=8 actual_time=82920
type=note_on channel=9 note=40 velocity=80 time=0 actual_time=82920
type=note_on channel=9 note=40 velocity=0 time=96 actual_time=83016
type=note_on channel=9 note=53 velocity=0 time=0 actual_time=83016
type=note_on channel=9 note=53 velocity=80 time=24 actual_time=83040
type=note_on channel=9 note=35 velocity=80 time=0 actual_time=83040
type=note_on channel=9 note=35 velocity=0 time=96 actual_time=83136
type=note_on channel=9 note=53 velocity=0 time=0 actual_time=83136
type=note_on channel=9 note=53 velocity=80 time=24 actual_time=83160
type=note_on channel=9 note=40 velocity=80 time=0 actual_time=83160
type=note_on channel=9 note=40 velocity=0 time=96 actual_time=83256
type=note_on channel=9 note=53 velocity=0 time=0 actual_time=83256
type=note_on channel=9 note=53 velocity=80 time=24 actual_time=83280
type=note_on channel=9 note=53 velocity=0 time=64 actual_time=83344
type=note_on channel=9 note=35 velocity=80 time=16 actual_time=83360
type=note_on channel=9 note=35 velocity=0 time=32 actual_time=83392
type=note_on channel=9 note=40 velocity=80 time=8 actual_time=83400
type=note_on channel=9 note=53 velocity=80 time=0 actual_time=83400
type=note_on channel=9 note=53 velocity=0 time=96 actual_time=83496
type=note_on channel=9 note=40 velocity=0 time=0 actual_time=83496
type=note_on channel=9 note=49 velocity=80 time=24 actual_time=83520
type=note_on channel=9 note=35 velocity=80 time=0 actual_time=83520
type=note_on channel=9 note=53 velocity=80 time=0 actual_time=83520
type=note_on channel=9 note=53 velocity=0 time=96 actual_time=83616
type=note_on channel=9 note=35 velocity=0 time=0 actual_time=83616
type=note_on channel=9 note=49 velocity=0 time=0 actual_time=83616
type=note_on channel=9 note=40 velocity=80 time=24 actual_time=83640
type=note_on channel=9 note=53 velocity=80 time=0 actual_time=83640
type=note_on channel=9 note=53 velocity=0 time=96 actual_time=83736
type=note_on channel=9 note=40 velocity=0 time=0 actual_time=83736
type=note_on channel=9 note=53 velocity=80 time=24 actual_time=83760
type=note_on channel=9 note=53 velocity=0 time=64 actual_time=83824
type=note_on channel=9 note=35 velocity=80 time=16 actual_time=83840
type=note_on channel=9 note=35 velocity=0 time=32 actual_time=83872
type=note_on channel=9 note=53 velocity=80 time=8 actual_time=83880
type=note_on channel=9 note=40 velocity=80 time=0 actual_time=83880
type=note_on channel=9 note=40 velocity=0 time=96 actual_time=83976
type=note_on channel=9 note=53 velocity=0 time=0 actual_time=83976
type=note_on channel=9 note=53 velocity=80 time=24 actual_time=84000
type=note_on channel=9 note=35 velocity=80 time=0 actual_time=84000
type=note_on channel=9 note=35 velocity=0 time=96 actual_time=84096
type=note_on channel=9 note=53 velocity=0 time=0 actual_time=84096
type=note_on channel=9 note=53 velocity=80 time=24 actual_time=84120
type=note_on channel=9 note=40 velocity=80 time=0 actual_time=84120
type=note_on channel=9 note=49 velocity=80 time=0 actual_time=84120
type=note_on channel=9 note=49 velocity=0 time=96 actual_time=84216
type=note_on channel=9 note=40 velocity=0 time=0 actual_time=84216
type=note_on channel=9 note=53 velocity=0 time=0 actual_time=84216
type=note_on channel=9 note=53 velocity=80 time=24 actual_time=84240
type=note_on channel=9 note=53 velocity=0 time=64 actual_time=84304
type=note_on channel=9 note=35 velocity=80 time=16 actual_time=84320
type=note_on channel=9 note=35 velocity=0 time=32 actual_time=84352
type=note_on channel=9 note=40 velocity=80 time=8 actual_time=84360
type=note_on channel=9 note=53 velocity=80 time=0 actual_time=84360
type=note_on channel=9 note=49 velocity=80 time=0 actual_time=84360
type=note_on channel=9 note=49 velocity=0 time=96 actual_time=84456
type=note_on channel=9 note=53 velocity=0 time=0 actual_time=84456
type=note_on channel=9 note=40 velocity=0 time=0 actual_time=84456
type=note_on channel=9 note=53 velocity=80 time=24 actual_time=84480
type=note_on channel=9 note=35 velocity=80 time=0 actual_time=84480
type=note_on channel=9 note=35 velocity=0 time=96 actual_time=84576
type=note_on channel=9 note=53 velocity=0 time=0 actual_time=84576
type=note_on channel=9 note=53 velocity=80 time=24 actual_time=84600
type=note_on channel=9 note=40 velocity=80 time=0 actual_time=84600
type=note_on channel=9 note=40 velocity=0 time=96 actual_time=84696
type=note_on channel=9 note=53 velocity=0 time=0 actual_time=84696
type=note_on channel=9 note=53 velocity=80 time=24 actual_time=84720
type=note_on channel=9 note=53 velocity=0 time=64 actual_time=84784
type=note_on channel=9 note=35 velocity=80 time=16 actual_time=84800
type=note_on channel=9 note=35 velocity=0 time=32 actual_time=84832
type=note_on channel=9 note=40 velocity=80 time=8 actual_time=84840
type=note_on channel=9 note=53 velocity=80 time=0 actual_time=84840
type=note_on channel=9 note=53 velocity=0 time=96 actual_time=84936
type=note_on channel=9 note=40 velocity=0 time=0 actual_time=84936
type=note_on channel=9 note=35 velocity=80 time=24 actual_time=84960
type=note_on channel=9 note=53 velocity=80 time=0 actual_time=84960
type=note_on channel=9 note=53 velocity=0 time=96 actual_time=85056
type=note_on channel=9 note=35 velocity=0 time=0 actual_time=85056
type=note_on channel=9 note=40 velocity=80 time=24 actual_time=85080
type=note_on channel=9 note=53 velocity=80 time=0 actual_time=85080
type=note_on channel=9 note=53 velocity=0 time=96 actual_time=85176
type=note_on channel=9 note=40 velocity=0 time=0 actual_time=85176
type=note_on channel=9 note=53 velocity=80 time=24 actual_time=85200
type=note_on channel=9 note=53 velocity=0 time=64 actual_time=85264
type=note_on channel=9 note=35 velocity=80 time=16 actual_time=85280
type=note_on channel=9 note=35 velocity=0 time=32 actual_time=85312
type=note_on channel=9 note=53 velocity=80 time=8 actual_time=85320
type=note_on channel=9 note=40 velocity=80 time=0 actual_time=85320
type=note_on channel=9 note=40 velocity=0 time=96 actual_time=85416
type=note_on channel=9 note=53 velocity=0 time=0 actual_time=85416
type=note_on channel=9 note=53 velocity=80 time=24 actual_time=85440
type=note_on channel=9 note=35 velocity=80 time=0 actual_time=85440
type=note_on channel=9 note=49 velocity=80 time=0 actual_time=85440
type=note_on channel=9 note=49 velocity=0 time=96 actual_time=85536
type=note_on channel=9 note=35 velocity=0 time=0 actual_time=85536
type=note_on channel=9 note=53 velocity=0 time=0 actual_time=85536
type=note_on channel=9 note=53 velocity=80 time=24 actual_time=85560
type=note_on channel=9 note=40 velocity=80 time=0 actual_time=85560
type=note_on channel=9 note=40 velocity=0 time=96 actual_time=85656
type=note_on channel=9 note=53 velocity=0 time=0 actual_time=85656
type=note_on channel=9 note=53 velocity=80 time=24 actual_time=85680
type=note_on channel=9 note=53 velocity=0 time=64 actual_time=85744
type=note_on channel=9 note=35 velocity=80 time=16 actual_time=85760
type=note_on channel=9 note=35 velocity=0 time=32 actual_time=85792
type=note_on channel=9 note=40 velocity=80 time=8 actual_time=85800
type=note_on channel=9 note=53 velocity=80 time=0 actual_time=85800
type=note_on channel=9 note=53 velocity=0 time=96 actual_time=85896
type=note_on channel=9 note=40 velocity=0 time=0 actual_time=85896
type=note_on channel=9 note=35 velocity=80 time=24 actual_time=85920
type=note_on channel=9 note=53 velocity=80 time=0 actual_time=85920
type=note_on channel=9 note=53 velocity=0 time=96 actual_time=86016
type=note_on channel=9 note=35 velocity=0 time=0 actual_time=86016
type=note_on channel=9 note=49 velocity=80 time=24 actual_time=86040
type=note_on channel=9 note=40 velocity=80 time=0 actual_time=86040
type=note_on channel=9 note=53 velocity=80 time=0 actual_time=86040
type=note_on channel=9 note=53 velocity=0 time=96 actual_time=86136
type=note_on channel=9 note=40 velocity=0 time=0 actual_time=86136
type=note_on channel=9 note=49 velocity=0 time=0 actual_time=86136
type=note_on channel=9 note=53 velocity=80 time=24 actual_time=86160
type=note_on channel=9 note=53 velocity=0 time=64 actual_time=86224
type=note_on channel=9 note=35 velocity=80 time=16 actual_time=86240
type=note_on channel=9 note=35 velocity=0 time=32 actual_time=86272
type=note_on channel=9 note=49 velocity=80 time=8 actual_time=86280
type=note_on channel=9 note=53 velocity=80 time=0 actual_time=86280
type=note_on channel=9 note=40 velocity=80 time=0 actual_time=86280
type=note_on channel=9 note=40 velocity=0 time=96 actual_time=86376
type=note_on channel=9 note=53 velocity=0 time=0 actual_time=86376
type=note_on channel=9 note=49 velocity=0 time=0 actual_time=86376
type=note_on channel=9 note=35 velocity=80 time=24 actual_time=86400
type=note_on channel=9 note=53 velocity=80 time=0 actual_time=86400
type=note_on channel=9 note=53 velocity=0 time=96 actual_time=86496
type=note_on channel=9 note=35 velocity=0 time=0 actual_time=86496
type=note_on channel=9 note=40 velocity=80 time=24 actual_time=86520
type=note_on channel=9 note=53 velocity=80 time=0 actual_time=86520
type=note_on channel=9 note=53 velocity=0 time=96 actual_time=86616
type=note_on channel=9 note=40 velocity=0 time=0 actual_time=86616
type=note_on channel=9 note=53 velocity=80 time=24 actual_time=86640
type=note_on channel=9 note=53 velocity=0 time=64 actual_time=86704
type=note_on channel=9 note=35 velocity=80 time=16 actual_time=86720
type=note_on channel=9 note=35 velocity=0 time=32 actual_time=86752
type=note_on channel=9 note=53 velocity=80 time=8 actual_time=86760
type=note_on channel=9 note=40 velocity=80 time=0 actual_time=86760
type=note_on channel=9 note=40 velocity=0 time=96 actual_time=86856
type=note_on channel=9 note=53 velocity=0 time=0 actual_time=86856
type=note_on channel=9 note=53 velocity=80 time=24 actual_time=86880
type=note_on channel=9 note=35 velocity=80 time=0 actual_time=86880
type=note_on channel=9 note=35 velocity=0 time=96 actual_time=86976
type=note_on channel=9 note=53 velocity=0 time=0 actual_time=86976
type=note_on channel=9 note=53 velocity=80 time=24 actual_time=87000
type=note_on channel=9 note=40 velocity=80 time=0 actual_time=87000
type=note_on channel=9 note=40 velocity=0 time=96 actual_time=87096
type=note_on channel=9 note=53 velocity=0 time=0 actual_time=87096
type=note_on channel=9 note=53 velocity=80 time=24 actual_time=87120
type=note_on channel=9 note=53 velocity=0 time=64 actual_time=87184
type=note_on channel=9 note=35 velocity=80 time=16 actual_time=87200
type=note_on channel=9 note=35 velocity=0 time=32 actual_time=87232
type=note_on channel=9 note=40 velocity=80 time=8 actual_time=87240
type=note_on channel=9 note=53 velocity=80 time=0 actual_time=87240
type=note_on channel=9 note=53 velocity=0 time=96 actual_time=87336
type=note_on channel=9 note=40 velocity=0 time=0 actual_time=87336
type=note_on channel=9 note=49 velocity=80 time=24 actual_time=87360
type=note_on channel=9 note=35 velocity=80 time=0 actual_time=87360
type=note_on channel=9 note=53 velocity=80 time=0 actual_time=87360
type=note_on channel=9 note=53 velocity=0 time=96 actual_time=87456
type=note_on channel=9 note=35 velocity=0 time=0 actual_time=87456
type=note_on channel=9 note=49 velocity=0 time=0 actual_time=87456
type=note_on channel=9 note=40 velocity=80 time=24 actual_time=87480
type=note_on channel=9 note=53 velocity=80 time=0 actual_time=87480
type=note_on channel=9 note=53 velocity=0 time=96 actual_time=87576
type=note_on channel=9 note=40 velocity=0 time=0 actual_time=87576
type=note_on channel=9 note=53 velocity=80 time=24 actual_time=87600
type=note_on channel=9 note=53 velocity=0 time=64 actual_time=87664
type=note_on channel=9 note=35 velocity=80 time=16 actual_time=87680
type=note_on channel=9 note=35 velocity=0 time=32 actual_time=87712
type=note_on channel=9 note=53 velocity=80 time=8 actual_time=87720
type=note_on channel=9 note=40 velocity=80 time=0 actual_time=87720
type=note_on channel=9 note=40 velocity=0 time=96 actual_time=87816
type=note_on channel=9 note=53 velocity=0 time=0 actual_time=87816
type=note_on channel=9 note=53 velocity=80 time=24 actual_time=87840
type=note_on channel=9 note=35 velocity=80 time=0 actual_time=87840
type=note_on channel=9 note=49 velocity=80 time=0 actual_time=87840
type=note_on channel=9 note=49 velocity=0 time=96 actual_time=87936
type=note_on channel=9 note=35 velocity=0 time=0 actual_time=87936
type=note_on channel=9 note=53 velocity=0 time=0 actual_time=87936
type=note_on channel=9 note=53 velocity=80 time=24 actual_time=87960
type=note_on channel=9 note=40 velocity=80 time=0 actual_time=87960
type=note_on channel=9 note=40 velocity=0 time=96 actual_time=88056
type=note_on channel=9 note=53 velocity=0 time=0 actual_time=88056
type=note_on channel=9 note=53 velocity=80 time=24 actual_time=88080
type=note_on channel=9 note=49 velocity=80 time=0 actual_time=88080
type=note_on channel=9 note=49 velocity=0 time=64 actual_time=88144
type=note_on channel=9 note=53 velocity=0 time=0 actual_time=88144
type=note_on channel=9 note=35 velocity=80 time=16 actual_time=88160
type=note_on channel=9 note=35 velocity=0 time=32 actual_time=88192
type=note_on channel=9 note=40 velocity=80 time=8 actual_time=88200
type=note_on channel=9 note=53 velocity=80 time=0 actual_time=88200
type=note_on channel=9 note=53 velocity=0 time=96 actual_time=88296
type=note_on channel=9 note=40 velocity=0 time=0 actual_time=88296
type=note_on channel=9 note=49 velocity=80 time=24 actual_time=88320
type=note_on channel=9 note=35 velocity=80 time=0 actual_time=88320
type=note_on channel=9 note=35 velocity=0 time=768 actual_time=89088
type=note_on channel=9 note=49 velocity=0 time=0 actual_time=89088
MetaMessage type: end_of_track, time: 0, actual_time: 89088
MetaMessage type: track_name, time: 0, actual_time: 0
type: program_change, time: 0, actual_time: 0
type=control_change channel=0 control=7 value=124 time=0 actual_time=0
type=note_on channel=0 note=59 velocity=80 time=7800 actual_time=7800
type=note_on channel=0 note=59 velocity=0 time=96 actual_time=7896
type=note_on channel=0 note=59 velocity=80 time=24 actual_time=7920
type=note_on channel=0 note=59 velocity=0 time=96 actual_time=8016
type=note_on channel=0 note=59 velocity=80 time=24 actual_time=8040
type=note_on channel=0 note=59 velocity=0 time=48 actual_time=8088
type=note_on channel=0 note=62 velocity=80 time=12 actual_time=8100
type=note_on channel=0 note=62 velocity=0 time=144 actual_time=8244
type=note_on channel=0 note=59 velocity=80 time=36 actual_time=8280
type=note_on channel=0 note=59 velocity=0 time=96 actual_time=8376
type=note_on channel=0 note=57 velocity=80 time=24 actual_time=8400
type=note_on channel=0 note=57 velocity=0 time=96 actual_time=8496
type=note_on channel=0 note=57 velocity=80 time=24 actual_time=8520
type=note_on channel=0 note=57 velocity=0 time=48 actual_time=8568
type=note_on channel=0 note=57 velocity=80 time=12 actual_time=8580
type=note_on channel=0 note=57 velocity=0 time=156 actual_time=8736
type=note_on channel=0 note=57 velocity=80 time=24 actual_time=8760
type=note_on channel=0 note=57 velocity=0 time=96 actual_time=8856
type=note_on channel=0 note=57 velocity=80 time=24 actual_time=8880
type=note_on channel=0 note=57 velocity=0 time=96 actual_time=8976
type=note_on channel=0 note=57 velocity=80 time=24 actual_time=9000
type=note_on channel=0 note=57 velocity=0 time=96 actual_time=9096
type=note_on channel=0 note=57 velocity=80 time=24 actual_time=9120
type=note_on channel=0 note=57 velocity=0 time=48 actual_time=9168
type=note_on channel=0 note=57 velocity=80 time=12 actual_time=9180
type=note_on channel=0 note=57 velocity=0 time=96 actual_time=9276
type=note_on channel=0 note=59 velocity=80 time=24 actual_time=9300
type=note_on channel=0 note=59 velocity=0 time=192 actual_time=9492
type=note_on channel=0 note=59 velocity=80 time=228 actual_time=9720
type=note_on channel=0 note=59 velocity=0 time=96 actual_time=9816
type=note_on channel=0 note=59 velocity=80 time=24 actual_time=9840
type=note_on channel=0 note=59 velocity=0 time=96 actual_time=9936
type=note_on channel=0 note=59 velocity=80 time=24 actual_time=9960
type=note_on channel=0 note=59 velocity=0 time=96 actual_time=10056
type=note_on channel=0 note=62 velocity=80 time=24 actual_time=10080
type=note_on channel=0 note=62 velocity=0 time=48 actual_time=10128
type=note_on channel=0 note=62 velocity=80 time=12 actual_time=10140
type=note_on channel=0 note=62 velocity=0 time=96 actual_time=10236
type=note_on channel=0 note=62 velocity=80 time=24 actual_time=10260
type=note_on channel=0 note=62 velocity=0 time=96 actual_time=10356
type=note_on channel=0 note=62 velocity=80 time=24 actual_time=10380
type=note_on channel=0 note=62 velocity=0 time=96 actual_time=10476
type=note_on channel=0 note=62 velocity=80 time=24 actual_time=10500
type=note_on channel=0 note=62 velocity=0 time=108 actual_time=10608
type=note_on channel=0 note=62 velocity=80 time=12 actual_time=10620
type=note_on channel=0 note=62 velocity=0 time=144 actual_time=10764
type=note_on channel=0 note=62 velocity=80 time=36 actual_time=10800
type=note_on channel=0 note=62 velocity=0 time=96 actual_time=10896
type=note_on channel=0 note=62 velocity=80 time=24 actual_time=10920
type=note_on channel=0 note=62 velocity=0 time=96 actual_time=11016
type=note_on channel=0 note=61 velocity=80 time=24 actual_time=11040
type=note_on channel=0 note=61 velocity=0 time=96 actual_time=11136
type=note_on channel=0 note=61 velocity=80 time=24 actual_time=11160
type=note_on channel=0 note=61 velocity=0 time=48 actual_time=11208
type=note_on channel=0 note=62 velocity=80 time=12 actual_time=11220
type=note_on channel=0 note=62 velocity=0 time=96 actual_time=11316
type=note_on channel=0 note=59 velocity=80 time=24 actual_time=11340
type=note_on channel=0 note=59 velocity=0 time=96 actual_time=11436
type=note_on channel=0 note=59 velocity=80 time=164 actual_time=11600
type=note_on channel=0 note=59 velocity=0 time=32 actual_time=11632
type=note_on channel=0 note=59 velocity=80 time=8 actual_time=11640
type=note_on channel=0 note=59 velocity=0 time=96 actual_time=11736
type=note_on channel=0 note=59 velocity=80 time=24 actual_time=11760
type=note_on channel=0 note=59 velocity=0 time=96 actual_time=11856
type=note_on channel=0 note=59 velocity=80 time=24 actual_time=11880
type=note_on channel=0 note=59 velocity=0 time=48 actual_time=11928
type=note_on channel=0 note=62 velocity=80 time=12 actual_time=11940
type=note_on channel=0 note=62 velocity=0 time=144 actual_time=12084
type=note_on channel=0 note=59 velocity=80 time=36 actual_time=12120
type=note_on channel=0 note=59 velocity=0 time=96 actual_time=12216
type=note_on channel=0 note=57 velocity=80 time=24 actual_time=12240
type=note_on channel=0 note=57 velocity=0 time=96 actual_time=12336
type=note_on channel=0 note=57 velocity=80 time=24 actual_time=12360
type=note_on channel=0 note=57 velocity=0 time=48 actual_time=12408
type=note_on channel=0 note=57 velocity=80 time=12 actual_time=12420
type=note_on channel=0 note=57 velocity=0 time=156 actual_time=12576
type=note_on channel=0 note=57 velocity=80 time=24 actual_time=12600
type=note_on channel=0 note=57 velocity=0 time=96 actual_time=12696
type=note_on channel=0 note=57 velocity=80 time=24 actual_time=12720
type=note_on channel=0 note=57 velocity=0 time=48 actual_time=12768
type=note_on channel=0 note=57 velocity=80 time=12 actual_time=12780
type=note_on channel=0 note=57 velocity=0 time=96 actual_time=12876
type=note_on channel=0 note=59 velocity=80 time=24 actual_time=12900
type=note_on channel=0 note=59 velocity=0 time=384 actual_time=13284
type=note_on channel=0 note=59 velocity=80 time=276 actual_time=13560
type=note_on channel=0 note=59 velocity=0 time=96 actual_time=13656
type=note_on channel=0 note=59 velocity=80 time=24 actual_time=13680
type=note_on channel=0 note=59 velocity=0 time=96 actual_time=13776
type=note_on channel=0 note=59 velocity=80 time=24 actual_time=13800
type=note_on channel=0 note=59 velocity=0 time=96 actual_time=13896
type=note_on channel=0 note=59 velocity=80 time=24 actual_time=13920
type=note_on channel=0 note=59 velocity=0 time=48 actual_time=13968
type=note_on channel=0 note=59 velocity=80 time=12 actual_time=13980
type=note_on channel=0 note=59 velocity=0 time=96 actual_time=14076
type=note_on channel=0 note=59 velocity=80 time=24 actual_time=14100
type=note_on channel=0 note=59 velocity=0 time=96 actual_time=14196
type=note_on channel=0 note=59 velocity=80 time=24 actual_time=14220
type=note_on channel=0 note=59 velocity=0 time=96 actual_time=14316
type=note_on channel=0 note=59 velocity=80 time=24 actual_time=14340
type=note_on channel=0 note=57 velocity=80 time=60 actual_time=14400
type=note_on channel=0 note=59 velocity=0 time=36 actual_time=14436
type=note_on channel=0 note=57 velocity=0 time=348 actual_time=14784
type=note_on channel=0 note=57 velocity=80 time=456 actual_time=15240
type=note_on channel=0 note=57 velocity=0 time=312 actual_time=15552
type=note_on channel=0 note=59 velocity=80 time=3768 actual_time=19320
type=note_on channel=0 note=59 velocity=0 time=96 actual_time=19416
type=note_on channel=0 note=59 velocity=80 time=24 actual_time=19440
type=note_on channel=0 note=59 velocity=0 time=96 actual_time=19536
type=note_on channel=0 note=59 velocity=80 time=24 actual_time=19560
type=note_on channel=0 note=59 velocity=0 time=48 actual_time=19608
type=note_on channel=0 note=59 velocity=80 time=12 actual_time=19620
type=note_on channel=0 note=59 velocity=0 time=144 actual_time=19764
type=note_on channel=0 note=57 velocity=80 time=36 actual_time=19800
type=note_on channel=0 note=57 velocity=0 time=96 actual_time=19896
type=note_on channel=0 note=57 velocity=80 time=24 actual_time=19920
type=note_on channel=0 note=57 velocity=0 time=96 actual_time=20016
type=note_on channel=0 note=54 velocity=80 time=24 actual_time=20040
type=note_on channel=0 note=54 velocity=0 time=48 actual_time=20088
type=note_on channel=0 note=57 velocity=80 time=12 actual_time=20100
type=note_on channel=0 note=57 velocity=0 time=156 actual_time=20256
type=note_on channel=0 note=57 velocity=80 time=24 actual_time=20280
type=note_on channel=0 note=57 velocity=0 time=96 actual_time=20376
type=note_on channel=0 note=57 velocity=80 time=24 actual_time=20400
type=note_on channel=0 note=57 velocity=0 time=48 actual_time=20448
type=note_on channel=0 note=57 velocity=80 time=12 actual_time=20460
type=note_on channel=0 note=57 velocity=0 time=96 actual_time=20556
type=note_on channel=0 note=57 velocity=80 time=24 actual_time=20580
type=note_on channel=0 note=57 velocity=0 time=384 actual_time=20964
type=note_on channel=0 note=54 velocity=80 time=396 actual_time=21360
type=note_on channel=0 note=54 velocity=0 time=96 actual_time=21456
type=note_on channel=0 note=54 velocity=80 time=24 actual_time=21480
type=note_on channel=0 note=54 velocity=0 time=48 actual_time=21528
type=note_on channel=0 note=57 velocity=80 time=12 actual_time=21540
type=note_on channel=0 note=57 velocity=0 time=96 actual_time=21636
type=note_on channel=0 note=57 velocity=80 time=24 actual_time=21660
type=note_on channel=0 note=57 velocity=0 time=96 actual_time=21756
type=note_on channel=0 note=57 velocity=80 time=24 actual_time=21780
type=note_on channel=0 note=57 velocity=0 time=96 actual_time=21876
type=note_on channel=0 note=57 velocity=80 time=24 actual_time=21900
type=note_on channel=0 note=57 velocity=0 time=48 actual_time=21948
type=note_on channel=0 note=57 velocity=80 time=12 actual_time=21960
type=note_on channel=0 note=57 velocity=0 time=48 actual_time=22008
type=note_on channel=0 note=57 velocity=80 time=12 actual_time=22020
type=note_on channel=0 note=57 velocity=0 time=108 actual_time=22128
type=note_on channel=0 note=59 velocity=80 time=12 actual_time=22140
type=note_on channel=0 note=59 velocity=0 time=96 actual_time=22236
type=note_on channel=0 note=57 velocity=80 time=24 actual_time=22260
type=note_on channel=0 note=57 velocity=0 time=48 actual_time=22308
type=note_on channel=0 note=57 velocity=80 time=12 actual_time=22320
type=note_on channel=0 note=57 velocity=0 time=96 actual_time=22416
type=note_on channel=0 note=57 velocity=80 time=24 actual_time=22440
type=note_on channel=0 note=57 velocity=0 time=48 actual_time=22488
type=note_on channel=0 note=52 velocity=80 time=12 actual_time=22500
type=note_on channel=0 note=52 velocity=0 time=96 actual_time=22596
type=note_on channel=0 note=52 velocity=80 time=24 actual_time=22620
type=note_on channel=0 note=52 velocity=0 time=96 actual_time=22716
type=note_on channel=0 note=52 velocity=80 time=24 actual_time=22740
type=note_on channel=0 note=52 velocity=0 time=96 actual_time=22836
type=note_on channel=0 note=50 velocity=80 time=24 actual_time=22860
type=note_on channel=0 note=50 velocity=0 time=96 actual_time=22956
type=note_on channel=0 note=57 velocity=80 time=204 actual_time=23160
type=note_on channel=0 note=57 velocity=0 time=96 actual_time=23256
type=note_on channel=0 note=57 velocity=80 time=24 actual_time=23280
type=note_on channel=0 note=57 velocity=0 time=48 actual_time=23328
type=note_on channel=0 note=57 velocity=80 time=12 actual_time=23340
type=note_on channel=0 note=57 velocity=0 time=96 actual_time=23436
type=note_on channel=0 note=59 velocity=80 time=24 actual_time=23460
type=note_on channel=0 note=59 velocity=0 time=96 actual_time=23556
type=note_on channel=0 note=57 velocity=80 time=24 actual_time=23580
type=note_on channel=0 note=57 velocity=0 time=192 actual_time=23772
type=note_on channel=0 note=57 velocity=80 time=48 actual_time=23820
type=note_on channel=0 note=57 velocity=0 time=144 actual_time=23964
type=note_on channel=0 note=57 velocity=80 time=36 actual_time=24000
type=note_on channel=0 note=57 velocity=0 time=48 actual_time=24048
type=note_on channel=0 note=57 velocity=80 time=12 actual_time=24060
type=note_on channel=0 note=57 velocity=0 time=96 actual_time=24156
type=note_on channel=0 note=57 velocity=80 time=24 actual_time=24180
type=note_on channel=0 note=57 velocity=0 time=96 actual_time=24276
type=note_on channel=0 note=57 velocity=80 time=24 actual_time=24300
type=note_on channel=0 note=57 velocity=0 time=96 actual_time=24396
type=note_on channel=0 note=59 velocity=80 time=24 actual_time=24420
type=note_on channel=0 note=59 velocity=0 time=288 actual_time=24708
type=note_on channel=0 note=59 velocity=80 time=192 actual_time=24900
type=note_on channel=0 note=59 velocity=0 time=48 actual_time=24948
type=note_on channel=0 note=59 velocity=80 time=12 actual_time=24960
type=note_on channel=0 note=59 velocity=0 time=96 actual_time=25056
type=note_on channel=0 note=59 velocity=80 time=24 actual_time=25080
type=note_on channel=0 note=59 velocity=0 time=96 actual_time=25176
type=note_on channel=0 note=59 velocity=80 time=24 actual_time=25200
type=note_on channel=0 note=59 velocity=0 time=96 actual_time=25296
type=note_on channel=0 note=62 velocity=80 time=24 actual_time=25320
type=note_on channel=0 note=62 velocity=0 time=192 actual_time=25512
type=note_on channel=0 note=62 velocity=80 time=48 actual_time=25560
type=note_on channel=0 note=62 velocity=0 time=192 actual_time=25752
type=note_on channel=0 note=62 velocity=80 time=48 actual_time=25800
type=note_on channel=0 note=62 velocity=0 time=216 actual_time=26016
type=note_on channel=0 note=61 velocity=80 time=24 actual_time=26040
type=note_on channel=0 note=61 velocity=0 time=96 actual_time=26136
type=note_on channel=0 note=61 velocity=80 time=24 actual_time=26160
type=note_on channel=0 note=61 velocity=0 time=96 actual_time=26256
type=note_on channel=0 note=62 velocity=80 time=24 actual_time=26280
type=note_on channel=0 note=62 velocity=0 time=96 actual_time=26376
type=note_on channel=0 note=59 velocity=80 time=24 actual_time=26400
type=note_on channel=0 note=59 velocity=0 time=192 actual_time=26592
type=note_on channel=0 note=59 velocity=80 time=408 actual_time=27000
type=note_on channel=0 note=59 velocity=0 time=96 actual_time=27096
type=note_on channel=0 note=59 velocity=80 time=24 actual_time=27120
type=note_on channel=0 note=59 velocity=0 time=96 actual_time=27216
type=note_on channel=0 note=59 velocity=80 time=24 actual_time=27240
type=note_on channel=0 note=59 velocity=0 time=96 actual_time=27336
type=note_on channel=0 note=62 velocity=80 time=24 actual_time=27360
type=note_on channel=0 note=62 velocity=0 time=96 actual_time=27456
type=note_on channel=0 note=59 velocity=80 time=24 actual_time=27480
type=note_on channel=0 note=59 velocity=0 time=96 actual_time=27576
type=note_on channel=0 note=59 velocity=80 time=24 actual_time=27600
type=note_on channel=0 note=59 velocity=0 time=96 actual_time=27696
type=note_on channel=0 note=59 velocity=80 time=24 actual_time=27720
type=note_on channel=0 note=59 velocity=0 time=96 actual_time=27816
type=note_on channel=0 note=62 velocity=80 time=24 actual_time=27840
type=note_on channel=0 note=62 velocity=0 time=96 actual_time=27936
type=note_on channel=0 note=62 velocity=80 time=24 actual_time=27960
type=note_on channel=0 note=62 velocity=0 time=96 actual_time=28056
type=note_on channel=0 note=62 velocity=80 time=24 actual_time=28080
type=note_on channel=0 note=62 velocity=0 time=96 actual_time=28176
type=note_on channel=0 note=62 velocity=80 time=24 actual_time=28200
type=note_on channel=0 note=62 velocity=0 time=96 actual_time=28296
type=note_on channel=0 note=61 velocity=80 time=24 actual_time=28320
type=note_on channel=0 note=61 velocity=0 time=96 actual_time=28416
type=note_on channel=0 note=61 velocity=80 time=24 actual_time=28440
type=note_on channel=0 note=61 velocity=0 time=48 actual_time=28488
type=note_on channel=0 note=62 velocity=80 time=12 actual_time=28500
type=note_on channel=0 note=62 velocity=0 time=192 actual_time=28692
type=note_on channel=0 note=59 velocity=80 time=228 actual_time=28920
type=note_on channel=0 note=59 velocity=0 time=96 actual_time=29016
type=note_on channel=0 note=59 velocity=80 time=24 actual_time=29040
type=note_on channel=0 note=59 velocity=0 time=96 actual_time=29136
type=note_on channel=0 note=59 velocity=80 time=24 actual_time=29160
type=note_on channel=0 note=59 velocity=0 time=48 actual_time=29208
type=note_on channel=0 note=62 velocity=80 time=12 actual_time=29220
type=note_on channel=0 note=62 velocity=0 time=168 actual_time=29388
type=note_on channel=0 note=59 velocity=80 time=12 actual_time=29400
type=note_on channel=0 note=59 velocity=0 time=96 actual_time=29496
type=note_on channel=0 note=59 velocity=80 time=24 actual_time=29520
type=note_on channel=0 note=59 velocity=0 time=96 actual_time=29616
type=note_on channel=0 note=59 velocity=80 time=24 actual_time=29640
type=note_on channel=0 note=59 velocity=0 time=96 actual_time=29736
type=note_on channel=0 note=62 velocity=80 time=24 actual_time=29760
type=note_on channel=0 note=62 velocity=0 time=96 actual_time=29856
type=note_on channel=0 note=62 velocity=80 time=24 actual_time=29880
type=note_on channel=0 note=62 velocity=0 time=96 actual_time=29976
type=note_on channel=0 note=62 velocity=80 time=24 actual_time=30000
type=note_on channel=0 note=62 velocity=0 time=96 actual_time=30096
type=note_on channel=0 note=62 velocity=80 time=24 actual_time=30120
type=note_on channel=0 note=62 velocity=0 time=96 actual_time=30216
type=note_on channel=0 note=61 velocity=80 time=24 actual_time=30240
type=note_on channel=0 note=61 velocity=0 time=96 actual_time=30336
type=note_on channel=0 note=61 velocity=80 time=24 actual_time=30360
type=note_on channel=0 note=61 velocity=0 time=96 actual_time=30456
type=note_on channel=0 note=61 velocity=80 time=24 actual_time=30480
type=note_on channel=0 note=61 velocity=0 time=96 actual_time=30576
type=note_on channel=0 note=62 velocity=80 time=24 actual_time=30600
type=note_on channel=0 note=62 velocity=0 time=96 actual_time=30696
type=note_on channel=0 note=59 velocity=80 time=144 actual_time=30840
type=note_on channel=0 note=59 velocity=0 time=96 actual_time=30936
type=note_on channel=0 note=59 velocity=80 time=24 actual_time=30960
type=note_on channel=0 note=59 velocity=0 time=96 actual_time=31056
type=note_on channel=0 note=59 velocity=80 time=24 actual_time=31080
type=note_on channel=0 note=59 velocity=0 time=96 actual_time=31176
type=note_on channel=0 note=62 velocity=80 time=24 actual_time=31200
type=note_on channel=0 note=62 velocity=0 time=96 actual_time=31296
type=note_on channel=0 note=59 velocity=80 time=24 actual_time=31320
type=note_on channel=0 note=59 velocity=0 time=96 actual_time=31416
type=note_on channel=0 note=57 velocity=80 time=24 actual_time=31440
type=note_on channel=0 note=57 velocity=0 time=96 actual_time=31536
type=note_on channel=0 note=57 velocity=80 time=24 actual_time=31560
type=note_on channel=0 note=57 velocity=0 time=96 actual_time=31656
type=note_on channel=0 note=62 velocity=80 time=24 actual_time=31680
type=note_on channel=0 note=62 velocity=0 time=96 actual_time=31776
type=note_on channel=0 note=62 velocity=80 time=24 actual_time=31800
type=note_on channel=0 note=62 velocity=0 time=96 actual_time=31896
type=note_on channel=0 note=62 velocity=80 time=24 actual_time=31920
type=note_on channel=0 note=62 velocity=0 time=96 actual_time=32016
type=note_on channel=0 note=61 velocity=80 time=24 actual_time=32040
type=note_on channel=0 note=61 velocity=0 time=192 actual_time=32232
type=note_on channel=0 note=61 velocity=80 time=48 actual_time=32280
type=note_on channel=0 note=61 velocity=0 time=192 actual_time=32472
type=note_on channel=0 note=61 velocity=80 time=48 actual_time=32520
type=note_on channel=0 note=61 velocity=0 time=96 actual_time=32616
type=note_on channel=0 note=62 velocity=80 time=24 actual_time=32640
type=note_on channel=0 note=62 velocity=0 time=96 actual_time=32736
type=note_on channel=0 note=62 velocity=80 time=144 actual_time=32880
type=note_on channel=0 note=62 velocity=0 time=96 actual_time=32976
type=note_on channel=0 note=59 velocity=80 time=24 actual_time=33000
type=note_on channel=0 note=59 velocity=0 time=48 actual_time=33048
type=note_on channel=0 note=57 velocity=80 time=12 actual_time=33060
type=note_on channel=0 note=57 velocity=0 time=192 actual_time=33252
type=note_on channel=0 note=59 velocity=80 time=5268 actual_time=38520
type=note_on channel=0 note=59 velocity=0 time=96 actual_time=38616
type=note_on channel=0 note=59 velocity=80 time=24 actual_time=38640
type=note_on channel=0 note=59 velocity=0 time=96 actual_time=38736
type=note_on channel=0 note=59 velocity=80 time=24 actual_time=38760
type=note_on channel=0 note=59 velocity=0 time=96 actual_time=38856
type=note_on channel=0 note=59 velocity=80 time=24 actual_time=38880
type=note_on channel=0 note=59 velocity=0 time=96 actual_time=38976
type=note_on channel=0 note=57 velocity=80 time=24 actual_time=39000
type=note_on channel=0 note=57 velocity=0 time=96 actual_time=39096
type=note_on channel=0 note=57 velocity=80 time=24 actual_time=39120
type=note_on channel=0 note=57 velocity=0 time=96 actual_time=39216
type=note_on channel=0 note=57 velocity=80 time=24 actual_time=39240
type=note_on channel=0 note=57 velocity=0 time=96 actual_time=39336
type=note_on channel=0 note=57 velocity=80 time=24 actual_time=39360
type=note_on channel=0 note=57 velocity=0 time=96 actual_time=39456
type=note_on channel=0 note=57 velocity=80 time=24 actual_time=39480
type=note_on channel=0 note=57 velocity=0 time=96 actual_time=39576
type=note_on channel=0 note=57 velocity=80 time=24 actual_time=39600
type=note_on channel=0 note=57 velocity=0 time=96 actual_time=39696
type=note_on channel=0 note=57 velocity=80 time=24 actual_time=39720
type=note_on channel=0 note=57 velocity=0 time=96 actual_time=39816
type=note_on channel=0 note=57 velocity=80 time=24 actual_time=39840
type=note_on channel=0 note=57 velocity=0 time=48 actual_time=39888
type=note_on channel=0 note=57 velocity=80 time=12 actual_time=39900
type=note_on channel=0 note=57 velocity=0 time=96 actual_time=39996
type=note_on channel=0 note=57 velocity=80 time=24 actual_time=40020
type=note_on channel=0 note=57 velocity=0 time=96 actual_time=40116
type=note_on channel=0 note=57 velocity=80 time=24 actual_time=40140
type=note_on channel=0 note=57 velocity=0 time=96 actual_time=40236
type=note_on channel=0 note=54 velocity=80 time=24 actual_time=40260
type=note_on channel=0 note=54 velocity=0 time=156 actual_time=40416
type=note_on channel=0 note=54 velocity=80 time=24 actual_time=40440
type=note_on channel=0 note=54 velocity=0 time=96 actual_time=40536
type=note_on channel=0 note=54 velocity=80 time=24 actual_time=40560
type=note_on channel=0 note=54 velocity=0 time=96 actual_time=40656
type=note_on channel=0 note=54 velocity=80 time=24 actual_time=40680
type=note_on channel=0 note=54 velocity=0 time=96 actual_time=40776
type=note_on channel=0 note=57 velocity=80 time=24 actual_time=40800
type=note_on channel=0 note=57 velocity=0 time=48 actual_time=40848
type=note_on channel=0 note=57 velocity=80 time=12 actual_time=40860
type=note_on channel=0 note=57 velocity=0 time=144 actual_time=41004
type=note_on channel=0 note=57 velocity=80 time=36 actual_time=41040
type=note_on channel=0 note=57 velocity=0 time=96 actual_time=41136
type=note_on channel=0 note=57 velocity=80 time=24 actual_time=41160
type=note_on channel=0 note=57 velocity=0 time=48 actual_time=41208
type=note_on channel=0 note=59 velocity=80 time=12 actual_time=41220
type=note_on channel=0 note=59 velocity=0 time=156 actual_time=41376
type=note_on channel=0 note=57 velocity=80 time=24 actual_time=41400
type=note_on channel=0 note=57 velocity=0 time=96 actual_time=41496
type=note_on channel=0 note=57 velocity=80 time=24 actual_time=41520
type=note_on channel=0 note=57 velocity=0 time=48 actual_time=41568
type=note_on channel=0 note=57 velocity=80 time=12 actual_time=41580
type=note_on channel=0 note=57 velocity=0 time=96 actual_time=41676
type=note_on channel=0 note=57 velocity=80 time=24 actual_time=41700
type=note_on channel=0 note=57 velocity=0 time=96 actual_time=41796
type=note_on channel=0 note=57 velocity=80 time=24 actual_time=41820
type=note_on channel=0 note=57 velocity=0 time=96 actual_time=41916
type=note_on channel=0 note=59 velocity=80 time=24 actual_time=41940
type=note_on channel=0 note=59 velocity=0 time=192 actual_time=42132
type=note_on channel=0 note=59 velocity=80 time=228 actual_time=42360
type=note_on channel=0 note=59 velocity=0 time=96 actual_time=42456
type=note_on channel=0 note=59 velocity=80 time=24 actual_time=42480
type=note_on channel=0 note=59 velocity=0 time=96 actual_time=42576
type=note_on channel=0 note=59 velocity=80 time=24 actual_time=42600
type=note_on channel=0 note=59 velocity=0 time=48 actual_time=42648
type=note_on channel=0 note=59 velocity=80 time=12 actual_time=42660
type=note_on channel=0 note=59 velocity=0 time=168 actual_time=42828
type=note_on channel=0 note=57 velocity=80 time=12 actual_time=42840
type=note_on channel=0 note=57 velocity=0 time=96 actual_time=42936
type=note_on channel=0 note=57 velocity=80 time=24 actual_time=42960
type=note_on channel=0 note=57 velocity=0 time=96 actual_time=43056
type=note_on channel=0 note=54 velocity=80 time=24 actual_time=43080
type=note_on channel=0 note=54 velocity=0 time=48 actual_time=43128
type=note_on channel=0 note=57 velocity=80 time=12 actual_time=43140
type=note_on channel=0 note=57 velocity=0 time=156 actual_time=43296
type=note_on channel=0 note=57 velocity=80 time=24 actual_time=43320
type=note_on channel=0 note=57 velocity=0 time=96 actual_time=43416
type=note_on channel=0 note=57 velocity=80 time=24 actual_time=43440
type=note_on channel=0 note=57 velocity=0 time=96 actual_time=43536
type=note_on channel=0 note=54 velocity=80 time=24 actual_time=43560
type=note_on channel=0 note=54 velocity=0 time=48 actual_time=43608
type=note_on channel=0 note=57 velocity=80 time=12 actual_time=43620
type=note_on channel=0 note=57 velocity=0 time=144 actual_time=43764
type=note_on channel=0 note=57 velocity=80 time=36 actual_time=43800
type=note_on channel=0 note=57 velocity=0 time=48 actual_time=43848
type=note_on channel=0 note=57 velocity=80 time=12 actual_time=43860
type=note_on channel=0 note=57 velocity=0 time=96 actual_time=43956
type=note_on channel=0 note=57 velocity=80 time=24 actual_time=43980
type=note_on channel=0 note=57 velocity=0 time=96 actual_time=44076
type=note_on channel=0 note=54 velocity=80 time=24 actual_time=44100
type=note_on channel=0 note=54 velocity=0 time=156 actual_time=44256
type=note_on channel=0 note=54 velocity=80 time=24 actual_time=44280
type=note_on channel=0 note=54 velocity=0 time=96 actual_time=44376
type=note_on channel=0 note=54 velocity=80 time=24 actual_time=44400
type=note_on channel=0 note=54 velocity=0 time=96 actual_time=44496
type=note_on channel=0 note=54 velocity=80 time=24 actual_time=44520
type=note_on channel=0 note=54 velocity=0 time=48 actual_time=44568
type=note_on channel=0 note=54 velocity=80 time=12 actual_time=44580
type=note_on channel=0 note=54 velocity=0 time=144 actual_time=44724
type=note_on channel=0 note=54 velocity=80 time=96 actual_time=44820
type=note_on channel=0 note=54 velocity=0 time=48 actual_time=44868
type=note_on channel=0 note=54 velocity=80 time=12 actual_time=44880
type=note_on channel=0 note=54 velocity=0 time=48 actual_time=44928
type=note_on channel=0 note=54 velocity=80 time=12 actual_time=44940
type=note_on channel=0 note=54 velocity=0 time=144 actual_time=45084
type=note_on channel=0 note=62 velocity=80 time=36 actual_time=45120
type=note_on channel=0 note=62 velocity=0 time=48 actual_time=45168
type=note_on channel=0 note=62 velocity=80 time=12 actual_time=45180
type=note_on channel=0 note=62 velocity=0 time=144 actual_time=45324
type=note_on channel=0 note=62 velocity=80 time=36 actual_time=45360
type=note_on channel=0 note=62 velocity=0 time=48 actual_time=45408
type=note_on channel=0 note=62 velocity=80 time=12 actual_time=45420
type=note_on channel=0 note=62 velocity=0 time=96 actual_time=45516
type=note_on channel=0 note=61 velocity=80 time=24 actual_time=45540
type=note_on channel=0 note=61 velocity=0 time=192 actual_time=45732
type=note_on channel=0 note=59 velocity=80 time=468 actual_time=46200
type=note_on channel=0 note=59 velocity=0 time=96 actual_time=46296
type=note_on channel=0 note=59 velocity=80 time=24 actual_time=46320
type=note_on channel=0 note=59 velocity=0 time=96 actual_time=46416
type=note_on channel=0 note=59 velocity=80 time=24 actual_time=46440
type=note_on channel=0 note=59 velocity=0 time=96 actual_time=46536
type=note_on channel=0 note=62 velocity=80 time=24 actual_time=46560
type=note_on channel=0 note=62 velocity=0 time=96 actual_time=46656
type=note_on channel=0 note=59 velocity=80 time=24 actual_time=46680
type=note_on channel=0 note=59 velocity=0 time=96 actual_time=46776
type=note_on channel=0 note=59 velocity=80 time=24 actual_time=46800
type=note_on channel=0 note=59 velocity=0 time=96 actual_time=46896
type=note_on channel=0 note=59 velocity=80 time=24 actual_time=46920
type=note_on channel=0 note=59 velocity=0 time=96 actual_time=47016
type=note_on channel=0 note=62 velocity=80 time=24 actual_time=47040
type=note_on channel=0 note=62 velocity=0 time=96 actual_time=47136
type=note_on channel=0 note=62 velocity=80 time=24 actual_time=47160
type=note_on channel=0 note=62 velocity=0 time=96 actual_time=47256
type=note_on channel=0 note=62 velocity=80 time=24 actual_time=47280
type=note_on channel=0 note=62 velocity=0 time=96 actual_time=47376
type=note_on channel=0 note=62 velocity=80 time=24 actual_time=47400
type=note_on channel=0 note=62 velocity=0 time=96 actual_time=47496
type=note_on channel=0 note=61 velocity=80 time=24 actual_time=47520
type=note_on channel=0 note=61 velocity=0 time=96 actual_time=47616
type=note_on channel=0 note=61 velocity=80 time=24 actual_time=47640
type=note_on channel=0 note=61 velocity=0 time=48 actual_time=47688
type=note_on channel=0 note=62 velocity=80 time=12 actual_time=47700
type=note_on channel=0 note=62 velocity=0 time=192 actual_time=47892
type=note_on channel=0 note=59 velocity=80 time=228 actual_time=48120
type=note_on channel=0 note=59 velocity=0 time=96 actual_time=48216
type=note_on channel=0 note=59 velocity=80 time=24 actual_time=48240
type=note_on channel=0 note=59 velocity=0 time=96 actual_time=48336
type=note_on channel=0 note=59 velocity=80 time=24 actual_time=48360
type=note_on channel=0 note=59 velocity=0 time=48 actual_time=48408
type=note_on channel=0 note=62 velocity=80 time=12 actual_time=48420
type=note_on channel=0 note=62 velocity=0 time=168 actual_time=48588
type=note_on channel=0 note=59 velocity=80 time=12 actual_time=48600
type=note_on channel=0 note=59 velocity=0 time=96 actual_time=48696
type=note_on channel=0 note=59 velocity=80 time=24 actual_time=48720
type=note_on channel=0 note=59 velocity=0 time=96 actual_time=48816
type=note_on channel=0 note=59 velocity=80 time=24 actual_time=48840
type=note_on channel=0 note=59 velocity=0 time=96 actual_time=48936
type=note_on channel=0 note=62 velocity=80 time=24 actual_time=48960
type=note_on channel=0 note=62 velocity=0 time=96 actual_time=49056
type=note_on channel=0 note=62 velocity=80 time=24 actual_time=49080
type=note_on channel=0 note=62 velocity=0 time=96 actual_time=49176
type=note_on channel=0 note=62 velocity=80 time=24 actual_time=49200
type=note_on channel=0 note=62 velocity=0 time=96 actual_time=49296
type=note_on channel=0 note=62 velocity=80 time=24 actual_time=49320
type=note_on channel=0 note=62 velocity=0 time=96 actual_time=49416
type=note_on channel=0 note=61 velocity=80 time=24 actual_time=49440
type=note_on channel=0 note=61 velocity=0 time=96 actual_time=49536
type=note_on channel=0 note=61 velocity=80 time=24 actual_time=49560
type=note_on channel=0 note=61 velocity=0 time=96 actual_time=49656
type=note_on channel=0 note=61 velocity=80 time=24 actual_time=49680
type=note_on channel=0 note=61 velocity=0 time=96 actual_time=49776
type=note_on channel=0 note=62 velocity=80 time=24 actual_time=49800
type=note_on channel=0 note=62 velocity=0 time=96 actual_time=49896
type=note_on channel=0 note=59 velocity=80 time=144 actual_time=50040
type=note_on channel=0 note=59 velocity=0 time=96 actual_time=50136
type=note_on channel=0 note=59 velocity=80 time=24 actual_time=50160
type=note_on channel=0 note=59 velocity=0 time=96 actual_time=50256
type=note_on channel=0 note=59 velocity=80 time=24 actual_time=50280
type=note_on channel=0 note=59 velocity=0 time=96 actual_time=50376
type=note_on channel=0 note=62 velocity=80 time=24 actual_time=50400
type=note_on channel=0 note=62 velocity=0 time=96 actual_time=50496
type=note_on channel=0 note=59 velocity=80 time=24 actual_time=50520
type=note_on channel=0 note=59 velocity=0 time=96 actual_time=50616
type=note_on channel=0 note=57 velocity=80 time=24 actual_time=50640
type=note_on channel=0 note=57 velocity=0 time=96 actual_time=50736
type=note_on channel=0 note=57 velocity=80 time=24 actual_time=50760
type=note_on channel=0 note=57 velocity=0 time=96 actual_time=50856
type=note_on channel=0 note=62 velocity=80 time=24 actual_time=50880
type=note_on channel=0 note=62 velocity=0 time=96 actual_time=50976
type=note_on channel=0 note=62 velocity=80 time=24 actual_time=51000
type=note_on channel=0 note=62 velocity=0 time=96 actual_time=51096
type=note_on channel=0 note=62 velocity=80 time=24 actual_time=51120
type=note_on channel=0 note=62 velocity=0 time=96 actual_time=51216
type=note_on channel=0 note=61 velocity=80 time=24 actual_time=51240
type=note_on channel=0 note=61 velocity=0 time=192 actual_time=51432
type=note_on channel=0 note=61 velocity=80 time=48 actual_time=51480
type=note_on channel=0 note=61 velocity=0 time=192 actual_time=51672
type=note_on channel=0 note=61 velocity=80 time=48 actual_time=51720
type=note_on channel=0 note=61 velocity=0 time=96 actual_time=51816
type=note_on channel=0 note=62 velocity=80 time=24 actual_time=51840
type=note_on channel=0 note=62 velocity=0 time=96 actual_time=51936
type=note_on channel=0 note=62 velocity=80 time=144 actual_time=52080
type=note_on channel=0 note=62 velocity=0 time=96 actual_time=52176
type=note_on channel=0 note=59 velocity=80 time=24 actual_time=52200
type=note_on channel=0 note=59 velocity=0 time=48 actual_time=52248
type=note_on channel=0 note=57 velocity=80 time=12 actual_time=52260
type=note_on channel=0 note=57 velocity=0 time=192 actual_time=52452
type=note_on channel=0 note=57 velocity=80 time=4428 actual_time=56880
type=note_on channel=0 note=57 velocity=0 time=96 actual_time=56976
type=note_on channel=0 note=57 velocity=80 time=24 actual_time=57000
type=note_on channel=0 note=57 velocity=0 time=48 actual_time=57048
type=note_on channel=0 note=57 velocity=80 time=12 actual_time=57060
type=note_on channel=0 note=57 velocity=0 time=96 actual_time=57156
type=note_on channel=0 note=57 velocity=80 time=24 actual_time=57180
type=note_on channel=0 note=57 velocity=0 time=96 actual_time=57276
type=note_on channel=0 note=57 velocity=80 time=24 actual_time=57300
type=note_on channel=0 note=57 velocity=0 time=96 actual_time=57396
type=note_on channel=0 note=57 velocity=80 time=24 actual_time=57420
type=note_on channel=0 note=57 velocity=0 time=96 actual_time=57516
type=note_on channel=0 note=57 velocity=80 time=24 actual_time=57540
type=note_on channel=0 note=57 velocity=0 time=156 actual_time=57696
type=note_on channel=0 note=59 velocity=80 time=7704 actual_time=65400
type=note_on channel=0 note=59 velocity=0 time=96 actual_time=65496
type=note_on channel=0 note=59 velocity=80 time=24 actual_time=65520
type=note_on channel=0 note=59 velocity=0 time=96 actual_time=65616
type=note_on channel=0 note=59 velocity=80 time=24 actual_time=65640
type=note_on channel=0 note=59 velocity=0 time=96 actual_time=65736
type=note_on channel=0 note=59 velocity=80 time=24 actual_time=65760
type=note_on channel=0 note=59 velocity=0 time=96 actual_time=65856
type=note_on channel=0 note=57 velocity=80 time=24 actual_time=65880
type=note_on channel=0 note=57 velocity=0 time=96 actual_time=65976
type=note_on channel=0 note=57 velocity=80 time=24 actual_time=66000
type=note_on channel=0 note=57 velocity=0 time=96 actual_time=66096
type=note_on channel=0 note=57 velocity=80 time=24 actual_time=66120
type=note_on channel=0 note=57 velocity=0 time=96 actual_time=66216
type=note_on channel=0 note=57 velocity=80 time=24 actual_time=66240
type=note_on channel=0 note=57 velocity=0 time=96 actual_time=66336
type=note_on channel=0 note=57 velocity=80 time=24 actual_time=66360
type=note_on channel=0 note=57 velocity=0 time=96 actual_time=66456
type=note_on channel=0 note=57 velocity=80 time=24 actual_time=66480
type=note_on channel=0 note=57 velocity=0 time=96 actual_time=66576
type=note_on channel=0 note=57 velocity=80 time=24 actual_time=66600
type=note_on channel=0 note=57 velocity=0 time=96 actual_time=66696
type=note_on channel=0 note=57 velocity=80 time=24 actual_time=66720
type=note_on channel=0 note=57 velocity=0 time=96 actual_time=66816
type=note_on channel=0 note=57 velocity=80 time=24 actual_time=66840
type=note_on channel=0 note=57 velocity=0 time=48 actual_time=66888
type=note_on channel=0 note=57 velocity=80 time=12 actual_time=66900
type=note_on channel=0 note=57 velocity=0 time=192 actual_time=67092
type=note_on channel=0 note=54 velocity=80 time=228 actual_time=67320
type=note_on channel=0 note=54 velocity=0 time=96 actual_time=67416
type=note_on channel=0 note=54 velocity=80 time=24 actual_time=67440
type=note_on channel=0 note=54 velocity=0 time=96 actual_time=67536
type=note_on channel=0 note=54 velocity=80 time=24 actual_time=67560
type=note_on channel=0 note=54 velocity=0 time=48 actual_time=67608
type=note_on channel=0 note=57 velocity=80 time=12 actual_time=67620
type=note_on channel=0 note=57 velocity=0 time=144 actual_time=67764
type=note_on channel=0 note=57 velocity=80 time=36 actual_time=67800
type=note_on channel=0 note=57 velocity=0 time=96 actual_time=67896
type=note_on channel=0 note=57 velocity=80 time=24 actual_time=67920
type=note_on channel=0 note=57 velocity=0 time=96 actual_time=68016
type=note_on channel=0 note=57 velocity=80 time=24 actual_time=68040
type=note_on channel=0 note=57 velocity=0 time=96 actual_time=68136
type=note_on channel=0 note=59 velocity=80 time=24 actual_time=68160
type=note_on channel=0 note=59 velocity=0 time=96 actual_time=68256
type=note_on channel=0 note=59 velocity=80 time=24 actual_time=68280
type=note_on channel=0 note=59 velocity=0 time=96 actual_time=68376
type=note_on channel=0 note=59 velocity=80 time=24 actual_time=68400
type=note_on channel=0 note=59 velocity=0 time=96 actual_time=68496
type=note_on channel=0 note=62 velocity=80 time=144 actual_time=68640
type=note_on channel=0 note=62 velocity=0 time=96 actual_time=68736
type=note_on channel=0 note=59 velocity=80 time=24 actual_time=68760
type=note_on channel=0 note=59 velocity=0 time=96 actual_time=68856
type=note_on channel=0 note=59 velocity=80 time=24 actual_time=68880
type=note_on channel=0 note=59 velocity=0 time=96 actual_time=68976
type=note_on channel=0 note=59 velocity=80 time=24 actual_time=69000
type=note_on channel=0 note=57 velocity=80 time=120 actual_time=69120
type=note_on channel=0 note=59 velocity=0 time=24 actual_time=69144
type=note_on channel=0 note=57 velocity=0 time=72 actual_time=69216
type=note_on channel=0 note=57 velocity=80 time=24 actual_time=69240
type=note_on channel=0 note=57 velocity=0 time=96 actual_time=69336
type=note_on channel=0 note=57 velocity=80 time=24 actual_time=69360
type=note_on channel=0 note=57 velocity=0 time=96 actual_time=69456
type=note_on channel=0 note=57 velocity=80 time=24 actual_time=69480
type=note_on channel=0 note=57 velocity=0 time=96 actual_time=69576
type=note_on channel=0 note=57 velocity=80 time=24 actual_time=69600
type=note_on channel=0 note=57 velocity=0 time=96 actual_time=69696
type=note_on channel=0 note=57 velocity=80 time=24 actual_time=69720
type=note_on channel=0 note=57 velocity=0 time=96 actual_time=69816
type=note_on channel=0 note=57 velocity=80 time=24 actual_time=69840
type=note_on channel=0 note=57 velocity=0 time=96 actual_time=69936
type=note_on channel=0 note=57 velocity=80 time=24 actual_time=69960
type=note_on channel=0 note=57 velocity=0 time=96 actual_time=70056
type=note_on channel=0 note=57 velocity=80 time=24 actual_time=70080
type=note_on channel=0 note=57 velocity=0 time=96 actual_time=70176
type=note_on channel=0 note=57 velocity=80 time=24 actual_time=70200
type=note_on channel=0 note=57 velocity=0 time=96 actual_time=70296
type=note_on channel=0 note=57 velocity=80 time=24 actual_time=70320
type=note_on channel=0 note=57 velocity=0 time=96 actual_time=70416
type=note_on channel=0 note=57 velocity=80 time=24 actual_time=70440
type=note_on channel=0 note=57 velocity=0 time=192 actual_time=70632
type=note_on channel=0 note=57 velocity=80 time=48 actual_time=70680
type=note_on channel=0 note=57 velocity=0 time=192 actual_time=70872
type=note_on channel=0 note=59 velocity=80 time=48 actual_time=70920
type=note_on channel=0 note=59 velocity=0 time=216 actual_time=71136
type=note_on channel=0 note=62 velocity=80 time=144 actual_time=71280
type=note_on channel=0 note=62 velocity=0 time=96 actual_time=71376
type=note_on channel=0 note=59 velocity=80 time=24 actual_time=71400
type=note_on channel=0 note=59 velocity=0 time=48 actual_time=71448
type=note_on channel=0 note=62 velocity=80 time=12 actual_time=71460
type=note_on channel=0 note=62 velocity=0 time=384 actual_time=71844
type=note_on channel=0 note=66 velocity=80 time=156 actual_time=72000
type=note_on channel=0 note=66 velocity=0 time=768 actual_time=72768
type=note_on channel=0 note=59 velocity=80 time=312 actual_time=73080
type=note_on channel=0 note=59 velocity=0 time=96 actual_time=73176
type=note_on channel=0 note=59 velocity=80 time=24 actual_time=73200
type=note_on channel=0 note=59 velocity=0 time=96 actual_time=73296
type=note_on channel=0 note=59 velocity=80 time=24 actual_time=73320
type=note_on channel=0 note=59 velocity=0 time=96 actual_time=73416
type=note_on channel=0 note=62 velocity=80 time=24 actual_time=73440
type=note_on channel=0 note=62 velocity=0 time=96 actual_time=73536
type=note_on channel=0 note=59 velocity=80 time=24 actual_time=73560
type=note_on channel=0 note=59 velocity=0 time=96 actual_time=73656
type=note_on channel=0 note=59 velocity=80 time=24 actual_time=73680
type=note_on channel=0 note=59 velocity=0 time=96 actual_time=73776
type=note_on channel=0 note=59 velocity=80 time=24 actual_time=73800
type=note_on channel=0 note=59 velocity=0 time=96 actual_time=73896
type=note_on channel=0 note=62 velocity=80 time=24 actual_time=73920
type=note_on channel=0 note=62 velocity=0 time=96 actual_time=74016
type=note_on channel=0 note=62 velocity=80 time=24 actual_time=74040
type=note_on channel=0 note=62 velocity=0 time=96 actual_time=74136
type=note_on channel=0 note=62 velocity=80 time=24 actual_time=74160
type=note_on channel=0 note=62 velocity=0 time=96 actual_time=74256
type=note_on channel=0 note=62 velocity=80 time=24 actual_time=74280
type=note_on channel=0 note=62 velocity=0 time=96 actual_time=74376
type=note_on channel=0 note=61 velocity=80 time=24 actual_time=74400
type=note_on channel=0 note=61 velocity=0 time=96 actual_time=74496
type=note_on channel=0 note=61 velocity=80 time=24 actual_time=74520
type=note_on channel=0 note=61 velocity=0 time=48 actual_time=74568
type=note_on channel=0 note=62 velocity=80 time=12 actual_time=74580
type=note_on channel=0 note=62 velocity=0 time=192 actual_time=74772
type=note_on channel=0 note=59 velocity=80 time=228 actual_time=75000
type=note_on channel=0 note=59 velocity=0 time=96 actual_time=75096
type=note_on channel=0 note=59 velocity=80 time=24 actual_time=75120
type=note_on channel=0 note=59 velocity=0 time=96 actual_time=75216
type=note_on channel=0 note=59 velocity=80 time=24 actual_time=75240
type=note_on channel=0 note=59 velocity=0 time=48 actual_time=75288
type=note_on channel=0 note=62 velocity=80 time=12 actual_time=75300
type=note_on channel=0 note=62 velocity=0 time=168 actual_time=75468
type=note_on channel=0 note=59 velocity=80 time=12 actual_time=75480
type=note_on channel=0 note=59 velocity=0 time=96 actual_time=75576
type=note_on channel=0 note=59 velocity=80 time=24 actual_time=75600
type=note_on channel=0 note=59 velocity=0 time=96 actual_time=75696
type=note_on channel=0 note=59 velocity=80 time=24 actual_time=75720
type=note_on channel=0 note=59 velocity=0 time=96 actual_time=75816
type=note_on channel=0 note=62 velocity=80 time=24 actual_time=75840
type=note_on channel=0 note=62 velocity=0 time=96 actual_time=75936
type=note_on channel=0 note=62 velocity=80 time=24 actual_time=75960
type=note_on channel=0 note=62 velocity=0 time=96 actual_time=76056
type=note_on channel=0 note=62 velocity=80 time=24 actual_time=76080
type=note_on channel=0 note=62 velocity=0 time=96 actual_time=76176
type=note_on channel=0 note=62 velocity=80 time=24 actual_time=76200
type=note_on channel=0 note=62 velocity=0 time=96 actual_time=76296
type=note_on channel=0 note=61 velocity=80 time=24 actual_time=76320
type=note_on channel=0 note=61 velocity=0 time=96 actual_time=76416
type=note_on channel=0 note=61 velocity=80 time=24 actual_time=76440
type=note_on channel=0 note=61 velocity=0 time=96 actual_time=76536
type=note_on channel=0 note=61 velocity=80 time=24 actual_time=76560
type=note_on channel=0 note=61 velocity=0 time=96 actual_time=76656
type=note_on channel=0 note=62 velocity=80 time=24 actual_time=76680
type=note_on channel=0 note=62 velocity=0 time=96 actual_time=76776
type=note_on channel=0 note=59 velocity=80 time=144 actual_time=76920
type=note_on channel=0 note=59 velocity=0 time=96 actual_time=77016
type=note_on channel=0 note=59 velocity=80 time=24 actual_time=77040
type=note_on channel=0 note=59 velocity=0 time=96 actual_time=77136
type=note_on channel=0 note=59 velocity=80 time=24 actual_time=77160
type=note_on channel=0 note=59 velocity=0 time=96 actual_time=77256
type=note_on channel=0 note=62 velocity=80 time=24 actual_time=77280
type=note_on channel=0 note=62 velocity=0 time=96 actual_time=77376
type=note_on channel=0 note=59 velocity=80 time=24 actual_time=77400
type=note_on channel=0 note=59 velocity=0 time=96 actual_time=77496
type=note_on channel=0 note=57 velocity=80 time=24 actual_time=77520
type=note_on channel=0 note=57 velocity=0 time=96 actual_time=77616
type=note_on channel=0 note=57 velocity=80 time=24 actual_time=77640
type=note_on channel=0 note=57 velocity=0 time=96 actual_time=77736
type=note_on channel=0 note=62 velocity=80 time=24 actual_time=77760
type=note_on channel=0 note=62 velocity=0 time=96 actual_time=77856
type=note_on channel=0 note=62 velocity=80 time=24 actual_time=77880
type=note_on channel=0 note=62 velocity=0 time=96 actual_time=77976
type=note_on channel=0 note=62 velocity=80 time=24 actual_time=78000
type=note_on channel=0 note=62 velocity=0 time=96 actual_time=78096
type=note_on channel=0 note=61 velocity=80 time=24 actual_time=78120
type=note_on channel=0 note=61 velocity=0 time=192 actual_time=78312
type=note_on channel=0 note=61 velocity=80 time=48 actual_time=78360
type=note_on channel=0 note=61 velocity=0 time=192 actual_time=78552
type=note_on channel=0 note=61 velocity=80 time=48 actual_time=78600
type=note_on channel=0 note=61 velocity=0 time=96 actual_time=78696
type=note_on channel=0 note=62 velocity=80 time=24 actual_time=78720
type=note_on channel=0 note=62 velocity=0 time=96 actual_time=78816
type=note_on channel=0 note=62 velocity=80 time=144 actual_time=78960
type=note_on channel=0 note=62 velocity=0 time=96 actual_time=79056
type=note_on channel=0 note=59 velocity=80 time=24 actual_time=79080
type=note_on channel=0 note=59 velocity=0 time=48 actual_time=79128
type=note_on channel=0 note=57 velocity=80 time=12 actual_time=79140
type=note_on channel=0 note=57 velocity=0 time=192 actual_time=79332
type=note_on channel=0 note=59 velocity=80 time=2748 actual_time=82080
type=note_on channel=0 note=59 velocity=0 time=96 actual_time=82176
type=note_on channel=0 note=57 velocity=80 time=24 actual_time=82200
type=note_on channel=0 note=57 velocity=0 time=96 actual_time=82296
type=note_on channel=0 note=57 velocity=80 time=24 actual_time=82320
type=note_on channel=0 note=57 velocity=0 time=96 actual_time=82416
type=note_on channel=0 note=59 velocity=80 time=24 actual_time=82440
type=note_on channel=0 note=59 velocity=0 time=96 actual_time=82536
type=note_on channel=0 note=59 velocity=80 time=24 actual_time=82560
type=note_on channel=0 note=59 velocity=0 time=768 actual_time=83328
type=note_on channel=0 note=59 velocity=80 time=672 actual_time=84000
type=note_on channel=0 note=59 velocity=0 time=96 actual_time=84096
type=note_on channel=0 note=57 velocity=80 time=24 actual_time=84120
type=note_on channel=0 note=57 velocity=0 time=96 actual_time=84216
type=note_on channel=0 note=57 velocity=80 time=24 actual_time=84240
type=note_on channel=0 note=57 velocity=0 time=96 actual_time=84336
type=note_on channel=0 note=59 velocity=80 time=24 actual_time=84360
type=note_on channel=0 note=59 velocity=0 time=96 actual_time=84456
type=note_on channel=0 note=59 velocity=80 time=24 actual_time=84480
type=note_on channel=0 note=59 velocity=0 time=768 actual_time=85248
type=note_on channel=0 note=59 velocity=80 time=672 actual_time=85920
type=note_on channel=0 note=59 velocity=0 time=96 actual_time=86016
type=note_on channel=0 note=57 velocity=80 time=24 actual_time=86040
type=note_on channel=0 note=57 velocity=0 time=96 actual_time=86136
type=note_on channel=0 note=57 velocity=80 time=24 actual_time=86160
type=note_on channel=0 note=57 velocity=0 time=96 actual_time=86256
type=note_on channel=0 note=59 velocity=80 time=24 actual_time=86280
type=note_on channel=0 note=59 velocity=0 time=96 actual_time=86376
type=note_on channel=0 note=59 velocity=80 time=24 actual_time=86400
type=note_on channel=0 note=59 velocity=0 time=1728 actual_time=88128
MetaMessage type: end_of_track, time: 0, actual_time: 88128
MetaMessage type: track_name, time: 0, actual_time: 0
type: program_change, time: 0, actual_time: 0
type=control_change channel=1 control=7 value=99 time=0 actual_time=0
type=note_on channel=1 note=66 velocity=80 time=27840 actual_time=27840
type=note_on channel=1 note=66 velocity=0 time=96 actual_time=27936
type=note_on channel=1 note=66 velocity=80 time=24 actual_time=27960
type=note_on channel=1 note=66 velocity=0 time=96 actual_time=28056
type=note_on channel=1 note=66 velocity=80 time=24 actual_time=28080
type=note_on channel=1 note=66 velocity=0 time=96 actual_time=28176
type=note_on channel=1 note=66 velocity=80 time=24 actual_time=28200
type=note_on channel=1 note=66 velocity=0 time=96 actual_time=28296
type=note_on channel=1 note=64 velocity=80 time=24 actual_time=28320
type=note_on channel=1 note=64 velocity=0 time=96 actual_time=28416
type=note_on channel=1 note=64 velocity=80 time=24 actual_time=28440
type=note_on channel=1 note=64 velocity=0 time=48 actual_time=28488
type=note_on channel=1 note=66 velocity=80 time=12 actual_time=28500
type=note_on channel=1 note=66 velocity=0 time=192 actual_time=28692
type=note_on channel=1 note=64 velocity=80 time=1548 actual_time=30240
type=note_on channel=1 note=64 velocity=0 time=96 actual_time=30336
type=note_on channel=1 note=64 velocity=80 time=24 actual_time=30360
type=note_on channel=1 note=64 velocity=0 time=96 actual_time=30456
type=note_on channel=1 note=64 velocity=80 time=24 actual_time=30480
type=note_on channel=1 note=64 velocity=0 time=96 actual_time=30576
type=note_on channel=1 note=66 velocity=80 time=24 actual_time=30600
type=note_on channel=1 note=66 velocity=0 time=96 actual_time=30696
type=note_on channel=1 note=66 velocity=80 time=984 actual_time=31680
type=note_on channel=1 note=66 velocity=0 time=96 actual_time=31776
type=note_on channel=1 note=66 velocity=80 time=24 actual_time=31800
type=note_on channel=1 note=66 velocity=0 time=96 actual_time=31896
type=note_on channel=1 note=66 velocity=80 time=24 actual_time=31920
type=note_on channel=1 note=66 velocity=0 time=96 actual_time=32016
type=note_on channel=1 note=64 velocity=80 time=24 actual_time=32040
type=note_on channel=1 note=64 velocity=0 time=192 actual_time=32232
type=note_on channel=1 note=64 velocity=80 time=48 actual_time=32280
type=note_on channel=1 note=64 velocity=0 time=192 actual_time=32472
type=note_on channel=1 note=64 velocity=80 time=48 actual_time=32520
type=note_on channel=1 note=64 velocity=0 time=96 actual_time=32616
type=note_on channel=1 note=66 velocity=80 time=24 actual_time=32640
type=note_on channel=1 note=66 velocity=0 time=96 actual_time=32736
type=note_on channel=1 note=66 velocity=80 time=14304 actual_time=47040
type=note_on channel=1 note=66 velocity=0 time=96 actual_time=47136
type=note_on channel=1 note=66 velocity=80 time=24 actual_time=47160
type=note_on channel=1 note=66 velocity=0 time=96 actual_time=47256
type=note_on channel=1 note=66 velocity=80 time=24 actual_time=47280
type=note_on channel=1 note=66 velocity=0 time=96 actual_time=47376
type=note_on channel=1 note=66 velocity=80 time=24 actual_time=47400
type=note_on channel=1 note=66 velocity=0 time=96 actual_time=47496
type=note_on channel=1 note=64 velocity=80 time=24 actual_time=47520
type=note_on channel=1 note=64 velocity=0 time=96 actual_time=47616
type=note_on channel=1 note=64 velocity=80 time=24 actual_time=47640
type=note_on channel=1 note=64 velocity=0 time=48 actual_time=47688
type=note_on channel=1 note=66 velocity=80 time=12 actual_time=47700
type=note_on channel=1 note=66 velocity=0 time=192 actual_time=47892
type=note_on channel=1 note=64 velocity=80 time=1548 actual_time=49440
type=note_on channel=1 note=64 velocity=0 time=96 actual_time=49536
type=note_on channel=1 note=64 velocity=80 time=24 actual_time=49560
type=note_on channel=1 note=64 velocity=0 time=96 actual_time=49656
type=note_on channel=1 note=64 velocity=80 time=24 actual_time=49680
type=note_on channel=1 note=64 velocity=0 time=96 actual_time=49776
type=note_on channel=1 note=66 velocity=80 time=24 actual_time=49800
type=note_on channel=1 note=66 velocity=0 time=96 actual_time=49896
type=note_on channel=1 note=66 velocity=80 time=984 actual_time=50880
type=note_on channel=1 note=66 velocity=0 time=96 actual_time=50976
type=note_on channel=1 note=66 velocity=80 time=24 actual_time=51000
type=note_on channel=1 note=66 velocity=0 time=96 actual_time=51096
type=note_on channel=1 note=66 velocity=80 time=24 actual_time=51120
type=note_on channel=1 note=66 velocity=0 time=96 actual_time=51216
type=note_on channel=1 note=64 velocity=80 time=24 actual_time=51240
type=note_on channel=1 note=64 velocity=0 time=192 actual_time=51432
type=note_on channel=1 note=64 velocity=80 time=48 actual_time=51480
type=note_on channel=1 note=64 velocity=0 time=192 actual_time=51672
type=note_on channel=1 note=64 velocity=80 time=48 actual_time=51720
type=note_on channel=1 note=64 velocity=0 time=96 actual_time=51816
type=note_on channel=1 note=66 velocity=80 time=24 actual_time=51840
type=note_on channel=1 note=66 velocity=0 time=96 actual_time=51936
type=note_on channel=1 note=66 velocity=80 time=21984 actual_time=73920
type=note_on channel=1 note=66 velocity=0 time=96 actual_time=74016
type=note_on channel=1 note=66 velocity=80 time=24 actual_time=74040
type=note_on channel=1 note=66 velocity=0 time=96 actual_time=74136
type=note_on channel=1 note=66 velocity=80 time=24 actual_time=74160
type=note_on channel=1 note=66 velocity=0 time=96 actual_time=74256
type=note_on channel=1 note=66 velocity=80 time=24 actual_time=74280
type=note_on channel=1 note=66 velocity=0 time=96 actual_time=74376
type=note_on channel=1 note=64 velocity=80 time=24 actual_time=74400
type=note_on channel=1 note=64 velocity=0 time=96 actual_time=74496
type=note_on channel=1 note=64 velocity=80 time=24 actual_time=74520
type=note_on channel=1 note=64 velocity=0 time=48 actual_time=74568
type=note_on channel=1 note=66 velocity=80 time=12 actual_time=74580
type=note_on channel=1 note=66 velocity=0 time=192 actual_time=74772
type=note_on channel=1 note=64 velocity=80 time=1548 actual_time=76320
type=note_on channel=1 note=64 velocity=0 time=96 actual_time=76416
type=note_on channel=1 note=64 velocity=80 time=24 actual_time=76440
type=note_on channel=1 note=64 velocity=0 time=96 actual_time=76536
type=note_on channel=1 note=64 velocity=80 time=24 actual_time=76560
type=note_on channel=1 note=64 velocity=0 time=96 actual_time=76656
type=note_on channel=1 note=66 velocity=80 time=24 actual_time=76680
type=note_on channel=1 note=66 velocity=0 time=96 actual_time=76776
type=note_on channel=1 note=66 velocity=80 time=984 actual_time=77760
type=note_on channel=1 note=66 velocity=0 time=96 actual_time=77856
type=note_on channel=1 note=66 velocity=80 time=24 actual_time=77880
type=note_on channel=1 note=66 velocity=0 time=96 actual_time=77976
type=note_on channel=1 note=66 velocity=80 time=24 actual_time=78000
type=note_on channel=1 note=66 velocity=0 time=96 actual_time=78096
type=note_on channel=1 note=64 velocity=80 time=24 actual_time=78120
type=note_on channel=1 note=64 velocity=0 time=192 actual_time=78312
type=note_on channel=1 note=64 velocity=80 time=48 actual_time=78360
type=note_on channel=1 note=64 velocity=0 time=192 actual_time=78552
type=note_on channel=1 note=64 velocity=80 time=48 actual_time=78600
type=note_on channel=1 note=64 velocity=0 time=96 actual_time=78696
type=note_on channel=1 note=66 velocity=80 time=24 actual_time=78720
type=note_on channel=1 note=66 velocity=0 time=96 actual_time=78816
type=note_on channel=1 note=62 velocity=80 time=3264 actual_time=82080
type=note_on channel=1 note=62 velocity=0 time=96 actual_time=82176
type=note_on channel=1 note=61 velocity=80 time=24 actual_time=82200
type=note_on channel=1 note=61 velocity=0 time=96 actual_time=82296
type=note_on channel=1 note=61 velocity=80 time=24 actual_time=82320
type=note_on channel=1 note=61 velocity=0 time=96 actual_time=82416
type=note_on channel=1 note=62 velocity=80 time=24 actual_time=82440
type=note_on channel=1 note=62 velocity=0 time=96 actual_time=82536
type=note_on channel=1 note=62 velocity=80 time=24 actual_time=82560
type=note_on channel=1 note=62 velocity=0 time=768 actual_time=83328
type=note_on channel=1 note=62 velocity=80 time=672 actual_time=84000
type=note_on channel=1 note=62 velocity=0 time=96 actual_time=84096
type=note_on channel=1 note=61 velocity=80 time=24 actual_time=84120
type=note_on channel=1 note=61 velocity=0 time=96 actual_time=84216
type=note_on channel=1 note=61 velocity=80 time=24 actual_time=84240
type=note_on channel=1 note=61 velocity=0 time=96 actual_time=84336
type=note_on channel=1 note=62 velocity=80 time=24 actual_time=84360
type=note_on channel=1 note=62 velocity=0 time=96 actual_time=84456
type=note_on channel=1 note=62 velocity=80 time=24 actual_time=84480
type=note_on channel=1 note=62 velocity=0 time=768 actual_time=85248
type=note_on channel=1 note=62 velocity=80 time=672 actual_time=85920
type=note_on channel=1 note=62 velocity=0 time=96 actual_time=86016
type=note_on channel=1 note=61 velocity=80 time=24 actual_time=86040
type=note_on channel=1 note=61 velocity=0 time=96 actual_time=86136
type=note_on channel=1 note=61 velocity=80 time=24 actual_time=86160
type=note_on channel=1 note=61 velocity=0 time=96 actual_time=86256
type=note_on channel=1 note=62 velocity=80 time=24 actual_time=86280
type=note_on channel=1 note=62 velocity=0 time=96 actual_time=86376
type=note_on channel=1 note=62 velocity=80 time=24 actual_time=86400
type=note_on channel=1 note=62 velocity=0 time=1728 actual_time=88128
MetaMessage type: end_of_track, time: 0, actual_time: 88128
MetaMessage type: track_name, time: 0, actual_time: 0
type: program_change, time: 0, actual_time: 0
type=control_change channel=2 control=7 value=109 time=0 actual_time=0
type=note_on channel=2 note=59 velocity=80 time=3780 actual_time=3780
type=note_on channel=2 note=59 velocity=0 time=16 actual_time=3796
type=note_on channel=2 note=66 velocity=80 time=4 actual_time=3800
type=note_on channel=2 note=66 velocity=0 time=16 actual_time=3816
type=note_on channel=2 note=71 velocity=80 time=4 actual_time=3820
type=note_on channel=2 note=71 velocity=0 time=16 actual_time=3836
type=note_on channel=2 note=59 velocity=80 time=4 actual_time=3840
type=note_on channel=2 note=71 velocity=80 time=0 actual_time=3840
type=note_on channel=2 note=66 velocity=80 time=0 actual_time=3840
type=note_on channel=2 note=66 velocity=0 time=768 actual_time=4608
type=note_on channel=2 note=71 velocity=0 time=0 actual_time=4608
type=note_on channel=2 note=59 velocity=0 time=0 actual_time=4608
type=note_on channel=2 note=55 velocity=80 time=192 actual_time=4800
type=note_on channel=2 note=62 velocity=80 time=0 actual_time=4800
type=note_on channel=2 note=62 velocity=0 time=384 actual_time=5184
type=note_on channel=2 note=55 velocity=0 time=0 actual_time=5184
type=note_on channel=2 note=57 velocity=80 time=96 actual_time=5280
type=note_on channel=2 note=64 velocity=80 time=0 actual_time=5280
type=note_on channel=2 note=64 velocity=0 time=384 actual_time=5664
type=note_on channel=2 note=57 velocity=0 time=0 actual_time=5664
type=note_on channel=2 note=66 velocity=80 time=96 actual_time=5760
type=note_on channel=2 note=59 velocity=80 time=0 actual_time=5760
type=note_on channel=2 note=59 velocity=0 time=768 actual_time=6528
type=note_on channel=2 note=66 velocity=0 time=0 actual_time=6528
type=note_on channel=2 note=62 velocity=80 time=192 actual_time=6720
type=note_on channel=2 note=55 velocity=80 time=0 actual_time=6720
type=note_on channel=2 note=55 velocity=0 time=384 actual_time=7104
type=note_on channel=2 note=62 velocity=0 time=0 actual_time=7104
type=note_on channel=2 note=64 velocity=80 time=96 actual_time=7200
type=note_on channel=2 note=57 velocity=80 time=0 actual_time=7200
type=note_on channel=2 note=57 velocity=0 time=384 actual_time=7584
type=note_on channel=2 note=64 velocity=0 time=0 actual_time=7584
type=note_on channel=2 note=59 velocity=80 time=96 actual_time=7680
type=note_on channel=2 note=66 velocity=80 time=0 actual_time=7680
type=note_on channel=2 note=66 velocity=0 time=768 actual_time=8448
type=note_on channel=2 note=59 velocity=0 time=0 actual_time=8448
type=note_on channel=2 note=47 velocity=80 time=6912 actual_time=15360
type=note_on channel=2 note=47 velocity=0 time=96 actual_time=15456
type=note_on channel=2 note=54 velocity=80 time=24 actual_time=15480
type=note_on channel=2 note=59 velocity=80 time=0 actual_time=15480
type=note_on channel=2 note=47 velocity=80 time=0 actual_time=15480
type=note_on channel=2 note=47 velocity=0 time=144 actual_time=15624
type=note_on channel=2 note=59 velocity=0 time=0 actual_time=15624
type=note_on channel=2 note=54 velocity=0 time=0 actual_time=15624
type=note_on channel=2 note=47 velocity=80 time=36 actual_time=15660
type=note_on channel=2 note=59 velocity=80 time=0 actual_time=15660
type=note_on channel=2 note=54 velocity=80 time=0 actual_time=15660
type=note_on channel=2 note=54 velocity=0 time=48 actual_time=15708
type=note_on channel=2 note=59 velocity=0 time=0 actual_time=15708
type=note_on channel=2 note=54 velocity=80 time=12 actual_time=15720
type=note_on channel=2 note=54 velocity=0 time=48 actual_time=15768
type=note_on channel=2 note=47 velocity=0 time=0 actual_time=15768
type=note_on channel=2 note=47 velocity=80 time=12 actual_time=15780
type=note_on channel=2 note=59 velocity=80 time=0 actual_time=15780
type=note_on channel=2 note=54 velocity=80 time=0 actual_time=15780
type=note_on channel=2 note=54 velocity=0 time=48 actual_time=15828
type=note_on channel=2 note=59 velocity=0 time=0 actual_time=15828
type=note_on channel=2 note=47 velocity=0 time=0 actual_time=15828
type=note_on channel=2 note=47 velocity=80 time=12 actual_time=15840
type=note_on channel=2 note=47 velocity=0 time=96 actual_time=15936
type=note_on channel=2 note=59 velocity=80 time=24 actual_time=15960
type=note_on channel=2 note=47 velocity=80 time=0 actual_time=15960
type=note_on channel=2 note=54 velocity=80 time=0 actual_time=15960
type=note_on channel=2 note=54 velocity=0 time=144 actual_time=16104
type=note_on channel=2 note=47 velocity=0 time=0 actual_time=16104
type=note_on channel=2 note=59 velocity=0 time=0 actual_time=16104
type=note_on channel=2 note=59 velocity=80 time=36 actual_time=16140
type=note_on channel=2 note=47 velocity=80 time=0 actual_time=16140
type=note_on channel=2 note=54 velocity=80 time=0 actual_time=16140
type=note_on channel=2 note=54 velocity=0 time=48 actual_time=16188
type=note_on channel=2 note=59 velocity=0 time=0 actual_time=16188
type=note_on channel=2 note=54 velocity=80 time=12 actual_time=16200
type=note_on channel=2 note=54 velocity=0 time=48 actual_time=16248
type=note_on channel=2 note=47 velocity=0 time=0 actual_time=16248
type=note_on channel=2 note=54 velocity=80 time=12 actual_time=16260
type=note_on channel=2 note=47 velocity=80 time=0 actual_time=16260
type=note_on channel=2 note=59 velocity=80 time=0 actual_time=16260
type=note_on channel=2 note=59 velocity=0 time=48 actual_time=16308
type=note_on channel=2 note=47 velocity=0 time=0 actual_time=16308
type=note_on channel=2 note=54 velocity=0 time=0 actual_time=16308
type=note_on channel=2 note=43 velocity=80 time=12 actual_time=16320
type=note_on channel=2 note=43 velocity=0 time=96 actual_time=16416
type=note_on channel=2 note=50 velocity=80 time=24 actual_time=16440
type=note_on channel=2 note=43 velocity=80 time=0 actual_time=16440
type=note_on channel=2 note=55 velocity=80 time=0 actual_time=16440
type=note_on channel=2 note=55 velocity=0 time=144 actual_time=16584
type=note_on channel=2 note=43 velocity=0 time=0 actual_time=16584
type=note_on channel=2 note=50 velocity=0 time=0 actual_time=16584
type=note_on channel=2 note=43 velocity=80 time=36 actual_time=16620
type=note_on channel=2 note=50 velocity=80 time=0 actual_time=16620
type=note_on channel=2 note=55 velocity=80 time=0 actual_time=16620
type=note_on channel=2 note=55 velocity=0 time=48 actual_time=16668
type=note_on channel=2 note=50 velocity=0 time=0 actual_time=16668
type=note_on channel=2 note=50 velocity=80 time=12 actual_time=16680
type=note_on channel=2 note=50 velocity=0 time=48 actual_time=16728
type=note_on channel=2 note=43 velocity=0 time=0 actual_time=16728
type=note_on channel=2 note=50 velocity=80 time=12 actual_time=16740
type=note_on channel=2 note=43 velocity=80 time=0 actual_time=16740
type=note_on channel=2 note=55 velocity=80 time=0 actual_time=16740
type=note_on channel=2 note=55 velocity=0 time=48 actual_time=16788
type=note_on channel=2 note=43 velocity=0 time=0 actual_time=16788
type=note_on channel=2 note=50 velocity=0 time=0 actual_time=16788
type=note_on channel=2 note=45 velocity=80 time=12 actual_time=16800
type=note_on channel=2 note=45 velocity=0 time=96 actual_time=16896
type=note_on channel=2 note=57 velocity=80 time=24 actual_time=16920
type=note_on channel=2 note=45 velocity=80 time=0 actual_time=16920
type=note_on channel=2 note=52 velocity=80 time=0 actual_time=16920
type=note_on channel=2 note=52 velocity=0 time=144 actual_time=17064
type=note_on channel=2 note=45 velocity=0 time=0 actual_time=17064
type=note_on channel=2 note=57 velocity=0 time=0 actual_time=17064
type=note_on channel=2 note=52 velocity=80 time=36 actual_time=17100
type=note_on channel=2 note=45 velocity=80 time=0 actual_time=17100
type=note_on channel=2 note=57 velocity=80 time=0 actual_time=17100
type=note_on channel=2 note=57 velocity=0 time=48 actual_time=17148
type=note_on channel=2 note=52 velocity=0 time=0 actual_time=17148
type=note_on channel=2 note=52 velocity=80 time=12 actual_time=17160
type=note_on channel=2 note=52 velocity=0 time=48 actual_time=17208
type=note_on channel=2 note=45 velocity=0 time=0 actual_time=17208
type=note_on channel=2 note=57 velocity=80 time=12 actual_time=17220
type=note_on channel=2 note=45 velocity=80 time=0 actual_time=17220
type=note_on channel=2 note=52 velocity=80 time=0 actual_time=17220
type=note_on channel=2 note=52 velocity=0 time=48 actual_time=17268
type=note_on channel=2 note=45 velocity=0 time=0 actual_time=17268
type=note_on channel=2 note=57 velocity=0 time=0 actual_time=17268
type=note_on channel=2 note=47 velocity=80 time=12 actual_time=17280
type=note_on channel=2 note=47 velocity=0 time=96 actual_time=17376
type=note_on channel=2 note=54 velocity=80 time=24 actual_time=17400
type=note_on channel=2 note=47 velocity=80 time=0 actual_time=17400
type=note_on channel=2 note=59 velocity=80 time=0 actual_time=17400
type=note_on channel=2 note=59 velocity=0 time=144 actual_time=17544
type=note_on channel=2 note=47 velocity=0 time=0 actual_time=17544
type=note_on channel=2 note=54 velocity=0 time=0 actual_time=17544
type=note_on channel=2 note=47 velocity=80 time=36 actual_time=17580
type=note_on channel=2 note=54 velocity=80 time=0 actual_time=17580
type=note_on channel=2 note=59 velocity=80 time=0 actual_time=17580
type=note_on channel=2 note=59 velocity=0 time=48 actual_time=17628
type=note_on channel=2 note=54 velocity=0 time=0 actual_time=17628
type=note_on channel=2 note=54 velocity=80 time=12 actual_time=17640
type=note_on channel=2 note=54 velocity=0 time=48 actual_time=17688
type=note_on channel=2 note=47 velocity=0 time=0 actual_time=17688
type=note_on channel=2 note=54 velocity=80 time=12 actual_time=17700
type=note_on channel=2 note=47 velocity=80 time=0 actual_time=17700
type=note_on channel=2 note=59 velocity=80 time=0 actual_time=17700
type=note_on channel=2 note=59 velocity=0 time=48 actual_time=17748
type=note_on channel=2 note=47 velocity=0 time=0 actual_time=17748
type=note_on channel=2 note=54 velocity=0 time=0 actual_time=17748
type=note_on channel=2 note=47 velocity=80 time=12 actual_time=17760
type=note_on channel=2 note=47 velocity=0 time=96 actual_time=17856
type=note_on channel=2 note=59 velocity=80 time=24 actual_time=17880
type=note_on channel=2 note=47 velocity=80 time=0 actual_time=17880
type=note_on channel=2 note=54 velocity=80 time=0 actual_time=17880
type=note_on channel=2 note=54 velocity=0 time=144 actual_time=18024
type=note_on channel=2 note=47 velocity=0 time=0 actual_time=18024
type=note_on channel=2 note=59 velocity=0 time=0 actual_time=18024
type=note_on channel=2 note=59 velocity=80 time=36 actual_time=18060
type=note_on channel=2 note=54 velocity=80 time=0 actual_time=18060
type=note_on channel=2 note=47 velocity=80 time=0 actual_time=18060
type=note_on channel=2 note=54 velocity=0 time=48 actual_time=18108
type=note_on channel=2 note=59 velocity=0 time=0 actual_time=18108
type=note_on channel=2 note=54 velocity=80 time=12 actual_time=18120
type=note_on channel=2 note=54 velocity=0 time=48 actual_time=18168
type=note_on channel=2 note=47 velocity=0 time=0 actual_time=18168
type=note_on channel=2 note=59 velocity=80 time=12 actual_time=18180
type=note_on channel=2 note=47 velocity=80 time=0 actual_time=18180
type=note_on channel=2 note=54 velocity=80 time=0 actual_time=18180
type=note_on channel=2 note=54 velocity=0 time=48 actual_time=18228
type=note_on channel=2 note=47 velocity=0 time=0 actual_time=18228
type=note_on channel=2 note=59 velocity=0 time=0 actual_time=18228
type=note_on channel=2 note=43 velocity=80 time=12 actual_time=18240
type=note_on channel=2 note=43 velocity=0 time=96 actual_time=18336
type=note_on channel=2 note=55 velocity=80 time=24 actual_time=18360
type=note_on channel=2 note=43 velocity=80 time=0 actual_time=18360
type=note_on channel=2 note=50 velocity=80 time=0 actual_time=18360
type=note_on channel=2 note=50 velocity=0 time=144 actual_time=18504
type=note_on channel=2 note=43 velocity=0 time=0 actual_time=18504
type=note_on channel=2 note=55 velocity=0 time=0 actual_time=18504
type=note_on channel=2 note=55 velocity=80 time=36 actual_time=18540
type=note_on channel=2 note=50 velocity=80 time=0 actual_time=18540
type=note_on channel=2 note=43 velocity=80 time=0 actual_time=18540
type=note_on channel=2 note=50 velocity=0 time=48 actual_time=18588
type=note_on channel=2 note=55 velocity=0 time=0 actual_time=18588
type=note_on channel=2 note=50 velocity=80 time=12 actual_time=18600
type=note_on channel=2 note=50 velocity=0 time=48 actual_time=18648
type=note_on channel=2 note=43 velocity=0 time=0 actual_time=18648
type=note_on channel=2 note=55 velocity=80 time=12 actual_time=18660
type=note_on channel=2 note=43 velocity=80 time=0 actual_time=18660
type=note_on channel=2 note=50 velocity=80 time=0 actual_time=18660
type=note_on channel=2 note=50 velocity=0 time=48 actual_time=18708
type=note_on channel=2 note=43 velocity=0 time=0 actual_time=18708
type=note_on channel=2 note=55 velocity=0 time=0 actual_time=18708
type=note_on channel=2 note=45 velocity=80 time=12 actual_time=18720
type=note_on channel=2 note=45 velocity=0 time=96 actual_time=18816
type=note_on channel=2 note=52 velocity=80 time=24 actual_time=18840
type=note_on channel=2 note=45 velocity=80 time=0 actual_time=18840
type=note_on channel=2 note=57 velocity=80 time=0 actual_time=18840
type=note_on channel=2 note=57 velocity=0 time=144 actual_time=18984
type=note_on channel=2 note=45 velocity=0 time=0 actual_time=18984
type=note_on channel=2 note=52 velocity=0 time=0 actual_time=18984
type=note_on channel=2 note=45 velocity=80 time=36 actual_time=19020
type=note_on channel=2 note=52 velocity=80 time=0 actual_time=19020
type=note_on channel=2 note=57 velocity=80 time=0 actual_time=19020
type=note_on channel=2 note=57 velocity=0 time=48 actual_time=19068
type=note_on channel=2 note=52 velocity=0 time=0 actual_time=19068
type=note_on channel=2 note=52 velocity=80 time=12 actual_time=19080
type=note_on channel=2 note=52 velocity=0 time=48 actual_time=19128
type=note_on channel=2 note=45 velocity=0 time=0 actual_time=19128
type=note_on channel=2 note=52 velocity=80 time=12 actual_time=19140
type=note_on channel=2 note=45 velocity=80 time=0 actual_time=19140
type=note_on channel=2 note=57 velocity=80 time=0 actual_time=19140
type=note_on channel=2 note=57 velocity=0 time=48 actual_time=19188
type=note_on channel=2 note=45 velocity=0 time=0 actual_time=19188
type=note_on channel=2 note=52 velocity=0 time=0 actual_time=19188
type=note_on channel=2 note=66 velocity=80 time=12 actual_time=19200
type=note_on channel=2 note=59 velocity=80 time=0 actual_time=19200
type=note_on channel=2 note=59 velocity=0 time=384 actual_time=19584
type=note_on channel=2 note=66 velocity=0 time=0 actual_time=19584
type=note_on channel=2 note=47 velocity=80 time=14976 actual_time=34560
type=note_on channel=2 note=47 velocity=0 time=96 actual_time=34656
type=note_on channel=2 note=47 velocity=80 time=24 actual_time=34680
type=note_on channel=2 note=59 velocity=80 time=0 actual_time=34680
type=note_on channel=2 note=54 velocity=80 time=0 actual_time=34680
type=note_on channel=2 note=54 velocity=0 time=144 actual_time=34824
type=note_on channel=2 note=59 velocity=0 time=0 actual_time=34824
type=note_on channel=2 note=47 velocity=0 time=0 actual_time=34824
type=note_on channel=2 note=54 velocity=80 time=36 actual_time=34860
type=note_on channel=2 note=59 velocity=80 time=0 actual_time=34860
type=note_on channel=2 note=47 velocity=80 time=0 actual_time=34860
type=note_on channel=2 note=59 velocity=0 time=48 actual_time=34908
type=note_on channel=2 note=54 velocity=0 time=0 actual_time=34908
type=note_on channel=2 note=54 velocity=80 time=12 actual_time=34920
type=note_on channel=2 note=54 velocity=0 time=48 actual_time=34968
type=note_on channel=2 note=47 velocity=0 time=0 actual_time=34968
type=note_on channel=2 note=54 velocity=80 time=12 actual_time=34980
type=note_on channel=2 note=59 velocity=80 time=0 actual_time=34980
type=note_on channel=2 note=47 velocity=80 time=0 actual_time=34980
type=note_on channel=2 note=47 velocity=0 time=48 actual_time=35028
type=note_on channel=2 note=59 velocity=0 time=0 actual_time=35028
type=note_on channel=2 note=54 velocity=0 time=0 actual_time=35028
type=note_on channel=2 note=47 velocity=80 time=12 actual_time=35040
type=note_on channel=2 note=47 velocity=0 time=96 actual_time=35136
type=note_on channel=2 note=54 velocity=80 time=24 actual_time=35160
type=note_on channel=2 note=47 velocity=80 time=0 actual_time=35160
type=note_on channel=2 note=59 velocity=80 time=0 actual_time=35160
type=note_on channel=2 note=59 velocity=0 time=144 actual_time=35304
type=note_on channel=2 note=47 velocity=0 time=0 actual_time=35304
type=note_on channel=2 note=54 velocity=0 time=0 actual_time=35304
type=note_on channel=2 note=54 velocity=80 time=36 actual_time=35340
type=note_on channel=2 note=47 velocity=80 time=0 actual_time=35340
type=note_on channel=2 note=59 velocity=80 time=0 actual_time=35340
type=note_on channel=2 note=59 velocity=0 time=48 actual_time=35388
type=note_on channel=2 note=54 velocity=0 time=0 actual_time=35388
type=note_on channel=2 note=54 velocity=80 time=12 actual_time=35400
type=note_on channel=2 note=54 velocity=0 time=48 actual_time=35448
type=note_on channel=2 note=47 velocity=0 time=0 actual_time=35448
type=note_on channel=2 note=59 velocity=80 time=12 actual_time=35460
type=note_on channel=2 note=47 velocity=80 time=0 actual_time=35460
type=note_on channel=2 note=54 velocity=80 time=0 actual_time=35460
type=note_on channel=2 note=54 velocity=0 time=48 actual_time=35508
type=note_on channel=2 note=47 velocity=0 time=0 actual_time=35508
type=note_on channel=2 note=59 velocity=0 time=0 actual_time=35508
type=note_on channel=2 note=43 velocity=80 time=12 actual_time=35520
type=note_on channel=2 note=43 velocity=0 time=96 actual_time=35616
type=note_on channel=2 note=55 velocity=80 time=24 actual_time=35640
type=note_on channel=2 note=43 velocity=80 time=0 actual_time=35640
type=note_on channel=2 note=50 velocity=80 time=0 actual_time=35640
type=note_on channel=2 note=50 velocity=0 time=144 actual_time=35784
type=note_on channel=2 note=43 velocity=0 time=0 actual_time=35784
type=note_on channel=2 note=55 velocity=0 time=0 actual_time=35784
type=note_on channel=2 note=55 velocity=80 time=36 actual_time=35820
type=note_on channel=2 note=50 velocity=80 time=0 actual_time=35820
type=note_on channel=2 note=43 velocity=80 time=0 actual_time=35820
type=note_on channel=2 note=50 velocity=0 time=48 actual_time=35868
type=note_on channel=2 note=55 velocity=0 time=0 actual_time=35868
type=note_on channel=2 note=50 velocity=80 time=12 actual_time=35880
type=note_on channel=2 note=50 velocity=0 time=48 actual_time=35928
type=note_on channel=2 note=43 velocity=0 time=0 actual_time=35928
type=note_on channel=2 note=55 velocity=80 time=12 actual_time=35940
type=note_on channel=2 note=43 velocity=80 time=0 actual_time=35940
type=note_on channel=2 note=50 velocity=80 time=0 actual_time=35940
type=note_on channel=2 note=50 velocity=0 time=48 actual_time=35988
type=note_on channel=2 note=43 velocity=0 time=0 actual_time=35988
type=note_on channel=2 note=55 velocity=0 time=0 actual_time=35988
type=note_on channel=2 note=45 velocity=80 time=12 actual_time=36000
type=note_on channel=2 note=45 velocity=0 time=96 actual_time=36096
type=note_on channel=2 note=52 velocity=80 time=24 actual_time=36120
type=note_on channel=2 note=45 velocity=80 time=0 actual_time=36120
type=note_on channel=2 note=57 velocity=80 time=0 actual_time=36120
type=note_on channel=2 note=57 velocity=0 time=144 actual_time=36264
type=note_on channel=2 note=45 velocity=0 time=0 actual_time=36264
type=note_on channel=2 note=52 velocity=0 time=0 actual_time=36264
type=note_on channel=2 note=57 velocity=80 time=36 actual_time=36300
type=note_on channel=2 note=45 velocity=80 time=0 actual_time=36300
type=note_on channel=2 note=52 velocity=80 time=0 actual_time=36300
type=note_on channel=2 note=52 velocity=0 time=48 actual_time=36348
type=note_on channel=2 note=57 velocity=0 time=0 actual_time=36348
type=note_on channel=2 note=52 velocity=80 time=12 actual_time=36360
type=note_on channel=2 note=52 velocity=0 time=48 actual_time=36408
type=note_on channel=2 note=45 velocity=0 time=0 actual_time=36408
type=note_on channel=2 note=52 velocity=80 time=12 actual_time=36420
type=note_on channel=2 note=45 velocity=80 time=0 actual_time=36420
type=note_on channel=2 note=57 velocity=80 time=0 actual_time=36420
type=note_on channel=2 note=57 velocity=0 time=48 actual_time=36468
type=note_on channel=2 note=45 velocity=0 time=0 actual_time=36468
type=note_on channel=2 note=52 velocity=0 time=0 actual_time=36468
type=note_on channel=2 note=47 velocity=80 time=12 actual_time=36480
type=note_on channel=2 note=47 velocity=0 time=96 actual_time=36576
type=note_on channel=2 note=59 velocity=80 time=24 actual_time=36600
type=note_on channel=2 note=47 velocity=80 time=0 actual_time=36600
type=note_on channel=2 note=54 velocity=80 time=0 actual_time=36600
type=note_on channel=2 note=54 velocity=0 time=144 actual_time=36744
type=note_on channel=2 note=47 velocity=0 time=0 actual_time=36744
type=note_on channel=2 note=59 velocity=0 time=0 actual_time=36744
type=note_on channel=2 note=59 velocity=80 time=36 actual_time=36780
type=note_on channel=2 note=54 velocity=80 time=0 actual_time=36780
type=note_on channel=2 note=47 velocity=80 time=0 actual_time=36780
type=note_on channel=2 note=54 velocity=0 time=48 actual_time=36828
type=note_on channel=2 note=59 velocity=0 time=0 actual_time=36828
type=note_on channel=2 note=54 velocity=80 time=12 actual_time=36840
type=note_on channel=2 note=54 velocity=0 time=48 actual_time=36888
type=note_on channel=2 note=47 velocity=0 time=0 actual_time=36888
type=note_on channel=2 note=59 velocity=80 time=12 actual_time=36900
type=note_on channel=2 note=47 velocity=80 time=0 actual_time=36900
type=note_on channel=2 note=54 velocity=80 time=0 actual_time=36900
type=note_on channel=2 note=54 velocity=0 time=48 actual_time=36948
type=note_on channel=2 note=47 velocity=0 time=0 actual_time=36948
type=note_on channel=2 note=59 velocity=0 time=0 actual_time=36948
type=note_on channel=2 note=47 velocity=80 time=12 actual_time=36960
type=note_on channel=2 note=47 velocity=0 time=96 actual_time=37056
type=note_on channel=2 note=54 velocity=80 time=24 actual_time=37080
type=note_on channel=2 note=47 velocity=80 time=0 actual_time=37080
type=note_on channel=2 note=59 velocity=80 time=0 actual_time=37080
type=note_on channel=2 note=59 velocity=0 time=144 actual_time=37224
type=note_on channel=2 note=47 velocity=0 time=0 actual_time=37224
type=note_on channel=2 note=54 velocity=0 time=0 actual_time=37224
type=note_on channel=2 note=47 velocity=80 time=36 actual_time=37260
type=note_on channel=2 note=54 velocity=80 time=0 actual_time=37260
type=note_on channel=2 note=59 velocity=80 time=0 actual_time=37260
type=note_on channel=2 note=59 velocity=0 time=48 actual_time=37308
type=note_on channel=2 note=54 velocity=0 time=0 actual_time=37308
type=note_on channel=2 note=54 velocity=80 time=12 actual_time=37320
type=note_on channel=2 note=54 velocity=0 time=48 actual_time=37368
type=note_on channel=2 note=47 velocity=0 time=0 actual_time=37368
type=note_on channel=2 note=54 velocity=80 time=12 actual_time=37380
type=note_on channel=2 note=47 velocity=80 time=0 actual_time=37380
type=note_on channel=2 note=59 velocity=80 time=0 actual_time=37380
type=note_on channel=2 note=59 velocity=0 time=48 actual_time=37428
type=note_on channel=2 note=47 velocity=0 time=0 actual_time=37428
type=note_on channel=2 note=54 velocity=0 time=0 actual_time=37428
type=note_on channel=2 note=43 velocity=80 time=12 actual_time=37440
type=note_on channel=2 note=43 velocity=0 time=96 actual_time=37536
type=note_on channel=2 note=50 velocity=80 time=24 actual_time=37560
type=note_on channel=2 note=43 velocity=80 time=0 actual_time=37560
type=note_on channel=2 note=55 velocity=80 time=0 actual_time=37560
type=note_on channel=2 note=55 velocity=0 time=144 actual_time=37704
type=note_on channel=2 note=43 velocity=0 time=0 actual_time=37704
type=note_on channel=2 note=50 velocity=0 time=0 actual_time=37704
type=note_on channel=2 note=43 velocity=80 time=36 actual_time=37740
type=note_on channel=2 note=50 velocity=80 time=0 actual_time=37740
type=note_on channel=2 note=55 velocity=80 time=0 actual_time=37740
type=note_on channel=2 note=55 velocity=0 time=48 actual_time=37788
type=note_on channel=2 note=50 velocity=0 time=0 actual_time=37788
type=note_on channel=2 note=50 velocity=80 time=12 actual_time=37800
type=note_on channel=2 note=50 velocity=0 time=48 actual_time=37848
type=note_on channel=2 note=43 velocity=0 time=0 actual_time=37848
type=note_on channel=2 note=50 velocity=80 time=12 actual_time=37860
type=note_on channel=2 note=43 velocity=80 time=0 actual_time=37860
type=note_on channel=2 note=55 velocity=80 time=0 actual_time=37860
type=note_on channel=2 note=55 velocity=0 time=48 actual_time=37908
type=note_on channel=2 note=43 velocity=0 time=0 actual_time=37908
type=note_on channel=2 note=50 velocity=0 time=0 actual_time=37908
type=note_on channel=2 note=45 velocity=80 time=12 actual_time=37920
type=note_on channel=2 note=45 velocity=0 time=96 actual_time=38016
type=note_on channel=2 note=57 velocity=80 time=24 actual_time=38040
type=note_on channel=2 note=45 velocity=80 time=0 actual_time=38040
type=note_on channel=2 note=52 velocity=80 time=0 actual_time=38040
type=note_on channel=2 note=52 velocity=0 time=144 actual_time=38184
type=note_on channel=2 note=45 velocity=0 time=0 actual_time=38184
type=note_on channel=2 note=57 velocity=0 time=0 actual_time=38184
type=note_on channel=2 note=45 velocity=80 time=36 actual_time=38220
type=note_on channel=2 note=57 velocity=80 time=0 actual_time=38220
type=note_on channel=2 note=52 velocity=80 time=0 actual_time=38220
type=note_on channel=2 note=52 velocity=0 time=48 actual_time=38268
type=note_on channel=2 note=57 velocity=0 time=0 actual_time=38268
type=note_on channel=2 note=52 velocity=80 time=12 actual_time=38280
type=note_on channel=2 note=52 velocity=0 time=48 actual_time=38328
type=note_on channel=2 note=45 velocity=0 time=0 actual_time=38328
type=note_on channel=2 note=57 velocity=80 time=12 actual_time=38340
type=note_on channel=2 note=45 velocity=80 time=0 actual_time=38340
type=note_on channel=2 note=52 velocity=80 time=0 actual_time=38340
type=note_on channel=2 note=52 velocity=0 time=48 actual_time=38388
type=note_on channel=2 note=45 velocity=0 time=0 actual_time=38388
type=note_on channel=2 note=57 velocity=0 time=0 actual_time=38388
type=note_on channel=2 note=59 velocity=80 time=12 actual_time=38400
type=note_on channel=2 note=66 velocity=80 time=0 actual_time=38400
type=note_on channel=2 note=66 velocity=0 time=384 actual_time=38784
type=note_on channel=2 note=59 velocity=0 time=0 actual_time=38784
type=note_on channel=2 note=71 velocity=80 time=22656 actual_time=61440
type=note_on channel=2 note=66 velocity=80 time=0 actual_time=61440
type=note_on channel=2 note=59 velocity=80 time=0 actual_time=61440
type=note_on channel=2 note=59 velocity=0 time=384 actual_time=61824
type=note_on channel=2 note=66 velocity=0 time=0 actual_time=61824
type=note_on channel=2 note=71 velocity=0 time=0 actual_time=61824
type=note_on channel=2 note=71 velocity=80 time=5736 actual_time=67560
type=note_on channel=2 note=71 velocity=0 time=96 actual_time=67656
type=note_on channel=2 note=66 velocity=80 time=24 actual_time=67680
type=note_on channel=2 note=66 velocity=0 time=96 actual_time=67776
type=note_on channel=2 note=59 velocity=80 time=24 actual_time=67800
type=note_on channel=2 note=59 velocity=0 time=96 actual_time=67896
type=note_on channel=2 note=67 velocity=80 time=264 actual_time=68160
type=note_on channel=2 note=67 velocity=0 time=96 actual_time=68256
type=note_on channel=2 note=62 velocity=80 time=24 actual_time=68280
type=note_on channel=2 note=62 velocity=0 time=96 actual_time=68376
type=note_on channel=2 note=55 velocity=80 time=24 actual_time=68400
type=note_on channel=2 note=55 velocity=0 time=96 actual_time=68496
type=note_on channel=2 note=69 velocity=80 time=144 actual_time=68640
type=note_on channel=2 note=69 velocity=0 time=96 actual_time=68736
type=note_on channel=2 note=64 velocity=80 time=24 actual_time=68760
type=note_on channel=2 note=64 velocity=0 time=96 actual_time=68856
type=note_on channel=2 note=57 velocity=80 time=24 actual_time=68880
type=note_on channel=2 note=57 velocity=0 time=96 actual_time=68976
type=note_on channel=2 note=71 velocity=80 time=504 actual_time=69480
type=note_on channel=2 note=71 velocity=0 time=96 actual_time=69576
type=note_on channel=2 note=66 velocity=80 time=24 actual_time=69600
type=note_on channel=2 note=66 velocity=0 time=96 actual_time=69696
type=note_on channel=2 note=59 velocity=80 time=24 actual_time=69720
type=note_on channel=2 note=59 velocity=0 time=96 actual_time=69816
type=note_on channel=2 note=67 velocity=80 time=264 actual_time=70080
type=note_on channel=2 note=67 velocity=0 time=96 actual_time=70176
type=note_on channel=2 note=62 velocity=80 time=24 actual_time=70200
type=note_on channel=2 note=62 velocity=0 time=96 actual_time=70296
type=note_on channel=2 note=55 velocity=80 time=24 actual_time=70320
type=note_on channel=2 note=55 velocity=0 time=96 actual_time=70416
type=note_on channel=2 note=69 velocity=80 time=144 actual_time=70560
type=note_on channel=2 note=69 velocity=0 time=96 actual_time=70656
type=note_on channel=2 note=64 velocity=80 time=24 actual_time=70680
type=note_on channel=2 note=64 velocity=0 time=96 actual_time=70776
type=note_on channel=2 note=57 velocity=80 time=24 actual_time=70800
type=note_on channel=2 note=57 velocity=0 time=96 actual_time=70896
type=note_on channel=2 note=71 velocity=80 time=504 actual_time=71400
type=note_on channel=2 note=71 velocity=0 time=96 actual_time=71496
type=note_on channel=2 note=66 velocity=80 time=24 actual_time=71520
type=note_on channel=2 note=66 velocity=0 time=96 actual_time=71616
type=note_on channel=2 note=59 velocity=80 time=24 actual_time=71640
type=note_on channel=2 note=59 velocity=0 time=96 actual_time=71736
type=note_on channel=2 note=67 velocity=80 time=264 actual_time=72000
type=note_on channel=2 note=67 velocity=0 time=96 actual_time=72096
type=note_on channel=2 note=62 velocity=80 time=24 actual_time=72120
type=note_on channel=2 note=62 velocity=0 time=96 actual_time=72216
type=note_on channel=2 note=55 velocity=80 time=24 actual_time=72240
type=note_on channel=2 note=55 velocity=0 time=96 actual_time=72336
type=note_on channel=2 note=69 velocity=80 time=144 actual_time=72480
type=note_on channel=2 note=69 velocity=0 time=96 actual_time=72576
type=note_on channel=2 note=64 velocity=80 time=24 actual_time=72600
type=note_on channel=2 note=64 velocity=0 time=96 actual_time=72696
type=note_on channel=2 note=57 velocity=80 time=24 actual_time=72720
type=note_on channel=2 note=57 velocity=0 time=96 actual_time=72816
MetaMessage type: end_of_track, time: 0, actual_time: 72816
MetaMessage type: track_name, time: 0, actual_time: 0
type: program_change, time: 0, actual_time: 0
type=control_change channel=3 control=7 value=89 time=0 actual_time=0
type=note_on channel=3 note=47 velocity=81 time=0 actual_time=0
type=control_change channel=3 control=64 value=127 time=0 actual_time=0
type=note_on channel=3 note=54 velocity=80 time=120 actual_time=120
type=note_on channel=3 note=54 velocity=0 time=96 actual_time=216
type=note_on channel=3 note=59 velocity=80 time=24 actual_time=240
type=note_on channel=3 note=47 velocity=0 time=60 actual_time=300
type=note_on channel=3 note=59 velocity=0 time=36 actual_time=336
type=note_on channel=3 note=62 velocity=80 time=24 actual_time=360
type=note_on channel=3 note=62 velocity=0 time=192 actual_time=552
type=note_on channel=3 note=59 velocity=80 time=48 actual_time=600
type=note_on channel=3 note=59 velocity=0 time=96 actual_time=696
type=note_on channel=3 note=54 velocity=80 time=24 actual_time=720
type=note_on channel=3 note=54 velocity=0 time=96 actual_time=816
type=note_on channel=3 note=55 velocity=80 time=24 actual_time=840
type=note_on channel=3 note=55 velocity=0 time=96 actual_time=936
type=note_on channel=3 note=43 velocity=80 time=24 actual_time=960
type=note_on channel=3 note=43 velocity=0 time=96 actual_time=1056
type=note_on channel=3 note=47 velocity=80 time=24 actual_time=1080
type=note_on channel=3 note=47 velocity=0 time=96 actual_time=1176
type=note_on channel=3 note=50 velocity=80 time=24 actual_time=1200
type=note_on channel=3 note=50 velocity=0 time=96 actual_time=1296
type=note_on channel=3 note=55 velocity=80 time=24 actual_time=1320
type=note_on channel=3 note=55 velocity=0 time=96 actual_time=1416
type=note_on channel=3 note=45 velocity=80 time=24 actual_time=1440
type=note_on channel=3 note=45 velocity=0 time=96 actual_time=1536
type=note_on channel=3 note=52 velocity=80 time=24 actual_time=1560
type=note_on channel=3 note=52 velocity=0 time=96 actual_time=1656
type=note_on channel=3 note=57 velocity=80 time=24 actual_time=1680
type=note_on channel=3 note=57 velocity=0 time=96 actual_time=1776
type=note_on channel=3 note=59 velocity=80 time=24 actual_time=1800
type=note_on channel=3 note=59 velocity=0 time=96 actual_time=1896
type=control_change channel=3 control=64 value=127 time=24 actual_time=1920
type=note_on channel=3 note=47 velocity=81 time=0 actual_time=1920
type=note_on channel=3 note=54 velocity=80 time=120 actual_time=2040
type=note_on channel=3 note=54 velocity=0 time=96 actual_time=2136
type=note_on channel=3 note=59 velocity=80 time=24 actual_time=2160
type=note_on channel=3 note=47 velocity=0 time=60 actual_time=2220
type=note_on channel=3 note=59 velocity=0 time=36 actual_time=2256
type=note_on channel=3 note=62 velocity=80 time=24 actual_time=2280
type=note_on channel=3 note=62 velocity=0 time=192 actual_time=2472
type=note_on channel=3 note=59 velocity=80 time=48 actual_time=2520
type=note_on channel=3 note=59 velocity=0 time=96 actual_time=2616
type=note_on channel=3 note=54 velocity=80 time=24 actual_time=2640
type=note_on channel=3 note=54 velocity=0 time=96 actual_time=2736
type=note_on channel=3 note=55 velocity=80 time=24 actual_time=2760
type=note_on channel=3 note=55 velocity=0 time=96 actual_time=2856
type=note_on channel=3 note=43 velocity=80 time=24 actual_time=2880
type=note_on channel=3 note=43 velocity=0 time=96 actual_time=2976
type=note_on channel=3 note=47 velocity=80 time=24 actual_time=3000
type=note_on channel=3 note=47 velocity=0 time=96 actual_time=3096
type=note_on channel=3 note=50 velocity=80 time=24 actual_time=3120
type=note_on channel=3 note=50 velocity=0 time=96 actual_time=3216
type=note_on channel=3 note=55 velocity=80 time=24 actual_time=3240
type=note_on channel=3 note=55 velocity=0 time=96 actual_time=3336
type=note_on channel=3 note=45 velocity=80 time=24 actual_time=3360
type=note_on channel=3 note=45 velocity=0 time=96 actual_time=3456
type=note_on channel=3 note=52 velocity=80 time=24 actual_time=3480
type=note_on channel=3 note=52 velocity=0 time=96 actual_time=3576
type=note_on channel=3 note=57 velocity=80 time=24 actual_time=3600
type=note_on channel=3 note=57 velocity=0 time=96 actual_time=3696
type=note_on channel=3 note=59 velocity=80 time=24 actual_time=3720
type=note_on channel=3 note=59 velocity=0 time=96 actual_time=3816
type=control_change channel=3 control=64 value=127 time=24 actual_time=3840
type=note_on channel=3 note=47 velocity=81 time=0 actual_time=3840
type=note_on channel=3 note=54 velocity=80 time=120 actual_time=3960
type=note_on channel=3 note=54 velocity=0 time=96 actual_time=4056
type=note_on channel=3 note=59 velocity=80 time=24 actual_time=4080
type=note_on channel=3 note=47 velocity=0 time=60 actual_time=4140
type=note_on channel=3 note=59 velocity=0 time=36 actual_time=4176
type=note_on channel=3 note=62 velocity=80 time=24 actual_time=4200
type=note_on channel=3 note=62 velocity=0 time=192 actual_time=4392
type=note_on channel=3 note=59 velocity=80 time=48 actual_time=4440
type=note_on channel=3 note=59 velocity=0 time=96 actual_time=4536
type=note_on channel=3 note=54 velocity=80 time=24 actual_time=4560
type=note_on channel=3 note=54 velocity=0 time=96 actual_time=4656
type=note_on channel=3 note=55 velocity=80 time=24 actual_time=4680
type=note_on channel=3 note=55 velocity=0 time=96 actual_time=4776
type=note_on channel=3 note=43 velocity=80 time=24 actual_time=4800
type=note_on channel=3 note=43 velocity=0 time=96 actual_time=4896
type=note_on channel=3 note=47 velocity=80 time=24 actual_time=4920
type=note_on channel=3 note=47 velocity=0 time=96 actual_time=5016
type=note_on channel=3 note=50 velocity=80 time=24 actual_time=5040
type=note_on channel=3 note=50 velocity=0 time=96 actual_time=5136
type=note_on channel=3 note=55 velocity=80 time=24 actual_time=5160
type=note_on channel=3 note=55 velocity=0 time=96 actual_time=5256
type=note_on channel=3 note=45 velocity=80 time=24 actual_time=5280
type=note_on channel=3 note=45 velocity=0 time=96 actual_time=5376
type=note_on channel=3 note=52 velocity=80 time=24 actual_time=5400
type=note_on channel=3 note=52 velocity=0 time=96 actual_time=5496
type=note_on channel=3 note=57 velocity=80 time=24 actual_time=5520
type=note_on channel=3 note=57 velocity=0 time=96 actual_time=5616
type=note_on channel=3 note=59 velocity=80 time=24 actual_time=5640
type=note_on channel=3 note=59 velocity=0 time=96 actual_time=5736
type=note_on channel=3 note=47 velocity=81 time=24 actual_time=5760
type=control_change channel=3 control=64 value=127 time=0 actual_time=5760
type=note_on channel=3 note=54 velocity=80 time=120 actual_time=5880
type=note_on channel=3 note=54 velocity=0 time=96 actual_time=5976
type=note_on channel=3 note=59 velocity=80 time=24 actual_time=6000
type=note_on channel=3 note=47 velocity=0 time=60 actual_time=6060
type=note_on channel=3 note=59 velocity=0 time=36 actual_time=6096
type=note_on channel=3 note=62 velocity=80 time=24 actual_time=6120
type=note_on channel=3 note=62 velocity=0 time=192 actual_time=6312
type=note_on channel=3 note=59 velocity=80 time=48 actual_time=6360
type=note_on channel=3 note=59 velocity=0 time=96 actual_time=6456
type=note_on channel=3 note=54 velocity=80 time=24 actual_time=6480
type=note_on channel=3 note=54 velocity=0 time=96 actual_time=6576
type=note_on channel=3 note=55 velocity=80 time=24 actual_time=6600
type=note_on channel=3 note=55 velocity=0 time=96 actual_time=6696
type=note_on channel=3 note=43 velocity=80 time=24 actual_time=6720
type=note_on channel=3 note=43 velocity=0 time=96 actual_time=6816
type=note_on channel=3 note=47 velocity=80 time=24 actual_time=6840
type=note_on channel=3 note=47 velocity=0 time=96 actual_time=6936
type=note_on channel=3 note=50 velocity=80 time=24 actual_time=6960
type=note_on channel=3 note=50 velocity=0 time=96 actual_time=7056
type=note_on channel=3 note=55 velocity=80 time=24 actual_time=7080
type=note_on channel=3 note=55 velocity=0 time=96 actual_time=7176
type=note_on channel=3 note=45 velocity=80 time=24 actual_time=7200
type=note_on channel=3 note=45 velocity=0 time=96 actual_time=7296
type=note_on channel=3 note=64 velocity=80 time=24 actual_time=7320
type=note_on channel=3 note=64 velocity=0 time=96 actual_time=7416
type=note_on channel=3 note=59 velocity=80 time=24 actual_time=7440
type=note_on channel=3 note=59 velocity=0 time=96 actual_time=7536
type=note_on channel=3 note=57 velocity=80 time=24 actual_time=7560
type=note_on channel=3 note=57 velocity=0 time=96 actual_time=7656
type=control_change channel=3 control=64 value=127 time=24 actual_time=7680
type=note_on channel=3 note=47 velocity=81 time=0 actual_time=7680
type=note_on channel=3 note=54 velocity=80 time=120 actual_time=7800
type=note_on channel=3 note=54 velocity=0 time=96 actual_time=7896
type=note_on channel=3 note=59 velocity=80 time=24 actual_time=7920
type=note_on channel=3 note=47 velocity=0 time=60 actual_time=7980
type=note_on channel=3 note=59 velocity=0 time=36 actual_time=8016
type=note_on channel=3 note=62 velocity=80 time=24 actual_time=8040
type=note_on channel=3 note=62 velocity=0 time=192 actual_time=8232
type=note_on channel=3 note=59 velocity=80 time=48 actual_time=8280
type=note_on channel=3 note=59 velocity=0 time=96 actual_time=8376
type=note_on channel=3 note=54 velocity=80 time=24 actual_time=8400
type=note_on channel=3 note=54 velocity=0 time=96 actual_time=8496
type=note_on channel=3 note=55 velocity=80 time=24 actual_time=8520
type=note_on channel=3 note=55 velocity=0 time=96 actual_time=8616
type=note_on channel=3 note=43 velocity=80 time=24 actual_time=8640
type=note_on channel=3 note=43 velocity=0 time=96 actual_time=8736
type=note_on channel=3 note=47 velocity=80 time=24 actual_time=8760
type=note_on channel=3 note=47 velocity=0 time=96 actual_time=8856
type=note_on channel=3 note=50 velocity=80 time=24 actual_time=8880
type=note_on channel=3 note=50 velocity=0 time=96 actual_time=8976
type=note_on channel=3 note=55 velocity=80 time=24 actual_time=9000
type=note_on channel=3 note=55 velocity=0 time=96 actual_time=9096
type=note_on channel=3 note=45 velocity=80 time=24 actual_time=9120
type=note_on channel=3 note=45 velocity=0 time=96 actual_time=9216
type=note_on channel=3 note=52 velocity=80 time=24 actual_time=9240
type=note_on channel=3 note=52 velocity=0 time=96 actual_time=9336
type=note_on channel=3 note=57 velocity=80 time=24 actual_time=9360
type=note_on channel=3 note=57 velocity=0 time=96 actual_time=9456
type=note_on channel=3 note=59 velocity=80 time=24 actual_time=9480
type=note_on channel=3 note=59 velocity=0 time=96 actual_time=9576
type=note_on channel=3 note=47 velocity=81 time=24 actual_time=9600
type=control_change channel=3 control=64 value=127 time=0 actual_time=9600
type=note_on channel=3 note=54 velocity=80 time=120 actual_time=9720
type=note_on channel=3 note=54 velocity=0 time=96 actual_time=9816
type=note_on channel=3 note=59 velocity=80 time=24 actual_time=9840
type=note_on channel=3 note=47 velocity=0 time=60 actual_time=9900
type=note_on channel=3 note=59 velocity=0 time=36 actual_time=9936
type=note_on channel=3 note=62 velocity=80 time=24 actual_time=9960
type=note_on channel=3 note=62 velocity=0 time=192 actual_time=10152
type=note_on channel=3 note=59 velocity=80 time=48 actual_time=10200
type=note_on channel=3 note=59 velocity=0 time=96 actual_time=10296
type=note_on channel=3 note=54 velocity=80 time=24 actual_time=10320
type=note_on channel=3 note=54 velocity=0 time=96 actual_time=10416
type=note_on channel=3 note=55 velocity=80 time=24 actual_time=10440
type=note_on channel=3 note=55 velocity=0 time=96 actual_time=10536
type=note_on channel=3 note=43 velocity=80 time=24 actual_time=10560
type=note_on channel=3 note=43 velocity=0 time=96 actual_time=10656
type=note_on channel=3 note=47 velocity=80 time=24 actual_time=10680
type=note_on channel=3 note=47 velocity=0 time=96 actual_time=10776
type=note_on channel=3 note=50 velocity=80 time=24 actual_time=10800
type=note_on channel=3 note=50 velocity=0 time=96 actual_time=10896
type=note_on channel=3 note=55 velocity=80 time=24 actual_time=10920
type=note_on channel=3 note=55 velocity=0 time=96 actual_time=11016
type=note_on channel=3 note=45 velocity=80 time=24 actual_time=11040
type=note_on channel=3 note=45 velocity=0 time=96 actual_time=11136
type=note_on channel=3 note=52 velocity=80 time=24 actual_time=11160
type=note_on channel=3 note=52 velocity=0 time=96 actual_time=11256
type=note_on channel=3 note=57 velocity=80 time=24 actual_time=11280
type=note_on channel=3 note=57 velocity=0 time=96 actual_time=11376
type=note_on channel=3 note=59 velocity=80 time=24 actual_time=11400
type=note_on channel=3 note=59 velocity=0 time=96 actual_time=11496
type=control_change channel=3 control=64 value=127 time=24 actual_time=11520
type=note_on channel=3 note=47 velocity=81 time=0 actual_time=11520
type=note_on channel=3 note=54 velocity=80 time=120 actual_time=11640
type=note_on channel=3 note=54 velocity=0 time=96 actual_time=11736
type=note_on channel=3 note=59 velocity=80 time=24 actual_time=11760
type=note_on channel=3 note=47 velocity=0 time=60 actual_time=11820
type=note_on channel=3 note=59 velocity=0 time=36 actual_time=11856
type=note_on channel=3 note=62 velocity=80 time=24 actual_time=11880
type=note_on channel=3 note=62 velocity=0 time=192 actual_time=12072
type=note_on channel=3 note=59 velocity=80 time=48 actual_time=12120
type=note_on channel=3 note=59 velocity=0 time=96 actual_time=12216
type=note_on channel=3 note=54 velocity=80 time=24 actual_time=12240
type=note_on channel=3 note=54 velocity=0 time=96 actual_time=12336
type=note_on channel=3 note=55 velocity=80 time=24 actual_time=12360
type=note_on channel=3 note=55 velocity=0 time=96 actual_time=12456
type=note_on channel=3 note=43 velocity=80 time=24 actual_time=12480
type=note_on channel=3 note=43 velocity=0 time=96 actual_time=12576
type=note_on channel=3 note=47 velocity=80 time=24 actual_time=12600
type=note_on channel=3 note=47 velocity=0 time=96 actual_time=12696
type=note_on channel=3 note=50 velocity=80 time=24 actual_time=12720
type=note_on channel=3 note=50 velocity=0 time=96 actual_time=12816
type=note_on channel=3 note=55 velocity=80 time=24 actual_time=12840
type=note_on channel=3 note=55 velocity=0 time=96 actual_time=12936
type=note_on channel=3 note=45 velocity=80 time=24 actual_time=12960
type=note_on channel=3 note=45 velocity=0 time=96 actual_time=13056
type=note_on channel=3 note=52 velocity=80 time=24 actual_time=13080
type=note_on channel=3 note=52 velocity=0 time=96 actual_time=13176
type=note_on channel=3 note=57 velocity=80 time=24 actual_time=13200
type=note_on channel=3 note=57 velocity=0 time=96 actual_time=13296
type=note_on channel=3 note=59 velocity=80 time=24 actual_time=13320
type=note_on channel=3 note=59 velocity=0 time=96 actual_time=13416
type=note_on channel=3 note=47 velocity=81 time=24 actual_time=13440
type=control_change channel=3 control=64 value=127 time=0 actual_time=13440
type=note_on channel=3 note=54 velocity=80 time=120 actual_time=13560
type=note_on channel=3 note=54 velocity=0 time=96 actual_time=13656
type=note_on channel=3 note=59 velocity=80 time=24 actual_time=13680
type=note_on channel=3 note=47 velocity=0 time=60 actual_time=13740
type=note_on channel=3 note=59 velocity=0 time=36 actual_time=13776
type=note_on channel=3 note=62 velocity=80 time=24 actual_time=13800
type=note_on channel=3 note=62 velocity=0 time=192 actual_time=13992
type=note_on channel=3 note=59 velocity=80 time=48 actual_time=14040
type=note_on channel=3 note=59 velocity=0 time=96 actual_time=14136
type=note_on channel=3 note=54 velocity=80 time=24 actual_time=14160
type=note_on channel=3 note=54 velocity=0 time=96 actual_time=14256
type=note_on channel=3 note=55 velocity=80 time=24 actual_time=14280
type=note_on channel=3 note=55 velocity=0 time=96 actual_time=14376
type=note_on channel=3 note=43 velocity=80 time=24 actual_time=14400
type=note_on channel=3 note=43 velocity=0 time=96 actual_time=14496
type=note_on channel=3 note=47 velocity=80 time=24 actual_time=14520
type=note_on channel=3 note=47 velocity=0 time=96 actual_time=14616
type=note_on channel=3 note=50 velocity=80 time=24 actual_time=14640
type=note_on channel=3 note=50 velocity=0 time=96 actual_time=14736
type=note_on channel=3 note=55 velocity=80 time=24 actual_time=14760
type=note_on channel=3 note=55 velocity=0 time=96 actual_time=14856
type=note_on channel=3 note=45 velocity=80 time=24 actual_time=14880
type=note_on channel=3 note=45 velocity=0 time=96 actual_time=14976
type=note_on channel=3 note=64 velocity=80 time=24 actual_time=15000
type=note_on channel=3 note=64 velocity=0 time=96 actual_time=15096
type=note_on channel=3 note=59 velocity=80 time=24 actual_time=15120
type=note_on channel=3 note=59 velocity=0 time=96 actual_time=15216
type=note_on channel=3 note=57 velocity=80 time=24 actual_time=15240
type=note_on channel=3 note=57 velocity=0 time=96 actual_time=15336
type=note_on channel=3 note=54 velocity=80 time=24 actual_time=15360
type=note_on channel=3 note=54 velocity=0 time=96 actual_time=15456
type=note_on channel=3 note=59 velocity=80 time=24 actual_time=15480
type=note_on channel=3 note=59 velocity=0 time=192 actual_time=15672
type=note_on channel=3 note=61 velocity=80 time=48 actual_time=15720
type=note_on channel=3 note=61 velocity=0 time=192 actual_time=15912
type=note_on channel=3 note=62 velocity=80 time=48 actual_time=15960
type=note_on channel=3 note=62 velocity=0 time=192 actual_time=16152
type=note_on channel=3 note=64 velocity=80 time=48 actual_time=16200
type=note_on channel=3 note=64 velocity=0 time=216 actual_time=16416
type=note_on channel=3 note=62 velocity=80 time=24 actual_time=16440
type=note_on channel=3 note=62 velocity=0 time=192 actual_time=16632
type=note_on channel=3 note=61 velocity=80 time=48 actual_time=16680
type=note_on channel=3 note=61 velocity=0 time=192 actual_time=16872
type=note_on channel=3 note=57 velocity=80 time=48 actual_time=16920
type=note_on channel=3 note=57 velocity=0 time=96 actual_time=17016
type=note_on channel=3 note=66 velocity=80 time=24 actual_time=17040
type=note_on channel=3 note=66 velocity=0 time=96 actual_time=17136
type=note_on channel=3 note=57 velocity=80 time=24 actual_time=17160
type=note_on channel=3 note=57 velocity=0 time=96 actual_time=17256
type=note_on channel=3 note=54 velocity=80 time=24 actual_time=17280
type=note_on channel=3 note=54 velocity=0 time=192 actual_time=17472
type=note_on channel=3 note=59 velocity=80 time=48 actual_time=17520
type=note_on channel=3 note=59 velocity=0 time=96 actual_time=17616
type=note_on channel=3 note=61 velocity=80 time=24 actual_time=17640
type=note_on channel=3 note=61 velocity=0 time=192 actual_time=17832
type=note_on channel=3 note=62 velocity=80 time=48 actual_time=17880
type=note_on channel=3 note=62 velocity=0 time=192 actual_time=18072
type=note_on channel=3 note=69 velocity=80 time=48 actual_time=18120
type=note_on channel=3 note=69 velocity=0 time=216 actual_time=18336
type=note_on channel=3 note=67 velocity=80 time=24 actual_time=18360
type=note_on channel=3 note=67 velocity=0 time=192 actual_time=18552
type=note_on channel=3 note=66 velocity=80 time=48 actual_time=18600
type=note_on channel=3 note=66 velocity=0 time=192 actual_time=18792
type=note_on channel=3 note=59 velocity=80 time=48 actual_time=18840
type=note_on channel=3 note=59 velocity=0 time=96 actual_time=18936
type=note_on channel=3 note=64 velocity=80 time=24 actual_time=18960
type=note_on channel=3 note=64 velocity=0 time=96 actual_time=19056
type=note_on channel=3 note=57 velocity=80 time=24 actual_time=19080
type=note_on channel=3 note=57 velocity=0 time=96 actual_time=19176
type=control_change channel=3 control=64 value=127 time=24 actual_time=19200
type=note_on channel=3 note=47 velocity=81 time=0 actual_time=19200
type=note_on channel=3 note=54 velocity=80 time=120 actual_time=19320
type=note_on channel=3 note=54 velocity=0 time=96 actual_time=19416
type=note_on channel=3 note=59 velocity=80 time=24 actual_time=19440
type=note_on channel=3 note=47 velocity=0 time=60 actual_time=19500
type=note_on channel=3 note=59 velocity=0 time=36 actual_time=19536
type=note_on channel=3 note=62 velocity=80 time=24 actual_time=19560
type=note_on channel=3 note=62 velocity=0 time=192 actual_time=19752
type=note_on channel=3 note=59 velocity=80 time=48 actual_time=19800
type=note_on channel=3 note=59 velocity=0 time=96 actual_time=19896
type=note_on channel=3 note=54 velocity=80 time=24 actual_time=19920
type=note_on channel=3 note=54 velocity=0 time=96 actual_time=20016
type=note_on channel=3 note=55 velocity=80 time=24 actual_time=20040
type=note_on channel=3 note=55 velocity=0 time=96 actual_time=20136
type=note_on channel=3 note=43 velocity=80 time=24 actual_time=20160
type=note_on channel=3 note=43 velocity=0 time=96 actual_time=20256
type=note_on channel=3 note=47 velocity=80 time=24 actual_time=20280
type=note_on channel=3 note=47 velocity=0 time=96 actual_time=20376
type=note_on channel=3 note=50 velocity=80 time=24 actual_time=20400
type=note_on channel=3 note=50 velocity=0 time=96 actual_time=20496
type=note_on channel=3 note=55 velocity=80 time=24 actual_time=20520
type=note_on channel=3 note=55 velocity=0 time=96 actual_time=20616
type=note_on channel=3 note=45 velocity=80 time=24 actual_time=20640
type=note_on channel=3 note=45 velocity=0 time=96 actual_time=20736
type=note_on channel=3 note=52 velocity=80 time=24 actual_time=20760
type=note_on channel=3 note=52 velocity=0 time=96 actual_time=20856
type=note_on channel=3 note=57 velocity=80 time=24 actual_time=20880
type=note_on channel=3 note=57 velocity=0 time=96 actual_time=20976
type=note_on channel=3 note=59 velocity=80 time=24 actual_time=21000
type=note_on channel=3 note=59 velocity=0 time=96 actual_time=21096
type=note_on channel=3 note=47 velocity=81 time=24 actual_time=21120
type=control_change channel=3 control=64 value=127 time=0 actual_time=21120
type=note_on channel=3 note=54 velocity=80 time=120 actual_time=21240
type=note_on channel=3 note=54 velocity=0 time=96 actual_time=21336
type=note_on channel=3 note=59 velocity=80 time=24 actual_time=21360
type=note_on channel=3 note=47 velocity=0 time=60 actual_time=21420
type=note_on channel=3 note=59 velocity=0 time=36 actual_time=21456
type=note_on channel=3 note=62 velocity=80 time=24 actual_time=21480
type=note_on channel=3 note=62 velocity=0 time=192 actual_time=21672
type=note_on channel=3 note=59 velocity=80 time=48 actual_time=21720
type=note_on channel=3 note=59 velocity=0 time=96 actual_time=21816
type=note_on channel=3 note=54 velocity=80 time=24 actual_time=21840
type=note_on channel=3 note=54 velocity=0 time=96 actual_time=21936
type=note_on channel=3 note=55 velocity=80 time=24 actual_time=21960
type=note_on channel=3 note=55 velocity=0 time=96 actual_time=22056
type=note_on channel=3 note=43 velocity=80 time=24 actual_time=22080
type=note_on channel=3 note=43 velocity=0 time=96 actual_time=22176
type=note_on channel=3 note=47 velocity=80 time=24 actual_time=22200
type=note_on channel=3 note=47 velocity=0 time=96 actual_time=22296
type=note_on channel=3 note=50 velocity=80 time=24 actual_time=22320
type=note_on channel=3 note=50 velocity=0 time=96 actual_time=22416
type=note_on channel=3 note=55 velocity=80 time=24 actual_time=22440
type=note_on channel=3 note=55 velocity=0 time=96 actual_time=22536
type=note_on channel=3 note=45 velocity=80 time=24 actual_time=22560
type=note_on channel=3 note=45 velocity=0 time=96 actual_time=22656
type=note_on channel=3 note=52 velocity=80 time=24 actual_time=22680
type=note_on channel=3 note=52 velocity=0 time=96 actual_time=22776
type=note_on channel=3 note=57 velocity=80 time=24 actual_time=22800
type=note_on channel=3 note=57 velocity=0 time=96 actual_time=22896
type=note_on channel=3 note=59 velocity=80 time=24 actual_time=22920
type=note_on channel=3 note=59 velocity=0 time=96 actual_time=23016
type=control_change channel=3 control=64 value=127 time=24 actual_time=23040
type=note_on channel=3 note=47 velocity=81 time=0 actual_time=23040
type=note_on channel=3 note=54 velocity=80 time=120 actual_time=23160
type=note_on channel=3 note=54 velocity=0 time=96 actual_time=23256
type=note_on channel=3 note=59 velocity=80 time=24 actual_time=23280
type=note_on channel=3 note=47 velocity=0 time=60 actual_time=23340
type=note_on channel=3 note=59 velocity=0 time=36 actual_time=23376
type=note_on channel=3 note=62 velocity=80 time=24 actual_time=23400
type=note_on channel=3 note=62 velocity=0 time=192 actual_time=23592
type=note_on channel=3 note=59 velocity=80 time=48 actual_time=23640
type=note_on channel=3 note=59 velocity=0 time=96 actual_time=23736
type=note_on channel=3 note=54 velocity=80 time=24 actual_time=23760
type=note_on channel=3 note=54 velocity=0 time=96 actual_time=23856
type=note_on channel=3 note=55 velocity=80 time=24 actual_time=23880
type=note_on channel=3 note=55 velocity=0 time=96 actual_time=23976
type=note_on channel=3 note=43 velocity=80 time=24 actual_time=24000
type=note_on channel=3 note=43 velocity=0 time=96 actual_time=24096
type=note_on channel=3 note=47 velocity=80 time=24 actual_time=24120
type=note_on channel=3 note=47 velocity=0 time=96 actual_time=24216
type=note_on channel=3 note=50 velocity=80 time=24 actual_time=24240
type=note_on channel=3 note=50 velocity=0 time=96 actual_time=24336
type=note_on channel=3 note=55 velocity=80 time=24 actual_time=24360
type=note_on channel=3 note=55 velocity=0 time=96 actual_time=24456
type=note_on channel=3 note=45 velocity=80 time=24 actual_time=24480
type=note_on channel=3 note=45 velocity=0 time=96 actual_time=24576
type=note_on channel=3 note=52 velocity=80 time=24 actual_time=24600
type=note_on channel=3 note=52 velocity=0 time=96 actual_time=24696
type=note_on channel=3 note=57 velocity=80 time=24 actual_time=24720
type=note_on channel=3 note=57 velocity=0 time=96 actual_time=24816
type=note_on channel=3 note=59 velocity=80 time=24 actual_time=24840
type=note_on channel=3 note=59 velocity=0 time=96 actual_time=24936
type=note_on channel=3 note=47 velocity=81 time=24 actual_time=24960
type=control_change channel=3 control=64 value=127 time=0 actual_time=24960
type=note_on channel=3 note=54 velocity=80 time=120 actual_time=25080
type=note_on channel=3 note=54 velocity=0 time=96 actual_time=25176
type=note_on channel=3 note=59 velocity=80 time=24 actual_time=25200
type=note_on channel=3 note=47 velocity=0 time=60 actual_time=25260
type=note_on channel=3 note=59 velocity=0 time=36 actual_time=25296
type=note_on channel=3 note=62 velocity=80 time=24 actual_time=25320
type=note_on channel=3 note=62 velocity=0 time=192 actual_time=25512
type=note_on channel=3 note=59 velocity=80 time=48 actual_time=25560
type=note_on channel=3 note=59 velocity=0 time=96 actual_time=25656
type=note_on channel=3 note=54 velocity=80 time=24 actual_time=25680
type=note_on channel=3 note=54 velocity=0 time=96 actual_time=25776
type=note_on channel=3 note=55 velocity=80 time=24 actual_time=25800
type=note_on channel=3 note=55 velocity=0 time=96 actual_time=25896
type=note_on channel=3 note=43 velocity=80 time=24 actual_time=25920
type=note_on channel=3 note=43 velocity=0 time=96 actual_time=26016
type=note_on channel=3 note=47 velocity=80 time=24 actual_time=26040
type=note_on channel=3 note=47 velocity=0 time=96 actual_time=26136
type=note_on channel=3 note=50 velocity=80 time=24 actual_time=26160
type=note_on channel=3 note=50 velocity=0 time=96 actual_time=26256
type=note_on channel=3 note=55 velocity=80 time=24 actual_time=26280
type=note_on channel=3 note=55 velocity=0 time=96 actual_time=26376
type=note_on channel=3 note=45 velocity=80 time=24 actual_time=26400
type=note_on channel=3 note=45 velocity=0 time=96 actual_time=26496
type=note_on channel=3 note=64 velocity=80 time=24 actual_time=26520
type=note_on channel=3 note=64 velocity=0 time=96 actual_time=26616
type=note_on channel=3 note=59 velocity=80 time=24 actual_time=26640
type=note_on channel=3 note=59 velocity=0 time=96 actual_time=26736
type=note_on channel=3 note=57 velocity=80 time=24 actual_time=26760
type=note_on channel=3 note=57 velocity=0 time=96 actual_time=26856
type=note_on channel=3 note=54 velocity=80 time=7704 actual_time=34560
type=note_on channel=3 note=54 velocity=0 time=96 actual_time=34656
type=note_on channel=3 note=59 velocity=80 time=24 actual_time=34680
type=note_on channel=3 note=59 velocity=0 time=192 actual_time=34872
type=note_on channel=3 note=61 velocity=80 time=48 actual_time=34920
type=note_on channel=3 note=61 velocity=0 time=192 actual_time=35112
type=note_on channel=3 note=62 velocity=80 time=48 actual_time=35160
type=note_on channel=3 note=62 velocity=0 time=192 actual_time=35352
type=note_on channel=3 note=64 velocity=80 time=48 actual_time=35400
type=note_on channel=3 note=64 velocity=0 time=216 actual_time=35616
type=note_on channel=3 note=62 velocity=80 time=24 actual_time=35640
type=note_on channel=3 note=62 velocity=0 time=192 actual_time=35832
type=note_on channel=3 note=61 velocity=80 time=48 actual_time=35880
type=note_on channel=3 note=61 velocity=0 time=192 actual_time=36072
type=note_on channel=3 note=57 velocity=80 time=48 actual_time=36120
type=note_on channel=3 note=57 velocity=0 time=192 actual_time=36312
type=note_on channel=3 note=61 velocity=80 time=48 actual_time=36360
type=note_on channel=3 note=61 velocity=0 time=96 actual_time=36456
type=note_on channel=3 note=54 velocity=80 time=24 actual_time=36480
type=note_on channel=3 note=54 velocity=0 time=192 actual_time=36672
type=note_on channel=3 note=59 velocity=80 time=48 actual_time=36720
type=note_on channel=3 note=59 velocity=0 time=96 actual_time=36816
type=note_on channel=3 note=61 velocity=80 time=24 actual_time=36840
type=note_on channel=3 note=61 velocity=0 time=192 actual_time=37032
type=note_on channel=3 note=62 velocity=80 time=48 actual_time=37080
type=note_on channel=3 note=62 velocity=0 time=192 actual_time=37272
type=note_on channel=3 note=69 velocity=80 time=48 actual_time=37320
type=note_on channel=3 note=69 velocity=0 time=216 actual_time=37536
type=note_on channel=3 note=67 velocity=80 time=24 actual_time=37560
type=note_on channel=3 note=67 velocity=0 time=192 actual_time=37752
type=note_on channel=3 note=66 velocity=80 time=48 actual_time=37800
type=note_on channel=3 note=66 velocity=0 time=192 actual_time=37992
type=note_on channel=3 note=59 velocity=80 time=48 actual_time=38040
type=note_on channel=3 note=59 velocity=0 time=96 actual_time=38136
type=note_on channel=3 note=64 velocity=80 time=24 actual_time=38160
type=note_on channel=3 note=64 velocity=0 time=96 actual_time=38256
type=note_on channel=3 note=57 velocity=80 time=24 actual_time=38280
type=note_on channel=3 note=57 velocity=0 time=96 actual_time=38376
type=note_on channel=3 note=47 velocity=81 time=24 actual_time=38400
type=control_change channel=3 control=64 value=127 time=0 actual_time=38400
type=note_on channel=3 note=54 velocity=80 time=120 actual_time=38520
type=note_on channel=3 note=54 velocity=0 time=96 actual_time=38616
type=note_on channel=3 note=59 velocity=80 time=24 actual_time=38640
type=note_on channel=3 note=47 velocity=0 time=60 actual_time=38700
type=note_on channel=3 note=59 velocity=0 time=36 actual_time=38736
type=note_on channel=3 note=62 velocity=80 time=24 actual_time=38760
type=note_on channel=3 note=62 velocity=0 time=192 actual_time=38952
type=note_on channel=3 note=59 velocity=80 time=48 actual_time=39000
type=note_on channel=3 note=59 velocity=0 time=96 actual_time=39096
type=note_on channel=3 note=54 velocity=80 time=24 actual_time=39120
type=note_on channel=3 note=54 velocity=0 time=96 actual_time=39216
type=note_on channel=3 note=55 velocity=80 time=24 actual_time=39240
type=note_on channel=3 note=55 velocity=0 time=96 actual_time=39336
type=note_on channel=3 note=43 velocity=80 time=24 actual_time=39360
type=note_on channel=3 note=43 velocity=0 time=96 actual_time=39456
type=note_on channel=3 note=47 velocity=80 time=24 actual_time=39480
type=note_on channel=3 note=47 velocity=0 time=96 actual_time=39576
type=note_on channel=3 note=50 velocity=80 time=24 actual_time=39600
type=note_on channel=3 note=50 velocity=0 time=96 actual_time=39696
type=note_on channel=3 note=55 velocity=80 time=24 actual_time=39720
type=note_on channel=3 note=55 velocity=0 time=96 actual_time=39816
type=note_on channel=3 note=45 velocity=80 time=24 actual_time=39840
type=note_on channel=3 note=45 velocity=0 time=96 actual_time=39936
type=note_on channel=3 note=52 velocity=80 time=24 actual_time=39960
type=note_on channel=3 note=52 velocity=0 time=96 actual_time=40056
type=note_on channel=3 note=57 velocity=80 time=24 actual_time=40080
type=note_on channel=3 note=57 velocity=0 time=96 actual_time=40176
type=note_on channel=3 note=59 velocity=80 time=24 actual_time=40200
type=note_on channel=3 note=59 velocity=0 time=96 actual_time=40296
type=control_change channel=3 control=64 value=127 time=24 actual_time=40320
type=note_on channel=3 note=47 velocity=81 time=0 actual_time=40320
type=note_on channel=3 note=54 velocity=80 time=120 actual_time=40440
type=note_on channel=3 note=54 velocity=0 time=96 actual_time=40536
type=note_on channel=3 note=59 velocity=80 time=24 actual_time=40560
type=note_on channel=3 note=47 velocity=0 time=60 actual_time=40620
type=note_on channel=3 note=59 velocity=0 time=36 actual_time=40656
type=note_on channel=3 note=62 velocity=80 time=24 actual_time=40680
type=note_on channel=3 note=62 velocity=0 time=192 actual_time=40872
type=note_on channel=3 note=59 velocity=80 time=48 actual_time=40920
type=note_on channel=3 note=59 velocity=0 time=96 actual_time=41016
type=note_on channel=3 note=54 velocity=80 time=24 actual_time=41040
type=note_on channel=3 note=54 velocity=0 time=96 actual_time=41136
type=note_on channel=3 note=55 velocity=80 time=24 actual_time=41160
type=note_on channel=3 note=55 velocity=0 time=96 actual_time=41256
type=note_on channel=3 note=43 velocity=80 time=24 actual_time=41280
type=note_on channel=3 note=43 velocity=0 time=96 actual_time=41376
type=note_on channel=3 note=47 velocity=80 time=24 actual_time=41400
type=note_on channel=3 note=47 velocity=0 time=96 actual_time=41496
type=note_on channel=3 note=50 velocity=80 time=24 actual_time=41520
type=note_on channel=3 note=50 velocity=0 time=96 actual_time=41616
type=note_on channel=3 note=55 velocity=80 time=24 actual_time=41640
type=note_on channel=3 note=55 velocity=0 time=96 actual_time=41736
type=note_on channel=3 note=45 velocity=80 time=24 actual_time=41760
type=note_on channel=3 note=45 velocity=0 time=96 actual_time=41856
type=note_on channel=3 note=52 velocity=80 time=24 actual_time=41880
type=note_on channel=3 note=52 velocity=0 time=96 actual_time=41976
type=note_on channel=3 note=57 velocity=80 time=24 actual_time=42000
type=note_on channel=3 note=57 velocity=0 time=96 actual_time=42096
type=note_on channel=3 note=59 velocity=80 time=24 actual_time=42120
type=note_on channel=3 note=59 velocity=0 time=96 actual_time=42216
type=note_on channel=3 note=47 velocity=81 time=24 actual_time=42240
type=control_change channel=3 control=64 value=127 time=0 actual_time=42240
type=note_on channel=3 note=54 velocity=80 time=120 actual_time=42360
type=note_on channel=3 note=54 velocity=0 time=96 actual_time=42456
type=note_on channel=3 note=59 velocity=80 time=24 actual_time=42480
type=note_on channel=3 note=47 velocity=0 time=60 actual_time=42540
type=note_on channel=3 note=59 velocity=0 time=36 actual_time=42576
type=note_on channel=3 note=62 velocity=80 time=24 actual_time=42600
type=note_on channel=3 note=62 velocity=0 time=192 actual_time=42792
type=note_on channel=3 note=59 velocity=80 time=48 actual_time=42840
type=note_on channel=3 note=59 velocity=0 time=96 actual_time=42936
type=note_on channel=3 note=54 velocity=80 time=24 actual_time=42960
type=note_on channel=3 note=54 velocity=0 time=96 actual_time=43056
type=note_on channel=3 note=55 velocity=80 time=24 actual_time=43080
type=note_on channel=3 note=55 velocity=0 time=96 actual_time=43176
type=note_on channel=3 note=43 velocity=80 time=24 actual_time=43200
type=note_on channel=3 note=43 velocity=0 time=96 actual_time=43296
type=note_on channel=3 note=47 velocity=80 time=24 actual_time=43320
type=note_on channel=3 note=47 velocity=0 time=96 actual_time=43416
type=note_on channel=3 note=50 velocity=80 time=24 actual_time=43440
type=note_on channel=3 note=50 velocity=0 time=96 actual_time=43536
type=note_on channel=3 note=55 velocity=80 time=24 actual_time=43560
type=note_on channel=3 note=55 velocity=0 time=96 actual_time=43656
type=note_on channel=3 note=45 velocity=80 time=24 actual_time=43680
type=note_on channel=3 note=45 velocity=0 time=96 actual_time=43776
type=note_on channel=3 note=52 velocity=80 time=24 actual_time=43800
type=note_on channel=3 note=52 velocity=0 time=96 actual_time=43896
type=note_on channel=3 note=57 velocity=80 time=24 actual_time=43920
type=note_on channel=3 note=57 velocity=0 time=96 actual_time=44016
type=note_on channel=3 note=59 velocity=80 time=24 actual_time=44040
type=note_on channel=3 note=59 velocity=0 time=96 actual_time=44136
type=control_change channel=3 control=64 value=127 time=24 actual_time=44160
type=note_on channel=3 note=47 velocity=81 time=0 actual_time=44160
type=note_on channel=3 note=54 velocity=80 time=120 actual_time=44280
type=note_on channel=3 note=54 velocity=0 time=96 actual_time=44376
type=note_on channel=3 note=59 velocity=80 time=24 actual_time=44400
type=note_on channel=3 note=47 velocity=0 time=60 actual_time=44460
type=note_on channel=3 note=59 velocity=0 time=36 actual_time=44496
type=note_on channel=3 note=62 velocity=80 time=24 actual_time=44520
type=note_on channel=3 note=62 velocity=0 time=192 actual_time=44712
type=note_on channel=3 note=59 velocity=80 time=48 actual_time=44760
type=note_on channel=3 note=59 velocity=0 time=96 actual_time=44856
type=note_on channel=3 note=54 velocity=80 time=24 actual_time=44880
type=note_on channel=3 note=54 velocity=0 time=96 actual_time=44976
type=note_on channel=3 note=55 velocity=80 time=24 actual_time=45000
type=note_on channel=3 note=55 velocity=0 time=96 actual_time=45096
type=note_on channel=3 note=43 velocity=80 time=24 actual_time=45120
type=note_on channel=3 note=43 velocity=0 time=96 actual_time=45216
type=note_on channel=3 note=47 velocity=80 time=24 actual_time=45240
type=note_on channel=3 note=47 velocity=0 time=96 actual_time=45336
type=note_on channel=3 note=50 velocity=80 time=24 actual_time=45360
type=note_on channel=3 note=50 velocity=0 time=96 actual_time=45456
type=note_on channel=3 note=55 velocity=80 time=24 actual_time=45480
type=note_on channel=3 note=55 velocity=0 time=96 actual_time=45576
type=note_on channel=3 note=45 velocity=80 time=24 actual_time=45600
type=note_on channel=3 note=45 velocity=0 time=96 actual_time=45696
type=note_on channel=3 note=64 velocity=80 time=24 actual_time=45720
type=note_on channel=3 note=64 velocity=0 time=96 actual_time=45816
type=note_on channel=3 note=59 velocity=80 time=24 actual_time=45840
type=note_on channel=3 note=59 velocity=0 time=96 actual_time=45936
type=note_on channel=3 note=57 velocity=80 time=24 actual_time=45960
type=note_on channel=3 note=57 velocity=0 time=96 actual_time=46056
type=note_on channel=3 note=59 velocity=80 time=15384 actual_time=61440
type=note_on channel=3 note=59 velocity=0 time=96 actual_time=61536
type=note_on channel=3 note=61 velocity=80 time=24 actual_time=61560
type=note_on channel=3 note=61 velocity=0 time=192 actual_time=61752
type=note_on channel=3 note=62 velocity=80 time=48 actual_time=61800
type=note_on channel=3 note=62 velocity=0 time=192 actual_time=61992
type=note_on channel=3 note=61 velocity=80 time=48 actual_time=62040
type=note_on channel=3 note=61 velocity=0 time=192 actual_time=62232
type=note_on channel=3 note=62 velocity=80 time=48 actual_time=62280
type=note_on channel=3 note=62 velocity=0 time=216 actual_time=62496
type=note_on channel=3 note=64 velocity=80 time=24 actual_time=62520
type=note_on channel=3 note=64 velocity=0 time=192 actual_time=62712
type=note_on channel=3 note=69 velocity=80 time=48 actual_time=62760
type=note_on channel=3 note=69 velocity=0 time=192 actual_time=62952
type=note_on channel=3 note=62 velocity=80 time=48 actual_time=63000
type=note_on channel=3 note=62 velocity=0 time=96 actual_time=63096
type=note_on channel=3 note=62 velocity=80 time=24 actual_time=63120
type=note_on channel=3 note=62 velocity=0 time=96 actual_time=63216
type=note_on channel=3 note=57 velocity=80 time=24 actual_time=63240
type=note_on channel=3 note=57 velocity=0 time=96 actual_time=63336
type=note_on channel=3 note=59 velocity=80 time=24 actual_time=63360
type=note_on channel=3 note=59 velocity=0 time=96 actual_time=63456
type=note_on channel=3 note=62 velocity=80 time=24 actual_time=63480
type=note_on channel=3 note=62 velocity=0 time=96 actual_time=63576
type=note_on channel=3 note=59 velocity=80 time=24 actual_time=63600
type=note_on channel=3 note=59 velocity=0 time=96 actual_time=63696
type=note_on channel=3 note=62 velocity=80 time=24 actual_time=63720
type=note_on channel=3 note=62 velocity=0 time=192 actual_time=63912
type=note_on channel=3 note=61 velocity=80 time=48 actual_time=63960
type=note_on channel=3 note=61 velocity=0 time=96 actual_time=64056
type=note_on channel=3 note=64 velocity=80 time=24 actual_time=64080
type=note_on channel=3 note=64 velocity=0 time=96 actual_time=64176
type=note_on channel=3 note=69 velocity=80 time=24 actual_time=64200
type=note_on channel=3 note=69 velocity=0 time=216 actual_time=64416
type=note_on channel=3 note=64 velocity=80 time=24 actual_time=64440
type=note_on channel=3 note=64 velocity=0 time=96 actual_time=64536
type=note_on channel=3 note=69 velocity=80 time=24 actual_time=64560
type=note_on channel=3 note=69 velocity=0 time=96 actual_time=64656
type=note_on channel=3 note=57 velocity=80 time=24 actual_time=64680
type=note_on channel=3 note=57 velocity=0 time=192 actual_time=64872
type=note_on channel=3 note=59 velocity=80 time=48 actual_time=64920
type=note_on channel=3 note=59 velocity=0 time=96 actual_time=65016
type=note_on channel=3 note=64 velocity=80 time=24 actual_time=65040
type=note_on channel=3 note=64 velocity=0 time=96 actual_time=65136
type=note_on channel=3 note=57 velocity=80 time=24 actual_time=65160
type=note_on channel=3 note=57 velocity=0 time=96 actual_time=65256
type=note_on channel=3 note=59 velocity=80 time=24 actual_time=65280
type=note_on channel=3 note=59 velocity=0 time=96 actual_time=65376
type=note_on channel=3 note=66 velocity=80 time=24 actual_time=65400
type=note_on channel=3 note=66 velocity=0 time=192 actual_time=65592
type=note_on channel=3 note=61 velocity=80 time=48 actual_time=65640
type=note_on channel=3 note=61 velocity=0 time=192 actual_time=65832
type=note_on channel=3 note=59 velocity=80 time=48 actual_time=65880
type=note_on channel=3 note=59 velocity=0 time=192 actual_time=66072
type=note_on channel=3 note=64 velocity=80 time=48 actual_time=66120
type=note_on channel=3 note=64 velocity=0 time=216 actual_time=66336
type=note_on channel=3 note=64 velocity=80 time=24 actual_time=66360
type=note_on channel=3 note=64 velocity=0 time=96 actual_time=66456
type=note_on channel=3 note=69 velocity=80 time=24 actual_time=66480
type=note_on channel=3 note=69 velocity=0 time=96 actual_time=66576
type=note_on channel=3 note=64 velocity=80 time=24 actual_time=66600
type=note_on channel=3 note=64 velocity=0 time=192 actual_time=66792
type=note_on channel=3 note=62 velocity=80 time=48 actual_time=66840
type=note_on channel=3 note=62 velocity=0 time=96 actual_time=66936
type=note_on channel=3 note=67 velocity=80 time=24 actual_time=66960
type=note_on channel=3 note=67 velocity=0 time=96 actual_time=67056
type=note_on channel=3 note=59 velocity=80 time=24 actual_time=67080
type=note_on channel=3 note=59 velocity=0 time=216 actual_time=67296
type=note_on channel=3 note=62 velocity=80 time=24 actual_time=67320
type=note_on channel=3 note=62 velocity=0 time=96 actual_time=67416
type=note_on channel=3 note=59 velocity=80 time=24 actual_time=67440
type=note_on channel=3 note=59 velocity=0 time=96 actual_time=67536
type=note_on channel=3 note=62 velocity=80 time=24 actual_time=67560
type=note_on channel=3 note=62 velocity=0 time=192 actual_time=67752
type=note_on channel=3 note=61 velocity=80 time=48 actual_time=67800
type=note_on channel=3 note=61 velocity=0 time=96 actual_time=67896
type=note_on channel=3 note=69 velocity=80 time=24 actual_time=67920
type=note_on channel=3 note=69 velocity=0 time=96 actual_time=68016
type=note_on channel=3 note=66 velocity=80 time=24 actual_time=68040
type=note_on channel=3 note=66 velocity=0 time=216 actual_time=68256
type=note_on channel=3 note=66 velocity=80 time=24 actual_time=68280
type=note_on channel=3 note=66 velocity=0 time=96 actual_time=68376
type=note_on channel=3 note=69 velocity=80 time=24 actual_time=68400
type=note_on channel=3 note=69 velocity=0 time=96 actual_time=68496
type=note_on channel=3 note=64 velocity=80 time=24 actual_time=68520
type=note_on channel=3 note=64 velocity=0 time=192 actual_time=68712
type=note_on channel=3 note=62 velocity=80 time=48 actual_time=68760
type=note_on channel=3 note=62 velocity=0 time=96 actual_time=68856
type=note_on channel=3 note=67 velocity=80 time=24 actual_time=68880
type=note_on channel=3 note=67 velocity=0 time=96 actual_time=68976
type=note_on channel=3 note=59 velocity=80 time=24 actual_time=69000
type=note_on channel=3 note=59 velocity=0 time=216 actual_time=69216
type=note_on channel=3 note=66 velocity=80 time=24 actual_time=69240
type=note_on channel=3 note=66 velocity=0 time=192 actual_time=69432
type=note_on channel=3 note=61 velocity=80 time=48 actual_time=69480
type=note_on channel=3 note=61 velocity=0 time=192 actual_time=69672
type=note_on channel=3 note=59 velocity=80 time=48 actual_time=69720
type=note_on channel=3 note=59 velocity=0 time=192 actual_time=69912
type=note_on channel=3 note=64 velocity=80 time=48 actual_time=69960
type=note_on channel=3 note=64 velocity=0 time=216 actual_time=70176
type=note_on channel=3 note=64 velocity=80 time=24 actual_time=70200
type=note_on channel=3 note=64 velocity=0 time=96 actual_time=70296
type=note_on channel=3 note=69 velocity=80 time=24 actual_time=70320
type=note_on channel=3 note=69 velocity=0 time=96 actual_time=70416
type=note_on channel=3 note=64 velocity=80 time=24 actual_time=70440
type=note_on channel=3 note=64 velocity=0 time=192 actual_time=70632
type=note_on channel=3 note=62 velocity=80 time=48 actual_time=70680
type=note_on channel=3 note=62 velocity=0 time=96 actual_time=70776
type=note_on channel=3 note=67 velocity=80 time=24 actual_time=70800
type=note_on channel=3 note=67 velocity=0 time=96 actual_time=70896
type=note_on channel=3 note=59 velocity=80 time=24 actual_time=70920
type=note_on channel=3 note=59 velocity=0 time=216 actual_time=71136
type=note_on channel=3 note=62 velocity=80 time=24 actual_time=71160
type=note_on channel=3 note=62 velocity=0 time=96 actual_time=71256
type=note_on channel=3 note=59 velocity=80 time=24 actual_time=71280
type=note_on channel=3 note=59 velocity=0 time=96 actual_time=71376
type=note_on channel=3 note=62 velocity=80 time=24 actual_time=71400
type=note_on channel=3 note=62 velocity=0 time=192 actual_time=71592
type=note_on channel=3 note=61 velocity=80 time=48 actual_time=71640
type=note_on channel=3 note=61 velocity=0 time=96 actual_time=71736
type=note_on channel=3 note=69 velocity=80 time=24 actual_time=71760
type=note_on channel=3 note=69 velocity=0 time=96 actual_time=71856
type=note_on channel=3 note=66 velocity=80 time=24 actual_time=71880
type=note_on channel=3 note=66 velocity=0 time=216 actual_time=72096
type=note_on channel=3 note=66 velocity=80 time=24 actual_time=72120
type=note_on channel=3 note=66 velocity=0 time=96 actual_time=72216
type=note_on channel=3 note=69 velocity=80 time=24 actual_time=72240
type=note_on channel=3 note=69 velocity=0 time=96 actual_time=72336
type=note_on channel=3 note=64 velocity=80 time=24 actual_time=72360
type=note_on channel=3 note=64 velocity=0 time=192 actual_time=72552
type=note_on channel=3 note=62 velocity=80 time=48 actual_time=72600
type=note_on channel=3 note=62 velocity=0 time=96 actual_time=72696
type=note_on channel=3 note=67 velocity=80 time=24 actual_time=72720
type=note_on channel=3 note=67 velocity=0 time=96 actual_time=72816
type=note_on channel=3 note=59 velocity=80 time=24 actual_time=72840
type=note_on channel=3 note=59 velocity=0 time=96 actual_time=72936
type=note_on channel=3 note=47 velocity=60 time=15864 actual_time=88800
type=note_on channel=3 note=47 velocity=0 time=96 actual_time=88896
type=note_on channel=3 note=50 velocity=60 time=24 actual_time=88920
type=note_on channel=3 note=50 velocity=0 time=96 actual_time=89016
type=note_on channel=3 note=57 velocity=60 time=24 actual_time=89040
type=note_on channel=3 note=57 velocity=0 time=96 actual_time=89136
type=note_on channel=3 note=50 velocity=60 time=24 actual_time=89160
type=note_on channel=3 note=50 velocity=0 time=216 actual_time=89376
type=note_on channel=3 note=52 velocity=60 time=24 actual_time=89400
type=note_on channel=3 note=52 velocity=0 time=96 actual_time=89496
type=note_on channel=3 note=50 velocity=60 time=24 actual_time=89520
type=note_on channel=3 note=50 velocity=0 time=96 actual_time=89616
type=note_on channel=3 note=57 velocity=60 time=24 actual_time=89640
type=note_on channel=3 note=57 velocity=0 time=576 actual_time=90216
MetaMessage type: end_of_track, time: 0, actual_time: 90216
MetaMessage type: track_name, time: 0, actual_time: 0
type: program_change, time: 0, actual_time: 0
type=control_change channel=4 control=7 value=109 time=0 actual_time=0
type=note_on channel=4 note=59 velocity=80 time=15360 actual_time=15360
type=note_on channel=4 note=54 velocity=80 time=0 actual_time=15360
type=note_on channel=4 note=47 velocity=80 time=0 actual_time=15360
type=note_on channel=4 note=47 velocity=0 time=3648 actual_time=19008
type=note_on channel=4 note=54 velocity=0 time=0 actual_time=19008
type=note_on channel=4 note=59 velocity=0 time=0 actual_time=19008
type=note_on channel=4 note=47 velocity=80 time=7392 actual_time=26400
type=note_on channel=4 note=47 velocity=0 time=32 actual_time=26432
type=note_on channel=4 note=47 velocity=80 time=8 actual_time=26440
type=note_on channel=4 note=47 velocity=0 time=32 actual_time=26472
type=note_on channel=4 note=47 velocity=80 time=8 actual_time=26480
type=note_on channel=4 note=47 velocity=0 time=32 actual_time=26512
type=note_on channel=4 note=49 velocity=80 time=8 actual_time=26520
type=note_on channel=4 note=49 velocity=0 time=32 actual_time=26552
type=note_on channel=4 note=49 velocity=80 time=8 actual_time=26560
type=note_on channel=4 note=49 velocity=0 time=32 actual_time=26592
type=note_on channel=4 note=49 velocity=80 time=8 actual_time=26600
type=note_on channel=4 note=49 velocity=0 time=32 actual_time=26632
type=note_on channel=4 note=52 velocity=80 time=8 actual_time=26640
type=note_on channel=4 note=52 velocity=0 time=32 actual_time=26672
type=note_on channel=4 note=52 velocity=80 time=8 actual_time=26680
type=note_on channel=4 note=52 velocity=0 time=32 actual_time=26712
type=note_on channel=4 note=52 velocity=80 time=8 actual_time=26720
type=note_on channel=4 note=52 velocity=0 time=32 actual_time=26752
type=note_on channel=4 note=45 velocity=80 time=8 actual_time=26760
type=note_on channel=4 note=45 velocity=0 time=32 actual_time=26792
type=note_on channel=4 note=45 velocity=80 time=8 actual_time=26800
type=note_on channel=4 note=45 velocity=0 time=32 actual_time=26832
type=note_on channel=4 note=45 velocity=80 time=8 actual_time=26840
type=note_on channel=4 note=45 velocity=0 time=32 actual_time=26872
type=note_on channel=4 note=47 velocity=80 time=8 actual_time=26880
type=note_on channel=4 note=59 velocity=80 time=0 actual_time=26880
type=note_on channel=4 note=54 velocity=80 time=0 actual_time=26880
type=note_on channel=4 note=54 velocity=0 time=96 actual_time=26976
type=note_on channel=4 note=59 velocity=0 time=0 actual_time=26976
type=note_on channel=4 note=47 velocity=0 time=0 actual_time=26976
type=note_on channel=4 note=47 velocity=80 time=24 actual_time=27000
type=note_on channel=4 note=54 velocity=80 time=0 actual_time=27000
type=note_on channel=4 note=54 velocity=0 time=48 actual_time=27048
type=note_on channel=4 note=47 velocity=0 time=0 actual_time=27048
type=note_on channel=4 note=47 velocity=80 time=12 actual_time=27060
type=note_on channel=4 note=54 velocity=80 time=0 actual_time=27060
type=note_on channel=4 note=54 velocity=0 time=48 actual_time=27108
type=note_on channel=4 note=47 velocity=0 time=0 actual_time=27108
type=note_on channel=4 note=54 velocity=80 time=12 actual_time=27120
type=note_on channel=4 note=59 velocity=80 time=0 actual_time=27120
type=note_on channel=4 note=47 velocity=80 time=0 actual_time=27120
type=note_on channel=4 note=47 velocity=0 time=96 actual_time=27216
type=note_on channel=4 note=59 velocity=0 time=0 actual_time=27216
type=note_on channel=4 note=54 velocity=0 time=0 actual_time=27216
type=note_on channel=4 note=54 velocity=80 time=24 actual_time=27240
type=note_on channel=4 note=47 velocity=80 time=0 actual_time=27240
type=note_on channel=4 note=47 velocity=0 time=48 actual_time=27288
type=note_on channel=4 note=54 velocity=0 time=0 actual_time=27288
type=note_on channel=4 note=47 velocity=80 time=12 actual_time=27300
type=note_on channel=4 note=54 velocity=80 time=0 actual_time=27300
type=note_on channel=4 note=54 velocity=0 time=48 actual_time=27348
type=note_on channel=4 note=47 velocity=0 time=0 actual_time=27348
type=note_on channel=4 note=47 velocity=80 time=12 actual_time=27360
type=note_on channel=4 note=59 velocity=80 time=0 actual_time=27360
type=note_on channel=4 note=54 velocity=80 time=0 actual_time=27360
type=note_on channel=4 note=54 velocity=0 time=96 actual_time=27456
type=note_on channel=4 note=59 velocity=0 time=0 actual_time=27456
type=note_on channel=4 note=47 velocity=0 time=0 actual_time=27456
type=note_on channel=4 note=47 velocity=80 time=24 actual_time=27480
type=note_on channel=4 note=54 velocity=80 time=0 actual_time=27480
type=note_on channel=4 note=54 velocity=0 time=48 actual_time=27528
type=note_on channel=4 note=47 velocity=0 time=0 actual_time=27528
type=note_on channel=4 note=47 velocity=80 time=12 actual_time=27540
type=note_on channel=4 note=54 velocity=80 time=0 actual_time=27540
type=note_on channel=4 note=54 velocity=0 time=48 actual_time=27588
type=note_on channel=4 note=47 velocity=0 time=0 actual_time=27588
type=note_on channel=4 note=47 velocity=80 time=12 actual_time=27600
type=note_on channel=4 note=59 velocity=80 time=0 actual_time=27600
type=note_on channel=4 note=54 velocity=80 time=0 actual_time=27600
type=note_on channel=4 note=54 velocity=0 time=96 actual_time=27696
type=note_on channel=4 note=59 velocity=0 time=0 actual_time=27696
type=note_on channel=4 note=47 velocity=0 time=0 actual_time=27696
type=note_on channel=4 note=47 velocity=80 time=24 actual_time=27720
type=note_on channel=4 note=54 velocity=80 time=0 actual_time=27720
type=note_on channel=4 note=54 velocity=0 time=48 actual_time=27768
type=note_on channel=4 note=47 velocity=0 time=0 actual_time=27768
type=note_on channel=4 note=54 velocity=80 time=12 actual_time=27780
type=note_on channel=4 note=47 velocity=80 time=0 actual_time=27780
type=note_on channel=4 note=47 velocity=0 time=48 actual_time=27828
type=note_on channel=4 note=54 velocity=0 time=0 actual_time=27828
type=note_on channel=4 note=50 velocity=80 time=12 actual_time=27840
type=note_on channel=4 note=55 velocity=80 time=0 actual_time=27840
type=note_on channel=4 note=43 velocity=80 time=0 actual_time=27840
type=note_on channel=4 note=43 velocity=0 time=96 actual_time=27936
type=note_on channel=4 note=55 velocity=0 time=0 actual_time=27936
type=note_on channel=4 note=50 velocity=0 time=0 actual_time=27936
type=note_on channel=4 note=50 velocity=80 time=24 actual_time=27960
type=note_on channel=4 note=43 velocity=80 time=0 actual_time=27960
type=note_on channel=4 note=43 velocity=0 time=48 actual_time=28008
type=note_on channel=4 note=50 velocity=0 time=0 actual_time=28008
type=note_on channel=4 note=50 velocity=80 time=12 actual_time=28020
type=note_on channel=4 note=43 velocity=80 time=0 actual_time=28020
type=note_on channel=4 note=43 velocity=0 time=48 actual_time=28068
type=note_on channel=4 note=50 velocity=0 time=0 actual_time=28068
type=note_on channel=4 note=55 velocity=80 time=12 actual_time=28080
type=note_on channel=4 note=43 velocity=80 time=0 actual_time=28080
type=note_on channel=4 note=50 velocity=80 time=0 actual_time=28080
type=note_on channel=4 note=50 velocity=0 time=96 actual_time=28176
type=note_on channel=4 note=43 velocity=0 time=0 actual_time=28176
type=note_on channel=4 note=55 velocity=0 time=0 actual_time=28176
type=note_on channel=4 note=43 velocity=80 time=24 actual_time=28200
type=note_on channel=4 note=50 velocity=80 time=0 actual_time=28200
type=note_on channel=4 note=50 velocity=0 time=48 actual_time=28248
type=note_on channel=4 note=43 velocity=0 time=0 actual_time=28248
type=note_on channel=4 note=43 velocity=80 time=12 actual_time=28260
type=note_on channel=4 note=50 velocity=80 time=0 actual_time=28260
type=note_on channel=4 note=50 velocity=0 time=48 actual_time=28308
type=note_on channel=4 note=43 velocity=0 time=0 actual_time=28308
type=note_on channel=4 note=52 velocity=80 time=12 actual_time=28320
type=note_on channel=4 note=45 velocity=80 time=0 actual_time=28320
type=note_on channel=4 note=57 velocity=80 time=0 actual_time=28320
type=note_on channel=4 note=57 velocity=0 time=96 actual_time=28416
type=note_on channel=4 note=45 velocity=0 time=0 actual_time=28416
type=note_on channel=4 note=52 velocity=0 time=0 actual_time=28416
type=note_on channel=4 note=45 velocity=80 time=24 actual_time=28440
type=note_on channel=4 note=52 velocity=80 time=0 actual_time=28440
type=note_on channel=4 note=52 velocity=0 time=48 actual_time=28488
type=note_on channel=4 note=45 velocity=0 time=0 actual_time=28488
type=note_on channel=4 note=45 velocity=80 time=12 actual_time=28500
type=note_on channel=4 note=52 velocity=80 time=0 actual_time=28500
type=note_on channel=4 note=52 velocity=0 time=48 actual_time=28548
type=note_on channel=4 note=45 velocity=0 time=0 actual_time=28548
type=note_on channel=4 note=45 velocity=80 time=12 actual_time=28560
type=note_on channel=4 note=57 velocity=80 time=0 actual_time=28560
type=note_on channel=4 note=52 velocity=80 time=0 actual_time=28560
type=note_on channel=4 note=52 velocity=0 time=96 actual_time=28656
type=note_on channel=4 note=57 velocity=0 time=0 actual_time=28656
type=note_on channel=4 note=45 velocity=0 time=0 actual_time=28656
type=note_on channel=4 note=45 velocity=80 time=24 actual_time=28680
type=note_on channel=4 note=52 velocity=80 time=0 actual_time=28680
type=note_on channel=4 note=52 velocity=0 time=48 actual_time=28728
type=note_on channel=4 note=45 velocity=0 time=0 actual_time=28728
type=note_on channel=4 note=52 velocity=80 time=12 actual_time=28740
type=note_on channel=4 note=45 velocity=80 time=0 actual_time=28740
type=note_on channel=4 note=45 velocity=0 time=48 actual_time=28788
type=note_on channel=4 note=52 velocity=0 time=0 actual_time=28788
type=note_on channel=4 note=54 velocity=80 time=12 actual_time=28800
type=note_on channel=4 note=59 velocity=80 time=0 actual_time=28800
type=note_on channel=4 note=47 velocity=80 time=0 actual_time=28800
type=note_on channel=4 note=47 velocity=0 time=96 actual_time=28896
type=note_on channel=4 note=59 velocity=0 time=0 actual_time=28896
type=note_on channel=4 note=54 velocity=0 time=0 actual_time=28896
type=note_on channel=4 note=59 velocity=80 time=24 actual_time=28920
type=note_on channel=4 note=54 velocity=80 time=0 actual_time=28920
type=note_on channel=4 note=47 velocity=80 time=0 actual_time=28920
type=note_on channel=4 note=47 velocity=0 time=48 actual_time=28968
type=note_on channel=4 note=54 velocity=0 time=0 actual_time=28968
type=note_on channel=4 note=59 velocity=0 time=0 actual_time=28968
type=note_on channel=4 note=54 velocity=80 time=12 actual_time=28980
type=note_on channel=4 note=59 velocity=80 time=0 actual_time=28980
type=note_on channel=4 note=47 velocity=80 time=0 actual_time=28980
type=note_on channel=4 note=47 velocity=0 time=48 actual_time=29028
type=note_on channel=4 note=59 velocity=0 time=0 actual_time=29028
type=note_on channel=4 note=54 velocity=0 time=0 actual_time=29028
type=note_on channel=4 note=47 velocity=80 time=12 actual_time=29040
type=note_on channel=4 note=59 velocity=80 time=0 actual_time=29040
type=note_on channel=4 note=54 velocity=80 time=0 actual_time=29040
type=note_on channel=4 note=54 velocity=0 time=96 actual_time=29136
type=note_on channel=4 note=59 velocity=0 time=0 actual_time=29136
type=note_on channel=4 note=47 velocity=0 time=0 actual_time=29136
type=note_on channel=4 note=47 velocity=80 time=24 actual_time=29160
type=note_on channel=4 note=54 velocity=80 time=0 actual_time=29160
type=note_on channel=4 note=59 velocity=80 time=0 actual_time=29160
type=note_on channel=4 note=59 velocity=0 time=48 actual_time=29208
type=note_on channel=4 note=54 velocity=0 time=0 actual_time=29208
type=note_on channel=4 note=47 velocity=0 time=0 actual_time=29208
type=note_on channel=4 note=47 velocity=80 time=12 actual_time=29220
type=note_on channel=4 note=59 velocity=80 time=0 actual_time=29220
type=note_on channel=4 note=54 velocity=80 time=0 actual_time=29220
type=note_on channel=4 note=54 velocity=0 time=48 actual_time=29268
type=note_on channel=4 note=59 velocity=0 time=0 actual_time=29268
type=note_on channel=4 note=47 velocity=0 time=0 actual_time=29268
type=note_on channel=4 note=47 velocity=80 time=12 actual_time=29280
type=note_on channel=4 note=59 velocity=80 time=0 actual_time=29280
type=note_on channel=4 note=54 velocity=80 time=0 actual_time=29280
type=note_on channel=4 note=54 velocity=0 time=96 actual_time=29376
type=note_on channel=4 note=59 velocity=0 time=0 actual_time=29376
type=note_on channel=4 note=47 velocity=0 time=0 actual_time=29376
type=note_on channel=4 note=47 velocity=80 time=24 actual_time=29400
type=note_on channel=4 note=54 velocity=80 time=0 actual_time=29400
type=note_on channel=4 note=59 velocity=80 time=0 actual_time=29400
type=note_on channel=4 note=59 velocity=0 time=48 actual_time=29448
type=note_on channel=4 note=54 velocity=0 time=0 actual_time=29448
type=note_on channel=4 note=47 velocity=0 time=0 actual_time=29448
type=note_on channel=4 note=47 velocity=80 time=12 actual_time=29460
type=note_on channel=4 note=59 velocity=80 time=0 actual_time=29460
type=note_on channel=4 note=54 velocity=80 time=0 actual_time=29460
type=note_on channel=4 note=54 velocity=0 time=48 actual_time=29508
type=note_on channel=4 note=59 velocity=0 time=0 actual_time=29508
type=note_on channel=4 note=47 velocity=0 time=0 actual_time=29508
type=note_on channel=4 note=47 velocity=80 time=12 actual_time=29520
type=note_on channel=4 note=59 velocity=80 time=0 actual_time=29520
type=note_on channel=4 note=54 velocity=80 time=0 actual_time=29520
type=note_on channel=4 note=54 velocity=0 time=96 actual_time=29616
type=note_on channel=4 note=59 velocity=0 time=0 actual_time=29616
type=note_on channel=4 note=47 velocity=0 time=0 actual_time=29616
type=note_on channel=4 note=47 velocity=80 time=24 actual_time=29640
type=note_on channel=4 note=54 velocity=80 time=0 actual_time=29640
type=note_on channel=4 note=59 velocity=80 time=0 actual_time=29640
type=note_on channel=4 note=59 velocity=0 time=48 actual_time=29688
type=note_on channel=4 note=54 velocity=0 time=0 actual_time=29688
type=note_on channel=4 note=47 velocity=0 time=0 actual_time=29688
type=note_on channel=4 note=47 velocity=80 time=12 actual_time=29700
type=note_on channel=4 note=59 velocity=80 time=0 actual_time=29700
type=note_on channel=4 note=54 velocity=80 time=0 actual_time=29700
type=note_on channel=4 note=54 velocity=0 time=48 actual_time=29748
type=note_on channel=4 note=59 velocity=0 time=0 actual_time=29748
type=note_on channel=4 note=47 velocity=0 time=0 actual_time=29748
type=note_on channel=4 note=40 velocity=80 time=12 actual_time=29760
type=note_on channel=4 note=52 velocity=80 time=0 actual_time=29760
type=note_on channel=4 note=47 velocity=80 time=0 actual_time=29760
type=note_on channel=4 note=47 velocity=0 time=96 actual_time=29856
type=note_on channel=4 note=52 velocity=0 time=0 actual_time=29856
type=note_on channel=4 note=40 velocity=0 time=0 actual_time=29856
type=note_on channel=4 note=40 velocity=80 time=24 actual_time=29880
type=note_on channel=4 note=47 velocity=80 time=0 actual_time=29880
type=note_on channel=4 note=52 velocity=80 time=0 actual_time=29880
type=note_on channel=4 note=52 velocity=0 time=48 actual_time=29928
type=note_on channel=4 note=47 velocity=0 time=0 actual_time=29928
type=note_on channel=4 note=40 velocity=0 time=0 actual_time=29928
type=note_on channel=4 note=40 velocity=80 time=12 actual_time=29940
type=note_on channel=4 note=52 velocity=80 time=0 actual_time=29940
type=note_on channel=4 note=47 velocity=80 time=0 actual_time=29940
type=note_on channel=4 note=47 velocity=0 time=48 actual_time=29988
type=note_on channel=4 note=52 velocity=0 time=0 actual_time=29988
type=note_on channel=4 note=40 velocity=0 time=0 actual_time=29988
type=note_on channel=4 note=40 velocity=80 time=12 actual_time=30000
type=note_on channel=4 note=52 velocity=80 time=0 actual_time=30000
type=note_on channel=4 note=47 velocity=80 time=0 actual_time=30000
type=note_on channel=4 note=47 velocity=0 time=96 actual_time=30096
type=note_on channel=4 note=52 velocity=0 time=0 actual_time=30096
type=note_on channel=4 note=40 velocity=0 time=0 actual_time=30096
type=note_on channel=4 note=40 velocity=80 time=24 actual_time=30120
type=note_on channel=4 note=47 velocity=80 time=0 actual_time=30120
type=note_on channel=4 note=52 velocity=80 time=0 actual_time=30120
type=note_on channel=4 note=52 velocity=0 time=48 actual_time=30168
type=note_on channel=4 note=47 velocity=0 time=0 actual_time=30168
type=note_on channel=4 note=40 velocity=0 time=0 actual_time=30168
type=note_on channel=4 note=40 velocity=80 time=12 actual_time=30180
type=note_on channel=4 note=52 velocity=80 time=0 actual_time=30180
type=note_on channel=4 note=47 velocity=80 time=0 actual_time=30180
type=note_on channel=4 note=47 velocity=0 time=48 actual_time=30228
type=note_on channel=4 note=52 velocity=0 time=0 actual_time=30228
type=note_on channel=4 note=40 velocity=0 time=0 actual_time=30228
type=note_on channel=4 note=42 velocity=80 time=12 actual_time=30240
type=note_on channel=4 note=54 velocity=80 time=0 actual_time=30240
type=note_on channel=4 note=49 velocity=80 time=0 actual_time=30240
type=note_on channel=4 note=49 velocity=0 time=96 actual_time=30336
type=note_on channel=4 note=54 velocity=0 time=0 actual_time=30336
type=note_on channel=4 note=42 velocity=0 time=0 actual_time=30336
type=note_on channel=4 note=42 velocity=80 time=24 actual_time=30360
type=note_on channel=4 note=49 velocity=80 time=0 actual_time=30360
type=note_on channel=4 note=54 velocity=80 time=0 actual_time=30360
type=note_on channel=4 note=54 velocity=0 time=48 actual_time=30408
type=note_on channel=4 note=49 velocity=0 time=0 actual_time=30408
type=note_on channel=4 note=42 velocity=0 time=0 actual_time=30408
type=note_on channel=4 note=42 velocity=80 time=12 actual_time=30420
type=note_on channel=4 note=54 velocity=80 time=0 actual_time=30420
type=note_on channel=4 note=49 velocity=80 time=0 actual_time=30420
type=note_on channel=4 note=49 velocity=0 time=48 actual_time=30468
type=note_on channel=4 note=54 velocity=0 time=0 actual_time=30468
type=note_on channel=4 note=42 velocity=0 time=0 actual_time=30468
type=note_on channel=4 note=42 velocity=80 time=12 actual_time=30480
type=note_on channel=4 note=54 velocity=80 time=0 actual_time=30480
type=note_on channel=4 note=49 velocity=80 time=0 actual_time=30480
type=note_on channel=4 note=49 velocity=0 time=96 actual_time=30576
type=note_on channel=4 note=54 velocity=0 time=0 actual_time=30576
type=note_on channel=4 note=42 velocity=0 time=0 actual_time=30576
type=note_on channel=4 note=42 velocity=80 time=24 actual_time=30600
type=note_on channel=4 note=49 velocity=80 time=0 actual_time=30600
type=note_on channel=4 note=54 velocity=80 time=0 actual_time=30600
type=note_on channel=4 note=54 velocity=0 time=48 actual_time=30648
type=note_on channel=4 note=49 velocity=0 time=0 actual_time=30648
type=note_on channel=4 note=42 velocity=0 time=0 actual_time=30648
type=note_on channel=4 note=42 velocity=80 time=12 actual_time=30660
type=note_on channel=4 note=54 velocity=80 time=0 actual_time=30660
type=note_on channel=4 note=49 velocity=80 time=0 actual_time=30660
type=note_on channel=4 note=49 velocity=0 time=48 actual_time=30708
type=note_on channel=4 note=54 velocity=0 time=0 actual_time=30708
type=note_on channel=4 note=42 velocity=0 time=0 actual_time=30708
type=note_on channel=4 note=47 velocity=80 time=12 actual_time=30720
type=note_on channel=4 note=59 velocity=80 time=0 actual_time=30720
type=note_on channel=4 note=54 velocity=80 time=0 actual_time=30720
type=note_on channel=4 note=54 velocity=0 time=96 actual_time=30816
type=note_on channel=4 note=59 velocity=0 time=0 actual_time=30816
type=note_on channel=4 note=47 velocity=0 time=0 actual_time=30816
type=note_on channel=4 note=47 velocity=80 time=24 actual_time=30840
type=note_on channel=4 note=54 velocity=80 time=0 actual_time=30840
type=note_on channel=4 note=54 velocity=0 time=48 actual_time=30888
type=note_on channel=4 note=47 velocity=0 time=0 actual_time=30888
type=note_on channel=4 note=47 velocity=80 time=12 actual_time=30900
type=note_on channel=4 note=54 velocity=80 time=0 actual_time=30900
type=note_on channel=4 note=54 velocity=0 time=48 actual_time=30948
type=note_on channel=4 note=47 velocity=0 time=0 actual_time=30948
type=note_on channel=4 note=54 velocity=80 time=12 actual_time=30960
type=note_on channel=4 note=59 velocity=80 time=0 actual_time=30960
type=note_on channel=4 note=47 velocity=80 time=0 actual_time=30960
type=note_on channel=4 note=47 velocity=0 time=96 actual_time=31056
type=note_on channel=4 note=59 velocity=0 time=0 actual_time=31056
type=note_on channel=4 note=54 velocity=0 time=0 actual_time=31056
type=note_on channel=4 note=54 velocity=80 time=24 actual_time=31080
type=note_on channel=4 note=47 velocity=80 time=0 actual_time=31080
type=note_on channel=4 note=47 velocity=0 time=48 actual_time=31128
type=note_on channel=4 note=54 velocity=0 time=0 actual_time=31128
type=note_on channel=4 note=54 velocity=80 time=12 actual_time=31140
type=note_on channel=4 note=47 velocity=80 time=0 actual_time=31140
type=note_on channel=4 note=47 velocity=0 time=48 actual_time=31188
type=note_on channel=4 note=54 velocity=0 time=0 actual_time=31188
type=note_on channel=4 note=54 velocity=80 time=12 actual_time=31200
type=note_on channel=4 note=59 velocity=80 time=0 actual_time=31200
type=note_on channel=4 note=47 velocity=80 time=0 actual_time=31200
type=note_on channel=4 note=47 velocity=0 time=96 actual_time=31296
type=note_on channel=4 note=59 velocity=0 time=0 actual_time=31296
type=note_on channel=4 note=54 velocity=0 time=0 actual_time=31296
type=note_on channel=4 note=54 velocity=80 time=24 actual_time=31320
type=note_on channel=4 note=47 velocity=80 time=0 actual_time=31320
type=note_on channel=4 note=47 velocity=0 time=48 actual_time=31368
type=note_on channel=4 note=54 velocity=0 time=0 actual_time=31368
type=note_on channel=4 note=54 velocity=80 time=12 actual_time=31380
type=note_on channel=4 note=47 velocity=80 time=0 actual_time=31380
type=note_on channel=4 note=47 velocity=0 time=48 actual_time=31428
type=note_on channel=4 note=54 velocity=0 time=0 actual_time=31428
type=note_on channel=4 note=54 velocity=80 time=12 actual_time=31440
type=note_on channel=4 note=59 velocity=80 time=0 actual_time=31440
type=note_on channel=4 note=47 velocity=80 time=0 actual_time=31440
type=note_on channel=4 note=47 velocity=0 time=96 actual_time=31536
type=note_on channel=4 note=59 velocity=0 time=0 actual_time=31536
type=note_on channel=4 note=54 velocity=0 time=0 actual_time=31536
type=note_on channel=4 note=54 velocity=80 time=24 actual_time=31560
type=note_on channel=4 note=47 velocity=80 time=0 actual_time=31560
type=note_on channel=4 note=47 velocity=0 time=48 actual_time=31608
type=note_on channel=4 note=54 velocity=0 time=0 actual_time=31608
type=note_on channel=4 note=54 velocity=80 time=12 actual_time=31620
type=note_on channel=4 note=47 velocity=80 time=0 actual_time=31620
type=note_on channel=4 note=47 velocity=0 time=48 actual_time=31668
type=note_on channel=4 note=54 velocity=0 time=0 actual_time=31668
type=note_on channel=4 note=50 velocity=80 time=12 actual_time=31680
type=note_on channel=4 note=55 velocity=80 time=0 actual_time=31680
type=note_on channel=4 note=43 velocity=80 time=0 actual_time=31680
type=note_on channel=4 note=43 velocity=0 time=96 actual_time=31776
type=note_on channel=4 note=55 velocity=0 time=0 actual_time=31776
type=note_on channel=4 note=50 velocity=0 time=0 actual_time=31776
type=note_on channel=4 note=50 velocity=80 time=24 actual_time=31800
type=note_on channel=4 note=43 velocity=80 time=0 actual_time=31800
type=note_on channel=4 note=43 velocity=0 time=48 actual_time=31848
type=note_on channel=4 note=50 velocity=0 time=0 actual_time=31848
type=note_on channel=4 note=50 velocity=80 time=12 actual_time=31860
type=note_on channel=4 note=43 velocity=80 time=0 actual_time=31860
type=note_on channel=4 note=43 velocity=0 time=48 actual_time=31908
type=note_on channel=4 note=50 velocity=0 time=0 actual_time=31908
type=note_on channel=4 note=50 velocity=80 time=12 actual_time=31920
type=note_on channel=4 note=55 velocity=80 time=0 actual_time=31920
type=note_on channel=4 note=43 velocity=80 time=0 actual_time=31920
type=note_on channel=4 note=43 velocity=0 time=96 actual_time=32016
type=note_on channel=4 note=55 velocity=0 time=0 actual_time=32016
type=note_on channel=4 note=50 velocity=0 time=0 actual_time=32016
type=note_on channel=4 note=50 velocity=80 time=24 actual_time=32040
type=note_on channel=4 note=43 velocity=80 time=0 actual_time=32040
type=note_on channel=4 note=43 velocity=0 time=48 actual_time=32088
type=note_on channel=4 note=50 velocity=0 time=0 actual_time=32088
type=note_on channel=4 note=50 velocity=80 time=12 actual_time=32100
type=note_on channel=4 note=43 velocity=80 time=0 actual_time=32100
type=note_on channel=4 note=43 velocity=0 time=48 actual_time=32148
type=note_on channel=4 note=50 velocity=0 time=0 actual_time=32148
type=note_on channel=4 note=52 velocity=80 time=12 actual_time=32160
type=note_on channel=4 note=57 velocity=80 time=0 actual_time=32160
type=note_on channel=4 note=45 velocity=80 time=0 actual_time=32160
type=note_on channel=4 note=45 velocity=0 time=96 actual_time=32256
type=note_on channel=4 note=57 velocity=0 time=0 actual_time=32256
type=note_on channel=4 note=52 velocity=0 time=0 actual_time=32256
type=note_on channel=4 note=52 velocity=80 time=24 actual_time=32280
type=note_on channel=4 note=45 velocity=80 time=0 actual_time=32280
type=note_on channel=4 note=45 velocity=0 time=48 actual_time=32328
type=note_on channel=4 note=52 velocity=0 time=0 actual_time=32328
type=note_on channel=4 note=52 velocity=80 time=12 actual_time=32340
type=note_on channel=4 note=45 velocity=80 time=0 actual_time=32340
type=note_on channel=4 note=45 velocity=0 time=48 actual_time=32388
type=note_on channel=4 note=52 velocity=0 time=0 actual_time=32388
type=note_on channel=4 note=52 velocity=80 time=12 actual_time=32400
type=note_on channel=4 note=57 velocity=80 time=0 actual_time=32400
type=note_on channel=4 note=45 velocity=80 time=0 actual_time=32400
type=note_on channel=4 note=45 velocity=0 time=96 actual_time=32496
type=note_on channel=4 note=57 velocity=0 time=0 actual_time=32496
type=note_on channel=4 note=52 velocity=0 time=0 actual_time=32496
type=note_on channel=4 note=52 velocity=80 time=24 actual_time=32520
type=note_on channel=4 note=45 velocity=80 time=0 actual_time=32520
type=note_on channel=4 note=45 velocity=0 time=48 actual_time=32568
type=note_on channel=4 note=52 velocity=0 time=0 actual_time=32568
type=note_on channel=4 note=52 velocity=80 time=12 actual_time=32580
type=note_on channel=4 note=45 velocity=80 time=0 actual_time=32580
type=note_on channel=4 note=45 velocity=0 time=48 actual_time=32628
type=note_on channel=4 note=52 velocity=0 time=0 actual_time=32628
type=note_on channel=4 note=47 velocity=80 time=12 actual_time=32640
type=note_on channel=4 note=59 velocity=80 time=0 actual_time=32640
type=note_on channel=4 note=54 velocity=80 time=0 actual_time=32640
type=note_on channel=4 note=54 velocity=0 time=96 actual_time=32736
type=note_on channel=4 note=59 velocity=0 time=0 actual_time=32736
type=note_on channel=4 note=47 velocity=0 time=0 actual_time=32736
type=note_on channel=4 note=47 velocity=80 time=24 actual_time=32760
type=note_on channel=4 note=54 velocity=80 time=0 actual_time=32760
type=note_on channel=4 note=54 velocity=0 time=48 actual_time=32808
type=note_on channel=4 note=47 velocity=0 time=0 actual_time=32808
type=note_on channel=4 note=47 velocity=80 time=12 actual_time=32820
type=note_on channel=4 note=54 velocity=80 time=0 actual_time=32820
type=note_on channel=4 note=54 velocity=0 time=48 actual_time=32868
type=note_on channel=4 note=47 velocity=0 time=0 actual_time=32868
type=note_on channel=4 note=54 velocity=80 time=12 actual_time=32880
type=note_on channel=4 note=59 velocity=80 time=0 actual_time=32880
type=note_on channel=4 note=47 velocity=80 time=0 actual_time=32880
type=note_on channel=4 note=47 velocity=0 time=96 actual_time=32976
type=note_on channel=4 note=59 velocity=0 time=0 actual_time=32976
type=note_on channel=4 note=54 velocity=0 time=0 actual_time=32976
type=note_on channel=4 note=54 velocity=80 time=24 actual_time=33000
type=note_on channel=4 note=47 velocity=80 time=0 actual_time=33000
type=note_on channel=4 note=47 velocity=0 time=48 actual_time=33048
type=note_on channel=4 note=54 velocity=0 time=0 actual_time=33048
type=note_on channel=4 note=54 velocity=80 time=12 actual_time=33060
type=note_on channel=4 note=47 velocity=80 time=0 actual_time=33060
type=note_on channel=4 note=47 velocity=0 time=48 actual_time=33108
type=note_on channel=4 note=54 velocity=0 time=0 actual_time=33108
type=note_on channel=4 note=54 velocity=80 time=12 actual_time=33120
type=note_on channel=4 note=59 velocity=80 time=0 actual_time=33120
type=note_on channel=4 note=47 velocity=80 time=0 actual_time=33120
type=note_on channel=4 note=47 velocity=0 time=96 actual_time=33216
type=note_on channel=4 note=59 velocity=0 time=0 actual_time=33216
type=note_on channel=4 note=54 velocity=0 time=0 actual_time=33216
type=note_on channel=4 note=54 velocity=80 time=24 actual_time=33240
type=note_on channel=4 note=47 velocity=80 time=0 actual_time=33240
type=note_on channel=4 note=47 velocity=0 time=48 actual_time=33288
type=note_on channel=4 note=54 velocity=0 time=0 actual_time=33288
type=note_on channel=4 note=54 velocity=80 time=12 actual_time=33300
type=note_on channel=4 note=47 velocity=80 time=0 actual_time=33300
type=note_on channel=4 note=47 velocity=0 time=48 actual_time=33348
type=note_on channel=4 note=54 velocity=0 time=0 actual_time=33348
type=note_on channel=4 note=54 velocity=80 time=12 actual_time=33360
type=note_on channel=4 note=59 velocity=80 time=0 actual_time=33360
type=note_on channel=4 note=47 velocity=80 time=0 actual_time=33360
type=note_on channel=4 note=47 velocity=0 time=96 actual_time=33456
type=note_on channel=4 note=59 velocity=0 time=0 actual_time=33456
type=note_on channel=4 note=54 velocity=0 time=0 actual_time=33456
type=note_on channel=4 note=54 velocity=80 time=24 actual_time=33480
type=note_on channel=4 note=47 velocity=80 time=0 actual_time=33480
type=note_on channel=4 note=47 velocity=0 time=48 actual_time=33528
type=note_on channel=4 note=54 velocity=0 time=0 actual_time=33528
type=note_on channel=4 note=54 velocity=80 time=12 actual_time=33540
type=note_on channel=4 note=47 velocity=80 time=0 actual_time=33540
type=note_on channel=4 note=47 velocity=0 time=48 actual_time=33588
type=note_on channel=4 note=54 velocity=0 time=0 actual_time=33588
type=note_on channel=4 note=40 velocity=80 time=12 actual_time=33600
type=note_on channel=4 note=52 velocity=80 time=0 actual_time=33600
type=note_on channel=4 note=47 velocity=80 time=0 actual_time=33600
type=note_on channel=4 note=47 velocity=0 time=96 actual_time=33696
type=note_on channel=4 note=52 velocity=0 time=0 actual_time=33696
type=note_on channel=4 note=40 velocity=0 time=0 actual_time=33696
type=note_on channel=4 note=40 velocity=80 time=24 actual_time=33720
type=note_on channel=4 note=52 velocity=80 time=0 actual_time=33720
type=note_on channel=4 note=47 velocity=80 time=0 actual_time=33720
type=note_on channel=4 note=47 velocity=0 time=96 actual_time=33816
type=note_on channel=4 note=52 velocity=0 time=0 actual_time=33816
type=note_on channel=4 note=40 velocity=0 time=0 actual_time=33816
type=note_on channel=4 note=40 velocity=80 time=24 actual_time=33840
type=note_on channel=4 note=52 velocity=80 time=0 actual_time=33840
type=note_on channel=4 note=47 velocity=80 time=0 actual_time=33840
type=note_on channel=4 note=47 velocity=0 time=96 actual_time=33936
type=note_on channel=4 note=52 velocity=0 time=0 actual_time=33936
type=note_on channel=4 note=40 velocity=0 time=0 actual_time=33936
type=note_on channel=4 note=52 velocity=80 time=24 actual_time=33960
type=note_on channel=4 note=47 velocity=80 time=0 actual_time=33960
type=note_on channel=4 note=40 velocity=80 time=0 actual_time=33960
type=note_on channel=4 note=40 velocity=0 time=96 actual_time=34056
type=note_on channel=4 note=47 velocity=0 time=0 actual_time=34056
type=note_on channel=4 note=52 velocity=0 time=0 actual_time=34056
type=note_on channel=4 note=54 velocity=80 time=24 actual_time=34080
type=note_on channel=4 note=49 velocity=80 time=0 actual_time=34080
type=note_on channel=4 note=42 velocity=80 time=0 actual_time=34080
type=note_on channel=4 note=42 velocity=0 time=96 actual_time=34176
type=note_on channel=4 note=49 velocity=0 time=0 actual_time=34176
type=note_on channel=4 note=54 velocity=0 time=0 actual_time=34176
type=note_on channel=4 note=49 velocity=80 time=24 actual_time=34200
type=note_on channel=4 note=42 velocity=80 time=0 actual_time=34200
type=note_on channel=4 note=54 velocity=80 time=0 actual_time=34200
type=note_on channel=4 note=54 velocity=0 time=96 actual_time=34296
type=note_on channel=4 note=42 velocity=0 time=0 actual_time=34296
type=note_on channel=4 note=49 velocity=0 time=0 actual_time=34296
type=note_on channel=4 note=42 velocity=80 time=24 actual_time=34320
type=note_on channel=4 note=54 velocity=80 time=0 actual_time=34320
type=note_on channel=4 note=49 velocity=80 time=0 actual_time=34320
type=note_on channel=4 note=49 velocity=0 time=96 actual_time=34416
type=note_on channel=4 note=54 velocity=0 time=0 actual_time=34416
type=note_on channel=4 note=42 velocity=0 time=0 actual_time=34416
type=note_on channel=4 note=42 velocity=80 time=24 actual_time=34440
type=note_on channel=4 note=49 velocity=80 time=0 actual_time=34440
type=note_on channel=4 note=54 velocity=80 time=0 actual_time=34440
type=note_on channel=4 note=54 velocity=0 time=96 actual_time=34536
type=note_on channel=4 note=49 velocity=0 time=0 actual_time=34536
type=note_on channel=4 note=42 velocity=0 time=0 actual_time=34536
type=note_on channel=4 note=47 velocity=80 time=24 actual_time=34560
type=note_on channel=4 note=54 velocity=80 time=0 actual_time=34560
type=note_on channel=4 note=59 velocity=80 time=0 actual_time=34560
type=note_on channel=4 note=59 velocity=0 time=3648 actual_time=38208
type=note_on channel=4 note=54 velocity=0 time=0 actual_time=38208
type=note_on channel=4 note=47 velocity=0 time=0 actual_time=38208
type=note_on channel=4 note=57 velocity=80 time=7632 actual_time=45840
type=note_on channel=4 note=52 velocity=80 time=0 actual_time=45840
type=note_on channel=4 note=45 velocity=80 time=0 actual_time=45840
type=note_on channel=4 note=45 velocity=0 time=32 actual_time=45872
type=note_on channel=4 note=52 velocity=0 time=0 actual_time=45872
type=note_on channel=4 note=57 velocity=0 time=0 actual_time=45872
type=note_on channel=4 note=57 velocity=80 time=8 actual_time=45880
type=note_on channel=4 note=45 velocity=80 time=0 actual_time=45880
type=note_on channel=4 note=52 velocity=80 time=0 actual_time=45880
type=note_on channel=4 note=52 velocity=0 time=32 actual_time=45912
type=note_on channel=4 note=45 velocity=0 time=0 actual_time=45912
type=note_on channel=4 note=57 velocity=0 time=0 actual_time=45912
type=note_on channel=4 note=57 velocity=80 time=8 actual_time=45920
type=note_on channel=4 note=45 velocity=80 time=0 actual_time=45920
type=note_on channel=4 note=52 velocity=80 time=0 actual_time=45920
type=note_on channel=4 note=52 velocity=0 time=32 actual_time=45952
type=note_on channel=4 note=45 velocity=0 time=0 actual_time=45952
type=note_on channel=4 note=57 velocity=0 time=0 actual_time=45952
type=note_on channel=4 note=57 velocity=80 time=8 actual_time=45960
type=note_on channel=4 note=45 velocity=80 time=0 actual_time=45960
type=note_on channel=4 note=52 velocity=80 time=0 actual_time=45960
type=note_on channel=4 note=52 velocity=0 time=32 actual_time=45992
type=note_on channel=4 note=45 velocity=0 time=0 actual_time=45992
type=note_on channel=4 note=57 velocity=0 time=0 actual_time=45992
type=note_on channel=4 note=57 velocity=80 time=8 actual_time=46000
type=note_on channel=4 note=45 velocity=80 time=0 actual_time=46000
type=note_on channel=4 note=52 velocity=80 time=0 actual_time=46000
type=note_on channel=4 note=52 velocity=0 time=32 actual_time=46032
type=note_on channel=4 note=45 velocity=0 time=0 actual_time=46032
type=note_on channel=4 note=57 velocity=0 time=0 actual_time=46032
type=note_on channel=4 note=57 velocity=80 time=8 actual_time=46040
type=note_on channel=4 note=45 velocity=80 time=0 actual_time=46040
type=note_on channel=4 note=52 velocity=80 time=0 actual_time=46040
type=note_on channel=4 note=52 velocity=0 time=32 actual_time=46072
type=note_on channel=4 note=45 velocity=0 time=0 actual_time=46072
type=note_on channel=4 note=57 velocity=0 time=0 actual_time=46072
type=note_on channel=4 note=54 velocity=80 time=8 actual_time=46080
type=note_on channel=4 note=59 velocity=80 time=0 actual_time=46080
type=note_on channel=4 note=47 velocity=80 time=0 actual_time=46080
type=note_on channel=4 note=47 velocity=0 time=96 actual_time=46176
type=note_on channel=4 note=59 velocity=0 time=0 actual_time=46176
type=note_on channel=4 note=54 velocity=0 time=0 actual_time=46176
type=note_on channel=4 note=54 velocity=80 time=24 actual_time=46200
type=note_on channel=4 note=47 velocity=80 time=0 actual_time=46200
type=note_on channel=4 note=47 velocity=0 time=48 actual_time=46248
type=note_on channel=4 note=54 velocity=0 time=0 actual_time=46248
type=note_on channel=4 note=54 velocity=80 time=12 actual_time=46260
type=note_on channel=4 note=47 velocity=80 time=0 actual_time=46260
type=note_on channel=4 note=47 velocity=0 time=48 actual_time=46308
type=note_on channel=4 note=54 velocity=0 time=0 actual_time=46308
type=note_on channel=4 note=47 velocity=80 time=12 actual_time=46320
type=note_on channel=4 note=59 velocity=80 time=0 actual_time=46320
type=note_on channel=4 note=54 velocity=80 time=0 actual_time=46320
type=note_on channel=4 note=54 velocity=0 time=96 actual_time=46416
type=note_on channel=4 note=59 velocity=0 time=0 actual_time=46416
type=note_on channel=4 note=47 velocity=0 time=0 actual_time=46416
type=note_on channel=4 note=47 velocity=80 time=24 actual_time=46440
type=note_on channel=4 note=54 velocity=80 time=0 actual_time=46440
type=note_on channel=4 note=54 velocity=0 time=48 actual_time=46488
type=note_on channel=4 note=47 velocity=0 time=0 actual_time=46488
type=note_on channel=4 note=47 velocity=80 time=12 actual_time=46500
type=note_on channel=4 note=54 velocity=80 time=0 actual_time=46500
type=note_on channel=4 note=54 velocity=0 time=48 actual_time=46548
type=note_on channel=4 note=47 velocity=0 time=0 actual_time=46548
type=note_on channel=4 note=47 velocity=80 time=12 actual_time=46560
type=note_on channel=4 note=59 velocity=80 time=0 actual_time=46560
type=note_on channel=4 note=54 velocity=80 time=0 actual_time=46560
type=note_on channel=4 note=54 velocity=0 time=96 actual_time=46656
type=note_on channel=4 note=59 velocity=0 time=0 actual_time=46656
type=note_on channel=4 note=47 velocity=0 time=0 actual_time=46656
type=note_on channel=4 note=47 velocity=80 time=24 actual_time=46680
type=note_on channel=4 note=54 velocity=80 time=0 actual_time=46680
type=note_on channel=4 note=54 velocity=0 time=48 actual_time=46728
type=note_on channel=4 note=47 velocity=0 time=0 actual_time=46728
type=note_on channel=4 note=47 velocity=80 time=12 actual_time=46740
type=note_on channel=4 note=54 velocity=80 time=0 actual_time=46740
type=note_on channel=4 note=54 velocity=0 time=48 actual_time=46788
type=note_on channel=4 note=47 velocity=0 time=0 actual_time=46788
type=note_on channel=4 note=47 velocity=80 time=12 actual_time=46800
type=note_on channel=4 note=59 velocity=80 time=0 actual_time=46800
type=note_on channel=4 note=54 velocity=80 time=0 actual_time=46800
type=note_on channel=4 note=54 velocity=0 time=96 actual_time=46896
type=note_on channel=4 note=59 velocity=0 time=0 actual_time=46896
type=note_on channel=4 note=47 velocity=0 time=0 actual_time=46896
type=note_on channel=4 note=47 velocity=80 time=24 actual_time=46920
type=note_on channel=4 note=54 velocity=80 time=0 actual_time=46920
type=note_on channel=4 note=54 velocity=0 time=48 actual_time=46968
type=note_on channel=4 note=47 velocity=0 time=0 actual_time=46968
type=note_on channel=4 note=47 velocity=80 time=12 actual_time=46980
type=note_on channel=4 note=54 velocity=80 time=0 actual_time=46980
type=note_on channel=4 note=54 velocity=0 time=48 actual_time=47028
type=note_on channel=4 note=47 velocity=0 time=0 actual_time=47028
type=note_on channel=4 note=43 velocity=80 time=12 actual_time=47040
type=note_on channel=4 note=55 velocity=80 time=0 actual_time=47040
type=note_on channel=4 note=50 velocity=80 time=0 actual_time=47040
type=note_on channel=4 note=50 velocity=0 time=96 actual_time=47136
type=note_on channel=4 note=55 velocity=0 time=0 actual_time=47136
type=note_on channel=4 note=43 velocity=0 time=0 actual_time=47136
type=note_on channel=4 note=43 velocity=80 time=24 actual_time=47160
type=note_on channel=4 note=50 velocity=80 time=0 actual_time=47160
type=note_on channel=4 note=50 velocity=0 time=48 actual_time=47208
type=note_on channel=4 note=43 velocity=0 time=0 actual_time=47208
type=note_on channel=4 note=43 velocity=80 time=12 actual_time=47220
type=note_on channel=4 note=50 velocity=80 time=0 actual_time=47220
type=note_on channel=4 note=50 velocity=0 time=48 actual_time=47268
type=note_on channel=4 note=43 velocity=0 time=0 actual_time=47268
type=note_on channel=4 note=43 velocity=80 time=12 actual_time=47280
type=note_on channel=4 note=55 velocity=80 time=0 actual_time=47280
type=note_on channel=4 note=50 velocity=80 time=0 actual_time=47280
type=note_on channel=4 note=50 velocity=0 time=96 actual_time=47376
type=note_on channel=4 note=55 velocity=0 time=0 actual_time=47376
type=note_on channel=4 note=43 velocity=0 time=0 actual_time=47376
type=note_on channel=4 note=43 velocity=80 time=24 actual_time=47400
type=note_on channel=4 note=50 velocity=80 time=0 actual_time=47400
type=note_on channel=4 note=50 velocity=0 time=48 actual_time=47448
type=note_on channel=4 note=43 velocity=0 time=0 actual_time=47448
type=note_on channel=4 note=43 velocity=80 time=12 actual_time=47460
type=note_on channel=4 note=50 velocity=80 time=0 actual_time=47460
type=note_on channel=4 note=50 velocity=0 time=48 actual_time=47508
type=note_on channel=4 note=43 velocity=0 time=0 actual_time=47508
type=note_on channel=4 note=45 velocity=80 time=12 actual_time=47520
type=note_on channel=4 note=57 velocity=80 time=0 actual_time=47520
type=note_on channel=4 note=52 velocity=80 time=0 actual_time=47520
type=note_on channel=4 note=52 velocity=0 time=96 actual_time=47616
type=note_on channel=4 note=57 velocity=0 time=0 actual_time=47616
type=note_on channel=4 note=45 velocity=0 time=0 actual_time=47616
type=note_on channel=4 note=45 velocity=80 time=24 actual_time=47640
type=note_on channel=4 note=52 velocity=80 time=0 actual_time=47640
type=note_on channel=4 note=52 velocity=0 time=48 actual_time=47688
type=note_on channel=4 note=45 velocity=0 time=0 actual_time=47688
type=note_on channel=4 note=45 velocity=80 time=12 actual_time=47700
type=note_on channel=4 note=52 velocity=80 time=0 actual_time=47700
type=note_on channel=4 note=52 velocity=0 time=48 actual_time=47748
type=note_on channel=4 note=45 velocity=0 time=0 actual_time=47748
type=note_on channel=4 note=45 velocity=80 time=12 actual_time=47760
type=note_on channel=4 note=57 velocity=80 time=0 actual_time=47760
type=note_on channel=4 note=52 velocity=80 time=0 actual_time=47760
type=note_on channel=4 note=52 velocity=0 time=96 actual_time=47856
type=note_on channel=4 note=57 velocity=0 time=0 actual_time=47856
type=note_on channel=4 note=45 velocity=0 time=0 actual_time=47856
type=note_on channel=4 note=45 velocity=80 time=24 actual_time=47880
type=note_on channel=4 note=52 velocity=80 time=0 actual_time=47880
type=note_on channel=4 note=52 velocity=0 time=48 actual_time=47928
type=note_on channel=4 note=45 velocity=0 time=0 actual_time=47928
type=note_on channel=4 note=45 velocity=80 time=12 actual_time=47940
type=note_on channel=4 note=52 velocity=80 time=0 actual_time=47940
type=note_on channel=4 note=52 velocity=0 time=48 actual_time=47988
type=note_on channel=4 note=45 velocity=0 time=0 actual_time=47988
type=note_on channel=4 note=47 velocity=80 time=12 actual_time=48000
type=note_on channel=4 note=59 velocity=80 time=0 actual_time=48000
type=note_on channel=4 note=54 velocity=80 time=0 actual_time=48000
type=note_on channel=4 note=54 velocity=0 time=96 actual_time=48096
type=note_on channel=4 note=59 velocity=0 time=0 actual_time=48096
type=note_on channel=4 note=47 velocity=0 time=0 actual_time=48096
type=note_on channel=4 note=47 velocity=80 time=24 actual_time=48120
type=note_on channel=4 note=54 velocity=80 time=0 actual_time=48120
type=note_on channel=4 note=59 velocity=80 time=0 actual_time=48120
type=note_on channel=4 note=59 velocity=0 time=48 actual_time=48168
type=note_on channel=4 note=54 velocity=0 time=0 actual_time=48168
type=note_on channel=4 note=47 velocity=0 time=0 actual_time=48168
type=note_on channel=4 note=47 velocity=80 time=12 actual_time=48180
type=note_on channel=4 note=59 velocity=80 time=0 actual_time=48180
type=note_on channel=4 note=54 velocity=80 time=0 actual_time=48180
type=note_on channel=4 note=54 velocity=0 time=48 actual_time=48228
type=note_on channel=4 note=59 velocity=0 time=0 actual_time=48228
type=note_on channel=4 note=47 velocity=0 time=0 actual_time=48228
type=note_on channel=4 note=54 velocity=80 time=12 actual_time=48240
type=note_on channel=4 note=59 velocity=80 time=0 actual_time=48240
type=note_on channel=4 note=47 velocity=80 time=0 actual_time=48240
type=note_on channel=4 note=47 velocity=0 time=96 actual_time=48336
type=note_on channel=4 note=59 velocity=0 time=0 actual_time=48336
type=note_on channel=4 note=54 velocity=0 time=0 actual_time=48336
type=note_on channel=4 note=59 velocity=80 time=24 actual_time=48360
type=note_on channel=4 note=54 velocity=80 time=0 actual_time=48360
type=note_on channel=4 note=47 velocity=80 time=0 actual_time=48360
type=note_on channel=4 note=47 velocity=0 time=48 actual_time=48408
type=note_on channel=4 note=54 velocity=0 time=0 actual_time=48408
type=note_on channel=4 note=59 velocity=0 time=0 actual_time=48408
type=note_on channel=4 note=54 velocity=80 time=12 actual_time=48420
type=note_on channel=4 note=59 velocity=80 time=0 actual_time=48420
type=note_on channel=4 note=47 velocity=80 time=0 actual_time=48420
type=note_on channel=4 note=47 velocity=0 time=48 actual_time=48468
type=note_on channel=4 note=59 velocity=0 time=0 actual_time=48468
type=note_on channel=4 note=54 velocity=0 time=0 actual_time=48468
type=note_on channel=4 note=54 velocity=80 time=12 actual_time=48480
type=note_on channel=4 note=59 velocity=80 time=0 actual_time=48480
type=note_on channel=4 note=47 velocity=80 time=0 actual_time=48480
type=note_on channel=4 note=47 velocity=0 time=96 actual_time=48576
type=note_on channel=4 note=59 velocity=0 time=0 actual_time=48576
type=note_on channel=4 note=54 velocity=0 time=0 actual_time=48576
type=note_on channel=4 note=59 velocity=80 time=24 actual_time=48600
type=note_on channel=4 note=54 velocity=80 time=0 actual_time=48600
type=note_on channel=4 note=47 velocity=80 time=0 actual_time=48600
type=note_on channel=4 note=47 velocity=0 time=48 actual_time=48648
type=note_on channel=4 note=54 velocity=0 time=0 actual_time=48648
type=note_on channel=4 note=59 velocity=0 time=0 actual_time=48648
type=note_on channel=4 note=54 velocity=80 time=12 actual_time=48660
type=note_on channel=4 note=59 velocity=80 time=0 actual_time=48660
type=note_on channel=4 note=47 velocity=80 time=0 actual_time=48660
type=note_on channel=4 note=47 velocity=0 time=48 actual_time=48708
type=note_on channel=4 note=59 velocity=0 time=0 actual_time=48708
type=note_on channel=4 note=54 velocity=0 time=0 actual_time=48708
type=note_on channel=4 note=54 velocity=80 time=12 actual_time=48720
type=note_on channel=4 note=59 velocity=80 time=0 actual_time=48720
type=note_on channel=4 note=47 velocity=80 time=0 actual_time=48720
type=note_on channel=4 note=47 velocity=0 time=96 actual_time=48816
type=note_on channel=4 note=59 velocity=0 time=0 actual_time=48816
type=note_on channel=4 note=54 velocity=0 time=0 actual_time=48816
type=note_on channel=4 note=59 velocity=80 time=24 actual_time=48840
type=note_on channel=4 note=54 velocity=80 time=0 actual_time=48840
type=note_on channel=4 note=47 velocity=80 time=0 actual_time=48840
type=note_on channel=4 note=47 velocity=0 time=48 actual_time=48888
type=note_on channel=4 note=54 velocity=0 time=0 actual_time=48888
type=note_on channel=4 note=59 velocity=0 time=0 actual_time=48888
type=note_on channel=4 note=54 velocity=80 time=12 actual_time=48900
type=note_on channel=4 note=59 velocity=80 time=0 actual_time=48900
type=note_on channel=4 note=47 velocity=80 time=0 actual_time=48900
type=note_on channel=4 note=47 velocity=0 time=48 actual_time=48948
type=note_on channel=4 note=59 velocity=0 time=0 actual_time=48948
type=note_on channel=4 note=54 velocity=0 time=0 actual_time=48948
type=note_on channel=4 note=47 velocity=80 time=12 actual_time=48960
type=note_on channel=4 note=52 velocity=80 time=0 actual_time=48960
type=note_on channel=4 note=40 velocity=80 time=0 actual_time=48960
type=note_on channel=4 note=40 velocity=0 time=96 actual_time=49056
type=note_on channel=4 note=52 velocity=0 time=0 actual_time=49056
type=note_on channel=4 note=47 velocity=0 time=0 actual_time=49056
type=note_on channel=4 note=52 velocity=80 time=24 actual_time=49080
type=note_on channel=4 note=47 velocity=80 time=0 actual_time=49080
type=note_on channel=4 note=40 velocity=80 time=0 actual_time=49080
type=note_on channel=4 note=40 velocity=0 time=48 actual_time=49128
type=note_on channel=4 note=47 velocity=0 time=0 actual_time=49128
type=note_on channel=4 note=52 velocity=0 time=0 actual_time=49128
type=note_on channel=4 note=47 velocity=80 time=12 actual_time=49140
type=note_on channel=4 note=52 velocity=80 time=0 actual_time=49140
type=note_on channel=4 note=40 velocity=80 time=0 actual_time=49140
type=note_on channel=4 note=40 velocity=0 time=48 actual_time=49188
type=note_on channel=4 note=52 velocity=0 time=0 actual_time=49188
type=note_on channel=4 note=47 velocity=0 time=0 actual_time=49188
type=note_on channel=4 note=47 velocity=80 time=12 actual_time=49200
type=note_on channel=4 note=52 velocity=80 time=0 actual_time=49200
type=note_on channel=4 note=40 velocity=80 time=0 actual_time=49200
type=note_on channel=4 note=40 velocity=0 time=96 actual_time=49296
type=note_on channel=4 note=52 velocity=0 time=0 actual_time=49296
type=note_on channel=4 note=47 velocity=0 time=0 actual_time=49296
type=note_on channel=4 note=52 velocity=80 time=24 actual_time=49320
type=note_on channel=4 note=47 velocity=80 time=0 actual_time=49320
type=note_on channel=4 note=40 velocity=80 time=0 actual_time=49320
type=note_on channel=4 note=40 velocity=0 time=48 actual_time=49368
type=note_on channel=4 note=47 velocity=0 time=0 actual_time=49368
type=note_on channel=4 note=52 velocity=0 time=0 actual_time=49368
type=note_on channel=4 note=47 velocity=80 time=12 actual_time=49380
type=note_on channel=4 note=52 velocity=80 time=0 actual_time=49380
type=note_on channel=4 note=40 velocity=80 time=0 actual_time=49380
type=note_on channel=4 note=40 velocity=0 time=48 actual_time=49428
type=note_on channel=4 note=52 velocity=0 time=0 actual_time=49428
type=note_on channel=4 note=47 velocity=0 time=0 actual_time=49428
type=note_on channel=4 note=49 velocity=80 time=12 actual_time=49440
type=note_on channel=4 note=54 velocity=80 time=0 actual_time=49440
type=note_on channel=4 note=42 velocity=80 time=0 actual_time=49440
type=note_on channel=4 note=42 velocity=0 time=96 actual_time=49536
type=note_on channel=4 note=54 velocity=0 time=0 actual_time=49536
type=note_on channel=4 note=49 velocity=0 time=0 actual_time=49536
type=note_on channel=4 note=54 velocity=80 time=24 actual_time=49560
type=note_on channel=4 note=49 velocity=80 time=0 actual_time=49560
type=note_on channel=4 note=42 velocity=80 time=0 actual_time=49560
type=note_on channel=4 note=42 velocity=0 time=48 actual_time=49608
type=note_on channel=4 note=49 velocity=0 time=0 actual_time=49608
type=note_on channel=4 note=54 velocity=0 time=0 actual_time=49608
type=note_on channel=4 note=49 velocity=80 time=12 actual_time=49620
type=note_on channel=4 note=54 velocity=80 time=0 actual_time=49620
type=note_on channel=4 note=42 velocity=80 time=0 actual_time=49620
type=note_on channel=4 note=42 velocity=0 time=48 actual_time=49668
type=note_on channel=4 note=54 velocity=0 time=0 actual_time=49668
type=note_on channel=4 note=49 velocity=0 time=0 actual_time=49668
type=note_on channel=4 note=49 velocity=80 time=12 actual_time=49680
type=note_on channel=4 note=54 velocity=80 time=0 actual_time=49680
type=note_on channel=4 note=42 velocity=80 time=0 actual_time=49680
type=note_on channel=4 note=42 velocity=0 time=96 actual_time=49776
type=note_on channel=4 note=54 velocity=0 time=0 actual_time=49776
type=note_on channel=4 note=49 velocity=0 time=0 actual_time=49776
type=note_on channel=4 note=54 velocity=80 time=24 actual_time=49800
type=note_on channel=4 note=49 velocity=80 time=0 actual_time=49800
type=note_on channel=4 note=42 velocity=80 time=0 actual_time=49800
type=note_on channel=4 note=42 velocity=0 time=48 actual_time=49848
type=note_on channel=4 note=49 velocity=0 time=0 actual_time=49848
type=note_on channel=4 note=54 velocity=0 time=0 actual_time=49848
type=note_on channel=4 note=49 velocity=80 time=12 actual_time=49860
type=note_on channel=4 note=54 velocity=80 time=0 actual_time=49860
type=note_on channel=4 note=42 velocity=80 time=0 actual_time=49860
type=note_on channel=4 note=42 velocity=0 time=48 actual_time=49908
type=note_on channel=4 note=54 velocity=0 time=0 actual_time=49908
type=note_on channel=4 note=49 velocity=0 time=0 actual_time=49908
type=note_on channel=4 note=54 velocity=80 time=12 actual_time=49920
type=note_on channel=4 note=59 velocity=80 time=0 actual_time=49920
type=note_on channel=4 note=47 velocity=80 time=0 actual_time=49920
type=note_on channel=4 note=47 velocity=0 time=96 actual_time=50016
type=note_on channel=4 note=59 velocity=0 time=0 actual_time=50016
type=note_on channel=4 note=54 velocity=0 time=0 actual_time=50016
type=note_on channel=4 note=54 velocity=80 time=24 actual_time=50040
type=note_on channel=4 note=47 velocity=80 time=0 actual_time=50040
type=note_on channel=4 note=47 velocity=0 time=48 actual_time=50088
type=note_on channel=4 note=54 velocity=0 time=0 actual_time=50088
type=note_on channel=4 note=54 velocity=80 time=12 actual_time=50100
type=note_on channel=4 note=47 velocity=80 time=0 actual_time=50100
type=note_on channel=4 note=47 velocity=0 time=48 actual_time=50148
type=note_on channel=4 note=54 velocity=0 time=0 actual_time=50148
type=note_on channel=4 note=47 velocity=80 time=12 actual_time=50160
type=note_on channel=4 note=59 velocity=80 time=0 actual_time=50160
type=note_on channel=4 note=54 velocity=80 time=0 actual_time=50160
type=note_on channel=4 note=54 velocity=0 time=96 actual_time=50256
type=note_on channel=4 note=59 velocity=0 time=0 actual_time=50256
type=note_on channel=4 note=47 velocity=0 time=0 actual_time=50256
type=note_on channel=4 note=47 velocity=80 time=24 actual_time=50280
type=note_on channel=4 note=54 velocity=80 time=0 actual_time=50280
type=note_on channel=4 note=54 velocity=0 time=48 actual_time=50328
type=note_on channel=4 note=47 velocity=0 time=0 actual_time=50328
type=note_on channel=4 note=47 velocity=80 time=12 actual_time=50340
type=note_on channel=4 note=54 velocity=80 time=0 actual_time=50340
type=note_on channel=4 note=54 velocity=0 time=48 actual_time=50388
type=note_on channel=4 note=47 velocity=0 time=0 actual_time=50388
type=note_on channel=4 note=47 velocity=80 time=12 actual_time=50400
type=note_on channel=4 note=59 velocity=80 time=0 actual_time=50400
type=note_on channel=4 note=54 velocity=80 time=0 actual_time=50400
type=note_on channel=4 note=54 velocity=0 time=96 actual_time=50496
type=note_on channel=4 note=59 velocity=0 time=0 actual_time=50496
type=note_on channel=4 note=47 velocity=0 time=0 actual_time=50496
type=note_on channel=4 note=47 velocity=80 time=24 actual_time=50520
type=note_on channel=4 note=54 velocity=80 time=0 actual_time=50520
type=note_on channel=4 note=54 velocity=0 time=48 actual_time=50568
type=note_on channel=4 note=47 velocity=0 time=0 actual_time=50568
type=note_on channel=4 note=47 velocity=80 time=12 actual_time=50580
type=note_on channel=4 note=54 velocity=80 time=0 actual_time=50580
type=note_on channel=4 note=54 velocity=0 time=48 actual_time=50628
type=note_on channel=4 note=47 velocity=0 time=0 actual_time=50628
type=note_on channel=4 note=47 velocity=80 time=12 actual_time=50640
type=note_on channel=4 note=59 velocity=80 time=0 actual_time=50640
type=note_on channel=4 note=54 velocity=80 time=0 actual_time=50640
type=note_on channel=4 note=54 velocity=0 time=96 actual_time=50736
type=note_on channel=4 note=59 velocity=0 time=0 actual_time=50736
type=note_on channel=4 note=47 velocity=0 time=0 actual_time=50736
type=note_on channel=4 note=47 velocity=80 time=24 actual_time=50760
type=note_on channel=4 note=54 velocity=80 time=0 actual_time=50760
type=note_on channel=4 note=54 velocity=0 time=48 actual_time=50808
type=note_on channel=4 note=47 velocity=0 time=0 actual_time=50808
type=note_on channel=4 note=47 velocity=80 time=12 actual_time=50820
type=note_on channel=4 note=54 velocity=80 time=0 actual_time=50820
type=note_on channel=4 note=54 velocity=0 time=48 actual_time=50868
type=note_on channel=4 note=47 velocity=0 time=0 actual_time=50868
type=note_on channel=4 note=43 velocity=80 time=12 actual_time=50880
type=note_on channel=4 note=55 velocity=80 time=0 actual_time=50880
type=note_on channel=4 note=50 velocity=80 time=0 actual_time=50880
type=note_on channel=4 note=50 velocity=0 time=96 actual_time=50976
type=note_on channel=4 note=55 velocity=0 time=0 actual_time=50976
type=note_on channel=4 note=43 velocity=0 time=0 actual_time=50976
type=note_on channel=4 note=43 velocity=80 time=24 actual_time=51000
type=note_on channel=4 note=50 velocity=80 time=0 actual_time=51000
type=note_on channel=4 note=50 velocity=0 time=48 actual_time=51048
type=note_on channel=4 note=43 velocity=0 time=0 actual_time=51048
type=note_on channel=4 note=43 velocity=80 time=12 actual_time=51060
type=note_on channel=4 note=50 velocity=80 time=0 actual_time=51060
type=note_on channel=4 note=50 velocity=0 time=48 actual_time=51108
type=note_on channel=4 note=43 velocity=0 time=0 actual_time=51108
type=note_on channel=4 note=43 velocity=80 time=12 actual_time=51120
type=note_on channel=4 note=55 velocity=80 time=0 actual_time=51120
type=note_on channel=4 note=50 velocity=80 time=0 actual_time=51120
type=note_on channel=4 note=50 velocity=0 time=96 actual_time=51216
type=note_on channel=4 note=55 velocity=0 time=0 actual_time=51216
type=note_on channel=4 note=43 velocity=0 time=0 actual_time=51216
type=note_on channel=4 note=43 velocity=80 time=24 actual_time=51240
type=note_on channel=4 note=50 velocity=80 time=0 actual_time=51240
type=note_on channel=4 note=50 velocity=0 time=48 actual_time=51288
type=note_on channel=4 note=43 velocity=0 time=0 actual_time=51288
type=note_on channel=4 note=43 velocity=80 time=12 actual_time=51300
type=note_on channel=4 note=50 velocity=80 time=0 actual_time=51300
type=note_on channel=4 note=50 velocity=0 time=48 actual_time=51348
type=note_on channel=4 note=43 velocity=0 time=0 actual_time=51348
type=note_on channel=4 note=45 velocity=80 time=12 actual_time=51360
type=note_on channel=4 note=57 velocity=80 time=0 actual_time=51360
type=note_on channel=4 note=52 velocity=80 time=0 actual_time=51360
type=note_on channel=4 note=52 velocity=0 time=96 actual_time=51456
type=note_on channel=4 note=57 velocity=0 time=0 actual_time=51456
type=note_on channel=4 note=45 velocity=0 time=0 actual_time=51456
type=note_on channel=4 note=45 velocity=80 time=24 actual_time=51480
type=note_on channel=4 note=52 velocity=80 time=0 actual_time=51480
type=note_on channel=4 note=52 velocity=0 time=48 actual_time=51528
type=note_on channel=4 note=45 velocity=0 time=0 actual_time=51528
type=note_on channel=4 note=45 velocity=80 time=12 actual_time=51540
type=note_on channel=4 note=52 velocity=80 time=0 actual_time=51540
type=note_on channel=4 note=52 velocity=0 time=48 actual_time=51588
type=note_on channel=4 note=45 velocity=0 time=0 actual_time=51588
type=note_on channel=4 note=45 velocity=80 time=12 actual_time=51600
type=note_on channel=4 note=57 velocity=80 time=0 actual_time=51600
type=note_on channel=4 note=52 velocity=80 time=0 actual_time=51600
type=note_on channel=4 note=52 velocity=0 time=96 actual_time=51696
type=note_on channel=4 note=57 velocity=0 time=0 actual_time=51696
type=note_on channel=4 note=45 velocity=0 time=0 actual_time=51696
type=note_on channel=4 note=45 velocity=80 time=24 actual_time=51720
type=note_on channel=4 note=52 velocity=80 time=0 actual_time=51720
type=note_on channel=4 note=52 velocity=0 time=48 actual_time=51768
type=note_on channel=4 note=45 velocity=0 time=0 actual_time=51768
type=note_on channel=4 note=45 velocity=80 time=12 actual_time=51780
type=note_on channel=4 note=52 velocity=80 time=0 actual_time=51780
type=note_on channel=4 note=52 velocity=0 time=48 actual_time=51828
type=note_on channel=4 note=45 velocity=0 time=0 actual_time=51828
type=note_on channel=4 note=54 velocity=80 time=12 actual_time=51840
type=note_on channel=4 note=59 velocity=80 time=0 actual_time=51840
type=note_on channel=4 note=47 velocity=80 time=0 actual_time=51840
type=note_on channel=4 note=47 velocity=0 time=96 actual_time=51936
type=note_on channel=4 note=59 velocity=0 time=0 actual_time=51936
type=note_on channel=4 note=54 velocity=0 time=0 actual_time=51936
type=note_on channel=4 note=54 velocity=80 time=24 actual_time=51960
type=note_on channel=4 note=47 velocity=80 time=0 actual_time=51960
type=note_on channel=4 note=47 velocity=0 time=48 actual_time=52008
type=note_on channel=4 note=54 velocity=0 time=0 actual_time=52008
type=note_on channel=4 note=54 velocity=80 time=12 actual_time=52020
type=note_on channel=4 note=47 velocity=80 time=0 actual_time=52020
type=note_on channel=4 note=47 velocity=0 time=48 actual_time=52068
type=note_on channel=4 note=54 velocity=0 time=0 actual_time=52068
type=note_on channel=4 note=47 velocity=80 time=12 actual_time=52080
type=note_on channel=4 note=59 velocity=80 time=0 actual_time=52080
type=note_on channel=4 note=54 velocity=80 time=0 actual_time=52080
type=note_on channel=4 note=54 velocity=0 time=96 actual_time=52176
type=note_on channel=4 note=59 velocity=0 time=0 actual_time=52176
type=note_on channel=4 note=47 velocity=0 time=0 actual_time=52176
type=note_on channel=4 note=47 velocity=80 time=24 actual_time=52200
type=note_on channel=4 note=54 velocity=80 time=0 actual_time=52200
type=note_on channel=4 note=54 velocity=0 time=48 actual_time=52248
type=note_on channel=4 note=47 velocity=0 time=0 actual_time=52248
type=note_on channel=4 note=47 velocity=80 time=12 actual_time=52260
type=note_on channel=4 note=54 velocity=80 time=0 actual_time=52260
type=note_on channel=4 note=54 velocity=0 time=48 actual_time=52308
type=note_on channel=4 note=47 velocity=0 time=0 actual_time=52308
type=note_on channel=4 note=47 velocity=80 time=12 actual_time=52320
type=note_on channel=4 note=59 velocity=80 time=0 actual_time=52320
type=note_on channel=4 note=54 velocity=80 time=0 actual_time=52320
type=note_on channel=4 note=54 velocity=0 time=96 actual_time=52416
type=note_on channel=4 note=59 velocity=0 time=0 actual_time=52416
type=note_on channel=4 note=47 velocity=0 time=0 actual_time=52416
type=note_on channel=4 note=47 velocity=80 time=24 actual_time=52440
type=note_on channel=4 note=54 velocity=80 time=0 actual_time=52440
type=note_on channel=4 note=54 velocity=0 time=48 actual_time=52488
type=note_on channel=4 note=47 velocity=0 time=0 actual_time=52488
type=note_on channel=4 note=47 velocity=80 time=12 actual_time=52500
type=note_on channel=4 note=54 velocity=80 time=0 actual_time=52500
type=note_on channel=4 note=54 velocity=0 time=48 actual_time=52548
type=note_on channel=4 note=47 velocity=0 time=0 actual_time=52548
type=note_on channel=4 note=47 velocity=80 time=12 actual_time=52560
type=note_on channel=4 note=59 velocity=80 time=0 actual_time=52560
type=note_on channel=4 note=54 velocity=80 time=0 actual_time=52560
type=note_on channel=4 note=54 velocity=0 time=96 actual_time=52656
type=note_on channel=4 note=59 velocity=0 time=0 actual_time=52656
type=note_on channel=4 note=47 velocity=0 time=0 actual_time=52656
type=note_on channel=4 note=47 velocity=80 time=24 actual_time=52680
type=note_on channel=4 note=54 velocity=80 time=0 actual_time=52680
type=note_on channel=4 note=54 velocity=0 time=48 actual_time=52728
type=note_on channel=4 note=47 velocity=0 time=0 actual_time=52728
type=note_on channel=4 note=47 velocity=80 time=12 actual_time=52740
type=note_on channel=4 note=54 velocity=80 time=0 actual_time=52740
type=note_on channel=4 note=54 velocity=0 time=48 actual_time=52788
type=note_on channel=4 note=47 velocity=0 time=0 actual_time=52788
type=note_on channel=4 note=47 velocity=80 time=12 actual_time=52800
type=note_on channel=4 note=52 velocity=80 time=0 actual_time=52800
type=note_on channel=4 note=40 velocity=80 time=0 actual_time=52800
type=note_on channel=4 note=40 velocity=0 time=96 actual_time=52896
type=note_on channel=4 note=52 velocity=0 time=0 actual_time=52896
type=note_on channel=4 note=47 velocity=0 time=0 actual_time=52896
type=note_on channel=4 note=47 velocity=80 time=24 actual_time=52920
type=note_on channel=4 note=40 velocity=80 time=0 actual_time=52920
type=note_on channel=4 note=52 velocity=80 time=0 actual_time=52920
type=note_on channel=4 note=52 velocity=0 time=96 actual_time=53016
type=note_on channel=4 note=40 velocity=0 time=0 actual_time=53016
type=note_on channel=4 note=47 velocity=0 time=0 actual_time=53016
type=note_on channel=4 note=40 velocity=80 time=24 actual_time=53040
type=note_on channel=4 note=52 velocity=80 time=0 actual_time=53040
type=note_on channel=4 note=47 velocity=80 time=0 actual_time=53040
type=note_on channel=4 note=47 velocity=0 time=96 actual_time=53136
type=note_on channel=4 note=52 velocity=0 time=0 actual_time=53136
type=note_on channel=4 note=40 velocity=0 time=0 actual_time=53136
type=note_on channel=4 note=52 velocity=80 time=24 actual_time=53160
type=note_on channel=4 note=47 velocity=80 time=0 actual_time=53160
type=note_on channel=4 note=40 velocity=80 time=0 actual_time=53160
type=note_on channel=4 note=40 velocity=0 time=96 actual_time=53256
type=note_on channel=4 note=47 velocity=0 time=0 actual_time=53256
type=note_on channel=4 note=52 velocity=0 time=0 actual_time=53256
type=note_on channel=4 note=49 velocity=80 time=24 actual_time=53280
type=note_on channel=4 note=54 velocity=80 time=0 actual_time=53280
type=note_on channel=4 note=42 velocity=80 time=0 actual_time=53280
type=note_on channel=4 note=42 velocity=0 time=96 actual_time=53376
type=note_on channel=4 note=54 velocity=0 time=0 actual_time=53376
type=note_on channel=4 note=49 velocity=0 time=0 actual_time=53376
type=note_on channel=4 note=49 velocity=80 time=24 actual_time=53400
type=note_on channel=4 note=42 velocity=80 time=0 actual_time=53400
type=note_on channel=4 note=54 velocity=80 time=0 actual_time=53400
type=note_on channel=4 note=54 velocity=0 time=96 actual_time=53496
type=note_on channel=4 note=42 velocity=0 time=0 actual_time=53496
type=note_on channel=4 note=49 velocity=0 time=0 actual_time=53496
type=note_on channel=4 note=42 velocity=80 time=24 actual_time=53520
type=note_on channel=4 note=54 velocity=80 time=0 actual_time=53520
type=note_on channel=4 note=49 velocity=80 time=0 actual_time=53520
type=note_on channel=4 note=49 velocity=0 time=96 actual_time=53616
type=note_on channel=4 note=54 velocity=0 time=0 actual_time=53616
type=note_on channel=4 note=42 velocity=0 time=0 actual_time=53616
type=note_on channel=4 note=54 velocity=80 time=24 actual_time=53640
type=note_on channel=4 note=49 velocity=80 time=0 actual_time=53640
type=note_on channel=4 note=42 velocity=80 time=0 actual_time=53640
type=note_on channel=4 note=42 velocity=0 time=96 actual_time=53736
type=note_on channel=4 note=49 velocity=0 time=0 actual_time=53736
type=note_on channel=4 note=54 velocity=0 time=0 actual_time=53736
type=note_on channel=4 note=54 velocity=80 time=24 actual_time=53760
type=note_on channel=4 note=59 velocity=80 time=0 actual_time=53760
type=note_on channel=4 note=47 velocity=80 time=0 actual_time=53760
type=note_on channel=4 note=47 velocity=0 time=936 actual_time=54696
type=note_on channel=4 note=59 velocity=0 time=0 actual_time=54696
type=note_on channel=4 note=54 velocity=0 time=0 actual_time=54696
type=note_on channel=4 note=43 velocity=80 time=24 actual_time=54720
type=note_on channel=4 note=50 velocity=80 time=0 actual_time=54720
type=note_on channel=4 note=55 velocity=80 time=0 actual_time=54720
type=note_on channel=4 note=55 velocity=0 time=408 actual_time=55128
type=note_on channel=4 note=50 velocity=0 time=0 actual_time=55128
type=note_on channel=4 note=43 velocity=0 time=0 actual_time=55128
type=note_on channel=4 note=50 velocity=80 time=12 actual_time=55140
type=note_on channel=4 note=43 velocity=80 time=0 actual_time=55140
type=note_on channel=4 note=43 velocity=0 time=48 actual_time=55188
type=note_on channel=4 note=50 velocity=0 time=0 actual_time=55188
type=note_on channel=4 note=45 velocity=80 time=12 actual_time=55200
type=note_on channel=4 note=52 velocity=80 time=0 actual_time=55200
type=note_on channel=4 note=57 velocity=80 time=0 actual_time=55200
type=note_on channel=4 note=57 velocity=0 time=408 actual_time=55608
type=note_on channel=4 note=52 velocity=0 time=0 actual_time=55608
type=note_on channel=4 note=45 velocity=0 time=0 actual_time=55608
type=note_on channel=4 note=45 velocity=80 time=12 actual_time=55620
type=note_on channel=4 note=52 velocity=80 time=0 actual_time=55620
type=note_on channel=4 note=52 velocity=0 time=48 actual_time=55668
type=note_on channel=4 note=45 velocity=0 time=0 actual_time=55668
type=note_on channel=4 note=47 velocity=80 time=12 actual_time=55680
type=note_on channel=4 note=59 velocity=80 time=0 actual_time=55680
type=note_on channel=4 note=54 velocity=80 time=0 actual_time=55680
type=note_on channel=4 note=54 velocity=0 time=936 actual_time=56616
type=note_on channel=4 note=59 velocity=0 time=0 actual_time=56616
type=note_on channel=4 note=47 velocity=0 time=0 actual_time=56616
type=note_on channel=4 note=55 velocity=80 time=24 actual_time=56640
type=note_on channel=4 note=50 velocity=80 time=0 actual_time=56640
type=note_on channel=4 note=43 velocity=80 time=0 actual_time=56640
type=note_on channel=4 note=43 velocity=0 time=408 actual_time=57048
type=note_on channel=4 note=50 velocity=0 time=0 actual_time=57048
type=note_on channel=4 note=55 velocity=0 time=0 actual_time=57048
type=note_on channel=4 note=50 velocity=80 time=12 actual_time=57060
type=note_on channel=4 note=43 velocity=80 time=0 actual_time=57060
type=note_on channel=4 note=43 velocity=0 time=48 actual_time=57108
type=note_on channel=4 note=50 velocity=0 time=0 actual_time=57108
type=note_on channel=4 note=57 velocity=80 time=12 actual_time=57120
type=note_on channel=4 note=52 velocity=80 time=0 actual_time=57120
type=note_on channel=4 note=45 velocity=80 time=0 actual_time=57120
type=note_on channel=4 note=45 velocity=0 time=408 actual_time=57528
type=note_on channel=4 note=52 velocity=0 time=0 actual_time=57528
type=note_on channel=4 note=57 velocity=0 time=0 actual_time=57528
type=note_on channel=4 note=52 velocity=80 time=12 actual_time=57540
type=note_on channel=4 note=45 velocity=80 time=0 actual_time=57540
type=note_on channel=4 note=45 velocity=0 time=48 actual_time=57588
type=note_on channel=4 note=52 velocity=0 time=0 actual_time=57588
type=note_on channel=4 note=47 velocity=80 time=12 actual_time=57600
type=note_on channel=4 note=59 velocity=80 time=0 actual_time=57600
type=note_on channel=4 note=54 velocity=80 time=0 actual_time=57600
type=note_on channel=4 note=54 velocity=0 time=936 actual_time=58536
type=note_on channel=4 note=59 velocity=0 time=0 actual_time=58536
type=note_on channel=4 note=47 velocity=0 time=0 actual_time=58536
type=note_on channel=4 note=55 velocity=80 time=24 actual_time=58560
type=note_on channel=4 note=50 velocity=80 time=0 actual_time=58560
type=note_on channel=4 note=43 velocity=80 time=0 actual_time=58560
type=note_on channel=4 note=43 velocity=0 time=408 actual_time=58968
type=note_on channel=4 note=50 velocity=0 time=0 actual_time=58968
type=note_on channel=4 note=55 velocity=0 time=0 actual_time=58968
type=note_on channel=4 note=50 velocity=80 time=12 actual_time=58980
type=note_on channel=4 note=43 velocity=80 time=0 actual_time=58980
type=note_on channel=4 note=43 velocity=0 time=48 actual_time=59028
type=note_on channel=4 note=50 velocity=0 time=0 actual_time=59028
type=note_on channel=4 note=57 velocity=80 time=12 actual_time=59040
type=note_on channel=4 note=52 velocity=80 time=0 actual_time=59040
type=note_on channel=4 note=45 velocity=80 time=0 actual_time=59040
type=note_on channel=4 note=45 velocity=0 time=408 actual_time=59448
type=note_on channel=4 note=52 velocity=0 time=0 actual_time=59448
type=note_on channel=4 note=57 velocity=0 time=0 actual_time=59448
type=note_on channel=4 note=52 velocity=80 time=12 actual_time=59460
type=note_on channel=4 note=45 velocity=80 time=0 actual_time=59460
type=note_on channel=4 note=45 velocity=0 time=48 actual_time=59508
type=note_on channel=4 note=52 velocity=0 time=0 actual_time=59508
type=note_on channel=4 note=54 velocity=80 time=12 actual_time=59520
type=note_on channel=4 note=59 velocity=80 time=0 actual_time=59520
type=note_on channel=4 note=47 velocity=80 time=0 actual_time=59520
type=note_on channel=4 note=47 velocity=0 time=936 actual_time=60456
type=note_on channel=4 note=59 velocity=0 time=0 actual_time=60456
type=note_on channel=4 note=54 velocity=0 time=0 actual_time=60456
type=note_on channel=4 note=43 velocity=80 time=24 actual_time=60480
type=note_on channel=4 note=50 velocity=80 time=0 actual_time=60480
type=note_on channel=4 note=55 velocity=80 time=0 actual_time=60480
type=note_on channel=4 note=55 velocity=0 time=408 actual_time=60888
type=note_on channel=4 note=50 velocity=0 time=0 actual_time=60888
type=note_on channel=4 note=43 velocity=0 time=0 actual_time=60888
type=note_on channel=4 note=43 velocity=80 time=12 actual_time=60900
type=note_on channel=4 note=50 velocity=80 time=0 actual_time=60900
type=note_on channel=4 note=50 velocity=0 time=48 actual_time=60948
type=note_on channel=4 note=43 velocity=0 time=0 actual_time=60948
type=note_on channel=4 note=45 velocity=80 time=12 actual_time=60960
type=note_on channel=4 note=52 velocity=80 time=0 actual_time=60960
type=note_on channel=4 note=57 velocity=80 time=0 actual_time=60960
type=note_on channel=4 note=57 velocity=0 time=468 actual_time=61428
type=note_on channel=4 note=52 velocity=0 time=0 actual_time=61428
type=note_on channel=4 note=45 velocity=0 time=0 actual_time=61428
type=note_on channel=4 note=47 velocity=80 time=12 actual_time=61440
type=note_on channel=4 note=54 velocity=80 time=0 actual_time=61440
type=note_on channel=4 note=59 velocity=80 time=0 actual_time=61440
type=note_on channel=4 note=59 velocity=0 time=7488 actual_time=68928
type=note_on channel=4 note=54 velocity=0 time=0 actual_time=68928
type=note_on channel=4 note=47 velocity=0 time=0 actual_time=68928
type=note_on channel=4 note=45 velocity=80 time=3792 actual_time=72720
type=note_on channel=4 note=52 velocity=80 time=0 actual_time=72720
type=note_on channel=4 note=52 velocity=0 time=32 actual_time=72752
type=note_on channel=4 note=45 velocity=0 time=0 actual_time=72752
type=note_on channel=4 note=45 velocity=80 time=8 actual_time=72760
type=note_on channel=4 note=52 velocity=80 time=0 actual_time=72760
type=note_on channel=4 note=52 velocity=0 time=32 actual_time=72792
type=note_on channel=4 note=45 velocity=0 time=0 actual_time=72792
type=note_on channel=4 note=45 velocity=80 time=8 actual_time=72800
type=note_on channel=4 note=52 velocity=80 time=0 actual_time=72800
type=note_on channel=4 note=52 velocity=0 time=32 actual_time=72832
type=note_on channel=4 note=45 velocity=0 time=0 actual_time=72832
type=note_on channel=4 note=45 velocity=80 time=8 actual_time=72840
type=note_on channel=4 note=52 velocity=80 time=0 actual_time=72840
type=note_on channel=4 note=52 velocity=0 time=32 actual_time=72872
type=note_on channel=4 note=45 velocity=0 time=0 actual_time=72872
type=note_on channel=4 note=52 velocity=80 time=8 actual_time=72880
type=note_on channel=4 note=45 velocity=80 time=0 actual_time=72880
type=note_on channel=4 note=45 velocity=0 time=32 actual_time=72912
type=note_on channel=4 note=52 velocity=0 time=0 actual_time=72912
type=note_on channel=4 note=52 velocity=80 time=8 actual_time=72920
type=note_on channel=4 note=45 velocity=80 time=0 actual_time=72920
type=note_on channel=4 note=45 velocity=0 time=32 actual_time=72952
type=note_on channel=4 note=52 velocity=0 time=0 actual_time=72952
type=note_on channel=4 note=47 velocity=80 time=8 actual_time=72960
type=note_on channel=4 note=59 velocity=80 time=0 actual_time=72960
type=note_on channel=4 note=54 velocity=80 time=0 actual_time=72960
type=note_on channel=4 note=54 velocity=0 time=96 actual_time=73056
type=note_on channel=4 note=59 velocity=0 time=0 actual_time=73056
type=note_on channel=4 note=47 velocity=0 time=0 actual_time=73056
type=note_on channel=4 note=47 velocity=80 time=24 actual_time=73080
type=note_on channel=4 note=54 velocity=80 time=0 actual_time=73080
type=note_on channel=4 note=54 velocity=0 time=48 actual_time=73128
type=note_on channel=4 note=47 velocity=0 time=0 actual_time=73128
type=note_on channel=4 note=47 velocity=80 time=12 actual_time=73140
type=note_on channel=4 note=54 velocity=80 time=0 actual_time=73140
type=note_on channel=4 note=54 velocity=0 time=48 actual_time=73188
type=note_on channel=4 note=47 velocity=0 time=0 actual_time=73188
type=note_on channel=4 note=54 velocity=80 time=12 actual_time=73200
type=note_on channel=4 note=59 velocity=80 time=0 actual_time=73200
type=note_on channel=4 note=47 velocity=80 time=0 actual_time=73200
type=note_on channel=4 note=47 velocity=0 time=96 actual_time=73296
type=note_on channel=4 note=59 velocity=0 time=0 actual_time=73296
type=note_on channel=4 note=54 velocity=0 time=0 actual_time=73296
type=note_on channel=4 note=54 velocity=80 time=24 actual_time=73320
type=note_on channel=4 note=47 velocity=80 time=0 actual_time=73320
type=note_on channel=4 note=47 velocity=0 time=48 actual_time=73368
type=note_on channel=4 note=54 velocity=0 time=0 actual_time=73368
type=note_on channel=4 note=54 velocity=80 time=12 actual_time=73380
type=note_on channel=4 note=47 velocity=80 time=0 actual_time=73380
type=note_on channel=4 note=47 velocity=0 time=48 actual_time=73428
type=note_on channel=4 note=54 velocity=0 time=0 actual_time=73428
type=note_on channel=4 note=54 velocity=80 time=12 actual_time=73440
type=note_on channel=4 note=59 velocity=80 time=0 actual_time=73440
type=note_on channel=4 note=47 velocity=80 time=0 actual_time=73440
type=note_on channel=4 note=47 velocity=0 time=96 actual_time=73536
type=note_on channel=4 note=59 velocity=0 time=0 actual_time=73536
type=note_on channel=4 note=54 velocity=0 time=0 actual_time=73536
type=note_on channel=4 note=54 velocity=80 time=24 actual_time=73560
type=note_on channel=4 note=47 velocity=80 time=0 actual_time=73560
type=note_on channel=4 note=47 velocity=0 time=48 actual_time=73608
type=note_on channel=4 note=54 velocity=0 time=0 actual_time=73608
type=note_on channel=4 note=54 velocity=80 time=12 actual_time=73620
type=note_on channel=4 note=47 velocity=80 time=0 actual_time=73620
type=note_on channel=4 note=47 velocity=0 time=48 actual_time=73668
type=note_on channel=4 note=54 velocity=0 time=0 actual_time=73668
type=note_on channel=4 note=54 velocity=80 time=12 actual_time=73680
type=note_on channel=4 note=59 velocity=80 time=0 actual_time=73680
type=note_on channel=4 note=47 velocity=80 time=0 actual_time=73680
type=note_on channel=4 note=47 velocity=0 time=96 actual_time=73776
type=note_on channel=4 note=59 velocity=0 time=0 actual_time=73776
type=note_on channel=4 note=54 velocity=0 time=0 actual_time=73776
type=note_on channel=4 note=54 velocity=80 time=24 actual_time=73800
type=note_on channel=4 note=47 velocity=80 time=0 actual_time=73800
type=note_on channel=4 note=47 velocity=0 time=48 actual_time=73848
type=note_on channel=4 note=54 velocity=0 time=0 actual_time=73848
type=note_on channel=4 note=54 velocity=80 time=12 actual_time=73860
type=note_on channel=4 note=47 velocity=80 time=0 actual_time=73860
type=note_on channel=4 note=47 velocity=0 time=48 actual_time=73908
type=note_on channel=4 note=54 velocity=0 time=0 actual_time=73908
type=note_on channel=4 note=50 velocity=80 time=12 actual_time=73920
type=note_on channel=4 note=55 velocity=80 time=0 actual_time=73920
type=note_on channel=4 note=43 velocity=80 time=0 actual_time=73920
type=note_on channel=4 note=43 velocity=0 time=96 actual_time=74016
type=note_on channel=4 note=55 velocity=0 time=0 actual_time=74016
type=note_on channel=4 note=50 velocity=0 time=0 actual_time=74016
type=note_on channel=4 note=50 velocity=80 time=24 actual_time=74040
type=note_on channel=4 note=43 velocity=80 time=0 actual_time=74040
type=note_on channel=4 note=43 velocity=0 time=48 actual_time=74088
type=note_on channel=4 note=50 velocity=0 time=0 actual_time=74088
type=note_on channel=4 note=50 velocity=80 time=12 actual_time=74100
type=note_on channel=4 note=43 velocity=80 time=0 actual_time=74100
type=note_on channel=4 note=43 velocity=0 time=48 actual_time=74148
type=note_on channel=4 note=50 velocity=0 time=0 actual_time=74148
type=note_on channel=4 note=50 velocity=80 time=12 actual_time=74160
type=note_on channel=4 note=55 velocity=80 time=0 actual_time=74160
type=note_on channel=4 note=43 velocity=80 time=0 actual_time=74160
type=note_on channel=4 note=43 velocity=0 time=96 actual_time=74256
type=note_on channel=4 note=55 velocity=0 time=0 actual_time=74256
type=note_on channel=4 note=50 velocity=0 time=0 actual_time=74256
type=note_on channel=4 note=50 velocity=80 time=24 actual_time=74280
type=note_on channel=4 note=43 velocity=80 time=0 actual_time=74280
type=note_on channel=4 note=43 velocity=0 time=48 actual_time=74328
type=note_on channel=4 note=50 velocity=0 time=0 actual_time=74328
type=note_on channel=4 note=50 velocity=80 time=12 actual_time=74340
type=note_on channel=4 note=43 velocity=80 time=0 actual_time=74340
type=note_on channel=4 note=43 velocity=0 time=48 actual_time=74388
type=note_on channel=4 note=50 velocity=0 time=0 actual_time=74388
type=note_on channel=4 note=52 velocity=80 time=12 actual_time=74400
type=note_on channel=4 note=57 velocity=80 time=0 actual_time=74400
type=note_on channel=4 note=45 velocity=80 time=0 actual_time=74400
type=note_on channel=4 note=45 velocity=0 time=96 actual_time=74496
type=note_on channel=4 note=57 velocity=0 time=0 actual_time=74496
type=note_on channel=4 note=52 velocity=0 time=0 actual_time=74496
type=note_on channel=4 note=52 velocity=80 time=24 actual_time=74520
type=note_on channel=4 note=45 velocity=80 time=0 actual_time=74520
type=note_on channel=4 note=45 velocity=0 time=48 actual_time=74568
type=note_on channel=4 note=52 velocity=0 time=0 actual_time=74568
type=note_on channel=4 note=52 velocity=80 time=12 actual_time=74580
type=note_on channel=4 note=45 velocity=80 time=0 actual_time=74580
type=note_on channel=4 note=45 velocity=0 time=48 actual_time=74628
type=note_on channel=4 note=52 velocity=0 time=0 actual_time=74628
type=note_on channel=4 note=52 velocity=80 time=12 actual_time=74640
type=note_on channel=4 note=57 velocity=80 time=0 actual_time=74640
type=note_on channel=4 note=45 velocity=80 time=0 actual_time=74640
type=note_on channel=4 note=45 velocity=0 time=96 actual_time=74736
type=note_on channel=4 note=57 velocity=0 time=0 actual_time=74736
type=note_on channel=4 note=52 velocity=0 time=0 actual_time=74736
type=note_on channel=4 note=52 velocity=80 time=24 actual_time=74760
type=note_on channel=4 note=45 velocity=80 time=0 actual_time=74760
type=note_on channel=4 note=45 velocity=0 time=48 actual_time=74808
type=note_on channel=4 note=52 velocity=0 time=0 actual_time=74808
type=note_on channel=4 note=52 velocity=80 time=12 actual_time=74820
type=note_on channel=4 note=45 velocity=80 time=0 actual_time=74820
type=note_on channel=4 note=45 velocity=0 time=48 actual_time=74868
type=note_on channel=4 note=52 velocity=0 time=0 actual_time=74868
type=note_on channel=4 note=54 velocity=80 time=12 actual_time=74880
type=note_on channel=4 note=59 velocity=80 time=0 actual_time=74880
type=note_on channel=4 note=47 velocity=80 time=0 actual_time=74880
type=note_on channel=4 note=47 velocity=0 time=96 actual_time=74976
type=note_on channel=4 note=59 velocity=0 time=0 actual_time=74976
type=note_on channel=4 note=54 velocity=0 time=0 actual_time=74976
type=note_on channel=4 note=59 velocity=80 time=24 actual_time=75000
type=note_on channel=4 note=54 velocity=80 time=0 actual_time=75000
type=note_on channel=4 note=47 velocity=80 time=0 actual_time=75000
type=note_on channel=4 note=47 velocity=0 time=48 actual_time=75048
type=note_on channel=4 note=54 velocity=0 time=0 actual_time=75048
type=note_on channel=4 note=59 velocity=0 time=0 actual_time=75048
type=note_on channel=4 note=54 velocity=80 time=12 actual_time=75060
type=note_on channel=4 note=59 velocity=80 time=0 actual_time=75060
type=note_on channel=4 note=47 velocity=80 time=0 actual_time=75060
type=note_on channel=4 note=47 velocity=0 time=48 actual_time=75108
type=note_on channel=4 note=59 velocity=0 time=0 actual_time=75108
type=note_on channel=4 note=54 velocity=0 time=0 actual_time=75108
type=note_on channel=4 note=47 velocity=80 time=12 actual_time=75120
type=note_on channel=4 note=59 velocity=80 time=0 actual_time=75120
type=note_on channel=4 note=54 velocity=80 time=0 actual_time=75120
type=note_on channel=4 note=54 velocity=0 time=96 actual_time=75216
type=note_on channel=4 note=59 velocity=0 time=0 actual_time=75216
type=note_on channel=4 note=47 velocity=0 time=0 actual_time=75216
type=note_on channel=4 note=47 velocity=80 time=24 actual_time=75240
type=note_on channel=4 note=54 velocity=80 time=0 actual_time=75240
type=note_on channel=4 note=59 velocity=80 time=0 actual_time=75240
type=note_on channel=4 note=59 velocity=0 time=48 actual_time=75288
type=note_on channel=4 note=54 velocity=0 time=0 actual_time=75288
type=note_on channel=4 note=47 velocity=0 time=0 actual_time=75288
type=note_on channel=4 note=47 velocity=80 time=12 actual_time=75300
type=note_on channel=4 note=59 velocity=80 time=0 actual_time=75300
type=note_on channel=4 note=54 velocity=80 time=0 actual_time=75300
type=note_on channel=4 note=54 velocity=0 time=48 actual_time=75348
type=note_on channel=4 note=59 velocity=0 time=0 actual_time=75348
type=note_on channel=4 note=47 velocity=0 time=0 actual_time=75348
type=note_on channel=4 note=47 velocity=80 time=12 actual_time=75360
type=note_on channel=4 note=59 velocity=80 time=0 actual_time=75360
type=note_on channel=4 note=54 velocity=80 time=0 actual_time=75360
type=note_on channel=4 note=54 velocity=0 time=96 actual_time=75456
type=note_on channel=4 note=59 velocity=0 time=0 actual_time=75456
type=note_on channel=4 note=47 velocity=0 time=0 actual_time=75456
type=note_on channel=4 note=47 velocity=80 time=24 actual_time=75480
type=note_on channel=4 note=54 velocity=80 time=0 actual_time=75480
type=note_on channel=4 note=59 velocity=80 time=0 actual_time=75480
type=note_on channel=4 note=59 velocity=0 time=48 actual_time=75528
type=note_on channel=4 note=54 velocity=0 time=0 actual_time=75528
type=note_on channel=4 note=47 velocity=0 time=0 actual_time=75528
type=note_on channel=4 note=47 velocity=80 time=12 actual_time=75540
type=note_on channel=4 note=59 velocity=80 time=0 actual_time=75540
type=note_on channel=4 note=54 velocity=80 time=0 actual_time=75540
type=note_on channel=4 note=54 velocity=0 time=48 actual_time=75588
type=note_on channel=4 note=59 velocity=0 time=0 actual_time=75588
type=note_on channel=4 note=47 velocity=0 time=0 actual_time=75588
type=note_on channel=4 note=47 velocity=80 time=12 actual_time=75600
type=note_on channel=4 note=59 velocity=80 time=0 actual_time=75600
type=note_on channel=4 note=54 velocity=80 time=0 actual_time=75600
type=note_on channel=4 note=54 velocity=0 time=96 actual_time=75696
type=note_on channel=4 note=59 velocity=0 time=0 actual_time=75696
type=note_on channel=4 note=47 velocity=0 time=0 actual_time=75696
type=note_on channel=4 note=47 velocity=80 time=24 actual_time=75720
type=note_on channel=4 note=54 velocity=80 time=0 actual_time=75720
type=note_on channel=4 note=59 velocity=80 time=0 actual_time=75720
type=note_on channel=4 note=59 velocity=0 time=48 actual_time=75768
type=note_on channel=4 note=54 velocity=0 time=0 actual_time=75768
type=note_on channel=4 note=47 velocity=0 time=0 actual_time=75768
type=note_on channel=4 note=47 velocity=80 time=12 actual_time=75780
type=note_on channel=4 note=59 velocity=80 time=0 actual_time=75780
type=note_on channel=4 note=54 velocity=80 time=0 actual_time=75780
type=note_on channel=4 note=54 velocity=0 time=48 actual_time=75828
type=note_on channel=4 note=59 velocity=0 time=0 actual_time=75828
type=note_on channel=4 note=47 velocity=0 time=0 actual_time=75828
type=note_on channel=4 note=40 velocity=80 time=12 actual_time=75840
type=note_on channel=4 note=52 velocity=80 time=0 actual_time=75840
type=note_on channel=4 note=47 velocity=80 time=0 actual_time=75840
type=note_on channel=4 note=47 velocity=0 time=96 actual_time=75936
type=note_on channel=4 note=52 velocity=0 time=0 actual_time=75936
type=note_on channel=4 note=40 velocity=0 time=0 actual_time=75936
type=note_on channel=4 note=40 velocity=80 time=24 actual_time=75960
type=note_on channel=4 note=47 velocity=80 time=0 actual_time=75960
type=note_on channel=4 note=52 velocity=80 time=0 actual_time=75960
type=note_on channel=4 note=52 velocity=0 time=48 actual_time=76008
type=note_on channel=4 note=47 velocity=0 time=0 actual_time=76008
type=note_on channel=4 note=40 velocity=0 time=0 actual_time=76008
type=note_on channel=4 note=40 velocity=80 time=12 actual_time=76020
type=note_on channel=4 note=52 velocity=80 time=0 actual_time=76020
type=note_on channel=4 note=47 velocity=80 time=0 actual_time=76020
type=note_on channel=4 note=47 velocity=0 time=48 actual_time=76068
type=note_on channel=4 note=52 velocity=0 time=0 actual_time=76068
type=note_on channel=4 note=40 velocity=0 time=0 actual_time=76068
type=note_on channel=4 note=40 velocity=80 time=12 actual_time=76080
type=note_on channel=4 note=52 velocity=80 time=0 actual_time=76080
type=note_on channel=4 note=47 velocity=80 time=0 actual_time=76080
type=note_on channel=4 note=47 velocity=0 time=96 actual_time=76176
type=note_on channel=4 note=52 velocity=0 time=0 actual_time=76176
type=note_on channel=4 note=40 velocity=0 time=0 actual_time=76176
type=note_on channel=4 note=40 velocity=80 time=24 actual_time=76200
type=note_on channel=4 note=47 velocity=80 time=0 actual_time=76200
type=note_on channel=4 note=52 velocity=80 time=0 actual_time=76200
type=note_on channel=4 note=52 velocity=0 time=48 actual_time=76248
type=note_on channel=4 note=47 velocity=0 time=0 actual_time=76248
type=note_on channel=4 note=40 velocity=0 time=0 actual_time=76248
type=note_on channel=4 note=40 velocity=80 time=12 actual_time=76260
type=note_on channel=4 note=52 velocity=80 time=0 actual_time=76260
type=note_on channel=4 note=47 velocity=80 time=0 actual_time=76260
type=note_on channel=4 note=47 velocity=0 time=48 actual_time=76308
type=note_on channel=4 note=52 velocity=0 time=0 actual_time=76308
type=note_on channel=4 note=40 velocity=0 time=0 actual_time=76308
type=note_on channel=4 note=42 velocity=80 time=12 actual_time=76320
type=note_on channel=4 note=54 velocity=80 time=0 actual_time=76320
type=note_on channel=4 note=49 velocity=80 time=0 actual_time=76320
type=note_on channel=4 note=49 velocity=0 time=96 actual_time=76416
type=note_on channel=4 note=54 velocity=0 time=0 actual_time=76416
type=note_on channel=4 note=42 velocity=0 time=0 actual_time=76416
type=note_on channel=4 note=42 velocity=80 time=24 actual_time=76440
type=note_on channel=4 note=49 velocity=80 time=0 actual_time=76440
type=note_on channel=4 note=54 velocity=80 time=0 actual_time=76440
type=note_on channel=4 note=54 velocity=0 time=48 actual_time=76488
type=note_on channel=4 note=49 velocity=0 time=0 actual_time=76488
type=note_on channel=4 note=42 velocity=0 time=0 actual_time=76488
type=note_on channel=4 note=42 velocity=80 time=12 actual_time=76500
type=note_on channel=4 note=54 velocity=80 time=0 actual_time=76500
type=note_on channel=4 note=49 velocity=80 time=0 actual_time=76500
type=note_on channel=4 note=49 velocity=0 time=48 actual_time=76548
type=note_on channel=4 note=54 velocity=0 time=0 actual_time=76548
type=note_on channel=4 note=42 velocity=0 time=0 actual_time=76548
type=note_on channel=4 note=42 velocity=80 time=12 actual_time=76560
type=note_on channel=4 note=54 velocity=80 time=0 actual_time=76560
type=note_on channel=4 note=49 velocity=80 time=0 actual_time=76560
type=note_on channel=4 note=49 velocity=0 time=96 actual_time=76656
type=note_on channel=4 note=54 velocity=0 time=0 actual_time=76656
type=note_on channel=4 note=42 velocity=0 time=0 actual_time=76656
type=note_on channel=4 note=42 velocity=80 time=24 actual_time=76680
type=note_on channel=4 note=49 velocity=80 time=0 actual_time=76680
type=note_on channel=4 note=54 velocity=80 time=0 actual_time=76680
type=note_on channel=4 note=54 velocity=0 time=48 actual_time=76728
type=note_on channel=4 note=49 velocity=0 time=0 actual_time=76728
type=note_on channel=4 note=42 velocity=0 time=0 actual_time=76728
type=note_on channel=4 note=42 velocity=80 time=12 actual_time=76740
type=note_on channel=4 note=54 velocity=80 time=0 actual_time=76740
type=note_on channel=4 note=49 velocity=80 time=0 actual_time=76740
type=note_on channel=4 note=49 velocity=0 time=48 actual_time=76788
type=note_on channel=4 note=54 velocity=0 time=0 actual_time=76788
type=note_on channel=4 note=42 velocity=0 time=0 actual_time=76788
type=note_on channel=4 note=54 velocity=80 time=12 actual_time=76800
type=note_on channel=4 note=59 velocity=80 time=0 actual_time=76800
type=note_on channel=4 note=47 velocity=80 time=0 actual_time=76800
type=note_on channel=4 note=47 velocity=0 time=96 actual_time=76896
type=note_on channel=4 note=59 velocity=0 time=0 actual_time=76896
type=note_on channel=4 note=54 velocity=0 time=0 actual_time=76896
type=note_on channel=4 note=54 velocity=80 time=24 actual_time=76920
type=note_on channel=4 note=47 velocity=80 time=0 actual_time=76920
type=note_on channel=4 note=47 velocity=0 time=48 actual_time=76968
type=note_on channel=4 note=54 velocity=0 time=0 actual_time=76968
type=note_on channel=4 note=54 velocity=80 time=12 actual_time=76980
type=note_on channel=4 note=47 velocity=80 time=0 actual_time=76980
type=note_on channel=4 note=47 velocity=0 time=48 actual_time=77028
type=note_on channel=4 note=54 velocity=0 time=0 actual_time=77028
type=note_on channel=4 note=47 velocity=80 time=12 actual_time=77040
type=note_on channel=4 note=59 velocity=80 time=0 actual_time=77040
type=note_on channel=4 note=54 velocity=80 time=0 actual_time=77040
type=note_on channel=4 note=54 velocity=0 time=96 actual_time=77136
type=note_on channel=4 note=59 velocity=0 time=0 actual_time=77136
type=note_on channel=4 note=47 velocity=0 time=0 actual_time=77136
type=note_on channel=4 note=47 velocity=80 time=24 actual_time=77160
type=note_on channel=4 note=54 velocity=80 time=0 actual_time=77160
type=note_on channel=4 note=54 velocity=0 time=48 actual_time=77208
type=note_on channel=4 note=47 velocity=0 time=0 actual_time=77208
type=note_on channel=4 note=47 velocity=80 time=12 actual_time=77220
type=note_on channel=4 note=54 velocity=80 time=0 actual_time=77220
type=note_on channel=4 note=54 velocity=0 time=48 actual_time=77268
type=note_on channel=4 note=47 velocity=0 time=0 actual_time=77268
type=note_on channel=4 note=47 velocity=80 time=12 actual_time=77280
type=note_on channel=4 note=59 velocity=80 time=0 actual_time=77280
type=note_on channel=4 note=54 velocity=80 time=0 actual_time=77280
type=note_on channel=4 note=54 velocity=0 time=96 actual_time=77376
type=note_on channel=4 note=59 velocity=0 time=0 actual_time=77376
type=note_on channel=4 note=47 velocity=0 time=0 actual_time=77376
type=note_on channel=4 note=47 velocity=80 time=24 actual_time=77400
type=note_on channel=4 note=54 velocity=80 time=0 actual_time=77400
type=note_on channel=4 note=54 velocity=0 time=48 actual_time=77448
type=note_on channel=4 note=47 velocity=0 time=0 actual_time=77448
type=note_on channel=4 note=47 velocity=80 time=12 actual_time=77460
type=note_on channel=4 note=54 velocity=80 time=0 actual_time=77460
type=note_on channel=4 note=54 velocity=0 time=48 actual_time=77508
type=note_on channel=4 note=47 velocity=0 time=0 actual_time=77508
type=note_on channel=4 note=47 velocity=80 time=12 actual_time=77520
type=note_on channel=4 note=59 velocity=80 time=0 actual_time=77520
type=note_on channel=4 note=54 velocity=80 time=0 actual_time=77520
type=note_on channel=4 note=54 velocity=0 time=96 actual_time=77616
type=note_on channel=4 note=59 velocity=0 time=0 actual_time=77616
type=note_on channel=4 note=47 velocity=0 time=0 actual_time=77616
type=note_on channel=4 note=47 velocity=80 time=24 actual_time=77640
type=note_on channel=4 note=54 velocity=80 time=0 actual_time=77640
type=note_on channel=4 note=54 velocity=0 time=48 actual_time=77688
type=note_on channel=4 note=47 velocity=0 time=0 actual_time=77688
type=note_on channel=4 note=47 velocity=80 time=12 actual_time=77700
type=note_on channel=4 note=54 velocity=80 time=0 actual_time=77700
type=note_on channel=4 note=54 velocity=0 time=48 actual_time=77748
type=note_on channel=4 note=47 velocity=0 time=0 actual_time=77748
type=note_on channel=4 note=43 velocity=80 time=12 actual_time=77760
type=note_on channel=4 note=55 velocity=80 time=0 actual_time=77760
type=note_on channel=4 note=50 velocity=80 time=0 actual_time=77760
type=note_on channel=4 note=50 velocity=0 time=96 actual_time=77856
type=note_on channel=4 note=55 velocity=0 time=0 actual_time=77856
type=note_on channel=4 note=43 velocity=0 time=0 actual_time=77856
type=note_on channel=4 note=43 velocity=80 time=24 actual_time=77880
type=note_on channel=4 note=50 velocity=80 time=0 actual_time=77880
type=note_on channel=4 note=50 velocity=0 time=48 actual_time=77928
type=note_on channel=4 note=43 velocity=0 time=0 actual_time=77928
type=note_on channel=4 note=43 velocity=80 time=12 actual_time=77940
type=note_on channel=4 note=50 velocity=80 time=0 actual_time=77940
type=note_on channel=4 note=50 velocity=0 time=48 actual_time=77988
type=note_on channel=4 note=43 velocity=0 time=0 actual_time=77988
type=note_on channel=4 note=43 velocity=80 time=12 actual_time=78000
type=note_on channel=4 note=55 velocity=80 time=0 actual_time=78000
type=note_on channel=4 note=50 velocity=80 time=0 actual_time=78000
type=note_on channel=4 note=50 velocity=0 time=96 actual_time=78096
type=note_on channel=4 note=55 velocity=0 time=0 actual_time=78096
type=note_on channel=4 note=43 velocity=0 time=0 actual_time=78096
type=note_on channel=4 note=43 velocity=80 time=24 actual_time=78120
type=note_on channel=4 note=50 velocity=80 time=0 actual_time=78120
type=note_on channel=4 note=50 velocity=0 time=48 actual_time=78168
type=note_on channel=4 note=43 velocity=0 time=0 actual_time=78168
type=note_on channel=4 note=43 velocity=80 time=12 actual_time=78180
type=note_on channel=4 note=50 velocity=80 time=0 actual_time=78180
type=note_on channel=4 note=50 velocity=0 time=48 actual_time=78228
type=note_on channel=4 note=43 velocity=0 time=0 actual_time=78228
type=note_on channel=4 note=45 velocity=80 time=12 actual_time=78240
type=note_on channel=4 note=57 velocity=80 time=0 actual_time=78240
type=note_on channel=4 note=52 velocity=80 time=0 actual_time=78240
type=note_on channel=4 note=52 velocity=0 time=96 actual_time=78336
type=note_on channel=4 note=57 velocity=0 time=0 actual_time=78336
type=note_on channel=4 note=45 velocity=0 time=0 actual_time=78336
type=note_on channel=4 note=45 velocity=80 time=24 actual_time=78360
type=note_on channel=4 note=52 velocity=80 time=0 actual_time=78360
type=note_on channel=4 note=52 velocity=0 time=48 actual_time=78408
type=note_on channel=4 note=45 velocity=0 time=0 actual_time=78408
type=note_on channel=4 note=45 velocity=80 time=12 actual_time=78420
type=note_on channel=4 note=52 velocity=80 time=0 actual_time=78420
type=note_on channel=4 note=52 velocity=0 time=48 actual_time=78468
type=note_on channel=4 note=45 velocity=0 time=0 actual_time=78468
type=note_on channel=4 note=45 velocity=80 time=12 actual_time=78480
type=note_on channel=4 note=57 velocity=80 time=0 actual_time=78480
type=note_on channel=4 note=52 velocity=80 time=0 actual_time=78480
type=note_on channel=4 note=52 velocity=0 time=96 actual_time=78576
type=note_on channel=4 note=57 velocity=0 time=0 actual_time=78576
type=note_on channel=4 note=45 velocity=0 time=0 actual_time=78576
type=note_on channel=4 note=45 velocity=80 time=24 actual_time=78600
type=note_on channel=4 note=52 velocity=80 time=0 actual_time=78600
type=note_on channel=4 note=52 velocity=0 time=48 actual_time=78648
type=note_on channel=4 note=45 velocity=0 time=0 actual_time=78648
type=note_on channel=4 note=45 velocity=80 time=12 actual_time=78660
type=note_on channel=4 note=52 velocity=80 time=0 actual_time=78660
type=note_on channel=4 note=52 velocity=0 time=48 actual_time=78708
type=note_on channel=4 note=45 velocity=0 time=0 actual_time=78708
type=note_on channel=4 note=54 velocity=80 time=12 actual_time=78720
type=note_on channel=4 note=59 velocity=80 time=0 actual_time=78720
type=note_on channel=4 note=47 velocity=80 time=0 actual_time=78720
type=note_on channel=4 note=47 velocity=0 time=96 actual_time=78816
type=note_on channel=4 note=59 velocity=0 time=0 actual_time=78816
type=note_on channel=4 note=54 velocity=0 time=0 actual_time=78816
type=note_on channel=4 note=54 velocity=80 time=24 actual_time=78840
type=note_on channel=4 note=47 velocity=80 time=0 actual_time=78840
type=note_on channel=4 note=47 velocity=0 time=48 actual_time=78888
type=note_on channel=4 note=54 velocity=0 time=0 actual_time=78888
type=note_on channel=4 note=54 velocity=80 time=12 actual_time=78900
type=note_on channel=4 note=47 velocity=80 time=0 actual_time=78900
type=note_on channel=4 note=47 velocity=0 time=48 actual_time=78948
type=note_on channel=4 note=54 velocity=0 time=0 actual_time=78948
type=note_on channel=4 note=47 velocity=80 time=12 actual_time=78960
type=note_on channel=4 note=59 velocity=80 time=0 actual_time=78960
type=note_on channel=4 note=54 velocity=80 time=0 actual_time=78960
type=note_on channel=4 note=54 velocity=0 time=96 actual_time=79056
type=note_on channel=4 note=59 velocity=0 time=0 actual_time=79056
type=note_on channel=4 note=47 velocity=0 time=0 actual_time=79056
type=note_on channel=4 note=47 velocity=80 time=24 actual_time=79080
type=note_on channel=4 note=54 velocity=80 time=0 actual_time=79080
type=note_on channel=4 note=54 velocity=0 time=48 actual_time=79128
type=note_on channel=4 note=47 velocity=0 time=0 actual_time=79128
type=note_on channel=4 note=47 velocity=80 time=12 actual_time=79140
type=note_on channel=4 note=54 velocity=80 time=0 actual_time=79140
type=note_on channel=4 note=54 velocity=0 time=48 actual_time=79188
type=note_on channel=4 note=47 velocity=0 time=0 actual_time=79188
type=note_on channel=4 note=47 velocity=80 time=12 actual_time=79200
type=note_on channel=4 note=59 velocity=80 time=0 actual_time=79200
type=note_on channel=4 note=54 velocity=80 time=0 actual_time=79200
type=note_on channel=4 note=54 velocity=0 time=96 actual_time=79296
type=note_on channel=4 note=59 velocity=0 time=0 actual_time=79296
type=note_on channel=4 note=47 velocity=0 time=0 actual_time=79296
type=note_on channel=4 note=47 velocity=80 time=24 actual_time=79320
type=note_on channel=4 note=54 velocity=80 time=0 actual_time=79320
type=note_on channel=4 note=54 velocity=0 time=48 actual_time=79368
type=note_on channel=4 note=47 velocity=0 time=0 actual_time=79368
type=note_on channel=4 note=47 velocity=80 time=12 actual_time=79380
type=note_on channel=4 note=54 velocity=80 time=0 actual_time=79380
type=note_on channel=4 note=54 velocity=0 time=48 actual_time=79428
type=note_on channel=4 note=47 velocity=0 time=0 actual_time=79428
type=note_on channel=4 note=47 velocity=80 time=12 actual_time=79440
type=note_on channel=4 note=59 velocity=80 time=0 actual_time=79440
type=note_on channel=4 note=54 velocity=80 time=0 actual_time=79440
type=note_on channel=4 note=54 velocity=0 time=96 actual_time=79536
type=note_on channel=4 note=59 velocity=0 time=0 actual_time=79536
type=note_on channel=4 note=47 velocity=0 time=0 actual_time=79536
type=note_on channel=4 note=47 velocity=80 time=24 actual_time=79560
type=note_on channel=4 note=54 velocity=80 time=0 actual_time=79560
type=note_on channel=4 note=54 velocity=0 time=48 actual_time=79608
type=note_on channel=4 note=47 velocity=0 time=0 actual_time=79608
type=note_on channel=4 note=47 velocity=80 time=12 actual_time=79620
type=note_on channel=4 note=54 velocity=80 time=0 actual_time=79620
type=note_on channel=4 note=54 velocity=0 time=48 actual_time=79668
type=note_on channel=4 note=47 velocity=0 time=0 actual_time=79668
type=note_on channel=4 note=47 velocity=80 time=12 actual_time=79680
type=note_on channel=4 note=52 velocity=80 time=0 actual_time=79680
type=note_on channel=4 note=40 velocity=80 time=0 actual_time=79680
type=note_on channel=4 note=40 velocity=0 time=96 actual_time=79776
type=note_on channel=4 note=52 velocity=0 time=0 actual_time=79776
type=note_on channel=4 note=47 velocity=0 time=0 actual_time=79776
type=note_on channel=4 note=47 velocity=80 time=24 actual_time=79800
type=note_on channel=4 note=40 velocity=80 time=0 actual_time=79800
type=note_on channel=4 note=52 velocity=80 time=0 actual_time=79800
type=note_on channel=4 note=52 velocity=0 time=96 actual_time=79896
type=note_on channel=4 note=40 velocity=0 time=0 actual_time=79896
type=note_on channel=4 note=47 velocity=0 time=0 actual_time=79896
type=note_on channel=4 note=40 velocity=80 time=24 actual_time=79920
type=note_on channel=4 note=52 velocity=80 time=0 actual_time=79920
type=note_on channel=4 note=47 velocity=80 time=0 actual_time=79920
type=note_on channel=4 note=47 velocity=0 time=96 actual_time=80016
type=note_on channel=4 note=52 velocity=0 time=0 actual_time=80016
type=note_on channel=4 note=40 velocity=0 time=0 actual_time=80016
type=note_on channel=4 note=52 velocity=80 time=24 actual_time=80040
type=note_on channel=4 note=47 velocity=80 time=0 actual_time=80040
type=note_on channel=4 note=40 velocity=80 time=0 actual_time=80040
type=note_on channel=4 note=40 velocity=0 time=96 actual_time=80136
type=note_on channel=4 note=47 velocity=0 time=0 actual_time=80136
type=note_on channel=4 note=52 velocity=0 time=0 actual_time=80136
type=note_on channel=4 note=49 velocity=80 time=24 actual_time=80160
type=note_on channel=4 note=54 velocity=80 time=0 actual_time=80160
type=note_on channel=4 note=42 velocity=80 time=0 actual_time=80160
type=note_on channel=4 note=42 velocity=0 time=96 actual_time=80256
type=note_on channel=4 note=54 velocity=0 time=0 actual_time=80256
type=note_on channel=4 note=49 velocity=0 time=0 actual_time=80256
type=note_on channel=4 note=49 velocity=80 time=24 actual_time=80280
type=note_on channel=4 note=42 velocity=80 time=0 actual_time=80280
type=note_on channel=4 note=54 velocity=80 time=0 actual_time=80280
type=note_on channel=4 note=54 velocity=0 time=96 actual_time=80376
type=note_on channel=4 note=42 velocity=0 time=0 actual_time=80376
type=note_on channel=4 note=49 velocity=0 time=0 actual_time=80376
type=note_on channel=4 note=42 velocity=80 time=24 actual_time=80400
type=note_on channel=4 note=54 velocity=80 time=0 actual_time=80400
type=note_on channel=4 note=49 velocity=80 time=0 actual_time=80400
type=note_on channel=4 note=49 velocity=0 time=96 actual_time=80496
type=note_on channel=4 note=54 velocity=0 time=0 actual_time=80496
type=note_on channel=4 note=42 velocity=0 time=0 actual_time=80496
type=note_on channel=4 note=54 velocity=80 time=24 actual_time=80520
type=note_on channel=4 note=49 velocity=80 time=0 actual_time=80520
type=note_on channel=4 note=42 velocity=80 time=0 actual_time=80520
type=note_on channel=4 note=42 velocity=0 time=96 actual_time=80616
type=note_on channel=4 note=49 velocity=0 time=0 actual_time=80616
type=note_on channel=4 note=54 velocity=0 time=0 actual_time=80616
type=note_on channel=4 note=47 velocity=80 time=24 actual_time=80640
type=note_on channel=4 note=59 velocity=80 time=0 actual_time=80640
type=note_on channel=4 note=54 velocity=80 time=0 actual_time=80640
type=note_on channel=4 note=54 velocity=0 time=936 actual_time=81576
type=note_on channel=4 note=59 velocity=0 time=0 actual_time=81576
type=note_on channel=4 note=47 velocity=0 time=0 actual_time=81576
type=note_on channel=4 note=55 velocity=80 time=24 actual_time=81600
type=note_on channel=4 note=50 velocity=80 time=0 actual_time=81600
type=note_on channel=4 note=43 velocity=80 time=0 actual_time=81600
type=note_on channel=4 note=43 velocity=0 time=408 actual_time=82008
type=note_on channel=4 note=50 velocity=0 time=0 actual_time=82008
type=note_on channel=4 note=55 velocity=0 time=0 actual_time=82008
type=note_on channel=4 note=43 velocity=80 time=12 actual_time=82020
type=note_on channel=4 note=50 velocity=80 time=0 actual_time=82020
type=note_on channel=4 note=50 velocity=0 time=48 actual_time=82068
type=note_on channel=4 note=43 velocity=0 time=0 actual_time=82068
type=note_on channel=4 note=57 velocity=80 time=12 actual_time=82080
type=note_on channel=4 note=52 velocity=80 time=0 actual_time=82080
type=note_on channel=4 note=45 velocity=80 time=0 actual_time=82080
type=note_on channel=4 note=45 velocity=0 time=408 actual_time=82488
type=note_on channel=4 note=52 velocity=0 time=0 actual_time=82488
type=note_on channel=4 note=57 velocity=0 time=0 actual_time=82488
type=note_on channel=4 note=52 velocity=80 time=12 actual_time=82500
type=note_on channel=4 note=45 velocity=80 time=0 actual_time=82500
type=note_on channel=4 note=45 velocity=0 time=48 actual_time=82548
type=note_on channel=4 note=52 velocity=0 time=0 actual_time=82548
type=note_on channel=4 note=54 velocity=80 time=12 actual_time=82560
type=note_on channel=4 note=59 velocity=80 time=0 actual_time=82560
type=note_on channel=4 note=47 velocity=80 time=0 actual_time=82560
type=note_on channel=4 note=47 velocity=0 time=936 actual_time=83496
type=note_on channel=4 note=59 velocity=0 time=0 actual_time=83496
type=note_on channel=4 note=54 velocity=0 time=0 actual_time=83496
type=note_on channel=4 note=43 velocity=80 time=24 actual_time=83520
type=note_on channel=4 note=50 velocity=80 time=0 actual_time=83520
type=note_on channel=4 note=55 velocity=80 time=0 actual_time=83520
type=note_on channel=4 note=55 velocity=0 time=408 actual_time=83928
type=note_on channel=4 note=50 velocity=0 time=0 actual_time=83928
type=note_on channel=4 note=43 velocity=0 time=0 actual_time=83928
type=note_on channel=4 note=43 velocity=80 time=12 actual_time=83940
type=note_on channel=4 note=50 velocity=80 time=0 actual_time=83940
type=note_on channel=4 note=50 velocity=0 time=48 actual_time=83988
type=note_on channel=4 note=43 velocity=0 time=0 actual_time=83988
type=note_on channel=4 note=45 velocity=80 time=12 actual_time=84000
type=note_on channel=4 note=52 velocity=80 time=0 actual_time=84000
type=note_on channel=4 note=57 velocity=80 time=0 actual_time=84000
type=note_on channel=4 note=57 velocity=0 time=408 actual_time=84408
type=note_on channel=4 note=52 velocity=0 time=0 actual_time=84408
type=note_on channel=4 note=45 velocity=0 time=0 actual_time=84408
type=note_on channel=4 note=45 velocity=80 time=12 actual_time=84420
type=note_on channel=4 note=52 velocity=80 time=0 actual_time=84420
type=note_on channel=4 note=52 velocity=0 time=48 actual_time=84468
type=note_on channel=4 note=45 velocity=0 time=0 actual_time=84468
type=note_on channel=4 note=54 velocity=80 time=12 actual_time=84480
type=note_on channel=4 note=59 velocity=80 time=0 actual_time=84480
type=note_on channel=4 note=47 velocity=80 time=0 actual_time=84480
type=note_on channel=4 note=47 velocity=0 time=936 actual_time=85416
type=note_on channel=4 note=59 velocity=0 time=0 actual_time=85416
type=note_on channel=4 note=54 velocity=0 time=0 actual_time=85416
type=note_on channel=4 note=43 velocity=80 time=24 actual_time=85440
type=note_on channel=4 note=50 velocity=80 time=0 actual_time=85440
type=note_on channel=4 note=55 velocity=80 time=0 actual_time=85440
type=note_on channel=4 note=55 velocity=0 time=408 actual_time=85848
type=note_on channel=4 note=50 velocity=0 time=0 actual_time=85848
type=note_on channel=4 note=43 velocity=0 time=0 actual_time=85848
type=note_on channel=4 note=43 velocity=80 time=12 actual_time=85860
type=note_on channel=4 note=50 velocity=80 time=0 actual_time=85860
type=note_on channel=4 note=50 velocity=0 time=48 actual_time=85908
type=note_on channel=4 note=43 velocity=0 time=0 actual_time=85908
type=note_on channel=4 note=45 velocity=80 time=12 actual_time=85920
type=note_on channel=4 note=52 velocity=80 time=0 actual_time=85920
type=note_on channel=4 note=57 velocity=80 time=0 actual_time=85920
type=note_on channel=4 note=57 velocity=0 time=408 actual_time=86328
type=note_on channel=4 note=52 velocity=0 time=0 actual_time=86328
type=note_on channel=4 note=45 velocity=0 time=0 actual_time=86328
type=note_on channel=4 note=45 velocity=80 time=12 actual_time=86340
type=note_on channel=4 note=52 velocity=80 time=0 actual_time=86340
type=note_on channel=4 note=52 velocity=0 time=48 actual_time=86388
type=note_on channel=4 note=45 velocity=0 time=0 actual_time=86388
type=note_on channel=4 note=47 velocity=80 time=12 actual_time=86400
type=note_on channel=4 note=59 velocity=80 time=0 actual_time=86400
type=note_on channel=4 note=54 velocity=80 time=0 actual_time=86400
type=note_on channel=4 note=54 velocity=0 time=936 actual_time=87336
type=note_on channel=4 note=59 velocity=0 time=0 actual_time=87336
type=note_on channel=4 note=47 velocity=0 time=0 actual_time=87336
type=note_on channel=4 note=55 velocity=80 time=24 actual_time=87360
type=note_on channel=4 note=50 velocity=80 time=0 actual_time=87360
type=note_on channel=4 note=43 velocity=80 time=0 actual_time=87360
type=note_on channel=4 note=43 velocity=0 time=408 actual_time=87768
type=note_on channel=4 note=50 velocity=0 time=0 actual_time=87768
type=note_on channel=4 note=55 velocity=0 time=0 actual_time=87768
type=note_on channel=4 note=50 velocity=80 time=12 actual_time=87780
type=note_on channel=4 note=43 velocity=80 time=0 actual_time=87780
type=note_on channel=4 note=43 velocity=0 time=48 actual_time=87828
type=note_on channel=4 note=50 velocity=0 time=0 actual_time=87828
type=note_on channel=4 note=57 velocity=80 time=12 actual_time=87840
type=note_on channel=4 note=52 velocity=80 time=0 actual_time=87840
type=note_on channel=4 note=45 velocity=80 time=0 actual_time=87840
type=note_on channel=4 note=45 velocity=0 time=468 actual_time=88308
type=note_on channel=4 note=52 velocity=0 time=0 actual_time=88308
type=note_on channel=4 note=57 velocity=0 time=0 actual_time=88308
type=note_on channel=4 note=59 velocity=80 time=12 actual_time=88320
type=note_on channel=4 note=54 velocity=80 time=0 actual_time=88320
type=note_on channel=4 note=47 velocity=80 time=0 actual_time=88320
type=note_on channel=4 note=47 velocity=0 time=3648 actual_time=91968
type=note_on channel=4 note=54 velocity=0 time=0 actual_time=91968
type=note_on channel=4 note=59 velocity=0 time=0 actual_time=91968
MetaMessage type: end_of_track, time: 0, actual_time: 91968
MetaMessage type: track_name, time: 0, actual_time: 0
type: program_change, time: 0, actual_time: 0
type=control_change channel=5 control=7 value=114 time=0 actual_time=0
type=note_on channel=5 note=47 velocity=80 time=15360 actual_time=15360
type=note_on channel=5 note=54 velocity=80 time=0 actual_time=15360
type=note_on channel=5 note=59 velocity=80 time=0 actual_time=15360
type=note_on channel=5 note=59 velocity=0 time=3648 actual_time=19008
type=note_on channel=5 note=54 velocity=0 time=0 actual_time=19008
type=note_on channel=5 note=47 velocity=0 time=0 actual_time=19008
type=note_on channel=5 note=45 velocity=80 time=7392 actual_time=26400
type=note_on channel=5 note=52 velocity=80 time=0 actual_time=26400
type=note_on channel=5 note=52 velocity=0 time=32 actual_time=26432
type=note_on channel=5 note=45 velocity=0 time=0 actual_time=26432
type=note_on channel=5 note=45 velocity=80 time=8 actual_time=26440
type=note_on channel=5 note=52 velocity=80 time=0 actual_time=26440
type=note_on channel=5 note=52 velocity=0 time=32 actual_time=26472
type=note_on channel=5 note=45 velocity=0 time=0 actual_time=26472
type=note_on channel=5 note=52 velocity=80 time=8 actual_time=26480
type=note_on channel=5 note=45 velocity=80 time=0 actual_time=26480
type=note_on channel=5 note=45 velocity=0 time=32 actual_time=26512
type=note_on channel=5 note=52 velocity=0 time=0 actual_time=26512
type=note_on channel=5 note=45 velocity=80 time=8 actual_time=26520
type=note_on channel=5 note=52 velocity=80 time=0 actual_time=26520
type=note_on channel=5 note=52 velocity=0 time=32 actual_time=26552
type=note_on channel=5 note=45 velocity=0 time=0 actual_time=26552
type=note_on channel=5 note=45 velocity=80 time=8 actual_time=26560
type=note_on channel=5 note=52 velocity=80 time=0 actual_time=26560
type=note_on channel=5 note=52 velocity=0 time=32 actual_time=26592
type=note_on channel=5 note=45 velocity=0 time=0 actual_time=26592
type=note_on channel=5 note=45 velocity=80 time=8 actual_time=26600
type=note_on channel=5 note=52 velocity=80 time=0 actual_time=26600
type=note_on channel=5 note=52 velocity=0 time=32 actual_time=26632
type=note_on channel=5 note=45 velocity=0 time=0 actual_time=26632
type=note_on channel=5 note=45 velocity=80 time=8 actual_time=26640
type=note_on channel=5 note=52 velocity=80 time=0 actual_time=26640
type=note_on channel=5 note=52 velocity=0 time=32 actual_time=26672
type=note_on channel=5 note=45 velocity=0 time=0 actual_time=26672
type=note_on channel=5 note=45 velocity=80 time=8 actual_time=26680
type=note_on channel=5 note=52 velocity=80 time=0 actual_time=26680
type=note_on channel=5 note=52 velocity=0 time=32 actual_time=26712
type=note_on channel=5 note=45 velocity=0 time=0 actual_time=26712
type=note_on channel=5 note=45 velocity=80 time=8 actual_time=26720
type=note_on channel=5 note=52 velocity=80 time=0 actual_time=26720
type=note_on channel=5 note=52 velocity=0 time=32 actual_time=26752
type=note_on channel=5 note=45 velocity=0 time=0 actual_time=26752
type=note_on channel=5 note=45 velocity=80 time=8 actual_time=26760
type=note_on channel=5 note=52 velocity=80 time=0 actual_time=26760
type=note_on channel=5 note=52 velocity=0 time=32 actual_time=26792
type=note_on channel=5 note=45 velocity=0 time=0 actual_time=26792
type=note_on channel=5 note=52 velocity=80 time=8 actual_time=26800
type=note_on channel=5 note=45 velocity=80 time=0 actual_time=26800
type=note_on channel=5 note=45 velocity=0 time=32 actual_time=26832
type=note_on channel=5 note=52 velocity=0 time=0 actual_time=26832
type=note_on channel=5 note=52 velocity=80 time=8 actual_time=26840
type=note_on channel=5 note=45 velocity=80 time=0 actual_time=26840
type=note_on channel=5 note=45 velocity=0 time=32 actual_time=26872
type=note_on channel=5 note=52 velocity=0 time=0 actual_time=26872
type=note_on channel=5 note=54 velocity=80 time=8 actual_time=26880
type=note_on channel=5 note=59 velocity=80 time=0 actual_time=26880
type=note_on channel=5 note=47 velocity=80 time=0 actual_time=26880
type=note_on channel=5 note=47 velocity=0 time=96 actual_time=26976
type=note_on channel=5 note=59 velocity=0 time=0 actual_time=26976
type=note_on channel=5 note=54 velocity=0 time=0 actual_time=26976
type=note_on channel=5 note=54 velocity=80 time=24 actual_time=27000
type=note_on channel=5 note=47 velocity=80 time=0 actual_time=27000
type=note_on channel=5 note=47 velocity=0 time=48 actual_time=27048
type=note_on channel=5 note=54 velocity=0 time=0 actual_time=27048
type=note_on channel=5 note=54 velocity=80 time=12 actual_time=27060
type=note_on channel=5 note=47 velocity=80 time=0 actual_time=27060
type=note_on channel=5 note=47 velocity=0 time=48 actual_time=27108
type=note_on channel=5 note=54 velocity=0 time=0 actual_time=27108
type=note_on channel=5 note=47 velocity=80 time=12 actual_time=27120
type=note_on channel=5 note=59 velocity=80 time=0 actual_time=27120
type=note_on channel=5 note=54 velocity=80 time=0 actual_time=27120
type=note_on channel=5 note=54 velocity=0 time=96 actual_time=27216
type=note_on channel=5 note=59 velocity=0 time=0 actual_time=27216
type=note_on channel=5 note=47 velocity=0 time=0 actual_time=27216
type=note_on channel=5 note=47 velocity=80 time=24 actual_time=27240
type=note_on channel=5 note=54 velocity=80 time=0 actual_time=27240
type=note_on channel=5 note=54 velocity=0 time=48 actual_time=27288
type=note_on channel=5 note=47 velocity=0 time=0 actual_time=27288
type=note_on channel=5 note=47 velocity=80 time=12 actual_time=27300
type=note_on channel=5 note=54 velocity=80 time=0 actual_time=27300
type=note_on channel=5 note=54 velocity=0 time=48 actual_time=27348
type=note_on channel=5 note=47 velocity=0 time=0 actual_time=27348
type=note_on channel=5 note=47 velocity=80 time=12 actual_time=27360
type=note_on channel=5 note=59 velocity=80 time=0 actual_time=27360
type=note_on channel=5 note=54 velocity=80 time=0 actual_time=27360
type=note_on channel=5 note=54 velocity=0 time=96 actual_time=27456
type=note_on channel=5 note=59 velocity=0 time=0 actual_time=27456
type=note_on channel=5 note=47 velocity=0 time=0 actual_time=27456
type=note_on channel=5 note=54 velocity=80 time=24 actual_time=27480
type=note_on channel=5 note=47 velocity=80 time=0 actual_time=27480
type=note_on channel=5 note=47 velocity=0 time=48 actual_time=27528
type=note_on channel=5 note=54 velocity=0 time=0 actual_time=27528
type=note_on channel=5 note=47 velocity=80 time=12 actual_time=27540
type=note_on channel=5 note=54 velocity=80 time=0 actual_time=27540
type=note_on channel=5 note=54 velocity=0 time=48 actual_time=27588
type=note_on channel=5 note=47 velocity=0 time=0 actual_time=27588
type=note_on channel=5 note=47 velocity=80 time=12 actual_time=27600
type=note_on channel=5 note=59 velocity=80 time=0 actual_time=27600
type=note_on channel=5 note=54 velocity=80 time=0 actual_time=27600
type=note_on channel=5 note=54 velocity=0 time=96 actual_time=27696
type=note_on channel=5 note=59 velocity=0 time=0 actual_time=27696
type=note_on channel=5 note=47 velocity=0 time=0 actual_time=27696
type=note_on channel=5 note=54 velocity=80 time=24 actual_time=27720
type=note_on channel=5 note=47 velocity=80 time=0 actual_time=27720
type=note_on channel=5 note=47 velocity=0 time=48 actual_time=27768
type=note_on channel=5 note=54 velocity=0 time=0 actual_time=27768
type=note_on channel=5 note=47 velocity=80 time=12 actual_time=27780
type=note_on channel=5 note=54 velocity=80 time=0 actual_time=27780
type=note_on channel=5 note=54 velocity=0 time=48 actual_time=27828
type=note_on channel=5 note=47 velocity=0 time=0 actual_time=27828
type=note_on channel=5 note=43 velocity=80 time=12 actual_time=27840
type=note_on channel=5 note=55 velocity=80 time=0 actual_time=27840
type=note_on channel=5 note=50 velocity=80 time=0 actual_time=27840
type=note_on channel=5 note=50 velocity=0 time=96 actual_time=27936
type=note_on channel=5 note=55 velocity=0 time=0 actual_time=27936
type=note_on channel=5 note=43 velocity=0 time=0 actual_time=27936
type=note_on channel=5 note=43 velocity=80 time=24 actual_time=27960
type=note_on channel=5 note=50 velocity=80 time=0 actual_time=27960
type=note_on channel=5 note=50 velocity=0 time=48 actual_time=28008
type=note_on channel=5 note=43 velocity=0 time=0 actual_time=28008
type=note_on channel=5 note=43 velocity=80 time=12 actual_time=28020
type=note_on channel=5 note=50 velocity=80 time=0 actual_time=28020
type=note_on channel=5 note=50 velocity=0 time=48 actual_time=28068
type=note_on channel=5 note=43 velocity=0 time=0 actual_time=28068
type=note_on channel=5 note=43 velocity=80 time=12 actual_time=28080
type=note_on channel=5 note=55 velocity=80 time=0 actual_time=28080
type=note_on channel=5 note=50 velocity=80 time=0 actual_time=28080
type=note_on channel=5 note=50 velocity=0 time=96 actual_time=28176
type=note_on channel=5 note=55 velocity=0 time=0 actual_time=28176
type=note_on channel=5 note=43 velocity=0 time=0 actual_time=28176
type=note_on channel=5 note=50 velocity=80 time=24 actual_time=28200
type=note_on channel=5 note=43 velocity=80 time=0 actual_time=28200
type=note_on channel=5 note=43 velocity=0 time=48 actual_time=28248
type=note_on channel=5 note=50 velocity=0 time=0 actual_time=28248
type=note_on channel=5 note=50 velocity=80 time=12 actual_time=28260
type=note_on channel=5 note=43 velocity=80 time=0 actual_time=28260
type=note_on channel=5 note=43 velocity=0 time=48 actual_time=28308
type=note_on channel=5 note=50 velocity=0 time=0 actual_time=28308
type=note_on channel=5 note=52 velocity=80 time=12 actual_time=28320
type=note_on channel=5 note=57 velocity=80 time=0 actual_time=28320
type=note_on channel=5 note=45 velocity=80 time=0 actual_time=28320
type=note_on channel=5 note=45 velocity=0 time=96 actual_time=28416
type=note_on channel=5 note=57 velocity=0 time=0 actual_time=28416
type=note_on channel=5 note=52 velocity=0 time=0 actual_time=28416
type=note_on channel=5 note=52 velocity=80 time=24 actual_time=28440
type=note_on channel=5 note=45 velocity=80 time=0 actual_time=28440
type=note_on channel=5 note=45 velocity=0 time=48 actual_time=28488
type=note_on channel=5 note=52 velocity=0 time=0 actual_time=28488
type=note_on channel=5 note=45 velocity=80 time=12 actual_time=28500
type=note_on channel=5 note=52 velocity=80 time=0 actual_time=28500
type=note_on channel=5 note=52 velocity=0 time=48 actual_time=28548
type=note_on channel=5 note=45 velocity=0 time=0 actual_time=28548
type=note_on channel=5 note=52 velocity=80 time=12 actual_time=28560
type=note_on channel=5 note=57 velocity=80 time=0 actual_time=28560
type=note_on channel=5 note=45 velocity=80 time=0 actual_time=28560
type=note_on channel=5 note=45 velocity=0 time=96 actual_time=28656
type=note_on channel=5 note=57 velocity=0 time=0 actual_time=28656
type=note_on channel=5 note=52 velocity=0 time=0 actual_time=28656
type=note_on channel=5 note=52 velocity=80 time=24 actual_time=28680
type=note_on channel=5 note=45 velocity=80 time=0 actual_time=28680
type=note_on channel=5 note=45 velocity=0 time=48 actual_time=28728
type=note_on channel=5 note=52 velocity=0 time=0 actual_time=28728
type=note_on channel=5 note=45 velocity=80 time=12 actual_time=28740
type=note_on channel=5 note=52 velocity=80 time=0 actual_time=28740
type=note_on channel=5 note=52 velocity=0 time=48 actual_time=28788
type=note_on channel=5 note=45 velocity=0 time=0 actual_time=28788
type=note_on channel=5 note=47 velocity=80 time=12 actual_time=28800
type=note_on channel=5 note=59 velocity=80 time=0 actual_time=28800
type=note_on channel=5 note=54 velocity=80 time=0 actual_time=28800
type=note_on channel=5 note=54 velocity=0 time=96 actual_time=28896
type=note_on channel=5 note=59 velocity=0 time=0 actual_time=28896
type=note_on channel=5 note=47 velocity=0 time=0 actual_time=28896
type=note_on channel=5 note=47 velocity=80 time=24 actual_time=28920
type=note_on channel=5 note=54 velocity=80 time=0 actual_time=28920
type=note_on channel=5 note=54 velocity=0 time=48 actual_time=28968
type=note_on channel=5 note=47 velocity=0 time=0 actual_time=28968
type=note_on channel=5 note=47 velocity=80 time=12 actual_time=28980
type=note_on channel=5 note=54 velocity=80 time=0 actual_time=28980
type=note_on channel=5 note=54 velocity=0 time=48 actual_time=29028
type=note_on channel=5 note=47 velocity=0 time=0 actual_time=29028
type=note_on channel=5 note=54 velocity=80 time=12 actual_time=29040
type=note_on channel=5 note=59 velocity=80 time=0 actual_time=29040
type=note_on channel=5 note=47 velocity=80 time=0 actual_time=29040
type=note_on channel=5 note=47 velocity=0 time=96 actual_time=29136
type=note_on channel=5 note=59 velocity=0 time=0 actual_time=29136
type=note_on channel=5 note=54 velocity=0 time=0 actual_time=29136
type=note_on channel=5 note=54 velocity=80 time=24 actual_time=29160
type=note_on channel=5 note=47 velocity=80 time=0 actual_time=29160
type=note_on channel=5 note=47 velocity=0 time=48 actual_time=29208
type=note_on channel=5 note=54 velocity=0 time=0 actual_time=29208
type=note_on channel=5 note=54 velocity=80 time=12 actual_time=29220
type=note_on channel=5 note=47 velocity=80 time=0 actual_time=29220
type=note_on channel=5 note=47 velocity=0 time=48 actual_time=29268
type=note_on channel=5 note=54 velocity=0 time=0 actual_time=29268
type=note_on channel=5 note=54 velocity=80 time=12 actual_time=29280
type=note_on channel=5 note=59 velocity=80 time=0 actual_time=29280
type=note_on channel=5 note=47 velocity=80 time=0 actual_time=29280
type=note_on channel=5 note=47 velocity=0 time=96 actual_time=29376
type=note_on channel=5 note=59 velocity=0 time=0 actual_time=29376
type=note_on channel=5 note=54 velocity=0 time=0 actual_time=29376
type=note_on channel=5 note=54 velocity=80 time=24 actual_time=29400
type=note_on channel=5 note=47 velocity=80 time=0 actual_time=29400
type=note_on channel=5 note=47 velocity=0 time=48 actual_time=29448
type=note_on channel=5 note=54 velocity=0 time=0 actual_time=29448
type=note_on channel=5 note=54 velocity=80 time=12 actual_time=29460
type=note_on channel=5 note=47 velocity=80 time=0 actual_time=29460
type=note_on channel=5 note=47 velocity=0 time=48 actual_time=29508
type=note_on channel=5 note=54 velocity=0 time=0 actual_time=29508
type=note_on channel=5 note=54 velocity=80 time=12 actual_time=29520
type=note_on channel=5 note=59 velocity=80 time=0 actual_time=29520
type=note_on channel=5 note=47 velocity=80 time=0 actual_time=29520
type=note_on channel=5 note=47 velocity=0 time=96 actual_time=29616
type=note_on channel=5 note=59 velocity=0 time=0 actual_time=29616
type=note_on channel=5 note=54 velocity=0 time=0 actual_time=29616
type=note_on channel=5 note=54 velocity=80 time=24 actual_time=29640
type=note_on channel=5 note=47 velocity=80 time=0 actual_time=29640
type=note_on channel=5 note=47 velocity=0 time=48 actual_time=29688
type=note_on channel=5 note=54 velocity=0 time=0 actual_time=29688
type=note_on channel=5 note=54 velocity=80 time=12 actual_time=29700
type=note_on channel=5 note=47 velocity=80 time=0 actual_time=29700
type=note_on channel=5 note=47 velocity=0 time=48 actual_time=29748
type=note_on channel=5 note=54 velocity=0 time=0 actual_time=29748
type=note_on channel=5 note=47 velocity=80 time=12 actual_time=29760
type=note_on channel=5 note=52 velocity=80 time=0 actual_time=29760
type=note_on channel=5 note=40 velocity=80 time=0 actual_time=29760
type=note_on channel=5 note=40 velocity=0 time=96 actual_time=29856
type=note_on channel=5 note=52 velocity=0 time=0 actual_time=29856
type=note_on channel=5 note=47 velocity=0 time=0 actual_time=29856
type=note_on channel=5 note=47 velocity=80 time=24 actual_time=29880
type=note_on channel=5 note=40 velocity=80 time=0 actual_time=29880
type=note_on channel=5 note=40 velocity=0 time=48 actual_time=29928
type=note_on channel=5 note=47 velocity=0 time=0 actual_time=29928
type=note_on channel=5 note=47 velocity=80 time=12 actual_time=29940
type=note_on channel=5 note=40 velocity=80 time=0 actual_time=29940
type=note_on channel=5 note=40 velocity=0 time=48 actual_time=29988
type=note_on channel=5 note=47 velocity=0 time=0 actual_time=29988
type=note_on channel=5 note=47 velocity=80 time=12 actual_time=30000
type=note_on channel=5 note=52 velocity=80 time=0 actual_time=30000
type=note_on channel=5 note=40 velocity=80 time=0 actual_time=30000
type=note_on channel=5 note=40 velocity=0 time=96 actual_time=30096
type=note_on channel=5 note=52 velocity=0 time=0 actual_time=30096
type=note_on channel=5 note=47 velocity=0 time=0 actual_time=30096
type=note_on channel=5 note=47 velocity=80 time=24 actual_time=30120
type=note_on channel=5 note=40 velocity=80 time=0 actual_time=30120
type=note_on channel=5 note=40 velocity=0 time=48 actual_time=30168
type=note_on channel=5 note=47 velocity=0 time=0 actual_time=30168
type=note_on channel=5 note=47 velocity=80 time=12 actual_time=30180
type=note_on channel=5 note=40 velocity=80 time=0 actual_time=30180
type=note_on channel=5 note=40 velocity=0 time=48 actual_time=30228
type=note_on channel=5 note=47 velocity=0 time=0 actual_time=30228
type=note_on channel=5 note=49 velocity=80 time=12 actual_time=30240
type=note_on channel=5 note=54 velocity=80 time=0 actual_time=30240
type=note_on channel=5 note=42 velocity=80 time=0 actual_time=30240
type=note_on channel=5 note=42 velocity=0 time=96 actual_time=30336
type=note_on channel=5 note=54 velocity=0 time=0 actual_time=30336
type=note_on channel=5 note=49 velocity=0 time=0 actual_time=30336
type=note_on channel=5 note=49 velocity=80 time=24 actual_time=30360
type=note_on channel=5 note=42 velocity=80 time=0 actual_time=30360
type=note_on channel=5 note=42 velocity=0 time=48 actual_time=30408
type=note_on channel=5 note=49 velocity=0 time=0 actual_time=30408
type=note_on channel=5 note=49 velocity=80 time=12 actual_time=30420
type=note_on channel=5 note=42 velocity=80 time=0 actual_time=30420
type=note_on channel=5 note=42 velocity=0 time=48 actual_time=30468
type=note_on channel=5 note=49 velocity=0 time=0 actual_time=30468
type=note_on channel=5 note=49 velocity=80 time=12 actual_time=30480
type=note_on channel=5 note=54 velocity=80 time=0 actual_time=30480
type=note_on channel=5 note=42 velocity=80 time=0 actual_time=30480
type=note_on channel=5 note=42 velocity=0 time=96 actual_time=30576
type=note_on channel=5 note=54 velocity=0 time=0 actual_time=30576
type=note_on channel=5 note=49 velocity=0 time=0 actual_time=30576
type=note_on channel=5 note=49 velocity=80 time=24 actual_time=30600
type=note_on channel=5 note=42 velocity=80 time=0 actual_time=30600
type=note_on channel=5 note=42 velocity=0 time=48 actual_time=30648
type=note_on channel=5 note=49 velocity=0 time=0 actual_time=30648
type=note_on channel=5 note=49 velocity=80 time=12 actual_time=30660
type=note_on channel=5 note=42 velocity=80 time=0 actual_time=30660
type=note_on channel=5 note=42 velocity=0 time=48 actual_time=30708
type=note_on channel=5 note=49 velocity=0 time=0 actual_time=30708
type=note_on channel=5 note=47 velocity=80 time=12 actual_time=30720
type=note_on channel=5 note=59 velocity=80 time=0 actual_time=30720
type=note_on channel=5 note=54 velocity=80 time=0 actual_time=30720
type=note_on channel=5 note=54 velocity=0 time=96 actual_time=30816
type=note_on channel=5 note=59 velocity=0 time=0 actual_time=30816
type=note_on channel=5 note=47 velocity=0 time=0 actual_time=30816
type=note_on channel=5 note=47 velocity=80 time=24 actual_time=30840
type=note_on channel=5 note=54 velocity=80 time=0 actual_time=30840
type=note_on channel=5 note=54 velocity=0 time=48 actual_time=30888
type=note_on channel=5 note=47 velocity=0 time=0 actual_time=30888
type=note_on channel=5 note=47 velocity=80 time=12 actual_time=30900
type=note_on channel=5 note=54 velocity=80 time=0 actual_time=30900
type=note_on channel=5 note=54 velocity=0 time=48 actual_time=30948
type=note_on channel=5 note=47 velocity=0 time=0 actual_time=30948
type=note_on channel=5 note=54 velocity=80 time=12 actual_time=30960
type=note_on channel=5 note=59 velocity=80 time=0 actual_time=30960
type=note_on channel=5 note=47 velocity=80 time=0 actual_time=30960
type=note_on channel=5 note=47 velocity=0 time=96 actual_time=31056
type=note_on channel=5 note=59 velocity=0 time=0 actual_time=31056
type=note_on channel=5 note=54 velocity=0 time=0 actual_time=31056
type=note_on channel=5 note=54 velocity=80 time=24 actual_time=31080
type=note_on channel=5 note=47 velocity=80 time=0 actual_time=31080
type=note_on channel=5 note=47 velocity=0 time=48 actual_time=31128
type=note_on channel=5 note=54 velocity=0 time=0 actual_time=31128
type=note_on channel=5 note=54 velocity=80 time=12 actual_time=31140
type=note_on channel=5 note=47 velocity=80 time=0 actual_time=31140
type=note_on channel=5 note=47 velocity=0 time=48 actual_time=31188
type=note_on channel=5 note=54 velocity=0 time=0 actual_time=31188
type=note_on channel=5 note=54 velocity=80 time=12 actual_time=31200
type=note_on channel=5 note=59 velocity=80 time=0 actual_time=31200
type=note_on channel=5 note=47 velocity=80 time=0 actual_time=31200
type=note_on channel=5 note=47 velocity=0 time=96 actual_time=31296
type=note_on channel=5 note=59 velocity=0 time=0 actual_time=31296
type=note_on channel=5 note=54 velocity=0 time=0 actual_time=31296
type=note_on channel=5 note=54 velocity=80 time=24 actual_time=31320
type=note_on channel=5 note=47 velocity=80 time=0 actual_time=31320
type=note_on channel=5 note=47 velocity=0 time=48 actual_time=31368
type=note_on channel=5 note=54 velocity=0 time=0 actual_time=31368
type=note_on channel=5 note=54 velocity=80 time=12 actual_time=31380
type=note_on channel=5 note=47 velocity=80 time=0 actual_time=31380
type=note_on channel=5 note=47 velocity=0 time=48 actual_time=31428
type=note_on channel=5 note=54 velocity=0 time=0 actual_time=31428
type=note_on channel=5 note=54 velocity=80 time=12 actual_time=31440
type=note_on channel=5 note=59 velocity=80 time=0 actual_time=31440
type=note_on channel=5 note=47 velocity=80 time=0 actual_time=31440
type=note_on channel=5 note=47 velocity=0 time=96 actual_time=31536
type=note_on channel=5 note=59 velocity=0 time=0 actual_time=31536
type=note_on channel=5 note=54 velocity=0 time=0 actual_time=31536
type=note_on channel=5 note=54 velocity=80 time=24 actual_time=31560
type=note_on channel=5 note=47 velocity=80 time=0 actual_time=31560
type=note_on channel=5 note=47 velocity=0 time=48 actual_time=31608
type=note_on channel=5 note=54 velocity=0 time=0 actual_time=31608
type=note_on channel=5 note=54 velocity=80 time=12 actual_time=31620
type=note_on channel=5 note=47 velocity=80 time=0 actual_time=31620
type=note_on channel=5 note=47 velocity=0 time=48 actual_time=31668
type=note_on channel=5 note=54 velocity=0 time=0 actual_time=31668
type=note_on channel=5 note=50 velocity=80 time=12 actual_time=31680
type=note_on channel=5 note=55 velocity=80 time=0 actual_time=31680
type=note_on channel=5 note=43 velocity=80 time=0 actual_time=31680
type=note_on channel=5 note=43 velocity=0 time=96 actual_time=31776
type=note_on channel=5 note=55 velocity=0 time=0 actual_time=31776
type=note_on channel=5 note=50 velocity=0 time=0 actual_time=31776
type=note_on channel=5 note=50 velocity=80 time=24 actual_time=31800
type=note_on channel=5 note=43 velocity=80 time=0 actual_time=31800
type=note_on channel=5 note=43 velocity=0 time=48 actual_time=31848
type=note_on channel=5 note=50 velocity=0 time=0 actual_time=31848
type=note_on channel=5 note=50 velocity=80 time=12 actual_time=31860
type=note_on channel=5 note=43 velocity=80 time=0 actual_time=31860
type=note_on channel=5 note=43 velocity=0 time=48 actual_time=31908
type=note_on channel=5 note=50 velocity=0 time=0 actual_time=31908
type=note_on channel=5 note=50 velocity=80 time=12 actual_time=31920
type=note_on channel=5 note=55 velocity=80 time=0 actual_time=31920
type=note_on channel=5 note=43 velocity=80 time=0 actual_time=31920
type=note_on channel=5 note=43 velocity=0 time=96 actual_time=32016
type=note_on channel=5 note=55 velocity=0 time=0 actual_time=32016
type=note_on channel=5 note=50 velocity=0 time=0 actual_time=32016
type=note_on channel=5 note=50 velocity=80 time=24 actual_time=32040
type=note_on channel=5 note=43 velocity=80 time=0 actual_time=32040
type=note_on channel=5 note=43 velocity=0 time=48 actual_time=32088
type=note_on channel=5 note=50 velocity=0 time=0 actual_time=32088
type=note_on channel=5 note=50 velocity=80 time=12 actual_time=32100
type=note_on channel=5 note=43 velocity=80 time=0 actual_time=32100
type=note_on channel=5 note=43 velocity=0 time=48 actual_time=32148
type=note_on channel=5 note=50 velocity=0 time=0 actual_time=32148
type=note_on channel=5 note=52 velocity=80 time=12 actual_time=32160
type=note_on channel=5 note=57 velocity=80 time=0 actual_time=32160
type=note_on channel=5 note=45 velocity=80 time=0 actual_time=32160
type=note_on channel=5 note=45 velocity=0 time=96 actual_time=32256
type=note_on channel=5 note=57 velocity=0 time=0 actual_time=32256
type=note_on channel=5 note=52 velocity=0 time=0 actual_time=32256
type=note_on channel=5 note=52 velocity=80 time=24 actual_time=32280
type=note_on channel=5 note=45 velocity=80 time=0 actual_time=32280
type=note_on channel=5 note=45 velocity=0 time=48 actual_time=32328
type=note_on channel=5 note=52 velocity=0 time=0 actual_time=32328
type=note_on channel=5 note=52 velocity=80 time=12 actual_time=32340
type=note_on channel=5 note=45 velocity=80 time=0 actual_time=32340
type=note_on channel=5 note=45 velocity=0 time=48 actual_time=32388
type=note_on channel=5 note=52 velocity=0 time=0 actual_time=32388
type=note_on channel=5 note=52 velocity=80 time=12 actual_time=32400
type=note_on channel=5 note=57 velocity=80 time=0 actual_time=32400
type=note_on channel=5 note=45 velocity=80 time=0 actual_time=32400
type=note_on channel=5 note=45 velocity=0 time=96 actual_time=32496
type=note_on channel=5 note=57 velocity=0 time=0 actual_time=32496
type=note_on channel=5 note=52 velocity=0 time=0 actual_time=32496
type=note_on channel=5 note=52 velocity=80 time=24 actual_time=32520
type=note_on channel=5 note=45 velocity=80 time=0 actual_time=32520
type=note_on channel=5 note=45 velocity=0 time=48 actual_time=32568
type=note_on channel=5 note=52 velocity=0 time=0 actual_time=32568
type=note_on channel=5 note=52 velocity=80 time=12 actual_time=32580
type=note_on channel=5 note=45 velocity=80 time=0 actual_time=32580
type=note_on channel=5 note=45 velocity=0 time=48 actual_time=32628
type=note_on channel=5 note=52 velocity=0 time=0 actual_time=32628
type=note_on channel=5 note=47 velocity=80 time=12 actual_time=32640
type=note_on channel=5 note=59 velocity=80 time=0 actual_time=32640
type=note_on channel=5 note=54 velocity=80 time=0 actual_time=32640
type=note_on channel=5 note=54 velocity=0 time=96 actual_time=32736
type=note_on channel=5 note=59 velocity=0 time=0 actual_time=32736
type=note_on channel=5 note=47 velocity=0 time=0 actual_time=32736
type=note_on channel=5 note=47 velocity=80 time=24 actual_time=32760
type=note_on channel=5 note=54 velocity=80 time=0 actual_time=32760
type=note_on channel=5 note=54 velocity=0 time=48 actual_time=32808
type=note_on channel=5 note=47 velocity=0 time=0 actual_time=32808
type=note_on channel=5 note=47 velocity=80 time=12 actual_time=32820
type=note_on channel=5 note=54 velocity=80 time=0 actual_time=32820
type=note_on channel=5 note=54 velocity=0 time=48 actual_time=32868
type=note_on channel=5 note=47 velocity=0 time=0 actual_time=32868
type=note_on channel=5 note=54 velocity=80 time=12 actual_time=32880
type=note_on channel=5 note=59 velocity=80 time=0 actual_time=32880
type=note_on channel=5 note=47 velocity=80 time=0 actual_time=32880
type=note_on channel=5 note=47 velocity=0 time=96 actual_time=32976
type=note_on channel=5 note=59 velocity=0 time=0 actual_time=32976
type=note_on channel=5 note=54 velocity=0 time=0 actual_time=32976
type=note_on channel=5 note=54 velocity=80 time=24 actual_time=33000
type=note_on channel=5 note=47 velocity=80 time=0 actual_time=33000
type=note_on channel=5 note=47 velocity=0 time=48 actual_time=33048
type=note_on channel=5 note=54 velocity=0 time=0 actual_time=33048
type=note_on channel=5 note=54 velocity=80 time=12 actual_time=33060
type=note_on channel=5 note=47 velocity=80 time=0 actual_time=33060
type=note_on channel=5 note=47 velocity=0 time=48 actual_time=33108
type=note_on channel=5 note=54 velocity=0 time=0 actual_time=33108
type=note_on channel=5 note=54 velocity=80 time=12 actual_time=33120
type=note_on channel=5 note=59 velocity=80 time=0 actual_time=33120
type=note_on channel=5 note=47 velocity=80 time=0 actual_time=33120
type=note_on channel=5 note=47 velocity=0 time=96 actual_time=33216
type=note_on channel=5 note=59 velocity=0 time=0 actual_time=33216
type=note_on channel=5 note=54 velocity=0 time=0 actual_time=33216
type=note_on channel=5 note=54 velocity=80 time=24 actual_time=33240
type=note_on channel=5 note=47 velocity=80 time=0 actual_time=33240
type=note_on channel=5 note=47 velocity=0 time=48 actual_time=33288
type=note_on channel=5 note=54 velocity=0 time=0 actual_time=33288
type=note_on channel=5 note=54 velocity=80 time=12 actual_time=33300
type=note_on channel=5 note=47 velocity=80 time=0 actual_time=33300
type=note_on channel=5 note=47 velocity=0 time=48 actual_time=33348
type=note_on channel=5 note=54 velocity=0 time=0 actual_time=33348
type=note_on channel=5 note=54 velocity=80 time=12 actual_time=33360
type=note_on channel=5 note=59 velocity=80 time=0 actual_time=33360
type=note_on channel=5 note=47 velocity=80 time=0 actual_time=33360
type=note_on channel=5 note=47 velocity=0 time=96 actual_time=33456
type=note_on channel=5 note=59 velocity=0 time=0 actual_time=33456
type=note_on channel=5 note=54 velocity=0 time=0 actual_time=33456
type=note_on channel=5 note=54 velocity=80 time=24 actual_time=33480
type=note_on channel=5 note=47 velocity=80 time=0 actual_time=33480
type=note_on channel=5 note=47 velocity=0 time=48 actual_time=33528
type=note_on channel=5 note=54 velocity=0 time=0 actual_time=33528
type=note_on channel=5 note=54 velocity=80 time=12 actual_time=33540
type=note_on channel=5 note=47 velocity=80 time=0 actual_time=33540
type=note_on channel=5 note=47 velocity=0 time=48 actual_time=33588
type=note_on channel=5 note=54 velocity=0 time=0 actual_time=33588
type=note_on channel=5 note=47 velocity=80 time=12 actual_time=33600
type=note_on channel=5 note=52 velocity=80 time=0 actual_time=33600
type=note_on channel=5 note=40 velocity=80 time=0 actual_time=33600
type=note_on channel=5 note=40 velocity=0 time=96 actual_time=33696
type=note_on channel=5 note=52 velocity=0 time=0 actual_time=33696
type=note_on channel=5 note=47 velocity=0 time=0 actual_time=33696
type=note_on channel=5 note=47 velocity=80 time=24 actual_time=33720
type=note_on channel=5 note=52 velocity=80 time=0 actual_time=33720
type=note_on channel=5 note=40 velocity=80 time=0 actual_time=33720
type=note_on channel=5 note=40 velocity=0 time=96 actual_time=33816
type=note_on channel=5 note=52 velocity=0 time=0 actual_time=33816
type=note_on channel=5 note=47 velocity=0 time=0 actual_time=33816
type=note_on channel=5 note=47 velocity=80 time=24 actual_time=33840
type=note_on channel=5 note=52 velocity=80 time=0 actual_time=33840
type=note_on channel=5 note=40 velocity=80 time=0 actual_time=33840
type=note_on channel=5 note=40 velocity=0 time=96 actual_time=33936
type=note_on channel=5 note=52 velocity=0 time=0 actual_time=33936
type=note_on channel=5 note=47 velocity=0 time=0 actual_time=33936
type=note_on channel=5 note=40 velocity=80 time=24 actual_time=33960
type=note_on channel=5 note=47 velocity=80 time=0 actual_time=33960
type=note_on channel=5 note=52 velocity=80 time=0 actual_time=33960
type=note_on channel=5 note=52 velocity=0 time=96 actual_time=34056
type=note_on channel=5 note=47 velocity=0 time=0 actual_time=34056
type=note_on channel=5 note=40 velocity=0 time=0 actual_time=34056
type=note_on channel=5 note=42 velocity=80 time=24 actual_time=34080
type=note_on channel=5 note=49 velocity=80 time=0 actual_time=34080
type=note_on channel=5 note=54 velocity=80 time=0 actual_time=34080
type=note_on channel=5 note=54 velocity=0 time=96 actual_time=34176
type=note_on channel=5 note=49 velocity=0 time=0 actual_time=34176
type=note_on channel=5 note=42 velocity=0 time=0 actual_time=34176
type=note_on channel=5 note=54 velocity=80 time=24 actual_time=34200
type=note_on channel=5 note=42 velocity=80 time=0 actual_time=34200
type=note_on channel=5 note=49 velocity=80 time=0 actual_time=34200
type=note_on channel=5 note=49 velocity=0 time=96 actual_time=34296
type=note_on channel=5 note=42 velocity=0 time=0 actual_time=34296
type=note_on channel=5 note=54 velocity=0 time=0 actual_time=34296
type=note_on channel=5 note=49 velocity=80 time=24 actual_time=34320
type=note_on channel=5 note=54 velocity=80 time=0 actual_time=34320
type=note_on channel=5 note=42 velocity=80 time=0 actual_time=34320
type=note_on channel=5 note=42 velocity=0 time=96 actual_time=34416
type=note_on channel=5 note=54 velocity=0 time=0 actual_time=34416
type=note_on channel=5 note=49 velocity=0 time=0 actual_time=34416
type=note_on channel=5 note=54 velocity=80 time=24 actual_time=34440
type=note_on channel=5 note=49 velocity=80 time=0 actual_time=34440
type=note_on channel=5 note=42 velocity=80 time=0 actual_time=34440
type=note_on channel=5 note=42 velocity=0 time=96 actual_time=34536
type=note_on channel=5 note=49 velocity=0 time=0 actual_time=34536
type=note_on channel=5 note=54 velocity=0 time=0 actual_time=34536
type=note_on channel=5 note=59 velocity=80 time=24 actual_time=34560
type=note_on channel=5 note=54 velocity=80 time=0 actual_time=34560
type=note_on channel=5 note=47 velocity=80 time=0 actual_time=34560
type=note_on channel=5 note=47 velocity=0 time=3648 actual_time=38208
type=note_on channel=5 note=54 velocity=0 time=0 actual_time=38208
type=note_on channel=5 note=59 velocity=0 time=0 actual_time=38208
type=note_on channel=5 note=45 velocity=80 time=7632 actual_time=45840
type=note_on channel=5 note=52 velocity=80 time=0 actual_time=45840
type=note_on channel=5 note=57 velocity=80 time=0 actual_time=45840
type=note_on channel=5 note=57 velocity=0 time=32 actual_time=45872
type=note_on channel=5 note=52 velocity=0 time=0 actual_time=45872
type=note_on channel=5 note=45 velocity=0 time=0 actual_time=45872
type=note_on channel=5 note=52 velocity=80 time=8 actual_time=45880
type=note_on channel=5 note=45 velocity=80 time=0 actual_time=45880
type=note_on channel=5 note=57 velocity=80 time=0 actual_time=45880
type=note_on channel=5 note=57 velocity=0 time=32 actual_time=45912
type=note_on channel=5 note=45 velocity=0 time=0 actual_time=45912
type=note_on channel=5 note=52 velocity=0 time=0 actual_time=45912
type=note_on channel=5 note=52 velocity=80 time=8 actual_time=45920
type=note_on channel=5 note=45 velocity=80 time=0 actual_time=45920
type=note_on channel=5 note=57 velocity=80 time=0 actual_time=45920
type=note_on channel=5 note=57 velocity=0 time=32 actual_time=45952
type=note_on channel=5 note=45 velocity=0 time=0 actual_time=45952
type=note_on channel=5 note=52 velocity=0 time=0 actual_time=45952
type=note_on channel=5 note=52 velocity=80 time=8 actual_time=45960
type=note_on channel=5 note=45 velocity=80 time=0 actual_time=45960
type=note_on channel=5 note=57 velocity=80 time=0 actual_time=45960
type=note_on channel=5 note=57 velocity=0 time=32 actual_time=45992
type=note_on channel=5 note=45 velocity=0 time=0 actual_time=45992
type=note_on channel=5 note=52 velocity=0 time=0 actual_time=45992
type=note_on channel=5 note=52 velocity=80 time=8 actual_time=46000
type=note_on channel=5 note=45 velocity=80 time=0 actual_time=46000
type=note_on channel=5 note=57 velocity=80 time=0 actual_time=46000
type=note_on channel=5 note=57 velocity=0 time=32 actual_time=46032
type=note_on channel=5 note=45 velocity=0 time=0 actual_time=46032
type=note_on channel=5 note=52 velocity=0 time=0 actual_time=46032
type=note_on channel=5 note=52 velocity=80 time=8 actual_time=46040
type=note_on channel=5 note=45 velocity=80 time=0 actual_time=46040
type=note_on channel=5 note=57 velocity=80 time=0 actual_time=46040
type=note_on channel=5 note=57 velocity=0 time=32 actual_time=46072
type=note_on channel=5 note=45 velocity=0 time=0 actual_time=46072
type=note_on channel=5 note=52 velocity=0 time=0 actual_time=46072
type=note_on channel=5 note=47 velocity=80 time=8 actual_time=46080
type=note_on channel=5 note=59 velocity=80 time=0 actual_time=46080
type=note_on channel=5 note=54 velocity=80 time=0 actual_time=46080
type=note_on channel=5 note=54 velocity=0 time=96 actual_time=46176
type=note_on channel=5 note=59 velocity=0 time=0 actual_time=46176
type=note_on channel=5 note=47 velocity=0 time=0 actual_time=46176
type=note_on channel=5 note=47 velocity=80 time=24 actual_time=46200
type=note_on channel=5 note=54 velocity=80 time=0 actual_time=46200
type=note_on channel=5 note=54 velocity=0 time=48 actual_time=46248
type=note_on channel=5 note=47 velocity=0 time=0 actual_time=46248
type=note_on channel=5 note=47 velocity=80 time=12 actual_time=46260
type=note_on channel=5 note=54 velocity=80 time=0 actual_time=46260
type=note_on channel=5 note=54 velocity=0 time=48 actual_time=46308
type=note_on channel=5 note=47 velocity=0 time=0 actual_time=46308
type=note_on channel=5 note=54 velocity=80 time=12 actual_time=46320
type=note_on channel=5 note=59 velocity=80 time=0 actual_time=46320
type=note_on channel=5 note=47 velocity=80 time=0 actual_time=46320
type=note_on channel=5 note=47 velocity=0 time=96 actual_time=46416
type=note_on channel=5 note=59 velocity=0 time=0 actual_time=46416
type=note_on channel=5 note=54 velocity=0 time=0 actual_time=46416
type=note_on channel=5 note=54 velocity=80 time=24 actual_time=46440
type=note_on channel=5 note=47 velocity=80 time=0 actual_time=46440
type=note_on channel=5 note=47 velocity=0 time=48 actual_time=46488
type=note_on channel=5 note=54 velocity=0 time=0 actual_time=46488
type=note_on channel=5 note=54 velocity=80 time=12 actual_time=46500
type=note_on channel=5 note=47 velocity=80 time=0 actual_time=46500
type=note_on channel=5 note=47 velocity=0 time=48 actual_time=46548
type=note_on channel=5 note=54 velocity=0 time=0 actual_time=46548
type=note_on channel=5 note=54 velocity=80 time=12 actual_time=46560
type=note_on channel=5 note=59 velocity=80 time=0 actual_time=46560
type=note_on channel=5 note=47 velocity=80 time=0 actual_time=46560
type=note_on channel=5 note=47 velocity=0 time=96 actual_time=46656
type=note_on channel=5 note=59 velocity=0 time=0 actual_time=46656
type=note_on channel=5 note=54 velocity=0 time=0 actual_time=46656
type=note_on channel=5 note=54 velocity=80 time=24 actual_time=46680
type=note_on channel=5 note=47 velocity=80 time=0 actual_time=46680
type=note_on channel=5 note=47 velocity=0 time=48 actual_time=46728
type=note_on channel=5 note=54 velocity=0 time=0 actual_time=46728
type=note_on channel=5 note=54 velocity=80 time=12 actual_time=46740
type=note_on channel=5 note=47 velocity=80 time=0 actual_time=46740
type=note_on channel=5 note=47 velocity=0 time=48 actual_time=46788
type=note_on channel=5 note=54 velocity=0 time=0 actual_time=46788
type=note_on channel=5 note=54 velocity=80 time=12 actual_time=46800
type=note_on channel=5 note=59 velocity=80 time=0 actual_time=46800
type=note_on channel=5 note=47 velocity=80 time=0 actual_time=46800
type=note_on channel=5 note=47 velocity=0 time=96 actual_time=46896
type=note_on channel=5 note=59 velocity=0 time=0 actual_time=46896
type=note_on channel=5 note=54 velocity=0 time=0 actual_time=46896
type=note_on channel=5 note=54 velocity=80 time=24 actual_time=46920
type=note_on channel=5 note=47 velocity=80 time=0 actual_time=46920
type=note_on channel=5 note=47 velocity=0 time=48 actual_time=46968
type=note_on channel=5 note=54 velocity=0 time=0 actual_time=46968
type=note_on channel=5 note=54 velocity=80 time=12 actual_time=46980
type=note_on channel=5 note=47 velocity=80 time=0 actual_time=46980
type=note_on channel=5 note=47 velocity=0 time=48 actual_time=47028
type=note_on channel=5 note=54 velocity=0 time=0 actual_time=47028
type=note_on channel=5 note=50 velocity=80 time=12 actual_time=47040
type=note_on channel=5 note=55 velocity=80 time=0 actual_time=47040
type=note_on channel=5 note=43 velocity=80 time=0 actual_time=47040
type=note_on channel=5 note=43 velocity=0 time=96 actual_time=47136
type=note_on channel=5 note=55 velocity=0 time=0 actual_time=47136
type=note_on channel=5 note=50 velocity=0 time=0 actual_time=47136
type=note_on channel=5 note=50 velocity=80 time=24 actual_time=47160
type=note_on channel=5 note=43 velocity=80 time=0 actual_time=47160
type=note_on channel=5 note=43 velocity=0 time=48 actual_time=47208
type=note_on channel=5 note=50 velocity=0 time=0 actual_time=47208
type=note_on channel=5 note=50 velocity=80 time=12 actual_time=47220
type=note_on channel=5 note=43 velocity=80 time=0 actual_time=47220
type=note_on channel=5 note=43 velocity=0 time=48 actual_time=47268
type=note_on channel=5 note=50 velocity=0 time=0 actual_time=47268
type=note_on channel=5 note=50 velocity=80 time=12 actual_time=47280
type=note_on channel=5 note=55 velocity=80 time=0 actual_time=47280
type=note_on channel=5 note=43 velocity=80 time=0 actual_time=47280
type=note_on channel=5 note=43 velocity=0 time=96 actual_time=47376
type=note_on channel=5 note=55 velocity=0 time=0 actual_time=47376
type=note_on channel=5 note=50 velocity=0 time=0 actual_time=47376
type=note_on channel=5 note=50 velocity=80 time=24 actual_time=47400
type=note_on channel=5 note=43 velocity=80 time=0 actual_time=47400
type=note_on channel=5 note=43 velocity=0 time=48 actual_time=47448
type=note_on channel=5 note=50 velocity=0 time=0 actual_time=47448
type=note_on channel=5 note=50 velocity=80 time=12 actual_time=47460
type=note_on channel=5 note=43 velocity=80 time=0 actual_time=47460
type=note_on channel=5 note=43 velocity=0 time=48 actual_time=47508
type=note_on channel=5 note=50 velocity=0 time=0 actual_time=47508
type=note_on channel=5 note=52 velocity=80 time=12 actual_time=47520
type=note_on channel=5 note=57 velocity=80 time=0 actual_time=47520
type=note_on channel=5 note=45 velocity=80 time=0 actual_time=47520
type=note_on channel=5 note=45 velocity=0 time=96 actual_time=47616
type=note_on channel=5 note=57 velocity=0 time=0 actual_time=47616
type=note_on channel=5 note=52 velocity=0 time=0 actual_time=47616
type=note_on channel=5 note=52 velocity=80 time=24 actual_time=47640
type=note_on channel=5 note=45 velocity=80 time=0 actual_time=47640
type=note_on channel=5 note=45 velocity=0 time=48 actual_time=47688
type=note_on channel=5 note=52 velocity=0 time=0 actual_time=47688
type=note_on channel=5 note=52 velocity=80 time=12 actual_time=47700
type=note_on channel=5 note=45 velocity=80 time=0 actual_time=47700
type=note_on channel=5 note=45 velocity=0 time=48 actual_time=47748
type=note_on channel=5 note=52 velocity=0 time=0 actual_time=47748
type=note_on channel=5 note=52 velocity=80 time=12 actual_time=47760
type=note_on channel=5 note=57 velocity=80 time=0 actual_time=47760
type=note_on channel=5 note=45 velocity=80 time=0 actual_time=47760
type=note_on channel=5 note=45 velocity=0 time=96 actual_time=47856
type=note_on channel=5 note=57 velocity=0 time=0 actual_time=47856
type=note_on channel=5 note=52 velocity=0 time=0 actual_time=47856
type=note_on channel=5 note=52 velocity=80 time=24 actual_time=47880
type=note_on channel=5 note=45 velocity=80 time=0 actual_time=47880
type=note_on channel=5 note=45 velocity=0 time=48 actual_time=47928
type=note_on channel=5 note=52 velocity=0 time=0 actual_time=47928
type=note_on channel=5 note=52 velocity=80 time=12 actual_time=47940
type=note_on channel=5 note=45 velocity=80 time=0 actual_time=47940
type=note_on channel=5 note=45 velocity=0 time=48 actual_time=47988
type=note_on channel=5 note=52 velocity=0 time=0 actual_time=47988
type=note_on channel=5 note=54 velocity=80 time=12 actual_time=48000
type=note_on channel=5 note=59 velocity=80 time=0 actual_time=48000
type=note_on channel=5 note=47 velocity=80 time=0 actual_time=48000
type=note_on channel=5 note=47 velocity=0 time=96 actual_time=48096
type=note_on channel=5 note=59 velocity=0 time=0 actual_time=48096
type=note_on channel=5 note=54 velocity=0 time=0 actual_time=48096
type=note_on channel=5 note=54 velocity=80 time=24 actual_time=48120
type=note_on channel=5 note=47 velocity=80 time=0 actual_time=48120
type=note_on channel=5 note=47 velocity=0 time=48 actual_time=48168
type=note_on channel=5 note=54 velocity=0 time=0 actual_time=48168
type=note_on channel=5 note=54 velocity=80 time=12 actual_time=48180
type=note_on channel=5 note=47 velocity=80 time=0 actual_time=48180
type=note_on channel=5 note=47 velocity=0 time=48 actual_time=48228
type=note_on channel=5 note=54 velocity=0 time=0 actual_time=48228
type=note_on channel=5 note=47 velocity=80 time=12 actual_time=48240
type=note_on channel=5 note=59 velocity=80 time=0 actual_time=48240
type=note_on channel=5 note=54 velocity=80 time=0 actual_time=48240
type=note_on channel=5 note=54 velocity=0 time=96 actual_time=48336
type=note_on channel=5 note=59 velocity=0 time=0 actual_time=48336
type=note_on channel=5 note=47 velocity=0 time=0 actual_time=48336
type=note_on channel=5 note=47 velocity=80 time=24 actual_time=48360
type=note_on channel=5 note=54 velocity=80 time=0 actual_time=48360
type=note_on channel=5 note=54 velocity=0 time=48 actual_time=48408
type=note_on channel=5 note=47 velocity=0 time=0 actual_time=48408
type=note_on channel=5 note=47 velocity=80 time=12 actual_time=48420
type=note_on channel=5 note=54 velocity=80 time=0 actual_time=48420
type=note_on channel=5 note=54 velocity=0 time=48 actual_time=48468
type=note_on channel=5 note=47 velocity=0 time=0 actual_time=48468
type=note_on channel=5 note=47 velocity=80 time=12 actual_time=48480
type=note_on channel=5 note=59 velocity=80 time=0 actual_time=48480
type=note_on channel=5 note=54 velocity=80 time=0 actual_time=48480
type=note_on channel=5 note=54 velocity=0 time=96 actual_time=48576
type=note_on channel=5 note=59 velocity=0 time=0 actual_time=48576
type=note_on channel=5 note=47 velocity=0 time=0 actual_time=48576
type=note_on channel=5 note=47 velocity=80 time=24 actual_time=48600
type=note_on channel=5 note=54 velocity=80 time=0 actual_time=48600
type=note_on channel=5 note=54 velocity=0 time=48 actual_time=48648
type=note_on channel=5 note=47 velocity=0 time=0 actual_time=48648
type=note_on channel=5 note=47 velocity=80 time=12 actual_time=48660
type=note_on channel=5 note=54 velocity=80 time=0 actual_time=48660
type=note_on channel=5 note=54 velocity=0 time=48 actual_time=48708
type=note_on channel=5 note=47 velocity=0 time=0 actual_time=48708
type=note_on channel=5 note=47 velocity=80 time=12 actual_time=48720
type=note_on channel=5 note=59 velocity=80 time=0 actual_time=48720
type=note_on channel=5 note=54 velocity=80 time=0 actual_time=48720
type=note_on channel=5 note=54 velocity=0 time=96 actual_time=48816
type=note_on channel=5 note=59 velocity=0 time=0 actual_time=48816
type=note_on channel=5 note=47 velocity=0 time=0 actual_time=48816
type=note_on channel=5 note=47 velocity=80 time=24 actual_time=48840
type=note_on channel=5 note=54 velocity=80 time=0 actual_time=48840
type=note_on channel=5 note=54 velocity=0 time=48 actual_time=48888
type=note_on channel=5 note=47 velocity=0 time=0 actual_time=48888
type=note_on channel=5 note=47 velocity=80 time=12 actual_time=48900
type=note_on channel=5 note=54 velocity=80 time=0 actual_time=48900
type=note_on channel=5 note=54 velocity=0 time=48 actual_time=48948
type=note_on channel=5 note=47 velocity=0 time=0 actual_time=48948
type=note_on channel=5 note=40 velocity=80 time=12 actual_time=48960
type=note_on channel=5 note=52 velocity=80 time=0 actual_time=48960
type=note_on channel=5 note=47 velocity=80 time=0 actual_time=48960
type=note_on channel=5 note=47 velocity=0 time=96 actual_time=49056
type=note_on channel=5 note=52 velocity=0 time=0 actual_time=49056
type=note_on channel=5 note=40 velocity=0 time=0 actual_time=49056
type=note_on channel=5 note=40 velocity=80 time=24 actual_time=49080
type=note_on channel=5 note=47 velocity=80 time=0 actual_time=49080
type=note_on channel=5 note=47 velocity=0 time=48 actual_time=49128
type=note_on channel=5 note=40 velocity=0 time=0 actual_time=49128
type=note_on channel=5 note=40 velocity=80 time=12 actual_time=49140
type=note_on channel=5 note=47 velocity=80 time=0 actual_time=49140
type=note_on channel=5 note=47 velocity=0 time=48 actual_time=49188
type=note_on channel=5 note=40 velocity=0 time=0 actual_time=49188
type=note_on channel=5 note=40 velocity=80 time=12 actual_time=49200
type=note_on channel=5 note=52 velocity=80 time=0 actual_time=49200
type=note_on channel=5 note=47 velocity=80 time=0 actual_time=49200
type=note_on channel=5 note=47 velocity=0 time=96 actual_time=49296
type=note_on channel=5 note=52 velocity=0 time=0 actual_time=49296
type=note_on channel=5 note=40 velocity=0 time=0 actual_time=49296
type=note_on channel=5 note=40 velocity=80 time=24 actual_time=49320
type=note_on channel=5 note=47 velocity=80 time=0 actual_time=49320
type=note_on channel=5 note=47 velocity=0 time=48 actual_time=49368
type=note_on channel=5 note=40 velocity=0 time=0 actual_time=49368
type=note_on channel=5 note=40 velocity=80 time=12 actual_time=49380
type=note_on channel=5 note=47 velocity=80 time=0 actual_time=49380
type=note_on channel=5 note=47 velocity=0 time=48 actual_time=49428
type=note_on channel=5 note=40 velocity=0 time=0 actual_time=49428
type=note_on channel=5 note=42 velocity=80 time=12 actual_time=49440
type=note_on channel=5 note=54 velocity=80 time=0 actual_time=49440
type=note_on channel=5 note=49 velocity=80 time=0 actual_time=49440
type=note_on channel=5 note=49 velocity=0 time=96 actual_time=49536
type=note_on channel=5 note=54 velocity=0 time=0 actual_time=49536
type=note_on channel=5 note=42 velocity=0 time=0 actual_time=49536
type=note_on channel=5 note=42 velocity=80 time=24 actual_time=49560
type=note_on channel=5 note=49 velocity=80 time=0 actual_time=49560
type=note_on channel=5 note=49 velocity=0 time=48 actual_time=49608
type=note_on channel=5 note=42 velocity=0 time=0 actual_time=49608
type=note_on channel=5 note=42 velocity=80 time=12 actual_time=49620
type=note_on channel=5 note=49 velocity=80 time=0 actual_time=49620
type=note_on channel=5 note=49 velocity=0 time=48 actual_time=49668
type=note_on channel=5 note=42 velocity=0 time=0 actual_time=49668
type=note_on channel=5 note=42 velocity=80 time=12 actual_time=49680
type=note_on channel=5 note=54 velocity=80 time=0 actual_time=49680
type=note_on channel=5 note=49 velocity=80 time=0 actual_time=49680
type=note_on channel=5 note=49 velocity=0 time=96 actual_time=49776
type=note_on channel=5 note=54 velocity=0 time=0 actual_time=49776
type=note_on channel=5 note=42 velocity=0 time=0 actual_time=49776
type=note_on channel=5 note=42 velocity=80 time=24 actual_time=49800
type=note_on channel=5 note=49 velocity=80 time=0 actual_time=49800
type=note_on channel=5 note=49 velocity=0 time=48 actual_time=49848
type=note_on channel=5 note=42 velocity=0 time=0 actual_time=49848
type=note_on channel=5 note=42 velocity=80 time=12 actual_time=49860
type=note_on channel=5 note=49 velocity=80 time=0 actual_time=49860
type=note_on channel=5 note=49 velocity=0 time=48 actual_time=49908
type=note_on channel=5 note=42 velocity=0 time=0 actual_time=49908
type=note_on channel=5 note=54 velocity=80 time=12 actual_time=49920
type=note_on channel=5 note=59 velocity=80 time=0 actual_time=49920
type=note_on channel=5 note=47 velocity=80 time=0 actual_time=49920
type=note_on channel=5 note=47 velocity=0 time=96 actual_time=50016
type=note_on channel=5 note=59 velocity=0 time=0 actual_time=50016
type=note_on channel=5 note=54 velocity=0 time=0 actual_time=50016
type=note_on channel=5 note=54 velocity=80 time=24 actual_time=50040
type=note_on channel=5 note=47 velocity=80 time=0 actual_time=50040
type=note_on channel=5 note=47 velocity=0 time=48 actual_time=50088
type=note_on channel=5 note=54 velocity=0 time=0 actual_time=50088
type=note_on channel=5 note=54 velocity=80 time=12 actual_time=50100
type=note_on channel=5 note=47 velocity=80 time=0 actual_time=50100
type=note_on channel=5 note=47 velocity=0 time=48 actual_time=50148
type=note_on channel=5 note=54 velocity=0 time=0 actual_time=50148
type=note_on channel=5 note=47 velocity=80 time=12 actual_time=50160
type=note_on channel=5 note=59 velocity=80 time=0 actual_time=50160
type=note_on channel=5 note=54 velocity=80 time=0 actual_time=50160
type=note_on channel=5 note=54 velocity=0 time=96 actual_time=50256
type=note_on channel=5 note=59 velocity=0 time=0 actual_time=50256
type=note_on channel=5 note=47 velocity=0 time=0 actual_time=50256
type=note_on channel=5 note=47 velocity=80 time=24 actual_time=50280
type=note_on channel=5 note=54 velocity=80 time=0 actual_time=50280
type=note_on channel=5 note=54 velocity=0 time=48 actual_time=50328
type=note_on channel=5 note=47 velocity=0 time=0 actual_time=50328
type=note_on channel=5 note=47 velocity=80 time=12 actual_time=50340
type=note_on channel=5 note=54 velocity=80 time=0 actual_time=50340
type=note_on channel=5 note=54 velocity=0 time=48 actual_time=50388
type=note_on channel=5 note=47 velocity=0 time=0 actual_time=50388
type=note_on channel=5 note=47 velocity=80 time=12 actual_time=50400
type=note_on channel=5 note=59 velocity=80 time=0 actual_time=50400
type=note_on channel=5 note=54 velocity=80 time=0 actual_time=50400
type=note_on channel=5 note=54 velocity=0 time=96 actual_time=50496
type=note_on channel=5 note=59 velocity=0 time=0 actual_time=50496
type=note_on channel=5 note=47 velocity=0 time=0 actual_time=50496
type=note_on channel=5 note=47 velocity=80 time=24 actual_time=50520
type=note_on channel=5 note=54 velocity=80 time=0 actual_time=50520
type=note_on channel=5 note=54 velocity=0 time=48 actual_time=50568
type=note_on channel=5 note=47 velocity=0 time=0 actual_time=50568
type=note_on channel=5 note=47 velocity=80 time=12 actual_time=50580
type=note_on channel=5 note=54 velocity=80 time=0 actual_time=50580
type=note_on channel=5 note=54 velocity=0 time=48 actual_time=50628
type=note_on channel=5 note=47 velocity=0 time=0 actual_time=50628
type=note_on channel=5 note=47 velocity=80 time=12 actual_time=50640
type=note_on channel=5 note=59 velocity=80 time=0 actual_time=50640
type=note_on channel=5 note=54 velocity=80 time=0 actual_time=50640
type=note_on channel=5 note=54 velocity=0 time=96 actual_time=50736
type=note_on channel=5 note=59 velocity=0 time=0 actual_time=50736
type=note_on channel=5 note=47 velocity=0 time=0 actual_time=50736
type=note_on channel=5 note=47 velocity=80 time=24 actual_time=50760
type=note_on channel=5 note=54 velocity=80 time=0 actual_time=50760
type=note_on channel=5 note=54 velocity=0 time=48 actual_time=50808
type=note_on channel=5 note=47 velocity=0 time=0 actual_time=50808
type=note_on channel=5 note=47 velocity=80 time=12 actual_time=50820
type=note_on channel=5 note=54 velocity=80 time=0 actual_time=50820
type=note_on channel=5 note=54 velocity=0 time=48 actual_time=50868
type=note_on channel=5 note=47 velocity=0 time=0 actual_time=50868
type=note_on channel=5 note=43 velocity=80 time=12 actual_time=50880
type=note_on channel=5 note=55 velocity=80 time=0 actual_time=50880
type=note_on channel=5 note=50 velocity=80 time=0 actual_time=50880
type=note_on channel=5 note=50 velocity=0 time=96 actual_time=50976
type=note_on channel=5 note=55 velocity=0 time=0 actual_time=50976
type=note_on channel=5 note=43 velocity=0 time=0 actual_time=50976
type=note_on channel=5 note=43 velocity=80 time=24 actual_time=51000
type=note_on channel=5 note=50 velocity=80 time=0 actual_time=51000
type=note_on channel=5 note=50 velocity=0 time=48 actual_time=51048
type=note_on channel=5 note=43 velocity=0 time=0 actual_time=51048
type=note_on channel=5 note=43 velocity=80 time=12 actual_time=51060
type=note_on channel=5 note=50 velocity=80 time=0 actual_time=51060
type=note_on channel=5 note=50 velocity=0 time=48 actual_time=51108
type=note_on channel=5 note=43 velocity=0 time=0 actual_time=51108
type=note_on channel=5 note=43 velocity=80 time=12 actual_time=51120
type=note_on channel=5 note=55 velocity=80 time=0 actual_time=51120
type=note_on channel=5 note=50 velocity=80 time=0 actual_time=51120
type=note_on channel=5 note=50 velocity=0 time=96 actual_time=51216
type=note_on channel=5 note=55 velocity=0 time=0 actual_time=51216
type=note_on channel=5 note=43 velocity=0 time=0 actual_time=51216
type=note_on channel=5 note=43 velocity=80 time=24 actual_time=51240
type=note_on channel=5 note=50 velocity=80 time=0 actual_time=51240
type=note_on channel=5 note=50 velocity=0 time=48 actual_time=51288
type=note_on channel=5 note=43 velocity=0 time=0 actual_time=51288
type=note_on channel=5 note=43 velocity=80 time=12 actual_time=51300
type=note_on channel=5 note=50 velocity=80 time=0 actual_time=51300
type=note_on channel=5 note=50 velocity=0 time=48 actual_time=51348
type=note_on channel=5 note=43 velocity=0 time=0 actual_time=51348
type=note_on channel=5 note=45 velocity=80 time=12 actual_time=51360
type=note_on channel=5 note=57 velocity=80 time=0 actual_time=51360
type=note_on channel=5 note=52 velocity=80 time=0 actual_time=51360
type=note_on channel=5 note=52 velocity=0 time=96 actual_time=51456
type=note_on channel=5 note=57 velocity=0 time=0 actual_time=51456
type=note_on channel=5 note=45 velocity=0 time=0 actual_time=51456
type=note_on channel=5 note=45 velocity=80 time=24 actual_time=51480
type=note_on channel=5 note=52 velocity=80 time=0 actual_time=51480
type=note_on channel=5 note=52 velocity=0 time=48 actual_time=51528
type=note_on channel=5 note=45 velocity=0 time=0 actual_time=51528
type=note_on channel=5 note=45 velocity=80 time=12 actual_time=51540
type=note_on channel=5 note=52 velocity=80 time=0 actual_time=51540
type=note_on channel=5 note=52 velocity=0 time=48 actual_time=51588
type=note_on channel=5 note=45 velocity=0 time=0 actual_time=51588
type=note_on channel=5 note=45 velocity=80 time=12 actual_time=51600
type=note_on channel=5 note=57 velocity=80 time=0 actual_time=51600
type=note_on channel=5 note=52 velocity=80 time=0 actual_time=51600
type=note_on channel=5 note=52 velocity=0 time=96 actual_time=51696
type=note_on channel=5 note=57 velocity=0 time=0 actual_time=51696
type=note_on channel=5 note=45 velocity=0 time=0 actual_time=51696
type=note_on channel=5 note=45 velocity=80 time=24 actual_time=51720
type=note_on channel=5 note=52 velocity=80 time=0 actual_time=51720
type=note_on channel=5 note=52 velocity=0 time=48 actual_time=51768
type=note_on channel=5 note=45 velocity=0 time=0 actual_time=51768
type=note_on channel=5 note=45 velocity=80 time=12 actual_time=51780
type=note_on channel=5 note=52 velocity=80 time=0 actual_time=51780
type=note_on channel=5 note=52 velocity=0 time=48 actual_time=51828
type=note_on channel=5 note=45 velocity=0 time=0 actual_time=51828
type=note_on channel=5 note=54 velocity=80 time=12 actual_time=51840
type=note_on channel=5 note=59 velocity=80 time=0 actual_time=51840
type=note_on channel=5 note=47 velocity=80 time=0 actual_time=51840
type=note_on channel=5 note=47 velocity=0 time=96 actual_time=51936
type=note_on channel=5 note=59 velocity=0 time=0 actual_time=51936
type=note_on channel=5 note=54 velocity=0 time=0 actual_time=51936
type=note_on channel=5 note=54 velocity=80 time=24 actual_time=51960
type=note_on channel=5 note=47 velocity=80 time=0 actual_time=51960
type=note_on channel=5 note=47 velocity=0 time=48 actual_time=52008
type=note_on channel=5 note=54 velocity=0 time=0 actual_time=52008
type=note_on channel=5 note=54 velocity=80 time=12 actual_time=52020
type=note_on channel=5 note=47 velocity=80 time=0 actual_time=52020
type=note_on channel=5 note=47 velocity=0 time=48 actual_time=52068
type=note_on channel=5 note=54 velocity=0 time=0 actual_time=52068
type=note_on channel=5 note=47 velocity=80 time=12 actual_time=52080
type=note_on channel=5 note=59 velocity=80 time=0 actual_time=52080
type=note_on channel=5 note=54 velocity=80 time=0 actual_time=52080
type=note_on channel=5 note=54 velocity=0 time=96 actual_time=52176
type=note_on channel=5 note=59 velocity=0 time=0 actual_time=52176
type=note_on channel=5 note=47 velocity=0 time=0 actual_time=52176
type=note_on channel=5 note=47 velocity=80 time=24 actual_time=52200
type=note_on channel=5 note=54 velocity=80 time=0 actual_time=52200
type=note_on channel=5 note=54 velocity=0 time=48 actual_time=52248
type=note_on channel=5 note=47 velocity=0 time=0 actual_time=52248
type=note_on channel=5 note=47 velocity=80 time=12 actual_time=52260
type=note_on channel=5 note=54 velocity=80 time=0 actual_time=52260
type=note_on channel=5 note=54 velocity=0 time=48 actual_time=52308
type=note_on channel=5 note=47 velocity=0 time=0 actual_time=52308
type=note_on channel=5 note=47 velocity=80 time=12 actual_time=52320
type=note_on channel=5 note=59 velocity=80 time=0 actual_time=52320
type=note_on channel=5 note=54 velocity=80 time=0 actual_time=52320
type=note_on channel=5 note=54 velocity=0 time=96 actual_time=52416
type=note_on channel=5 note=59 velocity=0 time=0 actual_time=52416
type=note_on channel=5 note=47 velocity=0 time=0 actual_time=52416
type=note_on channel=5 note=47 velocity=80 time=24 actual_time=52440
type=note_on channel=5 note=54 velocity=80 time=0 actual_time=52440
type=note_on channel=5 note=54 velocity=0 time=48 actual_time=52488
type=note_on channel=5 note=47 velocity=0 time=0 actual_time=52488
type=note_on channel=5 note=47 velocity=80 time=12 actual_time=52500
type=note_on channel=5 note=54 velocity=80 time=0 actual_time=52500
type=note_on channel=5 note=54 velocity=0 time=48 actual_time=52548
type=note_on channel=5 note=47 velocity=0 time=0 actual_time=52548
type=note_on channel=5 note=47 velocity=80 time=12 actual_time=52560
type=note_on channel=5 note=59 velocity=80 time=0 actual_time=52560
type=note_on channel=5 note=54 velocity=80 time=0 actual_time=52560
type=note_on channel=5 note=54 velocity=0 time=96 actual_time=52656
type=note_on channel=5 note=59 velocity=0 time=0 actual_time=52656
type=note_on channel=5 note=47 velocity=0 time=0 actual_time=52656
type=note_on channel=5 note=47 velocity=80 time=24 actual_time=52680
type=note_on channel=5 note=54 velocity=80 time=0 actual_time=52680
type=note_on channel=5 note=54 velocity=0 time=48 actual_time=52728
type=note_on channel=5 note=47 velocity=0 time=0 actual_time=52728
type=note_on channel=5 note=47 velocity=80 time=12 actual_time=52740
type=note_on channel=5 note=54 velocity=80 time=0 actual_time=52740
type=note_on channel=5 note=54 velocity=0 time=48 actual_time=52788
type=note_on channel=5 note=47 velocity=0 time=0 actual_time=52788
type=note_on channel=5 note=40 velocity=80 time=12 actual_time=52800
type=note_on channel=5 note=52 velocity=80 time=0 actual_time=52800
type=note_on channel=5 note=47 velocity=80 time=0 actual_time=52800
type=note_on channel=5 note=47 velocity=0 time=96 actual_time=52896
type=note_on channel=5 note=52 velocity=0 time=0 actual_time=52896
type=note_on channel=5 note=40 velocity=0 time=0 actual_time=52896
type=note_on channel=5 note=52 velocity=80 time=24 actual_time=52920
type=note_on channel=5 note=40 velocity=80 time=0 actual_time=52920
type=note_on channel=5 note=47 velocity=80 time=0 actual_time=52920
type=note_on channel=5 note=47 velocity=0 time=96 actual_time=53016
type=note_on channel=5 note=40 velocity=0 time=0 actual_time=53016
type=note_on channel=5 note=52 velocity=0 time=0 actual_time=53016
type=note_on channel=5 note=47 velocity=80 time=24 actual_time=53040
type=note_on channel=5 note=52 velocity=80 time=0 actual_time=53040
type=note_on channel=5 note=40 velocity=80 time=0 actual_time=53040
type=note_on channel=5 note=40 velocity=0 time=96 actual_time=53136
type=note_on channel=5 note=52 velocity=0 time=0 actual_time=53136
type=note_on channel=5 note=47 velocity=0 time=0 actual_time=53136
type=note_on channel=5 note=40 velocity=80 time=24 actual_time=53160
type=note_on channel=5 note=47 velocity=80 time=0 actual_time=53160
type=note_on channel=5 note=52 velocity=80 time=0 actual_time=53160
type=note_on channel=5 note=52 velocity=0 time=96 actual_time=53256
type=note_on channel=5 note=47 velocity=0 time=0 actual_time=53256
type=note_on channel=5 note=40 velocity=0 time=0 actual_time=53256
type=note_on channel=5 note=42 velocity=80 time=24 actual_time=53280
type=note_on channel=5 note=54 velocity=80 time=0 actual_time=53280
type=note_on channel=5 note=49 velocity=80 time=0 actual_time=53280
type=note_on channel=5 note=49 velocity=0 time=96 actual_time=53376
type=note_on channel=5 note=54 velocity=0 time=0 actual_time=53376
type=note_on channel=5 note=42 velocity=0 time=0 actual_time=53376
type=note_on channel=5 note=54 velocity=80 time=24 actual_time=53400
type=note_on channel=5 note=42 velocity=80 time=0 actual_time=53400
type=note_on channel=5 note=49 velocity=80 time=0 actual_time=53400
type=note_on channel=5 note=49 velocity=0 time=96 actual_time=53496
type=note_on channel=5 note=42 velocity=0 time=0 actual_time=53496
type=note_on channel=5 note=54 velocity=0 time=0 actual_time=53496
type=note_on channel=5 note=49 velocity=80 time=24 actual_time=53520
type=note_on channel=5 note=54 velocity=80 time=0 actual_time=53520
type=note_on channel=5 note=42 velocity=80 time=0 actual_time=53520
type=note_on channel=5 note=42 velocity=0 time=96 actual_time=53616
type=note_on channel=5 note=54 velocity=0 time=0 actual_time=53616
type=note_on channel=5 note=49 velocity=0 time=0 actual_time=53616
type=note_on channel=5 note=42 velocity=80 time=24 actual_time=53640
type=note_on channel=5 note=49 velocity=80 time=0 actual_time=53640
type=note_on channel=5 note=54 velocity=80 time=0 actual_time=53640
type=note_on channel=5 note=54 velocity=0 time=96 actual_time=53736
type=note_on channel=5 note=49 velocity=0 time=0 actual_time=53736
type=note_on channel=5 note=42 velocity=0 time=0 actual_time=53736
type=note_on channel=5 note=47 velocity=80 time=24 actual_time=53760
type=note_on channel=5 note=54 velocity=80 time=0 actual_time=53760
type=note_on channel=5 note=59 velocity=80 time=0 actual_time=53760
type=note_on channel=5 note=47 velocity=80 time=0 actual_time=53760
type=note_on channel=5 note=47 velocity=0 time=144 actual_time=53904
type=note_on channel=5 note=49 velocity=80 time=36 actual_time=53940
type=note_on channel=5 note=49 velocity=80 time=0 actual_time=53940
type=note_on channel=5 note=49 velocity=0 time=144 actual_time=54084
type=note_on channel=5 note=49 velocity=0 time=0 actual_time=54084
type=note_on channel=5 note=50 velocity=80 time=36 actual_time=54120
type=note_on channel=5 note=50 velocity=80 time=0 actual_time=54120
type=note_on channel=5 note=50 velocity=0 time=144 actual_time=54264
type=note_on channel=5 note=50 velocity=0 time=0 actual_time=54264
type=note_on channel=5 note=49 velocity=80 time=36 actual_time=54300
type=note_on channel=5 note=49 velocity=80 time=0 actual_time=54300
type=note_on channel=5 note=49 velocity=0 time=144 actual_time=54444
type=note_on channel=5 note=49 velocity=0 time=0 actual_time=54444
type=note_on channel=5 note=50 velocity=80 time=36 actual_time=54480
type=note_on channel=5 note=50 velocity=80 time=0 actual_time=54480
type=note_on channel=5 note=50 velocity=0 time=96 actual_time=54576
type=note_on channel=5 note=50 velocity=0 time=0 actual_time=54576
type=note_on channel=5 note=49 velocity=80 time=24 actual_time=54600
type=note_on channel=5 note=49 velocity=80 time=0 actual_time=54600
type=note_on channel=5 note=49 velocity=0 time=96 actual_time=54696
type=note_on channel=5 note=54 velocity=0 time=0 actual_time=54696
type=note_on channel=5 note=47 velocity=0 time=0 actual_time=54696
type=note_on channel=5 note=59 velocity=0 time=0 actual_time=54696
type=note_on channel=5 note=49 velocity=0 time=0 actual_time=54696
type=note_on channel=5 note=43 velocity=80 time=24 actual_time=54720
type=note_on channel=5 note=55 velocity=80 time=0 actual_time=54720
type=note_on channel=5 note=52 velocity=80 time=0 actual_time=54720
type=note_on channel=5 note=52 velocity=80 time=0 actual_time=54720
type=note_on channel=5 note=52 velocity=0 time=144 actual_time=54864
type=note_on channel=5 note=52 velocity=0 time=0 actual_time=54864
type=note_on channel=5 note=50 velocity=80 time=36 actual_time=54900
type=note_on channel=5 note=50 velocity=80 time=0 actual_time=54900
type=note_on channel=5 note=50 velocity=0 time=144 actual_time=55044
type=note_on channel=5 note=50 velocity=0 time=0 actual_time=55044
type=note_on channel=5 note=49 velocity=80 time=36 actual_time=55080
type=note_on channel=5 note=49 velocity=80 time=0 actual_time=55080
type=note_on channel=5 note=49 velocity=0 time=48 actual_time=55128
type=note_on channel=5 note=43 velocity=0 time=0 actual_time=55128
type=note_on channel=5 note=55 velocity=0 time=0 actual_time=55128
type=note_on channel=5 note=50 velocity=80 time=12 actual_time=55140
type=note_on channel=5 note=55 velocity=80 time=0 actual_time=55140
type=note_on channel=5 note=43 velocity=80 time=0 actual_time=55140
type=note_on channel=5 note=43 velocity=0 time=48 actual_time=55188
type=note_on channel=5 note=55 velocity=0 time=0 actual_time=55188
type=note_on channel=5 note=50 velocity=0 time=0 actual_time=55188
type=note_on channel=5 note=52 velocity=80 time=12 actual_time=55200
type=note_on channel=5 note=45 velocity=80 time=0 actual_time=55200
type=note_on channel=5 note=57 velocity=80 time=0 actual_time=55200
type=note_on channel=5 note=49 velocity=0 time=48 actual_time=55248
type=note_on channel=5 note=50 velocity=80 time=12 actual_time=55260
type=note_on channel=5 note=50 velocity=80 time=0 actual_time=55260
type=note_on channel=5 note=50 velocity=0 time=144 actual_time=55404
type=note_on channel=5 note=50 velocity=0 time=0 actual_time=55404
type=note_on channel=5 note=49 velocity=80 time=36 actual_time=55440
type=note_on channel=5 note=49 velocity=80 time=0 actual_time=55440
type=note_on channel=5 note=49 velocity=0 time=96 actual_time=55536
type=note_on channel=5 note=45 velocity=0 time=0 actual_time=55536
type=note_on channel=5 note=49 velocity=0 time=0 actual_time=55536
type=note_on channel=5 note=45 velocity=80 time=24 actual_time=55560
type=note_on channel=5 note=45 velocity=80 time=0 actual_time=55560
type=note_on channel=5 note=45 velocity=0 time=48 actual_time=55608
type=note_on channel=5 note=57 velocity=0 time=0 actual_time=55608
type=note_on channel=5 note=52 velocity=0 time=0 actual_time=55608
type=note_on channel=5 note=57 velocity=80 time=12 actual_time=55620
type=note_on channel=5 note=52 velocity=80 time=0 actual_time=55620
type=note_on channel=5 note=52 velocity=0 time=48 actual_time=55668
type=note_on channel=5 note=57 velocity=0 time=0 actual_time=55668
type=note_on channel=5 note=45 velocity=0 time=0 actual_time=55668
type=note_on channel=5 note=47 velocity=80 time=12 actual_time=55680
type=note_on channel=5 note=54 velocity=80 time=0 actual_time=55680
type=note_on channel=5 note=59 velocity=80 time=0 actual_time=55680
type=note_on channel=5 note=47 velocity=80 time=0 actual_time=55680
type=note_on channel=5 note=47 velocity=0 time=144 actual_time=55824
type=note_on channel=5 note=47 velocity=0 time=0 actual_time=55824
type=note_on channel=5 note=45 velocity=80 time=36 actual_time=55860
type=note_on channel=5 note=45 velocity=80 time=0 actual_time=55860
type=note_on channel=5 note=45 velocity=0 time=96 actual_time=55956
type=note_on channel=5 note=45 velocity=0 time=0 actual_time=55956
type=note_on channel=5 note=45 velocity=80 time=24 actual_time=55980
type=note_on channel=5 note=45 velocity=80 time=0 actual_time=55980
type=note_on channel=5 note=45 velocity=0 time=48 actual_time=56028
type=note_on channel=5 note=45 velocity=0 time=0 actual_time=56028
type=note_on channel=5 note=47 velocity=80 time=12 actual_time=56040
type=note_on channel=5 note=47 velocity=80 time=0 actual_time=56040
type=note_on channel=5 note=47 velocity=0 time=144 actual_time=56184
type=note_on channel=5 note=47 velocity=0 time=0 actual_time=56184
type=note_on channel=5 note=45 velocity=80 time=36 actual_time=56220
type=note_on channel=5 note=45 velocity=80 time=0 actual_time=56220
type=note_on channel=5 note=45 velocity=0 time=96 actual_time=56316
type=note_on channel=5 note=45 velocity=0 time=0 actual_time=56316
type=note_on channel=5 note=45 velocity=80 time=24 actual_time=56340
type=note_on channel=5 note=45 velocity=80 time=0 actual_time=56340
type=note_on channel=5 note=45 velocity=0 time=48 actual_time=56388
type=note_on channel=5 note=45 velocity=0 time=0 actual_time=56388
type=note_on channel=5 note=47 velocity=80 time=12 actual_time=56400
type=note_on channel=5 note=47 velocity=80 time=0 actual_time=56400
type=note_on channel=5 note=47 velocity=0 time=96 actual_time=56496
type=note_on channel=5 note=47 velocity=0 time=0 actual_time=56496
type=note_on channel=5 note=47 velocity=80 time=24 actual_time=56520
type=note_on channel=5 note=47 velocity=80 time=0 actual_time=56520
type=note_on channel=5 note=47 velocity=0 time=96 actual_time=56616
type=note_on channel=5 note=54 velocity=0 time=0 actual_time=56616
type=note_on channel=5 note=59 velocity=0 time=0 actual_time=56616
type=note_on channel=5 note=47 velocity=0 time=0 actual_time=56616
type=note_on channel=5 note=43 velocity=80 time=24 actual_time=56640
type=note_on channel=5 note=52 velocity=80 time=0 actual_time=56640
type=note_on channel=5 note=55 velocity=80 time=0 actual_time=56640
type=note_on channel=5 note=52 velocity=80 time=0 actual_time=56640
type=note_on channel=5 note=52 velocity=0 time=48 actual_time=56688
type=note_on channel=5 note=52 velocity=0 time=0 actual_time=56688
type=note_on channel=5 note=50 velocity=80 time=12 actual_time=56700
type=note_on channel=5 note=50 velocity=80 time=0 actual_time=56700
type=note_on channel=5 note=50 velocity=0 time=48 actual_time=56748
type=note_on channel=5 note=50 velocity=0 time=0 actual_time=56748
type=note_on channel=5 note=52 velocity=80 time=12 actual_time=56760
type=note_on channel=5 note=52 velocity=80 time=0 actual_time=56760
type=note_on channel=5 note=52 velocity=0 time=48 actual_time=56808
type=note_on channel=5 note=52 velocity=0 time=0 actual_time=56808
type=note_on channel=5 note=50 velocity=80 time=12 actual_time=56820
type=note_on channel=5 note=50 velocity=80 time=0 actual_time=56820
type=note_on channel=5 note=50 velocity=0 time=48 actual_time=56868
type=note_on channel=5 note=50 velocity=0 time=0 actual_time=56868
type=note_on channel=5 note=52 velocity=80 time=12 actual_time=56880
type=note_on channel=5 note=52 velocity=80 time=0 actual_time=56880
type=note_on channel=5 note=52 velocity=0 time=48 actual_time=56928
type=note_on channel=5 note=52 velocity=0 time=0 actual_time=56928
type=note_on channel=5 note=50 velocity=80 time=12 actual_time=56940
type=note_on channel=5 note=50 velocity=80 time=0 actual_time=56940
type=note_on channel=5 note=50 velocity=0 time=48 actual_time=56988
type=note_on channel=5 note=50 velocity=0 time=0 actual_time=56988
type=note_on channel=5 note=52 velocity=80 time=12 actual_time=57000
type=note_on channel=5 note=52 velocity=80 time=0 actual_time=57000
type=note_on channel=5 note=52 velocity=0 time=48 actual_time=57048
type=note_on channel=5 note=43 velocity=0 time=0 actual_time=57048
type=note_on channel=5 note=55 velocity=0 time=0 actual_time=57048
type=note_on channel=5 note=52 velocity=0 time=0 actual_time=57048
type=note_on channel=5 note=43 velocity=80 time=12 actual_time=57060
type=note_on channel=5 note=50 velocity=80 time=0 actual_time=57060
type=note_on channel=5 note=50 velocity=80 time=0 actual_time=57060
type=note_on channel=5 note=50 velocity=0 time=48 actual_time=57108
type=note_on channel=5 note=50 velocity=0 time=0 actual_time=57108
type=note_on channel=5 note=43 velocity=0 time=0 actual_time=57108
type=note_on channel=5 note=45 velocity=80 time=12 actual_time=57120
type=note_on channel=5 note=57 velocity=80 time=0 actual_time=57120
type=note_on channel=5 note=50 velocity=80 time=0 actual_time=57120
type=note_on channel=5 note=50 velocity=80 time=0 actual_time=57120
type=note_on channel=5 note=50 velocity=0 time=48 actual_time=57168
type=note_on channel=5 note=50 velocity=0 time=0 actual_time=57168
type=note_on channel=5 note=49 velocity=80 time=12 actual_time=57180
type=note_on channel=5 note=49 velocity=80 time=0 actual_time=57180
type=note_on channel=5 note=49 velocity=0 time=48 actual_time=57228
type=note_on channel=5 note=49 velocity=0 time=0 actual_time=57228
type=note_on channel=5 note=50 velocity=80 time=12 actual_time=57240
type=note_on channel=5 note=50 velocity=80 time=0 actual_time=57240
type=note_on channel=5 note=50 velocity=0 time=48 actual_time=57288
type=note_on channel=5 note=50 velocity=0 time=0 actual_time=57288
type=note_on channel=5 note=49 velocity=80 time=12 actual_time=57300
type=note_on channel=5 note=49 velocity=80 time=0 actual_time=57300
type=note_on channel=5 note=49 velocity=0 time=48 actual_time=57348
type=note_on channel=5 note=49 velocity=0 time=0 actual_time=57348
type=note_on channel=5 note=50 velocity=80 time=12 actual_time=57360
type=note_on channel=5 note=50 velocity=80 time=0 actual_time=57360
type=note_on channel=5 note=50 velocity=0 time=48 actual_time=57408
type=note_on channel=5 note=50 velocity=0 time=0 actual_time=57408
type=note_on channel=5 note=49 velocity=80 time=12 actual_time=57420
type=note_on channel=5 note=49 velocity=80 time=0 actual_time=57420
type=note_on channel=5 note=49 velocity=0 time=48 actual_time=57468
type=note_on channel=5 note=49 velocity=0 time=0 actual_time=57468
type=note_on channel=5 note=50 velocity=80 time=12 actual_time=57480
type=note_on channel=5 note=50 velocity=80 time=0 actual_time=57480
type=note_on channel=5 note=50 velocity=0 time=48 actual_time=57528
type=note_on channel=5 note=45 velocity=0 time=0 actual_time=57528
type=note_on channel=5 note=57 velocity=0 time=0 actual_time=57528
type=note_on channel=5 note=50 velocity=0 time=0 actual_time=57528
type=note_on channel=5 note=52 velocity=80 time=12 actual_time=57540
type=note_on channel=5 note=45 velocity=80 time=0 actual_time=57540
type=note_on channel=5 note=45 velocity=80 time=0 actual_time=57540
type=note_on channel=5 note=45 velocity=0 time=48 actual_time=57588
type=note_on channel=5 note=45 velocity=0 time=0 actual_time=57588
type=note_on channel=5 note=52 velocity=0 time=0 actual_time=57588
type=note_on channel=5 note=47 velocity=80 time=12 actual_time=57600
type=note_on channel=5 note=59 velocity=80 time=0 actual_time=57600
type=note_on channel=5 note=54 velocity=80 time=0 actual_time=57600
type=note_on channel=5 note=47 velocity=80 time=0 actual_time=57600
type=note_on channel=5 note=47 velocity=0 time=144 actual_time=57744
type=note_on channel=5 note=49 velocity=80 time=36 actual_time=57780
type=note_on channel=5 note=49 velocity=80 time=0 actual_time=57780
type=note_on channel=5 note=49 velocity=0 time=144 actual_time=57924
type=note_on channel=5 note=49 velocity=0 time=0 actual_time=57924
type=note_on channel=5 note=50 velocity=80 time=36 actual_time=57960
type=note_on channel=5 note=50 velocity=80 time=0 actual_time=57960
type=note_on channel=5 note=50 velocity=0 time=144 actual_time=58104
type=note_on channel=5 note=50 velocity=0 time=0 actual_time=58104
type=note_on channel=5 note=49 velocity=80 time=36 actual_time=58140
type=note_on channel=5 note=49 velocity=80 time=0 actual_time=58140
type=note_on channel=5 note=49 velocity=0 time=144 actual_time=58284
type=note_on channel=5 note=49 velocity=0 time=0 actual_time=58284
type=note_on channel=5 note=50 velocity=80 time=36 actual_time=58320
type=note_on channel=5 note=50 velocity=80 time=0 actual_time=58320
type=note_on channel=5 note=50 velocity=0 time=96 actual_time=58416
type=note_on channel=5 note=50 velocity=0 time=0 actual_time=58416
type=note_on channel=5 note=49 velocity=80 time=24 actual_time=58440
type=note_on channel=5 note=49 velocity=80 time=0 actual_time=58440
type=note_on channel=5 note=49 velocity=0 time=96 actual_time=58536
type=note_on channel=5 note=59 velocity=0 time=0 actual_time=58536
type=note_on channel=5 note=47 velocity=0 time=0 actual_time=58536
type=note_on channel=5 note=54 velocity=0 time=0 actual_time=58536
type=note_on channel=5 note=49 velocity=0 time=0 actual_time=58536
type=note_on channel=5 note=52 velocity=80 time=24 actual_time=58560
type=note_on channel=5 note=52 velocity=80 time=0 actual_time=58560
type=note_on channel=5 note=55 velocity=80 time=0 actual_time=58560
type=note_on channel=5 note=43 velocity=80 time=0 actual_time=58560
type=note_on channel=5 note=52 velocity=0 time=144 actual_time=58704
type=note_on channel=5 note=52 velocity=0 time=0 actual_time=58704
type=note_on channel=5 note=50 velocity=80 time=36 actual_time=58740
type=note_on channel=5 note=50 velocity=80 time=0 actual_time=58740
type=note_on channel=5 note=50 velocity=0 time=144 actual_time=58884
type=note_on channel=5 note=50 velocity=0 time=0 actual_time=58884
type=note_on channel=5 note=49 velocity=80 time=36 actual_time=58920
type=note_on channel=5 note=49 velocity=80 time=0 actual_time=58920
type=note_on channel=5 note=49 velocity=0 time=48 actual_time=58968
type=note_on channel=5 note=43 velocity=0 time=0 actual_time=58968
type=note_on channel=5 note=55 velocity=0 time=0 actual_time=58968
type=note_on channel=5 note=43 velocity=80 time=12 actual_time=58980
type=note_on channel=5 note=55 velocity=80 time=0 actual_time=58980
type=note_on channel=5 note=50 velocity=80 time=0 actual_time=58980
type=note_on channel=5 note=50 velocity=0 time=48 actual_time=59028
type=note_on channel=5 note=55 velocity=0 time=0 actual_time=59028
type=note_on channel=5 note=43 velocity=0 time=0 actual_time=59028
type=note_on channel=5 note=57 velocity=80 time=12 actual_time=59040
type=note_on channel=5 note=45 velocity=80 time=0 actual_time=59040
type=note_on channel=5 note=52 velocity=80 time=0 actual_time=59040
type=note_on channel=5 note=49 velocity=0 time=48 actual_time=59088
type=note_on channel=5 note=50 velocity=80 time=12 actual_time=59100
type=note_on channel=5 note=50 velocity=80 time=0 actual_time=59100
type=note_on channel=5 note=50 velocity=0 time=144 actual_time=59244
type=note_on channel=5 note=50 velocity=0 time=0 actual_time=59244
type=note_on channel=5 note=49 velocity=80 time=36 actual_time=59280
type=note_on channel=5 note=49 velocity=80 time=0 actual_time=59280
type=note_on channel=5 note=49 velocity=0 time=96 actual_time=59376
type=note_on channel=5 note=45 velocity=0 time=0 actual_time=59376
type=note_on channel=5 note=49 velocity=0 time=0 actual_time=59376
type=note_on channel=5 note=45 velocity=80 time=24 actual_time=59400
type=note_on channel=5 note=45 velocity=80 time=0 actual_time=59400
type=note_on channel=5 note=45 velocity=0 time=48 actual_time=59448
type=note_on channel=5 note=52 velocity=0 time=0 actual_time=59448
type=note_on channel=5 note=57 velocity=0 time=0 actual_time=59448
type=note_on channel=5 note=52 velocity=80 time=12 actual_time=59460
type=note_on channel=5 note=57 velocity=80 time=0 actual_time=59460
type=note_on channel=5 note=57 velocity=0 time=48 actual_time=59508
type=note_on channel=5 note=52 velocity=0 time=0 actual_time=59508
type=note_on channel=5 note=45 velocity=0 time=0 actual_time=59508
type=note_on channel=5 note=47 velocity=80 time=12 actual_time=59520
type=note_on channel=5 note=54 velocity=80 time=0 actual_time=59520
type=note_on channel=5 note=59 velocity=80 time=0 actual_time=59520
type=note_on channel=5 note=47 velocity=80 time=0 actual_time=59520
type=note_on channel=5 note=47 velocity=0 time=144 actual_time=59664
type=note_on channel=5 note=47 velocity=0 time=0 actual_time=59664
type=note_on channel=5 note=45 velocity=80 time=36 actual_time=59700
type=note_on channel=5 note=45 velocity=80 time=0 actual_time=59700
type=note_on channel=5 note=45 velocity=0 time=144 actual_time=59844
type=note_on channel=5 note=45 velocity=0 time=0 actual_time=59844
type=note_on channel=5 note=47 velocity=80 time=36 actual_time=59880
type=note_on channel=5 note=47 velocity=80 time=0 actual_time=59880
type=note_on channel=5 note=47 velocity=0 time=144 actual_time=60024
type=note_on channel=5 note=47 velocity=0 time=0 actual_time=60024
type=note_on channel=5 note=45 velocity=80 time=36 actual_time=60060
type=note_on channel=5 note=45 velocity=80 time=0 actual_time=60060
type=note_on channel=5 note=45 velocity=0 time=96 actual_time=60156
type=note_on channel=5 note=45 velocity=0 time=0 actual_time=60156
type=note_on channel=5 note=45 velocity=80 time=24 actual_time=60180
type=note_on channel=5 note=45 velocity=80 time=0 actual_time=60180
type=note_on channel=5 note=45 velocity=0 time=48 actual_time=60228
type=note_on channel=5 note=45 velocity=0 time=0 actual_time=60228
type=note_on channel=5 note=47 velocity=80 time=12 actual_time=60240
type=note_on channel=5 note=47 velocity=80 time=0 actual_time=60240
type=note_on channel=5 note=47 velocity=0 time=96 actual_time=60336
type=note_on channel=5 note=47 velocity=0 time=0 actual_time=60336
type=note_on channel=5 note=47 velocity=80 time=24 actual_time=60360
type=note_on channel=5 note=47 velocity=80 time=0 actual_time=60360
type=note_on channel=5 note=47 velocity=0 time=96 actual_time=60456
type=note_on channel=5 note=54 velocity=0 time=0 actual_time=60456
type=note_on channel=5 note=59 velocity=0 time=0 actual_time=60456
type=note_on channel=5 note=47 velocity=0 time=0 actual_time=60456
type=note_on channel=5 note=52 velocity=80 time=24 actual_time=60480
type=note_on channel=5 note=55 velocity=80 time=0 actual_time=60480
type=note_on channel=5 note=52 velocity=80 time=0 actual_time=60480
type=note_on channel=5 note=43 velocity=80 time=0 actual_time=60480
type=note_on channel=5 note=52 velocity=0 time=48 actual_time=60528
type=note_on channel=5 note=52 velocity=0 time=0 actual_time=60528
type=note_on channel=5 note=50 velocity=80 time=12 actual_time=60540
type=note_on channel=5 note=50 velocity=80 time=0 actual_time=60540
type=note_on channel=5 note=50 velocity=0 time=48 actual_time=60588
type=note_on channel=5 note=50 velocity=0 time=0 actual_time=60588
type=note_on channel=5 note=52 velocity=80 time=12 actual_time=60600
type=note_on channel=5 note=52 velocity=80 time=0 actual_time=60600
type=note_on channel=5 note=52 velocity=0 time=48 actual_time=60648
type=note_on channel=5 note=52 velocity=0 time=0 actual_time=60648
type=note_on channel=5 note=50 velocity=80 time=12 actual_time=60660
type=note_on channel=5 note=50 velocity=80 time=0 actual_time=60660
type=note_on channel=5 note=50 velocity=0 time=48 actual_time=60708
type=note_on channel=5 note=50 velocity=0 time=0 actual_time=60708
type=note_on channel=5 note=52 velocity=80 time=12 actual_time=60720
type=note_on channel=5 note=52 velocity=80 time=0 actual_time=60720
type=note_on channel=5 note=52 velocity=0 time=48 actual_time=60768
type=note_on channel=5 note=52 velocity=0 time=0 actual_time=60768
type=note_on channel=5 note=50 velocity=80 time=12 actual_time=60780
type=note_on channel=5 note=50 velocity=80 time=0 actual_time=60780
type=note_on channel=5 note=50 velocity=0 time=48 actual_time=60828
type=note_on channel=5 note=50 velocity=0 time=0 actual_time=60828
type=note_on channel=5 note=52 velocity=80 time=12 actual_time=60840
type=note_on channel=5 note=52 velocity=80 time=0 actual_time=60840
type=note_on channel=5 note=52 velocity=0 time=48 actual_time=60888
type=note_on channel=5 note=43 velocity=0 time=0 actual_time=60888
type=note_on channel=5 note=55 velocity=0 time=0 actual_time=60888
type=note_on channel=5 note=52 velocity=0 time=0 actual_time=60888
type=note_on channel=5 note=50 velocity=80 time=12 actual_time=60900
type=note_on channel=5 note=50 velocity=80 time=0 actual_time=60900
type=note_on channel=5 note=43 velocity=80 time=0 actual_time=60900
type=note_on channel=5 note=43 velocity=0 time=48 actual_time=60948
type=note_on channel=5 note=50 velocity=0 time=0 actual_time=60948
type=note_on channel=5 note=50 velocity=0 time=0 actual_time=60948
type=note_on channel=5 note=50 velocity=80 time=12 actual_time=60960
type=note_on channel=5 note=50 velocity=80 time=0 actual_time=60960
type=note_on channel=5 note=57 velocity=80 time=0 actual_time=60960
type=note_on channel=5 note=45 velocity=80 time=0 actual_time=60960
type=note_on channel=5 note=50 velocity=0 time=48 actual_time=61008
type=note_on channel=5 note=50 velocity=0 time=0 actual_time=61008
type=note_on channel=5 note=49 velocity=80 time=12 actual_time=61020
type=note_on channel=5 note=49 velocity=80 time=0 actual_time=61020
type=note_on channel=5 note=49 velocity=0 time=48 actual_time=61068
type=note_on channel=5 note=49 velocity=0 time=0 actual_time=61068
type=note_on channel=5 note=50 velocity=80 time=12 actual_time=61080
type=note_on channel=5 note=50 velocity=80 time=0 actual_time=61080
type=note_on channel=5 note=50 velocity=0 time=48 actual_time=61128
type=note_on channel=5 note=50 velocity=0 time=0 actual_time=61128
type=note_on channel=5 note=49 velocity=80 time=12 actual_time=61140
type=note_on channel=5 note=49 velocity=80 time=0 actual_time=61140
type=note_on channel=5 note=49 velocity=0 time=48 actual_time=61188
type=note_on channel=5 note=49 velocity=0 time=0 actual_time=61188
type=note_on channel=5 note=50 velocity=80 time=12 actual_time=61200
type=note_on channel=5 note=50 velocity=80 time=0 actual_time=61200
type=note_on channel=5 note=50 velocity=0 time=48 actual_time=61248
type=note_on channel=5 note=50 velocity=0 time=0 actual_time=61248
type=note_on channel=5 note=49 velocity=80 time=12 actual_time=61260
type=note_on channel=5 note=49 velocity=80 time=0 actual_time=61260
type=note_on channel=5 note=49 velocity=0 time=48 actual_time=61308
type=note_on channel=5 note=49 velocity=0 time=0 actual_time=61308
type=note_on channel=5 note=50 velocity=80 time=12 actual_time=61320
type=note_on channel=5 note=50 velocity=80 time=0 actual_time=61320
type=note_on channel=5 note=50 velocity=0 time=48 actual_time=61368
type=note_on channel=5 note=50 velocity=0 time=0 actual_time=61368
type=note_on channel=5 note=45 velocity=80 time=12 actual_time=61380
type=note_on channel=5 note=45 velocity=80 time=0 actual_time=61380
type=note_on channel=5 note=45 velocity=0 time=48 actual_time=61428
type=note_on channel=5 note=45 velocity=0 time=0 actual_time=61428
type=note_on channel=5 note=57 velocity=0 time=0 actual_time=61428
type=note_on channel=5 note=45 velocity=0 time=0 actual_time=61428
type=note_on channel=5 note=59 velocity=80 time=12 actual_time=61440
type=note_on channel=5 note=54 velocity=80 time=0 actual_time=61440
type=note_on channel=5 note=47 velocity=80 time=0 actual_time=61440
type=note_on channel=5 note=47 velocity=0 time=7488 actual_time=68928
type=note_on channel=5 note=54 velocity=0 time=0 actual_time=68928
type=note_on channel=5 note=59 velocity=0 time=0 actual_time=68928
type=note_on channel=5 note=52 velocity=80 time=3552 actual_time=72480
type=note_on channel=5 note=45 velocity=80 time=0 actual_time=72480
type=note_on channel=5 note=45 velocity=0 time=32 actual_time=72512
type=note_on channel=5 note=52 velocity=0 time=0 actual_time=72512
type=note_on channel=5 note=52 velocity=80 time=8 actual_time=72520
type=note_on channel=5 note=45 velocity=80 time=0 actual_time=72520
type=note_on channel=5 note=45 velocity=0 time=32 actual_time=72552
type=note_on channel=5 note=52 velocity=0 time=0 actual_time=72552
type=note_on channel=5 note=45 velocity=80 time=8 actual_time=72560
type=note_on channel=5 note=52 velocity=80 time=0 actual_time=72560
type=note_on channel=5 note=52 velocity=0 time=32 actual_time=72592
type=note_on channel=5 note=45 velocity=0 time=0 actual_time=72592
type=note_on channel=5 note=52 velocity=80 time=8 actual_time=72600
type=note_on channel=5 note=45 velocity=80 time=0 actual_time=72600
type=note_on channel=5 note=45 velocity=0 time=32 actual_time=72632
type=note_on channel=5 note=52 velocity=0 time=0 actual_time=72632
type=note_on channel=5 note=52 velocity=80 time=8 actual_time=72640
type=note_on channel=5 note=45 velocity=80 time=0 actual_time=72640
type=note_on channel=5 note=45 velocity=0 time=32 actual_time=72672
type=note_on channel=5 note=52 velocity=0 time=0 actual_time=72672
type=note_on channel=5 note=52 velocity=80 time=8 actual_time=72680
type=note_on channel=5 note=45 velocity=80 time=0 actual_time=72680
type=note_on channel=5 note=45 velocity=0 time=32 actual_time=72712
type=note_on channel=5 note=52 velocity=0 time=0 actual_time=72712
type=note_on channel=5 note=52 velocity=80 time=8 actual_time=72720
type=note_on channel=5 note=45 velocity=80 time=0 actual_time=72720
type=note_on channel=5 note=45 velocity=0 time=32 actual_time=72752
type=note_on channel=5 note=52 velocity=0 time=0 actual_time=72752
type=note_on channel=5 note=52 velocity=80 time=8 actual_time=72760
type=note_on channel=5 note=45 velocity=80 time=0 actual_time=72760
type=note_on channel=5 note=45 velocity=0 time=32 actual_time=72792
type=note_on channel=5 note=52 velocity=0 time=0 actual_time=72792
type=note_on channel=5 note=45 velocity=80 time=8 actual_time=72800
type=note_on channel=5 note=52 velocity=80 time=0 actual_time=72800
type=note_on channel=5 note=52 velocity=0 time=32 actual_time=72832
type=note_on channel=5 note=45 velocity=0 time=0 actual_time=72832
type=note_on channel=5 note=45 velocity=80 time=8 actual_time=72840
type=note_on channel=5 note=52 velocity=80 time=0 actual_time=72840
type=note_on channel=5 note=52 velocity=0 time=32 actual_time=72872
type=note_on channel=5 note=45 velocity=0 time=0 actual_time=72872
type=note_on channel=5 note=52 velocity=80 time=8 actual_time=72880
type=note_on channel=5 note=45 velocity=80 time=0 actual_time=72880
type=note_on channel=5 note=45 velocity=0 time=32 actual_time=72912
type=note_on channel=5 note=52 velocity=0 time=0 actual_time=72912
type=note_on channel=5 note=52 velocity=80 time=8 actual_time=72920
type=note_on channel=5 note=45 velocity=80 time=0 actual_time=72920
type=note_on channel=5 note=45 velocity=0 time=32 actual_time=72952
type=note_on channel=5 note=52 velocity=0 time=0 actual_time=72952
type=note_on channel=5 note=54 velocity=80 time=8 actual_time=72960
type=note_on channel=5 note=59 velocity=80 time=0 actual_time=72960
type=note_on channel=5 note=47 velocity=80 time=0 actual_time=72960
type=note_on channel=5 note=47 velocity=0 time=96 actual_time=73056
type=note_on channel=5 note=59 velocity=0 time=0 actual_time=73056
type=note_on channel=5 note=54 velocity=0 time=0 actual_time=73056
type=note_on channel=5 note=54 velocity=80 time=24 actual_time=73080
type=note_on channel=5 note=47 velocity=80 time=0 actual_time=73080
type=note_on channel=5 note=47 velocity=0 time=48 actual_time=73128
type=note_on channel=5 note=54 velocity=0 time=0 actual_time=73128
type=note_on channel=5 note=54 velocity=80 time=12 actual_time=73140
type=note_on channel=5 note=47 velocity=80 time=0 actual_time=73140
type=note_on channel=5 note=47 velocity=0 time=48 actual_time=73188
type=note_on channel=5 note=54 velocity=0 time=0 actual_time=73188
type=note_on channel=5 note=47 velocity=80 time=12 actual_time=73200
type=note_on channel=5 note=59 velocity=80 time=0 actual_time=73200
type=note_on channel=5 note=54 velocity=80 time=0 actual_time=73200
type=note_on channel=5 note=54 velocity=0 time=96 actual_time=73296
type=note_on channel=5 note=59 velocity=0 time=0 actual_time=73296
type=note_on channel=5 note=47 velocity=0 time=0 actual_time=73296
type=note_on channel=5 note=47 velocity=80 time=24 actual_time=73320
type=note_on channel=5 note=54 velocity=80 time=0 actual_time=73320
type=note_on channel=5 note=54 velocity=0 time=48 actual_time=73368
type=note_on channel=5 note=47 velocity=0 time=0 actual_time=73368
type=note_on channel=5 note=47 velocity=80 time=12 actual_time=73380
type=note_on channel=5 note=54 velocity=80 time=0 actual_time=73380
type=note_on channel=5 note=54 velocity=0 time=48 actual_time=73428
type=note_on channel=5 note=47 velocity=0 time=0 actual_time=73428
type=note_on channel=5 note=47 velocity=80 time=12 actual_time=73440
type=note_on channel=5 note=59 velocity=80 time=0 actual_time=73440
type=note_on channel=5 note=54 velocity=80 time=0 actual_time=73440
type=note_on channel=5 note=54 velocity=0 time=96 actual_time=73536
type=note_on channel=5 note=59 velocity=0 time=0 actual_time=73536
type=note_on channel=5 note=47 velocity=0 time=0 actual_time=73536
type=note_on channel=5 note=47 velocity=80 time=24 actual_time=73560
type=note_on channel=5 note=54 velocity=80 time=0 actual_time=73560
type=note_on channel=5 note=54 velocity=0 time=48 actual_time=73608
type=note_on channel=5 note=47 velocity=0 time=0 actual_time=73608
type=note_on channel=5 note=47 velocity=80 time=12 actual_time=73620
type=note_on channel=5 note=54 velocity=80 time=0 actual_time=73620
type=note_on channel=5 note=54 velocity=0 time=48 actual_time=73668
type=note_on channel=5 note=47 velocity=0 time=0 actual_time=73668
type=note_on channel=5 note=47 velocity=80 time=12 actual_time=73680
type=note_on channel=5 note=59 velocity=80 time=0 actual_time=73680
type=note_on channel=5 note=54 velocity=80 time=0 actual_time=73680
type=note_on channel=5 note=54 velocity=0 time=96 actual_time=73776
type=note_on channel=5 note=59 velocity=0 time=0 actual_time=73776
type=note_on channel=5 note=47 velocity=0 time=0 actual_time=73776
type=note_on channel=5 note=47 velocity=80 time=24 actual_time=73800
type=note_on channel=5 note=54 velocity=80 time=0 actual_time=73800
type=note_on channel=5 note=54 velocity=0 time=48 actual_time=73848
type=note_on channel=5 note=47 velocity=0 time=0 actual_time=73848
type=note_on channel=5 note=47 velocity=80 time=12 actual_time=73860
type=note_on channel=5 note=54 velocity=80 time=0 actual_time=73860
type=note_on channel=5 note=54 velocity=0 time=48 actual_time=73908
type=note_on channel=5 note=47 velocity=0 time=0 actual_time=73908
type=note_on channel=5 note=43 velocity=80 time=12 actual_time=73920
type=note_on channel=5 note=55 velocity=80 time=0 actual_time=73920
type=note_on channel=5 note=50 velocity=80 time=0 actual_time=73920
type=note_on channel=5 note=50 velocity=0 time=96 actual_time=74016
type=note_on channel=5 note=55 velocity=0 time=0 actual_time=74016
type=note_on channel=5 note=43 velocity=0 time=0 actual_time=74016
type=note_on channel=5 note=43 velocity=80 time=24 actual_time=74040
type=note_on channel=5 note=50 velocity=80 time=0 actual_time=74040
type=note_on channel=5 note=50 velocity=0 time=48 actual_time=74088
type=note_on channel=5 note=43 velocity=0 time=0 actual_time=74088
type=note_on channel=5 note=43 velocity=80 time=12 actual_time=74100
type=note_on channel=5 note=50 velocity=80 time=0 actual_time=74100
type=note_on channel=5 note=50 velocity=0 time=48 actual_time=74148
type=note_on channel=5 note=43 velocity=0 time=0 actual_time=74148
type=note_on channel=5 note=43 velocity=80 time=12 actual_time=74160
type=note_on channel=5 note=55 velocity=80 time=0 actual_time=74160
type=note_on channel=5 note=50 velocity=80 time=0 actual_time=74160
type=note_on channel=5 note=50 velocity=0 time=96 actual_time=74256
type=note_on channel=5 note=55 velocity=0 time=0 actual_time=74256
type=note_on channel=5 note=43 velocity=0 time=0 actual_time=74256
type=note_on channel=5 note=43 velocity=80 time=24 actual_time=74280
type=note_on channel=5 note=50 velocity=80 time=0 actual_time=74280
type=note_on channel=5 note=50 velocity=0 time=48 actual_time=74328
type=note_on channel=5 note=43 velocity=0 time=0 actual_time=74328
type=note_on channel=5 note=43 velocity=80 time=12 actual_time=74340
type=note_on channel=5 note=50 velocity=80 time=0 actual_time=74340
type=note_on channel=5 note=50 velocity=0 time=48 actual_time=74388
type=note_on channel=5 note=43 velocity=0 time=0 actual_time=74388
type=note_on channel=5 note=45 velocity=80 time=12 actual_time=74400
type=note_on channel=5 note=57 velocity=80 time=0 actual_time=74400
type=note_on channel=5 note=52 velocity=80 time=0 actual_time=74400
type=note_on channel=5 note=52 velocity=0 time=96 actual_time=74496
type=note_on channel=5 note=57 velocity=0 time=0 actual_time=74496
type=note_on channel=5 note=45 velocity=0 time=0 actual_time=74496
type=note_on channel=5 note=45 velocity=80 time=24 actual_time=74520
type=note_on channel=5 note=52 velocity=80 time=0 actual_time=74520
type=note_on channel=5 note=52 velocity=0 time=48 actual_time=74568
type=note_on channel=5 note=45 velocity=0 time=0 actual_time=74568
type=note_on channel=5 note=45 velocity=80 time=12 actual_time=74580
type=note_on channel=5 note=52 velocity=80 time=0 actual_time=74580
type=note_on channel=5 note=52 velocity=0 time=48 actual_time=74628
type=note_on channel=5 note=45 velocity=0 time=0 actual_time=74628
type=note_on channel=5 note=45 velocity=80 time=12 actual_time=74640
type=note_on channel=5 note=57 velocity=80 time=0 actual_time=74640
type=note_on channel=5 note=52 velocity=80 time=0 actual_time=74640
type=note_on channel=5 note=52 velocity=0 time=96 actual_time=74736
type=note_on channel=5 note=57 velocity=0 time=0 actual_time=74736
type=note_on channel=5 note=45 velocity=0 time=0 actual_time=74736
type=note_on channel=5 note=45 velocity=80 time=24 actual_time=74760
type=note_on channel=5 note=52 velocity=80 time=0 actual_time=74760
type=note_on channel=5 note=52 velocity=0 time=48 actual_time=74808
type=note_on channel=5 note=45 velocity=0 time=0 actual_time=74808
type=note_on channel=5 note=45 velocity=80 time=12 actual_time=74820
type=note_on channel=5 note=52 velocity=80 time=0 actual_time=74820
type=note_on channel=5 note=52 velocity=0 time=48 actual_time=74868
type=note_on channel=5 note=45 velocity=0 time=0 actual_time=74868
type=note_on channel=5 note=47 velocity=80 time=12 actual_time=74880
type=note_on channel=5 note=59 velocity=80 time=0 actual_time=74880
type=note_on channel=5 note=54 velocity=80 time=0 actual_time=74880
type=note_on channel=5 note=54 velocity=0 time=96 actual_time=74976
type=note_on channel=5 note=59 velocity=0 time=0 actual_time=74976
type=note_on channel=5 note=47 velocity=0 time=0 actual_time=74976
type=note_on channel=5 note=47 velocity=80 time=24 actual_time=75000
type=note_on channel=5 note=54 velocity=80 time=0 actual_time=75000
type=note_on channel=5 note=54 velocity=0 time=48 actual_time=75048
type=note_on channel=5 note=47 velocity=0 time=0 actual_time=75048
type=note_on channel=5 note=47 velocity=80 time=12 actual_time=75060
type=note_on channel=5 note=54 velocity=80 time=0 actual_time=75060
type=note_on channel=5 note=54 velocity=0 time=48 actual_time=75108
type=note_on channel=5 note=47 velocity=0 time=0 actual_time=75108
type=note_on channel=5 note=54 velocity=80 time=12 actual_time=75120
type=note_on channel=5 note=59 velocity=80 time=0 actual_time=75120
type=note_on channel=5 note=47 velocity=80 time=0 actual_time=75120
type=note_on channel=5 note=47 velocity=0 time=96 actual_time=75216
type=note_on channel=5 note=59 velocity=0 time=0 actual_time=75216
type=note_on channel=5 note=54 velocity=0 time=0 actual_time=75216
type=note_on channel=5 note=54 velocity=80 time=24 actual_time=75240
type=note_on channel=5 note=47 velocity=80 time=0 actual_time=75240
type=note_on channel=5 note=47 velocity=0 time=48 actual_time=75288
type=note_on channel=5 note=54 velocity=0 time=0 actual_time=75288
type=note_on channel=5 note=54 velocity=80 time=12 actual_time=75300
type=note_on channel=5 note=47 velocity=80 time=0 actual_time=75300
type=note_on channel=5 note=47 velocity=0 time=48 actual_time=75348
type=note_on channel=5 note=54 velocity=0 time=0 actual_time=75348
type=note_on channel=5 note=54 velocity=80 time=12 actual_time=75360
type=note_on channel=5 note=59 velocity=80 time=0 actual_time=75360
type=note_on channel=5 note=47 velocity=80 time=0 actual_time=75360
type=note_on channel=5 note=47 velocity=0 time=96 actual_time=75456
type=note_on channel=5 note=59 velocity=0 time=0 actual_time=75456
type=note_on channel=5 note=54 velocity=0 time=0 actual_time=75456
type=note_on channel=5 note=54 velocity=80 time=24 actual_time=75480
type=note_on channel=5 note=47 velocity=80 time=0 actual_time=75480
type=note_on channel=5 note=47 velocity=0 time=48 actual_time=75528
type=note_on channel=5 note=54 velocity=0 time=0 actual_time=75528
type=note_on channel=5 note=54 velocity=80 time=12 actual_time=75540
type=note_on channel=5 note=47 velocity=80 time=0 actual_time=75540
type=note_on channel=5 note=47 velocity=0 time=48 actual_time=75588
type=note_on channel=5 note=54 velocity=0 time=0 actual_time=75588
type=note_on channel=5 note=54 velocity=80 time=12 actual_time=75600
type=note_on channel=5 note=59 velocity=80 time=0 actual_time=75600
type=note_on channel=5 note=47 velocity=80 time=0 actual_time=75600
type=note_on channel=5 note=47 velocity=0 time=96 actual_time=75696
type=note_on channel=5 note=59 velocity=0 time=0 actual_time=75696
type=note_on channel=5 note=54 velocity=0 time=0 actual_time=75696
type=note_on channel=5 note=54 velocity=80 time=24 actual_time=75720
type=note_on channel=5 note=47 velocity=80 time=0 actual_time=75720
type=note_on channel=5 note=47 velocity=0 time=48 actual_time=75768
type=note_on channel=5 note=54 velocity=0 time=0 actual_time=75768
type=note_on channel=5 note=54 velocity=80 time=12 actual_time=75780
type=note_on channel=5 note=47 velocity=80 time=0 actual_time=75780
type=note_on channel=5 note=47 velocity=0 time=48 actual_time=75828
type=note_on channel=5 note=54 velocity=0 time=0 actual_time=75828
type=note_on channel=5 note=47 velocity=80 time=12 actual_time=75840
type=note_on channel=5 note=52 velocity=80 time=0 actual_time=75840
type=note_on channel=5 note=40 velocity=80 time=0 actual_time=75840
type=note_on channel=5 note=40 velocity=0 time=96 actual_time=75936
type=note_on channel=5 note=52 velocity=0 time=0 actual_time=75936
type=note_on channel=5 note=47 velocity=0 time=0 actual_time=75936
type=note_on channel=5 note=47 velocity=80 time=24 actual_time=75960
type=note_on channel=5 note=40 velocity=80 time=0 actual_time=75960
type=note_on channel=5 note=40 velocity=0 time=48 actual_time=76008
type=note_on channel=5 note=47 velocity=0 time=0 actual_time=76008
type=note_on channel=5 note=47 velocity=80 time=12 actual_time=76020
type=note_on channel=5 note=40 velocity=80 time=0 actual_time=76020
type=note_on channel=5 note=40 velocity=0 time=48 actual_time=76068
type=note_on channel=5 note=47 velocity=0 time=0 actual_time=76068
type=note_on channel=5 note=47 velocity=80 time=12 actual_time=76080
type=note_on channel=5 note=52 velocity=80 time=0 actual_time=76080
type=note_on channel=5 note=40 velocity=80 time=0 actual_time=76080
type=note_on channel=5 note=40 velocity=0 time=96 actual_time=76176
type=note_on channel=5 note=52 velocity=0 time=0 actual_time=76176
type=note_on channel=5 note=47 velocity=0 time=0 actual_time=76176
type=note_on channel=5 note=47 velocity=80 time=24 actual_time=76200
type=note_on channel=5 note=40 velocity=80 time=0 actual_time=76200
type=note_on channel=5 note=40 velocity=0 time=48 actual_time=76248
type=note_on channel=5 note=47 velocity=0 time=0 actual_time=76248
type=note_on channel=5 note=47 velocity=80 time=12 actual_time=76260
type=note_on channel=5 note=40 velocity=80 time=0 actual_time=76260
type=note_on channel=5 note=40 velocity=0 time=48 actual_time=76308
type=note_on channel=5 note=47 velocity=0 time=0 actual_time=76308
type=note_on channel=5 note=49 velocity=80 time=12 actual_time=76320
type=note_on channel=5 note=54 velocity=80 time=0 actual_time=76320
type=note_on channel=5 note=42 velocity=80 time=0 actual_time=76320
type=note_on channel=5 note=42 velocity=0 time=96 actual_time=76416
type=note_on channel=5 note=54 velocity=0 time=0 actual_time=76416
type=note_on channel=5 note=49 velocity=0 time=0 actual_time=76416
type=note_on channel=5 note=49 velocity=80 time=24 actual_time=76440
type=note_on channel=5 note=42 velocity=80 time=0 actual_time=76440
type=note_on channel=5 note=42 velocity=0 time=48 actual_time=76488
type=note_on channel=5 note=49 velocity=0 time=0 actual_time=76488
type=note_on channel=5 note=49 velocity=80 time=12 actual_time=76500
type=note_on channel=5 note=42 velocity=80 time=0 actual_time=76500
type=note_on channel=5 note=42 velocity=0 time=48 actual_time=76548
type=note_on channel=5 note=49 velocity=0 time=0 actual_time=76548
type=note_on channel=5 note=49 velocity=80 time=12 actual_time=76560
type=note_on channel=5 note=54 velocity=80 time=0 actual_time=76560
type=note_on channel=5 note=42 velocity=80 time=0 actual_time=76560
type=note_on channel=5 note=42 velocity=0 time=96 actual_time=76656
type=note_on channel=5 note=54 velocity=0 time=0 actual_time=76656
type=note_on channel=5 note=49 velocity=0 time=0 actual_time=76656
type=note_on channel=5 note=49 velocity=80 time=24 actual_time=76680
type=note_on channel=5 note=42 velocity=80 time=0 actual_time=76680
type=note_on channel=5 note=42 velocity=0 time=48 actual_time=76728
type=note_on channel=5 note=49 velocity=0 time=0 actual_time=76728
type=note_on channel=5 note=49 velocity=80 time=12 actual_time=76740
type=note_on channel=5 note=42 velocity=80 time=0 actual_time=76740
type=note_on channel=5 note=42 velocity=0 time=48 actual_time=76788
type=note_on channel=5 note=49 velocity=0 time=0 actual_time=76788
type=note_on channel=5 note=54 velocity=80 time=12 actual_time=76800
type=note_on channel=5 note=59 velocity=80 time=0 actual_time=76800
type=note_on channel=5 note=47 velocity=80 time=0 actual_time=76800
type=note_on channel=5 note=47 velocity=0 time=96 actual_time=76896
type=note_on channel=5 note=59 velocity=0 time=0 actual_time=76896
type=note_on channel=5 note=54 velocity=0 time=0 actual_time=76896
type=note_on channel=5 note=54 velocity=80 time=24 actual_time=76920
type=note_on channel=5 note=47 velocity=80 time=0 actual_time=76920
type=note_on channel=5 note=47 velocity=0 time=48 actual_time=76968
type=note_on channel=5 note=54 velocity=0 time=0 actual_time=76968
type=note_on channel=5 note=54 velocity=80 time=12 actual_time=76980
type=note_on channel=5 note=47 velocity=80 time=0 actual_time=76980
type=note_on channel=5 note=47 velocity=0 time=48 actual_time=77028
type=note_on channel=5 note=54 velocity=0 time=0 actual_time=77028
type=note_on channel=5 note=47 velocity=80 time=12 actual_time=77040
type=note_on channel=5 note=59 velocity=80 time=0 actual_time=77040
type=note_on channel=5 note=54 velocity=80 time=0 actual_time=77040
type=note_on channel=5 note=54 velocity=0 time=96 actual_time=77136
type=note_on channel=5 note=59 velocity=0 time=0 actual_time=77136
type=note_on channel=5 note=47 velocity=0 time=0 actual_time=77136
type=note_on channel=5 note=47 velocity=80 time=24 actual_time=77160
type=note_on channel=5 note=54 velocity=80 time=0 actual_time=77160
type=note_on channel=5 note=54 velocity=0 time=48 actual_time=77208
type=note_on channel=5 note=47 velocity=0 time=0 actual_time=77208
type=note_on channel=5 note=47 velocity=80 time=12 actual_time=77220
type=note_on channel=5 note=54 velocity=80 time=0 actual_time=77220
type=note_on channel=5 note=54 velocity=0 time=48 actual_time=77268
type=note_on channel=5 note=47 velocity=0 time=0 actual_time=77268
type=note_on channel=5 note=47 velocity=80 time=12 actual_time=77280
type=note_on channel=5 note=59 velocity=80 time=0 actual_time=77280
type=note_on channel=5 note=54 velocity=80 time=0 actual_time=77280
type=note_on channel=5 note=54 velocity=0 time=96 actual_time=77376
type=note_on channel=5 note=59 velocity=0 time=0 actual_time=77376
type=note_on channel=5 note=47 velocity=0 time=0 actual_time=77376
type=note_on channel=5 note=47 velocity=80 time=24 actual_time=77400
type=note_on channel=5 note=54 velocity=80 time=0 actual_time=77400
type=note_on channel=5 note=54 velocity=0 time=48 actual_time=77448
type=note_on channel=5 note=47 velocity=0 time=0 actual_time=77448
type=note_on channel=5 note=47 velocity=80 time=12 actual_time=77460
type=note_on channel=5 note=54 velocity=80 time=0 actual_time=77460
type=note_on channel=5 note=54 velocity=0 time=48 actual_time=77508
type=note_on channel=5 note=47 velocity=0 time=0 actual_time=77508
type=note_on channel=5 note=47 velocity=80 time=12 actual_time=77520
type=note_on channel=5 note=59 velocity=80 time=0 actual_time=77520
type=note_on channel=5 note=54 velocity=80 time=0 actual_time=77520
type=note_on channel=5 note=54 velocity=0 time=96 actual_time=77616
type=note_on channel=5 note=59 velocity=0 time=0 actual_time=77616
type=note_on channel=5 note=47 velocity=0 time=0 actual_time=77616
type=note_on channel=5 note=47 velocity=80 time=24 actual_time=77640
type=note_on channel=5 note=54 velocity=80 time=0 actual_time=77640
type=note_on channel=5 note=54 velocity=0 time=48 actual_time=77688
type=note_on channel=5 note=47 velocity=0 time=0 actual_time=77688
type=note_on channel=5 note=47 velocity=80 time=12 actual_time=77700
type=note_on channel=5 note=54 velocity=80 time=0 actual_time=77700
type=note_on channel=5 note=54 velocity=0 time=48 actual_time=77748
type=note_on channel=5 note=47 velocity=0 time=0 actual_time=77748
type=note_on channel=5 note=43 velocity=80 time=12 actual_time=77760
type=note_on channel=5 note=55 velocity=80 time=0 actual_time=77760
type=note_on channel=5 note=50 velocity=80 time=0 actual_time=77760
type=note_on channel=5 note=50 velocity=0 time=96 actual_time=77856
type=note_on channel=5 note=55 velocity=0 time=0 actual_time=77856
type=note_on channel=5 note=43 velocity=0 time=0 actual_time=77856
type=note_on channel=5 note=43 velocity=80 time=24 actual_time=77880
type=note_on channel=5 note=50 velocity=80 time=0 actual_time=77880
type=note_on channel=5 note=50 velocity=0 time=48 actual_time=77928
type=note_on channel=5 note=43 velocity=0 time=0 actual_time=77928
type=note_on channel=5 note=43 velocity=80 time=12 actual_time=77940
type=note_on channel=5 note=50 velocity=80 time=0 actual_time=77940
type=note_on channel=5 note=50 velocity=0 time=48 actual_time=77988
type=note_on channel=5 note=43 velocity=0 time=0 actual_time=77988
type=note_on channel=5 note=43 velocity=80 time=12 actual_time=78000
type=note_on channel=5 note=55 velocity=80 time=0 actual_time=78000
type=note_on channel=5 note=50 velocity=80 time=0 actual_time=78000
type=note_on channel=5 note=50 velocity=0 time=96 actual_time=78096
type=note_on channel=5 note=55 velocity=0 time=0 actual_time=78096
type=note_on channel=5 note=43 velocity=0 time=0 actual_time=78096
type=note_on channel=5 note=43 velocity=80 time=24 actual_time=78120
type=note_on channel=5 note=50 velocity=80 time=0 actual_time=78120
type=note_on channel=5 note=50 velocity=0 time=48 actual_time=78168
type=note_on channel=5 note=43 velocity=0 time=0 actual_time=78168
type=note_on channel=5 note=43 velocity=80 time=12 actual_time=78180
type=note_on channel=5 note=50 velocity=80 time=0 actual_time=78180
type=note_on channel=5 note=50 velocity=0 time=48 actual_time=78228
type=note_on channel=5 note=43 velocity=0 time=0 actual_time=78228
type=note_on channel=5 note=45 velocity=80 time=12 actual_time=78240
type=note_on channel=5 note=57 velocity=80 time=0 actual_time=78240
type=note_on channel=5 note=52 velocity=80 time=0 actual_time=78240
type=note_on channel=5 note=52 velocity=0 time=96 actual_time=78336
type=note_on channel=5 note=57 velocity=0 time=0 actual_time=78336
type=note_on channel=5 note=45 velocity=0 time=0 actual_time=78336
type=note_on channel=5 note=45 velocity=80 time=24 actual_time=78360
type=note_on channel=5 note=52 velocity=80 time=0 actual_time=78360
type=note_on channel=5 note=52 velocity=0 time=48 actual_time=78408
type=note_on channel=5 note=45 velocity=0 time=0 actual_time=78408
type=note_on channel=5 note=45 velocity=80 time=12 actual_time=78420
type=note_on channel=5 note=52 velocity=80 time=0 actual_time=78420
type=note_on channel=5 note=52 velocity=0 time=48 actual_time=78468
type=note_on channel=5 note=45 velocity=0 time=0 actual_time=78468
type=note_on channel=5 note=45 velocity=80 time=12 actual_time=78480
type=note_on channel=5 note=57 velocity=80 time=0 actual_time=78480
type=note_on channel=5 note=52 velocity=80 time=0 actual_time=78480
type=note_on channel=5 note=52 velocity=0 time=96 actual_time=78576
type=note_on channel=5 note=57 velocity=0 time=0 actual_time=78576
type=note_on channel=5 note=45 velocity=0 time=0 actual_time=78576
type=note_on channel=5 note=45 velocity=80 time=24 actual_time=78600
type=note_on channel=5 note=52 velocity=80 time=0 actual_time=78600
type=note_on channel=5 note=52 velocity=0 time=48 actual_time=78648
type=note_on channel=5 note=45 velocity=0 time=0 actual_time=78648
type=note_on channel=5 note=45 velocity=80 time=12 actual_time=78660
type=note_on channel=5 note=52 velocity=80 time=0 actual_time=78660
type=note_on channel=5 note=52 velocity=0 time=48 actual_time=78708
type=note_on channel=5 note=45 velocity=0 time=0 actual_time=78708
type=note_on channel=5 note=54 velocity=80 time=12 actual_time=78720
type=note_on channel=5 note=59 velocity=80 time=0 actual_time=78720
type=note_on channel=5 note=47 velocity=80 time=0 actual_time=78720
type=note_on channel=5 note=47 velocity=0 time=96 actual_time=78816
type=note_on channel=5 note=59 velocity=0 time=0 actual_time=78816
type=note_on channel=5 note=54 velocity=0 time=0 actual_time=78816
type=note_on channel=5 note=54 velocity=80 time=24 actual_time=78840
type=note_on channel=5 note=47 velocity=80 time=0 actual_time=78840
type=note_on channel=5 note=47 velocity=0 time=48 actual_time=78888
type=note_on channel=5 note=54 velocity=0 time=0 actual_time=78888
type=note_on channel=5 note=54 velocity=80 time=12 actual_time=78900
type=note_on channel=5 note=47 velocity=80 time=0 actual_time=78900
type=note_on channel=5 note=47 velocity=0 time=48 actual_time=78948
type=note_on channel=5 note=54 velocity=0 time=0 actual_time=78948
type=note_on channel=5 note=47 velocity=80 time=12 actual_time=78960
type=note_on channel=5 note=59 velocity=80 time=0 actual_time=78960
type=note_on channel=5 note=54 velocity=80 time=0 actual_time=78960
type=note_on channel=5 note=54 velocity=0 time=96 actual_time=79056
type=note_on channel=5 note=59 velocity=0 time=0 actual_time=79056
type=note_on channel=5 note=47 velocity=0 time=0 actual_time=79056
type=note_on channel=5 note=47 velocity=80 time=24 actual_time=79080
type=note_on channel=5 note=54 velocity=80 time=0 actual_time=79080
type=note_on channel=5 note=54 velocity=0 time=48 actual_time=79128
type=note_on channel=5 note=47 velocity=0 time=0 actual_time=79128
type=note_on channel=5 note=47 velocity=80 time=12 actual_time=79140
type=note_on channel=5 note=54 velocity=80 time=0 actual_time=79140
type=note_on channel=5 note=54 velocity=0 time=48 actual_time=79188
type=note_on channel=5 note=47 velocity=0 time=0 actual_time=79188
type=note_on channel=5 note=47 velocity=80 time=12 actual_time=79200
type=note_on channel=5 note=59 velocity=80 time=0 actual_time=79200
type=note_on channel=5 note=54 velocity=80 time=0 actual_time=79200
type=note_on channel=5 note=54 velocity=0 time=96 actual_time=79296
type=note_on channel=5 note=59 velocity=0 time=0 actual_time=79296
type=note_on channel=5 note=47 velocity=0 time=0 actual_time=79296
type=note_on channel=5 note=47 velocity=80 time=24 actual_time=79320
type=note_on channel=5 note=54 velocity=80 time=0 actual_time=79320
type=note_on channel=5 note=54 velocity=0 time=48 actual_time=79368
type=note_on channel=5 note=47 velocity=0 time=0 actual_time=79368
type=note_on channel=5 note=47 velocity=80 time=12 actual_time=79380
type=note_on channel=5 note=54 velocity=80 time=0 actual_time=79380
type=note_on channel=5 note=54 velocity=0 time=48 actual_time=79428
type=note_on channel=5 note=47 velocity=0 time=0 actual_time=79428
type=note_on channel=5 note=47 velocity=80 time=12 actual_time=79440
type=note_on channel=5 note=59 velocity=80 time=0 actual_time=79440
type=note_on channel=5 note=54 velocity=80 time=0 actual_time=79440
type=note_on channel=5 note=54 velocity=0 time=96 actual_time=79536
type=note_on channel=5 note=59 velocity=0 time=0 actual_time=79536
type=note_on channel=5 note=47 velocity=0 time=0 actual_time=79536
type=note_on channel=5 note=47 velocity=80 time=24 actual_time=79560
type=note_on channel=5 note=54 velocity=80 time=0 actual_time=79560
type=note_on channel=5 note=54 velocity=0 time=48 actual_time=79608
type=note_on channel=5 note=47 velocity=0 time=0 actual_time=79608
type=note_on channel=5 note=47 velocity=80 time=12 actual_time=79620
type=note_on channel=5 note=54 velocity=80 time=0 actual_time=79620
type=note_on channel=5 note=54 velocity=0 time=48 actual_time=79668
type=note_on channel=5 note=47 velocity=0 time=0 actual_time=79668
type=note_on channel=5 note=40 velocity=80 time=12 actual_time=79680
type=note_on channel=5 note=52 velocity=80 time=0 actual_time=79680
type=note_on channel=5 note=47 velocity=80 time=0 actual_time=79680
type=note_on channel=5 note=47 velocity=0 time=96 actual_time=79776
type=note_on channel=5 note=52 velocity=0 time=0 actual_time=79776
type=note_on channel=5 note=40 velocity=0 time=0 actual_time=79776
type=note_on channel=5 note=52 velocity=80 time=24 actual_time=79800
type=note_on channel=5 note=40 velocity=80 time=0 actual_time=79800
type=note_on channel=5 note=47 velocity=80 time=0 actual_time=79800
type=note_on channel=5 note=47 velocity=0 time=96 actual_time=79896
type=note_on channel=5 note=40 velocity=0 time=0 actual_time=79896
type=note_on channel=5 note=52 velocity=0 time=0 actual_time=79896
type=note_on channel=5 note=47 velocity=80 time=24 actual_time=79920
type=note_on channel=5 note=52 velocity=80 time=0 actual_time=79920
type=note_on channel=5 note=40 velocity=80 time=0 actual_time=79920
type=note_on channel=5 note=40 velocity=0 time=96 actual_time=80016
type=note_on channel=5 note=52 velocity=0 time=0 actual_time=80016
type=note_on channel=5 note=47 velocity=0 time=0 actual_time=80016
type=note_on channel=5 note=40 velocity=80 time=24 actual_time=80040
type=note_on channel=5 note=47 velocity=80 time=0 actual_time=80040
type=note_on channel=5 note=52 velocity=80 time=0 actual_time=80040
type=note_on channel=5 note=52 velocity=0 time=96 actual_time=80136
type=note_on channel=5 note=47 velocity=0 time=0 actual_time=80136
type=note_on channel=5 note=40 velocity=0 time=0 actual_time=80136
type=note_on channel=5 note=42 velocity=80 time=24 actual_time=80160
type=note_on channel=5 note=54 velocity=80 time=0 actual_time=80160
type=note_on channel=5 note=49 velocity=80 time=0 actual_time=80160
type=note_on channel=5 note=49 velocity=0 time=96 actual_time=80256
type=note_on channel=5 note=54 velocity=0 time=0 actual_time=80256
type=note_on channel=5 note=42 velocity=0 time=0 actual_time=80256
type=note_on channel=5 note=54 velocity=80 time=24 actual_time=80280
type=note_on channel=5 note=42 velocity=80 time=0 actual_time=80280
type=note_on channel=5 note=49 velocity=80 time=0 actual_time=80280
type=note_on channel=5 note=49 velocity=0 time=96 actual_time=80376
type=note_on channel=5 note=42 velocity=0 time=0 actual_time=80376
type=note_on channel=5 note=54 velocity=0 time=0 actual_time=80376
type=note_on channel=5 note=49 velocity=80 time=24 actual_time=80400
type=note_on channel=5 note=54 velocity=80 time=0 actual_time=80400
type=note_on channel=5 note=42 velocity=80 time=0 actual_time=80400
type=note_on channel=5 note=42 velocity=0 time=96 actual_time=80496
type=note_on channel=5 note=54 velocity=0 time=0 actual_time=80496
type=note_on channel=5 note=49 velocity=0 time=0 actual_time=80496
type=note_on channel=5 note=42 velocity=80 time=24 actual_time=80520
type=note_on channel=5 note=49 velocity=80 time=0 actual_time=80520
type=note_on channel=5 note=54 velocity=80 time=0 actual_time=80520
type=note_on channel=5 note=54 velocity=0 time=96 actual_time=80616
type=note_on channel=5 note=49 velocity=0 time=0 actual_time=80616
type=note_on channel=5 note=42 velocity=0 time=0 actual_time=80616
type=note_on channel=5 note=47 velocity=80 time=24 actual_time=80640
type=note_on channel=5 note=59 velocity=80 time=0 actual_time=80640
type=note_on channel=5 note=54 velocity=80 time=0 actual_time=80640
type=note_on channel=5 note=47 velocity=80 time=0 actual_time=80640
type=note_on channel=5 note=47 velocity=0 time=144 actual_time=80784
type=note_on channel=5 note=49 velocity=80 time=36 actual_time=80820
type=note_on channel=5 note=49 velocity=80 time=0 actual_time=80820
type=note_on channel=5 note=49 velocity=0 time=144 actual_time=80964
type=note_on channel=5 note=49 velocity=0 time=0 actual_time=80964
type=note_on channel=5 note=50 velocity=80 time=36 actual_time=81000
type=note_on channel=5 note=50 velocity=80 time=0 actual_time=81000
type=note_on channel=5 note=50 velocity=0 time=144 actual_time=81144
type=note_on channel=5 note=47 velocity=0 time=0 actual_time=81144
type=note_on channel=5 note=50 velocity=0 time=0 actual_time=81144
type=note_on channel=5 note=49 velocity=80 time=36 actual_time=81180
type=note_on channel=5 note=49 velocity=80 time=0 actual_time=81180
type=note_on channel=5 note=49 velocity=0 time=144 actual_time=81324
type=note_on channel=5 note=49 velocity=0 time=0 actual_time=81324
type=note_on channel=5 note=50 velocity=80 time=36 actual_time=81360
type=note_on channel=5 note=50 velocity=80 time=0 actual_time=81360
type=note_on channel=5 note=50 velocity=0 time=96 actual_time=81456
type=note_on channel=5 note=50 velocity=0 time=0 actual_time=81456
type=note_on channel=5 note=49 velocity=80 time=24 actual_time=81480
type=note_on channel=5 note=49 velocity=80 time=0 actual_time=81480
type=note_on channel=5 note=49 velocity=0 time=96 actual_time=81576
type=note_on channel=5 note=59 velocity=0 time=0 actual_time=81576
type=note_on channel=5 note=54 velocity=0 time=0 actual_time=81576
type=note_on channel=5 note=49 velocity=0 time=0 actual_time=81576
type=note_on channel=5 note=47 velocity=64 time=0 actual_time=81576
type=note_on channel=5 note=47 velocity=0 time=0 actual_time=81576
type=note_on channel=5 note=52 velocity=80 time=24 actual_time=81600
type=note_on channel=5 note=52 velocity=80 time=0 actual_time=81600
type=note_on channel=5 note=55 velocity=80 time=0 actual_time=81600
type=note_on channel=5 note=43 velocity=80 time=0 actual_time=81600
type=note_on channel=5 note=52 velocity=0 time=144 actual_time=81744
type=note_on channel=5 note=52 velocity=0 time=0 actual_time=81744
type=note_on channel=5 note=50 velocity=80 time=36 actual_time=81780
type=note_on channel=5 note=50 velocity=80 time=0 actual_time=81780
type=note_on channel=5 note=50 velocity=0 time=144 actual_time=81924
type=note_on channel=5 note=50 velocity=0 time=0 actual_time=81924
type=note_on channel=5 note=49 velocity=80 time=36 actual_time=81960
type=note_on channel=5 note=49 velocity=80 time=0 actual_time=81960
type=note_on channel=5 note=49 velocity=0 time=48 actual_time=82008
type=note_on channel=5 note=43 velocity=0 time=0 actual_time=82008
type=note_on channel=5 note=55 velocity=0 time=0 actual_time=82008
type=note_on channel=5 note=49 velocity=0 time=0 actual_time=82008
type=note_on channel=5 note=43 velocity=80 time=12 actual_time=82020
type=note_on channel=5 note=55 velocity=80 time=0 actual_time=82020
type=note_on channel=5 note=50 velocity=80 time=0 actual_time=82020
type=note_on channel=5 note=50 velocity=0 time=48 actual_time=82068
type=note_on channel=5 note=55 velocity=0 time=0 actual_time=82068
type=note_on channel=5 note=43 velocity=0 time=0 actual_time=82068
type=note_on channel=5 note=57 velocity=80 time=12 actual_time=82080
type=note_on channel=5 note=45 velocity=80 time=0 actual_time=82080
type=note_on channel=5 note=52 velocity=80 time=0 actual_time=82080
type=note_on channel=5 note=49 velocity=64 time=48 actual_time=82128
type=note_on channel=5 note=49 velocity=0 time=0 actual_time=82128
type=note_on channel=5 note=50 velocity=80 time=12 actual_time=82140
type=note_on channel=5 note=50 velocity=80 time=0 actual_time=82140
type=note_on channel=5 note=50 velocity=0 time=144 actual_time=82284
type=note_on channel=5 note=50 velocity=0 time=0 actual_time=82284
type=note_on channel=5 note=49 velocity=80 time=36 actual_time=82320
type=note_on channel=5 note=49 velocity=80 time=0 actual_time=82320
type=note_on channel=5 note=49 velocity=0 time=96 actual_time=82416
type=note_on channel=5 note=45 velocity=0 time=0 actual_time=82416
type=note_on channel=5 note=49 velocity=0 time=0 actual_time=82416
type=note_on channel=5 note=45 velocity=80 time=24 actual_time=82440
type=note_on channel=5 note=45 velocity=80 time=0 actual_time=82440
type=note_on channel=5 note=45 velocity=0 time=48 actual_time=82488
type=note_on channel=5 note=57 velocity=0 time=0 actual_time=82488
type=note_on channel=5 note=52 velocity=0 time=0 actual_time=82488
type=note_on channel=5 note=52 velocity=80 time=12 actual_time=82500
type=note_on channel=5 note=57 velocity=80 time=0 actual_time=82500
type=note_on channel=5 note=57 velocity=0 time=48 actual_time=82548
type=note_on channel=5 note=52 velocity=0 time=0 actual_time=82548
type=note_on channel=5 note=45 velocity=0 time=0 actual_time=82548
type=note_on channel=5 note=47 velocity=80 time=12 actual_time=82560
type=note_on channel=5 note=59 velocity=80 time=0 actual_time=82560
type=note_on channel=5 note=54 velocity=80 time=0 actual_time=82560
type=note_on channel=5 note=47 velocity=80 time=0 actual_time=82560
type=note_on channel=5 note=47 velocity=0 time=144 actual_time=82704
type=note_on channel=5 note=47 velocity=0 time=0 actual_time=82704
type=note_on channel=5 note=45 velocity=80 time=36 actual_time=82740
type=note_on channel=5 note=45 velocity=80 time=0 actual_time=82740
type=note_on channel=5 note=45 velocity=0 time=96 actual_time=82836
type=note_on channel=5 note=45 velocity=0 time=0 actual_time=82836
type=note_on channel=5 note=45 velocity=80 time=24 actual_time=82860
type=note_on channel=5 note=45 velocity=80 time=0 actual_time=82860
type=note_on channel=5 note=45 velocity=0 time=48 actual_time=82908
type=note_on channel=5 note=45 velocity=0 time=0 actual_time=82908
type=note_on channel=5 note=47 velocity=80 time=12 actual_time=82920
type=note_on channel=5 note=47 velocity=80 time=0 actual_time=82920
type=note_on channel=5 note=47 velocity=0 time=144 actual_time=83064
type=note_on channel=5 note=47 velocity=0 time=0 actual_time=83064
type=note_on channel=5 note=45 velocity=80 time=36 actual_time=83100
type=note_on channel=5 note=45 velocity=80 time=0 actual_time=83100
type=note_on channel=5 note=45 velocity=0 time=96 actual_time=83196
type=note_on channel=5 note=45 velocity=0 time=0 actual_time=83196
type=note_on channel=5 note=45 velocity=80 time=24 actual_time=83220
type=note_on channel=5 note=45 velocity=80 time=0 actual_time=83220
type=note_on channel=5 note=45 velocity=0 time=48 actual_time=83268
type=note_on channel=5 note=45 velocity=0 time=0 actual_time=83268
type=note_on channel=5 note=47 velocity=80 time=12 actual_time=83280
type=note_on channel=5 note=47 velocity=80 time=0 actual_time=83280
type=note_on channel=5 note=47 velocity=0 time=96 actual_time=83376
type=note_on channel=5 note=47 velocity=0 time=0 actual_time=83376
type=note_on channel=5 note=47 velocity=80 time=24 actual_time=83400
type=note_on channel=5 note=47 velocity=80 time=0 actual_time=83400
type=note_on channel=5 note=47 velocity=0 time=96 actual_time=83496
type=note_on channel=5 note=59 velocity=0 time=0 actual_time=83496
type=note_on channel=5 note=54 velocity=0 time=0 actual_time=83496
type=note_on channel=5 note=47 velocity=0 time=0 actual_time=83496
type=note_on channel=5 note=52 velocity=80 time=24 actual_time=83520
type=note_on channel=5 note=55 velocity=80 time=0 actual_time=83520
type=note_on channel=5 note=52 velocity=80 time=0 actual_time=83520
type=note_on channel=5 note=43 velocity=80 time=0 actual_time=83520
type=note_on channel=5 note=52 velocity=0 time=48 actual_time=83568
type=note_on channel=5 note=52 velocity=0 time=0 actual_time=83568
type=note_on channel=5 note=50 velocity=80 time=12 actual_time=83580
type=note_on channel=5 note=50 velocity=80 time=0 actual_time=83580
type=note_on channel=5 note=50 velocity=0 time=48 actual_time=83628
type=note_on channel=5 note=50 velocity=0 time=0 actual_time=83628
type=note_on channel=5 note=52 velocity=80 time=12 actual_time=83640
type=note_on channel=5 note=52 velocity=80 time=0 actual_time=83640
type=note_on channel=5 note=52 velocity=0 time=48 actual_time=83688
type=note_on channel=5 note=52 velocity=0 time=0 actual_time=83688
type=note_on channel=5 note=50 velocity=80 time=12 actual_time=83700
type=note_on channel=5 note=50 velocity=80 time=0 actual_time=83700
type=note_on channel=5 note=50 velocity=0 time=48 actual_time=83748
type=note_on channel=5 note=50 velocity=0 time=0 actual_time=83748
type=note_on channel=5 note=52 velocity=80 time=12 actual_time=83760
type=note_on channel=5 note=52 velocity=80 time=0 actual_time=83760
type=note_on channel=5 note=52 velocity=0 time=48 actual_time=83808
type=note_on channel=5 note=52 velocity=0 time=0 actual_time=83808
type=note_on channel=5 note=50 velocity=80 time=12 actual_time=83820
type=note_on channel=5 note=50 velocity=80 time=0 actual_time=83820
type=note_on channel=5 note=50 velocity=0 time=48 actual_time=83868
type=note_on channel=5 note=50 velocity=0 time=0 actual_time=83868
type=note_on channel=5 note=52 velocity=80 time=12 actual_time=83880
type=note_on channel=5 note=52 velocity=80 time=0 actual_time=83880
type=note_on channel=5 note=52 velocity=0 time=48 actual_time=83928
type=note_on channel=5 note=43 velocity=0 time=0 actual_time=83928
type=note_on channel=5 note=55 velocity=0 time=0 actual_time=83928
type=note_on channel=5 note=52 velocity=0 time=0 actual_time=83928
type=note_on channel=5 note=50 velocity=80 time=12 actual_time=83940
type=note_on channel=5 note=50 velocity=80 time=0 actual_time=83940
type=note_on channel=5 note=43 velocity=80 time=0 actual_time=83940
type=note_on channel=5 note=43 velocity=0 time=48 actual_time=83988
type=note_on channel=5 note=50 velocity=0 time=0 actual_time=83988
type=note_on channel=5 note=50 velocity=0 time=0 actual_time=83988
type=note_on channel=5 note=50 velocity=80 time=12 actual_time=84000
type=note_on channel=5 note=50 velocity=80 time=0 actual_time=84000
type=note_on channel=5 note=57 velocity=80 time=0 actual_time=84000
type=note_on channel=5 note=45 velocity=80 time=0 actual_time=84000
type=note_on channel=5 note=50 velocity=0 time=48 actual_time=84048
type=note_on channel=5 note=50 velocity=0 time=0 actual_time=84048
type=note_on channel=5 note=49 velocity=80 time=12 actual_time=84060
type=note_on channel=5 note=49 velocity=80 time=0 actual_time=84060
type=note_on channel=5 note=49 velocity=0 time=48 actual_time=84108
type=note_on channel=5 note=49 velocity=0 time=0 actual_time=84108
type=note_on channel=5 note=50 velocity=80 time=12 actual_time=84120
type=note_on channel=5 note=50 velocity=80 time=0 actual_time=84120
type=note_on channel=5 note=50 velocity=0 time=48 actual_time=84168
type=note_on channel=5 note=50 velocity=0 time=0 actual_time=84168
type=note_on channel=5 note=49 velocity=80 time=12 actual_time=84180
type=note_on channel=5 note=49 velocity=80 time=0 actual_time=84180
type=note_on channel=5 note=49 velocity=0 time=48 actual_time=84228
type=note_on channel=5 note=49 velocity=0 time=0 actual_time=84228
type=note_on channel=5 note=50 velocity=80 time=12 actual_time=84240
type=note_on channel=5 note=50 velocity=80 time=0 actual_time=84240
type=note_on channel=5 note=50 velocity=0 time=48 actual_time=84288
type=note_on channel=5 note=50 velocity=0 time=0 actual_time=84288
type=note_on channel=5 note=49 velocity=80 time=12 actual_time=84300
type=note_on channel=5 note=49 velocity=80 time=0 actual_time=84300
type=note_on channel=5 note=49 velocity=0 time=48 actual_time=84348
type=note_on channel=5 note=49 velocity=0 time=0 actual_time=84348
type=note_on channel=5 note=50 velocity=80 time=12 actual_time=84360
type=note_on channel=5 note=50 velocity=80 time=0 actual_time=84360
type=note_on channel=5 note=50 velocity=0 time=48 actual_time=84408
type=note_on channel=5 note=45 velocity=0 time=0 actual_time=84408
type=note_on channel=5 note=57 velocity=0 time=0 actual_time=84408
type=note_on channel=5 note=50 velocity=0 time=0 actual_time=84408
type=note_on channel=5 note=45 velocity=80 time=12 actual_time=84420
type=note_on channel=5 note=45 velocity=80 time=0 actual_time=84420
type=note_on channel=5 note=52 velocity=80 time=0 actual_time=84420
type=note_on channel=5 note=52 velocity=0 time=48 actual_time=84468
type=note_on channel=5 note=45 velocity=0 time=0 actual_time=84468
type=note_on channel=5 note=45 velocity=0 time=0 actual_time=84468
type=note_on channel=5 note=47 velocity=80 time=12 actual_time=84480
type=note_on channel=5 note=54 velocity=80 time=0 actual_time=84480
type=note_on channel=5 note=59 velocity=80 time=0 actual_time=84480
type=note_on channel=5 note=47 velocity=80 time=0 actual_time=84480
type=note_on channel=5 note=47 velocity=0 time=144 actual_time=84624
type=note_on channel=5 note=49 velocity=80 time=36 actual_time=84660
type=note_on channel=5 note=49 velocity=80 time=0 actual_time=84660
type=note_on channel=5 note=49 velocity=0 time=144 actual_time=84804
type=note_on channel=5 note=49 velocity=0 time=0 actual_time=84804
type=note_on channel=5 note=50 velocity=80 time=36 actual_time=84840
type=note_on channel=5 note=50 velocity=80 time=0 actual_time=84840
type=note_on channel=5 note=50 velocity=0 time=144 actual_time=84984
type=note_on channel=5 note=50 velocity=0 time=0 actual_time=84984
type=note_on channel=5 note=49 velocity=80 time=36 actual_time=85020
type=note_on channel=5 note=49 velocity=80 time=0 actual_time=85020
type=note_on channel=5 note=49 velocity=0 time=144 actual_time=85164
type=note_on channel=5 note=49 velocity=0 time=0 actual_time=85164
type=note_on channel=5 note=50 velocity=80 time=36 actual_time=85200
type=note_on channel=5 note=50 velocity=80 time=0 actual_time=85200
type=note_on channel=5 note=50 velocity=0 time=96 actual_time=85296
type=note_on channel=5 note=50 velocity=0 time=0 actual_time=85296
type=note_on channel=5 note=49 velocity=80 time=24 actual_time=85320
type=note_on channel=5 note=49 velocity=80 time=0 actual_time=85320
type=note_on channel=5 note=49 velocity=0 time=96 actual_time=85416
type=note_on channel=5 note=54 velocity=0 time=0 actual_time=85416
type=note_on channel=5 note=47 velocity=0 time=0 actual_time=85416
type=note_on channel=5 note=59 velocity=0 time=0 actual_time=85416
type=note_on channel=5 note=49 velocity=0 time=0 actual_time=85416
type=note_on channel=5 note=43 velocity=80 time=24 actual_time=85440
type=note_on channel=5 note=55 velocity=80 time=0 actual_time=85440
type=note_on channel=5 note=55 velocity=80 time=0 actual_time=85440
type=note_on channel=5 note=55 velocity=80 time=0 actual_time=85440
type=note_on channel=5 note=55 velocity=0 time=144 actual_time=85584
type=note_on channel=5 note=55 velocity=0 time=0 actual_time=85584
type=note_on channel=5 note=54 velocity=80 time=36 actual_time=85620
type=note_on channel=5 note=54 velocity=80 time=0 actual_time=85620
type=note_on channel=5 note=54 velocity=0 time=144 actual_time=85764
type=note_on channel=5 note=54 velocity=0 time=0 actual_time=85764
type=note_on channel=5 note=52 velocity=80 time=36 actual_time=85800
type=note_on channel=5 note=52 velocity=80 time=0 actual_time=85800
type=note_on channel=5 note=52 velocity=0 time=48 actual_time=85848
type=note_on channel=5 note=55 velocity=0 time=0 actual_time=85848
type=note_on channel=5 note=43 velocity=0 time=0 actual_time=85848
type=note_on channel=5 note=55 velocity=80 time=12 actual_time=85860
type=note_on channel=5 note=43 velocity=80 time=0 actual_time=85860
type=note_on channel=5 note=43 velocity=0 time=48 actual_time=85908
type=note_on channel=5 note=55 velocity=0 time=0 actual_time=85908
type=note_on channel=5 note=45 velocity=80 time=12 actual_time=85920
type=note_on channel=5 note=57 velocity=80 time=0 actual_time=85920
type=note_on channel=5 note=50 velocity=80 time=60 actual_time=85980
type=note_on channel=5 note=50 velocity=80 time=0 actual_time=85980
type=note_on channel=5 note=50 velocity=0 time=144 actual_time=86124
type=note_on channel=5 note=50 velocity=0 time=0 actual_time=86124
type=note_on channel=5 note=49 velocity=80 time=36 actual_time=86160
type=note_on channel=5 note=49 velocity=80 time=0 actual_time=86160
type=note_on channel=5 note=49 velocity=0 time=96 actual_time=86256
type=note_on channel=5 note=45 velocity=0 time=0 actual_time=86256
type=note_on channel=5 note=49 velocity=0 time=0 actual_time=86256
type=note_on channel=5 note=45 velocity=80 time=24 actual_time=86280
type=note_on channel=5 note=45 velocity=80 time=0 actual_time=86280
type=note_on channel=5 note=45 velocity=0 time=48 actual_time=86328
type=note_on channel=5 note=52 velocity=0 time=0 actual_time=86328
type=note_on channel=5 note=57 velocity=0 time=0 actual_time=86328
type=note_on channel=5 note=57 velocity=80 time=12 actual_time=86340
type=note_on channel=5 note=52 velocity=80 time=0 actual_time=86340
type=note_on channel=5 note=52 velocity=0 time=48 actual_time=86388
type=note_on channel=5 note=57 velocity=0 time=0 actual_time=86388
type=note_on channel=5 note=45 velocity=0 time=0 actual_time=86388
type=note_on channel=5 note=47 velocity=80 time=12 actual_time=86400
type=note_on channel=5 note=59 velocity=80 time=0 actual_time=86400
type=note_on channel=5 note=54 velocity=80 time=0 actual_time=86400
type=note_on channel=5 note=47 velocity=80 time=0 actual_time=86400
type=note_on channel=5 note=47 velocity=0 time=144 actual_time=86544
type=note_on channel=5 note=47 velocity=0 time=0 actual_time=86544
type=note_on channel=5 note=45 velocity=80 time=36 actual_time=86580
type=note_on channel=5 note=45 velocity=80 time=0 actual_time=86580
type=note_on channel=5 note=45 velocity=0 time=144 actual_time=86724
type=note_on channel=5 note=45 velocity=0 time=0 actual_time=86724
type=note_on channel=5 note=47 velocity=80 time=36 actual_time=86760
type=note_on channel=5 note=47 velocity=80 time=0 actual_time=86760
type=note_on channel=5 note=47 velocity=0 time=144 actual_time=86904
type=note_on channel=5 note=47 velocity=0 time=0 actual_time=86904
type=note_on channel=5 note=45 velocity=80 time=36 actual_time=86940
type=note_on channel=5 note=45 velocity=80 time=0 actual_time=86940
type=note_on channel=5 note=45 velocity=0 time=96 actual_time=87036
type=note_on channel=5 note=45 velocity=0 time=0 actual_time=87036
type=note_on channel=5 note=45 velocity=80 time=24 actual_time=87060
type=note_on channel=5 note=45 velocity=80 time=0 actual_time=87060
type=note_on channel=5 note=45 velocity=0 time=48 actual_time=87108
type=note_on channel=5 note=45 velocity=0 time=0 actual_time=87108
type=note_on channel=5 note=47 velocity=80 time=12 actual_time=87120
type=note_on channel=5 note=47 velocity=80 time=0 actual_time=87120
type=note_on channel=5 note=47 velocity=0 time=96 actual_time=87216
type=note_on channel=5 note=47 velocity=0 time=0 actual_time=87216
type=note_on channel=5 note=47 velocity=80 time=24 actual_time=87240
type=note_on channel=5 note=47 velocity=80 time=0 actual_time=87240
type=note_on channel=5 note=47 velocity=0 time=96 actual_time=87336
type=note_on channel=5 note=59 velocity=0 time=0 actual_time=87336
type=note_on channel=5 note=54 velocity=0 time=0 actual_time=87336
type=note_on channel=5 note=47 velocity=0 time=0 actual_time=87336
type=note_on channel=5 note=43 velocity=80 time=24 actual_time=87360
type=note_on channel=5 note=52 velocity=80 time=0 actual_time=87360
type=note_on channel=5 note=55 velocity=80 time=0 actual_time=87360
type=note_on channel=5 note=52 velocity=80 time=0 actual_time=87360
type=note_on channel=5 note=52 velocity=0 time=48 actual_time=87408
type=note_on channel=5 note=52 velocity=0 time=0 actual_time=87408
type=note_on channel=5 note=50 velocity=80 time=12 actual_time=87420
type=note_on channel=5 note=50 velocity=80 time=0 actual_time=87420
type=note_on channel=5 note=50 velocity=0 time=48 actual_time=87468
type=note_on channel=5 note=50 velocity=0 time=0 actual_time=87468
type=note_on channel=5 note=52 velocity=80 time=12 actual_time=87480
type=note_on channel=5 note=52 velocity=80 time=0 actual_time=87480
type=note_on channel=5 note=52 velocity=0 time=48 actual_time=87528
type=note_on channel=5 note=52 velocity=0 time=0 actual_time=87528
type=note_on channel=5 note=50 velocity=80 time=12 actual_time=87540
type=note_on channel=5 note=50 velocity=80 time=0 actual_time=87540
type=note_on channel=5 note=50 velocity=0 time=48 actual_time=87588
type=note_on channel=5 note=50 velocity=0 time=0 actual_time=87588
type=note_on channel=5 note=52 velocity=80 time=12 actual_time=87600
type=note_on channel=5 note=52 velocity=80 time=0 actual_time=87600
type=note_on channel=5 note=52 velocity=0 time=48 actual_time=87648
type=note_on channel=5 note=52 velocity=0 time=0 actual_time=87648
type=note_on channel=5 note=50 velocity=80 time=12 actual_time=87660
type=note_on channel=5 note=50 velocity=80 time=0 actual_time=87660
type=note_on channel=5 note=50 velocity=0 time=48 actual_time=87708
type=note_on channel=5 note=50 velocity=0 time=0 actual_time=87708
type=note_on channel=5 note=52 velocity=80 time=12 actual_time=87720
type=note_on channel=5 note=52 velocity=80 time=0 actual_time=87720
type=note_on channel=5 note=52 velocity=0 time=48 actual_time=87768
type=note_on channel=5 note=43 velocity=0 time=0 actual_time=87768
type=note_on channel=5 note=55 velocity=0 time=0 actual_time=87768
type=note_on channel=5 note=52 velocity=0 time=0 actual_time=87768
type=note_on channel=5 note=43 velocity=80 time=12 actual_time=87780
type=note_on channel=5 note=50 velocity=80 time=0 actual_time=87780
type=note_on channel=5 note=50 velocity=80 time=0 actual_time=87780
type=note_on channel=5 note=50 velocity=0 time=48 actual_time=87828
type=note_on channel=5 note=50 velocity=0 time=0 actual_time=87828
type=note_on channel=5 note=43 velocity=0 time=0 actual_time=87828
type=note_on channel=5 note=45 velocity=80 time=12 actual_time=87840
type=note_on channel=5 note=57 velocity=80 time=0 actual_time=87840
type=note_on channel=5 note=50 velocity=80 time=0 actual_time=87840
type=note_on channel=5 note=50 velocity=80 time=0 actual_time=87840
type=note_on channel=5 note=50 velocity=0 time=48 actual_time=87888
type=note_on channel=5 note=50 velocity=0 time=0 actual_time=87888
type=note_on channel=5 note=49 velocity=80 time=12 actual_time=87900
type=note_on channel=5 note=49 velocity=80 time=0 actual_time=87900
type=note_on channel=5 note=49 velocity=0 time=48 actual_time=87948
type=note_on channel=5 note=49 velocity=0 time=0 actual_time=87948
type=note_on channel=5 note=50 velocity=80 time=12 actual_time=87960
type=note_on channel=5 note=50 velocity=80 time=0 actual_time=87960
type=note_on channel=5 note=50 velocity=0 time=48 actual_time=88008
type=note_on channel=5 note=50 velocity=0 time=0 actual_time=88008
type=note_on channel=5 note=49 velocity=80 time=12 actual_time=88020
type=note_on channel=5 note=49 velocity=80 time=0 actual_time=88020
type=note_on channel=5 note=49 velocity=0 time=48 actual_time=88068
type=note_on channel=5 note=49 velocity=0 time=0 actual_time=88068
type=note_on channel=5 note=50 velocity=80 time=12 actual_time=88080
type=note_on channel=5 note=50 velocity=80 time=0 actual_time=88080
type=note_on channel=5 note=50 velocity=0 time=48 actual_time=88128
type=note_on channel=5 note=50 velocity=0 time=0 actual_time=88128
type=note_on channel=5 note=49 velocity=80 time=12 actual_time=88140
type=note_on channel=5 note=49 velocity=80 time=0 actual_time=88140
type=note_on channel=5 note=49 velocity=0 time=48 actual_time=88188
type=note_on channel=5 note=49 velocity=0 time=0 actual_time=88188
type=note_on channel=5 note=50 velocity=80 time=12 actual_time=88200
type=note_on channel=5 note=50 velocity=80 time=0 actual_time=88200
type=note_on channel=5 note=50 velocity=0 time=48 actual_time=88248
type=note_on channel=5 note=50 velocity=0 time=0 actual_time=88248
type=note_on channel=5 note=45 velocity=80 time=12 actual_time=88260
type=note_on channel=5 note=45 velocity=80 time=0 actual_time=88260
type=note_on channel=5 note=45 velocity=0 time=48 actual_time=88308
type=note_on channel=5 note=45 velocity=0 time=0 actual_time=88308
type=note_on channel=5 note=57 velocity=0 time=0 actual_time=88308
type=note_on channel=5 note=45 velocity=0 time=0 actual_time=88308
type=note_on channel=5 note=47 velocity=80 time=12 actual_time=88320
type=note_on channel=5 note=54 velocity=80 time=0 actual_time=88320
type=note_on channel=5 note=59 velocity=80 time=0 actual_time=88320
type=note_on channel=5 note=59 velocity=0 time=3648 actual_time=91968
type=note_on channel=5 note=54 velocity=0 time=0 actual_time=91968
type=note_on channel=5 note=47 velocity=0 time=0 actual_time=91968
MetaMessage type: end_of_track, time: 0, actual_time: 91968
MetaMessage type: track_name, time: 0, actual_time: 0
type: program_change, time: 0, actual_time: 0
type=control_change channel=6 control=7 value=99 time=0 actual_time=0
type=note_on channel=6 note=35 velocity=80 time=3840 actual_time=3840
type=note_on channel=6 note=35 velocity=0 time=912 actual_time=4752
type=note_on channel=6 note=31 velocity=80 time=48 actual_time=4800
type=note_on channel=6 note=31 velocity=0 time=456 actual_time=5256
type=note_on channel=6 note=33 velocity=80 time=24 actual_time=5280
type=note_on channel=6 note=33 velocity=0 time=456 actual_time=5736
type=note_on channel=6 note=35 velocity=80 time=24 actual_time=5760
type=note_on channel=6 note=35 velocity=0 time=912 actual_time=6672
type=note_on channel=6 note=31 velocity=80 time=48 actual_time=6720
type=note_on channel=6 note=31 velocity=0 time=456 actual_time=7176
type=note_on channel=6 note=33 velocity=80 time=24 actual_time=7200
type=note_on channel=6 note=33 velocity=0 time=456 actual_time=7656
type=note_on channel=6 note=35 velocity=80 time=24 actual_time=7680
type=note_on channel=6 note=35 velocity=0 time=912 actual_time=8592
type=note_on channel=6 note=31 velocity=80 time=48 actual_time=8640
type=note_on channel=6 note=31 velocity=0 time=456 actual_time=9096
type=note_on channel=6 note=33 velocity=80 time=24 actual_time=9120
type=note_on channel=6 note=33 velocity=0 time=456 actual_time=9576
type=note_on channel=6 note=35 velocity=80 time=24 actual_time=9600
type=note_on channel=6 note=35 velocity=0 time=912 actual_time=10512
type=note_on channel=6 note=31 velocity=80 time=48 actual_time=10560
type=note_on channel=6 note=31 velocity=0 time=456 actual_time=11016
type=note_on channel=6 note=33 velocity=80 time=24 actual_time=11040
type=note_on channel=6 note=33 velocity=0 time=456 actual_time=11496
type=note_on channel=6 note=35 velocity=80 time=24 actual_time=11520
type=note_on channel=6 note=35 velocity=0 time=912 actual_time=12432
type=note_on channel=6 note=31 velocity=80 time=48 actual_time=12480
type=note_on channel=6 note=31 velocity=0 time=456 actual_time=12936
type=note_on channel=6 note=33 velocity=80 time=24 actual_time=12960
type=note_on channel=6 note=33 velocity=0 time=456 actual_time=13416
type=note_on channel=6 note=35 velocity=80 time=24 actual_time=13440
type=note_on channel=6 note=35 velocity=0 time=912 actual_time=14352
type=note_on channel=6 note=31 velocity=80 time=48 actual_time=14400
type=note_on channel=6 note=31 velocity=0 time=456 actual_time=14856
type=note_on channel=6 note=33 velocity=80 time=24 actual_time=14880
type=note_on channel=6 note=33 velocity=0 time=456 actual_time=15336
type=note_on channel=6 note=35 velocity=80 time=24 actual_time=15360
type=note_on channel=6 note=35 velocity=0 time=912 actual_time=16272
type=note_on channel=6 note=31 velocity=80 time=48 actual_time=16320
type=note_on channel=6 note=31 velocity=0 time=456 actual_time=16776
type=note_on channel=6 note=33 velocity=80 time=24 actual_time=16800
type=note_on channel=6 note=33 velocity=0 time=456 actual_time=17256
type=note_on channel=6 note=35 velocity=80 time=24 actual_time=17280
type=note_on channel=6 note=35 velocity=0 time=912 actual_time=18192
type=note_on channel=6 note=31 velocity=80 time=48 actual_time=18240
type=note_on channel=6 note=31 velocity=0 time=456 actual_time=18696
type=note_on channel=6 note=33 velocity=80 time=24 actual_time=18720
type=note_on channel=6 note=33 velocity=0 time=456 actual_time=19176
type=note_on channel=6 note=35 velocity=80 time=24 actual_time=19200
type=note_on channel=6 note=35 velocity=0 time=912 actual_time=20112
type=note_on channel=6 note=31 velocity=80 time=48 actual_time=20160
type=note_on channel=6 note=31 velocity=0 time=456 actual_time=20616
type=note_on channel=6 note=33 velocity=80 time=24 actual_time=20640
type=note_on channel=6 note=33 velocity=0 time=456 actual_time=21096
type=note_on channel=6 note=35 velocity=80 time=24 actual_time=21120
type=note_on channel=6 note=35 velocity=0 time=912 actual_time=22032
type=note_on channel=6 note=31 velocity=80 time=48 actual_time=22080
type=note_on channel=6 note=31 velocity=0 time=456 actual_time=22536
type=note_on channel=6 note=33 velocity=80 time=24 actual_time=22560
type=note_on channel=6 note=33 velocity=0 time=456 actual_time=23016
type=note_on channel=6 note=35 velocity=80 time=24 actual_time=23040
type=note_on channel=6 note=35 velocity=0 time=912 actual_time=23952
type=note_on channel=6 note=31 velocity=80 time=48 actual_time=24000
type=note_on channel=6 note=31 velocity=0 time=456 actual_time=24456
type=note_on channel=6 note=33 velocity=80 time=24 actual_time=24480
type=note_on channel=6 note=33 velocity=0 time=456 actual_time=24936
type=note_on channel=6 note=35 velocity=80 time=24 actual_time=24960
type=note_on channel=6 note=35 velocity=0 time=912 actual_time=25872
type=note_on channel=6 note=31 velocity=80 time=48 actual_time=25920
type=note_on channel=6 note=31 velocity=0 time=456 actual_time=26376
type=note_on channel=6 note=33 velocity=80 time=24 actual_time=26400
type=note_on channel=6 note=33 velocity=0 time=456 actual_time=26856
type=note_on channel=6 note=35 velocity=80 time=24 actual_time=26880
type=note_on channel=6 note=35 velocity=0 time=96 actual_time=26976
type=note_on channel=6 note=35 velocity=80 time=24 actual_time=27000
type=note_on channel=6 note=35 velocity=0 time=48 actual_time=27048
type=note_on channel=6 note=35 velocity=80 time=12 actual_time=27060
type=note_on channel=6 note=35 velocity=0 time=48 actual_time=27108
type=note_on channel=6 note=35 velocity=80 time=12 actual_time=27120
type=note_on channel=6 note=35 velocity=0 time=96 actual_time=27216
type=note_on channel=6 note=35 velocity=80 time=24 actual_time=27240
type=note_on channel=6 note=35 velocity=0 time=48 actual_time=27288
type=note_on channel=6 note=35 velocity=80 time=12 actual_time=27300
type=note_on channel=6 note=35 velocity=0 time=48 actual_time=27348
type=note_on channel=6 note=35 velocity=80 time=12 actual_time=27360
type=note_on channel=6 note=35 velocity=0 time=96 actual_time=27456
type=note_on channel=6 note=35 velocity=80 time=24 actual_time=27480
type=note_on channel=6 note=35 velocity=0 time=48 actual_time=27528
type=note_on channel=6 note=35 velocity=80 time=12 actual_time=27540
type=note_on channel=6 note=35 velocity=0 time=48 actual_time=27588
type=note_on channel=6 note=35 velocity=80 time=12 actual_time=27600
type=note_on channel=6 note=35 velocity=0 time=96 actual_time=27696
type=note_on channel=6 note=35 velocity=80 time=24 actual_time=27720
type=note_on channel=6 note=35 velocity=0 time=48 actual_time=27768
type=note_on channel=6 note=35 velocity=80 time=12 actual_time=27780
type=note_on channel=6 note=35 velocity=0 time=48 actual_time=27828
type=note_on channel=6 note=31 velocity=80 time=12 actual_time=27840
type=note_on channel=6 note=31 velocity=0 time=96 actual_time=27936
type=note_on channel=6 note=31 velocity=80 time=24 actual_time=27960
type=note_on channel=6 note=31 velocity=0 time=48 actual_time=28008
type=note_on channel=6 note=31 velocity=80 time=12 actual_time=28020
type=note_on channel=6 note=31 velocity=0 time=48 actual_time=28068
type=note_on channel=6 note=31 velocity=80 time=12 actual_time=28080
type=note_on channel=6 note=31 velocity=0 time=96 actual_time=28176
type=note_on channel=6 note=31 velocity=80 time=24 actual_time=28200
type=note_on channel=6 note=31 velocity=0 time=48 actual_time=28248
type=note_on channel=6 note=31 velocity=80 time=12 actual_time=28260
type=note_on channel=6 note=31 velocity=0 time=48 actual_time=28308
type=note_on channel=6 note=33 velocity=80 time=12 actual_time=28320
type=note_on channel=6 note=33 velocity=0 time=96 actual_time=28416
type=note_on channel=6 note=33 velocity=80 time=24 actual_time=28440
type=note_on channel=6 note=33 velocity=0 time=48 actual_time=28488
type=note_on channel=6 note=33 velocity=80 time=12 actual_time=28500
type=note_on channel=6 note=33 velocity=0 time=48 actual_time=28548
type=note_on channel=6 note=33 velocity=80 time=12 actual_time=28560
type=note_on channel=6 note=33 velocity=0 time=96 actual_time=28656
type=note_on channel=6 note=33 velocity=80 time=24 actual_time=28680
type=note_on channel=6 note=33 velocity=0 time=48 actual_time=28728
type=note_on channel=6 note=33 velocity=80 time=12 actual_time=28740
type=note_on channel=6 note=33 velocity=0 time=48 actual_time=28788
type=note_on channel=6 note=35 velocity=80 time=12 actual_time=28800
type=note_on channel=6 note=35 velocity=0 time=96 actual_time=28896
type=note_on channel=6 note=35 velocity=80 time=24 actual_time=28920
type=note_on channel=6 note=35 velocity=0 time=48 actual_time=28968
type=note_on channel=6 note=35 velocity=80 time=12 actual_time=28980
type=note_on channel=6 note=35 velocity=0 time=48 actual_time=29028
type=note_on channel=6 note=35 velocity=80 time=12 actual_time=29040
type=note_on channel=6 note=35 velocity=0 time=96 actual_time=29136
type=note_on channel=6 note=35 velocity=80 time=24 actual_time=29160
type=note_on channel=6 note=35 velocity=0 time=48 actual_time=29208
type=note_on channel=6 note=35 velocity=80 time=12 actual_time=29220
type=note_on channel=6 note=35 velocity=0 time=48 actual_time=29268
type=note_on channel=6 note=35 velocity=80 time=12 actual_time=29280
type=note_on channel=6 note=35 velocity=0 time=96 actual_time=29376
type=note_on channel=6 note=35 velocity=80 time=24 actual_time=29400
type=note_on channel=6 note=35 velocity=0 time=48 actual_time=29448
type=note_on channel=6 note=35 velocity=80 time=12 actual_time=29460
type=note_on channel=6 note=35 velocity=0 time=48 actual_time=29508
type=note_on channel=6 note=35 velocity=80 time=12 actual_time=29520
type=note_on channel=6 note=35 velocity=0 time=96 actual_time=29616
type=note_on channel=6 note=35 velocity=80 time=24 actual_time=29640
type=note_on channel=6 note=35 velocity=0 time=48 actual_time=29688
type=note_on channel=6 note=35 velocity=80 time=12 actual_time=29700
type=note_on channel=6 note=35 velocity=0 time=48 actual_time=29748
type=note_on channel=6 note=28 velocity=80 time=12 actual_time=29760
type=note_on channel=6 note=28 velocity=0 time=96 actual_time=29856
type=note_on channel=6 note=28 velocity=80 time=24 actual_time=29880
type=note_on channel=6 note=28 velocity=0 time=48 actual_time=29928
type=note_on channel=6 note=28 velocity=80 time=12 actual_time=29940
type=note_on channel=6 note=28 velocity=0 time=48 actual_time=29988
type=note_on channel=6 note=28 velocity=80 time=12 actual_time=30000
type=note_on channel=6 note=28 velocity=0 time=96 actual_time=30096
type=note_on channel=6 note=28 velocity=80 time=24 actual_time=30120
type=note_on channel=6 note=28 velocity=0 time=48 actual_time=30168
type=note_on channel=6 note=28 velocity=80 time=12 actual_time=30180
type=note_on channel=6 note=28 velocity=0 time=48 actual_time=30228
type=note_on channel=6 note=30 velocity=80 time=12 actual_time=30240
type=note_on channel=6 note=30 velocity=0 time=96 actual_time=30336
type=note_on channel=6 note=30 velocity=80 time=24 actual_time=30360
type=note_on channel=6 note=30 velocity=0 time=48 actual_time=30408
type=note_on channel=6 note=30 velocity=80 time=12 actual_time=30420
type=note_on channel=6 note=30 velocity=0 time=48 actual_time=30468
type=note_on channel=6 note=30 velocity=80 time=12 actual_time=30480
type=note_on channel=6 note=30 velocity=0 time=96 actual_time=30576
type=note_on channel=6 note=30 velocity=80 time=24 actual_time=30600
type=note_on channel=6 note=30 velocity=0 time=48 actual_time=30648
type=note_on channel=6 note=30 velocity=80 time=12 actual_time=30660
type=note_on channel=6 note=30 velocity=0 time=48 actual_time=30708
type=note_on channel=6 note=35 velocity=80 time=12 actual_time=30720
type=note_on channel=6 note=35 velocity=0 time=96 actual_time=30816
type=note_on channel=6 note=35 velocity=80 time=24 actual_time=30840
type=note_on channel=6 note=35 velocity=0 time=48 actual_time=30888
type=note_on channel=6 note=35 velocity=80 time=12 actual_time=30900
type=note_on channel=6 note=35 velocity=0 time=48 actual_time=30948
type=note_on channel=6 note=35 velocity=80 time=12 actual_time=30960
type=note_on channel=6 note=35 velocity=0 time=96 actual_time=31056
type=note_on channel=6 note=35 velocity=80 time=24 actual_time=31080
type=note_on channel=6 note=35 velocity=0 time=48 actual_time=31128
type=note_on channel=6 note=35 velocity=80 time=12 actual_time=31140
type=note_on channel=6 note=35 velocity=0 time=48 actual_time=31188
type=note_on channel=6 note=35 velocity=80 time=12 actual_time=31200
type=note_on channel=6 note=35 velocity=0 time=96 actual_time=31296
type=note_on channel=6 note=35 velocity=80 time=24 actual_time=31320
type=note_on channel=6 note=35 velocity=0 time=48 actual_time=31368
type=note_on channel=6 note=35 velocity=80 time=12 actual_time=31380
type=note_on channel=6 note=35 velocity=0 time=48 actual_time=31428
type=note_on channel=6 note=35 velocity=80 time=12 actual_time=31440
type=note_on channel=6 note=35 velocity=0 time=96 actual_time=31536
type=note_on channel=6 note=35 velocity=80 time=24 actual_time=31560
type=note_on channel=6 note=35 velocity=0 time=48 actual_time=31608
type=note_on channel=6 note=35 velocity=80 time=12 actual_time=31620
type=note_on channel=6 note=35 velocity=0 time=48 actual_time=31668
type=note_on channel=6 note=31 velocity=80 time=12 actual_time=31680
type=note_on channel=6 note=31 velocity=0 time=96 actual_time=31776
type=note_on channel=6 note=31 velocity=80 time=24 actual_time=31800
type=note_on channel=6 note=31 velocity=0 time=48 actual_time=31848
type=note_on channel=6 note=31 velocity=80 time=12 actual_time=31860
type=note_on channel=6 note=31 velocity=0 time=48 actual_time=31908
type=note_on channel=6 note=31 velocity=80 time=12 actual_time=31920
type=note_on channel=6 note=31 velocity=0 time=96 actual_time=32016
type=note_on channel=6 note=31 velocity=80 time=24 actual_time=32040
type=note_on channel=6 note=31 velocity=0 time=48 actual_time=32088
type=note_on channel=6 note=31 velocity=80 time=12 actual_time=32100
type=note_on channel=6 note=31 velocity=0 time=48 actual_time=32148
type=note_on channel=6 note=33 velocity=80 time=12 actual_time=32160
type=note_on channel=6 note=33 velocity=0 time=96 actual_time=32256
type=note_on channel=6 note=33 velocity=80 time=24 actual_time=32280
type=note_on channel=6 note=33 velocity=0 time=48 actual_time=32328
type=note_on channel=6 note=33 velocity=80 time=12 actual_time=32340
type=note_on channel=6 note=33 velocity=0 time=48 actual_time=32388
type=note_on channel=6 note=33 velocity=80 time=12 actual_time=32400
type=note_on channel=6 note=33 velocity=0 time=96 actual_time=32496
type=note_on channel=6 note=33 velocity=80 time=24 actual_time=32520
type=note_on channel=6 note=33 velocity=0 time=48 actual_time=32568
type=note_on channel=6 note=33 velocity=80 time=12 actual_time=32580
type=note_on channel=6 note=33 velocity=0 time=48 actual_time=32628
type=note_on channel=6 note=35 velocity=80 time=12 actual_time=32640
type=note_on channel=6 note=35 velocity=0 time=96 actual_time=32736
type=note_on channel=6 note=35 velocity=80 time=24 actual_time=32760
type=note_on channel=6 note=35 velocity=0 time=48 actual_time=32808
type=note_on channel=6 note=35 velocity=80 time=12 actual_time=32820
type=note_on channel=6 note=35 velocity=0 time=48 actual_time=32868
type=note_on channel=6 note=35 velocity=80 time=12 actual_time=32880
type=note_on channel=6 note=35 velocity=0 time=96 actual_time=32976
type=note_on channel=6 note=35 velocity=80 time=24 actual_time=33000
type=note_on channel=6 note=35 velocity=0 time=48 actual_time=33048
type=note_on channel=6 note=35 velocity=80 time=12 actual_time=33060
type=note_on channel=6 note=35 velocity=0 time=48 actual_time=33108
type=note_on channel=6 note=35 velocity=80 time=12 actual_time=33120
type=note_on channel=6 note=35 velocity=0 time=96 actual_time=33216
type=note_on channel=6 note=35 velocity=80 time=24 actual_time=33240
type=note_on channel=6 note=35 velocity=0 time=48 actual_time=33288
type=note_on channel=6 note=35 velocity=80 time=12 actual_time=33300
type=note_on channel=6 note=35 velocity=0 time=48 actual_time=33348
type=note_on channel=6 note=35 velocity=80 time=12 actual_time=33360
type=note_on channel=6 note=35 velocity=0 time=96 actual_time=33456
type=note_on channel=6 note=35 velocity=80 time=24 actual_time=33480
type=note_on channel=6 note=35 velocity=0 time=48 actual_time=33528
type=note_on channel=6 note=35 velocity=80 time=12 actual_time=33540
type=note_on channel=6 note=35 velocity=0 time=48 actual_time=33588
type=note_on channel=6 note=28 velocity=80 time=12 actual_time=33600
type=note_on channel=6 note=28 velocity=0 time=96 actual_time=33696
type=note_on channel=6 note=28 velocity=80 time=24 actual_time=33720
type=note_on channel=6 note=28 velocity=0 time=96 actual_time=33816
type=note_on channel=6 note=28 velocity=80 time=24 actual_time=33840
type=note_on channel=6 note=28 velocity=0 time=96 actual_time=33936
type=note_on channel=6 note=28 velocity=80 time=24 actual_time=33960
type=note_on channel=6 note=28 velocity=0 time=96 actual_time=34056
type=note_on channel=6 note=30 velocity=80 time=24 actual_time=34080
type=note_on channel=6 note=30 velocity=0 time=96 actual_time=34176
type=note_on channel=6 note=30 velocity=80 time=24 actual_time=34200
type=note_on channel=6 note=30 velocity=0 time=96 actual_time=34296
type=note_on channel=6 note=30 velocity=80 time=24 actual_time=34320
type=note_on channel=6 note=30 velocity=0 time=96 actual_time=34416
type=note_on channel=6 note=30 velocity=80 time=24 actual_time=34440
type=note_on channel=6 note=30 velocity=0 time=96 actual_time=34536
type=note_on channel=6 note=35 velocity=80 time=24 actual_time=34560
type=note_on channel=6 note=35 velocity=0 time=912 actual_time=35472
type=note_on channel=6 note=31 velocity=80 time=48 actual_time=35520
type=note_on channel=6 note=31 velocity=0 time=456 actual_time=35976
type=note_on channel=6 note=33 velocity=80 time=24 actual_time=36000
type=note_on channel=6 note=33 velocity=0 time=456 actual_time=36456
type=note_on channel=6 note=35 velocity=80 time=24 actual_time=36480
type=note_on channel=6 note=35 velocity=0 time=912 actual_time=37392
type=note_on channel=6 note=31 velocity=80 time=48 actual_time=37440
type=note_on channel=6 note=31 velocity=0 time=456 actual_time=37896
type=note_on channel=6 note=33 velocity=80 time=24 actual_time=37920
type=note_on channel=6 note=33 velocity=0 time=456 actual_time=38376
type=note_on channel=6 note=35 velocity=80 time=24 actual_time=38400
type=note_on channel=6 note=35 velocity=0 time=912 actual_time=39312
type=note_on channel=6 note=31 velocity=80 time=48 actual_time=39360
type=note_on channel=6 note=31 velocity=0 time=456 actual_time=39816
type=note_on channel=6 note=33 velocity=80 time=24 actual_time=39840
type=note_on channel=6 note=33 velocity=0 time=456 actual_time=40296
type=note_on channel=6 note=35 velocity=80 time=24 actual_time=40320
type=note_on channel=6 note=35 velocity=0 time=912 actual_time=41232
type=note_on channel=6 note=31 velocity=80 time=48 actual_time=41280
type=note_on channel=6 note=31 velocity=0 time=456 actual_time=41736
type=note_on channel=6 note=33 velocity=80 time=24 actual_time=41760
type=note_on channel=6 note=33 velocity=0 time=456 actual_time=42216
type=note_on channel=6 note=35 velocity=80 time=24 actual_time=42240
type=note_on channel=6 note=35 velocity=0 time=912 actual_time=43152
type=note_on channel=6 note=31 velocity=80 time=48 actual_time=43200
type=note_on channel=6 note=31 velocity=0 time=456 actual_time=43656
type=note_on channel=6 note=33 velocity=80 time=24 actual_time=43680
type=note_on channel=6 note=33 velocity=0 time=456 actual_time=44136
type=note_on channel=6 note=35 velocity=80 time=24 actual_time=44160
type=note_on channel=6 note=35 velocity=0 time=912 actual_time=45072
type=note_on channel=6 note=31 velocity=80 time=48 actual_time=45120
type=note_on channel=6 note=31 velocity=0 time=456 actual_time=45576
type=note_on channel=6 note=33 velocity=80 time=24 actual_time=45600
type=note_on channel=6 note=33 velocity=0 time=456 actual_time=46056
type=note_on channel=6 note=35 velocity=80 time=24 actual_time=46080
type=note_on channel=6 note=35 velocity=0 time=96 actual_time=46176
type=note_on channel=6 note=35 velocity=80 time=24 actual_time=46200
type=note_on channel=6 note=35 velocity=0 time=48 actual_time=46248
type=note_on channel=6 note=35 velocity=80 time=12 actual_time=46260
type=note_on channel=6 note=35 velocity=0 time=48 actual_time=46308
type=note_on channel=6 note=35 velocity=80 time=12 actual_time=46320
type=note_on channel=6 note=35 velocity=0 time=96 actual_time=46416
type=note_on channel=6 note=35 velocity=80 time=24 actual_time=46440
type=note_on channel=6 note=35 velocity=0 time=48 actual_time=46488
type=note_on channel=6 note=35 velocity=80 time=12 actual_time=46500
type=note_on channel=6 note=35 velocity=0 time=48 actual_time=46548
type=note_on channel=6 note=35 velocity=80 time=12 actual_time=46560
type=note_on channel=6 note=35 velocity=0 time=96 actual_time=46656
type=note_on channel=6 note=35 velocity=80 time=24 actual_time=46680
type=note_on channel=6 note=35 velocity=0 time=48 actual_time=46728
type=note_on channel=6 note=35 velocity=80 time=12 actual_time=46740
type=note_on channel=6 note=35 velocity=0 time=48 actual_time=46788
type=note_on channel=6 note=35 velocity=80 time=12 actual_time=46800
type=note_on channel=6 note=35 velocity=0 time=96 actual_time=46896
type=note_on channel=6 note=35 velocity=80 time=24 actual_time=46920
type=note_on channel=6 note=35 velocity=0 time=48 actual_time=46968
type=note_on channel=6 note=35 velocity=80 time=12 actual_time=46980
type=note_on channel=6 note=35 velocity=0 time=48 actual_time=47028
type=note_on channel=6 note=31 velocity=80 time=12 actual_time=47040
type=note_on channel=6 note=31 velocity=0 time=96 actual_time=47136
type=note_on channel=6 note=31 velocity=80 time=24 actual_time=47160
type=note_on channel=6 note=31 velocity=0 time=48 actual_time=47208
type=note_on channel=6 note=31 velocity=80 time=12 actual_time=47220
type=note_on channel=6 note=31 velocity=0 time=48 actual_time=47268
type=note_on channel=6 note=31 velocity=80 time=12 actual_time=47280
type=note_on channel=6 note=31 velocity=0 time=96 actual_time=47376
type=note_on channel=6 note=31 velocity=80 time=24 actual_time=47400
type=note_on channel=6 note=31 velocity=0 time=48 actual_time=47448
type=note_on channel=6 note=31 velocity=80 time=12 actual_time=47460
type=note_on channel=6 note=31 velocity=0 time=48 actual_time=47508
type=note_on channel=6 note=33 velocity=80 time=12 actual_time=47520
type=note_on channel=6 note=33 velocity=0 time=96 actual_time=47616
type=note_on channel=6 note=33 velocity=80 time=24 actual_time=47640
type=note_on channel=6 note=33 velocity=0 time=48 actual_time=47688
type=note_on channel=6 note=33 velocity=80 time=12 actual_time=47700
type=note_on channel=6 note=33 velocity=0 time=48 actual_time=47748
type=note_on channel=6 note=33 velocity=80 time=12 actual_time=47760
type=note_on channel=6 note=33 velocity=0 time=96 actual_time=47856
type=note_on channel=6 note=33 velocity=80 time=24 actual_time=47880
type=note_on channel=6 note=33 velocity=0 time=48 actual_time=47928
type=note_on channel=6 note=33 velocity=80 time=12 actual_time=47940
type=note_on channel=6 note=33 velocity=0 time=48 actual_time=47988
type=note_on channel=6 note=35 velocity=80 time=12 actual_time=48000
type=note_on channel=6 note=35 velocity=0 time=96 actual_time=48096
type=note_on channel=6 note=35 velocity=80 time=24 actual_time=48120
type=note_on channel=6 note=35 velocity=0 time=48 actual_time=48168
type=note_on channel=6 note=35 velocity=80 time=12 actual_time=48180
type=note_on channel=6 note=35 velocity=0 time=48 actual_time=48228
type=note_on channel=6 note=35 velocity=80 time=12 actual_time=48240
type=note_on channel=6 note=35 velocity=0 time=96 actual_time=48336
type=note_on channel=6 note=35 velocity=80 time=24 actual_time=48360
type=note_on channel=6 note=35 velocity=0 time=48 actual_time=48408
type=note_on channel=6 note=35 velocity=80 time=12 actual_time=48420
type=note_on channel=6 note=35 velocity=0 time=48 actual_time=48468
type=note_on channel=6 note=35 velocity=80 time=12 actual_time=48480
type=note_on channel=6 note=35 velocity=0 time=96 actual_time=48576
type=note_on channel=6 note=35 velocity=80 time=24 actual_time=48600
type=note_on channel=6 note=35 velocity=0 time=48 actual_time=48648
type=note_on channel=6 note=35 velocity=80 time=12 actual_time=48660
type=note_on channel=6 note=35 velocity=0 time=48 actual_time=48708
type=note_on channel=6 note=35 velocity=80 time=12 actual_time=48720
type=note_on channel=6 note=35 velocity=0 time=96 actual_time=48816
type=note_on channel=6 note=35 velocity=80 time=24 actual_time=48840
type=note_on channel=6 note=35 velocity=0 time=48 actual_time=48888
type=note_on channel=6 note=35 velocity=80 time=12 actual_time=48900
type=note_on channel=6 note=35 velocity=0 time=48 actual_time=48948
type=note_on channel=6 note=28 velocity=80 time=12 actual_time=48960
type=note_on channel=6 note=28 velocity=0 time=96 actual_time=49056
type=note_on channel=6 note=28 velocity=80 time=24 actual_time=49080
type=note_on channel=6 note=28 velocity=0 time=48 actual_time=49128
type=note_on channel=6 note=28 velocity=80 time=12 actual_time=49140
type=note_on channel=6 note=28 velocity=0 time=48 actual_time=49188
type=note_on channel=6 note=28 velocity=80 time=12 actual_time=49200
type=note_on channel=6 note=28 velocity=0 time=96 actual_time=49296
type=note_on channel=6 note=28 velocity=80 time=24 actual_time=49320
type=note_on channel=6 note=28 velocity=0 time=48 actual_time=49368
type=note_on channel=6 note=28 velocity=80 time=12 actual_time=49380
type=note_on channel=6 note=28 velocity=0 time=48 actual_time=49428
type=note_on channel=6 note=30 velocity=80 time=12 actual_time=49440
type=note_on channel=6 note=30 velocity=0 time=96 actual_time=49536
type=note_on channel=6 note=30 velocity=80 time=24 actual_time=49560
type=note_on channel=6 note=30 velocity=0 time=48 actual_time=49608
type=note_on channel=6 note=30 velocity=80 time=12 actual_time=49620
type=note_on channel=6 note=30 velocity=0 time=48 actual_time=49668
type=note_on channel=6 note=30 velocity=80 time=12 actual_time=49680
type=note_on channel=6 note=30 velocity=0 time=96 actual_time=49776
type=note_on channel=6 note=30 velocity=80 time=24 actual_time=49800
type=note_on channel=6 note=30 velocity=0 time=48 actual_time=49848
type=note_on channel=6 note=30 velocity=80 time=12 actual_time=49860
type=note_on channel=6 note=30 velocity=0 time=48 actual_time=49908
type=note_on channel=6 note=35 velocity=80 time=12 actual_time=49920
type=note_on channel=6 note=35 velocity=0 time=96 actual_time=50016
type=note_on channel=6 note=35 velocity=80 time=24 actual_time=50040
type=note_on channel=6 note=35 velocity=0 time=48 actual_time=50088
type=note_on channel=6 note=35 velocity=80 time=12 actual_time=50100
type=note_on channel=6 note=35 velocity=0 time=48 actual_time=50148
type=note_on channel=6 note=35 velocity=80 time=12 actual_time=50160
type=note_on channel=6 note=35 velocity=0 time=96 actual_time=50256
type=note_on channel=6 note=35 velocity=80 time=24 actual_time=50280
type=note_on channel=6 note=35 velocity=0 time=48 actual_time=50328
type=note_on channel=6 note=35 velocity=80 time=12 actual_time=50340
type=note_on channel=6 note=35 velocity=0 time=48 actual_time=50388
type=note_on channel=6 note=35 velocity=80 time=12 actual_time=50400
type=note_on channel=6 note=35 velocity=0 time=96 actual_time=50496
type=note_on channel=6 note=35 velocity=80 time=24 actual_time=50520
type=note_on channel=6 note=35 velocity=0 time=48 actual_time=50568
type=note_on channel=6 note=35 velocity=80 time=12 actual_time=50580
type=note_on channel=6 note=35 velocity=0 time=48 actual_time=50628
type=note_on channel=6 note=35 velocity=80 time=12 actual_time=50640
type=note_on channel=6 note=35 velocity=0 time=96 actual_time=50736
type=note_on channel=6 note=35 velocity=80 time=24 actual_time=50760
type=note_on channel=6 note=35 velocity=0 time=48 actual_time=50808
type=note_on channel=6 note=35 velocity=80 time=12 actual_time=50820
type=note_on channel=6 note=35 velocity=0 time=48 actual_time=50868
type=note_on channel=6 note=31 velocity=80 time=12 actual_time=50880
type=note_on channel=6 note=31 velocity=0 time=96 actual_time=50976
type=note_on channel=6 note=31 velocity=80 time=24 actual_time=51000
type=note_on channel=6 note=31 velocity=0 time=48 actual_time=51048
type=note_on channel=6 note=31 velocity=80 time=12 actual_time=51060
type=note_on channel=6 note=31 velocity=0 time=48 actual_time=51108
type=note_on channel=6 note=31 velocity=80 time=12 actual_time=51120
type=note_on channel=6 note=31 velocity=0 time=96 actual_time=51216
type=note_on channel=6 note=31 velocity=80 time=24 actual_time=51240
type=note_on channel=6 note=31 velocity=0 time=48 actual_time=51288
type=note_on channel=6 note=31 velocity=80 time=12 actual_time=51300
type=note_on channel=6 note=31 velocity=0 time=48 actual_time=51348
type=note_on channel=6 note=33 velocity=80 time=12 actual_time=51360
type=note_on channel=6 note=33 velocity=0 time=96 actual_time=51456
type=note_on channel=6 note=33 velocity=80 time=24 actual_time=51480
type=note_on channel=6 note=33 velocity=0 time=48 actual_time=51528
type=note_on channel=6 note=33 velocity=80 time=12 actual_time=51540
type=note_on channel=6 note=33 velocity=0 time=48 actual_time=51588
type=note_on channel=6 note=33 velocity=80 time=12 actual_time=51600
type=note_on channel=6 note=33 velocity=0 time=96 actual_time=51696
type=note_on channel=6 note=33 velocity=80 time=24 actual_time=51720
type=note_on channel=6 note=33 velocity=0 time=48 actual_time=51768
type=note_on channel=6 note=33 velocity=80 time=12 actual_time=51780
type=note_on channel=6 note=33 velocity=0 time=48 actual_time=51828
type=note_on channel=6 note=35 velocity=80 time=12 actual_time=51840
type=note_on channel=6 note=35 velocity=0 time=96 actual_time=51936
type=note_on channel=6 note=35 velocity=80 time=24 actual_time=51960
type=note_on channel=6 note=35 velocity=0 time=48 actual_time=52008
type=note_on channel=6 note=35 velocity=80 time=12 actual_time=52020
type=note_on channel=6 note=35 velocity=0 time=48 actual_time=52068
type=note_on channel=6 note=35 velocity=80 time=12 actual_time=52080
type=note_on channel=6 note=35 velocity=0 time=96 actual_time=52176
type=note_on channel=6 note=35 velocity=80 time=24 actual_time=52200
type=note_on channel=6 note=35 velocity=0 time=48 actual_time=52248
type=note_on channel=6 note=35 velocity=80 time=12 actual_time=52260
type=note_on channel=6 note=35 velocity=0 time=48 actual_time=52308
type=note_on channel=6 note=35 velocity=80 time=12 actual_time=52320
type=note_on channel=6 note=35 velocity=0 time=96 actual_time=52416
type=note_on channel=6 note=35 velocity=80 time=24 actual_time=52440
type=note_on channel=6 note=35 velocity=0 time=48 actual_time=52488
type=note_on channel=6 note=35 velocity=80 time=12 actual_time=52500
type=note_on channel=6 note=35 velocity=0 time=48 actual_time=52548
type=note_on channel=6 note=35 velocity=80 time=12 actual_time=52560
type=note_on channel=6 note=35 velocity=0 time=96 actual_time=52656
type=note_on channel=6 note=35 velocity=80 time=24 actual_time=52680
type=note_on channel=6 note=35 velocity=0 time=48 actual_time=52728
type=note_on channel=6 note=35 velocity=80 time=12 actual_time=52740
type=note_on channel=6 note=35 velocity=0 time=48 actual_time=52788
type=note_on channel=6 note=28 velocity=80 time=12 actual_time=52800
type=note_on channel=6 note=28 velocity=0 time=96 actual_time=52896
type=note_on channel=6 note=28 velocity=80 time=24 actual_time=52920
type=note_on channel=6 note=28 velocity=0 time=96 actual_time=53016
type=note_on channel=6 note=28 velocity=80 time=24 actual_time=53040
type=note_on channel=6 note=28 velocity=0 time=96 actual_time=53136
type=note_on channel=6 note=28 velocity=80 time=24 actual_time=53160
type=note_on channel=6 note=28 velocity=0 time=96 actual_time=53256
type=note_on channel=6 note=30 velocity=80 time=24 actual_time=53280
type=note_on channel=6 note=30 velocity=0 time=96 actual_time=53376
type=note_on channel=6 note=30 velocity=80 time=24 actual_time=53400
type=note_on channel=6 note=30 velocity=0 time=96 actual_time=53496
type=note_on channel=6 note=30 velocity=80 time=24 actual_time=53520
type=note_on channel=6 note=30 velocity=0 time=96 actual_time=53616
type=note_on channel=6 note=30 velocity=80 time=24 actual_time=53640
type=note_on channel=6 note=30 velocity=0 time=96 actual_time=53736
type=note_on channel=6 note=35 velocity=80 time=24 actual_time=53760
type=note_on channel=6 note=35 velocity=0 time=48 actual_time=53808
type=note_on channel=6 note=35 velocity=80 time=12 actual_time=53820
type=note_on channel=6 note=35 velocity=0 time=48 actual_time=53868
type=note_on channel=6 note=35 velocity=80 time=12 actual_time=53880
type=note_on channel=6 note=35 velocity=0 time=96 actual_time=53976
type=note_on channel=6 note=35 velocity=80 time=24 actual_time=54000
type=note_on channel=6 note=35 velocity=0 time=96 actual_time=54096
type=note_on channel=6 note=35 velocity=80 time=24 actual_time=54120
type=note_on channel=6 note=35 velocity=0 time=96 actual_time=54216
type=note_on channel=6 note=35 velocity=80 time=24 actual_time=54240
type=note_on channel=6 note=35 velocity=0 time=96 actual_time=54336
type=note_on channel=6 note=35 velocity=80 time=24 actual_time=54360
type=note_on channel=6 note=35 velocity=0 time=96 actual_time=54456
type=note_on channel=6 note=35 velocity=80 time=24 actual_time=54480
type=note_on channel=6 note=35 velocity=0 time=96 actual_time=54576
type=note_on channel=6 note=35 velocity=80 time=24 actual_time=54600
type=note_on channel=6 note=35 velocity=0 time=96 actual_time=54696
type=note_on channel=6 note=31 velocity=80 time=24 actual_time=54720
type=note_on channel=6 note=31 velocity=0 time=96 actual_time=54816
type=note_on channel=6 note=31 velocity=80 time=24 actual_time=54840
type=note_on channel=6 note=31 velocity=0 time=96 actual_time=54936
type=note_on channel=6 note=31 velocity=80 time=24 actual_time=54960
type=note_on channel=6 note=31 velocity=0 time=96 actual_time=55056
type=note_on channel=6 note=31 velocity=80 time=24 actual_time=55080
type=note_on channel=6 note=31 velocity=0 time=48 actual_time=55128
type=note_on channel=6 note=31 velocity=80 time=12 actual_time=55140
type=note_on channel=6 note=31 velocity=0 time=48 actual_time=55188
type=note_on channel=6 note=33 velocity=80 time=12 actual_time=55200
type=note_on channel=6 note=33 velocity=0 time=96 actual_time=55296
type=note_on channel=6 note=33 velocity=80 time=24 actual_time=55320
type=note_on channel=6 note=33 velocity=0 time=96 actual_time=55416
type=note_on channel=6 note=33 velocity=80 time=24 actual_time=55440
type=note_on channel=6 note=33 velocity=0 time=96 actual_time=55536
type=note_on channel=6 note=33 velocity=80 time=24 actual_time=55560
type=note_on channel=6 note=33 velocity=0 time=48 actual_time=55608
type=note_on channel=6 note=33 velocity=80 time=12 actual_time=55620
type=note_on channel=6 note=33 velocity=0 time=48 actual_time=55668
type=note_on channel=6 note=35 velocity=80 time=12 actual_time=55680
type=note_on channel=6 note=35 velocity=0 time=96 actual_time=55776
type=note_on channel=6 note=35 velocity=80 time=24 actual_time=55800
type=note_on channel=6 note=35 velocity=0 time=96 actual_time=55896
type=note_on channel=6 note=35 velocity=80 time=24 actual_time=55920
type=note_on channel=6 note=35 velocity=0 time=96 actual_time=56016
type=note_on channel=6 note=35 velocity=80 time=24 actual_time=56040
type=note_on channel=6 note=35 velocity=0 time=96 actual_time=56136
type=note_on channel=6 note=35 velocity=80 time=24 actual_time=56160
type=note_on channel=6 note=35 velocity=0 time=96 actual_time=56256
type=note_on channel=6 note=35 velocity=80 time=24 actual_time=56280
type=note_on channel=6 note=35 velocity=0 time=96 actual_time=56376
type=note_on channel=6 note=35 velocity=80 time=24 actual_time=56400
type=note_on channel=6 note=35 velocity=0 time=96 actual_time=56496
type=note_on channel=6 note=35 velocity=80 time=24 actual_time=56520
type=note_on channel=6 note=35 velocity=0 time=96 actual_time=56616
type=note_on channel=6 note=31 velocity=80 time=24 actual_time=56640
type=note_on channel=6 note=31 velocity=0 time=96 actual_time=56736
type=note_on channel=6 note=31 velocity=80 time=24 actual_time=56760
type=note_on channel=6 note=31 velocity=0 time=96 actual_time=56856
type=note_on channel=6 note=31 velocity=80 time=24 actual_time=56880
type=note_on channel=6 note=31 velocity=0 time=96 actual_time=56976
type=note_on channel=6 note=31 velocity=80 time=24 actual_time=57000
type=note_on channel=6 note=31 velocity=0 time=48 actual_time=57048
type=note_on channel=6 note=31 velocity=80 time=12 actual_time=57060
type=note_on channel=6 note=31 velocity=0 time=48 actual_time=57108
type=note_on channel=6 note=33 velocity=80 time=12 actual_time=57120
type=note_on channel=6 note=33 velocity=0 time=96 actual_time=57216
type=note_on channel=6 note=33 velocity=80 time=24 actual_time=57240
type=note_on channel=6 note=33 velocity=0 time=96 actual_time=57336
type=note_on channel=6 note=33 velocity=80 time=24 actual_time=57360
type=note_on channel=6 note=33 velocity=0 time=96 actual_time=57456
type=note_on channel=6 note=33 velocity=80 time=24 actual_time=57480
type=note_on channel=6 note=33 velocity=0 time=48 actual_time=57528
type=note_on channel=6 note=33 velocity=80 time=12 actual_time=57540
type=note_on channel=6 note=33 velocity=0 time=48 actual_time=57588
type=note_on channel=6 note=35 velocity=80 time=12 actual_time=57600
type=note_on channel=6 note=35 velocity=0 time=96 actual_time=57696
type=note_on channel=6 note=35 velocity=80 time=24 actual_time=57720
type=note_on channel=6 note=35 velocity=0 time=96 actual_time=57816
type=note_on channel=6 note=35 velocity=80 time=24 actual_time=57840
type=note_on channel=6 note=35 velocity=0 time=96 actual_time=57936
type=note_on channel=6 note=35 velocity=80 time=24 actual_time=57960
type=note_on channel=6 note=35 velocity=0 time=96 actual_time=58056
type=note_on channel=6 note=35 velocity=80 time=24 actual_time=58080
type=note_on channel=6 note=35 velocity=0 time=96 actual_time=58176
type=note_on channel=6 note=35 velocity=80 time=24 actual_time=58200
type=note_on channel=6 note=35 velocity=0 time=96 actual_time=58296
type=note_on channel=6 note=35 velocity=80 time=24 actual_time=58320
type=note_on channel=6 note=35 velocity=0 time=96 actual_time=58416
type=note_on channel=6 note=35 velocity=80 time=24 actual_time=58440
type=note_on channel=6 note=35 velocity=0 time=96 actual_time=58536
type=note_on channel=6 note=31 velocity=80 time=24 actual_time=58560
type=note_on channel=6 note=31 velocity=0 time=96 actual_time=58656
type=note_on channel=6 note=31 velocity=80 time=24 actual_time=58680
type=note_on channel=6 note=31 velocity=0 time=96 actual_time=58776
type=note_on channel=6 note=31 velocity=80 time=24 actual_time=58800
type=note_on channel=6 note=31 velocity=0 time=96 actual_time=58896
type=note_on channel=6 note=31 velocity=80 time=24 actual_time=58920
type=note_on channel=6 note=31 velocity=0 time=48 actual_time=58968
type=note_on channel=6 note=31 velocity=80 time=12 actual_time=58980
type=note_on channel=6 note=31 velocity=0 time=48 actual_time=59028
type=note_on channel=6 note=33 velocity=80 time=12 actual_time=59040
type=note_on channel=6 note=33 velocity=0 time=96 actual_time=59136
type=note_on channel=6 note=33 velocity=80 time=24 actual_time=59160
type=note_on channel=6 note=33 velocity=0 time=96 actual_time=59256
type=note_on channel=6 note=33 velocity=80 time=24 actual_time=59280
type=note_on channel=6 note=33 velocity=0 time=96 actual_time=59376
type=note_on channel=6 note=33 velocity=80 time=24 actual_time=59400
type=note_on channel=6 note=33 velocity=0 time=48 actual_time=59448
type=note_on channel=6 note=33 velocity=80 time=12 actual_time=59460
type=note_on channel=6 note=33 velocity=0 time=48 actual_time=59508
type=note_on channel=6 note=35 velocity=80 time=12 actual_time=59520
type=note_on channel=6 note=35 velocity=0 time=96 actual_time=59616
type=note_on channel=6 note=35 velocity=80 time=24 actual_time=59640
type=note_on channel=6 note=35 velocity=0 time=96 actual_time=59736
type=note_on channel=6 note=35 velocity=80 time=24 actual_time=59760
type=note_on channel=6 note=35 velocity=0 time=96 actual_time=59856
type=note_on channel=6 note=35 velocity=80 time=24 actual_time=59880
type=note_on channel=6 note=35 velocity=0 time=96 actual_time=59976
type=note_on channel=6 note=35 velocity=80 time=24 actual_time=60000
type=note_on channel=6 note=35 velocity=0 time=96 actual_time=60096
type=note_on channel=6 note=35 velocity=80 time=24 actual_time=60120
type=note_on channel=6 note=35 velocity=0 time=96 actual_time=60216
type=note_on channel=6 note=35 velocity=80 time=24 actual_time=60240
type=note_on channel=6 note=35 velocity=0 time=96 actual_time=60336
type=note_on channel=6 note=35 velocity=80 time=24 actual_time=60360
type=note_on channel=6 note=35 velocity=0 time=96 actual_time=60456
type=note_on channel=6 note=31 velocity=80 time=24 actual_time=60480
type=note_on channel=6 note=31 velocity=0 time=96 actual_time=60576
type=note_on channel=6 note=31 velocity=80 time=24 actual_time=60600
type=note_on channel=6 note=31 velocity=0 time=96 actual_time=60696
type=note_on channel=6 note=31 velocity=80 time=24 actual_time=60720
type=note_on channel=6 note=31 velocity=0 time=96 actual_time=60816
type=note_on channel=6 note=31 velocity=80 time=24 actual_time=60840
type=note_on channel=6 note=31 velocity=0 time=48 actual_time=60888
type=note_on channel=6 note=31 velocity=80 time=12 actual_time=60900
type=note_on channel=6 note=31 velocity=0 time=48 actual_time=60948
type=note_on channel=6 note=33 velocity=80 time=12 actual_time=60960
type=note_on channel=6 note=33 velocity=0 time=96 actual_time=61056
type=note_on channel=6 note=33 velocity=80 time=24 actual_time=61080
type=note_on channel=6 note=33 velocity=0 time=96 actual_time=61176
type=note_on channel=6 note=33 velocity=80 time=24 actual_time=61200
type=note_on channel=6 note=33 velocity=0 time=96 actual_time=61296
type=note_on channel=6 note=33 velocity=80 time=24 actual_time=61320
type=note_on channel=6 note=33 velocity=0 time=108 actual_time=61428
type=note_on channel=6 note=35 velocity=80 time=12 actual_time=61440
type=note_on channel=6 note=35 velocity=0 time=96 actual_time=61536
type=note_on channel=6 note=35 velocity=80 time=24 actual_time=61560
type=note_on channel=6 note=35 velocity=0 time=96 actual_time=61656
type=note_on channel=6 note=35 velocity=80 time=24 actual_time=61680
type=note_on channel=6 note=35 velocity=0 time=96 actual_time=61776
type=note_on channel=6 note=35 velocity=80 time=24 actual_time=61800
type=note_on channel=6 note=35 velocity=0 time=96 actual_time=61896
type=note_on channel=6 note=35 velocity=80 time=24 actual_time=61920
type=note_on channel=6 note=35 velocity=0 time=96 actual_time=62016
type=note_on channel=6 note=35 velocity=80 time=24 actual_time=62040
type=note_on channel=6 note=35 velocity=0 time=96 actual_time=62136
type=note_on channel=6 note=35 velocity=80 time=24 actual_time=62160
type=note_on channel=6 note=35 velocity=0 time=96 actual_time=62256
type=note_on channel=6 note=35 velocity=80 time=24 actual_time=62280
type=note_on channel=6 note=35 velocity=0 time=96 actual_time=62376
type=note_on channel=6 note=31 velocity=80 time=24 actual_time=62400
type=note_on channel=6 note=31 velocity=0 time=96 actual_time=62496
type=note_on channel=6 note=31 velocity=80 time=24 actual_time=62520
type=note_on channel=6 note=31 velocity=0 time=96 actual_time=62616
type=note_on channel=6 note=31 velocity=80 time=24 actual_time=62640
type=note_on channel=6 note=31 velocity=0 time=96 actual_time=62736
type=note_on channel=6 note=31 velocity=80 time=24 actual_time=62760
type=note_on channel=6 note=31 velocity=0 time=96 actual_time=62856
type=note_on channel=6 note=33 velocity=80 time=24 actual_time=62880
type=note_on channel=6 note=33 velocity=0 time=96 actual_time=62976
type=note_on channel=6 note=33 velocity=80 time=24 actual_time=63000
type=note_on channel=6 note=33 velocity=0 time=96 actual_time=63096
type=note_on channel=6 note=33 velocity=80 time=24 actual_time=63120
type=note_on channel=6 note=33 velocity=0 time=96 actual_time=63216
type=note_on channel=6 note=33 velocity=80 time=24 actual_time=63240
type=note_on channel=6 note=33 velocity=0 time=96 actual_time=63336
type=note_on channel=6 note=35 velocity=80 time=24 actual_time=63360
type=note_on channel=6 note=35 velocity=0 time=96 actual_time=63456
type=note_on channel=6 note=35 velocity=80 time=24 actual_time=63480
type=note_on channel=6 note=35 velocity=0 time=96 actual_time=63576
type=note_on channel=6 note=35 velocity=80 time=24 actual_time=63600
type=note_on channel=6 note=35 velocity=0 time=96 actual_time=63696
type=note_on channel=6 note=35 velocity=80 time=24 actual_time=63720
type=note_on channel=6 note=35 velocity=0 time=96 actual_time=63816
type=note_on channel=6 note=35 velocity=80 time=24 actual_time=63840
type=note_on channel=6 note=35 velocity=0 time=96 actual_time=63936
type=note_on channel=6 note=35 velocity=80 time=24 actual_time=63960
type=note_on channel=6 note=35 velocity=0 time=96 actual_time=64056
type=note_on channel=6 note=35 velocity=80 time=24 actual_time=64080
type=note_on channel=6 note=35 velocity=0 time=96 actual_time=64176
type=note_on channel=6 note=35 velocity=80 time=24 actual_time=64200
type=note_on channel=6 note=35 velocity=0 time=96 actual_time=64296
type=note_on channel=6 note=31 velocity=80 time=24 actual_time=64320
type=note_on channel=6 note=31 velocity=0 time=96 actual_time=64416
type=note_on channel=6 note=31 velocity=80 time=24 actual_time=64440
type=note_on channel=6 note=31 velocity=0 time=96 actual_time=64536
type=note_on channel=6 note=31 velocity=80 time=24 actual_time=64560
type=note_on channel=6 note=31 velocity=0 time=96 actual_time=64656
type=note_on channel=6 note=31 velocity=80 time=24 actual_time=64680
type=note_on channel=6 note=31 velocity=0 time=96 actual_time=64776
type=note_on channel=6 note=33 velocity=80 time=24 actual_time=64800
type=note_on channel=6 note=33 velocity=0 time=96 actual_time=64896
type=note_on channel=6 note=33 velocity=80 time=24 actual_time=64920
type=note_on channel=6 note=33 velocity=0 time=96 actual_time=65016
type=note_on channel=6 note=33 velocity=80 time=24 actual_time=65040
type=note_on channel=6 note=33 velocity=0 time=96 actual_time=65136
type=note_on channel=6 note=33 velocity=80 time=24 actual_time=65160
type=note_on channel=6 note=33 velocity=0 time=96 actual_time=65256
type=note_on channel=6 note=35 velocity=80 time=24 actual_time=65280
type=note_on channel=6 note=35 velocity=0 time=96 actual_time=65376
type=note_on channel=6 note=35 velocity=80 time=24 actual_time=65400
type=note_on channel=6 note=35 velocity=0 time=96 actual_time=65496
type=note_on channel=6 note=35 velocity=80 time=24 actual_time=65520
type=note_on channel=6 note=35 velocity=0 time=96 actual_time=65616
type=note_on channel=6 note=35 velocity=80 time=24 actual_time=65640
type=note_on channel=6 note=35 velocity=0 time=96 actual_time=65736
type=note_on channel=6 note=35 velocity=80 time=24 actual_time=65760
type=note_on channel=6 note=35 velocity=0 time=96 actual_time=65856
type=note_on channel=6 note=35 velocity=80 time=24 actual_time=65880
type=note_on channel=6 note=35 velocity=0 time=96 actual_time=65976
type=note_on channel=6 note=35 velocity=80 time=24 actual_time=66000
type=note_on channel=6 note=35 velocity=0 time=96 actual_time=66096
type=note_on channel=6 note=35 velocity=80 time=24 actual_time=66120
type=note_on channel=6 note=35 velocity=0 time=96 actual_time=66216
type=note_on channel=6 note=31 velocity=80 time=24 actual_time=66240
type=note_on channel=6 note=31 velocity=0 time=96 actual_time=66336
type=note_on channel=6 note=31 velocity=80 time=24 actual_time=66360
type=note_on channel=6 note=31 velocity=0 time=96 actual_time=66456
type=note_on channel=6 note=31 velocity=80 time=24 actual_time=66480
type=note_on channel=6 note=31 velocity=0 time=96 actual_time=66576
type=note_on channel=6 note=31 velocity=80 time=24 actual_time=66600
type=note_on channel=6 note=31 velocity=0 time=96 actual_time=66696
type=note_on channel=6 note=33 velocity=80 time=24 actual_time=66720
type=note_on channel=6 note=33 velocity=0 time=96 actual_time=66816
type=note_on channel=6 note=33 velocity=80 time=24 actual_time=66840
type=note_on channel=6 note=33 velocity=0 time=96 actual_time=66936
type=note_on channel=6 note=33 velocity=80 time=24 actual_time=66960
type=note_on channel=6 note=33 velocity=0 time=96 actual_time=67056
type=note_on channel=6 note=33 velocity=80 time=24 actual_time=67080
type=note_on channel=6 note=33 velocity=0 time=96 actual_time=67176
type=note_on channel=6 note=35 velocity=80 time=24 actual_time=67200
type=note_on channel=6 note=35 velocity=0 time=96 actual_time=67296
type=note_on channel=6 note=35 velocity=80 time=24 actual_time=67320
type=note_on channel=6 note=35 velocity=0 time=96 actual_time=67416
type=note_on channel=6 note=35 velocity=80 time=24 actual_time=67440
type=note_on channel=6 note=35 velocity=0 time=96 actual_time=67536
type=note_on channel=6 note=35 velocity=80 time=24 actual_time=67560
type=note_on channel=6 note=35 velocity=0 time=96 actual_time=67656
type=note_on channel=6 note=35 velocity=80 time=24 actual_time=67680
type=note_on channel=6 note=35 velocity=0 time=96 actual_time=67776
type=note_on channel=6 note=35 velocity=80 time=24 actual_time=67800
type=note_on channel=6 note=35 velocity=0 time=96 actual_time=67896
type=note_on channel=6 note=35 velocity=80 time=24 actual_time=67920
type=note_on channel=6 note=35 velocity=0 time=96 actual_time=68016
type=note_on channel=6 note=35 velocity=80 time=24 actual_time=68040
type=note_on channel=6 note=35 velocity=0 time=96 actual_time=68136
type=note_on channel=6 note=31 velocity=80 time=24 actual_time=68160
type=note_on channel=6 note=31 velocity=0 time=96 actual_time=68256
type=note_on channel=6 note=31 velocity=80 time=24 actual_time=68280
type=note_on channel=6 note=31 velocity=0 time=96 actual_time=68376
type=note_on channel=6 note=31 velocity=80 time=24 actual_time=68400
type=note_on channel=6 note=31 velocity=0 time=96 actual_time=68496
type=note_on channel=6 note=31 velocity=80 time=24 actual_time=68520
type=note_on channel=6 note=31 velocity=0 time=96 actual_time=68616
type=note_on channel=6 note=33 velocity=80 time=24 actual_time=68640
type=note_on channel=6 note=33 velocity=0 time=96 actual_time=68736
type=note_on channel=6 note=33 velocity=80 time=24 actual_time=68760
type=note_on channel=6 note=33 velocity=0 time=96 actual_time=68856
type=note_on channel=6 note=33 velocity=80 time=24 actual_time=68880
type=note_on channel=6 note=33 velocity=0 time=96 actual_time=68976
type=note_on channel=6 note=33 velocity=80 time=24 actual_time=69000
type=note_on channel=6 note=33 velocity=0 time=96 actual_time=69096
type=note_on channel=6 note=35 velocity=80 time=24 actual_time=69120
type=note_on channel=6 note=35 velocity=0 time=96 actual_time=69216
type=note_on channel=6 note=35 velocity=80 time=24 actual_time=69240
type=note_on channel=6 note=35 velocity=0 time=96 actual_time=69336
type=note_on channel=6 note=35 velocity=80 time=24 actual_time=69360
type=note_on channel=6 note=35 velocity=0 time=96 actual_time=69456
type=note_on channel=6 note=35 velocity=80 time=24 actual_time=69480
type=note_on channel=6 note=35 velocity=0 time=96 actual_time=69576
type=note_on channel=6 note=35 velocity=80 time=24 actual_time=69600
type=note_on channel=6 note=35 velocity=0 time=96 actual_time=69696
type=note_on channel=6 note=35 velocity=80 time=24 actual_time=69720
type=note_on channel=6 note=35 velocity=0 time=96 actual_time=69816
type=note_on channel=6 note=35 velocity=80 time=24 actual_time=69840
type=note_on channel=6 note=35 velocity=0 time=96 actual_time=69936
type=note_on channel=6 note=35 velocity=80 time=24 actual_time=69960
type=note_on channel=6 note=35 velocity=0 time=96 actual_time=70056
type=note_on channel=6 note=31 velocity=80 time=24 actual_time=70080
type=note_on channel=6 note=31 velocity=0 time=96 actual_time=70176
type=note_on channel=6 note=31 velocity=80 time=24 actual_time=70200
type=note_on channel=6 note=31 velocity=0 time=96 actual_time=70296
type=note_on channel=6 note=31 velocity=80 time=24 actual_time=70320
type=note_on channel=6 note=31 velocity=0 time=96 actual_time=70416
type=note_on channel=6 note=31 velocity=80 time=24 actual_time=70440
type=note_on channel=6 note=31 velocity=0 time=96 actual_time=70536
type=note_on channel=6 note=33 velocity=80 time=24 actual_time=70560
type=note_on channel=6 note=33 velocity=0 time=96 actual_time=70656
type=note_on channel=6 note=33 velocity=80 time=24 actual_time=70680
type=note_on channel=6 note=33 velocity=0 time=96 actual_time=70776
type=note_on channel=6 note=33 velocity=80 time=24 actual_time=70800
type=note_on channel=6 note=33 velocity=0 time=96 actual_time=70896
type=note_on channel=6 note=33 velocity=80 time=24 actual_time=70920
type=note_on channel=6 note=33 velocity=0 time=96 actual_time=71016
type=note_on channel=6 note=35 velocity=80 time=24 actual_time=71040
type=note_on channel=6 note=35 velocity=0 time=96 actual_time=71136
type=note_on channel=6 note=35 velocity=80 time=24 actual_time=71160
type=note_on channel=6 note=35 velocity=0 time=96 actual_time=71256
type=note_on channel=6 note=35 velocity=80 time=24 actual_time=71280
type=note_on channel=6 note=35 velocity=0 time=96 actual_time=71376
type=note_on channel=6 note=35 velocity=80 time=24 actual_time=71400
type=note_on channel=6 note=35 velocity=0 time=96 actual_time=71496
type=note_on channel=6 note=35 velocity=80 time=24 actual_time=71520
type=note_on channel=6 note=35 velocity=0 time=96 actual_time=71616
type=note_on channel=6 note=35 velocity=80 time=24 actual_time=71640
type=note_on channel=6 note=35 velocity=0 time=96 actual_time=71736
type=note_on channel=6 note=35 velocity=80 time=24 actual_time=71760
type=note_on channel=6 note=35 velocity=0 time=96 actual_time=71856
type=note_on channel=6 note=35 velocity=80 time=24 actual_time=71880
type=note_on channel=6 note=35 velocity=0 time=96 actual_time=71976
type=note_on channel=6 note=31 velocity=80 time=24 actual_time=72000
type=note_on channel=6 note=31 velocity=0 time=96 actual_time=72096
type=note_on channel=6 note=31 velocity=80 time=24 actual_time=72120
type=note_on channel=6 note=31 velocity=0 time=96 actual_time=72216
type=note_on channel=6 note=31 velocity=80 time=24 actual_time=72240
type=note_on channel=6 note=31 velocity=0 time=96 actual_time=72336
type=note_on channel=6 note=31 velocity=80 time=24 actual_time=72360
type=note_on channel=6 note=31 velocity=0 time=96 actual_time=72456
type=note_on channel=6 note=33 velocity=80 time=24 actual_time=72480
type=note_on channel=6 note=33 velocity=0 time=96 actual_time=72576
type=note_on channel=6 note=33 velocity=80 time=24 actual_time=72600
type=note_on channel=6 note=33 velocity=0 time=96 actual_time=72696
type=note_on channel=6 note=33 velocity=80 time=24 actual_time=72720
type=note_on channel=6 note=33 velocity=0 time=96 actual_time=72816
type=note_on channel=6 note=33 velocity=80 time=24 actual_time=72840
type=note_on channel=6 note=33 velocity=0 time=96 actual_time=72936
type=note_on channel=6 note=35 velocity=80 time=24 actual_time=72960
type=note_on channel=6 note=35 velocity=0 time=96 actual_time=73056
type=note_on channel=6 note=35 velocity=80 time=24 actual_time=73080
type=note_on channel=6 note=35 velocity=0 time=48 actual_time=73128
type=note_on channel=6 note=35 velocity=80 time=12 actual_time=73140
type=note_on channel=6 note=35 velocity=0 time=48 actual_time=73188
type=note_on channel=6 note=35 velocity=80 time=12 actual_time=73200
type=note_on channel=6 note=35 velocity=0 time=96 actual_time=73296
type=note_on channel=6 note=35 velocity=80 time=24 actual_time=73320
type=note_on channel=6 note=35 velocity=0 time=48 actual_time=73368
type=note_on channel=6 note=35 velocity=80 time=12 actual_time=73380
type=note_on channel=6 note=35 velocity=0 time=48 actual_time=73428
type=note_on channel=6 note=35 velocity=80 time=12 actual_time=73440
type=note_on channel=6 note=35 velocity=0 time=96 actual_time=73536
type=note_on channel=6 note=35 velocity=80 time=24 actual_time=73560
type=note_on channel=6 note=35 velocity=0 time=48 actual_time=73608
type=note_on channel=6 note=35 velocity=80 time=12 actual_time=73620
type=note_on channel=6 note=35 velocity=0 time=48 actual_time=73668
type=note_on channel=6 note=35 velocity=80 time=12 actual_time=73680
type=note_on channel=6 note=35 velocity=0 time=96 actual_time=73776
type=note_on channel=6 note=35 velocity=80 time=24 actual_time=73800
type=note_on channel=6 note=35 velocity=0 time=48 actual_time=73848
type=note_on channel=6 note=35 velocity=80 time=12 actual_time=73860
type=note_on channel=6 note=35 velocity=0 time=48 actual_time=73908
type=note_on channel=6 note=31 velocity=80 time=12 actual_time=73920
type=note_on channel=6 note=31 velocity=0 time=96 actual_time=74016
type=note_on channel=6 note=31 velocity=80 time=24 actual_time=74040
type=note_on channel=6 note=31 velocity=0 time=48 actual_time=74088
type=note_on channel=6 note=31 velocity=80 time=12 actual_time=74100
type=note_on channel=6 note=31 velocity=0 time=48 actual_time=74148
type=note_on channel=6 note=31 velocity=80 time=12 actual_time=74160
type=note_on channel=6 note=31 velocity=0 time=96 actual_time=74256
type=note_on channel=6 note=31 velocity=80 time=24 actual_time=74280
type=note_on channel=6 note=31 velocity=0 time=48 actual_time=74328
type=note_on channel=6 note=31 velocity=80 time=12 actual_time=74340
type=note_on channel=6 note=31 velocity=0 time=48 actual_time=74388
type=note_on channel=6 note=33 velocity=80 time=12 actual_time=74400
type=note_on channel=6 note=33 velocity=0 time=96 actual_time=74496
type=note_on channel=6 note=33 velocity=80 time=24 actual_time=74520
type=note_on channel=6 note=33 velocity=0 time=48 actual_time=74568
type=note_on channel=6 note=33 velocity=80 time=12 actual_time=74580
type=note_on channel=6 note=33 velocity=0 time=48 actual_time=74628
type=note_on channel=6 note=33 velocity=80 time=12 actual_time=74640
type=note_on channel=6 note=33 velocity=0 time=96 actual_time=74736
type=note_on channel=6 note=33 velocity=80 time=24 actual_time=74760
type=note_on channel=6 note=33 velocity=0 time=48 actual_time=74808
type=note_on channel=6 note=33 velocity=80 time=12 actual_time=74820
type=note_on channel=6 note=33 velocity=0 time=48 actual_time=74868
type=note_on channel=6 note=35 velocity=80 time=12 actual_time=74880
type=note_on channel=6 note=35 velocity=0 time=96 actual_time=74976
type=note_on channel=6 note=35 velocity=80 time=24 actual_time=75000
type=note_on channel=6 note=35 velocity=0 time=48 actual_time=75048
type=note_on channel=6 note=35 velocity=80 time=12 actual_time=75060
type=note_on channel=6 note=35 velocity=0 time=48 actual_time=75108
type=note_on channel=6 note=35 velocity=80 time=12 actual_time=75120
type=note_on channel=6 note=35 velocity=0 time=96 actual_time=75216
type=note_on channel=6 note=35 velocity=80 time=24 actual_time=75240
type=note_on channel=6 note=35 velocity=0 time=48 actual_time=75288
type=note_on channel=6 note=35 velocity=80 time=12 actual_time=75300
type=note_on channel=6 note=35 velocity=0 time=48 actual_time=75348
type=note_on channel=6 note=35 velocity=80 time=12 actual_time=75360
type=note_on channel=6 note=35 velocity=0 time=96 actual_time=75456
type=note_on channel=6 note=35 velocity=80 time=24 actual_time=75480
type=note_on channel=6 note=35 velocity=0 time=48 actual_time=75528
type=note_on channel=6 note=35 velocity=80 time=12 actual_time=75540
type=note_on channel=6 note=35 velocity=0 time=48 actual_time=75588
type=note_on channel=6 note=35 velocity=80 time=12 actual_time=75600
type=note_on channel=6 note=35 velocity=0 time=96 actual_time=75696
type=note_on channel=6 note=35 velocity=80 time=24 actual_time=75720
type=note_on channel=6 note=35 velocity=0 time=48 actual_time=75768
type=note_on channel=6 note=35 velocity=80 time=12 actual_time=75780
type=note_on channel=6 note=35 velocity=0 time=48 actual_time=75828
type=note_on channel=6 note=28 velocity=80 time=12 actual_time=75840
type=note_on channel=6 note=28 velocity=0 time=96 actual_time=75936
type=note_on channel=6 note=28 velocity=80 time=24 actual_time=75960
type=note_on channel=6 note=28 velocity=0 time=48 actual_time=76008
type=note_on channel=6 note=28 velocity=80 time=12 actual_time=76020
type=note_on channel=6 note=28 velocity=0 time=48 actual_time=76068
type=note_on channel=6 note=28 velocity=80 time=12 actual_time=76080
type=note_on channel=6 note=28 velocity=0 time=96 actual_time=76176
type=note_on channel=6 note=28 velocity=80 time=24 actual_time=76200
type=note_on channel=6 note=28 velocity=0 time=48 actual_time=76248
type=note_on channel=6 note=28 velocity=80 time=12 actual_time=76260
type=note_on channel=6 note=28 velocity=0 time=48 actual_time=76308
type=note_on channel=6 note=30 velocity=80 time=12 actual_time=76320
type=note_on channel=6 note=30 velocity=0 time=96 actual_time=76416
type=note_on channel=6 note=30 velocity=80 time=24 actual_time=76440
type=note_on channel=6 note=30 velocity=0 time=48 actual_time=76488
type=note_on channel=6 note=30 velocity=80 time=12 actual_time=76500
type=note_on channel=6 note=30 velocity=0 time=48 actual_time=76548
type=note_on channel=6 note=30 velocity=80 time=12 actual_time=76560
type=note_on channel=6 note=30 velocity=0 time=96 actual_time=76656
type=note_on channel=6 note=30 velocity=80 time=24 actual_time=76680
type=note_on channel=6 note=30 velocity=0 time=48 actual_time=76728
type=note_on channel=6 note=30 velocity=80 time=12 actual_time=76740
type=note_on channel=6 note=30 velocity=0 time=48 actual_time=76788
type=note_on channel=6 note=35 velocity=80 time=12 actual_time=76800
type=note_on channel=6 note=35 velocity=0 time=96 actual_time=76896
type=note_on channel=6 note=35 velocity=80 time=24 actual_time=76920
type=note_on channel=6 note=35 velocity=0 time=48 actual_time=76968
type=note_on channel=6 note=35 velocity=80 time=12 actual_time=76980
type=note_on channel=6 note=35 velocity=0 time=48 actual_time=77028
type=note_on channel=6 note=35 velocity=80 time=12 actual_time=77040
type=note_on channel=6 note=35 velocity=0 time=96 actual_time=77136
type=note_on channel=6 note=35 velocity=80 time=24 actual_time=77160
type=note_on channel=6 note=35 velocity=0 time=48 actual_time=77208
type=note_on channel=6 note=35 velocity=80 time=12 actual_time=77220
type=note_on channel=6 note=35 velocity=0 time=48 actual_time=77268
type=note_on channel=6 note=35 velocity=80 time=12 actual_time=77280
type=note_on channel=6 note=35 velocity=0 time=96 actual_time=77376
type=note_on channel=6 note=35 velocity=80 time=24 actual_time=77400
type=note_on channel=6 note=35 velocity=0 time=48 actual_time=77448
type=note_on channel=6 note=35 velocity=80 time=12 actual_time=77460
type=note_on channel=6 note=35 velocity=0 time=48 actual_time=77508
type=note_on channel=6 note=35 velocity=80 time=12 actual_time=77520
type=note_on channel=6 note=35 velocity=0 time=96 actual_time=77616
type=note_on channel=6 note=35 velocity=80 time=24 actual_time=77640
type=note_on channel=6 note=35 velocity=0 time=48 actual_time=77688
type=note_on channel=6 note=35 velocity=80 time=12 actual_time=77700
type=note_on channel=6 note=35 velocity=0 time=48 actual_time=77748
type=note_on channel=6 note=31 velocity=80 time=12 actual_time=77760
type=note_on channel=6 note=31 velocity=0 time=96 actual_time=77856
type=note_on channel=6 note=31 velocity=80 time=24 actual_time=77880
type=note_on channel=6 note=31 velocity=0 time=48 actual_time=77928
type=note_on channel=6 note=31 velocity=80 time=12 actual_time=77940
type=note_on channel=6 note=31 velocity=0 time=48 actual_time=77988
type=note_on channel=6 note=31 velocity=80 time=12 actual_time=78000
type=note_on channel=6 note=31 velocity=0 time=96 actual_time=78096
type=note_on channel=6 note=31 velocity=80 time=24 actual_time=78120
type=note_on channel=6 note=31 velocity=0 time=48 actual_time=78168
type=note_on channel=6 note=31 velocity=80 time=12 actual_time=78180
type=note_on channel=6 note=31 velocity=0 time=48 actual_time=78228
type=note_on channel=6 note=33 velocity=80 time=12 actual_time=78240
type=note_on channel=6 note=33 velocity=0 time=96 actual_time=78336
type=note_on channel=6 note=33 velocity=80 time=24 actual_time=78360
type=note_on channel=6 note=33 velocity=0 time=48 actual_time=78408
type=note_on channel=6 note=33 velocity=80 time=12 actual_time=78420
type=note_on channel=6 note=33 velocity=0 time=48 actual_time=78468
type=note_on channel=6 note=33 velocity=80 time=12 actual_time=78480
type=note_on channel=6 note=33 velocity=0 time=96 actual_time=78576
type=note_on channel=6 note=33 velocity=80 time=24 actual_time=78600
type=note_on channel=6 note=33 velocity=0 time=48 actual_time=78648
type=note_on channel=6 note=33 velocity=80 time=12 actual_time=78660
type=note_on channel=6 note=33 velocity=0 time=48 actual_time=78708
type=note_on channel=6 note=35 velocity=80 time=12 actual_time=78720
type=note_on channel=6 note=35 velocity=0 time=96 actual_time=78816
type=note_on channel=6 note=35 velocity=80 time=24 actual_time=78840
type=note_on channel=6 note=35 velocity=0 time=48 actual_time=78888
type=note_on channel=6 note=35 velocity=80 time=12 actual_time=78900
type=note_on channel=6 note=35 velocity=0 time=48 actual_time=78948
type=note_on channel=6 note=35 velocity=80 time=12 actual_time=78960
type=note_on channel=6 note=35 velocity=0 time=96 actual_time=79056
type=note_on channel=6 note=35 velocity=80 time=24 actual_time=79080
type=note_on channel=6 note=35 velocity=0 time=48 actual_time=79128
type=note_on channel=6 note=35 velocity=80 time=12 actual_time=79140
type=note_on channel=6 note=35 velocity=0 time=48 actual_time=79188
type=note_on channel=6 note=35 velocity=80 time=12 actual_time=79200
type=note_on channel=6 note=35 velocity=0 time=96 actual_time=79296
type=note_on channel=6 note=35 velocity=80 time=24 actual_time=79320
type=note_on channel=6 note=35 velocity=0 time=48 actual_time=79368
type=note_on channel=6 note=35 velocity=80 time=12 actual_time=79380
type=note_on channel=6 note=35 velocity=0 time=48 actual_time=79428
type=note_on channel=6 note=35 velocity=80 time=12 actual_time=79440
type=note_on channel=6 note=35 velocity=0 time=96 actual_time=79536
type=note_on channel=6 note=35 velocity=80 time=24 actual_time=79560
type=note_on channel=6 note=35 velocity=0 time=48 actual_time=79608
type=note_on channel=6 note=35 velocity=80 time=12 actual_time=79620
type=note_on channel=6 note=35 velocity=0 time=48 actual_time=79668
type=note_on channel=6 note=28 velocity=80 time=12 actual_time=79680
type=note_on channel=6 note=28 velocity=0 time=96 actual_time=79776
type=note_on channel=6 note=28 velocity=80 time=24 actual_time=79800
type=note_on channel=6 note=28 velocity=0 time=96 actual_time=79896
type=note_on channel=6 note=28 velocity=80 time=24 actual_time=79920
type=note_on channel=6 note=28 velocity=0 time=96 actual_time=80016
type=note_on channel=6 note=28 velocity=80 time=24 actual_time=80040
type=note_on channel=6 note=28 velocity=0 time=96 actual_time=80136
type=note_on channel=6 note=30 velocity=80 time=24 actual_time=80160
type=note_on channel=6 note=30 velocity=0 time=96 actual_time=80256
type=note_on channel=6 note=30 velocity=80 time=24 actual_time=80280
type=note_on channel=6 note=30 velocity=0 time=96 actual_time=80376
type=note_on channel=6 note=30 velocity=80 time=24 actual_time=80400
type=note_on channel=6 note=30 velocity=0 time=96 actual_time=80496
type=note_on channel=6 note=30 velocity=80 time=24 actual_time=80520
type=note_on channel=6 note=30 velocity=0 time=96 actual_time=80616
type=note_on channel=6 note=35 velocity=80 time=24 actual_time=80640
type=note_on channel=6 note=35 velocity=0 time=96 actual_time=80736
type=note_on channel=6 note=35 velocity=80 time=24 actual_time=80760
type=note_on channel=6 note=35 velocity=0 time=96 actual_time=80856
type=note_on channel=6 note=35 velocity=80 time=24 actual_time=80880
type=note_on channel=6 note=35 velocity=0 time=96 actual_time=80976
type=note_on channel=6 note=35 velocity=80 time=24 actual_time=81000
type=note_on channel=6 note=35 velocity=0 time=96 actual_time=81096
type=note_on channel=6 note=35 velocity=80 time=24 actual_time=81120
type=note_on channel=6 note=35 velocity=0 time=96 actual_time=81216
type=note_on channel=6 note=35 velocity=80 time=24 actual_time=81240
type=note_on channel=6 note=35 velocity=0 time=96 actual_time=81336
type=note_on channel=6 note=35 velocity=80 time=24 actual_time=81360
type=note_on channel=6 note=35 velocity=0 time=96 actual_time=81456
type=note_on channel=6 note=35 velocity=80 time=24 actual_time=81480
type=note_on channel=6 note=35 velocity=0 time=96 actual_time=81576
type=note_on channel=6 note=31 velocity=80 time=24 actual_time=81600
type=note_on channel=6 note=31 velocity=0 time=96 actual_time=81696
type=note_on channel=6 note=31 velocity=80 time=24 actual_time=81720
type=note_on channel=6 note=31 velocity=0 time=96 actual_time=81816
type=note_on channel=6 note=31 velocity=80 time=24 actual_time=81840
type=note_on channel=6 note=31 velocity=0 time=96 actual_time=81936
type=note_on channel=6 note=31 velocity=80 time=24 actual_time=81960
type=note_on channel=6 note=31 velocity=0 time=96 actual_time=82056
type=note_on channel=6 note=33 velocity=80 time=24 actual_time=82080
type=note_on channel=6 note=33 velocity=0 time=96 actual_time=82176
type=note_on channel=6 note=33 velocity=80 time=24 actual_time=82200
type=note_on channel=6 note=33 velocity=0 time=96 actual_time=82296
type=note_on channel=6 note=33 velocity=80 time=24 actual_time=82320
type=note_on channel=6 note=33 velocity=0 time=96 actual_time=82416
type=note_on channel=6 note=33 velocity=80 time=24 actual_time=82440
type=note_on channel=6 note=33 velocity=0 time=96 actual_time=82536
type=note_on channel=6 note=35 velocity=80 time=24 actual_time=82560
type=note_on channel=6 note=35 velocity=0 time=96 actual_time=82656
type=note_on channel=6 note=35 velocity=80 time=24 actual_time=82680
type=note_on channel=6 note=35 velocity=0 time=96 actual_time=82776
type=note_on channel=6 note=35 velocity=80 time=24 actual_time=82800
type=note_on channel=6 note=35 velocity=0 time=96 actual_time=82896
type=note_on channel=6 note=35 velocity=80 time=24 actual_time=82920
type=note_on channel=6 note=35 velocity=0 time=96 actual_time=83016
type=note_on channel=6 note=35 velocity=80 time=24 actual_time=83040
type=note_on channel=6 note=35 velocity=0 time=96 actual_time=83136
type=note_on channel=6 note=35 velocity=80 time=24 actual_time=83160
type=note_on channel=6 note=35 velocity=0 time=96 actual_time=83256
type=note_on channel=6 note=35 velocity=80 time=24 actual_time=83280
type=note_on channel=6 note=35 velocity=0 time=96 actual_time=83376
type=note_on channel=6 note=35 velocity=80 time=24 actual_time=83400
type=note_on channel=6 note=35 velocity=0 time=96 actual_time=83496
type=note_on channel=6 note=31 velocity=80 time=24 actual_time=83520
type=note_on channel=6 note=31 velocity=0 time=96 actual_time=83616
type=note_on channel=6 note=31 velocity=80 time=24 actual_time=83640
type=note_on channel=6 note=31 velocity=0 time=96 actual_time=83736
type=note_on channel=6 note=31 velocity=80 time=24 actual_time=83760
type=note_on channel=6 note=31 velocity=0 time=96 actual_time=83856
type=note_on channel=6 note=31 velocity=80 time=24 actual_time=83880
type=note_on channel=6 note=31 velocity=0 time=96 actual_time=83976
type=note_on channel=6 note=33 velocity=80 time=24 actual_time=84000
type=note_on channel=6 note=33 velocity=0 time=96 actual_time=84096
type=note_on channel=6 note=33 velocity=80 time=24 actual_time=84120
type=note_on channel=6 note=33 velocity=0 time=96 actual_time=84216
type=note_on channel=6 note=33 velocity=80 time=24 actual_time=84240
type=note_on channel=6 note=33 velocity=0 time=96 actual_time=84336
type=note_on channel=6 note=33 velocity=80 time=24 actual_time=84360
type=note_on channel=6 note=33 velocity=0 time=96 actual_time=84456
type=note_on channel=6 note=35 velocity=80 time=24 actual_time=84480
type=note_on channel=6 note=35 velocity=0 time=96 actual_time=84576
type=note_on channel=6 note=35 velocity=80 time=24 actual_time=84600
type=note_on channel=6 note=35 velocity=0 time=96 actual_time=84696
type=note_on channel=6 note=35 velocity=80 time=24 actual_time=84720
type=note_on channel=6 note=35 velocity=0 time=96 actual_time=84816
type=note_on channel=6 note=35 velocity=80 time=24 actual_time=84840
type=note_on channel=6 note=35 velocity=0 time=96 actual_time=84936
type=note_on channel=6 note=35 velocity=80 time=24 actual_time=84960
type=note_on channel=6 note=35 velocity=0 time=96 actual_time=85056
type=note_on channel=6 note=35 velocity=80 time=24 actual_time=85080
type=note_on channel=6 note=35 velocity=0 time=96 actual_time=85176
type=note_on channel=6 note=35 velocity=80 time=24 actual_time=85200
type=note_on channel=6 note=35 velocity=0 time=96 actual_time=85296
type=note_on channel=6 note=35 velocity=80 time=24 actual_time=85320
type=note_on channel=6 note=35 velocity=0 time=96 actual_time=85416
type=note_on channel=6 note=31 velocity=80 time=24 actual_time=85440
type=note_on channel=6 note=31 velocity=0 time=96 actual_time=85536
type=note_on channel=6 note=31 velocity=80 time=24 actual_time=85560
type=note_on channel=6 note=31 velocity=0 time=96 actual_time=85656
type=note_on channel=6 note=31 velocity=80 time=24 actual_time=85680
type=note_on channel=6 note=31 velocity=0 time=96 actual_time=85776
type=note_on channel=6 note=31 velocity=80 time=24 actual_time=85800
type=note_on channel=6 note=31 velocity=0 time=96 actual_time=85896
type=note_on channel=6 note=33 velocity=80 time=24 actual_time=85920
type=note_on channel=6 note=33 velocity=0 time=96 actual_time=86016
type=note_on channel=6 note=33 velocity=80 time=24 actual_time=86040
type=note_on channel=6 note=33 velocity=0 time=96 actual_time=86136
type=note_on channel=6 note=33 velocity=80 time=24 actual_time=86160
type=note_on channel=6 note=33 velocity=0 time=96 actual_time=86256
type=note_on channel=6 note=33 velocity=80 time=24 actual_time=86280
type=note_on channel=6 note=33 velocity=0 time=96 actual_time=86376
type=note_on channel=6 note=35 velocity=80 time=24 actual_time=86400
type=note_on channel=6 note=35 velocity=0 time=96 actual_time=86496
type=note_on channel=6 note=35 velocity=80 time=24 actual_time=86520
type=note_on channel=6 note=35 velocity=0 time=96 actual_time=86616
type=note_on channel=6 note=35 velocity=80 time=24 actual_time=86640
type=note_on channel=6 note=35 velocity=0 time=96 actual_time=86736
type=note_on channel=6 note=35 velocity=80 time=24 actual_time=86760
type=note_on channel=6 note=35 velocity=0 time=96 actual_time=86856
type=note_on channel=6 note=35 velocity=80 time=24 actual_time=86880
type=note_on channel=6 note=35 velocity=0 time=96 actual_time=86976
type=note_on channel=6 note=35 velocity=80 time=24 actual_time=87000
type=note_on channel=6 note=35 velocity=0 time=96 actual_time=87096
type=note_on channel=6 note=35 velocity=80 time=24 actual_time=87120
type=note_on channel=6 note=35 velocity=0 time=96 actual_time=87216
type=note_on channel=6 note=35 velocity=80 time=24 actual_time=87240
type=note_on channel=6 note=35 velocity=0 time=96 actual_time=87336
type=note_on channel=6 note=31 velocity=80 time=24 actual_time=87360
type=note_on channel=6 note=31 velocity=0 time=96 actual_time=87456
type=note_on channel=6 note=31 velocity=80 time=24 actual_time=87480
type=note_on channel=6 note=31 velocity=0 time=96 actual_time=87576
type=note_on channel=6 note=31 velocity=80 time=24 actual_time=87600
type=note_on channel=6 note=31 velocity=0 time=96 actual_time=87696
type=note_on channel=6 note=31 velocity=80 time=24 actual_time=87720
type=note_on channel=6 note=31 velocity=0 time=96 actual_time=87816
type=note_on channel=6 note=33 velocity=80 time=24 actual_time=87840
type=note_on channel=6 note=33 velocity=0 time=96 actual_time=87936
type=note_on channel=6 note=33 velocity=80 time=24 actual_time=87960
type=note_on channel=6 note=33 velocity=0 time=96 actual_time=88056
type=note_on channel=6 note=33 velocity=80 time=24 actual_time=88080
type=note_on channel=6 note=33 velocity=0 time=96 actual_time=88176
type=note_on channel=6 note=33 velocity=80 time=24 actual_time=88200
type=note_on channel=6 note=33 velocity=0 time=96 actual_time=88296
type=note_on channel=6 note=35 velocity=80 time=24 actual_time=88320
type=note_on channel=6 note=35 velocity=0 time=3648 actual_time=91968
MetaMessage type: end_of_track, time: 0, actual_time: 91968
type=control_change channel=9 control=7 value=87 time=0 actual_time=0
type=note_on channel=9 note=40 velocity=80 time=3960 actual_time=3960
type=note_on channel=9 note=40 velocity=0 time=96 actual_time=4056
type=note_on channel=9 note=31 velocity=80 time=24 actual_time=4080
type=note_on channel=9 note=31 velocity=0 time=32 actual_time=4112
type=note_on channel=9 note=31 velocity=80 time=8 actual_time=4120
type=note_on channel=9 note=31 velocity=0 time=32 actual_time=4152
type=note_on channel=9 note=31 velocity=80 time=8 actual_time=4160
type=note_on channel=9 note=31 velocity=0 time=32 actual_time=4192
type=note_on channel=9 note=40 velocity=80 time=8 actual_time=4200
type=note_on channel=9 note=40 velocity=0 time=96 actual_time=4296
type=note_on channel=9 note=31 velocity=80 time=24 actual_time=4320
type=note_on channel=9 note=31 velocity=0 time=96 actual_time=4416
type=note_on channel=9 note=40 velocity=80 time=24 actual_time=4440
type=note_on channel=9 note=40 velocity=0 time=96 actual_time=4536
type=note_on channel=9 note=31 velocity=80 time=24 actual_time=4560
type=note_on channel=9 note=31 velocity=0 time=32 actual_time=4592
type=note_on channel=9 note=31 velocity=80 time=8 actual_time=4600
type=note_on channel=9 note=31 velocity=0 time=32 actual_time=4632
type=note_on channel=9 note=31 velocity=80 time=8 actual_time=4640
type=note_on channel=9 note=31 velocity=0 time=32 actual_time=4672
type=note_on channel=9 note=40 velocity=80 time=8 actual_time=4680
type=note_on channel=9 note=40 velocity=0 time=96 actual_time=4776
type=note_on channel=9 note=31 velocity=80 time=24 actual_time=4800
type=note_on channel=9 note=31 velocity=0 time=96 actual_time=4896
type=note_on channel=9 note=40 velocity=80 time=24 actual_time=4920
type=note_on channel=9 note=40 velocity=0 time=96 actual_time=5016
type=note_on channel=9 note=31 velocity=80 time=24 actual_time=5040
type=note_on channel=9 note=31 velocity=0 time=32 actual_time=5072
type=note_on channel=9 note=31 velocity=80 time=8 actual_time=5080
type=note_on channel=9 note=31 velocity=0 time=32 actual_time=5112
type=note_on channel=9 note=31 velocity=80 time=8 actual_time=5120
type=note_on channel=9 note=31 velocity=0 time=32 actual_time=5152
type=note_on channel=9 note=40 velocity=80 time=8 actual_time=5160
type=note_on channel=9 note=40 velocity=0 time=96 actual_time=5256
type=note_on channel=9 note=31 velocity=80 time=24 actual_time=5280
type=note_on channel=9 note=31 velocity=0 time=96 actual_time=5376
type=note_on channel=9 note=40 velocity=80 time=24 actual_time=5400
type=note_on channel=9 note=40 velocity=0 time=96 actual_time=5496
type=note_on channel=9 note=31 velocity=80 time=24 actual_time=5520
type=note_on channel=9 note=31 velocity=0 time=32 actual_time=5552
type=note_on channel=9 note=31 velocity=80 time=8 actual_time=5560
type=note_on channel=9 note=31 velocity=0 time=32 actual_time=5592
type=note_on channel=9 note=31 velocity=80 time=8 actual_time=5600
type=note_on channel=9 note=31 velocity=0 time=32 actual_time=5632
type=note_on channel=9 note=40 velocity=80 time=8 actual_time=5640
type=note_on channel=9 note=40 velocity=0 time=96 actual_time=5736
type=note_on channel=9 note=31 velocity=80 time=24 actual_time=5760
type=note_on channel=9 note=31 velocity=0 time=96 actual_time=5856
type=note_on channel=9 note=40 velocity=80 time=24 actual_time=5880
type=note_on channel=9 note=40 velocity=0 time=96 actual_time=5976
type=note_on channel=9 note=31 velocity=80 time=24 actual_time=6000
type=note_on channel=9 note=31 velocity=0 time=32 actual_time=6032
type=note_on channel=9 note=31 velocity=80 time=8 actual_time=6040
type=note_on channel=9 note=31 velocity=0 time=32 actual_time=6072
type=note_on channel=9 note=31 velocity=80 time=8 actual_time=6080
type=note_on channel=9 note=31 velocity=0 time=32 actual_time=6112
type=note_on channel=9 note=40 velocity=80 time=8 actual_time=6120
type=note_on channel=9 note=40 velocity=0 time=96 actual_time=6216
type=note_on channel=9 note=31 velocity=80 time=24 actual_time=6240
type=note_on channel=9 note=31 velocity=0 time=96 actual_time=6336
type=note_on channel=9 note=40 velocity=80 time=24 actual_time=6360
type=note_on channel=9 note=40 velocity=0 time=96 actual_time=6456
type=note_on channel=9 note=31 velocity=80 time=24 actual_time=6480
type=note_on channel=9 note=31 velocity=0 time=32 actual_time=6512
type=note_on channel=9 note=31 velocity=80 time=8 actual_time=6520
type=note_on channel=9 note=31 velocity=0 time=32 actual_time=6552
type=note_on channel=9 note=31 velocity=80 time=8 actual_time=6560
type=note_on channel=9 note=31 velocity=0 time=32 actual_time=6592
type=note_on channel=9 note=40 velocity=80 time=8 actual_time=6600
type=note_on channel=9 note=40 velocity=0 time=96 actual_time=6696
type=note_on channel=9 note=31 velocity=80 time=24 actual_time=6720
type=note_on channel=9 note=31 velocity=0 time=96 actual_time=6816
type=note_on channel=9 note=40 velocity=80 time=24 actual_time=6840
type=note_on channel=9 note=40 velocity=0 time=96 actual_time=6936
type=note_on channel=9 note=31 velocity=80 time=24 actual_time=6960
type=note_on channel=9 note=31 velocity=0 time=32 actual_time=6992
type=note_on channel=9 note=31 velocity=80 time=8 actual_time=7000
type=note_on channel=9 note=31 velocity=0 time=32 actual_time=7032
type=note_on channel=9 note=31 velocity=80 time=8 actual_time=7040
type=note_on channel=9 note=31 velocity=0 time=32 actual_time=7072
type=note_on channel=9 note=40 velocity=80 time=8 actual_time=7080
type=note_on channel=9 note=40 velocity=0 time=96 actual_time=7176
type=note_on channel=9 note=31 velocity=80 time=24 actual_time=7200
type=note_on channel=9 note=31 velocity=0 time=96 actual_time=7296
type=note_on channel=9 note=40 velocity=80 time=24 actual_time=7320
type=note_on channel=9 note=40 velocity=0 time=96 actual_time=7416
type=note_on channel=9 note=31 velocity=80 time=24 actual_time=7440
type=note_on channel=9 note=31 velocity=0 time=32 actual_time=7472
type=note_on channel=9 note=31 velocity=80 time=8 actual_time=7480
type=note_on channel=9 note=31 velocity=0 time=32 actual_time=7512
type=note_on channel=9 note=31 velocity=80 time=8 actual_time=7520
type=note_on channel=9 note=31 velocity=0 time=32 actual_time=7552
type=note_on channel=9 note=40 velocity=80 time=8 actual_time=7560
type=note_on channel=9 note=40 velocity=0 time=96 actual_time=7656
type=note_on channel=9 note=31 velocity=80 time=24 actual_time=7680
type=note_on channel=9 note=31 velocity=0 time=96 actual_time=7776
type=note_on channel=9 note=40 velocity=80 time=24 actual_time=7800
type=note_on channel=9 note=40 velocity=0 time=96 actual_time=7896
type=note_on channel=9 note=31 velocity=80 time=24 actual_time=7920
type=note_on channel=9 note=31 velocity=0 time=32 actual_time=7952
type=note_on channel=9 note=31 velocity=80 time=8 actual_time=7960
type=note_on channel=9 note=31 velocity=0 time=32 actual_time=7992
type=note_on channel=9 note=31 velocity=80 time=8 actual_time=8000
type=note_on channel=9 note=31 velocity=0 time=32 actual_time=8032
type=note_on channel=9 note=40 velocity=80 time=8 actual_time=8040
type=note_on channel=9 note=40 velocity=0 time=96 actual_time=8136
type=note_on channel=9 note=31 velocity=80 time=24 actual_time=8160
type=note_on channel=9 note=31 velocity=0 time=96 actual_time=8256
type=note_on channel=9 note=40 velocity=80 time=24 actual_time=8280
type=note_on channel=9 note=40 velocity=0 time=96 actual_time=8376
type=note_on channel=9 note=31 velocity=80 time=24 actual_time=8400
type=note_on channel=9 note=31 velocity=0 time=32 actual_time=8432
type=note_on channel=9 note=31 velocity=80 time=8 actual_time=8440
type=note_on channel=9 note=31 velocity=0 time=32 actual_time=8472
type=note_on channel=9 note=31 velocity=80 time=8 actual_time=8480
type=note_on channel=9 note=31 velocity=0 time=32 actual_time=8512
type=note_on channel=9 note=40 velocity=80 time=8 actual_time=8520
type=note_on channel=9 note=40 velocity=0 time=96 actual_time=8616
type=note_on channel=9 note=31 velocity=80 time=24 actual_time=8640
type=note_on channel=9 note=31 velocity=0 time=96 actual_time=8736
type=note_on channel=9 note=40 velocity=80 time=24 actual_time=8760
type=note_on channel=9 note=40 velocity=0 time=96 actual_time=8856
type=note_on channel=9 note=31 velocity=80 time=24 actual_time=8880
type=note_on channel=9 note=31 velocity=0 time=32 actual_time=8912
type=note_on channel=9 note=31 velocity=80 time=8 actual_time=8920
type=note_on channel=9 note=31 velocity=0 time=32 actual_time=8952
type=note_on channel=9 note=31 velocity=80 time=8 actual_time=8960
type=note_on channel=9 note=31 velocity=0 time=32 actual_time=8992
type=note_on channel=9 note=40 velocity=80 time=8 actual_time=9000
type=note_on channel=9 note=40 velocity=0 time=96 actual_time=9096
type=note_on channel=9 note=31 velocity=80 time=24 actual_time=9120
type=note_on channel=9 note=31 velocity=0 time=96 actual_time=9216
type=note_on channel=9 note=40 velocity=80 time=24 actual_time=9240
type=note_on channel=9 note=40 velocity=0 time=96 actual_time=9336
type=note_on channel=9 note=31 velocity=80 time=24 actual_time=9360
type=note_on channel=9 note=31 velocity=0 time=32 actual_time=9392
type=note_on channel=9 note=31 velocity=80 time=8 actual_time=9400
type=note_on channel=9 note=31 velocity=0 time=32 actual_time=9432
type=note_on channel=9 note=31 velocity=80 time=8 actual_time=9440
type=note_on channel=9 note=31 velocity=0 time=32 actual_time=9472
type=note_on channel=9 note=40 velocity=80 time=8 actual_time=9480
type=note_on channel=9 note=40 velocity=0 time=96 actual_time=9576
type=note_on channel=9 note=31 velocity=80 time=24 actual_time=9600
type=note_on channel=9 note=31 velocity=0 time=96 actual_time=9696
type=note_on channel=9 note=40 velocity=80 time=24 actual_time=9720
type=note_on channel=9 note=40 velocity=0 time=96 actual_time=9816
type=note_on channel=9 note=31 velocity=80 time=24 actual_time=9840
type=note_on channel=9 note=31 velocity=0 time=32 actual_time=9872
type=note_on channel=9 note=31 velocity=80 time=8 actual_time=9880
type=note_on channel=9 note=31 velocity=0 time=32 actual_time=9912
type=note_on channel=9 note=31 velocity=80 time=8 actual_time=9920
type=note_on channel=9 note=31 velocity=0 time=32 actual_time=9952
type=note_on channel=9 note=40 velocity=80 time=8 actual_time=9960
type=note_on channel=9 note=40 velocity=0 time=96 actual_time=10056
type=note_on channel=9 note=31 velocity=80 time=24 actual_time=10080
type=note_on channel=9 note=31 velocity=0 time=96 actual_time=10176
type=note_on channel=9 note=40 velocity=80 time=24 actual_time=10200
type=note_on channel=9 note=40 velocity=0 time=96 actual_time=10296
type=note_on channel=9 note=31 velocity=80 time=24 actual_time=10320
type=note_on channel=9 note=31 velocity=0 time=32 actual_time=10352
type=note_on channel=9 note=31 velocity=80 time=8 actual_time=10360
type=note_on channel=9 note=31 velocity=0 time=32 actual_time=10392
type=note_on channel=9 note=31 velocity=80 time=8 actual_time=10400
type=note_on channel=9 note=31 velocity=0 time=32 actual_time=10432
type=note_on channel=9 note=40 velocity=80 time=8 actual_time=10440
type=note_on channel=9 note=40 velocity=0 time=96 actual_time=10536
type=note_on channel=9 note=31 velocity=80 time=24 actual_time=10560
type=note_on channel=9 note=31 velocity=0 time=96 actual_time=10656
type=note_on channel=9 note=40 velocity=80 time=24 actual_time=10680
type=note_on channel=9 note=40 velocity=0 time=96 actual_time=10776
type=note_on channel=9 note=31 velocity=80 time=24 actual_time=10800
type=note_on channel=9 note=31 velocity=0 time=32 actual_time=10832
type=note_on channel=9 note=31 velocity=80 time=8 actual_time=10840
type=note_on channel=9 note=31 velocity=0 time=32 actual_time=10872
type=note_on channel=9 note=31 velocity=80 time=8 actual_time=10880
type=note_on channel=9 note=31 velocity=0 time=32 actual_time=10912
type=note_on channel=9 note=40 velocity=80 time=8 actual_time=10920
type=note_on channel=9 note=40 velocity=0 time=96 actual_time=11016
type=note_on channel=9 note=31 velocity=80 time=24 actual_time=11040
type=note_on channel=9 note=31 velocity=0 time=96 actual_time=11136
type=note_on channel=9 note=40 velocity=80 time=24 actual_time=11160
type=note_on channel=9 note=40 velocity=0 time=96 actual_time=11256
type=note_on channel=9 note=31 velocity=80 time=24 actual_time=11280
type=note_on channel=9 note=31 velocity=0 time=32 actual_time=11312
type=note_on channel=9 note=31 velocity=80 time=8 actual_time=11320
type=note_on channel=9 note=31 velocity=0 time=32 actual_time=11352
type=note_on channel=9 note=31 velocity=80 time=8 actual_time=11360
type=note_on channel=9 note=31 velocity=0 time=32 actual_time=11392
type=note_on channel=9 note=40 velocity=80 time=8 actual_time=11400
type=note_on channel=9 note=40 velocity=0 time=96 actual_time=11496
type=note_on channel=9 note=31 velocity=80 time=24 actual_time=11520
type=note_on channel=9 note=31 velocity=0 time=96 actual_time=11616
type=note_on channel=9 note=40 velocity=80 time=24 actual_time=11640
type=note_on channel=9 note=40 velocity=0 time=96 actual_time=11736
type=note_on channel=9 note=31 velocity=80 time=24 actual_time=11760
type=note_on channel=9 note=31 velocity=0 time=32 actual_time=11792
type=note_on channel=9 note=31 velocity=80 time=8 actual_time=11800
type=note_on channel=9 note=31 velocity=0 time=32 actual_time=11832
type=note_on channel=9 note=31 velocity=80 time=8 actual_time=11840
type=note_on channel=9 note=31 velocity=0 time=32 actual_time=11872
type=note_on channel=9 note=40 velocity=80 time=8 actual_time=11880
type=note_on channel=9 note=40 velocity=0 time=96 actual_time=11976
type=note_on channel=9 note=31 velocity=80 time=24 actual_time=12000
type=note_on channel=9 note=31 velocity=0 time=96 actual_time=12096
type=note_on channel=9 note=40 velocity=80 time=24 actual_time=12120
type=note_on channel=9 note=40 velocity=0 time=96 actual_time=12216
type=note_on channel=9 note=31 velocity=80 time=24 actual_time=12240
type=note_on channel=9 note=31 velocity=0 time=32 actual_time=12272
type=note_on channel=9 note=31 velocity=80 time=8 actual_time=12280
type=note_on channel=9 note=31 velocity=0 time=32 actual_time=12312
type=note_on channel=9 note=31 velocity=80 time=8 actual_time=12320
type=note_on channel=9 note=31 velocity=0 time=32 actual_time=12352
type=note_on channel=9 note=40 velocity=80 time=8 actual_time=12360
type=note_on channel=9 note=40 velocity=0 time=96 actual_time=12456
type=note_on channel=9 note=31 velocity=80 time=24 actual_time=12480
type=note_on channel=9 note=31 velocity=0 time=96 actual_time=12576
type=note_on channel=9 note=40 velocity=80 time=24 actual_time=12600
type=note_on channel=9 note=40 velocity=0 time=96 actual_time=12696
type=note_on channel=9 note=31 velocity=80 time=24 actual_time=12720
type=note_on channel=9 note=31 velocity=0 time=32 actual_time=12752
type=note_on channel=9 note=31 velocity=80 time=8 actual_time=12760
type=note_on channel=9 note=31 velocity=0 time=32 actual_time=12792
type=note_on channel=9 note=31 velocity=80 time=8 actual_time=12800
type=note_on channel=9 note=31 velocity=0 time=32 actual_time=12832
type=note_on channel=9 note=40 velocity=80 time=8 actual_time=12840
type=note_on channel=9 note=40 velocity=0 time=96 actual_time=12936
type=note_on channel=9 note=31 velocity=80 time=24 actual_time=12960
type=note_on channel=9 note=31 velocity=0 time=96 actual_time=13056
type=note_on channel=9 note=40 velocity=80 time=24 actual_time=13080
type=note_on channel=9 note=40 velocity=0 time=96 actual_time=13176
type=note_on channel=9 note=31 velocity=80 time=24 actual_time=13200
type=note_on channel=9 note=31 velocity=0 time=32 actual_time=13232
type=note_on channel=9 note=31 velocity=80 time=8 actual_time=13240
type=note_on channel=9 note=31 velocity=0 time=32 actual_time=13272
type=note_on channel=9 note=31 velocity=80 time=8 actual_time=13280
type=note_on channel=9 note=31 velocity=0 time=32 actual_time=13312
type=note_on channel=9 note=40 velocity=80 time=8 actual_time=13320
type=note_on channel=9 note=40 velocity=0 time=96 actual_time=13416
type=note_on channel=9 note=31 velocity=80 time=24 actual_time=13440
type=note_on channel=9 note=31 velocity=0 time=96 actual_time=13536
type=note_on channel=9 note=40 velocity=80 time=24 actual_time=13560
type=note_on channel=9 note=40 velocity=0 time=96 actual_time=13656
type=note_on channel=9 note=31 velocity=80 time=24 actual_time=13680
type=note_on channel=9 note=31 velocity=0 time=32 actual_time=13712
type=note_on channel=9 note=31 velocity=80 time=8 actual_time=13720
type=note_on channel=9 note=31 velocity=0 time=32 actual_time=13752
type=note_on channel=9 note=31 velocity=80 time=8 actual_time=13760
type=note_on channel=9 note=31 velocity=0 time=32 actual_time=13792
type=note_on channel=9 note=40 velocity=80 time=8 actual_time=13800
type=note_on channel=9 note=40 velocity=0 time=96 actual_time=13896
type=note_on channel=9 note=31 velocity=80 time=24 actual_time=13920
type=note_on channel=9 note=31 velocity=0 time=96 actual_time=14016
type=note_on channel=9 note=40 velocity=80 time=24 actual_time=14040
type=note_on channel=9 note=40 velocity=0 time=96 actual_time=14136
type=note_on channel=9 note=31 velocity=80 time=24 actual_time=14160
type=note_on channel=9 note=31 velocity=0 time=32 actual_time=14192
type=note_on channel=9 note=31 velocity=80 time=8 actual_time=14200
type=note_on channel=9 note=31 velocity=0 time=32 actual_time=14232
type=note_on channel=9 note=31 velocity=80 time=8 actual_time=14240
type=note_on channel=9 note=31 velocity=0 time=32 actual_time=14272
type=note_on channel=9 note=40 velocity=80 time=8 actual_time=14280
type=note_on channel=9 note=40 velocity=0 time=96 actual_time=14376
type=note_on channel=9 note=31 velocity=80 time=24 actual_time=14400
type=note_on channel=9 note=31 velocity=0 time=96 actual_time=14496
type=note_on channel=9 note=40 velocity=80 time=24 actual_time=14520
type=note_on channel=9 note=40 velocity=0 time=96 actual_time=14616
type=note_on channel=9 note=31 velocity=80 time=24 actual_time=14640
type=note_on channel=9 note=31 velocity=0 time=32 actual_time=14672
type=note_on channel=9 note=31 velocity=80 time=8 actual_time=14680
type=note_on channel=9 note=31 velocity=0 time=32 actual_time=14712
type=note_on channel=9 note=31 velocity=80 time=8 actual_time=14720
type=note_on channel=9 note=31 velocity=0 time=32 actual_time=14752
type=note_on channel=9 note=40 velocity=80 time=8 actual_time=14760
type=note_on channel=9 note=40 velocity=0 time=96 actual_time=14856
type=note_on channel=9 note=31 velocity=80 time=24 actual_time=14880
type=note_on channel=9 note=31 velocity=80 time=0 actual_time=14880
type=note_on channel=9 note=31 velocity=0 time=32 actual_time=14912
type=note_on channel=9 note=31 velocity=0 time=0 actual_time=14912
type=note_on channel=9 note=31 velocity=80 time=8 actual_time=14920
type=note_on channel=9 note=31 velocity=0 time=32 actual_time=14952
type=note_on channel=9 note=31 velocity=80 time=8 actual_time=14960
type=note_on channel=9 note=31 velocity=0 time=32 actual_time=14992
type=note_on channel=9 note=31 velocity=80 time=8 actual_time=15000
type=note_on channel=9 note=31 velocity=80 time=0 actual_time=15000
type=note_on channel=9 note=31 velocity=0 time=32 actual_time=15032
type=note_on channel=9 note=31 velocity=0 time=0 actual_time=15032
type=note_on channel=9 note=31 velocity=80 time=8 actual_time=15040
type=note_on channel=9 note=31 velocity=0 time=32 actual_time=15072
type=note_on channel=9 note=31 velocity=80 time=8 actual_time=15080
type=note_on channel=9 note=31 velocity=0 time=32 actual_time=15112
type=note_on channel=9 note=47 velocity=80 time=8 actual_time=15120
type=note_on channel=9 note=47 velocity=0 time=32 actual_time=15152
type=note_on channel=9 note=45 velocity=80 time=8 actual_time=15160
type=note_on channel=9 note=45 velocity=0 time=32 actual_time=15192
type=note_on channel=9 note=43 velocity=80 time=8 actual_time=15200
type=note_on channel=9 note=43 velocity=0 time=32 actual_time=15232
type=note_on channel=9 note=47 velocity=80 time=8 actual_time=15240
type=note_on channel=9 note=47 velocity=0 time=32 actual_time=15272
type=note_on channel=9 note=45 velocity=80 time=8 actual_time=15280
type=note_on channel=9 note=45 velocity=0 time=32 actual_time=15312
type=note_on channel=9 note=43 velocity=80 time=8 actual_time=15320
type=note_on channel=9 note=43 velocity=0 time=32 actual_time=15352
type=note_on channel=9 note=53 velocity=80 time=8 actual_time=15360
type=note_on channel=9 note=35 velocity=80 time=0 actual_time=15360
type=note_on channel=9 note=49 velocity=80 time=0 actual_time=15360
type=note_on channel=9 note=49 velocity=0 time=96 actual_time=15456
type=note_on channel=9 note=35 velocity=0 time=0 actual_time=15456
type=note_on channel=9 note=53 velocity=0 time=0 actual_time=15456
type=note_on channel=9 note=53 velocity=80 time=24 actual_time=15480
type=note_on channel=9 note=40 velocity=80 time=0 actual_time=15480
type=note_on channel=9 note=40 velocity=0 time=96 actual_time=15576
type=note_on channel=9 note=53 velocity=0 time=0 actual_time=15576
type=note_on channel=9 note=53 velocity=80 time=24 actual_time=15600
type=note_on channel=9 note=53 velocity=0 time=64 actual_time=15664
type=note_on channel=9 note=35 velocity=80 time=16 actual_time=15680
type=note_on channel=9 note=35 velocity=0 time=32 actual_time=15712
type=note_on channel=9 note=40 velocity=80 time=8 actual_time=15720
type=note_on channel=9 note=53 velocity=80 time=0 actual_time=15720
type=note_on channel=9 note=53 velocity=0 time=96 actual_time=15816
type=note_on channel=9 note=40 velocity=0 time=0 actual_time=15816
type=note_on channel=9 note=53 velocity=80 time=24 actual_time=15840
type=note_on channel=9 note=35 velocity=80 time=0 actual_time=15840
type=note_on channel=9 note=35 velocity=0 time=96 actual_time=15936
type=note_on channel=9 note=53 velocity=0 time=0 actual_time=15936
type=note_on channel=9 note=40 velocity=80 time=24 actual_time=15960
type=note_on channel=9 note=53 velocity=80 time=0 actual_time=15960
type=note_on channel=9 note=53 velocity=0 time=96 actual_time=16056
type=note_on channel=9 note=40 velocity=0 time=0 actual_time=16056
type=note_on channel=9 note=53 velocity=80 time=24 actual_time=16080
type=note_on channel=9 note=53 velocity=0 time=64 actual_time=16144
type=note_on channel=9 note=35 velocity=80 time=16 actual_time=16160
type=note_on channel=9 note=35 velocity=0 time=32 actual_time=16192
type=note_on channel=9 note=53 velocity=80 time=8 actual_time=16200
type=note_on channel=9 note=40 velocity=80 time=0 actual_time=16200
type=note_on channel=9 note=40 velocity=0 time=96 actual_time=16296
type=note_on channel=9 note=53 velocity=0 time=0 actual_time=16296
type=note_on channel=9 note=35 velocity=80 time=24 actual_time=16320
type=note_on channel=9 note=53 velocity=80 time=0 actual_time=16320
type=note_on channel=9 note=53 velocity=0 time=96 actual_time=16416
type=note_on channel=9 note=35 velocity=0 time=0 actual_time=16416
type=note_on channel=9 note=40 velocity=80 time=24 actual_time=16440
type=note_on channel=9 note=53 velocity=80 time=0 actual_time=16440
type=note_on channel=9 note=53 velocity=0 time=96 actual_time=16536
type=note_on channel=9 note=40 velocity=0 time=0 actual_time=16536
type=note_on channel=9 note=53 velocity=80 time=24 actual_time=16560
type=note_on channel=9 note=53 velocity=0 time=64 actual_time=16624
type=note_on channel=9 note=35 velocity=80 time=16 actual_time=16640
type=note_on channel=9 note=35 velocity=0 time=32 actual_time=16672
type=note_on channel=9 note=53 velocity=80 time=8 actual_time=16680
type=note_on channel=9 note=40 velocity=80 time=0 actual_time=16680
type=note_on channel=9 note=40 velocity=0 time=96 actual_time=16776
type=note_on channel=9 note=53 velocity=0 time=0 actual_time=16776
type=note_on channel=9 note=53 velocity=80 time=24 actual_time=16800
type=note_on channel=9 note=35 velocity=80 time=0 actual_time=16800
type=note_on channel=9 note=35 velocity=0 time=96 actual_time=16896
type=note_on channel=9 note=53 velocity=0 time=0 actual_time=16896
type=note_on channel=9 note=40 velocity=80 time=24 actual_time=16920
type=note_on channel=9 note=53 velocity=80 time=0 actual_time=16920
type=note_on channel=9 note=53 velocity=0 time=96 actual_time=17016
type=note_on channel=9 note=40 velocity=0 time=0 actual_time=17016
type=note_on channel=9 note=53 velocity=80 time=24 actual_time=17040
type=note_on channel=9 note=53 velocity=0 time=64 actual_time=17104
type=note_on channel=9 note=35 velocity=80 time=16 actual_time=17120
type=note_on channel=9 note=35 velocity=0 time=32 actual_time=17152
type=note_on channel=9 note=40 velocity=80 time=8 actual_time=17160
type=note_on channel=9 note=53 velocity=80 time=0 actual_time=17160
type=note_on channel=9 note=53 velocity=0 time=96 actual_time=17256
type=note_on channel=9 note=40 velocity=0 time=0 actual_time=17256
type=note_on channel=9 note=53 velocity=80 time=24 actual_time=17280
type=note_on channel=9 note=35 velocity=80 time=0 actual_time=17280
type=note_on channel=9 note=35 velocity=0 time=96 actual_time=17376
type=note_on channel=9 note=53 velocity=0 time=0 actual_time=17376
type=note_on channel=9 note=53 velocity=80 time=24 actual_time=17400
type=note_on channel=9 note=40 velocity=80 time=0 actual_time=17400
type=note_on channel=9 note=40 velocity=0 time=96 actual_time=17496
type=note_on channel=9 note=53 velocity=0 time=0 actual_time=17496
type=note_on channel=9 note=53 velocity=80 time=24 actual_time=17520
type=note_on channel=9 note=53 velocity=0 time=64 actual_time=17584
type=note_on channel=9 note=35 velocity=80 time=16 actual_time=17600
type=note_on channel=9 note=35 velocity=0 time=32 actual_time=17632
type=note_on channel=9 note=40 velocity=80 time=8 actual_time=17640
type=note_on channel=9 note=53 velocity=80 time=0 actual_time=17640
type=note_on channel=9 note=53 velocity=0 time=96 actual_time=17736
type=note_on channel=9 note=40 velocity=0 time=0 actual_time=17736
type=note_on channel=9 note=35 velocity=80 time=24 actual_time=17760
type=note_on channel=9 note=53 velocity=80 time=0 actual_time=17760
type=note_on channel=9 note=53 velocity=0 time=96 actual_time=17856
type=note_on channel=9 note=35 velocity=0 time=0 actual_time=17856
type=note_on channel=9 note=40 velocity=80 time=24 actual_time=17880
type=note_on channel=9 note=53 velocity=80 time=0 actual_time=17880
type=note_on channel=9 note=53 velocity=0 time=96 actual_time=17976
type=note_on channel=9 note=40 velocity=0 time=0 actual_time=17976
type=note_on channel=9 note=53 velocity=80 time=24 actual_time=18000
type=note_on channel=9 note=53 velocity=0 time=64 actual_time=18064
type=note_on channel=9 note=35 velocity=80 time=16 actual_time=18080
type=note_on channel=9 note=35 velocity=0 time=32 actual_time=18112
type=note_on channel=9 note=53 velocity=80 time=8 actual_time=18120
type=note_on channel=9 note=40 velocity=80 time=0 actual_time=18120
type=note_on channel=9 note=40 velocity=0 time=96 actual_time=18216
type=note_on channel=9 note=53 velocity=0 time=0 actual_time=18216
type=note_on channel=9 note=35 velocity=80 time=24 actual_time=18240
type=note_on channel=9 note=53 velocity=80 time=0 actual_time=18240
type=note_on channel=9 note=53 velocity=0 time=96 actual_time=18336
type=note_on channel=9 note=35 velocity=0 time=0 actual_time=18336
type=note_on channel=9 note=40 velocity=80 time=24 actual_time=18360
type=note_on channel=9 note=53 velocity=80 time=0 actual_time=18360
type=note_on channel=9 note=53 velocity=0 time=96 actual_time=18456
type=note_on channel=9 note=40 velocity=0 time=0 actual_time=18456
type=note_on channel=9 note=53 velocity=80 time=24 actual_time=18480
type=note_on channel=9 note=53 velocity=0 time=64 actual_time=18544
type=note_on channel=9 note=35 velocity=80 time=16 actual_time=18560
type=note_on channel=9 note=35 velocity=0 time=32 actual_time=18592
type=note_on channel=9 note=53 velocity=80 time=8 actual_time=18600
type=note_on channel=9 note=40 velocity=80 time=0 actual_time=18600
type=note_on channel=9 note=40 velocity=0 time=96 actual_time=18696
type=note_on channel=9 note=53 velocity=0 time=0 actual_time=18696
type=note_on channel=9 note=35 velocity=80 time=24 actual_time=18720
type=note_on channel=9 note=53 velocity=80 time=0 actual_time=18720
type=note_on channel=9 note=53 velocity=0 time=96 actual_time=18816
type=note_on channel=9 note=35 velocity=0 time=0 actual_time=18816
type=note_on channel=9 note=40 velocity=80 time=24 actual_time=18840
type=note_on channel=9 note=53 velocity=80 time=0 actual_time=18840
type=note_on channel=9 note=53 velocity=0 time=96 actual_time=18936
type=note_on channel=9 note=40 velocity=0 time=0 actual_time=18936
type=note_on channel=9 note=40 velocity=80 time=24 actual_time=18960
type=note_on channel=9 note=47 velocity=80 time=0 actual_time=18960
type=note_on channel=9 note=47 velocity=0 time=32 actual_time=18992
type=note_on channel=9 note=40 velocity=0 time=0 actual_time=18992
type=note_on channel=9 note=45 velocity=80 time=8 actual_time=19000
type=note_on channel=9 note=45 velocity=0 time=32 actual_time=19032
type=note_on channel=9 note=43 velocity=80 time=8 actual_time=19040
type=note_on channel=9 note=43 velocity=0 time=32 actual_time=19072
type=note_on channel=9 note=41 velocity=80 time=8 actual_time=19080
type=note_on channel=9 note=49 velocity=80 time=120 actual_time=19200
type=note_on channel=9 note=35 velocity=80 time=0 actual_time=19200
type=note_on channel=9 note=53 velocity=80 time=0 actual_time=19200
type=note_on channel=9 note=41 velocity=0 time=72 actual_time=19272
type=note_on channel=9 note=49 velocity=0 time=24 actual_time=19296
type=note_on channel=9 note=35 velocity=0 time=0 actual_time=19296
type=note_on channel=9 note=53 velocity=0 time=0 actual_time=19296
type=note_on channel=9 note=40 velocity=80 time=24 actual_time=19320
type=note_on channel=9 note=53 velocity=80 time=0 actual_time=19320
type=note_on channel=9 note=53 velocity=0 time=96 actual_time=19416
type=note_on channel=9 note=40 velocity=0 time=0 actual_time=19416
type=note_on channel=9 note=53 velocity=80 time=24 actual_time=19440
type=note_on channel=9 note=53 velocity=0 time=64 actual_time=19504
type=note_on channel=9 note=35 velocity=80 time=16 actual_time=19520
type=note_on channel=9 note=35 velocity=0 time=32 actual_time=19552
type=note_on channel=9 note=53 velocity=80 time=8 actual_time=19560
type=note_on channel=9 note=40 velocity=80 time=0 actual_time=19560
type=note_on channel=9 note=40 velocity=0 time=96 actual_time=19656
type=note_on channel=9 note=53 velocity=0 time=0 actual_time=19656
type=note_on channel=9 note=35 velocity=80 time=24 actual_time=19680
type=note_on channel=9 note=53 velocity=80 time=0 actual_time=19680
type=note_on channel=9 note=53 velocity=0 time=96 actual_time=19776
type=note_on channel=9 note=35 velocity=0 time=0 actual_time=19776
type=note_on channel=9 note=40 velocity=80 time=24 actual_time=19800
type=note_on channel=9 note=53 velocity=80 time=0 actual_time=19800
type=note_on channel=9 note=53 velocity=0 time=96 actual_time=19896
type=note_on channel=9 note=40 velocity=0 time=0 actual_time=19896
type=note_on channel=9 note=53 velocity=80 time=24 actual_time=19920
type=note_on channel=9 note=53 velocity=0 time=64 actual_time=19984
type=note_on channel=9 note=35 velocity=80 time=16 actual_time=20000
type=note_on channel=9 note=35 velocity=0 time=32 actual_time=20032
type=note_on channel=9 note=40 velocity=80 time=8 actual_time=20040
type=note_on channel=9 note=53 velocity=80 time=0 actual_time=20040
type=note_on channel=9 note=53 velocity=0 time=96 actual_time=20136
type=note_on channel=9 note=40 velocity=0 time=0 actual_time=20136
type=note_on channel=9 note=53 velocity=80 time=24 actual_time=20160
type=note_on channel=9 note=35 velocity=80 time=0 actual_time=20160
type=note_on channel=9 note=35 velocity=0 time=96 actual_time=20256
type=note_on channel=9 note=53 velocity=0 time=0 actual_time=20256
type=note_on channel=9 note=53 velocity=80 time=24 actual_time=20280
type=note_on channel=9 note=40 velocity=80 time=0 actual_time=20280
type=note_on channel=9 note=40 velocity=0 time=96 actual_time=20376
type=note_on channel=9 note=53 velocity=0 time=0 actual_time=20376
type=note_on channel=9 note=53 velocity=80 time=24 actual_time=20400
type=note_on channel=9 note=53 velocity=0 time=64 actual_time=20464
type=note_on channel=9 note=35 velocity=80 time=16 actual_time=20480
type=note_on channel=9 note=35 velocity=0 time=32 actual_time=20512
type=note_on channel=9 note=40 velocity=80 time=8 actual_time=20520
type=note_on channel=9 note=53 velocity=80 time=0 actual_time=20520
type=note_on channel=9 note=53 velocity=0 time=96 actual_time=20616
type=note_on channel=9 note=40 velocity=0 time=0 actual_time=20616
type=note_on channel=9 note=35 velocity=80 time=24 actual_time=20640
type=note_on channel=9 note=53 velocity=80 time=0 actual_time=20640
type=note_on channel=9 note=53 velocity=0 time=96 actual_time=20736
type=note_on channel=9 note=35 velocity=0 time=0 actual_time=20736
type=note_on channel=9 note=40 velocity=80 time=24 actual_time=20760
type=note_on channel=9 note=53 velocity=80 time=0 actual_time=20760
type=note_on channel=9 note=53 velocity=0 time=96 actual_time=20856
type=note_on channel=9 note=40 velocity=0 time=0 actual_time=20856
type=note_on channel=9 note=53 velocity=80 time=24 actual_time=20880
type=note_on channel=9 note=53 velocity=0 time=64 actual_time=20944
type=note_on channel=9 note=35 velocity=80 time=16 actual_time=20960
type=note_on channel=9 note=35 velocity=0 time=32 actual_time=20992
type=note_on channel=9 note=53 velocity=80 time=8 actual_time=21000
type=note_on channel=9 note=40 velocity=80 time=0 actual_time=21000
type=note_on channel=9 note=40 velocity=0 time=96 actual_time=21096
type=note_on channel=9 note=53 velocity=0 time=0 actual_time=21096
type=note_on channel=9 note=49 velocity=80 time=24 actual_time=21120
type=note_on channel=9 note=35 velocity=80 time=0 actual_time=21120
type=note_on channel=9 note=53 velocity=80 time=0 actual_time=21120
type=note_on channel=9 note=53 velocity=0 time=96 actual_time=21216
type=note_on channel=9 note=35 velocity=0 time=0 actual_time=21216
type=note_on channel=9 note=49 velocity=0 time=0 actual_time=21216
type=note_on channel=9 note=40 velocity=80 time=24 actual_time=21240
type=note_on channel=9 note=53 velocity=80 time=0 actual_time=21240
type=note_on channel=9 note=53 velocity=0 time=96 actual_time=21336
type=note_on channel=9 note=40 velocity=0 time=0 actual_time=21336
type=note_on channel=9 note=53 velocity=80 time=24 actual_time=21360
type=note_on channel=9 note=53 velocity=0 time=64 actual_time=21424
type=note_on channel=9 note=35 velocity=80 time=16 actual_time=21440
type=note_on channel=9 note=35 velocity=0 time=32 actual_time=21472
type=note_on channel=9 note=40 velocity=80 time=8 actual_time=21480
type=note_on channel=9 note=53 velocity=80 time=0 actual_time=21480
type=note_on channel=9 note=53 velocity=0 time=96 actual_time=21576
type=note_on channel=9 note=40 velocity=0 time=0 actual_time=21576
type=note_on channel=9 note=53 velocity=80 time=24 actual_time=21600
type=note_on channel=9 note=35 velocity=80 time=0 actual_time=21600
type=note_on channel=9 note=35 velocity=0 time=96 actual_time=21696
type=note_on channel=9 note=53 velocity=0 time=0 actual_time=21696
type=note_on channel=9 note=40 velocity=80 time=24 actual_time=21720
type=note_on channel=9 note=53 velocity=80 time=0 actual_time=21720
type=note_on channel=9 note=53 velocity=0 time=96 actual_time=21816
type=note_on channel=9 note=40 velocity=0 time=0 actual_time=21816
type=note_on channel=9 note=53 velocity=80 time=24 actual_time=21840
type=note_on channel=9 note=53 velocity=0 time=64 actual_time=21904
type=note_on channel=9 note=35 velocity=80 time=16 actual_time=21920
type=note_on channel=9 note=35 velocity=0 time=32 actual_time=21952
type=note_on channel=9 note=40 velocity=80 time=8 actual_time=21960
type=note_on channel=9 note=53 velocity=80 time=0 actual_time=21960
type=note_on channel=9 note=53 velocity=0 time=96 actual_time=22056
type=note_on channel=9 note=40 velocity=0 time=0 actual_time=22056
type=note_on channel=9 note=53 velocity=80 time=24 actual_time=22080
type=note_on channel=9 note=35 velocity=80 time=0 actual_time=22080
type=note_on channel=9 note=35 velocity=0 time=96 actual_time=22176
type=note_on channel=9 note=53 velocity=0 time=0 actual_time=22176
type=note_on channel=9 note=53 velocity=80 time=24 actual_time=22200
type=note_on channel=9 note=40 velocity=80 time=0 actual_time=22200
type=note_on channel=9 note=40 velocity=0 time=96 actual_time=22296
type=note_on channel=9 note=53 velocity=0 time=0 actual_time=22296
type=note_on channel=9 note=53 velocity=80 time=24 actual_time=22320
type=note_on channel=9 note=53 velocity=0 time=64 actual_time=22384
type=note_on channel=9 note=35 velocity=80 time=16 actual_time=22400
type=note_on channel=9 note=35 velocity=0 time=32 actual_time=22432
type=note_on channel=9 note=40 velocity=80 time=8 actual_time=22440
type=note_on channel=9 note=53 velocity=80 time=0 actual_time=22440
type=note_on channel=9 note=53 velocity=0 time=96 actual_time=22536
type=note_on channel=9 note=40 velocity=0 time=0 actual_time=22536
type=note_on channel=9 note=35 velocity=80 time=24 actual_time=22560
type=note_on channel=9 note=53 velocity=80 time=0 actual_time=22560
type=note_on channel=9 note=53 velocity=0 time=96 actual_time=22656
type=note_on channel=9 note=35 velocity=0 time=0 actual_time=22656
type=note_on channel=9 note=40 velocity=80 time=24 actual_time=22680
type=note_on channel=9 note=53 velocity=80 time=0 actual_time=22680
type=note_on channel=9 note=53 velocity=0 time=96 actual_time=22776
type=note_on channel=9 note=40 velocity=0 time=0 actual_time=22776
type=note_on channel=9 note=53 velocity=80 time=24 actual_time=22800
type=note_on channel=9 note=53 velocity=0 time=64 actual_time=22864
type=note_on channel=9 note=35 velocity=80 time=16 actual_time=22880
type=note_on channel=9 note=35 velocity=0 time=32 actual_time=22912
type=note_on channel=9 note=53 velocity=80 time=8 actual_time=22920
type=note_on channel=9 note=40 velocity=80 time=0 actual_time=22920
type=note_on channel=9 note=40 velocity=0 time=96 actual_time=23016
type=note_on channel=9 note=53 velocity=0 time=0 actual_time=23016
type=note_on channel=9 note=49 velocity=80 time=24 actual_time=23040
type=note_on channel=9 note=35 velocity=80 time=0 actual_time=23040
type=note_on channel=9 note=53 velocity=80 time=0 actual_time=23040
type=note_on channel=9 note=53 velocity=0 time=96 actual_time=23136
type=note_on channel=9 note=35 velocity=0 time=0 actual_time=23136
type=note_on channel=9 note=49 velocity=0 time=0 actual_time=23136
type=note_on channel=9 note=40 velocity=80 time=24 actual_time=23160
type=note_on channel=9 note=53 velocity=80 time=0 actual_time=23160
type=note_on channel=9 note=53 velocity=0 time=96 actual_time=23256
type=note_on channel=9 note=40 velocity=0 time=0 actual_time=23256
type=note_on channel=9 note=53 velocity=80 time=24 actual_time=23280
type=note_on channel=9 note=53 velocity=0 time=64 actual_time=23344
type=note_on channel=9 note=35 velocity=80 time=16 actual_time=23360
type=note_on channel=9 note=35 velocity=0 time=32 actual_time=23392
type=note_on channel=9 note=53 velocity=80 time=8 actual_time=23400
type=note_on channel=9 note=40 velocity=80 time=0 actual_time=23400
type=note_on channel=9 note=40 velocity=0 time=96 actual_time=23496
type=note_on channel=9 note=53 velocity=0 time=0 actual_time=23496
type=note_on channel=9 note=53 velocity=80 time=24 actual_time=23520
type=note_on channel=9 note=35 velocity=80 time=0 actual_time=23520
type=note_on channel=9 note=35 velocity=0 time=96 actual_time=23616
type=note_on channel=9 note=53 velocity=0 time=0 actual_time=23616
type=note_on channel=9 note=53 velocity=80 time=24 actual_time=23640
type=note_on channel=9 note=40 velocity=80 time=0 actual_time=23640
type=note_on channel=9 note=40 velocity=0 time=96 actual_time=23736
type=note_on channel=9 note=53 velocity=0 time=0 actual_time=23736
type=note_on channel=9 note=53 velocity=80 time=24 actual_time=23760
type=note_on channel=9 note=53 velocity=0 time=64 actual_time=23824
type=note_on channel=9 note=35 velocity=80 time=16 actual_time=23840
type=note_on channel=9 note=35 velocity=0 time=32 actual_time=23872
type=note_on channel=9 note=40 velocity=80 time=8 actual_time=23880
type=note_on channel=9 note=53 velocity=80 time=0 actual_time=23880
type=note_on channel=9 note=53 velocity=0 time=96 actual_time=23976
type=note_on channel=9 note=40 velocity=0 time=0 actual_time=23976
type=note_on channel=9 note=53 velocity=80 time=24 actual_time=24000
type=note_on channel=9 note=35 velocity=80 time=0 actual_time=24000
type=note_on channel=9 note=35 velocity=0 time=96 actual_time=24096
type=note_on channel=9 note=53 velocity=0 time=0 actual_time=24096
type=note_on channel=9 note=53 velocity=80 time=24 actual_time=24120
type=note_on channel=9 note=40 velocity=80 time=0 actual_time=24120
type=note_on channel=9 note=40 velocity=0 time=96 actual_time=24216
type=note_on channel=9 note=53 velocity=0 time=0 actual_time=24216
type=note_on channel=9 note=53 velocity=80 time=24 actual_time=24240
type=note_on channel=9 note=53 velocity=0 time=64 actual_time=24304
type=note_on channel=9 note=35 velocity=80 time=16 actual_time=24320
type=note_on channel=9 note=35 velocity=0 time=32 actual_time=24352
type=note_on channel=9 note=40 velocity=80 time=8 actual_time=24360
type=note_on channel=9 note=53 velocity=80 time=0 actual_time=24360
type=note_on channel=9 note=53 velocity=0 time=96 actual_time=24456
type=note_on channel=9 note=40 velocity=0 time=0 actual_time=24456
type=note_on channel=9 note=53 velocity=80 time=24 actual_time=24480
type=note_on channel=9 note=35 velocity=80 time=0 actual_time=24480
type=note_on channel=9 note=35 velocity=0 time=96 actual_time=24576
type=note_on channel=9 note=53 velocity=0 time=0 actual_time=24576
type=note_on channel=9 note=53 velocity=80 time=24 actual_time=24600
type=note_on channel=9 note=40 velocity=80 time=0 actual_time=24600
type=note_on channel=9 note=40 velocity=0 time=96 actual_time=24696
type=note_on channel=9 note=53 velocity=0 time=0 actual_time=24696
type=note_on channel=9 note=53 velocity=80 time=24 actual_time=24720
type=note_on channel=9 note=53 velocity=0 time=64 actual_time=24784
type=note_on channel=9 note=35 velocity=80 time=16 actual_time=24800
type=note_on channel=9 note=35 velocity=0 time=32 actual_time=24832
type=note_on channel=9 note=53 velocity=80 time=8 actual_time=24840
type=note_on channel=9 note=40 velocity=80 time=0 actual_time=24840
type=note_on channel=9 note=40 velocity=0 time=96 actual_time=24936
type=note_on channel=9 note=53 velocity=0 time=0 actual_time=24936
type=note_on channel=9 note=53 velocity=80 time=24 actual_time=24960
type=note_on channel=9 note=35 velocity=80 time=0 actual_time=24960
type=note_on channel=9 note=49 velocity=80 time=0 actual_time=24960
type=note_on channel=9 note=49 velocity=0 time=96 actual_time=25056
type=note_on channel=9 note=35 velocity=0 time=0 actual_time=25056
type=note_on channel=9 note=53 velocity=0 time=0 actual_time=25056
type=note_on channel=9 note=53 velocity=80 time=24 actual_time=25080
type=note_on channel=9 note=40 velocity=80 time=0 actual_time=25080
type=note_on channel=9 note=40 velocity=0 time=96 actual_time=25176
type=note_on channel=9 note=53 velocity=0 time=0 actual_time=25176
type=note_on channel=9 note=53 velocity=80 time=24 actual_time=25200
type=note_on channel=9 note=53 velocity=0 time=64 actual_time=25264
type=note_on channel=9 note=35 velocity=80 time=16 actual_time=25280
type=note_on channel=9 note=35 velocity=0 time=32 actual_time=25312
type=note_on channel=9 note=40 velocity=80 time=8 actual_time=25320
type=note_on channel=9 note=53 velocity=80 time=0 actual_time=25320
type=note_on channel=9 note=53 velocity=0 time=96 actual_time=25416
type=note_on channel=9 note=40 velocity=0 time=0 actual_time=25416
type=note_on channel=9 note=35 velocity=80 time=24 actual_time=25440
type=note_on channel=9 note=53 velocity=80 time=0 actual_time=25440
type=note_on channel=9 note=53 velocity=0 time=96 actual_time=25536
type=note_on channel=9 note=35 velocity=0 time=0 actual_time=25536
type=note_on channel=9 note=40 velocity=80 time=24 actual_time=25560
type=note_on channel=9 note=53 velocity=80 time=0 actual_time=25560
type=note_on channel=9 note=53 velocity=0 time=96 actual_time=25656
type=note_on channel=9 note=40 velocity=0 time=0 actual_time=25656
type=note_on channel=9 note=53 velocity=80 time=24 actual_time=25680
type=note_on channel=9 note=53 velocity=0 time=64 actual_time=25744
type=note_on channel=9 note=35 velocity=80 time=16 actual_time=25760
type=note_on channel=9 note=35 velocity=0 time=32 actual_time=25792
type=note_on channel=9 note=53 velocity=80 time=8 actual_time=25800
type=note_on channel=9 note=40 velocity=80 time=0 actual_time=25800
type=note_on channel=9 note=40 velocity=0 time=96 actual_time=25896
type=note_on channel=9 note=53 velocity=0 time=0 actual_time=25896
type=note_on channel=9 note=35 velocity=80 time=24 actual_time=25920
type=note_on channel=9 note=53 velocity=80 time=0 actual_time=25920
type=note_on channel=9 note=53 velocity=0 time=96 actual_time=26016
type=note_on channel=9 note=35 velocity=0 time=0 actual_time=26016
type=note_on channel=9 note=40 velocity=80 time=24 actual_time=26040
type=note_on channel=9 note=53 velocity=80 time=0 actual_time=26040
type=note_on channel=9 note=53 velocity=0 time=96 actual_time=26136
type=note_on channel=9 note=40 velocity=0 time=0 actual_time=26136
type=note_on channel=9 note=53 velocity=80 time=24 actual_time=26160
type=note_on channel=9 note=53 velocity=0 time=64 actual_time=26224
type=note_on channel=9 note=35 velocity=80 time=16 actual_time=26240
type=note_on channel=9 note=35 velocity=0 time=32 actual_time=26272
type=note_on channel=9 note=40 velocity=80 time=8 actual_time=26280
type=note_on channel=9 note=53 velocity=80 time=0 actual_time=26280
type=note_on channel=9 note=53 velocity=0 time=96 actual_time=26376
type=note_on channel=9 note=40 velocity=0 time=0 actual_time=26376
type=note_on channel=9 note=40 velocity=80 time=24 actual_time=26400
type=note_on channel=9 note=40 velocity=0 time=32 actual_time=26432
type=note_on channel=9 note=40 velocity=80 time=8 actual_time=26440
type=note_on channel=9 note=40 velocity=0 time=32 actual_time=26472
type=note_on channel=9 note=40 velocity=80 time=8 actual_time=26480
type=note_on channel=9 note=40 velocity=0 time=32 actual_time=26512
type=note_on channel=9 note=41 velocity=80 time=8 actual_time=26520
type=note_on channel=9 note=41 velocity=0 time=32 actual_time=26552
type=note_on channel=9 note=41 velocity=80 time=8 actual_time=26560
type=note_on channel=9 note=41 velocity=0 time=32 actual_time=26592
type=note_on channel=9 note=41 velocity=80 time=8 actual_time=26600
type=note_on channel=9 note=41 velocity=0 time=32 actual_time=26632
type=note_on channel=9 note=47 velocity=80 time=8 actual_time=26640
type=note_on channel=9 note=47 velocity=0 time=32 actual_time=26672
type=note_on channel=9 note=47 velocity=80 time=8 actual_time=26680
type=note_on channel=9 note=47 velocity=0 time=32 actual_time=26712
type=note_on channel=9 note=45 velocity=80 time=8 actual_time=26720
type=note_on channel=9 note=45 velocity=0 time=32 actual_time=26752
type=note_on channel=9 note=47 velocity=80 time=8 actual_time=26760
type=note_on channel=9 note=47 velocity=0 time=32 actual_time=26792
type=note_on channel=9 note=47 velocity=80 time=8 actual_time=26800
type=note_on channel=9 note=47 velocity=0 time=32 actual_time=26832
type=note_on channel=9 note=45 velocity=80 time=8 actual_time=26840
type=note_on channel=9 note=45 velocity=0 time=32 actual_time=26872
type=note_on channel=9 note=59 velocity=80 time=8 actual_time=26880
type=note_on channel=9 note=35 velocity=80 time=0 actual_time=26880
type=note_on channel=9 note=49 velocity=80 time=0 actual_time=26880
type=note_on channel=9 note=53 velocity=80 time=0 actual_time=26880
type=note_on channel=9 note=53 velocity=0 time=96 actual_time=26976
type=note_on channel=9 note=59 velocity=0 time=0 actual_time=26976
type=note_on channel=9 note=35 velocity=0 time=0 actual_time=26976
type=note_on channel=9 note=49 velocity=0 time=0 actual_time=26976
type=note_on channel=9 note=59 velocity=80 time=24 actual_time=27000
type=note_on channel=9 note=40 velocity=80 time=0 actual_time=27000
type=note_on channel=9 note=53 velocity=80 time=0 actual_time=27000
type=note_on channel=9 note=53 velocity=0 time=96 actual_time=27096
type=note_on channel=9 note=40 velocity=0 time=0 actual_time=27096
type=note_on channel=9 note=59 velocity=0 time=0 actual_time=27096
type=note_on channel=9 note=59 velocity=80 time=24 actual_time=27120
type=note_on channel=9 note=53 velocity=80 time=0 actual_time=27120
type=note_on channel=9 note=53 velocity=0 time=64 actual_time=27184
type=note_on channel=9 note=59 velocity=0 time=0 actual_time=27184
type=note_on channel=9 note=35 velocity=80 time=16 actual_time=27200
type=note_on channel=9 note=35 velocity=0 time=32 actual_time=27232
type=note_on channel=9 note=59 velocity=80 time=8 actual_time=27240
type=note_on channel=9 note=53 velocity=80 time=0 actual_time=27240
type=note_on channel=9 note=40 velocity=80 time=0 actual_time=27240
type=note_on channel=9 note=40 velocity=0 time=96 actual_time=27336
type=note_on channel=9 note=53 velocity=0 time=0 actual_time=27336
type=note_on channel=9 note=59 velocity=0 time=0 actual_time=27336
type=note_on channel=9 note=35 velocity=80 time=24 actual_time=27360
type=note_on channel=9 note=59 velocity=80 time=0 actual_time=27360
type=note_on channel=9 note=53 velocity=80 time=0 actual_time=27360
type=note_on channel=9 note=53 velocity=0 time=96 actual_time=27456
type=note_on channel=9 note=59 velocity=0 time=0 actual_time=27456
type=note_on channel=9 note=35 velocity=0 time=0 actual_time=27456
type=note_on channel=9 note=53 velocity=80 time=24 actual_time=27480
type=note_on channel=9 note=40 velocity=80 time=0 actual_time=27480
type=note_on channel=9 note=59 velocity=80 time=0 actual_time=27480
type=note_on channel=9 note=59 velocity=0 time=96 actual_time=27576
type=note_on channel=9 note=40 velocity=0 time=0 actual_time=27576
type=note_on channel=9 note=53 velocity=0 time=0 actual_time=27576
type=note_on channel=9 note=53 velocity=80 time=24 actual_time=27600
type=note_on channel=9 note=59 velocity=80 time=0 actual_time=27600
type=note_on channel=9 note=59 velocity=0 time=64 actual_time=27664
type=note_on channel=9 note=53 velocity=0 time=0 actual_time=27664
type=note_on channel=9 note=35 velocity=80 time=16 actual_time=27680
type=note_on channel=9 note=35 velocity=0 time=32 actual_time=27712
type=note_on channel=9 note=40 velocity=80 time=8 actual_time=27720
type=note_on channel=9 note=53 velocity=80 time=0 actual_time=27720
type=note_on channel=9 note=59 velocity=80 time=0 actual_time=27720
type=note_on channel=9 note=59 velocity=0 time=96 actual_time=27816
type=note_on channel=9 note=53 velocity=0 time=0 actual_time=27816
type=note_on channel=9 note=40 velocity=0 time=0 actual_time=27816
type=note_on channel=9 note=53 velocity=80 time=24 actual_time=27840
type=note_on channel=9 note=49 velocity=80 time=0 actual_time=27840
type=note_on channel=9 note=35 velocity=80 time=0 actual_time=27840
type=note_on channel=9 note=59 velocity=80 time=0 actual_time=27840
type=note_on channel=9 note=59 velocity=0 time=96 actual_time=27936
type=note_on channel=9 note=53 velocity=0 time=0 actual_time=27936
type=note_on channel=9 note=49 velocity=0 time=0 actual_time=27936
type=note_on channel=9 note=35 velocity=0 time=0 actual_time=27936
type=note_on channel=9 note=53 velocity=80 time=24 actual_time=27960
type=note_on channel=9 note=40 velocity=80 time=0 actual_time=27960
type=note_on channel=9 note=59 velocity=80 time=0 actual_time=27960
type=note_on channel=9 note=59 velocity=0 time=96 actual_time=28056
type=note_on channel=9 note=40 velocity=0 time=0 actual_time=28056
type=note_on channel=9 note=53 velocity=0 time=0 actual_time=28056
type=note_on channel=9 note=53 velocity=80 time=24 actual_time=28080
type=note_on channel=9 note=59 velocity=80 time=0 actual_time=28080
type=note_on channel=9 note=59 velocity=0 time=64 actual_time=28144
type=note_on channel=9 note=53 velocity=0 time=0 actual_time=28144
type=note_on channel=9 note=35 velocity=80 time=16 actual_time=28160
type=note_on channel=9 note=35 velocity=0 time=32 actual_time=28192
type=note_on channel=9 note=40 velocity=80 time=8 actual_time=28200
type=note_on channel=9 note=53 velocity=80 time=0 actual_time=28200
type=note_on channel=9 note=59 velocity=80 time=0 actual_time=28200
type=note_on channel=9 note=59 velocity=0 time=96 actual_time=28296
type=note_on channel=9 note=53 velocity=0 time=0 actual_time=28296
type=note_on channel=9 note=40 velocity=0 time=0 actual_time=28296
type=note_on channel=9 note=35 velocity=80 time=24 actual_time=28320
type=note_on channel=9 note=53 velocity=80 time=0 actual_time=28320
type=note_on channel=9 note=59 velocity=80 time=0 actual_time=28320
type=note_on channel=9 note=59 velocity=0 time=64 actual_time=28384
type=note_on channel=9 note=53 velocity=0 time=0 actual_time=28384
type=note_on channel=9 note=35 velocity=0 time=0 actual_time=28384
type=note_on channel=9 note=35 velocity=80 time=16 actual_time=28400
type=note_on channel=9 note=35 velocity=0 time=32 actual_time=28432
type=note_on channel=9 note=49 velocity=80 time=8 actual_time=28440
type=note_on channel=9 note=40 velocity=80 time=0 actual_time=28440
type=note_on channel=9 note=53 velocity=80 time=0 actual_time=28440
type=note_on channel=9 note=59 velocity=80 time=0 actual_time=28440
type=note_on channel=9 note=59 velocity=0 time=96 actual_time=28536
type=note_on channel=9 note=49 velocity=0 time=0 actual_time=28536
type=note_on channel=9 note=40 velocity=0 time=0 actual_time=28536
type=note_on channel=9 note=53 velocity=0 time=0 actual_time=28536
type=note_on channel=9 note=35 velocity=80 time=24 actual_time=28560
type=note_on channel=9 note=53 velocity=80 time=0 actual_time=28560
type=note_on channel=9 note=59 velocity=80 time=0 actual_time=28560
type=note_on channel=9 note=59 velocity=0 time=64 actual_time=28624
type=note_on channel=9 note=53 velocity=0 time=0 actual_time=28624
type=note_on channel=9 note=35 velocity=0 time=0 actual_time=28624
type=note_on channel=9 note=35 velocity=80 time=16 actual_time=28640
type=note_on channel=9 note=35 velocity=0 time=32 actual_time=28672
type=note_on channel=9 note=49 velocity=80 time=8 actual_time=28680
type=note_on channel=9 note=40 velocity=80 time=0 actual_time=28680
type=note_on channel=9 note=53 velocity=80 time=0 actual_time=28680
type=note_on channel=9 note=59 velocity=80 time=0 actual_time=28680
type=note_on channel=9 note=59 velocity=0 time=96 actual_time=28776
type=note_on channel=9 note=49 velocity=0 time=0 actual_time=28776
type=note_on channel=9 note=40 velocity=0 time=0 actual_time=28776
type=note_on channel=9 note=53 velocity=0 time=0 actual_time=28776
type=note_on channel=9 note=59 velocity=80 time=24 actual_time=28800
type=note_on channel=9 note=35 velocity=80 time=0 actual_time=28800
type=note_on channel=9 note=49 velocity=80 time=0 actual_time=28800
type=note_on channel=9 note=53 velocity=80 time=0 actual_time=28800
type=note_on channel=9 note=53 velocity=0 time=96 actual_time=28896
type=note_on channel=9 note=59 velocity=0 time=0 actual_time=28896
type=note_on channel=9 note=35 velocity=0 time=0 actual_time=28896
type=note_on channel=9 note=49 velocity=0 time=0 actual_time=28896
type=note_on channel=9 note=59 velocity=80 time=24 actual_time=28920
type=note_on channel=9 note=40 velocity=80 time=0 actual_time=28920
type=note_on channel=9 note=53 velocity=80 time=0 actual_time=28920
type=note_on channel=9 note=53 velocity=0 time=96 actual_time=29016
type=note_on channel=9 note=40 velocity=0 time=0 actual_time=29016
type=note_on channel=9 note=59 velocity=0 time=0 actual_time=29016
type=note_on channel=9 note=59 velocity=80 time=24 actual_time=29040
type=note_on channel=9 note=53 velocity=80 time=0 actual_time=29040
type=note_on channel=9 note=53 velocity=0 time=64 actual_time=29104
type=note_on channel=9 note=59 velocity=0 time=0 actual_time=29104
type=note_on channel=9 note=35 velocity=80 time=16 actual_time=29120
type=note_on channel=9 note=35 velocity=0 time=32 actual_time=29152
type=note_on channel=9 note=59 velocity=80 time=8 actual_time=29160
type=note_on channel=9 note=53 velocity=80 time=0 actual_time=29160
type=note_on channel=9 note=40 velocity=80 time=0 actual_time=29160
type=note_on channel=9 note=40 velocity=0 time=96 actual_time=29256
type=note_on channel=9 note=53 velocity=0 time=0 actual_time=29256
type=note_on channel=9 note=59 velocity=0 time=0 actual_time=29256
type=note_on channel=9 note=35 velocity=80 time=24 actual_time=29280
type=note_on channel=9 note=59 velocity=80 time=0 actual_time=29280
type=note_on channel=9 note=53 velocity=80 time=0 actual_time=29280
type=note_on channel=9 note=53 velocity=0 time=96 actual_time=29376
type=note_on channel=9 note=59 velocity=0 time=0 actual_time=29376
type=note_on channel=9 note=35 velocity=0 time=0 actual_time=29376
type=note_on channel=9 note=53 velocity=80 time=24 actual_time=29400
type=note_on channel=9 note=40 velocity=80 time=0 actual_time=29400
type=note_on channel=9 note=59 velocity=80 time=0 actual_time=29400
type=note_on channel=9 note=59 velocity=0 time=96 actual_time=29496
type=note_on channel=9 note=40 velocity=0 time=0 actual_time=29496
type=note_on channel=9 note=53 velocity=0 time=0 actual_time=29496
type=note_on channel=9 note=53 velocity=80 time=24 actual_time=29520
type=note_on channel=9 note=59 velocity=80 time=0 actual_time=29520
type=note_on channel=9 note=59 velocity=0 time=64 actual_time=29584
type=note_on channel=9 note=53 velocity=0 time=0 actual_time=29584
type=note_on channel=9 note=35 velocity=80 time=16 actual_time=29600
type=note_on channel=9 note=35 velocity=0 time=32 actual_time=29632
type=note_on channel=9 note=40 velocity=80 time=8 actual_time=29640
type=note_on channel=9 note=53 velocity=80 time=0 actual_time=29640
type=note_on channel=9 note=59 velocity=80 time=0 actual_time=29640
type=note_on channel=9 note=59 velocity=0 time=96 actual_time=29736
type=note_on channel=9 note=53 velocity=0 time=0 actual_time=29736
type=note_on channel=9 note=40 velocity=0 time=0 actual_time=29736
type=note_on channel=9 note=53 velocity=80 time=24 actual_time=29760
type=note_on channel=9 note=49 velocity=80 time=0 actual_time=29760
type=note_on channel=9 note=35 velocity=80 time=0 actual_time=29760
type=note_on channel=9 note=59 velocity=80 time=0 actual_time=29760
type=note_on channel=9 note=59 velocity=0 time=96 actual_time=29856
type=note_on channel=9 note=53 velocity=0 time=0 actual_time=29856
type=note_on channel=9 note=49 velocity=0 time=0 actual_time=29856
type=note_on channel=9 note=35 velocity=0 time=0 actual_time=29856
type=note_on channel=9 note=53 velocity=80 time=24 actual_time=29880
type=note_on channel=9 note=40 velocity=80 time=0 actual_time=29880
type=note_on channel=9 note=59 velocity=80 time=0 actual_time=29880
type=note_on channel=9 note=59 velocity=0 time=96 actual_time=29976
type=note_on channel=9 note=40 velocity=0 time=0 actual_time=29976
type=note_on channel=9 note=53 velocity=0 time=0 actual_time=29976
type=note_on channel=9 note=53 velocity=80 time=24 actual_time=30000
type=note_on channel=9 note=59 velocity=80 time=0 actual_time=30000
type=note_on channel=9 note=59 velocity=0 time=64 actual_time=30064
type=note_on channel=9 note=53 velocity=0 time=0 actual_time=30064
type=note_on channel=9 note=35 velocity=80 time=16 actual_time=30080
type=note_on channel=9 note=35 velocity=0 time=32 actual_time=30112
type=note_on channel=9 note=40 velocity=80 time=8 actual_time=30120
type=note_on channel=9 note=53 velocity=80 time=0 actual_time=30120
type=note_on channel=9 note=59 velocity=80 time=0 actual_time=30120
type=note_on channel=9 note=59 velocity=0 time=96 actual_time=30216
type=note_on channel=9 note=53 velocity=0 time=0 actual_time=30216
type=note_on channel=9 note=40 velocity=0 time=0 actual_time=30216
type=note_on channel=9 note=35 velocity=80 time=24 actual_time=30240
type=note_on channel=9 note=53 velocity=80 time=0 actual_time=30240
type=note_on channel=9 note=59 velocity=80 time=0 actual_time=30240
type=note_on channel=9 note=59 velocity=0 time=64 actual_time=30304
type=note_on channel=9 note=53 velocity=0 time=0 actual_time=30304
type=note_on channel=9 note=35 velocity=0 time=0 actual_time=30304
type=note_on channel=9 note=35 velocity=80 time=16 actual_time=30320
type=note_on channel=9 note=35 velocity=0 time=32 actual_time=30352
type=note_on channel=9 note=49 velocity=80 time=8 actual_time=30360
type=note_on channel=9 note=40 velocity=80 time=0 actual_time=30360
type=note_on channel=9 note=53 velocity=80 time=0 actual_time=30360
type=note_on channel=9 note=59 velocity=80 time=0 actual_time=30360
type=note_on channel=9 note=59 velocity=0 time=96 actual_time=30456
type=note_on channel=9 note=49 velocity=0 time=0 actual_time=30456
type=note_on channel=9 note=40 velocity=0 time=0 actual_time=30456
type=note_on channel=9 note=53 velocity=0 time=0 actual_time=30456
type=note_on channel=9 note=35 velocity=80 time=24 actual_time=30480
type=note_on channel=9 note=53 velocity=80 time=0 actual_time=30480
type=note_on channel=9 note=59 velocity=80 time=0 actual_time=30480
type=note_on channel=9 note=59 velocity=0 time=64 actual_time=30544
type=note_on channel=9 note=53 velocity=0 time=0 actual_time=30544
type=note_on channel=9 note=35 velocity=0 time=0 actual_time=30544
type=note_on channel=9 note=35 velocity=80 time=16 actual_time=30560
type=note_on channel=9 note=35 velocity=0 time=32 actual_time=30592
type=note_on channel=9 note=49 velocity=80 time=8 actual_time=30600
type=note_on channel=9 note=40 velocity=80 time=0 actual_time=30600
type=note_on channel=9 note=53 velocity=80 time=0 actual_time=30600
type=note_on channel=9 note=59 velocity=80 time=0 actual_time=30600
type=note_on channel=9 note=59 velocity=0 time=96 actual_time=30696
type=note_on channel=9 note=49 velocity=0 time=0 actual_time=30696
type=note_on channel=9 note=40 velocity=0 time=0 actual_time=30696
type=note_on channel=9 note=53 velocity=0 time=0 actual_time=30696
type=note_on channel=9 note=59 velocity=80 time=24 actual_time=30720
type=note_on channel=9 note=35 velocity=80 time=0 actual_time=30720
type=note_on channel=9 note=49 velocity=80 time=0 actual_time=30720
type=note_on channel=9 note=53 velocity=80 time=0 actual_time=30720
type=note_on channel=9 note=53 velocity=0 time=96 actual_time=30816
type=note_on channel=9 note=59 velocity=0 time=0 actual_time=30816
type=note_on channel=9 note=35 velocity=0 time=0 actual_time=30816
type=note_on channel=9 note=49 velocity=0 time=0 actual_time=30816
type=note_on channel=9 note=59 velocity=80 time=24 actual_time=30840
type=note_on channel=9 note=40 velocity=80 time=0 actual_time=30840
type=note_on channel=9 note=53 velocity=80 time=0 actual_time=30840
type=note_on channel=9 note=53 velocity=0 time=96 actual_time=30936
type=note_on channel=9 note=40 velocity=0 time=0 actual_time=30936
type=note_on channel=9 note=59 velocity=0 time=0 actual_time=30936
type=note_on channel=9 note=59 velocity=80 time=24 actual_time=30960
type=note_on channel=9 note=53 velocity=80 time=0 actual_time=30960
type=note_on channel=9 note=53 velocity=0 time=64 actual_time=31024
type=note_on channel=9 note=59 velocity=0 time=0 actual_time=31024
type=note_on channel=9 note=35 velocity=80 time=16 actual_time=31040
type=note_on channel=9 note=35 velocity=0 time=32 actual_time=31072
type=note_on channel=9 note=59 velocity=80 time=8 actual_time=31080
type=note_on channel=9 note=53 velocity=80 time=0 actual_time=31080
type=note_on channel=9 note=40 velocity=80 time=0 actual_time=31080
type=note_on channel=9 note=40 velocity=0 time=96 actual_time=31176
type=note_on channel=9 note=53 velocity=0 time=0 actual_time=31176
type=note_on channel=9 note=59 velocity=0 time=0 actual_time=31176
type=note_on channel=9 note=35 velocity=80 time=24 actual_time=31200
type=note_on channel=9 note=59 velocity=80 time=0 actual_time=31200
type=note_on channel=9 note=53 velocity=80 time=0 actual_time=31200
type=note_on channel=9 note=53 velocity=0 time=96 actual_time=31296
type=note_on channel=9 note=59 velocity=0 time=0 actual_time=31296
type=note_on channel=9 note=35 velocity=0 time=0 actual_time=31296
type=note_on channel=9 note=53 velocity=80 time=24 actual_time=31320
type=note_on channel=9 note=40 velocity=80 time=0 actual_time=31320
type=note_on channel=9 note=59 velocity=80 time=0 actual_time=31320
type=note_on channel=9 note=59 velocity=0 time=96 actual_time=31416
type=note_on channel=9 note=40 velocity=0 time=0 actual_time=31416
type=note_on channel=9 note=53 velocity=0 time=0 actual_time=31416
type=note_on channel=9 note=53 velocity=80 time=24 actual_time=31440
type=note_on channel=9 note=59 velocity=80 time=0 actual_time=31440
type=note_on channel=9 note=59 velocity=0 time=64 actual_time=31504
type=note_on channel=9 note=53 velocity=0 time=0 actual_time=31504
type=note_on channel=9 note=35 velocity=80 time=16 actual_time=31520
type=note_on channel=9 note=35 velocity=0 time=32 actual_time=31552
type=note_on channel=9 note=40 velocity=80 time=8 actual_time=31560
type=note_on channel=9 note=53 velocity=80 time=0 actual_time=31560
type=note_on channel=9 note=59 velocity=80 time=0 actual_time=31560
type=note_on channel=9 note=59 velocity=0 time=96 actual_time=31656
type=note_on channel=9 note=53 velocity=0 time=0 actual_time=31656
type=note_on channel=9 note=40 velocity=0 time=0 actual_time=31656
type=note_on channel=9 note=53 velocity=80 time=24 actual_time=31680
type=note_on channel=9 note=49 velocity=80 time=0 actual_time=31680
type=note_on channel=9 note=35 velocity=80 time=0 actual_time=31680
type=note_on channel=9 note=59 velocity=80 time=0 actual_time=31680
type=note_on channel=9 note=59 velocity=0 time=96 actual_time=31776
type=note_on channel=9 note=53 velocity=0 time=0 actual_time=31776
type=note_on channel=9 note=49 velocity=0 time=0 actual_time=31776
type=note_on channel=9 note=35 velocity=0 time=0 actual_time=31776
type=note_on channel=9 note=53 velocity=80 time=24 actual_time=31800
type=note_on channel=9 note=40 velocity=80 time=0 actual_time=31800
type=note_on channel=9 note=59 velocity=80 time=0 actual_time=31800
type=note_on channel=9 note=59 velocity=0 time=96 actual_time=31896
type=note_on channel=9 note=40 velocity=0 time=0 actual_time=31896
type=note_on channel=9 note=53 velocity=0 time=0 actual_time=31896
type=note_on channel=9 note=53 velocity=80 time=24 actual_time=31920
type=note_on channel=9 note=59 velocity=80 time=0 actual_time=31920
type=note_on channel=9 note=59 velocity=0 time=64 actual_time=31984
type=note_on channel=9 note=53 velocity=0 time=0 actual_time=31984
type=note_on channel=9 note=35 velocity=80 time=16 actual_time=32000
type=note_on channel=9 note=35 velocity=0 time=32 actual_time=32032
type=note_on channel=9 note=40 velocity=80 time=8 actual_time=32040
type=note_on channel=9 note=53 velocity=80 time=0 actual_time=32040
type=note_on channel=9 note=59 velocity=80 time=0 actual_time=32040
type=note_on channel=9 note=59 velocity=0 time=96 actual_time=32136
type=note_on channel=9 note=53 velocity=0 time=0 actual_time=32136
type=note_on channel=9 note=40 velocity=0 time=0 actual_time=32136
type=note_on channel=9 note=35 velocity=80 time=24 actual_time=32160
type=note_on channel=9 note=53 velocity=80 time=0 actual_time=32160
type=note_on channel=9 note=59 velocity=80 time=0 actual_time=32160
type=note_on channel=9 note=59 velocity=0 time=64 actual_time=32224
type=note_on channel=9 note=53 velocity=0 time=0 actual_time=32224
type=note_on channel=9 note=35 velocity=0 time=0 actual_time=32224
type=note_on channel=9 note=35 velocity=80 time=16 actual_time=32240
type=note_on channel=9 note=35 velocity=0 time=32 actual_time=32272
type=note_on channel=9 note=49 velocity=80 time=8 actual_time=32280
type=note_on channel=9 note=40 velocity=80 time=0 actual_time=32280
type=note_on channel=9 note=53 velocity=80 time=0 actual_time=32280
type=note_on channel=9 note=59 velocity=80 time=0 actual_time=32280
type=note_on channel=9 note=59 velocity=0 time=96 actual_time=32376
type=note_on channel=9 note=49 velocity=0 time=0 actual_time=32376
type=note_on channel=9 note=40 velocity=0 time=0 actual_time=32376
type=note_on channel=9 note=53 velocity=0 time=0 actual_time=32376
type=note_on channel=9 note=35 velocity=80 time=24 actual_time=32400
type=note_on channel=9 note=53 velocity=80 time=0 actual_time=32400
type=note_on channel=9 note=59 velocity=80 time=0 actual_time=32400
type=note_on channel=9 note=59 velocity=0 time=64 actual_time=32464
type=note_on channel=9 note=53 velocity=0 time=0 actual_time=32464
type=note_on channel=9 note=35 velocity=0 time=0 actual_time=32464
type=note_on channel=9 note=35 velocity=80 time=16 actual_time=32480
type=note_on channel=9 note=35 velocity=0 time=32 actual_time=32512
type=note_on channel=9 note=49 velocity=80 time=8 actual_time=32520
type=note_on channel=9 note=40 velocity=80 time=0 actual_time=32520
type=note_on channel=9 note=53 velocity=80 time=0 actual_time=32520
type=note_on channel=9 note=59 velocity=80 time=0 actual_time=32520
type=note_on channel=9 note=59 velocity=0 time=96 actual_time=32616
type=note_on channel=9 note=49 velocity=0 time=0 actual_time=32616
type=note_on channel=9 note=40 velocity=0 time=0 actual_time=32616
type=note_on channel=9 note=53 velocity=0 time=0 actual_time=32616
type=note_on channel=9 note=53 velocity=80 time=24 actual_time=32640
type=note_on channel=9 note=49 velocity=80 time=0 actual_time=32640
type=note_on channel=9 note=35 velocity=80 time=0 actual_time=32640
type=note_on channel=9 note=59 velocity=80 time=0 actual_time=32640
type=note_on channel=9 note=59 velocity=0 time=96 actual_time=32736
type=note_on channel=9 note=53 velocity=0 time=0 actual_time=32736
type=note_on channel=9 note=49 velocity=0 time=0 actual_time=32736
type=note_on channel=9 note=35 velocity=0 time=0 actual_time=32736
type=note_on channel=9 note=53 velocity=80 time=24 actual_time=32760
type=note_on channel=9 note=40 velocity=80 time=0 actual_time=32760
type=note_on channel=9 note=59 velocity=80 time=0 actual_time=32760
type=note_on channel=9 note=59 velocity=0 time=96 actual_time=32856
type=note_on channel=9 note=40 velocity=0 time=0 actual_time=32856
type=note_on channel=9 note=53 velocity=0 time=0 actual_time=32856
type=note_on channel=9 note=53 velocity=80 time=24 actual_time=32880
type=note_on channel=9 note=59 velocity=80 time=0 actual_time=32880
type=note_on channel=9 note=59 velocity=0 time=64 actual_time=32944
type=note_on channel=9 note=53 velocity=0 time=0 actual_time=32944
type=note_on channel=9 note=35 velocity=80 time=16 actual_time=32960
type=note_on channel=9 note=35 velocity=0 time=32 actual_time=32992
type=note_on channel=9 note=40 velocity=80 time=8 actual_time=33000
type=note_on channel=9 note=53 velocity=80 time=0 actual_time=33000
type=note_on channel=9 note=59 velocity=80 time=0 actual_time=33000
type=note_on channel=9 note=59 velocity=0 time=96 actual_time=33096
type=note_on channel=9 note=53 velocity=0 time=0 actual_time=33096
type=note_on channel=9 note=40 velocity=0 time=0 actual_time=33096
type=note_on channel=9 note=53 velocity=80 time=24 actual_time=33120
type=note_on channel=9 note=59 velocity=80 time=0 actual_time=33120
type=note_on channel=9 note=35 velocity=80 time=0 actual_time=33120
type=note_on channel=9 note=35 velocity=0 time=96 actual_time=33216
type=note_on channel=9 note=59 velocity=0 time=0 actual_time=33216
type=note_on channel=9 note=53 velocity=0 time=0 actual_time=33216
type=note_on channel=9 note=59 velocity=80 time=24 actual_time=33240
type=note_on channel=9 note=40 velocity=80 time=0 actual_time=33240
type=note_on channel=9 note=53 velocity=80 time=0 actual_time=33240
type=note_on channel=9 note=53 velocity=0 time=96 actual_time=33336
type=note_on channel=9 note=40 velocity=0 time=0 actual_time=33336
type=note_on channel=9 note=59 velocity=0 time=0 actual_time=33336
type=note_on channel=9 note=59 velocity=80 time=24 actual_time=33360
type=note_on channel=9 note=53 velocity=80 time=0 actual_time=33360
type=note_on channel=9 note=53 velocity=0 time=64 actual_time=33424
type=note_on channel=9 note=59 velocity=0 time=0 actual_time=33424
type=note_on channel=9 note=35 velocity=80 time=16 actual_time=33440
type=note_on channel=9 note=35 velocity=0 time=32 actual_time=33472
type=note_on channel=9 note=59 velocity=80 time=8 actual_time=33480
type=note_on channel=9 note=53 velocity=80 time=0 actual_time=33480
type=note_on channel=9 note=40 velocity=80 time=0 actual_time=33480
type=note_on channel=9 note=40 velocity=0 time=96 actual_time=33576
type=note_on channel=9 note=53 velocity=0 time=0 actual_time=33576
type=note_on channel=9 note=59 velocity=0 time=0 actual_time=33576
type=note_on channel=9 note=53 velocity=80 time=24 actual_time=33600
type=note_on channel=9 note=49 velocity=80 time=0 actual_time=33600
type=note_on channel=9 note=35 velocity=80 time=0 actual_time=33600
type=note_on channel=9 note=59 velocity=80 time=0 actual_time=33600
type=note_on channel=9 note=59 velocity=0 time=96 actual_time=33696
type=note_on channel=9 note=53 velocity=0 time=0 actual_time=33696
type=note_on channel=9 note=49 velocity=0 time=0 actual_time=33696
type=note_on channel=9 note=35 velocity=0 time=0 actual_time=33696
type=note_on channel=9 note=53 velocity=80 time=24 actual_time=33720
type=note_on channel=9 note=40 velocity=80 time=0 actual_time=33720
type=note_on channel=9 note=59 velocity=80 time=0 actual_time=33720
type=note_on channel=9 note=59 velocity=0 time=96 actual_time=33816
type=note_on channel=9 note=40 velocity=0 time=0 actual_time=33816
type=note_on channel=9 note=53 velocity=0 time=0 actual_time=33816
type=note_on channel=9 note=53 velocity=80 time=24 actual_time=33840
type=note_on channel=9 note=59 velocity=80 time=0 actual_time=33840
type=note_on channel=9 note=59 velocity=0 time=64 actual_time=33904
type=note_on channel=9 note=53 velocity=0 time=0 actual_time=33904
type=note_on channel=9 note=35 velocity=80 time=16 actual_time=33920
type=note_on channel=9 note=35 velocity=0 time=32 actual_time=33952
type=note_on channel=9 note=53 velocity=80 time=8 actual_time=33960
type=note_on channel=9 note=59 velocity=80 time=0 actual_time=33960
type=note_on channel=9 note=40 velocity=80 time=0 actual_time=33960
type=note_on channel=9 note=40 velocity=0 time=96 actual_time=34056
type=note_on channel=9 note=59 velocity=0 time=0 actual_time=34056
type=note_on channel=9 note=53 velocity=0 time=0 actual_time=34056
type=note_on channel=9 note=59 velocity=80 time=24 actual_time=34080
type=note_on channel=9 note=35 velocity=80 time=0 actual_time=34080
type=note_on channel=9 note=53 velocity=80 time=0 actual_time=34080
type=note_on channel=9 note=53 velocity=0 time=96 actual_time=34176
type=note_on channel=9 note=35 velocity=0 time=0 actual_time=34176
type=note_on channel=9 note=59 velocity=0 time=0 actual_time=34176
type=note_on channel=9 note=40 velocity=80 time=24 actual_time=34200
type=note_on channel=9 note=59 velocity=80 time=0 actual_time=34200
type=note_on channel=9 note=53 velocity=80 time=0 actual_time=34200
type=note_on channel=9 note=53 velocity=0 time=96 actual_time=34296
type=note_on channel=9 note=59 velocity=0 time=0 actual_time=34296
type=note_on channel=9 note=40 velocity=0 time=0 actual_time=34296
type=note_on channel=9 note=40 velocity=80 time=24 actual_time=34320
type=note_on channel=9 note=40 velocity=0 time=32 actual_time=34352
type=note_on channel=9 note=40 velocity=80 time=8 actual_time=34360
type=note_on channel=9 note=40 velocity=0 time=32 actual_time=34392
type=note_on channel=9 note=40 velocity=80 time=8 actual_time=34400
type=note_on channel=9 note=40 velocity=0 time=32 actual_time=34432
type=note_on channel=9 note=47 velocity=80 time=8 actual_time=34440
type=note_on channel=9 note=47 velocity=0 time=32 actual_time=34472
type=note_on channel=9 note=45 velocity=80 time=8 actual_time=34480
type=note_on channel=9 note=45 velocity=0 time=32 actual_time=34512
type=note_on channel=9 note=43 velocity=80 time=8 actual_time=34520
type=note_on channel=9 note=43 velocity=0 time=32 actual_time=34552
type=note_on channel=9 note=49 velocity=80 time=8 actual_time=34560
type=note_on channel=9 note=35 velocity=80 time=0 actual_time=34560
type=note_on channel=9 note=53 velocity=80 time=0 actual_time=34560
type=note_on channel=9 note=53 velocity=0 time=96 actual_time=34656
type=note_on channel=9 note=35 velocity=0 time=0 actual_time=34656
type=note_on channel=9 note=49 velocity=0 time=0 actual_time=34656
type=note_on channel=9 note=40 velocity=80 time=24 actual_time=34680
type=note_on channel=9 note=53 velocity=80 time=0 actual_time=34680
type=note_on channel=9 note=53 velocity=0 time=96 actual_time=34776
type=note_on channel=9 note=40 velocity=0 time=0 actual_time=34776
type=note_on channel=9 note=53 velocity=80 time=24 actual_time=34800
type=note_on channel=9 note=53 velocity=0 time=64 actual_time=34864
type=note_on channel=9 note=35 velocity=80 time=16 actual_time=34880
type=note_on channel=9 note=35 velocity=0 time=32 actual_time=34912
type=note_on channel=9 note=53 velocity=80 time=8 actual_time=34920
type=note_on channel=9 note=40 velocity=80 time=0 actual_time=34920
type=note_on channel=9 note=40 velocity=0 time=96 actual_time=35016
type=note_on channel=9 note=53 velocity=0 time=0 actual_time=35016
type=note_on channel=9 note=53 velocity=80 time=24 actual_time=35040
type=note_on channel=9 note=35 velocity=80 time=0 actual_time=35040
type=note_on channel=9 note=35 velocity=0 time=96 actual_time=35136
type=note_on channel=9 note=53 velocity=0 time=0 actual_time=35136
type=note_on channel=9 note=53 velocity=80 time=24 actual_time=35160
type=note_on channel=9 note=40 velocity=80 time=0 actual_time=35160
type=note_on channel=9 note=40 velocity=0 time=96 actual_time=35256
type=note_on channel=9 note=53 velocity=0 time=0 actual_time=35256
type=note_on channel=9 note=53 velocity=80 time=24 actual_time=35280
type=note_on channel=9 note=53 velocity=0 time=64 actual_time=35344
type=note_on channel=9 note=35 velocity=80 time=16 actual_time=35360
type=note_on channel=9 note=35 velocity=0 time=32 actual_time=35392
type=note_on channel=9 note=40 velocity=80 time=8 actual_time=35400
type=note_on channel=9 note=53 velocity=80 time=0 actual_time=35400
type=note_on channel=9 note=53 velocity=0 time=96 actual_time=35496
type=note_on channel=9 note=40 velocity=0 time=0 actual_time=35496
type=note_on channel=9 note=53 velocity=80 time=24 actual_time=35520
type=note_on channel=9 note=35 velocity=80 time=0 actual_time=35520
type=note_on channel=9 note=35 velocity=0 time=96 actual_time=35616
type=note_on channel=9 note=53 velocity=0 time=0 actual_time=35616
type=note_on channel=9 note=53 velocity=80 time=24 actual_time=35640
type=note_on channel=9 note=40 velocity=80 time=0 actual_time=35640
type=note_on channel=9 note=40 velocity=0 time=96 actual_time=35736
type=note_on channel=9 note=53 velocity=0 time=0 actual_time=35736
type=note_on channel=9 note=53 velocity=80 time=24 actual_time=35760
type=note_on channel=9 note=53 velocity=0 time=64 actual_time=35824
type=note_on channel=9 note=35 velocity=80 time=16 actual_time=35840
type=note_on channel=9 note=35 velocity=0 time=32 actual_time=35872
type=note_on channel=9 note=40 velocity=80 time=8 actual_time=35880
type=note_on channel=9 note=53 velocity=80 time=0 actual_time=35880
type=note_on channel=9 note=53 velocity=0 time=96 actual_time=35976
type=note_on channel=9 note=40 velocity=0 time=0 actual_time=35976
type=note_on channel=9 note=35 velocity=80 time=24 actual_time=36000
type=note_on channel=9 note=53 velocity=80 time=0 actual_time=36000
type=note_on channel=9 note=53 velocity=0 time=96 actual_time=36096
type=note_on channel=9 note=35 velocity=0 time=0 actual_time=36096
type=note_on channel=9 note=40 velocity=80 time=24 actual_time=36120
type=note_on channel=9 note=53 velocity=80 time=0 actual_time=36120
type=note_on channel=9 note=53 velocity=0 time=96 actual_time=36216
type=note_on channel=9 note=40 velocity=0 time=0 actual_time=36216
type=note_on channel=9 note=53 velocity=80 time=24 actual_time=36240
type=note_on channel=9 note=53 velocity=0 time=64 actual_time=36304
type=note_on channel=9 note=35 velocity=80 time=16 actual_time=36320
type=note_on channel=9 note=35 velocity=0 time=32 actual_time=36352
type=note_on channel=9 note=53 velocity=80 time=8 actual_time=36360
type=note_on channel=9 note=40 velocity=80 time=0 actual_time=36360
type=note_on channel=9 note=40 velocity=0 time=96 actual_time=36456
type=note_on channel=9 note=53 velocity=0 time=0 actual_time=36456
type=note_on channel=9 note=35 velocity=80 time=24 actual_time=36480
type=note_on channel=9 note=53 velocity=80 time=0 actual_time=36480
type=note_on channel=9 note=53 velocity=0 time=96 actual_time=36576
type=note_on channel=9 note=35 velocity=0 time=0 actual_time=36576
type=note_on channel=9 note=40 velocity=80 time=24 actual_time=36600
type=note_on channel=9 note=53 velocity=80 time=0 actual_time=36600
type=note_on channel=9 note=53 velocity=0 time=96 actual_time=36696
type=note_on channel=9 note=40 velocity=0 time=0 actual_time=36696
type=note_on channel=9 note=53 velocity=80 time=24 actual_time=36720
type=note_on channel=9 note=53 velocity=0 time=64 actual_time=36784
type=note_on channel=9 note=35 velocity=80 time=16 actual_time=36800
type=note_on channel=9 note=35 velocity=0 time=32 actual_time=36832
type=note_on channel=9 note=53 velocity=80 time=8 actual_time=36840
type=note_on channel=9 note=40 velocity=80 time=0 actual_time=36840
type=note_on channel=9 note=40 velocity=0 time=96 actual_time=36936
type=note_on channel=9 note=53 velocity=0 time=0 actual_time=36936
type=note_on channel=9 note=53 velocity=80 time=24 actual_time=36960
type=note_on channel=9 note=35 velocity=80 time=0 actual_time=36960
type=note_on channel=9 note=35 velocity=0 time=96 actual_time=37056
type=note_on channel=9 note=53 velocity=0 time=0 actual_time=37056
type=note_on channel=9 note=53 velocity=80 time=24 actual_time=37080
type=note_on channel=9 note=40 velocity=80 time=0 actual_time=37080
type=note_on channel=9 note=40 velocity=0 time=96 actual_time=37176
type=note_on channel=9 note=53 velocity=0 time=0 actual_time=37176
type=note_on channel=9 note=53 velocity=80 time=24 actual_time=37200
type=note_on channel=9 note=53 velocity=0 time=64 actual_time=37264
type=note_on channel=9 note=35 velocity=80 time=16 actual_time=37280
type=note_on channel=9 note=35 velocity=0 time=32 actual_time=37312
type=note_on channel=9 note=40 velocity=80 time=8 actual_time=37320
type=note_on channel=9 note=53 velocity=80 time=0 actual_time=37320
type=note_on channel=9 note=53 velocity=0 time=96 actual_time=37416
type=note_on channel=9 note=40 velocity=0 time=0 actual_time=37416
type=note_on channel=9 note=53 velocity=80 time=24 actual_time=37440
type=note_on channel=9 note=35 velocity=80 time=0 actual_time=37440
type=note_on channel=9 note=35 velocity=0 time=96 actual_time=37536
type=note_on channel=9 note=53 velocity=0 time=0 actual_time=37536
type=note_on channel=9 note=53 velocity=80 time=24 actual_time=37560
type=note_on channel=9 note=40 velocity=80 time=0 actual_time=37560
type=note_on channel=9 note=40 velocity=0 time=96 actual_time=37656
type=note_on channel=9 note=53 velocity=0 time=0 actual_time=37656
type=note_on channel=9 note=53 velocity=80 time=24 actual_time=37680
type=note_on channel=9 note=53 velocity=0 time=64 actual_time=37744
type=note_on channel=9 note=35 velocity=80 time=16 actual_time=37760
type=note_on channel=9 note=35 velocity=0 time=32 actual_time=37792
type=note_on channel=9 note=40 velocity=80 time=8 actual_time=37800
type=note_on channel=9 note=53 velocity=80 time=0 actual_time=37800
type=note_on channel=9 note=53 velocity=0 time=96 actual_time=37896
type=note_on channel=9 note=40 velocity=0 time=0 actual_time=37896
type=note_on channel=9 note=53 velocity=80 time=24 actual_time=37920
type=note_on channel=9 note=35 velocity=80 time=0 actual_time=37920
type=note_on channel=9 note=35 velocity=0 time=96 actual_time=38016
type=note_on channel=9 note=53 velocity=0 time=0 actual_time=38016
type=note_on channel=9 note=53 velocity=80 time=24 actual_time=38040
type=note_on channel=9 note=40 velocity=80 time=0 actual_time=38040
type=note_on channel=9 note=40 velocity=0 time=96 actual_time=38136
type=note_on channel=9 note=53 velocity=0 time=0 actual_time=38136
type=note_on channel=9 note=40 velocity=80 time=24 actual_time=38160
type=note_on channel=9 note=47 velocity=80 time=0 actual_time=38160
type=note_on channel=9 note=47 velocity=0 time=32 actual_time=38192
type=note_on channel=9 note=40 velocity=0 time=0 actual_time=38192
type=note_on channel=9 note=45 velocity=80 time=8 actual_time=38200
type=note_on channel=9 note=45 velocity=0 time=32 actual_time=38232
type=note_on channel=9 note=43 velocity=80 time=8 actual_time=38240
type=note_on channel=9 note=43 velocity=0 time=32 actual_time=38272
type=note_on channel=9 note=41 velocity=80 time=8 actual_time=38280
type=note_on channel=9 note=49 velocity=80 time=120 actual_time=38400
type=note_on channel=9 note=35 velocity=80 time=0 actual_time=38400
type=note_on channel=9 note=53 velocity=80 time=0 actual_time=38400
type=note_on channel=9 note=41 velocity=0 time=72 actual_time=38472
type=note_on channel=9 note=49 velocity=0 time=24 actual_time=38496
type=note_on channel=9 note=35 velocity=0 time=0 actual_time=38496
type=note_on channel=9 note=53 velocity=0 time=0 actual_time=38496
type=note_on channel=9 note=40 velocity=80 time=24 actual_time=38520
type=note_on channel=9 note=53 velocity=80 time=0 actual_time=38520
type=note_on channel=9 note=53 velocity=0 time=96 actual_time=38616
type=note_on channel=9 note=40 velocity=0 time=0 actual_time=38616
type=note_on channel=9 note=53 velocity=80 time=24 actual_time=38640
type=note_on channel=9 note=53 velocity=0 time=64 actual_time=38704
type=note_on channel=9 note=35 velocity=80 time=16 actual_time=38720
type=note_on channel=9 note=35 velocity=0 time=32 actual_time=38752
type=note_on channel=9 note=53 velocity=80 time=8 actual_time=38760
type=note_on channel=9 note=40 velocity=80 time=0 actual_time=38760
type=note_on channel=9 note=40 velocity=0 time=96 actual_time=38856
type=note_on channel=9 note=53 velocity=0 time=0 actual_time=38856
type=note_on channel=9 note=53 velocity=80 time=24 actual_time=38880
type=note_on channel=9 note=35 velocity=80 time=0 actual_time=38880
type=note_on channel=9 note=35 velocity=0 time=96 actual_time=38976
type=note_on channel=9 note=53 velocity=0 time=0 actual_time=38976
type=note_on channel=9 note=53 velocity=80 time=24 actual_time=39000
type=note_on channel=9 note=40 velocity=80 time=0 actual_time=39000
type=note_on channel=9 note=40 velocity=0 time=96 actual_time=39096
type=note_on channel=9 note=53 velocity=0 time=0 actual_time=39096
type=note_on channel=9 note=53 velocity=80 time=24 actual_time=39120
type=note_on channel=9 note=53 velocity=0 time=64 actual_time=39184
type=note_on channel=9 note=35 velocity=80 time=16 actual_time=39200
type=note_on channel=9 note=35 velocity=0 time=32 actual_time=39232
type=note_on channel=9 note=40 velocity=80 time=8 actual_time=39240
type=note_on channel=9 note=53 velocity=80 time=0 actual_time=39240
type=note_on channel=9 note=53 velocity=0 time=96 actual_time=39336
type=note_on channel=9 note=40 velocity=0 time=0 actual_time=39336
type=note_on channel=9 note=53 velocity=80 time=24 actual_time=39360
type=note_on channel=9 note=35 velocity=80 time=0 actual_time=39360
type=note_on channel=9 note=35 velocity=0 time=96 actual_time=39456
type=note_on channel=9 note=53 velocity=0 time=0 actual_time=39456
type=note_on channel=9 note=53 velocity=80 time=24 actual_time=39480
type=note_on channel=9 note=40 velocity=80 time=0 actual_time=39480
type=note_on channel=9 note=40 velocity=0 time=96 actual_time=39576
type=note_on channel=9 note=53 velocity=0 time=0 actual_time=39576
type=note_on channel=9 note=53 velocity=80 time=24 actual_time=39600
type=note_on channel=9 note=53 velocity=0 time=64 actual_time=39664
type=note_on channel=9 note=35 velocity=80 time=16 actual_time=39680
type=note_on channel=9 note=35 velocity=0 time=32 actual_time=39712
type=note_on channel=9 note=40 velocity=80 time=8 actual_time=39720
type=note_on channel=9 note=53 velocity=80 time=0 actual_time=39720
type=note_on channel=9 note=53 velocity=0 time=96 actual_time=39816
type=note_on channel=9 note=40 velocity=0 time=0 actual_time=39816
type=note_on channel=9 note=35 velocity=80 time=24 actual_time=39840
type=note_on channel=9 note=53 velocity=80 time=0 actual_time=39840
type=note_on channel=9 note=53 velocity=0 time=96 actual_time=39936
type=note_on channel=9 note=35 velocity=0 time=0 actual_time=39936
type=note_on channel=9 note=40 velocity=80 time=24 actual_time=39960
type=note_on channel=9 note=53 velocity=80 time=0 actual_time=39960
type=note_on channel=9 note=53 velocity=0 time=96 actual_time=40056
type=note_on channel=9 note=40 velocity=0 time=0 actual_time=40056
type=note_on channel=9 note=53 velocity=80 time=24 actual_time=40080
type=note_on channel=9 note=53 velocity=0 time=64 actual_time=40144
type=note_on channel=9 note=35 velocity=80 time=16 actual_time=40160
type=note_on channel=9 note=35 velocity=0 time=32 actual_time=40192
type=note_on channel=9 note=53 velocity=80 time=8 actual_time=40200
type=note_on channel=9 note=40 velocity=80 time=0 actual_time=40200
type=note_on channel=9 note=40 velocity=0 time=96 actual_time=40296
type=note_on channel=9 note=53 velocity=0 time=0 actual_time=40296
type=note_on channel=9 note=53 velocity=80 time=24 actual_time=40320
type=note_on channel=9 note=35 velocity=80 time=0 actual_time=40320
type=note_on channel=9 note=49 velocity=80 time=0 actual_time=40320
type=note_on channel=9 note=49 velocity=0 time=96 actual_time=40416
type=note_on channel=9 note=35 velocity=0 time=0 actual_time=40416
type=note_on channel=9 note=53 velocity=0 time=0 actual_time=40416
type=note_on channel=9 note=53 velocity=80 time=24 actual_time=40440
type=note_on channel=9 note=40 velocity=80 time=0 actual_time=40440
type=note_on channel=9 note=40 velocity=0 time=96 actual_time=40536
type=note_on channel=9 note=53 velocity=0 time=0 actual_time=40536
type=note_on channel=9 note=53 velocity=80 time=24 actual_time=40560
type=note_on channel=9 note=53 velocity=0 time=64 actual_time=40624
type=note_on channel=9 note=35 velocity=80 time=16 actual_time=40640
type=note_on channel=9 note=35 velocity=0 time=32 actual_time=40672
type=note_on channel=9 note=53 velocity=80 time=8 actual_time=40680
type=note_on channel=9 note=40 velocity=80 time=0 actual_time=40680
type=note_on channel=9 note=40 velocity=0 time=96 actual_time=40776
type=note_on channel=9 note=53 velocity=0 time=0 actual_time=40776
type=note_on channel=9 note=53 velocity=80 time=24 actual_time=40800
type=note_on channel=9 note=35 velocity=80 time=0 actual_time=40800
type=note_on channel=9 note=35 velocity=0 time=96 actual_time=40896
type=note_on channel=9 note=53 velocity=0 time=0 actual_time=40896
type=note_on channel=9 note=40 velocity=80 time=24 actual_time=40920
type=note_on channel=9 note=53 velocity=80 time=0 actual_time=40920
type=note_on channel=9 note=53 velocity=0 time=96 actual_time=41016
type=note_on channel=9 note=40 velocity=0 time=0 actual_time=41016
type=note_on channel=9 note=53 velocity=80 time=24 actual_time=41040
type=note_on channel=9 note=53 velocity=0 time=64 actual_time=41104
type=note_on channel=9 note=35 velocity=80 time=16 actual_time=41120
type=note_on channel=9 note=35 velocity=0 time=32 actual_time=41152
type=note_on channel=9 note=53 velocity=80 time=8 actual_time=41160
type=note_on channel=9 note=40 velocity=80 time=0 actual_time=41160
type=note_on channel=9 note=40 velocity=0 time=96 actual_time=41256
type=note_on channel=9 note=53 velocity=0 time=0 actual_time=41256
type=note_on channel=9 note=35 velocity=80 time=24 actual_time=41280
type=note_on channel=9 note=53 velocity=80 time=0 actual_time=41280
type=note_on channel=9 note=53 velocity=0 time=96 actual_time=41376
type=note_on channel=9 note=35 velocity=0 time=0 actual_time=41376
type=note_on channel=9 note=40 velocity=80 time=24 actual_time=41400
type=note_on channel=9 note=53 velocity=80 time=0 actual_time=41400
type=note_on channel=9 note=53 velocity=0 time=96 actual_time=41496
type=note_on channel=9 note=40 velocity=0 time=0 actual_time=41496
type=note_on channel=9 note=53 velocity=80 time=24 actual_time=41520
type=note_on channel=9 note=53 velocity=0 time=64 actual_time=41584
type=note_on channel=9 note=35 velocity=80 time=16 actual_time=41600
type=note_on channel=9 note=35 velocity=0 time=32 actual_time=41632
type=note_on channel=9 note=53 velocity=80 time=8 actual_time=41640
type=note_on channel=9 note=40 velocity=80 time=0 actual_time=41640
type=note_on channel=9 note=40 velocity=0 time=96 actual_time=41736
type=note_on channel=9 note=53 velocity=0 time=0 actual_time=41736
type=note_on channel=9 note=53 velocity=80 time=24 actual_time=41760
type=note_on channel=9 note=35 velocity=80 time=0 actual_time=41760
type=note_on channel=9 note=35 velocity=0 time=96 actual_time=41856
type=note_on channel=9 note=53 velocity=0 time=0 actual_time=41856
type=note_on channel=9 note=53 velocity=80 time=24 actual_time=41880
type=note_on channel=9 note=40 velocity=80 time=0 actual_time=41880
type=note_on channel=9 note=40 velocity=0 time=96 actual_time=41976
type=note_on channel=9 note=53 velocity=0 time=0 actual_time=41976
type=note_on channel=9 note=53 velocity=80 time=24 actual_time=42000
type=note_on channel=9 note=53 velocity=0 time=64 actual_time=42064
type=note_on channel=9 note=35 velocity=80 time=16 actual_time=42080
type=note_on channel=9 note=35 velocity=0 time=32 actual_time=42112
type=note_on channel=9 note=40 velocity=80 time=8 actual_time=42120
type=note_on channel=9 note=53 velocity=80 time=0 actual_time=42120
type=note_on channel=9 note=53 velocity=0 time=96 actual_time=42216
type=note_on channel=9 note=40 velocity=0 time=0 actual_time=42216
type=note_on channel=9 note=53 velocity=80 time=24 actual_time=42240
type=note_on channel=9 note=35 velocity=80 time=0 actual_time=42240
type=note_on channel=9 note=49 velocity=80 time=0 actual_time=42240
type=note_on channel=9 note=49 velocity=0 time=96 actual_time=42336
type=note_on channel=9 note=35 velocity=0 time=0 actual_time=42336
type=note_on channel=9 note=53 velocity=0 time=0 actual_time=42336
type=note_on channel=9 note=53 velocity=80 time=24 actual_time=42360
type=note_on channel=9 note=40 velocity=80 time=0 actual_time=42360
type=note_on channel=9 note=40 velocity=0 time=96 actual_time=42456
type=note_on channel=9 note=53 velocity=0 time=0 actual_time=42456
type=note_on channel=9 note=53 velocity=80 time=24 actual_time=42480
type=note_on channel=9 note=53 velocity=0 time=64 actual_time=42544
type=note_on channel=9 note=35 velocity=80 time=16 actual_time=42560
type=note_on channel=9 note=35 velocity=0 time=32 actual_time=42592
type=note_on channel=9 note=40 velocity=80 time=8 actual_time=42600
type=note_on channel=9 note=53 velocity=80 time=0 actual_time=42600
type=note_on channel=9 note=53 velocity=0 time=96 actual_time=42696
type=note_on channel=9 note=40 velocity=0 time=0 actual_time=42696
type=note_on channel=9 note=35 velocity=80 time=24 actual_time=42720
type=note_on channel=9 note=53 velocity=80 time=0 actual_time=42720
type=note_on channel=9 note=53 velocity=0 time=96 actual_time=42816
type=note_on channel=9 note=35 velocity=0 time=0 actual_time=42816
type=note_on channel=9 note=40 velocity=80 time=24 actual_time=42840
type=note_on channel=9 note=53 velocity=80 time=0 actual_time=42840
type=note_on channel=9 note=53 velocity=0 time=96 actual_time=42936
type=note_on channel=9 note=40 velocity=0 time=0 actual_time=42936
type=note_on channel=9 note=53 velocity=80 time=24 actual_time=42960
type=note_on channel=9 note=53 velocity=0 time=64 actual_time=43024
type=note_on channel=9 note=35 velocity=80 time=16 actual_time=43040
type=note_on channel=9 note=35 velocity=0 time=32 actual_time=43072
type=note_on channel=9 note=53 velocity=80 time=8 actual_time=43080
type=note_on channel=9 note=40 velocity=80 time=0 actual_time=43080
type=note_on channel=9 note=40 velocity=0 time=96 actual_time=43176
type=note_on channel=9 note=53 velocity=0 time=0 actual_time=43176
type=note_on channel=9 note=35 velocity=80 time=24 actual_time=43200
type=note_on channel=9 note=53 velocity=80 time=0 actual_time=43200
type=note_on channel=9 note=53 velocity=0 time=96 actual_time=43296
type=note_on channel=9 note=35 velocity=0 time=0 actual_time=43296
type=note_on channel=9 note=40 velocity=80 time=24 actual_time=43320
type=note_on channel=9 note=53 velocity=80 time=0 actual_time=43320
type=note_on channel=9 note=53 velocity=0 time=96 actual_time=43416
type=note_on channel=9 note=40 velocity=0 time=0 actual_time=43416
type=note_on channel=9 note=53 velocity=80 time=24 actual_time=43440
type=note_on channel=9 note=53 velocity=0 time=64 actual_time=43504
type=note_on channel=9 note=35 velocity=80 time=16 actual_time=43520
type=note_on channel=9 note=35 velocity=0 time=32 actual_time=43552
type=note_on channel=9 note=53 velocity=80 time=8 actual_time=43560
type=note_on channel=9 note=40 velocity=80 time=0 actual_time=43560
type=note_on channel=9 note=40 velocity=0 time=96 actual_time=43656
type=note_on channel=9 note=53 velocity=0 time=0 actual_time=43656
type=note_on channel=9 note=53 velocity=80 time=24 actual_time=43680
type=note_on channel=9 note=35 velocity=80 time=0 actual_time=43680
type=note_on channel=9 note=35 velocity=0 time=96 actual_time=43776
type=note_on channel=9 note=53 velocity=0 time=0 actual_time=43776
type=note_on channel=9 note=40 velocity=80 time=24 actual_time=43800
type=note_on channel=9 note=53 velocity=80 time=0 actual_time=43800
type=note_on channel=9 note=53 velocity=0 time=96 actual_time=43896
type=note_on channel=9 note=40 velocity=0 time=0 actual_time=43896
type=note_on channel=9 note=53 velocity=80 time=24 actual_time=43920
type=note_on channel=9 note=53 velocity=0 time=64 actual_time=43984
type=note_on channel=9 note=35 velocity=80 time=16 actual_time=44000
type=note_on channel=9 note=35 velocity=0 time=32 actual_time=44032
type=note_on channel=9 note=40 velocity=80 time=8 actual_time=44040
type=note_on channel=9 note=53 velocity=80 time=0 actual_time=44040
type=note_on channel=9 note=53 velocity=0 time=96 actual_time=44136
type=note_on channel=9 note=40 velocity=0 time=0 actual_time=44136
type=note_on channel=9 note=49 velocity=80 time=24 actual_time=44160
type=note_on channel=9 note=35 velocity=80 time=0 actual_time=44160
type=note_on channel=9 note=53 velocity=80 time=0 actual_time=44160
type=note_on channel=9 note=53 velocity=0 time=96 actual_time=44256
type=note_on channel=9 note=35 velocity=0 time=0 actual_time=44256
type=note_on channel=9 note=49 velocity=0 time=0 actual_time=44256
type=note_on channel=9 note=40 velocity=80 time=24 actual_time=44280
type=note_on channel=9 note=53 velocity=80 time=0 actual_time=44280
type=note_on channel=9 note=53 velocity=0 time=96 actual_time=44376
type=note_on channel=9 note=40 velocity=0 time=0 actual_time=44376
type=note_on channel=9 note=53 velocity=80 time=24 actual_time=44400
type=note_on channel=9 note=53 velocity=0 time=64 actual_time=44464
type=note_on channel=9 note=35 velocity=80 time=16 actual_time=44480
type=note_on channel=9 note=35 velocity=0 time=32 actual_time=44512
type=note_on channel=9 note=53 velocity=80 time=8 actual_time=44520
type=note_on channel=9 note=40 velocity=80 time=0 actual_time=44520
type=note_on channel=9 note=40 velocity=0 time=96 actual_time=44616
type=note_on channel=9 note=53 velocity=0 time=0 actual_time=44616
type=note_on channel=9 note=35 velocity=80 time=24 actual_time=44640
type=note_on channel=9 note=53 velocity=80 time=0 actual_time=44640
type=note_on channel=9 note=53 velocity=0 time=96 actual_time=44736
type=note_on channel=9 note=35 velocity=0 time=0 actual_time=44736
type=note_on channel=9 note=53 velocity=80 time=24 actual_time=44760
type=note_on channel=9 note=40 velocity=80 time=0 actual_time=44760
type=note_on channel=9 note=40 velocity=0 time=96 actual_time=44856
type=note_on channel=9 note=53 velocity=0 time=0 actual_time=44856
type=note_on channel=9 note=53 velocity=80 time=24 actual_time=44880
type=note_on channel=9 note=53 velocity=0 time=64 actual_time=44944
type=note_on channel=9 note=35 velocity=80 time=16 actual_time=44960
type=note_on channel=9 note=35 velocity=0 time=32 actual_time=44992
type=note_on channel=9 note=53 velocity=80 time=8 actual_time=45000
type=note_on channel=9 note=40 velocity=80 time=0 actual_time=45000
type=note_on channel=9 note=40 velocity=0 time=96 actual_time=45096
type=note_on channel=9 note=53 velocity=0 time=0 actual_time=45096
type=note_on channel=9 note=53 velocity=80 time=24 actual_time=45120
type=note_on channel=9 note=35 velocity=80 time=0 actual_time=45120
type=note_on channel=9 note=35 velocity=0 time=96 actual_time=45216
type=note_on channel=9 note=53 velocity=0 time=0 actual_time=45216
type=note_on channel=9 note=40 velocity=80 time=24 actual_time=45240
type=note_on channel=9 note=53 velocity=80 time=0 actual_time=45240
type=note_on channel=9 note=53 velocity=0 time=96 actual_time=45336
type=note_on channel=9 note=40 velocity=0 time=0 actual_time=45336
type=note_on channel=9 note=53 velocity=80 time=24 actual_time=45360
type=note_on channel=9 note=53 velocity=0 time=64 actual_time=45424
type=note_on channel=9 note=35 velocity=80 time=16 actual_time=45440
type=note_on channel=9 note=35 velocity=0 time=32 actual_time=45472
type=note_on channel=9 note=40 velocity=80 time=8 actual_time=45480
type=note_on channel=9 note=53 velocity=80 time=0 actual_time=45480
type=note_on channel=9 note=53 velocity=0 time=96 actual_time=45576
type=note_on channel=9 note=40 velocity=0 time=0 actual_time=45576
type=note_on channel=9 note=40 velocity=80 time=24 actual_time=45600
type=note_on channel=9 note=40 velocity=0 time=32 actual_time=45632
type=note_on channel=9 note=40 velocity=80 time=8 actual_time=45640
type=note_on channel=9 note=40 velocity=0 time=32 actual_time=45672
type=note_on channel=9 note=40 velocity=80 time=8 actual_time=45680
type=note_on channel=9 note=40 velocity=0 time=32 actual_time=45712
type=note_on channel=9 note=41 velocity=80 time=8 actual_time=45720
type=note_on channel=9 note=41 velocity=0 time=32 actual_time=45752
type=note_on channel=9 note=41 velocity=80 time=8 actual_time=45760
type=note_on channel=9 note=41 velocity=0 time=32 actual_time=45792
type=note_on channel=9 note=41 velocity=80 time=8 actual_time=45800
type=note_on channel=9 note=41 velocity=0 time=32 actual_time=45832
type=note_on channel=9 note=47 velocity=80 time=8 actual_time=45840
type=note_on channel=9 note=47 velocity=0 time=32 actual_time=45872
type=note_on channel=9 note=47 velocity=80 time=8 actual_time=45880
type=note_on channel=9 note=47 velocity=0 time=32 actual_time=45912
type=note_on channel=9 note=45 velocity=80 time=8 actual_time=45920
type=note_on channel=9 note=45 velocity=0 time=32 actual_time=45952
type=note_on channel=9 note=47 velocity=80 time=8 actual_time=45960
type=note_on channel=9 note=47 velocity=0 time=32 actual_time=45992
type=note_on channel=9 note=47 velocity=80 time=8 actual_time=46000
type=note_on channel=9 note=47 velocity=0 time=32 actual_time=46032
type=note_on channel=9 note=45 velocity=80 time=8 actual_time=46040
type=note_on channel=9 note=45 velocity=0 time=32 actual_time=46072
type=note_on channel=9 note=59 velocity=80 time=8 actual_time=46080
type=note_on channel=9 note=35 velocity=80 time=0 actual_time=46080
type=note_on channel=9 note=49 velocity=80 time=0 actual_time=46080
type=note_on channel=9 note=53 velocity=80 time=0 actual_time=46080
type=note_on channel=9 note=53 velocity=0 time=96 actual_time=46176
type=note_on channel=9 note=59 velocity=0 time=0 actual_time=46176
type=note_on channel=9 note=35 velocity=0 time=0 actual_time=46176
type=note_on channel=9 note=49 velocity=0 time=0 actual_time=46176
type=note_on channel=9 note=59 velocity=80 time=24 actual_time=46200
type=note_on channel=9 note=40 velocity=80 time=0 actual_time=46200
type=note_on channel=9 note=53 velocity=80 time=0 actual_time=46200
type=note_on channel=9 note=53 velocity=0 time=96 actual_time=46296
type=note_on channel=9 note=40 velocity=0 time=0 actual_time=46296
type=note_on channel=9 note=59 velocity=0 time=0 actual_time=46296
type=note_on channel=9 note=59 velocity=80 time=24 actual_time=46320
type=note_on channel=9 note=53 velocity=80 time=0 actual_time=46320
type=note_on channel=9 note=53 velocity=0 time=64 actual_time=46384
type=note_on channel=9 note=59 velocity=0 time=0 actual_time=46384
type=note_on channel=9 note=35 velocity=80 time=16 actual_time=46400
type=note_on channel=9 note=35 velocity=0 time=32 actual_time=46432
type=note_on channel=9 note=59 velocity=80 time=8 actual_time=46440
type=note_on channel=9 note=53 velocity=80 time=0 actual_time=46440
type=note_on channel=9 note=40 velocity=80 time=0 actual_time=46440
type=note_on channel=9 note=40 velocity=0 time=96 actual_time=46536
type=note_on channel=9 note=53 velocity=0 time=0 actual_time=46536
type=note_on channel=9 note=59 velocity=0 time=0 actual_time=46536
type=note_on channel=9 note=35 velocity=80 time=24 actual_time=46560
type=note_on channel=9 note=59 velocity=80 time=0 actual_time=46560
type=note_on channel=9 note=53 velocity=80 time=0 actual_time=46560
type=note_on channel=9 note=53 velocity=0 time=96 actual_time=46656
type=note_on channel=9 note=59 velocity=0 time=0 actual_time=46656
type=note_on channel=9 note=35 velocity=0 time=0 actual_time=46656
type=note_on channel=9 note=53 velocity=80 time=24 actual_time=46680
type=note_on channel=9 note=40 velocity=80 time=0 actual_time=46680
type=note_on channel=9 note=59 velocity=80 time=0 actual_time=46680
type=note_on channel=9 note=59 velocity=0 time=96 actual_time=46776
type=note_on channel=9 note=40 velocity=0 time=0 actual_time=46776
type=note_on channel=9 note=53 velocity=0 time=0 actual_time=46776
type=note_on channel=9 note=53 velocity=80 time=24 actual_time=46800
type=note_on channel=9 note=59 velocity=80 time=0 actual_time=46800
type=note_on channel=9 note=59 velocity=0 time=64 actual_time=46864
type=note_on channel=9 note=53 velocity=0 time=0 actual_time=46864
type=note_on channel=9 note=35 velocity=80 time=16 actual_time=46880
type=note_on channel=9 note=35 velocity=0 time=32 actual_time=46912
type=note_on channel=9 note=40 velocity=80 time=8 actual_time=46920
type=note_on channel=9 note=53 velocity=80 time=0 actual_time=46920
type=note_on channel=9 note=59 velocity=80 time=0 actual_time=46920
type=note_on channel=9 note=59 velocity=0 time=96 actual_time=47016
type=note_on channel=9 note=53 velocity=0 time=0 actual_time=47016
type=note_on channel=9 note=40 velocity=0 time=0 actual_time=47016
type=note_on channel=9 note=53 velocity=80 time=24 actual_time=47040
type=note_on channel=9 note=49 velocity=80 time=0 actual_time=47040
type=note_on channel=9 note=35 velocity=80 time=0 actual_time=47040
type=note_on channel=9 note=59 velocity=80 time=0 actual_time=47040
type=note_on channel=9 note=59 velocity=0 time=96 actual_time=47136
type=note_on channel=9 note=53 velocity=0 time=0 actual_time=47136
type=note_on channel=9 note=49 velocity=0 time=0 actual_time=47136
type=note_on channel=9 note=35 velocity=0 time=0 actual_time=47136
type=note_on channel=9 note=53 velocity=80 time=24 actual_time=47160
type=note_on channel=9 note=40 velocity=80 time=0 actual_time=47160
type=note_on channel=9 note=59 velocity=80 time=0 actual_time=47160
type=note_on channel=9 note=59 velocity=0 time=96 actual_time=47256
type=note_on channel=9 note=40 velocity=0 time=0 actual_time=47256
type=note_on channel=9 note=53 velocity=0 time=0 actual_time=47256
type=note_on channel=9 note=53 velocity=80 time=24 actual_time=47280
type=note_on channel=9 note=59 velocity=80 time=0 actual_time=47280
type=note_on channel=9 note=59 velocity=0 time=64 actual_time=47344
type=note_on channel=9 note=53 velocity=0 time=0 actual_time=47344
type=note_on channel=9 note=35 velocity=80 time=16 actual_time=47360
type=note_on channel=9 note=35 velocity=0 time=32 actual_time=47392
type=note_on channel=9 note=40 velocity=80 time=8 actual_time=47400
type=note_on channel=9 note=53 velocity=80 time=0 actual_time=47400
type=note_on channel=9 note=59 velocity=80 time=0 actual_time=47400
type=note_on channel=9 note=59 velocity=0 time=96 actual_time=47496
type=note_on channel=9 note=53 velocity=0 time=0 actual_time=47496
type=note_on channel=9 note=40 velocity=0 time=0 actual_time=47496
type=note_on channel=9 note=35 velocity=80 time=24 actual_time=47520
type=note_on channel=9 note=53 velocity=80 time=0 actual_time=47520
type=note_on channel=9 note=59 velocity=80 time=0 actual_time=47520
type=note_on channel=9 note=59 velocity=0 time=64 actual_time=47584
type=note_on channel=9 note=53 velocity=0 time=0 actual_time=47584
type=note_on channel=9 note=35 velocity=0 time=0 actual_time=47584
type=note_on channel=9 note=35 velocity=80 time=16 actual_time=47600
type=note_on channel=9 note=35 velocity=0 time=32 actual_time=47632
type=note_on channel=9 note=49 velocity=80 time=8 actual_time=47640
type=note_on channel=9 note=40 velocity=80 time=0 actual_time=47640
type=note_on channel=9 note=53 velocity=80 time=0 actual_time=47640
type=note_on channel=9 note=59 velocity=80 time=0 actual_time=47640
type=note_on channel=9 note=59 velocity=0 time=96 actual_time=47736
type=note_on channel=9 note=49 velocity=0 time=0 actual_time=47736
type=note_on channel=9 note=40 velocity=0 time=0 actual_time=47736
type=note_on channel=9 note=53 velocity=0 time=0 actual_time=47736
type=note_on channel=9 note=35 velocity=80 time=24 actual_time=47760
type=note_on channel=9 note=53 velocity=80 time=0 actual_time=47760
type=note_on channel=9 note=59 velocity=80 time=0 actual_time=47760
type=note_on channel=9 note=59 velocity=0 time=64 actual_time=47824
type=note_on channel=9 note=53 velocity=0 time=0 actual_time=47824
type=note_on channel=9 note=35 velocity=0 time=0 actual_time=47824
type=note_on channel=9 note=35 velocity=80 time=16 actual_time=47840
type=note_on channel=9 note=35 velocity=0 time=32 actual_time=47872
type=note_on channel=9 note=49 velocity=80 time=8 actual_time=47880
type=note_on channel=9 note=40 velocity=80 time=0 actual_time=47880
type=note_on channel=9 note=53 velocity=80 time=0 actual_time=47880
type=note_on channel=9 note=59 velocity=80 time=0 actual_time=47880
type=note_on channel=9 note=59 velocity=0 time=96 actual_time=47976
type=note_on channel=9 note=49 velocity=0 time=0 actual_time=47976
type=note_on channel=9 note=40 velocity=0 time=0 actual_time=47976
type=note_on channel=9 note=53 velocity=0 time=0 actual_time=47976
type=note_on channel=9 note=53 velocity=80 time=24 actual_time=48000
type=note_on channel=9 note=49 velocity=80 time=0 actual_time=48000
type=note_on channel=9 note=35 velocity=80 time=0 actual_time=48000
type=note_on channel=9 note=59 velocity=80 time=0 actual_time=48000
type=note_on channel=9 note=59 velocity=0 time=96 actual_time=48096
type=note_on channel=9 note=53 velocity=0 time=0 actual_time=48096
type=note_on channel=9 note=49 velocity=0 time=0 actual_time=48096
type=note_on channel=9 note=35 velocity=0 time=0 actual_time=48096
type=note_on channel=9 note=53 velocity=80 time=24 actual_time=48120
type=note_on channel=9 note=40 velocity=80 time=0 actual_time=48120
type=note_on channel=9 note=59 velocity=80 time=0 actual_time=48120
type=note_on channel=9 note=59 velocity=0 time=96 actual_time=48216
type=note_on channel=9 note=40 velocity=0 time=0 actual_time=48216
type=note_on channel=9 note=53 velocity=0 time=0 actual_time=48216
type=note_on channel=9 note=53 velocity=80 time=24 actual_time=48240
type=note_on channel=9 note=59 velocity=80 time=0 actual_time=48240
type=note_on channel=9 note=59 velocity=0 time=64 actual_time=48304
type=note_on channel=9 note=53 velocity=0 time=0 actual_time=48304
type=note_on channel=9 note=35 velocity=80 time=16 actual_time=48320
type=note_on channel=9 note=35 velocity=0 time=32 actual_time=48352
type=note_on channel=9 note=40 velocity=80 time=8 actual_time=48360
type=note_on channel=9 note=53 velocity=80 time=0 actual_time=48360
type=note_on channel=9 note=59 velocity=80 time=0 actual_time=48360
type=note_on channel=9 note=59 velocity=0 time=96 actual_time=48456
type=note_on channel=9 note=53 velocity=0 time=0 actual_time=48456
type=note_on channel=9 note=40 velocity=0 time=0 actual_time=48456
type=note_on channel=9 note=53 velocity=80 time=24 actual_time=48480
type=note_on channel=9 note=59 velocity=80 time=0 actual_time=48480
type=note_on channel=9 note=35 velocity=80 time=0 actual_time=48480
type=note_on channel=9 note=35 velocity=0 time=96 actual_time=48576
type=note_on channel=9 note=59 velocity=0 time=0 actual_time=48576
type=note_on channel=9 note=53 velocity=0 time=0 actual_time=48576
type=note_on channel=9 note=59 velocity=80 time=24 actual_time=48600
type=note_on channel=9 note=40 velocity=80 time=0 actual_time=48600
type=note_on channel=9 note=53 velocity=80 time=0 actual_time=48600
type=note_on channel=9 note=53 velocity=0 time=96 actual_time=48696
type=note_on channel=9 note=40 velocity=0 time=0 actual_time=48696
type=note_on channel=9 note=59 velocity=0 time=0 actual_time=48696
type=note_on channel=9 note=59 velocity=80 time=24 actual_time=48720
type=note_on channel=9 note=53 velocity=80 time=0 actual_time=48720
type=note_on channel=9 note=53 velocity=0 time=64 actual_time=48784
type=note_on channel=9 note=59 velocity=0 time=0 actual_time=48784
type=note_on channel=9 note=35 velocity=80 time=16 actual_time=48800
type=note_on channel=9 note=35 velocity=0 time=32 actual_time=48832
type=note_on channel=9 note=59 velocity=80 time=8 actual_time=48840
type=note_on channel=9 note=53 velocity=80 time=0 actual_time=48840
type=note_on channel=9 note=40 velocity=80 time=0 actual_time=48840
type=note_on channel=9 note=40 velocity=0 time=96 actual_time=48936
type=note_on channel=9 note=53 velocity=0 time=0 actual_time=48936
type=note_on channel=9 note=59 velocity=0 time=0 actual_time=48936
type=note_on channel=9 note=59 velocity=80 time=24 actual_time=48960
type=note_on channel=9 note=35 velocity=80 time=0 actual_time=48960
type=note_on channel=9 note=49 velocity=80 time=0 actual_time=48960
type=note_on channel=9 note=53 velocity=80 time=0 actual_time=48960
type=note_on channel=9 note=53 velocity=0 time=96 actual_time=49056
type=note_on channel=9 note=59 velocity=0 time=0 actual_time=49056
type=note_on channel=9 note=35 velocity=0 time=0 actual_time=49056
type=note_on channel=9 note=49 velocity=0 time=0 actual_time=49056
type=note_on channel=9 note=59 velocity=80 time=24 actual_time=49080
type=note_on channel=9 note=40 velocity=80 time=0 actual_time=49080
type=note_on channel=9 note=53 velocity=80 time=0 actual_time=49080
type=note_on channel=9 note=53 velocity=0 time=96 actual_time=49176
type=note_on channel=9 note=40 velocity=0 time=0 actual_time=49176
type=note_on channel=9 note=59 velocity=0 time=0 actual_time=49176
type=note_on channel=9 note=59 velocity=80 time=24 actual_time=49200
type=note_on channel=9 note=53 velocity=80 time=0 actual_time=49200
type=note_on channel=9 note=53 velocity=0 time=64 actual_time=49264
type=note_on channel=9 note=59 velocity=0 time=0 actual_time=49264
type=note_on channel=9 note=35 velocity=80 time=16 actual_time=49280
type=note_on channel=9 note=35 velocity=0 time=32 actual_time=49312
type=note_on channel=9 note=59 velocity=80 time=8 actual_time=49320
type=note_on channel=9 note=53 velocity=80 time=0 actual_time=49320
type=note_on channel=9 note=40 velocity=80 time=0 actual_time=49320
type=note_on channel=9 note=40 velocity=0 time=96 actual_time=49416
type=note_on channel=9 note=53 velocity=0 time=0 actual_time=49416
type=note_on channel=9 note=59 velocity=0 time=0 actual_time=49416
type=note_on channel=9 note=59 velocity=80 time=24 actual_time=49440
type=note_on channel=9 note=53 velocity=80 time=0 actual_time=49440
type=note_on channel=9 note=35 velocity=80 time=0 actual_time=49440
type=note_on channel=9 note=35 velocity=0 time=64 actual_time=49504
type=note_on channel=9 note=53 velocity=0 time=0 actual_time=49504
type=note_on channel=9 note=59 velocity=0 time=0 actual_time=49504
type=note_on channel=9 note=35 velocity=80 time=16 actual_time=49520
type=note_on channel=9 note=35 velocity=0 time=32 actual_time=49552
type=note_on channel=9 note=59 velocity=80 time=8 actual_time=49560
type=note_on channel=9 note=53 velocity=80 time=0 actual_time=49560
type=note_on channel=9 note=40 velocity=80 time=0 actual_time=49560
type=note_on channel=9 note=49 velocity=80 time=0 actual_time=49560
type=note_on channel=9 note=49 velocity=0 time=96 actual_time=49656
type=note_on channel=9 note=59 velocity=0 time=0 actual_time=49656
type=note_on channel=9 note=53 velocity=0 time=0 actual_time=49656
type=note_on channel=9 note=40 velocity=0 time=0 actual_time=49656
type=note_on channel=9 note=59 velocity=80 time=24 actual_time=49680
type=note_on channel=9 note=53 velocity=80 time=0 actual_time=49680
type=note_on channel=9 note=35 velocity=80 time=0 actual_time=49680
type=note_on channel=9 note=35 velocity=0 time=64 actual_time=49744
type=note_on channel=9 note=53 velocity=0 time=0 actual_time=49744
type=note_on channel=9 note=59 velocity=0 time=0 actual_time=49744
type=note_on channel=9 note=35 velocity=80 time=16 actual_time=49760
type=note_on channel=9 note=35 velocity=0 time=32 actual_time=49792
type=note_on channel=9 note=59 velocity=80 time=8 actual_time=49800
type=note_on channel=9 note=53 velocity=80 time=0 actual_time=49800
type=note_on channel=9 note=40 velocity=80 time=0 actual_time=49800
type=note_on channel=9 note=49 velocity=80 time=0 actual_time=49800
type=note_on channel=9 note=49 velocity=0 time=96 actual_time=49896
type=note_on channel=9 note=59 velocity=0 time=0 actual_time=49896
type=note_on channel=9 note=53 velocity=0 time=0 actual_time=49896
type=note_on channel=9 note=40 velocity=0 time=0 actual_time=49896
type=note_on channel=9 note=53 velocity=80 time=24 actual_time=49920
type=note_on channel=9 note=49 velocity=80 time=0 actual_time=49920
type=note_on channel=9 note=35 velocity=80 time=0 actual_time=49920
type=note_on channel=9 note=59 velocity=80 time=0 actual_time=49920
type=note_on channel=9 note=59 velocity=0 time=96 actual_time=50016
type=note_on channel=9 note=53 velocity=0 time=0 actual_time=50016
type=note_on channel=9 note=49 velocity=0 time=0 actual_time=50016
type=note_on channel=9 note=35 velocity=0 time=0 actual_time=50016
type=note_on channel=9 note=53 velocity=80 time=24 actual_time=50040
type=note_on channel=9 note=40 velocity=80 time=0 actual_time=50040
type=note_on channel=9 note=59 velocity=80 time=0 actual_time=50040
type=note_on channel=9 note=59 velocity=0 time=96 actual_time=50136
type=note_on channel=9 note=40 velocity=0 time=0 actual_time=50136
type=note_on channel=9 note=53 velocity=0 time=0 actual_time=50136
type=note_on channel=9 note=53 velocity=80 time=24 actual_time=50160
type=note_on channel=9 note=59 velocity=80 time=0 actual_time=50160
type=note_on channel=9 note=59 velocity=0 time=64 actual_time=50224
type=note_on channel=9 note=53 velocity=0 time=0 actual_time=50224
type=note_on channel=9 note=35 velocity=80 time=16 actual_time=50240
type=note_on channel=9 note=35 velocity=0 time=32 actual_time=50272
type=note_on channel=9 note=40 velocity=80 time=8 actual_time=50280
type=note_on channel=9 note=53 velocity=80 time=0 actual_time=50280
type=note_on channel=9 note=59 velocity=80 time=0 actual_time=50280
type=note_on channel=9 note=59 velocity=0 time=96 actual_time=50376
type=note_on channel=9 note=53 velocity=0 time=0 actual_time=50376
type=note_on channel=9 note=40 velocity=0 time=0 actual_time=50376
type=note_on channel=9 note=53 velocity=80 time=24 actual_time=50400
type=note_on channel=9 note=59 velocity=80 time=0 actual_time=50400
type=note_on channel=9 note=35 velocity=80 time=0 actual_time=50400
type=note_on channel=9 note=35 velocity=0 time=96 actual_time=50496
type=note_on channel=9 note=59 velocity=0 time=0 actual_time=50496
type=note_on channel=9 note=53 velocity=0 time=0 actual_time=50496
type=note_on channel=9 note=59 velocity=80 time=24 actual_time=50520
type=note_on channel=9 note=40 velocity=80 time=0 actual_time=50520
type=note_on channel=9 note=53 velocity=80 time=0 actual_time=50520
type=note_on channel=9 note=53 velocity=0 time=96 actual_time=50616
type=note_on channel=9 note=40 velocity=0 time=0 actual_time=50616
type=note_on channel=9 note=59 velocity=0 time=0 actual_time=50616
type=note_on channel=9 note=59 velocity=80 time=24 actual_time=50640
type=note_on channel=9 note=53 velocity=80 time=0 actual_time=50640
type=note_on channel=9 note=53 velocity=0 time=64 actual_time=50704
type=note_on channel=9 note=59 velocity=0 time=0 actual_time=50704
type=note_on channel=9 note=35 velocity=80 time=16 actual_time=50720
type=note_on channel=9 note=35 velocity=0 time=32 actual_time=50752
type=note_on channel=9 note=59 velocity=80 time=8 actual_time=50760
type=note_on channel=9 note=53 velocity=80 time=0 actual_time=50760
type=note_on channel=9 note=40 velocity=80 time=0 actual_time=50760
type=note_on channel=9 note=40 velocity=0 time=96 actual_time=50856
type=note_on channel=9 note=53 velocity=0 time=0 actual_time=50856
type=note_on channel=9 note=59 velocity=0 time=0 actual_time=50856
type=note_on channel=9 note=59 velocity=80 time=24 actual_time=50880
type=note_on channel=9 note=35 velocity=80 time=0 actual_time=50880
type=note_on channel=9 note=49 velocity=80 time=0 actual_time=50880
type=note_on channel=9 note=53 velocity=80 time=0 actual_time=50880
type=note_on channel=9 note=53 velocity=0 time=96 actual_time=50976
type=note_on channel=9 note=59 velocity=0 time=0 actual_time=50976
type=note_on channel=9 note=35 velocity=0 time=0 actual_time=50976
type=note_on channel=9 note=49 velocity=0 time=0 actual_time=50976
type=note_on channel=9 note=59 velocity=80 time=24 actual_time=51000
type=note_on channel=9 note=40 velocity=80 time=0 actual_time=51000
type=note_on channel=9 note=53 velocity=80 time=0 actual_time=51000
type=note_on channel=9 note=53 velocity=0 time=96 actual_time=51096
type=note_on channel=9 note=40 velocity=0 time=0 actual_time=51096
type=note_on channel=9 note=59 velocity=0 time=0 actual_time=51096
type=note_on channel=9 note=59 velocity=80 time=24 actual_time=51120
type=note_on channel=9 note=53 velocity=80 time=0 actual_time=51120
type=note_on channel=9 note=53 velocity=0 time=64 actual_time=51184
type=note_on channel=9 note=59 velocity=0 time=0 actual_time=51184
type=note_on channel=9 note=35 velocity=80 time=16 actual_time=51200
type=note_on channel=9 note=35 velocity=0 time=32 actual_time=51232
type=note_on channel=9 note=59 velocity=80 time=8 actual_time=51240
type=note_on channel=9 note=53 velocity=80 time=0 actual_time=51240
type=note_on channel=9 note=40 velocity=80 time=0 actual_time=51240
type=note_on channel=9 note=40 velocity=0 time=96 actual_time=51336
type=note_on channel=9 note=53 velocity=0 time=0 actual_time=51336
type=note_on channel=9 note=59 velocity=0 time=0 actual_time=51336
type=note_on channel=9 note=59 velocity=80 time=24 actual_time=51360
type=note_on channel=9 note=53 velocity=80 time=0 actual_time=51360
type=note_on channel=9 note=35 velocity=80 time=0 actual_time=51360
type=note_on channel=9 note=35 velocity=0 time=64 actual_time=51424
type=note_on channel=9 note=53 velocity=0 time=0 actual_time=51424
type=note_on channel=9 note=59 velocity=0 time=0 actual_time=51424
type=note_on channel=9 note=35 velocity=80 time=16 actual_time=51440
type=note_on channel=9 note=35 velocity=0 time=32 actual_time=51472
type=note_on channel=9 note=59 velocity=80 time=8 actual_time=51480
type=note_on channel=9 note=53 velocity=80 time=0 actual_time=51480
type=note_on channel=9 note=40 velocity=80 time=0 actual_time=51480
type=note_on channel=9 note=49 velocity=80 time=0 actual_time=51480
type=note_on channel=9 note=49 velocity=0 time=96 actual_time=51576
type=note_on channel=9 note=59 velocity=0 time=0 actual_time=51576
type=note_on channel=9 note=53 velocity=0 time=0 actual_time=51576
type=note_on channel=9 note=40 velocity=0 time=0 actual_time=51576
type=note_on channel=9 note=59 velocity=80 time=24 actual_time=51600
type=note_on channel=9 note=53 velocity=80 time=0 actual_time=51600
type=note_on channel=9 note=35 velocity=80 time=0 actual_time=51600
type=note_on channel=9 note=35 velocity=0 time=64 actual_time=51664
type=note_on channel=9 note=53 velocity=0 time=0 actual_time=51664
type=note_on channel=9 note=59 velocity=0 time=0 actual_time=51664
type=note_on channel=9 note=35 velocity=80 time=16 actual_time=51680
type=note_on channel=9 note=35 velocity=0 time=32 actual_time=51712
type=note_on channel=9 note=59 velocity=80 time=8 actual_time=51720
type=note_on channel=9 note=53 velocity=80 time=0 actual_time=51720
type=note_on channel=9 note=40 velocity=80 time=0 actual_time=51720
type=note_on channel=9 note=49 velocity=80 time=0 actual_time=51720
type=note_on channel=9 note=49 velocity=0 time=96 actual_time=51816
type=note_on channel=9 note=59 velocity=0 time=0 actual_time=51816
type=note_on channel=9 note=53 velocity=0 time=0 actual_time=51816
type=note_on channel=9 note=40 velocity=0 time=0 actual_time=51816
type=note_on channel=9 note=59 velocity=80 time=24 actual_time=51840
type=note_on channel=9 note=35 velocity=80 time=0 actual_time=51840
type=note_on channel=9 note=49 velocity=80 time=0 actual_time=51840
type=note_on channel=9 note=53 velocity=80 time=0 actual_time=51840
type=note_on channel=9 note=53 velocity=0 time=96 actual_time=51936
type=note_on channel=9 note=59 velocity=0 time=0 actual_time=51936
type=note_on channel=9 note=35 velocity=0 time=0 actual_time=51936
type=note_on channel=9 note=49 velocity=0 time=0 actual_time=51936
type=note_on channel=9 note=59 velocity=80 time=24 actual_time=51960
type=note_on channel=9 note=40 velocity=80 time=0 actual_time=51960
type=note_on channel=9 note=53 velocity=80 time=0 actual_time=51960
type=note_on channel=9 note=53 velocity=0 time=96 actual_time=52056
type=note_on channel=9 note=40 velocity=0 time=0 actual_time=52056
type=note_on channel=9 note=59 velocity=0 time=0 actual_time=52056
type=note_on channel=9 note=59 velocity=80 time=24 actual_time=52080
type=note_on channel=9 note=53 velocity=80 time=0 actual_time=52080
type=note_on channel=9 note=53 velocity=0 time=64 actual_time=52144
type=note_on channel=9 note=59 velocity=0 time=0 actual_time=52144
type=note_on channel=9 note=35 velocity=80 time=16 actual_time=52160
type=note_on channel=9 note=35 velocity=0 time=32 actual_time=52192
type=note_on channel=9 note=59 velocity=80 time=8 actual_time=52200
type=note_on channel=9 note=53 velocity=80 time=0 actual_time=52200
type=note_on channel=9 note=40 velocity=80 time=0 actual_time=52200
type=note_on channel=9 note=40 velocity=0 time=96 actual_time=52296
type=note_on channel=9 note=53 velocity=0 time=0 actual_time=52296
type=note_on channel=9 note=59 velocity=0 time=0 actual_time=52296
type=note_on channel=9 note=35 velocity=80 time=24 actual_time=52320
type=note_on channel=9 note=59 velocity=80 time=0 actual_time=52320
type=note_on channel=9 note=53 velocity=80 time=0 actual_time=52320
type=note_on channel=9 note=53 velocity=0 time=96 actual_time=52416
type=note_on channel=9 note=59 velocity=0 time=0 actual_time=52416
type=note_on channel=9 note=35 velocity=0 time=0 actual_time=52416
type=note_on channel=9 note=53 velocity=80 time=24 actual_time=52440
type=note_on channel=9 note=40 velocity=80 time=0 actual_time=52440
type=note_on channel=9 note=59 velocity=80 time=0 actual_time=52440
type=note_on channel=9 note=59 velocity=0 time=96 actual_time=52536
type=note_on channel=9 note=40 velocity=0 time=0 actual_time=52536
type=note_on channel=9 note=53 velocity=0 time=0 actual_time=52536
type=note_on channel=9 note=53 velocity=80 time=24 actual_time=52560
type=note_on channel=9 note=59 velocity=80 time=0 actual_time=52560
type=note_on channel=9 note=59 velocity=0 time=64 actual_time=52624
type=note_on channel=9 note=53 velocity=0 time=0 actual_time=52624
type=note_on channel=9 note=35 velocity=80 time=16 actual_time=52640
type=note_on channel=9 note=35 velocity=0 time=32 actual_time=52672
type=note_on channel=9 note=40 velocity=80 time=8 actual_time=52680
type=note_on channel=9 note=53 velocity=80 time=0 actual_time=52680
type=note_on channel=9 note=59 velocity=80 time=0 actual_time=52680
type=note_on channel=9 note=59 velocity=0 time=96 actual_time=52776
type=note_on channel=9 note=53 velocity=0 time=0 actual_time=52776
type=note_on channel=9 note=40 velocity=0 time=0 actual_time=52776
type=note_on channel=9 note=59 velocity=80 time=24 actual_time=52800
type=note_on channel=9 note=35 velocity=80 time=0 actual_time=52800
type=note_on channel=9 note=49 velocity=80 time=0 actual_time=52800
type=note_on channel=9 note=53 velocity=80 time=0 actual_time=52800
type=note_on channel=9 note=53 velocity=0 time=96 actual_time=52896
type=note_on channel=9 note=59 velocity=0 time=0 actual_time=52896
type=note_on channel=9 note=35 velocity=0 time=0 actual_time=52896
type=note_on channel=9 note=49 velocity=0 time=0 actual_time=52896
type=note_on channel=9 note=59 velocity=80 time=24 actual_time=52920
type=note_on channel=9 note=40 velocity=80 time=0 actual_time=52920
type=note_on channel=9 note=53 velocity=80 time=0 actual_time=52920
type=note_on channel=9 note=53 velocity=0 time=96 actual_time=53016
type=note_on channel=9 note=40 velocity=0 time=0 actual_time=53016
type=note_on channel=9 note=59 velocity=0 time=0 actual_time=53016
type=note_on channel=9 note=59 velocity=80 time=24 actual_time=53040
type=note_on channel=9 note=53 velocity=80 time=0 actual_time=53040
type=note_on channel=9 note=53 velocity=0 time=64 actual_time=53104
type=note_on channel=9 note=59 velocity=0 time=0 actual_time=53104
type=note_on channel=9 note=35 velocity=80 time=16 actual_time=53120
type=note_on channel=9 note=35 velocity=0 time=32 actual_time=53152
type=note_on channel=9 note=59 velocity=80 time=8 actual_time=53160
type=note_on channel=9 note=53 velocity=80 time=0 actual_time=53160
type=note_on channel=9 note=40 velocity=80 time=0 actual_time=53160
type=note_on channel=9 note=40 velocity=0 time=96 actual_time=53256
type=note_on channel=9 note=53 velocity=0 time=0 actual_time=53256
type=note_on channel=9 note=59 velocity=0 time=0 actual_time=53256
type=note_on channel=9 note=59 velocity=80 time=24 actual_time=53280
type=note_on channel=9 note=35 velocity=80 time=0 actual_time=53280
type=note_on channel=9 note=53 velocity=80 time=0 actual_time=53280
type=note_on channel=9 note=53 velocity=0 time=96 actual_time=53376
type=note_on channel=9 note=35 velocity=0 time=0 actual_time=53376
type=note_on channel=9 note=59 velocity=0 time=0 actual_time=53376
type=note_on channel=9 note=53 velocity=80 time=24 actual_time=53400
type=note_on channel=9 note=59 velocity=80 time=0 actual_time=53400
type=note_on channel=9 note=40 velocity=80 time=0 actual_time=53400
type=note_on channel=9 note=40 velocity=0 time=96 actual_time=53496
type=note_on channel=9 note=59 velocity=0 time=0 actual_time=53496
type=note_on channel=9 note=53 velocity=0 time=0 actual_time=53496
type=note_on channel=9 note=47 velocity=80 time=24 actual_time=53520
type=note_on channel=9 note=40 velocity=80 time=0 actual_time=53520
type=note_on channel=9 note=40 velocity=0 time=32 actual_time=53552
type=note_on channel=9 note=47 velocity=0 time=0 actual_time=53552
type=note_on channel=9 note=45 velocity=80 time=8 actual_time=53560
type=note_on channel=9 note=45 velocity=0 time=32 actual_time=53592
type=note_on channel=9 note=43 velocity=80 time=8 actual_time=53600
type=note_on channel=9 note=43 velocity=0 time=32 actual_time=53632
type=note_on channel=9 note=41 velocity=80 time=8 actual_time=53640
type=note_on channel=9 note=49 velocity=80 time=120 actual_time=53760
type=note_on channel=9 note=35 velocity=80 time=0 actual_time=53760
type=note_on channel=9 note=53 velocity=80 time=0 actual_time=53760
type=note_on channel=9 note=41 velocity=0 time=72 actual_time=53832
type=note_on channel=9 note=49 velocity=0 time=24 actual_time=53856
type=note_on channel=9 note=35 velocity=0 time=0 actual_time=53856
type=note_on channel=9 note=53 velocity=0 time=0 actual_time=53856
type=note_on channel=9 note=40 velocity=80 time=24 actual_time=53880
type=note_on channel=9 note=53 velocity=80 time=0 actual_time=53880
type=note_on channel=9 note=53 velocity=0 time=96 actual_time=53976
type=note_on channel=9 note=40 velocity=0 time=0 actual_time=53976
type=note_on channel=9 note=53 velocity=80 time=24 actual_time=54000
type=note_on channel=9 note=53 velocity=0 time=64 actual_time=54064
type=note_on channel=9 note=35 velocity=80 time=16 actual_time=54080
type=note_on channel=9 note=35 velocity=0 time=32 actual_time=54112
type=note_on channel=9 note=40 velocity=80 time=8 actual_time=54120
type=note_on channel=9 note=53 velocity=80 time=0 actual_time=54120
type=note_on channel=9 note=53 velocity=0 time=96 actual_time=54216
type=note_on channel=9 note=40 velocity=0 time=0 actual_time=54216
type=note_on channel=9 note=53 velocity=80 time=24 actual_time=54240
type=note_on channel=9 note=35 velocity=80 time=0 actual_time=54240
type=note_on channel=9 note=35 velocity=0 time=96 actual_time=54336
type=note_on channel=9 note=53 velocity=0 time=0 actual_time=54336
type=note_on channel=9 note=53 velocity=80 time=24 actual_time=54360
type=note_on channel=9 note=40 velocity=80 time=0 actual_time=54360
type=note_on channel=9 note=40 velocity=0 time=96 actual_time=54456
type=note_on channel=9 note=53 velocity=0 time=0 actual_time=54456
type=note_on channel=9 note=53 velocity=80 time=24 actual_time=54480
type=note_on channel=9 note=53 velocity=0 time=64 actual_time=54544
type=note_on channel=9 note=35 velocity=80 time=16 actual_time=54560
type=note_on channel=9 note=35 velocity=0 time=32 actual_time=54592
type=note_on channel=9 note=40 velocity=80 time=8 actual_time=54600
type=note_on channel=9 note=53 velocity=80 time=0 actual_time=54600
type=note_on channel=9 note=53 velocity=0 time=96 actual_time=54696
type=note_on channel=9 note=40 velocity=0 time=0 actual_time=54696
type=note_on channel=9 note=49 velocity=80 time=24 actual_time=54720
type=note_on channel=9 note=35 velocity=80 time=0 actual_time=54720
type=note_on channel=9 note=53 velocity=80 time=0 actual_time=54720
type=note_on channel=9 note=53 velocity=0 time=96 actual_time=54816
type=note_on channel=9 note=35 velocity=0 time=0 actual_time=54816
type=note_on channel=9 note=49 velocity=0 time=0 actual_time=54816
type=note_on channel=9 note=53 velocity=80 time=24 actual_time=54840
type=note_on channel=9 note=40 velocity=80 time=0 actual_time=54840
type=note_on channel=9 note=40 velocity=0 time=96 actual_time=54936
type=note_on channel=9 note=53 velocity=0 time=0 actual_time=54936
type=note_on channel=9 note=53 velocity=80 time=24 actual_time=54960
type=note_on channel=9 note=53 velocity=0 time=64 actual_time=55024
type=note_on channel=9 note=35 velocity=80 time=16 actual_time=55040
type=note_on channel=9 note=35 velocity=0 time=32 actual_time=55072
type=note_on channel=9 note=53 velocity=80 time=8 actual_time=55080
type=note_on channel=9 note=40 velocity=80 time=0 actual_time=55080
type=note_on channel=9 note=40 velocity=0 time=96 actual_time=55176
type=note_on channel=9 note=53 velocity=0 time=0 actual_time=55176
type=note_on channel=9 note=35 velocity=80 time=24 actual_time=55200
type=note_on channel=9 note=53 velocity=80 time=0 actual_time=55200
type=note_on channel=9 note=53 velocity=0 time=96 actual_time=55296
type=note_on channel=9 note=35 velocity=0 time=0 actual_time=55296
type=note_on channel=9 note=49 velocity=80 time=24 actual_time=55320
type=note_on channel=9 note=53 velocity=80 time=0 actual_time=55320
type=note_on channel=9 note=40 velocity=80 time=0 actual_time=55320
type=note_on channel=9 note=40 velocity=0 time=96 actual_time=55416
type=note_on channel=9 note=53 velocity=0 time=0 actual_time=55416
type=note_on channel=9 note=49 velocity=0 time=0 actual_time=55416
type=note_on channel=9 note=53 velocity=80 time=24 actual_time=55440
type=note_on channel=9 note=53 velocity=0 time=64 actual_time=55504
type=note_on channel=9 note=35 velocity=80 time=16 actual_time=55520
type=note_on channel=9 note=35 velocity=0 time=32 actual_time=55552
type=note_on channel=9 note=40 velocity=80 time=8 actual_time=55560
type=note_on channel=9 note=53 velocity=80 time=0 actual_time=55560
type=note_on channel=9 note=49 velocity=80 time=0 actual_time=55560
type=note_on channel=9 note=49 velocity=0 time=96 actual_time=55656
type=note_on channel=9 note=53 velocity=0 time=0 actual_time=55656
type=note_on channel=9 note=40 velocity=0 time=0 actual_time=55656
type=note_on channel=9 note=53 velocity=80 time=24 actual_time=55680
type=note_on channel=9 note=35 velocity=80 time=0 actual_time=55680
type=note_on channel=9 note=35 velocity=0 time=96 actual_time=55776
type=note_on channel=9 note=53 velocity=0 time=0 actual_time=55776
type=note_on channel=9 note=53 velocity=80 time=24 actual_time=55800
type=note_on channel=9 note=40 velocity=80 time=0 actual_time=55800
type=note_on channel=9 note=40 velocity=0 time=96 actual_time=55896
type=note_on channel=9 note=53 velocity=0 time=0 actual_time=55896
type=note_on channel=9 note=53 velocity=80 time=24 actual_time=55920
type=note_on channel=9 note=53 velocity=0 time=64 actual_time=55984
type=note_on channel=9 note=35 velocity=80 time=16 actual_time=56000
type=note_on channel=9 note=35 velocity=0 time=32 actual_time=56032
type=note_on channel=9 note=40 velocity=80 time=8 actual_time=56040
type=note_on channel=9 note=53 velocity=80 time=0 actual_time=56040
type=note_on channel=9 note=53 velocity=0 time=96 actual_time=56136
type=note_on channel=9 note=40 velocity=0 time=0 actual_time=56136
type=note_on channel=9 note=53 velocity=80 time=24 actual_time=56160
type=note_on channel=9 note=35 velocity=80 time=0 actual_time=56160
type=note_on channel=9 note=35 velocity=0 time=96 actual_time=56256
type=note_on channel=9 note=53 velocity=0 time=0 actual_time=56256
type=note_on channel=9 note=40 velocity=80 time=24 actual_time=56280
type=note_on channel=9 note=53 velocity=80 time=0 actual_time=56280
type=note_on channel=9 note=53 velocity=0 time=96 actual_time=56376
type=note_on channel=9 note=40 velocity=0 time=0 actual_time=56376
type=note_on channel=9 note=53 velocity=80 time=24 actual_time=56400
type=note_on channel=9 note=53 velocity=0 time=64 actual_time=56464
type=note_on channel=9 note=35 velocity=80 time=16 actual_time=56480
type=note_on channel=9 note=35 velocity=0 time=32 actual_time=56512
type=note_on channel=9 note=53 velocity=80 time=8 actual_time=56520
type=note_on channel=9 note=40 velocity=80 time=0 actual_time=56520
type=note_on channel=9 note=40 velocity=0 time=96 actual_time=56616
type=note_on channel=9 note=53 velocity=0 time=0 actual_time=56616
type=note_on channel=9 note=53 velocity=80 time=24 actual_time=56640
type=note_on channel=9 note=35 velocity=80 time=0 actual_time=56640
type=note_on channel=9 note=49 velocity=80 time=0 actual_time=56640
type=note_on channel=9 note=49 velocity=0 time=96 actual_time=56736
type=note_on channel=9 note=35 velocity=0 time=0 actual_time=56736
type=note_on channel=9 note=53 velocity=0 time=0 actual_time=56736
type=note_on channel=9 note=53 velocity=80 time=24 actual_time=56760
type=note_on channel=9 note=40 velocity=80 time=0 actual_time=56760
type=note_on channel=9 note=40 velocity=0 time=96 actual_time=56856
type=note_on channel=9 note=53 velocity=0 time=0 actual_time=56856
type=note_on channel=9 note=53 velocity=80 time=24 actual_time=56880
type=note_on channel=9 note=53 velocity=0 time=64 actual_time=56944
type=note_on channel=9 note=35 velocity=80 time=16 actual_time=56960
type=note_on channel=9 note=35 velocity=0 time=32 actual_time=56992
type=note_on channel=9 note=40 velocity=80 time=8 actual_time=57000
type=note_on channel=9 note=53 velocity=80 time=0 actual_time=57000
type=note_on channel=9 note=53 velocity=0 time=96 actual_time=57096
type=note_on channel=9 note=40 velocity=0 time=0 actual_time=57096
type=note_on channel=9 note=35 velocity=80 time=24 actual_time=57120
type=note_on channel=9 note=53 velocity=80 time=0 actual_time=57120
type=note_on channel=9 note=53 velocity=0 time=96 actual_time=57216
type=note_on channel=9 note=35 velocity=0 time=0 actual_time=57216
type=note_on channel=9 note=49 velocity=80 time=24 actual_time=57240
type=note_on channel=9 note=40 velocity=80 time=0 actual_time=57240
type=note_on channel=9 note=53 velocity=80 time=0 actual_time=57240
type=note_on channel=9 note=53 velocity=0 time=96 actual_time=57336
type=note_on channel=9 note=40 velocity=0 time=0 actual_time=57336
type=note_on channel=9 note=49 velocity=0 time=0 actual_time=57336
type=note_on channel=9 note=53 velocity=80 time=24 actual_time=57360
type=note_on channel=9 note=53 velocity=0 time=64 actual_time=57424
type=note_on channel=9 note=35 velocity=80 time=16 actual_time=57440
type=note_on channel=9 note=35 velocity=0 time=32 actual_time=57472
type=note_on channel=9 note=49 velocity=80 time=8 actual_time=57480
type=note_on channel=9 note=53 velocity=80 time=0 actual_time=57480
type=note_on channel=9 note=40 velocity=80 time=0 actual_time=57480
type=note_on channel=9 note=40 velocity=0 time=96 actual_time=57576
type=note_on channel=9 note=53 velocity=0 time=0 actual_time=57576
type=note_on channel=9 note=49 velocity=0 time=0 actual_time=57576
type=note_on channel=9 note=35 velocity=80 time=24 actual_time=57600
type=note_on channel=9 note=53 velocity=80 time=0 actual_time=57600
type=note_on channel=9 note=53 velocity=0 time=96 actual_time=57696
type=note_on channel=9 note=35 velocity=0 time=0 actual_time=57696
type=note_on channel=9 note=40 velocity=80 time=24 actual_time=57720
type=note_on channel=9 note=53 velocity=80 time=0 actual_time=57720
type=note_on channel=9 note=53 velocity=0 time=96 actual_time=57816
type=note_on channel=9 note=40 velocity=0 time=0 actual_time=57816
type=note_on channel=9 note=53 velocity=80 time=24 actual_time=57840
type=note_on channel=9 note=53 velocity=0 time=64 actual_time=57904
type=note_on channel=9 note=35 velocity=80 time=16 actual_time=57920
type=note_on channel=9 note=35 velocity=0 time=32 actual_time=57952
type=note_on channel=9 note=53 velocity=80 time=8 actual_time=57960
type=note_on channel=9 note=40 velocity=80 time=0 actual_time=57960
type=note_on channel=9 note=40 velocity=0 time=96 actual_time=58056
type=note_on channel=9 note=53 velocity=0 time=0 actual_time=58056
type=note_on channel=9 note=53 velocity=80 time=24 actual_time=58080
type=note_on channel=9 note=35 velocity=80 time=0 actual_time=58080
type=note_on channel=9 note=35 velocity=0 time=96 actual_time=58176
type=note_on channel=9 note=53 velocity=0 time=0 actual_time=58176
type=note_on channel=9 note=53 velocity=80 time=24 actual_time=58200
type=note_on channel=9 note=40 velocity=80 time=0 actual_time=58200
type=note_on channel=9 note=40 velocity=0 time=96 actual_time=58296
type=note_on channel=9 note=53 velocity=0 time=0 actual_time=58296
type=note_on channel=9 note=53 velocity=80 time=24 actual_time=58320
type=note_on channel=9 note=53 velocity=0 time=64 actual_time=58384
type=note_on channel=9 note=35 velocity=80 time=16 actual_time=58400
type=note_on channel=9 note=35 velocity=0 time=32 actual_time=58432
type=note_on channel=9 note=40 velocity=80 time=8 actual_time=58440
type=note_on channel=9 note=53 velocity=80 time=0 actual_time=58440
type=note_on channel=9 note=53 velocity=0 time=96 actual_time=58536
type=note_on channel=9 note=40 velocity=0 time=0 actual_time=58536
type=note_on channel=9 note=49 velocity=80 time=24 actual_time=58560
type=note_on channel=9 note=35 velocity=80 time=0 actual_time=58560
type=note_on channel=9 note=53 velocity=80 time=0 actual_time=58560
type=note_on channel=9 note=53 velocity=0 time=96 actual_time=58656
type=note_on channel=9 note=35 velocity=0 time=0 actual_time=58656
type=note_on channel=9 note=49 velocity=0 time=0 actual_time=58656
type=note_on channel=9 note=40 velocity=80 time=24 actual_time=58680
type=note_on channel=9 note=53 velocity=80 time=0 actual_time=58680
type=note_on channel=9 note=53 velocity=0 time=96 actual_time=58776
type=note_on channel=9 note=40 velocity=0 time=0 actual_time=58776
type=note_on channel=9 note=53 velocity=80 time=24 actual_time=58800
type=note_on channel=9 note=53 velocity=0 time=64 actual_time=58864
type=note_on channel=9 note=35 velocity=80 time=16 actual_time=58880
type=note_on channel=9 note=35 velocity=0 time=32 actual_time=58912
type=note_on channel=9 note=53 velocity=80 time=8 actual_time=58920
type=note_on channel=9 note=40 velocity=80 time=0 actual_time=58920
type=note_on channel=9 note=40 velocity=0 time=96 actual_time=59016
type=note_on channel=9 note=53 velocity=0 time=0 actual_time=59016
type=note_on channel=9 note=53 velocity=80 time=24 actual_time=59040
type=note_on channel=9 note=35 velocity=80 time=0 actual_time=59040
type=note_on channel=9 note=35 velocity=0 time=96 actual_time=59136
type=note_on channel=9 note=53 velocity=0 time=0 actual_time=59136
type=note_on channel=9 note=53 velocity=80 time=24 actual_time=59160
type=note_on channel=9 note=40 velocity=80 time=0 actual_time=59160
type=note_on channel=9 note=49 velocity=80 time=0 actual_time=59160
type=note_on channel=9 note=49 velocity=0 time=96 actual_time=59256
type=note_on channel=9 note=40 velocity=0 time=0 actual_time=59256
type=note_on channel=9 note=53 velocity=0 time=0 actual_time=59256
type=note_on channel=9 note=53 velocity=80 time=24 actual_time=59280
type=note_on channel=9 note=53 velocity=0 time=64 actual_time=59344
type=note_on channel=9 note=35 velocity=80 time=16 actual_time=59360
type=note_on channel=9 note=35 velocity=0 time=32 actual_time=59392
type=note_on channel=9 note=40 velocity=80 time=8 actual_time=59400
type=note_on channel=9 note=53 velocity=80 time=0 actual_time=59400
type=note_on channel=9 note=49 velocity=80 time=0 actual_time=59400
type=note_on channel=9 note=49 velocity=0 time=96 actual_time=59496
type=note_on channel=9 note=53 velocity=0 time=0 actual_time=59496
type=note_on channel=9 note=40 velocity=0 time=0 actual_time=59496
type=note_on channel=9 note=53 velocity=80 time=24 actual_time=59520
type=note_on channel=9 note=35 velocity=80 time=0 actual_time=59520
type=note_on channel=9 note=35 velocity=0 time=96 actual_time=59616
type=note_on channel=9 note=53 velocity=0 time=0 actual_time=59616
type=note_on channel=9 note=53 velocity=80 time=24 actual_time=59640
type=note_on channel=9 note=40 velocity=80 time=0 actual_time=59640
type=note_on channel=9 note=40 velocity=0 time=96 actual_time=59736
type=note_on channel=9 note=53 velocity=0 time=0 actual_time=59736
type=note_on channel=9 note=53 velocity=80 time=24 actual_time=59760
type=note_on channel=9 note=53 velocity=0 time=64 actual_time=59824
type=note_on channel=9 note=35 velocity=80 time=16 actual_time=59840
type=note_on channel=9 note=35 velocity=0 time=32 actual_time=59872
type=note_on channel=9 note=40 velocity=80 time=8 actual_time=59880
type=note_on channel=9 note=53 velocity=80 time=0 actual_time=59880
type=note_on channel=9 note=53 velocity=0 time=96 actual_time=59976
type=note_on channel=9 note=40 velocity=0 time=0 actual_time=59976
type=note_on channel=9 note=53 velocity=80 time=24 actual_time=60000
type=note_on channel=9 note=35 velocity=80 time=0 actual_time=60000
type=note_on channel=9 note=35 velocity=0 time=96 actual_time=60096
type=note_on channel=9 note=53 velocity=0 time=0 actual_time=60096
type=note_on channel=9 note=53 velocity=80 time=24 actual_time=60120
type=note_on channel=9 note=40 velocity=80 time=0 actual_time=60120
type=note_on channel=9 note=40 velocity=0 time=96 actual_time=60216
type=note_on channel=9 note=53 velocity=0 time=0 actual_time=60216
type=note_on channel=9 note=53 velocity=80 time=24 actual_time=60240
type=note_on channel=9 note=53 velocity=0 time=64 actual_time=60304
type=note_on channel=9 note=35 velocity=80 time=16 actual_time=60320
type=note_on channel=9 note=35 velocity=0 time=32 actual_time=60352
type=note_on channel=9 note=53 velocity=80 time=8 actual_time=60360
type=note_on channel=9 note=40 velocity=80 time=0 actual_time=60360
type=note_on channel=9 note=40 velocity=0 time=96 actual_time=60456
type=note_on channel=9 note=53 velocity=0 time=0 actual_time=60456
type=note_on channel=9 note=53 velocity=80 time=24 actual_time=60480
type=note_on channel=9 note=35 velocity=80 time=0 actual_time=60480
type=note_on channel=9 note=49 velocity=80 time=0 actual_time=60480
type=note_on channel=9 note=49 velocity=0 time=96 actual_time=60576
type=note_on channel=9 note=35 velocity=0 time=0 actual_time=60576
type=note_on channel=9 note=53 velocity=0 time=0 actual_time=60576
type=note_on channel=9 note=53 velocity=80 time=24 actual_time=60600
type=note_on channel=9 note=40 velocity=80 time=0 actual_time=60600
type=note_on channel=9 note=40 velocity=0 time=96 actual_time=60696
type=note_on channel=9 note=53 velocity=0 time=0 actual_time=60696
type=note_on channel=9 note=53 velocity=80 time=24 actual_time=60720
type=note_on channel=9 note=53 velocity=0 time=64 actual_time=60784
type=note_on channel=9 note=35 velocity=80 time=16 actual_time=60800
type=note_on channel=9 note=35 velocity=0 time=32 actual_time=60832
type=note_on channel=9 note=53 velocity=80 time=8 actual_time=60840
type=note_on channel=9 note=40 velocity=80 time=0 actual_time=60840
type=note_on channel=9 note=40 velocity=0 time=96 actual_time=60936
type=note_on channel=9 note=53 velocity=0 time=0 actual_time=60936
type=note_on channel=9 note=53 velocity=80 time=24 actual_time=60960
type=note_on channel=9 note=35 velocity=80 time=0 actual_time=60960
type=note_on channel=9 note=35 velocity=0 time=96 actual_time=61056
type=note_on channel=9 note=53 velocity=0 time=0 actual_time=61056
type=note_on channel=9 note=53 velocity=80 time=24 actual_time=61080
type=note_on channel=9 note=40 velocity=80 time=0 actual_time=61080
type=note_on channel=9 note=57 velocity=80 time=0 actual_time=61080
type=note_on channel=9 note=57 velocity=0 time=96 actual_time=61176
type=note_on channel=9 note=40 velocity=0 time=0 actual_time=61176
type=note_on channel=9 note=53 velocity=0 time=0 actual_time=61176
type=note_on channel=9 note=53 velocity=80 time=24 actual_time=61200
type=note_on channel=9 note=53 velocity=0 time=64 actual_time=61264
type=note_on channel=9 note=35 velocity=80 time=16 actual_time=61280
type=note_on channel=9 note=35 velocity=0 time=32 actual_time=61312
type=note_on channel=9 note=40 velocity=80 time=8 actual_time=61320
type=note_on channel=9 note=53 velocity=80 time=0 actual_time=61320
type=note_on channel=9 note=53 velocity=0 time=96 actual_time=61416
type=note_on channel=9 note=40 velocity=0 time=0 actual_time=61416
type=note_on channel=9 note=35 velocity=80 time=24 actual_time=61440
type=note_on channel=9 note=31 velocity=80 time=0 actual_time=61440
type=note_on channel=9 note=49 velocity=80 time=0 actual_time=61440
type=note_on channel=9 note=49 velocity=0 time=32 actual_time=61472
type=note_on channel=9 note=31 velocity=0 time=0 actual_time=61472
type=note_on channel=9 note=35 velocity=0 time=0 actual_time=61472
type=note_on channel=9 note=31 velocity=80 time=8 actual_time=61480
type=note_on channel=9 note=31 velocity=0 time=32 actual_time=61512
type=note_on channel=9 note=31 velocity=80 time=8 actual_time=61520
type=note_on channel=9 note=31 velocity=0 time=32 actual_time=61552
type=note_on channel=9 note=40 velocity=80 time=8 actual_time=61560
type=note_on channel=9 note=40 velocity=0 time=96 actual_time=61656
type=note_on channel=9 note=35 velocity=80 time=24 actual_time=61680
type=note_on channel=9 note=35 velocity=0 time=96 actual_time=61776
type=note_on channel=9 note=40 velocity=80 time=24 actual_time=61800
type=note_on channel=9 note=40 velocity=0 time=96 actual_time=61896
type=note_on channel=9 note=31 velocity=80 time=24 actual_time=61920
type=note_on channel=9 note=35 velocity=80 time=0 actual_time=61920
type=note_on channel=9 note=35 velocity=0 time=32 actual_time=61952
type=note_on channel=9 note=31 velocity=0 time=0 actual_time=61952
type=note_on channel=9 note=31 velocity=80 time=8 actual_time=61960
type=note_on channel=9 note=31 velocity=0 time=32 actual_time=61992
type=note_on channel=9 note=31 velocity=80 time=8 actual_time=62000
type=note_on channel=9 note=31 velocity=0 time=32 actual_time=62032
type=note_on channel=9 note=40 velocity=80 time=8 actual_time=62040
type=note_on channel=9 note=40 velocity=0 time=96 actual_time=62136
type=note_on channel=9 note=35 velocity=80 time=24 actual_time=62160
type=note_on channel=9 note=35 velocity=0 time=96 actual_time=62256
type=note_on channel=9 note=40 velocity=80 time=24 actual_time=62280
type=note_on channel=9 note=40 velocity=0 time=96 actual_time=62376
type=note_on channel=9 note=35 velocity=80 time=24 actual_time=62400
type=note_on channel=9 note=31 velocity=80 time=0 actual_time=62400
type=note_on channel=9 note=31 velocity=0 time=32 actual_time=62432
type=note_on channel=9 note=35 velocity=0 time=0 actual_time=62432
type=note_on channel=9 note=31 velocity=80 time=8 actual_time=62440
type=note_on channel=9 note=31 velocity=0 time=32 actual_time=62472
type=note_on channel=9 note=31 velocity=80 time=8 actual_time=62480
type=note_on channel=9 note=31 velocity=0 time=32 actual_time=62512
type=note_on channel=9 note=40 velocity=80 time=8 actual_time=62520
type=note_on channel=9 note=40 velocity=0 time=96 actual_time=62616
type=note_on channel=9 note=35 velocity=80 time=24 actual_time=62640
type=note_on channel=9 note=35 velocity=0 time=96 actual_time=62736
type=note_on channel=9 note=40 velocity=80 time=24 actual_time=62760
type=note_on channel=9 note=40 velocity=0 time=96 actual_time=62856
type=note_on channel=9 note=31 velocity=80 time=24 actual_time=62880
type=note_on channel=9 note=35 velocity=80 time=0 actual_time=62880
type=note_on channel=9 note=35 velocity=0 time=32 actual_time=62912
type=note_on channel=9 note=31 velocity=0 time=0 actual_time=62912
type=note_on channel=9 note=31 velocity=80 time=8 actual_time=62920
type=note_on channel=9 note=31 velocity=0 time=32 actual_time=62952
type=note_on channel=9 note=31 velocity=80 time=8 actual_time=62960
type=note_on channel=9 note=31 velocity=0 time=32 actual_time=62992
type=note_on channel=9 note=40 velocity=80 time=8 actual_time=63000
type=note_on channel=9 note=40 velocity=0 time=96 actual_time=63096
type=note_on channel=9 note=35 velocity=80 time=24 actual_time=63120
type=note_on channel=9 note=35 velocity=0 time=96 actual_time=63216
type=note_on channel=9 note=40 velocity=80 time=24 actual_time=63240
type=note_on channel=9 note=40 velocity=0 time=96 actual_time=63336
type=note_on channel=9 note=31 velocity=80 time=24 actual_time=63360
type=note_on channel=9 note=35 velocity=80 time=0 actual_time=63360
type=note_on channel=9 note=35 velocity=0 time=32 actual_time=63392
type=note_on channel=9 note=31 velocity=0 time=0 actual_time=63392
type=note_on channel=9 note=31 velocity=80 time=8 actual_time=63400
type=note_on channel=9 note=31 velocity=0 time=32 actual_time=63432
type=note_on channel=9 note=31 velocity=80 time=8 actual_time=63440
type=note_on channel=9 note=31 velocity=0 time=32 actual_time=63472
type=note_on channel=9 note=40 velocity=80 time=8 actual_time=63480
type=note_on channel=9 note=40 velocity=0 time=96 actual_time=63576
type=note_on channel=9 note=35 velocity=80 time=24 actual_time=63600
type=note_on channel=9 note=35 velocity=0 time=96 actual_time=63696
type=note_on channel=9 note=40 velocity=80 time=24 actual_time=63720
type=note_on channel=9 note=40 velocity=0 time=96 actual_time=63816
type=note_on channel=9 note=35 velocity=80 time=24 actual_time=63840
type=note_on channel=9 note=31 velocity=80 time=0 actual_time=63840
type=note_on channel=9 note=31 velocity=0 time=32 actual_time=63872
type=note_on channel=9 note=35 velocity=0 time=0 actual_time=63872
type=note_on channel=9 note=31 velocity=80 time=8 actual_time=63880
type=note_on channel=9 note=31 velocity=0 time=32 actual_time=63912
type=note_on channel=9 note=31 velocity=80 time=8 actual_time=63920
type=note_on channel=9 note=31 velocity=0 time=32 actual_time=63952
type=note_on channel=9 note=40 velocity=80 time=8 actual_time=63960
type=note_on channel=9 note=40 velocity=0 time=96 actual_time=64056
type=note_on channel=9 note=35 velocity=80 time=24 actual_time=64080
type=note_on channel=9 note=35 velocity=0 time=96 actual_time=64176
type=note_on channel=9 note=40 velocity=80 time=24 actual_time=64200
type=note_on channel=9 note=40 velocity=0 time=96 actual_time=64296
type=note_on channel=9 note=35 velocity=80 time=24 actual_time=64320
type=note_on channel=9 note=31 velocity=80 time=0 actual_time=64320
type=note_on channel=9 note=31 velocity=0 time=32 actual_time=64352
type=note_on channel=9 note=35 velocity=0 time=0 actual_time=64352
type=note_on channel=9 note=31 velocity=80 time=8 actual_time=64360
type=note_on channel=9 note=31 velocity=0 time=32 actual_time=64392
type=note_on channel=9 note=31 velocity=80 time=8 actual_time=64400
type=note_on channel=9 note=31 velocity=0 time=32 actual_time=64432
type=note_on channel=9 note=40 velocity=80 time=8 actual_time=64440
type=note_on channel=9 note=40 velocity=0 time=96 actual_time=64536
type=note_on channel=9 note=35 velocity=80 time=24 actual_time=64560
type=note_on channel=9 note=35 velocity=0 time=96 actual_time=64656
type=note_on channel=9 note=40 velocity=80 time=24 actual_time=64680
type=note_on channel=9 note=40 velocity=0 time=96 actual_time=64776
type=note_on channel=9 note=31 velocity=80 time=24 actual_time=64800
type=note_on channel=9 note=35 velocity=80 time=0 actual_time=64800
type=note_on channel=9 note=35 velocity=0 time=32 actual_time=64832
type=note_on channel=9 note=31 velocity=0 time=0 actual_time=64832
type=note_on channel=9 note=31 velocity=80 time=8 actual_time=64840
type=note_on channel=9 note=31 velocity=0 time=32 actual_time=64872
type=note_on channel=9 note=31 velocity=80 time=8 actual_time=64880
type=note_on channel=9 note=31 velocity=0 time=32 actual_time=64912
type=note_on channel=9 note=40 velocity=80 time=8 actual_time=64920
type=note_on channel=9 note=40 velocity=0 time=96 actual_time=65016
type=note_on channel=9 note=35 velocity=80 time=24 actual_time=65040
type=note_on channel=9 note=35 velocity=0 time=96 actual_time=65136
type=note_on channel=9 note=40 velocity=80 time=24 actual_time=65160
type=note_on channel=9 note=40 velocity=0 time=96 actual_time=65256
type=note_on channel=9 note=31 velocity=80 time=24 actual_time=65280
type=note_on channel=9 note=35 velocity=80 time=0 actual_time=65280
type=note_on channel=9 note=35 velocity=0 time=32 actual_time=65312
type=note_on channel=9 note=31 velocity=0 time=0 actual_time=65312
type=note_on channel=9 note=31 velocity=80 time=8 actual_time=65320
type=note_on channel=9 note=31 velocity=0 time=32 actual_time=65352
type=note_on channel=9 note=31 velocity=80 time=8 actual_time=65360
type=note_on channel=9 note=31 velocity=0 time=32 actual_time=65392
type=note_on channel=9 note=40 velocity=80 time=8 actual_time=65400
type=note_on channel=9 note=40 velocity=0 time=96 actual_time=65496
type=note_on channel=9 note=35 velocity=80 time=24 actual_time=65520
type=note_on channel=9 note=35 velocity=0 time=96 actual_time=65616
type=note_on channel=9 note=40 velocity=80 time=24 actual_time=65640
type=note_on channel=9 note=40 velocity=0 time=96 actual_time=65736
type=note_on channel=9 note=35 velocity=80 time=24 actual_time=65760
type=note_on channel=9 note=31 velocity=80 time=0 actual_time=65760
type=note_on channel=9 note=31 velocity=0 time=32 actual_time=65792
type=note_on channel=9 note=35 velocity=0 time=0 actual_time=65792
type=note_on channel=9 note=31 velocity=80 time=8 actual_time=65800
type=note_on channel=9 note=31 velocity=0 time=32 actual_time=65832
type=note_on channel=9 note=31 velocity=80 time=8 actual_time=65840
type=note_on channel=9 note=31 velocity=0 time=32 actual_time=65872
type=note_on channel=9 note=40 velocity=80 time=8 actual_time=65880
type=note_on channel=9 note=40 velocity=0 time=96 actual_time=65976
type=note_on channel=9 note=35 velocity=80 time=24 actual_time=66000
type=note_on channel=9 note=35 velocity=0 time=96 actual_time=66096
type=note_on channel=9 note=40 velocity=80 time=24 actual_time=66120
type=note_on channel=9 note=40 velocity=0 time=96 actual_time=66216
type=note_on channel=9 note=31 velocity=80 time=24 actual_time=66240
type=note_on channel=9 note=35 velocity=80 time=0 actual_time=66240
type=note_on channel=9 note=35 velocity=0 time=32 actual_time=66272
type=note_on channel=9 note=31 velocity=0 time=0 actual_time=66272
type=note_on channel=9 note=31 velocity=80 time=8 actual_time=66280
type=note_on channel=9 note=31 velocity=0 time=32 actual_time=66312
type=note_on channel=9 note=31 velocity=80 time=8 actual_time=66320
type=note_on channel=9 note=31 velocity=0 time=32 actual_time=66352
type=note_on channel=9 note=40 velocity=80 time=8 actual_time=66360
type=note_on channel=9 note=40 velocity=0 time=96 actual_time=66456
type=note_on channel=9 note=35 velocity=80 time=24 actual_time=66480
type=note_on channel=9 note=35 velocity=0 time=96 actual_time=66576
type=note_on channel=9 note=40 velocity=80 time=24 actual_time=66600
type=note_on channel=9 note=40 velocity=0 time=96 actual_time=66696
type=note_on channel=9 note=35 velocity=80 time=24 actual_time=66720
type=note_on channel=9 note=31 velocity=80 time=0 actual_time=66720
type=note_on channel=9 note=31 velocity=0 time=32 actual_time=66752
type=note_on channel=9 note=35 velocity=0 time=0 actual_time=66752
type=note_on channel=9 note=31 velocity=80 time=8 actual_time=66760
type=note_on channel=9 note=31 velocity=0 time=32 actual_time=66792
type=note_on channel=9 note=31 velocity=80 time=8 actual_time=66800
type=note_on channel=9 note=31 velocity=0 time=32 actual_time=66832
type=note_on channel=9 note=40 velocity=80 time=8 actual_time=66840
type=note_on channel=9 note=40 velocity=0 time=96 actual_time=66936
type=note_on channel=9 note=35 velocity=80 time=24 actual_time=66960
type=note_on channel=9 note=35 velocity=0 time=96 actual_time=67056
type=note_on channel=9 note=40 velocity=80 time=24 actual_time=67080
type=note_on channel=9 note=40 velocity=0 time=96 actual_time=67176
type=note_on channel=9 note=35 velocity=80 time=24 actual_time=67200
type=note_on channel=9 note=31 velocity=80 time=0 actual_time=67200
type=note_on channel=9 note=31 velocity=0 time=32 actual_time=67232
type=note_on channel=9 note=35 velocity=0 time=0 actual_time=67232
type=note_on channel=9 note=31 velocity=80 time=8 actual_time=67240
type=note_on channel=9 note=31 velocity=0 time=32 actual_time=67272
type=note_on channel=9 note=31 velocity=80 time=8 actual_time=67280
type=note_on channel=9 note=31 velocity=0 time=32 actual_time=67312
type=note_on channel=9 note=40 velocity=80 time=8 actual_time=67320
type=note_on channel=9 note=40 velocity=0 time=96 actual_time=67416
type=note_on channel=9 note=35 velocity=80 time=24 actual_time=67440
type=note_on channel=9 note=35 velocity=0 time=96 actual_time=67536
type=note_on channel=9 note=40 velocity=80 time=24 actual_time=67560
type=note_on channel=9 note=40 velocity=0 time=96 actual_time=67656
type=note_on channel=9 note=35 velocity=80 time=24 actual_time=67680
type=note_on channel=9 note=31 velocity=80 time=0 actual_time=67680
type=note_on channel=9 note=31 velocity=0 time=32 actual_time=67712
type=note_on channel=9 note=35 velocity=0 time=0 actual_time=67712
type=note_on channel=9 note=31 velocity=80 time=8 actual_time=67720
type=note_on channel=9 note=31 velocity=0 time=32 actual_time=67752
type=note_on channel=9 note=31 velocity=80 time=8 actual_time=67760
type=note_on channel=9 note=31 velocity=0 time=32 actual_time=67792
type=note_on channel=9 note=40 velocity=80 time=8 actual_time=67800
type=note_on channel=9 note=40 velocity=0 time=96 actual_time=67896
type=note_on channel=9 note=35 velocity=80 time=24 actual_time=67920
type=note_on channel=9 note=35 velocity=0 time=96 actual_time=68016
type=note_on channel=9 note=40 velocity=80 time=24 actual_time=68040
type=note_on channel=9 note=40 velocity=0 time=96 actual_time=68136
type=note_on channel=9 note=35 velocity=80 time=24 actual_time=68160
type=note_on channel=9 note=31 velocity=80 time=0 actual_time=68160
type=note_on channel=9 note=31 velocity=0 time=32 actual_time=68192
type=note_on channel=9 note=35 velocity=0 time=0 actual_time=68192
type=note_on channel=9 note=31 velocity=80 time=8 actual_time=68200
type=note_on channel=9 note=31 velocity=0 time=32 actual_time=68232
type=note_on channel=9 note=31 velocity=80 time=8 actual_time=68240
type=note_on channel=9 note=31 velocity=0 time=32 actual_time=68272
type=note_on channel=9 note=40 velocity=80 time=8 actual_time=68280
type=note_on channel=9 note=40 velocity=0 time=96 actual_time=68376
type=note_on channel=9 note=35 velocity=80 time=24 actual_time=68400
type=note_on channel=9 note=35 velocity=0 time=96 actual_time=68496
type=note_on channel=9 note=40 velocity=80 time=24 actual_time=68520
type=note_on channel=9 note=40 velocity=0 time=96 actual_time=68616
type=note_on channel=9 note=35 velocity=80 time=24 actual_time=68640
type=note_on channel=9 note=31 velocity=80 time=0 actual_time=68640
type=note_on channel=9 note=31 velocity=0 time=32 actual_time=68672
type=note_on channel=9 note=35 velocity=0 time=0 actual_time=68672
type=note_on channel=9 note=31 velocity=80 time=8 actual_time=68680
type=note_on channel=9 note=31 velocity=0 time=32 actual_time=68712
type=note_on channel=9 note=31 velocity=80 time=8 actual_time=68720
type=note_on channel=9 note=31 velocity=0 time=32 actual_time=68752
type=note_on channel=9 note=40 velocity=80 time=8 actual_time=68760
type=note_on channel=9 note=40 velocity=0 time=96 actual_time=68856
type=note_on channel=9 note=35 velocity=80 time=24 actual_time=68880
type=note_on channel=9 note=35 velocity=0 time=96 actual_time=68976
type=note_on channel=9 note=40 velocity=80 time=24 actual_time=69000
type=note_on channel=9 note=40 velocity=0 time=96 actual_time=69096
type=note_on channel=9 note=35 velocity=80 time=24 actual_time=69120
type=note_on channel=9 note=31 velocity=80 time=0 actual_time=69120
type=note_on channel=9 note=31 velocity=0 time=32 actual_time=69152
type=note_on channel=9 note=35 velocity=0 time=0 actual_time=69152
type=note_on channel=9 note=31 velocity=80 time=8 actual_time=69160
type=note_on channel=9 note=31 velocity=0 time=32 actual_time=69192
type=note_on channel=9 note=31 velocity=80 time=8 actual_time=69200
type=note_on channel=9 note=31 velocity=0 time=32 actual_time=69232
type=note_on channel=9 note=40 velocity=80 time=8 actual_time=69240
type=note_on channel=9 note=40 velocity=0 time=96 actual_time=69336
type=note_on channel=9 note=35 velocity=80 time=24 actual_time=69360
type=note_on channel=9 note=35 velocity=0 time=96 actual_time=69456
type=note_on channel=9 note=40 velocity=80 time=24 actual_time=69480
type=note_on channel=9 note=40 velocity=0 time=96 actual_time=69576
type=note_on channel=9 note=31 velocity=80 time=24 actual_time=69600
type=note_on channel=9 note=35 velocity=80 time=0 actual_time=69600
type=note_on channel=9 note=35 velocity=0 time=32 actual_time=69632
type=note_on channel=9 note=31 velocity=0 time=0 actual_time=69632
type=note_on channel=9 note=31 velocity=80 time=8 actual_time=69640
type=note_on channel=9 note=31 velocity=0 time=32 actual_time=69672
type=note_on channel=9 note=31 velocity=80 time=8 actual_time=69680
type=note_on channel=9 note=31 velocity=0 time=32 actual_time=69712
type=note_on channel=9 note=40 velocity=80 time=8 actual_time=69720
type=note_on channel=9 note=40 velocity=0 time=96 actual_time=69816
type=note_on channel=9 note=35 velocity=80 time=24 actual_time=69840
type=note_on channel=9 note=35 velocity=0 time=96 actual_time=69936
type=note_on channel=9 note=40 velocity=80 time=24 actual_time=69960
type=note_on channel=9 note=40 velocity=0 time=96 actual_time=70056
type=note_on channel=9 note=35 velocity=80 time=24 actual_time=70080
type=note_on channel=9 note=31 velocity=80 time=0 actual_time=70080
type=note_on channel=9 note=31 velocity=0 time=32 actual_time=70112
type=note_on channel=9 note=35 velocity=0 time=0 actual_time=70112
type=note_on channel=9 note=31 velocity=80 time=8 actual_time=70120
type=note_on channel=9 note=31 velocity=0 time=32 actual_time=70152
type=note_on channel=9 note=31 velocity=80 time=8 actual_time=70160
type=note_on channel=9 note=31 velocity=0 time=32 actual_time=70192
type=note_on channel=9 note=40 velocity=80 time=8 actual_time=70200
type=note_on channel=9 note=40 velocity=0 time=96 actual_time=70296
type=note_on channel=9 note=35 velocity=80 time=24 actual_time=70320
type=note_on channel=9 note=35 velocity=0 time=96 actual_time=70416
type=note_on channel=9 note=40 velocity=80 time=24 actual_time=70440
type=note_on channel=9 note=40 velocity=0 time=96 actual_time=70536
type=note_on channel=9 note=31 velocity=80 time=24 actual_time=70560
type=note_on channel=9 note=35 velocity=80 time=0 actual_time=70560
type=note_on channel=9 note=35 velocity=0 time=32 actual_time=70592
type=note_on channel=9 note=31 velocity=0 time=0 actual_time=70592
type=note_on channel=9 note=31 velocity=80 time=8 actual_time=70600
type=note_on channel=9 note=31 velocity=0 time=32 actual_time=70632
type=note_on channel=9 note=31 velocity=80 time=8 actual_time=70640
type=note_on channel=9 note=31 velocity=0 time=32 actual_time=70672
type=note_on channel=9 note=40 velocity=80 time=8 actual_time=70680
type=note_on channel=9 note=40 velocity=0 time=96 actual_time=70776
type=note_on channel=9 note=35 velocity=80 time=24 actual_time=70800
type=note_on channel=9 note=35 velocity=0 time=96 actual_time=70896
type=note_on channel=9 note=40 velocity=80 time=24 actual_time=70920
type=note_on channel=9 note=40 velocity=0 time=96 actual_time=71016
type=note_on channel=9 note=31 velocity=80 time=24 actual_time=71040
type=note_on channel=9 note=35 velocity=80 time=0 actual_time=71040
type=note_on channel=9 note=35 velocity=0 time=32 actual_time=71072
type=note_on channel=9 note=31 velocity=0 time=0 actual_time=71072
type=note_on channel=9 note=31 velocity=80 time=8 actual_time=71080
type=note_on channel=9 note=31 velocity=0 time=32 actual_time=71112
type=note_on channel=9 note=31 velocity=80 time=8 actual_time=71120
type=note_on channel=9 note=31 velocity=0 time=32 actual_time=71152
type=note_on channel=9 note=40 velocity=80 time=8 actual_time=71160
type=note_on channel=9 note=40 velocity=0 time=96 actual_time=71256
type=note_on channel=9 note=35 velocity=80 time=24 actual_time=71280
type=note_on channel=9 note=35 velocity=0 time=96 actual_time=71376
type=note_on channel=9 note=40 velocity=80 time=24 actual_time=71400
type=note_on channel=9 note=40 velocity=0 time=96 actual_time=71496
type=note_on channel=9 note=35 velocity=80 time=24 actual_time=71520
type=note_on channel=9 note=31 velocity=80 time=0 actual_time=71520
type=note_on channel=9 note=31 velocity=0 time=32 actual_time=71552
type=note_on channel=9 note=35 velocity=0 time=0 actual_time=71552
type=note_on channel=9 note=31 velocity=80 time=8 actual_time=71560
type=note_on channel=9 note=31 velocity=0 time=32 actual_time=71592
type=note_on channel=9 note=31 velocity=80 time=8 actual_time=71600
type=note_on channel=9 note=31 velocity=0 time=32 actual_time=71632
type=note_on channel=9 note=40 velocity=80 time=8 actual_time=71640
type=note_on channel=9 note=40 velocity=0 time=96 actual_time=71736
type=note_on channel=9 note=35 velocity=80 time=24 actual_time=71760
type=note_on channel=9 note=35 velocity=0 time=96 actual_time=71856
type=note_on channel=9 note=40 velocity=80 time=24 actual_time=71880
type=note_on channel=9 note=40 velocity=0 time=96 actual_time=71976
type=note_on channel=9 note=35 velocity=80 time=24 actual_time=72000
type=note_on channel=9 note=31 velocity=80 time=0 actual_time=72000
type=note_on channel=9 note=31 velocity=0 time=32 actual_time=72032
type=note_on channel=9 note=35 velocity=0 time=0 actual_time=72032
type=note_on channel=9 note=31 velocity=80 time=8 actual_time=72040
type=note_on channel=9 note=31 velocity=0 time=32 actual_time=72072
type=note_on channel=9 note=31 velocity=80 time=8 actual_time=72080
type=note_on channel=9 note=31 velocity=0 time=32 actual_time=72112
type=note_on channel=9 note=40 velocity=80 time=8 actual_time=72120
type=note_on channel=9 note=40 velocity=0 time=96 actual_time=72216
type=note_on channel=9 note=35 velocity=80 time=24 actual_time=72240
type=note_on channel=9 note=35 velocity=0 time=96 actual_time=72336
type=note_on channel=9 note=40 velocity=80 time=24 actual_time=72360
type=note_on channel=9 note=40 velocity=0 time=96 actual_time=72456
type=note_on channel=9 note=40 velocity=80 time=24 actual_time=72480
type=note_on channel=9 note=40 velocity=0 time=32 actual_time=72512
type=note_on channel=9 note=40 velocity=80 time=8 actual_time=72520
type=note_on channel=9 note=40 velocity=0 time=32 actual_time=72552
type=note_on channel=9 note=40 velocity=80 time=8 actual_time=72560
type=note_on channel=9 note=40 velocity=0 time=32 actual_time=72592
type=note_on channel=9 note=40 velocity=80 time=8 actual_time=72600
type=note_on channel=9 note=40 velocity=0 time=32 actual_time=72632
type=note_on channel=9 note=40 velocity=80 time=8 actual_time=72640
type=note_on channel=9 note=40 velocity=0 time=32 actual_time=72672
type=note_on channel=9 note=40 velocity=80 time=8 actual_time=72680
type=note_on channel=9 note=40 velocity=0 time=32 actual_time=72712
type=note_on channel=9 note=40 velocity=80 time=8 actual_time=72720
type=note_on channel=9 note=47 velocity=80 time=0 actual_time=72720
type=note_on channel=9 note=47 velocity=0 time=32 actual_time=72752
type=note_on channel=9 note=40 velocity=0 time=0 actual_time=72752
type=note_on channel=9 note=45 velocity=80 time=8 actual_time=72760
type=note_on channel=9 note=40 velocity=80 time=0 actual_time=72760
type=note_on channel=9 note=40 velocity=0 time=32 actual_time=72792
type=note_on channel=9 note=45 velocity=0 time=0 actual_time=72792
type=note_on channel=9 note=43 velocity=80 time=8 actual_time=72800
type=note_on channel=9 note=40 velocity=80 time=0 actual_time=72800
type=note_on channel=9 note=40 velocity=0 time=32 actual_time=72832
type=note_on channel=9 note=43 velocity=0 time=0 actual_time=72832
type=note_on channel=9 note=40 velocity=80 time=8 actual_time=72840
type=note_on channel=9 note=47 velocity=80 time=0 actual_time=72840
type=note_on channel=9 note=47 velocity=0 time=32 actual_time=72872
type=note_on channel=9 note=40 velocity=0 time=0 actual_time=72872
type=note_on channel=9 note=40 velocity=80 time=8 actual_time=72880
type=note_on channel=9 note=45 velocity=80 time=0 actual_time=72880
type=note_on channel=9 note=45 velocity=0 time=32 actual_time=72912
type=note_on channel=9 note=40 velocity=0 time=0 actual_time=72912
type=note_on channel=9 note=40 velocity=80 time=8 actual_time=72920
type=note_on channel=9 note=43 velocity=80 time=0 actual_time=72920
type=note_on channel=9 note=43 velocity=0 time=32 actual_time=72952
type=note_on channel=9 note=40 velocity=0 time=0 actual_time=72952
type=note_on channel=9 note=53 velocity=80 time=8 actual_time=72960
type=note_on channel=9 note=49 velocity=80 time=0 actual_time=72960
type=note_on channel=9 note=35 velocity=80 time=0 actual_time=72960
type=note_on channel=9 note=59 velocity=80 time=0 actual_time=72960
type=note_on channel=9 note=59 velocity=0 time=96 actual_time=73056
type=note_on channel=9 note=53 velocity=0 time=0 actual_time=73056
type=note_on channel=9 note=49 velocity=0 time=0 actual_time=73056
type=note_on channel=9 note=35 velocity=0 time=0 actual_time=73056
type=note_on channel=9 note=53 velocity=80 time=24 actual_time=73080
type=note_on channel=9 note=40 velocity=80 time=0 actual_time=73080
type=note_on channel=9 note=59 velocity=80 time=0 actual_time=73080
type=note_on channel=9 note=59 velocity=0 time=96 actual_time=73176
type=note_on channel=9 note=40 velocity=0 time=0 actual_time=73176
type=note_on channel=9 note=53 velocity=0 time=0 actual_time=73176
type=note_on channel=9 note=53 velocity=80 time=24 actual_time=73200
type=note_on channel=9 note=59 velocity=80 time=0 actual_time=73200
type=note_on channel=9 note=59 velocity=0 time=64 actual_time=73264
type=note_on channel=9 note=53 velocity=0 time=0 actual_time=73264
type=note_on channel=9 note=35 velocity=80 time=16 actual_time=73280
type=note_on channel=9 note=35 velocity=0 time=32 actual_time=73312
type=note_on channel=9 note=40 velocity=80 time=8 actual_time=73320
type=note_on channel=9 note=53 velocity=80 time=0 actual_time=73320
type=note_on channel=9 note=59 velocity=80 time=0 actual_time=73320
type=note_on channel=9 note=59 velocity=0 time=96 actual_time=73416
type=note_on channel=9 note=53 velocity=0 time=0 actual_time=73416
type=note_on channel=9 note=40 velocity=0 time=0 actual_time=73416
type=note_on channel=9 note=53 velocity=80 time=24 actual_time=73440
type=note_on channel=9 note=59 velocity=80 time=0 actual_time=73440
type=note_on channel=9 note=35 velocity=80 time=0 actual_time=73440
type=note_on channel=9 note=35 velocity=0 time=96 actual_time=73536
type=note_on channel=9 note=59 velocity=0 time=0 actual_time=73536
type=note_on channel=9 note=53 velocity=0 time=0 actual_time=73536
type=note_on channel=9 note=59 velocity=80 time=24 actual_time=73560
type=note_on channel=9 note=40 velocity=80 time=0 actual_time=73560
type=note_on channel=9 note=53 velocity=80 time=0 actual_time=73560
type=note_on channel=9 note=53 velocity=0 time=96 actual_time=73656
type=note_on channel=9 note=40 velocity=0 time=0 actual_time=73656
type=note_on channel=9 note=59 velocity=0 time=0 actual_time=73656
type=note_on channel=9 note=59 velocity=80 time=24 actual_time=73680
type=note_on channel=9 note=53 velocity=80 time=0 actual_time=73680
type=note_on channel=9 note=53 velocity=0 time=64 actual_time=73744
type=note_on channel=9 note=59 velocity=0 time=0 actual_time=73744
type=note_on channel=9 note=35 velocity=80 time=16 actual_time=73760
type=note_on channel=9 note=35 velocity=0 time=32 actual_time=73792
type=note_on channel=9 note=59 velocity=80 time=8 actual_time=73800
type=note_on channel=9 note=53 velocity=80 time=0 actual_time=73800
type=note_on channel=9 note=40 velocity=80 time=0 actual_time=73800
type=note_on channel=9 note=40 velocity=0 time=96 actual_time=73896
type=note_on channel=9 note=53 velocity=0 time=0 actual_time=73896
type=note_on channel=9 note=59 velocity=0 time=0 actual_time=73896
type=note_on channel=9 note=59 velocity=80 time=24 actual_time=73920
type=note_on channel=9 note=35 velocity=80 time=0 actual_time=73920
type=note_on channel=9 note=49 velocity=80 time=0 actual_time=73920
type=note_on channel=9 note=53 velocity=80 time=0 actual_time=73920
type=note_on channel=9 note=53 velocity=0 time=96 actual_time=74016
type=note_on channel=9 note=59 velocity=0 time=0 actual_time=74016
type=note_on channel=9 note=35 velocity=0 time=0 actual_time=74016
type=note_on channel=9 note=49 velocity=0 time=0 actual_time=74016
type=note_on channel=9 note=59 velocity=80 time=24 actual_time=74040
type=note_on channel=9 note=40 velocity=80 time=0 actual_time=74040
type=note_on channel=9 note=53 velocity=80 time=0 actual_time=74040
type=note_on channel=9 note=53 velocity=0 time=96 actual_time=74136
type=note_on channel=9 note=40 velocity=0 time=0 actual_time=74136
type=note_on channel=9 note=59 velocity=0 time=0 actual_time=74136
type=note_on channel=9 note=59 velocity=80 time=24 actual_time=74160
type=note_on channel=9 note=53 velocity=80 time=0 actual_time=74160
type=note_on channel=9 note=53 velocity=0 time=64 actual_time=74224
type=note_on channel=9 note=59 velocity=0 time=0 actual_time=74224
type=note_on channel=9 note=35 velocity=80 time=16 actual_time=74240
type=note_on channel=9 note=35 velocity=0 time=32 actual_time=74272
type=note_on channel=9 note=59 velocity=80 time=8 actual_time=74280
type=note_on channel=9 note=53 velocity=80 time=0 actual_time=74280
type=note_on channel=9 note=40 velocity=80 time=0 actual_time=74280
type=note_on channel=9 note=40 velocity=0 time=96 actual_time=74376
type=note_on channel=9 note=53 velocity=0 time=0 actual_time=74376
type=note_on channel=9 note=59 velocity=0 time=0 actual_time=74376
type=note_on channel=9 note=59 velocity=80 time=24 actual_time=74400
type=note_on channel=9 note=53 velocity=80 time=0 actual_time=74400
type=note_on channel=9 note=35 velocity=80 time=0 actual_time=74400
type=note_on channel=9 note=35 velocity=0 time=64 actual_time=74464
type=note_on channel=9 note=53 velocity=0 time=0 actual_time=74464
type=note_on channel=9 note=59 velocity=0 time=0 actual_time=74464
type=note_on channel=9 note=35 velocity=80 time=16 actual_time=74480
type=note_on channel=9 note=35 velocity=0 time=32 actual_time=74512
type=note_on channel=9 note=59 velocity=80 time=8 actual_time=74520
type=note_on channel=9 note=53 velocity=80 time=0 actual_time=74520
type=note_on channel=9 note=40 velocity=80 time=0 actual_time=74520
type=note_on channel=9 note=49 velocity=80 time=0 actual_time=74520
type=note_on channel=9 note=49 velocity=0 time=96 actual_time=74616
type=note_on channel=9 note=59 velocity=0 time=0 actual_time=74616
type=note_on channel=9 note=53 velocity=0 time=0 actual_time=74616
type=note_on channel=9 note=40 velocity=0 time=0 actual_time=74616
type=note_on channel=9 note=59 velocity=80 time=24 actual_time=74640
type=note_on channel=9 note=53 velocity=80 time=0 actual_time=74640
type=note_on channel=9 note=35 velocity=80 time=0 actual_time=74640
type=note_on channel=9 note=35 velocity=0 time=64 actual_time=74704
type=note_on channel=9 note=53 velocity=0 time=0 actual_time=74704
type=note_on channel=9 note=59 velocity=0 time=0 actual_time=74704
type=note_on channel=9 note=35 velocity=80 time=16 actual_time=74720
type=note_on channel=9 note=35 velocity=0 time=32 actual_time=74752
type=note_on channel=9 note=59 velocity=80 time=8 actual_time=74760
type=note_on channel=9 note=53 velocity=80 time=0 actual_time=74760
type=note_on channel=9 note=40 velocity=80 time=0 actual_time=74760
type=note_on channel=9 note=49 velocity=80 time=0 actual_time=74760
type=note_on channel=9 note=49 velocity=0 time=96 actual_time=74856
type=note_on channel=9 note=59 velocity=0 time=0 actual_time=74856
type=note_on channel=9 note=53 velocity=0 time=0 actual_time=74856
type=note_on channel=9 note=40 velocity=0 time=0 actual_time=74856
type=note_on channel=9 note=53 velocity=80 time=24 actual_time=74880
type=note_on channel=9 note=49 velocity=80 time=0 actual_time=74880
type=note_on channel=9 note=35 velocity=80 time=0 actual_time=74880
type=note_on channel=9 note=59 velocity=80 time=0 actual_time=74880
type=note_on channel=9 note=59 velocity=0 time=96 actual_time=74976
type=note_on channel=9 note=53 velocity=0 time=0 actual_time=74976
type=note_on channel=9 note=49 velocity=0 time=0 actual_time=74976
type=note_on channel=9 note=35 velocity=0 time=0 actual_time=74976
type=note_on channel=9 note=53 velocity=80 time=24 actual_time=75000
type=note_on channel=9 note=40 velocity=80 time=0 actual_time=75000
type=note_on channel=9 note=59 velocity=80 time=0 actual_time=75000
type=note_on channel=9 note=59 velocity=0 time=96 actual_time=75096
type=note_on channel=9 note=40 velocity=0 time=0 actual_time=75096
type=note_on channel=9 note=53 velocity=0 time=0 actual_time=75096
type=note_on channel=9 note=53 velocity=80 time=24 actual_time=75120
type=note_on channel=9 note=59 velocity=80 time=0 actual_time=75120
type=note_on channel=9 note=59 velocity=0 time=64 actual_time=75184
type=note_on channel=9 note=53 velocity=0 time=0 actual_time=75184
type=note_on channel=9 note=35 velocity=80 time=16 actual_time=75200
type=note_on channel=9 note=35 velocity=0 time=32 actual_time=75232
type=note_on channel=9 note=40 velocity=80 time=8 actual_time=75240
type=note_on channel=9 note=53 velocity=80 time=0 actual_time=75240
type=note_on channel=9 note=59 velocity=80 time=0 actual_time=75240
type=note_on channel=9 note=59 velocity=0 time=96 actual_time=75336
type=note_on channel=9 note=53 velocity=0 time=0 actual_time=75336
type=note_on channel=9 note=40 velocity=0 time=0 actual_time=75336
type=note_on channel=9 note=53 velocity=80 time=24 actual_time=75360
type=note_on channel=9 note=59 velocity=80 time=0 actual_time=75360
type=note_on channel=9 note=35 velocity=80 time=0 actual_time=75360
type=note_on channel=9 note=35 velocity=0 time=96 actual_time=75456
type=note_on channel=9 note=59 velocity=0 time=0 actual_time=75456
type=note_on channel=9 note=53 velocity=0 time=0 actual_time=75456
type=note_on channel=9 note=59 velocity=80 time=24 actual_time=75480
type=note_on channel=9 note=40 velocity=80 time=0 actual_time=75480
type=note_on channel=9 note=53 velocity=80 time=0 actual_time=75480
type=note_on channel=9 note=53 velocity=0 time=96 actual_time=75576
type=note_on channel=9 note=40 velocity=0 time=0 actual_time=75576
type=note_on channel=9 note=59 velocity=0 time=0 actual_time=75576
type=note_on channel=9 note=59 velocity=80 time=24 actual_time=75600
type=note_on channel=9 note=53 velocity=80 time=0 actual_time=75600
type=note_on channel=9 note=53 velocity=0 time=64 actual_time=75664
type=note_on channel=9 note=59 velocity=0 time=0 actual_time=75664
type=note_on channel=9 note=35 velocity=80 time=16 actual_time=75680
type=note_on channel=9 note=35 velocity=0 time=32 actual_time=75712
type=note_on channel=9 note=59 velocity=80 time=8 actual_time=75720
type=note_on channel=9 note=53 velocity=80 time=0 actual_time=75720
type=note_on channel=9 note=40 velocity=80 time=0 actual_time=75720
type=note_on channel=9 note=40 velocity=0 time=96 actual_time=75816
type=note_on channel=9 note=53 velocity=0 time=0 actual_time=75816
type=note_on channel=9 note=59 velocity=0 time=0 actual_time=75816
type=note_on channel=9 note=59 velocity=80 time=24 actual_time=75840
type=note_on channel=9 note=35 velocity=80 time=0 actual_time=75840
type=note_on channel=9 note=49 velocity=80 time=0 actual_time=75840
type=note_on channel=9 note=53 velocity=80 time=0 actual_time=75840
type=note_on channel=9 note=53 velocity=0 time=96 actual_time=75936
type=note_on channel=9 note=59 velocity=0 time=0 actual_time=75936
type=note_on channel=9 note=35 velocity=0 time=0 actual_time=75936
type=note_on channel=9 note=49 velocity=0 time=0 actual_time=75936
type=note_on channel=9 note=59 velocity=80 time=24 actual_time=75960
type=note_on channel=9 note=40 velocity=80 time=0 actual_time=75960
type=note_on channel=9 note=53 velocity=80 time=0 actual_time=75960
type=note_on channel=9 note=53 velocity=0 time=96 actual_time=76056
type=note_on channel=9 note=40 velocity=0 time=0 actual_time=76056
type=note_on channel=9 note=59 velocity=0 time=0 actual_time=76056
type=note_on channel=9 note=59 velocity=80 time=24 actual_time=76080
type=note_on channel=9 note=53 velocity=80 time=0 actual_time=76080
type=note_on channel=9 note=53 velocity=0 time=64 actual_time=76144
type=note_on channel=9 note=59 velocity=0 time=0 actual_time=76144
type=note_on channel=9 note=35 velocity=80 time=16 actual_time=76160
type=note_on channel=9 note=35 velocity=0 time=32 actual_time=76192
type=note_on channel=9 note=59 velocity=80 time=8 actual_time=76200
type=note_on channel=9 note=53 velocity=80 time=0 actual_time=76200
type=note_on channel=9 note=40 velocity=80 time=0 actual_time=76200
type=note_on channel=9 note=40 velocity=0 time=96 actual_time=76296
type=note_on channel=9 note=53 velocity=0 time=0 actual_time=76296
type=note_on channel=9 note=59 velocity=0 time=0 actual_time=76296
type=note_on channel=9 note=59 velocity=80 time=24 actual_time=76320
type=note_on channel=9 note=53 velocity=80 time=0 actual_time=76320
type=note_on channel=9 note=35 velocity=80 time=0 actual_time=76320
type=note_on channel=9 note=35 velocity=0 time=64 actual_time=76384
type=note_on channel=9 note=53 velocity=0 time=0 actual_time=76384
type=note_on channel=9 note=59 velocity=0 time=0 actual_time=76384
type=note_on channel=9 note=35 velocity=80 time=16 actual_time=76400
type=note_on channel=9 note=35 velocity=0 time=32 actual_time=76432
type=note_on channel=9 note=59 velocity=80 time=8 actual_time=76440
type=note_on channel=9 note=53 velocity=80 time=0 actual_time=76440
type=note_on channel=9 note=40 velocity=80 time=0 actual_time=76440
type=note_on channel=9 note=49 velocity=80 time=0 actual_time=76440
type=note_on channel=9 note=49 velocity=0 time=96 actual_time=76536
type=note_on channel=9 note=59 velocity=0 time=0 actual_time=76536
type=note_on channel=9 note=53 velocity=0 time=0 actual_time=76536
type=note_on channel=9 note=40 velocity=0 time=0 actual_time=76536
type=note_on channel=9 note=59 velocity=80 time=24 actual_time=76560
type=note_on channel=9 note=53 velocity=80 time=0 actual_time=76560
type=note_on channel=9 note=35 velocity=80 time=0 actual_time=76560
type=note_on channel=9 note=35 velocity=0 time=64 actual_time=76624
type=note_on channel=9 note=53 velocity=0 time=0 actual_time=76624
type=note_on channel=9 note=59 velocity=0 time=0 actual_time=76624
type=note_on channel=9 note=35 velocity=80 time=16 actual_time=76640
type=note_on channel=9 note=35 velocity=0 time=32 actual_time=76672
type=note_on channel=9 note=59 velocity=80 time=8 actual_time=76680
type=note_on channel=9 note=53 velocity=80 time=0 actual_time=76680
type=note_on channel=9 note=40 velocity=80 time=0 actual_time=76680
type=note_on channel=9 note=49 velocity=80 time=0 actual_time=76680
type=note_on channel=9 note=49 velocity=0 time=96 actual_time=76776
type=note_on channel=9 note=59 velocity=0 time=0 actual_time=76776
type=note_on channel=9 note=53 velocity=0 time=0 actual_time=76776
type=note_on channel=9 note=40 velocity=0 time=0 actual_time=76776
type=note_on channel=9 note=53 velocity=80 time=24 actual_time=76800
type=note_on channel=9 note=49 velocity=80 time=0 actual_time=76800
type=note_on channel=9 note=35 velocity=80 time=0 actual_time=76800
type=note_on channel=9 note=59 velocity=80 time=0 actual_time=76800
type=note_on channel=9 note=59 velocity=0 time=96 actual_time=76896
type=note_on channel=9 note=53 velocity=0 time=0 actual_time=76896
type=note_on channel=9 note=49 velocity=0 time=0 actual_time=76896
type=note_on channel=9 note=35 velocity=0 time=0 actual_time=76896
type=note_on channel=9 note=53 velocity=80 time=24 actual_time=76920
type=note_on channel=9 note=40 velocity=80 time=0 actual_time=76920
type=note_on channel=9 note=59 velocity=80 time=0 actual_time=76920
type=note_on channel=9 note=59 velocity=0 time=96 actual_time=77016
type=note_on channel=9 note=40 velocity=0 time=0 actual_time=77016
type=note_on channel=9 note=53 velocity=0 time=0 actual_time=77016
type=note_on channel=9 note=53 velocity=80 time=24 actual_time=77040
type=note_on channel=9 note=59 velocity=80 time=0 actual_time=77040
type=note_on channel=9 note=59 velocity=0 time=64 actual_time=77104
type=note_on channel=9 note=53 velocity=0 time=0 actual_time=77104
type=note_on channel=9 note=35 velocity=80 time=16 actual_time=77120
type=note_on channel=9 note=35 velocity=0 time=32 actual_time=77152
type=note_on channel=9 note=40 velocity=80 time=8 actual_time=77160
type=note_on channel=9 note=53 velocity=80 time=0 actual_time=77160
type=note_on channel=9 note=59 velocity=80 time=0 actual_time=77160
type=note_on channel=9 note=59 velocity=0 time=96 actual_time=77256
type=note_on channel=9 note=53 velocity=0 time=0 actual_time=77256
type=note_on channel=9 note=40 velocity=0 time=0 actual_time=77256
type=note_on channel=9 note=53 velocity=80 time=24 actual_time=77280
type=note_on channel=9 note=59 velocity=80 time=0 actual_time=77280
type=note_on channel=9 note=35 velocity=80 time=0 actual_time=77280
type=note_on channel=9 note=35 velocity=0 time=96 actual_time=77376
type=note_on channel=9 note=59 velocity=0 time=0 actual_time=77376
type=note_on channel=9 note=53 velocity=0 time=0 actual_time=77376
type=note_on channel=9 note=59 velocity=80 time=24 actual_time=77400
type=note_on channel=9 note=40 velocity=80 time=0 actual_time=77400
type=note_on channel=9 note=53 velocity=80 time=0 actual_time=77400
type=note_on channel=9 note=53 velocity=0 time=96 actual_time=77496
type=note_on channel=9 note=40 velocity=0 time=0 actual_time=77496
type=note_on channel=9 note=59 velocity=0 time=0 actual_time=77496
type=note_on channel=9 note=59 velocity=80 time=24 actual_time=77520
type=note_on channel=9 note=53 velocity=80 time=0 actual_time=77520
type=note_on channel=9 note=53 velocity=0 time=64 actual_time=77584
type=note_on channel=9 note=59 velocity=0 time=0 actual_time=77584
type=note_on channel=9 note=35 velocity=80 time=16 actual_time=77600
type=note_on channel=9 note=35 velocity=0 time=32 actual_time=77632
type=note_on channel=9 note=59 velocity=80 time=8 actual_time=77640
type=note_on channel=9 note=53 velocity=80 time=0 actual_time=77640
type=note_on channel=9 note=40 velocity=80 time=0 actual_time=77640
type=note_on channel=9 note=40 velocity=0 time=96 actual_time=77736
type=note_on channel=9 note=53 velocity=0 time=0 actual_time=77736
type=note_on channel=9 note=59 velocity=0 time=0 actual_time=77736
type=note_on channel=9 note=59 velocity=80 time=24 actual_time=77760
type=note_on channel=9 note=35 velocity=80 time=0 actual_time=77760
type=note_on channel=9 note=49 velocity=80 time=0 actual_time=77760
type=note_on channel=9 note=53 velocity=80 time=0 actual_time=77760
type=note_on channel=9 note=53 velocity=0 time=96 actual_time=77856
type=note_on channel=9 note=59 velocity=0 time=0 actual_time=77856
type=note_on channel=9 note=35 velocity=0 time=0 actual_time=77856
type=note_on channel=9 note=49 velocity=0 time=0 actual_time=77856
type=note_on channel=9 note=59 velocity=80 time=24 actual_time=77880
type=note_on channel=9 note=40 velocity=80 time=0 actual_time=77880
type=note_on channel=9 note=53 velocity=80 time=0 actual_time=77880
type=note_on channel=9 note=53 velocity=0 time=96 actual_time=77976
type=note_on channel=9 note=40 velocity=0 time=0 actual_time=77976
type=note_on channel=9 note=59 velocity=0 time=0 actual_time=77976
type=note_on channel=9 note=59 velocity=80 time=24 actual_time=78000
type=note_on channel=9 note=53 velocity=80 time=0 actual_time=78000
type=note_on channel=9 note=53 velocity=0 time=64 actual_time=78064
type=note_on channel=9 note=59 velocity=0 time=0 actual_time=78064
type=note_on channel=9 note=35 velocity=80 time=16 actual_time=78080
type=note_on channel=9 note=35 velocity=0 time=32 actual_time=78112
type=note_on channel=9 note=59 velocity=80 time=8 actual_time=78120
type=note_on channel=9 note=53 velocity=80 time=0 actual_time=78120
type=note_on channel=9 note=40 velocity=80 time=0 actual_time=78120
type=note_on channel=9 note=40 velocity=0 time=96 actual_time=78216
type=note_on channel=9 note=53 velocity=0 time=0 actual_time=78216
type=note_on channel=9 note=59 velocity=0 time=0 actual_time=78216
type=note_on channel=9 note=59 velocity=80 time=24 actual_time=78240
type=note_on channel=9 note=53 velocity=80 time=0 actual_time=78240
type=note_on channel=9 note=35 velocity=80 time=0 actual_time=78240
type=note_on channel=9 note=35 velocity=0 time=64 actual_time=78304
type=note_on channel=9 note=53 velocity=0 time=0 actual_time=78304
type=note_on channel=9 note=59 velocity=0 time=0 actual_time=78304
type=note_on channel=9 note=35 velocity=80 time=16 actual_time=78320
type=note_on channel=9 note=35 velocity=0 time=32 actual_time=78352
type=note_on channel=9 note=59 velocity=80 time=8 actual_time=78360
type=note_on channel=9 note=53 velocity=80 time=0 actual_time=78360
type=note_on channel=9 note=40 velocity=80 time=0 actual_time=78360
type=note_on channel=9 note=49 velocity=80 time=0 actual_time=78360
type=note_on channel=9 note=49 velocity=0 time=96 actual_time=78456
type=note_on channel=9 note=59 velocity=0 time=0 actual_time=78456
type=note_on channel=9 note=53 velocity=0 time=0 actual_time=78456
type=note_on channel=9 note=40 velocity=0 time=0 actual_time=78456
type=note_on channel=9 note=59 velocity=80 time=24 actual_time=78480
type=note_on channel=9 note=53 velocity=80 time=0 actual_time=78480
type=note_on channel=9 note=35 velocity=80 time=0 actual_time=78480
type=note_on channel=9 note=35 velocity=0 time=64 actual_time=78544
type=note_on channel=9 note=53 velocity=0 time=0 actual_time=78544
type=note_on channel=9 note=59 velocity=0 time=0 actual_time=78544
type=note_on channel=9 note=35 velocity=80 time=16 actual_time=78560
type=note_on channel=9 note=35 velocity=0 time=32 actual_time=78592
type=note_on channel=9 note=59 velocity=80 time=8 actual_time=78600
type=note_on channel=9 note=53 velocity=80 time=0 actual_time=78600
type=note_on channel=9 note=40 velocity=80 time=0 actual_time=78600
type=note_on channel=9 note=49 velocity=80 time=0 actual_time=78600
type=note_on channel=9 note=49 velocity=0 time=96 actual_time=78696
type=note_on channel=9 note=59 velocity=0 time=0 actual_time=78696
type=note_on channel=9 note=53 velocity=0 time=0 actual_time=78696
type=note_on channel=9 note=40 velocity=0 time=0 actual_time=78696
type=note_on channel=9 note=59 velocity=80 time=24 actual_time=78720
type=note_on channel=9 note=35 velocity=80 time=0 actual_time=78720
type=note_on channel=9 note=49 velocity=80 time=0 actual_time=78720
type=note_on channel=9 note=53 velocity=80 time=0 actual_time=78720
type=note_on channel=9 note=53 velocity=0 time=96 actual_time=78816
type=note_on channel=9 note=59 velocity=0 time=0 actual_time=78816
type=note_on channel=9 note=35 velocity=0 time=0 actual_time=78816
type=note_on channel=9 note=49 velocity=0 time=0 actual_time=78816
type=note_on channel=9 note=59 velocity=80 time=24 actual_time=78840
type=note_on channel=9 note=40 velocity=80 time=0 actual_time=78840
type=note_on channel=9 note=53 velocity=80 time=0 actual_time=78840
type=note_on channel=9 note=53 velocity=0 time=96 actual_time=78936
type=note_on channel=9 note=40 velocity=0 time=0 actual_time=78936
type=note_on channel=9 note=59 velocity=0 time=0 actual_time=78936
type=note_on channel=9 note=59 velocity=80 time=24 actual_time=78960
type=note_on channel=9 note=53 velocity=80 time=0 actual_time=78960
type=note_on channel=9 note=53 velocity=0 time=64 actual_time=79024
type=note_on channel=9 note=59 velocity=0 time=0 actual_time=79024
type=note_on channel=9 note=35 velocity=80 time=16 actual_time=79040
type=note_on channel=9 note=35 velocity=0 time=32 actual_time=79072
type=note_on channel=9 note=59 velocity=80 time=8 actual_time=79080
type=note_on channel=9 note=53 velocity=80 time=0 actual_time=79080
type=note_on channel=9 note=40 velocity=80 time=0 actual_time=79080
type=note_on channel=9 note=40 velocity=0 time=96 actual_time=79176
type=note_on channel=9 note=53 velocity=0 time=0 actual_time=79176
type=note_on channel=9 note=59 velocity=0 time=0 actual_time=79176
type=note_on channel=9 note=35 velocity=80 time=24 actual_time=79200
type=note_on channel=9 note=59 velocity=80 time=0 actual_time=79200
type=note_on channel=9 note=53 velocity=80 time=0 actual_time=79200
type=note_on channel=9 note=53 velocity=0 time=96 actual_time=79296
type=note_on channel=9 note=59 velocity=0 time=0 actual_time=79296
type=note_on channel=9 note=35 velocity=0 time=0 actual_time=79296
type=note_on channel=9 note=53 velocity=80 time=24 actual_time=79320
type=note_on channel=9 note=40 velocity=80 time=0 actual_time=79320
type=note_on channel=9 note=59 velocity=80 time=0 actual_time=79320
type=note_on channel=9 note=59 velocity=0 time=96 actual_time=79416
type=note_on channel=9 note=40 velocity=0 time=0 actual_time=79416
type=note_on channel=9 note=53 velocity=0 time=0 actual_time=79416
type=note_on channel=9 note=53 velocity=80 time=24 actual_time=79440
type=note_on channel=9 note=59 velocity=80 time=0 actual_time=79440
type=note_on channel=9 note=59 velocity=0 time=64 actual_time=79504
type=note_on channel=9 note=53 velocity=0 time=0 actual_time=79504
type=note_on channel=9 note=35 velocity=80 time=16 actual_time=79520
type=note_on channel=9 note=35 velocity=0 time=32 actual_time=79552
type=note_on channel=9 note=40 velocity=80 time=8 actual_time=79560
type=note_on channel=9 note=53 velocity=80 time=0 actual_time=79560
type=note_on channel=9 note=59 velocity=80 time=0 actual_time=79560
type=note_on channel=9 note=59 velocity=0 time=96 actual_time=79656
type=note_on channel=9 note=53 velocity=0 time=0 actual_time=79656
type=note_on channel=9 note=40 velocity=0 time=0 actual_time=79656
type=note_on channel=9 note=31 velocity=80 time=24 actual_time=79680
type=note_on channel=9 note=31 velocity=80 time=0 actual_time=79680
type=note_on channel=9 note=31 velocity=0 time=32 actual_time=79712
type=note_on channel=9 note=31 velocity=0 time=0 actual_time=79712
type=note_on channel=9 note=31 velocity=80 time=8 actual_time=79720
type=note_on channel=9 note=31 velocity=0 time=32 actual_time=79752
type=note_on channel=9 note=31 velocity=80 time=8 actual_time=79760
type=note_on channel=9 note=31 velocity=0 time=32 actual_time=79792
type=note_on channel=9 note=31 velocity=80 time=8 actual_time=79800
type=note_on channel=9 note=31 velocity=80 time=0 actual_time=79800
type=note_on channel=9 note=31 velocity=0 time=32 actual_time=79832
type=note_on channel=9 note=31 velocity=0 time=0 actual_time=79832
type=note_on channel=9 note=31 velocity=80 time=8 actual_time=79840
type=note_on channel=9 note=31 velocity=0 time=32 actual_time=79872
type=note_on channel=9 note=31 velocity=80 time=8 actual_time=79880
type=note_on channel=9 note=31 velocity=0 time=32 actual_time=79912
type=note_on channel=9 note=31 velocity=80 time=8 actual_time=79920
type=note_on channel=9 note=31 velocity=80 time=0 actual_time=79920
type=note_on channel=9 note=31 velocity=0 time=32 actual_time=79952
type=note_on channel=9 note=31 velocity=0 time=0 actual_time=79952
type=note_on channel=9 note=31 velocity=80 time=8 actual_time=79960
type=note_on channel=9 note=31 velocity=0 time=32 actual_time=79992
type=note_on channel=9 note=31 velocity=80 time=8 actual_time=80000
type=note_on channel=9 note=31 velocity=0 time=32 actual_time=80032
type=note_on channel=9 note=31 velocity=80 time=8 actual_time=80040
type=note_on channel=9 note=31 velocity=80 time=0 actual_time=80040
type=note_on channel=9 note=31 velocity=0 time=32 actual_time=80072
type=note_on channel=9 note=31 velocity=0 time=0 actual_time=80072
type=note_on channel=9 note=31 velocity=80 time=8 actual_time=80080
type=note_on channel=9 note=31 velocity=0 time=32 actual_time=80112
type=note_on channel=9 note=31 velocity=80 time=8 actual_time=80120
type=note_on channel=9 note=31 velocity=0 time=32 actual_time=80152
type=note_on channel=9 note=31 velocity=80 time=8 actual_time=80160
type=note_on channel=9 note=31 velocity=80 time=0 actual_time=80160
type=note_on channel=9 note=31 velocity=0 time=32 actual_time=80192
type=note_on channel=9 note=31 velocity=0 time=0 actual_time=80192
type=note_on channel=9 note=31 velocity=80 time=8 actual_time=80200
type=note_on channel=9 note=31 velocity=0 time=32 actual_time=80232
type=note_on channel=9 note=31 velocity=80 time=8 actual_time=80240
type=note_on channel=9 note=31 velocity=0 time=32 actual_time=80272
type=note_on channel=9 note=47 velocity=80 time=8 actual_time=80280
type=note_on channel=9 note=47 velocity=0 time=32 actual_time=80312
type=note_on channel=9 note=47 velocity=80 time=8 actual_time=80320
type=note_on channel=9 note=47 velocity=0 time=32 actual_time=80352
type=note_on channel=9 note=47 velocity=80 time=8 actual_time=80360
type=note_on channel=9 note=47 velocity=0 time=32 actual_time=80392
type=note_on channel=9 note=45 velocity=80 time=8 actual_time=80400
type=note_on channel=9 note=45 velocity=0 time=32 actual_time=80432
type=note_on channel=9 note=45 velocity=80 time=8 actual_time=80440
type=note_on channel=9 note=45 velocity=0 time=32 actual_time=80472
type=note_on channel=9 note=45 velocity=80 time=8 actual_time=80480
type=note_on channel=9 note=45 velocity=0 time=32 actual_time=80512
type=note_on channel=9 note=43 velocity=80 time=8 actual_time=80520
type=note_on channel=9 note=43 velocity=0 time=32 actual_time=80552
type=note_on channel=9 note=43 velocity=80 time=8 actual_time=80560
type=note_on channel=9 note=43 velocity=0 time=32 actual_time=80592
type=note_on channel=9 note=43 velocity=80 time=8 actual_time=80600
type=note_on channel=9 note=43 velocity=0 time=32 actual_time=80632
type=note_on channel=9 note=53 velocity=80 time=8 actual_time=80640
type=note_on channel=9 note=35 velocity=80 time=0 actual_time=80640
type=note_on channel=9 note=49 velocity=80 time=0 actual_time=80640
type=note_on channel=9 note=49 velocity=0 time=96 actual_time=80736
type=note_on channel=9 note=35 velocity=0 time=0 actual_time=80736
type=note_on channel=9 note=53 velocity=0 time=0 actual_time=80736
type=note_on channel=9 note=53 velocity=80 time=24 actual_time=80760
type=note_on channel=9 note=40 velocity=80 time=0 actual_time=80760
type=note_on channel=9 note=40 velocity=0 time=96 actual_time=80856
type=note_on channel=9 note=53 velocity=0 time=0 actual_time=80856
type=note_on channel=9 note=53 velocity=80 time=24 actual_time=80880
type=note_on channel=9 note=53 velocity=0 time=64 actual_time=80944
type=note_on channel=9 note=35 velocity=80 time=16 actual_time=80960
type=note_on channel=9 note=35 velocity=0 time=32 actual_time=80992
type=note_on channel=9 note=40 velocity=80 time=8 actual_time=81000
type=note_on channel=9 note=53 velocity=80 time=0 actual_time=81000
type=note_on channel=9 note=53 velocity=0 time=96 actual_time=81096
type=note_on channel=9 note=40 velocity=0 time=0 actual_time=81096
type=note_on channel=9 note=53 velocity=80 time=24 actual_time=81120
type=note_on channel=9 note=35 velocity=80 time=0 actual_time=81120
type=note_on channel=9 note=35 velocity=0 time=96 actual_time=81216
type=note_on channel=9 note=53 velocity=0 time=0 actual_time=81216
type=note_on channel=9 note=40 velocity=80 time=24 actual_time=81240
type=note_on channel=9 note=53 velocity=80 time=0 actual_time=81240
type=note_on channel=9 note=53 velocity=0 time=96 actual_time=81336
type=note_on channel=9 note=40 velocity=0 time=0 actual_time=81336
type=note_on channel=9 note=53 velocity=80 time=24 actual_time=81360
type=note_on channel=9 note=53 velocity=0 time=64 actual_time=81424
type=note_on channel=9 note=35 velocity=80 time=16 actual_time=81440
type=note_on channel=9 note=35 velocity=0 time=32 actual_time=81472
type=note_on channel=9 note=53 velocity=80 time=8 actual_time=81480
type=note_on channel=9 note=40 velocity=80 time=0 actual_time=81480
type=note_on channel=9 note=40 velocity=0 time=96 actual_time=81576
type=note_on channel=9 note=53 velocity=0 time=0 actual_time=81576
type=note_on channel=9 note=53 velocity=80 time=24 actual_time=81600
type=note_on channel=9 note=35 velocity=80 time=0 actual_time=81600
type=note_on channel=9 note=49 velocity=80 time=0 actual_time=81600
type=note_on channel=9 note=49 velocity=0 time=96 actual_time=81696
type=note_on channel=9 note=35 velocity=0 time=0 actual_time=81696
type=note_on channel=9 note=53 velocity=0 time=0 actual_time=81696
type=note_on channel=9 note=53 velocity=80 time=24 actual_time=81720
type=note_on channel=9 note=40 velocity=80 time=0 actual_time=81720
type=note_on channel=9 note=40 velocity=0 time=96 actual_time=81816
type=note_on channel=9 note=53 velocity=0 time=0 actual_time=81816
type=note_on channel=9 note=53 velocity=80 time=24 actual_time=81840
type=note_on channel=9 note=53 velocity=0 time=64 actual_time=81904
type=note_on channel=9 note=35 velocity=80 time=16 actual_time=81920
type=note_on channel=9 note=35 velocity=0 time=32 actual_time=81952
type=note_on channel=9 note=40 velocity=80 time=8 actual_time=81960
type=note_on channel=9 note=53 velocity=80 time=0 actual_time=81960
type=note_on channel=9 note=53 velocity=0 time=96 actual_time=82056
type=note_on channel=9 note=40 velocity=0 time=0 actual_time=82056
type=note_on channel=9 note=35 velocity=80 time=24 actual_time=82080
type=note_on channel=9 note=53 velocity=80 time=0 actual_time=82080
type=note_on channel=9 note=53 velocity=0 time=96 actual_time=82176
type=note_on channel=9 note=35 velocity=0 time=0 actual_time=82176
type=note_on channel=9 note=49 velocity=80 time=24 actual_time=82200
type=note_on channel=9 note=40 velocity=80 time=0 actual_time=82200
type=note_on channel=9 note=53 velocity=80 time=0 actual_time=82200
type=note_on channel=9 note=53 velocity=0 time=96 actual_time=82296
type=note_on channel=9 note=40 velocity=0 time=0 actual_time=82296
type=note_on channel=9 note=49 velocity=0 time=0 actual_time=82296
type=note_on channel=9 note=53 velocity=80 time=24 actual_time=82320
type=note_on channel=9 note=53 velocity=0 time=64 actual_time=82384
type=note_on channel=9 note=35 velocity=80 time=16 actual_time=82400
type=note_on channel=9 note=35 velocity=0 time=32 actual_time=82432
type=note_on channel=9 note=49 velocity=80 time=8 actual_time=82440
type=note_on channel=9 note=53 velocity=80 time=0 actual_time=82440
type=note_on channel=9 note=40 velocity=80 time=0 actual_time=82440
type=note_on channel=9 note=40 velocity=0 time=96 actual_time=82536
type=note_on channel=9 note=53 velocity=0 time=0 actual_time=82536
type=note_on channel=9 note=49 velocity=0 time=0 actual_time=82536
type=note_on channel=9 note=35 velocity=80 time=24 actual_time=82560
type=note_on channel=9 note=53 velocity=80 time=0 actual_time=82560
type=note_on channel=9 note=53 velocity=0 time=96 actual_time=82656
type=note_on channel=9 note=35 velocity=0 time=0 actual_time=82656
type=note_on channel=9 note=40 velocity=80 time=24 actual_time=82680
type=note_on channel=9 note=53 velocity=80 time=0 actual_time=82680
type=note_on channel=9 note=53 velocity=0 time=96 actual_time=82776
type=note_on channel=9 note=40 velocity=0 time=0 actual_time=82776
type=note_on channel=9 note=53 velocity=80 time=24 actual_time=82800
type=note_on channel=9 note=53 velocity=0 time=64 actual_time=82864
type=note_on channel=9 note=35 velocity=80 time=16 actual_time=82880
type=note_on channel=9 note=35 velocity=0 time=32 actual_time=82912
type=note_on channel=9 note=53 velocity=80 time=8 actual_time=82920
type=note_on channel=9 note=40 velocity=80 time=0 actual_time=82920
type=note_on channel=9 note=40 velocity=0 time=96 actual_time=83016
type=note_on channel=9 note=53 velocity=0 time=0 actual_time=83016
type=note_on channel=9 note=53 velocity=80 time=24 actual_time=83040
type=note_on channel=9 note=35 velocity=80 time=0 actual_time=83040
type=note_on channel=9 note=35 velocity=0 time=96 actual_time=83136
type=note_on channel=9 note=53 velocity=0 time=0 actual_time=83136
type=note_on channel=9 note=53 velocity=80 time=24 actual_time=83160
type=note_on channel=9 note=40 velocity=80 time=0 actual_time=83160
type=note_on channel=9 note=40 velocity=0 time=96 actual_time=83256
type=note_on channel=9 note=53 velocity=0 time=0 actual_time=83256
type=note_on channel=9 note=53 velocity=80 time=24 actual_time=83280
type=note_on channel=9 note=53 velocity=0 time=64 actual_time=83344
type=note_on channel=9 note=35 velocity=80 time=16 actual_time=83360
type=note_on channel=9 note=35 velocity=0 time=32 actual_time=83392
type=note_on channel=9 note=40 velocity=80 time=8 actual_time=83400
type=note_on channel=9 note=53 velocity=80 time=0 actual_time=83400
type=note_on channel=9 note=53 velocity=0 time=96 actual_time=83496
type=note_on channel=9 note=40 velocity=0 time=0 actual_time=83496
type=note_on channel=9 note=49 velocity=80 time=24 actual_time=83520
type=note_on channel=9 note=35 velocity=80 time=0 actual_time=83520
type=note_on channel=9 note=53 velocity=80 time=0 actual_time=83520
type=note_on channel=9 note=53 velocity=0 time=96 actual_time=83616
type=note_on channel=9 note=35 velocity=0 time=0 actual_time=83616
type=note_on channel=9 note=49 velocity=0 time=0 actual_time=83616
type=note_on channel=9 note=40 velocity=80 time=24 actual_time=83640
type=note_on channel=9 note=53 velocity=80 time=0 actual_time=83640
type=note_on channel=9 note=53 velocity=0 time=96 actual_time=83736
type=note_on channel=9 note=40 velocity=0 time=0 actual_time=83736
type=note_on channel=9 note=53 velocity=80 time=24 actual_time=83760
type=note_on channel=9 note=53 velocity=0 time=64 actual_time=83824
type=note_on channel=9 note=35 velocity=80 time=16 actual_time=83840
type=note_on channel=9 note=35 velocity=0 time=32 actual_time=83872
type=note_on channel=9 note=53 velocity=80 time=8 actual_time=83880
type=note_on channel=9 note=40 velocity=80 time=0 actual_time=83880
type=note_on channel=9 note=40 velocity=0 time=96 actual_time=83976
type=note_on channel=9 note=53 velocity=0 time=0 actual_time=83976
type=note_on channel=9 note=53 velocity=80 time=24 actual_time=84000
type=note_on channel=9 note=35 velocity=80 time=0 actual_time=84000
type=note_on channel=9 note=35 velocity=0 time=96 actual_time=84096
type=note_on channel=9 note=53 velocity=0 time=0 actual_time=84096
type=note_on channel=9 note=53 velocity=80 time=24 actual_time=84120
type=note_on channel=9 note=40 velocity=80 time=0 actual_time=84120
type=note_on channel=9 note=49 velocity=80 time=0 actual_time=84120
type=note_on channel=9 note=49 velocity=0 time=96 actual_time=84216
type=note_on channel=9 note=40 velocity=0 time=0 actual_time=84216
type=note_on channel=9 note=53 velocity=0 time=0 actual_time=84216
type=note_on channel=9 note=53 velocity=80 time=24 actual_time=84240
type=note_on channel=9 note=53 velocity=0 time=64 actual_time=84304
type=note_on channel=9 note=35 velocity=80 time=16 actual_time=84320
type=note_on channel=9 note=35 velocity=0 time=32 actual_time=84352
type=note_on channel=9 note=40 velocity=80 time=8 actual_time=84360
type=note_on channel=9 note=53 velocity=80 time=0 actual_time=84360
type=note_on channel=9 note=49 velocity=80 time=0 actual_time=84360
type=note_on channel=9 note=49 velocity=0 time=96 actual_time=84456
type=note_on channel=9 note=53 velocity=0 time=0 actual_time=84456
type=note_on channel=9 note=40 velocity=0 time=0 actual_time=84456
type=note_on channel=9 note=53 velocity=80 time=24 actual_time=84480
type=note_on channel=9 note=35 velocity=80 time=0 actual_time=84480
type=note_on channel=9 note=35 velocity=0 time=96 actual_time=84576
type=note_on channel=9 note=53 velocity=0 time=0 actual_time=84576
type=note_on channel=9 note=53 velocity=80 time=24 actual_time=84600
type=note_on channel=9 note=40 velocity=80 time=0 actual_time=84600
type=note_on channel=9 note=40 velocity=0 time=96 actual_time=84696
type=note_on channel=9 note=53 velocity=0 time=0 actual_time=84696
type=note_on channel=9 note=53 velocity=80 time=24 actual_time=84720
type=note_on channel=9 note=53 velocity=0 time=64 actual_time=84784
type=note_on channel=9 note=35 velocity=80 time=16 actual_time=84800
type=note_on channel=9 note=35 velocity=0 time=32 actual_time=84832
type=note_on channel=9 note=40 velocity=80 time=8 actual_time=84840
type=note_on channel=9 note=53 velocity=80 time=0 actual_time=84840
type=note_on channel=9 note=53 velocity=0 time=96 actual_time=84936
type=note_on channel=9 note=40 velocity=0 time=0 actual_time=84936
type=note_on channel=9 note=35 velocity=80 time=24 actual_time=84960
type=note_on channel=9 note=53 velocity=80 time=0 actual_time=84960
type=note_on channel=9 note=53 velocity=0 time=96 actual_time=85056
type=note_on channel=9 note=35 velocity=0 time=0 actual_time=85056
type=note_on channel=9 note=40 velocity=80 time=24 actual_time=85080
type=note_on channel=9 note=53 velocity=80 time=0 actual_time=85080
type=note_on channel=9 note=53 velocity=0 time=96 actual_time=85176
type=note_on channel=9 note=40 velocity=0 time=0 actual_time=85176
type=note_on channel=9 note=53 velocity=80 time=24 actual_time=85200
type=note_on channel=9 note=53 velocity=0 time=64 actual_time=85264
type=note_on channel=9 note=35 velocity=80 time=16 actual_time=85280
type=note_on channel=9 note=35 velocity=0 time=32 actual_time=85312
type=note_on channel=9 note=53 velocity=80 time=8 actual_time=85320
type=note_on channel=9 note=40 velocity=80 time=0 actual_time=85320
type=note_on channel=9 note=40 velocity=0 time=96 actual_time=85416
type=note_on channel=9 note=53 velocity=0 time=0 actual_time=85416
type=note_on channel=9 note=53 velocity=80 time=24 actual_time=85440
type=note_on channel=9 note=35 velocity=80 time=0 actual_time=85440
type=note_on channel=9 note=49 velocity=80 time=0 actual_time=85440
type=note_on channel=9 note=49 velocity=0 time=96 actual_time=85536
type=note_on channel=9 note=35 velocity=0 time=0 actual_time=85536
type=note_on channel=9 note=53 velocity=0 time=0 actual_time=85536
type=note_on channel=9 note=53 velocity=80 time=24 actual_time=85560
type=note_on channel=9 note=40 velocity=80 time=0 actual_time=85560
type=note_on channel=9 note=40 velocity=0 time=96 actual_time=85656
type=note_on channel=9 note=53 velocity=0 time=0 actual_time=85656
type=note_on channel=9 note=53 velocity=80 time=24 actual_time=85680
type=note_on channel=9 note=53 velocity=0 time=64 actual_time=85744
type=note_on channel=9 note=35 velocity=80 time=16 actual_time=85760
type=note_on channel=9 note=35 velocity=0 time=32 actual_time=85792
type=note_on channel=9 note=40 velocity=80 time=8 actual_time=85800
type=note_on channel=9 note=53 velocity=80 time=0 actual_time=85800
type=note_on channel=9 note=53 velocity=0 time=96 actual_time=85896
type=note_on channel=9 note=40 velocity=0 time=0 actual_time=85896
type=note_on channel=9 note=35 velocity=80 time=24 actual_time=85920
type=note_on channel=9 note=53 velocity=80 time=0 actual_time=85920
type=note_on channel=9 note=53 velocity=0 time=96 actual_time=86016
type=note_on channel=9 note=35 velocity=0 time=0 actual_time=86016
type=note_on channel=9 note=49 velocity=80 time=24 actual_time=86040
type=note_on channel=9 note=40 velocity=80 time=0 actual_time=86040
type=note_on channel=9 note=53 velocity=80 time=0 actual_time=86040
type=note_on channel=9 note=53 velocity=0 time=96 actual_time=86136
type=note_on channel=9 note=40 velocity=0 time=0 actual_time=86136
type=note_on channel=9 note=49 velocity=0 time=0 actual_time=86136
type=note_on channel=9 note=53 velocity=80 time=24 actual_time=86160
type=note_on channel=9 note=53 velocity=0 time=64 actual_time=86224
type=note_on channel=9 note=35 velocity=80 time=16 actual_time=86240
type=note_on channel=9 note=35 velocity=0 time=32 actual_time=86272
type=note_on channel=9 note=49 velocity=80 time=8 actual_time=86280
type=note_on channel=9 note=53 velocity=80 time=0 actual_time=86280
type=note_on channel=9 note=40 velocity=80 time=0 actual_time=86280
type=note_on channel=9 note=40 velocity=0 time=96 actual_time=86376
type=note_on channel=9 note=53 velocity=0 time=0 actual_time=86376
type=note_on channel=9 note=49 velocity=0 time=0 actual_time=86376
type=note_on channel=9 note=35 velocity=80 time=24 actual_time=86400
type=note_on channel=9 note=53 velocity=80 time=0 actual_time=86400
type=note_on channel=9 note=53 velocity=0 time=96 actual_time=86496
type=note_on channel=9 note=35 velocity=0 time=0 actual_time=86496
type=note_on channel=9 note=40 velocity=80 time=24 actual_time=86520
type=note_on channel=9 note=53 velocity=80 time=0 actual_time=86520
type=note_on channel=9 note=53 velocity=0 time=96 actual_time=86616
type=note_on channel=9 note=40 velocity=0 time=0 actual_time=86616
type=note_on channel=9 note=53 velocity=80 time=24 actual_time=86640
type=note_on channel=9 note=53 velocity=0 time=64 actual_time=86704
type=note_on channel=9 note=35 velocity=80 time=16 actual_time=86720
type=note_on channel=9 note=35 velocity=0 time=32 actual_time=86752
type=note_on channel=9 note=53 velocity=80 time=8 actual_time=86760
type=note_on channel=9 note=40 velocity=80 time=0 actual_time=86760
type=note_on channel=9 note=40 velocity=0 time=96 actual_time=86856
type=note_on channel=9 note=53 velocity=0 time=0 actual_time=86856
type=note_on channel=9 note=53 velocity=80 time=24 actual_time=86880
type=note_on channel=9 note=35 velocity=80 time=0 actual_time=86880
type=note_on channel=9 note=35 velocity=0 time=96 actual_time=86976
type=note_on channel=9 note=53 velocity=0 time=0 actual_time=86976
type=note_on channel=9 note=53 velocity=80 time=24 actual_time=87000
type=note_on channel=9 note=40 velocity=80 time=0 actual_time=87000
type=note_on channel=9 note=40 velocity=0 time=96 actual_time=87096
type=note_on channel=9 note=53 velocity=0 time=0 actual_time=87096
type=note_on channel=9 note=53 velocity=80 time=24 actual_time=87120
type=note_on channel=9 note=53 velocity=0 time=64 actual_time=87184
type=note_on channel=9 note=35 velocity=80 time=16 actual_time=87200
type=note_on channel=9 note=35 velocity=0 time=32 actual_time=87232
type=note_on channel=9 note=40 velocity=80 time=8 actual_time=87240
type=note_on channel=9 note=53 velocity=80 time=0 actual_time=87240
type=note_on channel=9 note=53 velocity=0 time=96 actual_time=87336
type=note_on channel=9 note=40 velocity=0 time=0 actual_time=87336
type=note_on channel=9 note=49 velocity=80 time=24 actual_time=87360
type=note_on channel=9 note=35 velocity=80 time=0 actual_time=87360
type=note_on channel=9 note=53 velocity=80 time=0 actual_time=87360
type=note_on channel=9 note=53 velocity=0 time=96 actual_time=87456
type=note_on channel=9 note=35 velocity=0 time=0 actual_time=87456
type=note_on channel=9 note=49 velocity=0 time=0 actual_time=87456
type=note_on channel=9 note=40 velocity=80 time=24 actual_time=87480
type=note_on channel=9 note=53 velocity=80 time=0 actual_time=87480
type=note_on channel=9 note=53 velocity=0 time=96 actual_time=87576
type=note_on channel=9 note=40 velocity=0 time=0 actual_time=87576
type=note_on channel=9 note=53 velocity=80 time=24 actual_time=87600
type=note_on channel=9 note=53 velocity=0 time=64 actual_time=87664
type=note_on channel=9 note=35 velocity=80 time=16 actual_time=87680
type=note_on channel=9 note=35 velocity=0 time=32 actual_time=87712
type=note_on channel=9 note=53 velocity=80 time=8 actual_time=87720
type=note_on channel=9 note=40 velocity=80 time=0 actual_time=87720
type=note_on channel=9 note=40 velocity=0 time=96 actual_time=87816
type=note_on channel=9 note=53 velocity=0 time=0 actual_time=87816
type=note_on channel=9 note=53 velocity=80 time=24 actual_time=87840
type=note_on channel=9 note=35 velocity=80 time=0 actual_time=87840
type=note_on channel=9 note=49 velocity=80 time=0 actual_time=87840
type=note_on channel=9 note=49 velocity=0 time=96 actual_time=87936
type=note_on channel=9 note=35 velocity=0 time=0 actual_time=87936
type=note_on channel=9 note=53 velocity=0 time=0 actual_time=87936
type=note_on channel=9 note=53 velocity=80 time=24 actual_time=87960
type=note_on channel=9 note=40 velocity=80 time=0 actual_time=87960
type=note_on channel=9 note=40 velocity=0 time=96 actual_time=88056
type=note_on channel=9 note=53 velocity=0 time=0 actual_time=88056
type=note_on channel=9 note=53 velocity=80 time=24 actual_time=88080
type=note_on channel=9 note=49 velocity=80 time=0 actual_time=88080
type=note_on channel=9 note=49 velocity=0 time=64 actual_time=88144
type=note_on channel=9 note=53 velocity=0 time=0 actual_time=88144
type=note_on channel=9 note=35 velocity=80 time=16 actual_time=88160
type=note_on channel=9 note=35 velocity=0 time=32 actual_time=88192
type=note_on channel=9 note=40 velocity=80 time=8 actual_time=88200
type=note_on channel=9 note=53 velocity=80 time=0 actual_time=88200
type=note_on channel=9 note=53 velocity=0 time=96 actual_time=88296
type=note_on channel=9 note=40 velocity=0 time=0 actual_time=88296
type=note_on channel=9 note=49 velocity=80 time=24 actual_time=88320
type=note_on channel=9 note=35 velocity=80 time=0 actual_time=88320
type=note_on channel=9 note=35 velocity=0 time=768 actual_time=89088
type=note_on channel=9 note=49 velocity=0 time=0 actual_time=89088
MetaMessage type: end_of_track, time: 0, actual_time: 89088
type: pitchwheel, time: 0, actual_time: 0
type=control_change channel=8 control=7 value=127 time=0 actual_time=0
type=control_change channel=8 control=10 value=63 time=0 actual_time=0
type=control_change channel=8 control=93 value=0 time=0 actual_time=0
type=control_change channel=8 control=91 value=0 time=0 actual_time=0
type=control_change channel=8 control=95 value=0 time=0 actual_time=0
type=control_change channel=8 control=92 value=0 time=0 actual_time=0
type=control_change channel=8 control=11 value=127 time=0 actual_time=0
type: program_change, time: 0, actual_time: 0
type=control_change channel=10 control=7 value=127 time=0 actual_time=0
type=control_change channel=10 control=10 value=63 time=0 actual_time=0
type=control_change channel=10 control=93 value=0 time=0 actual_time=0
type=control_change channel=10 control=91 value=0 time=0 actual_time=0
type=control_change channel=10 control=95 value=0 time=0 actual_time=0
type=control_change channel=10 control=92 value=0 time=0 actual_time=0
type=control_change channel=10 control=11 value=127 time=0 actual_time=0
type: program_change, time: 0, actual_time: 0
type=control_change channel=10 control=11 value=31 time=0 actual_time=0
type=note_on channel=10 note=66 velocity=111 time=0 actual_time=0
type=control_change channel=10 control=11 value=31 time=15 actual_time=15
type=note_on channel=10 note=61 velocity=95 time=0 actual_time=15
type=control_change channel=10 control=11 value=31 time=15 actual_time=30
type=note_on channel=10 note=58 velocity=95 time=0 actual_time=30
type=control_change channel=10 control=11 value=32 time=10 actual_time=40
type=control_change channel=10 control=11 value=31 time=5 actual_time=45
type=note_on channel=10 note=54 velocity=95 time=0 actual_time=45
type=control_change channel=10 control=11 value=32 time=9 actual_time=54
type=control_change channel=10 control=11 value=31 time=6 actual_time=60
type=note_on channel=10 note=49 velocity=95 time=0 actual_time=60
type=control_change channel=10 control=11 value=32 time=9 actual_time=69
type=control_change channel=10 control=11 value=31 time=6 actual_time=75
type=note_on channel=10 note=42 velocity=95 time=0 actual_time=75
type=control_change channel=10 control=11 value=33 time=5 actual_time=80
type=control_change channel=10 control=11 value=32 time=4 actual_time=84
type=control_change channel=10 control=11 value=33 time=9 actual_time=93
type=control_change channel=10 control=11 value=32 time=6 actual_time=99
type=control_change channel=10 control=11 value=33 time=9 actual_time=108
type=control_change channel=10 control=11 value=32 time=6 actual_time=114
type=control_change channel=10 control=11 value=34 time=6 actual_time=120
type=control_change channel=10 control=11 value=33 time=3 actual_time=123
type=control_change channel=10 control=11 value=34 time=9 actual_time=132
type=control_change channel=10 control=11 value=33 time=6 actual_time=138
type=control_change channel=10 control=11 value=34 time=9 actual_time=147
type=control_change channel=10 control=11 value=33 time=6 actual_time=153
type=control_change channel=10 control=11 value=35 time=7 actual_time=160
type=control_change channel=10 control=11 value=34 time=2 actual_time=162
type=control_change channel=10 control=11 value=35 time=9 actual_time=171
type=control_change channel=10 control=11 value=34 time=6 actual_time=177
type=control_change channel=10 control=11 value=35 time=9 actual_time=186
type=control_change channel=10 control=11 value=34 time=6 actual_time=192
type=control_change channel=10 control=11 value=36 time=8 actual_time=200
type=control_change channel=10 control=11 value=35 time=1 actual_time=201
type=control_change channel=10 control=11 value=36 time=9 actual_time=210
type=control_change channel=10 control=11 value=35 time=6 actual_time=216
type=control_change channel=10 control=11 value=36 time=9 actual_time=225
type=control_change channel=10 control=11 value=35 time=6 actual_time=231
type=control_change channel=10 control=11 value=37 time=9 actual_time=240
type=control_change channel=10 control=11 value=36 time=0 actual_time=240
type=control_change channel=10 control=11 value=37 time=9 actual_time=249
type=control_change channel=10 control=11 value=36 time=6 actual_time=255
type=control_change channel=10 control=11 value=37 time=9 actual_time=264
type=control_change channel=10 control=11 value=36 time=6 actual_time=270
type=control_change channel=10 control=11 value=37 time=9 actual_time=279
type=control_change channel=10 control=11 value=38 time=1 actual_time=280
type=control_change channel=10 control=11 value=38 time=8 actual_time=288
type=control_change channel=10 control=11 value=37 time=6 actual_time=294
type=control_change channel=10 control=11 value=38 time=9 actual_time=303
type=control_change channel=10 control=11 value=37 time=6 actual_time=309
type=control_change channel=10 control=11 value=38 time=9 actual_time=318
type=control_change channel=10 control=11 value=39 time=2 actual_time=320
type=control_change channel=10 control=11 value=39 time=7 actual_time=327
type=control_change channel=10 control=11 value=38 time=6 actual_time=333
type=control_change channel=10 control=11 value=39 time=9 actual_time=342
type=control_change channel=10 control=11 value=38 time=6 actual_time=348
type=control_change channel=10 control=11 value=39 time=9 actual_time=357
type=control_change channel=10 control=11 value=40 time=3 actual_time=360
type=control_change channel=10 control=11 value=40 time=6 actual_time=366
type=control_change channel=10 control=11 value=39 time=6 actual_time=372
type=control_change channel=10 control=11 value=40 time=9 actual_time=381
type=control_change channel=10 control=11 value=39 time=6 actual_time=387
type=control_change channel=10 control=11 value=40 time=9 actual_time=396
type=control_change channel=10 control=11 value=41 time=4 actual_time=400
type=control_change channel=10 control=11 value=41 time=5 actual_time=405
type=control_change channel=10 control=11 value=40 time=6 actual_time=411
type=control_change channel=10 control=11 value=41 time=9 actual_time=420
type=control_change channel=10 control=11 value=40 time=6 actual_time=426
type=control_change channel=10 control=11 value=41 time=9 actual_time=435
type=control_change channel=10 control=11 value=42 time=5 actual_time=440
type=control_change channel=10 control=11 value=42 time=4 actual_time=444
type=control_change channel=10 control=11 value=41 time=6 actual_time=450
type=control_change channel=10 control=11 value=42 time=9 actual_time=459
type=control_change channel=10 control=11 value=41 time=6 actual_time=465
type=control_change channel=10 control=11 value=42 time=9 actual_time=474
type=control_change channel=10 control=11 value=43 time=6 actual_time=480
type=control_change channel=10 control=11 value=43 time=3 actual_time=483
type=control_change channel=10 control=11 value=42 time=6 actual_time=489
type=control_change channel=10 control=11 value=43 time=9 actual_time=498
type=control_change channel=10 control=11 value=42 time=6 actual_time=504
type=control_change channel=10 control=11 value=43 time=9 actual_time=513
type=control_change channel=10 control=11 value=44 time=7 actual_time=520
type=control_change channel=10 control=11 value=44 time=2 actual_time=522
type=control_change channel=10 control=11 value=43 time=6 actual_time=528
type=control_change channel=10 control=11 value=44 time=9 actual_time=537
type=control_change channel=10 control=11 value=43 time=6 actual_time=543
type=control_change channel=10 control=11 value=44 time=9 actual_time=552
type=control_change channel=10 control=11 value=45 time=8 actual_time=560
type=control_change channel=10 control=11 value=45 time=1 actual_time=561
type=control_change channel=10 control=11 value=44 time=6 actual_time=567
type=control_change channel=10 control=11 value=45 time=9 actual_time=576
type=control_change channel=10 control=11 value=44 time=6 actual_time=582
type=control_change channel=10 control=11 value=45 time=9 actual_time=591
type=control_change channel=10 control=11 value=46 time=9 actual_time=600
type=control_change channel=10 control=11 value=46 time=0 actual_time=600
type=control_change channel=10 control=11 value=45 time=6 actual_time=606
type=control_change channel=10 control=11 value=46 time=9 actual_time=615
type=control_change channel=10 control=11 value=45 time=6 actual_time=621
type=control_change channel=10 control=11 value=46 time=9 actual_time=630
type=control_change channel=10 control=11 value=47 time=9 actual_time=639
type=control_change channel=10 control=11 value=47 time=1 actual_time=640
type=control_change channel=10 control=11 value=46 time=5 actual_time=645
type=control_change channel=10 control=11 value=47 time=9 actual_time=654
type=control_change channel=10 control=11 value=46 time=6 actual_time=660
type=control_change channel=10 control=11 value=47 time=9 actual_time=669
type=control_change channel=10 control=11 value=48 time=9 actual_time=678
type=control_change channel=10 control=11 value=48 time=2 actual_time=680
type=control_change channel=10 control=11 value=47 time=4 actual_time=684
type=control_change channel=10 control=11 value=48 time=9 actual_time=693
type=control_change channel=10 control=11 value=47 time=6 actual_time=699
type=control_change channel=10 control=11 value=48 time=9 actual_time=708
type=control_change channel=10 control=11 value=49 time=9 actual_time=717
type=control_change channel=10 control=11 value=49 time=3 actual_time=720
type=control_change channel=10 control=11 value=48 time=3 actual_time=723
type=control_change channel=10 control=11 value=49 time=9 actual_time=732
type=control_change channel=10 control=11 value=48 time=6 actual_time=738
type=control_change channel=10 control=11 value=49 time=9 actual_time=747
type=control_change channel=10 control=11 value=50 time=9 actual_time=756
type=control_change channel=10 control=11 value=50 time=4 actual_time=760
type=control_change channel=10 control=11 value=49 time=2 actual_time=762
type=control_change channel=10 control=11 value=50 time=9 actual_time=771
type=control_change channel=10 control=11 value=49 time=6 actual_time=777
type=control_change channel=10 control=11 value=50 time=9 actual_time=786
type=control_change channel=10 control=11 value=51 time=9 actual_time=795
type=control_change channel=10 control=11 value=51 time=5 actual_time=800
type=control_change channel=10 control=11 value=50 time=1 actual_time=801
type=control_change channel=10 control=11 value=51 time=9 actual_time=810
type=control_change channel=10 control=11 value=50 time=6 actual_time=816
type=control_change channel=10 control=11 value=51 time=9 actual_time=825
type=control_change channel=10 control=11 value=52 time=9 actual_time=834
type=control_change channel=10 control=11 value=52 time=6 actual_time=840
type=control_change channel=10 control=11 value=51 time=0 actual_time=840
type=control_change channel=10 control=11 value=52 time=9 actual_time=849
type=control_change channel=10 control=11 value=51 time=6 actual_time=855
type=control_change channel=10 control=11 value=52 time=9 actual_time=864
type=control_change channel=10 control=11 value=53 time=9 actual_time=873
type=control_change channel=10 control=11 value=52 time=6 actual_time=879
type=control_change channel=10 control=11 value=53 time=1 actual_time=880
type=control_change channel=10 control=11 value=53 time=8 actual_time=888
type=control_change channel=10 control=11 value=52 time=6 actual_time=894
type=control_change channel=10 control=11 value=53 time=9 actual_time=903
type=control_change channel=10 control=11 value=54 time=9 actual_time=912
type=control_change channel=10 control=11 value=53 time=6 actual_time=918
type=control_change channel=10 control=11 value=54 time=2 actual_time=920
type=control_change channel=10 control=11 value=54 time=7 actual_time=927
type=control_change channel=10 control=11 value=53 time=6 actual_time=933
type=control_change channel=10 control=11 value=54 time=9 actual_time=942
type=control_change channel=10 control=11 value=55 time=9 actual_time=951
type=control_change channel=10 control=11 value=54 time=6 actual_time=957
type=control_change channel=10 control=11 value=55 time=3 actual_time=960
type=control_change channel=10 control=11 value=55 time=6 actual_time=966
type=control_change channel=10 control=11 value=54 time=6 actual_time=972
type=control_change channel=10 control=11 value=55 time=9 actual_time=981
type=control_change channel=10 control=11 value=56 time=9 actual_time=990
type=control_change channel=10 control=11 value=55 time=6 actual_time=996
type=control_change channel=10 control=11 value=56 time=4 actual_time=1000
type=control_change channel=10 control=11 value=56 time=5 actual_time=1005
type=control_change channel=10 control=11 value=55 time=6 actual_time=1011
type=control_change channel=10 control=11 value=56 time=9 actual_time=1020
type=control_change channel=10 control=11 value=57 time=9 actual_time=1029
type=control_change channel=10 control=11 value=56 time=6 actual_time=1035
type=control_change channel=10 control=11 value=57 time=5 actual_time=1040
type=control_change channel=10 control=11 value=57 time=4 actual_time=1044
type=control_change channel=10 control=11 value=56 time=6 actual_time=1050
type=control_change channel=10 control=11 value=57 time=9 actual_time=1059
type=control_change channel=10 control=11 value=58 time=9 actual_time=1068
type=control_change channel=10 control=11 value=57 time=6 actual_time=1074
type=control_change channel=10 control=11 value=58 time=6 actual_time=1080
type=control_change channel=10 control=11 value=58 time=3 actual_time=1083
type=control_change channel=10 control=11 value=57 time=6 actual_time=1089
type=control_change channel=10 control=11 value=58 time=9 actual_time=1098
type=control_change channel=10 control=11 value=59 time=9 actual_time=1107
type=control_change channel=10 control=11 value=58 time=6 actual_time=1113
type=control_change channel=10 control=11 value=59 time=7 actual_time=1120
type=control_change channel=10 control=11 value=59 time=2 actual_time=1122
type=control_change channel=10 control=11 value=58 time=6 actual_time=1128
type=control_change channel=10 control=11 value=59 time=9 actual_time=1137
type=control_change channel=10 control=11 value=60 time=9 actual_time=1146
type=control_change channel=10 control=11 value=59 time=6 actual_time=1152
type=control_change channel=10 control=11 value=60 time=8 actual_time=1160
type=control_change channel=10 control=11 value=60 time=1 actual_time=1161
type=control_change channel=10 control=11 value=59 time=6 actual_time=1167
type=control_change channel=10 control=11 value=60 time=9 actual_time=1176
type=control_change channel=10 control=11 value=61 time=9 actual_time=1185
type=control_change channel=10 control=11 value=60 time=6 actual_time=1191
type=control_change channel=10 control=11 value=61 time=9 actual_time=1200
type=control_change channel=10 control=11 value=61 time=0 actual_time=1200
type=control_change channel=10 control=11 value=60 time=6 actual_time=1206
type=control_change channel=10 control=11 value=61 time=9 actual_time=1215
type=control_change channel=10 control=11 value=62 time=9 actual_time=1224
type=control_change channel=10 control=11 value=61 time=6 actual_time=1230
type=control_change channel=10 control=11 value=62 time=9 actual_time=1239
type=control_change channel=10 control=11 value=62 time=1 actual_time=1240
type=control_change channel=10 control=11 value=61 time=5 actual_time=1245
type=control_change channel=10 control=11 value=62 time=9 actual_time=1254
type=control_change channel=10 control=11 value=63 time=9 actual_time=1263
type=control_change channel=10 control=11 value=62 time=6 actual_time=1269
type=control_change channel=10 control=11 value=63 time=9 actual_time=1278
type=control_change channel=10 control=11 value=63 time=2 actual_time=1280
type=control_change channel=10 control=11 value=62 time=4 actual_time=1284
type=control_change channel=10 control=11 value=63 time=9 actual_time=1293
type=control_change channel=10 control=11 value=64 time=9 actual_time=1302
type=control_change channel=10 control=11 value=63 time=6 actual_time=1308
type=control_change channel=10 control=11 value=64 time=9 actual_time=1317
type=control_change channel=10 control=11 value=64 time=3 actual_time=1320
type=control_change channel=10 control=11 value=63 time=3 actual_time=1323
type=control_change channel=10 control=11 value=64 time=9 actual_time=1332
type=control_change channel=10 control=11 value=65 time=9 actual_time=1341
type=control_change channel=10 control=11 value=64 time=6 actual_time=1347
type=control_change channel=10 control=11 value=65 time=9 actual_time=1356
type=control_change channel=10 control=11 value=65 time=4 actual_time=1360
type=control_change channel=10 control=11 value=64 time=2 actual_time=1362
type=control_change channel=10 control=11 value=65 time=9 actual_time=1371
type=control_change channel=10 control=11 value=66 time=9 actual_time=1380
type=control_change channel=10 control=11 value=65 time=6 actual_time=1386
type=control_change channel=10 control=11 value=66 time=9 actual_time=1395
type=control_change channel=10 control=11 value=66 time=5 actual_time=1400
type=control_change channel=10 control=11 value=65 time=1 actual_time=1401
type=control_change channel=10 control=11 value=66 time=9 actual_time=1410
type=control_change channel=10 control=11 value=67 time=9 actual_time=1419
type=control_change channel=10 control=11 value=66 time=6 actual_time=1425
type=control_change channel=10 control=11 value=67 time=9 actual_time=1434
type=control_change channel=10 control=11 value=67 time=6 actual_time=1440
type=control_change channel=10 control=11 value=66 time=0 actual_time=1440
type=control_change channel=10 control=11 value=67 time=9 actual_time=1449
type=control_change channel=10 control=11 value=68 time=9 actual_time=1458
type=control_change channel=10 control=11 value=67 time=6 actual_time=1464
type=control_change channel=10 control=11 value=68 time=9 actual_time=1473
type=control_change channel=10 control=11 value=67 time=6 actual_time=1479
type=control_change channel=10 control=11 value=68 time=1 actual_time=1480
type=control_change channel=10 control=11 value=68 time=8 actual_time=1488
type=control_change channel=10 control=11 value=69 time=9 actual_time=1497
type=control_change channel=10 control=11 value=68 time=6 actual_time=1503
type=control_change channel=10 control=11 value=69 time=9 actual_time=1512
type=control_change channel=10 control=11 value=68 time=6 actual_time=1518
type=control_change channel=10 control=11 value=69 time=2 actual_time=1520
type=control_change channel=10 control=11 value=69 time=7 actual_time=1527
type=control_change channel=10 control=11 value=70 time=9 actual_time=1536
type=control_change channel=10 control=11 value=69 time=6 actual_time=1542
type=control_change channel=10 control=11 value=70 time=9 actual_time=1551
type=control_change channel=10 control=11 value=69 time=6 actual_time=1557
type=control_change channel=10 control=11 value=70 time=3 actual_time=1560
type=control_change channel=10 control=11 value=70 time=6 actual_time=1566
type=control_change channel=10 control=11 value=71 time=9 actual_time=1575
type=control_change channel=10 control=11 value=70 time=6 actual_time=1581
type=control_change channel=10 control=11 value=71 time=9 actual_time=1590
type=control_change channel=10 control=11 value=70 time=6 actual_time=1596
type=control_change channel=10 control=11 value=71 time=4 actual_time=1600
type=control_change channel=10 control=11 value=71 time=5 actual_time=1605
type=control_change channel=10 control=11 value=72 time=9 actual_time=1614
type=control_change channel=10 control=11 value=71 time=6 actual_time=1620
type=control_change channel=10 control=11 value=72 time=9 actual_time=1629
type=control_change channel=10 control=11 value=71 time=6 actual_time=1635
type=control_change channel=10 control=11 value=72 time=5 actual_time=1640
type=control_change channel=10 control=11 value=72 time=4 actual_time=1644
type=control_change channel=10 control=11 value=73 time=9 actual_time=1653
type=control_change channel=10 control=11 value=72 time=6 actual_time=1659
type=control_change channel=10 control=11 value=73 time=9 actual_time=1668
type=control_change channel=10 control=11 value=72 time=6 actual_time=1674
type=control_change channel=10 control=11 value=73 time=6 actual_time=1680
type=control_change channel=10 control=11 value=73 time=3 actual_time=1683
type=control_change channel=10 control=11 value=74 time=9 actual_time=1692
type=control_change channel=10 control=11 value=73 time=6 actual_time=1698
type=control_change channel=10 control=11 value=74 time=9 actual_time=1707
type=control_change channel=10 control=11 value=73 time=6 actual_time=1713
type=control_change channel=10 control=11 value=74 time=7 actual_time=1720
type=control_change channel=10 control=11 value=74 time=2 actual_time=1722
type=control_change channel=10 control=11 value=75 time=9 actual_time=1731
type=control_change channel=10 control=11 value=74 time=6 actual_time=1737
type=control_change channel=10 control=11 value=75 time=9 actual_time=1746
type=control_change channel=10 control=11 value=74 time=6 actual_time=1752
type=control_change channel=10 control=11 value=75 time=8 actual_time=1760
type=control_change channel=10 control=11 value=75 time=1 actual_time=1761
type=control_change channel=10 control=11 value=76 time=9 actual_time=1770
type=control_change channel=10 control=11 value=75 time=6 actual_time=1776
type=control_change channel=10 control=11 value=76 time=9 actual_time=1785
type=control_change channel=10 control=11 value=75 time=6 actual_time=1791
type=control_change channel=10 control=11 value=76 time=9 actual_time=1800
type=control_change channel=10 control=11 value=76 time=0 actual_time=1800
type=control_change channel=10 control=11 value=77 time=9 actual_time=1809
type=control_change channel=10 control=11 value=76 time=6 actual_time=1815
type=control_change channel=10 control=11 value=77 time=9 actual_time=1824
type=control_change channel=10 control=11 value=76 time=6 actual_time=1830
type=control_change channel=10 control=11 value=77 time=9 actual_time=1839
type=control_change channel=10 control=11 value=77 time=1 actual_time=1840
type=control_change channel=10 control=11 value=78 time=8 actual_time=1848
type=control_change channel=10 control=11 value=77 time=6 actual_time=1854
type=control_change channel=10 control=11 value=78 time=9 actual_time=1863
type=control_change channel=10 control=11 value=77 time=6 actual_time=1869
type=control_change channel=10 control=11 value=78 time=9 actual_time=1878
type=control_change channel=10 control=11 value=78 time=2 actual_time=1880
type=control_change channel=10 control=11 value=79 time=7 actual_time=1887
type=control_change channel=10 control=11 value=78 time=6 actual_time=1893
type=control_change channel=10 control=11 value=79 time=9 actual_time=1902
type=control_change channel=10 control=11 value=78 time=6 actual_time=1908
type=control_change channel=10 control=11 value=79 time=9 actual_time=1917
type=control_change channel=10 control=11 value=79 time=3 actual_time=1920
type=control_change channel=10 control=11 value=80 time=6 actual_time=1926
type=control_change channel=10 control=11 value=79 time=6 actual_time=1932
type=control_change channel=10 control=11 value=80 time=9 actual_time=1941
type=control_change channel=10 control=11 value=79 time=6 actual_time=1947
type=control_change channel=10 control=11 value=80 time=9 actual_time=1956
type=control_change channel=10 control=11 value=80 time=4 actual_time=1960
type=control_change channel=10 control=11 value=81 time=5 actual_time=1965
type=control_change channel=10 control=11 value=80 time=6 actual_time=1971
type=control_change channel=10 control=11 value=81 time=9 actual_time=1980
type=control_change channel=10 control=11 value=80 time=6 actual_time=1986
type=control_change channel=10 control=11 value=81 time=9 actual_time=1995
type=control_change channel=10 control=11 value=81 time=5 actual_time=2000
type=control_change channel=10 control=11 value=82 time=4 actual_time=2004
type=control_change channel=10 control=11 value=81 time=6 actual_time=2010
type=control_change channel=10 control=11 value=82 time=9 actual_time=2019
type=control_change channel=10 control=11 value=81 time=6 actual_time=2025
type=control_change channel=10 control=11 value=82 time=9 actual_time=2034
type=control_change channel=10 control=11 value=82 time=6 actual_time=2040
type=control_change channel=10 control=11 value=83 time=3 actual_time=2043
type=control_change channel=10 control=11 value=82 time=6 actual_time=2049
type=control_change channel=10 control=11 value=83 time=9 actual_time=2058
type=control_change channel=10 control=11 value=82 time=6 actual_time=2064
type=control_change channel=10 control=11 value=83 time=9 actual_time=2073
type=control_change channel=10 control=11 value=83 time=7 actual_time=2080
type=control_change channel=10 control=11 value=84 time=2 actual_time=2082
type=control_change channel=10 control=11 value=83 time=6 actual_time=2088
type=control_change channel=10 control=11 value=84 time=9 actual_time=2097
type=control_change channel=10 control=11 value=83 time=6 actual_time=2103
type=control_change channel=10 control=11 value=84 time=9 actual_time=2112
type=control_change channel=10 control=11 value=84 time=8 actual_time=2120
type=control_change channel=10 control=11 value=85 time=1 actual_time=2121
type=control_change channel=10 control=11 value=84 time=6 actual_time=2127
type=control_change channel=10 control=11 value=85 time=9 actual_time=2136
type=control_change channel=10 control=11 value=84 time=6 actual_time=2142
type=control_change channel=10 control=11 value=85 time=9 actual_time=2151
type=control_change channel=10 control=11 value=85 time=9 actual_time=2160
type=control_change channel=10 control=11 value=86 time=0 actual_time=2160
type=control_change channel=10 control=11 value=85 time=6 actual_time=2166
type=control_change channel=10 control=11 value=86 time=9 actual_time=2175
type=control_change channel=10 control=11 value=85 time=6 actual_time=2181
type=control_change channel=10 control=11 value=86 time=9 actual_time=2190
type=control_change channel=10 control=11 value=87 time=9 actual_time=2199
type=control_change channel=10 control=11 value=86 time=1 actual_time=2200
type=control_change channel=10 control=11 value=86 time=5 actual_time=2205
type=control_change channel=10 control=11 value=87 time=9 actual_time=2214
type=control_change channel=10 control=11 value=86 time=6 actual_time=2220
type=control_change channel=10 control=11 value=87 time=9 actual_time=2229
type=control_change channel=10 control=11 value=88 time=9 actual_time=2238
type=control_change channel=10 control=11 value=87 time=2 actual_time=2240
type=control_change channel=10 control=11 value=87 time=4 actual_time=2244
type=control_change channel=10 control=11 value=88 time=9 actual_time=2253
type=control_change channel=10 control=11 value=87 time=6 actual_time=2259
type=control_change channel=10 control=11 value=88 time=9 actual_time=2268
type=control_change channel=10 control=11 value=89 time=9 actual_time=2277
type=control_change channel=10 control=11 value=88 time=3 actual_time=2280
type=control_change channel=10 control=11 value=88 time=3 actual_time=2283
type=control_change channel=10 control=11 value=89 time=9 actual_time=2292
type=control_change channel=10 control=11 value=88 time=6 actual_time=2298
type=control_change channel=10 control=11 value=89 time=9 actual_time=2307
type=control_change channel=10 control=11 value=90 time=9 actual_time=2316
type=control_change channel=10 control=11 value=89 time=4 actual_time=2320
type=control_change channel=10 control=11 value=89 time=2 actual_time=2322
type=control_change channel=10 control=11 value=90 time=9 actual_time=2331
type=control_change channel=10 control=11 value=89 time=6 actual_time=2337
type=control_change channel=10 control=11 value=90 time=9 actual_time=2346
type=control_change channel=10 control=11 value=91 time=9 actual_time=2355
type=control_change channel=10 control=11 value=90 time=5 actual_time=2360
type=control_change channel=10 control=11 value=90 time=1 actual_time=2361
type=control_change channel=10 control=11 value=91 time=9 actual_time=2370
type=control_change channel=10 control=11 value=90 time=6 actual_time=2376
type=control_change channel=10 control=11 value=91 time=9 actual_time=2385
type=control_change channel=10 control=11 value=92 time=9 actual_time=2394
type=control_change channel=10 control=11 value=91 time=6 actual_time=2400
type=control_change channel=10 control=11 value=91 time=0 actual_time=2400
type=control_change channel=10 control=11 value=92 time=9 actual_time=2409
type=control_change channel=10 control=11 value=91 time=6 actual_time=2415
type=control_change channel=10 control=11 value=92 time=9 actual_time=2424
type=control_change channel=10 control=11 value=93 time=9 actual_time=2433
type=control_change channel=10 control=11 value=92 time=6 actual_time=2439
type=control_change channel=10 control=11 value=92 time=1 actual_time=2440
type=control_change channel=10 control=11 value=93 time=8 actual_time=2448
type=control_change channel=10 control=11 value=92 time=6 actual_time=2454
type=control_change channel=10 control=11 value=93 time=9 actual_time=2463
type=control_change channel=10 control=11 value=94 time=9 actual_time=2472
type=control_change channel=10 control=11 value=93 time=6 actual_time=2478
type=control_change channel=10 control=11 value=93 time=2 actual_time=2480
type=control_change channel=10 control=11 value=94 time=7 actual_time=2487
type=control_change channel=10 control=11 value=93 time=6 actual_time=2493
type=control_change channel=10 control=11 value=94 time=9 actual_time=2502
type=control_change channel=10 control=11 value=95 time=9 actual_time=2511
type=control_change channel=10 control=11 value=94 time=6 actual_time=2517
type=control_change channel=10 control=11 value=94 time=3 actual_time=2520
type=control_change channel=10 control=11 value=95 time=6 actual_time=2526
type=control_change channel=10 control=11 value=94 time=6 actual_time=2532
type=control_change channel=10 control=11 value=95 time=9 actual_time=2541
type=control_change channel=10 control=11 value=96 time=9 actual_time=2550
type=control_change channel=10 control=11 value=95 time=6 actual_time=2556
type=control_change channel=10 control=11 value=95 time=4 actual_time=2560
type=control_change channel=10 control=11 value=96 time=5 actual_time=2565
type=control_change channel=10 control=11 value=95 time=6 actual_time=2571
type=control_change channel=10 control=11 value=96 time=9 actual_time=2580
type=control_change channel=10 control=11 value=97 time=9 actual_time=2589
type=control_change channel=10 control=11 value=96 time=6 actual_time=2595
type=control_change channel=10 control=11 value=96 time=5 actual_time=2600
type=control_change channel=10 control=11 value=97 time=4 actual_time=2604
type=control_change channel=10 control=11 value=96 time=6 actual_time=2610
type=control_change channel=10 control=11 value=97 time=9 actual_time=2619
type=control_change channel=10 control=11 value=98 time=9 actual_time=2628
type=control_change channel=10 control=11 value=97 time=6 actual_time=2634
type=control_change channel=10 control=11 value=97 time=6 actual_time=2640
type=control_change channel=10 control=11 value=98 time=3 actual_time=2643
type=control_change channel=10 control=11 value=97 time=6 actual_time=2649
type=control_change channel=10 control=11 value=98 time=9 actual_time=2658
type=control_change channel=10 control=11 value=99 time=9 actual_time=2667
type=control_change channel=10 control=11 value=98 time=6 actual_time=2673
type=control_change channel=10 control=11 value=98 time=7 actual_time=2680
type=control_change channel=10 control=11 value=99 time=2 actual_time=2682
type=control_change channel=10 control=11 value=98 time=6 actual_time=2688
type=control_change channel=10 control=11 value=99 time=9 actual_time=2697
type=control_change channel=10 control=11 value=100 time=9 actual_time=2706
type=control_change channel=10 control=11 value=99 time=6 actual_time=2712
type=control_change channel=10 control=11 value=99 time=8 actual_time=2720
type=control_change channel=10 control=11 value=100 time=1 actual_time=2721
type=control_change channel=10 control=11 value=99 time=6 actual_time=2727
type=control_change channel=10 control=11 value=100 time=9 actual_time=2736
type=control_change channel=10 control=11 value=101 time=9 actual_time=2745
type=control_change channel=10 control=11 value=100 time=6 actual_time=2751
type=control_change channel=10 control=11 value=100 time=9 actual_time=2760
type=control_change channel=10 control=11 value=101 time=0 actual_time=2760
type=control_change channel=10 control=11 value=100 time=6 actual_time=2766
type=control_change channel=10 control=11 value=101 time=9 actual_time=2775
type=control_change channel=10 control=11 value=102 time=9 actual_time=2784
type=control_change channel=10 control=11 value=101 time=6 actual_time=2790
type=control_change channel=10 control=11 value=102 time=9 actual_time=2799
type=control_change channel=10 control=11 value=101 time=1 actual_time=2800
type=control_change channel=10 control=11 value=101 time=5 actual_time=2805
type=control_change channel=10 control=11 value=102 time=9 actual_time=2814
type=control_change channel=10 control=11 value=103 time=9 actual_time=2823
type=control_change channel=10 control=11 value=102 time=6 actual_time=2829
type=control_change channel=10 control=11 value=103 time=9 actual_time=2838
type=control_change channel=10 control=11 value=102 time=2 actual_time=2840
type=control_change channel=10 control=11 value=102 time=4 actual_time=2844
type=control_change channel=10 control=11 value=103 time=9 actual_time=2853
type=control_change channel=10 control=11 value=104 time=9 actual_time=2862
type=control_change channel=10 control=11 value=103 time=6 actual_time=2868
type=control_change channel=10 control=11 value=104 time=9 actual_time=2877
type=control_change channel=10 control=11 value=103 time=3 actual_time=2880
type=control_change channel=10 control=11 value=103 time=3 actual_time=2883
type=control_change channel=10 control=11 value=104 time=9 actual_time=2892
type=control_change channel=10 control=11 value=105 time=9 actual_time=2901
type=control_change channel=10 control=11 value=104 time=6 actual_time=2907
type=control_change channel=10 control=11 value=105 time=9 actual_time=2916
type=control_change channel=10 control=11 value=104 time=4 actual_time=2920
type=control_change channel=10 control=11 value=104 time=2 actual_time=2922
type=control_change channel=10 control=11 value=105 time=9 actual_time=2931
type=control_change channel=10 control=11 value=106 time=9 actual_time=2940
type=control_change channel=10 control=11 value=105 time=6 actual_time=2946
type=control_change channel=10 control=11 value=106 time=9 actual_time=2955
type=control_change channel=10 control=11 value=105 time=5 actual_time=2960
type=control_change channel=10 control=11 value=105 time=1 actual_time=2961
type=control_change channel=10 control=11 value=106 time=9 actual_time=2970
type=control_change channel=10 control=11 value=107 time=9 actual_time=2979
type=control_change channel=10 control=11 value=106 time=6 actual_time=2985
type=control_change channel=10 control=11 value=107 time=9 actual_time=2994
type=control_change channel=10 control=11 value=106 time=6 actual_time=3000
type=control_change channel=10 control=11 value=106 time=0 actual_time=3000
type=control_change channel=10 control=11 value=107 time=9 actual_time=3009
type=control_change channel=10 control=11 value=108 time=9 actual_time=3018
type=control_change channel=10 control=11 value=107 time=6 actual_time=3024
type=control_change channel=10 control=11 value=108 time=9 actual_time=3033
type=control_change channel=10 control=11 value=107 time=6 actual_time=3039
type=control_change channel=10 control=11 value=107 time=1 actual_time=3040
type=control_change channel=10 control=11 value=108 time=8 actual_time=3048
type=control_change channel=10 control=11 value=109 time=9 actual_time=3057
type=control_change channel=10 control=11 value=108 time=6 actual_time=3063
type=control_change channel=10 control=11 value=109 time=9 actual_time=3072
type=control_change channel=10 control=11 value=108 time=6 actual_time=3078
type=control_change channel=10 control=11 value=108 time=2 actual_time=3080
type=control_change channel=10 control=11 value=109 time=7 actual_time=3087
type=control_change channel=10 control=11 value=110 time=9 actual_time=3096
type=control_change channel=10 control=11 value=109 time=6 actual_time=3102
type=control_change channel=10 control=11 value=110 time=9 actual_time=3111
type=control_change channel=10 control=11 value=109 time=6 actual_time=3117
type=control_change channel=10 control=11 value=109 time=3 actual_time=3120
type=control_change channel=10 control=11 value=110 time=6 actual_time=3126
type=control_change channel=10 control=11 value=111 time=9 actual_time=3135
type=control_change channel=10 control=11 value=110 time=6 actual_time=3141
type=control_change channel=10 control=11 value=111 time=9 actual_time=3150
type=control_change channel=10 control=11 value=110 time=6 actual_time=3156
type=control_change channel=10 control=11 value=110 time=4 actual_time=3160
type=control_change channel=10 control=11 value=111 time=5 actual_time=3165
type=control_change channel=10 control=11 value=112 time=9 actual_time=3174
type=control_change channel=10 control=11 value=111 time=6 actual_time=3180
type=control_change channel=10 control=11 value=112 time=9 actual_time=3189
type=control_change channel=10 control=11 value=111 time=6 actual_time=3195
type=control_change channel=10 control=11 value=111 time=5 actual_time=3200
type=control_change channel=10 control=11 value=112 time=4 actual_time=3204
type=control_change channel=10 control=11 value=113 time=9 actual_time=3213
type=control_change channel=10 control=11 value=112 time=6 actual_time=3219
type=control_change channel=10 control=11 value=113 time=9 actual_time=3228
type=control_change channel=10 control=11 value=112 time=6 actual_time=3234
type=control_change channel=10 control=11 value=112 time=6 actual_time=3240
type=control_change channel=10 control=11 value=113 time=3 actual_time=3243
type=control_change channel=10 control=11 value=114 time=9 actual_time=3252
type=control_change channel=10 control=11 value=113 time=6 actual_time=3258
type=control_change channel=10 control=11 value=114 time=9 actual_time=3267
type=control_change channel=10 control=11 value=113 time=6 actual_time=3273
type=control_change channel=10 control=11 value=113 time=7 actual_time=3280
type=control_change channel=10 control=11 value=114 time=2 actual_time=3282
type=control_change channel=10 control=11 value=115 time=9 actual_time=3291
type=control_change channel=10 control=11 value=114 time=6 actual_time=3297
type=control_change channel=10 control=11 value=115 time=9 actual_time=3306
type=control_change channel=10 control=11 value=114 time=6 actual_time=3312
type=control_change channel=10 control=11 value=114 time=8 actual_time=3320
type=control_change channel=10 control=11 value=115 time=1 actual_time=3321
type=control_change channel=10 control=11 value=116 time=9 actual_time=3330
type=control_change channel=10 control=11 value=115 time=6 actual_time=3336
type=control_change channel=10 control=11 value=116 time=9 actual_time=3345
type=control_change channel=10 control=11 value=115 time=6 actual_time=3351
type=control_change channel=10 control=11 value=115 time=9 actual_time=3360
type=control_change channel=10 control=11 value=116 time=0 actual_time=3360
type=control_change channel=10 control=11 value=117 time=9 actual_time=3369
type=control_change channel=10 control=11 value=116 time=6 actual_time=3375
type=control_change channel=10 control=11 value=117 time=9 actual_time=3384
type=control_change channel=10 control=11 value=116 time=6 actual_time=3390
type=control_change channel=10 control=11 value=117 time=9 actual_time=3399
type=control_change channel=10 control=11 value=116 time=1 actual_time=3400
type=control_change channel=10 control=11 value=118 time=8 actual_time=3408
type=control_change channel=10 control=11 value=117 time=6 actual_time=3414
type=control_change channel=10 control=11 value=118 time=9 actual_time=3423
type=control_change channel=10 control=11 value=117 time=6 actual_time=3429
type=control_change channel=10 control=11 value=118 time=9 actual_time=3438
type=control_change channel=10 control=11 value=117 time=2 actual_time=3440
type=control_change channel=10 control=11 value=119 time=7 actual_time=3447
type=control_change channel=10 control=11 value=118 time=6 actual_time=3453
type=control_change channel=10 control=11 value=119 time=9 actual_time=3462
type=control_change channel=10 control=11 value=118 time=6 actual_time=3468
type=control_change channel=10 control=11 value=119 time=9 actual_time=3477
type=control_change channel=10 control=11 value=118 time=3 actual_time=3480
type=control_change channel=10 control=11 value=120 time=6 actual_time=3486
type=control_change channel=10 control=11 value=119 time=6 actual_time=3492
type=control_change channel=10 control=11 value=120 time=9 actual_time=3501
type=control_change channel=10 control=11 value=119 time=6 actual_time=3507
type=control_change channel=10 control=11 value=120 time=9 actual_time=3516
type=control_change channel=10 control=11 value=119 time=4 actual_time=3520
type=control_change channel=10 control=11 value=121 time=5 actual_time=3525
type=control_change channel=10 control=11 value=120 time=6 actual_time=3531
type=control_change channel=10 control=11 value=121 time=9 actual_time=3540
type=control_change channel=10 control=11 value=120 time=6 actual_time=3546
type=control_change channel=10 control=11 value=121 time=9 actual_time=3555
type=control_change channel=10 control=11 value=120 time=5 actual_time=3560
type=control_change channel=10 control=11 value=122 time=4 actual_time=3564
type=control_change channel=10 control=11 value=121 time=6 actual_time=3570
type=control_change channel=10 control=11 value=122 time=9 actual_time=3579
type=control_change channel=10 control=11 value=121 time=6 actual_time=3585
type=control_change channel=10 control=11 value=122 time=9 actual_time=3594
type=control_change channel=10 control=11 value=121 time=6 actual_time=3600
type=control_change channel=10 control=11 value=123 time=3 actual_time=3603
type=control_change channel=10 control=11 value=122 time=6 actual_time=3609
type=control_change channel=10 control=11 value=123 time=9 actual_time=3618
type=control_change channel=10 control=11 value=122 time=6 actual_time=3624
type=control_change channel=10 control=11 value=123 time=9 actual_time=3633
type=control_change channel=10 control=11 value=122 time=7 actual_time=3640
type=control_change channel=10 control=11 value=124 time=2 actual_time=3642
type=control_change channel=10 control=11 value=123 time=6 actual_time=3648
type=control_change channel=10 control=11 value=124 time=9 actual_time=3657
type=control_change channel=10 control=11 value=123 time=6 actual_time=3663
type=control_change channel=10 control=11 value=124 time=9 actual_time=3672
type=control_change channel=10 control=11 value=123 time=8 actual_time=3680
type=control_change channel=10 control=11 value=125 time=1 actual_time=3681
type=control_change channel=10 control=11 value=124 time=6 actual_time=3687
type=control_change channel=10 control=11 value=125 time=9 actual_time=3696
type=control_change channel=10 control=11 value=124 time=6 actual_time=3702
type=control_change channel=10 control=11 value=125 time=9 actual_time=3711
type=control_change channel=10 control=11 value=124 time=9 actual_time=3720
type=control_change channel=10 control=11 value=126 time=0 actual_time=3720
type=control_change channel=10 control=11 value=125 time=6 actual_time=3726
type=control_change channel=10 control=11 value=126 time=9 actual_time=3735
type=control_change channel=10 control=11 value=125 time=6 actual_time=3741
type=control_change channel=10 control=11 value=126 time=9 actual_time=3750
type=control_change channel=10 control=11 value=125 time=10 actual_time=3760
type=control_change channel=10 control=11 value=126 time=5 actual_time=3765
type=control_change channel=10 control=11 value=126 time=15 actual_time=3780
type=control_change channel=10 control=11 value=126 time=20 actual_time=3800
type=control_change channel=10 control=11 value=127 time=40 actual_time=3840
type: note_off, time: 0, actual_time: 3840
type=control_change channel=10 control=11 value=127 time=0 actual_time=3840
type: note_off, time: 0, actual_time: 3840
type=control_change channel=10 control=11 value=127 time=0 actual_time=3840
type: note_off, time: 0, actual_time: 3840
type=control_change channel=10 control=11 value=127 time=0 actual_time=3840
type: note_off, time: 0, actual_time: 3840
type=control_change channel=10 control=11 value=127 time=0 actual_time=3840
type: note_off, time: 0, actual_time: 3840
type=control_change channel=10 control=11 value=127 time=0 actual_time=3840
type: note_off, time: 0, actual_time: 3840
type=control_change channel=10 control=11 value=31 time=0 actual_time=3840
type=note_on channel=10 note=64 velocity=111 time=0 actual_time=3840
type=control_change channel=10 control=11 value=31 time=15 actual_time=3855
type=note_on channel=10 note=62 velocity=95 time=0 actual_time=3855
type=control_change channel=10 control=11 value=31 time=15 actual_time=3870
type=note_on channel=10 note=57 velocity=95 time=0 actual_time=3870
type=control_change channel=10 control=11 value=32 time=10 actual_time=3880
type=control_change channel=10 control=11 value=31 time=5 actual_time=3885
type=note_on channel=10 note=50 velocity=95 time=0 actual_time=3885
type=control_change channel=10 control=11 value=32 time=9 actual_time=3894
type=control_change channel=10 control=11 value=32 time=15 actual_time=3909
type=control_change channel=10 control=11 value=33 time=11 actual_time=3920
type=control_change channel=10 control=11 value=32 time=4 actual_time=3924
type=control_change channel=10 control=11 value=33 time=9 actual_time=3933
type=control_change channel=10 control=11 value=33 time=15 actual_time=3948
type=control_change channel=10 control=11 value=34 time=12 actual_time=3960
type=control_change channel=10 control=11 value=33 time=3 actual_time=3963
type=control_change channel=10 control=11 value=34 time=9 actual_time=3972
type=control_change channel=10 control=11 value=34 time=15 actual_time=3987
type=control_change channel=10 control=11 value=35 time=13 actual_time=4000
type=control_change channel=10 control=11 value=34 time=2 actual_time=4002
type=control_change channel=10 control=11 value=35 time=9 actual_time=4011
type=control_change channel=10 control=11 value=35 time=15 actual_time=4026
type=control_change channel=10 control=11 value=36 time=14 actual_time=4040
type=control_change channel=10 control=11 value=35 time=1 actual_time=4041
type=control_change channel=10 control=11 value=36 time=9 actual_time=4050
type=control_change channel=10 control=11 value=36 time=15 actual_time=4065
type=control_change channel=10 control=11 value=37 time=15 actual_time=4080
type=control_change channel=10 control=11 value=36 time=0 actual_time=4080
type=control_change channel=10 control=11 value=37 time=9 actual_time=4089
type=control_change channel=10 control=11 value=37 time=15 actual_time=4104
type=control_change channel=10 control=11 value=37 time=15 actual_time=4119
type=control_change channel=10 control=11 value=38 time=1 actual_time=4120
type=control_change channel=10 control=11 value=38 time=8 actual_time=4128
type=control_change channel=10 control=11 value=38 time=15 actual_time=4143
type=control_change channel=10 control=11 value=38 time=15 actual_time=4158
type=control_change channel=10 control=11 value=39 time=2 actual_time=4160
type=control_change channel=10 control=11 value=39 time=7 actual_time=4167
type=control_change channel=10 control=11 value=39 time=15 actual_time=4182
type=control_change channel=10 control=11 value=39 time=15 actual_time=4197
type=control_change channel=10 control=11 value=40 time=3 actual_time=4200
type=control_change channel=10 control=11 value=40 time=6 actual_time=4206
type=control_change channel=10 control=11 value=40 time=15 actual_time=4221
type=control_change channel=10 control=11 value=40 time=15 actual_time=4236
type=control_change channel=10 control=11 value=41 time=4 actual_time=4240
type=control_change channel=10 control=11 value=41 time=5 actual_time=4245
type=control_change channel=10 control=11 value=41 time=15 actual_time=4260
type=control_change channel=10 control=11 value=41 time=15 actual_time=4275
type=control_change channel=10 control=11 value=42 time=5 actual_time=4280
type=control_change channel=10 control=11 value=42 time=4 actual_time=4284
type=control_change channel=10 control=11 value=42 time=15 actual_time=4299
type=control_change channel=10 control=11 value=42 time=15 actual_time=4314
type=control_change channel=10 control=11 value=43 time=6 actual_time=4320
type=control_change channel=10 control=11 value=43 time=3 actual_time=4323
type=control_change channel=10 control=11 value=43 time=15 actual_time=4338
type=control_change channel=10 control=11 value=43 time=15 actual_time=4353
type=control_change channel=10 control=11 value=44 time=7 actual_time=4360
type=control_change channel=10 control=11 value=44 time=2 actual_time=4362
type=control_change channel=10 control=11 value=44 time=15 actual_time=4377
type=control_change channel=10 control=11 value=44 time=15 actual_time=4392
type=control_change channel=10 control=11 value=45 time=8 actual_time=4400
type=control_change channel=10 control=11 value=45 time=1 actual_time=4401
type=control_change channel=10 control=11 value=45 time=15 actual_time=4416
type=control_change channel=10 control=11 value=45 time=15 actual_time=4431
type=control_change channel=10 control=11 value=46 time=9 actual_time=4440
type=control_change channel=10 control=11 value=46 time=0 actual_time=4440
type=control_change channel=10 control=11 value=46 time=15 actual_time=4455
type=control_change channel=10 control=11 value=46 time=15 actual_time=4470
type=control_change channel=10 control=11 value=47 time=9 actual_time=4479
type=control_change channel=10 control=11 value=47 time=1 actual_time=4480
type=control_change channel=10 control=11 value=47 time=14 actual_time=4494
type=control_change channel=10 control=11 value=47 time=15 actual_time=4509
type=control_change channel=10 control=11 value=48 time=9 actual_time=4518
type=control_change channel=10 control=11 value=48 time=2 actual_time=4520
type=control_change channel=10 control=11 value=48 time=13 actual_time=4533
type=control_change channel=10 control=11 value=48 time=15 actual_time=4548
type=control_change channel=10 control=11 value=49 time=9 actual_time=4557
type=control_change channel=10 control=11 value=49 time=3 actual_time=4560
type=control_change channel=10 control=11 value=49 time=12 actual_time=4572
type=control_change channel=10 control=11 value=49 time=15 actual_time=4587
type=control_change channel=10 control=11 value=50 time=9 actual_time=4596
type=control_change channel=10 control=11 value=50 time=4 actual_time=4600
type=control_change channel=10 control=11 value=50 time=11 actual_time=4611
type=control_change channel=10 control=11 value=50 time=15 actual_time=4626
type=control_change channel=10 control=11 value=51 time=9 actual_time=4635
type=control_change channel=10 control=11 value=51 time=5 actual_time=4640
type=control_change channel=10 control=11 value=51 time=10 actual_time=4650
type=control_change channel=10 control=11 value=51 time=15 actual_time=4665
type=control_change channel=10 control=11 value=52 time=9 actual_time=4674
type=control_change channel=10 control=11 value=52 time=6 actual_time=4680
type=control_change channel=10 control=11 value=52 time=9 actual_time=4689
type=control_change channel=10 control=11 value=52 time=15 actual_time=4704
type=control_change channel=10 control=11 value=53 time=9 actual_time=4713
type=control_change channel=10 control=11 value=53 time=7 actual_time=4720
type=control_change channel=10 control=11 value=53 time=8 actual_time=4728
type=control_change channel=10 control=11 value=53 time=15 actual_time=4743
type=control_change channel=10 control=11 value=54 time=9 actual_time=4752
type=control_change channel=10 control=11 value=54 time=8 actual_time=4760
type=control_change channel=10 control=11 value=54 time=7 actual_time=4767
type=control_change channel=10 control=11 value=54 time=15 actual_time=4782
type=control_change channel=10 control=11 value=55 time=9 actual_time=4791
type=control_change channel=10 control=11 value=55 time=9 actual_time=4800
type=control_change channel=10 control=11 value=55 time=6 actual_time=4806
type=control_change channel=10 control=11 value=55 time=15 actual_time=4821
type=control_change channel=10 control=11 value=56 time=9 actual_time=4830
type=control_change channel=10 control=11 value=56 time=10 actual_time=4840
type=control_change channel=10 control=11 value=56 time=5 actual_time=4845
type=control_change channel=10 control=11 value=56 time=15 actual_time=4860
type=control_change channel=10 control=11 value=57 time=9 actual_time=4869
type=control_change channel=10 control=11 value=57 time=11 actual_time=4880
type=control_change channel=10 control=11 value=57 time=4 actual_time=4884
type=control_change channel=10 control=11 value=57 time=15 actual_time=4899
type=control_change channel=10 control=11 value=58 time=9 actual_time=4908
type=control_change channel=10 control=11 value=58 time=12 actual_time=4920
type=control_change channel=10 control=11 value=58 time=3 actual_time=4923
type=control_change channel=10 control=11 value=58 time=15 actual_time=4938
type=control_change channel=10 control=11 value=59 time=9 actual_time=4947
type=control_change channel=10 control=11 value=59 time=13 actual_time=4960
type=control_change channel=10 control=11 value=59 time=2 actual_time=4962
type=control_change channel=10 control=11 value=59 time=15 actual_time=4977
type=control_change channel=10 control=11 value=60 time=9 actual_time=4986
type=control_change channel=10 control=11 value=60 time=14 actual_time=5000
type=control_change channel=10 control=11 value=60 time=1 actual_time=5001
type=control_change channel=10 control=11 value=60 time=15 actual_time=5016
type=control_change channel=10 control=11 value=61 time=9 actual_time=5025
type=control_change channel=10 control=11 value=61 time=15 actual_time=5040
type=control_change channel=10 control=11 value=61 time=0 actual_time=5040
type=control_change channel=10 control=11 value=61 time=15 actual_time=5055
type=control_change channel=10 control=11 value=62 time=9 actual_time=5064
type=control_change channel=10 control=11 value=62 time=15 actual_time=5079
type=control_change channel=10 control=11 value=62 time=1 actual_time=5080
type=control_change channel=10 control=11 value=62 time=14 actual_time=5094
type=control_change channel=10 control=11 value=63 time=9 actual_time=5103
type=control_change channel=10 control=11 value=63 time=15 actual_time=5118
type=control_change channel=10 control=11 value=63 time=2 actual_time=5120
type=control_change channel=10 control=11 value=63 time=13 actual_time=5133
type=control_change channel=10 control=11 value=64 time=9 actual_time=5142
type=control_change channel=10 control=11 value=64 time=15 actual_time=5157
type=control_change channel=10 control=11 value=64 time=3 actual_time=5160
type=control_change channel=10 control=11 value=64 time=12 actual_time=5172
type=control_change channel=10 control=11 value=65 time=9 actual_time=5181
type=control_change channel=10 control=11 value=65 time=15 actual_time=5196
type=control_change channel=10 control=11 value=65 time=4 actual_time=5200
type=control_change channel=10 control=11 value=65 time=11 actual_time=5211
type=control_change channel=10 control=11 value=66 time=9 actual_time=5220
type=control_change channel=10 control=11 value=66 time=15 actual_time=5235
type=control_change channel=10 control=11 value=66 time=5 actual_time=5240
type=control_change channel=10 control=11 value=66 time=10 actual_time=5250
type=control_change channel=10 control=11 value=67 time=9 actual_time=5259
type=control_change channel=10 control=11 value=67 time=15 actual_time=5274
type=control_change channel=10 control=11 value=67 time=6 actual_time=5280
type=control_change channel=10 control=11 value=67 time=9 actual_time=5289
type=control_change channel=10 control=11 value=68 time=9 actual_time=5298
type=control_change channel=10 control=11 value=68 time=15 actual_time=5313
type=control_change channel=10 control=11 value=68 time=7 actual_time=5320
type=control_change channel=10 control=11 value=68 time=8 actual_time=5328
type=control_change channel=10 control=11 value=69 time=9 actual_time=5337
type=control_change channel=10 control=11 value=69 time=15 actual_time=5352
type=control_change channel=10 control=11 value=69 time=8 actual_time=5360
type=control_change channel=10 control=11 value=69 time=7 actual_time=5367
type=control_change channel=10 control=11 value=70 time=9 actual_time=5376
type=control_change channel=10 control=11 value=70 time=15 actual_time=5391
type=control_change channel=10 control=11 value=70 time=9 actual_time=5400
type=control_change channel=10 control=11 value=70 time=6 actual_time=5406
type=control_change channel=10 control=11 value=71 time=9 actual_time=5415
type=control_change channel=10 control=11 value=71 time=15 actual_time=5430
type=control_change channel=10 control=11 value=71 time=10 actual_time=5440
type=control_change channel=10 control=11 value=71 time=5 actual_time=5445
type=control_change channel=10 control=11 value=72 time=9 actual_time=5454
type=control_change channel=10 control=11 value=72 time=15 actual_time=5469
type=control_change channel=10 control=11 value=72 time=11 actual_time=5480
type=control_change channel=10 control=11 value=72 time=4 actual_time=5484
type=control_change channel=10 control=11 value=73 time=9 actual_time=5493
type=control_change channel=10 control=11 value=73 time=15 actual_time=5508
type=control_change channel=10 control=11 value=73 time=12 actual_time=5520
type=control_change channel=10 control=11 value=73 time=3 actual_time=5523
type=control_change channel=10 control=11 value=74 time=9 actual_time=5532
type=control_change channel=10 control=11 value=74 time=15 actual_time=5547
type=control_change channel=10 control=11 value=74 time=13 actual_time=5560
type=control_change channel=10 control=11 value=74 time=2 actual_time=5562
type=control_change channel=10 control=11 value=75 time=9 actual_time=5571
type=control_change channel=10 control=11 value=75 time=15 actual_time=5586
type=control_change channel=10 control=11 value=75 time=14 actual_time=5600
type=control_change channel=10 control=11 value=75 time=1 actual_time=5601
type=control_change channel=10 control=11 value=76 time=9 actual_time=5610
type=control_change channel=10 control=11 value=76 time=15 actual_time=5625
type=control_change channel=10 control=11 value=76 time=15 actual_time=5640
type=control_change channel=10 control=11 value=76 time=0 actual_time=5640
type=control_change channel=10 control=11 value=77 time=9 actual_time=5649
type=control_change channel=10 control=11 value=77 time=15 actual_time=5664
type=control_change channel=10 control=11 value=77 time=15 actual_time=5679
type=control_change channel=10 control=11 value=77 time=1 actual_time=5680
type=control_change channel=10 control=11 value=78 time=8 actual_time=5688
type=control_change channel=10 control=11 value=78 time=15 actual_time=5703
type=control_change channel=10 control=11 value=78 time=15 actual_time=5718
type=control_change channel=10 control=11 value=78 time=2 actual_time=5720
type=control_change channel=10 control=11 value=79 time=7 actual_time=5727
type=control_change channel=10 control=11 value=79 time=15 actual_time=5742
type=control_change channel=10 control=11 value=79 time=15 actual_time=5757
type=control_change channel=10 control=11 value=79 time=3 actual_time=5760
type=control_change channel=10 control=11 value=80 time=6 actual_time=5766
type=control_change channel=10 control=11 value=80 time=15 actual_time=5781
type=control_change channel=10 control=11 value=80 time=15 actual_time=5796
type=control_change channel=10 control=11 value=80 time=4 actual_time=5800
type=control_change channel=10 control=11 value=81 time=5 actual_time=5805
type=control_change channel=10 control=11 value=81 time=15 actual_time=5820
type=control_change channel=10 control=11 value=81 time=15 actual_time=5835
type=control_change channel=10 control=11 value=81 time=5 actual_time=5840
type=control_change channel=10 control=11 value=82 time=4 actual_time=5844
type=control_change channel=10 control=11 value=82 time=15 actual_time=5859
type=control_change channel=10 control=11 value=82 time=15 actual_time=5874
type=control_change channel=10 control=11 value=82 time=6 actual_time=5880
type=control_change channel=10 control=11 value=83 time=3 actual_time=5883
type=control_change channel=10 control=11 value=83 time=15 actual_time=5898
type=control_change channel=10 control=11 value=83 time=15 actual_time=5913
type=control_change channel=10 control=11 value=83 time=7 actual_time=5920
type=control_change channel=10 control=11 value=84 time=2 actual_time=5922
type=control_change channel=10 control=11 value=84 time=15 actual_time=5937
type=control_change channel=10 control=11 value=84 time=15 actual_time=5952
type=control_change channel=10 control=11 value=84 time=8 actual_time=5960
type=control_change channel=10 control=11 value=85 time=1 actual_time=5961
type=control_change channel=10 control=11 value=85 time=15 actual_time=5976
type=control_change channel=10 control=11 value=85 time=15 actual_time=5991
type=control_change channel=10 control=11 value=85 time=9 actual_time=6000
type=control_change channel=10 control=11 value=86 time=0 actual_time=6000
type=control_change channel=10 control=11 value=86 time=15 actual_time=6015
type=control_change channel=10 control=11 value=86 time=15 actual_time=6030
type=control_change channel=10 control=11 value=87 time=9 actual_time=6039
type=control_change channel=10 control=11 value=86 time=1 actual_time=6040
type=control_change channel=10 control=11 value=87 time=14 actual_time=6054
type=control_change channel=10 control=11 value=87 time=15 actual_time=6069
type=control_change channel=10 control=11 value=88 time=9 actual_time=6078
type=control_change channel=10 control=11 value=87 time=2 actual_time=6080
type=control_change channel=10 control=11 value=88 time=13 actual_time=6093
type=control_change channel=10 control=11 value=88 time=15 actual_time=6108
type=control_change channel=10 control=11 value=89 time=9 actual_time=6117
type=control_change channel=10 control=11 value=88 time=3 actual_time=6120
type=control_change channel=10 control=11 value=89 time=12 actual_time=6132
type=control_change channel=10 control=11 value=89 time=15 actual_time=6147
type=control_change channel=10 control=11 value=90 time=9 actual_time=6156
type=control_change channel=10 control=11 value=89 time=4 actual_time=6160
type=control_change channel=10 control=11 value=90 time=11 actual_time=6171
type=control_change channel=10 control=11 value=90 time=15 actual_time=6186
type=control_change channel=10 control=11 value=91 time=9 actual_time=6195
type=control_change channel=10 control=11 value=90 time=5 actual_time=6200
type=control_change channel=10 control=11 value=91 time=10 actual_time=6210
type=control_change channel=10 control=11 value=91 time=15 actual_time=6225
type=control_change channel=10 control=11 value=92 time=9 actual_time=6234
type=control_change channel=10 control=11 value=91 time=6 actual_time=6240
type=control_change channel=10 control=11 value=92 time=9 actual_time=6249
type=control_change channel=10 control=11 value=92 time=15 actual_time=6264
type=control_change channel=10 control=11 value=93 time=9 actual_time=6273
type=control_change channel=10 control=11 value=92 time=7 actual_time=6280
type=control_change channel=10 control=11 value=93 time=8 actual_time=6288
type=control_change channel=10 control=11 value=93 time=15 actual_time=6303
type=control_change channel=10 control=11 value=94 time=9 actual_time=6312
type=control_change channel=10 control=11 value=93 time=8 actual_time=6320
type=control_change channel=10 control=11 value=94 time=7 actual_time=6327
type=control_change channel=10 control=11 value=94 time=15 actual_time=6342
type=control_change channel=10 control=11 value=95 time=9 actual_time=6351
type=control_change channel=10 control=11 value=94 time=9 actual_time=6360
type=control_change channel=10 control=11 value=95 time=6 actual_time=6366
type=control_change channel=10 control=11 value=95 time=15 actual_time=6381
type=control_change channel=10 control=11 value=96 time=9 actual_time=6390
type=control_change channel=10 control=11 value=95 time=10 actual_time=6400
type=control_change channel=10 control=11 value=96 time=5 actual_time=6405
type=control_change channel=10 control=11 value=96 time=15 actual_time=6420
type=control_change channel=10 control=11 value=97 time=9 actual_time=6429
type=control_change channel=10 control=11 value=96 time=11 actual_time=6440
type=control_change channel=10 control=11 value=97 time=4 actual_time=6444
type=control_change channel=10 control=11 value=97 time=15 actual_time=6459
type=control_change channel=10 control=11 value=98 time=9 actual_time=6468
type=control_change channel=10 control=11 value=97 time=12 actual_time=6480
type=control_change channel=10 control=11 value=98 time=3 actual_time=6483
type=control_change channel=10 control=11 value=98 time=15 actual_time=6498
type=control_change channel=10 control=11 value=99 time=9 actual_time=6507
type=control_change channel=10 control=11 value=98 time=13 actual_time=6520
type=control_change channel=10 control=11 value=99 time=2 actual_time=6522
type=control_change channel=10 control=11 value=99 time=15 actual_time=6537
type=control_change channel=10 control=11 value=100 time=9 actual_time=6546
type=control_change channel=10 control=11 value=99 time=14 actual_time=6560
type=control_change channel=10 control=11 value=100 time=1 actual_time=6561
type=control_change channel=10 control=11 value=100 time=15 actual_time=6576
type=control_change channel=10 control=11 value=101 time=9 actual_time=6585
type=control_change channel=10 control=11 value=100 time=15 actual_time=6600
type=control_change channel=10 control=11 value=101 time=0 actual_time=6600
type=control_change channel=10 control=11 value=101 time=15 actual_time=6615
type=control_change channel=10 control=11 value=102 time=9 actual_time=6624
type=control_change channel=10 control=11 value=102 time=15 actual_time=6639
type=control_change channel=10 control=11 value=101 time=1 actual_time=6640
type=control_change channel=10 control=11 value=102 time=14 actual_time=6654
type=control_change channel=10 control=11 value=103 time=9 actual_time=6663
type=control_change channel=10 control=11 value=103 time=15 actual_time=6678
type=control_change channel=10 control=11 value=102 time=2 actual_time=6680
type=control_change channel=10 control=11 value=103 time=13 actual_time=6693
type=control_change channel=10 control=11 value=104 time=9 actual_time=6702
type=control_change channel=10 control=11 value=104 time=15 actual_time=6717
type=control_change channel=10 control=11 value=103 time=3 actual_time=6720
type=control_change channel=10 control=11 value=104 time=12 actual_time=6732
type=control_change channel=10 control=11 value=105 time=9 actual_time=6741
type=control_change channel=10 control=11 value=105 time=15 actual_time=6756
type=control_change channel=10 control=11 value=104 time=4 actual_time=6760
type=control_change channel=10 control=11 value=105 time=11 actual_time=6771
type=control_change channel=10 control=11 value=106 time=9 actual_time=6780
type=control_change channel=10 control=11 value=106 time=15 actual_time=6795
type=control_change channel=10 control=11 value=105 time=5 actual_time=6800
type=control_change channel=10 control=11 value=106 time=10 actual_time=6810
type=control_change channel=10 control=11 value=107 time=9 actual_time=6819
type=control_change channel=10 control=11 value=107 time=15 actual_time=6834
type=control_change channel=10 control=11 value=106 time=6 actual_time=6840
type=control_change channel=10 control=11 value=107 time=9 actual_time=6849
type=control_change channel=10 control=11 value=108 time=9 actual_time=6858
type=control_change channel=10 control=11 value=108 time=15 actual_time=6873
type=control_change channel=10 control=11 value=107 time=7 actual_time=6880
type=control_change channel=10 control=11 value=108 time=8 actual_time=6888
type=control_change channel=10 control=11 value=109 time=9 actual_time=6897
type=control_change channel=10 control=11 value=109 time=15 actual_time=6912
type=control_change channel=10 control=11 value=108 time=8 actual_time=6920
type=control_change channel=10 control=11 value=109 time=7 actual_time=6927
type=control_change channel=10 control=11 value=110 time=9 actual_time=6936
type=control_change channel=10 control=11 value=110 time=15 actual_time=6951
type=control_change channel=10 control=11 value=109 time=9 actual_time=6960
type=control_change channel=10 control=11 value=110 time=6 actual_time=6966
type=control_change channel=10 control=11 value=111 time=9 actual_time=6975
type=control_change channel=10 control=11 value=111 time=15 actual_time=6990
type=control_change channel=10 control=11 value=110 time=10 actual_time=7000
type=control_change channel=10 control=11 value=111 time=5 actual_time=7005
type=control_change channel=10 control=11 value=112 time=9 actual_time=7014
type=control_change channel=10 control=11 value=112 time=15 actual_time=7029
type=control_change channel=10 control=11 value=111 time=11 actual_time=7040
type=control_change channel=10 control=11 value=112 time=4 actual_time=7044
type=control_change channel=10 control=11 value=113 time=9 actual_time=7053
type=control_change channel=10 control=11 value=113 time=15 actual_time=7068
type=control_change channel=10 control=11 value=112 time=12 actual_time=7080
type=control_change channel=10 control=11 value=113 time=3 actual_time=7083
type=control_change channel=10 control=11 value=114 time=9 actual_time=7092
type=control_change channel=10 control=11 value=114 time=15 actual_time=7107
type=control_change channel=10 control=11 value=113 time=13 actual_time=7120
type=control_change channel=10 control=11 value=114 time=2 actual_time=7122
type=control_change channel=10 control=11 value=115 time=9 actual_time=7131
type=control_change channel=10 control=11 value=115 time=15 actual_time=7146
type=control_change channel=10 control=11 value=114 time=14 actual_time=7160
type=control_change channel=10 control=11 value=115 time=1 actual_time=7161
type=control_change channel=10 control=11 value=116 time=9 actual_time=7170
type=control_change channel=10 control=11 value=116 time=15 actual_time=7185
type=control_change channel=10 control=11 value=115 time=15 actual_time=7200
type=control_change channel=10 control=11 value=116 time=0 actual_time=7200
type=control_change channel=10 control=11 value=117 time=9 actual_time=7209
type=control_change channel=10 control=11 value=117 time=15 actual_time=7224
type=control_change channel=10 control=11 value=117 time=15 actual_time=7239
type=control_change channel=10 control=11 value=116 time=1 actual_time=7240
type=control_change channel=10 control=11 value=118 time=8 actual_time=7248
type=control_change channel=10 control=11 value=118 time=15 actual_time=7263
type=control_change channel=10 control=11 value=118 time=15 actual_time=7278
type=control_change channel=10 control=11 value=117 time=2 actual_time=7280
type=control_change channel=10 control=11 value=119 time=7 actual_time=7287
type=control_change channel=10 control=11 value=119 time=15 actual_time=7302
type=control_change channel=10 control=11 value=119 time=15 actual_time=7317
type=control_change channel=10 control=11 value=118 time=3 actual_time=7320
type=control_change channel=10 control=11 value=120 time=6 actual_time=7326
type=control_change channel=10 control=11 value=120 time=15 actual_time=7341
type=control_change channel=10 control=11 value=120 time=15 actual_time=7356
type=control_change channel=10 control=11 value=119 time=4 actual_time=7360
type=control_change channel=10 control=11 value=121 time=5 actual_time=7365
type=control_change channel=10 control=11 value=121 time=15 actual_time=7380
type=control_change channel=10 control=11 value=121 time=15 actual_time=7395
type=control_change channel=10 control=11 value=120 time=5 actual_time=7400
type=control_change channel=10 control=11 value=122 time=4 actual_time=7404
type=control_change channel=10 control=11 value=122 time=15 actual_time=7419
type=control_change channel=10 control=11 value=122 time=15 actual_time=7434
type=control_change channel=10 control=11 value=121 time=6 actual_time=7440
type=control_change channel=10 control=11 value=123 time=3 actual_time=7443
type=control_change channel=10 control=11 value=123 time=15 actual_time=7458
type=control_change channel=10 control=11 value=123 time=15 actual_time=7473
type=control_change channel=10 control=11 value=122 time=7 actual_time=7480
type=control_change channel=10 control=11 value=124 time=2 actual_time=7482
type=control_change channel=10 control=11 value=124 time=15 actual_time=7497
type=control_change channel=10 control=11 value=124 time=15 actual_time=7512
type=control_change channel=10 control=11 value=123 time=8 actual_time=7520
type=control_change channel=10 control=11 value=125 time=1 actual_time=7521
type=control_change channel=10 control=11 value=125 time=15 actual_time=7536
type=control_change channel=10 control=11 value=125 time=15 actual_time=7551
type=control_change channel=10 control=11 value=124 time=9 actual_time=7560
type=control_change channel=10 control=11 value=126 time=0 actual_time=7560
type=control_change channel=10 control=11 value=126 time=15 actual_time=7575
type=control_change channel=10 control=11 value=126 time=15 actual_time=7590
type=control_change channel=10 control=11 value=125 time=10 actual_time=7600
type=control_change channel=10 control=11 value=126 time=40 actual_time=7640
type=control_change channel=10 control=11 value=127 time=40 actual_time=7680
type: note_off, time: 0, actual_time: 7680
type=control_change channel=10 control=11 value=127 time=0 actual_time=7680
type: note_off, time: 0, actual_time: 7680
type=control_change channel=10 control=11 value=127 time=0 actual_time=7680
type: note_off, time: 0, actual_time: 7680
type=control_change channel=10 control=11 value=127 time=0 actual_time=7680
type: note_off, time: 0, actual_time: 7680
type=control_change channel=10 control=11 value=31 time=0 actual_time=7680
type=note_on channel=10 note=66 velocity=111 time=0 actual_time=7680
type=control_change channel=10 control=11 value=31 time=15 actual_time=7695
type=note_on channel=10 note=61 velocity=95 time=0 actual_time=7695
type=control_change channel=10 control=11 value=31 time=15 actual_time=7710
type=note_on channel=10 note=58 velocity=95 time=0 actual_time=7710
type=control_change channel=10 control=11 value=32 time=10 actual_time=7720
type=control_change channel=10 control=11 value=31 time=5 actual_time=7725
type=note_on channel=10 note=54 velocity=95 time=0 actual_time=7725
type=control_change channel=10 control=11 value=32 time=9 actual_time=7734
type=control_change channel=10 control=11 value=31 time=6 actual_time=7740
type=note_on channel=10 note=49 velocity=95 time=0 actual_time=7740
type=control_change channel=10 control=11 value=32 time=9 actual_time=7749
type=control_change channel=10 control=11 value=31 time=6 actual_time=7755
type=note_on channel=10 note=42 velocity=95 time=0 actual_time=7755
type=control_change channel=10 control=11 value=33 time=5 actual_time=7760
type=control_change channel=10 control=11 value=32 time=4 actual_time=7764
type=control_change channel=10 control=11 value=33 time=9 actual_time=7773
type=control_change channel=10 control=11 value=32 time=6 actual_time=7779
type=control_change channel=10 control=11 value=33 time=9 actual_time=7788
type=control_change channel=10 control=11 value=32 time=6 actual_time=7794
type=control_change channel=10 control=11 value=34 time=6 actual_time=7800
type=control_change channel=10 control=11 value=33 time=3 actual_time=7803
type=control_change channel=10 control=11 value=34 time=9 actual_time=7812
type=control_change channel=10 control=11 value=33 time=6 actual_time=7818
type=control_change channel=10 control=11 value=34 time=9 actual_time=7827
type=control_change channel=10 control=11 value=33 time=6 actual_time=7833
type=control_change channel=10 control=11 value=35 time=7 actual_time=7840
type=control_change channel=10 control=11 value=34 time=2 actual_time=7842
type=control_change channel=10 control=11 value=35 time=9 actual_time=7851
type=control_change channel=10 control=11 value=34 time=6 actual_time=7857
type=control_change channel=10 control=11 value=35 time=9 actual_time=7866
type=control_change channel=10 control=11 value=34 time=6 actual_time=7872
type=control_change channel=10 control=11 value=36 time=8 actual_time=7880
type=control_change channel=10 control=11 value=35 time=1 actual_time=7881
type=control_change channel=10 control=11 value=36 time=9 actual_time=7890
type=control_change channel=10 control=11 value=35 time=6 actual_time=7896
type=control_change channel=10 control=11 value=36 time=9 actual_time=7905
type=control_change channel=10 control=11 value=35 time=6 actual_time=7911
type=control_change channel=10 control=11 value=37 time=9 actual_time=7920
type=control_change channel=10 control=11 value=36 time=0 actual_time=7920
type=control_change channel=10 control=11 value=37 time=9 actual_time=7929
type=control_change channel=10 control=11 value=36 time=6 actual_time=7935
type=control_change channel=10 control=11 value=37 time=9 actual_time=7944
type=control_change channel=10 control=11 value=36 time=6 actual_time=7950
type=control_change channel=10 control=11 value=37 time=9 actual_time=7959
type=control_change channel=10 control=11 value=38 time=1 actual_time=7960
type=control_change channel=10 control=11 value=38 time=8 actual_time=7968
type=control_change channel=10 control=11 value=37 time=6 actual_time=7974
type=control_change channel=10 control=11 value=38 time=9 actual_time=7983
type=control_change channel=10 control=11 value=37 time=6 actual_time=7989
type=control_change channel=10 control=11 value=38 time=9 actual_time=7998
type=control_change channel=10 control=11 value=39 time=2 actual_time=8000
type=control_change channel=10 control=11 value=39 time=7 actual_time=8007
type=control_change channel=10 control=11 value=38 time=6 actual_time=8013
type=control_change channel=10 control=11 value=39 time=9 actual_time=8022
type=control_change channel=10 control=11 value=38 time=6 actual_time=8028
type=control_change channel=10 control=11 value=39 time=9 actual_time=8037
type=control_change channel=10 control=11 value=40 time=3 actual_time=8040
type=control_change channel=10 control=11 value=40 time=6 actual_time=8046
type=control_change channel=10 control=11 value=39 time=6 actual_time=8052
type=control_change channel=10 control=11 value=40 time=9 actual_time=8061
type=control_change channel=10 control=11 value=39 time=6 actual_time=8067
type=control_change channel=10 control=11 value=40 time=9 actual_time=8076
type=control_change channel=10 control=11 value=41 time=4 actual_time=8080
type=control_change channel=10 control=11 value=41 time=5 actual_time=8085
type=control_change channel=10 control=11 value=40 time=6 actual_time=8091
type=control_change channel=10 control=11 value=41 time=9 actual_time=8100
type=control_change channel=10 control=11 value=40 time=6 actual_time=8106
type=control_change channel=10 control=11 value=41 time=9 actual_time=8115
type=control_change channel=10 control=11 value=42 time=5 actual_time=8120
type=control_change channel=10 control=11 value=42 time=4 actual_time=8124
type=control_change channel=10 control=11 value=41 time=6 actual_time=8130
type=control_change channel=10 control=11 value=42 time=9 actual_time=8139
type=control_change channel=10 control=11 value=41 time=6 actual_time=8145
type=control_change channel=10 control=11 value=42 time=9 actual_time=8154
type=control_change channel=10 control=11 value=43 time=6 actual_time=8160
type=control_change channel=10 control=11 value=43 time=3 actual_time=8163
type=control_change channel=10 control=11 value=42 time=6 actual_time=8169
type=control_change channel=10 control=11 value=43 time=9 actual_time=8178
type=control_change channel=10 control=11 value=42 time=6 actual_time=8184
type=control_change channel=10 control=11 value=43 time=9 actual_time=8193
type=control_change channel=10 control=11 value=44 time=7 actual_time=8200
type=control_change channel=10 control=11 value=44 time=2 actual_time=8202
type=control_change channel=10 control=11 value=43 time=6 actual_time=8208
type=control_change channel=10 control=11 value=44 time=9 actual_time=8217
type=control_change channel=10 control=11 value=43 time=6 actual_time=8223
type=control_change channel=10 control=11 value=44 time=9 actual_time=8232
type=control_change channel=10 control=11 value=45 time=8 actual_time=8240
type=control_change channel=10 control=11 value=45 time=1 actual_time=8241
type=control_change channel=10 control=11 value=44 time=6 actual_time=8247
type=control_change channel=10 control=11 value=45 time=9 actual_time=8256
type=control_change channel=10 control=11 value=44 time=6 actual_time=8262
type=control_change channel=10 control=11 value=45 time=9 actual_time=8271
type=control_change channel=10 control=11 value=46 time=9 actual_time=8280
type=control_change channel=10 control=11 value=46 time=0 actual_time=8280
type=control_change channel=10 control=11 value=45 time=6 actual_time=8286
type=control_change channel=10 control=11 value=46 time=9 actual_time=8295
type=control_change channel=10 control=11 value=45 time=6 actual_time=8301
type=control_change channel=10 control=11 value=46 time=9 actual_time=8310
type=control_change channel=10 control=11 value=47 time=9 actual_time=8319
type=control_change channel=10 control=11 value=47 time=1 actual_time=8320
type=control_change channel=10 control=11 value=46 time=5 actual_time=8325
type=control_change channel=10 control=11 value=47 time=9 actual_time=8334
type=control_change channel=10 control=11 value=46 time=6 actual_time=8340
type=control_change channel=10 control=11 value=47 time=9 actual_time=8349
type=control_change channel=10 control=11 value=48 time=9 actual_time=8358
type=control_change channel=10 control=11 value=48 time=2 actual_time=8360
type=control_change channel=10 control=11 value=47 time=4 actual_time=8364
type=control_change channel=10 control=11 value=48 time=9 actual_time=8373
type=control_change channel=10 control=11 value=47 time=6 actual_time=8379
type=control_change channel=10 control=11 value=48 time=9 actual_time=8388
type=control_change channel=10 control=11 value=49 time=9 actual_time=8397
type=control_change channel=10 control=11 value=49 time=3 actual_time=8400
type=control_change channel=10 control=11 value=48 time=3 actual_time=8403
type=control_change channel=10 control=11 value=49 time=9 actual_time=8412
type=control_change channel=10 control=11 value=48 time=6 actual_time=8418
type=control_change channel=10 control=11 value=49 time=9 actual_time=8427
type=control_change channel=10 control=11 value=50 time=9 actual_time=8436
type=control_change channel=10 control=11 value=50 time=4 actual_time=8440
type=control_change channel=10 control=11 value=49 time=2 actual_time=8442
type=control_change channel=10 control=11 value=50 time=9 actual_time=8451
type=control_change channel=10 control=11 value=49 time=6 actual_time=8457
type=control_change channel=10 control=11 value=50 time=9 actual_time=8466
type=control_change channel=10 control=11 value=51 time=9 actual_time=8475
type=control_change channel=10 control=11 value=51 time=5 actual_time=8480
type=control_change channel=10 control=11 value=50 time=1 actual_time=8481
type=control_change channel=10 control=11 value=51 time=9 actual_time=8490
type=control_change channel=10 control=11 value=50 time=6 actual_time=8496
type=control_change channel=10 control=11 value=51 time=9 actual_time=8505
type=control_change channel=10 control=11 value=52 time=9 actual_time=8514
type=control_change channel=10 control=11 value=52 time=6 actual_time=8520
type=control_change channel=10 control=11 value=51 time=0 actual_time=8520
type=control_change channel=10 control=11 value=52 time=9 actual_time=8529
type=control_change channel=10 control=11 value=51 time=6 actual_time=8535
type=control_change channel=10 control=11 value=52 time=9 actual_time=8544
type=control_change channel=10 control=11 value=53 time=9 actual_time=8553
type=control_change channel=10 control=11 value=52 time=6 actual_time=8559
type=control_change channel=10 control=11 value=53 time=1 actual_time=8560
type=control_change channel=10 control=11 value=53 time=8 actual_time=8568
type=control_change channel=10 control=11 value=52 time=6 actual_time=8574
type=control_change channel=10 control=11 value=53 time=9 actual_time=8583
type=control_change channel=10 control=11 value=54 time=9 actual_time=8592
type=control_change channel=10 control=11 value=53 time=6 actual_time=8598
type=control_change channel=10 control=11 value=54 time=2 actual_time=8600
type=control_change channel=10 control=11 value=54 time=7 actual_time=8607
type=control_change channel=10 control=11 value=53 time=6 actual_time=8613
type=control_change channel=10 control=11 value=54 time=9 actual_time=8622
type=control_change channel=10 control=11 value=55 time=9 actual_time=8631
type=control_change channel=10 control=11 value=54 time=6 actual_time=8637
type=control_change channel=10 control=11 value=55 time=3 actual_time=8640
type=control_change channel=10 control=11 value=55 time=6 actual_time=8646
type=control_change channel=10 control=11 value=54 time=6 actual_time=8652
type=control_change channel=10 control=11 value=55 time=9 actual_time=8661
type=control_change channel=10 control=11 value=56 time=9 actual_time=8670
type=control_change channel=10 control=11 value=55 time=6 actual_time=8676
type=control_change channel=10 control=11 value=56 time=4 actual_time=8680
type=control_change channel=10 control=11 value=56 time=5 actual_time=8685
type=control_change channel=10 control=11 value=55 time=6 actual_time=8691
type=control_change channel=10 control=11 value=56 time=9 actual_time=8700
type=control_change channel=10 control=11 value=57 time=9 actual_time=8709
type=control_change channel=10 control=11 value=56 time=6 actual_time=8715
type=control_change channel=10 control=11 value=57 time=5 actual_time=8720
type=control_change channel=10 control=11 value=57 time=4 actual_time=8724
type=control_change channel=10 control=11 value=56 time=6 actual_time=8730
type=control_change channel=10 control=11 value=57 time=9 actual_time=8739
type=control_change channel=10 control=11 value=58 time=9 actual_time=8748
type=control_change channel=10 control=11 value=57 time=6 actual_time=8754
type=control_change channel=10 control=11 value=58 time=6 actual_time=8760
type=control_change channel=10 control=11 value=58 time=3 actual_time=8763
type=control_change channel=10 control=11 value=57 time=6 actual_time=8769
type=control_change channel=10 control=11 value=58 time=9 actual_time=8778
type=control_change channel=10 control=11 value=59 time=9 actual_time=8787
type=control_change channel=10 control=11 value=58 time=6 actual_time=8793
type=control_change channel=10 control=11 value=59 time=7 actual_time=8800
type=control_change channel=10 control=11 value=59 time=2 actual_time=8802
type=control_change channel=10 control=11 value=58 time=6 actual_time=8808
type=control_change channel=10 control=11 value=59 time=9 actual_time=8817
type=control_change channel=10 control=11 value=60 time=9 actual_time=8826
type=control_change channel=10 control=11 value=59 time=6 actual_time=8832
type=control_change channel=10 control=11 value=60 time=8 actual_time=8840
type=control_change channel=10 control=11 value=60 time=1 actual_time=8841
type=control_change channel=10 control=11 value=59 time=6 actual_time=8847
type=control_change channel=10 control=11 value=60 time=9 actual_time=8856
type=control_change channel=10 control=11 value=61 time=9 actual_time=8865
type=control_change channel=10 control=11 value=60 time=6 actual_time=8871
type=control_change channel=10 control=11 value=61 time=9 actual_time=8880
type=control_change channel=10 control=11 value=61 time=0 actual_time=8880
type=control_change channel=10 control=11 value=60 time=6 actual_time=8886
type=control_change channel=10 control=11 value=61 time=9 actual_time=8895
type=control_change channel=10 control=11 value=62 time=9 actual_time=8904
type=control_change channel=10 control=11 value=61 time=6 actual_time=8910
type=control_change channel=10 control=11 value=62 time=9 actual_time=8919
type=control_change channel=10 control=11 value=62 time=1 actual_time=8920
type=control_change channel=10 control=11 value=61 time=5 actual_time=8925
type=control_change channel=10 control=11 value=62 time=9 actual_time=8934
type=control_change channel=10 control=11 value=63 time=9 actual_time=8943
type=control_change channel=10 control=11 value=62 time=6 actual_time=8949
type=control_change channel=10 control=11 value=63 time=9 actual_time=8958
type=control_change channel=10 control=11 value=63 time=2 actual_time=8960
type=control_change channel=10 control=11 value=62 time=4 actual_time=8964
type=control_change channel=10 control=11 value=63 time=9 actual_time=8973
type=control_change channel=10 control=11 value=64 time=9 actual_time=8982
type=control_change channel=10 control=11 value=63 time=6 actual_time=8988
type=control_change channel=10 control=11 value=64 time=9 actual_time=8997
type=control_change channel=10 control=11 value=64 time=3 actual_time=9000
type=control_change channel=10 control=11 value=63 time=3 actual_time=9003
type=control_change channel=10 control=11 value=64 time=9 actual_time=9012
type=control_change channel=10 control=11 value=65 time=9 actual_time=9021
type=control_change channel=10 control=11 value=64 time=6 actual_time=9027
type=control_change channel=10 control=11 value=65 time=9 actual_time=9036
type=control_change channel=10 control=11 value=65 time=4 actual_time=9040
type=control_change channel=10 control=11 value=64 time=2 actual_time=9042
type=control_change channel=10 control=11 value=65 time=9 actual_time=9051
type=control_change channel=10 control=11 value=66 time=9 actual_time=9060
type=control_change channel=10 control=11 value=65 time=6 actual_time=9066
type=control_change channel=10 control=11 value=66 time=9 actual_time=9075
type=control_change channel=10 control=11 value=66 time=5 actual_time=9080
type=control_change channel=10 control=11 value=65 time=1 actual_time=9081
type=control_change channel=10 control=11 value=66 time=9 actual_time=9090
type=control_change channel=10 control=11 value=67 time=9 actual_time=9099
type=control_change channel=10 control=11 value=66 time=6 actual_time=9105
type=control_change channel=10 control=11 value=67 time=9 actual_time=9114
type=control_change channel=10 control=11 value=67 time=6 actual_time=9120
type=control_change channel=10 control=11 value=66 time=0 actual_time=9120
type=control_change channel=10 control=11 value=67 time=9 actual_time=9129
type=control_change channel=10 control=11 value=68 time=9 actual_time=9138
type=control_change channel=10 control=11 value=67 time=6 actual_time=9144
type=control_change channel=10 control=11 value=68 time=9 actual_time=9153
type=control_change channel=10 control=11 value=67 time=6 actual_time=9159
type=control_change channel=10 control=11 value=68 time=1 actual_time=9160
type=control_change channel=10 control=11 value=68 time=8 actual_time=9168
type=control_change channel=10 control=11 value=69 time=9 actual_time=9177
type=control_change channel=10 control=11 value=68 time=6 actual_time=9183
type=control_change channel=10 control=11 value=69 time=9 actual_time=9192
type=control_change channel=10 control=11 value=68 time=6 actual_time=9198
type=control_change channel=10 control=11 value=69 time=2 actual_time=9200
type=control_change channel=10 control=11 value=69 time=7 actual_time=9207
type=control_change channel=10 control=11 value=70 time=9 actual_time=9216
type=control_change channel=10 control=11 value=69 time=6 actual_time=9222
type=control_change channel=10 control=11 value=70 time=9 actual_time=9231
type=control_change channel=10 control=11 value=69 time=6 actual_time=9237
type=control_change channel=10 control=11 value=70 time=3 actual_time=9240
type=control_change channel=10 control=11 value=70 time=6 actual_time=9246
type=control_change channel=10 control=11 value=71 time=9 actual_time=9255
type=control_change channel=10 control=11 value=70 time=6 actual_time=9261
type=control_change channel=10 control=11 value=71 time=9 actual_time=9270
type=control_change channel=10 control=11 value=70 time=6 actual_time=9276
type=control_change channel=10 control=11 value=71 time=4 actual_time=9280
type=control_change channel=10 control=11 value=71 time=5 actual_time=9285
type=control_change channel=10 control=11 value=72 time=9 actual_time=9294
type=control_change channel=10 control=11 value=71 time=6 actual_time=9300
type=control_change channel=10 control=11 value=72 time=9 actual_time=9309
type=control_change channel=10 control=11 value=71 time=6 actual_time=9315
type=control_change channel=10 control=11 value=72 time=5 actual_time=9320
type=control_change channel=10 control=11 value=72 time=4 actual_time=9324
type=control_change channel=10 control=11 value=73 time=9 actual_time=9333
type=control_change channel=10 control=11 value=72 time=6 actual_time=9339
type=control_change channel=10 control=11 value=73 time=9 actual_time=9348
type=control_change channel=10 control=11 value=72 time=6 actual_time=9354
type=control_change channel=10 control=11 value=73 time=6 actual_time=9360
type=control_change channel=10 control=11 value=73 time=3 actual_time=9363
type=control_change channel=10 control=11 value=74 time=9 actual_time=9372
type=control_change channel=10 control=11 value=73 time=6 actual_time=9378
type=control_change channel=10 control=11 value=74 time=9 actual_time=9387
type=control_change channel=10 control=11 value=73 time=6 actual_time=9393
type=control_change channel=10 control=11 value=74 time=7 actual_time=9400
type=control_change channel=10 control=11 value=74 time=2 actual_time=9402
type=control_change channel=10 control=11 value=75 time=9 actual_time=9411
type=control_change channel=10 control=11 value=74 time=6 actual_time=9417
type=control_change channel=10 control=11 value=75 time=9 actual_time=9426
type=control_change channel=10 control=11 value=74 time=6 actual_time=9432
type=control_change channel=10 control=11 value=75 time=8 actual_time=9440
type=control_change channel=10 control=11 value=75 time=1 actual_time=9441
type=control_change channel=10 control=11 value=76 time=9 actual_time=9450
type=control_change channel=10 control=11 value=75 time=6 actual_time=9456
type=control_change channel=10 control=11 value=76 time=9 actual_time=9465
type=control_change channel=10 control=11 value=75 time=6 actual_time=9471
type=control_change channel=10 control=11 value=76 time=9 actual_time=9480
type=control_change channel=10 control=11 value=76 time=0 actual_time=9480
type=control_change channel=10 control=11 value=77 time=9 actual_time=9489
type=control_change channel=10 control=11 value=76 time=6 actual_time=9495
type=control_change channel=10 control=11 value=77 time=9 actual_time=9504
type=control_change channel=10 control=11 value=76 time=6 actual_time=9510
type=control_change channel=10 control=11 value=77 time=9 actual_time=9519
type=control_change channel=10 control=11 value=77 time=1 actual_time=9520
type=control_change channel=10 control=11 value=78 time=8 actual_time=9528
type=control_change channel=10 control=11 value=77 time=6 actual_time=9534
type=control_change channel=10 control=11 value=78 time=9 actual_time=9543
type=control_change channel=10 control=11 value=77 time=6 actual_time=9549
type=control_change channel=10 control=11 value=78 time=9 actual_time=9558
type=control_change channel=10 control=11 value=78 time=2 actual_time=9560
type=control_change channel=10 control=11 value=79 time=7 actual_time=9567
type=control_change channel=10 control=11 value=78 time=6 actual_time=9573
type=control_change channel=10 control=11 value=79 time=9 actual_time=9582
type=control_change channel=10 control=11 value=78 time=6 actual_time=9588
type=control_change channel=10 control=11 value=79 time=9 actual_time=9597
type=control_change channel=10 control=11 value=79 time=3 actual_time=9600
type=control_change channel=10 control=11 value=80 time=6 actual_time=9606
type=control_change channel=10 control=11 value=79 time=6 actual_time=9612
type=control_change channel=10 control=11 value=80 time=9 actual_time=9621
type=control_change channel=10 control=11 value=79 time=6 actual_time=9627
type=control_change channel=10 control=11 value=80 time=9 actual_time=9636
type=control_change channel=10 control=11 value=80 time=4 actual_time=9640
type=control_change channel=10 control=11 value=81 time=5 actual_time=9645
type=control_change channel=10 control=11 value=80 time=6 actual_time=9651
type=control_change channel=10 control=11 value=81 time=9 actual_time=9660
type=control_change channel=10 control=11 value=80 time=6 actual_time=9666
type=control_change channel=10 control=11 value=81 time=9 actual_time=9675
type=control_change channel=10 control=11 value=81 time=5 actual_time=9680
type=control_change channel=10 control=11 value=82 time=4 actual_time=9684
type=control_change channel=10 control=11 value=81 time=6 actual_time=9690
type=control_change channel=10 control=11 value=82 time=9 actual_time=9699
type=control_change channel=10 control=11 value=81 time=6 actual_time=9705
type=control_change channel=10 control=11 value=82 time=9 actual_time=9714
type=control_change channel=10 control=11 value=82 time=6 actual_time=9720
type=control_change channel=10 control=11 value=83 time=3 actual_time=9723
type=control_change channel=10 control=11 value=82 time=6 actual_time=9729
type=control_change channel=10 control=11 value=83 time=9 actual_time=9738
type=control_change channel=10 control=11 value=82 time=6 actual_time=9744
type=control_change channel=10 control=11 value=83 time=9 actual_time=9753
type=control_change channel=10 control=11 value=83 time=7 actual_time=9760
type=control_change channel=10 control=11 value=84 time=2 actual_time=9762
type=control_change channel=10 control=11 value=83 time=6 actual_time=9768
type=control_change channel=10 control=11 value=84 time=9 actual_time=9777
type=control_change channel=10 control=11 value=83 time=6 actual_time=9783
type=control_change channel=10 control=11 value=84 time=9 actual_time=9792
type=control_change channel=10 control=11 value=84 time=8 actual_time=9800
type=control_change channel=10 control=11 value=85 time=1 actual_time=9801
type=control_change channel=10 control=11 value=84 time=6 actual_time=9807
type=control_change channel=10 control=11 value=85 time=9 actual_time=9816
type=control_change channel=10 control=11 value=84 time=6 actual_time=9822
type=control_change channel=10 control=11 value=85 time=9 actual_time=9831
type=control_change channel=10 control=11 value=85 time=9 actual_time=9840
type=control_change channel=10 control=11 value=86 time=0 actual_time=9840
type=control_change channel=10 control=11 value=85 time=6 actual_time=9846
type=control_change channel=10 control=11 value=86 time=9 actual_time=9855
type=control_change channel=10 control=11 value=85 time=6 actual_time=9861
type=control_change channel=10 control=11 value=86 time=9 actual_time=9870
type=control_change channel=10 control=11 value=87 time=9 actual_time=9879
type=control_change channel=10 control=11 value=86 time=1 actual_time=9880
type=control_change channel=10 control=11 value=86 time=5 actual_time=9885
type=control_change channel=10 control=11 value=87 time=9 actual_time=9894
type=control_change channel=10 control=11 value=86 time=6 actual_time=9900
type=control_change channel=10 control=11 value=87 time=9 actual_time=9909
type=control_change channel=10 control=11 value=88 time=9 actual_time=9918
type=control_change channel=10 control=11 value=87 time=2 actual_time=9920
type=control_change channel=10 control=11 value=87 time=4 actual_time=9924
type=control_change channel=10 control=11 value=88 time=9 actual_time=9933
type=control_change channel=10 control=11 value=87 time=6 actual_time=9939
type=control_change channel=10 control=11 value=88 time=9 actual_time=9948
type=control_change channel=10 control=11 value=89 time=9 actual_time=9957
type=control_change channel=10 control=11 value=88 time=3 actual_time=9960
type=control_change channel=10 control=11 value=88 time=3 actual_time=9963
type=control_change channel=10 control=11 value=89 time=9 actual_time=9972
type=control_change channel=10 control=11 value=88 time=6 actual_time=9978
type=control_change channel=10 control=11 value=89 time=9 actual_time=9987
type=control_change channel=10 control=11 value=90 time=9 actual_time=9996
type=control_change channel=10 control=11 value=89 time=4 actual_time=10000
type=control_change channel=10 control=11 value=89 time=2 actual_time=10002
type=control_change channel=10 control=11 value=90 time=9 actual_time=10011
type=control_change channel=10 control=11 value=89 time=6 actual_time=10017
type=control_change channel=10 control=11 value=90 time=9 actual_time=10026
type=control_change channel=10 control=11 value=91 time=9 actual_time=10035
type=control_change channel=10 control=11 value=90 time=5 actual_time=10040
type=control_change channel=10 control=11 value=90 time=1 actual_time=10041
type=control_change channel=10 control=11 value=91 time=9 actual_time=10050
type=control_change channel=10 control=11 value=90 time=6 actual_time=10056
type=control_change channel=10 control=11 value=91 time=9 actual_time=10065
type=control_change channel=10 control=11 value=92 time=9 actual_time=10074
type=control_change channel=10 control=11 value=91 time=6 actual_time=10080
type=control_change channel=10 control=11 value=91 time=0 actual_time=10080
type=control_change channel=10 control=11 value=92 time=9 actual_time=10089
type=control_change channel=10 control=11 value=91 time=6 actual_time=10095
type=control_change channel=10 control=11 value=92 time=9 actual_time=10104
type=control_change channel=10 control=11 value=93 time=9 actual_time=10113
type=control_change channel=10 control=11 value=92 time=6 actual_time=10119
type=control_change channel=10 control=11 value=92 time=1 actual_time=10120
type=control_change channel=10 control=11 value=93 time=8 actual_time=10128
type=control_change channel=10 control=11 value=92 time=6 actual_time=10134
type=control_change channel=10 control=11 value=93 time=9 actual_time=10143
type=control_change channel=10 control=11 value=94 time=9 actual_time=10152
type=control_change channel=10 control=11 value=93 time=6 actual_time=10158
type=control_change channel=10 control=11 value=93 time=2 actual_time=10160
type=control_change channel=10 control=11 value=94 time=7 actual_time=10167
type=control_change channel=10 control=11 value=93 time=6 actual_time=10173
type=control_change channel=10 control=11 value=94 time=9 actual_time=10182
type=control_change channel=10 control=11 value=95 time=9 actual_time=10191
type=control_change channel=10 control=11 value=94 time=6 actual_time=10197
type=control_change channel=10 control=11 value=94 time=3 actual_time=10200
type=control_change channel=10 control=11 value=95 time=6 actual_time=10206
type=control_change channel=10 control=11 value=94 time=6 actual_time=10212
type=control_change channel=10 control=11 value=95 time=9 actual_time=10221
type=control_change channel=10 control=11 value=96 time=9 actual_time=10230
type=control_change channel=10 control=11 value=95 time=6 actual_time=10236
type=control_change channel=10 control=11 value=95 time=4 actual_time=10240
type=control_change channel=10 control=11 value=96 time=5 actual_time=10245
type=control_change channel=10 control=11 value=95 time=6 actual_time=10251
type=control_change channel=10 control=11 value=96 time=9 actual_time=10260
type=control_change channel=10 control=11 value=97 time=9 actual_time=10269
type=control_change channel=10 control=11 value=96 time=6 actual_time=10275
type=control_change channel=10 control=11 value=96 time=5 actual_time=10280
type=control_change channel=10 control=11 value=97 time=4 actual_time=10284
type=control_change channel=10 control=11 value=96 time=6 actual_time=10290
type=control_change channel=10 control=11 value=97 time=9 actual_time=10299
type=control_change channel=10 control=11 value=98 time=9 actual_time=10308
type=control_change channel=10 control=11 value=97 time=6 actual_time=10314
type=control_change channel=10 control=11 value=97 time=6 actual_time=10320
type=control_change channel=10 control=11 value=98 time=3 actual_time=10323
type=control_change channel=10 control=11 value=97 time=6 actual_time=10329
type=control_change channel=10 control=11 value=98 time=9 actual_time=10338
type=control_change channel=10 control=11 value=99 time=9 actual_time=10347
type=control_change channel=10 control=11 value=98 time=6 actual_time=10353
type=control_change channel=10 control=11 value=98 time=7 actual_time=10360
type=control_change channel=10 control=11 value=99 time=2 actual_time=10362
type=control_change channel=10 control=11 value=98 time=6 actual_time=10368
type=control_change channel=10 control=11 value=99 time=9 actual_time=10377
type=control_change channel=10 control=11 value=100 time=9 actual_time=10386
type=control_change channel=10 control=11 value=99 time=6 actual_time=10392
type=control_change channel=10 control=11 value=99 time=8 actual_time=10400
type=control_change channel=10 control=11 value=100 time=1 actual_time=10401
type=control_change channel=10 control=11 value=99 time=6 actual_time=10407
type=control_change channel=10 control=11 value=100 time=9 actual_time=10416
type=control_change channel=10 control=11 value=101 time=9 actual_time=10425
type=control_change channel=10 control=11 value=100 time=6 actual_time=10431
type=control_change channel=10 control=11 value=100 time=9 actual_time=10440
type=control_change channel=10 control=11 value=101 time=0 actual_time=10440
type=control_change channel=10 control=11 value=100 time=6 actual_time=10446
type=control_change channel=10 control=11 value=101 time=9 actual_time=10455
type=control_change channel=10 control=11 value=102 time=9 actual_time=10464
type=control_change channel=10 control=11 value=101 time=6 actual_time=10470
type=control_change channel=10 control=11 value=102 time=9 actual_time=10479
type=control_change channel=10 control=11 value=101 time=1 actual_time=10480
type=control_change channel=10 control=11 value=101 time=5 actual_time=10485
type=control_change channel=10 control=11 value=102 time=9 actual_time=10494
type=control_change channel=10 control=11 value=103 time=9 actual_time=10503
type=control_change channel=10 control=11 value=102 time=6 actual_time=10509
type=control_change channel=10 control=11 value=103 time=9 actual_time=10518
type=control_change channel=10 control=11 value=102 time=2 actual_time=10520
type=control_change channel=10 control=11 value=102 time=4 actual_time=10524
type=control_change channel=10 control=11 value=103 time=9 actual_time=10533
type=control_change channel=10 control=11 value=104 time=9 actual_time=10542
type=control_change channel=10 control=11 value=103 time=6 actual_time=10548
type=control_change channel=10 control=11 value=104 time=9 actual_time=10557
type=control_change channel=10 control=11 value=103 time=3 actual_time=10560
type=control_change channel=10 control=11 value=103 time=3 actual_time=10563
type=control_change channel=10 control=11 value=104 time=9 actual_time=10572
type=control_change channel=10 control=11 value=105 time=9 actual_time=10581
type=control_change channel=10 control=11 value=104 time=6 actual_time=10587
type=control_change channel=10 control=11 value=105 time=9 actual_time=10596
type=control_change channel=10 control=11 value=104 time=4 actual_time=10600
type=control_change channel=10 control=11 value=104 time=2 actual_time=10602
type=control_change channel=10 control=11 value=105 time=9 actual_time=10611
type=control_change channel=10 control=11 value=106 time=9 actual_time=10620
type=control_change channel=10 control=11 value=105 time=6 actual_time=10626
type=control_change channel=10 control=11 value=106 time=9 actual_time=10635
type=control_change channel=10 control=11 value=105 time=5 actual_time=10640
type=control_change channel=10 control=11 value=105 time=1 actual_time=10641
type=control_change channel=10 control=11 value=106 time=9 actual_time=10650
type=control_change channel=10 control=11 value=107 time=9 actual_time=10659
type=control_change channel=10 control=11 value=106 time=6 actual_time=10665
type=control_change channel=10 control=11 value=107 time=9 actual_time=10674
type=control_change channel=10 control=11 value=106 time=6 actual_time=10680
type=control_change channel=10 control=11 value=106 time=0 actual_time=10680
type=control_change channel=10 control=11 value=107 time=9 actual_time=10689
type=control_change channel=10 control=11 value=108 time=9 actual_time=10698
type=control_change channel=10 control=11 value=107 time=6 actual_time=10704
type=control_change channel=10 control=11 value=108 time=9 actual_time=10713
type=control_change channel=10 control=11 value=107 time=6 actual_time=10719
type=control_change channel=10 control=11 value=107 time=1 actual_time=10720
type=control_change channel=10 control=11 value=108 time=8 actual_time=10728
type=control_change channel=10 control=11 value=109 time=9 actual_time=10737
type=control_change channel=10 control=11 value=108 time=6 actual_time=10743
type=control_change channel=10 control=11 value=109 time=9 actual_time=10752
type=control_change channel=10 control=11 value=108 time=6 actual_time=10758
type=control_change channel=10 control=11 value=108 time=2 actual_time=10760
type=control_change channel=10 control=11 value=109 time=7 actual_time=10767
type=control_change channel=10 control=11 value=110 time=9 actual_time=10776
type=control_change channel=10 control=11 value=109 time=6 actual_time=10782
type=control_change channel=10 control=11 value=110 time=9 actual_time=10791
type=control_change channel=10 control=11 value=109 time=6 actual_time=10797
type=control_change channel=10 control=11 value=109 time=3 actual_time=10800
type=control_change channel=10 control=11 value=110 time=6 actual_time=10806
type=control_change channel=10 control=11 value=111 time=9 actual_time=10815
type=control_change channel=10 control=11 value=110 time=6 actual_time=10821
type=control_change channel=10 control=11 value=111 time=9 actual_time=10830
type=control_change channel=10 control=11 value=110 time=6 actual_time=10836
type=control_change channel=10 control=11 value=110 time=4 actual_time=10840
type=control_change channel=10 control=11 value=111 time=5 actual_time=10845
type=control_change channel=10 control=11 value=112 time=9 actual_time=10854
type=control_change channel=10 control=11 value=111 time=6 actual_time=10860
type=control_change channel=10 control=11 value=112 time=9 actual_time=10869
type=control_change channel=10 control=11 value=111 time=6 actual_time=10875
type=control_change channel=10 control=11 value=111 time=5 actual_time=10880
type=control_change channel=10 control=11 value=112 time=4 actual_time=10884
type=control_change channel=10 control=11 value=113 time=9 actual_time=10893
type=control_change channel=10 control=11 value=112 time=6 actual_time=10899
type=control_change channel=10 control=11 value=113 time=9 actual_time=10908
type=control_change channel=10 control=11 value=112 time=6 actual_time=10914
type=control_change channel=10 control=11 value=112 time=6 actual_time=10920
type=control_change channel=10 control=11 value=113 time=3 actual_time=10923
type=control_change channel=10 control=11 value=114 time=9 actual_time=10932
type=control_change channel=10 control=11 value=113 time=6 actual_time=10938
type=control_change channel=10 control=11 value=114 time=9 actual_time=10947
type=control_change channel=10 control=11 value=113 time=6 actual_time=10953
type=control_change channel=10 control=11 value=113 time=7 actual_time=10960
type=control_change channel=10 control=11 value=114 time=2 actual_time=10962
type=control_change channel=10 control=11 value=115 time=9 actual_time=10971
type=control_change channel=10 control=11 value=114 time=6 actual_time=10977
type=control_change channel=10 control=11 value=115 time=9 actual_time=10986
type=control_change channel=10 control=11 value=114 time=6 actual_time=10992
type=control_change channel=10 control=11 value=114 time=8 actual_time=11000
type=control_change channel=10 control=11 value=115 time=1 actual_time=11001
type=control_change channel=10 control=11 value=116 time=9 actual_time=11010
type=control_change channel=10 control=11 value=115 time=6 actual_time=11016
type=control_change channel=10 control=11 value=116 time=9 actual_time=11025
type=control_change channel=10 control=11 value=115 time=6 actual_time=11031
type=control_change channel=10 control=11 value=115 time=9 actual_time=11040
type=control_change channel=10 control=11 value=116 time=0 actual_time=11040
type=control_change channel=10 control=11 value=117 time=9 actual_time=11049
type=control_change channel=10 control=11 value=116 time=6 actual_time=11055
type=control_change channel=10 control=11 value=117 time=9 actual_time=11064
type=control_change channel=10 control=11 value=116 time=6 actual_time=11070
type=control_change channel=10 control=11 value=117 time=9 actual_time=11079
type=control_change channel=10 control=11 value=116 time=1 actual_time=11080
type=control_change channel=10 control=11 value=118 time=8 actual_time=11088
type=control_change channel=10 control=11 value=117 time=6 actual_time=11094
type=control_change channel=10 control=11 value=118 time=9 actual_time=11103
type=control_change channel=10 control=11 value=117 time=6 actual_time=11109
type=control_change channel=10 control=11 value=118 time=9 actual_time=11118
type=control_change channel=10 control=11 value=117 time=2 actual_time=11120
type=control_change channel=10 control=11 value=119 time=7 actual_time=11127
type=control_change channel=10 control=11 value=118 time=6 actual_time=11133
type=control_change channel=10 control=11 value=119 time=9 actual_time=11142
type=control_change channel=10 control=11 value=118 time=6 actual_time=11148
type=control_change channel=10 control=11 value=119 time=9 actual_time=11157
type=control_change channel=10 control=11 value=118 time=3 actual_time=11160
type=control_change channel=10 control=11 value=120 time=6 actual_time=11166
type=control_change channel=10 control=11 value=119 time=6 actual_time=11172
type=control_change channel=10 control=11 value=120 time=9 actual_time=11181
type=control_change channel=10 control=11 value=119 time=6 actual_time=11187
type=control_change channel=10 control=11 value=120 time=9 actual_time=11196
type=control_change channel=10 control=11 value=119 time=4 actual_time=11200
type=control_change channel=10 control=11 value=121 time=5 actual_time=11205
type=control_change channel=10 control=11 value=120 time=6 actual_time=11211
type=control_change channel=10 control=11 value=121 time=9 actual_time=11220
type=control_change channel=10 control=11 value=120 time=6 actual_time=11226
type=control_change channel=10 control=11 value=121 time=9 actual_time=11235
type=control_change channel=10 control=11 value=120 time=5 actual_time=11240
type=control_change channel=10 control=11 value=122 time=4 actual_time=11244
type=control_change channel=10 control=11 value=121 time=6 actual_time=11250
type=control_change channel=10 control=11 value=122 time=9 actual_time=11259
type=control_change channel=10 control=11 value=121 time=6 actual_time=11265
type=control_change channel=10 control=11 value=122 time=9 actual_time=11274
type=control_change channel=10 control=11 value=121 time=6 actual_time=11280
type=control_change channel=10 control=11 value=123 time=3 actual_time=11283
type=control_change channel=10 control=11 value=122 time=6 actual_time=11289
type=control_change channel=10 control=11 value=123 time=9 actual_time=11298
type=control_change channel=10 control=11 value=122 time=6 actual_time=11304
type=control_change channel=10 control=11 value=123 time=9 actual_time=11313
type=control_change channel=10 control=11 value=122 time=7 actual_time=11320
type=control_change channel=10 control=11 value=124 time=2 actual_time=11322
type=control_change channel=10 control=11 value=123 time=6 actual_time=11328
type=control_change channel=10 control=11 value=124 time=9 actual_time=11337
type=control_change channel=10 control=11 value=123 time=6 actual_time=11343
type=control_change channel=10 control=11 value=124 time=9 actual_time=11352
type=control_change channel=10 control=11 value=123 time=8 actual_time=11360
type=control_change channel=10 control=11 value=125 time=1 actual_time=11361
type=control_change channel=10 control=11 value=124 time=6 actual_time=11367
type=control_change channel=10 control=11 value=125 time=9 actual_time=11376
type=control_change channel=10 control=11 value=124 time=6 actual_time=11382
type=control_change channel=10 control=11 value=125 time=9 actual_time=11391
type=control_change channel=10 control=11 value=124 time=9 actual_time=11400
type=control_change channel=10 control=11 value=126 time=0 actual_time=11400
type=control_change channel=10 control=11 value=125 time=6 actual_time=11406
type=control_change channel=10 control=11 value=126 time=9 actual_time=11415
type=control_change channel=10 control=11 value=125 time=6 actual_time=11421
type=control_change channel=10 control=11 value=126 time=9 actual_time=11430
type=control_change channel=10 control=11 value=125 time=10 actual_time=11440
type=control_change channel=10 control=11 value=126 time=5 actual_time=11445
type=control_change channel=10 control=11 value=126 time=15 actual_time=11460
type=control_change channel=10 control=11 value=126 time=20 actual_time=11480
type=control_change channel=10 control=11 value=127 time=40 actual_time=11520
type: note_off, time: 0, actual_time: 11520
type=control_change channel=10 control=11 value=127 time=0 actual_time=11520
type: note_off, time: 0, actual_time: 11520
type=control_change channel=10 control=11 value=127 time=0 actual_time=11520
type: note_off, time: 0, actual_time: 11520
type=control_change channel=10 control=11 value=127 time=0 actual_time=11520
type: note_off, time: 0, actual_time: 11520
type=control_change channel=10 control=11 value=127 time=0 actual_time=11520
type: note_off, time: 0, actual_time: 11520
type=control_change channel=10 control=11 value=127 time=0 actual_time=11520
type: note_off, time: 0, actual_time: 11520
type=control_change channel=10 control=11 value=31 time=0 actual_time=11520
type=note_on channel=10 note=64 velocity=111 time=0 actual_time=11520
type=control_change channel=10 control=11 value=31 time=15 actual_time=11535
type=note_on channel=10 note=62 velocity=95 time=0 actual_time=11535
type=control_change channel=10 control=11 value=31 time=15 actual_time=11550
type=note_on channel=10 note=57 velocity=95 time=0 actual_time=11550
type=control_change channel=10 control=11 value=32 time=10 actual_time=11560
type=control_change channel=10 control=11 value=31 time=5 actual_time=11565
type=note_on channel=10 note=50 velocity=95 time=0 actual_time=11565
type=control_change channel=10 control=11 value=32 time=9 actual_time=11574
type=control_change channel=10 control=11 value=32 time=15 actual_time=11589
type=control_change channel=10 control=11 value=33 time=11 actual_time=11600
type=control_change channel=10 control=11 value=32 time=4 actual_time=11604
type=control_change channel=10 control=11 value=33 time=9 actual_time=11613
type=control_change channel=10 control=11 value=33 time=15 actual_time=11628
type=control_change channel=10 control=11 value=34 time=12 actual_time=11640
type=control_change channel=10 control=11 value=33 time=3 actual_time=11643
type=control_change channel=10 control=11 value=34 time=9 actual_time=11652
type=control_change channel=10 control=11 value=34 time=15 actual_time=11667
type=control_change channel=10 control=11 value=35 time=13 actual_time=11680
type=control_change channel=10 control=11 value=34 time=2 actual_time=11682
type=control_change channel=10 control=11 value=35 time=9 actual_time=11691
type=control_change channel=10 control=11 value=35 time=15 actual_time=11706
type=control_change channel=10 control=11 value=36 time=14 actual_time=11720
type=control_change channel=10 control=11 value=35 time=1 actual_time=11721
type=control_change channel=10 control=11 value=36 time=9 actual_time=11730
type=control_change channel=10 control=11 value=36 time=15 actual_time=11745
type=control_change channel=10 control=11 value=37 time=15 actual_time=11760
type=control_change channel=10 control=11 value=36 time=0 actual_time=11760
type=control_change channel=10 control=11 value=37 time=9 actual_time=11769
type=control_change channel=10 control=11 value=37 time=15 actual_time=11784
type=control_change channel=10 control=11 value=37 time=15 actual_time=11799
type=control_change channel=10 control=11 value=38 time=1 actual_time=11800
type=control_change channel=10 control=11 value=38 time=8 actual_time=11808
type=control_change channel=10 control=11 value=38 time=15 actual_time=11823
type=control_change channel=10 control=11 value=38 time=15 actual_time=11838
type=control_change channel=10 control=11 value=39 time=2 actual_time=11840
type=control_change channel=10 control=11 value=39 time=7 actual_time=11847
type=control_change channel=10 control=11 value=39 time=15 actual_time=11862
type=control_change channel=10 control=11 value=39 time=15 actual_time=11877
type=control_change channel=10 control=11 value=40 time=3 actual_time=11880
type=control_change channel=10 control=11 value=40 time=6 actual_time=11886
type=control_change channel=10 control=11 value=40 time=15 actual_time=11901
type=control_change channel=10 control=11 value=40 time=15 actual_time=11916
type=control_change channel=10 control=11 value=41 time=4 actual_time=11920
type=control_change channel=10 control=11 value=41 time=5 actual_time=11925
type=control_change channel=10 control=11 value=41 time=15 actual_time=11940
type=control_change channel=10 control=11 value=41 time=15 actual_time=11955
type=control_change channel=10 control=11 value=42 time=5 actual_time=11960
type=control_change channel=10 control=11 value=42 time=4 actual_time=11964
type=control_change channel=10 control=11 value=42 time=15 actual_time=11979
type=control_change channel=10 control=11 value=42 time=15 actual_time=11994
type=control_change channel=10 control=11 value=43 time=6 actual_time=12000
type=control_change channel=10 control=11 value=43 time=3 actual_time=12003
type=control_change channel=10 control=11 value=43 time=15 actual_time=12018
type=control_change channel=10 control=11 value=43 time=15 actual_time=12033
type=control_change channel=10 control=11 value=44 time=7 actual_time=12040
type=control_change channel=10 control=11 value=44 time=2 actual_time=12042
type=control_change channel=10 control=11 value=44 time=15 actual_time=12057
type=control_change channel=10 control=11 value=44 time=15 actual_time=12072
type=control_change channel=10 control=11 value=45 time=8 actual_time=12080
type=control_change channel=10 control=11 value=45 time=1 actual_time=12081
type=control_change channel=10 control=11 value=45 time=15 actual_time=12096
type=control_change channel=10 control=11 value=45 time=15 actual_time=12111
type=control_change channel=10 control=11 value=46 time=9 actual_time=12120
type=control_change channel=10 control=11 value=46 time=0 actual_time=12120
type=control_change channel=10 control=11 value=46 time=15 actual_time=12135
type=control_change channel=10 control=11 value=46 time=15 actual_time=12150
type=control_change channel=10 control=11 value=47 time=9 actual_time=12159
type=control_change channel=10 control=11 value=47 time=1 actual_time=12160
type=control_change channel=10 control=11 value=47 time=14 actual_time=12174
type=control_change channel=10 control=11 value=47 time=15 actual_time=12189
type=control_change channel=10 control=11 value=48 time=9 actual_time=12198
type=control_change channel=10 control=11 value=48 time=2 actual_time=12200
type=control_change channel=10 control=11 value=48 time=13 actual_time=12213
type=control_change channel=10 control=11 value=48 time=15 actual_time=12228
type=control_change channel=10 control=11 value=49 time=9 actual_time=12237
type=control_change channel=10 control=11 value=49 time=3 actual_time=12240
type=control_change channel=10 control=11 value=49 time=12 actual_time=12252
type=control_change channel=10 control=11 value=49 time=15 actual_time=12267
type=control_change channel=10 control=11 value=50 time=9 actual_time=12276
type=control_change channel=10 control=11 value=50 time=4 actual_time=12280
type=control_change channel=10 control=11 value=50 time=11 actual_time=12291
type=control_change channel=10 control=11 value=50 time=15 actual_time=12306
type=control_change channel=10 control=11 value=51 time=9 actual_time=12315
type=control_change channel=10 control=11 value=51 time=5 actual_time=12320
type=control_change channel=10 control=11 value=51 time=10 actual_time=12330
type=control_change channel=10 control=11 value=51 time=15 actual_time=12345
type=control_change channel=10 control=11 value=52 time=9 actual_time=12354
type=control_change channel=10 control=11 value=52 time=6 actual_time=12360
type=control_change channel=10 control=11 value=52 time=9 actual_time=12369
type=control_change channel=10 control=11 value=52 time=15 actual_time=12384
type=control_change channel=10 control=11 value=53 time=9 actual_time=12393
type=control_change channel=10 control=11 value=53 time=7 actual_time=12400
type=control_change channel=10 control=11 value=53 time=8 actual_time=12408
type=control_change channel=10 control=11 value=53 time=15 actual_time=12423
type=control_change channel=10 control=11 value=54 time=9 actual_time=12432
type=control_change channel=10 control=11 value=54 time=8 actual_time=12440
type=control_change channel=10 control=11 value=54 time=7 actual_time=12447
type=control_change channel=10 control=11 value=54 time=15 actual_time=12462
type=control_change channel=10 control=11 value=55 time=9 actual_time=12471
type=control_change channel=10 control=11 value=55 time=9 actual_time=12480
type=control_change channel=10 control=11 value=55 time=6 actual_time=12486
type=control_change channel=10 control=11 value=55 time=15 actual_time=12501
type=control_change channel=10 control=11 value=56 time=9 actual_time=12510
type=control_change channel=10 control=11 value=56 time=10 actual_time=12520
type=control_change channel=10 control=11 value=56 time=5 actual_time=12525
type=control_change channel=10 control=11 value=56 time=15 actual_time=12540
type=control_change channel=10 control=11 value=57 time=9 actual_time=12549
type=control_change channel=10 control=11 value=57 time=11 actual_time=12560
type=control_change channel=10 control=11 value=57 time=4 actual_time=12564
type=control_change channel=10 control=11 value=57 time=15 actual_time=12579
type=control_change channel=10 control=11 value=58 time=9 actual_time=12588
type=control_change channel=10 control=11 value=58 time=12 actual_time=12600
type=control_change channel=10 control=11 value=58 time=3 actual_time=12603
type=control_change channel=10 control=11 value=58 time=15 actual_time=12618
type=control_change channel=10 control=11 value=59 time=9 actual_time=12627
type=control_change channel=10 control=11 value=59 time=13 actual_time=12640
type=control_change channel=10 control=11 value=59 time=2 actual_time=12642
type=control_change channel=10 control=11 value=59 time=15 actual_time=12657
type=control_change channel=10 control=11 value=60 time=9 actual_time=12666
type=control_change channel=10 control=11 value=60 time=14 actual_time=12680
type=control_change channel=10 control=11 value=60 time=1 actual_time=12681
type=control_change channel=10 control=11 value=60 time=15 actual_time=12696
type=control_change channel=10 control=11 value=61 time=9 actual_time=12705
type=control_change channel=10 control=11 value=61 time=15 actual_time=12720
type=control_change channel=10 control=11 value=61 time=0 actual_time=12720
type=control_change channel=10 control=11 value=61 time=15 actual_time=12735
type=control_change channel=10 control=11 value=62 time=9 actual_time=12744
type=control_change channel=10 control=11 value=62 time=15 actual_time=12759
type=control_change channel=10 control=11 value=62 time=1 actual_time=12760
type=control_change channel=10 control=11 value=62 time=14 actual_time=12774
type=control_change channel=10 control=11 value=63 time=9 actual_time=12783
type=control_change channel=10 control=11 value=63 time=15 actual_time=12798
type=control_change channel=10 control=11 value=63 time=2 actual_time=12800
type=control_change channel=10 control=11 value=63 time=13 actual_time=12813
type=control_change channel=10 control=11 value=64 time=9 actual_time=12822
type=control_change channel=10 control=11 value=64 time=15 actual_time=12837
type=control_change channel=10 control=11 value=64 time=3 actual_time=12840
type=control_change channel=10 control=11 value=64 time=12 actual_time=12852
type=control_change channel=10 control=11 value=65 time=9 actual_time=12861
type=control_change channel=10 control=11 value=65 time=15 actual_time=12876
type=control_change channel=10 control=11 value=65 time=4 actual_time=12880
type=control_change channel=10 control=11 value=65 time=11 actual_time=12891
type=control_change channel=10 control=11 value=66 time=9 actual_time=12900
type=control_change channel=10 control=11 value=66 time=15 actual_time=12915
type=control_change channel=10 control=11 value=66 time=5 actual_time=12920
type=control_change channel=10 control=11 value=66 time=10 actual_time=12930
type=control_change channel=10 control=11 value=67 time=9 actual_time=12939
type=control_change channel=10 control=11 value=67 time=15 actual_time=12954
type=control_change channel=10 control=11 value=67 time=6 actual_time=12960
type=control_change channel=10 control=11 value=67 time=9 actual_time=12969
type=control_change channel=10 control=11 value=68 time=9 actual_time=12978
type=control_change channel=10 control=11 value=68 time=15 actual_time=12993
type=control_change channel=10 control=11 value=68 time=7 actual_time=13000
type=control_change channel=10 control=11 value=68 time=8 actual_time=13008
type=control_change channel=10 control=11 value=69 time=9 actual_time=13017
type=control_change channel=10 control=11 value=69 time=15 actual_time=13032
type=control_change channel=10 control=11 value=69 time=8 actual_time=13040
type=control_change channel=10 control=11 value=69 time=7 actual_time=13047
type=control_change channel=10 control=11 value=70 time=9 actual_time=13056
type=control_change channel=10 control=11 value=70 time=15 actual_time=13071
type=control_change channel=10 control=11 value=70 time=9 actual_time=13080
type=control_change channel=10 control=11 value=70 time=6 actual_time=13086
type=control_change channel=10 control=11 value=71 time=9 actual_time=13095
type=control_change channel=10 control=11 value=71 time=15 actual_time=13110
type=control_change channel=10 control=11 value=71 time=10 actual_time=13120
type=control_change channel=10 control=11 value=71 time=5 actual_time=13125
type=control_change channel=10 control=11 value=72 time=9 actual_time=13134
type=control_change channel=10 control=11 value=72 time=15 actual_time=13149
type=control_change channel=10 control=11 value=72 time=11 actual_time=13160
type=control_change channel=10 control=11 value=72 time=4 actual_time=13164
type=control_change channel=10 control=11 value=73 time=9 actual_time=13173
type=control_change channel=10 control=11 value=73 time=15 actual_time=13188
type=control_change channel=10 control=11 value=73 time=12 actual_time=13200
type=control_change channel=10 control=11 value=73 time=3 actual_time=13203
type=control_change channel=10 control=11 value=74 time=9 actual_time=13212
type=control_change channel=10 control=11 value=74 time=15 actual_time=13227
type=control_change channel=10 control=11 value=74 time=13 actual_time=13240
type=control_change channel=10 control=11 value=74 time=2 actual_time=13242
type=control_change channel=10 control=11 value=75 time=9 actual_time=13251
type=control_change channel=10 control=11 value=75 time=15 actual_time=13266
type=control_change channel=10 control=11 value=75 time=14 actual_time=13280
type=control_change channel=10 control=11 value=75 time=1 actual_time=13281
type=control_change channel=10 control=11 value=76 time=9 actual_time=13290
type=control_change channel=10 control=11 value=76 time=15 actual_time=13305
type=control_change channel=10 control=11 value=76 time=15 actual_time=13320
type=control_change channel=10 control=11 value=76 time=0 actual_time=13320
type=control_change channel=10 control=11 value=77 time=9 actual_time=13329
type=control_change channel=10 control=11 value=77 time=15 actual_time=13344
type=control_change channel=10 control=11 value=77 time=15 actual_time=13359
type=control_change channel=10 control=11 value=77 time=1 actual_time=13360
type=control_change channel=10 control=11 value=78 time=8 actual_time=13368
type=control_change channel=10 control=11 value=78 time=15 actual_time=13383
type=control_change channel=10 control=11 value=78 time=15 actual_time=13398
type=control_change channel=10 control=11 value=78 time=2 actual_time=13400
type=control_change channel=10 control=11 value=79 time=7 actual_time=13407
type=control_change channel=10 control=11 value=79 time=15 actual_time=13422
type=control_change channel=10 control=11 value=79 time=15 actual_time=13437
type=control_change channel=10 control=11 value=79 time=3 actual_time=13440
type=control_change channel=10 control=11 value=80 time=6 actual_time=13446
type=control_change channel=10 control=11 value=80 time=15 actual_time=13461
type=control_change channel=10 control=11 value=80 time=15 actual_time=13476
type=control_change channel=10 control=11 value=80 time=4 actual_time=13480
type=control_change channel=10 control=11 value=81 time=5 actual_time=13485
type=control_change channel=10 control=11 value=81 time=15 actual_time=13500
type=control_change channel=10 control=11 value=81 time=15 actual_time=13515
type=control_change channel=10 control=11 value=81 time=5 actual_time=13520
type=control_change channel=10 control=11 value=82 time=4 actual_time=13524
type=control_change channel=10 control=11 value=82 time=15 actual_time=13539
type=control_change channel=10 control=11 value=82 time=15 actual_time=13554
type=control_change channel=10 control=11 value=82 time=6 actual_time=13560
type=control_change channel=10 control=11 value=83 time=3 actual_time=13563
type=control_change channel=10 control=11 value=83 time=15 actual_time=13578
type=control_change channel=10 control=11 value=83 time=15 actual_time=13593
type=control_change channel=10 control=11 value=83 time=7 actual_time=13600
type=control_change channel=10 control=11 value=84 time=2 actual_time=13602
type=control_change channel=10 control=11 value=84 time=15 actual_time=13617
type=control_change channel=10 control=11 value=84 time=15 actual_time=13632
type=control_change channel=10 control=11 value=84 time=8 actual_time=13640
type=control_change channel=10 control=11 value=85 time=1 actual_time=13641
type=control_change channel=10 control=11 value=85 time=15 actual_time=13656
type=control_change channel=10 control=11 value=85 time=15 actual_time=13671
type=control_change channel=10 control=11 value=85 time=9 actual_time=13680
type=control_change channel=10 control=11 value=86 time=0 actual_time=13680
type=control_change channel=10 control=11 value=86 time=15 actual_time=13695
type=control_change channel=10 control=11 value=86 time=15 actual_time=13710
type=control_change channel=10 control=11 value=87 time=9 actual_time=13719
type=control_change channel=10 control=11 value=86 time=1 actual_time=13720
type=control_change channel=10 control=11 value=87 time=14 actual_time=13734
type=control_change channel=10 control=11 value=87 time=15 actual_time=13749
type=control_change channel=10 control=11 value=88 time=9 actual_time=13758
type=control_change channel=10 control=11 value=87 time=2 actual_time=13760
type=control_change channel=10 control=11 value=88 time=13 actual_time=13773
type=control_change channel=10 control=11 value=88 time=15 actual_time=13788
type=control_change channel=10 control=11 value=89 time=9 actual_time=13797
type=control_change channel=10 control=11 value=88 time=3 actual_time=13800
type=control_change channel=10 control=11 value=89 time=12 actual_time=13812
type=control_change channel=10 control=11 value=89 time=15 actual_time=13827
type=control_change channel=10 control=11 value=90 time=9 actual_time=13836
type=control_change channel=10 control=11 value=89 time=4 actual_time=13840
type=control_change channel=10 control=11 value=90 time=11 actual_time=13851
type=control_change channel=10 control=11 value=90 time=15 actual_time=13866
type=control_change channel=10 control=11 value=91 time=9 actual_time=13875
type=control_change channel=10 control=11 value=90 time=5 actual_time=13880
type=control_change channel=10 control=11 value=91 time=10 actual_time=13890
type=control_change channel=10 control=11 value=91 time=15 actual_time=13905
type=control_change channel=10 control=11 value=92 time=9 actual_time=13914
type=control_change channel=10 control=11 value=91 time=6 actual_time=13920
type=control_change channel=10 control=11 value=92 time=9 actual_time=13929
type=control_change channel=10 control=11 value=92 time=15 actual_time=13944
type=control_change channel=10 control=11 value=93 time=9 actual_time=13953
type=control_change channel=10 control=11 value=92 time=7 actual_time=13960
type=control_change channel=10 control=11 value=93 time=8 actual_time=13968
type=control_change channel=10 control=11 value=93 time=15 actual_time=13983
type=control_change channel=10 control=11 value=94 time=9 actual_time=13992
type=control_change channel=10 control=11 value=93 time=8 actual_time=14000
type=control_change channel=10 control=11 value=94 time=7 actual_time=14007
type=control_change channel=10 control=11 value=94 time=15 actual_time=14022
type=control_change channel=10 control=11 value=95 time=9 actual_time=14031
type=control_change channel=10 control=11 value=94 time=9 actual_time=14040
type=control_change channel=10 control=11 value=95 time=6 actual_time=14046
type=control_change channel=10 control=11 value=95 time=15 actual_time=14061
type=control_change channel=10 control=11 value=96 time=9 actual_time=14070
type=control_change channel=10 control=11 value=95 time=10 actual_time=14080
type=control_change channel=10 control=11 value=96 time=5 actual_time=14085
type=control_change channel=10 control=11 value=96 time=15 actual_time=14100
type=control_change channel=10 control=11 value=97 time=9 actual_time=14109
type=control_change channel=10 control=11 value=96 time=11 actual_time=14120
type=control_change channel=10 control=11 value=97 time=4 actual_time=14124
type=control_change channel=10 control=11 value=97 time=15 actual_time=14139
type=control_change channel=10 control=11 value=98 time=9 actual_time=14148
type=control_change channel=10 control=11 value=97 time=12 actual_time=14160
type=control_change channel=10 control=11 value=98 time=3 actual_time=14163
type=control_change channel=10 control=11 value=98 time=15 actual_time=14178
type=control_change channel=10 control=11 value=99 time=9 actual_time=14187
type=control_change channel=10 control=11 value=98 time=13 actual_time=14200
type=control_change channel=10 control=11 value=99 time=2 actual_time=14202
type=control_change channel=10 control=11 value=99 time=15 actual_time=14217
type=control_change channel=10 control=11 value=100 time=9 actual_time=14226
type=control_change channel=10 control=11 value=99 time=14 actual_time=14240
type=control_change channel=10 control=11 value=100 time=1 actual_time=14241
type=control_change channel=10 control=11 value=100 time=15 actual_time=14256
type=control_change channel=10 control=11 value=101 time=9 actual_time=14265
type=control_change channel=10 control=11 value=100 time=15 actual_time=14280
type=control_change channel=10 control=11 value=101 time=0 actual_time=14280
type=control_change channel=10 control=11 value=101 time=15 actual_time=14295
type=control_change channel=10 control=11 value=102 time=9 actual_time=14304
type=control_change channel=10 control=11 value=102 time=15 actual_time=14319
type=control_change channel=10 control=11 value=101 time=1 actual_time=14320
type=control_change channel=10 control=11 value=102 time=14 actual_time=14334
type=control_change channel=10 control=11 value=103 time=9 actual_time=14343
type=control_change channel=10 control=11 value=103 time=15 actual_time=14358
type=control_change channel=10 control=11 value=102 time=2 actual_time=14360
type=control_change channel=10 control=11 value=103 time=13 actual_time=14373
type=control_change channel=10 control=11 value=104 time=9 actual_time=14382
type=control_change channel=10 control=11 value=104 time=15 actual_time=14397
type=control_change channel=10 control=11 value=103 time=3 actual_time=14400
type=control_change channel=10 control=11 value=104 time=12 actual_time=14412
type=control_change channel=10 control=11 value=105 time=9 actual_time=14421
type=control_change channel=10 control=11 value=105 time=15 actual_time=14436
type=control_change channel=10 control=11 value=104 time=4 actual_time=14440
type=control_change channel=10 control=11 value=105 time=11 actual_time=14451
type=control_change channel=10 control=11 value=106 time=9 actual_time=14460
type=control_change channel=10 control=11 value=106 time=15 actual_time=14475
type=control_change channel=10 control=11 value=105 time=5 actual_time=14480
type=control_change channel=10 control=11 value=106 time=10 actual_time=14490
type=control_change channel=10 control=11 value=107 time=9 actual_time=14499
type=control_change channel=10 control=11 value=107 time=15 actual_time=14514
type=control_change channel=10 control=11 value=106 time=6 actual_time=14520
type=control_change channel=10 control=11 value=107 time=9 actual_time=14529
type=control_change channel=10 control=11 value=108 time=9 actual_time=14538
type=control_change channel=10 control=11 value=108 time=15 actual_time=14553
type=control_change channel=10 control=11 value=107 time=7 actual_time=14560
type=control_change channel=10 control=11 value=108 time=8 actual_time=14568
type=control_change channel=10 control=11 value=109 time=9 actual_time=14577
type=control_change channel=10 control=11 value=109 time=15 actual_time=14592
type=control_change channel=10 control=11 value=108 time=8 actual_time=14600
type=control_change channel=10 control=11 value=109 time=7 actual_time=14607
type=control_change channel=10 control=11 value=110 time=9 actual_time=14616
type=control_change channel=10 control=11 value=110 time=15 actual_time=14631
type=control_change channel=10 control=11 value=109 time=9 actual_time=14640
type=control_change channel=10 control=11 value=110 time=6 actual_time=14646
type=control_change channel=10 control=11 value=111 time=9 actual_time=14655
type=control_change channel=10 control=11 value=111 time=15 actual_time=14670
type=control_change channel=10 control=11 value=110 time=10 actual_time=14680
type=control_change channel=10 control=11 value=111 time=5 actual_time=14685
type=control_change channel=10 control=11 value=112 time=9 actual_time=14694
type=control_change channel=10 control=11 value=112 time=15 actual_time=14709
type=control_change channel=10 control=11 value=111 time=11 actual_time=14720
type=control_change channel=10 control=11 value=112 time=4 actual_time=14724
type=control_change channel=10 control=11 value=113 time=9 actual_time=14733
type=control_change channel=10 control=11 value=113 time=15 actual_time=14748
type=control_change channel=10 control=11 value=112 time=12 actual_time=14760
type=control_change channel=10 control=11 value=113 time=3 actual_time=14763
type=control_change channel=10 control=11 value=114 time=9 actual_time=14772
type=control_change channel=10 control=11 value=114 time=15 actual_time=14787
type=control_change channel=10 control=11 value=113 time=13 actual_time=14800
type=control_change channel=10 control=11 value=114 time=2 actual_time=14802
type=control_change channel=10 control=11 value=115 time=9 actual_time=14811
type=control_change channel=10 control=11 value=115 time=15 actual_time=14826
type=control_change channel=10 control=11 value=114 time=14 actual_time=14840
type=control_change channel=10 control=11 value=115 time=1 actual_time=14841
type=control_change channel=10 control=11 value=116 time=9 actual_time=14850
type=control_change channel=10 control=11 value=116 time=15 actual_time=14865
type=control_change channel=10 control=11 value=115 time=15 actual_time=14880
type=control_change channel=10 control=11 value=116 time=0 actual_time=14880
type=control_change channel=10 control=11 value=117 time=9 actual_time=14889
type=control_change channel=10 control=11 value=117 time=15 actual_time=14904
type=control_change channel=10 control=11 value=117 time=15 actual_time=14919
type=control_change channel=10 control=11 value=116 time=1 actual_time=14920
type=control_change channel=10 control=11 value=118 time=8 actual_time=14928
type=control_change channel=10 control=11 value=118 time=15 actual_time=14943
type=control_change channel=10 control=11 value=118 time=15 actual_time=14958
type=control_change channel=10 control=11 value=117 time=2 actual_time=14960
type=control_change channel=10 control=11 value=119 time=7 actual_time=14967
type=control_change channel=10 control=11 value=119 time=15 actual_time=14982
type=control_change channel=10 control=11 value=119 time=15 actual_time=14997
type=control_change channel=10 control=11 value=118 time=3 actual_time=15000
type=control_change channel=10 control=11 value=120 time=6 actual_time=15006
type=control_change channel=10 control=11 value=120 time=15 actual_time=15021
type=control_change channel=10 control=11 value=120 time=15 actual_time=15036
type=control_change channel=10 control=11 value=119 time=4 actual_time=15040
type=control_change channel=10 control=11 value=121 time=5 actual_time=15045
type=control_change channel=10 control=11 value=121 time=15 actual_time=15060
type=control_change channel=10 control=11 value=121 time=15 actual_time=15075
type=control_change channel=10 control=11 value=120 time=5 actual_time=15080
type=control_change channel=10 control=11 value=122 time=4 actual_time=15084
type=control_change channel=10 control=11 value=122 time=15 actual_time=15099
type=control_change channel=10 control=11 value=122 time=15 actual_time=15114
type=control_change channel=10 control=11 value=121 time=6 actual_time=15120
type=control_change channel=10 control=11 value=123 time=3 actual_time=15123
type=control_change channel=10 control=11 value=123 time=15 actual_time=15138
type=control_change channel=10 control=11 value=123 time=15 actual_time=15153
type=control_change channel=10 control=11 value=122 time=7 actual_time=15160
type=control_change channel=10 control=11 value=124 time=2 actual_time=15162
type=control_change channel=10 control=11 value=124 time=15 actual_time=15177
type=control_change channel=10 control=11 value=124 time=15 actual_time=15192
type=control_change channel=10 control=11 value=123 time=8 actual_time=15200
type=control_change channel=10 control=11 value=125 time=1 actual_time=15201
type=control_change channel=10 control=11 value=125 time=15 actual_time=15216
type=control_change channel=10 control=11 value=125 time=15 actual_time=15231
type=control_change channel=10 control=11 value=124 time=9 actual_time=15240
type=control_change channel=10 control=11 value=126 time=0 actual_time=15240
type=control_change channel=10 control=11 value=126 time=15 actual_time=15255
type=control_change channel=10 control=11 value=126 time=15 actual_time=15270
type=control_change channel=10 control=11 value=125 time=10 actual_time=15280
type=control_change channel=10 control=11 value=126 time=40 actual_time=15320
type=control_change channel=10 control=11 value=127 time=40 actual_time=15360
type: note_off, time: 0, actual_time: 15360
type=control_change channel=10 control=11 value=127 time=0 actual_time=15360
type: note_off, time: 0, actual_time: 15360
type=control_change channel=10 control=11 value=127 time=0 actual_time=15360
type: note_off, time: 0, actual_time: 15360
type=control_change channel=10 control=11 value=127 time=0 actual_time=15360
type: note_off, time: 0, actual_time: 15360
MetaMessage type: end_of_track, time: 0, actual_time: 15360
MetaMessage type: track_name, time: 0, actual_time: 0
type: program_change, time: 0, actual_time: 0
type=control_change channel=0 control=7 value=124 time=0 actual_time=0
type=note_on channel=0 note=59 velocity=80 time=7800 actual_time=7800
type=note_on channel=0 note=59 velocity=0 time=96 actual_time=7896
type=note_on channel=0 note=59 velocity=80 time=24 actual_time=7920
type=note_on channel=0 note=59 velocity=0 time=96 actual_time=8016
type=note_on channel=0 note=59 velocity=80 time=24 actual_time=8040
type=note_on channel=0 note=59 velocity=0 time=48 actual_time=8088
type=note_on channel=0 note=62 velocity=80 time=12 actual_time=8100
type=note_on channel=0 note=62 velocity=0 time=144 actual_time=8244
type=note_on channel=0 note=59 velocity=80 time=36 actual_time=8280
type=note_on channel=0 note=59 velocity=0 time=96 actual_time=8376
type=note_on channel=0 note=57 velocity=80 time=24 actual_time=8400
type=note_on channel=0 note=57 velocity=0 time=96 actual_time=8496
type=note_on channel=0 note=57 velocity=80 time=24 actual_time=8520
type=note_on channel=0 note=57 velocity=0 time=48 actual_time=8568
type=note_on channel=0 note=57 velocity=80 time=12 actual_time=8580
type=note_on channel=0 note=57 velocity=0 time=156 actual_time=8736
type=note_on channel=0 note=57 velocity=80 time=24 actual_time=8760
type=note_on channel=0 note=57 velocity=0 time=96 actual_time=8856
type=note_on channel=0 note=57 velocity=80 time=24 actual_time=8880
type=note_on channel=0 note=57 velocity=0 time=96 actual_time=8976
type=note_on channel=0 note=57 velocity=80 time=24 actual_time=9000
type=note_on channel=0 note=57 velocity=0 time=96 actual_time=9096
type=note_on channel=0 note=57 velocity=80 time=24 actual_time=9120
type=note_on channel=0 note=57 velocity=0 time=48 actual_time=9168
type=note_on channel=0 note=57 velocity=80 time=12 actual_time=9180
type=note_on channel=0 note=57 velocity=0 time=96 actual_time=9276
type=note_on channel=0 note=59 velocity=80 time=24 actual_time=9300
type=note_on channel=0 note=59 velocity=0 time=192 actual_time=9492
type=note_on channel=0 note=59 velocity=80 time=228 actual_time=9720
type=note_on channel=0 note=59 velocity=0 time=96 actual_time=9816
type=note_on channel=0 note=59 velocity=80 time=24 actual_time=9840
type=note_on channel=0 note=59 velocity=0 time=96 actual_time=9936
type=note_on channel=0 note=59 velocity=80 time=24 actual_time=9960
type=note_on channel=0 note=59 velocity=0 time=96 actual_time=10056
type=note_on channel=0 note=62 velocity=80 time=24 actual_time=10080
type=note_on channel=0 note=62 velocity=0 time=48 actual_time=10128
type=note_on channel=0 note=62 velocity=80 time=12 actual_time=10140
type=note_on channel=0 note=62 velocity=0 time=96 actual_time=10236
type=note_on channel=0 note=62 velocity=80 time=24 actual_time=10260
type=note_on channel=0 note=62 velocity=0 time=96 actual_time=10356
type=note_on channel=0 note=62 velocity=80 time=24 actual_time=10380
type=note_on channel=0 note=62 velocity=0 time=96 actual_time=10476
type=note_on channel=0 note=62 velocity=80 time=24 actual_time=10500
type=note_on channel=0 note=62 velocity=0 time=108 actual_time=10608
type=note_on channel=0 note=62 velocity=80 time=12 actual_time=10620
type=note_on channel=0 note=62 velocity=0 time=144 actual_time=10764
type=note_on channel=0 note=62 velocity=80 time=36 actual_time=10800
type=note_on channel=0 note=62 velocity=0 time=96 actual_time=10896
type=note_on channel=0 note=62 velocity=80 time=24 actual_time=10920
type=note_on channel=0 note=62 velocity=0 time=96 actual_time=11016
type=note_on channel=0 note=61 velocity=80 time=24 actual_time=11040
type=note_on channel=0 note=61 velocity=0 time=96 actual_time=11136
type=note_on channel=0 note=61 velocity=80 time=24 actual_time=11160
type=note_on channel=0 note=61 velocity=0 time=48 actual_time=11208
type=note_on channel=0 note=62 velocity=80 time=12 actual_time=11220
type=note_on channel=0 note=62 velocity=0 time=96 actual_time=11316
type=note_on channel=0 note=59 velocity=80 time=24 actual_time=11340
type=note_on channel=0 note=59 velocity=0 time=96 actual_time=11436
type=note_on channel=0 note=59 velocity=80 time=164 actual_time=11600
type=note_on channel=0 note=59 velocity=0 time=32 actual_time=11632
type=note_on channel=0 note=59 velocity=80 time=8 actual_time=11640
type=note_on channel=0 note=59 velocity=0 time=96 actual_time=11736
type=note_on channel=0 note=59 velocity=80 time=24 actual_time=11760
type=note_on channel=0 note=59 velocity=0 time=96 actual_time=11856
type=note_on channel=0 note=59 velocity=80 time=24 actual_time=11880
type=note_on channel=0 note=59 velocity=0 time=48 actual_time=11928
type=note_on channel=0 note=62 velocity=80 time=12 actual_time=11940
type=note_on channel=0 note=62 velocity=0 time=144 actual_time=12084
type=note_on channel=0 note=59 velocity=80 time=36 actual_time=12120
type=note_on channel=0 note=59 velocity=0 time=96 actual_time=12216
type=note_on channel=0 note=57 velocity=80 time=24 actual_time=12240
type=note_on channel=0 note=57 velocity=0 time=96 actual_time=12336
type=note_on channel=0 note=57 velocity=80 time=24 actual_time=12360
type=note_on channel=0 note=57 velocity=0 time=48 actual_time=12408
type=note_on channel=0 note=57 velocity=80 time=12 actual_time=12420
type=note_on channel=0 note=57 velocity=0 time=156 actual_time=12576
type=note_on channel=0 note=57 velocity=80 time=24 actual_time=12600
type=note_on channel=0 note=57 velocity=0 time=96 actual_time=12696
type=note_on channel=0 note=57 velocity=80 time=24 actual_time=12720
type=note_on channel=0 note=57 velocity=0 time=48 actual_time=12768
type=note_on channel=0 note=57 velocity=80 time=12 actual_time=12780
type=note_on channel=0 note=57 velocity=0 time=96 actual_time=12876
type=note_on channel=0 note=59 velocity=80 time=24 actual_time=12900
type=note_on channel=0 note=59 velocity=0 time=384 actual_time=13284
type=note_on channel=0 note=59 velocity=80 time=276 actual_time=13560
type=note_on channel=0 note=59 velocity=0 time=96 actual_time=13656
type=note_on channel=0 note=59 velocity=80 time=24 actual_time=13680
type=note_on channel=0 note=59 velocity=0 time=96 actual_time=13776
type=note_on channel=0 note=59 velocity=80 time=24 actual_time=13800
type=note_on channel=0 note=59 velocity=0 time=96 actual_time=13896
type=note_on channel=0 note=59 velocity=80 time=24 actual_time=13920
type=note_on channel=0 note=59 velocity=0 time=48 actual_time=13968
type=note_on channel=0 note=59 velocity=80 time=12 actual_time=13980
type=note_on channel=0 note=59 velocity=0 time=96 actual_time=14076
type=note_on channel=0 note=59 velocity=80 time=24 actual_time=14100
type=note_on channel=0 note=59 velocity=0 time=96 actual_time=14196
type=note_on channel=0 note=59 velocity=80 time=24 actual_time=14220
type=note_on channel=0 note=59 velocity=0 time=96 actual_time=14316
type=note_on channel=0 note=59 velocity=80 time=24 actual_time=14340
type=note_on channel=0 note=57 velocity=80 time=60 actual_time=14400
type=note_on channel=0 note=59 velocity=0 time=36 actual_time=14436
type=note_on channel=0 note=57 velocity=0 time=348 actual_time=14784
type=note_on channel=0 note=57 velocity=80 time=456 actual_time=15240
type=note_on channel=0 note=57 velocity=0 time=312 actual_time=15552
type=note_on channel=0 note=59 velocity=80 time=3768 actual_time=19320
type=note_on channel=0 note=59 velocity=0 time=96 actual_time=19416
type=note_on channel=0 note=59 velocity=80 time=24 actual_time=19440
type=note_on channel=0 note=59 velocity=0 time=96 actual_time=19536
type=note_on channel=0 note=59 velocity=80 time=24 actual_time=19560
type=note_on channel=0 note=59 velocity=0 time=48 actual_time=19608
type=note_on channel=0 note=59 velocity=80 time=12 actual_time=19620
type=note_on channel=0 note=59 velocity=0 time=144 actual_time=19764
type=note_on channel=0 note=57 velocity=80 time=36 actual_time=19800
type=note_on channel=0 note=57 velocity=0 time=96 actual_time=19896
type=note_on channel=0 note=57 velocity=80 time=24 actual_time=19920
type=note_on channel=0 note=57 velocity=0 time=96 actual_time=20016
type=note_on channel=0 note=54 velocity=80 time=24 actual_time=20040
type=note_on channel=0 note=54 velocity=0 time=48 actual_time=20088
type=note_on channel=0 note=57 velocity=80 time=12 actual_time=20100
type=note_on channel=0 note=57 velocity=0 time=156 actual_time=20256
type=note_on channel=0 note=57 velocity=80 time=24 actual_time=20280
type=note_on channel=0 note=57 velocity=0 time=96 actual_time=20376
type=note_on channel=0 note=57 velocity=80 time=24 actual_time=20400
type=note_on channel=0 note=57 velocity=0 time=48 actual_time=20448
type=note_on channel=0 note=57 velocity=80 time=12 actual_time=20460
type=note_on channel=0 note=57 velocity=0 time=96 actual_time=20556
type=note_on channel=0 note=57 velocity=80 time=24 actual_time=20580
type=note_on channel=0 note=57 velocity=0 time=384 actual_time=20964
type=note_on channel=0 note=54 velocity=80 time=396 actual_time=21360
type=note_on channel=0 note=54 velocity=0 time=96 actual_time=21456
type=note_on channel=0 note=54 velocity=80 time=24 actual_time=21480
type=note_on channel=0 note=54 velocity=0 time=48 actual_time=21528
type=note_on channel=0 note=57 velocity=80 time=12 actual_time=21540
type=note_on channel=0 note=57 velocity=0 time=96 actual_time=21636
type=note_on channel=0 note=57 velocity=80 time=24 actual_time=21660
type=note_on channel=0 note=57 velocity=0 time=96 actual_time=21756
type=note_on channel=0 note=57 velocity=80 time=24 actual_time=21780
type=note_on channel=0 note=57 velocity=0 time=96 actual_time=21876
type=note_on channel=0 note=57 velocity=80 time=24 actual_time=21900
type=note_on channel=0 note=57 velocity=0 time=48 actual_time=21948
type=note_on channel=0 note=57 velocity=80 time=12 actual_time=21960
type=note_on channel=0 note=57 velocity=0 time=48 actual_time=22008
type=note_on channel=0 note=57 velocity=80 time=12 actual_time=22020
type=note_on channel=0 note=57 velocity=0 time=108 actual_time=22128
type=note_on channel=0 note=59 velocity=80 time=12 actual_time=22140
type=note_on channel=0 note=59 velocity=0 time=96 actual_time=22236
type=note_on channel=0 note=57 velocity=80 time=24 actual_time=22260
type=note_on channel=0 note=57 velocity=0 time=48 actual_time=22308
type=note_on channel=0 note=57 velocity=80 time=12 actual_time=22320
type=note_on channel=0 note=57 velocity=0 time=96 actual_time=22416
type=note_on channel=0 note=57 velocity=80 time=24 actual_time=22440
type=note_on channel=0 note=57 velocity=0 time=48 actual_time=22488
type=note_on channel=0 note=52 velocity=80 time=12 actual_time=22500
type=note_on channel=0 note=52 velocity=0 time=96 actual_time=22596
type=note_on channel=0 note=52 velocity=80 time=24 actual_time=22620
type=note_on channel=0 note=52 velocity=0 time=96 actual_time=22716
type=note_on channel=0 note=52 velocity=80 time=24 actual_time=22740
type=note_on channel=0 note=52 velocity=0 time=96 actual_time=22836
type=note_on channel=0 note=50 velocity=80 time=24 actual_time=22860
type=note_on channel=0 note=50 velocity=0 time=96 actual_time=22956
type=note_on channel=0 note=57 velocity=80 time=204 actual_time=23160
type=note_on channel=0 note=57 velocity=0 time=96 actual_time=23256
type=note_on channel=0 note=57 velocity=80 time=24 actual_time=23280
type=note_on channel=0 note=57 velocity=0 time=48 actual_time=23328
type=note_on channel=0 note=57 velocity=80 time=12 actual_time=23340
type=note_on channel=0 note=57 velocity=0 time=96 actual_time=23436
type=note_on channel=0 note=59 velocity=80 time=24 actual_time=23460
type=note_on channel=0 note=59 velocity=0 time=96 actual_time=23556
type=note_on channel=0 note=57 velocity=80 time=24 actual_time=23580
type=note_on channel=0 note=57 velocity=0 time=192 actual_time=23772
type=note_on channel=0 note=57 velocity=80 time=48 actual_time=23820
type=note_on channel=0 note=57 velocity=0 time=144 actual_time=23964
type=note_on channel=0 note=57 velocity=80 time=36 actual_time=24000
type=note_on channel=0 note=57 velocity=0 time=48 actual_time=24048
type=note_on channel=0 note=57 velocity=80 time=12 actual_time=24060
type=note_on channel=0 note=57 velocity=0 time=96 actual_time=24156
type=note_on channel=0 note=57 velocity=80 time=24 actual_time=24180
type=note_on channel=0 note=57 velocity=0 time=96 actual_time=24276
type=note_on channel=0 note=57 velocity=80 time=24 actual_time=24300
type=note_on channel=0 note=57 velocity=0 time=96 actual_time=24396
type=note_on channel=0 note=59 velocity=80 time=24 actual_time=24420
type=note_on channel=0 note=59 velocity=0 time=288 actual_time=24708
type=note_on channel=0 note=59 velocity=80 time=192 actual_time=24900
type=note_on channel=0 note=59 velocity=0 time=48 actual_time=24948
type=note_on channel=0 note=59 velocity=80 time=12 actual_time=24960
type=note_on channel=0 note=59 velocity=0 time=96 actual_time=25056
type=note_on channel=0 note=59 velocity=80 time=24 actual_time=25080
type=note_on channel=0 note=59 velocity=0 time=96 actual_time=25176
type=note_on channel=0 note=59 velocity=80 time=24 actual_time=25200
type=note_on channel=0 note=59 velocity=0 time=96 actual_time=25296
type=note_on channel=0 note=62 velocity=80 time=24 actual_time=25320
type=note_on channel=0 note=62 velocity=0 time=192 actual_time=25512
type=note_on channel=0 note=62 velocity=80 time=48 actual_time=25560
type=note_on channel=0 note=62 velocity=0 time=192 actual_time=25752
type=note_on channel=0 note=62 velocity=80 time=48 actual_time=25800
type=note_on channel=0 note=62 velocity=0 time=216 actual_time=26016
type=note_on channel=0 note=61 velocity=80 time=24 actual_time=26040
type=note_on channel=0 note=61 velocity=0 time=96 actual_time=26136
type=note_on channel=0 note=61 velocity=80 time=24 actual_time=26160
type=note_on channel=0 note=61 velocity=0 time=96 actual_time=26256
type=note_on channel=0 note=62 velocity=80 time=24 actual_time=26280
type=note_on channel=0 note=62 velocity=0 time=96 actual_time=26376
type=note_on channel=0 note=59 velocity=80 time=24 actual_time=26400
type=note_on channel=0 note=59 velocity=0 time=192 actual_time=26592
type=note_on channel=0 note=59 velocity=80 time=408 actual_time=27000
type=note_on channel=0 note=59 velocity=0 time=96 actual_time=27096
type=note_on channel=0 note=59 velocity=80 time=24 actual_time=27120
type=note_on channel=0 note=59 velocity=0 time=96 actual_time=27216
type=note_on channel=0 note=59 velocity=80 time=24 actual_time=27240
type=note_on channel=0 note=59 velocity=0 time=96 actual_time=27336
type=note_on channel=0 note=62 velocity=80 time=24 actual_time=27360
type=note_on channel=0 note=62 velocity=0 time=96 actual_time=27456
type=note_on channel=0 note=59 velocity=80 time=24 actual_time=27480
type=note_on channel=0 note=59 velocity=0 time=96 actual_time=27576
type=note_on channel=0 note=59 velocity=80 time=24 actual_time=27600
type=note_on channel=0 note=59 velocity=0 time=96 actual_time=27696
type=note_on channel=0 note=59 velocity=80 time=24 actual_time=27720
type=note_on channel=0 note=59 velocity=0 time=96 actual_time=27816
type=note_on channel=0 note=62 velocity=80 time=24 actual_time=27840
type=note_on channel=0 note=62 velocity=0 time=96 actual_time=27936
type=note_on channel=0 note=62 velocity=80 time=24 actual_time=27960
type=note_on channel=0 note=62 velocity=0 time=96 actual_time=28056
type=note_on channel=0 note=62 velocity=80 time=24 actual_time=28080
type=note_on channel=0 note=62 velocity=0 time=96 actual_time=28176
type=note_on channel=0 note=62 velocity=80 time=24 actual_time=28200
type=note_on channel=0 note=62 velocity=0 time=96 actual_time=28296
type=note_on channel=0 note=61 velocity=80 time=24 actual_time=28320
type=note_on channel=0 note=61 velocity=0 time=96 actual_time=28416
type=note_on channel=0 note=61 velocity=80 time=24 actual_time=28440
type=note_on channel=0 note=61 velocity=0 time=48 actual_time=28488
type=note_on channel=0 note=62 velocity=80 time=12 actual_time=28500
type=note_on channel=0 note=62 velocity=0 time=192 actual_time=28692
type=note_on channel=0 note=59 velocity=80 time=228 actual_time=28920
type=note_on channel=0 note=59 velocity=0 time=96 actual_time=29016
type=note_on channel=0 note=59 velocity=80 time=24 actual_time=29040
type=note_on channel=0 note=59 velocity=0 time=96 actual_time=29136
type=note_on channel=0 note=59 velocity=80 time=24 actual_time=29160
type=note_on channel=0 note=59 velocity=0 time=48 actual_time=29208
type=note_on channel=0 note=62 velocity=80 time=12 actual_time=29220
type=note_on channel=0 note=62 velocity=0 time=168 actual_time=29388
type=note_on channel=0 note=59 velocity=80 time=12 actual_time=29400
type=note_on channel=0 note=59 velocity=0 time=96 actual_time=29496
type=note_on channel=0 note=59 velocity=80 time=24 actual_time=29520
type=note_on channel=0 note=59 velocity=0 time=96 actual_time=29616
type=note_on channel=0 note=59 velocity=80 time=24 actual_time=29640
type=note_on channel=0 note=59 velocity=0 time=96 actual_time=29736
type=note_on channel=0 note=62 velocity=80 time=24 actual_time=29760
type=note_on channel=0 note=62 velocity=0 time=96 actual_time=29856
type=note_on channel=0 note=62 velocity=80 time=24 actual_time=29880
type=note_on channel=0 note=62 velocity=0 time=96 actual_time=29976
type=note_on channel=0 note=62 velocity=80 time=24 actual_time=30000
type=note_on channel=0 note=62 velocity=0 time=96 actual_time=30096
type=note_on channel=0 note=62 velocity=80 time=24 actual_time=30120
type=note_on channel=0 note=62 velocity=0 time=96 actual_time=30216
type=note_on channel=0 note=61 velocity=80 time=24 actual_time=30240
type=note_on channel=0 note=61 velocity=0 time=96 actual_time=30336
type=note_on channel=0 note=61 velocity=80 time=24 actual_time=30360
type=note_on channel=0 note=61 velocity=0 time=96 actual_time=30456
type=note_on channel=0 note=61 velocity=80 time=24 actual_time=30480
type=note_on channel=0 note=61 velocity=0 time=96 actual_time=30576
type=note_on channel=0 note=62 velocity=80 time=24 actual_time=30600
type=note_on channel=0 note=62 velocity=0 time=96 actual_time=30696
type=note_on channel=0 note=59 velocity=80 time=144 actual_time=30840
type=note_on channel=0 note=59 velocity=0 time=96 actual_time=30936
type=note_on channel=0 note=59 velocity=80 time=24 actual_time=30960
type=note_on channel=0 note=59 velocity=0 time=96 actual_time=31056
type=note_on channel=0 note=59 velocity=80 time=24 actual_time=31080
type=note_on channel=0 note=59 velocity=0 time=96 actual_time=31176
type=note_on channel=0 note=62 velocity=80 time=24 actual_time=31200
type=note_on channel=0 note=62 velocity=0 time=96 actual_time=31296
type=note_on channel=0 note=59 velocity=80 time=24 actual_time=31320
type=note_on channel=0 note=59 velocity=0 time=96 actual_time=31416
type=note_on channel=0 note=57 velocity=80 time=24 actual_time=31440
type=note_on channel=0 note=57 velocity=0 time=96 actual_time=31536
type=note_on channel=0 note=57 velocity=80 time=24 actual_time=31560
type=note_on channel=0 note=57 velocity=0 time=96 actual_time=31656
type=note_on channel=0 note=62 velocity=80 time=24 actual_time=31680
type=note_on channel=0 note=62 velocity=0 time=96 actual_time=31776
type=note_on channel=0 note=62 velocity=80 time=24 actual_time=31800
type=note_on channel=0 note=62 velocity=0 time=96 actual_time=31896
type=note_on channel=0 note=62 velocity=80 time=24 actual_time=31920
type=note_on channel=0 note=62 velocity=0 time=96 actual_time=32016
type=note_on channel=0 note=61 velocity=80 time=24 actual_time=32040
type=note_on channel=0 note=61 velocity=0 time=192 actual_time=32232
type=note_on channel=0 note=61 velocity=80 time=48 actual_time=32280
type=note_on channel=0 note=61 velocity=0 time=192 actual_time=32472
type=note_on channel=0 note=61 velocity=80 time=48 actual_time=32520
type=note_on channel=0 note=61 velocity=0 time=96 actual_time=32616
type=note_on channel=0 note=62 velocity=80 time=24 actual_time=32640
type=note_on channel=0 note=62 velocity=0 time=96 actual_time=32736
type=note_on channel=0 note=62 velocity=80 time=144 actual_time=32880
type=note_on channel=0 note=62 velocity=0 time=96 actual_time=32976
type=note_on channel=0 note=59 velocity=80 time=24 actual_time=33000
type=note_on channel=0 note=59 velocity=0 time=48 actual_time=33048
type=note_on channel=0 note=57 velocity=80 time=12 actual_time=33060
type=note_on channel=0 note=57 velocity=0 time=192 actual_time=33252
type=note_on channel=0 note=59 velocity=80 time=5268 actual_time=38520
type=note_on channel=0 note=59 velocity=0 time=96 actual_time=38616
type=note_on channel=0 note=59 velocity=80 time=24 actual_time=38640
type=note_on channel=0 note=59 velocity=0 time=96 actual_time=38736
type=note_on channel=0 note=59 velocity=80 time=24 actual_time=38760
type=note_on channel=0 note=59 velocity=0 time=96 actual_time=38856
type=note_on channel=0 note=59 velocity=80 time=24 actual_time=38880
type=note_on channel=0 note=59 velocity=0 time=96 actual_time=38976
type=note_on channel=0 note=57 velocity=80 time=24 actual_time=39000
type=note_on channel=0 note=57 velocity=0 time=96 actual_time=39096
type=note_on channel=0 note=57 velocity=80 time=24 actual_time=39120
type=note_on channel=0 note=57 velocity=0 time=96 actual_time=39216
type=note_on channel=0 note=57 velocity=80 time=24 actual_time=39240
type=note_on channel=0 note=57 velocity=0 time=96 actual_time=39336
type=note_on channel=0 note=57 velocity=80 time=24 actual_time=39360
type=note_on channel=0 note=57 velocity=0 time=96 actual_time=39456
type=note_on channel=0 note=57 velocity=80 time=24 actual_time=39480
type=note_on channel=0 note=57 velocity=0 time=96 actual_time=39576
type=note_on channel=0 note=57 velocity=80 time=24 actual_time=39600
type=note_on channel=0 note=57 velocity=0 time=96 actual_time=39696
type=note_on channel=0 note=57 velocity=80 time=24 actual_time=39720
type=note_on channel=0 note=57 velocity=0 time=96 actual_time=39816
type=note_on channel=0 note=57 velocity=80 time=24 actual_time=39840
type=note_on channel=0 note=57 velocity=0 time=48 actual_time=39888
type=note_on channel=0 note=57 velocity=80 time=12 actual_time=39900
type=note_on channel=0 note=57 velocity=0 time=96 actual_time=39996
type=note_on channel=0 note=57 velocity=80 time=24 actual_time=40020
type=note_on channel=0 note=57 velocity=0 time=96 actual_time=40116
type=note_on channel=0 note=57 velocity=80 time=24 actual_time=40140
type=note_on channel=0 note=57 velocity=0 time=96 actual_time=40236
type=note_on channel=0 note=54 velocity=80 time=24 actual_time=40260
type=note_on channel=0 note=54 velocity=0 time=156 actual_time=40416
type=note_on channel=0 note=54 velocity=80 time=24 actual_time=40440
type=note_on channel=0 note=54 velocity=0 time=96 actual_time=40536
type=note_on channel=0 note=54 velocity=80 time=24 actual_time=40560
type=note_on channel=0 note=54 velocity=0 time=96 actual_time=40656
type=note_on channel=0 note=54 velocity=80 time=24 actual_time=40680
type=note_on channel=0 note=54 velocity=0 time=96 actual_time=40776
type=note_on channel=0 note=57 velocity=80 time=24 actual_time=40800
type=note_on channel=0 note=57 velocity=0 time=48 actual_time=40848
type=note_on channel=0 note=57 velocity=80 time=12 actual_time=40860
type=note_on channel=0 note=57 velocity=0 time=144 actual_time=41004
type=note_on channel=0 note=57 velocity=80 time=36 actual_time=41040
type=note_on channel=0 note=57 velocity=0 time=96 actual_time=41136
type=note_on channel=0 note=57 velocity=80 time=24 actual_time=41160
type=note_on channel=0 note=57 velocity=0 time=48 actual_time=41208
type=note_on channel=0 note=59 velocity=80 time=12 actual_time=41220
type=note_on channel=0 note=59 velocity=0 time=156 actual_time=41376
type=note_on channel=0 note=57 velocity=80 time=24 actual_time=41400
type=note_on channel=0 note=57 velocity=0 time=96 actual_time=41496
type=note_on channel=0 note=57 velocity=80 time=24 actual_time=41520
type=note_on channel=0 note=57 velocity=0 time=48 actual_time=41568
type=note_on channel=0 note=57 velocity=80 time=12 actual_time=41580
type=note_on channel=0 note=57 velocity=0 time=96 actual_time=41676
type=note_on channel=0 note=57 velocity=80 time=24 actual_time=41700
type=note_on channel=0 note=57 velocity=0 time=96 actual_time=41796
type=note_on channel=0 note=57 velocity=80 time=24 actual_time=41820
type=note_on channel=0 note=57 velocity=0 time=96 actual_time=41916
type=note_on channel=0 note=59 velocity=80 time=24 actual_time=41940
type=note_on channel=0 note=59 velocity=0 time=192 actual_time=42132
type=note_on channel=0 note=59 velocity=80 time=228 actual_time=42360
type=note_on channel=0 note=59 velocity=0 time=96 actual_time=42456
type=note_on channel=0 note=59 velocity=80 time=24 actual_time=42480
type=note_on channel=0 note=59 velocity=0 time=96 actual_time=42576
type=note_on channel=0 note=59 velocity=80 time=24 actual_time=42600
type=note_on channel=0 note=59 velocity=0 time=48 actual_time=42648
type=note_on channel=0 note=59 velocity=80 time=12 actual_time=42660
type=note_on channel=0 note=59 velocity=0 time=168 actual_time=42828
type=note_on channel=0 note=57 velocity=80 time=12 actual_time=42840
type=note_on channel=0 note=57 velocity=0 time=96 actual_time=42936
type=note_on channel=0 note=57 velocity=80 time=24 actual_time=42960
type=note_on channel=0 note=57 velocity=0 time=96 actual_time=43056
type=note_on channel=0 note=54 velocity=80 time=24 actual_time=43080
type=note_on channel=0 note=54 velocity=0 time=48 actual_time=43128
type=note_on channel=0 note=57 velocity=80 time=12 actual_time=43140
type=note_on channel=0 note=57 velocity=0 time=156 actual_time=43296
type=note_on channel=0 note=57 velocity=80 time=24 actual_time=43320
type=note_on channel=0 note=57 velocity=0 time=96 actual_time=43416
type=note_on channel=0 note=57 velocity=80 time=24 actual_time=43440
type=note_on channel=0 note=57 velocity=0 time=96 actual_time=43536
type=note_on channel=0 note=54 velocity=80 time=24 actual_time=43560
type=note_on channel=0 note=54 velocity=0 time=48 actual_time=43608
type=note_on channel=0 note=57 velocity=80 time=12 actual_time=43620
type=note_on channel=0 note=57 velocity=0 time=144 actual_time=43764
type=note_on channel=0 note=57 velocity=80 time=36 actual_time=43800
type=note_on channel=0 note=57 velocity=0 time=48 actual_time=43848
type=note_on channel=0 note=57 velocity=80 time=12 actual_time=43860
type=note_on channel=0 note=57 velocity=0 time=96 actual_time=43956
type=note_on channel=0 note=57 velocity=80 time=24 actual_time=43980
type=note_on channel=0 note=57 velocity=0 time=96 actual_time=44076
type=note_on channel=0 note=54 velocity=80 time=24 actual_time=44100
type=note_on channel=0 note=54 velocity=0 time=156 actual_time=44256
type=note_on channel=0 note=54 velocity=80 time=24 actual_time=44280
type=note_on channel=0 note=54 velocity=0 time=96 actual_time=44376
type=note_on channel=0 note=54 velocity=80 time=24 actual_time=44400
type=note_on channel=0 note=54 velocity=0 time=96 actual_time=44496
type=note_on channel=0 note=54 velocity=80 time=24 actual_time=44520
type=note_on channel=0 note=54 velocity=0 time=48 actual_time=44568
type=note_on channel=0 note=54 velocity=80 time=12 actual_time=44580
type=note_on channel=0 note=54 velocity=0 time=144 actual_time=44724
type=note_on channel=0 note=54 velocity=80 time=96 actual_time=44820
type=note_on channel=0 note=54 velocity=0 time=48 actual_time=44868
type=note_on channel=0 note=54 velocity=80 time=12 actual_time=44880
type=note_on channel=0 note=54 velocity=0 time=48 actual_time=44928
type=note_on channel=0 note=54 velocity=80 time=12 actual_time=44940
type=note_on channel=0 note=54 velocity=0 time=144 actual_time=45084
type=note_on channel=0 note=62 velocity=80 time=36 actual_time=45120
type=note_on channel=0 note=62 velocity=0 time=48 actual_time=45168
type=note_on channel=0 note=62 velocity=80 time=12 actual_time=45180
type=note_on channel=0 note=62 velocity=0 time=144 actual_time=45324
type=note_on channel=0 note=62 velocity=80 time=36 actual_time=45360
type=note_on channel=0 note=62 velocity=0 time=48 actual_time=45408
type=note_on channel=0 note=62 velocity=80 time=12 actual_time=45420
type=note_on channel=0 note=62 velocity=0 time=96 actual_time=45516
type=note_on channel=0 note=61 velocity=80 time=24 actual_time=45540
type=note_on channel=0 note=61 velocity=0 time=192 actual_time=45732
type=note_on channel=0 note=59 velocity=80 time=468 actual_time=46200
type=note_on channel=0 note=59 velocity=0 time=96 actual_time=46296
type=note_on channel=0 note=59 velocity=80 time=24 actual_time=46320
type=note_on channel=0 note=59 velocity=0 time=96 actual_time=46416
type=note_on channel=0 note=59 velocity=80 time=24 actual_time=46440
type=note_on channel=0 note=59 velocity=0 time=96 actual_time=46536
type=note_on channel=0 note=62 velocity=80 time=24 actual_time=46560
type=note_on channel=0 note=62 velocity=0 time=96 actual_time=46656
type=note_on channel=0 note=59 velocity=80 time=24 actual_time=46680
type=note_on channel=0 note=59 velocity=0 time=96 actual_time=46776
type=note_on channel=0 note=59 velocity=80 time=24 actual_time=46800
type=note_on channel=0 note=59 velocity=0 time=96 actual_time=46896
type=note_on channel=0 note=59 velocity=80 time=24 actual_time=46920
type=note_on channel=0 note=59 velocity=0 time=96 actual_time=47016
type=note_on channel=0 note=62 velocity=80 time=24 actual_time=47040
type=note_on channel=0 note=62 velocity=0 time=96 actual_time=47136
type=note_on channel=0 note=62 velocity=80 time=24 actual_time=47160
type=note_on channel=0 note=62 velocity=0 time=96 actual_time=47256
type=note_on channel=0 note=62 velocity=80 time=24 actual_time=47280
type=note_on channel=0 note=62 velocity=0 time=96 actual_time=47376
type=note_on channel=0 note=62 velocity=80 time=24 actual_time=47400
type=note_on channel=0 note=62 velocity=0 time=96 actual_time=47496
type=note_on channel=0 note=61 velocity=80 time=24 actual_time=47520
type=note_on channel=0 note=61 velocity=0 time=96 actual_time=47616
type=note_on channel=0 note=61 velocity=80 time=24 actual_time=47640
type=note_on channel=0 note=61 velocity=0 time=48 actual_time=47688
type=note_on channel=0 note=62 velocity=80 time=12 actual_time=47700
type=note_on channel=0 note=62 velocity=0 time=192 actual_time=47892
type=note_on channel=0 note=59 velocity=80 time=228 actual_time=48120
type=note_on channel=0 note=59 velocity=0 time=96 actual_time=48216
type=note_on channel=0 note=59 velocity=80 time=24 actual_time=48240
type=note_on channel=0 note=59 velocity=0 time=96 actual_time=48336
type=note_on channel=0 note=59 velocity=80 time=24 actual_time=48360
type=note_on channel=0 note=59 velocity=0 time=48 actual_time=48408
type=note_on channel=0 note=62 velocity=80 time=12 actual_time=48420
type=note_on channel=0 note=62 velocity=0 time=168 actual_time=48588
type=note_on channel=0 note=59 velocity=80 time=12 actual_time=48600
type=note_on channel=0 note=59 velocity=0 time=96 actual_time=48696
type=note_on channel=0 note=59 velocity=80 time=24 actual_time=48720
type=note_on channel=0 note=59 velocity=0 time=96 actual_time=48816
type=note_on channel=0 note=59 velocity=80 time=24 actual_time=48840
type=note_on channel=0 note=59 velocity=0 time=96 actual_time=48936
type=note_on channel=0 note=62 velocity=80 time=24 actual_time=48960
type=note_on channel=0 note=62 velocity=0 time=96 actual_time=49056
type=note_on channel=0 note=62 velocity=80 time=24 actual_time=49080
type=note_on channel=0 note=62 velocity=0 time=96 actual_time=49176
type=note_on channel=0 note=62 velocity=80 time=24 actual_time=49200
type=note_on channel=0 note=62 velocity=0 time=96 actual_time=49296
type=note_on channel=0 note=62 velocity=80 time=24 actual_time=49320
type=note_on channel=0 note=62 velocity=0 time=96 actual_time=49416
type=note_on channel=0 note=61 velocity=80 time=24 actual_time=49440
type=note_on channel=0 note=61 velocity=0 time=96 actual_time=49536
type=note_on channel=0 note=61 velocity=80 time=24 actual_time=49560
type=note_on channel=0 note=61 velocity=0 time=96 actual_time=49656
type=note_on channel=0 note=61 velocity=80 time=24 actual_time=49680
type=note_on channel=0 note=61 velocity=0 time=96 actual_time=49776
type=note_on channel=0 note=62 velocity=80 time=24 actual_time=49800
type=note_on channel=0 note=62 velocity=0 time=96 actual_time=49896
type=note_on channel=0 note=59 velocity=80 time=144 actual_time=50040
type=note_on channel=0 note=59 velocity=0 time=96 actual_time=50136
type=note_on channel=0 note=59 velocity=80 time=24 actual_time=50160
type=note_on channel=0 note=59 velocity=0 time=96 actual_time=50256
type=note_on channel=0 note=59 velocity=80 time=24 actual_time=50280
type=note_on channel=0 note=59 velocity=0 time=96 actual_time=50376
type=note_on channel=0 note=62 velocity=80 time=24 actual_time=50400
type=note_on channel=0 note=62 velocity=0 time=96 actual_time=50496
type=note_on channel=0 note=59 velocity=80 time=24 actual_time=50520
type=note_on channel=0 note=59 velocity=0 time=96 actual_time=50616
type=note_on channel=0 note=57 velocity=80 time=24 actual_time=50640
type=note_on channel=0 note=57 velocity=0 time=96 actual_time=50736
type=note_on channel=0 note=57 velocity=80 time=24 actual_time=50760
type=note_on channel=0 note=57 velocity=0 time=96 actual_time=50856
type=note_on channel=0 note=62 velocity=80 time=24 actual_time=50880
type=note_on channel=0 note=62 velocity=0 time=96 actual_time=50976
type=note_on channel=0 note=62 velocity=80 time=24 actual_time=51000
type=note_on channel=0 note=62 velocity=0 time=96 actual_time=51096
type=note_on channel=0 note=62 velocity=80 time=24 actual_time=51120
type=note_on channel=0 note=62 velocity=0 time=96 actual_time=51216
type=note_on channel=0 note=61 velocity=80 time=24 actual_time=51240
type=note_on channel=0 note=61 velocity=0 time=192 actual_time=51432
type=note_on channel=0 note=61 velocity=80 time=48 actual_time=51480
type=note_on channel=0 note=61 velocity=0 time=192 actual_time=51672
type=note_on channel=0 note=61 velocity=80 time=48 actual_time=51720
type=note_on channel=0 note=61 velocity=0 time=96 actual_time=51816
type=note_on channel=0 note=62 velocity=80 time=24 actual_time=51840
type=note_on channel=0 note=62 velocity=0 time=96 actual_time=51936
type=note_on channel=0 note=62 velocity=80 time=144 actual_time=52080
type=note_on channel=0 note=62 velocity=0 time=96 actual_time=52176
type=note_on channel=0 note=59 velocity=80 time=24 actual_time=52200
type=note_on channel=0 note=59 velocity=0 time=48 actual_time=52248
type=note_on channel=0 note=57 velocity=80 time=12 actual_time=52260
type=note_on channel=0 note=57 velocity=0 time=192 actual_time=52452
type=note_on channel=0 note=57 velocity=80 time=4428 actual_time=56880
type=note_on channel=0 note=57 velocity=0 time=96 actual_time=56976
type=note_on channel=0 note=57 velocity=80 time=24 actual_time=57000
type=note_on channel=0 note=57 velocity=0 time=48 actual_time=57048
type=note_on channel=0 note=57 velocity=80 time=12 actual_time=57060
type=note_on channel=0 note=57 velocity=0 time=96 actual_time=57156
type=note_on channel=0 note=57 velocity=80 time=24 actual_time=57180
type=note_on channel=0 note=57 velocity=0 time=96 actual_time=57276
type=note_on channel=0 note=57 velocity=80 time=24 actual_time=57300
type=note_on channel=0 note=57 velocity=0 time=96 actual_time=57396
type=note_on channel=0 note=57 velocity=80 time=24 actual_time=57420
type=note_on channel=0 note=57 velocity=0 time=96 actual_time=57516
type=note_on channel=0 note=57 velocity=80 time=24 actual_time=57540
type=note_on channel=0 note=57 velocity=0 time=156 actual_time=57696
type=note_on channel=0 note=59 velocity=80 time=7704 actual_time=65400
type=note_on channel=0 note=59 velocity=0 time=96 actual_time=65496
type=note_on channel=0 note=59 velocity=80 time=24 actual_time=65520
type=note_on channel=0 note=59 velocity=0 time=96 actual_time=65616
type=note_on channel=0 note=59 velocity=80 time=24 actual_time=65640
type=note_on channel=0 note=59 velocity=0 time=96 actual_time=65736
type=note_on channel=0 note=59 velocity=80 time=24 actual_time=65760
type=note_on channel=0 note=59 velocity=0 time=96 actual_time=65856
type=note_on channel=0 note=57 velocity=80 time=24 actual_time=65880
type=note_on channel=0 note=57 velocity=0 time=96 actual_time=65976
type=note_on channel=0 note=57 velocity=80 time=24 actual_time=66000
type=note_on channel=0 note=57 velocity=0 time=96 actual_time=66096
type=note_on channel=0 note=57 velocity=80 time=24 actual_time=66120
type=note_on channel=0 note=57 velocity=0 time=96 actual_time=66216
type=note_on channel=0 note=57 velocity=80 time=24 actual_time=66240
type=note_on channel=0 note=57 velocity=0 time=96 actual_time=66336
type=note_on channel=0 note=57 velocity=80 time=24 actual_time=66360
type=note_on channel=0 note=57 velocity=0 time=96 actual_time=66456
type=note_on channel=0 note=57 velocity=80 time=24 actual_time=66480
type=note_on channel=0 note=57 velocity=0 time=96 actual_time=66576
type=note_on channel=0 note=57 velocity=80 time=24 actual_time=66600
type=note_on channel=0 note=57 velocity=0 time=96 actual_time=66696
type=note_on channel=0 note=57 velocity=80 time=24 actual_time=66720
type=note_on channel=0 note=57 velocity=0 time=96 actual_time=66816
type=note_on channel=0 note=57 velocity=80 time=24 actual_time=66840
type=note_on channel=0 note=57 velocity=0 time=48 actual_time=66888
type=note_on channel=0 note=57 velocity=80 time=12 actual_time=66900
type=note_on channel=0 note=57 velocity=0 time=192 actual_time=67092
type=note_on channel=0 note=54 velocity=80 time=228 actual_time=67320
type=note_on channel=0 note=54 velocity=0 time=96 actual_time=67416
type=note_on channel=0 note=54 velocity=80 time=24 actual_time=67440
type=note_on channel=0 note=54 velocity=0 time=96 actual_time=67536
type=note_on channel=0 note=54 velocity=80 time=24 actual_time=67560
type=note_on channel=0 note=54 velocity=0 time=48 actual_time=67608
type=note_on channel=0 note=57 velocity=80 time=12 actual_time=67620
type=note_on channel=0 note=57 velocity=0 time=144 actual_time=67764
type=note_on channel=0 note=57 velocity=80 time=36 actual_time=67800
type=note_on channel=0 note=57 velocity=0 time=96 actual_time=67896
type=note_on channel=0 note=57 velocity=80 time=24 actual_time=67920
type=note_on channel=0 note=57 velocity=0 time=96 actual_time=68016
type=note_on channel=0 note=57 velocity=80 time=24 actual_time=68040
type=note_on channel=0 note=57 velocity=0 time=96 actual_time=68136
type=note_on channel=0 note=59 velocity=80 time=24 actual_time=68160
type=note_on channel=0 note=59 velocity=0 time=96 actual_time=68256
type=note_on channel=0 note=59 velocity=80 time=24 actual_time=68280
type=note_on channel=0 note=59 velocity=0 time=96 actual_time=68376
type=note_on channel=0 note=59 velocity=80 time=24 actual_time=68400
type=note_on channel=0 note=59 velocity=0 time=96 actual_time=68496
type=note_on channel=0 note=62 velocity=80 time=144 actual_time=68640
type=note_on channel=0 note=62 velocity=0 time=96 actual_time=68736
type=note_on channel=0 note=59 velocity=80 time=24 actual_time=68760
type=note_on channel=0 note=59 velocity=0 time=96 actual_time=68856
type=note_on channel=0 note=59 velocity=80 time=24 actual_time=68880
type=note_on channel=0 note=59 velocity=0 time=96 actual_time=68976
type=note_on channel=0 note=59 velocity=80 time=24 actual_time=69000
type=note_on channel=0 note=57 velocity=80 time=120 actual_time=69120
type=note_on channel=0 note=59 velocity=0 time=24 actual_time=69144
type=note_on channel=0 note=57 velocity=0 time=72 actual_time=69216
type=note_on channel=0 note=57 velocity=80 time=24 actual_time=69240
type=note_on channel=0 note=57 velocity=0 time=96 actual_time=69336
type=note_on channel=0 note=57 velocity=80 time=24 actual_time=69360
type=note_on channel=0 note=57 velocity=0 time=96 actual_time=69456
type=note_on channel=0 note=57 velocity=80 time=24 actual_time=69480
type=note_on channel=0 note=57 velocity=0 time=96 actual_time=69576
type=note_on channel=0 note=57 velocity=80 time=24 actual_time=69600
type=note_on channel=0 note=57 velocity=0 time=96 actual_time=69696
type=note_on channel=0 note=57 velocity=80 time=24 actual_time=69720
type=note_on channel=0 note=57 velocity=0 time=96 actual_time=69816
type=note_on channel=0 note=57 velocity=80 time=24 actual_time=69840
type=note_on channel=0 note=57 velocity=0 time=96 actual_time=69936
type=note_on channel=0 note=57 velocity=80 time=24 actual_time=69960
type=note_on channel=0 note=57 velocity=0 time=96 actual_time=70056
type=note_on channel=0 note=57 velocity=80 time=24 actual_time=70080
type=note_on channel=0 note=57 velocity=0 time=96 actual_time=70176
type=note_on channel=0 note=57 velocity=80 time=24 actual_time=70200
type=note_on channel=0 note=57 velocity=0 time=96 actual_time=70296
type=note_on channel=0 note=57 velocity=80 time=24 actual_time=70320
type=note_on channel=0 note=57 velocity=0 time=96 actual_time=70416
type=note_on channel=0 note=57 velocity=80 time=24 actual_time=70440
type=note_on channel=0 note=57 velocity=0 time=192 actual_time=70632
type=note_on channel=0 note=57 velocity=80 time=48 actual_time=70680
type=note_on channel=0 note=57 velocity=0 time=192 actual_time=70872
type=note_on channel=0 note=59 velocity=80 time=48 actual_time=70920
type=note_on channel=0 note=59 velocity=0 time=216 actual_time=71136
type=note_on channel=0 note=62 velocity=80 time=144 actual_time=71280
type=note_on channel=0 note=62 velocity=0 time=96 actual_time=71376
type=note_on channel=0 note=59 velocity=80 time=24 actual_time=71400
type=note_on channel=0 note=59 velocity=0 time=48 actual_time=71448
type=note_on channel=0 note=62 velocity=80 time=12 actual_time=71460
type=note_on channel=0 note=62 velocity=0 time=384 actual_time=71844
type=note_on channel=0 note=66 velocity=80 time=156 actual_time=72000
type=note_on channel=0 note=66 velocity=0 time=768 actual_time=72768
type=note_on channel=0 note=59 velocity=80 time=312 actual_time=73080
type=note_on channel=0 note=59 velocity=0 time=96 actual_time=73176
type=note_on channel=0 note=59 velocity=80 time=24 actual_time=73200
type=note_on channel=0 note=59 velocity=0 time=96 actual_time=73296
type=note_on channel=0 note=59 velocity=80 time=24 actual_time=73320
type=note_on channel=0 note=59 velocity=0 time=96 actual_time=73416
type=note_on channel=0 note=62 velocity=80 time=24 actual_time=73440
type=note_on channel=0 note=62 velocity=0 time=96 actual_time=73536
type=note_on channel=0 note=59 velocity=80 time=24 actual_time=73560
type=note_on channel=0 note=59 velocity=0 time=96 actual_time=73656
type=note_on channel=0 note=59 velocity=80 time=24 actual_time=73680
type=note_on channel=0 note=59 velocity=0 time=96 actual_time=73776
type=note_on channel=0 note=59 velocity=80 time=24 actual_time=73800
type=note_on channel=0 note=59 velocity=0 time=96 actual_time=73896
type=note_on channel=0 note=62 velocity=80 time=24 actual_time=73920
type=note_on channel=0 note=62 velocity=0 time=96 actual_time=74016
type=note_on channel=0 note=62 velocity=80 time=24 actual_time=74040
type=note_on channel=0 note=62 velocity=0 time=96 actual_time=74136
type=note_on channel=0 note=62 velocity=80 time=24 actual_time=74160
type=note_on channel=0 note=62 velocity=0 time=96 actual_time=74256
type=note_on channel=0 note=62 velocity=80 time=24 actual_time=74280
type=note_on channel=0 note=62 velocity=0 time=96 actual_time=74376
type=note_on channel=0 note=61 velocity=80 time=24 actual_time=74400
type=note_on channel=0 note=61 velocity=0 time=96 actual_time=74496
type=note_on channel=0 note=61 velocity=80 time=24 actual_time=74520
type=note_on channel=0 note=61 velocity=0 time=48 actual_time=74568
type=note_on channel=0 note=62 velocity=80 time=12 actual_time=74580
type=note_on channel=0 note=62 velocity=0 time=192 actual_time=74772
type=note_on channel=0 note=59 velocity=80 time=228 actual_time=75000
type=note_on channel=0 note=59 velocity=0 time=96 actual_time=75096
type=note_on channel=0 note=59 velocity=80 time=24 actual_time=75120
type=note_on channel=0 note=59 velocity=0 time=96 actual_time=75216
type=note_on channel=0 note=59 velocity=80 time=24 actual_time=75240
type=note_on channel=0 note=59 velocity=0 time=48 actual_time=75288
type=note_on channel=0 note=62 velocity=80 time=12 actual_time=75300
type=note_on channel=0 note=62 velocity=0 time=168 actual_time=75468
type=note_on channel=0 note=59 velocity=80 time=12 actual_time=75480
type=note_on channel=0 note=59 velocity=0 time=96 actual_time=75576
type=note_on channel=0 note=59 velocity=80 time=24 actual_time=75600
type=note_on channel=0 note=59 velocity=0 time=96 actual_time=75696
type=note_on channel=0 note=59 velocity=80 time=24 actual_time=75720
type=note_on channel=0 note=59 velocity=0 time=96 actual_time=75816
type=note_on channel=0 note=62 velocity=80 time=24 actual_time=75840
type=note_on channel=0 note=62 velocity=0 time=96 actual_time=75936
type=note_on channel=0 note=62 velocity=80 time=24 actual_time=75960
type=note_on channel=0 note=62 velocity=0 time=96 actual_time=76056
type=note_on channel=0 note=62 velocity=80 time=24 actual_time=76080
type=note_on channel=0 note=62 velocity=0 time=96 actual_time=76176
type=note_on channel=0 note=62 velocity=80 time=24 actual_time=76200
type=note_on channel=0 note=62 velocity=0 time=96 actual_time=76296
type=note_on channel=0 note=61 velocity=80 time=24 actual_time=76320
type=note_on channel=0 note=61 velocity=0 time=96 actual_time=76416
type=note_on channel=0 note=61 velocity=80 time=24 actual_time=76440
type=note_on channel=0 note=61 velocity=0 time=96 actual_time=76536
type=note_on channel=0 note=61 velocity=80 time=24 actual_time=76560
type=note_on channel=0 note=61 velocity=0 time=96 actual_time=76656
type=note_on channel=0 note=62 velocity=80 time=24 actual_time=76680
type=note_on channel=0 note=62 velocity=0 time=96 actual_time=76776
type=note_on channel=0 note=59 velocity=80 time=144 actual_time=76920
type=note_on channel=0 note=59 velocity=0 time=96 actual_time=77016
type=note_on channel=0 note=59 velocity=80 time=24 actual_time=77040
type=note_on channel=0 note=59 velocity=0 time=96 actual_time=77136
type=note_on channel=0 note=59 velocity=80 time=24 actual_time=77160
type=note_on channel=0 note=59 velocity=0 time=96 actual_time=77256
type=note_on channel=0 note=62 velocity=80 time=24 actual_time=77280
type=note_on channel=0 note=62 velocity=0 time=96 actual_time=77376
type=note_on channel=0 note=59 velocity=80 time=24 actual_time=77400
type=note_on channel=0 note=59 velocity=0 time=96 actual_time=77496
type=note_on channel=0 note=57 velocity=80 time=24 actual_time=77520
type=note_on channel=0 note=57 velocity=0 time=96 actual_time=77616
type=note_on channel=0 note=57 velocity=80 time=24 actual_time=77640
type=note_on channel=0 note=57 velocity=0 time=96 actual_time=77736
type=note_on channel=0 note=62 velocity=80 time=24 actual_time=77760
type=note_on channel=0 note=62 velocity=0 time=96 actual_time=77856
type=note_on channel=0 note=62 velocity=80 time=24 actual_time=77880
type=note_on channel=0 note=62 velocity=0 time=96 actual_time=77976
type=note_on channel=0 note=62 velocity=80 time=24 actual_time=78000
type=note_on channel=0 note=62 velocity=0 time=96 actual_time=78096
type=note_on channel=0 note=61 velocity=80 time=24 actual_time=78120
type=note_on channel=0 note=61 velocity=0 time=192 actual_time=78312
type=note_on channel=0 note=61 velocity=80 time=48 actual_time=78360
type=note_on channel=0 note=61 velocity=0 time=192 actual_time=78552
type=note_on channel=0 note=61 velocity=80 time=48 actual_time=78600
type=note_on channel=0 note=61 velocity=0 time=96 actual_time=78696
type=note_on channel=0 note=62 velocity=80 time=24 actual_time=78720
type=note_on channel=0 note=62 velocity=0 time=96 actual_time=78816
type=note_on channel=0 note=62 velocity=80 time=144 actual_time=78960
type=note_on channel=0 note=62 velocity=0 time=96 actual_time=79056
type=note_on channel=0 note=59 velocity=80 time=24 actual_time=79080
type=note_on channel=0 note=59 velocity=0 time=48 actual_time=79128
type=note_on channel=0 note=57 velocity=80 time=12 actual_time=79140
type=note_on channel=0 note=57 velocity=0 time=192 actual_time=79332
type=note_on channel=0 note=59 velocity=80 time=2748 actual_time=82080
type=note_on channel=0 note=59 velocity=0 time=96 actual_time=82176
type=note_on channel=0 note=57 velocity=80 time=24 actual_time=82200
type=note_on channel=0 note=57 velocity=0 time=96 actual_time=82296
type=note_on channel=0 note=57 velocity=80 time=24 actual_time=82320
type=note_on channel=0 note=57 velocity=0 time=96 actual_time=82416
type=note_on channel=0 note=59 velocity=80 time=24 actual_time=82440
type=note_on channel=0 note=59 velocity=0 time=96 actual_time=82536
type=note_on channel=0 note=59 velocity=80 time=24 actual_time=82560
type=note_on channel=0 note=59 velocity=0 time=768 actual_time=83328
type=note_on channel=0 note=59 velocity=80 time=672 actual_time=84000
type=note_on channel=0 note=59 velocity=0 time=96 actual_time=84096
type=note_on channel=0 note=57 velocity=80 time=24 actual_time=84120
type=note_on channel=0 note=57 velocity=0 time=96 actual_time=84216
type=note_on channel=0 note=57 velocity=80 time=24 actual_time=84240
type=note_on channel=0 note=57 velocity=0 time=96 actual_time=84336
type=note_on channel=0 note=59 velocity=80 time=24 actual_time=84360
type=note_on channel=0 note=59 velocity=0 time=96 actual_time=84456
type=note_on channel=0 note=59 velocity=80 time=24 actual_time=84480
type=note_on channel=0 note=59 velocity=0 time=768 actual_time=85248
type=note_on channel=0 note=59 velocity=80 time=672 actual_time=85920
type=note_on channel=0 note=59 velocity=0 time=96 actual_time=86016
type=note_on channel=0 note=57 velocity=80 time=24 actual_time=86040
type=note_on channel=0 note=57 velocity=0 time=96 actual_time=86136
type=note_on channel=0 note=57 velocity=80 time=24 actual_time=86160
type=note_on channel=0 note=57 velocity=0 time=96 actual_time=86256
type=note_on channel=0 note=59 velocity=80 time=24 actual_time=86280
type=note_on channel=0 note=59 velocity=0 time=96 actual_time=86376
type=note_on channel=0 note=59 velocity=80 time=24 actual_time=86400
type=note_on channel=0 note=59 velocity=0 time=1728 actual_time=88128
MetaMessage type: end_of_track, time: 0, actual_time: 88128
type: pitchwheel, time: 0, actual_time: 0
type=control_change channel=0 control=7 value=87 time=0 actual_time=0
type=control_change channel=0 control=10 value=63 time=0 actual_time=0
type=control_change channel=0 control=93 value=0 time=0 actual_time=0
type=control_change channel=0 control=91 value=0 time=0 actual_time=0
type=control_change channel=0 control=95 value=0 time=0 actual_time=0
type=control_change channel=0 control=92 value=0 time=0 actual_time=0
type=control_change channel=0 control=11 value=127 time=0 actual_time=0
type: program_change, time: 0, actual_time: 0
type=control_change channel=1 control=7 value=87 time=0 actual_time=0
type=control_change channel=1 control=10 value=63 time=0 actual_time=0
type=control_change channel=1 control=93 value=0 time=0 actual_time=0
type=control_change channel=1 control=91 value=0 time=0 actual_time=0
type=control_change channel=1 control=95 value=0 time=0 actual_time=0
type=control_change channel=1 control=92 value=0 time=0 actual_time=0
type=control_change channel=1 control=11 value=127 time=0 actual_time=0
type: program_change, time: 0, actual_time: 0
type=control_change channel=1 control=11 value=31 time=24000 actual_time=24000
type=note_on channel=1 note=52 velocity=95 time=0 actual_time=24000
type=control_change channel=1 control=11 value=32 time=60 actual_time=24060
type=control_change channel=1 control=11 value=33 time=60 actual_time=24120
type=control_change channel=1 control=11 value=34 time=60 actual_time=24180
type=control_change channel=1 control=11 value=35 time=60 actual_time=24240
type=control_change channel=1 control=11 value=36 time=60 actual_time=24300
type=control_change channel=1 control=11 value=37 time=60 actual_time=24360
type=control_change channel=1 control=11 value=38 time=60 actual_time=24420
type=control_change channel=1 control=11 value=39 time=60 actual_time=24480
type=control_change channel=1 control=11 value=40 time=60 actual_time=24540
type=control_change channel=1 control=11 value=41 time=60 actual_time=24600
type=control_change channel=1 control=11 value=42 time=60 actual_time=24660
type=control_change channel=1 control=11 value=43 time=60 actual_time=24720
type=control_change channel=1 control=11 value=44 time=60 actual_time=24780
type=control_change channel=1 control=11 value=45 time=60 actual_time=24840
type=control_change channel=1 control=11 value=46 time=60 actual_time=24900
type=control_change channel=1 control=11 value=47 time=60 actual_time=24960
type=control_change channel=1 control=11 value=48 time=60 actual_time=25020
type=control_change channel=1 control=11 value=49 time=60 actual_time=25080
type=control_change channel=1 control=11 value=50 time=60 actual_time=25140
type=control_change channel=1 control=11 value=51 time=60 actual_time=25200
type=control_change channel=1 control=11 value=52 time=60 actual_time=25260
type=control_change channel=1 control=11 value=53 time=60 actual_time=25320
type=control_change channel=1 control=11 value=54 time=60 actual_time=25380
type=control_change channel=1 control=11 value=55 time=60 actual_time=25440
type=control_change channel=1 control=11 value=56 time=60 actual_time=25500
type=control_change channel=1 control=11 value=57 time=60 actual_time=25560
type=control_change channel=1 control=11 value=58 time=60 actual_time=25620
type=control_change channel=1 control=11 value=59 time=60 actual_time=25680
type=control_change channel=1 control=11 value=60 time=60 actual_time=25740
type=control_change channel=1 control=11 value=61 time=60 actual_time=25800
type=control_change channel=1 control=11 value=62 time=60 actual_time=25860
type=control_change channel=1 control=11 value=63 time=60 actual_time=25920
type=control_change channel=1 control=11 value=64 time=60 actual_time=25980
type=control_change channel=1 control=11 value=65 time=60 actual_time=26040
type=control_change channel=1 control=11 value=66 time=60 actual_time=26100
type=control_change channel=1 control=11 value=67 time=60 actual_time=26160
type=control_change channel=1 control=11 value=68 time=60 actual_time=26220
type=control_change channel=1 control=11 value=69 time=60 actual_time=26280
type=control_change channel=1 control=11 value=70 time=60 actual_time=26340
type=control_change channel=1 control=11 value=71 time=60 actual_time=26400
type=control_change channel=1 control=11 value=72 time=60 actual_time=26460
type=control_change channel=1 control=11 value=73 time=60 actual_time=26520
type=control_change channel=1 control=11 value=74 time=60 actual_time=26580
type=control_change channel=1 control=11 value=75 time=60 actual_time=26640
type=control_change channel=1 control=11 value=76 time=60 actual_time=26700
type=control_change channel=1 control=11 value=77 time=60 actual_time=26760
type=control_change channel=1 control=11 value=78 time=60 actual_time=26820
type=control_change channel=1 control=11 value=79 time=60 actual_time=26880
type=control_change channel=1 control=11 value=80 time=60 actual_time=26940
type=control_change channel=1 control=11 value=81 time=60 actual_time=27000
type=control_change channel=1 control=11 value=82 time=60 actual_time=27060
type=control_change channel=1 control=11 value=83 time=60 actual_time=27120
type=control_change channel=1 control=11 value=84 time=60 actual_time=27180
type=control_change channel=1 control=11 value=85 time=60 actual_time=27240
type=control_change channel=1 control=11 value=86 time=60 actual_time=27300
type=control_change channel=1 control=11 value=87 time=60 actual_time=27360
type=control_change channel=1 control=11 value=88 time=60 actual_time=27420
type=control_change channel=1 control=11 value=89 time=60 actual_time=27480
type=control_change channel=1 control=11 value=90 time=60 actual_time=27540
type=control_change channel=1 control=11 value=91 time=60 actual_time=27600
type=control_change channel=1 control=11 value=92 time=60 actual_time=27660
type=control_change channel=1 control=11 value=93 time=60 actual_time=27720
type=control_change channel=1 control=11 value=94 time=60 actual_time=27780
type=control_change channel=1 control=11 value=95 time=60 actual_time=27840
type=control_change channel=1 control=11 value=96 time=60 actual_time=27900
type=control_change channel=1 control=11 value=97 time=60 actual_time=27960
type=control_change channel=1 control=11 value=98 time=60 actual_time=28020
type=control_change channel=1 control=11 value=99 time=60 actual_time=28080
type=control_change channel=1 control=11 value=100 time=60 actual_time=28140
type=control_change channel=1 control=11 value=101 time=60 actual_time=28200
type=control_change channel=1 control=11 value=102 time=60 actual_time=28260
type=control_change channel=1 control=11 value=103 time=60 actual_time=28320
type=control_change channel=1 control=11 value=104 time=60 actual_time=28380
type=control_change channel=1 control=11 value=105 time=60 actual_time=28440
type=control_change channel=1 control=11 value=106 time=60 actual_time=28500
type=control_change channel=1 control=11 value=107 time=60 actual_time=28560
type=control_change channel=1 control=11 value=108 time=60 actual_time=28620
type=control_change channel=1 control=11 value=109 time=60 actual_time=28680
type=control_change channel=1 control=11 value=110 time=60 actual_time=28740
type=control_change channel=1 control=11 value=111 time=60 actual_time=28800
type=control_change channel=1 control=11 value=112 time=60 actual_time=28860
type=control_change channel=1 control=11 value=113 time=60 actual_time=28920
type=control_change channel=1 control=11 value=114 time=60 actual_time=28980
type=control_change channel=1 control=11 value=115 time=60 actual_time=29040
type=control_change channel=1 control=11 value=116 time=60 actual_time=29100
type=control_change channel=1 control=11 value=117 time=60 actual_time=29160
type=control_change channel=1 control=11 value=118 time=60 actual_time=29220
type=control_change channel=1 control=11 value=119 time=60 actual_time=29280
type=control_change channel=1 control=11 value=120 time=60 actual_time=29340
type=control_change channel=1 control=11 value=121 time=60 actual_time=29400
type=control_change channel=1 control=11 value=122 time=60 actual_time=29460
type=control_change channel=1 control=11 value=123 time=60 actual_time=29520
type=control_change channel=1 control=11 value=124 time=60 actual_time=29580
type=control_change channel=1 control=11 value=125 time=60 actual_time=29640
type=control_change channel=1 control=11 value=126 time=60 actual_time=29700
type=control_change channel=1 control=11 value=127 time=60 actual_time=29760
type: note_off, time: 0, actual_time: 29760
type=note_on channel=1 note=62 velocity=95 time=0 actual_time=29760
type: note_off, time: 960, actual_time: 30720
type=note_on channel=0 note=50 velocity=95 time=0 actual_time=30720
type: note_off, time: 240, actual_time: 30960
type=note_on channel=0 note=52 velocity=70 time=0 actual_time=30960
type: note_off, time: 240, actual_time: 31200
type=note_on channel=0 note=40 velocity=95 time=0 actual_time=31200
type: note_off, time: 240, actual_time: 31440
type=note_on channel=0 note=40 velocity=95 time=0 actual_time=31440
type: note_off, time: 240, actual_time: 31680
type=note_on channel=0 note=40 velocity=95 time=0 actual_time=31680
type: note_off, time: 240, actual_time: 31920
type=note_on channel=0 note=40 velocity=95 time=0 actual_time=31920
type: note_off, time: 240, actual_time: 32160
type=note_on channel=0 note=40 velocity=95 time=0 actual_time=32160
type: note_off, time: 240, actual_time: 32400
type=note_on channel=0 note=48 velocity=95 time=0 actual_time=32400
type: note_off, time: 240, actual_time: 32640
type=note_on channel=0 note=40 velocity=95 time=0 actual_time=32640
type: note_off, time: 240, actual_time: 32880
type=note_on channel=0 note=47 velocity=95 time=0 actual_time=32880
type: note_off, time: 240, actual_time: 33120
type=note_on channel=0 note=40 velocity=95 time=0 actual_time=33120
type: note_off, time: 240, actual_time: 33360
type=note_on channel=0 note=40 velocity=95 time=0 actual_time=33360
type: note_off, time: 240, actual_time: 33600
type=note_on channel=0 note=47 velocity=95 time=0 actual_time=33600
type: note_off, time: 240, actual_time: 33840
type=note_on channel=0 note=40 velocity=95 time=0 actual_time=33840
type: note_off, time: 240, actual_time: 34080
type=note_on channel=0 note=48 velocity=95 time=0 actual_time=34080
type: note_off, time: 240, actual_time: 34320
type=note_on channel=0 note=40 velocity=95 time=0 actual_time=34320
type: note_off, time: 240, actual_time: 34560
type=note_on channel=0 note=50 velocity=95 time=0 actual_time=34560
type: note_off, time: 240, actual_time: 34800
type=note_on channel=0 note=52 velocity=70 time=0 actual_time=34800
type: note_off, time: 240, actual_time: 35040
type=note_on channel=0 note=40 velocity=95 time=0 actual_time=35040
type: note_off, time: 240, actual_time: 35280
type=note_on channel=0 note=40 velocity=95 time=0 actual_time=35280
type: note_off, time: 240, actual_time: 35520
type=note_on channel=0 note=40 velocity=95 time=0 actual_time=35520
type: note_off, time: 240, actual_time: 35760
type=note_on channel=0 note=40 velocity=95 time=0 actual_time=35760
type: note_off, time: 240, actual_time: 36000
type=note_on channel=0 note=40 velocity=95 time=0 actual_time=36000
type: note_off, time: 240, actual_time: 36240
type=note_on channel=0 note=48 velocity=95 time=0 actual_time=36240
type: note_off, time: 240, actual_time: 36480
type=note_on channel=0 note=40 velocity=95 time=0 actual_time=36480
type: note_off, time: 240, actual_time: 36720
type=note_on channel=0 note=47 velocity=95 time=0 actual_time=36720
type: note_off, time: 240, actual_time: 36960
type=note_on channel=0 note=40 velocity=95 time=0 actual_time=36960
type: note_off, time: 240, actual_time: 37200
type=note_on channel=0 note=40 velocity=95 time=0 actual_time=37200
type: note_off, time: 240, actual_time: 37440
type=note_on channel=0 note=47 velocity=95 time=0 actual_time=37440
type: note_off, time: 240, actual_time: 37680
type=note_on channel=0 note=48 velocity=70 time=0 actual_time=37680
type: note_off, time: 240, actual_time: 37920
type=note_on channel=0 note=47 velocity=70 time=0 actual_time=37920
type: note_off, time: 240, actual_time: 38160
type=note_on channel=0 note=45 velocity=70 time=0 actual_time=38160
type: note_off, time: 240, actual_time: 38400
type=note_on channel=0 note=50 velocity=95 time=0 actual_time=38400
type: note_off, time: 240, actual_time: 38640
type=note_on channel=0 note=52 velocity=70 time=0 actual_time=38640
type: note_off, time: 240, actual_time: 38880
type=note_on channel=0 note=40 velocity=95 time=0 actual_time=38880
type: note_off, time: 240, actual_time: 39120
type=note_on channel=0 note=40 velocity=95 time=0 actual_time=39120
type: note_off, time: 240, actual_time: 39360
type=note_on channel=0 note=40 velocity=95 time=0 actual_time=39360
type: note_off, time: 240, actual_time: 39600
type=note_on channel=0 note=40 velocity=95 time=0 actual_time=39600
type: note_off, time: 240, actual_time: 39840
type=note_on channel=0 note=40 velocity=95 time=0 actual_time=39840
type: note_off, time: 240, actual_time: 40080
type=note_on channel=0 note=48 velocity=95 time=0 actual_time=40080
type: note_off, time: 240, actual_time: 40320
type=note_on channel=0 note=40 velocity=95 time=0 actual_time=40320
type: note_off, time: 240, actual_time: 40560
type=note_on channel=0 note=47 velocity=95 time=0 actual_time=40560
type: note_off, time: 240, actual_time: 40800
type=note_on channel=0 note=40 velocity=95 time=0 actual_time=40800
type: note_off, time: 240, actual_time: 41040
type=note_on channel=0 note=40 velocity=95 time=0 actual_time=41040
type: note_off, time: 240, actual_time: 41280
type=note_on channel=0 note=47 velocity=95 time=0 actual_time=41280
type: note_off, time: 240, actual_time: 41520
type=note_on channel=0 note=40 velocity=95 time=0 actual_time=41520
type: note_off, time: 240, actual_time: 41760
type=note_on channel=0 note=48 velocity=95 time=0 actual_time=41760
type: note_off, time: 240, actual_time: 42000
type=note_on channel=0 note=40 velocity=95 time=0 actual_time=42000
type: note_off, time: 240, actual_time: 42240
type=note_on channel=0 note=50 velocity=95 time=0 actual_time=42240
type: note_off, time: 240, actual_time: 42480
type=note_on channel=0 note=52 velocity=70 time=0 actual_time=42480
type: note_off, time: 240, actual_time: 42720
type=note_on channel=0 note=40 velocity=95 time=0 actual_time=42720
type: note_off, time: 240, actual_time: 42960
type=note_on channel=0 note=40 velocity=95 time=0 actual_time=42960
type: note_off, time: 240, actual_time: 43200
type=note_on channel=0 note=40 velocity=95 time=0 actual_time=43200
type: note_off, time: 240, actual_time: 43440
type=note_on channel=0 note=40 velocity=95 time=0 actual_time=43440
type: note_off, time: 240, actual_time: 43680
type=note_on channel=0 note=40 velocity=95 time=0 actual_time=43680
type: note_off, time: 240, actual_time: 43920
type=note_on channel=0 note=48 velocity=95 time=0 actual_time=43920
type: note_off, time: 240, actual_time: 44160
type=note_on channel=0 note=40 velocity=95 time=0 actual_time=44160
type: note_off, time: 240, actual_time: 44400
type=note_on channel=0 note=47 velocity=95 time=0 actual_time=44400
type: note_off, time: 240, actual_time: 44640
type=note_on channel=0 note=40 velocity=95 time=0 actual_time=44640
type: note_off, time: 240, actual_time: 44880
type=note_on channel=0 note=40 velocity=95 time=0 actual_time=44880
type: note_off, time: 240, actual_time: 45120
type=note_on channel=0 note=47 velocity=95 time=0 actual_time=45120
type: note_off, time: 240, actual_time: 45360
type=note_on channel=0 note=48 velocity=70 time=0 actual_time=45360
type: note_off, time: 240, actual_time: 45600
type=note_on channel=0 note=47 velocity=70 time=0 actual_time=45600
type: note_off, time: 240, actual_time: 45840
type=note_on channel=0 note=45 velocity=70 time=0 actual_time=45840
type: note_off, time: 240, actual_time: 46080
type=note_on channel=0 note=50 velocity=95 time=0 actual_time=46080
type: note_off, time: 240, actual_time: 46320
type=note_on channel=0 note=52 velocity=70 time=0 actual_time=46320
type: note_off, time: 240, actual_time: 46560
type=note_on channel=0 note=40 velocity=95 time=0 actual_time=46560
type: note_off, time: 240, actual_time: 46800
type=note_on channel=0 note=40 velocity=95 time=0 actual_time=46800
type: note_off, time: 240, actual_time: 47040
type=note_on channel=0 note=40 velocity=95 time=0 actual_time=47040
type: note_off, time: 240, actual_time: 47280
type=note_on channel=0 note=40 velocity=95 time=0 actual_time=47280
type: note_off, time: 240, actual_time: 47520
type=note_on channel=0 note=40 velocity=95 time=0 actual_time=47520
type: note_off, time: 240, actual_time: 47760
type=note_on channel=0 note=48 velocity=95 time=0 actual_time=47760
type: note_off, time: 240, actual_time: 48000
type=note_on channel=0 note=40 velocity=95 time=0 actual_time=48000
type: note_off, time: 240, actual_time: 48240
type=note_on channel=0 note=47 velocity=95 time=0 actual_time=48240
type: note_off, time: 240, actual_time: 48480
type=note_on channel=0 note=40 velocity=95 time=0 actual_time=48480
type: note_off, time: 240, actual_time: 48720
type=note_on channel=0 note=40 velocity=95 time=0 actual_time=48720
type: note_off, time: 240, actual_time: 48960
type=note_on channel=0 note=47 velocity=95 time=0 actual_time=48960
type: note_off, time: 240, actual_time: 49200
type=note_on channel=0 note=40 velocity=95 time=0 actual_time=49200
type: note_off, time: 240, actual_time: 49440
type=note_on channel=0 note=48 velocity=95 time=0 actual_time=49440
type: note_off, time: 240, actual_time: 49680
type=note_on channel=0 note=40 velocity=95 time=0 actual_time=49680
type: note_off, time: 240, actual_time: 49920
type=note_on channel=0 note=50 velocity=95 time=0 actual_time=49920
type: note_off, time: 240, actual_time: 50160
type=note_on channel=0 note=52 velocity=70 time=0 actual_time=50160
type: note_off, time: 240, actual_time: 50400
type=note_on channel=0 note=40 velocity=95 time=0 actual_time=50400
type: note_off, time: 240, actual_time: 50640
type=note_on channel=0 note=40 velocity=95 time=0 actual_time=50640
type: note_off, time: 240, actual_time: 50880
type=note_on channel=0 note=40 velocity=95 time=0 actual_time=50880
type: note_off, time: 240, actual_time: 51120
type=note_on channel=0 note=40 velocity=95 time=0 actual_time=51120
type: note_off, time: 240, actual_time: 51360
type=note_on channel=0 note=40 velocity=95 time=0 actual_time=51360
type: note_off, time: 240, actual_time: 51600
type=note_on channel=0 note=48 velocity=95 time=0 actual_time=51600
type: note_off, time: 240, actual_time: 51840
type=note_on channel=0 note=40 velocity=95 time=0 actual_time=51840
type: note_off, time: 240, actual_time: 52080
type=note_on channel=0 note=47 velocity=95 time=0 actual_time=52080
type: note_off, time: 240, actual_time: 52320
type=note_on channel=0 note=40 velocity=95 time=0 actual_time=52320
type: note_off, time: 240, actual_time: 52560
type=note_on channel=0 note=40 velocity=95 time=0 actual_time=52560
type: note_off, time: 240, actual_time: 52800
type=note_on channel=0 note=47 velocity=95 time=0 actual_time=52800
type: note_off, time: 240, actual_time: 53040
type=note_on channel=0 note=48 velocity=70 time=0 actual_time=53040
type: note_off, time: 240, actual_time: 53280
type=note_on channel=0 note=47 velocity=70 time=0 actual_time=53280
type: note_off, time: 240, actual_time: 53520
type=note_on channel=0 note=45 velocity=70 time=0 actual_time=53520
type: note_off, time: 240, actual_time: 53760
type=note_on channel=0 note=50 velocity=95 time=0 actual_time=53760
type: note_off, time: 240, actual_time: 54000
type=note_on channel=0 note=52 velocity=70 time=0 actual_time=54000
type: note_off, time: 240, actual_time: 54240
type=note_on channel=0 note=40 velocity=95 time=0 actual_time=54240
type: note_off, time: 240, actual_time: 54480
type=note_on channel=0 note=40 velocity=95 time=0 actual_time=54480
type: note_off, time: 240, actual_time: 54720
type=note_on channel=0 note=40 velocity=95 time=0 actual_time=54720
type: note_off, time: 240, actual_time: 54960
type=note_on channel=0 note=40 velocity=95 time=0 actual_time=54960
type: note_off, time: 240, actual_time: 55200
type=note_on channel=0 note=40 velocity=95 time=0 actual_time=55200
type: note_off, time: 240, actual_time: 55440
type=note_on channel=0 note=48 velocity=95 time=0 actual_time=55440
type: note_off, time: 240, actual_time: 55680
type=note_on channel=0 note=40 velocity=95 time=0 actual_time=55680
type: note_off, time: 240, actual_time: 55920
type=note_on channel=0 note=47 velocity=95 time=0 actual_time=55920
type: note_off, time: 240, actual_time: 56160
type=note_on channel=0 note=40 velocity=95 time=0 actual_time=56160
type: note_off, time: 240, actual_time: 56400
type=note_on channel=0 note=40 velocity=95 time=0 actual_time=56400
type: note_off, time: 240, actual_time: 56640
type=note_on channel=0 note=47 velocity=95 time=0 actual_time=56640
type: note_off, time: 240, actual_time: 56880
type=note_on channel=0 note=40 velocity=95 time=0 actual_time=56880
type: note_off, time: 240, actual_time: 57120
type=note_on channel=0 note=48 velocity=95 time=0 actual_time=57120
type: note_off, time: 240, actual_time: 57360
type=note_on channel=0 note=40 velocity=95 time=0 actual_time=57360
type: note_off, time: 240, actual_time: 57600
type=note_on channel=0 note=50 velocity=95 time=0 actual_time=57600
type: note_off, time: 240, actual_time: 57840
type=note_on channel=0 note=52 velocity=70 time=0 actual_time=57840
type: note_off, time: 240, actual_time: 58080
type=note_on channel=0 note=40 velocity=95 time=0 actual_time=58080
type: note_off, time: 240, actual_time: 58320
type=note_on channel=0 note=40 velocity=95 time=0 actual_time=58320
type: note_off, time: 240, actual_time: 58560
type=note_on channel=0 note=40 velocity=95 time=0 actual_time=58560
type: note_off, time: 240, actual_time: 58800
type=note_on channel=0 note=40 velocity=95 time=0 actual_time=58800
type: note_off, time: 240, actual_time: 59040
type=note_on channel=0 note=40 velocity=95 time=0 actual_time=59040
type: note_off, time: 240, actual_time: 59280
type=note_on channel=0 note=48 velocity=95 time=0 actual_time=59280
type: note_off, time: 240, actual_time: 59520
type=note_on channel=0 note=40 velocity=95 time=0 actual_time=59520
type: note_off, time: 240, actual_time: 59760
type=note_on channel=0 note=47 velocity=95 time=0 actual_time=59760
type: note_off, time: 240, actual_time: 60000
type=note_on channel=0 note=40 velocity=95 time=0 actual_time=60000
type: note_off, time: 240, actual_time: 60240
type=note_on channel=0 note=40 velocity=95 time=0 actual_time=60240
type: note_off, time: 240, actual_time: 60480
type=note_on channel=0 note=47 velocity=95 time=0 actual_time=60480
type: note_off, time: 240, actual_time: 60720
type=note_on channel=0 note=48 velocity=70 time=0 actual_time=60720
type: note_off, time: 240, actual_time: 60960
type=note_on channel=0 note=47 velocity=70 time=0 actual_time=60960
type: note_off, time: 240, actual_time: 61200
type=note_on channel=0 note=45 velocity=70 time=0 actual_time=61200
type: note_off, time: 240, actual_time: 61440
type=note_on channel=0 note=50 velocity=95 time=0 actual_time=61440
type: note_off, time: 240, actual_time: 61680
type=note_on channel=0 note=52 velocity=70 time=0 actual_time=61680
type: note_off, time: 240, actual_time: 61920
type=note_on channel=0 note=40 velocity=95 time=0 actual_time=61920
type: note_off, time: 240, actual_time: 62160
type=note_on channel=0 note=40 velocity=95 time=0 actual_time=62160
type: note_off, time: 240, actual_time: 62400
type=note_on channel=0 note=40 velocity=95 time=0 actual_time=62400
type: note_off, time: 240, actual_time: 62640
type=note_on channel=0 note=40 velocity=95 time=0 actual_time=62640
type: note_off, time: 240, actual_time: 62880
type=note_on channel=0 note=40 velocity=95 time=0 actual_time=62880
type: note_off, time: 240, actual_time: 63120
type=note_on channel=0 note=48 velocity=95 time=0 actual_time=63120
type: note_off, time: 240, actual_time: 63360
type=note_on channel=0 note=40 velocity=95 time=0 actual_time=63360
type: note_off, time: 240, actual_time: 63600
type=note_on channel=0 note=47 velocity=95 time=0 actual_time=63600
type: note_off, time: 240, actual_time: 63840
type=note_on channel=0 note=40 velocity=95 time=0 actual_time=63840
type: note_off, time: 240, actual_time: 64080
type=note_on channel=0 note=40 velocity=95 time=0 actual_time=64080
type: note_off, time: 240, actual_time: 64320
type=note_on channel=0 note=47 velocity=95 time=0 actual_time=64320
type: note_off, time: 240, actual_time: 64560
type=note_on channel=0 note=40 velocity=95 time=0 actual_time=64560
type: note_off, time: 240, actual_time: 64800
type=note_on channel=0 note=48 velocity=95 time=0 actual_time=64800
type: note_off, time: 240, actual_time: 65040
type=note_on channel=0 note=40 velocity=95 time=0 actual_time=65040
type: note_off, time: 240, actual_time: 65280
type=note_on channel=0 note=50 velocity=95 time=0 actual_time=65280
type: note_off, time: 240, actual_time: 65520
type=note_on channel=0 note=52 velocity=70 time=0 actual_time=65520
type: note_off, time: 240, actual_time: 65760
type=note_on channel=0 note=40 velocity=95 time=0 actual_time=65760
type: note_off, time: 240, actual_time: 66000
type=note_on channel=0 note=40 velocity=95 time=0 actual_time=66000
type: note_off, time: 240, actual_time: 66240
type=note_on channel=0 note=40 velocity=95 time=0 actual_time=66240
type: note_off, time: 240, actual_time: 66480
type=note_on channel=0 note=40 velocity=95 time=0 actual_time=66480
type: note_off, time: 240, actual_time: 66720
type=note_on channel=0 note=40 velocity=95 time=0 actual_time=66720
type: note_off, time: 240, actual_time: 66960
type=note_on channel=0 note=48 velocity=95 time=0 actual_time=66960
type: note_off, time: 240, actual_time: 67200
type=note_on channel=0 note=40 velocity=95 time=0 actual_time=67200
type: note_off, time: 240, actual_time: 67440
type=note_on channel=0 note=47 velocity=95 time=0 actual_time=67440
type: note_off, time: 240, actual_time: 67680
type=note_on channel=0 note=40 velocity=95 time=0 actual_time=67680
type: note_off, time: 240, actual_time: 67920
type=note_on channel=0 note=40 velocity=95 time=0 actual_time=67920
type: note_off, time: 240, actual_time: 68160
type=note_on channel=0 note=47 velocity=95 time=0 actual_time=68160
type: note_off, time: 240, actual_time: 68400
type=note_on channel=0 note=48 velocity=70 time=0 actual_time=68400
type: note_off, time: 240, actual_time: 68640
type=note_on channel=0 note=47 velocity=70 time=0 actual_time=68640
type: note_off, time: 240, actual_time: 68880
type=note_on channel=0 note=45 velocity=70 time=0 actual_time=68880
type: note_off, time: 240, actual_time: 69120
type=note_on channel=0 note=50 velocity=95 time=0 actual_time=69120
type: note_off, time: 240, actual_time: 69360
type=note_on channel=0 note=52 velocity=70 time=0 actual_time=69360
type: note_off, time: 240, actual_time: 69600
type=note_on channel=0 note=40 velocity=95 time=0 actual_time=69600
type: note_off, time: 240, actual_time: 69840
type=note_on channel=0 note=40 velocity=95 time=0 actual_time=69840
type: note_off, time: 240, actual_time: 70080
type=note_on channel=0 note=40 velocity=95 time=0 actual_time=70080
type: note_off, time: 240, actual_time: 70320
type=note_on channel=0 note=40 velocity=95 time=0 actual_time=70320
type: note_off, time: 240, actual_time: 70560
type=note_on channel=0 note=40 velocity=95 time=0 actual_time=70560
type: note_off, time: 240, actual_time: 70800
type=note_on channel=0 note=48 velocity=95 time=0 actual_time=70800
type: note_off, time: 240, actual_time: 71040
type=note_on channel=0 note=40 velocity=95 time=0 actual_time=71040
type: note_off, time: 240, actual_time: 71280
type=note_on channel=0 note=47 velocity=95 time=0 actual_time=71280
type: note_off, time: 240, actual_time: 71520
type=note_on channel=0 note=40 velocity=95 time=0 actual_time=71520
type: note_off, time: 240, actual_time: 71760
type=note_on channel=0 note=40 velocity=95 time=0 actual_time=71760
type: note_off, time: 240, actual_time: 72000
type=note_on channel=0 note=47 velocity=95 time=0 actual_time=72000
type: note_off, time: 240, actual_time: 72240
type=note_on channel=0 note=40 velocity=95 time=0 actual_time=72240
type: note_off, time: 240, actual_time: 72480
type=note_on channel=0 note=48 velocity=95 time=0 actual_time=72480
type: note_off, time: 240, actual_time: 72720
type=note_on channel=0 note=40 velocity=95 time=0 actual_time=72720
type: note_off, time: 240, actual_time: 72960
type=note_on channel=0 note=50 velocity=95 time=0 actual_time=72960
type: note_off, time: 240, actual_time: 73200
type=note_on channel=0 note=52 velocity=70 time=0 actual_time=73200
type: note_off, time: 240, actual_time: 73440
type=note_on channel=0 note=40 velocity=95 time=0 actual_time=73440
type: note_off, time: 240, actual_time: 73680
type=note_on channel=0 note=40 velocity=95 time=0 actual_time=73680
type: note_off, time: 240, actual_time: 73920
type=note_on channel=0 note=40 velocity=95 time=0 actual_time=73920
type: note_off, time: 240, actual_time: 74160
type=note_on channel=0 note=40 velocity=95 time=0 actual_time=74160
type: note_off, time: 240, actual_time: 74400
type=note_on channel=0 note=40 velocity=95 time=0 actual_time=74400
type: note_off, time: 240, actual_time: 74640
type=note_on channel=0 note=48 velocity=95 time=0 actual_time=74640
type: note_off, time: 240, actual_time: 74880
type=note_on channel=0 note=40 velocity=95 time=0 actual_time=74880
type: note_off, time: 240, actual_time: 75120
type=note_on channel=0 note=47 velocity=95 time=0 actual_time=75120
type: note_off, time: 240, actual_time: 75360
type=note_on channel=0 note=40 velocity=95 time=0 actual_time=75360
type: note_off, time: 240, actual_time: 75600
type=note_on channel=0 note=40 velocity=95 time=0 actual_time=75600
type: note_off, time: 240, actual_time: 75840
type=note_on channel=0 note=47 velocity=95 time=0 actual_time=75840
type: note_off, time: 240, actual_time: 76080
type=note_on channel=0 note=48 velocity=70 time=0 actual_time=76080
type: note_off, time: 240, actual_time: 76320
type=note_on channel=0 note=47 velocity=70 time=0 actual_time=76320
type: note_off, time: 240, actual_time: 76560
type=note_on channel=0 note=45 velocity=70 time=0 actual_time=76560
type: note_off, time: 240, actual_time: 76800
type=note_on channel=0 note=64 velocity=95 time=0 actual_time=76800
type=note_on channel=0 note=59 velocity=95 time=0 actual_time=76800
type=note_on channel=0 note=52 velocity=95 time=0 actual_time=76800
type: note_off, time: 720, actual_time: 77520
type: note_off, time: 0, actual_time: 77520
type: note_off, time: 0, actual_time: 77520
type=note_on channel=0 note=64 velocity=95 time=0 actual_time=77520
type=note_on channel=0 note=59 velocity=95 time=0 actual_time=77520
type=note_on channel=0 note=52 velocity=95 time=0 actual_time=77520
type: note_off, time: 240, actual_time: 77760
type: note_off, time: 0, actual_time: 77760
type: note_off, time: 0, actual_time: 77760
type=note_on channel=0 note=64 velocity=95 time=0 actual_time=77760
type=note_on channel=0 note=59 velocity=95 time=0 actual_time=77760
type=note_on channel=0 note=52 velocity=95 time=0 actual_time=77760
type: note_off, time: 240, actual_time: 78000
type: note_off, time: 0, actual_time: 78000
type: note_off, time: 0, actual_time: 78000
type=note_on channel=0 note=64 velocity=95 time=0 actual_time=78000
type=note_on channel=0 note=59 velocity=95 time=0 actual_time=78000
type=note_on channel=0 note=52 velocity=95 time=0 actual_time=78000
type: note_off, time: 240, actual_time: 78240
type: note_off, time: 0, actual_time: 78240
type: note_off, time: 0, actual_time: 78240
type=note_on channel=0 note=64 velocity=95 time=0 actual_time=78240
type=note_on channel=0 note=59 velocity=95 time=0 actual_time=78240
type=note_on channel=0 note=52 velocity=95 time=0 actual_time=78240
type: note_off, time: 240, actual_time: 78480
type: note_off, time: 0, actual_time: 78480
type: note_off, time: 0, actual_time: 78480
type=note_on channel=0 note=67 velocity=95 time=0 actual_time=78480
type=note_on channel=0 note=62 velocity=95 time=0 actual_time=78480
type=note_on channel=0 note=55 velocity=95 time=0 actual_time=78480
type: note_off, time: 480, actual_time: 78960
type: note_off, time: 0, actual_time: 78960
type: note_off, time: 0, actual_time: 78960
type=note_on channel=0 note=67 velocity=95 time=0 actual_time=78960
type=note_on channel=0 note=62 velocity=95 time=0 actual_time=78960
type=note_on channel=0 note=55 velocity=95 time=0 actual_time=78960
type: note_off, time: 480, actual_time: 79440
type: note_off, time: 0, actual_time: 79440
type: note_off, time: 0, actual_time: 79440
type=note_on channel=0 note=66 velocity=95 time=0 actual_time=79440
type=note_on channel=0 note=61 velocity=95 time=0 actual_time=79440
type=note_on channel=0 note=54 velocity=95 time=0 actual_time=79440
type: note_off, time: 480, actual_time: 79920
type: note_off, time: 0, actual_time: 79920
type: note_off, time: 0, actual_time: 79920
type=note_on channel=0 note=66 velocity=95 time=0 actual_time=79920
type=note_on channel=0 note=61 velocity=95 time=0 actual_time=79920
type=note_on channel=0 note=54 velocity=95 time=0 actual_time=79920
type: note_off, time: 240, actual_time: 80160
type: note_off, time: 0, actual_time: 80160
type: note_off, time: 0, actual_time: 80160
type=note_on channel=0 note=64 velocity=95 time=0 actual_time=80160
type=note_on channel=0 note=59 velocity=95 time=0 actual_time=80160
type=note_on channel=0 note=52 velocity=95 time=0 actual_time=80160
type: note_off, time: 480, actual_time: 80640
type: note_off, time: 0, actual_time: 80640
type: note_off, time: 0, actual_time: 80640
type=note_on channel=0 note=60 velocity=95 time=0 actual_time=80640
type=note_on channel=0 note=55 velocity=95 time=0 actual_time=80640
type=note_on channel=0 note=48 velocity=95 time=0 actual_time=80640
type: note_off, time: 720, actual_time: 81360
type: note_off, time: 0, actual_time: 81360
type: note_off, time: 0, actual_time: 81360
type=note_on channel=0 note=60 velocity=95 time=0 actual_time=81360
type=note_on channel=0 note=55 velocity=95 time=0 actual_time=81360
type=note_on channel=0 note=48 velocity=95 time=0 actual_time=81360
type: note_off, time: 240, actual_time: 81600
type: note_off, time: 0, actual_time: 81600
type: note_off, time: 0, actual_time: 81600
type=note_on channel=0 note=60 velocity=95 time=0 actual_time=81600
type=note_on channel=0 note=55 velocity=95 time=0 actual_time=81600
type=note_on channel=0 note=48 velocity=95 time=0 actual_time=81600
type: note_off, time: 480, actual_time: 82080
type: note_off, time: 0, actual_time: 82080
type: note_off, time: 0, actual_time: 82080
type=note_on channel=0 note=59 velocity=95 time=0 actual_time=82080
type=note_on channel=0 note=54 velocity=95 time=0 actual_time=82080
type=note_on channel=0 note=47 velocity=95 time=0 actual_time=82080
type: note_off, time: 240, actual_time: 82320
type: note_off, time: 0, actual_time: 82320
type: note_off, time: 0, actual_time: 82320
type=note_on channel=0 note=59 velocity=95 time=0 actual_time=82320
type=note_on channel=0 note=54 velocity=95 time=0 actual_time=82320
type=note_on channel=0 note=47 velocity=95 time=0 actual_time=82320
type: note_off, time: 480, actual_time: 82800
type: note_off, time: 0, actual_time: 82800
type: note_off, time: 0, actual_time: 82800
type=note_on channel=0 note=59 velocity=95 time=0 actual_time=82800
type=note_on channel=0 note=54 velocity=95 time=0 actual_time=82800
type=note_on channel=0 note=47 velocity=95 time=0 actual_time=82800
type: note_off, time: 480, actual_time: 83280
type: note_off, time: 0, actual_time: 83280
type: note_off, time: 0, actual_time: 83280
type=note_on channel=0 note=60 velocity=95 time=0 actual_time=83280
type=note_on channel=0 note=55 velocity=95 time=0 actual_time=83280
type=note_on channel=0 note=48 velocity=95 time=0 actual_time=83280
type: note_off, time: 480, actual_time: 83760
type: note_off, time: 0, actual_time: 83760
type: note_off, time: 0, actual_time: 83760
type=note_on channel=0 note=60 velocity=95 time=0 actual_time=83760
type=note_on channel=0 note=55 velocity=95 time=0 actual_time=83760
type=note_on channel=0 note=48 velocity=95 time=0 actual_time=83760
type: note_off, time: 240, actual_time: 84000
type: note_off, time: 0, actual_time: 84000
type: note_off, time: 0, actual_time: 84000
type=note_on channel=0 note=62 velocity=95 time=0 actual_time=84000
type=note_on channel=0 note=57 velocity=95 time=0 actual_time=84000
type=note_on channel=0 note=50 velocity=95 time=0 actual_time=84000
type: note_off, time: 480, actual_time: 84480
type: note_off, time: 0, actual_time: 84480
type: note_off, time: 0, actual_time: 84480
type=note_on channel=0 note=64 velocity=95 time=0 actual_time=84480
type=note_on channel=0 note=59 velocity=95 time=0 actual_time=84480
type=note_on channel=0 note=52 velocity=95 time=0 actual_time=84480
type: note_off, time: 720, actual_time: 85200
type: note_off, time: 0, actual_time: 85200
type: note_off, time: 0, actual_time: 85200
type=note_on channel=0 note=64 velocity=95 time=0 actual_time=85200
type=note_on channel=0 note=59 velocity=95 time=0 actual_time=85200
type=note_on channel=0 note=52 velocity=95 time=0 actual_time=85200
type: note_off, time: 240, actual_time: 85440
type: note_off, time: 0, actual_time: 85440
type: note_off, time: 0, actual_time: 85440
type=note_on channel=0 note=64 velocity=95 time=0 actual_time=85440
type=note_on channel=0 note=59 velocity=95 time=0 actual_time=85440
type=note_on channel=0 note=52 velocity=95 time=0 actual_time=85440
type: note_off, time: 240, actual_time: 85680
type: note_off, time: 0, actual_time: 85680
type: note_off, time: 0, actual_time: 85680
type=note_on channel=0 note=64 velocity=95 time=0 actual_time=85680
type=note_on channel=0 note=59 velocity=95 time=0 actual_time=85680
type=note_on channel=0 note=52 velocity=95 time=0 actual_time=85680
type: note_off, time: 240, actual_time: 85920
type: note_off, time: 0, actual_time: 85920
type: note_off, time: 0, actual_time: 85920
type=note_on channel=0 note=64 velocity=95 time=0 actual_time=85920
type=note_on channel=0 note=59 velocity=95 time=0 actual_time=85920
type=note_on channel=0 note=52 velocity=95 time=0 actual_time=85920
type: note_off, time: 240, actual_time: 86160
type: note_off, time: 0, actual_time: 86160
type: note_off, time: 0, actual_time: 86160
type=note_on channel=0 note=67 velocity=95 time=0 actual_time=86160
type=note_on channel=0 note=62 velocity=95 time=0 actual_time=86160
type=note_on channel=0 note=55 velocity=95 time=0 actual_time=86160
type: note_off, time: 480, actual_time: 86640
type: note_off, time: 0, actual_time: 86640
type: note_off, time: 0, actual_time: 86640
type=note_on channel=0 note=67 velocity=95 time=0 actual_time=86640
type=note_on channel=0 note=62 velocity=95 time=0 actual_time=86640
type=note_on channel=0 note=55 velocity=95 time=0 actual_time=86640
type: note_off, time: 480, actual_time: 87120
type: note_off, time: 0, actual_time: 87120
type: note_off, time: 0, actual_time: 87120
type=note_on channel=0 note=66 velocity=95 time=0 actual_time=87120
type=note_on channel=0 note=61 velocity=95 time=0 actual_time=87120
type=note_on channel=0 note=54 velocity=95 time=0 actual_time=87120
type: note_off, time: 480, actual_time: 87600
type: note_off, time: 0, actual_time: 87600
type: note_off, time: 0, actual_time: 87600
type=note_on channel=0 note=66 velocity=95 time=0 actual_time=87600
type=note_on channel=0 note=61 velocity=95 time=0 actual_time=87600
type=note_on channel=0 note=54 velocity=95 time=0 actual_time=87600
type: note_off, time: 240, actual_time: 87840
type: note_off, time: 0, actual_time: 87840
type: note_off, time: 0, actual_time: 87840
type=note_on channel=0 note=69 velocity=95 time=0 actual_time=87840
type=note_on channel=0 note=64 velocity=95 time=0 actual_time=87840
type=note_on channel=0 note=57 velocity=95 time=0 actual_time=87840
type: note_off, time: 480, actual_time: 88320
type: note_off, time: 0, actual_time: 88320
type: note_off, time: 0, actual_time: 88320
type=note_on channel=0 note=60 velocity=95 time=0 actual_time=88320
type=note_on channel=0 note=55 velocity=95 time=0 actual_time=88320
type=note_on channel=0 note=48 velocity=95 time=0 actual_time=88320
type: note_off, time: 720, actual_time: 89040
type: note_off, time: 0, actual_time: 89040
type: note_off, time: 0, actual_time: 89040
type=note_on channel=0 note=60 velocity=95 time=0 actual_time=89040
type=note_on channel=0 note=55 velocity=95 time=0 actual_time=89040
type=note_on channel=0 note=48 velocity=95 time=0 actual_time=89040
type: note_off, time: 240, actual_time: 89280
type: note_off, time: 0, actual_time: 89280
type: note_off, time: 0, actual_time: 89280
type=note_on channel=0 note=60 velocity=95 time=0 actual_time=89280
type=note_on channel=0 note=55 velocity=95 time=0 actual_time=89280
type=note_on channel=0 note=48 velocity=95 time=0 actual_time=89280
type: note_off, time: 480, actual_time: 89760
type: note_off, time: 0, actual_time: 89760
type: note_off, time: 0, actual_time: 89760
type=note_on channel=0 note=59 velocity=95 time=0 actual_time=89760
type=note_on channel=0 note=54 velocity=95 time=0 actual_time=89760
type=note_on channel=0 note=47 velocity=95 time=0 actual_time=89760
type: note_off, time: 240, actual_time: 90000
type: note_off, time: 0, actual_time: 90000
type: note_off, time: 0, actual_time: 90000
type=note_on channel=0 note=59 velocity=95 time=0 actual_time=90000
type=note_on channel=0 note=54 velocity=95 time=0 actual_time=90000
type=note_on channel=0 note=47 velocity=95 time=0 actual_time=90000
type: note_off, time: 480, actual_time: 90480
type: note_off, time: 0, actual_time: 90480
type: note_off, time: 0, actual_time: 90480
type=note_on channel=0 note=59 velocity=95 time=0 actual_time=90480
type=note_on channel=0 note=54 velocity=95 time=0 actual_time=90480
type=note_on channel=0 note=47 velocity=95 time=0 actual_time=90480
type: note_off, time: 480, actual_time: 90960
type: note_off, time: 0, actual_time: 90960
type: note_off, time: 0, actual_time: 90960
type=note_on channel=0 note=60 velocity=95 time=0 actual_time=90960
type=note_on channel=0 note=55 velocity=95 time=0 actual_time=90960
type=note_on channel=0 note=48 velocity=95 time=0 actual_time=90960
type: note_off, time: 480, actual_time: 91440
type: note_off, time: 0, actual_time: 91440
type: note_off, time: 0, actual_time: 91440
type=note_on channel=0 note=60 velocity=95 time=0 actual_time=91440
type=note_on channel=0 note=55 velocity=95 time=0 actual_time=91440
type=note_on channel=0 note=48 velocity=95 time=0 actual_time=91440
type: note_off, time: 240, actual_time: 91680
type: note_off, time: 0, actual_time: 91680
type: note_off, time: 0, actual_time: 91680
type=note_on channel=0 note=62 velocity=95 time=0 actual_time=91680
type=note_on channel=0 note=57 velocity=95 time=0 actual_time=91680
type=note_on channel=0 note=50 velocity=95 time=0 actual_time=91680
type: note_off, time: 480, actual_time: 92160
type: note_off, time: 0, actual_time: 92160
type: note_off, time: 0, actual_time: 92160
type=note_on channel=1 note=52 velocity=95 time=0 actual_time=92160
type: note_off, time: 240, actual_time: 92400
type=note_on channel=0 note=40 velocity=95 time=0 actual_time=92400
type: note_off, time: 240, actual_time: 92640
type=note_on channel=0 note=40 velocity=95 time=0 actual_time=92640
type: note_off, time: 240, actual_time: 92880
type=note_on channel=0 note=47 velocity=95 time=0 actual_time=92880
type: note_off, time: 240, actual_time: 93120
type=note_on channel=0 note=40 velocity=95 time=0 actual_time=93120
type: note_off, time: 240, actual_time: 93360
type=note_on channel=0 note=40 velocity=95 time=0 actual_time=93360
type: note_off, time: 240, actual_time: 93600
type=note_on channel=0 note=48 velocity=95 time=0 actual_time=93600
type: note_off, time: 240, actual_time: 93840
type=note_on channel=0 note=40 velocity=95 time=0 actual_time=93840
type: note_off, time: 240, actual_time: 94080
type=note_on channel=0 note=40 velocity=95 time=0 actual_time=94080
type: note_off, time: 240, actual_time: 94320
type=note_on channel=0 note=52 velocity=95 time=0 actual_time=94320
type=note_on channel=0 note=45 velocity=95 time=0 actual_time=94320
type: note_off, time: 240, actual_time: 94560
type: note_off, time: 0, actual_time: 94560
type=note_on channel=0 note=40 velocity=95 time=0 actual_time=94560
type: note_off, time: 240, actual_time: 94800
type=note_on channel=0 note=40 velocity=95 time=0 actual_time=94800
type: note_off, time: 240, actual_time: 95040
type=note_on channel=0 note=54 velocity=95 time=0 actual_time=95040
type=note_on channel=0 note=47 velocity=95 time=0 actual_time=95040
type: note_off, time: 240, actual_time: 95280
type: note_off, time: 0, actual_time: 95280
type=note_on channel=0 note=40 velocity=95 time=0 actual_time=95280
type: note_off, time: 240, actual_time: 95520
type=note_on channel=0 note=55 velocity=95 time=0 actual_time=95520
type=note_on channel=0 note=48 velocity=95 time=0 actual_time=95520
type: note_off, time: 240, actual_time: 95760
type: note_off, time: 0, actual_time: 95760
type=note_on channel=0 note=40 velocity=95 time=0 actual_time=95760
type: note_off, time: 240, actual_time: 96000
type=note_on channel=1 note=52 velocity=95 time=0 actual_time=96000
type: note_off, time: 240, actual_time: 96240
type=note_on channel=0 note=40 velocity=95 time=0 actual_time=96240
type: note_off, time: 240, actual_time: 96480
type=note_on channel=0 note=40 velocity=95 time=0 actual_time=96480
type: note_off, time: 240, actual_time: 96720
type=note_on channel=0 note=47 velocity=95 time=0 actual_time=96720
type: note_off, time: 240, actual_time: 96960
type=note_on channel=0 note=40 velocity=95 time=0 actual_time=96960
type: note_off, time: 240, actual_time: 97200
type=note_on channel=0 note=40 velocity=95 time=0 actual_time=97200
type: note_off, time: 240, actual_time: 97440
type=note_on channel=0 note=48 velocity=95 time=0 actual_time=97440
type: note_off, time: 240, actual_time: 97680
type=note_on channel=0 note=40 velocity=95 time=0 actual_time=97680
type: note_off, time: 240, actual_time: 97920
type=note_on channel=0 note=40 velocity=95 time=0 actual_time=97920
type: note_off, time: 240, actual_time: 98160
type=note_on channel=0 note=52 velocity=95 time=0 actual_time=98160
type=note_on channel=0 note=45 velocity=95 time=0 actual_time=98160
type: note_off, time: 240, actual_time: 98400
type: note_off, time: 0, actual_time: 98400
type=note_on channel=0 note=40 velocity=95 time=0 actual_time=98400
type: note_off, time: 240, actual_time: 98640
type=note_on channel=0 note=40 velocity=95 time=0 actual_time=98640
type: note_off, time: 240, actual_time: 98880
type=note_on channel=1 note=54 velocity=95 time=0 actual_time=98880
type=note_on channel=1 note=47 velocity=95 time=0 actual_time=98880
type: pitchwheel, time: 120, actual_time: 99000
type: pitchwheel, time: 0, actual_time: 99000
type: pitchwheel, time: 120, actual_time: 99120
type: pitchwheel, time: 0, actual_time: 99120
type: note_off, time: 0, actual_time: 99120
type: pitchwheel, time: 0, actual_time: 99120
type: pitchwheel, time: 0, actual_time: 99120
type: note_off, time: 0, actual_time: 99120
type=note_on channel=1 note=55 velocity=95 time=0 actual_time=99120
type=note_on channel=1 note=48 velocity=95 time=0 actual_time=99120
type: pitchwheel, time: 120, actual_time: 99240
type: pitchwheel, time: 0, actual_time: 99240
type: pitchwheel, time: 120, actual_time: 99360
type: pitchwheel, time: 0, actual_time: 99360
type: note_off, time: 0, actual_time: 99360
type: pitchwheel, time: 0, actual_time: 99360
type: pitchwheel, time: 0, actual_time: 99360
type: note_off, time: 0, actual_time: 99360
type=note_on channel=0 note=54 velocity=95 time=0 actual_time=99360
type=note_on channel=1 note=47 velocity=95 time=0 actual_time=99360
type: note_off, time: 240, actual_time: 99600
type: note_off, time: 0, actual_time: 99600
type=note_on channel=0 note=40 velocity=95 time=0 actual_time=99600
type: note_off, time: 240, actual_time: 99840
type=note_on channel=1 note=52 velocity=95 time=0 actual_time=99840
type: note_off, time: 240, actual_time: 100080
type=note_on channel=0 note=40 velocity=95 time=0 actual_time=100080
type: note_off, time: 240, actual_time: 100320
type=note_on channel=0 note=40 velocity=95 time=0 actual_time=100320
type: note_off, time: 240, actual_time: 100560
type=note_on channel=0 note=47 velocity=95 time=0 actual_time=100560
type: note_off, time: 240, actual_time: 100800
type=note_on channel=0 note=40 velocity=95 time=0 actual_time=100800
type: note_off, time: 240, actual_time: 101040
type=note_on channel=0 note=40 velocity=95 time=0 actual_time=101040
type: note_off, time: 240, actual_time: 101280
type=note_on channel=0 note=48 velocity=95 time=0 actual_time=101280
type: note_off, time: 240, actual_time: 101520
type=note_on channel=0 note=40 velocity=95 time=0 actual_time=101520
type: note_off, time: 240, actual_time: 101760
type=note_on channel=0 note=40 velocity=95 time=0 actual_time=101760
type: note_off, time: 240, actual_time: 102000
type=note_on channel=0 note=52 velocity=95 time=0 actual_time=102000
type=note_on channel=0 note=45 velocity=95 time=0 actual_time=102000
type: note_off, time: 240, actual_time: 102240
type: note_off, time: 0, actual_time: 102240
type=note_on channel=0 note=40 velocity=95 time=0 actual_time=102240
type: note_off, time: 240, actual_time: 102480
type=note_on channel=0 note=40 velocity=95 time=0 actual_time=102480
type: note_off, time: 240, actual_time: 102720
type=note_on channel=0 note=54 velocity=95 time=0 actual_time=102720
type=note_on channel=0 note=47 velocity=95 time=0 actual_time=102720
type: note_off, time: 240, actual_time: 102960
type: note_off, time: 0, actual_time: 102960
type=note_on channel=0 note=40 velocity=95 time=0 actual_time=102960
type: note_off, time: 240, actual_time: 103200
type=note_on channel=0 note=55 velocity=95 time=0 actual_time=103200
type=note_on channel=0 note=48 velocity=95 time=0 actual_time=103200
type: note_off, time: 240, actual_time: 103440
type: note_off, time: 0, actual_time: 103440
type=note_on channel=0 note=40 velocity=95 time=0 actual_time=103440
type: note_off, time: 240, actual_time: 103680
type=note_on channel=0 note=52 velocity=95 time=0 actual_time=103680
type: note_off, time: 240, actual_time: 103920
type=note_on channel=0 note=40 velocity=95 time=0 actual_time=103920
type: note_off, time: 240, actual_time: 104160
type=note_on channel=0 note=40 velocity=95 time=0 actual_time=104160
type: note_off, time: 240, actual_time: 104400
type=note_on channel=0 note=47 velocity=95 time=0 actual_time=104400
type: note_off, time: 240, actual_time: 104640
type=note_on channel=0 note=40 velocity=95 time=0 actual_time=104640
type: note_off, time: 240, actual_time: 104880
type=note_on channel=0 note=40 velocity=95 time=0 actual_time=104880
type: note_off, time: 240, actual_time: 105120
type=note_on channel=0 note=48 velocity=95 time=0 actual_time=105120
type: note_off, time: 240, actual_time: 105360
type=note_on channel=0 note=40 velocity=95 time=0 actual_time=105360
type: note_off, time: 240, actual_time: 105600
type=note_on channel=0 note=60 velocity=95 time=0 actual_time=105600
type=note_on channel=0 note=55 velocity=95 time=0 actual_time=105600
type=note_on channel=0 note=48 velocity=95 time=0 actual_time=105600
type: note_off, time: 320, actual_time: 105920
type: note_off, time: 0, actual_time: 105920
type: note_off, time: 0, actual_time: 105920
type=note_on channel=0 note=60 velocity=95 time=0 actual_time=105920
type=note_on channel=0 note=55 velocity=95 time=0 actual_time=105920
type=note_on channel=0 note=48 velocity=95 time=0 actual_time=105920
type: note_off, time: 320, actual_time: 106240
type: note_off, time: 0, actual_time: 106240
type: note_off, time: 0, actual_time: 106240
type=note_on channel=0 note=60 velocity=95 time=0 actual_time=106240
type=note_on channel=0 note=55 velocity=95 time=0 actual_time=106240
type=note_on channel=0 note=48 velocity=95 time=0 actual_time=106240
type: note_off, time: 320, actual_time: 106560
type: note_off, time: 0, actual_time: 106560
type: note_off, time: 0, actual_time: 106560
type=note_on channel=1 note=60 velocity=95 time=0 actual_time=106560
type=note_on channel=1 note=55 velocity=95 time=0 actual_time=106560
type=note_on channel=1 note=48 velocity=95 time=0 actual_time=106560
type: pitchwheel, time: 120, actual_time: 106680
type: pitchwheel, time: 120, actual_time: 106800
type: pitchwheel, time: 120, actual_time: 106920
type: pitchwheel, time: 120, actual_time: 107040
type: pitchwheel, time: 120, actual_time: 107160
type: pitchwheel, time: 120, actual_time: 107280
type: pitchwheel, time: 120, actual_time: 107400
type: note_off, time: 120, actual_time: 107520
type: note_off, time: 0, actual_time: 107520
type: pitchwheel, time: 0, actual_time: 107520
type: pitchwheel, time: 0, actual_time: 107520
type: note_off, time: 0, actual_time: 107520
type=note_on channel=0 note=50 velocity=95 time=0 actual_time=107520
type: note_off, time: 240, actual_time: 107760
type=note_on channel=0 note=52 velocity=70 time=0 actual_time=107760
type: note_off, time: 240, actual_time: 108000
type=note_on channel=0 note=40 velocity=95 time=0 actual_time=108000
type: note_off, time: 240, actual_time: 108240
type=note_on channel=0 note=40 velocity=95 time=0 actual_time=108240
type: note_off, time: 240, actual_time: 108480
type=note_on channel=0 note=40 velocity=95 time=0 actual_time=108480
type: note_off, time: 240, actual_time: 108720
type=note_on channel=0 note=40 velocity=95 time=0 actual_time=108720
type: note_off, time: 240, actual_time: 108960
type=note_on channel=0 note=40 velocity=95 time=0 actual_time=108960
type: note_off, time: 240, actual_time: 109200
type=note_on channel=0 note=48 velocity=95 time=0 actual_time=109200
type: note_off, time: 240, actual_time: 109440
type=note_on channel=0 note=40 velocity=95 time=0 actual_time=109440
type: note_off, time: 240, actual_time: 109680
type=note_on channel=0 note=47 velocity=95 time=0 actual_time=109680
type: note_off, time: 240, actual_time: 109920
type=note_on channel=0 note=40 velocity=95 time=0 actual_time=109920
type: note_off, time: 240, actual_time: 110160
type=note_on channel=0 note=40 velocity=95 time=0 actual_time=110160
type: note_off, time: 240, actual_time: 110400
type=note_on channel=0 note=47 velocity=95 time=0 actual_time=110400
type: note_off, time: 240, actual_time: 110640
type=note_on channel=0 note=40 velocity=95 time=0 actual_time=110640
type: note_off, time: 240, actual_time: 110880
type=note_on channel=0 note=48 velocity=95 time=0 actual_time=110880
type: note_off, time: 240, actual_time: 111120
type=note_on channel=0 note=40 velocity=95 time=0 actual_time=111120
type: note_off, time: 240, actual_time: 111360
type=note_on channel=0 note=50 velocity=95 time=0 actual_time=111360
type: note_off, time: 240, actual_time: 111600
type=note_on channel=0 note=52 velocity=70 time=0 actual_time=111600
type: note_off, time: 240, actual_time: 111840
type=note_on channel=0 note=40 velocity=95 time=0 actual_time=111840
type: note_off, time: 240, actual_time: 112080
type=note_on channel=0 note=40 velocity=95 time=0 actual_time=112080
type: note_off, time: 240, actual_time: 112320
type=note_on channel=0 note=40 velocity=95 time=0 actual_time=112320
type: note_off, time: 240, actual_time: 112560
type=note_on channel=0 note=40 velocity=95 time=0 actual_time=112560
type: note_off, time: 240, actual_time: 112800
type=note_on channel=0 note=40 velocity=95 time=0 actual_time=112800
type: note_off, time: 240, actual_time: 113040
type=note_on channel=0 note=48 velocity=95 time=0 actual_time=113040
type: note_off, time: 240, actual_time: 113280
type=note_on channel=0 note=40 velocity=95 time=0 actual_time=113280
type: note_off, time: 240, actual_time: 113520
type=note_on channel=0 note=47 velocity=95 time=0 actual_time=113520
type: note_off, time: 240, actual_time: 113760
type=note_on channel=0 note=40 velocity=95 time=0 actual_time=113760
type: note_off, time: 240, actual_time: 114000
type=note_on channel=0 note=40 velocity=95 time=0 actual_time=114000
type: note_off, time: 240, actual_time: 114240
type=note_on channel=0 note=47 velocity=95 time=0 actual_time=114240
type: note_off, time: 240, actual_time: 114480
type=note_on channel=0 note=48 velocity=70 time=0 actual_time=114480
type: note_off, time: 240, actual_time: 114720
type=note_on channel=0 note=47 velocity=70 time=0 actual_time=114720
type: note_off, time: 240, actual_time: 114960
type=note_on channel=0 note=45 velocity=70 time=0 actual_time=114960
type: note_off, time: 240, actual_time: 115200
type=note_on channel=0 note=50 velocity=95 time=0 actual_time=115200
type: note_off, time: 240, actual_time: 115440
type=note_on channel=0 note=52 velocity=70 time=0 actual_time=115440
type: note_off, time: 240, actual_time: 115680
type=note_on channel=0 note=40 velocity=95 time=0 actual_time=115680
type: note_off, time: 240, actual_time: 115920
type=note_on channel=0 note=40 velocity=95 time=0 actual_time=115920
type: note_off, time: 240, actual_time: 116160
type=note_on channel=0 note=40 velocity=95 time=0 actual_time=116160
type: note_off, time: 240, actual_time: 116400
type=note_on channel=0 note=40 velocity=95 time=0 actual_time=116400
type: note_off, time: 240, actual_time: 116640
type=note_on channel=0 note=40 velocity=95 time=0 actual_time=116640
type: note_off, time: 240, actual_time: 116880
type=note_on channel=0 note=48 velocity=95 time=0 actual_time=116880
type: note_off, time: 240, actual_time: 117120
type=note_on channel=0 note=40 velocity=95 time=0 actual_time=117120
type: note_off, time: 240, actual_time: 117360
type=note_on channel=0 note=47 velocity=95 time=0 actual_time=117360
type: note_off, time: 240, actual_time: 117600
type=note_on channel=0 note=40 velocity=95 time=0 actual_time=117600
type: note_off, time: 240, actual_time: 117840
type=note_on channel=0 note=40 velocity=95 time=0 actual_time=117840
type: note_off, time: 240, actual_time: 118080
type=note_on channel=0 note=47 velocity=95 time=0 actual_time=118080
type: note_off, time: 240, actual_time: 118320
type=note_on channel=0 note=40 velocity=95 time=0 actual_time=118320
type: note_off, time: 240, actual_time: 118560
type=note_on channel=0 note=48 velocity=95 time=0 actual_time=118560
type: note_off, time: 240, actual_time: 118800
type=note_on channel=0 note=40 velocity=95 time=0 actual_time=118800
type: note_off, time: 240, actual_time: 119040
type=note_on channel=0 note=50 velocity=95 time=0 actual_time=119040
type: note_off, time: 240, actual_time: 119280
type=note_on channel=0 note=52 velocity=70 time=0 actual_time=119280
type: note_off, time: 240, actual_time: 119520
type=note_on channel=0 note=40 velocity=95 time=0 actual_time=119520
type: note_off, time: 240, actual_time: 119760
type=note_on channel=0 note=40 velocity=95 time=0 actual_time=119760
type: note_off, time: 240, actual_time: 120000
type=note_on channel=0 note=40 velocity=95 time=0 actual_time=120000
type: note_off, time: 240, actual_time: 120240
type=note_on channel=0 note=40 velocity=95 time=0 actual_time=120240
type: note_off, time: 240, actual_time: 120480
type=note_on channel=0 note=40 velocity=95 time=0 actual_time=120480
type: note_off, time: 240, actual_time: 120720
type=note_on channel=0 note=48 velocity=95 time=0 actual_time=120720
type: note_off, time: 240, actual_time: 120960
type=note_on channel=0 note=40 velocity=95 time=0 actual_time=120960
type: note_off, time: 240, actual_time: 121200
type=note_on channel=0 note=47 velocity=95 time=0 actual_time=121200
type: note_off, time: 240, actual_time: 121440
type=note_on channel=0 note=40 velocity=95 time=0 actual_time=121440
type: note_off, time: 240, actual_time: 121680
type=note_on channel=0 note=40 velocity=95 time=0 actual_time=121680
type: note_off, time: 240, actual_time: 121920
type=note_on channel=0 note=47 velocity=95 time=0 actual_time=121920
type: note_off, time: 240, actual_time: 122160
type=note_on channel=0 note=48 velocity=70 time=0 actual_time=122160
type: note_off, time: 240, actual_time: 122400
type=note_on channel=0 note=47 velocity=70 time=0 actual_time=122400
type: note_off, time: 240, actual_time: 122640
type=note_on channel=0 note=45 velocity=70 time=0 actual_time=122640
type: note_off, time: 240, actual_time: 122880
type=note_on channel=0 note=50 velocity=95 time=0 actual_time=122880
type: note_off, time: 240, actual_time: 123120
type=note_on channel=0 note=52 velocity=70 time=0 actual_time=123120
type: note_off, time: 240, actual_time: 123360
type=note_on channel=0 note=40 velocity=95 time=0 actual_time=123360
type: note_off, time: 240, actual_time: 123600
type=note_on channel=0 note=40 velocity=95 time=0 actual_time=123600
type: note_off, time: 240, actual_time: 123840
type=note_on channel=0 note=40 velocity=95 time=0 actual_time=123840
type: note_off, time: 240, actual_time: 124080
type=note_on channel=0 note=40 velocity=95 time=0 actual_time=124080
type: note_off, time: 240, actual_time: 124320
type=note_on channel=0 note=40 velocity=95 time=0 actual_time=124320
type: note_off, time: 240, actual_time: 124560
type=note_on channel=0 note=48 velocity=95 time=0 actual_time=124560
type: note_off, time: 240, actual_time: 124800
type=note_on channel=0 note=40 velocity=95 time=0 actual_time=124800
type: note_off, time: 240, actual_time: 125040
type=note_on channel=0 note=47 velocity=95 time=0 actual_time=125040
type: note_off, time: 240, actual_time: 125280
type=note_on channel=0 note=40 velocity=95 time=0 actual_time=125280
type: note_off, time: 240, actual_time: 125520
type=note_on channel=0 note=40 velocity=95 time=0 actual_time=125520
type: note_off, time: 240, actual_time: 125760
type=note_on channel=0 note=47 velocity=95 time=0 actual_time=125760
type: note_off, time: 240, actual_time: 126000
type=note_on channel=0 note=40 velocity=95 time=0 actual_time=126000
type: note_off, time: 240, actual_time: 126240
type=note_on channel=0 note=48 velocity=95 time=0 actual_time=126240
type: note_off, time: 240, actual_time: 126480
type=note_on channel=0 note=40 velocity=95 time=0 actual_time=126480
type: note_off, time: 240, actual_time: 126720
type=note_on channel=0 note=50 velocity=95 time=0 actual_time=126720
type: note_off, time: 240, actual_time: 126960
type=note_on channel=0 note=52 velocity=70 time=0 actual_time=126960
type: note_off, time: 240, actual_time: 127200
type=note_on channel=0 note=40 velocity=95 time=0 actual_time=127200
type: note_off, time: 240, actual_time: 127440
type=note_on channel=0 note=40 velocity=95 time=0 actual_time=127440
type: note_off, time: 240, actual_time: 127680
type=note_on channel=0 note=40 velocity=95 time=0 actual_time=127680
type: note_off, time: 240, actual_time: 127920
type=note_on channel=0 note=40 velocity=95 time=0 actual_time=127920
type: note_off, time: 240, actual_time: 128160
type=note_on channel=0 note=40 velocity=95 time=0 actual_time=128160
type: note_off, time: 240, actual_time: 128400
type=note_on channel=0 note=48 velocity=95 time=0 actual_time=128400
type: note_off, time: 240, actual_time: 128640
type=note_on channel=0 note=40 velocity=95 time=0 actual_time=128640
type: note_off, time: 240, actual_time: 128880
type=note_on channel=0 note=47 velocity=95 time=0 actual_time=128880
type: note_off, time: 240, actual_time: 129120
type=note_on channel=0 note=40 velocity=95 time=0 actual_time=129120
type: note_off, time: 240, actual_time: 129360
type=note_on channel=0 note=40 velocity=95 time=0 actual_time=129360
type: note_off, time: 240, actual_time: 129600
type=note_on channel=0 note=47 velocity=95 time=0 actual_time=129600
type: note_off, time: 240, actual_time: 129840
type=note_on channel=0 note=48 velocity=70 time=0 actual_time=129840
type: note_off, time: 240, actual_time: 130080
type=note_on channel=0 note=47 velocity=70 time=0 actual_time=130080
type: note_off, time: 240, actual_time: 130320
type=note_on channel=0 note=45 velocity=70 time=0 actual_time=130320
type: note_off, time: 240, actual_time: 130560
type=note_on channel=0 note=50 velocity=95 time=0 actual_time=130560
type: note_off, time: 240, actual_time: 130800
type=note_on channel=0 note=52 velocity=70 time=0 actual_time=130800
type: note_off, time: 240, actual_time: 131040
type=note_on channel=0 note=40 velocity=95 time=0 actual_time=131040
type: note_off, time: 240, actual_time: 131280
type=note_on channel=0 note=40 velocity=95 time=0 actual_time=131280
type: note_off, time: 240, actual_time: 131520
type=note_on channel=0 note=40 velocity=95 time=0 actual_time=131520
type: note_off, time: 240, actual_time: 131760
type=note_on channel=0 note=40 velocity=95 time=0 actual_time=131760
type: note_off, time: 240, actual_time: 132000
type=note_on channel=0 note=40 velocity=95 time=0 actual_time=132000
type: note_off, time: 240, actual_time: 132240
type=note_on channel=0 note=48 velocity=95 time=0 actual_time=132240
type: note_off, time: 240, actual_time: 132480
type=note_on channel=0 note=40 velocity=95 time=0 actual_time=132480
type: note_off, time: 240, actual_time: 132720
type=note_on channel=0 note=47 velocity=95 time=0 actual_time=132720
type: note_off, time: 240, actual_time: 132960
type=note_on channel=0 note=40 velocity=95 time=0 actual_time=132960
type: note_off, time: 240, actual_time: 133200
type=note_on channel=0 note=40 velocity=95 time=0 actual_time=133200
type: note_off, time: 240, actual_time: 133440
type=note_on channel=0 note=47 velocity=95 time=0 actual_time=133440
type: note_off, time: 240, actual_time: 133680
type=note_on channel=0 note=40 velocity=95 time=0 actual_time=133680
type: note_off, time: 240, actual_time: 133920
type=note_on channel=0 note=48 velocity=95 time=0 actual_time=133920
type: note_off, time: 240, actual_time: 134160
type=note_on channel=0 note=40 velocity=95 time=0 actual_time=134160
type: note_off, time: 240, actual_time: 134400
type=note_on channel=0 note=50 velocity=95 time=0 actual_time=134400
type: note_off, time: 240, actual_time: 134640
type=note_on channel=0 note=52 velocity=70 time=0 actual_time=134640
type: note_off, time: 240, actual_time: 134880
type=note_on channel=0 note=40 velocity=95 time=0 actual_time=134880
type: note_off, time: 240, actual_time: 135120
type=note_on channel=0 note=40 velocity=95 time=0 actual_time=135120
type: note_off, time: 240, actual_time: 135360
type=note_on channel=0 note=40 velocity=95 time=0 actual_time=135360
type: note_off, time: 240, actual_time: 135600
type=note_on channel=0 note=40 velocity=95 time=0 actual_time=135600
type: note_off, time: 240, actual_time: 135840
type=note_on channel=0 note=40 velocity=95 time=0 actual_time=135840
type: note_off, time: 240, actual_time: 136080
type=note_on channel=0 note=48 velocity=95 time=0 actual_time=136080
type: note_off, time: 240, actual_time: 136320
type=note_on channel=0 note=40 velocity=95 time=0 actual_time=136320
type: note_off, time: 240, actual_time: 136560
type=note_on channel=0 note=47 velocity=95 time=0 actual_time=136560
type: note_off, time: 240, actual_time: 136800
type=note_on channel=0 note=40 velocity=95 time=0 actual_time=136800
type: note_off, time: 240, actual_time: 137040
type=note_on channel=0 note=40 velocity=95 time=0 actual_time=137040
type: note_off, time: 240, actual_time: 137280
type=note_on channel=0 note=47 velocity=95 time=0 actual_time=137280
type: note_off, time: 240, actual_time: 137520
type=note_on channel=0 note=48 velocity=70 time=0 actual_time=137520
type: note_off, time: 240, actual_time: 137760
type=note_on channel=0 note=47 velocity=70 time=0 actual_time=137760
type: note_off, time: 240, actual_time: 138000
type=note_on channel=0 note=45 velocity=70 time=0 actual_time=138000
type: note_off, time: 240, actual_time: 138240
type=note_on channel=0 note=64 velocity=95 time=0 actual_time=138240
type=note_on channel=0 note=59 velocity=95 time=0 actual_time=138240
type=note_on channel=0 note=52 velocity=95 time=0 actual_time=138240
type: note_off, time: 720, actual_time: 138960
type: note_off, time: 0, actual_time: 138960
type: note_off, time: 0, actual_time: 138960
type=note_on channel=0 note=64 velocity=95 time=0 actual_time=138960
type=note_on channel=0 note=59 velocity=95 time=0 actual_time=138960
type=note_on channel=0 note=52 velocity=95 time=0 actual_time=138960
type: note_off, time: 240, actual_time: 139200
type: note_off, time: 0, actual_time: 139200
type: note_off, time: 0, actual_time: 139200
type=note_on channel=0 note=64 velocity=95 time=0 actual_time=139200
type=note_on channel=0 note=59 velocity=95 time=0 actual_time=139200
type=note_on channel=0 note=52 velocity=95 time=0 actual_time=139200
type: note_off, time: 240, actual_time: 139440
type: note_off, time: 0, actual_time: 139440
type: note_off, time: 0, actual_time: 139440
type=note_on channel=0 note=64 velocity=95 time=0 actual_time=139440
type=note_on channel=0 note=59 velocity=95 time=0 actual_time=139440
type=note_on channel=0 note=52 velocity=95 time=0 actual_time=139440
type: note_off, time: 240, actual_time: 139680
type: note_off, time: 0, actual_time: 139680
type: note_off, time: 0, actual_time: 139680
type=note_on channel=0 note=64 velocity=95 time=0 actual_time=139680
type=note_on channel=0 note=59 velocity=95 time=0 actual_time=139680
type=note_on channel=0 note=52 velocity=95 time=0 actual_time=139680
type: note_off, time: 240, actual_time: 139920
type: note_off, time: 0, actual_time: 139920
type: note_off, time: 0, actual_time: 139920
type=note_on channel=0 note=67 velocity=95 time=0 actual_time=139920
type=note_on channel=0 note=62 velocity=95 time=0 actual_time=139920
type=note_on channel=0 note=55 velocity=95 time=0 actual_time=139920
type: note_off, time: 480, actual_time: 140400
type: note_off, time: 0, actual_time: 140400
type: note_off, time: 0, actual_time: 140400
type=note_on channel=0 note=67 velocity=95 time=0 actual_time=140400
type=note_on channel=0 note=62 velocity=95 time=0 actual_time=140400
type=note_on channel=0 note=55 velocity=95 time=0 actual_time=140400
type: note_off, time: 480, actual_time: 140880
type: note_off, time: 0, actual_time: 140880
type: note_off, time: 0, actual_time: 140880
type=note_on channel=0 note=66 velocity=95 time=0 actual_time=140880
type=note_on channel=0 note=61 velocity=95 time=0 actual_time=140880
type=note_on channel=0 note=54 velocity=95 time=0 actual_time=140880
type: note_off, time: 480, actual_time: 141360
type: note_off, time: 0, actual_time: 141360
type: note_off, time: 0, actual_time: 141360
type=note_on channel=0 note=66 velocity=95 time=0 actual_time=141360
type=note_on channel=0 note=61 velocity=95 time=0 actual_time=141360
type=note_on channel=0 note=54 velocity=95 time=0 actual_time=141360
type: note_off, time: 240, actual_time: 141600
type: note_off, time: 0, actual_time: 141600
type: note_off, time: 0, actual_time: 141600
type=note_on channel=0 note=64 velocity=95 time=0 actual_time=141600
type=note_on channel=0 note=59 velocity=95 time=0 actual_time=141600
type=note_on channel=0 note=52 velocity=95 time=0 actual_time=141600
type: note_off, time: 480, actual_time: 142080
type: note_off, time: 0, actual_time: 142080
type: note_off, time: 0, actual_time: 142080
type=note_on channel=0 note=60 velocity=95 time=0 actual_time=142080
type=note_on channel=0 note=55 velocity=95 time=0 actual_time=142080
type=note_on channel=0 note=48 velocity=95 time=0 actual_time=142080
type: note_off, time: 720, actual_time: 142800
type: note_off, time: 0, actual_time: 142800
type: note_off, time: 0, actual_time: 142800
type=note_on channel=0 note=60 velocity=95 time=0 actual_time=142800
type=note_on channel=0 note=55 velocity=95 time=0 actual_time=142800
type=note_on channel=0 note=48 velocity=95 time=0 actual_time=142800
type: note_off, time: 240, actual_time: 143040
type: note_off, time: 0, actual_time: 143040
type: note_off, time: 0, actual_time: 143040
type=note_on channel=0 note=60 velocity=95 time=0 actual_time=143040
type=note_on channel=0 note=55 velocity=95 time=0 actual_time=143040
type=note_on channel=0 note=48 velocity=95 time=0 actual_time=143040
type: note_off, time: 480, actual_time: 143520
type: note_off, time: 0, actual_time: 143520
type: note_off, time: 0, actual_time: 143520
type=note_on channel=0 note=59 velocity=95 time=0 actual_time=143520
type=note_on channel=0 note=54 velocity=95 time=0 actual_time=143520
type=note_on channel=0 note=47 velocity=95 time=0 actual_time=143520
type: note_off, time: 240, actual_time: 143760
type: note_off, time: 0, actual_time: 143760
type: note_off, time: 0, actual_time: 143760
type=note_on channel=0 note=59 velocity=95 time=0 actual_time=143760
type=note_on channel=0 note=54 velocity=95 time=0 actual_time=143760
type=note_on channel=0 note=47 velocity=95 time=0 actual_time=143760
type: note_off, time: 480, actual_time: 144240
type: note_off, time: 0, actual_time: 144240
type: note_off, time: 0, actual_time: 144240
type=note_on channel=0 note=59 velocity=95 time=0 actual_time=144240
type=note_on channel=0 note=54 velocity=95 time=0 actual_time=144240
type=note_on channel=0 note=47 velocity=95 time=0 actual_time=144240
type: note_off, time: 480, actual_time: 144720
type: note_off, time: 0, actual_time: 144720
type: note_off, time: 0, actual_time: 144720
type=note_on channel=0 note=60 velocity=95 time=0 actual_time=144720
type=note_on channel=0 note=55 velocity=95 time=0 actual_time=144720
type=note_on channel=0 note=48 velocity=95 time=0 actual_time=144720
type: note_off, time: 480, actual_time: 145200
type: note_off, time: 0, actual_time: 145200
type: note_off, time: 0, actual_time: 145200
type=note_on channel=0 note=60 velocity=95 time=0 actual_time=145200
type=note_on channel=0 note=55 velocity=95 time=0 actual_time=145200
type=note_on channel=0 note=48 velocity=95 time=0 actual_time=145200
type: note_off, time: 240, actual_time: 145440
type: note_off, time: 0, actual_time: 145440
type: note_off, time: 0, actual_time: 145440
type=note_on channel=0 note=62 velocity=95 time=0 actual_time=145440
type=note_on channel=0 note=57 velocity=95 time=0 actual_time=145440
type=note_on channel=0 note=50 velocity=95 time=0 actual_time=145440
type: note_off, time: 480, actual_time: 145920
type: note_off, time: 0, actual_time: 145920
type: note_off, time: 0, actual_time: 145920
type=note_on channel=0 note=64 velocity=95 time=0 actual_time=145920
type=note_on channel=0 note=59 velocity=95 time=0 actual_time=145920
type=note_on channel=0 note=52 velocity=95 time=0 actual_time=145920
type: note_off, time: 720, actual_time: 146640
type: note_off, time: 0, actual_time: 146640
type: note_off, time: 0, actual_time: 146640
type=note_on channel=0 note=64 velocity=95 time=0 actual_time=146640
type=note_on channel=0 note=59 velocity=95 time=0 actual_time=146640
type=note_on channel=0 note=52 velocity=95 time=0 actual_time=146640
type: note_off, time: 240, actual_time: 146880
type: note_off, time: 0, actual_time: 146880
type: note_off, time: 0, actual_time: 146880
type=note_on channel=0 note=64 velocity=95 time=0 actual_time=146880
type=note_on channel=0 note=59 velocity=95 time=0 actual_time=146880
type=note_on channel=0 note=52 velocity=95 time=0 actual_time=146880
type: note_off, time: 240, actual_time: 147120
type: note_off, time: 0, actual_time: 147120
type: note_off, time: 0, actual_time: 147120
type=note_on channel=0 note=64 velocity=95 time=0 actual_time=147120
type=note_on channel=0 note=59 velocity=95 time=0 actual_time=147120
type=note_on channel=0 note=52 velocity=95 time=0 actual_time=147120
type: note_off, time: 240, actual_time: 147360
type: note_off, time: 0, actual_time: 147360
type: note_off, time: 0, actual_time: 147360
type=note_on channel=0 note=64 velocity=95 time=0 actual_time=147360
type=note_on channel=0 note=59 velocity=95 time=0 actual_time=147360
type=note_on channel=0 note=52 velocity=95 time=0 actual_time=147360
type: note_off, time: 240, actual_time: 147600
type: note_off, time: 0, actual_time: 147600
type: note_off, time: 0, actual_time: 147600
type=note_on channel=0 note=67 velocity=95 time=0 actual_time=147600
type=note_on channel=0 note=62 velocity=95 time=0 actual_time=147600
type=note_on channel=0 note=55 velocity=95 time=0 actual_time=147600
type: note_off, time: 480, actual_time: 148080
type: note_off, time: 0, actual_time: 148080
type: note_off, time: 0, actual_time: 148080
type=note_on channel=0 note=67 velocity=95 time=0 actual_time=148080
type=note_on channel=0 note=62 velocity=95 time=0 actual_time=148080
type=note_on channel=0 note=55 velocity=95 time=0 actual_time=148080
type: note_off, time: 480, actual_time: 148560
type: note_off, time: 0, actual_time: 148560
type: note_off, time: 0, actual_time: 148560
type=note_on channel=0 note=66 velocity=95 time=0 actual_time=148560
type=note_on channel=0 note=61 velocity=95 time=0 actual_time=148560
type=note_on channel=0 note=54 velocity=95 time=0 actual_time=148560
type: note_off, time: 480, actual_time: 149040
type: note_off, time: 0, actual_time: 149040
type: note_off, time: 0, actual_time: 149040
type=note_on channel=0 note=66 velocity=95 time=0 actual_time=149040
type=note_on channel=0 note=61 velocity=95 time=0 actual_time=149040
type=note_on channel=0 note=54 velocity=95 time=0 actual_time=149040
type: note_off, time: 240, actual_time: 149280
type: note_off, time: 0, actual_time: 149280
type: note_off, time: 0, actual_time: 149280
type=note_on channel=0 note=69 velocity=95 time=0 actual_time=149280
type=note_on channel=0 note=64 velocity=95 time=0 actual_time=149280
type=note_on channel=0 note=57 velocity=95 time=0 actual_time=149280
type: note_off, time: 480, actual_time: 149760
type: note_off, time: 0, actual_time: 149760
type: note_off, time: 0, actual_time: 149760
type=note_on channel=0 note=60 velocity=95 time=0 actual_time=149760
type=note_on channel=0 note=55 velocity=95 time=0 actual_time=149760
type=note_on channel=0 note=48 velocity=95 time=0 actual_time=149760
type: note_off, time: 720, actual_time: 150480
type: note_off, time: 0, actual_time: 150480
type: note_off, time: 0, actual_time: 150480
type=note_on channel=0 note=60 velocity=95 time=0 actual_time=150480
type=note_on channel=0 note=55 velocity=95 time=0 actual_time=150480
type=note_on channel=0 note=48 velocity=95 time=0 actual_time=150480
type: note_off, time: 240, actual_time: 150720
type: note_off, time: 0, actual_time: 150720
type: note_off, time: 0, actual_time: 150720
type=note_on channel=0 note=60 velocity=95 time=0 actual_time=150720
type=note_on channel=0 note=55 velocity=95 time=0 actual_time=150720
type=note_on channel=0 note=48 velocity=95 time=0 actual_time=150720
type: note_off, time: 480, actual_time: 151200
type: note_off, time: 0, actual_time: 151200
type: note_off, time: 0, actual_time: 151200
type=note_on channel=0 note=59 velocity=95 time=0 actual_time=151200
type=note_on channel=0 note=54 velocity=95 time=0 actual_time=151200
type=note_on channel=0 note=47 velocity=95 time=0 actual_time=151200
type: note_off, time: 240, actual_time: 151440
type: note_off, time: 0, actual_time: 151440
type: note_off, time: 0, actual_time: 151440
type=note_on channel=0 note=59 velocity=95 time=0 actual_time=151440
type=note_on channel=0 note=54 velocity=95 time=0 actual_time=151440
type=note_on channel=0 note=47 velocity=95 time=0 actual_time=151440
type: note_off, time: 480, actual_time: 151920
type: note_off, time: 0, actual_time: 151920
type: note_off, time: 0, actual_time: 151920
type=note_on channel=0 note=59 velocity=95 time=0 actual_time=151920
type=note_on channel=0 note=54 velocity=95 time=0 actual_time=151920
type=note_on channel=0 note=47 velocity=95 time=0 actual_time=151920
type: note_off, time: 480, actual_time: 152400
type: note_off, time: 0, actual_time: 152400
type: note_off, time: 0, actual_time: 152400
type=note_on channel=0 note=60 velocity=95 time=0 actual_time=152400
type=note_on channel=0 note=55 velocity=95 time=0 actual_time=152400
type=note_on channel=0 note=48 velocity=95 time=0 actual_time=152400
type: note_off, time: 480, actual_time: 152880
type: note_off, time: 0, actual_time: 152880
type: note_off, time: 0, actual_time: 152880
type=note_on channel=0 note=60 velocity=95 time=0 actual_time=152880
type=note_on channel=0 note=55 velocity=95 time=0 actual_time=152880
type=note_on channel=0 note=48 velocity=95 time=0 actual_time=152880
type: note_off, time: 240, actual_time: 153120
type: note_off, time: 0, actual_time: 153120
type: note_off, time: 0, actual_time: 153120
type=note_on channel=0 note=62 velocity=95 time=0 actual_time=153120
type=note_on channel=0 note=57 velocity=95 time=0 actual_time=153120
type=note_on channel=0 note=50 velocity=95 time=0 actual_time=153120
type: note_off, time: 480, actual_time: 153600
type: note_off, time: 0, actual_time: 153600
type: note_off, time: 0, actual_time: 153600
type=note_on channel=0 note=64 velocity=95 time=0 actual_time=153600
type=note_on channel=0 note=59 velocity=95 time=0 actual_time=153600
type=note_on channel=0 note=52 velocity=95 time=0 actual_time=153600
type: note_off, time: 720, actual_time: 154320
type: note_off, time: 0, actual_time: 154320
type: note_off, time: 0, actual_time: 154320
type=note_on channel=0 note=64 velocity=95 time=0 actual_time=154320
type=note_on channel=0 note=59 velocity=95 time=0 actual_time=154320
type=note_on channel=0 note=52 velocity=95 time=0 actual_time=154320
type: note_off, time: 240, actual_time: 154560
type: note_off, time: 0, actual_time: 154560
type: note_off, time: 0, actual_time: 154560
type=note_on channel=0 note=64 velocity=95 time=0 actual_time=154560
type=note_on channel=0 note=59 velocity=95 time=0 actual_time=154560
type=note_on channel=0 note=52 velocity=95 time=0 actual_time=154560
type: note_off, time: 240, actual_time: 154800
type: note_off, time: 0, actual_time: 154800
type: note_off, time: 0, actual_time: 154800
type=note_on channel=0 note=64 velocity=95 time=0 actual_time=154800
type=note_on channel=0 note=59 velocity=95 time=0 actual_time=154800
type=note_on channel=0 note=52 velocity=95 time=0 actual_time=154800
type: note_off, time: 240, actual_time: 155040
type: note_off, time: 0, actual_time: 155040
type: note_off, time: 0, actual_time: 155040
type=note_on channel=0 note=64 velocity=95 time=0 actual_time=155040
type=note_on channel=0 note=59 velocity=95 time=0 actual_time=155040
type=note_on channel=0 note=52 velocity=95 time=0 actual_time=155040
type: note_off, time: 240, actual_time: 155280
type: note_off, time: 0, actual_time: 155280
type: note_off, time: 0, actual_time: 155280
type=note_on channel=0 note=67 velocity=95 time=0 actual_time=155280
type=note_on channel=0 note=62 velocity=95 time=0 actual_time=155280
type=note_on channel=0 note=55 velocity=95 time=0 actual_time=155280
type: note_off, time: 480, actual_time: 155760
type: note_off, time: 0, actual_time: 155760
type: note_off, time: 0, actual_time: 155760
type=note_on channel=0 note=67 velocity=95 time=0 actual_time=155760
type=note_on channel=0 note=62 velocity=95 time=0 actual_time=155760
type=note_on channel=0 note=55 velocity=95 time=0 actual_time=155760
type: note_off, time: 480, actual_time: 156240
type: note_off, time: 0, actual_time: 156240
type: note_off, time: 0, actual_time: 156240
type=note_on channel=0 note=66 velocity=95 time=0 actual_time=156240
type=note_on channel=0 note=61 velocity=95 time=0 actual_time=156240
type=note_on channel=0 note=54 velocity=95 time=0 actual_time=156240
type: note_off, time: 480, actual_time: 156720
type: note_off, time: 0, actual_time: 156720
type: note_off, time: 0, actual_time: 156720
type=note_on channel=0 note=66 velocity=95 time=0 actual_time=156720
type=note_on channel=0 note=61 velocity=95 time=0 actual_time=156720
type=note_on channel=0 note=54 velocity=95 time=0 actual_time=156720
type: note_off, time: 240, actual_time: 156960
type: note_off, time: 0, actual_time: 156960
type: note_off, time: 0, actual_time: 156960
type=note_on channel=0 note=64 velocity=95 time=0 actual_time=156960
type=note_on channel=0 note=59 velocity=95 time=0 actual_time=156960
type=note_on channel=0 note=52 velocity=95 time=0 actual_time=156960
type: note_off, time: 480, actual_time: 157440
type: note_off, time: 0, actual_time: 157440
type: note_off, time: 0, actual_time: 157440
type=note_on channel=0 note=60 velocity=95 time=0 actual_time=157440
type=note_on channel=0 note=55 velocity=95 time=0 actual_time=157440
type=note_on channel=0 note=48 velocity=95 time=0 actual_time=157440
type: note_off, time: 720, actual_time: 158160
type: note_off, time: 0, actual_time: 158160
type: note_off, time: 0, actual_time: 158160
type=note_on channel=0 note=60 velocity=95 time=0 actual_time=158160
type=note_on channel=0 note=55 velocity=95 time=0 actual_time=158160
type=note_on channel=0 note=48 velocity=95 time=0 actual_time=158160
type: note_off, time: 240, actual_time: 158400
type: note_off, time: 0, actual_time: 158400
type: note_off, time: 0, actual_time: 158400
type=note_on channel=0 note=60 velocity=95 time=0 actual_time=158400
type=note_on channel=0 note=55 velocity=95 time=0 actual_time=158400
type=note_on channel=0 note=48 velocity=95 time=0 actual_time=158400
type: note_off, time: 480, actual_time: 158880
type: note_off, time: 0, actual_time: 158880
type: note_off, time: 0, actual_time: 158880
type=note_on channel=0 note=59 velocity=95 time=0 actual_time=158880
type=note_on channel=0 note=54 velocity=95 time=0 actual_time=158880
type=note_on channel=0 note=47 velocity=95 time=0 actual_time=158880
type: note_off, time: 240, actual_time: 159120
type: note_off, time: 0, actual_time: 159120
type: note_off, time: 0, actual_time: 159120
type=note_on channel=0 note=59 velocity=95 time=0 actual_time=159120
type=note_on channel=0 note=54 velocity=95 time=0 actual_time=159120
type=note_on channel=0 note=47 velocity=95 time=0 actual_time=159120
type: note_off, time: 480, actual_time: 159600
type: note_off, time: 0, actual_time: 159600
type: note_off, time: 0, actual_time: 159600
type=note_on channel=0 note=59 velocity=95 time=0 actual_time=159600
type=note_on channel=0 note=54 velocity=95 time=0 actual_time=159600
type=note_on channel=0 note=47 velocity=95 time=0 actual_time=159600
type: note_off, time: 480, actual_time: 160080
type: note_off, time: 0, actual_time: 160080
type: note_off, time: 0, actual_time: 160080
type=note_on channel=0 note=60 velocity=95 time=0 actual_time=160080
type=note_on channel=0 note=55 velocity=95 time=0 actual_time=160080
type=note_on channel=0 note=48 velocity=95 time=0 actual_time=160080
type: note_off, time: 480, actual_time: 160560
type: note_off, time: 0, actual_time: 160560
type: note_off, time: 0, actual_time: 160560
type=note_on channel=0 note=60 velocity=95 time=0 actual_time=160560
type=note_on channel=0 note=55 velocity=95 time=0 actual_time=160560
type=note_on channel=0 note=48 velocity=95 time=0 actual_time=160560
type: note_off, time: 240, actual_time: 160800
type: note_off, time: 0, actual_time: 160800
type: note_off, time: 0, actual_time: 160800
type=note_on channel=0 note=62 velocity=95 time=0 actual_time=160800
type=note_on channel=0 note=57 velocity=95 time=0 actual_time=160800
type=note_on channel=0 note=50 velocity=95 time=0 actual_time=160800
type: note_off, time: 480, actual_time: 161280
type: note_off, time: 0, actual_time: 161280
type: note_off, time: 0, actual_time: 161280
type=note_on channel=0 note=64 velocity=95 time=0 actual_time=161280
type=note_on channel=0 note=59 velocity=95 time=0 actual_time=161280
type=note_on channel=0 note=52 velocity=95 time=0 actual_time=161280
type: note_off, time: 720, actual_time: 162000
type: note_off, time: 0, actual_time: 162000
type: note_off, time: 0, actual_time: 162000
type=note_on channel=0 note=64 velocity=95 time=0 actual_time=162000
type=note_on channel=0 note=59 velocity=95 time=0 actual_time=162000
type=note_on channel=0 note=52 velocity=95 time=0 actual_time=162000
type: note_off, time: 240, actual_time: 162240
type: note_off, time: 0, actual_time: 162240
type: note_off, time: 0, actual_time: 162240
type=note_on channel=0 note=64 velocity=95 time=0 actual_time=162240
type=note_on channel=0 note=59 velocity=95 time=0 actual_time=162240
type=note_on channel=0 note=52 velocity=95 time=0 actual_time=162240
type: note_off, time: 240, actual_time: 162480
type: note_off, time: 0, actual_time: 162480
type: note_off, time: 0, actual_time: 162480
type=note_on channel=0 note=64 velocity=95 time=0 actual_time=162480
type=note_on channel=0 note=59 velocity=95 time=0 actual_time=162480
type=note_on channel=0 note=52 velocity=95 time=0 actual_time=162480
type: note_off, time: 240, actual_time: 162720
type: note_off, time: 0, actual_time: 162720
type: note_off, time: 0, actual_time: 162720
type=note_on channel=0 note=64 velocity=95 time=0 actual_time=162720
type=note_on channel=0 note=59 velocity=95 time=0 actual_time=162720
type=note_on channel=0 note=52 velocity=95 time=0 actual_time=162720
type: note_off, time: 240, actual_time: 162960
type: note_off, time: 0, actual_time: 162960
type: note_off, time: 0, actual_time: 162960
type=note_on channel=0 note=67 velocity=95 time=0 actual_time=162960
type=note_on channel=0 note=62 velocity=95 time=0 actual_time=162960
type=note_on channel=0 note=55 velocity=95 time=0 actual_time=162960
type: note_off, time: 480, actual_time: 163440
type: note_off, time: 0, actual_time: 163440
type: note_off, time: 0, actual_time: 163440
type=note_on channel=0 note=67 velocity=95 time=0 actual_time=163440
type=note_on channel=0 note=62 velocity=95 time=0 actual_time=163440
type=note_on channel=0 note=55 velocity=95 time=0 actual_time=163440
type: note_off, time: 480, actual_time: 163920
type: note_off, time: 0, actual_time: 163920
type: note_off, time: 0, actual_time: 163920
type=note_on channel=0 note=66 velocity=95 time=0 actual_time=163920
type=note_on channel=0 note=61 velocity=95 time=0 actual_time=163920
type=note_on channel=0 note=54 velocity=95 time=0 actual_time=163920
type: note_off, time: 480, actual_time: 164400
type: note_off, time: 0, actual_time: 164400
type: note_off, time: 0, actual_time: 164400
type=note_on channel=0 note=66 velocity=95 time=0 actual_time=164400
type=note_on channel=0 note=61 velocity=95 time=0 actual_time=164400
type=note_on channel=0 note=54 velocity=95 time=0 actual_time=164400
type: note_off, time: 240, actual_time: 164640
type: note_off, time: 0, actual_time: 164640
type: note_off, time: 0, actual_time: 164640
type=note_on channel=0 note=69 velocity=95 time=0 actual_time=164640
type=note_on channel=0 note=64 velocity=95 time=0 actual_time=164640
type=note_on channel=0 note=57 velocity=95 time=0 actual_time=164640
type: note_off, time: 480, actual_time: 165120
type: note_off, time: 0, actual_time: 165120
type: note_off, time: 0, actual_time: 165120
type=note_on channel=0 note=60 velocity=95 time=0 actual_time=165120
type=note_on channel=0 note=55 velocity=95 time=0 actual_time=165120
type=note_on channel=0 note=48 velocity=95 time=0 actual_time=165120
type: note_off, time: 720, actual_time: 165840
type: note_off, time: 0, actual_time: 165840
type: note_off, time: 0, actual_time: 165840
type=note_on channel=0 note=60 velocity=95 time=0 actual_time=165840
type=note_on channel=0 note=55 velocity=95 time=0 actual_time=165840
type=note_on channel=0 note=48 velocity=95 time=0 actual_time=165840
type: note_off, time: 240, actual_time: 166080
type: note_off, time: 0, actual_time: 166080
type: note_off, time: 0, actual_time: 166080
type=note_on channel=0 note=60 velocity=95 time=0 actual_time=166080
type=note_on channel=0 note=55 velocity=95 time=0 actual_time=166080
type=note_on channel=0 note=48 velocity=95 time=0 actual_time=166080
type: note_off, time: 480, actual_time: 166560
type: note_off, time: 0, actual_time: 166560
type: note_off, time: 0, actual_time: 166560
type=note_on channel=0 note=59 velocity=95 time=0 actual_time=166560
type=note_on channel=0 note=54 velocity=95 time=0 actual_time=166560
type=note_on channel=0 note=47 velocity=95 time=0 actual_time=166560
type: note_off, time: 240, actual_time: 166800
type: note_off, time: 0, actual_time: 166800
type: note_off, time: 0, actual_time: 166800
type=note_on channel=0 note=59 velocity=95 time=0 actual_time=166800
type=note_on channel=0 note=54 velocity=95 time=0 actual_time=166800
type=note_on channel=0 note=47 velocity=95 time=0 actual_time=166800
type: note_off, time: 480, actual_time: 167280
type: note_off, time: 0, actual_time: 167280
type: note_off, time: 0, actual_time: 167280
type=note_on channel=0 note=59 velocity=95 time=0 actual_time=167280
type=note_on channel=0 note=54 velocity=95 time=0 actual_time=167280
type=note_on channel=0 note=47 velocity=95 time=0 actual_time=167280
type: note_off, time: 480, actual_time: 167760
type: note_off, time: 0, actual_time: 167760
type: note_off, time: 0, actual_time: 167760
type=note_on channel=0 note=60 velocity=95 time=0 actual_time=167760
type=note_on channel=0 note=55 velocity=95 time=0 actual_time=167760
type=note_on channel=0 note=48 velocity=95 time=0 actual_time=167760
type: note_off, time: 480, actual_time: 168240
type: note_off, time: 0, actual_time: 168240
type: note_off, time: 0, actual_time: 168240
type=note_on channel=0 note=60 velocity=95 time=0 actual_time=168240
type=note_on channel=0 note=55 velocity=95 time=0 actual_time=168240
type=note_on channel=0 note=48 velocity=95 time=0 actual_time=168240
type: note_off, time: 240, actual_time: 168480
type: note_off, time: 0, actual_time: 168480
type: note_off, time: 0, actual_time: 168480
type=note_on channel=0 note=62 velocity=95 time=0 actual_time=168480
type=note_on channel=0 note=57 velocity=95 time=0 actual_time=168480
type=note_on channel=0 note=50 velocity=95 time=0 actual_time=168480
type: note_off, time: 480, actual_time: 168960
type: note_off, time: 0, actual_time: 168960
type: note_off, time: 0, actual_time: 168960
type=note_on channel=0 note=64 velocity=95 time=0 actual_time=168960
type=note_on channel=0 note=59 velocity=95 time=0 actual_time=168960
type=note_on channel=0 note=52 velocity=95 time=0 actual_time=168960
type: note_off, time: 720, actual_time: 169680
type: note_off, time: 0, actual_time: 169680
type: note_off, time: 0, actual_time: 169680
type=note_on channel=0 note=47 velocity=31 time=0 actual_time=169680
type=note_on channel=0 note=59 velocity=95 time=0 actual_time=169680
type: note_off, time: 240, actual_time: 169920
type: note_off, time: 0, actual_time: 169920
type=note_on channel=0 note=47 velocity=31 time=0 actual_time=169920
type=note_on channel=0 note=59 velocity=95 time=0 actual_time=169920
type: note_off, time: 240, actual_time: 170160
type: note_off, time: 0, actual_time: 170160
type=note_on channel=0 note=47 velocity=31 time=0 actual_time=170160
type=note_on channel=0 note=59 velocity=95 time=0 actual_time=170160
type: note_off, time: 240, actual_time: 170400
type: note_off, time: 0, actual_time: 170400
type=note_on channel=0 note=64 velocity=95 time=0 actual_time=170400
type=note_on channel=0 note=59 velocity=95 time=0 actual_time=170400
type=note_on channel=0 note=52 velocity=95 time=0 actual_time=170400
type: note_off, time: 720, actual_time: 171120
type: note_off, time: 0, actual_time: 171120
type: note_off, time: 0, actual_time: 171120
type=note_on channel=0 note=47 velocity=31 time=0 actual_time=171120
type=note_on channel=0 note=59 velocity=95 time=0 actual_time=171120
type: note_off, time: 240, actual_time: 171360
type: note_off, time: 0, actual_time: 171360
type=note_on channel=0 note=47 velocity=31 time=0 actual_time=171360
type=note_on channel=0 note=59 velocity=95 time=0 actual_time=171360
type: note_off, time: 240, actual_time: 171600
type: note_off, time: 0, actual_time: 171600
type=note_on channel=0 note=47 velocity=31 time=0 actual_time=171600
type=note_on channel=0 note=59 velocity=95 time=0 actual_time=171600
type: note_off, time: 240, actual_time: 171840
type: note_off, time: 0, actual_time: 171840
type=note_on channel=0 note=64 velocity=95 time=0 actual_time=171840
type=note_on channel=0 note=59 velocity=95 time=0 actual_time=171840
type=note_on channel=0 note=52 velocity=95 time=0 actual_time=171840
type: note_off, time: 480, actual_time: 172320
type: note_off, time: 0, actual_time: 172320
type: note_off, time: 0, actual_time: 172320
type=note_on channel=0 note=64 velocity=95 time=0 actual_time=172320
type=note_on channel=0 note=59 velocity=95 time=0 actual_time=172320
type=note_on channel=0 note=52 velocity=95 time=0 actual_time=172320
type: note_off, time: 240, actual_time: 172560
type: note_off, time: 0, actual_time: 172560
type: note_off, time: 0, actual_time: 172560
type=note_on channel=0 note=64 velocity=95 time=0 actual_time=172560
type=note_on channel=0 note=59 velocity=95 time=0 actual_time=172560
type=note_on channel=0 note=52 velocity=95 time=0 actual_time=172560
type: note_off, time: 240, actual_time: 172800
type: note_off, time: 0, actual_time: 172800
type: note_off, time: 0, actual_time: 172800
type=note_on channel=0 note=67 velocity=95 time=0 actual_time=172800
type=note_on channel=0 note=62 velocity=95 time=0 actual_time=172800
type=note_on channel=0 note=55 velocity=95 time=0 actual_time=172800
type: note_off, time: 720, actual_time: 173520
type: note_off, time: 0, actual_time: 173520
type: note_off, time: 0, actual_time: 173520
type=note_on channel=0 note=66 velocity=95 time=0 actual_time=173520
type=note_on channel=0 note=61 velocity=95 time=0 actual_time=173520
type=note_on channel=0 note=54 velocity=95 time=0 actual_time=173520
type: note_off, time: 720, actual_time: 174240
type: note_off, time: 0, actual_time: 174240
type: note_off, time: 0, actual_time: 174240
type=note_on channel=0 note=69 velocity=95 time=0 actual_time=174240
type=note_on channel=0 note=64 velocity=95 time=0 actual_time=174240
type=note_on channel=0 note=57 velocity=95 time=0 actual_time=174240
type: note_off, time: 720, actual_time: 174960
type: note_off, time: 0, actual_time: 174960
type: note_off, time: 0, actual_time: 174960
type=note_on channel=0 note=69 velocity=95 time=0 actual_time=174960
type=note_on channel=0 note=64 velocity=95 time=0 actual_time=174960
type=note_on channel=0 note=57 velocity=95 time=0 actual_time=174960
type: note_off, time: 240, actual_time: 175200
type: note_off, time: 0, actual_time: 175200
type: note_off, time: 0, actual_time: 175200
type=note_on channel=0 note=69 velocity=95 time=0 actual_time=175200
type=note_on channel=0 note=64 velocity=95 time=0 actual_time=175200
type=note_on channel=0 note=57 velocity=95 time=0 actual_time=175200
type: note_off, time: 240, actual_time: 175440
type: note_off, time: 0, actual_time: 175440
type: note_off, time: 0, actual_time: 175440
type=note_on channel=0 note=69 velocity=95 time=0 actual_time=175440
type=note_on channel=0 note=64 velocity=95 time=0 actual_time=175440
type=note_on channel=0 note=57 velocity=95 time=0 actual_time=175440
type: note_off, time: 43, actual_time: 175483
type: note_off, time: 0, actual_time: 175483
type: note_off, time: 0, actual_time: 175483
type=note_on channel=0 note=69 velocity=95 time=197 actual_time=175680
type=note_on channel=0 note=64 velocity=95 time=0 actual_time=175680
type=note_on channel=0 note=57 velocity=95 time=0 actual_time=175680
type: note_off, time: 240, actual_time: 175920
type: note_off, time: 0, actual_time: 175920
type: note_off, time: 0, actual_time: 175920
type=note_on channel=0 note=69 velocity=95 time=0 actual_time=175920
type=note_on channel=0 note=64 velocity=95 time=0 actual_time=175920
type=note_on channel=0 note=57 velocity=95 time=0 actual_time=175920
type: note_off, time: 240, actual_time: 176160
type: note_off, time: 0, actual_time: 176160
type: note_off, time: 0, actual_time: 176160
type=note_on channel=0 note=66 velocity=95 time=0 actual_time=176160
type=note_on channel=0 note=61 velocity=95 time=0 actual_time=176160
type=note_on channel=0 note=54 velocity=95 time=0 actual_time=176160
type: note_off, time: 43, actual_time: 176203
type: note_off, time: 0, actual_time: 176203
type: note_off, time: 0, actual_time: 176203
type=note_on channel=0 note=67 velocity=95 time=197 actual_time=176400
type=note_on channel=0 note=62 velocity=95 time=0 actual_time=176400
type=note_on channel=0 note=55 velocity=95 time=0 actual_time=176400
type: note_off, time: 43, actual_time: 176443
type: note_off, time: 0, actual_time: 176443
type: note_off, time: 0, actual_time: 176443
type=note_on channel=0 note=64 velocity=95 time=197 actual_time=176640
type=note_on channel=0 note=59 velocity=95 time=0 actual_time=176640
type=note_on channel=0 note=52 velocity=95 time=0 actual_time=176640
type: note_off, time: 720, actual_time: 177360
type: note_off, time: 0, actual_time: 177360
type: note_off, time: 0, actual_time: 177360
type=note_on channel=0 note=47 velocity=31 time=0 actual_time=177360
type=note_on channel=0 note=59 velocity=95 time=0 actual_time=177360
type: note_off, time: 240, actual_time: 177600
type: note_off, time: 0, actual_time: 177600
type=note_on channel=0 note=47 velocity=31 time=0 actual_time=177600
type=note_on channel=0 note=59 velocity=95 time=0 actual_time=177600
type: note_off, time: 240, actual_time: 177840
type: note_off, time: 0, actual_time: 177840
type=note_on channel=0 note=47 velocity=31 time=0 actual_time=177840
type=note_on channel=0 note=59 velocity=95 time=0 actual_time=177840
type: note_off, time: 240, actual_time: 178080
type: note_off, time: 0, actual_time: 178080
type=note_on channel=0 note=64 velocity=95 time=0 actual_time=178080
type=note_on channel=0 note=59 velocity=95 time=0 actual_time=178080
type=note_on channel=0 note=52 velocity=95 time=0 actual_time=178080
type: note_off, time: 720, actual_time: 178800
type: note_off, time: 0, actual_time: 178800
type: note_off, time: 0, actual_time: 178800
type=note_on channel=0 note=47 velocity=31 time=0 actual_time=178800
type=note_on channel=0 note=59 velocity=95 time=0 actual_time=178800
type: note_off, time: 240, actual_time: 179040
type: note_off, time: 0, actual_time: 179040
type=note_on channel=0 note=47 velocity=31 time=0 actual_time=179040
type=note_on channel=0 note=59 velocity=95 time=0 actual_time=179040
type: note_off, time: 240, actual_time: 179280
type: note_off, time: 0, actual_time: 179280
type=note_on channel=0 note=47 velocity=31 time=0 actual_time=179280
type=note_on channel=0 note=59 velocity=95 time=0 actual_time=179280
type: note_off, time: 240, actual_time: 179520
type: note_off, time: 0, actual_time: 179520
type=note_on channel=0 note=64 velocity=95 time=0 actual_time=179520
type=note_on channel=0 note=59 velocity=95 time=0 actual_time=179520
type=note_on channel=0 note=52 velocity=95 time=0 actual_time=179520
type: note_off, time: 480, actual_time: 180000
type: note_off, time: 0, actual_time: 180000
type: note_off, time: 0, actual_time: 180000
type=note_on channel=0 note=64 velocity=95 time=0 actual_time=180000
type=note_on channel=0 note=59 velocity=95 time=0 actual_time=180000
type=note_on channel=0 note=52 velocity=95 time=0 actual_time=180000
type: note_off, time: 240, actual_time: 180240
type: note_off, time: 0, actual_time: 180240
type: note_off, time: 0, actual_time: 180240
type=note_on channel=0 note=64 velocity=95 time=0 actual_time=180240
type=note_on channel=0 note=59 velocity=95 time=0 actual_time=180240
type=note_on channel=0 note=52 velocity=95 time=0 actual_time=180240
type: note_off, time: 240, actual_time: 180480
type: note_off, time: 0, actual_time: 180480
type: note_off, time: 0, actual_time: 180480
type=note_on channel=0 note=60 velocity=95 time=0 actual_time=180480
type=note_on channel=0 note=55 velocity=95 time=0 actual_time=180480
type=note_on channel=0 note=48 velocity=95 time=0 actual_time=180480
type: note_off, time: 480, actual_time: 180960
type: note_off, time: 0, actual_time: 180960
type: note_off, time: 0, actual_time: 180960
type=note_on channel=0 note=66 velocity=95 time=0 actual_time=180960
type=note_on channel=0 note=61 velocity=95 time=0 actual_time=180960
type=note_on channel=0 note=54 velocity=95 time=0 actual_time=180960
type: note_off, time: 43, actual_time: 181003
type: note_off, time: 0, actual_time: 181003
type: note_off, time: 0, actual_time: 181003
type=note_on channel=0 note=59 velocity=95 time=197 actual_time=181200
type=note_on channel=0 note=54 velocity=95 time=0 actual_time=181200
type=note_on channel=0 note=47 velocity=95 time=0 actual_time=181200
type: note_off, time: 480, actual_time: 181680
type: note_off, time: 0, actual_time: 181680
type: note_off, time: 0, actual_time: 181680
type=note_on channel=0 note=57 velocity=95 time=0 actual_time=181680
type=note_on channel=0 note=52 velocity=95 time=0 actual_time=181680
type=note_on channel=0 note=45 velocity=95 time=0 actual_time=181680
type: note_off, time: 240, actual_time: 181920
type: note_off, time: 0, actual_time: 181920
type: note_off, time: 0, actual_time: 181920
type=note_on channel=0 note=57 velocity=95 time=0 actual_time=181920
type=note_on channel=0 note=52 velocity=95 time=0 actual_time=181920
type=note_on channel=0 note=45 velocity=95 time=0 actual_time=181920
type: note_off, time: 720, actual_time: 182640
type: note_off, time: 0, actual_time: 182640
type: note_off, time: 0, actual_time: 182640
type=note_on channel=0 note=45 velocity=95 time=0 actual_time=182640
type: note_off, time: 240, actual_time: 182880
type=note_on channel=0 note=47 velocity=95 time=0 actual_time=182880
type: note_off, time: 240, actual_time: 183120
type=note_on channel=0 note=40 velocity=95 time=0 actual_time=183120
type: note_off, time: 240, actual_time: 183360
type=note_on channel=0 note=47 velocity=95 time=0 actual_time=183360
type: note_off, time: 240, actual_time: 183600
type=note_on channel=0 note=48 velocity=70 time=0 actual_time=183600
type: note_off, time: 240, actual_time: 183840
type=note_on channel=0 note=47 velocity=70 time=0 actual_time=183840
type: note_off, time: 240, actual_time: 184080
type=note_on channel=0 note=45 velocity=70 time=0 actual_time=184080
type: note_off, time: 240, actual_time: 184320
type=note_on channel=0 note=64 velocity=95 time=0 actual_time=184320
type=note_on channel=0 note=59 velocity=95 time=0 actual_time=184320
type=note_on channel=0 note=52 velocity=95 time=0 actual_time=184320
type: note_off, time: 720, actual_time: 185040
type: note_off, time: 0, actual_time: 185040
type: note_off, time: 0, actual_time: 185040
type=note_on channel=0 note=47 velocity=31 time=0 actual_time=185040
type=note_on channel=0 note=59 velocity=95 time=0 actual_time=185040
type: note_off, time: 240, actual_time: 185280
type: note_off, time: 0, actual_time: 185280
type=note_on channel=0 note=47 velocity=31 time=0 actual_time=185280
type=note_on channel=0 note=59 velocity=95 time=0 actual_time=185280
type: note_off, time: 240, actual_time: 185520
type: note_off, time: 0, actual_time: 185520
type=note_on channel=0 note=47 velocity=31 time=0 actual_time=185520
type=note_on channel=0 note=59 velocity=95 time=0 actual_time=185520
type: note_off, time: 240, actual_time: 185760
type: note_off, time: 0, actual_time: 185760
type=note_on channel=0 note=64 velocity=95 time=0 actual_time=185760
type=note_on channel=0 note=59 velocity=95 time=0 actual_time=185760
type=note_on channel=0 note=52 velocity=95 time=0 actual_time=185760
type: note_off, time: 720, actual_time: 186480
type: note_off, time: 0, actual_time: 186480
type: note_off, time: 0, actual_time: 186480
type=note_on channel=0 note=47 velocity=31 time=0 actual_time=186480
type=note_on channel=0 note=59 velocity=95 time=0 actual_time=186480
type: note_off, time: 240, actual_time: 186720
type: note_off, time: 0, actual_time: 186720
type=note_on channel=0 note=47 velocity=31 time=0 actual_time=186720
type=note_on channel=0 note=59 velocity=95 time=0 actual_time=186720
type: note_off, time: 240, actual_time: 186960
type: note_off, time: 0, actual_time: 186960
type=note_on channel=0 note=47 velocity=31 time=0 actual_time=186960
type=note_on channel=0 note=59 velocity=95 time=0 actual_time=186960
type: note_off, time: 240, actual_time: 187200
type: note_off, time: 0, actual_time: 187200
type=note_on channel=0 note=64 velocity=95 time=0 actual_time=187200
type=note_on channel=0 note=59 velocity=95 time=0 actual_time=187200
type=note_on channel=0 note=52 velocity=95 time=0 actual_time=187200
type: note_off, time: 480, actual_time: 187680
type: note_off, time: 0, actual_time: 187680
type: note_off, time: 0, actual_time: 187680
type=note_on channel=0 note=64 velocity=95 time=0 actual_time=187680
type=note_on channel=0 note=59 velocity=95 time=0 actual_time=187680
type=note_on channel=0 note=52 velocity=95 time=0 actual_time=187680
type: note_off, time: 240, actual_time: 187920
type: note_off, time: 0, actual_time: 187920
type: note_off, time: 0, actual_time: 187920
type=note_on channel=0 note=64 velocity=95 time=0 actual_time=187920
type=note_on channel=0 note=59 velocity=95 time=0 actual_time=187920
type=note_on channel=0 note=52 velocity=95 time=0 actual_time=187920
type: note_off, time: 240, actual_time: 188160
type: note_off, time: 0, actual_time: 188160
type: note_off, time: 0, actual_time: 188160
type=note_on channel=0 note=67 velocity=95 time=0 actual_time=188160
type=note_on channel=0 note=62 velocity=95 time=0 actual_time=188160
type=note_on channel=0 note=55 velocity=95 time=0 actual_time=188160
type: note_off, time: 720, actual_time: 188880
type: note_off, time: 0, actual_time: 188880
type: note_off, time: 0, actual_time: 188880
type=note_on channel=0 note=66 velocity=95 time=0 actual_time=188880
type=note_on channel=0 note=61 velocity=95 time=0 actual_time=188880
type=note_on channel=0 note=54 velocity=95 time=0 actual_time=188880
type: note_off, time: 720, actual_time: 189600
type: note_off, time: 0, actual_time: 189600
type: note_off, time: 0, actual_time: 189600
type=note_on channel=0 note=69 velocity=95 time=0 actual_time=189600
type=note_on channel=0 note=64 velocity=95 time=0 actual_time=189600
type=note_on channel=0 note=57 velocity=95 time=0 actual_time=189600
type: note_off, time: 720, actual_time: 190320
type: note_off, time: 0, actual_time: 190320
type: note_off, time: 0, actual_time: 190320
type=note_on channel=0 note=69 velocity=95 time=0 actual_time=190320
type=note_on channel=0 note=64 velocity=95 time=0 actual_time=190320
type=note_on channel=0 note=57 velocity=95 time=0 actual_time=190320
type: note_off, time: 240, actual_time: 190560
type: note_off, time: 0, actual_time: 190560
type: note_off, time: 0, actual_time: 190560
type=note_on channel=0 note=69 velocity=95 time=0 actual_time=190560
type=note_on channel=0 note=64 velocity=95 time=0 actual_time=190560
type=note_on channel=0 note=57 velocity=95 time=0 actual_time=190560
type: note_off, time: 240, actual_time: 190800
type: note_off, time: 0, actual_time: 190800
type: note_off, time: 0, actual_time: 190800
type=note_on channel=0 note=69 velocity=95 time=0 actual_time=190800
type=note_on channel=0 note=64 velocity=95 time=0 actual_time=190800
type=note_on channel=0 note=57 velocity=95 time=0 actual_time=190800
type: note_off, time: 43, actual_time: 190843
type: note_off, time: 0, actual_time: 190843
type: note_off, time: 0, actual_time: 190843
type=note_on channel=0 note=69 velocity=95 time=197 actual_time=191040
type=note_on channel=0 note=64 velocity=95 time=0 actual_time=191040
type=note_on channel=0 note=57 velocity=95 time=0 actual_time=191040
type: note_off, time: 240, actual_time: 191280
type: note_off, time: 0, actual_time: 191280
type: note_off, time: 0, actual_time: 191280
type=note_on channel=0 note=69 velocity=95 time=0 actual_time=191280
type=note_on channel=0 note=64 velocity=95 time=0 actual_time=191280
type=note_on channel=0 note=57 velocity=95 time=0 actual_time=191280
type: note_off, time: 240, actual_time: 191520
type: note_off, time: 0, actual_time: 191520
type: note_off, time: 0, actual_time: 191520
type=note_on channel=0 note=66 velocity=95 time=0 actual_time=191520
type=note_on channel=0 note=61 velocity=95 time=0 actual_time=191520
type=note_on channel=0 note=54 velocity=95 time=0 actual_time=191520
type: note_off, time: 43, actual_time: 191563
type: note_off, time: 0, actual_time: 191563
type: note_off, time: 0, actual_time: 191563
type=note_on channel=0 note=67 velocity=95 time=197 actual_time=191760
type=note_on channel=0 note=62 velocity=95 time=0 actual_time=191760
type=note_on channel=0 note=55 velocity=95 time=0 actual_time=191760
type: note_off, time: 43, actual_time: 191803
type: note_off, time: 0, actual_time: 191803
type: note_off, time: 0, actual_time: 191803
type=note_on channel=0 note=64 velocity=95 time=197 actual_time=192000
type=note_on channel=0 note=59 velocity=95 time=0 actual_time=192000
type=note_on channel=0 note=52 velocity=95 time=0 actual_time=192000
type: note_off, time: 720, actual_time: 192720
type: note_off, time: 0, actual_time: 192720
type: note_off, time: 0, actual_time: 192720
type=note_on channel=0 note=47 velocity=31 time=0 actual_time=192720
type=note_on channel=0 note=59 velocity=95 time=0 actual_time=192720
type: note_off, time: 240, actual_time: 192960
type: note_off, time: 0, actual_time: 192960
type=note_on channel=0 note=47 velocity=31 time=0 actual_time=192960
type=note_on channel=0 note=59 velocity=95 time=0 actual_time=192960
type: note_off, time: 240, actual_time: 193200
type: note_off, time: 0, actual_time: 193200
type=note_on channel=0 note=47 velocity=31 time=0 actual_time=193200
type=note_on channel=0 note=59 velocity=95 time=0 actual_time=193200
type: note_off, time: 240, actual_time: 193440
type: note_off, time: 0, actual_time: 193440
type=note_on channel=0 note=64 velocity=95 time=0 actual_time=193440
type=note_on channel=0 note=59 velocity=95 time=0 actual_time=193440
type=note_on channel=0 note=52 velocity=95 time=0 actual_time=193440
type: note_off, time: 720, actual_time: 194160
type: note_off, time: 0, actual_time: 194160
type: note_off, time: 0, actual_time: 194160
type=note_on channel=0 note=47 velocity=31 time=0 actual_time=194160
type=note_on channel=0 note=59 velocity=95 time=0 actual_time=194160
type: note_off, time: 240, actual_time: 194400
type: note_off, time: 0, actual_time: 194400
type=note_on channel=0 note=47 velocity=31 time=0 actual_time=194400
type=note_on channel=0 note=59 velocity=95 time=0 actual_time=194400
type: note_off, time: 240, actual_time: 194640
type: note_off, time: 0, actual_time: 194640
type=note_on channel=0 note=47 velocity=31 time=0 actual_time=194640
type=note_on channel=0 note=59 velocity=95 time=0 actual_time=194640
type: note_off, time: 240, actual_time: 194880
type: note_off, time: 0, actual_time: 194880
type=note_on channel=0 note=64 velocity=95 time=0 actual_time=194880
type=note_on channel=0 note=59 velocity=95 time=0 actual_time=194880
type=note_on channel=0 note=52 velocity=95 time=0 actual_time=194880
type: note_off, time: 480, actual_time: 195360
type: note_off, time: 0, actual_time: 195360
type: note_off, time: 0, actual_time: 195360
type=note_on channel=0 note=64 velocity=95 time=0 actual_time=195360
type=note_on channel=0 note=59 velocity=95 time=0 actual_time=195360
type=note_on channel=0 note=52 velocity=95 time=0 actual_time=195360
type: note_off, time: 240, actual_time: 195600
type: note_off, time: 0, actual_time: 195600
type: note_off, time: 0, actual_time: 195600
type=note_on channel=0 note=64 velocity=95 time=0 actual_time=195600
type=note_on channel=0 note=59 velocity=95 time=0 actual_time=195600
type=note_on channel=0 note=52 velocity=95 time=0 actual_time=195600
type: note_off, time: 240, actual_time: 195840
type: note_off, time: 0, actual_time: 195840
type: note_off, time: 0, actual_time: 195840
type=note_on channel=0 note=60 velocity=95 time=0 actual_time=195840
type=note_on channel=0 note=55 velocity=95 time=0 actual_time=195840
type=note_on channel=0 note=48 velocity=95 time=0 actual_time=195840
type: note_off, time: 480, actual_time: 196320
type: note_off, time: 0, actual_time: 196320
type: note_off, time: 0, actual_time: 196320
type=note_on channel=0 note=66 velocity=95 time=0 actual_time=196320
type=note_on channel=0 note=61 velocity=95 time=0 actual_time=196320
type=note_on channel=0 note=54 velocity=95 time=0 actual_time=196320
type: note_off, time: 43, actual_time: 196363
type: note_off, time: 0, actual_time: 196363
type: note_off, time: 0, actual_time: 196363
type=note_on channel=0 note=59 velocity=95 time=197 actual_time=196560
type=note_on channel=0 note=54 velocity=95 time=0 actual_time=196560
type=note_on channel=0 note=47 velocity=95 time=0 actual_time=196560
type: note_off, time: 480, actual_time: 197040
type: note_off, time: 0, actual_time: 197040
type: note_off, time: 0, actual_time: 197040
type=note_on channel=0 note=57 velocity=95 time=0 actual_time=197040
type=note_on channel=0 note=52 velocity=95 time=0 actual_time=197040
type=note_on channel=0 note=45 velocity=95 time=0 actual_time=197040
type: note_off, time: 240, actual_time: 197280
type: note_off, time: 0, actual_time: 197280
type: note_off, time: 0, actual_time: 197280
type=note_on channel=0 note=57 velocity=95 time=0 actual_time=197280
type=note_on channel=0 note=52 velocity=95 time=0 actual_time=197280
type=note_on channel=0 note=45 velocity=95 time=0 actual_time=197280
type: note_off, time: 720, actual_time: 198000
type: note_off, time: 0, actual_time: 198000
type: note_off, time: 0, actual_time: 198000
type=note_on channel=0 note=45 velocity=95 time=0 actual_time=198000
type: note_off, time: 240, actual_time: 198240
type=note_on channel=0 note=47 velocity=95 time=0 actual_time=198240
type: note_off, time: 240, actual_time: 198480
type=note_on channel=0 note=40 velocity=95 time=0 actual_time=198480
type: note_off, time: 240, actual_time: 198720
type=note_on channel=0 note=47 velocity=95 time=0 actual_time=198720
type: note_off, time: 240, actual_time: 198960
type=note_on channel=0 note=48 velocity=70 time=0 actual_time=198960
type: note_off, time: 240, actual_time: 199200
type=note_on channel=0 note=47 velocity=70 time=0 actual_time=199200
type: note_off, time: 240, actual_time: 199440
type=note_on channel=0 note=45 velocity=70 time=0 actual_time=199440
type: note_off, time: 240, actual_time: 199680
type=note_on channel=1 note=52 velocity=95 time=0 actual_time=199680
type: pitchwheel, time: 160, actual_time: 199840
type: pitchwheel, time: 160, actual_time: 200000
type: pitchwheel, time: 160, actual_time: 200160
type: pitchwheel, time: 160, actual_time: 200320
type: pitchwheel, time: 160, actual_time: 200480
type: pitchwheel, time: 160, actual_time: 200640
type: pitchwheel, time: 160, actual_time: 200800
type: pitchwheel, time: 160, actual_time: 200960
type: pitchwheel, time: 160, actual_time: 201120
type: pitchwheel, time: 160, actual_time: 201280
type: pitchwheel, time: 160, actual_time: 201440
type: pitchwheel, time: 160, actual_time: 201600
type: pitchwheel, time: 160, actual_time: 201760
type: pitchwheel, time: 80, actual_time: 201840
type: pitchwheel, time: 0, actual_time: 201840
type: note_off, time: 0, actual_time: 201840
type=note_on channel=0 note=55 velocity=95 time=0 actual_time=201840
type: note_off, time: 480, actual_time: 202320
type=note_on channel=0 note=54 velocity=95 time=0 actual_time=202320
type: note_off, time: 240, actual_time: 202560
type=note_on channel=0 note=55 velocity=95 time=0 actual_time=202560
type: note_off, time: 240, actual_time: 202800
type=note_on channel=0 note=54 velocity=95 time=0 actual_time=202800
type: note_off, time: 240, actual_time: 203040
type=note_on channel=0 note=50 velocity=95 time=0 actual_time=203040
type: note_off, time: 240, actual_time: 203280
type=note_on channel=0 note=50 velocity=95 time=0 actual_time=203280
type=note_on channel=1 note=50 velocity=95 time=60 actual_time=203340
type: note_off, time: 180, actual_time: 203520
type: note_off, time: 0, actual_time: 203520
type=note_on channel=1 note=52 velocity=95 time=0 actual_time=203520
type: pitchwheel, time: 160, actual_time: 203680
type: pitchwheel, time: 160, actual_time: 203840
type: pitchwheel, time: 160, actual_time: 204000
type: pitchwheel, time: 160, actual_time: 204160
type: pitchwheel, time: 160, actual_time: 204320
type: pitchwheel, time: 160, actual_time: 204480
type: pitchwheel, time: 160, actual_time: 204640
type: pitchwheel, time: 160, actual_time: 204800
type: pitchwheel, time: 160, actual_time: 204960
type: pitchwheel, time: 160, actual_time: 205120
type: pitchwheel, time: 160, actual_time: 205280
type: pitchwheel, time: 160, actual_time: 205440
type: pitchwheel, time: 160, actual_time: 205600
type: pitchwheel, time: 80, actual_time: 205680
type: pitchwheel, time: 0, actual_time: 205680
type: note_off, time: 0, actual_time: 205680
type=note_on channel=0 note=55 velocity=95 time=0 actual_time=205680
type: note_off, time: 480, actual_time: 206160
type=note_on channel=0 note=54 velocity=95 time=0 actual_time=206160
type: note_off, time: 240, actual_time: 206400
type=note_on channel=0 note=55 velocity=95 time=0 actual_time=206400
type: note_off, time: 240, actual_time: 206640
type=note_on channel=0 note=54 velocity=95 time=0 actual_time=206640
type: note_off, time: 240, actual_time: 206880
type=note_on channel=0 note=57 velocity=95 time=0 actual_time=206880
type: note_off, time: 480, actual_time: 207360
type=note_on channel=0 note=55 velocity=95 time=0 actual_time=207360
type: note_off, time: 960, actual_time: 208320
type=note_on channel=0 note=55 velocity=95 time=0 actual_time=208320
type: note_off, time: 240, actual_time: 208560
type=note_on channel=0 note=55 velocity=95 time=0 actual_time=208560
type: note_off, time: 240, actual_time: 208800
type=note_on channel=0 note=55 velocity=95 time=0 actual_time=208800
type: note_off, time: 240, actual_time: 209040
type=note_on channel=0 note=55 velocity=95 time=0 actual_time=209040
type: note_off, time: 480, actual_time: 209520
type=note_on channel=0 note=55 velocity=95 time=0 actual_time=209520
type: note_off, time: 480, actual_time: 210000
type=note_on channel=0 note=54 velocity=95 time=0 actual_time=210000
type: note_off, time: 240, actual_time: 210240
type=note_on channel=0 note=55 velocity=95 time=0 actual_time=210240
type: note_off, time: 240, actual_time: 210480
type=note_on channel=0 note=54 velocity=95 time=0 actual_time=210480
type: note_off, time: 240, actual_time: 210720
type=note_on channel=0 note=50 velocity=95 time=0 actual_time=210720
type: note_off, time: 240, actual_time: 210960
type=note_on channel=0 note=50 velocity=95 time=0 actual_time=210960
type=note_on channel=1 note=50 velocity=95 time=60 actual_time=211020
type: note_off, time: 180, actual_time: 211200
type: note_off, time: 0, actual_time: 211200
type=note_on channel=1 note=52 velocity=95 time=0 actual_time=211200
type: note_off, time: 480, actual_time: 211680
type=note_on channel=0 note=40 velocity=95 time=0 actual_time=211680
type: note_off, time: 240, actual_time: 211920
type=note_on channel=0 note=40 velocity=95 time=0 actual_time=211920
type: note_off, time: 240, actual_time: 212160
type=note_on channel=0 note=52 velocity=95 time=0 actual_time=212160
type: note_off, time: 240, actual_time: 212400
type=note_on channel=0 note=40 velocity=95 time=0 actual_time=212400
type: note_off, time: 240, actual_time: 212640
type=note_on channel=0 note=40 velocity=95 time=0 actual_time=212640
type: note_off, time: 240, actual_time: 212880
type=note_on channel=0 note=52 velocity=95 time=0 actual_time=212880
type: note_off, time: 480, actual_time: 213360
type=note_on channel=0 note=52 velocity=95 time=0 actual_time=213360
type: note_off, time: 240, actual_time: 213600
type=note_on channel=0 note=52 velocity=95 time=0 actual_time=213600
type: note_off, time: 1440, actual_time: 215040
type=note_on channel=1 note=62 velocity=95 time=0 actual_time=215040
type: pitchwheel, time: 120, actual_time: 215160
type: pitchwheel, time: 120, actual_time: 215280
type: pitchwheel, time: 0, actual_time: 215280
type: note_off, time: 0, actual_time: 215280
type=note_on channel=1 note=64 velocity=95 time=0 actual_time=215280
type: pitchwheel, time: 160, actual_time: 215440
type: pitchwheel, time: 160, actual_time: 215600
type: pitchwheel, time: 160, actual_time: 215760
type: pitchwheel, time: 160, actual_time: 215920
type: pitchwheel, time: 160, actual_time: 216080
type: pitchwheel, time: 160, actual_time: 216240
type: pitchwheel, time: 160, actual_time: 216400
type: pitchwheel, time: 160, actual_time: 216560
type: pitchwheel, time: 160, actual_time: 216720
type: pitchwheel, time: 160, actual_time: 216880
type: pitchwheel, time: 160, actual_time: 217040
type: pitchwheel, time: 160, actual_time: 217200
type: pitchwheel, time: 0, actual_time: 217200
type: note_off, time: 0, actual_time: 217200
type=note_on channel=0 note=67 velocity=95 time=0 actual_time=217200
type: note_off, time: 480, actual_time: 217680
type=note_on channel=0 note=66 velocity=95 time=0 actual_time=217680
type: note_off, time: 240, actual_time: 217920
type=note_on channel=0 note=67 velocity=95 time=0 actual_time=217920
type: note_off, time: 240, actual_time: 218160
type=note_on channel=0 note=66 velocity=95 time=0 actual_time=218160
type: note_off, time: 240, actual_time: 218400
type=note_on channel=0 note=62 velocity=95 time=0 actual_time=218400
type: note_off, time: 480, actual_time: 218880
type=note_on channel=1 note=62 velocity=95 time=0 actual_time=218880
type: pitchwheel, time: 120, actual_time: 219000
type: pitchwheel, time: 120, actual_time: 219120
type: pitchwheel, time: 0, actual_time: 219120
type: note_off, time: 0, actual_time: 219120
type=note_on channel=1 note=64 velocity=95 time=0 actual_time=219120
type: pitchwheel, time: 160, actual_time: 219280
type: pitchwheel, time: 160, actual_time: 219440
type: pitchwheel, time: 160, actual_time: 219600
type: pitchwheel, time: 160, actual_time: 219760
type: pitchwheel, time: 160, actual_time: 219920
type: pitchwheel, time: 160, actual_time: 220080
type: pitchwheel, time: 160, actual_time: 220240
type: pitchwheel, time: 160, actual_time: 220400
type: pitchwheel, time: 160, actual_time: 220560
type: pitchwheel, time: 160, actual_time: 220720
type: pitchwheel, time: 160, actual_time: 220880
type: pitchwheel, time: 160, actual_time: 221040
type: pitchwheel, time: 0, actual_time: 221040
type: note_off, time: 0, actual_time: 221040
type=note_on channel=0 note=67 velocity=95 time=0 actual_time=221040
type: note_off, time: 480, actual_time: 221520
type=note_on channel=0 note=66 velocity=95 time=0 actual_time=221520
type: note_off, time: 240, actual_time: 221760
type=note_on channel=0 note=67 velocity=95 time=0 actual_time=221760
type: note_off, time: 240, actual_time: 222000
type=note_on channel=0 note=66 velocity=95 time=0 actual_time=222000
type: note_off, time: 240, actual_time: 222240
type=note_on channel=0 note=69 velocity=95 time=0 actual_time=222240
type: note_off, time: 480, actual_time: 222720
type=note_on channel=0 note=67 velocity=95 time=0 actual_time=222720
type: note_off, time: 960, actual_time: 223680
type=note_on channel=0 note=67 velocity=95 time=0 actual_time=223680
type: note_off, time: 480, actual_time: 224160
type=note_on channel=0 note=67 velocity=95 time=0 actual_time=224160
type: note_off, time: 240, actual_time: 224400
type=note_on channel=0 note=67 velocity=95 time=0 actual_time=224400
type: note_off, time: 480, actual_time: 224880
type=note_on channel=0 note=67 velocity=95 time=0 actual_time=224880
type: note_off, time: 480, actual_time: 225360
type=note_on channel=0 note=66 velocity=95 time=0 actual_time=225360
type: note_off, time: 240, actual_time: 225600
type=note_on channel=0 note=67 velocity=95 time=0 actual_time=225600
type: note_off, time: 240, actual_time: 225840
type=note_on channel=0 note=66 velocity=95 time=0 actual_time=225840
type: note_off, time: 240, actual_time: 226080
type=note_on channel=0 note=62 velocity=95 time=0 actual_time=226080
type: note_off, time: 480, actual_time: 226560
type=note_on channel=1 note=62 velocity=95 time=0 actual_time=226560
type: pitchwheel, time: 120, actual_time: 226680
type: pitchwheel, time: 120, actual_time: 226800
type: pitchwheel, time: 0, actual_time: 226800
type: note_off, time: 0, actual_time: 226800
type=note_on channel=1 note=64 velocity=95 time=0 actual_time=226800
type: pitchwheel, time: 160, actual_time: 226960
type: pitchwheel, time: 160, actual_time: 227120
type: pitchwheel, time: 160, actual_time: 227280
type: pitchwheel, time: 160, actual_time: 227440
type: pitchwheel, time: 160, actual_time: 227600
type: pitchwheel, time: 160, actual_time: 227760
type: pitchwheel, time: 160, actual_time: 227920
type: pitchwheel, time: 160, actual_time: 228080
type: pitchwheel, time: 160, actual_time: 228240
type: pitchwheel, time: 160, actual_time: 228400
type: pitchwheel, time: 160, actual_time: 228560
type: pitchwheel, time: 160, actual_time: 228720
type: pitchwheel, time: 160, actual_time: 228880
type: pitchwheel, time: 160, actual_time: 229040
type: pitchwheel, time: 160, actual_time: 229200
type: pitchwheel, time: 160, actual_time: 229360
type: pitchwheel, time: 160, actual_time: 229520
type: pitchwheel, time: 160, actual_time: 229680
type: pitchwheel, time: 160, actual_time: 229840
type: pitchwheel, time: 160, actual_time: 230000
type: pitchwheel, time: 160, actual_time: 230160
type: pitchwheel, time: 160, actual_time: 230320
type: pitchwheel, time: 80, actual_time: 230400
type: pitchwheel, time: 0, actual_time: 230400
type: pitchwheel, time: 0, actual_time: 230400
type: note_off, time: 0, actual_time: 230400
type=note_on channel=0 note=50 velocity=95 time=0 actual_time=230400
type: note_off, time: 240, actual_time: 230640
type=note_on channel=0 note=52 velocity=70 time=0 actual_time=230640
type: note_off, time: 240, actual_time: 230880
type=note_on channel=0 note=40 velocity=95 time=0 actual_time=230880
type: note_off, time: 240, actual_time: 231120
type=note_on channel=0 note=40 velocity=95 time=0 actual_time=231120
type: note_off, time: 240, actual_time: 231360
type=note_on channel=0 note=40 velocity=95 time=0 actual_time=231360
type: note_off, time: 240, actual_time: 231600
type=note_on channel=0 note=40 velocity=95 time=0 actual_time=231600
type: note_off, time: 240, actual_time: 231840
type=note_on channel=0 note=40 velocity=95 time=0 actual_time=231840
type: note_off, time: 240, actual_time: 232080
type=note_on channel=0 note=48 velocity=95 time=0 actual_time=232080
type: note_off, time: 240, actual_time: 232320
type=note_on channel=0 note=40 velocity=95 time=0 actual_time=232320
type: note_off, time: 240, actual_time: 232560
type=note_on channel=0 note=47 velocity=95 time=0 actual_time=232560
type: note_off, time: 240, actual_time: 232800
type=note_on channel=0 note=40 velocity=95 time=0 actual_time=232800
type: note_off, time: 240, actual_time: 233040
type=note_on channel=0 note=40 velocity=95 time=0 actual_time=233040
type: note_off, time: 240, actual_time: 233280
type=note_on channel=0 note=47 velocity=95 time=0 actual_time=233280
type: note_off, time: 240, actual_time: 233520
type=note_on channel=0 note=40 velocity=95 time=0 actual_time=233520
type: note_off, time: 240, actual_time: 233760
type=note_on channel=0 note=48 velocity=95 time=0 actual_time=233760
type: note_off, time: 240, actual_time: 234000
type=note_on channel=0 note=40 velocity=95 time=0 actual_time=234000
type: note_off, time: 240, actual_time: 234240
type=note_on channel=0 note=50 velocity=95 time=0 actual_time=234240
type: note_off, time: 240, actual_time: 234480
type=note_on channel=0 note=52 velocity=70 time=0 actual_time=234480
type: note_off, time: 240, actual_time: 234720
type=note_on channel=0 note=40 velocity=95 time=0 actual_time=234720
type: note_off, time: 240, actual_time: 234960
type=note_on channel=0 note=40 velocity=95 time=0 actual_time=234960
type: note_off, time: 240, actual_time: 235200
type=note_on channel=0 note=40 velocity=95 time=0 actual_time=235200
type: note_off, time: 240, actual_time: 235440
type=note_on channel=0 note=40 velocity=95 time=0 actual_time=235440
type: note_off, time: 240, actual_time: 235680
type=note_on channel=0 note=40 velocity=95 time=0 actual_time=235680
type: note_off, time: 240, actual_time: 235920
type=note_on channel=0 note=48 velocity=95 time=0 actual_time=235920
type: note_off, time: 240, actual_time: 236160
type=note_on channel=0 note=40 velocity=95 time=0 actual_time=236160
type: note_off, time: 240, actual_time: 236400
type=note_on channel=0 note=47 velocity=95 time=0 actual_time=236400
type: note_off, time: 240, actual_time: 236640
type=note_on channel=0 note=40 velocity=95 time=0 actual_time=236640
type: note_off, time: 240, actual_time: 236880
type=note_on channel=0 note=40 velocity=95 time=0 actual_time=236880
type: note_off, time: 240, actual_time: 237120
type=note_on channel=0 note=47 velocity=95 time=0 actual_time=237120
type: note_off, time: 240, actual_time: 237360
type=note_on channel=0 note=48 velocity=70 time=0 actual_time=237360
type: note_off, time: 240, actual_time: 237600
type=note_on channel=0 note=47 velocity=70 time=0 actual_time=237600
type: note_off, time: 240, actual_time: 237840
type=note_on channel=0 note=45 velocity=70 time=0 actual_time=237840
type: note_off, time: 240, actual_time: 238080
type=note_on channel=0 note=50 velocity=95 time=0 actual_time=238080
type: note_off, time: 240, actual_time: 238320
type=note_on channel=0 note=52 velocity=70 time=0 actual_time=238320
type: note_off, time: 240, actual_time: 238560
type=note_on channel=0 note=40 velocity=95 time=0 actual_time=238560
type: note_off, time: 240, actual_time: 238800
type=note_on channel=0 note=40 velocity=95 time=0 actual_time=238800
type: note_off, time: 240, actual_time: 239040
type=note_on channel=0 note=40 velocity=95 time=0 actual_time=239040
type: note_off, time: 240, actual_time: 239280
type=note_on channel=0 note=40 velocity=95 time=0 actual_time=239280
type: note_off, time: 240, actual_time: 239520
type=note_on channel=0 note=40 velocity=95 time=0 actual_time=239520
type: note_off, time: 240, actual_time: 239760
type=note_on channel=0 note=48 velocity=95 time=0 actual_time=239760
type: note_off, time: 240, actual_time: 240000
type=note_on channel=0 note=40 velocity=95 time=0 actual_time=240000
type: note_off, time: 240, actual_time: 240240
type=note_on channel=0 note=47 velocity=95 time=0 actual_time=240240
type: note_off, time: 240, actual_time: 240480
type=note_on channel=0 note=40 velocity=95 time=0 actual_time=240480
type: note_off, time: 240, actual_time: 240720
type=note_on channel=0 note=40 velocity=95 time=0 actual_time=240720
type: note_off, time: 240, actual_time: 240960
type=note_on channel=0 note=47 velocity=95 time=0 actual_time=240960
type: note_off, time: 240, actual_time: 241200
type=note_on channel=0 note=40 velocity=95 time=0 actual_time=241200
type: note_off, time: 240, actual_time: 241440
type=note_on channel=0 note=48 velocity=95 time=0 actual_time=241440
type: note_off, time: 240, actual_time: 241680
type=note_on channel=0 note=40 velocity=95 time=0 actual_time=241680
type: note_off, time: 240, actual_time: 241920
type=note_on channel=0 note=50 velocity=95 time=0 actual_time=241920
type: note_off, time: 240, actual_time: 242160
type=note_on channel=0 note=52 velocity=70 time=0 actual_time=242160
type: note_off, time: 240, actual_time: 242400
type=note_on channel=0 note=40 velocity=95 time=0 actual_time=242400
type: note_off, time: 240, actual_time: 242640
type=note_on channel=0 note=40 velocity=95 time=0 actual_time=242640
type: note_off, time: 240, actual_time: 242880
type=note_on channel=0 note=40 velocity=95 time=0 actual_time=242880
type: note_off, time: 240, actual_time: 243120
type=note_on channel=0 note=40 velocity=95 time=0 actual_time=243120
type: note_off, time: 240, actual_time: 243360
type=note_on channel=0 note=40 velocity=95 time=0 actual_time=243360
type: note_off, time: 240, actual_time: 243600
type=note_on channel=0 note=48 velocity=95 time=0 actual_time=243600
type: note_off, time: 240, actual_time: 243840
type=note_on channel=0 note=40 velocity=95 time=0 actual_time=243840
type: note_off, time: 240, actual_time: 244080
type=note_on channel=0 note=47 velocity=95 time=0 actual_time=244080
type: note_off, time: 240, actual_time: 244320
type=note_on channel=0 note=40 velocity=95 time=0 actual_time=244320
type: note_off, time: 240, actual_time: 244560
type=note_on channel=0 note=40 velocity=95 time=0 actual_time=244560
type: note_off, time: 240, actual_time: 244800
type=note_on channel=0 note=47 velocity=95 time=0 actual_time=244800
type: note_off, time: 240, actual_time: 245040
type=note_on channel=0 note=48 velocity=70 time=0 actual_time=245040
type: note_off, time: 240, actual_time: 245280
type=note_on channel=0 note=47 velocity=70 time=0 actual_time=245280
type: note_off, time: 240, actual_time: 245520
type=note_on channel=0 note=45 velocity=70 time=0 actual_time=245520
type: note_off, time: 240, actual_time: 245760
type=note_on channel=0 note=64 velocity=95 time=0 actual_time=245760
type=note_on channel=0 note=59 velocity=95 time=0 actual_time=245760
type=note_on channel=0 note=52 velocity=95 time=0 actual_time=245760
type: note_off, time: 720, actual_time: 246480
type: note_off, time: 0, actual_time: 246480
type: note_off, time: 0, actual_time: 246480
type=note_on channel=0 note=64 velocity=95 time=0 actual_time=246480
type=note_on channel=0 note=59 velocity=95 time=0 actual_time=246480
type=note_on channel=0 note=52 velocity=95 time=0 actual_time=246480
type: note_off, time: 240, actual_time: 246720
type: note_off, time: 0, actual_time: 246720
type: note_off, time: 0, actual_time: 246720
type=note_on channel=0 note=64 velocity=95 time=0 actual_time=246720
type=note_on channel=0 note=59 velocity=95 time=0 actual_time=246720
type=note_on channel=0 note=52 velocity=95 time=0 actual_time=246720
type: note_off, time: 240, actual_time: 246960
type: note_off, time: 0, actual_time: 246960
type: note_off, time: 0, actual_time: 246960
type=note_on channel=0 note=64 velocity=95 time=0 actual_time=246960
type=note_on channel=0 note=59 velocity=95 time=0 actual_time=246960
type=note_on channel=0 note=52 velocity=95 time=0 actual_time=246960
type: note_off, time: 240, actual_time: 247200
type: note_off, time: 0, actual_time: 247200
type: note_off, time: 0, actual_time: 247200
type=note_on channel=0 note=64 velocity=95 time=0 actual_time=247200
type=note_on channel=0 note=59 velocity=95 time=0 actual_time=247200
type=note_on channel=0 note=52 velocity=95 time=0 actual_time=247200
type: note_off, time: 240, actual_time: 247440
type: note_off, time: 0, actual_time: 247440
type: note_off, time: 0, actual_time: 247440
type=note_on channel=0 note=67 velocity=95 time=0 actual_time=247440
type=note_on channel=0 note=62 velocity=95 time=0 actual_time=247440
type=note_on channel=0 note=55 velocity=95 time=0 actual_time=247440
type: note_off, time: 480, actual_time: 247920
type: note_off, time: 0, actual_time: 247920
type: note_off, time: 0, actual_time: 247920
type=note_on channel=0 note=67 velocity=95 time=0 actual_time=247920
type=note_on channel=0 note=62 velocity=95 time=0 actual_time=247920
type=note_on channel=0 note=55 velocity=95 time=0 actual_time=247920
type: note_off, time: 480, actual_time: 248400
type: note_off, time: 0, actual_time: 248400
type: note_off, time: 0, actual_time: 248400
type=note_on channel=0 note=66 velocity=95 time=0 actual_time=248400
type=note_on channel=0 note=61 velocity=95 time=0 actual_time=248400
type=note_on channel=0 note=54 velocity=95 time=0 actual_time=248400
type: note_off, time: 480, actual_time: 248880
type: note_off, time: 0, actual_time: 248880
type: note_off, time: 0, actual_time: 248880
type=note_on channel=0 note=66 velocity=95 time=0 actual_time=248880
type=note_on channel=0 note=61 velocity=95 time=0 actual_time=248880
type=note_on channel=0 note=54 velocity=95 time=0 actual_time=248880
type: note_off, time: 240, actual_time: 249120
type: note_off, time: 0, actual_time: 249120
type: note_off, time: 0, actual_time: 249120
type=note_on channel=0 note=64 velocity=95 time=0 actual_time=249120
type=note_on channel=0 note=59 velocity=95 time=0 actual_time=249120
type=note_on channel=0 note=52 velocity=95 time=0 actual_time=249120
type: note_off, time: 480, actual_time: 249600
type: note_off, time: 0, actual_time: 249600
type: note_off, time: 0, actual_time: 249600
type=note_on channel=0 note=60 velocity=95 time=0 actual_time=249600
type=note_on channel=0 note=55 velocity=95 time=0 actual_time=249600
type=note_on channel=0 note=48 velocity=95 time=0 actual_time=249600
type: note_off, time: 720, actual_time: 250320
type: note_off, time: 0, actual_time: 250320
type: note_off, time: 0, actual_time: 250320
type=note_on channel=0 note=60 velocity=95 time=0 actual_time=250320
type=note_on channel=0 note=55 velocity=95 time=0 actual_time=250320
type=note_on channel=0 note=48 velocity=95 time=0 actual_time=250320
type: note_off, time: 240, actual_time: 250560
type: note_off, time: 0, actual_time: 250560
type: note_off, time: 0, actual_time: 250560
type=note_on channel=0 note=60 velocity=95 time=0 actual_time=250560
type=note_on channel=0 note=55 velocity=95 time=0 actual_time=250560
type=note_on channel=0 note=48 velocity=95 time=0 actual_time=250560
type: note_off, time: 480, actual_time: 251040
type: note_off, time: 0, actual_time: 251040
type: note_off, time: 0, actual_time: 251040
type=note_on channel=0 note=59 velocity=95 time=0 actual_time=251040
type=note_on channel=0 note=54 velocity=95 time=0 actual_time=251040
type=note_on channel=0 note=47 velocity=95 time=0 actual_time=251040
type: note_off, time: 240, actual_time: 251280
type: note_off, time: 0, actual_time: 251280
type: note_off, time: 0, actual_time: 251280
type=note_on channel=0 note=59 velocity=95 time=0 actual_time=251280
type=note_on channel=0 note=54 velocity=95 time=0 actual_time=251280
type=note_on channel=0 note=47 velocity=95 time=0 actual_time=251280
type: note_off, time: 480, actual_time: 251760
type: note_off, time: 0, actual_time: 251760
type: note_off, time: 0, actual_time: 251760
type=note_on channel=0 note=59 velocity=95 time=0 actual_time=251760
type=note_on channel=0 note=54 velocity=95 time=0 actual_time=251760
type=note_on channel=0 note=47 velocity=95 time=0 actual_time=251760
type: note_off, time: 480, actual_time: 252240
type: note_off, time: 0, actual_time: 252240
type: note_off, time: 0, actual_time: 252240
type=note_on channel=0 note=60 velocity=95 time=0 actual_time=252240
type=note_on channel=0 note=55 velocity=95 time=0 actual_time=252240
type=note_on channel=0 note=48 velocity=95 time=0 actual_time=252240
type: note_off, time: 480, actual_time: 252720
type: note_off, time: 0, actual_time: 252720
type: note_off, time: 0, actual_time: 252720
type=note_on channel=0 note=60 velocity=95 time=0 actual_time=252720
type=note_on channel=0 note=55 velocity=95 time=0 actual_time=252720
type=note_on channel=0 note=48 velocity=95 time=0 actual_time=252720
type: note_off, time: 240, actual_time: 252960
type: note_off, time: 0, actual_time: 252960
type: note_off, time: 0, actual_time: 252960
type=note_on channel=0 note=62 velocity=95 time=0 actual_time=252960
type=note_on channel=0 note=57 velocity=95 time=0 actual_time=252960
type=note_on channel=0 note=50 velocity=95 time=0 actual_time=252960
type: note_off, time: 480, actual_time: 253440
type: note_off, time: 0, actual_time: 253440
type: note_off, time: 0, actual_time: 253440
type=note_on channel=0 note=64 velocity=95 time=0 actual_time=253440
type=note_on channel=0 note=59 velocity=95 time=0 actual_time=253440
type=note_on channel=0 note=52 velocity=95 time=0 actual_time=253440
type: note_off, time: 720, actual_time: 254160
type: note_off, time: 0, actual_time: 254160
type: note_off, time: 0, actual_time: 254160
type=note_on channel=0 note=64 velocity=95 time=0 actual_time=254160
type=note_on channel=0 note=59 velocity=95 time=0 actual_time=254160
type=note_on channel=0 note=52 velocity=95 time=0 actual_time=254160
type: note_off, time: 240, actual_time: 254400
type: note_off, time: 0, actual_time: 254400
type: note_off, time: 0, actual_time: 254400
type=note_on channel=0 note=64 velocity=95 time=0 actual_time=254400
type=note_on channel=0 note=59 velocity=95 time=0 actual_time=254400
type=note_on channel=0 note=52 velocity=95 time=0 actual_time=254400
type: note_off, time: 240, actual_time: 254640
type: note_off, time: 0, actual_time: 254640
type: note_off, time: 0, actual_time: 254640
type=note_on channel=0 note=64 velocity=95 time=0 actual_time=254640
type=note_on channel=0 note=59 velocity=95 time=0 actual_time=254640
type=note_on channel=0 note=52 velocity=95 time=0 actual_time=254640
type: note_off, time: 240, actual_time: 254880
type: note_off, time: 0, actual_time: 254880
type: note_off, time: 0, actual_time: 254880
type=note_on channel=0 note=64 velocity=95 time=0 actual_time=254880
type=note_on channel=0 note=59 velocity=95 time=0 actual_time=254880
type=note_on channel=0 note=52 velocity=95 time=0 actual_time=254880
type: note_off, time: 240, actual_time: 255120
type: note_off, time: 0, actual_time: 255120
type: note_off, time: 0, actual_time: 255120
type=note_on channel=0 note=67 velocity=95 time=0 actual_time=255120
type=note_on channel=0 note=62 velocity=95 time=0 actual_time=255120
type=note_on channel=0 note=55 velocity=95 time=0 actual_time=255120
type: note_off, time: 480, actual_time: 255600
type: note_off, time: 0, actual_time: 255600
type: note_off, time: 0, actual_time: 255600
type=note_on channel=0 note=67 velocity=95 time=0 actual_time=255600
type=note_on channel=0 note=62 velocity=95 time=0 actual_time=255600
type=note_on channel=0 note=55 velocity=95 time=0 actual_time=255600
type: note_off, time: 480, actual_time: 256080
type: note_off, time: 0, actual_time: 256080
type: note_off, time: 0, actual_time: 256080
type=note_on channel=0 note=66 velocity=95 time=0 actual_time=256080
type=note_on channel=0 note=61 velocity=95 time=0 actual_time=256080
type=note_on channel=0 note=54 velocity=95 time=0 actual_time=256080
type: note_off, time: 480, actual_time: 256560
type: note_off, time: 0, actual_time: 256560
type: note_off, time: 0, actual_time: 256560
type=note_on channel=0 note=66 velocity=95 time=0 actual_time=256560
type=note_on channel=0 note=61 velocity=95 time=0 actual_time=256560
type=note_on channel=0 note=54 velocity=95 time=0 actual_time=256560
type: note_off, time: 240, actual_time: 256800
type: note_off, time: 0, actual_time: 256800
type: note_off, time: 0, actual_time: 256800
type=note_on channel=0 note=69 velocity=95 time=0 actual_time=256800
type=note_on channel=0 note=64 velocity=95 time=0 actual_time=256800
type=note_on channel=0 note=57 velocity=95 time=0 actual_time=256800
type: note_off, time: 480, actual_time: 257280
type: note_off, time: 0, actual_time: 257280
type: note_off, time: 0, actual_time: 257280
type=note_on channel=0 note=60 velocity=95 time=0 actual_time=257280
type=note_on channel=0 note=55 velocity=95 time=0 actual_time=257280
type=note_on channel=0 note=48 velocity=95 time=0 actual_time=257280
type: note_off, time: 720, actual_time: 258000
type: note_off, time: 0, actual_time: 258000
type: note_off, time: 0, actual_time: 258000
type=note_on channel=0 note=60 velocity=95 time=0 actual_time=258000
type=note_on channel=0 note=55 velocity=95 time=0 actual_time=258000
type=note_on channel=0 note=48 velocity=95 time=0 actual_time=258000
type: note_off, time: 240, actual_time: 258240
type: note_off, time: 0, actual_time: 258240
type: note_off, time: 0, actual_time: 258240
type=note_on channel=0 note=60 velocity=95 time=0 actual_time=258240
type=note_on channel=0 note=55 velocity=95 time=0 actual_time=258240
type=note_on channel=0 note=48 velocity=95 time=0 actual_time=258240
type: note_off, time: 480, actual_time: 258720
type: note_off, time: 0, actual_time: 258720
type: note_off, time: 0, actual_time: 258720
type=note_on channel=0 note=59 velocity=95 time=0 actual_time=258720
type=note_on channel=0 note=54 velocity=95 time=0 actual_time=258720
type=note_on channel=0 note=47 velocity=95 time=0 actual_time=258720
type: note_off, time: 240, actual_time: 258960
type: note_off, time: 0, actual_time: 258960
type: note_off, time: 0, actual_time: 258960
type=note_on channel=0 note=59 velocity=95 time=0 actual_time=258960
type=note_on channel=0 note=54 velocity=95 time=0 actual_time=258960
type=note_on channel=0 note=47 velocity=95 time=0 actual_time=258960
type: note_off, time: 480, actual_time: 259440
type: note_off, time: 0, actual_time: 259440
type: note_off, time: 0, actual_time: 259440
type=note_on channel=0 note=59 velocity=95 time=0 actual_time=259440
type=note_on channel=0 note=54 velocity=95 time=0 actual_time=259440
type=note_on channel=0 note=47 velocity=95 time=0 actual_time=259440
type: note_off, time: 480, actual_time: 259920
type: note_off, time: 0, actual_time: 259920
type: note_off, time: 0, actual_time: 259920
type=note_on channel=0 note=60 velocity=95 time=0 actual_time=259920
type=note_on channel=0 note=55 velocity=95 time=0 actual_time=259920
type=note_on channel=0 note=48 velocity=95 time=0 actual_time=259920
type: note_off, time: 480, actual_time: 260400
type: note_off, time: 0, actual_time: 260400
type: note_off, time: 0, actual_time: 260400
type=note_on channel=0 note=60 velocity=95 time=0 actual_time=260400
type=note_on channel=0 note=55 velocity=95 time=0 actual_time=260400
type=note_on channel=0 note=48 velocity=95 time=0 actual_time=260400
type: note_off, time: 240, actual_time: 260640
type: note_off, time: 0, actual_time: 260640
type: note_off, time: 0, actual_time: 260640
type=note_on channel=0 note=62 velocity=95 time=0 actual_time=260640
type=note_on channel=0 note=57 velocity=95 time=0 actual_time=260640
type=note_on channel=0 note=50 velocity=95 time=0 actual_time=260640
type: note_off, time: 480, actual_time: 261120
type: note_off, time: 0, actual_time: 261120
type: note_off, time: 0, actual_time: 261120
type=note_on channel=0 note=64 velocity=95 time=0 actual_time=261120
type=note_on channel=0 note=59 velocity=95 time=0 actual_time=261120
type=note_on channel=0 note=52 velocity=95 time=0 actual_time=261120
type: note_off, time: 720, actual_time: 261840
type: note_off, time: 0, actual_time: 261840
type: note_off, time: 0, actual_time: 261840
type=note_on channel=0 note=64 velocity=95 time=0 actual_time=261840
type=note_on channel=0 note=59 velocity=95 time=0 actual_time=261840
type=note_on channel=0 note=52 velocity=95 time=0 actual_time=261840
type: note_off, time: 240, actual_time: 262080
type: note_off, time: 0, actual_time: 262080
type: note_off, time: 0, actual_time: 262080
type=note_on channel=0 note=64 velocity=95 time=0 actual_time=262080
type=note_on channel=0 note=59 velocity=95 time=0 actual_time=262080
type=note_on channel=0 note=52 velocity=95 time=0 actual_time=262080
type: note_off, time: 240, actual_time: 262320
type: note_off, time: 0, actual_time: 262320
type: note_off, time: 0, actual_time: 262320
type=note_on channel=0 note=64 velocity=95 time=0 actual_time=262320
type=note_on channel=0 note=59 velocity=95 time=0 actual_time=262320
type=note_on channel=0 note=52 velocity=95 time=0 actual_time=262320
type: note_off, time: 240, actual_time: 262560
type: note_off, time: 0, actual_time: 262560
type: note_off, time: 0, actual_time: 262560
type=note_on channel=0 note=64 velocity=95 time=0 actual_time=262560
type=note_on channel=0 note=59 velocity=95 time=0 actual_time=262560
type=note_on channel=0 note=52 velocity=95 time=0 actual_time=262560
type: note_off, time: 240, actual_time: 262800
type: note_off, time: 0, actual_time: 262800
type: note_off, time: 0, actual_time: 262800
type=note_on channel=0 note=67 velocity=95 time=0 actual_time=262800
type=note_on channel=0 note=62 velocity=95 time=0 actual_time=262800
type=note_on channel=0 note=55 velocity=95 time=0 actual_time=262800
type: note_off, time: 480, actual_time: 263280
type: note_off, time: 0, actual_time: 263280
type: note_off, time: 0, actual_time: 263280
type=note_on channel=0 note=67 velocity=95 time=0 actual_time=263280
type=note_on channel=0 note=62 velocity=95 time=0 actual_time=263280
type=note_on channel=0 note=55 velocity=95 time=0 actual_time=263280
type: note_off, time: 480, actual_time: 263760
type: note_off, time: 0, actual_time: 263760
type: note_off, time: 0, actual_time: 263760
type=note_on channel=0 note=66 velocity=95 time=0 actual_time=263760
type=note_on channel=0 note=61 velocity=95 time=0 actual_time=263760
type=note_on channel=0 note=54 velocity=95 time=0 actual_time=263760
type: note_off, time: 480, actual_time: 264240
type: note_off, time: 0, actual_time: 264240
type: note_off, time: 0, actual_time: 264240
type=note_on channel=0 note=66 velocity=95 time=0 actual_time=264240
type=note_on channel=0 note=61 velocity=95 time=0 actual_time=264240
type=note_on channel=0 note=54 velocity=95 time=0 actual_time=264240
type: note_off, time: 240, actual_time: 264480
type: note_off, time: 0, actual_time: 264480
type: note_off, time: 0, actual_time: 264480
type=note_on channel=0 note=64 velocity=95 time=0 actual_time=264480
type=note_on channel=0 note=59 velocity=95 time=0 actual_time=264480
type=note_on channel=0 note=52 velocity=95 time=0 actual_time=264480
type: note_off, time: 480, actual_time: 264960
type: note_off, time: 0, actual_time: 264960
type: note_off, time: 0, actual_time: 264960
type=note_on channel=0 note=60 velocity=95 time=0 actual_time=264960
type=note_on channel=0 note=55 velocity=95 time=0 actual_time=264960
type=note_on channel=0 note=48 velocity=95 time=0 actual_time=264960
type: note_off, time: 720, actual_time: 265680
type: note_off, time: 0, actual_time: 265680
type: note_off, time: 0, actual_time: 265680
type=note_on channel=0 note=60 velocity=95 time=0 actual_time=265680
type=note_on channel=0 note=55 velocity=95 time=0 actual_time=265680
type=note_on channel=0 note=48 velocity=95 time=0 actual_time=265680
type: note_off, time: 240, actual_time: 265920
type: note_off, time: 0, actual_time: 265920
type: note_off, time: 0, actual_time: 265920
type=note_on channel=0 note=60 velocity=95 time=0 actual_time=265920
type=note_on channel=0 note=55 velocity=95 time=0 actual_time=265920
type=note_on channel=0 note=48 velocity=95 time=0 actual_time=265920
type: note_off, time: 480, actual_time: 266400
type: note_off, time: 0, actual_time: 266400
type: note_off, time: 0, actual_time: 266400
type=note_on channel=0 note=59 velocity=95 time=0 actual_time=266400
type=note_on channel=0 note=54 velocity=95 time=0 actual_time=266400
type=note_on channel=0 note=47 velocity=95 time=0 actual_time=266400
type: note_off, time: 240, actual_time: 266640
type: note_off, time: 0, actual_time: 266640
type: note_off, time: 0, actual_time: 266640
type=note_on channel=0 note=59 velocity=95 time=0 actual_time=266640
type=note_on channel=0 note=54 velocity=95 time=0 actual_time=266640
type=note_on channel=0 note=47 velocity=95 time=0 actual_time=266640
type: note_off, time: 480, actual_time: 267120
type: note_off, time: 0, actual_time: 267120
type: note_off, time: 0, actual_time: 267120
type=note_on channel=0 note=59 velocity=95 time=0 actual_time=267120
type=note_on channel=0 note=54 velocity=95 time=0 actual_time=267120
type=note_on channel=0 note=47 velocity=95 time=0 actual_time=267120
type: note_off, time: 480, actual_time: 267600
type: note_off, time: 0, actual_time: 267600
type: note_off, time: 0, actual_time: 267600
type=note_on channel=0 note=60 velocity=95 time=0 actual_time=267600
type=note_on channel=0 note=55 velocity=95 time=0 actual_time=267600
type=note_on channel=0 note=48 velocity=95 time=0 actual_time=267600
type: note_off, time: 480, actual_time: 268080
type: note_off, time: 0, actual_time: 268080
type: note_off, time: 0, actual_time: 268080
type=note_on channel=0 note=60 velocity=95 time=0 actual_time=268080
type=note_on channel=0 note=55 velocity=95 time=0 actual_time=268080
type=note_on channel=0 note=48 velocity=95 time=0 actual_time=268080
type: note_off, time: 240, actual_time: 268320
type: note_off, time: 0, actual_time: 268320
type: note_off, time: 0, actual_time: 268320
type=note_on channel=0 note=62 velocity=95 time=0 actual_time=268320
type=note_on channel=0 note=57 velocity=95 time=0 actual_time=268320
type=note_on channel=0 note=50 velocity=95 time=0 actual_time=268320
type: note_off, time: 480, actual_time: 268800
type: note_off, time: 0, actual_time: 268800
type: note_off, time: 0, actual_time: 268800
type=note_on channel=0 note=64 velocity=95 time=0 actual_time=268800
type=note_on channel=0 note=59 velocity=95 time=0 actual_time=268800
type=note_on channel=0 note=52 velocity=95 time=0 actual_time=268800
type: note_off, time: 720, actual_time: 269520
type: note_off, time: 0, actual_time: 269520
type: note_off, time: 0, actual_time: 269520
type=note_on channel=0 note=64 velocity=95 time=0 actual_time=269520
type=note_on channel=0 note=59 velocity=95 time=0 actual_time=269520
type=note_on channel=0 note=52 velocity=95 time=0 actual_time=269520
type: note_off, time: 240, actual_time: 269760
type: note_off, time: 0, actual_time: 269760
type: note_off, time: 0, actual_time: 269760
type=note_on channel=0 note=64 velocity=95 time=0 actual_time=269760
type=note_on channel=0 note=59 velocity=95 time=0 actual_time=269760
type=note_on channel=0 note=52 velocity=95 time=0 actual_time=269760
type: note_off, time: 240, actual_time: 270000
type: note_off, time: 0, actual_time: 270000
type: note_off, time: 0, actual_time: 270000
type=note_on channel=0 note=64 velocity=95 time=0 actual_time=270000
type=note_on channel=0 note=59 velocity=95 time=0 actual_time=270000
type=note_on channel=0 note=52 velocity=95 time=0 actual_time=270000
type: note_off, time: 240, actual_time: 270240
type: note_off, time: 0, actual_time: 270240
type: note_off, time: 0, actual_time: 270240
type=note_on channel=0 note=64 velocity=95 time=0 actual_time=270240
type=note_on channel=0 note=59 velocity=95 time=0 actual_time=270240
type=note_on channel=0 note=52 velocity=95 time=0 actual_time=270240
type: note_off, time: 240, actual_time: 270480
type: note_off, time: 0, actual_time: 270480
type: note_off, time: 0, actual_time: 270480
type=note_on channel=0 note=67 velocity=95 time=0 actual_time=270480
type=note_on channel=0 note=62 velocity=95 time=0 actual_time=270480
type=note_on channel=0 note=55 velocity=95 time=0 actual_time=270480
type: note_off, time: 480, actual_time: 270960
type: note_off, time: 0, actual_time: 270960
type: note_off, time: 0, actual_time: 270960
type=note_on channel=0 note=67 velocity=95 time=0 actual_time=270960
type=note_on channel=0 note=62 velocity=95 time=0 actual_time=270960
type=note_on channel=0 note=55 velocity=95 time=0 actual_time=270960
type: note_off, time: 480, actual_time: 271440
type: note_off, time: 0, actual_time: 271440
type: note_off, time: 0, actual_time: 271440
type=note_on channel=0 note=66 velocity=95 time=0 actual_time=271440
type=note_on channel=0 note=61 velocity=95 time=0 actual_time=271440
type=note_on channel=0 note=54 velocity=95 time=0 actual_time=271440
type: note_off, time: 480, actual_time: 271920
type: note_off, time: 0, actual_time: 271920
type: note_off, time: 0, actual_time: 271920
type=note_on channel=0 note=66 velocity=95 time=0 actual_time=271920
type=note_on channel=0 note=61 velocity=95 time=0 actual_time=271920
type=note_on channel=0 note=54 velocity=95 time=0 actual_time=271920
type: note_off, time: 240, actual_time: 272160
type: note_off, time: 0, actual_time: 272160
type: note_off, time: 0, actual_time: 272160
type=note_on channel=0 note=69 velocity=95 time=0 actual_time=272160
type=note_on channel=0 note=64 velocity=95 time=0 actual_time=272160
type=note_on channel=0 note=57 velocity=95 time=0 actual_time=272160
type: note_off, time: 480, actual_time: 272640
type: note_off, time: 0, actual_time: 272640
type: note_off, time: 0, actual_time: 272640
type=note_on channel=0 note=60 velocity=95 time=0 actual_time=272640
type=note_on channel=0 note=55 velocity=95 time=0 actual_time=272640
type=note_on channel=0 note=48 velocity=95 time=0 actual_time=272640
type: note_off, time: 720, actual_time: 273360
type: note_off, time: 0, actual_time: 273360
type: note_off, time: 0, actual_time: 273360
type=note_on channel=0 note=60 velocity=95 time=0 actual_time=273360
type=note_on channel=0 note=55 velocity=95 time=0 actual_time=273360
type=note_on channel=0 note=48 velocity=95 time=0 actual_time=273360
type: note_off, time: 240, actual_time: 273600
type: note_off, time: 0, actual_time: 273600
type: note_off, time: 0, actual_time: 273600
type=note_on channel=0 note=60 velocity=95 time=0 actual_time=273600
type=note_on channel=0 note=55 velocity=95 time=0 actual_time=273600
type=note_on channel=0 note=48 velocity=95 time=0 actual_time=273600
type: note_off, time: 480, actual_time: 274080
type: note_off, time: 0, actual_time: 274080
type: note_off, time: 0, actual_time: 274080
type=note_on channel=0 note=59 velocity=95 time=0 actual_time=274080
type=note_on channel=0 note=54 velocity=95 time=0 actual_time=274080
type=note_on channel=0 note=47 velocity=95 time=0 actual_time=274080
type: note_off, time: 240, actual_time: 274320
type: note_off, time: 0, actual_time: 274320
type: note_off, time: 0, actual_time: 274320
type=note_on channel=0 note=59 velocity=95 time=0 actual_time=274320
type=note_on channel=0 note=54 velocity=95 time=0 actual_time=274320
type=note_on channel=0 note=47 velocity=95 time=0 actual_time=274320
type: note_off, time: 480, actual_time: 274800
type: note_off, time: 0, actual_time: 274800
type: note_off, time: 0, actual_time: 274800
type=note_on channel=0 note=59 velocity=95 time=0 actual_time=274800
type=note_on channel=0 note=54 velocity=95 time=0 actual_time=274800
type=note_on channel=0 note=47 velocity=95 time=0 actual_time=274800
type: note_off, time: 480, actual_time: 275280
type: note_off, time: 0, actual_time: 275280
type: note_off, time: 0, actual_time: 275280
type=note_on channel=0 note=60 velocity=95 time=0 actual_time=275280
type=note_on channel=0 note=55 velocity=95 time=0 actual_time=275280
type=note_on channel=0 note=48 velocity=95 time=0 actual_time=275280
type: note_off, time: 480, actual_time: 275760
type: note_off, time: 0, actual_time: 275760
type: note_off, time: 0, actual_time: 275760
type=note_on channel=0 note=60 velocity=95 time=0 actual_time=275760
type=note_on channel=0 note=55 velocity=95 time=0 actual_time=275760
type=note_on channel=0 note=48 velocity=95 time=0 actual_time=275760
type: note_off, time: 240, actual_time: 276000
type: note_off, time: 0, actual_time: 276000
type: note_off, time: 0, actual_time: 276000
type=note_on channel=0 note=62 velocity=95 time=0 actual_time=276000
type=note_on channel=0 note=57 velocity=95 time=0 actual_time=276000
type=note_on channel=0 note=50 velocity=95 time=0 actual_time=276000
type: note_off, time: 480, actual_time: 276480
type: note_off, time: 0, actual_time: 276480
type: note_off, time: 0, actual_time: 276480
type=note_on channel=0 note=64 velocity=95 time=0 actual_time=276480
type=note_on channel=0 note=59 velocity=95 time=0 actual_time=276480
type=note_on channel=0 note=52 velocity=95 time=0 actual_time=276480
type: note_off, time: 720, actual_time: 277200
type: note_off, time: 0, actual_time: 277200
type: note_off, time: 0, actual_time: 277200
type=note_on channel=0 note=64 velocity=95 time=0 actual_time=277200
type=note_on channel=0 note=59 velocity=95 time=0 actual_time=277200
type=note_on channel=0 note=52 velocity=95 time=0 actual_time=277200
type: note_off, time: 240, actual_time: 277440
type: note_off, time: 0, actual_time: 277440
type: note_off, time: 0, actual_time: 277440
type=note_on channel=0 note=64 velocity=95 time=0 actual_time=277440
type=note_on channel=0 note=59 velocity=95 time=0 actual_time=277440
type=note_on channel=0 note=52 velocity=95 time=0 actual_time=277440
type: note_off, time: 240, actual_time: 277680
type: note_off, time: 0, actual_time: 277680
type: note_off, time: 0, actual_time: 277680
type=note_on channel=0 note=64 velocity=95 time=0 actual_time=277680
type=note_on channel=0 note=59 velocity=95 time=0 actual_time=277680
type=note_on channel=0 note=52 velocity=95 time=0 actual_time=277680
type: note_off, time: 240, actual_time: 277920
type: note_off, time: 0, actual_time: 277920
type: note_off, time: 0, actual_time: 277920
type=note_on channel=0 note=64 velocity=95 time=0 actual_time=277920
type=note_on channel=0 note=59 velocity=95 time=0 actual_time=277920
type=note_on channel=0 note=52 velocity=95 time=0 actual_time=277920
type: note_off, time: 240, actual_time: 278160
type: note_off, time: 0, actual_time: 278160
type: note_off, time: 0, actual_time: 278160
type=note_on channel=0 note=67 velocity=95 time=0 actual_time=278160
type=note_on channel=0 note=62 velocity=95 time=0 actual_time=278160
type=note_on channel=0 note=55 velocity=95 time=0 actual_time=278160
type: note_off, time: 480, actual_time: 278640
type: note_off, time: 0, actual_time: 278640
type: note_off, time: 0, actual_time: 278640
type=note_on channel=0 note=67 velocity=95 time=0 actual_time=278640
type=note_on channel=0 note=62 velocity=95 time=0 actual_time=278640
type=note_on channel=0 note=55 velocity=95 time=0 actual_time=278640
type: note_off, time: 480, actual_time: 279120
type: note_off, time: 0, actual_time: 279120
type: note_off, time: 0, actual_time: 279120
type=note_on channel=0 note=66 velocity=95 time=0 actual_time=279120
type=note_on channel=0 note=61 velocity=95 time=0 actual_time=279120
type=note_on channel=0 note=54 velocity=95 time=0 actual_time=279120
type: note_off, time: 480, actual_time: 279600
type: note_off, time: 0, actual_time: 279600
type: note_off, time: 0, actual_time: 279600
type=note_on channel=0 note=66 velocity=95 time=0 actual_time=279600
type=note_on channel=0 note=61 velocity=95 time=0 actual_time=279600
type=note_on channel=0 note=54 velocity=95 time=0 actual_time=279600
type: note_off, time: 240, actual_time: 279840
type: note_off, time: 0, actual_time: 279840
type: note_off, time: 0, actual_time: 279840
type=note_on channel=0 note=64 velocity=95 time=0 actual_time=279840
type=note_on channel=0 note=59 velocity=95 time=0 actual_time=279840
type=note_on channel=0 note=52 velocity=95 time=0 actual_time=279840
type: note_off, time: 480, actual_time: 280320
type: note_off, time: 0, actual_time: 280320
type: note_off, time: 0, actual_time: 280320
type=note_on channel=0 note=60 velocity=95 time=0 actual_time=280320
type=note_on channel=0 note=55 velocity=95 time=0 actual_time=280320
type=note_on channel=0 note=48 velocity=95 time=0 actual_time=280320
type: note_off, time: 720, actual_time: 281040
type: note_off, time: 0, actual_time: 281040
type: note_off, time: 0, actual_time: 281040
type=note_on channel=0 note=60 velocity=95 time=0 actual_time=281040
type=note_on channel=0 note=55 velocity=95 time=0 actual_time=281040
type=note_on channel=0 note=48 velocity=95 time=0 actual_time=281040
type: note_off, time: 240, actual_time: 281280
type: note_off, time: 0, actual_time: 281280
type: note_off, time: 0, actual_time: 281280
type=note_on channel=0 note=60 velocity=95 time=0 actual_time=281280
type=note_on channel=0 note=55 velocity=95 time=0 actual_time=281280
type=note_on channel=0 note=48 velocity=95 time=0 actual_time=281280
type: note_off, time: 480, actual_time: 281760
type: note_off, time: 0, actual_time: 281760
type: note_off, time: 0, actual_time: 281760
type=note_on channel=0 note=59 velocity=95 time=0 actual_time=281760
type=note_on channel=0 note=54 velocity=95 time=0 actual_time=281760
type=note_on channel=0 note=47 velocity=95 time=0 actual_time=281760
type: note_off, time: 240, actual_time: 282000
type: note_off, time: 0, actual_time: 282000
type: note_off, time: 0, actual_time: 282000
type=note_on channel=0 note=59 velocity=95 time=0 actual_time=282000
type=note_on channel=0 note=54 velocity=95 time=0 actual_time=282000
type=note_on channel=0 note=47 velocity=95 time=0 actual_time=282000
type: note_off, time: 480, actual_time: 282480
type: note_off, time: 0, actual_time: 282480
type: note_off, time: 0, actual_time: 282480
type=note_on channel=0 note=59 velocity=95 time=0 actual_time=282480
type=note_on channel=0 note=54 velocity=95 time=0 actual_time=282480
type=note_on channel=0 note=47 velocity=95 time=0 actual_time=282480
type: note_off, time: 480, actual_time: 282960
type: note_off, time: 0, actual_time: 282960
type: note_off, time: 0, actual_time: 282960
type=note_on channel=0 note=60 velocity=95 time=0 actual_time=282960
type=note_on channel=0 note=55 velocity=95 time=0 actual_time=282960
type=note_on channel=0 note=48 velocity=95 time=0 actual_time=282960
type: note_off, time: 480, actual_time: 283440
type: note_off, time: 0, actual_time: 283440
type: note_off, time: 0, actual_time: 283440
type=note_on channel=0 note=60 velocity=95 time=0 actual_time=283440
type=note_on channel=0 note=55 velocity=95 time=0 actual_time=283440
type=note_on channel=0 note=48 velocity=95 time=0 actual_time=283440
type: note_off, time: 240, actual_time: 283680
type: note_off, time: 0, actual_time: 283680
type: note_off, time: 0, actual_time: 283680
type=note_on channel=0 note=62 velocity=95 time=0 actual_time=283680
type=note_on channel=0 note=57 velocity=95 time=0 actual_time=283680
type=note_on channel=0 note=50 velocity=95 time=0 actual_time=283680
type: note_off, time: 480, actual_time: 284160
type: note_off, time: 0, actual_time: 284160
type: note_off, time: 0, actual_time: 284160
type=note_on channel=0 note=64 velocity=95 time=0 actual_time=284160
type=note_on channel=0 note=59 velocity=95 time=0 actual_time=284160
type=note_on channel=0 note=52 velocity=95 time=0 actual_time=284160
type: note_off, time: 720, actual_time: 284880
type: note_off, time: 0, actual_time: 284880
type: note_off, time: 0, actual_time: 284880
type=note_on channel=0 note=64 velocity=95 time=0 actual_time=284880
type=note_on channel=0 note=59 velocity=95 time=0 actual_time=284880
type=note_on channel=0 note=52 velocity=95 time=0 actual_time=284880
type: note_off, time: 240, actual_time: 285120
type: note_off, time: 0, actual_time: 285120
type: note_off, time: 0, actual_time: 285120
type=note_on channel=0 note=64 velocity=95 time=0 actual_time=285120
type=note_on channel=0 note=59 velocity=95 time=0 actual_time=285120
type=note_on channel=0 note=52 velocity=95 time=0 actual_time=285120
type: note_off, time: 240, actual_time: 285360
type: note_off, time: 0, actual_time: 285360
type: note_off, time: 0, actual_time: 285360
type=note_on channel=0 note=64 velocity=95 time=0 actual_time=285360
type=note_on channel=0 note=59 velocity=95 time=0 actual_time=285360
type=note_on channel=0 note=52 velocity=95 time=0 actual_time=285360
type: note_off, time: 240, actual_time: 285600
type: note_off, time: 0, actual_time: 285600
type: note_off, time: 0, actual_time: 285600
type=note_on channel=0 note=64 velocity=95 time=0 actual_time=285600
type=note_on channel=0 note=59 velocity=95 time=0 actual_time=285600
type=note_on channel=0 note=52 velocity=95 time=0 actual_time=285600
type: note_off, time: 240, actual_time: 285840
type: note_off, time: 0, actual_time: 285840
type: note_off, time: 0, actual_time: 285840
type=note_on channel=0 note=67 velocity=95 time=0 actual_time=285840
type=note_on channel=0 note=62 velocity=95 time=0 actual_time=285840
type=note_on channel=0 note=55 velocity=95 time=0 actual_time=285840
type: note_off, time: 480, actual_time: 286320
type: note_off, time: 0, actual_time: 286320
type: note_off, time: 0, actual_time: 286320
type=note_on channel=0 note=67 velocity=95 time=0 actual_time=286320
type=note_on channel=0 note=62 velocity=95 time=0 actual_time=286320
type=note_on channel=0 note=55 velocity=95 time=0 actual_time=286320
type: note_off, time: 480, actual_time: 286800
type: note_off, time: 0, actual_time: 286800
type: note_off, time: 0, actual_time: 286800
type=note_on channel=0 note=66 velocity=95 time=0 actual_time=286800
type=note_on channel=0 note=61 velocity=95 time=0 actual_time=286800
type=note_on channel=0 note=54 velocity=95 time=0 actual_time=286800
type: note_off, time: 480, actual_time: 287280
type: note_off, time: 0, actual_time: 287280
type: note_off, time: 0, actual_time: 287280
type=note_on channel=0 note=66 velocity=95 time=0 actual_time=287280
type=note_on channel=0 note=61 velocity=95 time=0 actual_time=287280
type=note_on channel=0 note=54 velocity=95 time=0 actual_time=287280
type: note_off, time: 240, actual_time: 287520
type: note_off, time: 0, actual_time: 287520
type: note_off, time: 0, actual_time: 287520
type=note_on channel=0 note=69 velocity=95 time=0 actual_time=287520
type=note_on channel=0 note=64 velocity=95 time=0 actual_time=287520
type=note_on channel=0 note=57 velocity=95 time=0 actual_time=287520
type: note_off, time: 480, actual_time: 288000
type: note_off, time: 0, actual_time: 288000
type: note_off, time: 0, actual_time: 288000
type=note_on channel=0 note=60 velocity=95 time=0 actual_time=288000
type=note_on channel=0 note=55 velocity=95 time=0 actual_time=288000
type=note_on channel=0 note=48 velocity=95 time=0 actual_time=288000
type: note_off, time: 720, actual_time: 288720
type: note_off, time: 0, actual_time: 288720
type: note_off, time: 0, actual_time: 288720
type=note_on channel=0 note=60 velocity=95 time=0 actual_time=288720
type=note_on channel=0 note=55 velocity=95 time=0 actual_time=288720
type=note_on channel=0 note=48 velocity=95 time=0 actual_time=288720
type: note_off, time: 240, actual_time: 288960
type: note_off, time: 0, actual_time: 288960
type: note_off, time: 0, actual_time: 288960
type=note_on channel=0 note=60 velocity=95 time=0 actual_time=288960
type=note_on channel=0 note=55 velocity=95 time=0 actual_time=288960
type=note_on channel=0 note=48 velocity=95 time=0 actual_time=288960
type: note_off, time: 480, actual_time: 289440
type: note_off, time: 0, actual_time: 289440
type: note_off, time: 0, actual_time: 289440
type=note_on channel=0 note=59 velocity=95 time=0 actual_time=289440
type=note_on channel=0 note=54 velocity=95 time=0 actual_time=289440
type=note_on channel=0 note=47 velocity=95 time=0 actual_time=289440
type: note_off, time: 240, actual_time: 289680
type: note_off, time: 0, actual_time: 289680
type: note_off, time: 0, actual_time: 289680
type=note_on channel=0 note=59 velocity=95 time=0 actual_time=289680
type=note_on channel=0 note=54 velocity=95 time=0 actual_time=289680
type=note_on channel=0 note=47 velocity=95 time=0 actual_time=289680
type: note_off, time: 480, actual_time: 290160
type: note_off, time: 0, actual_time: 290160
type: note_off, time: 0, actual_time: 290160
type=note_on channel=0 note=59 velocity=95 time=0 actual_time=290160
type=note_on channel=0 note=54 velocity=95 time=0 actual_time=290160
type=note_on channel=0 note=47 velocity=95 time=0 actual_time=290160
type: note_off, time: 480, actual_time: 290640
type: note_off, time: 0, actual_time: 290640
type: note_off, time: 0, actual_time: 290640
type=note_on channel=0 note=60 velocity=95 time=0 actual_time=290640
type=note_on channel=0 note=55 velocity=95 time=0 actual_time=290640
type=note_on channel=0 note=48 velocity=95 time=0 actual_time=290640
type: note_off, time: 480, actual_time: 291120
type: note_off, time: 0, actual_time: 291120
type: note_off, time: 0, actual_time: 291120
type=note_on channel=0 note=60 velocity=95 time=0 actual_time=291120
type=note_on channel=0 note=55 velocity=95 time=0 actual_time=291120
type=note_on channel=0 note=48 velocity=95 time=0 actual_time=291120
type: note_off, time: 240, actual_time: 291360
type: note_off, time: 0, actual_time: 291360
type: note_off, time: 0, actual_time: 291360
type=note_on channel=0 note=62 velocity=95 time=0 actual_time=291360
type=note_on channel=0 note=57 velocity=95 time=0 actual_time=291360
type=note_on channel=0 note=50 velocity=95 time=0 actual_time=291360
type: note_off, time: 480, actual_time: 291840
type: note_off, time: 0, actual_time: 291840
type: note_off, time: 0, actual_time: 291840
type=note_on channel=0 note=64 velocity=95 time=0 actual_time=291840
type=note_on channel=0 note=59 velocity=95 time=0 actual_time=291840
type=note_on channel=0 note=52 velocity=95 time=0 actual_time=291840
type: note_off, time: 720, actual_time: 292560
type: note_off, time: 0, actual_time: 292560
type: note_off, time: 0, actual_time: 292560
type=note_on channel=0 note=64 velocity=95 time=0 actual_time=292560
type=note_on channel=0 note=59 velocity=95 time=0 actual_time=292560
type=note_on channel=0 note=52 velocity=95 time=0 actual_time=292560
type: note_off, time: 240, actual_time: 292800
type: note_off, time: 0, actual_time: 292800
type: note_off, time: 0, actual_time: 292800
type=note_on channel=0 note=64 velocity=95 time=0 actual_time=292800
type=note_on channel=0 note=59 velocity=95 time=0 actual_time=292800
type=note_on channel=0 note=52 velocity=95 time=0 actual_time=292800
type: note_off, time: 240, actual_time: 293040
type: note_off, time: 0, actual_time: 293040
type: note_off, time: 0, actual_time: 293040
type=note_on channel=0 note=64 velocity=95 time=0 actual_time=293040
type=note_on channel=0 note=59 velocity=95 time=0 actual_time=293040
type=note_on channel=0 note=52 velocity=95 time=0 actual_time=293040
type: note_off, time: 240, actual_time: 293280
type: note_off, time: 0, actual_time: 293280
type: note_off, time: 0, actual_time: 293280
type=note_on channel=0 note=64 velocity=95 time=0 actual_time=293280
type=note_on channel=0 note=59 velocity=95 time=0 actual_time=293280
type=note_on channel=0 note=52 velocity=95 time=0 actual_time=293280
type: note_off, time: 240, actual_time: 293520
type: note_off, time: 0, actual_time: 293520
type: note_off, time: 0, actual_time: 293520
type=note_on channel=0 note=67 velocity=95 time=0 actual_time=293520
type=note_on channel=0 note=62 velocity=95 time=0 actual_time=293520
type=note_on channel=0 note=55 velocity=95 time=0 actual_time=293520
type: note_off, time: 480, actual_time: 294000
type: note_off, time: 0, actual_time: 294000
type: note_off, time: 0, actual_time: 294000
type=note_on channel=0 note=67 velocity=95 time=0 actual_time=294000
type=note_on channel=0 note=62 velocity=95 time=0 actual_time=294000
type=note_on channel=0 note=55 velocity=95 time=0 actual_time=294000
type: note_off, time: 480, actual_time: 294480
type: note_off, time: 0, actual_time: 294480
type: note_off, time: 0, actual_time: 294480
type=note_on channel=0 note=66 velocity=95 time=0 actual_time=294480
type=note_on channel=0 note=61 velocity=95 time=0 actual_time=294480
type=note_on channel=0 note=54 velocity=95 time=0 actual_time=294480
type: note_off, time: 480, actual_time: 294960
type: note_off, time: 0, actual_time: 294960
type: note_off, time: 0, actual_time: 294960
type=note_on channel=0 note=66 velocity=95 time=0 actual_time=294960
type=note_on channel=0 note=61 velocity=95 time=0 actual_time=294960
type=note_on channel=0 note=54 velocity=95 time=0 actual_time=294960
type: note_off, time: 240, actual_time: 295200
type: note_off, time: 0, actual_time: 295200
type: note_off, time: 0, actual_time: 295200
type=note_on channel=0 note=64 velocity=95 time=0 actual_time=295200
type=note_on channel=0 note=59 velocity=95 time=0 actual_time=295200
type=note_on channel=0 note=52 velocity=95 time=0 actual_time=295200
type: note_off, time: 480, actual_time: 295680
type: note_off, time: 0, actual_time: 295680
type: note_off, time: 0, actual_time: 295680
type=note_on channel=0 note=60 velocity=95 time=0 actual_time=295680
type=note_on channel=0 note=55 velocity=95 time=0 actual_time=295680
type=note_on channel=0 note=48 velocity=95 time=0 actual_time=295680
type: note_off, time: 720, actual_time: 296400
type: note_off, time: 0, actual_time: 296400
type: note_off, time: 0, actual_time: 296400
type=note_on channel=0 note=60 velocity=95 time=0 actual_time=296400
type=note_on channel=0 note=55 velocity=95 time=0 actual_time=296400
type=note_on channel=0 note=48 velocity=95 time=0 actual_time=296400
type: note_off, time: 240, actual_time: 296640
type: note_off, time: 0, actual_time: 296640
type: note_off, time: 0, actual_time: 296640
type=note_on channel=0 note=60 velocity=95 time=0 actual_time=296640
type=note_on channel=0 note=55 velocity=95 time=0 actual_time=296640
type=note_on channel=0 note=48 velocity=95 time=0 actual_time=296640
type: note_off, time: 480, actual_time: 297120
type: note_off, time: 0, actual_time: 297120
type: note_off, time: 0, actual_time: 297120
type=note_on channel=0 note=59 velocity=95 time=0 actual_time=297120
type=note_on channel=0 note=54 velocity=95 time=0 actual_time=297120
type=note_on channel=0 note=47 velocity=95 time=0 actual_time=297120
type: note_off, time: 240, actual_time: 297360
type: note_off, time: 0, actual_time: 297360
type: note_off, time: 0, actual_time: 297360
type=note_on channel=0 note=59 velocity=95 time=0 actual_time=297360
type=note_on channel=0 note=54 velocity=95 time=0 actual_time=297360
type=note_on channel=0 note=47 velocity=95 time=0 actual_time=297360
type: note_off, time: 480, actual_time: 297840
type: note_off, time: 0, actual_time: 297840
type: note_off, time: 0, actual_time: 297840
type=note_on channel=0 note=59 velocity=95 time=0 actual_time=297840
type=note_on channel=0 note=54 velocity=95 time=0 actual_time=297840
type=note_on channel=0 note=47 velocity=95 time=0 actual_time=297840
type: note_off, time: 480, actual_time: 298320
type: note_off, time: 0, actual_time: 298320
type: note_off, time: 0, actual_time: 298320
type=note_on channel=0 note=60 velocity=95 time=0 actual_time=298320
type=note_on channel=0 note=55 velocity=95 time=0 actual_time=298320
type=note_on channel=0 note=48 velocity=95 time=0 actual_time=298320
type: note_off, time: 480, actual_time: 298800
type: note_off, time: 0, actual_time: 298800
type: note_off, time: 0, actual_time: 298800
type=note_on channel=0 note=60 velocity=95 time=0 actual_time=298800
type=note_on channel=0 note=55 velocity=95 time=0 actual_time=298800
type=note_on channel=0 note=48 velocity=95 time=0 actual_time=298800
type: note_off, time: 240, actual_time: 299040
type: note_off, time: 0, actual_time: 299040
type: note_off, time: 0, actual_time: 299040
type=note_on channel=0 note=62 velocity=95 time=0 actual_time=299040
type=note_on channel=0 note=57 velocity=95 time=0 actual_time=299040
type=note_on channel=0 note=50 velocity=95 time=0 actual_time=299040
type: note_off, time: 480, actual_time: 299520
type: note_off, time: 0, actual_time: 299520
type: note_off, time: 0, actual_time: 299520
type=note_on channel=0 note=64 velocity=95 time=0 actual_time=299520
type=note_on channel=0 note=59 velocity=95 time=0 actual_time=299520
type=note_on channel=0 note=52 velocity=95 time=0 actual_time=299520
type: note_off, time: 720, actual_time: 300240
type: note_off, time: 0, actual_time: 300240
type: note_off, time: 0, actual_time: 300240
type=note_on channel=0 note=64 velocity=95 time=0 actual_time=300240
type=note_on channel=0 note=59 velocity=95 time=0 actual_time=300240
type=note_on channel=0 note=52 velocity=95 time=0 actual_time=300240
type: note_off, time: 240, actual_time: 300480
type: note_off, time: 0, actual_time: 300480
type: note_off, time: 0, actual_time: 300480
type=note_on channel=0 note=64 velocity=95 time=0 actual_time=300480
type=note_on channel=0 note=59 velocity=95 time=0 actual_time=300480
type=note_on channel=0 note=52 velocity=95 time=0 actual_time=300480
type: note_off, time: 240, actual_time: 300720
type: note_off, time: 0, actual_time: 300720
type: note_off, time: 0, actual_time: 300720
type=note_on channel=0 note=64 velocity=95 time=0 actual_time=300720
type=note_on channel=0 note=59 velocity=95 time=0 actual_time=300720
type=note_on channel=0 note=52 velocity=95 time=0 actual_time=300720
type: note_off, time: 240, actual_time: 300960
type: note_off, time: 0, actual_time: 300960
type: note_off, time: 0, actual_time: 300960
type=note_on channel=0 note=64 velocity=95 time=0 actual_time=300960
type=note_on channel=0 note=59 velocity=95 time=0 actual_time=300960
type=note_on channel=0 note=52 velocity=95 time=0 actual_time=300960
type: note_off, time: 240, actual_time: 301200
type: note_off, time: 0, actual_time: 301200
type: note_off, time: 0, actual_time: 301200
type=note_on channel=0 note=67 velocity=95 time=0 actual_time=301200
type=note_on channel=0 note=62 velocity=95 time=0 actual_time=301200
type=note_on channel=0 note=55 velocity=95 time=0 actual_time=301200
type: note_off, time: 480, actual_time: 301680
type: note_off, time: 0, actual_time: 301680
type: note_off, time: 0, actual_time: 301680
type=note_on channel=0 note=67 velocity=95 time=0 actual_time=301680
type=note_on channel=0 note=62 velocity=95 time=0 actual_time=301680
type=note_on channel=0 note=55 velocity=95 time=0 actual_time=301680
type: note_off, time: 480, actual_time: 302160
type: note_off, time: 0, actual_time: 302160
type: note_off, time: 0, actual_time: 302160
type=note_on channel=0 note=66 velocity=95 time=0 actual_time=302160
type=note_on channel=0 note=61 velocity=95 time=0 actual_time=302160
type=note_on channel=0 note=54 velocity=95 time=0 actual_time=302160
type: note_off, time: 480, actual_time: 302640
type: note_off, time: 0, actual_time: 302640
type: note_off, time: 0, actual_time: 302640
type=note_on channel=0 note=66 velocity=95 time=0 actual_time=302640
type=note_on channel=0 note=61 velocity=95 time=0 actual_time=302640
type=note_on channel=0 note=54 velocity=95 time=0 actual_time=302640
type: note_off, time: 240, actual_time: 302880
type: note_off, time: 0, actual_time: 302880
type: note_off, time: 0, actual_time: 302880
type=note_on channel=0 note=69 velocity=95 time=0 actual_time=302880
type=note_on channel=0 note=64 velocity=95 time=0 actual_time=302880
type=note_on channel=0 note=57 velocity=95 time=0 actual_time=302880
type: note_off, time: 480, actual_time: 303360
type: note_off, time: 0, actual_time: 303360
type: note_off, time: 0, actual_time: 303360
type=note_on channel=0 note=60 velocity=95 time=0 actual_time=303360
type=note_on channel=0 note=55 velocity=95 time=0 actual_time=303360
type=note_on channel=0 note=48 velocity=95 time=0 actual_time=303360
type: note_off, time: 720, actual_time: 304080
type: note_off, time: 0, actual_time: 304080
type: note_off, time: 0, actual_time: 304080
type=note_on channel=0 note=60 velocity=95 time=0 actual_time=304080
type=note_on channel=0 note=55 velocity=95 time=0 actual_time=304080
type=note_on channel=0 note=48 velocity=95 time=0 actual_time=304080
type: note_off, time: 240, actual_time: 304320
type: note_off, time: 0, actual_time: 304320
type: note_off, time: 0, actual_time: 304320
type=note_on channel=0 note=60 velocity=95 time=0 actual_time=304320
type=note_on channel=0 note=55 velocity=95 time=0 actual_time=304320
type=note_on channel=0 note=48 velocity=95 time=0 actual_time=304320
type: note_off, time: 480, actual_time: 304800
type: note_off, time: 0, actual_time: 304800
type: note_off, time: 0, actual_time: 304800
type=note_on channel=0 note=59 velocity=95 time=0 actual_time=304800
type=note_on channel=0 note=54 velocity=95 time=0 actual_time=304800
type=note_on channel=0 note=47 velocity=95 time=0 actual_time=304800
type: note_off, time: 240, actual_time: 305040
type: note_off, time: 0, actual_time: 305040
type: note_off, time: 0, actual_time: 305040
type=note_on channel=0 note=59 velocity=95 time=0 actual_time=305040
type=note_on channel=0 note=54 velocity=95 time=0 actual_time=305040
type=note_on channel=0 note=47 velocity=95 time=0 actual_time=305040
type: note_off, time: 480, actual_time: 305520
type: note_off, time: 0, actual_time: 305520
type: note_off, time: 0, actual_time: 305520
type=note_on channel=0 note=59 velocity=95 time=0 actual_time=305520
type=note_on channel=0 note=54 velocity=95 time=0 actual_time=305520
type=note_on channel=0 note=47 velocity=95 time=0 actual_time=305520
type: note_off, time: 480, actual_time: 306000
type: note_off, time: 0, actual_time: 306000
type: note_off, time: 0, actual_time: 306000
type=note_on channel=0 note=60 velocity=95 time=0 actual_time=306000
type=note_on channel=0 note=55 velocity=95 time=0 actual_time=306000
type=note_on channel=0 note=48 velocity=95 time=0 actual_time=306000
type: note_off, time: 480, actual_time: 306480
type: note_off, time: 0, actual_time: 306480
type: note_off, time: 0, actual_time: 306480
type=note_on channel=0 note=60 velocity=95 time=0 actual_time=306480
type=note_on channel=0 note=55 velocity=95 time=0 actual_time=306480
type=note_on channel=0 note=48 velocity=95 time=0 actual_time=306480
type: note_off, time: 240, actual_time: 306720
type: note_off, time: 0, actual_time: 306720
type: note_off, time: 0, actual_time: 306720
type=note_on channel=0 note=62 velocity=95 time=0 actual_time=306720
type=note_on channel=0 note=57 velocity=95 time=0 actual_time=306720
type=note_on channel=0 note=50 velocity=95 time=0 actual_time=306720
type: note_off, time: 480, actual_time: 307200
type: note_off, time: 0, actual_time: 307200
type: note_off, time: 0, actual_time: 307200
type=note_on channel=1 note=52 velocity=95 time=0 actual_time=307200
type: note_off, time: 240, actual_time: 307440
type=note_on channel=0 note=40 velocity=95 time=0 actual_time=307440
type: note_off, time: 240, actual_time: 307680
type=note_on channel=0 note=40 velocity=95 time=0 actual_time=307680
type: note_off, time: 240, actual_time: 307920
type=note_on channel=0 note=47 velocity=95 time=0 actual_time=307920
type: note_off, time: 240, actual_time: 308160
type=note_on channel=0 note=40 velocity=95 time=0 actual_time=308160
type: note_off, time: 240, actual_time: 308400
type=note_on channel=0 note=40 velocity=95 time=0 actual_time=308400
type: note_off, time: 240, actual_time: 308640
type=note_on channel=0 note=48 velocity=95 time=0 actual_time=308640
type: note_off, time: 240, actual_time: 308880
type=note_on channel=0 note=40 velocity=95 time=0 actual_time=308880
type: note_off, time: 240, actual_time: 309120
type=note_on channel=0 note=40 velocity=95 time=0 actual_time=309120
type: note_off, time: 240, actual_time: 309360
type=note_on channel=0 note=52 velocity=95 time=0 actual_time=309360
type=note_on channel=0 note=45 velocity=95 time=0 actual_time=309360
type: note_off, time: 240, actual_time: 309600
type: note_off, time: 0, actual_time: 309600
type=note_on channel=0 note=40 velocity=95 time=0 actual_time=309600
type: note_off, time: 240, actual_time: 309840
type=note_on channel=0 note=40 velocity=95 time=0 actual_time=309840
type: note_off, time: 240, actual_time: 310080
type=note_on channel=0 note=54 velocity=95 time=0 actual_time=310080
type=note_on channel=0 note=47 velocity=95 time=0 actual_time=310080
type: note_off, time: 240, actual_time: 310320
type: note_off, time: 0, actual_time: 310320
type=note_on channel=0 note=40 velocity=95 time=0 actual_time=310320
type: note_off, time: 240, actual_time: 310560
type=note_on channel=0 note=55 velocity=95 time=0 actual_time=310560
type=note_on channel=0 note=48 velocity=95 time=0 actual_time=310560
type: note_off, time: 240, actual_time: 310800
type: note_off, time: 0, actual_time: 310800
type=note_on channel=0 note=40 velocity=95 time=0 actual_time=310800
type: note_off, time: 240, actual_time: 311040
type=note_on channel=1 note=52 velocity=95 time=0 actual_time=311040
type: note_off, time: 240, actual_time: 311280
type=note_on channel=0 note=40 velocity=95 time=0 actual_time=311280
type: note_off, time: 240, actual_time: 311520
type=note_on channel=0 note=40 velocity=95 time=0 actual_time=311520
type: note_off, time: 240, actual_time: 311760
type=note_on channel=0 note=47 velocity=95 time=0 actual_time=311760
type: note_off, time: 240, actual_time: 312000
type=note_on channel=0 note=40 velocity=95 time=0 actual_time=312000
type: note_off, time: 240, actual_time: 312240
type=note_on channel=0 note=40 velocity=95 time=0 actual_time=312240
type: note_off, time: 240, actual_time: 312480
type=note_on channel=0 note=48 velocity=95 time=0 actual_time=312480
type: note_off, time: 240, actual_time: 312720
type=note_on channel=0 note=40 velocity=95 time=0 actual_time=312720
type: note_off, time: 240, actual_time: 312960
type=note_on channel=0 note=40 velocity=95 time=0 actual_time=312960
type: note_off, time: 240, actual_time: 313200
type=note_on channel=0 note=52 velocity=95 time=0 actual_time=313200
type=note_on channel=0 note=45 velocity=95 time=0 actual_time=313200
type: note_off, time: 240, actual_time: 313440
type: note_off, time: 0, actual_time: 313440
type=note_on channel=0 note=40 velocity=95 time=0 actual_time=313440
type: note_off, time: 240, actual_time: 313680
type=note_on channel=0 note=40 velocity=95 time=0 actual_time=313680
type: note_off, time: 240, actual_time: 313920
type=note_on channel=1 note=54 velocity=95 time=0 actual_time=313920
type=note_on channel=1 note=47 velocity=95 time=0 actual_time=313920
type: pitchwheel, time: 120, actual_time: 314040
type: pitchwheel, time: 0, actual_time: 314040
type: pitchwheel, time: 120, actual_time: 314160
type: pitchwheel, time: 0, actual_time: 314160
type: note_off, time: 0, actual_time: 314160
type: pitchwheel, time: 0, actual_time: 314160
type: pitchwheel, time: 0, actual_time: 314160
type: note_off, time: 0, actual_time: 314160
type=note_on channel=1 note=55 velocity=95 time=0 actual_time=314160
type=note_on channel=1 note=48 velocity=95 time=0 actual_time=314160
type: pitchwheel, time: 120, actual_time: 314280
type: pitchwheel, time: 0, actual_time: 314280
type: pitchwheel, time: 120, actual_time: 314400
type: pitchwheel, time: 0, actual_time: 314400
type: note_off, time: 0, actual_time: 314400
type: pitchwheel, time: 0, actual_time: 314400
type: pitchwheel, time: 0, actual_time: 314400
type: note_off, time: 0, actual_time: 314400
type=note_on channel=0 note=54 velocity=95 time=0 actual_time=314400
type=note_on channel=1 note=47 velocity=95 time=0 actual_time=314400
type: note_off, time: 240, actual_time: 314640
type: note_off, time: 0, actual_time: 314640
type=note_on channel=0 note=40 velocity=95 time=0 actual_time=314640
type: note_off, time: 240, actual_time: 314880
type=note_on channel=1 note=52 velocity=95 time=0 actual_time=314880
type: note_off, time: 240, actual_time: 315120
type=note_on channel=0 note=40 velocity=95 time=0 actual_time=315120
type: note_off, time: 240, actual_time: 315360
type=note_on channel=0 note=40 velocity=95 time=0 actual_time=315360
type: note_off, time: 240, actual_time: 315600
type=note_on channel=0 note=47 velocity=95 time=0 actual_time=315600
type: note_off, time: 240, actual_time: 315840
type=note_on channel=0 note=40 velocity=95 time=0 actual_time=315840
type: note_off, time: 240, actual_time: 316080
type=note_on channel=0 note=40 velocity=95 time=0 actual_time=316080
type: note_off, time: 240, actual_time: 316320
type=note_on channel=0 note=48 velocity=95 time=0 actual_time=316320
type: note_off, time: 240, actual_time: 316560
type=note_on channel=0 note=40 velocity=95 time=0 actual_time=316560
type: note_off, time: 240, actual_time: 316800
type=note_on channel=0 note=40 velocity=95 time=0 actual_time=316800
type: note_off, time: 240, actual_time: 317040
type=note_on channel=0 note=52 velocity=95 time=0 actual_time=317040
type=note_on channel=0 note=45 velocity=95 time=0 actual_time=317040
type: note_off, time: 240, actual_time: 317280
type: note_off, time: 0, actual_time: 317280
type=note_on channel=0 note=40 velocity=95 time=0 actual_time=317280
type: note_off, time: 240, actual_time: 317520
type=note_on channel=0 note=40 velocity=95 time=0 actual_time=317520
type: note_off, time: 240, actual_time: 317760
type=note_on channel=0 note=54 velocity=95 time=0 actual_time=317760
type=note_on channel=0 note=47 velocity=95 time=0 actual_time=317760
type: note_off, time: 240, actual_time: 318000
type: note_off, time: 0, actual_time: 318000
type=note_on channel=0 note=40 velocity=95 time=0 actual_time=318000
type: note_off, time: 240, actual_time: 318240
type=note_on channel=0 note=55 velocity=95 time=0 actual_time=318240
type=note_on channel=0 note=48 velocity=95 time=0 actual_time=318240
type: note_off, time: 240, actual_time: 318480
type: note_off, time: 0, actual_time: 318480
type=note_on channel=0 note=40 velocity=95 time=0 actual_time=318480
type: note_off, time: 240, actual_time: 318720
type=note_on channel=0 note=52 velocity=95 time=0 actual_time=318720
type: note_off, time: 240, actual_time: 318960
type=note_on channel=0 note=40 velocity=95 time=0 actual_time=318960
type: note_off, time: 240, actual_time: 319200
type=note_on channel=0 note=40 velocity=95 time=0 actual_time=319200
type: note_off, time: 240, actual_time: 319440
type=note_on channel=0 note=47 velocity=95 time=0 actual_time=319440
type: note_off, time: 240, actual_time: 319680
type=note_on channel=0 note=40 velocity=95 time=0 actual_time=319680
type: note_off, time: 240, actual_time: 319920
type=note_on channel=0 note=40 velocity=95 time=0 actual_time=319920
type: note_off, time: 240, actual_time: 320160
type=note_on channel=0 note=48 velocity=95 time=0 actual_time=320160
type: note_off, time: 240, actual_time: 320400
type=note_on channel=0 note=40 velocity=95 time=0 actual_time=320400
type: note_off, time: 240, actual_time: 320640
type=note_on channel=0 note=60 velocity=95 time=0 actual_time=320640
type=note_on channel=0 note=55 velocity=95 time=0 actual_time=320640
type=note_on channel=0 note=48 velocity=95 time=0 actual_time=320640
type: note_off, time: 320, actual_time: 320960
type: note_off, time: 0, actual_time: 320960
type: note_off, time: 0, actual_time: 320960
type=note_on channel=0 note=60 velocity=95 time=0 actual_time=320960
type=note_on channel=0 note=55 velocity=95 time=0 actual_time=320960
type=note_on channel=0 note=48 velocity=95 time=0 actual_time=320960
type: note_off, time: 320, actual_time: 321280
type: note_off, time: 0, actual_time: 321280
type: note_off, time: 0, actual_time: 321280
type=note_on channel=0 note=60 velocity=95 time=0 actual_time=321280
type=note_on channel=0 note=55 velocity=95 time=0 actual_time=321280
type=note_on channel=0 note=48 velocity=95 time=0 actual_time=321280
type: note_off, time: 320, actual_time: 321600
type: note_off, time: 0, actual_time: 321600
type: note_off, time: 0, actual_time: 321600
type=note_on channel=1 note=60 velocity=95 time=0 actual_time=321600
type=note_on channel=1 note=55 velocity=95 time=0 actual_time=321600
type=note_on channel=1 note=48 velocity=95 time=0 actual_time=321600
type: note_off, time: 960, actual_time: 322560
type: note_off, time: 0, actual_time: 322560
type: note_off, time: 0, actual_time: 322560
MetaMessage type: end_of_track, time: 0, actual_time: 322560
type: pitchwheel, time: 0, actual_time: 0
type=control_change channel=0 control=7 value=111 time=0 actual_time=0
type=control_change channel=0 control=10 value=111 time=0 actual_time=0
type=control_change channel=0 control=93 value=0 time=0 actual_time=0
type=control_change channel=0 control=91 value=0 time=0 actual_time=0
type=control_change channel=0 control=95 value=0 time=0 actual_time=0
type=control_change channel=0 control=92 value=0 time=0 actual_time=0
type=control_change channel=0 control=11 value=127 time=0 actual_time=0
type: program_change, time: 0, actual_time: 0
type=control_change channel=1 control=7 value=111 time=0 actual_time=0
type=control_change channel=1 control=10 value=111 time=0 actual_time=0
type=control_change channel=1 control=93 value=0 time=0 actual_time=0
type=control_change channel=1 control=91 value=0 time=0 actual_time=0
type=control_change channel=1 control=95 value=0 time=0 actual_time=0
type=control_change channel=1 control=92 value=0 time=0 actual_time=0
type=control_change channel=1 control=11 value=127 time=0 actual_time=0
type: program_change, time: 0, actual_time: 0
type=note_on channel=0 note=59 velocity=79 time=3360 actual_time=3360
type: note_off, time: 240, actual_time: 3600
type=note_on channel=0 note=60 velocity=54 time=0 actual_time=3600
type=note_on channel=1 note=60 velocity=79 time=120 actual_time=3720
type: note_off, time: 120, actual_time: 3840
type: note_off, time: 0, actual_time: 3840
type=note_on channel=1 note=62 velocity=79 time=0 actual_time=3840
type: note_off, time: 720, actual_time: 4560
type=note_on channel=0 note=64 velocity=79 time=0 actual_time=4560
type: note_off, time: 720, actual_time: 5280
type=note_on channel=0 note=64 velocity=79 time=0 actual_time=5280
type: note_off, time: 3360, actual_time: 8640
type=note_on channel=0 note=62 velocity=79 time=0 actual_time=8640
type: note_off, time: 240, actual_time: 8880
type=note_on channel=0 note=64 velocity=54 time=0 actual_time=8880
type: note_off, time: 240, actual_time: 9120
type=note_on channel=0 note=55 velocity=79 time=0 actual_time=9120
type: note_off, time: 240, actual_time: 9360
type=note_on channel=0 note=59 velocity=79 time=0 actual_time=9360
type=note_on channel=1 note=60 velocity=79 time=1080 actual_time=10440
type: note_off, time: 120, actual_time: 10560
type: note_off, time: 0, actual_time: 10560
type=note_on channel=1 note=62 velocity=79 time=0 actual_time=10560
type: note_off, time: 960, actual_time: 11520
type=note_on channel=0 note=60 velocity=79 time=0 actual_time=11520
type: note_off, time: 1440, actual_time: 12960
type=note_on channel=0 note=59 velocity=79 time=0 actual_time=12960
type: note_off, time: 1440, actual_time: 14400
type=note_on channel=0 note=57 velocity=79 time=0 actual_time=14400
type: note_off, time: 960, actual_time: 15360
type=note_on channel=0 note=45 velocity=79 time=30720 actual_time=46080
type: note_off, time: 480, actual_time: 46560
type=note_on channel=0 note=52 velocity=79 time=0 actual_time=46560
type: note_off, time: 240, actual_time: 46800
type=note_on channel=0 note=57 velocity=79 time=0 actual_time=46800
type: note_off, time: 240, actual_time: 47040
type=note_on channel=0 note=59 velocity=79 time=0 actual_time=47040
type: note_off, time: 240, actual_time: 47280
type=note_on channel=0 note=60 velocity=54 time=0 actual_time=47280
type: note_off, time: 480, actual_time: 47760
type=note_on channel=0 note=64 velocity=79 time=0 actual_time=47760
type=note_on channel=0 note=62 velocity=79 time=0 actual_time=47760
type: note_off, time: 2160, actual_time: 49920
type: note_off, time: 0, actual_time: 49920
type=note_on channel=0 note=45 velocity=79 time=0 actual_time=49920
type: note_off, time: 480, actual_time: 50400
type=note_on channel=0 note=52 velocity=79 time=0 actual_time=50400
type: note_off, time: 240, actual_time: 50640
type=note_on channel=0 note=57 velocity=79 time=0 actual_time=50640
type: note_off, time: 240, actual_time: 50880
type=note_on channel=0 note=59 velocity=79 time=0 actual_time=50880
type: note_off, time: 240, actual_time: 51120
type=note_on channel=0 note=60 velocity=54 time=0 actual_time=51120
type: note_off, time: 480, actual_time: 51600
type=note_on channel=0 note=59 velocity=79 time=0 actual_time=51600
type=note_on channel=0 note=57 velocity=79 time=0 actual_time=51600
type: note_off, time: 2160, actual_time: 53760
type: note_off, time: 0, actual_time: 53760
type=note_on channel=0 note=45 velocity=79 time=0 actual_time=53760
type: note_off, time: 480, actual_time: 54240
type=note_on channel=0 note=52 velocity=79 time=0 actual_time=54240
type: note_off, time: 240, actual_time: 54480
type=note_on channel=0 note=57 velocity=79 time=0 actual_time=54480
type: note_off, time: 240, actual_time: 54720
type=note_on channel=0 note=59 velocity=79 time=0 actual_time=54720
type: note_off, time: 240, actual_time: 54960
type=note_on channel=0 note=60 velocity=54 time=0 actual_time=54960
type: note_off, time: 480, actual_time: 55440
type=note_on channel=0 note=64 velocity=79 time=0 actual_time=55440
type=note_on channel=0 note=62 velocity=79 time=0 actual_time=55440
type: note_off, time: 2160, actual_time: 57600
type: note_off, time: 0, actual_time: 57600
type=note_on channel=0 note=45 velocity=79 time=0 actual_time=57600
type: note_off, time: 480, actual_time: 58080
type=note_on channel=0 note=52 velocity=79 time=0 actual_time=58080
type: note_off, time: 240, actual_time: 58320
type=note_on channel=0 note=57 velocity=79 time=0 actual_time=58320
type: note_off, time: 240, actual_time: 58560
type=note_on channel=0 note=59 velocity=79 time=0 actual_time=58560
type: note_off, time: 240, actual_time: 58800
type=note_on channel=0 note=60 velocity=54 time=0 actual_time=58800
type: note_off, time: 240, actual_time: 59040
type=note_on channel=0 note=57 velocity=79 time=0 actual_time=59040
type: note_off, time: 240, actual_time: 59280
type=note_on channel=0 note=52 velocity=79 time=0 actual_time=59280
type: note_off, time: 240, actual_time: 59520
type=note_on channel=0 note=48 velocity=79 time=0 actual_time=59520
type: note_off, time: 240, actual_time: 59760
type=note_on channel=0 note=52 velocity=79 time=0 actual_time=59760
type: note_off, time: 240, actual_time: 60000
type=note_on channel=0 note=55 velocity=79 time=0 actual_time=60000
type: note_off, time: 240, actual_time: 60240
type=note_on channel=0 note=62 velocity=79 time=0 actual_time=60240
type: note_off, time: 1200, actual_time: 61440
type=note_on channel=0 note=55 velocity=95 time=33600 actual_time=95040
type: note_off, time: 240, actual_time: 95280
type=note_on channel=0 note=57 velocity=70 time=0 actual_time=95280
type: note_off, time: 240, actual_time: 95520
type=note_on channel=0 note=57 velocity=95 time=0 actual_time=95520
type: note_off, time: 240, actual_time: 95760
type=note_on channel=1 note=60 velocity=95 time=0 actual_time=95760
type: pitchwheel, time: 160, actual_time: 95920
type: pitchwheel, time: 160, actual_time: 96080
type: pitchwheel, time: 160, actual_time: 96240
type: pitchwheel, time: 160, actual_time: 96400
type: pitchwheel, time: 160, actual_time: 96560
type: pitchwheel, time: 160, actual_time: 96720
type: pitchwheel, time: 160, actual_time: 96880
type: pitchwheel, time: 160, actual_time: 97040
type: pitchwheel, time: 160, actual_time: 97200
type: pitchwheel, time: 160, actual_time: 97360
type: pitchwheel, time: 80, actual_time: 97440
type: pitchwheel, time: 0, actual_time: 97440
type: pitchwheel, time: 0, actual_time: 97440
type: note_off, time: 0, actual_time: 97440
type=note_on channel=0 note=67 velocity=95 time=0 actual_time=97440
type: pitchwheel, time: 0, actual_time: 97440
type=note_on channel=1 note=62 velocity=95 time=0 actual_time=97440
type: pitchwheel, time: 98, actual_time: 97538
type: pitchwheel, time: 98, actual_time: 97636
type: pitchwheel, time: 98, actual_time: 97734
type: pitchwheel, time: 98, actual_time: 97832
type: pitchwheel, time: 98, actual_time: 97930
type: pitchwheel, time: 98, actual_time: 98028
type: pitchwheel, time: 98, actual_time: 98126
type: pitchwheel, time: 98, actual_time: 98224
type: pitchwheel, time: 98, actual_time: 98322
type: pitchwheel, time: 98, actual_time: 98420
type: pitchwheel, time: 98, actual_time: 98518
type: pitchwheel, time: 2, actual_time: 98520
type: note_off, time: 1080, actual_time: 99600
type: pitchwheel, time: 0, actual_time: 99600
type: pitchwheel, time: 0, actual_time: 99600
type: note_off, time: 0, actual_time: 99600
type=note_on channel=0 note=64 velocity=95 time=0 actual_time=99600
type: note_off, time: 240, actual_time: 99840
type=note_on channel=1 note=57 velocity=95 time=0 actual_time=99840
type: pitchwheel, time: 160, actual_time: 100000
type: pitchwheel, time: 160, actual_time: 100160
type: pitchwheel, time: 160, actual_time: 100320
type: pitchwheel, time: 160, actual_time: 100480
type: pitchwheel, time: 160, actual_time: 100640
type: pitchwheel, time: 160, actual_time: 100800
type: pitchwheel, time: 160, actual_time: 100960
type: pitchwheel, time: 160, actual_time: 101120
type: pitchwheel, time: 160, actual_time: 101280
type: pitchwheel, time: 160, actual_time: 101440
type: pitchwheel, time: 160, actual_time: 101600
type: pitchwheel, time: 160, actual_time: 101760
type: pitchwheel, time: 160, actual_time: 101920
type: pitchwheel, time: 160, actual_time: 102080
type: pitchwheel, time: 160, actual_time: 102240
type: pitchwheel, time: 160, actual_time: 102400
type: pitchwheel, time: 160, actual_time: 102560
type: pitchwheel, time: 160, actual_time: 102720
type: pitchwheel, time: 0, actual_time: 102720
type: note_off, time: 0, actual_time: 102720
type=note_on channel=0 note=55 velocity=95 time=0 actual_time=102720
type: note_off, time: 240, actual_time: 102960
type=note_on channel=0 note=57 velocity=70 time=0 actual_time=102960
type: note_off, time: 240, actual_time: 103200
type=note_on channel=0 note=57 velocity=95 time=0 actual_time=103200
type: note_off, time: 240, actual_time: 103440
type=note_on channel=1 note=60 velocity=95 time=0 actual_time=103440
type: pitchwheel, time: 160, actual_time: 103600
type: pitchwheel, time: 160, actual_time: 103760
type: pitchwheel, time: 160, actual_time: 103920
type: pitchwheel, time: 160, actual_time: 104080
type: pitchwheel, time: 160, actual_time: 104240
type: pitchwheel, time: 160, actual_time: 104400
type: pitchwheel, time: 160, actual_time: 104560
type: pitchwheel, time: 80, actual_time: 104640
type: pitchwheel, time: 0, actual_time: 104640
type: note_off, time: 0, actual_time: 104640
type=note_on channel=0 note=57 velocity=95 time=0 actual_time=104640
type: note_off, time: 240, actual_time: 104880
type=note_on channel=0 note=55 velocity=70 time=0 actual_time=104880
type: note_off, time: 240, actual_time: 105120
type=note_on channel=0 note=52 velocity=95 time=0 actual_time=105120
type: note_off, time: 240, actual_time: 105360
type=note_on channel=1 note=55 velocity=95 time=0 actual_time=105360
type: pitchwheel, time: 160, actual_time: 105520
type: pitchwheel, time: 160, actual_time: 105680
type: pitchwheel, time: 160, actual_time: 105840
type: pitchwheel, time: 160, actual_time: 106000
type: pitchwheel, time: 160, actual_time: 106160
type: pitchwheel, time: 160, actual_time: 106320
type: pitchwheel, time: 160, actual_time: 106480
type: pitchwheel, time: 80, actual_time: 106560
type: pitchwheel, time: 0, actual_time: 106560
type: note_off, time: 0, actual_time: 106560
type=note_on channel=0 note=52 velocity=95 time=0 actual_time=106560
type: note_off, time: 240, actual_time: 106800
type=note_on channel=0 note=50 velocity=70 time=0 actual_time=106800
type: note_off, time: 240, actual_time: 107040
type=note_on channel=0 note=40 velocity=95 time=0 actual_time=107040
type: note_off, time: 480, actual_time: 107520
type=note_on channel=0 note=64 velocity=47 time=6240 actual_time=113760
type: note_off, time: 480, actual_time: 114240
type=note_on channel=0 note=59 velocity=47 time=0 actual_time=114240
type: note_off, time: 480, actual_time: 114720
type=note_on channel=0 note=62 velocity=47 time=0 actual_time=114720
type: note_off, time: 480, actual_time: 115200
type=note_on channel=0 note=64 velocity=47 time=0 actual_time=115200
type=note_on channel=0 note=60 velocity=47 time=0 actual_time=115200
type=note_on channel=0 note=57 velocity=47 time=0 actual_time=115200
type=note_on channel=0 note=52 velocity=47 time=0 actual_time=115200
type=note_on channel=0 note=45 velocity=47 time=0 actual_time=115200
type: note_off, time: 3840, actual_time: 119040
type: note_off, time: 0, actual_time: 119040
type: note_off, time: 0, actual_time: 119040
type: note_off, time: 0, actual_time: 119040
type: note_off, time: 0, actual_time: 119040
type=note_on channel=0 note=62 velocity=47 time=2400 actual_time=121440
type: note_off, time: 480, actual_time: 121920
type=note_on channel=0 note=55 velocity=47 time=0 actual_time=121920
type: note_off, time: 480, actual_time: 122400
type=note_on channel=0 note=59 velocity=47 time=0 actual_time=122400
type: note_off, time: 480, actual_time: 122880
type=note_on channel=0 note=67 velocity=47 time=0 actual_time=122880
type: note_off, time: 240, actual_time: 123120
type=note_on channel=0 note=67 velocity=47 time=0 actual_time=123120
type: note_off, time: 480, actual_time: 123600
type=note_on channel=0 note=64 velocity=47 time=0 actual_time=123600
type: note_off, time: 240, actual_time: 123840
type=note_on channel=0 note=67 velocity=47 time=0 actual_time=123840
type=note_on channel=0 note=64 velocity=47 time=0 actual_time=123840
type: note_off, time: 240, actual_time: 124080
type: note_off, time: 0, actual_time: 124080
type=note_on channel=0 note=67 velocity=47 time=0 actual_time=124080
type=note_on channel=0 note=64 velocity=47 time=0 actual_time=124080
type: note_off, time: 240, actual_time: 124320
type: note_off, time: 0, actual_time: 124320
type=note_on channel=0 note=67 velocity=47 time=0 actual_time=124320
type=note_on channel=0 note=64 velocity=47 time=0 actual_time=124320
type: note_off, time: 240, actual_time: 124560
type: note_off, time: 0, actual_time: 124560
type=note_on channel=0 note=67 velocity=47 time=0 actual_time=124560
type=note_on channel=0 note=64 velocity=47 time=0 actual_time=124560
type: note_off, time: 240, actual_time: 124800
type: note_off, time: 0, actual_time: 124800
type=note_on channel=0 note=67 velocity=47 time=0 actual_time=124800
type=note_on channel=0 note=64 velocity=47 time=0 actual_time=124800
type: note_off, time: 240, actual_time: 125040
type: note_off, time: 0, actual_time: 125040
type=note_on channel=0 note=67 velocity=47 time=0 actual_time=125040
type=note_on channel=0 note=64 velocity=47 time=0 actual_time=125040
type: note_off, time: 240, actual_time: 125280
type: note_off, time: 0, actual_time: 125280
type=note_on channel=0 note=67 velocity=47 time=0 actual_time=125280
type=note_on channel=0 note=64 velocity=47 time=0 actual_time=125280
type: note_off, time: 240, actual_time: 125520
type: note_off, time: 0, actual_time: 125520
type=note_on channel=0 note=67 velocity=47 time=0 actual_time=125520
type=note_on channel=0 note=64 velocity=47 time=0 actual_time=125520
type: note_off, time: 240, actual_time: 125760
type: note_off, time: 0, actual_time: 125760
type=note_on channel=0 note=67 velocity=47 time=0 actual_time=125760
type=note_on channel=0 note=64 velocity=47 time=0 actual_time=125760
type: note_off, time: 240, actual_time: 126000
type: note_off, time: 0, actual_time: 126000
type=note_on channel=0 note=67 velocity=47 time=0 actual_time=126000
type=note_on channel=0 note=64 velocity=47 time=0 actual_time=126000
type: note_off, time: 240, actual_time: 126240
type: note_off, time: 0, actual_time: 126240
type=note_on channel=0 note=67 velocity=47 time=0 actual_time=126240
type=note_on channel=0 note=64 velocity=47 time=0 actual_time=126240
type: note_off, time: 240, actual_time: 126480
type: note_off, time: 0, actual_time: 126480
type=note_on channel=0 note=67 velocity=47 time=0 actual_time=126480
type=note_on channel=0 note=64 velocity=47 time=0 actual_time=126480
type: note_off, time: 240, actual_time: 126720
type: note_off, time: 0, actual_time: 126720
type=note_on channel=0 note=67 velocity=47 time=0 actual_time=126720
type=note_on channel=0 note=64 velocity=47 time=0 actual_time=126720
type: note_off, time: 240, actual_time: 126960
type: note_off, time: 0, actual_time: 126960
type=note_on channel=0 note=67 velocity=47 time=0 actual_time=126960
type=note_on channel=0 note=64 velocity=47 time=0 actual_time=126960
type: note_off, time: 240, actual_time: 127200
type: note_off, time: 0, actual_time: 127200
type=note_on channel=0 note=67 velocity=47 time=0 actual_time=127200
type=note_on channel=0 note=64 velocity=47 time=0 actual_time=127200
type: note_off, time: 240, actual_time: 127440
type: note_off, time: 0, actual_time: 127440
type=note_on channel=0 note=67 velocity=47 time=0 actual_time=127440
type=note_on channel=0 note=64 velocity=47 time=0 actual_time=127440
type: note_off, time: 240, actual_time: 127680
type: note_off, time: 0, actual_time: 127680
type=note_on channel=0 note=57 velocity=47 time=1440 actual_time=129120
type: note_off, time: 480, actual_time: 129600
type=note_on channel=0 note=64 velocity=47 time=0 actual_time=129600
type: note_off, time: 480, actual_time: 130080
type=note_on channel=0 note=57 velocity=47 time=0 actual_time=130080
type: note_off, time: 480, actual_time: 130560
type=note_on channel=0 note=69 velocity=47 time=0 actual_time=130560
type: note_off, time: 240, actual_time: 130800
type=note_on channel=0 note=64 velocity=47 time=0 actual_time=130800
type: note_off, time: 480, actual_time: 131280
type=note_on channel=0 note=67 velocity=47 time=0 actual_time=131280
type: note_off, time: 240, actual_time: 131520
type=note_on channel=0 note=69 velocity=47 time=0 actual_time=131520
type: note_off, time: 240, actual_time: 131760
type=note_on channel=0 note=69 velocity=47 time=0 actual_time=131760
type: note_off, time: 240, actual_time: 132000
type=note_on channel=0 note=60 velocity=47 time=0 actual_time=132000
type: note_off, time: 240, actual_time: 132240
type=note_on channel=0 note=67 velocity=47 time=0 actual_time=132240
type: note_off, time: 240, actual_time: 132480
type=note_on channel=0 note=69 velocity=47 time=0 actual_time=132480
type: note_off, time: 240, actual_time: 132720
type=note_on channel=0 note=69 velocity=47 time=0 actual_time=132720
type: note_off, time: 240, actual_time: 132960
type=note_on channel=0 note=60 velocity=47 time=0 actual_time=132960
type: note_off, time: 240, actual_time: 133200
type=note_on channel=0 note=67 velocity=47 time=0 actual_time=133200
type: note_off, time: 240, actual_time: 133440
type=note_on channel=0 note=69 velocity=47 time=0 actual_time=133440
type: note_off, time: 240, actual_time: 133680
type=note_on channel=0 note=69 velocity=47 time=0 actual_time=133680
type: note_off, time: 240, actual_time: 133920
type=note_on channel=0 note=67 velocity=47 time=0 actual_time=133920
type: note_off, time: 240, actual_time: 134160
type=note_on channel=0 note=67 velocity=47 time=0 actual_time=134160
type: note_off, time: 240, actual_time: 134400
type=note_on channel=0 note=45 velocity=79 time=49920 actual_time=184320
type: note_off, time: 480, actual_time: 184800
type=note_on channel=0 note=52 velocity=79 time=0 actual_time=184800
type: note_off, time: 240, actual_time: 185040
type=note_on channel=0 note=57 velocity=79 time=0 actual_time=185040
type: note_off, time: 240, actual_time: 185280
type=note_on channel=0 note=59 velocity=79 time=0 actual_time=185280
type: note_off, time: 240, actual_time: 185520
type=note_on channel=0 note=60 velocity=54 time=0 actual_time=185520
type: note_off, time: 480, actual_time: 186000
type=note_on channel=0 note=62 velocity=79 time=0 actual_time=186000
type: note_off, time: 720, actual_time: 186720
type=note_on channel=0 note=64 velocity=79 time=0 actual_time=186720
type: note_off, time: 480, actual_time: 187200
type=note_on channel=0 note=62 velocity=79 time=0 actual_time=187200
type: note_off, time: 480, actual_time: 187680
type=note_on channel=0 note=57 velocity=79 time=0 actual_time=187680
type: note_off, time: 480, actual_time: 188160
type=note_on channel=0 note=45 velocity=79 time=0 actual_time=188160
type: note_off, time: 480, actual_time: 188640
type=note_on channel=0 note=52 velocity=79 time=0 actual_time=188640
type: note_off, time: 240, actual_time: 188880
type=note_on channel=0 note=57 velocity=79 time=0 actual_time=188880
type: note_off, time: 240, actual_time: 189120
type=note_on channel=0 note=59 velocity=79 time=0 actual_time=189120
type: note_off, time: 240, actual_time: 189360
type=note_on channel=0 note=60 velocity=54 time=0 actual_time=189360
type: note_off, time: 480, actual_time: 189840
type=note_on channel=0 note=59 velocity=79 time=0 actual_time=189840
type=note_on channel=0 note=57 velocity=79 time=0 actual_time=189840
type: note_off, time: 2160, actual_time: 192000
type: note_off, time: 0, actual_time: 192000
type=note_on channel=0 note=45 velocity=79 time=0 actual_time=192000
type: note_off, time: 480, actual_time: 192480
type=note_on channel=0 note=52 velocity=79 time=0 actual_time=192480
type: note_off, time: 240, actual_time: 192720
type=note_on channel=0 note=57 velocity=79 time=0 actual_time=192720
type: note_off, time: 240, actual_time: 192960
type=note_on channel=0 note=59 velocity=79 time=0 actual_time=192960
type: note_off, time: 240, actual_time: 193200
type=note_on channel=0 note=60 velocity=54 time=0 actual_time=193200
type: note_off, time: 480, actual_time: 193680
type=note_on channel=0 note=62 velocity=79 time=0 actual_time=193680
type: note_off, time: 720, actual_time: 194400
type=note_on channel=0 note=64 velocity=79 time=0 actual_time=194400
type: note_off, time: 480, actual_time: 194880
type=note_on channel=0 note=62 velocity=79 time=0 actual_time=194880
type: note_off, time: 480, actual_time: 195360
type=note_on channel=0 note=57 velocity=79 time=0 actual_time=195360
type: note_off, time: 480, actual_time: 195840
type=note_on channel=0 note=45 velocity=79 time=0 actual_time=195840
type: note_off, time: 480, actual_time: 196320
type=note_on channel=0 note=52 velocity=79 time=0 actual_time=196320
type: note_off, time: 240, actual_time: 196560
type=note_on channel=0 note=57 velocity=79 time=0 actual_time=196560
type: note_off, time: 240, actual_time: 196800
type=note_on channel=0 note=59 velocity=79 time=0 actual_time=196800
type: note_off, time: 240, actual_time: 197040
type=note_on channel=0 note=60 velocity=54 time=0 actual_time=197040
type: note_off, time: 480, actual_time: 197520
type=note_on channel=0 note=59 velocity=79 time=0 actual_time=197520
type=note_on channel=0 note=57 velocity=79 time=0 actual_time=197520
type: note_off, time: 2160, actual_time: 199680
type: note_off, time: 0, actual_time: 199680
type: pitchwheel, time: 0, actual_time: 199680
type=note_on channel=1 note=60 velocity=95 time=0 actual_time=199680
type: pitchwheel, time: 96, actual_time: 199776
type: pitchwheel, time: 96, actual_time: 199872
type: pitchwheel, time: 96, actual_time: 199968
type: pitchwheel, time: 96, actual_time: 200064
type: pitchwheel, time: 96, actual_time: 200160
type: pitchwheel, time: 0, actual_time: 200160
type: pitchwheel, time: 480, actual_time: 200640
type: pitchwheel, time: 0, actual_time: 200640
type: note_off, time: 0, actual_time: 200640
type=note_on channel=0 note=57 velocity=127 time=0 actual_time=200640
type: note_off, time: 240, actual_time: 200880
type=note_on channel=0 note=55 velocity=102 time=0 actual_time=200880
type: note_off, time: 240, actual_time: 201120
type=note_on channel=1 note=57 velocity=127 time=0 actual_time=201120
type: pitchwheel, time: 160, actual_time: 201280
type: pitchwheel, time: 160, actual_time: 201440
type: pitchwheel, time: 160, actual_time: 201600
type: pitchwheel, time: 160, actual_time: 201760
type: pitchwheel, time: 80, actual_time: 201840
type: pitchwheel, time: 0, actual_time: 201840
type: pitchwheel, time: 0, actual_time: 201840
type: note_off, time: 0, actual_time: 201840
type=note_on channel=1 note=57 velocity=127 time=0 actual_time=201840
type: pitchwheel, time: 160, actual_time: 202000
type: pitchwheel, time: 160, actual_time: 202160
type: pitchwheel, time: 160, actual_time: 202320
type: pitchwheel, time: 160, actual_time: 202480
type: pitchwheel, time: 80, actual_time: 202560
type: pitchwheel, time: 0, actual_time: 202560
type: pitchwheel, time: 0, actual_time: 202560
type: note_off, time: 0, actual_time: 202560
type=note_on channel=1 note=57 velocity=127 time=0 actual_time=202560
type: pitchwheel, time: 160, actual_time: 202720
type: pitchwheel, time: 160, actual_time: 202880
type: pitchwheel, time: 160, actual_time: 203040
type: pitchwheel, time: 160, actual_time: 203200
type: pitchwheel, time: 80, actual_time: 203280
type: pitchwheel, time: 0, actual_time: 203280
type: pitchwheel, time: 0, actual_time: 203280
type: note_off, time: 0, actual_time: 203280
type=note_on channel=0 note=57 velocity=127 time=0 actual_time=203280
type: note_off, time: 240, actual_time: 203520
type=note_on channel=0 note=57 velocity=127 time=0 actual_time=203520
type: note_off, time: 240, actual_time: 203760
type=note_on channel=0 note=55 velocity=102 time=0 actual_time=203760
type: note_off, time: 240, actual_time: 204000
type=note_on channel=0 note=52 velocity=127 time=0 actual_time=204000
type: note_off, time: 240, actual_time: 204240
type=note_on channel=0 note=55 velocity=127 time=0 actual_time=204240
type: note_off, time: 240, actual_time: 204480
type=note_on channel=0 note=52 velocity=127 time=0 actual_time=204480
type: note_off, time: 240, actual_time: 204720
type=note_on channel=0 note=51 velocity=127 time=0 actual_time=204720
type: note_off, time: 240, actual_time: 204960
type: pitchwheel, time: 0, actual_time: 204960
type=note_on channel=1 note=50 velocity=127 time=0 actual_time=204960
type: pitchwheel, time: 72, actual_time: 205032
type: pitchwheel, time: 72, actual_time: 205104
type: pitchwheel, time: 72, actual_time: 205176
type: pitchwheel, time: 72, actual_time: 205248
type: pitchwheel, time: 72, actual_time: 205320
type: pitchwheel, time: 0, actual_time: 205320
type: pitchwheel, time: 360, actual_time: 205680
type: pitchwheel, time: 0, actual_time: 205680
type: note_off, time: 0, actual_time: 205680
type=note_on channel=0 note=51 velocity=127 time=0 actual_time=205680
type: note_off, time: 240, actual_time: 205920
type=note_on channel=0 note=51 velocity=127 time=0 actual_time=205920
type: note_off, time: 240, actual_time: 206160
type=note_on channel=0 note=50 velocity=127 time=0 actual_time=206160
type: note_off, time: 240, actual_time: 206400
type=note_on channel=0 note=48 velocity=127 time=0 actual_time=206400
type: note_off, time: 240, actual_time: 206640
type=note_on channel=0 note=48 velocity=127 time=0 actual_time=206640
type: note_off, time: 240, actual_time: 206880
type=note_on channel=0 note=48 velocity=127 time=0 actual_time=206880
type: note_off, time: 240, actual_time: 207120
type=note_on channel=0 note=45 velocity=127 time=0 actual_time=207120
type: note_off, time: 240, actual_time: 207360
type=note_on channel=1 note=45 velocity=127 time=0 actual_time=207360
type: pitchwheel, time: 160, actual_time: 207520
type: pitchwheel, time: 160, actual_time: 207680
type: pitchwheel, time: 160, actual_time: 207840
type: pitchwheel, time: 160, actual_time: 208000
type: pitchwheel, time: 80, actual_time: 208080
type: pitchwheel, time: 0, actual_time: 208080
type: pitchwheel, time: 0, actual_time: 208080
type: note_off, time: 0, actual_time: 208080
type=note_on channel=0 note=45 velocity=127 time=0 actual_time=208080
type: note_off, time: 240, actual_time: 208320
type=note_on channel=0 note=48 velocity=127 time=0 actual_time=208320
type: note_off, time: 240, actual_time: 208560
type=note_on channel=0 note=45 velocity=127 time=0 actual_time=208560
type: note_off, time: 240, actual_time: 208800
type=note_on channel=1 note=45 velocity=127 time=0 actual_time=208800
type: pitchwheel, time: 160, actual_time: 208960
type: pitchwheel, time: 160, actual_time: 209120
type: pitchwheel, time: 160, actual_time: 209280
type: pitchwheel, time: 160, actual_time: 209440
type: pitchwheel, time: 80, actual_time: 209520
type: pitchwheel, time: 0, actual_time: 209520
type: pitchwheel, time: 0, actual_time: 209520
type: note_off, time: 0, actual_time: 209520
type=note_on channel=0 note=43 velocity=127 time=0 actual_time=209520
type: note_off, time: 240, actual_time: 209760
type=note_on channel=0 note=45 velocity=127 time=0 actual_time=209760
type: note_off, time: 240, actual_time: 210000
type=note_on channel=0 note=43 velocity=127 time=0 actual_time=210000
type: note_off, time: 240, actual_time: 210240
type=note_on channel=0 note=45 velocity=127 time=0 actual_time=210240
type: note_off, time: 480, actual_time: 210720
type=note_on channel=0 note=40 velocity=127 time=0 actual_time=210720
type: note_off, time: 240, actual_time: 210960
type=note_on channel=0 note=40 velocity=127 time=0 actual_time=210960
type: note_off, time: 240, actual_time: 211200
type=note_on channel=0 note=57 velocity=127 time=0 actual_time=211200
type: note_off, time: 240, actual_time: 211440
type=note_on channel=0 note=57 velocity=127 time=0 actual_time=211440
type: note_off, time: 480, actual_time: 211920
type=note_on channel=0 note=57 velocity=127 time=0 actual_time=211920
type: note_off, time: 240, actual_time: 212160
type: pitchwheel, time: 0, actual_time: 212160
type=note_on channel=1 note=60 velocity=127 time=0 actual_time=212160
type: pitchwheel, time: 48, actual_time: 212208
type: pitchwheel, time: 48, actual_time: 212256
type: pitchwheel, time: 48, actual_time: 212304
type: pitchwheel, time: 48, actual_time: 212352
type: pitchwheel, time: 48, actual_time: 212400
type: pitchwheel, time: 0, actual_time: 212400
type: pitchwheel, time: 240, actual_time: 212640
type: pitchwheel, time: 0, actual_time: 212640
type: note_off, time: 0, actual_time: 212640
type=note_on channel=0 note=57 velocity=127 time=0 actual_time=212640
type: note_off, time: 240, actual_time: 212880
type=note_on channel=0 note=57 velocity=127 time=0 actual_time=212880
type: note_off, time: 480, actual_time: 213360
type=note_on channel=0 note=57 velocity=127 time=0 actual_time=213360
type: note_off, time: 240, actual_time: 213600
type=note_on channel=0 note=57 velocity=127 time=0 actual_time=213600
type: note_off, time: 240, actual_time: 213840
type=note_on channel=0 note=55 velocity=127 time=0 actual_time=213840
type: note_off, time: 240, actual_time: 214080
type: pitchwheel, time: 0, actual_time: 214080
type=note_on channel=1 note=60 velocity=127 time=0 actual_time=214080
type: pitchwheel, time: 48, actual_time: 214128
type: pitchwheel, time: 48, actual_time: 214176
type: pitchwheel, time: 48, actual_time: 214224
type: pitchwheel, time: 48, actual_time: 214272
type: pitchwheel, time: 48, actual_time: 214320
type: pitchwheel, time: 0, actual_time: 214320
type: pitchwheel, time: 240, actual_time: 214560
type: pitchwheel, time: 0, actual_time: 214560
type: note_off, time: 0, actual_time: 214560
type=note_on channel=0 note=50 velocity=127 time=0 actual_time=214560
type: note_off, time: 240, actual_time: 214800
type=note_on channel=0 note=50 velocity=127 time=0 actual_time=214800
type: note_off, time: 240, actual_time: 215040
type=note_on channel=0 note=59 velocity=127 time=0 actual_time=215040
type: note_off, time: 1440, actual_time: 216480
type=note_on channel=0 note=52 velocity=127 time=0 actual_time=216480
type: note_off, time: 1440, actual_time: 217920
type=note_on channel=0 note=59 velocity=127 time=0 actual_time=217920
type: note_off, time: 240, actual_time: 218160
type=note_on channel=0 note=60 velocity=127 time=0 actual_time=218160
type: note_off, time: 240, actual_time: 218400
type=note_on channel=0 note=50 velocity=127 time=0 actual_time=218400
type: note_off, time: 240, actual_time: 218640
type=note_on channel=0 note=50 velocity=127 time=0 actual_time=218640
type: note_off, time: 240, actual_time: 218880
type=note_on channel=0 note=59 velocity=127 time=0 actual_time=218880
type: note_off, time: 1440, actual_time: 220320
type=note_on channel=0 note=57 velocity=127 time=0 actual_time=220320
type: note_off, time: 720, actual_time: 221040
type=note_on channel=1 note=57 velocity=127 time=0 actual_time=221040
type: note_off, time: 720, actual_time: 221760
type=note_on channel=0 note=64 velocity=127 time=0 actual_time=221760
type=note_on channel=0 note=60 velocity=127 time=0 actual_time=221760
type: note_off, time: 480, actual_time: 222240
type: note_off, time: 0, actual_time: 222240
type=note_on channel=0 note=64 velocity=127 time=0 actual_time=222240
type=note_on channel=0 note=60 velocity=127 time=0 actual_time=222240
type: note_off, time: 480, actual_time: 222720
type: note_off, time: 0, actual_time: 222720
type: pitchwheel, time: 0, actual_time: 222720
type=note_on channel=1 note=62 velocity=127 time=0 actual_time=222720
type: pitchwheel, time: 72, actual_time: 222792
type: pitchwheel, time: 72, actual_time: 222864
type: pitchwheel, time: 72, actual_time: 222936
type: pitchwheel, time: 72, actual_time: 223008
type: pitchwheel, time: 72, actual_time: 223080
type: pitchwheel, time: 0, actual_time: 223080
type: pitchwheel, time: 360, actual_time: 223440
type: pitchwheel, time: 0, actual_time: 223440
type: note_off, time: 0, actual_time: 223440
type=note_on channel=0 note=67 velocity=127 time=0 actual_time=223440
type: pitchwheel, time: 0, actual_time: 223440
type=note_on channel=1 note=62 velocity=127 time=0 actual_time=223440
type: note_off, time: 240, actual_time: 223680
type: pitchwheel, time: 0, actual_time: 223680
type: pitchwheel, time: 0, actual_time: 223680
type: note_off, time: 0, actual_time: 223680
type=note_on channel=0 note=67 velocity=127 time=0 actual_time=223680
type: pitchwheel, time: 0, actual_time: 223680
type=note_on channel=1 note=62 velocity=127 time=0 actual_time=223680
type: note_off, time: 240, actual_time: 223920
type: pitchwheel, time: 0, actual_time: 223920
type: pitchwheel, time: 0, actual_time: 223920
type: note_off, time: 0, actual_time: 223920
type=note_on channel=0 note=67 velocity=127 time=0 actual_time=223920
type: pitchwheel, time: 0, actual_time: 223920
type=note_on channel=1 note=62 velocity=127 time=0 actual_time=223920
type: note_off, time: 240, actual_time: 224160
type: pitchwheel, time: 0, actual_time: 224160
type: pitchwheel, time: 0, actual_time: 224160
type: note_off, time: 0, actual_time: 224160
type=note_on channel=0 note=64 velocity=127 time=0 actual_time=224160
type: pitchwheel, time: 0, actual_time: 224160
type=note_on channel=1 note=62 velocity=127 time=0 actual_time=224160
type: pitchwheel, time: 32, actual_time: 224192
type: pitchwheel, time: 32, actual_time: 224224
type: pitchwheel, time: 32, actual_time: 224256
type: pitchwheel, time: 32, actual_time: 224288
type: pitchwheel, time: 32, actual_time: 224320
type: pitchwheel, time: 32, actual_time: 224352
type: pitchwheel, time: 32, actual_time: 224384
type: pitchwheel, time: 32, actual_time: 224416
type: pitchwheel, time: 32, actual_time: 224448
type: pitchwheel, time: 32, actual_time: 224480
type: pitchwheel, time: 32, actual_time: 224512
type: pitchwheel, time: 8, actual_time: 224520
type: note_off, time: 360, actual_time: 224880
type: pitchwheel, time: 0, actual_time: 224880
type: pitchwheel, time: 0, actual_time: 224880
type: note_off, time: 0, actual_time: 224880
type=note_on channel=0 note=64 velocity=127 time=0 actual_time=224880
type: pitchwheel, time: 0, actual_time: 224880
type=note_on channel=1 note=62 velocity=127 time=0 actual_time=224880
type: note_off, time: 240, actual_time: 225120
type: pitchwheel, time: 0, actual_time: 225120
type: pitchwheel, time: 0, actual_time: 225120
type: note_off, time: 0, actual_time: 225120
type=note_on channel=0 note=64 velocity=127 time=0 actual_time=225120
type: pitchwheel, time: 0, actual_time: 225120
type=note_on channel=1 note=62 velocity=127 time=0 actual_time=225120
type: note_off, time: 240, actual_time: 225360
type: pitchwheel, time: 0, actual_time: 225360
type: pitchwheel, time: 0, actual_time: 225360
type: note_off, time: 0, actual_time: 225360
type=note_on channel=0 note=64 velocity=127 time=0 actual_time=225360
type: pitchwheel, time: 0, actual_time: 225360
type=note_on channel=1 note=62 velocity=127 time=0 actual_time=225360
type: note_off, time: 240, actual_time: 225600
type: pitchwheel, time: 0, actual_time: 225600
type: pitchwheel, time: 0, actual_time: 225600
type: note_off, time: 0, actual_time: 225600
type=note_on channel=0 note=64 velocity=127 time=0 actual_time=225600
type: pitchwheel, time: 0, actual_time: 225600
type=note_on channel=1 note=62 velocity=127 time=0 actual_time=225600
type: note_off, time: 240, actual_time: 225840
type: pitchwheel, time: 0, actual_time: 225840
type: pitchwheel, time: 0, actual_time: 225840
type: note_off, time: 0, actual_time: 225840
type=note_on channel=0 note=64 velocity=127 time=0 actual_time=225840
type: pitchwheel, time: 0, actual_time: 225840
type=note_on channel=1 note=62 velocity=127 time=0 actual_time=225840
type: note_off, time: 720, actual_time: 226560
type: pitchwheel, time: 0, actual_time: 226560
type: pitchwheel, time: 0, actual_time: 226560
type: note_off, time: 0, actual_time: 226560
type=note_on channel=0 note=67 velocity=127 time=0 actual_time=226560
type: pitchwheel, time: 0, actual_time: 226560
type=note_on channel=1 note=65 velocity=127 time=0 actual_time=226560
type: pitchwheel, time: 10, actual_time: 226570
type: pitchwheel, time: 10, actual_time: 226580
type: pitchwheel, time: 10, actual_time: 226590
type: pitchwheel, time: 10, actual_time: 226600
type: pitchwheel, time: 10, actual_time: 226610
type: pitchwheel, time: 10, actual_time: 226620
type: pitchwheel, time: 10, actual_time: 226630
type: pitchwheel, time: 10, actual_time: 226640
type: pitchwheel, time: 10, actual_time: 226650
type: pitchwheel, time: 10, actual_time: 226660
type: pitchwheel, time: 10, actual_time: 226670
type: pitchwheel, time: 10, actual_time: 226680
type: note_off, time: 120, actual_time: 226800
type: pitchwheel, time: 0, actual_time: 226800
type: pitchwheel, time: 0, actual_time: 226800
type: note_off, time: 0, actual_time: 226800
type=note_on channel=0 note=67 velocity=127 time=0 actual_time=226800
type: pitchwheel, time: 0, actual_time: 226800
type=note_on channel=1 note=65 velocity=127 time=0 actual_time=226800
type: note_off, time: 480, actual_time: 227280
type: pitchwheel, time: 0, actual_time: 227280
type: pitchwheel, time: 0, actual_time: 227280
type: note_off, time: 0, actual_time: 227280
type=note_on channel=0 note=67 velocity=127 time=0 actual_time=227280
type: pitchwheel, time: 0, actual_time: 227280
type=note_on channel=1 note=65 velocity=127 time=0 actual_time=227280
type: note_off, time: 240, actual_time: 227520
type: pitchwheel, time: 0, actual_time: 227520
type: pitchwheel, time: 0, actual_time: 227520
type: note_off, time: 0, actual_time: 227520
type=note_on channel=0 note=67 velocity=127 time=0 actual_time=227520
type: pitchwheel, time: 0, actual_time: 227520
type=note_on channel=1 note=65 velocity=127 time=0 actual_time=227520
type: note_off, time: 240, actual_time: 227760
type: pitchwheel, time: 0, actual_time: 227760
type: pitchwheel, time: 0, actual_time: 227760
type: note_off, time: 0, actual_time: 227760
type=note_on channel=0 note=67 velocity=127 time=0 actual_time=227760
type: pitchwheel, time: 0, actual_time: 227760
type=note_on channel=1 note=65 velocity=127 time=0 actual_time=227760
type: note_off, time: 240, actual_time: 228000
type: pitchwheel, time: 0, actual_time: 228000
type: pitchwheel, time: 0, actual_time: 228000
type: note_off, time: 0, actual_time: 228000
type=note_on channel=0 note=71 velocity=127 time=0 actual_time=228000
type: pitchwheel, time: 0, actual_time: 228000
type=note_on channel=1 note=69 velocity=127 time=0 actual_time=228000
type: pitchwheel, time: 32, actual_time: 228032
type: pitchwheel, time: 32, actual_time: 228064
type: pitchwheel, time: 32, actual_time: 228096
type: pitchwheel, time: 32, actual_time: 228128
type: pitchwheel, time: 32, actual_time: 228160
type: pitchwheel, time: 32, actual_time: 228192
type: pitchwheel, time: 32, actual_time: 228224
type: pitchwheel, time: 32, actual_time: 228256
type: pitchwheel, time: 32, actual_time: 228288
type: pitchwheel, time: 32, actual_time: 228320
type: pitchwheel, time: 32, actual_time: 228352
type: pitchwheel, time: 8, actual_time: 228360
type: note_off, time: 360, actual_time: 228720
type: pitchwheel, time: 0, actual_time: 228720
type: pitchwheel, time: 0, actual_time: 228720
type: note_off, time: 0, actual_time: 228720
type=note_on channel=0 note=71 velocity=127 time=0 actual_time=228720
type: pitchwheel, time: 0, actual_time: 228720
type=note_on channel=1 note=69 velocity=127 time=0 actual_time=228720
type: note_off, time: 240, actual_time: 228960
type: pitchwheel, time: 0, actual_time: 228960
type: pitchwheel, time: 0, actual_time: 228960
type: note_off, time: 0, actual_time: 228960
type=note_on channel=0 note=71 velocity=127 time=0 actual_time=228960
type: pitchwheel, time: 0, actual_time: 228960
type=note_on channel=1 note=69 velocity=127 time=0 actual_time=228960
type: note_off, time: 240, actual_time: 229200
type: pitchwheel, time: 0, actual_time: 229200
type: pitchwheel, time: 0, actual_time: 229200
type: note_off, time: 0, actual_time: 229200
type=note_on channel=0 note=71 velocity=127 time=0 actual_time=229200
type: pitchwheel, time: 0, actual_time: 229200
type=note_on channel=1 note=69 velocity=127 time=0 actual_time=229200
type: note_off, time: 240, actual_time: 229440
type: pitchwheel, time: 0, actual_time: 229440
type: pitchwheel, time: 0, actual_time: 229440
type: note_off, time: 0, actual_time: 229440
type=note_on channel=0 note=76 velocity=127 time=0 actual_time=229440
type: pitchwheel, time: 0, actual_time: 229440
type=note_on channel=1 note=74 velocity=127 time=0 actual_time=229440
type: pitchwheel, time: 10, actual_time: 229450
type: pitchwheel, time: 10, actual_time: 229460
type: pitchwheel, time: 10, actual_time: 229470
type: pitchwheel, time: 10, actual_time: 229480
type: pitchwheel, time: 10, actual_time: 229490
type: pitchwheel, time: 10, actual_time: 229500
type: pitchwheel, time: 10, actual_time: 229510
type: pitchwheel, time: 10, actual_time: 229520
type: pitchwheel, time: 10, actual_time: 229530
type: pitchwheel, time: 10, actual_time: 229540
type: pitchwheel, time: 10, actual_time: 229550
type: pitchwheel, time: 10, actual_time: 229560
type: note_off, time: 120, actual_time: 229680
type: pitchwheel, time: 0, actual_time: 229680
type: pitchwheel, time: 0, actual_time: 229680
type: note_off, time: 0, actual_time: 229680
type=note_on channel=0 note=76 velocity=127 time=0 actual_time=229680
type: pitchwheel, time: 0, actual_time: 229680
type=note_on channel=1 note=74 velocity=127 time=0 actual_time=229680
type: note_off, time: 240, actual_time: 229920
type: pitchwheel, time: 0, actual_time: 229920
type: pitchwheel, time: 0, actual_time: 229920
type: note_off, time: 0, actual_time: 229920
type=note_on channel=0 note=76 velocity=127 time=0 actual_time=229920
type: pitchwheel, time: 0, actual_time: 229920
type=note_on channel=1 note=74 velocity=127 time=0 actual_time=229920
type: note_off, time: 240, actual_time: 230160
type: pitchwheel, time: 0, actual_time: 230160
type: pitchwheel, time: 0, actual_time: 230160
type: note_off, time: 0, actual_time: 230160
type=note_on channel=0 note=81 velocity=127 time=0 actual_time=230160
type=note_on channel=0 note=76 velocity=127 time=0 actual_time=230160
type: note_off, time: 240, actual_time: 230400
type: note_off, time: 0, actual_time: 230400
type=note_on channel=0 note=81 velocity=127 time=0 actual_time=230400
type: pitchwheel, time: 0, actual_time: 230400
type=note_on channel=1 note=79 velocity=127 time=0 actual_time=230400
type: pitchwheel, time: 58, actual_time: 230458
type: pitchwheel, time: 58, actual_time: 230516
type: pitchwheel, time: 58, actual_time: 230574
type: pitchwheel, time: 58, actual_time: 230632
type: pitchwheel, time: 58, actual_time: 230690
type: pitchwheel, time: 58, actual_time: 230748
type: pitchwheel, time: 58, actual_time: 230806
type: pitchwheel, time: 58, actual_time: 230864
type: pitchwheel, time: 58, actual_time: 230922
type: pitchwheel, time: 58, actual_time: 230980
type: pitchwheel, time: 58, actual_time: 231038
type: pitchwheel, time: 2, actual_time: 231040
type: note_off, time: 7040, actual_time: 238080
type: pitchwheel, time: 0, actual_time: 238080
type: pitchwheel, time: 0, actual_time: 238080
type: note_off, time: 0, actual_time: 238080
type=note_on channel=0 note=64 velocity=127 time=37200 actual_time=275280
type: note_off, time: 240, actual_time: 275520
type=note_on channel=0 note=59 velocity=127 time=0 actual_time=275520
type: note_off, time: 480, actual_time: 276000
type=note_on channel=0 note=57 velocity=127 time=0 actual_time=276000
type: note_off, time: 480, actual_time: 276480
type=note_on channel=0 note=59 velocity=127 time=0 actual_time=276480
type: note_off, time: 1440, actual_time: 277920
type=note_on channel=0 note=57 velocity=127 time=0 actual_time=277920
type: note_off, time: 2400, actual_time: 280320
type=note_on channel=0 note=60 velocity=127 time=0 actual_time=280320
type: note_off, time: 720, actual_time: 281040
type=note_on channel=0 note=59 velocity=127 time=0 actual_time=281040
type: note_off, time: 720, actual_time: 281760
type=note_on channel=0 note=57 velocity=127 time=0 actual_time=281760
type: note_off, time: 1440, actual_time: 283200
type=note_on channel=0 note=55 velocity=127 time=0 actual_time=283200
type: note_off, time: 480, actual_time: 283680
type=note_on channel=0 note=60 velocity=127 time=0 actual_time=283680
type: note_off, time: 480, actual_time: 284160
type=note_on channel=0 note=59 velocity=127 time=0 actual_time=284160
type: note_off, time: 1440, actual_time: 285600
type=note_on channel=0 note=60 velocity=127 time=0 actual_time=285600
type: note_off, time: 2160, actual_time: 287760
type=note_on channel=0 note=60 velocity=127 time=0 actual_time=287760
type: note_off, time: 240, actual_time: 288000
type=note_on channel=0 note=59 velocity=127 time=0 actual_time=288000
type: note_off, time: 1440, actual_time: 289440
type=note_on channel=0 note=57 velocity=127 time=0 actual_time=289440
type: note_off, time: 2400, actual_time: 291840
type=note_on channel=0 note=57 velocity=127 time=0 actual_time=291840
type: note_off, time: 7680, actual_time: 299520
MetaMessage type: end_of_track, time: 0, actual_time: 299520
type: pitchwheel, time: 0, actual_time: 0
type=control_change channel=8 control=7 value=127 time=0 actual_time=0
type=control_change channel=8 control=10 value=63 time=0 actual_time=0
type=control_change channel=8 control=93 value=0 time=0 actual_time=0
type=control_change channel=8 control=91 value=0 time=0 actual_time=0
type=control_change channel=8 control=95 value=0 time=0 actual_time=0
type=control_change channel=8 control=92 value=0 time=0 actual_time=0
type=control_change channel=8 control=11 value=127 time=0 actual_time=0
type: program_change, time: 0, actual_time: 0
type=control_change channel=10 control=7 value=127 time=0 actual_time=0
type=control_change channel=10 control=10 value=63 time=0 actual_time=0
type=control_change channel=10 control=93 value=0 time=0 actual_time=0
type=control_change channel=10 control=91 value=0 time=0 actual_time=0
type=control_change channel=10 control=95 value=0 time=0 actual_time=0
type=control_change channel=10 control=92 value=0 time=0 actual_time=0
type=control_change channel=10 control=11 value=127 time=0 actual_time=0
type: program_change, time: 0, actual_time: 0
type=control_change channel=10 control=11 value=31 time=0 actual_time=0
type=note_on channel=10 note=66 velocity=111 time=0 actual_time=0
type=control_change channel=10 control=11 value=31 time=15 actual_time=15
type=note_on channel=10 note=61 velocity=95 time=0 actual_time=15
type=control_change channel=10 control=11 value=31 time=15 actual_time=30
type=note_on channel=10 note=58 velocity=95 time=0 actual_time=30
type=control_change channel=10 control=11 value=32 time=10 actual_time=40
type=control_change channel=10 control=11 value=31 time=5 actual_time=45
type=note_on channel=10 note=54 velocity=95 time=0 actual_time=45
type=control_change channel=10 control=11 value=32 time=9 actual_time=54
type=control_change channel=10 control=11 value=31 time=6 actual_time=60
type=note_on channel=10 note=49 velocity=95 time=0 actual_time=60
type=control_change channel=10 control=11 value=32 time=9 actual_time=69
type=control_change channel=10 control=11 value=31 time=6 actual_time=75
type=note_on channel=10 note=42 velocity=95 time=0 actual_time=75
type=control_change channel=10 control=11 value=33 time=5 actual_time=80
type=control_change channel=10 control=11 value=32 time=4 actual_time=84
type=control_change channel=10 control=11 value=33 time=9 actual_time=93
type=control_change channel=10 control=11 value=32 time=6 actual_time=99
type=control_change channel=10 control=11 value=33 time=9 actual_time=108
type=control_change channel=10 control=11 value=32 time=6 actual_time=114
type=control_change channel=10 control=11 value=34 time=6 actual_time=120
type=control_change channel=10 control=11 value=33 time=3 actual_time=123
type=control_change channel=10 control=11 value=34 time=9 actual_time=132
type=control_change channel=10 control=11 value=33 time=6 actual_time=138
type=control_change channel=10 control=11 value=34 time=9 actual_time=147
type=control_change channel=10 control=11 value=33 time=6 actual_time=153
type=control_change channel=10 control=11 value=35 time=7 actual_time=160
type=control_change channel=10 control=11 value=34 time=2 actual_time=162
type=control_change channel=10 control=11 value=35 time=9 actual_time=171
type=control_change channel=10 control=11 value=34 time=6 actual_time=177
type=control_change channel=10 control=11 value=35 time=9 actual_time=186
type=control_change channel=10 control=11 value=34 time=6 actual_time=192
type=control_change channel=10 control=11 value=36 time=8 actual_time=200
type=control_change channel=10 control=11 value=35 time=1 actual_time=201
type=control_change channel=10 control=11 value=36 time=9 actual_time=210
type=control_change channel=10 control=11 value=35 time=6 actual_time=216
type=control_change channel=10 control=11 value=36 time=9 actual_time=225
type=control_change channel=10 control=11 value=35 time=6 actual_time=231
type=control_change channel=10 control=11 value=37 time=9 actual_time=240
type=control_change channel=10 control=11 value=36 time=0 actual_time=240
type=control_change channel=10 control=11 value=37 time=9 actual_time=249
type=control_change channel=10 control=11 value=36 time=6 actual_time=255
type=control_change channel=10 control=11 value=37 time=9 actual_time=264
type=control_change channel=10 control=11 value=36 time=6 actual_time=270
type=control_change channel=10 control=11 value=37 time=9 actual_time=279
type=control_change channel=10 control=11 value=38 time=1 actual_time=280
type=control_change channel=10 control=11 value=38 time=8 actual_time=288
type=control_change channel=10 control=11 value=37 time=6 actual_time=294
type=control_change channel=10 control=11 value=38 time=9 actual_time=303
type=control_change channel=10 control=11 value=37 time=6 actual_time=309
type=control_change channel=10 control=11 value=38 time=9 actual_time=318
type=control_change channel=10 control=11 value=39 time=2 actual_time=320
type=control_change channel=10 control=11 value=39 time=7 actual_time=327
type=control_change channel=10 control=11 value=38 time=6 actual_time=333
type=control_change channel=10 control=11 value=39 time=9 actual_time=342
type=control_change channel=10 control=11 value=38 time=6 actual_time=348
type=control_change channel=10 control=11 value=39 time=9 actual_time=357
type=control_change channel=10 control=11 value=40 time=3 actual_time=360
type=control_change channel=10 control=11 value=40 time=6 actual_time=366
type=control_change channel=10 control=11 value=39 time=6 actual_time=372
type=control_change channel=10 control=11 value=40 time=9 actual_time=381
type=control_change channel=10 control=11 value=39 time=6 actual_time=387
type=control_change channel=10 control=11 value=40 time=9 actual_time=396
type=control_change channel=10 control=11 value=41 time=4 actual_time=400
type=control_change channel=10 control=11 value=41 time=5 actual_time=405
type=control_change channel=10 control=11 value=40 time=6 actual_time=411
type=control_change channel=10 control=11 value=41 time=9 actual_time=420
type=control_change channel=10 control=11 value=40 time=6 actual_time=426
type=control_change channel=10 control=11 value=41 time=9 actual_time=435
type=control_change channel=10 control=11 value=42 time=5 actual_time=440
type=control_change channel=10 control=11 value=42 time=4 actual_time=444
type=control_change channel=10 control=11 value=41 time=6 actual_time=450
type=control_change channel=10 control=11 value=42 time=9 actual_time=459
type=control_change channel=10 control=11 value=41 time=6 actual_time=465
type=control_change channel=10 control=11 value=42 time=9 actual_time=474
type=control_change channel=10 control=11 value=43 time=6 actual_time=480
type=control_change channel=10 control=11 value=43 time=3 actual_time=483
type=control_change channel=10 control=11 value=42 time=6 actual_time=489
type=control_change channel=10 control=11 value=43 time=9 actual_time=498
type=control_change channel=10 control=11 value=42 time=6 actual_time=504
type=control_change channel=10 control=11 value=43 time=9 actual_time=513
type=control_change channel=10 control=11 value=44 time=7 actual_time=520
type=control_change channel=10 control=11 value=44 time=2 actual_time=522
type=control_change channel=10 control=11 value=43 time=6 actual_time=528
type=control_change channel=10 control=11 value=44 time=9 actual_time=537
type=control_change channel=10 control=11 value=43 time=6 actual_time=543
type=control_change channel=10 control=11 value=44 time=9 actual_time=552
type=control_change channel=10 control=11 value=45 time=8 actual_time=560
type=control_change channel=10 control=11 value=45 time=1 actual_time=561
type=control_change channel=10 control=11 value=44 time=6 actual_time=567
type=control_change channel=10 control=11 value=45 time=9 actual_time=576
type=control_change channel=10 control=11 value=44 time=6 actual_time=582
type=control_change channel=10 control=11 value=45 time=9 actual_time=591
type=control_change channel=10 control=11 value=46 time=9 actual_time=600
type=control_change channel=10 control=11 value=46 time=0 actual_time=600
type=control_change channel=10 control=11 value=45 time=6 actual_time=606
type=control_change channel=10 control=11 value=46 time=9 actual_time=615
type=control_change channel=10 control=11 value=45 time=6 actual_time=621
type=control_change channel=10 control=11 value=46 time=9 actual_time=630
type=control_change channel=10 control=11 value=47 time=9 actual_time=639
type=control_change channel=10 control=11 value=47 time=1 actual_time=640
type=control_change channel=10 control=11 value=46 time=5 actual_time=645
type=control_change channel=10 control=11 value=47 time=9 actual_time=654
type=control_change channel=10 control=11 value=46 time=6 actual_time=660
type=control_change channel=10 control=11 value=47 time=9 actual_time=669
type=control_change channel=10 control=11 value=48 time=9 actual_time=678
type=control_change channel=10 control=11 value=48 time=2 actual_time=680
type=control_change channel=10 control=11 value=47 time=4 actual_time=684
type=control_change channel=10 control=11 value=48 time=9 actual_time=693
type=control_change channel=10 control=11 value=47 time=6 actual_time=699
type=control_change channel=10 control=11 value=48 time=9 actual_time=708
type=control_change channel=10 control=11 value=49 time=9 actual_time=717
type=control_change channel=10 control=11 value=49 time=3 actual_time=720
type=control_change channel=10 control=11 value=48 time=3 actual_time=723
type=control_change channel=10 control=11 value=49 time=9 actual_time=732
type=control_change channel=10 control=11 value=48 time=6 actual_time=738
type=control_change channel=10 control=11 value=49 time=9 actual_time=747
type=control_change channel=10 control=11 value=50 time=9 actual_time=756
type=control_change channel=10 control=11 value=50 time=4 actual_time=760
type=control_change channel=10 control=11 value=49 time=2 actual_time=762
type=control_change channel=10 control=11 value=50 time=9 actual_time=771
type=control_change channel=10 control=11 value=49 time=6 actual_time=777
type=control_change channel=10 control=11 value=50 time=9 actual_time=786
type=control_change channel=10 control=11 value=51 time=9 actual_time=795
type=control_change channel=10 control=11 value=51 time=5 actual_time=800
type=control_change channel=10 control=11 value=50 time=1 actual_time=801
type=control_change channel=10 control=11 value=51 time=9 actual_time=810
type=control_change channel=10 control=11 value=50 time=6 actual_time=816
type=control_change channel=10 control=11 value=51 time=9 actual_time=825
type=control_change channel=10 control=11 value=52 time=9 actual_time=834
type=control_change channel=10 control=11 value=52 time=6 actual_time=840
type=control_change channel=10 control=11 value=51 time=0 actual_time=840
type=control_change channel=10 control=11 value=52 time=9 actual_time=849
type=control_change channel=10 control=11 value=51 time=6 actual_time=855
type=control_change channel=10 control=11 value=52 time=9 actual_time=864
type=control_change channel=10 control=11 value=53 time=9 actual_time=873
type=control_change channel=10 control=11 value=52 time=6 actual_time=879
type=control_change channel=10 control=11 value=53 time=1 actual_time=880
type=control_change channel=10 control=11 value=53 time=8 actual_time=888
type=control_change channel=10 control=11 value=52 time=6 actual_time=894
type=control_change channel=10 control=11 value=53 time=9 actual_time=903
type=control_change channel=10 control=11 value=54 time=9 actual_time=912
type=control_change channel=10 control=11 value=53 time=6 actual_time=918
type=control_change channel=10 control=11 value=54 time=2 actual_time=920
type=control_change channel=10 control=11 value=54 time=7 actual_time=927
type=control_change channel=10 control=11 value=53 time=6 actual_time=933
type=control_change channel=10 control=11 value=54 time=9 actual_time=942
type=control_change channel=10 control=11 value=55 time=9 actual_time=951
type=control_change channel=10 control=11 value=54 time=6 actual_time=957
type=control_change channel=10 control=11 value=55 time=3 actual_time=960
type=control_change channel=10 control=11 value=55 time=6 actual_time=966
type=control_change channel=10 control=11 value=54 time=6 actual_time=972
type=control_change channel=10 control=11 value=55 time=9 actual_time=981
type=control_change channel=10 control=11 value=56 time=9 actual_time=990
type=control_change channel=10 control=11 value=55 time=6 actual_time=996
type=control_change channel=10 control=11 value=56 time=4 actual_time=1000
type=control_change channel=10 control=11 value=56 time=5 actual_time=1005
type=control_change channel=10 control=11 value=55 time=6 actual_time=1011
type=control_change channel=10 control=11 value=56 time=9 actual_time=1020
type=control_change channel=10 control=11 value=57 time=9 actual_time=1029
type=control_change channel=10 control=11 value=56 time=6 actual_time=1035
type=control_change channel=10 control=11 value=57 time=5 actual_time=1040
type=control_change channel=10 control=11 value=57 time=4 actual_time=1044
type=control_change channel=10 control=11 value=56 time=6 actual_time=1050
type=control_change channel=10 control=11 value=57 time=9 actual_time=1059
type=control_change channel=10 control=11 value=58 time=9 actual_time=1068
type=control_change channel=10 control=11 value=57 time=6 actual_time=1074
type=control_change channel=10 control=11 value=58 time=6 actual_time=1080
type=control_change channel=10 control=11 value=58 time=3 actual_time=1083
type=control_change channel=10 control=11 value=57 time=6 actual_time=1089
type=control_change channel=10 control=11 value=58 time=9 actual_time=1098
type=control_change channel=10 control=11 value=59 time=9 actual_time=1107
type=control_change channel=10 control=11 value=58 time=6 actual_time=1113
type=control_change channel=10 control=11 value=59 time=7 actual_time=1120
type=control_change channel=10 control=11 value=59 time=2 actual_time=1122
type=control_change channel=10 control=11 value=58 time=6 actual_time=1128
type=control_change channel=10 control=11 value=59 time=9 actual_time=1137
type=control_change channel=10 control=11 value=60 time=9 actual_time=1146
type=control_change channel=10 control=11 value=59 time=6 actual_time=1152
type=control_change channel=10 control=11 value=60 time=8 actual_time=1160
type=control_change channel=10 control=11 value=60 time=1 actual_time=1161
type=control_change channel=10 control=11 value=59 time=6 actual_time=1167
type=control_change channel=10 control=11 value=60 time=9 actual_time=1176
type=control_change channel=10 control=11 value=61 time=9 actual_time=1185
type=control_change channel=10 control=11 value=60 time=6 actual_time=1191
type=control_change channel=10 control=11 value=61 time=9 actual_time=1200
type=control_change channel=10 control=11 value=61 time=0 actual_time=1200
type=control_change channel=10 control=11 value=60 time=6 actual_time=1206
type=control_change channel=10 control=11 value=61 time=9 actual_time=1215
type=control_change channel=10 control=11 value=62 time=9 actual_time=1224
type=control_change channel=10 control=11 value=61 time=6 actual_time=1230
type=control_change channel=10 control=11 value=62 time=9 actual_time=1239
type=control_change channel=10 control=11 value=62 time=1 actual_time=1240
type=control_change channel=10 control=11 value=61 time=5 actual_time=1245
type=control_change channel=10 control=11 value=62 time=9 actual_time=1254
type=control_change channel=10 control=11 value=63 time=9 actual_time=1263
type=control_change channel=10 control=11 value=62 time=6 actual_time=1269
type=control_change channel=10 control=11 value=63 time=9 actual_time=1278
type=control_change channel=10 control=11 value=63 time=2 actual_time=1280
type=control_change channel=10 control=11 value=62 time=4 actual_time=1284
type=control_change channel=10 control=11 value=63 time=9 actual_time=1293
type=control_change channel=10 control=11 value=64 time=9 actual_time=1302
type=control_change channel=10 control=11 value=63 time=6 actual_time=1308
type=control_change channel=10 control=11 value=64 time=9 actual_time=1317
type=control_change channel=10 control=11 value=64 time=3 actual_time=1320
type=control_change channel=10 control=11 value=63 time=3 actual_time=1323
type=control_change channel=10 control=11 value=64 time=9 actual_time=1332
type=control_change channel=10 control=11 value=65 time=9 actual_time=1341
type=control_change channel=10 control=11 value=64 time=6 actual_time=1347
type=control_change channel=10 control=11 value=65 time=9 actual_time=1356
type=control_change channel=10 control=11 value=65 time=4 actual_time=1360
type=control_change channel=10 control=11 value=64 time=2 actual_time=1362
type=control_change channel=10 control=11 value=65 time=9 actual_time=1371
type=control_change channel=10 control=11 value=66 time=9 actual_time=1380
type=control_change channel=10 control=11 value=65 time=6 actual_time=1386
type=control_change channel=10 control=11 value=66 time=9 actual_time=1395
type=control_change channel=10 control=11 value=66 time=5 actual_time=1400
type=control_change channel=10 control=11 value=65 time=1 actual_time=1401
type=control_change channel=10 control=11 value=66 time=9 actual_time=1410
type=control_change channel=10 control=11 value=67 time=9 actual_time=1419
type=control_change channel=10 control=11 value=66 time=6 actual_time=1425
type=control_change channel=10 control=11 value=67 time=9 actual_time=1434
type=control_change channel=10 control=11 value=67 time=6 actual_time=1440
type=control_change channel=10 control=11 value=66 time=0 actual_time=1440
type=control_change channel=10 control=11 value=67 time=9 actual_time=1449
type=control_change channel=10 control=11 value=68 time=9 actual_time=1458
type=control_change channel=10 control=11 value=67 time=6 actual_time=1464
type=control_change channel=10 control=11 value=68 time=9 actual_time=1473
type=control_change channel=10 control=11 value=67 time=6 actual_time=1479
type=control_change channel=10 control=11 value=68 time=1 actual_time=1480
type=control_change channel=10 control=11 value=68 time=8 actual_time=1488
type=control_change channel=10 control=11 value=69 time=9 actual_time=1497
type=control_change channel=10 control=11 value=68 time=6 actual_time=1503
type=control_change channel=10 control=11 value=69 time=9 actual_time=1512
type=control_change channel=10 control=11 value=68 time=6 actual_time=1518
type=control_change channel=10 control=11 value=69 time=2 actual_time=1520
type=control_change channel=10 control=11 value=69 time=7 actual_time=1527
type=control_change channel=10 control=11 value=70 time=9 actual_time=1536
type=control_change channel=10 control=11 value=69 time=6 actual_time=1542
type=control_change channel=10 control=11 value=70 time=9 actual_time=1551
type=control_change channel=10 control=11 value=69 time=6 actual_time=1557
type=control_change channel=10 control=11 value=70 time=3 actual_time=1560
type=control_change channel=10 control=11 value=70 time=6 actual_time=1566
type=control_change channel=10 control=11 value=71 time=9 actual_time=1575
type=control_change channel=10 control=11 value=70 time=6 actual_time=1581
type=control_change channel=10 control=11 value=71 time=9 actual_time=1590
type=control_change channel=10 control=11 value=70 time=6 actual_time=1596
type=control_change channel=10 control=11 value=71 time=4 actual_time=1600
type=control_change channel=10 control=11 value=71 time=5 actual_time=1605
type=control_change channel=10 control=11 value=72 time=9 actual_time=1614
type=control_change channel=10 control=11 value=71 time=6 actual_time=1620
type=control_change channel=10 control=11 value=72 time=9 actual_time=1629
type=control_change channel=10 control=11 value=71 time=6 actual_time=1635
type=control_change channel=10 control=11 value=72 time=5 actual_time=1640
type=control_change channel=10 control=11 value=72 time=4 actual_time=1644
type=control_change channel=10 control=11 value=73 time=9 actual_time=1653
type=control_change channel=10 control=11 value=72 time=6 actual_time=1659
type=control_change channel=10 control=11 value=73 time=9 actual_time=1668
type=control_change channel=10 control=11 value=72 time=6 actual_time=1674
type=control_change channel=10 control=11 value=73 time=6 actual_time=1680
type=control_change channel=10 control=11 value=73 time=3 actual_time=1683
type=control_change channel=10 control=11 value=74 time=9 actual_time=1692
type=control_change channel=10 control=11 value=73 time=6 actual_time=1698
type=control_change channel=10 control=11 value=74 time=9 actual_time=1707
type=control_change channel=10 control=11 value=73 time=6 actual_time=1713
type=control_change channel=10 control=11 value=74 time=7 actual_time=1720
type=control_change channel=10 control=11 value=74 time=2 actual_time=1722
type=control_change channel=10 control=11 value=75 time=9 actual_time=1731
type=control_change channel=10 control=11 value=74 time=6 actual_time=1737
type=control_change channel=10 control=11 value=75 time=9 actual_time=1746
type=control_change channel=10 control=11 value=74 time=6 actual_time=1752
type=control_change channel=10 control=11 value=75 time=8 actual_time=1760
type=control_change channel=10 control=11 value=75 time=1 actual_time=1761
type=control_change channel=10 control=11 value=76 time=9 actual_time=1770
type=control_change channel=10 control=11 value=75 time=6 actual_time=1776
type=control_change channel=10 control=11 value=76 time=9 actual_time=1785
type=control_change channel=10 control=11 value=75 time=6 actual_time=1791
type=control_change channel=10 control=11 value=76 time=9 actual_time=1800
type=control_change channel=10 control=11 value=76 time=0 actual_time=1800
type=control_change channel=10 control=11 value=77 time=9 actual_time=1809
type=control_change channel=10 control=11 value=76 time=6 actual_time=1815
type=control_change channel=10 control=11 value=77 time=9 actual_time=1824
type=control_change channel=10 control=11 value=76 time=6 actual_time=1830
type=control_change channel=10 control=11 value=77 time=9 actual_time=1839
type=control_change channel=10 control=11 value=77 time=1 actual_time=1840
type=control_change channel=10 control=11 value=78 time=8 actual_time=1848
type=control_change channel=10 control=11 value=77 time=6 actual_time=1854
type=control_change channel=10 control=11 value=78 time=9 actual_time=1863
type=control_change channel=10 control=11 value=77 time=6 actual_time=1869
type=control_change channel=10 control=11 value=78 time=9 actual_time=1878
type=control_change channel=10 control=11 value=78 time=2 actual_time=1880
type=control_change channel=10 control=11 value=79 time=7 actual_time=1887
type=control_change channel=10 control=11 value=78 time=6 actual_time=1893
type=control_change channel=10 control=11 value=79 time=9 actual_time=1902
type=control_change channel=10 control=11 value=78 time=6 actual_time=1908
type=control_change channel=10 control=11 value=79 time=9 actual_time=1917
type=control_change channel=10 control=11 value=79 time=3 actual_time=1920
type=control_change channel=10 control=11 value=80 time=6 actual_time=1926
type=control_change channel=10 control=11 value=79 time=6 actual_time=1932
type=control_change channel=10 control=11 value=80 time=9 actual_time=1941
type=control_change channel=10 control=11 value=79 time=6 actual_time=1947
type=control_change channel=10 control=11 value=80 time=9 actual_time=1956
type=control_change channel=10 control=11 value=80 time=4 actual_time=1960
type=control_change channel=10 control=11 value=81 time=5 actual_time=1965
type=control_change channel=10 control=11 value=80 time=6 actual_time=1971
type=control_change channel=10 control=11 value=81 time=9 actual_time=1980
type=control_change channel=10 control=11 value=80 time=6 actual_time=1986
type=control_change channel=10 control=11 value=81 time=9 actual_time=1995
type=control_change channel=10 control=11 value=81 time=5 actual_time=2000
type=control_change channel=10 control=11 value=82 time=4 actual_time=2004
type=control_change channel=10 control=11 value=81 time=6 actual_time=2010
type=control_change channel=10 control=11 value=82 time=9 actual_time=2019
type=control_change channel=10 control=11 value=81 time=6 actual_time=2025
type=control_change channel=10 control=11 value=82 time=9 actual_time=2034
type=control_change channel=10 control=11 value=82 time=6 actual_time=2040
type=control_change channel=10 control=11 value=83 time=3 actual_time=2043
type=control_change channel=10 control=11 value=82 time=6 actual_time=2049
type=control_change channel=10 control=11 value=83 time=9 actual_time=2058
type=control_change channel=10 control=11 value=82 time=6 actual_time=2064
type=control_change channel=10 control=11 value=83 time=9 actual_time=2073
type=control_change channel=10 control=11 value=83 time=7 actual_time=2080
type=control_change channel=10 control=11 value=84 time=2 actual_time=2082
type=control_change channel=10 control=11 value=83 time=6 actual_time=2088
type=control_change channel=10 control=11 value=84 time=9 actual_time=2097
type=control_change channel=10 control=11 value=83 time=6 actual_time=2103
type=control_change channel=10 control=11 value=84 time=9 actual_time=2112
type=control_change channel=10 control=11 value=84 time=8 actual_time=2120
type=control_change channel=10 control=11 value=85 time=1 actual_time=2121
type=control_change channel=10 control=11 value=84 time=6 actual_time=2127
type=control_change channel=10 control=11 value=85 time=9 actual_time=2136
type=control_change channel=10 control=11 value=84 time=6 actual_time=2142
type=control_change channel=10 control=11 value=85 time=9 actual_time=2151
type=control_change channel=10 control=11 value=85 time=9 actual_time=2160
type=control_change channel=10 control=11 value=86 time=0 actual_time=2160
type=control_change channel=10 control=11 value=85 time=6 actual_time=2166
type=control_change channel=10 control=11 value=86 time=9 actual_time=2175
type=control_change channel=10 control=11 value=85 time=6 actual_time=2181
type=control_change channel=10 control=11 value=86 time=9 actual_time=2190
type=control_change channel=10 control=11 value=87 time=9 actual_time=2199
type=control_change channel=10 control=11 value=86 time=1 actual_time=2200
type=control_change channel=10 control=11 value=86 time=5 actual_time=2205
type=control_change channel=10 control=11 value=87 time=9 actual_time=2214
type=control_change channel=10 control=11 value=86 time=6 actual_time=2220
type=control_change channel=10 control=11 value=87 time=9 actual_time=2229
type=control_change channel=10 control=11 value=88 time=9 actual_time=2238
type=control_change channel=10 control=11 value=87 time=2 actual_time=2240
type=control_change channel=10 control=11 value=87 time=4 actual_time=2244
type=control_change channel=10 control=11 value=88 time=9 actual_time=2253
type=control_change channel=10 control=11 value=87 time=6 actual_time=2259
type=control_change channel=10 control=11 value=88 time=9 actual_time=2268
type=control_change channel=10 control=11 value=89 time=9 actual_time=2277
type=control_change channel=10 control=11 value=88 time=3 actual_time=2280
type=control_change channel=10 control=11 value=88 time=3 actual_time=2283
type=control_change channel=10 control=11 value=89 time=9 actual_time=2292
type=control_change channel=10 control=11 value=88 time=6 actual_time=2298
type=control_change channel=10 control=11 value=89 time=9 actual_time=2307
type=control_change channel=10 control=11 value=90 time=9 actual_time=2316
type=control_change channel=10 control=11 value=89 time=4 actual_time=2320
type=control_change channel=10 control=11 value=89 time=2 actual_time=2322
type=control_change channel=10 control=11 value=90 time=9 actual_time=2331
type=control_change channel=10 control=11 value=89 time=6 actual_time=2337
type=control_change channel=10 control=11 value=90 time=9 actual_time=2346
type=control_change channel=10 control=11 value=91 time=9 actual_time=2355
type=control_change channel=10 control=11 value=90 time=5 actual_time=2360
type=control_change channel=10 control=11 value=90 time=1 actual_time=2361
type=control_change channel=10 control=11 value=91 time=9 actual_time=2370
type=control_change channel=10 control=11 value=90 time=6 actual_time=2376
type=control_change channel=10 control=11 value=91 time=9 actual_time=2385
type=control_change channel=10 control=11 value=92 time=9 actual_time=2394
type=control_change channel=10 control=11 value=91 time=6 actual_time=2400
type=control_change channel=10 control=11 value=91 time=0 actual_time=2400
type=control_change channel=10 control=11 value=92 time=9 actual_time=2409
type=control_change channel=10 control=11 value=91 time=6 actual_time=2415
type=control_change channel=10 control=11 value=92 time=9 actual_time=2424
type=control_change channel=10 control=11 value=93 time=9 actual_time=2433
type=control_change channel=10 control=11 value=92 time=6 actual_time=2439
type=control_change channel=10 control=11 value=92 time=1 actual_time=2440
type=control_change channel=10 control=11 value=93 time=8 actual_time=2448
type=control_change channel=10 control=11 value=92 time=6 actual_time=2454
type=control_change channel=10 control=11 value=93 time=9 actual_time=2463
type=control_change channel=10 control=11 value=94 time=9 actual_time=2472
type=control_change channel=10 control=11 value=93 time=6 actual_time=2478
type=control_change channel=10 control=11 value=93 time=2 actual_time=2480
type=control_change channel=10 control=11 value=94 time=7 actual_time=2487
type=control_change channel=10 control=11 value=93 time=6 actual_time=2493
type=control_change channel=10 control=11 value=94 time=9 actual_time=2502
type=control_change channel=10 control=11 value=95 time=9 actual_time=2511
type=control_change channel=10 control=11 value=94 time=6 actual_time=2517
type=control_change channel=10 control=11 value=94 time=3 actual_time=2520
type=control_change channel=10 control=11 value=95 time=6 actual_time=2526
type=control_change channel=10 control=11 value=94 time=6 actual_time=2532
type=control_change channel=10 control=11 value=95 time=9 actual_time=2541
type=control_change channel=10 control=11 value=96 time=9 actual_time=2550
type=control_change channel=10 control=11 value=95 time=6 actual_time=2556
type=control_change channel=10 control=11 value=95 time=4 actual_time=2560
type=control_change channel=10 control=11 value=96 time=5 actual_time=2565
type=control_change channel=10 control=11 value=95 time=6 actual_time=2571
type=control_change channel=10 control=11 value=96 time=9 actual_time=2580
type=control_change channel=10 control=11 value=97 time=9 actual_time=2589
type=control_change channel=10 control=11 value=96 time=6 actual_time=2595
type=control_change channel=10 control=11 value=96 time=5 actual_time=2600
type=control_change channel=10 control=11 value=97 time=4 actual_time=2604
type=control_change channel=10 control=11 value=96 time=6 actual_time=2610
type=control_change channel=10 control=11 value=97 time=9 actual_time=2619
type=control_change channel=10 control=11 value=98 time=9 actual_time=2628
type=control_change channel=10 control=11 value=97 time=6 actual_time=2634
type=control_change channel=10 control=11 value=97 time=6 actual_time=2640
type=control_change channel=10 control=11 value=98 time=3 actual_time=2643
type=control_change channel=10 control=11 value=97 time=6 actual_time=2649
type=control_change channel=10 control=11 value=98 time=9 actual_time=2658
type=control_change channel=10 control=11 value=99 time=9 actual_time=2667
type=control_change channel=10 control=11 value=98 time=6 actual_time=2673
type=control_change channel=10 control=11 value=98 time=7 actual_time=2680
type=control_change channel=10 control=11 value=99 time=2 actual_time=2682
type=control_change channel=10 control=11 value=98 time=6 actual_time=2688
type=control_change channel=10 control=11 value=99 time=9 actual_time=2697
type=control_change channel=10 control=11 value=100 time=9 actual_time=2706
type=control_change channel=10 control=11 value=99 time=6 actual_time=2712
type=control_change channel=10 control=11 value=99 time=8 actual_time=2720
type=control_change channel=10 control=11 value=100 time=1 actual_time=2721
type=control_change channel=10 control=11 value=99 time=6 actual_time=2727
type=control_change channel=10 control=11 value=100 time=9 actual_time=2736
type=control_change channel=10 control=11 value=101 time=9 actual_time=2745
type=control_change channel=10 control=11 value=100 time=6 actual_time=2751
type=control_change channel=10 control=11 value=100 time=9 actual_time=2760
type=control_change channel=10 control=11 value=101 time=0 actual_time=2760
type=control_change channel=10 control=11 value=100 time=6 actual_time=2766
type=control_change channel=10 control=11 value=101 time=9 actual_time=2775
type=control_change channel=10 control=11 value=102 time=9 actual_time=2784
type=control_change channel=10 control=11 value=101 time=6 actual_time=2790
type=control_change channel=10 control=11 value=102 time=9 actual_time=2799
type=control_change channel=10 control=11 value=101 time=1 actual_time=2800
type=control_change channel=10 control=11 value=101 time=5 actual_time=2805
type=control_change channel=10 control=11 value=102 time=9 actual_time=2814
type=control_change channel=10 control=11 value=103 time=9 actual_time=2823
type=control_change channel=10 control=11 value=102 time=6 actual_time=2829
type=control_change channel=10 control=11 value=103 time=9 actual_time=2838
type=control_change channel=10 control=11 value=102 time=2 actual_time=2840
type=control_change channel=10 control=11 value=102 time=4 actual_time=2844
type=control_change channel=10 control=11 value=103 time=9 actual_time=2853
type=control_change channel=10 control=11 value=104 time=9 actual_time=2862
type=control_change channel=10 control=11 value=103 time=6 actual_time=2868
type=control_change channel=10 control=11 value=104 time=9 actual_time=2877
type=control_change channel=10 control=11 value=103 time=3 actual_time=2880
type=control_change channel=10 control=11 value=103 time=3 actual_time=2883
type=control_change channel=10 control=11 value=104 time=9 actual_time=2892
type=control_change channel=10 control=11 value=105 time=9 actual_time=2901
type=control_change channel=10 control=11 value=104 time=6 actual_time=2907
type=control_change channel=10 control=11 value=105 time=9 actual_time=2916
type=control_change channel=10 control=11 value=104 time=4 actual_time=2920
type=control_change channel=10 control=11 value=104 time=2 actual_time=2922
type=control_change channel=10 control=11 value=105 time=9 actual_time=2931
type=control_change channel=10 control=11 value=106 time=9 actual_time=2940
type=control_change channel=10 control=11 value=105 time=6 actual_time=2946
type=control_change channel=10 control=11 value=106 time=9 actual_time=2955
type=control_change channel=10 control=11 value=105 time=5 actual_time=2960
type=control_change channel=10 control=11 value=105 time=1 actual_time=2961
type=control_change channel=10 control=11 value=106 time=9 actual_time=2970
type=control_change channel=10 control=11 value=107 time=9 actual_time=2979
type=control_change channel=10 control=11 value=106 time=6 actual_time=2985
type=control_change channel=10 control=11 value=107 time=9 actual_time=2994
type=control_change channel=10 control=11 value=106 time=6 actual_time=3000
type=control_change channel=10 control=11 value=106 time=0 actual_time=3000
type=control_change channel=10 control=11 value=107 time=9 actual_time=3009
type=control_change channel=10 control=11 value=108 time=9 actual_time=3018
type=control_change channel=10 control=11 value=107 time=6 actual_time=3024
type=control_change channel=10 control=11 value=108 time=9 actual_time=3033
type=control_change channel=10 control=11 value=107 time=6 actual_time=3039
type=control_change channel=10 control=11 value=107 time=1 actual_time=3040
type=control_change channel=10 control=11 value=108 time=8 actual_time=3048
type=control_change channel=10 control=11 value=109 time=9 actual_time=3057
type=control_change channel=10 control=11 value=108 time=6 actual_time=3063
type=control_change channel=10 control=11 value=109 time=9 actual_time=3072
type=control_change channel=10 control=11 value=108 time=6 actual_time=3078
type=control_change channel=10 control=11 value=108 time=2 actual_time=3080
type=control_change channel=10 control=11 value=109 time=7 actual_time=3087
type=control_change channel=10 control=11 value=110 time=9 actual_time=3096
type=control_change channel=10 control=11 value=109 time=6 actual_time=3102
type=control_change channel=10 control=11 value=110 time=9 actual_time=3111
type=control_change channel=10 control=11 value=109 time=6 actual_time=3117
type=control_change channel=10 control=11 value=109 time=3 actual_time=3120
type=control_change channel=10 control=11 value=110 time=6 actual_time=3126
type=control_change channel=10 control=11 value=111 time=9 actual_time=3135
type=control_change channel=10 control=11 value=110 time=6 actual_time=3141
type=control_change channel=10 control=11 value=111 time=9 actual_time=3150
type=control_change channel=10 control=11 value=110 time=6 actual_time=3156
type=control_change channel=10 control=11 value=110 time=4 actual_time=3160
type=control_change channel=10 control=11 value=111 time=5 actual_time=3165
type=control_change channel=10 control=11 value=112 time=9 actual_time=3174
type=control_change channel=10 control=11 value=111 time=6 actual_time=3180
type=control_change channel=10 control=11 value=112 time=9 actual_time=3189
type=control_change channel=10 control=11 value=111 time=6 actual_time=3195
type=control_change channel=10 control=11 value=111 time=5 actual_time=3200
type=control_change channel=10 control=11 value=112 time=4 actual_time=3204
type=control_change channel=10 control=11 value=113 time=9 actual_time=3213
type=control_change channel=10 control=11 value=112 time=6 actual_time=3219
type=control_change channel=10 control=11 value=113 time=9 actual_time=3228
type=control_change channel=10 control=11 value=112 time=6 actual_time=3234
type=control_change channel=10 control=11 value=112 time=6 actual_time=3240
type=control_change channel=10 control=11 value=113 time=3 actual_time=3243
type=control_change channel=10 control=11 value=114 time=9 actual_time=3252
type=control_change channel=10 control=11 value=113 time=6 actual_time=3258
type=control_change channel=10 control=11 value=114 time=9 actual_time=3267
type=control_change channel=10 control=11 value=113 time=6 actual_time=3273
type=control_change channel=10 control=11 value=113 time=7 actual_time=3280
type=control_change channel=10 control=11 value=114 time=2 actual_time=3282
type=control_change channel=10 control=11 value=115 time=9 actual_time=3291
type=control_change channel=10 control=11 value=114 time=6 actual_time=3297
type=control_change channel=10 control=11 value=115 time=9 actual_time=3306
type=control_change channel=10 control=11 value=114 time=6 actual_time=3312
type=control_change channel=10 control=11 value=114 time=8 actual_time=3320
type=control_change channel=10 control=11 value=115 time=1 actual_time=3321
type=control_change channel=10 control=11 value=116 time=9 actual_time=3330
type=control_change channel=10 control=11 value=115 time=6 actual_time=3336
type=control_change channel=10 control=11 value=116 time=9 actual_time=3345
type=control_change channel=10 control=11 value=115 time=6 actual_time=3351
type=control_change channel=10 control=11 value=115 time=9 actual_time=3360
type=control_change channel=10 control=11 value=116 time=0 actual_time=3360
type=control_change channel=10 control=11 value=117 time=9 actual_time=3369
type=control_change channel=10 control=11 value=116 time=6 actual_time=3375
type=control_change channel=10 control=11 value=117 time=9 actual_time=3384
type=control_change channel=10 control=11 value=116 time=6 actual_time=3390
type=control_change channel=10 control=11 value=117 time=9 actual_time=3399
type=control_change channel=10 control=11 value=116 time=1 actual_time=3400
type=control_change channel=10 control=11 value=118 time=8 actual_time=3408
type=control_change channel=10 control=11 value=117 time=6 actual_time=3414
type=control_change channel=10 control=11 value=118 time=9 actual_time=3423
type=control_change channel=10 control=11 value=117 time=6 actual_time=3429
type=control_change channel=10 control=11 value=118 time=9 actual_time=3438
type=control_change channel=10 control=11 value=117 time=2 actual_time=3440
type=control_change channel=10 control=11 value=119 time=7 actual_time=3447
type=control_change channel=10 control=11 value=118 time=6 actual_time=3453
type=control_change channel=10 control=11 value=119 time=9 actual_time=3462
type=control_change channel=10 control=11 value=118 time=6 actual_time=3468
type=control_change channel=10 control=11 value=119 time=9 actual_time=3477
type=control_change channel=10 control=11 value=118 time=3 actual_time=3480
type=control_change channel=10 control=11 value=120 time=6 actual_time=3486
type=control_change channel=10 control=11 value=119 time=6 actual_time=3492
type=control_change channel=10 control=11 value=120 time=9 actual_time=3501
type=control_change channel=10 control=11 value=119 time=6 actual_time=3507
type=control_change channel=10 control=11 value=120 time=9 actual_time=3516
type=control_change channel=10 control=11 value=119 time=4 actual_time=3520
type=control_change channel=10 control=11 value=121 time=5 actual_time=3525
type=control_change channel=10 control=11 value=120 time=6 actual_time=3531
type=control_change channel=10 control=11 value=121 time=9 actual_time=3540
type=control_change channel=10 control=11 value=120 time=6 actual_time=3546
type=control_change channel=10 control=11 value=121 time=9 actual_time=3555
type=control_change channel=10 control=11 value=120 time=5 actual_time=3560
type=control_change channel=10 control=11 value=122 time=4 actual_time=3564
type=control_change channel=10 control=11 value=121 time=6 actual_time=3570
type=control_change channel=10 control=11 value=122 time=9 actual_time=3579
type=control_change channel=10 control=11 value=121 time=6 actual_time=3585
type=control_change channel=10 control=11 value=122 time=9 actual_time=3594
type=control_change channel=10 control=11 value=121 time=6 actual_time=3600
type=control_change channel=10 control=11 value=123 time=3 actual_time=3603
type=control_change channel=10 control=11 value=122 time=6 actual_time=3609
type=control_change channel=10 control=11 value=123 time=9 actual_time=3618
type=control_change channel=10 control=11 value=122 time=6 actual_time=3624
type=control_change channel=10 control=11 value=123 time=9 actual_time=3633
type=control_change channel=10 control=11 value=122 time=7 actual_time=3640
type=control_change channel=10 control=11 value=124 time=2 actual_time=3642
type=control_change channel=10 control=11 value=123 time=6 actual_time=3648
type=control_change channel=10 control=11 value=124 time=9 actual_time=3657
type=control_change channel=10 control=11 value=123 time=6 actual_time=3663
type=control_change channel=10 control=11 value=124 time=9 actual_time=3672
type=control_change channel=10 control=11 value=123 time=8 actual_time=3680
type=control_change channel=10 control=11 value=125 time=1 actual_time=3681
type=control_change channel=10 control=11 value=124 time=6 actual_time=3687
type=control_change channel=10 control=11 value=125 time=9 actual_time=3696
type=control_change channel=10 control=11 value=124 time=6 actual_time=3702
type=control_change channel=10 control=11 value=125 time=9 actual_time=3711
type=control_change channel=10 control=11 value=124 time=9 actual_time=3720
type=control_change channel=10 control=11 value=126 time=0 actual_time=3720
type=control_change channel=10 control=11 value=125 time=6 actual_time=3726
type=control_change channel=10 control=11 value=126 time=9 actual_time=3735
type=control_change channel=10 control=11 value=125 time=6 actual_time=3741
type=control_change channel=10 control=11 value=126 time=9 actual_time=3750
type=control_change channel=10 control=11 value=125 time=10 actual_time=3760
type=control_change channel=10 control=11 value=126 time=5 actual_time=3765
type=control_change channel=10 control=11 value=126 time=15 actual_time=3780
type=control_change channel=10 control=11 value=126 time=20 actual_time=3800
type=control_change channel=10 control=11 value=127 time=40 actual_time=3840
type: note_off, time: 0, actual_time: 3840
type=control_change channel=10 control=11 value=127 time=0 actual_time=3840
type: note_off, time: 0, actual_time: 3840
type=control_change channel=10 control=11 value=127 time=0 actual_time=3840
type: note_off, time: 0, actual_time: 3840
type=control_change channel=10 control=11 value=127 time=0 actual_time=3840
type: note_off, time: 0, actual_time: 3840
type=control_change channel=10 control=11 value=127 time=0 actual_time=3840
type: note_off, time: 0, actual_time: 3840
type=control_change channel=10 control=11 value=127 time=0 actual_time=3840
type: note_off, time: 0, actual_time: 3840
type=control_change channel=10 control=11 value=31 time=0 actual_time=3840
type=note_on channel=10 note=64 velocity=111 time=0 actual_time=3840
type=control_change channel=10 control=11 value=31 time=15 actual_time=3855
type=note_on channel=10 note=62 velocity=95 time=0 actual_time=3855
type=control_change channel=10 control=11 value=31 time=15 actual_time=3870
type=note_on channel=10 note=57 velocity=95 time=0 actual_time=3870
type=control_change channel=10 control=11 value=32 time=10 actual_time=3880
type=control_change channel=10 control=11 value=31 time=5 actual_time=3885
type=note_on channel=10 note=50 velocity=95 time=0 actual_time=3885
type=control_change channel=10 control=11 value=32 time=9 actual_time=3894
type=control_change channel=10 control=11 value=32 time=15 actual_time=3909
type=control_change channel=10 control=11 value=33 time=11 actual_time=3920
type=control_change channel=10 control=11 value=32 time=4 actual_time=3924
type=control_change channel=10 control=11 value=33 time=9 actual_time=3933
type=control_change channel=10 control=11 value=33 time=15 actual_time=3948
type=control_change channel=10 control=11 value=34 time=12 actual_time=3960
type=control_change channel=10 control=11 value=33 time=3 actual_time=3963
type=control_change channel=10 control=11 value=34 time=9 actual_time=3972
type=control_change channel=10 control=11 value=34 time=15 actual_time=3987
type=control_change channel=10 control=11 value=35 time=13 actual_time=4000
type=control_change channel=10 control=11 value=34 time=2 actual_time=4002
type=control_change channel=10 control=11 value=35 time=9 actual_time=4011
type=control_change channel=10 control=11 value=35 time=15 actual_time=4026
type=control_change channel=10 control=11 value=36 time=14 actual_time=4040
type=control_change channel=10 control=11 value=35 time=1 actual_time=4041
type=control_change channel=10 control=11 value=36 time=9 actual_time=4050
type=control_change channel=10 control=11 value=36 time=15 actual_time=4065
type=control_change channel=10 control=11 value=37 time=15 actual_time=4080
type=control_change channel=10 control=11 value=36 time=0 actual_time=4080
type=control_change channel=10 control=11 value=37 time=9 actual_time=4089
type=control_change channel=10 control=11 value=37 time=15 actual_time=4104
type=control_change channel=10 control=11 value=37 time=15 actual_time=4119
type=control_change channel=10 control=11 value=38 time=1 actual_time=4120
type=control_change channel=10 control=11 value=38 time=8 actual_time=4128
type=control_change channel=10 control=11 value=38 time=15 actual_time=4143
type=control_change channel=10 control=11 value=38 time=15 actual_time=4158
type=control_change channel=10 control=11 value=39 time=2 actual_time=4160
type=control_change channel=10 control=11 value=39 time=7 actual_time=4167
type=control_change channel=10 control=11 value=39 time=15 actual_time=4182
type=control_change channel=10 control=11 value=39 time=15 actual_time=4197
type=control_change channel=10 control=11 value=40 time=3 actual_time=4200
type=control_change channel=10 control=11 value=40 time=6 actual_time=4206
type=control_change channel=10 control=11 value=40 time=15 actual_time=4221
type=control_change channel=10 control=11 value=40 time=15 actual_time=4236
type=control_change channel=10 control=11 value=41 time=4 actual_time=4240
type=control_change channel=10 control=11 value=41 time=5 actual_time=4245
type=control_change channel=10 control=11 value=41 time=15 actual_time=4260
type=control_change channel=10 control=11 value=41 time=15 actual_time=4275
type=control_change channel=10 control=11 value=42 time=5 actual_time=4280
type=control_change channel=10 control=11 value=42 time=4 actual_time=4284
type=control_change channel=10 control=11 value=42 time=15 actual_time=4299
type=control_change channel=10 control=11 value=42 time=15 actual_time=4314
type=control_change channel=10 control=11 value=43 time=6 actual_time=4320
type=control_change channel=10 control=11 value=43 time=3 actual_time=4323
type=control_change channel=10 control=11 value=43 time=15 actual_time=4338
type=control_change channel=10 control=11 value=43 time=15 actual_time=4353
type=control_change channel=10 control=11 value=44 time=7 actual_time=4360
type=control_change channel=10 control=11 value=44 time=2 actual_time=4362
type=control_change channel=10 control=11 value=44 time=15 actual_time=4377
type=control_change channel=10 control=11 value=44 time=15 actual_time=4392
type=control_change channel=10 control=11 value=45 time=8 actual_time=4400
type=control_change channel=10 control=11 value=45 time=1 actual_time=4401
type=control_change channel=10 control=11 value=45 time=15 actual_time=4416
type=control_change channel=10 control=11 value=45 time=15 actual_time=4431
type=control_change channel=10 control=11 value=46 time=9 actual_time=4440
type=control_change channel=10 control=11 value=46 time=0 actual_time=4440
type=control_change channel=10 control=11 value=46 time=15 actual_time=4455
type=control_change channel=10 control=11 value=46 time=15 actual_time=4470
type=control_change channel=10 control=11 value=47 time=9 actual_time=4479
type=control_change channel=10 control=11 value=47 time=1 actual_time=4480
type=control_change channel=10 control=11 value=47 time=14 actual_time=4494
type=control_change channel=10 control=11 value=47 time=15 actual_time=4509
type=control_change channel=10 control=11 value=48 time=9 actual_time=4518
type=control_change channel=10 control=11 value=48 time=2 actual_time=4520
type=control_change channel=10 control=11 value=48 time=13 actual_time=4533
type=control_change channel=10 control=11 value=48 time=15 actual_time=4548
type=control_change channel=10 control=11 value=49 time=9 actual_time=4557
type=control_change channel=10 control=11 value=49 time=3 actual_time=4560
type=control_change channel=10 control=11 value=49 time=12 actual_time=4572
type=control_change channel=10 control=11 value=49 time=15 actual_time=4587
type=control_change channel=10 control=11 value=50 time=9 actual_time=4596
type=control_change channel=10 control=11 value=50 time=4 actual_time=4600
type=control_change channel=10 control=11 value=50 time=11 actual_time=4611
type=control_change channel=10 control=11 value=50 time=15 actual_time=4626
type=control_change channel=10 control=11 value=51 time=9 actual_time=4635
type=control_change channel=10 control=11 value=51 time=5 actual_time=4640
type=control_change channel=10 control=11 value=51 time=10 actual_time=4650
type=control_change channel=10 control=11 value=51 time=15 actual_time=4665
type=control_change channel=10 control=11 value=52 time=9 actual_time=4674
type=control_change channel=10 control=11 value=52 time=6 actual_time=4680
type=control_change channel=10 control=11 value=52 time=9 actual_time=4689
type=control_change channel=10 control=11 value=52 time=15 actual_time=4704
type=control_change channel=10 control=11 value=53 time=9 actual_time=4713
type=control_change channel=10 control=11 value=53 time=7 actual_time=4720
type=control_change channel=10 control=11 value=53 time=8 actual_time=4728
type=control_change channel=10 control=11 value=53 time=15 actual_time=4743
type=control_change channel=10 control=11 value=54 time=9 actual_time=4752
type=control_change channel=10 control=11 value=54 time=8 actual_time=4760
type=control_change channel=10 control=11 value=54 time=7 actual_time=4767
type=control_change channel=10 control=11 value=54 time=15 actual_time=4782
type=control_change channel=10 control=11 value=55 time=9 actual_time=4791
type=control_change channel=10 control=11 value=55 time=9 actual_time=4800
type=control_change channel=10 control=11 value=55 time=6 actual_time=4806
type=control_change channel=10 control=11 value=55 time=15 actual_time=4821
type=control_change channel=10 control=11 value=56 time=9 actual_time=4830
type=control_change channel=10 control=11 value=56 time=10 actual_time=4840
type=control_change channel=10 control=11 value=56 time=5 actual_time=4845
type=control_change channel=10 control=11 value=56 time=15 actual_time=4860
type=control_change channel=10 control=11 value=57 time=9 actual_time=4869
type=control_change channel=10 control=11 value=57 time=11 actual_time=4880
type=control_change channel=10 control=11 value=57 time=4 actual_time=4884
type=control_change channel=10 control=11 value=57 time=15 actual_time=4899
type=control_change channel=10 control=11 value=58 time=9 actual_time=4908
type=control_change channel=10 control=11 value=58 time=12 actual_time=4920
type=control_change channel=10 control=11 value=58 time=3 actual_time=4923
type=control_change channel=10 control=11 value=58 time=15 actual_time=4938
type=control_change channel=10 control=11 value=59 time=9 actual_time=4947
type=control_change channel=10 control=11 value=59 time=13 actual_time=4960
type=control_change channel=10 control=11 value=59 time=2 actual_time=4962
type=control_change channel=10 control=11 value=59 time=15 actual_time=4977
type=control_change channel=10 control=11 value=60 time=9 actual_time=4986
type=control_change channel=10 control=11 value=60 time=14 actual_time=5000
type=control_change channel=10 control=11 value=60 time=1 actual_time=5001
type=control_change channel=10 control=11 value=60 time=15 actual_time=5016
type=control_change channel=10 control=11 value=61 time=9 actual_time=5025
type=control_change channel=10 control=11 value=61 time=15 actual_time=5040
type=control_change channel=10 control=11 value=61 time=0 actual_time=5040
type=control_change channel=10 control=11 value=61 time=15 actual_time=5055
type=control_change channel=10 control=11 value=62 time=9 actual_time=5064
type=control_change channel=10 control=11 value=62 time=15 actual_time=5079
type=control_change channel=10 control=11 value=62 time=1 actual_time=5080
type=control_change channel=10 control=11 value=62 time=14 actual_time=5094
type=control_change channel=10 control=11 value=63 time=9 actual_time=5103
type=control_change channel=10 control=11 value=63 time=15 actual_time=5118
type=control_change channel=10 control=11 value=63 time=2 actual_time=5120
type=control_change channel=10 control=11 value=63 time=13 actual_time=5133
type=control_change channel=10 control=11 value=64 time=9 actual_time=5142
type=control_change channel=10 control=11 value=64 time=15 actual_time=5157
type=control_change channel=10 control=11 value=64 time=3 actual_time=5160
type=control_change channel=10 control=11 value=64 time=12 actual_time=5172
type=control_change channel=10 control=11 value=65 time=9 actual_time=5181
type=control_change channel=10 control=11 value=65 time=15 actual_time=5196
type=control_change channel=10 control=11 value=65 time=4 actual_time=5200
type=control_change channel=10 control=11 value=65 time=11 actual_time=5211
type=control_change channel=10 control=11 value=66 time=9 actual_time=5220
type=control_change channel=10 control=11 value=66 time=15 actual_time=5235
type=control_change channel=10 control=11 value=66 time=5 actual_time=5240
type=control_change channel=10 control=11 value=66 time=10 actual_time=5250
type=control_change channel=10 control=11 value=67 time=9 actual_time=5259
type=control_change channel=10 control=11 value=67 time=15 actual_time=5274
type=control_change channel=10 control=11 value=67 time=6 actual_time=5280
type=control_change channel=10 control=11 value=67 time=9 actual_time=5289
type=control_change channel=10 control=11 value=68 time=9 actual_time=5298
type=control_change channel=10 control=11 value=68 time=15 actual_time=5313
type=control_change channel=10 control=11 value=68 time=7 actual_time=5320
type=control_change channel=10 control=11 value=68 time=8 actual_time=5328
type=control_change channel=10 control=11 value=69 time=9 actual_time=5337
type=control_change channel=10 control=11 value=69 time=15 actual_time=5352
type=control_change channel=10 control=11 value=69 time=8 actual_time=5360
type=control_change channel=10 control=11 value=69 time=7 actual_time=5367
type=control_change channel=10 control=11 value=70 time=9 actual_time=5376
type=control_change channel=10 control=11 value=70 time=15 actual_time=5391
type=control_change channel=10 control=11 value=70 time=9 actual_time=5400
type=control_change channel=10 control=11 value=70 time=6 actual_time=5406
type=control_change channel=10 control=11 value=71 time=9 actual_time=5415
type=control_change channel=10 control=11 value=71 time=15 actual_time=5430
type=control_change channel=10 control=11 value=71 time=10 actual_time=5440
type=control_change channel=10 control=11 value=71 time=5 actual_time=5445
type=control_change channel=10 control=11 value=72 time=9 actual_time=5454
type=control_change channel=10 control=11 value=72 time=15 actual_time=5469
type=control_change channel=10 control=11 value=72 time=11 actual_time=5480
type=control_change channel=10 control=11 value=72 time=4 actual_time=5484
type=control_change channel=10 control=11 value=73 time=9 actual_time=5493
type=control_change channel=10 control=11 value=73 time=15 actual_time=5508
type=control_change channel=10 control=11 value=73 time=12 actual_time=5520
type=control_change channel=10 control=11 value=73 time=3 actual_time=5523
type=control_change channel=10 control=11 value=74 time=9 actual_time=5532
type=control_change channel=10 control=11 value=74 time=15 actual_time=5547
type=control_change channel=10 control=11 value=74 time=13 actual_time=5560
type=control_change channel=10 control=11 value=74 time=2 actual_time=5562
type=control_change channel=10 control=11 value=75 time=9 actual_time=5571
type=control_change channel=10 control=11 value=75 time=15 actual_time=5586
type=control_change channel=10 control=11 value=75 time=14 actual_time=5600
type=control_change channel=10 control=11 value=75 time=1 actual_time=5601
type=control_change channel=10 control=11 value=76 time=9 actual_time=5610
type=control_change channel=10 control=11 value=76 time=15 actual_time=5625
type=control_change channel=10 control=11 value=76 time=15 actual_time=5640
type=control_change channel=10 control=11 value=76 time=0 actual_time=5640
type=control_change channel=10 control=11 value=77 time=9 actual_time=5649
type=control_change channel=10 control=11 value=77 time=15 actual_time=5664
type=control_change channel=10 control=11 value=77 time=15 actual_time=5679
type=control_change channel=10 control=11 value=77 time=1 actual_time=5680
type=control_change channel=10 control=11 value=78 time=8 actual_time=5688
type=control_change channel=10 control=11 value=78 time=15 actual_time=5703
type=control_change channel=10 control=11 value=78 time=15 actual_time=5718
type=control_change channel=10 control=11 value=78 time=2 actual_time=5720
type=control_change channel=10 control=11 value=79 time=7 actual_time=5727
type=control_change channel=10 control=11 value=79 time=15 actual_time=5742
type=control_change channel=10 control=11 value=79 time=15 actual_time=5757
type=control_change channel=10 control=11 value=79 time=3 actual_time=5760
type=control_change channel=10 control=11 value=80 time=6 actual_time=5766
type=control_change channel=10 control=11 value=80 time=15 actual_time=5781
type=control_change channel=10 control=11 value=80 time=15 actual_time=5796
type=control_change channel=10 control=11 value=80 time=4 actual_time=5800
type=control_change channel=10 control=11 value=81 time=5 actual_time=5805
type=control_change channel=10 control=11 value=81 time=15 actual_time=5820
type=control_change channel=10 control=11 value=81 time=15 actual_time=5835
type=control_change channel=10 control=11 value=81 time=5 actual_time=5840
type=control_change channel=10 control=11 value=82 time=4 actual_time=5844
type=control_change channel=10 control=11 value=82 time=15 actual_time=5859
type=control_change channel=10 control=11 value=82 time=15 actual_time=5874
type=control_change channel=10 control=11 value=82 time=6 actual_time=5880
type=control_change channel=10 control=11 value=83 time=3 actual_time=5883
type=control_change channel=10 control=11 value=83 time=15 actual_time=5898
type=control_change channel=10 control=11 value=83 time=15 actual_time=5913
type=control_change channel=10 control=11 value=83 time=7 actual_time=5920
type=control_change channel=10 control=11 value=84 time=2 actual_time=5922
type=control_change channel=10 control=11 value=84 time=15 actual_time=5937
type=control_change channel=10 control=11 value=84 time=15 actual_time=5952
type=control_change channel=10 control=11 value=84 time=8 actual_time=5960
type=control_change channel=10 control=11 value=85 time=1 actual_time=5961
type=control_change channel=10 control=11 value=85 time=15 actual_time=5976
type=control_change channel=10 control=11 value=85 time=15 actual_time=5991
type=control_change channel=10 control=11 value=85 time=9 actual_time=6000
type=control_change channel=10 control=11 value=86 time=0 actual_time=6000
type=control_change channel=10 control=11 value=86 time=15 actual_time=6015
type=control_change channel=10 control=11 value=86 time=15 actual_time=6030
type=control_change channel=10 control=11 value=87 time=9 actual_time=6039
type=control_change channel=10 control=11 value=86 time=1 actual_time=6040
type=control_change channel=10 control=11 value=87 time=14 actual_time=6054
type=control_change channel=10 control=11 value=87 time=15 actual_time=6069
type=control_change channel=10 control=11 value=88 time=9 actual_time=6078
type=control_change channel=10 control=11 value=87 time=2 actual_time=6080
type=control_change channel=10 control=11 value=88 time=13 actual_time=6093
type=control_change channel=10 control=11 value=88 time=15 actual_time=6108
type=control_change channel=10 control=11 value=89 time=9 actual_time=6117
type=control_change channel=10 control=11 value=88 time=3 actual_time=6120
type=control_change channel=10 control=11 value=89 time=12 actual_time=6132
type=control_change channel=10 control=11 value=89 time=15 actual_time=6147
type=control_change channel=10 control=11 value=90 time=9 actual_time=6156
type=control_change channel=10 control=11 value=89 time=4 actual_time=6160
type=control_change channel=10 control=11 value=90 time=11 actual_time=6171
type=control_change channel=10 control=11 value=90 time=15 actual_time=6186
type=control_change channel=10 control=11 value=91 time=9 actual_time=6195
type=control_change channel=10 control=11 value=90 time=5 actual_time=6200
type=control_change channel=10 control=11 value=91 time=10 actual_time=6210
type=control_change channel=10 control=11 value=91 time=15 actual_time=6225
type=control_change channel=10 control=11 value=92 time=9 actual_time=6234
type=control_change channel=10 control=11 value=91 time=6 actual_time=6240
type=control_change channel=10 control=11 value=92 time=9 actual_time=6249
type=control_change channel=10 control=11 value=92 time=15 actual_time=6264
type=control_change channel=10 control=11 value=93 time=9 actual_time=6273
type=control_change channel=10 control=11 value=92 time=7 actual_time=6280
type=control_change channel=10 control=11 value=93 time=8 actual_time=6288
type=control_change channel=10 control=11 value=93 time=15 actual_time=6303
type=control_change channel=10 control=11 value=94 time=9 actual_time=6312
type=control_change channel=10 control=11 value=93 time=8 actual_time=6320
type=control_change channel=10 control=11 value=94 time=7 actual_time=6327
type=control_change channel=10 control=11 value=94 time=15 actual_time=6342
type=control_change channel=10 control=11 value=95 time=9 actual_time=6351
type=control_change channel=10 control=11 value=94 time=9 actual_time=6360
type=control_change channel=10 control=11 value=95 time=6 actual_time=6366
type=control_change channel=10 control=11 value=95 time=15 actual_time=6381
type=control_change channel=10 control=11 value=96 time=9 actual_time=6390
type=control_change channel=10 control=11 value=95 time=10 actual_time=6400
type=control_change channel=10 control=11 value=96 time=5 actual_time=6405
type=control_change channel=10 control=11 value=96 time=15 actual_time=6420
type=control_change channel=10 control=11 value=97 time=9 actual_time=6429
type=control_change channel=10 control=11 value=96 time=11 actual_time=6440
type=control_change channel=10 control=11 value=97 time=4 actual_time=6444
type=control_change channel=10 control=11 value=97 time=15 actual_time=6459
type=control_change channel=10 control=11 value=98 time=9 actual_time=6468
type=control_change channel=10 control=11 value=97 time=12 actual_time=6480
type=control_change channel=10 control=11 value=98 time=3 actual_time=6483
type=control_change channel=10 control=11 value=98 time=15 actual_time=6498
type=control_change channel=10 control=11 value=99 time=9 actual_time=6507
type=control_change channel=10 control=11 value=98 time=13 actual_time=6520
type=control_change channel=10 control=11 value=99 time=2 actual_time=6522
type=control_change channel=10 control=11 value=99 time=15 actual_time=6537
type=control_change channel=10 control=11 value=100 time=9 actual_time=6546
type=control_change channel=10 control=11 value=99 time=14 actual_time=6560
type=control_change channel=10 control=11 value=100 time=1 actual_time=6561
type=control_change channel=10 control=11 value=100 time=15 actual_time=6576
type=control_change channel=10 control=11 value=101 time=9 actual_time=6585
type=control_change channel=10 control=11 value=100 time=15 actual_time=6600
type=control_change channel=10 control=11 value=101 time=0 actual_time=6600
type=control_change channel=10 control=11 value=101 time=15 actual_time=6615
type=control_change channel=10 control=11 value=102 time=9 actual_time=6624
type=control_change channel=10 control=11 value=102 time=15 actual_time=6639
type=control_change channel=10 control=11 value=101 time=1 actual_time=6640
type=control_change channel=10 control=11 value=102 time=14 actual_time=6654
type=control_change channel=10 control=11 value=103 time=9 actual_time=6663
type=control_change channel=10 control=11 value=103 time=15 actual_time=6678
type=control_change channel=10 control=11 value=102 time=2 actual_time=6680
type=control_change channel=10 control=11 value=103 time=13 actual_time=6693
type=control_change channel=10 control=11 value=104 time=9 actual_time=6702
type=control_change channel=10 control=11 value=104 time=15 actual_time=6717
type=control_change channel=10 control=11 value=103 time=3 actual_time=6720
type=control_change channel=10 control=11 value=104 time=12 actual_time=6732
type=control_change channel=10 control=11 value=105 time=9 actual_time=6741
type=control_change channel=10 control=11 value=105 time=15 actual_time=6756
type=control_change channel=10 control=11 value=104 time=4 actual_time=6760
type=control_change channel=10 control=11 value=105 time=11 actual_time=6771
type=control_change channel=10 control=11 value=106 time=9 actual_time=6780
type=control_change channel=10 control=11 value=106 time=15 actual_time=6795
type=control_change channel=10 control=11 value=105 time=5 actual_time=6800
type=control_change channel=10 control=11 value=106 time=10 actual_time=6810
type=control_change channel=10 control=11 value=107 time=9 actual_time=6819
type=control_change channel=10 control=11 value=107 time=15 actual_time=6834
type=control_change channel=10 control=11 value=106 time=6 actual_time=6840
type=control_change channel=10 control=11 value=107 time=9 actual_time=6849
type=control_change channel=10 control=11 value=108 time=9 actual_time=6858
type=control_change channel=10 control=11 value=108 time=15 actual_time=6873
type=control_change channel=10 control=11 value=107 time=7 actual_time=6880
type=control_change channel=10 control=11 value=108 time=8 actual_time=6888
type=control_change channel=10 control=11 value=109 time=9 actual_time=6897
type=control_change channel=10 control=11 value=109 time=15 actual_time=6912
type=control_change channel=10 control=11 value=108 time=8 actual_time=6920
type=control_change channel=10 control=11 value=109 time=7 actual_time=6927
type=control_change channel=10 control=11 value=110 time=9 actual_time=6936
type=control_change channel=10 control=11 value=110 time=15 actual_time=6951
type=control_change channel=10 control=11 value=109 time=9 actual_time=6960
type=control_change channel=10 control=11 value=110 time=6 actual_time=6966
type=control_change channel=10 control=11 value=111 time=9 actual_time=6975
type=control_change channel=10 control=11 value=111 time=15 actual_time=6990
type=control_change channel=10 control=11 value=110 time=10 actual_time=7000
type=control_change channel=10 control=11 value=111 time=5 actual_time=7005
type=control_change channel=10 control=11 value=112 time=9 actual_time=7014
type=control_change channel=10 control=11 value=112 time=15 actual_time=7029
type=control_change channel=10 control=11 value=111 time=11 actual_time=7040
type=control_change channel=10 control=11 value=112 time=4 actual_time=7044
type=control_change channel=10 control=11 value=113 time=9 actual_time=7053
type=control_change channel=10 control=11 value=113 time=15 actual_time=7068
type=control_change channel=10 control=11 value=112 time=12 actual_time=7080
type=control_change channel=10 control=11 value=113 time=3 actual_time=7083
type=control_change channel=10 control=11 value=114 time=9 actual_time=7092
type=control_change channel=10 control=11 value=114 time=15 actual_time=7107
type=control_change channel=10 control=11 value=113 time=13 actual_time=7120
type=control_change channel=10 control=11 value=114 time=2 actual_time=7122
type=control_change channel=10 control=11 value=115 time=9 actual_time=7131
type=control_change channel=10 control=11 value=115 time=15 actual_time=7146
type=control_change channel=10 control=11 value=114 time=14 actual_time=7160
type=control_change channel=10 control=11 value=115 time=1 actual_time=7161
type=control_change channel=10 control=11 value=116 time=9 actual_time=7170
type=control_change channel=10 control=11 value=116 time=15 actual_time=7185
type=control_change channel=10 control=11 value=115 time=15 actual_time=7200
type=control_change channel=10 control=11 value=116 time=0 actual_time=7200
type=control_change channel=10 control=11 value=117 time=9 actual_time=7209
type=control_change channel=10 control=11 value=117 time=15 actual_time=7224
type=control_change channel=10 control=11 value=117 time=15 actual_time=7239
type=control_change channel=10 control=11 value=116 time=1 actual_time=7240
type=control_change channel=10 control=11 value=118 time=8 actual_time=7248
type=control_change channel=10 control=11 value=118 time=15 actual_time=7263
type=control_change channel=10 control=11 value=118 time=15 actual_time=7278
type=control_change channel=10 control=11 value=117 time=2 actual_time=7280
type=control_change channel=10 control=11 value=119 time=7 actual_time=7287
type=control_change channel=10 control=11 value=119 time=15 actual_time=7302
type=control_change channel=10 control=11 value=119 time=15 actual_time=7317
type=control_change channel=10 control=11 value=118 time=3 actual_time=7320
type=control_change channel=10 control=11 value=120 time=6 actual_time=7326
type=control_change channel=10 control=11 value=120 time=15 actual_time=7341
type=control_change channel=10 control=11 value=120 time=15 actual_time=7356
type=control_change channel=10 control=11 value=119 time=4 actual_time=7360
type=control_change channel=10 control=11 value=121 time=5 actual_time=7365
type=control_change channel=10 control=11 value=121 time=15 actual_time=7380
type=control_change channel=10 control=11 value=121 time=15 actual_time=7395
type=control_change channel=10 control=11 value=120 time=5 actual_time=7400
type=control_change channel=10 control=11 value=122 time=4 actual_time=7404
type=control_change channel=10 control=11 value=122 time=15 actual_time=7419
type=control_change channel=10 control=11 value=122 time=15 actual_time=7434
type=control_change channel=10 control=11 value=121 time=6 actual_time=7440
type=control_change channel=10 control=11 value=123 time=3 actual_time=7443
type=control_change channel=10 control=11 value=123 time=15 actual_time=7458
type=control_change channel=10 control=11 value=123 time=15 actual_time=7473
type=control_change channel=10 control=11 value=122 time=7 actual_time=7480
type=control_change channel=10 control=11 value=124 time=2 actual_time=7482
type=control_change channel=10 control=11 value=124 time=15 actual_time=7497
type=control_change channel=10 control=11 value=124 time=15 actual_time=7512
type=control_change channel=10 control=11 value=123 time=8 actual_time=7520
type=control_change channel=10 control=11 value=125 time=1 actual_time=7521
type=control_change channel=10 control=11 value=125 time=15 actual_time=7536
type=control_change channel=10 control=11 value=125 time=15 actual_time=7551
type=control_change channel=10 control=11 value=124 time=9 actual_time=7560
type=control_change channel=10 control=11 value=126 time=0 actual_time=7560
type=control_change channel=10 control=11 value=126 time=15 actual_time=7575
type=control_change channel=10 control=11 value=126 time=15 actual_time=7590
type=control_change channel=10 control=11 value=125 time=10 actual_time=7600
type=control_change channel=10 control=11 value=126 time=40 actual_time=7640
type=control_change channel=10 control=11 value=127 time=40 actual_time=7680
type: note_off, time: 0, actual_time: 7680
type=control_change channel=10 control=11 value=127 time=0 actual_time=7680
type: note_off, time: 0, actual_time: 7680
type=control_change channel=10 control=11 value=127 time=0 actual_time=7680
type: note_off, time: 0, actual_time: 7680
type=control_change channel=10 control=11 value=127 time=0 actual_time=7680
type: note_off, time: 0, actual_time: 7680
type=control_change channel=10 control=11 value=31 time=0 actual_time=7680
type=note_on channel=10 note=66 velocity=111 time=0 actual_time=7680
type=control_change channel=10 control=11 value=31 time=15 actual_time=7695
type=note_on channel=10 note=61 velocity=95 time=0 actual_time=7695
type=control_change channel=10 control=11 value=31 time=15 actual_time=7710
type=note_on channel=10 note=58 velocity=95 time=0 actual_time=7710
type=control_change channel=10 control=11 value=32 time=10 actual_time=7720
type=control_change channel=10 control=11 value=31 time=5 actual_time=7725
type=note_on channel=10 note=54 velocity=95 time=0 actual_time=7725
type=control_change channel=10 control=11 value=32 time=9 actual_time=7734
type=control_change channel=10 control=11 value=31 time=6 actual_time=7740
type=note_on channel=10 note=49 velocity=95 time=0 actual_time=7740
type=control_change channel=10 control=11 value=32 time=9 actual_time=7749
type=control_change channel=10 control=11 value=31 time=6 actual_time=7755
type=note_on channel=10 note=42 velocity=95 time=0 actual_time=7755
type=control_change channel=10 control=11 value=33 time=5 actual_time=7760
type=control_change channel=10 control=11 value=32 time=4 actual_time=7764
type=control_change channel=10 control=11 value=33 time=9 actual_time=7773
type=control_change channel=10 control=11 value=32 time=6 actual_time=7779
type=control_change channel=10 control=11 value=33 time=9 actual_time=7788
type=control_change channel=10 control=11 value=32 time=6 actual_time=7794
type=control_change channel=10 control=11 value=34 time=6 actual_time=7800
type=control_change channel=10 control=11 value=33 time=3 actual_time=7803
type=control_change channel=10 control=11 value=34 time=9 actual_time=7812
type=control_change channel=10 control=11 value=33 time=6 actual_time=7818
type=control_change channel=10 control=11 value=34 time=9 actual_time=7827
type=control_change channel=10 control=11 value=33 time=6 actual_time=7833
type=control_change channel=10 control=11 value=35 time=7 actual_time=7840
type=control_change channel=10 control=11 value=34 time=2 actual_time=7842
type=control_change channel=10 control=11 value=35 time=9 actual_time=7851
type=control_change channel=10 control=11 value=34 time=6 actual_time=7857
type=control_change channel=10 control=11 value=35 time=9 actual_time=7866
type=control_change channel=10 control=11 value=34 time=6 actual_time=7872
type=control_change channel=10 control=11 value=36 time=8 actual_time=7880
type=control_change channel=10 control=11 value=35 time=1 actual_time=7881
type=control_change channel=10 control=11 value=36 time=9 actual_time=7890
type=control_change channel=10 control=11 value=35 time=6 actual_time=7896
type=control_change channel=10 control=11 value=36 time=9 actual_time=7905
type=control_change channel=10 control=11 value=35 time=6 actual_time=7911
type=control_change channel=10 control=11 value=37 time=9 actual_time=7920
type=control_change channel=10 control=11 value=36 time=0 actual_time=7920
type=control_change channel=10 control=11 value=37 time=9 actual_time=7929
type=control_change channel=10 control=11 value=36 time=6 actual_time=7935
type=control_change channel=10 control=11 value=37 time=9 actual_time=7944
type=control_change channel=10 control=11 value=36 time=6 actual_time=7950
type=control_change channel=10 control=11 value=37 time=9 actual_time=7959
type=control_change channel=10 control=11 value=38 time=1 actual_time=7960
type=control_change channel=10 control=11 value=38 time=8 actual_time=7968
type=control_change channel=10 control=11 value=37 time=6 actual_time=7974
type=control_change channel=10 control=11 value=38 time=9 actual_time=7983
type=control_change channel=10 control=11 value=37 time=6 actual_time=7989
type=control_change channel=10 control=11 value=38 time=9 actual_time=7998
type=control_change channel=10 control=11 value=39 time=2 actual_time=8000
type=control_change channel=10 control=11 value=39 time=7 actual_time=8007
type=control_change channel=10 control=11 value=38 time=6 actual_time=8013
type=control_change channel=10 control=11 value=39 time=9 actual_time=8022
type=control_change channel=10 control=11 value=38 time=6 actual_time=8028
type=control_change channel=10 control=11 value=39 time=9 actual_time=8037
type=control_change channel=10 control=11 value=40 time=3 actual_time=8040
type=control_change channel=10 control=11 value=40 time=6 actual_time=8046
type=control_change channel=10 control=11 value=39 time=6 actual_time=8052
type=control_change channel=10 control=11 value=40 time=9 actual_time=8061
type=control_change channel=10 control=11 value=39 time=6 actual_time=8067
type=control_change channel=10 control=11 value=40 time=9 actual_time=8076
type=control_change channel=10 control=11 value=41 time=4 actual_time=8080
type=control_change channel=10 control=11 value=41 time=5 actual_time=8085
type=control_change channel=10 control=11 value=40 time=6 actual_time=8091
type=control_change channel=10 control=11 value=41 time=9 actual_time=8100
type=control_change channel=10 control=11 value=40 time=6 actual_time=8106
type=control_change channel=10 control=11 value=41 time=9 actual_time=8115
type=control_change channel=10 control=11 value=42 time=5 actual_time=8120
type=control_change channel=10 control=11 value=42 time=4 actual_time=8124
type=control_change channel=10 control=11 value=41 time=6 actual_time=8130
type=control_change channel=10 control=11 value=42 time=9 actual_time=8139
type=control_change channel=10 control=11 value=41 time=6 actual_time=8145
type=control_change channel=10 control=11 value=42 time=9 actual_time=8154
type=control_change channel=10 control=11 value=43 time=6 actual_time=8160
type=control_change channel=10 control=11 value=43 time=3 actual_time=8163
type=control_change channel=10 control=11 value=42 time=6 actual_time=8169
type=control_change channel=10 control=11 value=43 time=9 actual_time=8178
type=control_change channel=10 control=11 value=42 time=6 actual_time=8184
type=control_change channel=10 control=11 value=43 time=9 actual_time=8193
type=control_change channel=10 control=11 value=44 time=7 actual_time=8200
type=control_change channel=10 control=11 value=44 time=2 actual_time=8202
type=control_change channel=10 control=11 value=43 time=6 actual_time=8208
type=control_change channel=10 control=11 value=44 time=9 actual_time=8217
type=control_change channel=10 control=11 value=43 time=6 actual_time=8223
type=control_change channel=10 control=11 value=44 time=9 actual_time=8232
type=control_change channel=10 control=11 value=45 time=8 actual_time=8240
type=control_change channel=10 control=11 value=45 time=1 actual_time=8241
type=control_change channel=10 control=11 value=44 time=6 actual_time=8247
type=control_change channel=10 control=11 value=45 time=9 actual_time=8256
type=control_change channel=10 control=11 value=44 time=6 actual_time=8262
type=control_change channel=10 control=11 value=45 time=9 actual_time=8271
type=control_change channel=10 control=11 value=46 time=9 actual_time=8280
type=control_change channel=10 control=11 value=46 time=0 actual_time=8280
type=control_change channel=10 control=11 value=45 time=6 actual_time=8286
type=control_change channel=10 control=11 value=46 time=9 actual_time=8295
type=control_change channel=10 control=11 value=45 time=6 actual_time=8301
type=control_change channel=10 control=11 value=46 time=9 actual_time=8310
type=control_change channel=10 control=11 value=47 time=9 actual_time=8319
type=control_change channel=10 control=11 value=47 time=1 actual_time=8320
type=control_change channel=10 control=11 value=46 time=5 actual_time=8325
type=control_change channel=10 control=11 value=47 time=9 actual_time=8334
type=control_change channel=10 control=11 value=46 time=6 actual_time=8340
type=control_change channel=10 control=11 value=47 time=9 actual_time=8349
type=control_change channel=10 control=11 value=48 time=9 actual_time=8358
type=control_change channel=10 control=11 value=48 time=2 actual_time=8360
type=control_change channel=10 control=11 value=47 time=4 actual_time=8364
type=control_change channel=10 control=11 value=48 time=9 actual_time=8373
type=control_change channel=10 control=11 value=47 time=6 actual_time=8379
type=control_change channel=10 control=11 value=48 time=9 actual_time=8388
type=control_change channel=10 control=11 value=49 time=9 actual_time=8397
type=control_change channel=10 control=11 value=49 time=3 actual_time=8400
type=control_change channel=10 control=11 value=48 time=3 actual_time=8403
type=control_change channel=10 control=11 value=49 time=9 actual_time=8412
type=control_change channel=10 control=11 value=48 time=6 actual_time=8418
type=control_change channel=10 control=11 value=49 time=9 actual_time=8427
type=control_change channel=10 control=11 value=50 time=9 actual_time=8436
type=control_change channel=10 control=11 value=50 time=4 actual_time=8440
type=control_change channel=10 control=11 value=49 time=2 actual_time=8442
type=control_change channel=10 control=11 value=50 time=9 actual_time=8451
type=control_change channel=10 control=11 value=49 time=6 actual_time=8457
type=control_change channel=10 control=11 value=50 time=9 actual_time=8466
type=control_change channel=10 control=11 value=51 time=9 actual_time=8475
type=control_change channel=10 control=11 value=51 time=5 actual_time=8480
type=control_change channel=10 control=11 value=50 time=1 actual_time=8481
type=control_change channel=10 control=11 value=51 time=9 actual_time=8490
type=control_change channel=10 control=11 value=50 time=6 actual_time=8496
type=control_change channel=10 control=11 value=51 time=9 actual_time=8505
type=control_change channel=10 control=11 value=52 time=9 actual_time=8514
type=control_change channel=10 control=11 value=52 time=6 actual_time=8520
type=control_change channel=10 control=11 value=51 time=0 actual_time=8520
type=control_change channel=10 control=11 value=52 time=9 actual_time=8529
type=control_change channel=10 control=11 value=51 time=6 actual_time=8535
type=control_change channel=10 control=11 value=52 time=9 actual_time=8544
type=control_change channel=10 control=11 value=53 time=9 actual_time=8553
type=control_change channel=10 control=11 value=52 time=6 actual_time=8559
type=control_change channel=10 control=11 value=53 time=1 actual_time=8560
type=control_change channel=10 control=11 value=53 time=8 actual_time=8568
type=control_change channel=10 control=11 value=52 time=6 actual_time=8574
type=control_change channel=10 control=11 value=53 time=9 actual_time=8583
type=control_change channel=10 control=11 value=54 time=9 actual_time=8592
type=control_change channel=10 control=11 value=53 time=6 actual_time=8598
type=control_change channel=10 control=11 value=54 time=2 actual_time=8600
type=control_change channel=10 control=11 value=54 time=7 actual_time=8607
type=control_change channel=10 control=11 value=53 time=6 actual_time=8613
type=control_change channel=10 control=11 value=54 time=9 actual_time=8622
type=control_change channel=10 control=11 value=55 time=9 actual_time=8631
type=control_change channel=10 control=11 value=54 time=6 actual_time=8637
type=control_change channel=10 control=11 value=55 time=3 actual_time=8640
type=control_change channel=10 control=11 value=55 time=6 actual_time=8646
type=control_change channel=10 control=11 value=54 time=6 actual_time=8652
type=control_change channel=10 control=11 value=55 time=9 actual_time=8661
type=control_change channel=10 control=11 value=56 time=9 actual_time=8670
type=control_change channel=10 control=11 value=55 time=6 actual_time=8676
type=control_change channel=10 control=11 value=56 time=4 actual_time=8680
type=control_change channel=10 control=11 value=56 time=5 actual_time=8685
type=control_change channel=10 control=11 value=55 time=6 actual_time=8691
type=control_change channel=10 control=11 value=56 time=9 actual_time=8700
type=control_change channel=10 control=11 value=57 time=9 actual_time=8709
type=control_change channel=10 control=11 value=56 time=6 actual_time=8715
type=control_change channel=10 control=11 value=57 time=5 actual_time=8720
type=control_change channel=10 control=11 value=57 time=4 actual_time=8724
type=control_change channel=10 control=11 value=56 time=6 actual_time=8730
type=control_change channel=10 control=11 value=57 time=9 actual_time=8739
type=control_change channel=10 control=11 value=58 time=9 actual_time=8748
type=control_change channel=10 control=11 value=57 time=6 actual_time=8754
type=control_change channel=10 control=11 value=58 time=6 actual_time=8760
type=control_change channel=10 control=11 value=58 time=3 actual_time=8763
type=control_change channel=10 control=11 value=57 time=6 actual_time=8769
type=control_change channel=10 control=11 value=58 time=9 actual_time=8778
type=control_change channel=10 control=11 value=59 time=9 actual_time=8787
type=control_change channel=10 control=11 value=58 time=6 actual_time=8793
type=control_change channel=10 control=11 value=59 time=7 actual_time=8800
type=control_change channel=10 control=11 value=59 time=2 actual_time=8802
type=control_change channel=10 control=11 value=58 time=6 actual_time=8808
type=control_change channel=10 control=11 value=59 time=9 actual_time=8817
type=control_change channel=10 control=11 value=60 time=9 actual_time=8826
type=control_change channel=10 control=11 value=59 time=6 actual_time=8832
type=control_change channel=10 control=11 value=60 time=8 actual_time=8840
type=control_change channel=10 control=11 value=60 time=1 actual_time=8841
type=control_change channel=10 control=11 value=59 time=6 actual_time=8847
type=control_change channel=10 control=11 value=60 time=9 actual_time=8856
type=control_change channel=10 control=11 value=61 time=9 actual_time=8865
type=control_change channel=10 control=11 value=60 time=6 actual_time=8871
type=control_change channel=10 control=11 value=61 time=9 actual_time=8880
type=control_change channel=10 control=11 value=61 time=0 actual_time=8880
type=control_change channel=10 control=11 value=60 time=6 actual_time=8886
type=control_change channel=10 control=11 value=61 time=9 actual_time=8895
type=control_change channel=10 control=11 value=62 time=9 actual_time=8904
type=control_change channel=10 control=11 value=61 time=6 actual_time=8910
type=control_change channel=10 control=11 value=62 time=9 actual_time=8919
type=control_change channel=10 control=11 value=62 time=1 actual_time=8920
type=control_change channel=10 control=11 value=61 time=5 actual_time=8925
type=control_change channel=10 control=11 value=62 time=9 actual_time=8934
type=control_change channel=10 control=11 value=63 time=9 actual_time=8943
type=control_change channel=10 control=11 value=62 time=6 actual_time=8949
type=control_change channel=10 control=11 value=63 time=9 actual_time=8958
type=control_change channel=10 control=11 value=63 time=2 actual_time=8960
type=control_change channel=10 control=11 value=62 time=4 actual_time=8964
type=control_change channel=10 control=11 value=63 time=9 actual_time=8973
type=control_change channel=10 control=11 value=64 time=9 actual_time=8982
type=control_change channel=10 control=11 value=63 time=6 actual_time=8988
type=control_change channel=10 control=11 value=64 time=9 actual_time=8997
type=control_change channel=10 control=11 value=64 time=3 actual_time=9000
type=control_change channel=10 control=11 value=63 time=3 actual_time=9003
type=control_change channel=10 control=11 value=64 time=9 actual_time=9012
type=control_change channel=10 control=11 value=65 time=9 actual_time=9021
type=control_change channel=10 control=11 value=64 time=6 actual_time=9027
type=control_change channel=10 control=11 value=65 time=9 actual_time=9036
type=control_change channel=10 control=11 value=65 time=4 actual_time=9040
type=control_change channel=10 control=11 value=64 time=2 actual_time=9042
type=control_change channel=10 control=11 value=65 time=9 actual_time=9051
type=control_change channel=10 control=11 value=66 time=9 actual_time=9060
type=control_change channel=10 control=11 value=65 time=6 actual_time=9066
type=control_change channel=10 control=11 value=66 time=9 actual_time=9075
type=control_change channel=10 control=11 value=66 time=5 actual_time=9080
type=control_change channel=10 control=11 value=65 time=1 actual_time=9081
type=control_change channel=10 control=11 value=66 time=9 actual_time=9090
type=control_change channel=10 control=11 value=67 time=9 actual_time=9099
type=control_change channel=10 control=11 value=66 time=6 actual_time=9105
type=control_change channel=10 control=11 value=67 time=9 actual_time=9114
type=control_change channel=10 control=11 value=67 time=6 actual_time=9120
type=control_change channel=10 control=11 value=66 time=0 actual_time=9120
type=control_change channel=10 control=11 value=67 time=9 actual_time=9129
type=control_change channel=10 control=11 value=68 time=9 actual_time=9138
type=control_change channel=10 control=11 value=67 time=6 actual_time=9144
type=control_change channel=10 control=11 value=68 time=9 actual_time=9153
type=control_change channel=10 control=11 value=67 time=6 actual_time=9159
type=control_change channel=10 control=11 value=68 time=1 actual_time=9160
type=control_change channel=10 control=11 value=68 time=8 actual_time=9168
type=control_change channel=10 control=11 value=69 time=9 actual_time=9177
type=control_change channel=10 control=11 value=68 time=6 actual_time=9183
type=control_change channel=10 control=11 value=69 time=9 actual_time=9192
type=control_change channel=10 control=11 value=68 time=6 actual_time=9198
type=control_change channel=10 control=11 value=69 time=2 actual_time=9200
type=control_change channel=10 control=11 value=69 time=7 actual_time=9207
type=control_change channel=10 control=11 value=70 time=9 actual_time=9216
type=control_change channel=10 control=11 value=69 time=6 actual_time=9222
type=control_change channel=10 control=11 value=70 time=9 actual_time=9231
type=control_change channel=10 control=11 value=69 time=6 actual_time=9237
type=control_change channel=10 control=11 value=70 time=3 actual_time=9240
type=control_change channel=10 control=11 value=70 time=6 actual_time=9246
type=control_change channel=10 control=11 value=71 time=9 actual_time=9255
type=control_change channel=10 control=11 value=70 time=6 actual_time=9261
type=control_change channel=10 control=11 value=71 time=9 actual_time=9270
type=control_change channel=10 control=11 value=70 time=6 actual_time=9276
type=control_change channel=10 control=11 value=71 time=4 actual_time=9280
type=control_change channel=10 control=11 value=71 time=5 actual_time=9285
type=control_change channel=10 control=11 value=72 time=9 actual_time=9294
type=control_change channel=10 control=11 value=71 time=6 actual_time=9300
type=control_change channel=10 control=11 value=72 time=9 actual_time=9309
type=control_change channel=10 control=11 value=71 time=6 actual_time=9315
type=control_change channel=10 control=11 value=72 time=5 actual_time=9320
type=control_change channel=10 control=11 value=72 time=4 actual_time=9324
type=control_change channel=10 control=11 value=73 time=9 actual_time=9333
type=control_change channel=10 control=11 value=72 time=6 actual_time=9339
type=control_change channel=10 control=11 value=73 time=9 actual_time=9348
type=control_change channel=10 control=11 value=72 time=6 actual_time=9354
type=control_change channel=10 control=11 value=73 time=6 actual_time=9360
type=control_change channel=10 control=11 value=73 time=3 actual_time=9363
type=control_change channel=10 control=11 value=74 time=9 actual_time=9372
type=control_change channel=10 control=11 value=73 time=6 actual_time=9378
type=control_change channel=10 control=11 value=74 time=9 actual_time=9387
type=control_change channel=10 control=11 value=73 time=6 actual_time=9393
type=control_change channel=10 control=11 value=74 time=7 actual_time=9400
type=control_change channel=10 control=11 value=74 time=2 actual_time=9402
type=control_change channel=10 control=11 value=75 time=9 actual_time=9411
type=control_change channel=10 control=11 value=74 time=6 actual_time=9417
type=control_change channel=10 control=11 value=75 time=9 actual_time=9426
type=control_change channel=10 control=11 value=74 time=6 actual_time=9432
type=control_change channel=10 control=11 value=75 time=8 actual_time=9440
type=control_change channel=10 control=11 value=75 time=1 actual_time=9441
type=control_change channel=10 control=11 value=76 time=9 actual_time=9450
type=control_change channel=10 control=11 value=75 time=6 actual_time=9456
type=control_change channel=10 control=11 value=76 time=9 actual_time=9465
type=control_change channel=10 control=11 value=75 time=6 actual_time=9471
type=control_change channel=10 control=11 value=76 time=9 actual_time=9480
type=control_change channel=10 control=11 value=76 time=0 actual_time=9480
type=control_change channel=10 control=11 value=77 time=9 actual_time=9489
type=control_change channel=10 control=11 value=76 time=6 actual_time=9495
type=control_change channel=10 control=11 value=77 time=9 actual_time=9504
type=control_change channel=10 control=11 value=76 time=6 actual_time=9510
type=control_change channel=10 control=11 value=77 time=9 actual_time=9519
type=control_change channel=10 control=11 value=77 time=1 actual_time=9520
type=control_change channel=10 control=11 value=78 time=8 actual_time=9528
type=control_change channel=10 control=11 value=77 time=6 actual_time=9534
type=control_change channel=10 control=11 value=78 time=9 actual_time=9543
type=control_change channel=10 control=11 value=77 time=6 actual_time=9549
type=control_change channel=10 control=11 value=78 time=9 actual_time=9558
type=control_change channel=10 control=11 value=78 time=2 actual_time=9560
type=control_change channel=10 control=11 value=79 time=7 actual_time=9567
type=control_change channel=10 control=11 value=78 time=6 actual_time=9573
type=control_change channel=10 control=11 value=79 time=9 actual_time=9582
type=control_change channel=10 control=11 value=78 time=6 actual_time=9588
type=control_change channel=10 control=11 value=79 time=9 actual_time=9597
type=control_change channel=10 control=11 value=79 time=3 actual_time=9600
type=control_change channel=10 control=11 value=80 time=6 actual_time=9606
type=control_change channel=10 control=11 value=79 time=6 actual_time=9612
type=control_change channel=10 control=11 value=80 time=9 actual_time=9621
type=control_change channel=10 control=11 value=79 time=6 actual_time=9627
type=control_change channel=10 control=11 value=80 time=9 actual_time=9636
type=control_change channel=10 control=11 value=80 time=4 actual_time=9640
type=control_change channel=10 control=11 value=81 time=5 actual_time=9645
type=control_change channel=10 control=11 value=80 time=6 actual_time=9651
type=control_change channel=10 control=11 value=81 time=9 actual_time=9660
type=control_change channel=10 control=11 value=80 time=6 actual_time=9666
type=control_change channel=10 control=11 value=81 time=9 actual_time=9675
type=control_change channel=10 control=11 value=81 time=5 actual_time=9680
type=control_change channel=10 control=11 value=82 time=4 actual_time=9684
type=control_change channel=10 control=11 value=81 time=6 actual_time=9690
type=control_change channel=10 control=11 value=82 time=9 actual_time=9699
type=control_change channel=10 control=11 value=81 time=6 actual_time=9705
type=control_change channel=10 control=11 value=82 time=9 actual_time=9714
type=control_change channel=10 control=11 value=82 time=6 actual_time=9720
type=control_change channel=10 control=11 value=83 time=3 actual_time=9723
type=control_change channel=10 control=11 value=82 time=6 actual_time=9729
type=control_change channel=10 control=11 value=83 time=9 actual_time=9738
type=control_change channel=10 control=11 value=82 time=6 actual_time=9744
type=control_change channel=10 control=11 value=83 time=9 actual_time=9753
type=control_change channel=10 control=11 value=83 time=7 actual_time=9760
type=control_change channel=10 control=11 value=84 time=2 actual_time=9762
type=control_change channel=10 control=11 value=83 time=6 actual_time=9768
type=control_change channel=10 control=11 value=84 time=9 actual_time=9777
type=control_change channel=10 control=11 value=83 time=6 actual_time=9783
type=control_change channel=10 control=11 value=84 time=9 actual_time=9792
type=control_change channel=10 control=11 value=84 time=8 actual_time=9800
type=control_change channel=10 control=11 value=85 time=1 actual_time=9801
type=control_change channel=10 control=11 value=84 time=6 actual_time=9807
type=control_change channel=10 control=11 value=85 time=9 actual_time=9816
type=control_change channel=10 control=11 value=84 time=6 actual_time=9822
type=control_change channel=10 control=11 value=85 time=9 actual_time=9831
type=control_change channel=10 control=11 value=85 time=9 actual_time=9840
type=control_change channel=10 control=11 value=86 time=0 actual_time=9840
type=control_change channel=10 control=11 value=85 time=6 actual_time=9846
type=control_change channel=10 control=11 value=86 time=9 actual_time=9855
type=control_change channel=10 control=11 value=85 time=6 actual_time=9861
type=control_change channel=10 control=11 value=86 time=9 actual_time=9870
type=control_change channel=10 control=11 value=87 time=9 actual_time=9879
type=control_change channel=10 control=11 value=86 time=1 actual_time=9880
type=control_change channel=10 control=11 value=86 time=5 actual_time=9885
type=control_change channel=10 control=11 value=87 time=9 actual_time=9894
type=control_change channel=10 control=11 value=86 time=6 actual_time=9900
type=control_change channel=10 control=11 value=87 time=9 actual_time=9909
type=control_change channel=10 control=11 value=88 time=9 actual_time=9918
type=control_change channel=10 control=11 value=87 time=2 actual_time=9920
type=control_change channel=10 control=11 value=87 time=4 actual_time=9924
type=control_change channel=10 control=11 value=88 time=9 actual_time=9933
type=control_change channel=10 control=11 value=87 time=6 actual_time=9939
type=control_change channel=10 control=11 value=88 time=9 actual_time=9948
type=control_change channel=10 control=11 value=89 time=9 actual_time=9957
type=control_change channel=10 control=11 value=88 time=3 actual_time=9960
type=control_change channel=10 control=11 value=88 time=3 actual_time=9963
type=control_change channel=10 control=11 value=89 time=9 actual_time=9972
type=control_change channel=10 control=11 value=88 time=6 actual_time=9978
type=control_change channel=10 control=11 value=89 time=9 actual_time=9987
type=control_change channel=10 control=11 value=90 time=9 actual_time=9996
type=control_change channel=10 control=11 value=89 time=4 actual_time=10000
type=control_change channel=10 control=11 value=89 time=2 actual_time=10002
type=control_change channel=10 control=11 value=90 time=9 actual_time=10011
type=control_change channel=10 control=11 value=89 time=6 actual_time=10017
type=control_change channel=10 control=11 value=90 time=9 actual_time=10026
type=control_change channel=10 control=11 value=91 time=9 actual_time=10035
type=control_change channel=10 control=11 value=90 time=5 actual_time=10040
type=control_change channel=10 control=11 value=90 time=1 actual_time=10041
type=control_change channel=10 control=11 value=91 time=9 actual_time=10050
type=control_change channel=10 control=11 value=90 time=6 actual_time=10056
type=control_change channel=10 control=11 value=91 time=9 actual_time=10065
type=control_change channel=10 control=11 value=92 time=9 actual_time=10074
type=control_change channel=10 control=11 value=91 time=6 actual_time=10080
type=control_change channel=10 control=11 value=91 time=0 actual_time=10080
type=control_change channel=10 control=11 value=92 time=9 actual_time=10089
type=control_change channel=10 control=11 value=91 time=6 actual_time=10095
type=control_change channel=10 control=11 value=92 time=9 actual_time=10104
type=control_change channel=10 control=11 value=93 time=9 actual_time=10113
type=control_change channel=10 control=11 value=92 time=6 actual_time=10119
type=control_change channel=10 control=11 value=92 time=1 actual_time=10120
type=control_change channel=10 control=11 value=93 time=8 actual_time=10128
type=control_change channel=10 control=11 value=92 time=6 actual_time=10134
type=control_change channel=10 control=11 value=93 time=9 actual_time=10143
type=control_change channel=10 control=11 value=94 time=9 actual_time=10152
type=control_change channel=10 control=11 value=93 time=6 actual_time=10158
type=control_change channel=10 control=11 value=93 time=2 actual_time=10160
type=control_change channel=10 control=11 value=94 time=7 actual_time=10167
type=control_change channel=10 control=11 value=93 time=6 actual_time=10173
type=control_change channel=10 control=11 value=94 time=9 actual_time=10182
type=control_change channel=10 control=11 value=95 time=9 actual_time=10191
type=control_change channel=10 control=11 value=94 time=6 actual_time=10197
type=control_change channel=10 control=11 value=94 time=3 actual_time=10200
type=control_change channel=10 control=11 value=95 time=6 actual_time=10206
type=control_change channel=10 control=11 value=94 time=6 actual_time=10212
type=control_change channel=10 control=11 value=95 time=9 actual_time=10221
type=control_change channel=10 control=11 value=96 time=9 actual_time=10230
type=control_change channel=10 control=11 value=95 time=6 actual_time=10236
type=control_change channel=10 control=11 value=95 time=4 actual_time=10240
type=control_change channel=10 control=11 value=96 time=5 actual_time=10245
type=control_change channel=10 control=11 value=95 time=6 actual_time=10251
type=control_change channel=10 control=11 value=96 time=9 actual_time=10260
type=control_change channel=10 control=11 value=97 time=9 actual_time=10269
type=control_change channel=10 control=11 value=96 time=6 actual_time=10275
type=control_change channel=10 control=11 value=96 time=5 actual_time=10280
type=control_change channel=10 control=11 value=97 time=4 actual_time=10284
type=control_change channel=10 control=11 value=96 time=6 actual_time=10290
type=control_change channel=10 control=11 value=97 time=9 actual_time=10299
type=control_change channel=10 control=11 value=98 time=9 actual_time=10308
type=control_change channel=10 control=11 value=97 time=6 actual_time=10314
type=control_change channel=10 control=11 value=97 time=6 actual_time=10320
type=control_change channel=10 control=11 value=98 time=3 actual_time=10323
type=control_change channel=10 control=11 value=97 time=6 actual_time=10329
type=control_change channel=10 control=11 value=98 time=9 actual_time=10338
type=control_change channel=10 control=11 value=99 time=9 actual_time=10347
type=control_change channel=10 control=11 value=98 time=6 actual_time=10353
type=control_change channel=10 control=11 value=98 time=7 actual_time=10360
type=control_change channel=10 control=11 value=99 time=2 actual_time=10362
type=control_change channel=10 control=11 value=98 time=6 actual_time=10368
type=control_change channel=10 control=11 value=99 time=9 actual_time=10377
type=control_change channel=10 control=11 value=100 time=9 actual_time=10386
type=control_change channel=10 control=11 value=99 time=6 actual_time=10392
type=control_change channel=10 control=11 value=99 time=8 actual_time=10400
type=control_change channel=10 control=11 value=100 time=1 actual_time=10401
type=control_change channel=10 control=11 value=99 time=6 actual_time=10407
type=control_change channel=10 control=11 value=100 time=9 actual_time=10416
type=control_change channel=10 control=11 value=101 time=9 actual_time=10425
type=control_change channel=10 control=11 value=100 time=6 actual_time=10431
type=control_change channel=10 control=11 value=100 time=9 actual_time=10440
type=control_change channel=10 control=11 value=101 time=0 actual_time=10440
type=control_change channel=10 control=11 value=100 time=6 actual_time=10446
type=control_change channel=10 control=11 value=101 time=9 actual_time=10455
type=control_change channel=10 control=11 value=102 time=9 actual_time=10464
type=control_change channel=10 control=11 value=101 time=6 actual_time=10470
type=control_change channel=10 control=11 value=102 time=9 actual_time=10479
type=control_change channel=10 control=11 value=101 time=1 actual_time=10480
type=control_change channel=10 control=11 value=101 time=5 actual_time=10485
type=control_change channel=10 control=11 value=102 time=9 actual_time=10494
type=control_change channel=10 control=11 value=103 time=9 actual_time=10503
type=control_change channel=10 control=11 value=102 time=6 actual_time=10509
type=control_change channel=10 control=11 value=103 time=9 actual_time=10518
type=control_change channel=10 control=11 value=102 time=2 actual_time=10520
type=control_change channel=10 control=11 value=102 time=4 actual_time=10524
type=control_change channel=10 control=11 value=103 time=9 actual_time=10533
type=control_change channel=10 control=11 value=104 time=9 actual_time=10542
type=control_change channel=10 control=11 value=103 time=6 actual_time=10548
type=control_change channel=10 control=11 value=104 time=9 actual_time=10557
type=control_change channel=10 control=11 value=103 time=3 actual_time=10560
type=control_change channel=10 control=11 value=103 time=3 actual_time=10563
type=control_change channel=10 control=11 value=104 time=9 actual_time=10572
type=control_change channel=10 control=11 value=105 time=9 actual_time=10581
type=control_change channel=10 control=11 value=104 time=6 actual_time=10587
type=control_change channel=10 control=11 value=105 time=9 actual_time=10596
type=control_change channel=10 control=11 value=104 time=4 actual_time=10600
type=control_change channel=10 control=11 value=104 time=2 actual_time=10602
type=control_change channel=10 control=11 value=105 time=9 actual_time=10611
type=control_change channel=10 control=11 value=106 time=9 actual_time=10620
type=control_change channel=10 control=11 value=105 time=6 actual_time=10626
type=control_change channel=10 control=11 value=106 time=9 actual_time=10635
type=control_change channel=10 control=11 value=105 time=5 actual_time=10640
type=control_change channel=10 control=11 value=105 time=1 actual_time=10641
type=control_change channel=10 control=11 value=106 time=9 actual_time=10650
type=control_change channel=10 control=11 value=107 time=9 actual_time=10659
type=control_change channel=10 control=11 value=106 time=6 actual_time=10665
type=control_change channel=10 control=11 value=107 time=9 actual_time=10674
type=control_change channel=10 control=11 value=106 time=6 actual_time=10680
type=control_change channel=10 control=11 value=106 time=0 actual_time=10680
type=control_change channel=10 control=11 value=107 time=9 actual_time=10689
type=control_change channel=10 control=11 value=108 time=9 actual_time=10698
type=control_change channel=10 control=11 value=107 time=6 actual_time=10704
type=control_change channel=10 control=11 value=108 time=9 actual_time=10713
type=control_change channel=10 control=11 value=107 time=6 actual_time=10719
type=control_change channel=10 control=11 value=107 time=1 actual_time=10720
type=control_change channel=10 control=11 value=108 time=8 actual_time=10728
type=control_change channel=10 control=11 value=109 time=9 actual_time=10737
type=control_change channel=10 control=11 value=108 time=6 actual_time=10743
type=control_change channel=10 control=11 value=109 time=9 actual_time=10752
type=control_change channel=10 control=11 value=108 time=6 actual_time=10758
type=control_change channel=10 control=11 value=108 time=2 actual_time=10760
type=control_change channel=10 control=11 value=109 time=7 actual_time=10767
type=control_change channel=10 control=11 value=110 time=9 actual_time=10776
type=control_change channel=10 control=11 value=109 time=6 actual_time=10782
type=control_change channel=10 control=11 value=110 time=9 actual_time=10791
type=control_change channel=10 control=11 value=109 time=6 actual_time=10797
type=control_change channel=10 control=11 value=109 time=3 actual_time=10800
type=control_change channel=10 control=11 value=110 time=6 actual_time=10806
type=control_change channel=10 control=11 value=111 time=9 actual_time=10815
type=control_change channel=10 control=11 value=110 time=6 actual_time=10821
type=control_change channel=10 control=11 value=111 time=9 actual_time=10830
type=control_change channel=10 control=11 value=110 time=6 actual_time=10836
type=control_change channel=10 control=11 value=110 time=4 actual_time=10840
type=control_change channel=10 control=11 value=111 time=5 actual_time=10845
type=control_change channel=10 control=11 value=112 time=9 actual_time=10854
type=control_change channel=10 control=11 value=111 time=6 actual_time=10860
type=control_change channel=10 control=11 value=112 time=9 actual_time=10869
type=control_change channel=10 control=11 value=111 time=6 actual_time=10875
type=control_change channel=10 control=11 value=111 time=5 actual_time=10880
type=control_change channel=10 control=11 value=112 time=4 actual_time=10884
type=control_change channel=10 control=11 value=113 time=9 actual_time=10893
type=control_change channel=10 control=11 value=112 time=6 actual_time=10899
type=control_change channel=10 control=11 value=113 time=9 actual_time=10908
type=control_change channel=10 control=11 value=112 time=6 actual_time=10914
type=control_change channel=10 control=11 value=112 time=6 actual_time=10920
type=control_change channel=10 control=11 value=113 time=3 actual_time=10923
type=control_change channel=10 control=11 value=114 time=9 actual_time=10932
type=control_change channel=10 control=11 value=113 time=6 actual_time=10938
type=control_change channel=10 control=11 value=114 time=9 actual_time=10947
type=control_change channel=10 control=11 value=113 time=6 actual_time=10953
type=control_change channel=10 control=11 value=113 time=7 actual_time=10960
type=control_change channel=10 control=11 value=114 time=2 actual_time=10962
type=control_change channel=10 control=11 value=115 time=9 actual_time=10971
type=control_change channel=10 control=11 value=114 time=6 actual_time=10977
type=control_change channel=10 control=11 value=115 time=9 actual_time=10986
type=control_change channel=10 control=11 value=114 time=6 actual_time=10992
type=control_change channel=10 control=11 value=114 time=8 actual_time=11000
type=control_change channel=10 control=11 value=115 time=1 actual_time=11001
type=control_change channel=10 control=11 value=116 time=9 actual_time=11010
type=control_change channel=10 control=11 value=115 time=6 actual_time=11016
type=control_change channel=10 control=11 value=116 time=9 actual_time=11025
type=control_change channel=10 control=11 value=115 time=6 actual_time=11031
type=control_change channel=10 control=11 value=115 time=9 actual_time=11040
type=control_change channel=10 control=11 value=116 time=0 actual_time=11040
type=control_change channel=10 control=11 value=117 time=9 actual_time=11049
type=control_change channel=10 control=11 value=116 time=6 actual_time=11055
type=control_change channel=10 control=11 value=117 time=9 actual_time=11064
type=control_change channel=10 control=11 value=116 time=6 actual_time=11070
type=control_change channel=10 control=11 value=117 time=9 actual_time=11079
type=control_change channel=10 control=11 value=116 time=1 actual_time=11080
type=control_change channel=10 control=11 value=118 time=8 actual_time=11088
type=control_change channel=10 control=11 value=117 time=6 actual_time=11094
type=control_change channel=10 control=11 value=118 time=9 actual_time=11103
type=control_change channel=10 control=11 value=117 time=6 actual_time=11109
type=control_change channel=10 control=11 value=118 time=9 actual_time=11118
type=control_change channel=10 control=11 value=117 time=2 actual_time=11120
type=control_change channel=10 control=11 value=119 time=7 actual_time=11127
type=control_change channel=10 control=11 value=118 time=6 actual_time=11133
type=control_change channel=10 control=11 value=119 time=9 actual_time=11142
type=control_change channel=10 control=11 value=118 time=6 actual_time=11148
type=control_change channel=10 control=11 value=119 time=9 actual_time=11157
type=control_change channel=10 control=11 value=118 time=3 actual_time=11160
type=control_change channel=10 control=11 value=120 time=6 actual_time=11166
type=control_change channel=10 control=11 value=119 time=6 actual_time=11172
type=control_change channel=10 control=11 value=120 time=9 actual_time=11181
type=control_change channel=10 control=11 value=119 time=6 actual_time=11187
type=control_change channel=10 control=11 value=120 time=9 actual_time=11196
type=control_change channel=10 control=11 value=119 time=4 actual_time=11200
type=control_change channel=10 control=11 value=121 time=5 actual_time=11205
type=control_change channel=10 control=11 value=120 time=6 actual_time=11211
type=control_change channel=10 control=11 value=121 time=9 actual_time=11220
type=control_change channel=10 control=11 value=120 time=6 actual_time=11226
type=control_change channel=10 control=11 value=121 time=9 actual_time=11235
type=control_change channel=10 control=11 value=120 time=5 actual_time=11240
type=control_change channel=10 control=11 value=122 time=4 actual_time=11244
type=control_change channel=10 control=11 value=121 time=6 actual_time=11250
type=control_change channel=10 control=11 value=122 time=9 actual_time=11259
type=control_change channel=10 control=11 value=121 time=6 actual_time=11265
type=control_change channel=10 control=11 value=122 time=9 actual_time=11274
type=control_change channel=10 control=11 value=121 time=6 actual_time=11280
type=control_change channel=10 control=11 value=123 time=3 actual_time=11283
type=control_change channel=10 control=11 value=122 time=6 actual_time=11289
type=control_change channel=10 control=11 value=123 time=9 actual_time=11298
type=control_change channel=10 control=11 value=122 time=6 actual_time=11304
type=control_change channel=10 control=11 value=123 time=9 actual_time=11313
type=control_change channel=10 control=11 value=122 time=7 actual_time=11320
type=control_change channel=10 control=11 value=124 time=2 actual_time=11322
type=control_change channel=10 control=11 value=123 time=6 actual_time=11328
type=control_change channel=10 control=11 value=124 time=9 actual_time=11337
type=control_change channel=10 control=11 value=123 time=6 actual_time=11343
type=control_change channel=10 control=11 value=124 time=9 actual_time=11352
type=control_change channel=10 control=11 value=123 time=8 actual_time=11360
type=control_change channel=10 control=11 value=125 time=1 actual_time=11361
type=control_change channel=10 control=11 value=124 time=6 actual_time=11367
type=control_change channel=10 control=11 value=125 time=9 actual_time=11376
type=control_change channel=10 control=11 value=124 time=6 actual_time=11382
type=control_change channel=10 control=11 value=125 time=9 actual_time=11391
type=control_change channel=10 control=11 value=124 time=9 actual_time=11400
type=control_change channel=10 control=11 value=126 time=0 actual_time=11400
type=control_change channel=10 control=11 value=125 time=6 actual_time=11406
type=control_change channel=10 control=11 value=126 time=9 actual_time=11415
type=control_change channel=10 control=11 value=125 time=6 actual_time=11421
type=control_change channel=10 control=11 value=126 time=9 actual_time=11430
type=control_change channel=10 control=11 value=125 time=10 actual_time=11440
type=control_change channel=10 control=11 value=126 time=5 actual_time=11445
type=control_change channel=10 control=11 value=126 time=15 actual_time=11460
type=control_change channel=10 control=11 value=126 time=20 actual_time=11480
type=control_change channel=10 control=11 value=127 time=40 actual_time=11520
type: note_off, time: 0, actual_time: 11520
type=control_change channel=10 control=11 value=127 time=0 actual_time=11520
type: note_off, time: 0, actual_time: 11520
type=control_change channel=10 control=11 value=127 time=0 actual_time=11520
type: note_off, time: 0, actual_time: 11520
type=control_change channel=10 control=11 value=127 time=0 actual_time=11520
type: note_off, time: 0, actual_time: 11520
type=control_change channel=10 control=11 value=127 time=0 actual_time=11520
type: note_off, time: 0, actual_time: 11520
type=control_change channel=10 control=11 value=127 time=0 actual_time=11520
type: note_off, time: 0, actual_time: 11520
type=control_change channel=10 control=11 value=31 time=0 actual_time=11520
type=note_on channel=10 note=64 velocity=111 time=0 actual_time=11520
type=control_change channel=10 control=11 value=31 time=15 actual_time=11535
type=note_on channel=10 note=62 velocity=95 time=0 actual_time=11535
type=control_change channel=10 control=11 value=31 time=15 actual_time=11550
type=note_on channel=10 note=57 velocity=95 time=0 actual_time=11550
type=control_change channel=10 control=11 value=32 time=10 actual_time=11560
type=control_change channel=10 control=11 value=31 time=5 actual_time=11565
type=note_on channel=10 note=50 velocity=95 time=0 actual_time=11565
type=control_change channel=10 control=11 value=32 time=9 actual_time=11574
type=control_change channel=10 control=11 value=32 time=15 actual_time=11589
type=control_change channel=10 control=11 value=33 time=11 actual_time=11600
type=control_change channel=10 control=11 value=32 time=4 actual_time=11604
type=control_change channel=10 control=11 value=33 time=9 actual_time=11613
type=control_change channel=10 control=11 value=33 time=15 actual_time=11628
type=control_change channel=10 control=11 value=34 time=12 actual_time=11640
type=control_change channel=10 control=11 value=33 time=3 actual_time=11643
type=control_change channel=10 control=11 value=34 time=9 actual_time=11652
type=control_change channel=10 control=11 value=34 time=15 actual_time=11667
type=control_change channel=10 control=11 value=35 time=13 actual_time=11680
type=control_change channel=10 control=11 value=34 time=2 actual_time=11682
type=control_change channel=10 control=11 value=35 time=9 actual_time=11691
type=control_change channel=10 control=11 value=35 time=15 actual_time=11706
type=control_change channel=10 control=11 value=36 time=14 actual_time=11720
type=control_change channel=10 control=11 value=35 time=1 actual_time=11721
type=control_change channel=10 control=11 value=36 time=9 actual_time=11730
type=control_change channel=10 control=11 value=36 time=15 actual_time=11745
type=control_change channel=10 control=11 value=37 time=15 actual_time=11760
type=control_change channel=10 control=11 value=36 time=0 actual_time=11760
type=control_change channel=10 control=11 value=37 time=9 actual_time=11769
type=control_change channel=10 control=11 value=37 time=15 actual_time=11784
type=control_change channel=10 control=11 value=37 time=15 actual_time=11799
type=control_change channel=10 control=11 value=38 time=1 actual_time=11800
type=control_change channel=10 control=11 value=38 time=8 actual_time=11808
type=control_change channel=10 control=11 value=38 time=15 actual_time=11823
type=control_change channel=10 control=11 value=38 time=15 actual_time=11838
type=control_change channel=10 control=11 value=39 time=2 actual_time=11840
type=control_change channel=10 control=11 value=39 time=7 actual_time=11847
type=control_change channel=10 control=11 value=39 time=15 actual_time=11862
type=control_change channel=10 control=11 value=39 time=15 actual_time=11877
type=control_change channel=10 control=11 value=40 time=3 actual_time=11880
type=control_change channel=10 control=11 value=40 time=6 actual_time=11886
type=control_change channel=10 control=11 value=40 time=15 actual_time=11901
type=control_change channel=10 control=11 value=40 time=15 actual_time=11916
type=control_change channel=10 control=11 value=41 time=4 actual_time=11920
type=control_change channel=10 control=11 value=41 time=5 actual_time=11925
type=control_change channel=10 control=11 value=41 time=15 actual_time=11940
type=control_change channel=10 control=11 value=41 time=15 actual_time=11955
type=control_change channel=10 control=11 value=42 time=5 actual_time=11960
type=control_change channel=10 control=11 value=42 time=4 actual_time=11964
type=control_change channel=10 control=11 value=42 time=15 actual_time=11979
type=control_change channel=10 control=11 value=42 time=15 actual_time=11994
type=control_change channel=10 control=11 value=43 time=6 actual_time=12000
type=control_change channel=10 control=11 value=43 time=3 actual_time=12003
type=control_change channel=10 control=11 value=43 time=15 actual_time=12018
type=control_change channel=10 control=11 value=43 time=15 actual_time=12033
type=control_change channel=10 control=11 value=44 time=7 actual_time=12040
type=control_change channel=10 control=11 value=44 time=2 actual_time=12042
type=control_change channel=10 control=11 value=44 time=15 actual_time=12057
type=control_change channel=10 control=11 value=44 time=15 actual_time=12072
type=control_change channel=10 control=11 value=45 time=8 actual_time=12080
type=control_change channel=10 control=11 value=45 time=1 actual_time=12081
type=control_change channel=10 control=11 value=45 time=15 actual_time=12096
type=control_change channel=10 control=11 value=45 time=15 actual_time=12111
type=control_change channel=10 control=11 value=46 time=9 actual_time=12120
type=control_change channel=10 control=11 value=46 time=0 actual_time=12120
type=control_change channel=10 control=11 value=46 time=15 actual_time=12135
type=control_change channel=10 control=11 value=46 time=15 actual_time=12150
type=control_change channel=10 control=11 value=47 time=9 actual_time=12159
type=control_change channel=10 control=11 value=47 time=1 actual_time=12160
type=control_change channel=10 control=11 value=47 time=14 actual_time=12174
type=control_change channel=10 control=11 value=47 time=15 actual_time=12189
type=control_change channel=10 control=11 value=48 time=9 actual_time=12198
type=control_change channel=10 control=11 value=48 time=2 actual_time=12200
type=control_change channel=10 control=11 value=48 time=13 actual_time=12213
type=control_change channel=10 control=11 value=48 time=15 actual_time=12228
type=control_change channel=10 control=11 value=49 time=9 actual_time=12237
type=control_change channel=10 control=11 value=49 time=3 actual_time=12240
type=control_change channel=10 control=11 value=49 time=12 actual_time=12252
type=control_change channel=10 control=11 value=49 time=15 actual_time=12267
type=control_change channel=10 control=11 value=50 time=9 actual_time=12276
type=control_change channel=10 control=11 value=50 time=4 actual_time=12280
type=control_change channel=10 control=11 value=50 time=11 actual_time=12291
type=control_change channel=10 control=11 value=50 time=15 actual_time=12306
type=control_change channel=10 control=11 value=51 time=9 actual_time=12315
type=control_change channel=10 control=11 value=51 time=5 actual_time=12320
type=control_change channel=10 control=11 value=51 time=10 actual_time=12330
type=control_change channel=10 control=11 value=51 time=15 actual_time=12345
type=control_change channel=10 control=11 value=52 time=9 actual_time=12354
type=control_change channel=10 control=11 value=52 time=6 actual_time=12360
type=control_change channel=10 control=11 value=52 time=9 actual_time=12369
type=control_change channel=10 control=11 value=52 time=15 actual_time=12384
type=control_change channel=10 control=11 value=53 time=9 actual_time=12393
type=control_change channel=10 control=11 value=53 time=7 actual_time=12400
type=control_change channel=10 control=11 value=53 time=8 actual_time=12408
type=control_change channel=10 control=11 value=53 time=15 actual_time=12423
type=control_change channel=10 control=11 value=54 time=9 actual_time=12432
type=control_change channel=10 control=11 value=54 time=8 actual_time=12440
type=control_change channel=10 control=11 value=54 time=7 actual_time=12447
type=control_change channel=10 control=11 value=54 time=15 actual_time=12462
type=control_change channel=10 control=11 value=55 time=9 actual_time=12471
type=control_change channel=10 control=11 value=55 time=9 actual_time=12480
type=control_change channel=10 control=11 value=55 time=6 actual_time=12486
type=control_change channel=10 control=11 value=55 time=15 actual_time=12501
type=control_change channel=10 control=11 value=56 time=9 actual_time=12510
type=control_change channel=10 control=11 value=56 time=10 actual_time=12520
type=control_change channel=10 control=11 value=56 time=5 actual_time=12525
type=control_change channel=10 control=11 value=56 time=15 actual_time=12540
type=control_change channel=10 control=11 value=57 time=9 actual_time=12549
type=control_change channel=10 control=11 value=57 time=11 actual_time=12560
type=control_change channel=10 control=11 value=57 time=4 actual_time=12564
type=control_change channel=10 control=11 value=57 time=15 actual_time=12579
type=control_change channel=10 control=11 value=58 time=9 actual_time=12588
type=control_change channel=10 control=11 value=58 time=12 actual_time=12600
type=control_change channel=10 control=11 value=58 time=3 actual_time=12603
type=control_change channel=10 control=11 value=58 time=15 actual_time=12618
type=control_change channel=10 control=11 value=59 time=9 actual_time=12627
type=control_change channel=10 control=11 value=59 time=13 actual_time=12640
type=control_change channel=10 control=11 value=59 time=2 actual_time=12642
type=control_change channel=10 control=11 value=59 time=15 actual_time=12657
type=control_change channel=10 control=11 value=60 time=9 actual_time=12666
type=control_change channel=10 control=11 value=60 time=14 actual_time=12680
type=control_change channel=10 control=11 value=60 time=1 actual_time=12681
type=control_change channel=10 control=11 value=60 time=15 actual_time=12696
type=control_change channel=10 control=11 value=61 time=9 actual_time=12705
type=control_change channel=10 control=11 value=61 time=15 actual_time=12720
type=control_change channel=10 control=11 value=61 time=0 actual_time=12720
type=control_change channel=10 control=11 value=61 time=15 actual_time=12735
type=control_change channel=10 control=11 value=62 time=9 actual_time=12744
type=control_change channel=10 control=11 value=62 time=15 actual_time=12759
type=control_change channel=10 control=11 value=62 time=1 actual_time=12760
type=control_change channel=10 control=11 value=62 time=14 actual_time=12774
type=control_change channel=10 control=11 value=63 time=9 actual_time=12783
type=control_change channel=10 control=11 value=63 time=15 actual_time=12798
type=control_change channel=10 control=11 value=63 time=2 actual_time=12800
type=control_change channel=10 control=11 value=63 time=13 actual_time=12813
type=control_change channel=10 control=11 value=64 time=9 actual_time=12822
type=control_change channel=10 control=11 value=64 time=15 actual_time=12837
type=control_change channel=10 control=11 value=64 time=3 actual_time=12840
type=control_change channel=10 control=11 value=64 time=12 actual_time=12852
type=control_change channel=10 control=11 value=65 time=9 actual_time=12861
type=control_change channel=10 control=11 value=65 time=15 actual_time=12876
type=control_change channel=10 control=11 value=65 time=4 actual_time=12880
type=control_change channel=10 control=11 value=65 time=11 actual_time=12891
type=control_change channel=10 control=11 value=66 time=9 actual_time=12900
type=control_change channel=10 control=11 value=66 time=15 actual_time=12915
type=control_change channel=10 control=11 value=66 time=5 actual_time=12920
type=control_change channel=10 control=11 value=66 time=10 actual_time=12930
type=control_change channel=10 control=11 value=67 time=9 actual_time=12939
type=control_change channel=10 control=11 value=67 time=15 actual_time=12954
type=control_change channel=10 control=11 value=67 time=6 actual_time=12960
type=control_change channel=10 control=11 value=67 time=9 actual_time=12969
type=control_change channel=10 control=11 value=68 time=9 actual_time=12978
type=control_change channel=10 control=11 value=68 time=15 actual_time=12993
type=control_change channel=10 control=11 value=68 time=7 actual_time=13000
type=control_change channel=10 control=11 value=68 time=8 actual_time=13008
type=control_change channel=10 control=11 value=69 time=9 actual_time=13017
type=control_change channel=10 control=11 value=69 time=15 actual_time=13032
type=control_change channel=10 control=11 value=69 time=8 actual_time=13040
type=control_change channel=10 control=11 value=69 time=7 actual_time=13047
type=control_change channel=10 control=11 value=70 time=9 actual_time=13056
type=control_change channel=10 control=11 value=70 time=15 actual_time=13071
type=control_change channel=10 control=11 value=70 time=9 actual_time=13080
type=control_change channel=10 control=11 value=70 time=6 actual_time=13086
type=control_change channel=10 control=11 value=71 time=9 actual_time=13095
type=control_change channel=10 control=11 value=71 time=15 actual_time=13110
type=control_change channel=10 control=11 value=71 time=10 actual_time=13120
type=control_change channel=10 control=11 value=71 time=5 actual_time=13125
type=control_change channel=10 control=11 value=72 time=9 actual_time=13134
type=control_change channel=10 control=11 value=72 time=15 actual_time=13149
type=control_change channel=10 control=11 value=72 time=11 actual_time=13160
type=control_change channel=10 control=11 value=72 time=4 actual_time=13164
type=control_change channel=10 control=11 value=73 time=9 actual_time=13173
type=control_change channel=10 control=11 value=73 time=15 actual_time=13188
type=control_change channel=10 control=11 value=73 time=12 actual_time=13200
type=control_change channel=10 control=11 value=73 time=3 actual_time=13203
type=control_change channel=10 control=11 value=74 time=9 actual_time=13212
type=control_change channel=10 control=11 value=74 time=15 actual_time=13227
type=control_change channel=10 control=11 value=74 time=13 actual_time=13240
type=control_change channel=10 control=11 value=74 time=2 actual_time=13242
type=control_change channel=10 control=11 value=75 time=9 actual_time=13251
type=control_change channel=10 control=11 value=75 time=15 actual_time=13266
type=control_change channel=10 control=11 value=75 time=14 actual_time=13280
type=control_change channel=10 control=11 value=75 time=1 actual_time=13281
type=control_change channel=10 control=11 value=76 time=9 actual_time=13290
type=control_change channel=10 control=11 value=76 time=15 actual_time=13305
type=control_change channel=10 control=11 value=76 time=15 actual_time=13320
type=control_change channel=10 control=11 value=76 time=0 actual_time=13320
type=control_change channel=10 control=11 value=77 time=9 actual_time=13329
type=control_change channel=10 control=11 value=77 time=15 actual_time=13344
type=control_change channel=10 control=11 value=77 time=15 actual_time=13359
type=control_change channel=10 control=11 value=77 time=1 actual_time=13360
type=control_change channel=10 control=11 value=78 time=8 actual_time=13368
type=control_change channel=10 control=11 value=78 time=15 actual_time=13383
type=control_change channel=10 control=11 value=78 time=15 actual_time=13398
type=control_change channel=10 control=11 value=78 time=2 actual_time=13400
type=control_change channel=10 control=11 value=79 time=7 actual_time=13407
type=control_change channel=10 control=11 value=79 time=15 actual_time=13422
type=control_change channel=10 control=11 value=79 time=15 actual_time=13437
type=control_change channel=10 control=11 value=79 time=3 actual_time=13440
type=control_change channel=10 control=11 value=80 time=6 actual_time=13446
type=control_change channel=10 control=11 value=80 time=15 actual_time=13461
type=control_change channel=10 control=11 value=80 time=15 actual_time=13476
type=control_change channel=10 control=11 value=80 time=4 actual_time=13480
type=control_change channel=10 control=11 value=81 time=5 actual_time=13485
type=control_change channel=10 control=11 value=81 time=15 actual_time=13500
type=control_change channel=10 control=11 value=81 time=15 actual_time=13515
type=control_change channel=10 control=11 value=81 time=5 actual_time=13520
type=control_change channel=10 control=11 value=82 time=4 actual_time=13524
type=control_change channel=10 control=11 value=82 time=15 actual_time=13539
type=control_change channel=10 control=11 value=82 time=15 actual_time=13554
type=control_change channel=10 control=11 value=82 time=6 actual_time=13560
type=control_change channel=10 control=11 value=83 time=3 actual_time=13563
type=control_change channel=10 control=11 value=83 time=15 actual_time=13578
type=control_change channel=10 control=11 value=83 time=15 actual_time=13593
type=control_change channel=10 control=11 value=83 time=7 actual_time=13600
type=control_change channel=10 control=11 value=84 time=2 actual_time=13602
type=control_change channel=10 control=11 value=84 time=15 actual_time=13617
type=control_change channel=10 control=11 value=84 time=15 actual_time=13632
type=control_change channel=10 control=11 value=84 time=8 actual_time=13640
type=control_change channel=10 control=11 value=85 time=1 actual_time=13641
type=control_change channel=10 control=11 value=85 time=15 actual_time=13656
type=control_change channel=10 control=11 value=85 time=15 actual_time=13671
type=control_change channel=10 control=11 value=85 time=9 actual_time=13680
type=control_change channel=10 control=11 value=86 time=0 actual_time=13680
type=control_change channel=10 control=11 value=86 time=15 actual_time=13695
type=control_change channel=10 control=11 value=86 time=15 actual_time=13710
type=control_change channel=10 control=11 value=87 time=9 actual_time=13719
type=control_change channel=10 control=11 value=86 time=1 actual_time=13720
type=control_change channel=10 control=11 value=87 time=14 actual_time=13734
type=control_change channel=10 control=11 value=87 time=15 actual_time=13749
type=control_change channel=10 control=11 value=88 time=9 actual_time=13758
type=control_change channel=10 control=11 value=87 time=2 actual_time=13760
type=control_change channel=10 control=11 value=88 time=13 actual_time=13773
type=control_change channel=10 control=11 value=88 time=15 actual_time=13788
type=control_change channel=10 control=11 value=89 time=9 actual_time=13797
type=control_change channel=10 control=11 value=88 time=3 actual_time=13800
type=control_change channel=10 control=11 value=89 time=12 actual_time=13812
type=control_change channel=10 control=11 value=89 time=15 actual_time=13827
type=control_change channel=10 control=11 value=90 time=9 actual_time=13836
type=control_change channel=10 control=11 value=89 time=4 actual_time=13840
type=control_change channel=10 control=11 value=90 time=11 actual_time=13851
type=control_change channel=10 control=11 value=90 time=15 actual_time=13866
type=control_change channel=10 control=11 value=91 time=9 actual_time=13875
type=control_change channel=10 control=11 value=90 time=5 actual_time=13880
type=control_change channel=10 control=11 value=91 time=10 actual_time=13890
type=control_change channel=10 control=11 value=91 time=15 actual_time=13905
type=control_change channel=10 control=11 value=92 time=9 actual_time=13914
type=control_change channel=10 control=11 value=91 time=6 actual_time=13920
type=control_change channel=10 control=11 value=92 time=9 actual_time=13929
type=control_change channel=10 control=11 value=92 time=15 actual_time=13944
type=control_change channel=10 control=11 value=93 time=9 actual_time=13953
type=control_change channel=10 control=11 value=92 time=7 actual_time=13960
type=control_change channel=10 control=11 value=93 time=8 actual_time=13968
type=control_change channel=10 control=11 value=93 time=15 actual_time=13983
type=control_change channel=10 control=11 value=94 time=9 actual_time=13992
type=control_change channel=10 control=11 value=93 time=8 actual_time=14000
type=control_change channel=10 control=11 value=94 time=7 actual_time=14007
type=control_change channel=10 control=11 value=94 time=15 actual_time=14022
type=control_change channel=10 control=11 value=95 time=9 actual_time=14031
type=control_change channel=10 control=11 value=94 time=9 actual_time=14040
type=control_change channel=10 control=11 value=95 time=6 actual_time=14046
type=control_change channel=10 control=11 value=95 time=15 actual_time=14061
type=control_change channel=10 control=11 value=96 time=9 actual_time=14070
type=control_change channel=10 control=11 value=95 time=10 actual_time=14080
type=control_change channel=10 control=11 value=96 time=5 actual_time=14085
type=control_change channel=10 control=11 value=96 time=15 actual_time=14100
type=control_change channel=10 control=11 value=97 time=9 actual_time=14109
type=control_change channel=10 control=11 value=96 time=11 actual_time=14120
type=control_change channel=10 control=11 value=97 time=4 actual_time=14124
type=control_change channel=10 control=11 value=97 time=15 actual_time=14139
type=control_change channel=10 control=11 value=98 time=9 actual_time=14148
type=control_change channel=10 control=11 value=97 time=12 actual_time=14160
type=control_change channel=10 control=11 value=98 time=3 actual_time=14163
type=control_change channel=10 control=11 value=98 time=15 actual_time=14178
type=control_change channel=10 control=11 value=99 time=9 actual_time=14187
type=control_change channel=10 control=11 value=98 time=13 actual_time=14200
type=control_change channel=10 control=11 value=99 time=2 actual_time=14202
type=control_change channel=10 control=11 value=99 time=15 actual_time=14217
type=control_change channel=10 control=11 value=100 time=9 actual_time=14226
type=control_change channel=10 control=11 value=99 time=14 actual_time=14240
type=control_change channel=10 control=11 value=100 time=1 actual_time=14241
type=control_change channel=10 control=11 value=100 time=15 actual_time=14256
type=control_change channel=10 control=11 value=101 time=9 actual_time=14265
type=control_change channel=10 control=11 value=100 time=15 actual_time=14280
type=control_change channel=10 control=11 value=101 time=0 actual_time=14280
type=control_change channel=10 control=11 value=101 time=15 actual_time=14295
type=control_change channel=10 control=11 value=102 time=9 actual_time=14304
type=control_change channel=10 control=11 value=102 time=15 actual_time=14319
type=control_change channel=10 control=11 value=101 time=1 actual_time=14320
type=control_change channel=10 control=11 value=102 time=14 actual_time=14334
type=control_change channel=10 control=11 value=103 time=9 actual_time=14343
type=control_change channel=10 control=11 value=103 time=15 actual_time=14358
type=control_change channel=10 control=11 value=102 time=2 actual_time=14360
type=control_change channel=10 control=11 value=103 time=13 actual_time=14373
type=control_change channel=10 control=11 value=104 time=9 actual_time=14382
type=control_change channel=10 control=11 value=104 time=15 actual_time=14397
type=control_change channel=10 control=11 value=103 time=3 actual_time=14400
type=control_change channel=10 control=11 value=104 time=12 actual_time=14412
type=control_change channel=10 control=11 value=105 time=9 actual_time=14421
type=control_change channel=10 control=11 value=105 time=15 actual_time=14436
type=control_change channel=10 control=11 value=104 time=4 actual_time=14440
type=control_change channel=10 control=11 value=105 time=11 actual_time=14451
type=control_change channel=10 control=11 value=106 time=9 actual_time=14460
type=control_change channel=10 control=11 value=106 time=15 actual_time=14475
type=control_change channel=10 control=11 value=105 time=5 actual_time=14480
type=control_change channel=10 control=11 value=106 time=10 actual_time=14490
type=control_change channel=10 control=11 value=107 time=9 actual_time=14499
type=control_change channel=10 control=11 value=107 time=15 actual_time=14514
type=control_change channel=10 control=11 value=106 time=6 actual_time=14520
type=control_change channel=10 control=11 value=107 time=9 actual_time=14529
type=control_change channel=10 control=11 value=108 time=9 actual_time=14538
type=control_change channel=10 control=11 value=108 time=15 actual_time=14553
type=control_change channel=10 control=11 value=107 time=7 actual_time=14560
type=control_change channel=10 control=11 value=108 time=8 actual_time=14568
type=control_change channel=10 control=11 value=109 time=9 actual_time=14577
type=control_change channel=10 control=11 value=109 time=15 actual_time=14592
type=control_change channel=10 control=11 value=108 time=8 actual_time=14600
type=control_change channel=10 control=11 value=109 time=7 actual_time=14607
type=control_change channel=10 control=11 value=110 time=9 actual_time=14616
type=control_change channel=10 control=11 value=110 time=15 actual_time=14631
type=control_change channel=10 control=11 value=109 time=9 actual_time=14640
type=control_change channel=10 control=11 value=110 time=6 actual_time=14646
type=control_change channel=10 control=11 value=111 time=9 actual_time=14655
type=control_change channel=10 control=11 value=111 time=15 actual_time=14670
type=control_change channel=10 control=11 value=110 time=10 actual_time=14680
type=control_change channel=10 control=11 value=111 time=5 actual_time=14685
type=control_change channel=10 control=11 value=112 time=9 actual_time=14694
type=control_change channel=10 control=11 value=112 time=15 actual_time=14709
type=control_change channel=10 control=11 value=111 time=11 actual_time=14720
type=control_change channel=10 control=11 value=112 time=4 actual_time=14724
type=control_change channel=10 control=11 value=113 time=9 actual_time=14733
type=control_change channel=10 control=11 value=113 time=15 actual_time=14748
type=control_change channel=10 control=11 value=112 time=12 actual_time=14760
type=control_change channel=10 control=11 value=113 time=3 actual_time=14763
type=control_change channel=10 control=11 value=114 time=9 actual_time=14772
type=control_change channel=10 control=11 value=114 time=15 actual_time=14787
type=control_change channel=10 control=11 value=113 time=13 actual_time=14800
type=control_change channel=10 control=11 value=114 time=2 actual_time=14802
type=control_change channel=10 control=11 value=115 time=9 actual_time=14811
type=control_change channel=10 control=11 value=115 time=15 actual_time=14826
type=control_change channel=10 control=11 value=114 time=14 actual_time=14840
type=control_change channel=10 control=11 value=115 time=1 actual_time=14841
type=control_change channel=10 control=11 value=116 time=9 actual_time=14850
type=control_change channel=10 control=11 value=116 time=15 actual_time=14865
type=control_change channel=10 control=11 value=115 time=15 actual_time=14880
type=control_change channel=10 control=11 value=116 time=0 actual_time=14880
type=control_change channel=10 control=11 value=117 time=9 actual_time=14889
type=control_change channel=10 control=11 value=117 time=15 actual_time=14904
type=control_change channel=10 control=11 value=117 time=15 actual_time=14919
type=control_change channel=10 control=11 value=116 time=1 actual_time=14920
type=control_change channel=10 control=11 value=118 time=8 actual_time=14928
type=control_change channel=10 control=11 value=118 time=15 actual_time=14943
type=control_change channel=10 control=11 value=118 time=15 actual_time=14958
type=control_change channel=10 control=11 value=117 time=2 actual_time=14960
type=control_change channel=10 control=11 value=119 time=7 actual_time=14967
type=control_change channel=10 control=11 value=119 time=15 actual_time=14982
type=control_change channel=10 control=11 value=119 time=15 actual_time=14997
type=control_change channel=10 control=11 value=118 time=3 actual_time=15000
type=control_change channel=10 control=11 value=120 time=6 actual_time=15006
type=control_change channel=10 control=11 value=120 time=15 actual_time=15021
type=control_change channel=10 control=11 value=120 time=15 actual_time=15036
type=control_change channel=10 control=11 value=119 time=4 actual_time=15040
type=control_change channel=10 control=11 value=121 time=5 actual_time=15045
type=control_change channel=10 control=11 value=121 time=15 actual_time=15060
type=control_change channel=10 control=11 value=121 time=15 actual_time=15075
type=control_change channel=10 control=11 value=120 time=5 actual_time=15080
type=control_change channel=10 control=11 value=122 time=4 actual_time=15084
type=control_change channel=10 control=11 value=122 time=15 actual_time=15099
type=control_change channel=10 control=11 value=122 time=15 actual_time=15114
type=control_change channel=10 control=11 value=121 time=6 actual_time=15120
type=control_change channel=10 control=11 value=123 time=3 actual_time=15123
type=control_change channel=10 control=11 value=123 time=15 actual_time=15138
type=control_change channel=10 control=11 value=123 time=15 actual_time=15153
type=control_change channel=10 control=11 value=122 time=7 actual_time=15160
type=control_change channel=10 control=11 value=124 time=2 actual_time=15162
type=control_change channel=10 control=11 value=124 time=15 actual_time=15177
type=control_change channel=10 control=11 value=124 time=15 actual_time=15192
type=control_change channel=10 control=11 value=123 time=8 actual_time=15200
type=control_change channel=10 control=11 value=125 time=1 actual_time=15201
type=control_change channel=10 control=11 value=125 time=15 actual_time=15216
type=control_change channel=10 control=11 value=125 time=15 actual_time=15231
type=control_change channel=10 control=11 value=124 time=9 actual_time=15240
type=control_change channel=10 control=11 value=126 time=0 actual_time=15240
type=control_change channel=10 control=11 value=126 time=15 actual_time=15255
type=control_change channel=10 control=11 value=126 time=15 actual_time=15270
type=control_change channel=10 control=11 value=125 time=10 actual_time=15280
type=control_change channel=10 control=11 value=126 time=40 actual_time=15320
type=control_change channel=10 control=11 value=127 time=40 actual_time=15360
type: note_off, time: 0, actual_time: 15360
type=control_change channel=10 control=11 value=127 time=0 actual_time=15360
type: note_off, time: 0, actual_time: 15360
type=control_change channel=10 control=11 value=127 time=0 actual_time=15360
type: note_off, time: 0, actual_time: 15360
type=control_change channel=10 control=11 value=127 time=0 actual_time=15360
type: note_off, time: 0, actual_time: 15360
MetaMessage type: end_of_track, time: 0, actual_time: 15360
MetaMessage type: track_name, time: 0, actual_time: 0
type: program_change, time: 0, actual_time: 0
type=control_change channel=0 control=7 value=124 time=0 actual_time=0
type=note_on channel=0 note=59 velocity=80 time=7800 actual_time=7800
type=note_on channel=0 note=59 velocity=0 time=96 actual_time=7896
type=note_on channel=0 note=59 velocity=80 time=24 actual_time=7920
type=note_on channel=0 note=59 velocity=0 time=96 actual_time=8016
type=note_on channel=0 note=59 velocity=80 time=24 actual_time=8040
type=note_on channel=0 note=59 velocity=0 time=48 actual_time=8088
type=note_on channel=0 note=62 velocity=80 time=12 actual_time=8100
type=note_on channel=0 note=62 velocity=0 time=144 actual_time=8244
type=note_on channel=0 note=59 velocity=80 time=36 actual_time=8280
type=note_on channel=0 note=59 velocity=0 time=96 actual_time=8376
type=note_on channel=0 note=57 velocity=80 time=24 actual_time=8400
type=note_on channel=0 note=57 velocity=0 time=96 actual_time=8496
type=note_on channel=0 note=57 velocity=80 time=24 actual_time=8520
type=note_on channel=0 note=57 velocity=0 time=48 actual_time=8568
type=note_on channel=0 note=57 velocity=80 time=12 actual_time=8580
type=note_on channel=0 note=57 velocity=0 time=156 actual_time=8736
type=note_on channel=0 note=57 velocity=80 time=24 actual_time=8760
type=note_on channel=0 note=57 velocity=0 time=96 actual_time=8856
type=note_on channel=0 note=57 velocity=80 time=24 actual_time=8880
type=note_on channel=0 note=57 velocity=0 time=96 actual_time=8976
type=note_on channel=0 note=57 velocity=80 time=24 actual_time=9000
type=note_on channel=0 note=57 velocity=0 time=96 actual_time=9096
type=note_on channel=0 note=57 velocity=80 time=24 actual_time=9120
type=note_on channel=0 note=57 velocity=0 time=48 actual_time=9168
type=note_on channel=0 note=57 velocity=80 time=12 actual_time=9180
type=note_on channel=0 note=57 velocity=0 time=96 actual_time=9276
type=note_on channel=0 note=59 velocity=80 time=24 actual_time=9300
type=note_on channel=0 note=59 velocity=0 time=192 actual_time=9492
type=note_on channel=0 note=59 velocity=80 time=228 actual_time=9720
type=note_on channel=0 note=59 velocity=0 time=96 actual_time=9816
type=note_on channel=0 note=59 velocity=80 time=24 actual_time=9840
type=note_on channel=0 note=59 velocity=0 time=96 actual_time=9936
type=note_on channel=0 note=59 velocity=80 time=24 actual_time=9960
type=note_on channel=0 note=59 velocity=0 time=96 actual_time=10056
type=note_on channel=0 note=62 velocity=80 time=24 actual_time=10080
type=note_on channel=0 note=62 velocity=0 time=48 actual_time=10128
type=note_on channel=0 note=62 velocity=80 time=12 actual_time=10140
type=note_on channel=0 note=62 velocity=0 time=96 actual_time=10236
type=note_on channel=0 note=62 velocity=80 time=24 actual_time=10260
type=note_on channel=0 note=62 velocity=0 time=96 actual_time=10356
type=note_on channel=0 note=62 velocity=80 time=24 actual_time=10380
type=note_on channel=0 note=62 velocity=0 time=96 actual_time=10476
type=note_on channel=0 note=62 velocity=80 time=24 actual_time=10500
type=note_on channel=0 note=62 velocity=0 time=108 actual_time=10608
type=note_on channel=0 note=62 velocity=80 time=12 actual_time=10620
type=note_on channel=0 note=62 velocity=0 time=144 actual_time=10764
type=note_on channel=0 note=62 velocity=80 time=36 actual_time=10800
type=note_on channel=0 note=62 velocity=0 time=96 actual_time=10896
type=note_on channel=0 note=62 velocity=80 time=24 actual_time=10920
type=note_on channel=0 note=62 velocity=0 time=96 actual_time=11016
type=note_on channel=0 note=61 velocity=80 time=24 actual_time=11040
type=note_on channel=0 note=61 velocity=0 time=96 actual_time=11136
type=note_on channel=0 note=61 velocity=80 time=24 actual_time=11160
type=note_on channel=0 note=61 velocity=0 time=48 actual_time=11208
type=note_on channel=0 note=62 velocity=80 time=12 actual_time=11220
type=note_on channel=0 note=62 velocity=0 time=96 actual_time=11316
type=note_on channel=0 note=59 velocity=80 time=24 actual_time=11340
type=note_on channel=0 note=59 velocity=0 time=96 actual_time=11436
type=note_on channel=0 note=59 velocity=80 time=164 actual_time=11600
type=note_on channel=0 note=59 velocity=0 time=32 actual_time=11632
type=note_on channel=0 note=59 velocity=80 time=8 actual_time=11640
type=note_on channel=0 note=59 velocity=0 time=96 actual_time=11736
type=note_on channel=0 note=59 velocity=80 time=24 actual_time=11760
type=note_on channel=0 note=59 velocity=0 time=96 actual_time=11856
type=note_on channel=0 note=59 velocity=80 time=24 actual_time=11880
type=note_on channel=0 note=59 velocity=0 time=48 actual_time=11928
type=note_on channel=0 note=62 velocity=80 time=12 actual_time=11940
type=note_on channel=0 note=62 velocity=0 time=144 actual_time=12084
type=note_on channel=0 note=59 velocity=80 time=36 actual_time=12120
type=note_on channel=0 note=59 velocity=0 time=96 actual_time=12216
type=note_on channel=0 note=57 velocity=80 time=24 actual_time=12240
type=note_on channel=0 note=57 velocity=0 time=96 actual_time=12336
type=note_on channel=0 note=57 velocity=80 time=24 actual_time=12360
type=note_on channel=0 note=57 velocity=0 time=48 actual_time=12408
type=note_on channel=0 note=57 velocity=80 time=12 actual_time=12420
type=note_on channel=0 note=57 velocity=0 time=156 actual_time=12576
type=note_on channel=0 note=57 velocity=80 time=24 actual_time=12600
type=note_on channel=0 note=57 velocity=0 time=96 actual_time=12696
type=note_on channel=0 note=57 velocity=80 time=24 actual_time=12720
type=note_on channel=0 note=57 velocity=0 time=48 actual_time=12768
type=note_on channel=0 note=57 velocity=80 time=12 actual_time=12780
type=note_on channel=0 note=57 velocity=0 time=96 actual_time=12876
type=note_on channel=0 note=59 velocity=80 time=24 actual_time=12900
type=note_on channel=0 note=59 velocity=0 time=384 actual_time=13284
type=note_on channel=0 note=59 velocity=80 time=276 actual_time=13560
type=note_on channel=0 note=59 velocity=0 time=96 actual_time=13656
type=note_on channel=0 note=59 velocity=80 time=24 actual_time=13680
type=note_on channel=0 note=59 velocity=0 time=96 actual_time=13776
type=note_on channel=0 note=59 velocity=80 time=24 actual_time=13800
type=note_on channel=0 note=59 velocity=0 time=96 actual_time=13896
type=note_on channel=0 note=59 velocity=80 time=24 actual_time=13920
type=note_on channel=0 note=59 velocity=0 time=48 actual_time=13968
type=note_on channel=0 note=59 velocity=80 time=12 actual_time=13980
type=note_on channel=0 note=59 velocity=0 time=96 actual_time=14076
type=note_on channel=0 note=59 velocity=80 time=24 actual_time=14100
type=note_on channel=0 note=59 velocity=0 time=96 actual_time=14196
type=note_on channel=0 note=59 velocity=80 time=24 actual_time=14220
type=note_on channel=0 note=59 velocity=0 time=96 actual_time=14316
type=note_on channel=0 note=59 velocity=80 time=24 actual_time=14340
type=note_on channel=0 note=57 velocity=80 time=60 actual_time=14400
type=note_on channel=0 note=59 velocity=0 time=36 actual_time=14436
type=note_on channel=0 note=57 velocity=0 time=348 actual_time=14784
type=note_on channel=0 note=57 velocity=80 time=456 actual_time=15240
type=note_on channel=0 note=57 velocity=0 time=312 actual_time=15552
type=note_on channel=0 note=59 velocity=80 time=3768 actual_time=19320
type=note_on channel=0 note=59 velocity=0 time=96 actual_time=19416
type=note_on channel=0 note=59 velocity=80 time=24 actual_time=19440
type=note_on channel=0 note=59 velocity=0 time=96 actual_time=19536
type=note_on channel=0 note=59 velocity=80 time=24 actual_time=19560
type=note_on channel=0 note=59 velocity=0 time=48 actual_time=19608
type=note_on channel=0 note=59 velocity=80 time=12 actual_time=19620
type=note_on channel=0 note=59 velocity=0 time=144 actual_time=19764
type=note_on channel=0 note=57 velocity=80 time=36 actual_time=19800
type=note_on channel=0 note=57 velocity=0 time=96 actual_time=19896
type=note_on channel=0 note=57 velocity=80 time=24 actual_time=19920
type=note_on channel=0 note=57 velocity=0 time=96 actual_time=20016
type=note_on channel=0 note=54 velocity=80 time=24 actual_time=20040
type=note_on channel=0 note=54 velocity=0 time=48 actual_time=20088
type=note_on channel=0 note=57 velocity=80 time=12 actual_time=20100
type=note_on channel=0 note=57 velocity=0 time=156 actual_time=20256
type=note_on channel=0 note=57 velocity=80 time=24 actual_time=20280
type=note_on channel=0 note=57 velocity=0 time=96 actual_time=20376
type=note_on channel=0 note=57 velocity=80 time=24 actual_time=20400
type=note_on channel=0 note=57 velocity=0 time=48 actual_time=20448
type=note_on channel=0 note=57 velocity=80 time=12 actual_time=20460
type=note_on channel=0 note=57 velocity=0 time=96 actual_time=20556
type=note_on channel=0 note=57 velocity=80 time=24 actual_time=20580
type=note_on channel=0 note=57 velocity=0 time=384 actual_time=20964
type=note_on channel=0 note=54 velocity=80 time=396 actual_time=21360
type=note_on channel=0 note=54 velocity=0 time=96 actual_time=21456
type=note_on channel=0 note=54 velocity=80 time=24 actual_time=21480
type=note_on channel=0 note=54 velocity=0 time=48 actual_time=21528
type=note_on channel=0 note=57 velocity=80 time=12 actual_time=21540
type=note_on channel=0 note=57 velocity=0 time=96 actual_time=21636
type=note_on channel=0 note=57 velocity=80 time=24 actual_time=21660
type=note_on channel=0 note=57 velocity=0 time=96 actual_time=21756
type=note_on channel=0 note=57 velocity=80 time=24 actual_time=21780
type=note_on channel=0 note=57 velocity=0 time=96 actual_time=21876
type=note_on channel=0 note=57 velocity=80 time=24 actual_time=21900
type=note_on channel=0 note=57 velocity=0 time=48 actual_time=21948
type=note_on channel=0 note=57 velocity=80 time=12 actual_time=21960
type=note_on channel=0 note=57 velocity=0 time=48 actual_time=22008
type=note_on channel=0 note=57 velocity=80 time=12 actual_time=22020
type=note_on channel=0 note=57 velocity=0 time=108 actual_time=22128
type=note_on channel=0 note=59 velocity=80 time=12 actual_time=22140
type=note_on channel=0 note=59 velocity=0 time=96 actual_time=22236
type=note_on channel=0 note=57 velocity=80 time=24 actual_time=22260
type=note_on channel=0 note=57 velocity=0 time=48 actual_time=22308
type=note_on channel=0 note=57 velocity=80 time=12 actual_time=22320
type=note_on channel=0 note=57 velocity=0 time=96 actual_time=22416
type=note_on channel=0 note=57 velocity=80 time=24 actual_time=22440
type=note_on channel=0 note=57 velocity=0 time=48 actual_time=22488
type=note_on channel=0 note=52 velocity=80 time=12 actual_time=22500
type=note_on channel=0 note=52 velocity=0 time=96 actual_time=22596
type=note_on channel=0 note=52 velocity=80 time=24 actual_time=22620
type=note_on channel=0 note=52 velocity=0 time=96 actual_time=22716
type=note_on channel=0 note=52 velocity=80 time=24 actual_time=22740
type=note_on channel=0 note=52 velocity=0 time=96 actual_time=22836
type=note_on channel=0 note=50 velocity=80 time=24 actual_time=22860
type=note_on channel=0 note=50 velocity=0 time=96 actual_time=22956
type=note_on channel=0 note=57 velocity=80 time=204 actual_time=23160
type=note_on channel=0 note=57 velocity=0 time=96 actual_time=23256
type=note_on channel=0 note=57 velocity=80 time=24 actual_time=23280
type=note_on channel=0 note=57 velocity=0 time=48 actual_time=23328
type=note_on channel=0 note=57 velocity=80 time=12 actual_time=23340
type=note_on channel=0 note=57 velocity=0 time=96 actual_time=23436
type=note_on channel=0 note=59 velocity=80 time=24 actual_time=23460
type=note_on channel=0 note=59 velocity=0 time=96 actual_time=23556
type=note_on channel=0 note=57 velocity=80 time=24 actual_time=23580
type=note_on channel=0 note=57 velocity=0 time=192 actual_time=23772
type=note_on channel=0 note=57 velocity=80 time=48 actual_time=23820
type=note_on channel=0 note=57 velocity=0 time=144 actual_time=23964
type=note_on channel=0 note=57 velocity=80 time=36 actual_time=24000
type=note_on channel=0 note=57 velocity=0 time=48 actual_time=24048
type=note_on channel=0 note=57 velocity=80 time=12 actual_time=24060
type=note_on channel=0 note=57 velocity=0 time=96 actual_time=24156
type=note_on channel=0 note=57 velocity=80 time=24 actual_time=24180
type=note_on channel=0 note=57 velocity=0 time=96 actual_time=24276
type=note_on channel=0 note=57 velocity=80 time=24 actual_time=24300
type=note_on channel=0 note=57 velocity=0 time=96 actual_time=24396
type=note_on channel=0 note=59 velocity=80 time=24 actual_time=24420
type=note_on channel=0 note=59 velocity=0 time=288 actual_time=24708
type=note_on channel=0 note=59 velocity=80 time=192 actual_time=24900
type=note_on channel=0 note=59 velocity=0 time=48 actual_time=24948
type=note_on channel=0 note=59 velocity=80 time=12 actual_time=24960
type=note_on channel=0 note=59 velocity=0 time=96 actual_time=25056
type=note_on channel=0 note=59 velocity=80 time=24 actual_time=25080
type=note_on channel=0 note=59 velocity=0 time=96 actual_time=25176
type=note_on channel=0 note=59 velocity=80 time=24 actual_time=25200
type=note_on channel=0 note=59 velocity=0 time=96 actual_time=25296
type=note_on channel=0 note=62 velocity=80 time=24 actual_time=25320
type=note_on channel=0 note=62 velocity=0 time=192 actual_time=25512
type=note_on channel=0 note=62 velocity=80 time=48 actual_time=25560
type=note_on channel=0 note=62 velocity=0 time=192 actual_time=25752
type=note_on channel=0 note=62 velocity=80 time=48 actual_time=25800
type=note_on channel=0 note=62 velocity=0 time=216 actual_time=26016
type=note_on channel=0 note=61 velocity=80 time=24 actual_time=26040
type=note_on channel=0 note=61 velocity=0 time=96 actual_time=26136
type=note_on channel=0 note=61 velocity=80 time=24 actual_time=26160
type=note_on channel=0 note=61 velocity=0 time=96 actual_time=26256
type=note_on channel=0 note=62 velocity=80 time=24 actual_time=26280
type=note_on channel=0 note=62 velocity=0 time=96 actual_time=26376
type=note_on channel=0 note=59 velocity=80 time=24 actual_time=26400
type=note_on channel=0 note=59 velocity=0 time=192 actual_time=26592
type=note_on channel=0 note=59 velocity=80 time=408 actual_time=27000
type=note_on channel=0 note=59 velocity=0 time=96 actual_time=27096
type=note_on channel=0 note=59 velocity=80 time=24 actual_time=27120
type=note_on channel=0 note=59 velocity=0 time=96 actual_time=27216
type=note_on channel=0 note=59 velocity=80 time=24 actual_time=27240
type=note_on channel=0 note=59 velocity=0 time=96 actual_time=27336
type=note_on channel=0 note=62 velocity=80 time=24 actual_time=27360
type=note_on channel=0 note=62 velocity=0 time=96 actual_time=27456
type=note_on channel=0 note=59 velocity=80 time=24 actual_time=27480
type=note_on channel=0 note=59 velocity=0 time=96 actual_time=27576
type=note_on channel=0 note=59 velocity=80 time=24 actual_time=27600
type=note_on channel=0 note=59 velocity=0 time=96 actual_time=27696
type=note_on channel=0 note=59 velocity=80 time=24 actual_time=27720
type=note_on channel=0 note=59 velocity=0 time=96 actual_time=27816
type=note_on channel=0 note=62 velocity=80 time=24 actual_time=27840
type=note_on channel=0 note=62 velocity=0 time=96 actual_time=27936
type=note_on channel=0 note=62 velocity=80 time=24 actual_time=27960
type=note_on channel=0 note=62 velocity=0 time=96 actual_time=28056
type=note_on channel=0 note=62 velocity=80 time=24 actual_time=28080
type=note_on channel=0 note=62 velocity=0 time=96 actual_time=28176
type=note_on channel=0 note=62 velocity=80 time=24 actual_time=28200
type=note_on channel=0 note=62 velocity=0 time=96 actual_time=28296
type=note_on channel=0 note=61 velocity=80 time=24 actual_time=28320
type=note_on channel=0 note=61 velocity=0 time=96 actual_time=28416
type=note_on channel=0 note=61 velocity=80 time=24 actual_time=28440
type=note_on channel=0 note=61 velocity=0 time=48 actual_time=28488
type=note_on channel=0 note=62 velocity=80 time=12 actual_time=28500
type=note_on channel=0 note=62 velocity=0 time=192 actual_time=28692
type=note_on channel=0 note=59 velocity=80 time=228 actual_time=28920
type=note_on channel=0 note=59 velocity=0 time=96 actual_time=29016
type=note_on channel=0 note=59 velocity=80 time=24 actual_time=29040
type=note_on channel=0 note=59 velocity=0 time=96 actual_time=29136
type=note_on channel=0 note=59 velocity=80 time=24 actual_time=29160
type=note_on channel=0 note=59 velocity=0 time=48 actual_time=29208
type=note_on channel=0 note=62 velocity=80 time=12 actual_time=29220
type=note_on channel=0 note=62 velocity=0 time=168 actual_time=29388
type=note_on channel=0 note=59 velocity=80 time=12 actual_time=29400
type=note_on channel=0 note=59 velocity=0 time=96 actual_time=29496
type=note_on channel=0 note=59 velocity=80 time=24 actual_time=29520
type=note_on channel=0 note=59 velocity=0 time=96 actual_time=29616
type=note_on channel=0 note=59 velocity=80 time=24 actual_time=29640
type=note_on channel=0 note=59 velocity=0 time=96 actual_time=29736
type=note_on channel=0 note=62 velocity=80 time=24 actual_time=29760
type=note_on channel=0 note=62 velocity=0 time=96 actual_time=29856
type=note_on channel=0 note=62 velocity=80 time=24 actual_time=29880
type=note_on channel=0 note=62 velocity=0 time=96 actual_time=29976
type=note_on channel=0 note=62 velocity=80 time=24 actual_time=30000
type=note_on channel=0 note=62 velocity=0 time=96 actual_time=30096
type=note_on channel=0 note=62 velocity=80 time=24 actual_time=30120
type=note_on channel=0 note=62 velocity=0 time=96 actual_time=30216
type=note_on channel=0 note=61 velocity=80 time=24 actual_time=30240
type=note_on channel=0 note=61 velocity=0 time=96 actual_time=30336
type=note_on channel=0 note=61 velocity=80 time=24 actual_time=30360
type=note_on channel=0 note=61 velocity=0 time=96 actual_time=30456
type=note_on channel=0 note=61 velocity=80 time=24 actual_time=30480
type=note_on channel=0 note=61 velocity=0 time=96 actual_time=30576
type=note_on channel=0 note=62 velocity=80 time=24 actual_time=30600
type=note_on channel=0 note=62 velocity=0 time=96 actual_time=30696
type=note_on channel=0 note=59 velocity=80 time=144 actual_time=30840
type=note_on channel=0 note=59 velocity=0 time=96 actual_time=30936
type=note_on channel=0 note=59 velocity=80 time=24 actual_time=30960
type=note_on channel=0 note=59 velocity=0 time=96 actual_time=31056
type=note_on channel=0 note=59 velocity=80 time=24 actual_time=31080
type=note_on channel=0 note=59 velocity=0 time=96 actual_time=31176
type=note_on channel=0 note=62 velocity=80 time=24 actual_time=31200
type=note_on channel=0 note=62 velocity=0 time=96 actual_time=31296
type=note_on channel=0 note=59 velocity=80 time=24 actual_time=31320
type=note_on channel=0 note=59 velocity=0 time=96 actual_time=31416
type=note_on channel=0 note=57 velocity=80 time=24 actual_time=31440
type=note_on channel=0 note=57 velocity=0 time=96 actual_time=31536
type=note_on channel=0 note=57 velocity=80 time=24 actual_time=31560
type=note_on channel=0 note=57 velocity=0 time=96 actual_time=31656
type=note_on channel=0 note=62 velocity=80 time=24 actual_time=31680
type=note_on channel=0 note=62 velocity=0 time=96 actual_time=31776
type=note_on channel=0 note=62 velocity=80 time=24 actual_time=31800
type=note_on channel=0 note=62 velocity=0 time=96 actual_time=31896
type=note_on channel=0 note=62 velocity=80 time=24 actual_time=31920
type=note_on channel=0 note=62 velocity=0 time=96 actual_time=32016
type=note_on channel=0 note=61 velocity=80 time=24 actual_time=32040
type=note_on channel=0 note=61 velocity=0 time=192 actual_time=32232
type=note_on channel=0 note=61 velocity=80 time=48 actual_time=32280
type=note_on channel=0 note=61 velocity=0 time=192 actual_time=32472
type=note_on channel=0 note=61 velocity=80 time=48 actual_time=32520
type=note_on channel=0 note=61 velocity=0 time=96 actual_time=32616
type=note_on channel=0 note=62 velocity=80 time=24 actual_time=32640
type=note_on channel=0 note=62 velocity=0 time=96 actual_time=32736
type=note_on channel=0 note=62 velocity=80 time=144 actual_time=32880
type=note_on channel=0 note=62 velocity=0 time=96 actual_time=32976
type=note_on channel=0 note=59 velocity=80 time=24 actual_time=33000
type=note_on channel=0 note=59 velocity=0 time=48 actual_time=33048
type=note_on channel=0 note=57 velocity=80 time=12 actual_time=33060
type=note_on channel=0 note=57 velocity=0 time=192 actual_time=33252
type=note_on channel=0 note=59 velocity=80 time=5268 actual_time=38520
type=note_on channel=0 note=59 velocity=0 time=96 actual_time=38616
type=note_on channel=0 note=59 velocity=80 time=24 actual_time=38640
type=note_on channel=0 note=59 velocity=0 time=96 actual_time=38736
type=note_on channel=0 note=59 velocity=80 time=24 actual_time=38760
type=note_on channel=0 note=59 velocity=0 time=96 actual_time=38856
type=note_on channel=0 note=59 velocity=80 time=24 actual_time=38880
type=note_on channel=0 note=59 velocity=0 time=96 actual_time=38976
type=note_on channel=0 note=57 velocity=80 time=24 actual_time=39000
type=note_on channel=0 note=57 velocity=0 time=96 actual_time=39096
type=note_on channel=0 note=57 velocity=80 time=24 actual_time=39120
type=note_on channel=0 note=57 velocity=0 time=96 actual_time=39216
type=note_on channel=0 note=57 velocity=80 time=24 actual_time=39240
type=note_on channel=0 note=57 velocity=0 time=96 actual_time=39336
type=note_on channel=0 note=57 velocity=80 time=24 actual_time=39360
type=note_on channel=0 note=57 velocity=0 time=96 actual_time=39456
type=note_on channel=0 note=57 velocity=80 time=24 actual_time=39480
type=note_on channel=0 note=57 velocity=0 time=96 actual_time=39576
type=note_on channel=0 note=57 velocity=80 time=24 actual_time=39600
type=note_on channel=0 note=57 velocity=0 time=96 actual_time=39696
type=note_on channel=0 note=57 velocity=80 time=24 actual_time=39720
type=note_on channel=0 note=57 velocity=0 time=96 actual_time=39816
type=note_on channel=0 note=57 velocity=80 time=24 actual_time=39840
type=note_on channel=0 note=57 velocity=0 time=48 actual_time=39888
type=note_on channel=0 note=57 velocity=80 time=12 actual_time=39900
type=note_on channel=0 note=57 velocity=0 time=96 actual_time=39996
type=note_on channel=0 note=57 velocity=80 time=24 actual_time=40020
type=note_on channel=0 note=57 velocity=0 time=96 actual_time=40116
type=note_on channel=0 note=57 velocity=80 time=24 actual_time=40140
type=note_on channel=0 note=57 velocity=0 time=96 actual_time=40236
type=note_on channel=0 note=54 velocity=80 time=24 actual_time=40260
type=note_on channel=0 note=54 velocity=0 time=156 actual_time=40416
type=note_on channel=0 note=54 velocity=80 time=24 actual_time=40440
type=note_on channel=0 note=54 velocity=0 time=96 actual_time=40536
type=note_on channel=0 note=54 velocity=80 time=24 actual_time=40560
type=note_on channel=0 note=54 velocity=0 time=96 actual_time=40656
type=note_on channel=0 note=54 velocity=80 time=24 actual_time=40680
type=note_on channel=0 note=54 velocity=0 time=96 actual_time=40776
type=note_on channel=0 note=57 velocity=80 time=24 actual_time=40800
type=note_on channel=0 note=57 velocity=0 time=48 actual_time=40848
type=note_on channel=0 note=57 velocity=80 time=12 actual_time=40860
type=note_on channel=0 note=57 velocity=0 time=144 actual_time=41004
type=note_on channel=0 note=57 velocity=80 time=36 actual_time=41040
type=note_on channel=0 note=57 velocity=0 time=96 actual_time=41136
type=note_on channel=0 note=57 velocity=80 time=24 actual_time=41160
type=note_on channel=0 note=57 velocity=0 time=48 actual_time=41208
type=note_on channel=0 note=59 velocity=80 time=12 actual_time=41220
type=note_on channel=0 note=59 velocity=0 time=156 actual_time=41376
type=note_on channel=0 note=57 velocity=80 time=24 actual_time=41400
type=note_on channel=0 note=57 velocity=0 time=96 actual_time=41496
type=note_on channel=0 note=57 velocity=80 time=24 actual_time=41520
type=note_on channel=0 note=57 velocity=0 time=48 actual_time=41568
type=note_on channel=0 note=57 velocity=80 time=12 actual_time=41580
type=note_on channel=0 note=57 velocity=0 time=96 actual_time=41676
type=note_on channel=0 note=57 velocity=80 time=24 actual_time=41700
type=note_on channel=0 note=57 velocity=0 time=96 actual_time=41796
type=note_on channel=0 note=57 velocity=80 time=24 actual_time=41820
type=note_on channel=0 note=57 velocity=0 time=96 actual_time=41916
type=note_on channel=0 note=59 velocity=80 time=24 actual_time=41940
type=note_on channel=0 note=59 velocity=0 time=192 actual_time=42132
type=note_on channel=0 note=59 velocity=80 time=228 actual_time=42360
type=note_on channel=0 note=59 velocity=0 time=96 actual_time=42456
type=note_on channel=0 note=59 velocity=80 time=24 actual_time=42480
type=note_on channel=0 note=59 velocity=0 time=96 actual_time=42576
type=note_on channel=0 note=59 velocity=80 time=24 actual_time=42600
type=note_on channel=0 note=59 velocity=0 time=48 actual_time=42648
type=note_on channel=0 note=59 velocity=80 time=12 actual_time=42660
type=note_on channel=0 note=59 velocity=0 time=168 actual_time=42828
type=note_on channel=0 note=57 velocity=80 time=12 actual_time=42840
type=note_on channel=0 note=57 velocity=0 time=96 actual_time=42936
type=note_on channel=0 note=57 velocity=80 time=24 actual_time=42960
type=note_on channel=0 note=57 velocity=0 time=96 actual_time=43056
type=note_on channel=0 note=54 velocity=80 time=24 actual_time=43080
type=note_on channel=0 note=54 velocity=0 time=48 actual_time=43128
type=note_on channel=0 note=57 velocity=80 time=12 actual_time=43140
type=note_on channel=0 note=57 velocity=0 time=156 actual_time=43296
type=note_on channel=0 note=57 velocity=80 time=24 actual_time=43320
type=note_on channel=0 note=57 velocity=0 time=96 actual_time=43416
type=note_on channel=0 note=57 velocity=80 time=24 actual_time=43440
type=note_on channel=0 note=57 velocity=0 time=96 actual_time=43536
type=note_on channel=0 note=54 velocity=80 time=24 actual_time=43560
type=note_on channel=0 note=54 velocity=0 time=48 actual_time=43608
type=note_on channel=0 note=57 velocity=80 time=12 actual_time=43620
type=note_on channel=0 note=57 velocity=0 time=144 actual_time=43764
type=note_on channel=0 note=57 velocity=80 time=36 actual_time=43800
type=note_on channel=0 note=57 velocity=0 time=48 actual_time=43848
type=note_on channel=0 note=57 velocity=80 time=12 actual_time=43860
type=note_on channel=0 note=57 velocity=0 time=96 actual_time=43956
type=note_on channel=0 note=57 velocity=80 time=24 actual_time=43980
type=note_on channel=0 note=57 velocity=0 time=96 actual_time=44076
type=note_on channel=0 note=54 velocity=80 time=24 actual_time=44100
type=note_on channel=0 note=54 velocity=0 time=156 actual_time=44256
type=note_on channel=0 note=54 velocity=80 time=24 actual_time=44280
type=note_on channel=0 note=54 velocity=0 time=96 actual_time=44376
type=note_on channel=0 note=54 velocity=80 time=24 actual_time=44400
type=note_on channel=0 note=54 velocity=0 time=96 actual_time=44496
type=note_on channel=0 note=54 velocity=80 time=24 actual_time=44520
type=note_on channel=0 note=54 velocity=0 time=48 actual_time=44568
type=note_on channel=0 note=54 velocity=80 time=12 actual_time=44580
type=note_on channel=0 note=54 velocity=0 time=144 actual_time=44724
type=note_on channel=0 note=54 velocity=80 time=96 actual_time=44820
type=note_on channel=0 note=54 velocity=0 time=48 actual_time=44868
type=note_on channel=0 note=54 velocity=80 time=12 actual_time=44880
type=note_on channel=0 note=54 velocity=0 time=48 actual_time=44928
type=note_on channel=0 note=54 velocity=80 time=12 actual_time=44940
type=note_on channel=0 note=54 velocity=0 time=144 actual_time=45084
type=note_on channel=0 note=62 velocity=80 time=36 actual_time=45120
type=note_on channel=0 note=62 velocity=0 time=48 actual_time=45168
type=note_on channel=0 note=62 velocity=80 time=12 actual_time=45180
type=note_on channel=0 note=62 velocity=0 time=144 actual_time=45324
type=note_on channel=0 note=62 velocity=80 time=36 actual_time=45360
type=note_on channel=0 note=62 velocity=0 time=48 actual_time=45408
type=note_on channel=0 note=62 velocity=80 time=12 actual_time=45420
type=note_on channel=0 note=62 velocity=0 time=96 actual_time=45516
type=note_on channel=0 note=61 velocity=80 time=24 actual_time=45540
type=note_on channel=0 note=61 velocity=0 time=192 actual_time=45732
type=note_on channel=0 note=59 velocity=80 time=468 actual_time=46200
type=note_on channel=0 note=59 velocity=0 time=96 actual_time=46296
type=note_on channel=0 note=59 velocity=80 time=24 actual_time=46320
type=note_on channel=0 note=59 velocity=0 time=96 actual_time=46416
type=note_on channel=0 note=59 velocity=80 time=24 actual_time=46440
type=note_on channel=0 note=59 velocity=0 time=96 actual_time=46536
type=note_on channel=0 note=62 velocity=80 time=24 actual_time=46560
type=note_on channel=0 note=62 velocity=0 time=96 actual_time=46656
type=note_on channel=0 note=59 velocity=80 time=24 actual_time=46680
type=note_on channel=0 note=59 velocity=0 time=96 actual_time=46776
type=note_on channel=0 note=59 velocity=80 time=24 actual_time=46800
type=note_on channel=0 note=59 velocity=0 time=96 actual_time=46896
type=note_on channel=0 note=59 velocity=80 time=24 actual_time=46920
type=note_on channel=0 note=59 velocity=0 time=96 actual_time=47016
type=note_on channel=0 note=62 velocity=80 time=24 actual_time=47040
type=note_on channel=0 note=62 velocity=0 time=96 actual_time=47136
type=note_on channel=0 note=62 velocity=80 time=24 actual_time=47160
type=note_on channel=0 note=62 velocity=0 time=96 actual_time=47256
type=note_on channel=0 note=62 velocity=80 time=24 actual_time=47280
type=note_on channel=0 note=62 velocity=0 time=96 actual_time=47376
type=note_on channel=0 note=62 velocity=80 time=24 actual_time=47400
type=note_on channel=0 note=62 velocity=0 time=96 actual_time=47496
type=note_on channel=0 note=61 velocity=80 time=24 actual_time=47520
type=note_on channel=0 note=61 velocity=0 time=96 actual_time=47616
type=note_on channel=0 note=61 velocity=80 time=24 actual_time=47640
type=note_on channel=0 note=61 velocity=0 time=48 actual_time=47688
type=note_on channel=0 note=62 velocity=80 time=12 actual_time=47700
type=note_on channel=0 note=62 velocity=0 time=192 actual_time=47892
type=note_on channel=0 note=59 velocity=80 time=228 actual_time=48120
type=note_on channel=0 note=59 velocity=0 time=96 actual_time=48216
type=note_on channel=0 note=59 velocity=80 time=24 actual_time=48240
type=note_on channel=0 note=59 velocity=0 time=96 actual_time=48336
type=note_on channel=0 note=59 velocity=80 time=24 actual_time=48360
type=note_on channel=0 note=59 velocity=0 time=48 actual_time=48408
type=note_on channel=0 note=62 velocity=80 time=12 actual_time=48420
type=note_on channel=0 note=62 velocity=0 time=168 actual_time=48588
type=note_on channel=0 note=59 velocity=80 time=12 actual_time=48600
type=note_on channel=0 note=59 velocity=0 time=96 actual_time=48696
type=note_on channel=0 note=59 velocity=80 time=24 actual_time=48720
type=note_on channel=0 note=59 velocity=0 time=96 actual_time=48816
type=note_on channel=0 note=59 velocity=80 time=24 actual_time=48840
type=note_on channel=0 note=59 velocity=0 time=96 actual_time=48936
type=note_on channel=0 note=62 velocity=80 time=24 actual_time=48960
type=note_on channel=0 note=62 velocity=0 time=96 actual_time=49056
type=note_on channel=0 note=62 velocity=80 time=24 actual_time=49080
type=note_on channel=0 note=62 velocity=0 time=96 actual_time=49176
type=note_on channel=0 note=62 velocity=80 time=24 actual_time=49200
type=note_on channel=0 note=62 velocity=0 time=96 actual_time=49296
type=note_on channel=0 note=62 velocity=80 time=24 actual_time=49320
type=note_on channel=0 note=62 velocity=0 time=96 actual_time=49416
type=note_on channel=0 note=61 velocity=80 time=24 actual_time=49440
type=note_on channel=0 note=61 velocity=0 time=96 actual_time=49536
type=note_on channel=0 note=61 velocity=80 time=24 actual_time=49560
type=note_on channel=0 note=61 velocity=0 time=96 actual_time=49656
type=note_on channel=0 note=61 velocity=80 time=24 actual_time=49680
type=note_on channel=0 note=61 velocity=0 time=96 actual_time=49776
type=note_on channel=0 note=62 velocity=80 time=24 actual_time=49800
type=note_on channel=0 note=62 velocity=0 time=96 actual_time=49896
type=note_on channel=0 note=59 velocity=80 time=144 actual_time=50040
type=note_on channel=0 note=59 velocity=0 time=96 actual_time=50136
type=note_on channel=0 note=59 velocity=80 time=24 actual_time=50160
type=note_on channel=0 note=59 velocity=0 time=96 actual_time=50256
type=note_on channel=0 note=59 velocity=80 time=24 actual_time=50280
type=note_on channel=0 note=59 velocity=0 time=96 actual_time=50376
type=note_on channel=0 note=62 velocity=80 time=24 actual_time=50400
type=note_on channel=0 note=62 velocity=0 time=96 actual_time=50496
type=note_on channel=0 note=59 velocity=80 time=24 actual_time=50520
type=note_on channel=0 note=59 velocity=0 time=96 actual_time=50616
type=note_on channel=0 note=57 velocity=80 time=24 actual_time=50640
type=note_on channel=0 note=57 velocity=0 time=96 actual_time=50736
type=note_on channel=0 note=57 velocity=80 time=24 actual_time=50760
type=note_on channel=0 note=57 velocity=0 time=96 actual_time=50856
type=note_on channel=0 note=62 velocity=80 time=24 actual_time=50880
type=note_on channel=0 note=62 velocity=0 time=96 actual_time=50976
type=note_on channel=0 note=62 velocity=80 time=24 actual_time=51000
type=note_on channel=0 note=62 velocity=0 time=96 actual_time=51096
type=note_on channel=0 note=62 velocity=80 time=24 actual_time=51120
type=note_on channel=0 note=62 velocity=0 time=96 actual_time=51216
type=note_on channel=0 note=61 velocity=80 time=24 actual_time=51240
type=note_on channel=0 note=61 velocity=0 time=192 actual_time=51432
type=note_on channel=0 note=61 velocity=80 time=48 actual_time=51480
type=note_on channel=0 note=61 velocity=0 time=192 actual_time=51672
type=note_on channel=0 note=61 velocity=80 time=48 actual_time=51720
type=note_on channel=0 note=61 velocity=0 time=96 actual_time=51816
type=note_on channel=0 note=62 velocity=80 time=24 actual_time=51840
type=note_on channel=0 note=62 velocity=0 time=96 actual_time=51936
type=note_on channel=0 note=62 velocity=80 time=144 actual_time=52080
type=note_on channel=0 note=62 velocity=0 time=96 actual_time=52176
type=note_on channel=0 note=59 velocity=80 time=24 actual_time=52200
type=note_on channel=0 note=59 velocity=0 time=48 actual_time=52248
type=note_on channel=0 note=57 velocity=80 time=12 actual_time=52260
type=note_on channel=0 note=57 velocity=0 time=192 actual_time=52452
type=note_on channel=0 note=57 velocity=80 time=4428 actual_time=56880
type=note_on channel=0 note=57 velocity=0 time=96 actual_time=56976
type=note_on channel=0 note=57 velocity=80 time=24 actual_time=57000
type=note_on channel=0 note=57 velocity=0 time=48 actual_time=57048
type=note_on channel=0 note=57 velocity=80 time=12 actual_time=57060
type=note_on channel=0 note=57 velocity=0 time=96 actual_time=57156
type=note_on channel=0 note=57 velocity=80 time=24 actual_time=57180
type=note_on channel=0 note=57 velocity=0 time=96 actual_time=57276
type=note_on channel=0 note=57 velocity=80 time=24 actual_time=57300
type=note_on channel=0 note=57 velocity=0 time=96 actual_time=57396
type=note_on channel=0 note=57 velocity=80 time=24 actual_time=57420
type=note_on channel=0 note=57 velocity=0 time=96 actual_time=57516
type=note_on channel=0 note=57 velocity=80 time=24 actual_time=57540
type=note_on channel=0 note=57 velocity=0 time=156 actual_time=57696
type=note_on channel=0 note=59 velocity=80 time=7704 actual_time=65400
type=note_on channel=0 note=59 velocity=0 time=96 actual_time=65496
type=note_on channel=0 note=59 velocity=80 time=24 actual_time=65520
type=note_on channel=0 note=59 velocity=0 time=96 actual_time=65616
type=note_on channel=0 note=59 velocity=80 time=24 actual_time=65640
type=note_on channel=0 note=59 velocity=0 time=96 actual_time=65736
type=note_on channel=0 note=59 velocity=80 time=24 actual_time=65760
type=note_on channel=0 note=59 velocity=0 time=96 actual_time=65856
type=note_on channel=0 note=57 velocity=80 time=24 actual_time=65880
type=note_on channel=0 note=57 velocity=0 time=96 actual_time=65976
type=note_on channel=0 note=57 velocity=80 time=24 actual_time=66000
type=note_on channel=0 note=57 velocity=0 time=96 actual_time=66096
type=note_on channel=0 note=57 velocity=80 time=24 actual_time=66120
type=note_on channel=0 note=57 velocity=0 time=96 actual_time=66216
type=note_on channel=0 note=57 velocity=80 time=24 actual_time=66240
type=note_on channel=0 note=57 velocity=0 time=96 actual_time=66336
type=note_on channel=0 note=57 velocity=80 time=24 actual_time=66360
type=note_on channel=0 note=57 velocity=0 time=96 actual_time=66456
type=note_on channel=0 note=57 velocity=80 time=24 actual_time=66480
type=note_on channel=0 note=57 velocity=0 time=96 actual_time=66576
type=note_on channel=0 note=57 velocity=80 time=24 actual_time=66600
type=note_on channel=0 note=57 velocity=0 time=96 actual_time=66696
type=note_on channel=0 note=57 velocity=80 time=24 actual_time=66720
type=note_on channel=0 note=57 velocity=0 time=96 actual_time=66816
type=note_on channel=0 note=57 velocity=80 time=24 actual_time=66840
type=note_on channel=0 note=57 velocity=0 time=48 actual_time=66888
type=note_on channel=0 note=57 velocity=80 time=12 actual_time=66900
type=note_on channel=0 note=57 velocity=0 time=192 actual_time=67092
type=note_on channel=0 note=54 velocity=80 time=228 actual_time=67320
type=note_on channel=0 note=54 velocity=0 time=96 actual_time=67416
type=note_on channel=0 note=54 velocity=80 time=24 actual_time=67440
type=note_on channel=0 note=54 velocity=0 time=96 actual_time=67536
type=note_on channel=0 note=54 velocity=80 time=24 actual_time=67560
type=note_on channel=0 note=54 velocity=0 time=48 actual_time=67608
type=note_on channel=0 note=57 velocity=80 time=12 actual_time=67620
type=note_on channel=0 note=57 velocity=0 time=144 actual_time=67764
type=note_on channel=0 note=57 velocity=80 time=36 actual_time=67800
type=note_on channel=0 note=57 velocity=0 time=96 actual_time=67896
type=note_on channel=0 note=57 velocity=80 time=24 actual_time=67920
type=note_on channel=0 note=57 velocity=0 time=96 actual_time=68016
type=note_on channel=0 note=57 velocity=80 time=24 actual_time=68040
type=note_on channel=0 note=57 velocity=0 time=96 actual_time=68136
type=note_on channel=0 note=59 velocity=80 time=24 actual_time=68160
type=note_on channel=0 note=59 velocity=0 time=96 actual_time=68256
type=note_on channel=0 note=59 velocity=80 time=24 actual_time=68280
type=note_on channel=0 note=59 velocity=0 time=96 actual_time=68376
type=note_on channel=0 note=59 velocity=80 time=24 actual_time=68400
type=note_on channel=0 note=59 velocity=0 time=96 actual_time=68496
type=note_on channel=0 note=62 velocity=80 time=144 actual_time=68640
type=note_on channel=0 note=62 velocity=0 time=96 actual_time=68736
type=note_on channel=0 note=59 velocity=80 time=24 actual_time=68760
type=note_on channel=0 note=59 velocity=0 time=96 actual_time=68856
type=note_on channel=0 note=59 velocity=80 time=24 actual_time=68880
type=note_on channel=0 note=59 velocity=0 time=96 actual_time=68976
type=note_on channel=0 note=59 velocity=80 time=24 actual_time=69000
type=note_on channel=0 note=57 velocity=80 time=120 actual_time=69120
type=note_on channel=0 note=59 velocity=0 time=24 actual_time=69144
type=note_on channel=0 note=57 velocity=0 time=72 actual_time=69216
type=note_on channel=0 note=57 velocity=80 time=24 actual_time=69240
type=note_on channel=0 note=57 velocity=0 time=96 actual_time=69336
type=note_on channel=0 note=57 velocity=80 time=24 actual_time=69360
type=note_on channel=0 note=57 velocity=0 time=96 actual_time=69456
type=note_on channel=0 note=57 velocity=80 time=24 actual_time=69480
type=note_on channel=0 note=57 velocity=0 time=96 actual_time=69576
type=note_on channel=0 note=57 velocity=80 time=24 actual_time=69600
type=note_on channel=0 note=57 velocity=0 time=96 actual_time=69696
type=note_on channel=0 note=57 velocity=80 time=24 actual_time=69720
type=note_on channel=0 note=57 velocity=0 time=96 actual_time=69816
type=note_on channel=0 note=57 velocity=80 time=24 actual_time=69840
type=note_on channel=0 note=57 velocity=0 time=96 actual_time=69936
type=note_on channel=0 note=57 velocity=80 time=24 actual_time=69960
type=note_on channel=0 note=57 velocity=0 time=96 actual_time=70056
type=note_on channel=0 note=57 velocity=80 time=24 actual_time=70080
type=note_on channel=0 note=57 velocity=0 time=96 actual_time=70176
type=note_on channel=0 note=57 velocity=80 time=24 actual_time=70200
type=note_on channel=0 note=57 velocity=0 time=96 actual_time=70296
type=note_on channel=0 note=57 velocity=80 time=24 actual_time=70320
type=note_on channel=0 note=57 velocity=0 time=96 actual_time=70416
type=note_on channel=0 note=57 velocity=80 time=24 actual_time=70440
type=note_on channel=0 note=57 velocity=0 time=192 actual_time=70632
type=note_on channel=0 note=57 velocity=80 time=48 actual_time=70680
type=note_on channel=0 note=57 velocity=0 time=192 actual_time=70872
type=note_on channel=0 note=59 velocity=80 time=48 actual_time=70920
type=note_on channel=0 note=59 velocity=0 time=216 actual_time=71136
type=note_on channel=0 note=62 velocity=80 time=144 actual_time=71280
type=note_on channel=0 note=62 velocity=0 time=96 actual_time=71376
type=note_on channel=0 note=59 velocity=80 time=24 actual_time=71400
type=note_on channel=0 note=59 velocity=0 time=48 actual_time=71448
type=note_on channel=0 note=62 velocity=80 time=12 actual_time=71460
type=note_on channel=0 note=62 velocity=0 time=384 actual_time=71844
type=note_on channel=0 note=66 velocity=80 time=156 actual_time=72000
type=note_on channel=0 note=66 velocity=0 time=768 actual_time=72768
type=note_on channel=0 note=59 velocity=80 time=312 actual_time=73080
type=note_on channel=0 note=59 velocity=0 time=96 actual_time=73176
type=note_on channel=0 note=59 velocity=80 time=24 actual_time=73200
type=note_on channel=0 note=59 velocity=0 time=96 actual_time=73296
type=note_on channel=0 note=59 velocity=80 time=24 actual_time=73320
type=note_on channel=0 note=59 velocity=0 time=96 actual_time=73416
type=note_on channel=0 note=62 velocity=80 time=24 actual_time=73440
type=note_on channel=0 note=62 velocity=0 time=96 actual_time=73536
type=note_on channel=0 note=59 velocity=80 time=24 actual_time=73560
type=note_on channel=0 note=59 velocity=0 time=96 actual_time=73656
type=note_on channel=0 note=59 velocity=80 time=24 actual_time=73680
type=note_on channel=0 note=59 velocity=0 time=96 actual_time=73776
type=note_on channel=0 note=59 velocity=80 time=24 actual_time=73800
type=note_on channel=0 note=59 velocity=0 time=96 actual_time=73896
type=note_on channel=0 note=62 velocity=80 time=24 actual_time=73920
type=note_on channel=0 note=62 velocity=0 time=96 actual_time=74016
type=note_on channel=0 note=62 velocity=80 time=24 actual_time=74040
type=note_on channel=0 note=62 velocity=0 time=96 actual_time=74136
type=note_on channel=0 note=62 velocity=80 time=24 actual_time=74160
type=note_on channel=0 note=62 velocity=0 time=96 actual_time=74256
type=note_on channel=0 note=62 velocity=80 time=24 actual_time=74280
type=note_on channel=0 note=62 velocity=0 time=96 actual_time=74376
type=note_on channel=0 note=61 velocity=80 time=24 actual_time=74400
type=note_on channel=0 note=61 velocity=0 time=96 actual_time=74496
type=note_on channel=0 note=61 velocity=80 time=24 actual_time=74520
type=note_on channel=0 note=61 velocity=0 time=48 actual_time=74568
type=note_on channel=0 note=62 velocity=80 time=12 actual_time=74580
type=note_on channel=0 note=62 velocity=0 time=192 actual_time=74772
type=note_on channel=0 note=59 velocity=80 time=228 actual_time=75000
type=note_on channel=0 note=59 velocity=0 time=96 actual_time=75096
type=note_on channel=0 note=59 velocity=80 time=24 actual_time=75120
type=note_on channel=0 note=59 velocity=0 time=96 actual_time=75216
type=note_on channel=0 note=59 velocity=80 time=24 actual_time=75240
type=note_on channel=0 note=59 velocity=0 time=48 actual_time=75288
type=note_on channel=0 note=62 velocity=80 time=12 actual_time=75300
type=note_on channel=0 note=62 velocity=0 time=168 actual_time=75468
type=note_on channel=0 note=59 velocity=80 time=12 actual_time=75480
type=note_on channel=0 note=59 velocity=0 time=96 actual_time=75576
type=note_on channel=0 note=59 velocity=80 time=24 actual_time=75600
type=note_on channel=0 note=59 velocity=0 time=96 actual_time=75696
type=note_on channel=0 note=59 velocity=80 time=24 actual_time=75720
type=note_on channel=0 note=59 velocity=0 time=96 actual_time=75816
type=note_on channel=0 note=62 velocity=80 time=24 actual_time=75840
type=note_on channel=0 note=62 velocity=0 time=96 actual_time=75936
type=note_on channel=0 note=62 velocity=80 time=24 actual_time=75960
type=note_on channel=0 note=62 velocity=0 time=96 actual_time=76056
type=note_on channel=0 note=62 velocity=80 time=24 actual_time=76080
type=note_on channel=0 note=62 velocity=0 time=96 actual_time=76176
type=note_on channel=0 note=62 velocity=80 time=24 actual_time=76200
type=note_on channel=0 note=62 velocity=0 time=96 actual_time=76296
type=note_on channel=0 note=61 velocity=80 time=24 actual_time=76320
type=note_on channel=0 note=61 velocity=0 time=96 actual_time=76416
type=note_on channel=0 note=61 velocity=80 time=24 actual_time=76440
type=note_on channel=0 note=61 velocity=0 time=96 actual_time=76536
type=note_on channel=0 note=61 velocity=80 time=24 actual_time=76560
type=note_on channel=0 note=61 velocity=0 time=96 actual_time=76656
type=note_on channel=0 note=62 velocity=80 time=24 actual_time=76680
type=note_on channel=0 note=62 velocity=0 time=96 actual_time=76776
type=note_on channel=0 note=59 velocity=80 time=144 actual_time=76920
type=note_on channel=0 note=59 velocity=0 time=96 actual_time=77016
type=note_on channel=0 note=59 velocity=80 time=24 actual_time=77040
type=note_on channel=0 note=59 velocity=0 time=96 actual_time=77136
type=note_on channel=0 note=59 velocity=80 time=24 actual_time=77160
type=note_on channel=0 note=59 velocity=0 time=96 actual_time=77256
type=note_on channel=0 note=62 velocity=80 time=24 actual_time=77280
type=note_on channel=0 note=62 velocity=0 time=96 actual_time=77376
type=note_on channel=0 note=59 velocity=80 time=24 actual_time=77400
type=note_on channel=0 note=59 velocity=0 time=96 actual_time=77496
type=note_on channel=0 note=57 velocity=80 time=24 actual_time=77520
type=note_on channel=0 note=57 velocity=0 time=96 actual_time=77616
type=note_on channel=0 note=57 velocity=80 time=24 actual_time=77640
type=note_on channel=0 note=57 velocity=0 time=96 actual_time=77736
type=note_on channel=0 note=62 velocity=80 time=24 actual_time=77760
type=note_on channel=0 note=62 velocity=0 time=96 actual_time=77856
type=note_on channel=0 note=62 velocity=80 time=24 actual_time=77880
type=note_on channel=0 note=62 velocity=0 time=96 actual_time=77976
type=note_on channel=0 note=62 velocity=80 time=24 actual_time=78000
type=note_on channel=0 note=62 velocity=0 time=96 actual_time=78096
type=note_on channel=0 note=61 velocity=80 time=24 actual_time=78120
type=note_on channel=0 note=61 velocity=0 time=192 actual_time=78312
type=note_on channel=0 note=61 velocity=80 time=48 actual_time=78360
type=note_on channel=0 note=61 velocity=0 time=192 actual_time=78552
type=note_on channel=0 note=61 velocity=80 time=48 actual_time=78600
type=note_on channel=0 note=61 velocity=0 time=96 actual_time=78696
type=note_on channel=0 note=62 velocity=80 time=24 actual_time=78720
type=note_on channel=0 note=62 velocity=0 time=96 actual_time=78816
type=note_on channel=0 note=62 velocity=80 time=144 actual_time=78960
type=note_on channel=0 note=62 velocity=0 time=96 actual_time=79056
type=note_on channel=0 note=59 velocity=80 time=24 actual_time=79080
type=note_on channel=0 note=59 velocity=0 time=48 actual_time=79128
type=note_on channel=0 note=57 velocity=80 time=12 actual_time=79140
type=note_on channel=0 note=57 velocity=0 time=192 actual_time=79332
type=note_on channel=0 note=59 velocity=80 time=2748 actual_time=82080
type=note_on channel=0 note=59 velocity=0 time=96 actual_time=82176
type=note_on channel=0 note=57 velocity=80 time=24 actual_time=82200
type=note_on channel=0 note=57 velocity=0 time=96 actual_time=82296
type=note_on channel=0 note=57 velocity=80 time=24 actual_time=82320
type=note_on channel=0 note=57 velocity=0 time=96 actual_time=82416
type=note_on channel=0 note=59 velocity=80 time=24 actual_time=82440
type=note_on channel=0 note=59 velocity=0 time=96 actual_time=82536
type=note_on channel=0 note=59 velocity=80 time=24 actual_time=82560
type=note_on channel=0 note=59 velocity=0 time=768 actual_time=83328
type=note_on channel=0 note=59 velocity=80 time=672 actual_time=84000
type=note_on channel=0 note=59 velocity=0 time=96 actual_time=84096
type=note_on channel=0 note=57 velocity=80 time=24 actual_time=84120
type=note_on channel=0 note=57 velocity=0 time=96 actual_time=84216
type=note_on channel=0 note=57 velocity=80 time=24 actual_time=84240
type=note_on channel=0 note=57 velocity=0 time=96 actual_time=84336
type=note_on channel=0 note=59 velocity=80 time=24 actual_time=84360
type=note_on channel=0 note=59 velocity=0 time=96 actual_time=84456
type=note_on channel=0 note=59 velocity=80 time=24 actual_time=84480
type=note_on channel=0 note=59 velocity=0 time=768 actual_time=85248
type=note_on channel=0 note=59 velocity=80 time=672 actual_time=85920
type=note_on channel=0 note=59 velocity=0 time=96 actual_time=86016
type=note_on channel=0 note=57 velocity=80 time=24 actual_time=86040
type=note_on channel=0 note=57 velocity=0 time=96 actual_time=86136
type=note_on channel=0 note=57 velocity=80 time=24 actual_time=86160
type=note_on channel=0 note=57 velocity=0 time=96 actual_time=86256
type=note_on channel=0 note=59 velocity=80 time=24 actual_time=86280
type=note_on channel=0 note=59 velocity=0 time=96 actual_time=86376
type=note_on channel=0 note=59 velocity=80 time=24 actual_time=86400
type=note_on channel=0 note=59 velocity=0 time=1728 actual_time=88128
MetaMessage type: end_of_track, time: 0, actual_time: 88128
type: pitchwheel, time: 0, actual_time: 0
type=control_change channel=0 control=7 value=87 time=0 actual_time=0
type=control_change channel=0 control=10 value=63 time=0 actual_time=0
type=control_change channel=0 control=93 value=0 time=0 actual_time=0
type=control_change channel=0 control=91 value=0 time=0 actual_time=0
type=control_change channel=0 control=95 value=0 time=0 actual_time=0
type=control_change channel=0 control=92 value=0 time=0 actual_time=0
type=control_change channel=0 control=11 value=127 time=0 actual_time=0
type: program_change, time: 0, actual_time: 0
type=control_change channel=1 control=7 value=87 time=0 actual_time=0
type=control_change channel=1 control=10 value=63 time=0 actual_time=0
type=control_change channel=1 control=93 value=0 time=0 actual_time=0
type=control_change channel=1 control=91 value=0 time=0 actual_time=0
type=control_change channel=1 control=95 value=0 time=0 actual_time=0
type=control_change channel=1 control=92 value=0 time=0 actual_time=0
type=control_change channel=1 control=11 value=127 time=0 actual_time=0
type: program_change, time: 0, actual_time: 0
type=control_change channel=1 control=11 value=31 time=24000 actual_time=24000
type=note_on channel=1 note=52 velocity=95 time=0 actual_time=24000
type=control_change channel=1 control=11 value=32 time=60 actual_time=24060
type=control_change channel=1 control=11 value=33 time=60 actual_time=24120
type=control_change channel=1 control=11 value=34 time=60 actual_time=24180
type=control_change channel=1 control=11 value=35 time=60 actual_time=24240
type=control_change channel=1 control=11 value=36 time=60 actual_time=24300
type=control_change channel=1 control=11 value=37 time=60 actual_time=24360
type=control_change channel=1 control=11 value=38 time=60 actual_time=24420
type=control_change channel=1 control=11 value=39 time=60 actual_time=24480
type=control_change channel=1 control=11 value=40 time=60 actual_time=24540
type=control_change channel=1 control=11 value=41 time=60 actual_time=24600
type=control_change channel=1 control=11 value=42 time=60 actual_time=24660
type=control_change channel=1 control=11 value=43 time=60 actual_time=24720
type=control_change channel=1 control=11 value=44 time=60 actual_time=24780
type=control_change channel=1 control=11 value=45 time=60 actual_time=24840
type=control_change channel=1 control=11 value=46 time=60 actual_time=24900
type=control_change channel=1 control=11 value=47 time=60 actual_time=24960
type=control_change channel=1 control=11 value=48 time=60 actual_time=25020
type=control_change channel=1 control=11 value=49 time=60 actual_time=25080
type=control_change channel=1 control=11 value=50 time=60 actual_time=25140
type=control_change channel=1 control=11 value=51 time=60 actual_time=25200
type=control_change channel=1 control=11 value=52 time=60 actual_time=25260
type=control_change channel=1 control=11 value=53 time=60 actual_time=25320
type=control_change channel=1 control=11 value=54 time=60 actual_time=25380
type=control_change channel=1 control=11 value=55 time=60 actual_time=25440
type=control_change channel=1 control=11 value=56 time=60 actual_time=25500
type=control_change channel=1 control=11 value=57 time=60 actual_time=25560
type=control_change channel=1 control=11 value=58 time=60 actual_time=25620
type=control_change channel=1 control=11 value=59 time=60 actual_time=25680
type=control_change channel=1 control=11 value=60 time=60 actual_time=25740
type=control_change channel=1 control=11 value=61 time=60 actual_time=25800
type=control_change channel=1 control=11 value=62 time=60 actual_time=25860
type=control_change channel=1 control=11 value=63 time=60 actual_time=25920
type=control_change channel=1 control=11 value=64 time=60 actual_time=25980
type=control_change channel=1 control=11 value=65 time=60 actual_time=26040
type=control_change channel=1 control=11 value=66 time=60 actual_time=26100
type=control_change channel=1 control=11 value=67 time=60 actual_time=26160
type=control_change channel=1 control=11 value=68 time=60 actual_time=26220
type=control_change channel=1 control=11 value=69 time=60 actual_time=26280
type=control_change channel=1 control=11 value=70 time=60 actual_time=26340
type=control_change channel=1 control=11 value=71 time=60 actual_time=26400
type=control_change channel=1 control=11 value=72 time=60 actual_time=26460
type=control_change channel=1 control=11 value=73 time=60 actual_time=26520
type=control_change channel=1 control=11 value=74 time=60 actual_time=26580
type=control_change channel=1 control=11 value=75 time=60 actual_time=26640
type=control_change channel=1 control=11 value=76 time=60 actual_time=26700
type=control_change channel=1 control=11 value=77 time=60 actual_time=26760
type=control_change channel=1 control=11 value=78 time=60 actual_time=26820
type=control_change channel=1 control=11 value=79 time=60 actual_time=26880
type=control_change channel=1 control=11 value=80 time=60 actual_time=26940
type=control_change channel=1 control=11 value=81 time=60 actual_time=27000
type=control_change channel=1 control=11 value=82 time=60 actual_time=27060
type=control_change channel=1 control=11 value=83 time=60 actual_time=27120
type=control_change channel=1 control=11 value=84 time=60 actual_time=27180
type=control_change channel=1 control=11 value=85 time=60 actual_time=27240
type=control_change channel=1 control=11 value=86 time=60 actual_time=27300
type=control_change channel=1 control=11 value=87 time=60 actual_time=27360
type=control_change channel=1 control=11 value=88 time=60 actual_time=27420
type=control_change channel=1 control=11 value=89 time=60 actual_time=27480
type=control_change channel=1 control=11 value=90 time=60 actual_time=27540
type=control_change channel=1 control=11 value=91 time=60 actual_time=27600
type=control_change channel=1 control=11 value=92 time=60 actual_time=27660
type=control_change channel=1 control=11 value=93 time=60 actual_time=27720
type=control_change channel=1 control=11 value=94 time=60 actual_time=27780
type=control_change channel=1 control=11 value=95 time=60 actual_time=27840
type=control_change channel=1 control=11 value=96 time=60 actual_time=27900
type=control_change channel=1 control=11 value=97 time=60 actual_time=27960
type=control_change channel=1 control=11 value=98 time=60 actual_time=28020
type=control_change channel=1 control=11 value=99 time=60 actual_time=28080
type=control_change channel=1 control=11 value=100 time=60 actual_time=28140
type=control_change channel=1 control=11 value=101 time=60 actual_time=28200
type=control_change channel=1 control=11 value=102 time=60 actual_time=28260
type=control_change channel=1 control=11 value=103 time=60 actual_time=28320
type=control_change channel=1 control=11 value=104 time=60 actual_time=28380
type=control_change channel=1 control=11 value=105 time=60 actual_time=28440
type=control_change channel=1 control=11 value=106 time=60 actual_time=28500
type=control_change channel=1 control=11 value=107 time=60 actual_time=28560
type=control_change channel=1 control=11 value=108 time=60 actual_time=28620
type=control_change channel=1 control=11 value=109 time=60 actual_time=28680
type=control_change channel=1 control=11 value=110 time=60 actual_time=28740
type=control_change channel=1 control=11 value=111 time=60 actual_time=28800
type=control_change channel=1 control=11 value=112 time=60 actual_time=28860
type=control_change channel=1 control=11 value=113 time=60 actual_time=28920
type=control_change channel=1 control=11 value=114 time=60 actual_time=28980
type=control_change channel=1 control=11 value=115 time=60 actual_time=29040
type=control_change channel=1 control=11 value=116 time=60 actual_time=29100
type=control_change channel=1 control=11 value=117 time=60 actual_time=29160
type=control_change channel=1 control=11 value=118 time=60 actual_time=29220
type=control_change channel=1 control=11 value=119 time=60 actual_time=29280
type=control_change channel=1 control=11 value=120 time=60 actual_time=29340
type=control_change channel=1 control=11 value=121 time=60 actual_time=29400
type=control_change channel=1 control=11 value=122 time=60 actual_time=29460
type=control_change channel=1 control=11 value=123 time=60 actual_time=29520
type=control_change channel=1 control=11 value=124 time=60 actual_time=29580
type=control_change channel=1 control=11 value=125 time=60 actual_time=29640
type=control_change channel=1 control=11 value=126 time=60 actual_time=29700
type=control_change channel=1 control=11 value=127 time=60 actual_time=29760
type: note_off, time: 0, actual_time: 29760
type=note_on channel=1 note=62 velocity=95 time=0 actual_time=29760
type: note_off, time: 960, actual_time: 30720
type=note_on channel=0 note=50 velocity=95 time=0 actual_time=30720
type: note_off, time: 240, actual_time: 30960
type=note_on channel=0 note=52 velocity=70 time=0 actual_time=30960
type: note_off, time: 240, actual_time: 31200
type=note_on channel=0 note=40 velocity=95 time=0 actual_time=31200
type: note_off, time: 240, actual_time: 31440
type=note_on channel=0 note=40 velocity=95 time=0 actual_time=31440
type: note_off, time: 240, actual_time: 31680
type=note_on channel=0 note=40 velocity=95 time=0 actual_time=31680
type: note_off, time: 240, actual_time: 31920
type=note_on channel=0 note=40 velocity=95 time=0 actual_time=31920
type: note_off, time: 240, actual_time: 32160
type=note_on channel=0 note=40 velocity=95 time=0 actual_time=32160
type: note_off, time: 240, actual_time: 32400
type=note_on channel=0 note=48 velocity=95 time=0 actual_time=32400
type: note_off, time: 240, actual_time: 32640
type=note_on channel=0 note=40 velocity=95 time=0 actual_time=32640
type: note_off, time: 240, actual_time: 32880
type=note_on channel=0 note=47 velocity=95 time=0 actual_time=32880
type: note_off, time: 240, actual_time: 33120
type=note_on channel=0 note=40 velocity=95 time=0 actual_time=33120
type: note_off, time: 240, actual_time: 33360
type=note_on channel=0 note=40 velocity=95 time=0 actual_time=33360
type: note_off, time: 240, actual_time: 33600
type=note_on channel=0 note=47 velocity=95 time=0 actual_time=33600
type: note_off, time: 240, actual_time: 33840
type=note_on channel=0 note=40 velocity=95 time=0 actual_time=33840
type: note_off, time: 240, actual_time: 34080
type=note_on channel=0 note=48 velocity=95 time=0 actual_time=34080
type: note_off, time: 240, actual_time: 34320
type=note_on channel=0 note=40 velocity=95 time=0 actual_time=34320
type: note_off, time: 240, actual_time: 34560
type=note_on channel=0 note=50 velocity=95 time=0 actual_time=34560
type: note_off, time: 240, actual_time: 34800
type=note_on channel=0 note=52 velocity=70 time=0 actual_time=34800
type: note_off, time: 240, actual_time: 35040
type=note_on channel=0 note=40 velocity=95 time=0 actual_time=35040
type: note_off, time: 240, actual_time: 35280
type=note_on channel=0 note=40 velocity=95 time=0 actual_time=35280
type: note_off, time: 240, actual_time: 35520
type=note_on channel=0 note=40 velocity=95 time=0 actual_time=35520
type: note_off, time: 240, actual_time: 35760
type=note_on channel=0 note=40 velocity=95 time=0 actual_time=35760
type: note_off, time: 240, actual_time: 36000
type=note_on channel=0 note=40 velocity=95 time=0 actual_time=36000
type: note_off, time: 240, actual_time: 36240
type=note_on channel=0 note=48 velocity=95 time=0 actual_time=36240
type: note_off, time: 240, actual_time: 36480
type=note_on channel=0 note=40 velocity=95 time=0 actual_time=36480
type: note_off, time: 240, actual_time: 36720
type=note_on channel=0 note=47 velocity=95 time=0 actual_time=36720
type: note_off, time: 240, actual_time: 36960
type=note_on channel=0 note=40 velocity=95 time=0 actual_time=36960
type: note_off, time: 240, actual_time: 37200
type=note_on channel=0 note=40 velocity=95 time=0 actual_time=37200
type: note_off, time: 240, actual_time: 37440
type=note_on channel=0 note=47 velocity=95 time=0 actual_time=37440
type: note_off, time: 240, actual_time: 37680
type=note_on channel=0 note=48 velocity=70 time=0 actual_time=37680
type: note_off, time: 240, actual_time: 37920
type=note_on channel=0 note=47 velocity=70 time=0 actual_time=37920
type: note_off, time: 240, actual_time: 38160
type=note_on channel=0 note=45 velocity=70 time=0 actual_time=38160
type: note_off, time: 240, actual_time: 38400
type=note_on channel=0 note=50 velocity=95 time=0 actual_time=38400
type: note_off, time: 240, actual_time: 38640
type=note_on channel=0 note=52 velocity=70 time=0 actual_time=38640
type: note_off, time: 240, actual_time: 38880
type=note_on channel=0 note=40 velocity=95 time=0 actual_time=38880
type: note_off, time: 240, actual_time: 39120
type=note_on channel=0 note=40 velocity=95 time=0 actual_time=39120
type: note_off, time: 240, actual_time: 39360
type=note_on channel=0 note=40 velocity=95 time=0 actual_time=39360
type: note_off, time: 240, actual_time: 39600
type=note_on channel=0 note=40 velocity=95 time=0 actual_time=39600
type: note_off, time: 240, actual_time: 39840
type=note_on channel=0 note=40 velocity=95 time=0 actual_time=39840
type: note_off, time: 240, actual_time: 40080
type=note_on channel=0 note=48 velocity=95 time=0 actual_time=40080
type: note_off, time: 240, actual_time: 40320
type=note_on channel=0 note=40 velocity=95 time=0 actual_time=40320
type: note_off, time: 240, actual_time: 40560
type=note_on channel=0 note=47 velocity=95 time=0 actual_time=40560
type: note_off, time: 240, actual_time: 40800
type=note_on channel=0 note=40 velocity=95 time=0 actual_time=40800
type: note_off, time: 240, actual_time: 41040
type=note_on channel=0 note=40 velocity=95 time=0 actual_time=41040
type: note_off, time: 240, actual_time: 41280
type=note_on channel=0 note=47 velocity=95 time=0 actual_time=41280
type: note_off, time: 240, actual_time: 41520
type=note_on channel=0 note=40 velocity=95 time=0 actual_time=41520
type: note_off, time: 240, actual_time: 41760
type=note_on channel=0 note=48 velocity=95 time=0 actual_time=41760
type: note_off, time: 240, actual_time: 42000
type=note_on channel=0 note=40 velocity=95 time=0 actual_time=42000
type: note_off, time: 240, actual_time: 42240
type=note_on channel=0 note=50 velocity=95 time=0 actual_time=42240
type: note_off, time: 240, actual_time: 42480
type=note_on channel=0 note=52 velocity=70 time=0 actual_time=42480
type: note_off, time: 240, actual_time: 42720
type=note_on channel=0 note=40 velocity=95 time=0 actual_time=42720
type: note_off, time: 240, actual_time: 42960
type=note_on channel=0 note=40 velocity=95 time=0 actual_time=42960
type: note_off, time: 240, actual_time: 43200
type=note_on channel=0 note=40 velocity=95 time=0 actual_time=43200
type: note_off, time: 240, actual_time: 43440
type=note_on channel=0 note=40 velocity=95 time=0 actual_time=43440
type: note_off, time: 240, actual_time: 43680
type=note_on channel=0 note=40 velocity=95 time=0 actual_time=43680
type: note_off, time: 240, actual_time: 43920
type=note_on channel=0 note=48 velocity=95 time=0 actual_time=43920
type: note_off, time: 240, actual_time: 44160
type=note_on channel=0 note=40 velocity=95 time=0 actual_time=44160
type: note_off, time: 240, actual_time: 44400
type=note_on channel=0 note=47 velocity=95 time=0 actual_time=44400
type: note_off, time: 240, actual_time: 44640
type=note_on channel=0 note=40 velocity=95 time=0 actual_time=44640
type: note_off, time: 240, actual_time: 44880
type=note_on channel=0 note=40 velocity=95 time=0 actual_time=44880
type: note_off, time: 240, actual_time: 45120
type=note_on channel=0 note=47 velocity=95 time=0 actual_time=45120
type: note_off, time: 240, actual_time: 45360
type=note_on channel=0 note=48 velocity=70 time=0 actual_time=45360
type: note_off, time: 240, actual_time: 45600
type=note_on channel=0 note=47 velocity=70 time=0 actual_time=45600
type: note_off, time: 240, actual_time: 45840
type=note_on channel=0 note=45 velocity=70 time=0 actual_time=45840
type: note_off, time: 240, actual_time: 46080
type=note_on channel=0 note=50 velocity=95 time=0 actual_time=46080
type: note_off, time: 240, actual_time: 46320
type=note_on channel=0 note=52 velocity=70 time=0 actual_time=46320
type: note_off, time: 240, actual_time: 46560
type=note_on channel=0 note=40 velocity=95 time=0 actual_time=46560
type: note_off, time: 240, actual_time: 46800
type=note_on channel=0 note=40 velocity=95 time=0 actual_time=46800
type: note_off, time: 240, actual_time: 47040
type=note_on channel=0 note=40 velocity=95 time=0 actual_time=47040
type: note_off, time: 240, actual_time: 47280
type=note_on channel=0 note=40 velocity=95 time=0 actual_time=47280
type: note_off, time: 240, actual_time: 47520
type=note_on channel=0 note=40 velocity=95 time=0 actual_time=47520
type: note_off, time: 240, actual_time: 47760
type=note_on channel=0 note=48 velocity=95 time=0 actual_time=47760
type: note_off, time: 240, actual_time: 48000
type=note_on channel=0 note=40 velocity=95 time=0 actual_time=48000
type: note_off, time: 240, actual_time: 48240
type=note_on channel=0 note=47 velocity=95 time=0 actual_time=48240
type: note_off, time: 240, actual_time: 48480
type=note_on channel=0 note=40 velocity=95 time=0 actual_time=48480
type: note_off, time: 240, actual_time: 48720
type=note_on channel=0 note=40 velocity=95 time=0 actual_time=48720
type: note_off, time: 240, actual_time: 48960
type=note_on channel=0 note=47 velocity=95 time=0 actual_time=48960
type: note_off, time: 240, actual_time: 49200
type=note_on channel=0 note=40 velocity=95 time=0 actual_time=49200
type: note_off, time: 240, actual_time: 49440
type=note_on channel=0 note=48 velocity=95 time=0 actual_time=49440
type: note_off, time: 240, actual_time: 49680
type=note_on channel=0 note=40 velocity=95 time=0 actual_time=49680
type: note_off, time: 240, actual_time: 49920
type=note_on channel=0 note=50 velocity=95 time=0 actual_time=49920
type: note_off, time: 240, actual_time: 50160
type=note_on channel=0 note=52 velocity=70 time=0 actual_time=50160
type: note_off, time: 240, actual_time: 50400
type=note_on channel=0 note=40 velocity=95 time=0 actual_time=50400
type: note_off, time: 240, actual_time: 50640
type=note_on channel=0 note=40 velocity=95 time=0 actual_time=50640
type: note_off, time: 240, actual_time: 50880
type=note_on channel=0 note=40 velocity=95 time=0 actual_time=50880
type: note_off, time: 240, actual_time: 51120
type=note_on channel=0 note=40 velocity=95 time=0 actual_time=51120
type: note_off, time: 240, actual_time: 51360
type=note_on channel=0 note=40 velocity=95 time=0 actual_time=51360
type: note_off, time: 240, actual_time: 51600
type=note_on channel=0 note=48 velocity=95 time=0 actual_time=51600
type: note_off, time: 240, actual_time: 51840
type=note_on channel=0 note=40 velocity=95 time=0 actual_time=51840
type: note_off, time: 240, actual_time: 52080
type=note_on channel=0 note=47 velocity=95 time=0 actual_time=52080
type: note_off, time: 240, actual_time: 52320
type=note_on channel=0 note=40 velocity=95 time=0 actual_time=52320
type: note_off, time: 240, actual_time: 52560
type=note_on channel=0 note=40 velocity=95 time=0 actual_time=52560
type: note_off, time: 240, actual_time: 52800
type=note_on channel=0 note=47 velocity=95 time=0 actual_time=52800
type: note_off, time: 240, actual_time: 53040
type=note_on channel=0 note=48 velocity=70 time=0 actual_time=53040
type: note_off, time: 240, actual_time: 53280
type=note_on channel=0 note=47 velocity=70 time=0 actual_time=53280
type: note_off, time: 240, actual_time: 53520
type=note_on channel=0 note=45 velocity=70 time=0 actual_time=53520
type: note_off, time: 240, actual_time: 53760
type=note_on channel=0 note=50 velocity=95 time=0 actual_time=53760
type: note_off, time: 240, actual_time: 54000
type=note_on channel=0 note=52 velocity=70 time=0 actual_time=54000
type: note_off, time: 240, actual_time: 54240
type=note_on channel=0 note=40 velocity=95 time=0 actual_time=54240
type: note_off, time: 240, actual_time: 54480
type=note_on channel=0 note=40 velocity=95 time=0 actual_time=54480
type: note_off, time: 240, actual_time: 54720
type=note_on channel=0 note=40 velocity=95 time=0 actual_time=54720
type: note_off, time: 240, actual_time: 54960
type=note_on channel=0 note=40 velocity=95 time=0 actual_time=54960
type: note_off, time: 240, actual_time: 55200
type=note_on channel=0 note=40 velocity=95 time=0 actual_time=55200
type: note_off, time: 240, actual_time: 55440
type=note_on channel=0 note=48 velocity=95 time=0 actual_time=55440
type: note_off, time: 240, actual_time: 55680
type=note_on channel=0 note=40 velocity=95 time=0 actual_time=55680
type: note_off, time: 240, actual_time: 55920
type=note_on channel=0 note=47 velocity=95 time=0 actual_time=55920
type: note_off, time: 240, actual_time: 56160
type=note_on channel=0 note=40 velocity=95 time=0 actual_time=56160
type: note_off, time: 240, actual_time: 56400
type=note_on channel=0 note=40 velocity=95 time=0 actual_time=56400
type: note_off, time: 240, actual_time: 56640
type=note_on channel=0 note=47 velocity=95 time=0 actual_time=56640
type: note_off, time: 240, actual_time: 56880
type=note_on channel=0 note=40 velocity=95 time=0 actual_time=56880
type: note_off, time: 240, actual_time: 57120
type=note_on channel=0 note=48 velocity=95 time=0 actual_time=57120
type: note_off, time: 240, actual_time: 57360
type=note_on channel=0 note=40 velocity=95 time=0 actual_time=57360
type: note_off, time: 240, actual_time: 57600
type=note_on channel=0 note=50 velocity=95 time=0 actual_time=57600
type: note_off, time: 240, actual_time: 57840
type=note_on channel=0 note=52 velocity=70 time=0 actual_time=57840
type: note_off, time: 240, actual_time: 58080
type=note_on channel=0 note=40 velocity=95 time=0 actual_time=58080
type: note_off, time: 240, actual_time: 58320
type=note_on channel=0 note=40 velocity=95 time=0 actual_time=58320
type: note_off, time: 240, actual_time: 58560
type=note_on channel=0 note=40 velocity=95 time=0 actual_time=58560
type: note_off, time: 240, actual_time: 58800
type=note_on channel=0 note=40 velocity=95 time=0 actual_time=58800
type: note_off, time: 240, actual_time: 59040
type=note_on channel=0 note=40 velocity=95 time=0 actual_time=59040
type: note_off, time: 240, actual_time: 59280
type=note_on channel=0 note=48 velocity=95 time=0 actual_time=59280
type: note_off, time: 240, actual_time: 59520
type=note_on channel=0 note=40 velocity=95 time=0 actual_time=59520
type: note_off, time: 240, actual_time: 59760
type=note_on channel=0 note=47 velocity=95 time=0 actual_time=59760
type: note_off, time: 240, actual_time: 60000
type=note_on channel=0 note=40 velocity=95 time=0 actual_time=60000
type: note_off, time: 240, actual_time: 60240
type=note_on channel=0 note=40 velocity=95 time=0 actual_time=60240
type: note_off, time: 240, actual_time: 60480
type=note_on channel=0 note=47 velocity=95 time=0 actual_time=60480
type: note_off, time: 240, actual_time: 60720
type=note_on channel=0 note=48 velocity=70 time=0 actual_time=60720
type: note_off, time: 240, actual_time: 60960
type=note_on channel=0 note=47 velocity=70 time=0 actual_time=60960
type: note_off, time: 240, actual_time: 61200
type=note_on channel=0 note=45 velocity=70 time=0 actual_time=61200
type: note_off, time: 240, actual_time: 61440
type=note_on channel=0 note=50 velocity=95 time=0 actual_time=61440
type: note_off, time: 240, actual_time: 61680
type=note_on channel=0 note=52 velocity=70 time=0 actual_time=61680
type: note_off, time: 240, actual_time: 61920
type=note_on channel=0 note=40 velocity=95 time=0 actual_time=61920
type: note_off, time: 240, actual_time: 62160
type=note_on channel=0 note=40 velocity=95 time=0 actual_time=62160
type: note_off, time: 240, actual_time: 62400
type=note_on channel=0 note=40 velocity=95 time=0 actual_time=62400
type: note_off, time: 240, actual_time: 62640
type=note_on channel=0 note=40 velocity=95 time=0 actual_time=62640
type: note_off, time: 240, actual_time: 62880
type=note_on channel=0 note=40 velocity=95 time=0 actual_time=62880
type: note_off, time: 240, actual_time: 63120
type=note_on channel=0 note=48 velocity=95 time=0 actual_time=63120
type: note_off, time: 240, actual_time: 63360
type=note_on channel=0 note=40 velocity=95 time=0 actual_time=63360
type: note_off, time: 240, actual_time: 63600
type=note_on channel=0 note=47 velocity=95 time=0 actual_time=63600
type: note_off, time: 240, actual_time: 63840
type=note_on channel=0 note=40 velocity=95 time=0 actual_time=63840
type: note_off, time: 240, actual_time: 64080
type=note_on channel=0 note=40 velocity=95 time=0 actual_time=64080
type: note_off, time: 240, actual_time: 64320
type=note_on channel=0 note=47 velocity=95 time=0 actual_time=64320
type: note_off, time: 240, actual_time: 64560
type=note_on channel=0 note=40 velocity=95 time=0 actual_time=64560
type: note_off, time: 240, actual_time: 64800
type=note_on channel=0 note=48 velocity=95 time=0 actual_time=64800
type: note_off, time: 240, actual_time: 65040
type=note_on channel=0 note=40 velocity=95 time=0 actual_time=65040
type: note_off, time: 240, actual_time: 65280
type=note_on channel=0 note=50 velocity=95 time=0 actual_time=65280
type: note_off, time: 240, actual_time: 65520
type=note_on channel=0 note=52 velocity=70 time=0 actual_time=65520
type: note_off, time: 240, actual_time: 65760
type=note_on channel=0 note=40 velocity=95 time=0 actual_time=65760
type: note_off, time: 240, actual_time: 66000
type=note_on channel=0 note=40 velocity=95 time=0 actual_time=66000
type: note_off, time: 240, actual_time: 66240
type=note_on channel=0 note=40 velocity=95 time=0 actual_time=66240
type: note_off, time: 240, actual_time: 66480
type=note_on channel=0 note=40 velocity=95 time=0 actual_time=66480
type: note_off, time: 240, actual_time: 66720
type=note_on channel=0 note=40 velocity=95 time=0 actual_time=66720
type: note_off, time: 240, actual_time: 66960
type=note_on channel=0 note=48 velocity=95 time=0 actual_time=66960
type: note_off, time: 240, actual_time: 67200
type=note_on channel=0 note=40 velocity=95 time=0 actual_time=67200
type: note_off, time: 240, actual_time: 67440
type=note_on channel=0 note=47 velocity=95 time=0 actual_time=67440
type: note_off, time: 240, actual_time: 67680
type=note_on channel=0 note=40 velocity=95 time=0 actual_time=67680
type: note_off, time: 240, actual_time: 67920
type=note_on channel=0 note=40 velocity=95 time=0 actual_time=67920
type: note_off, time: 240, actual_time: 68160
type=note_on channel=0 note=47 velocity=95 time=0 actual_time=68160
type: note_off, time: 240, actual_time: 68400
type=note_on channel=0 note=48 velocity=70 time=0 actual_time=68400
type: note_off, time: 240, actual_time: 68640
type=note_on channel=0 note=47 velocity=70 time=0 actual_time=68640
type: note_off, time: 240, actual_time: 68880
type=note_on channel=0 note=45 velocity=70 time=0 actual_time=68880
type: note_off, time: 240, actual_time: 69120
type=note_on channel=0 note=50 velocity=95 time=0 actual_time=69120
type: note_off, time: 240, actual_time: 69360
type=note_on channel=0 note=52 velocity=70 time=0 actual_time=69360
type: note_off, time: 240, actual_time: 69600
type=note_on channel=0 note=40 velocity=95 time=0 actual_time=69600
type: note_off, time: 240, actual_time: 69840
type=note_on channel=0 note=40 velocity=95 time=0 actual_time=69840
type: note_off, time: 240, actual_time: 70080
type=note_on channel=0 note=40 velocity=95 time=0 actual_time=70080
type: note_off, time: 240, actual_time: 70320
type=note_on channel=0 note=40 velocity=95 time=0 actual_time=70320
type: note_off, time: 240, actual_time: 70560
type=note_on channel=0 note=40 velocity=95 time=0 actual_time=70560
type: note_off, time: 240, actual_time: 70800
type=note_on channel=0 note=48 velocity=95 time=0 actual_time=70800
type: note_off, time: 240, actual_time: 71040
type=note_on channel=0 note=40 velocity=95 time=0 actual_time=71040
type: note_off, time: 240, actual_time: 71280
type=note_on channel=0 note=47 velocity=95 time=0 actual_time=71280
type: note_off, time: 240, actual_time: 71520
type=note_on channel=0 note=40 velocity=95 time=0 actual_time=71520
type: note_off, time: 240, actual_time: 71760
type=note_on channel=0 note=40 velocity=95 time=0 actual_time=71760
type: note_off, time: 240, actual_time: 72000
type=note_on channel=0 note=47 velocity=95 time=0 actual_time=72000
type: note_off, time: 240, actual_time: 72240
type=note_on channel=0 note=40 velocity=95 time=0 actual_time=72240
type: note_off, time: 240, actual_time: 72480
type=note_on channel=0 note=48 velocity=95 time=0 actual_time=72480
type: note_off, time: 240, actual_time: 72720
type=note_on channel=0 note=40 velocity=95 time=0 actual_time=72720
type: note_off, time: 240, actual_time: 72960
type=note_on channel=0 note=50 velocity=95 time=0 actual_time=72960
type: note_off, time: 240, actual_time: 73200
type=note_on channel=0 note=52 velocity=70 time=0 actual_time=73200
type: note_off, time: 240, actual_time: 73440
type=note_on channel=0 note=40 velocity=95 time=0 actual_time=73440
type: note_off, time: 240, actual_time: 73680
type=note_on channel=0 note=40 velocity=95 time=0 actual_time=73680
type: note_off, time: 240, actual_time: 73920
type=note_on channel=0 note=40 velocity=95 time=0 actual_time=73920
type: note_off, time: 240, actual_time: 74160
type=note_on channel=0 note=40 velocity=95 time=0 actual_time=74160
type: note_off, time: 240, actual_time: 74400
type=note_on channel=0 note=40 velocity=95 time=0 actual_time=74400
type: note_off, time: 240, actual_time: 74640
type=note_on channel=0 note=48 velocity=95 time=0 actual_time=74640
type: note_off, time: 240, actual_time: 74880
type=note_on channel=0 note=40 velocity=95 time=0 actual_time=74880
type: note_off, time: 240, actual_time: 75120
type=note_on channel=0 note=47 velocity=95 time=0 actual_time=75120
type: note_off, time: 240, actual_time: 75360
type=note_on channel=0 note=40 velocity=95 time=0 actual_time=75360
type: note_off, time: 240, actual_time: 75600
type=note_on channel=0 note=40 velocity=95 time=0 actual_time=75600
type: note_off, time: 240, actual_time: 75840
type=note_on channel=0 note=47 velocity=95 time=0 actual_time=75840
type: note_off, time: 240, actual_time: 76080
type=note_on channel=0 note=48 velocity=70 time=0 actual_time=76080
type: note_off, time: 240, actual_time: 76320
type=note_on channel=0 note=47 velocity=70 time=0 actual_time=76320
type: note_off, time: 240, actual_time: 76560
type=note_on channel=0 note=45 velocity=70 time=0 actual_time=76560
type: note_off, time: 240, actual_time: 76800
type=note_on channel=0 note=64 velocity=95 time=0 actual_time=76800
type=note_on channel=0 note=59 velocity=95 time=0 actual_time=76800
type=note_on channel=0 note=52 velocity=95 time=0 actual_time=76800
type: note_off, time: 720, actual_time: 77520
type: note_off, time: 0, actual_time: 77520
type: note_off, time: 0, actual_time: 77520
type=note_on channel=0 note=64 velocity=95 time=0 actual_time=77520
type=note_on channel=0 note=59 velocity=95 time=0 actual_time=77520
type=note_on channel=0 note=52 velocity=95 time=0 actual_time=77520
type: note_off, time: 240, actual_time: 77760
type: note_off, time: 0, actual_time: 77760
type: note_off, time: 0, actual_time: 77760
type=note_on channel=0 note=64 velocity=95 time=0 actual_time=77760
type=note_on channel=0 note=59 velocity=95 time=0 actual_time=77760
type=note_on channel=0 note=52 velocity=95 time=0 actual_time=77760
type: note_off, time: 240, actual_time: 78000
type: note_off, time: 0, actual_time: 78000
type: note_off, time: 0, actual_time: 78000
type=note_on channel=0 note=64 velocity=95 time=0 actual_time=78000
type=note_on channel=0 note=59 velocity=95 time=0 actual_time=78000
type=note_on channel=0 note=52 velocity=95 time=0 actual_time=78000
type: note_off, time: 240, actual_time: 78240
type: note_off, time: 0, actual_time: 78240
type: note_off, time: 0, actual_time: 78240
type=note_on channel=0 note=64 velocity=95 time=0 actual_time=78240
type=note_on channel=0 note=59 velocity=95 time=0 actual_time=78240
type=note_on channel=0 note=52 velocity=95 time=0 actual_time=78240
type: note_off, time: 240, actual_time: 78480
type: note_off, time: 0, actual_time: 78480
type: note_off, time: 0, actual_time: 78480
type=note_on channel=0 note=67 velocity=95 time=0 actual_time=78480
type=note_on channel=0 note=62 velocity=95 time=0 actual_time=78480
type=note_on channel=0 note=55 velocity=95 time=0 actual_time=78480
type: note_off, time: 480, actual_time: 78960
type: note_off, time: 0, actual_time: 78960
type: note_off, time: 0, actual_time: 78960
type=note_on channel=0 note=67 velocity=95 time=0 actual_time=78960
type=note_on channel=0 note=62 velocity=95 time=0 actual_time=78960
type=note_on channel=0 note=55 velocity=95 time=0 actual_time=78960
type: note_off, time: 480, actual_time: 79440
type: note_off, time: 0, actual_time: 79440
type: note_off, time: 0, actual_time: 79440
type=note_on channel=0 note=66 velocity=95 time=0 actual_time=79440
type=note_on channel=0 note=61 velocity=95 time=0 actual_time=79440
type=note_on channel=0 note=54 velocity=95 time=0 actual_time=79440
type: note_off, time: 480, actual_time: 79920
type: note_off, time: 0, actual_time: 79920
type: note_off, time: 0, actual_time: 79920
type=note_on channel=0 note=66 velocity=95 time=0 actual_time=79920
type=note_on channel=0 note=61 velocity=95 time=0 actual_time=79920
type=note_on channel=0 note=54 velocity=95 time=0 actual_time=79920
type: note_off, time: 240, actual_time: 80160
type: note_off, time: 0, actual_time: 80160
type: note_off, time: 0, actual_time: 80160
type=note_on channel=0 note=64 velocity=95 time=0 actual_time=80160
type=note_on channel=0 note=59 velocity=95 time=0 actual_time=80160
type=note_on channel=0 note=52 velocity=95 time=0 actual_time=80160
type: note_off, time: 480, actual_time: 80640
type: note_off, time: 0, actual_time: 80640
type: note_off, time: 0, actual_time: 80640
type=note_on channel=0 note=60 velocity=95 time=0 actual_time=80640
type=note_on channel=0 note=55 velocity=95 time=0 actual_time=80640
type=note_on channel=0 note=48 velocity=95 time=0 actual_time=80640
type: note_off, time: 720, actual_time: 81360
type: note_off, time: 0, actual_time: 81360
type: note_off, time: 0, actual_time: 81360
type=note_on channel=0 note=60 velocity=95 time=0 actual_time=81360
type=note_on channel=0 note=55 velocity=95 time=0 actual_time=81360
type=note_on channel=0 note=48 velocity=95 time=0 actual_time=81360
type: note_off, time: 240, actual_time: 81600
type: note_off, time: 0, actual_time: 81600
type: note_off, time: 0, actual_time: 81600
type=note_on channel=0 note=60 velocity=95 time=0 actual_time=81600
type=note_on channel=0 note=55 velocity=95 time=0 actual_time=81600
type=note_on channel=0 note=48 velocity=95 time=0 actual_time=81600
type: note_off, time: 480, actual_time: 82080
type: note_off, time: 0, actual_time: 82080
type: note_off, time: 0, actual_time: 82080
type=note_on channel=0 note=59 velocity=95 time=0 actual_time=82080
type=note_on channel=0 note=54 velocity=95 time=0 actual_time=82080
type=note_on channel=0 note=47 velocity=95 time=0 actual_time=82080
type: note_off, time: 240, actual_time: 82320
type: note_off, time: 0, actual_time: 82320
type: note_off, time: 0, actual_time: 82320
type=note_on channel=0 note=59 velocity=95 time=0 actual_time=82320
type=note_on channel=0 note=54 velocity=95 time=0 actual_time=82320
type=note_on channel=0 note=47 velocity=95 time=0 actual_time=82320
type: note_off, time: 480, actual_time: 82800
type: note_off, time: 0, actual_time: 82800
type: note_off, time: 0, actual_time: 82800
type=note_on channel=0 note=59 velocity=95 time=0 actual_time=82800
type=note_on channel=0 note=54 velocity=95 time=0 actual_time=82800
type=note_on channel=0 note=47 velocity=95 time=0 actual_time=82800
type: note_off, time: 480, actual_time: 83280
type: note_off, time: 0, actual_time: 83280
type: note_off, time: 0, actual_time: 83280
type=note_on channel=0 note=60 velocity=95 time=0 actual_time=83280
type=note_on channel=0 note=55 velocity=95 time=0 actual_time=83280
type=note_on channel=0 note=48 velocity=95 time=0 actual_time=83280
type: note_off, time: 480, actual_time: 83760
type: note_off, time: 0, actual_time: 83760
type: note_off, time: 0, actual_time: 83760
type=note_on channel=0 note=60 velocity=95 time=0 actual_time=83760
type=note_on channel=0 note=55 velocity=95 time=0 actual_time=83760
type=note_on channel=0 note=48 velocity=95 time=0 actual_time=83760
type: note_off, time: 240, actual_time: 84000
type: note_off, time: 0, actual_time: 84000
type: note_off, time: 0, actual_time: 84000
type=note_on channel=0 note=62 velocity=95 time=0 actual_time=84000
type=note_on channel=0 note=57 velocity=95 time=0 actual_time=84000
type=note_on channel=0 note=50 velocity=95 time=0 actual_time=84000
type: note_off, time: 480, actual_time: 84480
type: note_off, time: 0, actual_time: 84480
type: note_off, time: 0, actual_time: 84480
type=note_on channel=0 note=64 velocity=95 time=0 actual_time=84480
type=note_on channel=0 note=59 velocity=95 time=0 actual_time=84480
type=note_on channel=0 note=52 velocity=95 time=0 actual_time=84480
type: note_off, time: 720, actual_time: 85200
type: note_off, time: 0, actual_time: 85200
type: note_off, time: 0, actual_time: 85200
type=note_on channel=0 note=64 velocity=95 time=0 actual_time=85200
type=note_on channel=0 note=59 velocity=95 time=0 actual_time=85200
type=note_on channel=0 note=52 velocity=95 time=0 actual_time=85200
type: note_off, time: 240, actual_time: 85440
type: note_off, time: 0, actual_time: 85440
type: note_off, time: 0, actual_time: 85440
type=note_on channel=0 note=64 velocity=95 time=0 actual_time=85440
type=note_on channel=0 note=59 velocity=95 time=0 actual_time=85440
type=note_on channel=0 note=52 velocity=95 time=0 actual_time=85440
type: note_off, time: 240, actual_time: 85680
type: note_off, time: 0, actual_time: 85680
type: note_off, time: 0, actual_time: 85680
type=note_on channel=0 note=64 velocity=95 time=0 actual_time=85680
type=note_on channel=0 note=59 velocity=95 time=0 actual_time=85680
type=note_on channel=0 note=52 velocity=95 time=0 actual_time=85680
type: note_off, time: 240, actual_time: 85920
type: note_off, time: 0, actual_time: 85920
type: note_off, time: 0, actual_time: 85920
type=note_on channel=0 note=64 velocity=95 time=0 actual_time=85920
type=note_on channel=0 note=59 velocity=95 time=0 actual_time=85920
type=note_on channel=0 note=52 velocity=95 time=0 actual_time=85920
type: note_off, time: 240, actual_time: 86160
type: note_off, time: 0, actual_time: 86160
type: note_off, time: 0, actual_time: 86160
type=note_on channel=0 note=67 velocity=95 time=0 actual_time=86160
type=note_on channel=0 note=62 velocity=95 time=0 actual_time=86160
type=note_on channel=0 note=55 velocity=95 time=0 actual_time=86160
type: note_off, time: 480, actual_time: 86640
type: note_off, time: 0, actual_time: 86640
type: note_off, time: 0, actual_time: 86640
type=note_on channel=0 note=67 velocity=95 time=0 actual_time=86640
type=note_on channel=0 note=62 velocity=95 time=0 actual_time=86640
type=note_on channel=0 note=55 velocity=95 time=0 actual_time=86640
type: note_off, time: 480, actual_time: 87120
type: note_off, time: 0, actual_time: 87120
type: note_off, time: 0, actual_time: 87120
type=note_on channel=0 note=66 velocity=95 time=0 actual_time=87120
type=note_on channel=0 note=61 velocity=95 time=0 actual_time=87120
type=note_on channel=0 note=54 velocity=95 time=0 actual_time=87120
type: note_off, time: 480, actual_time: 87600
type: note_off, time: 0, actual_time: 87600
type: note_off, time: 0, actual_time: 87600
type=note_on channel=0 note=66 velocity=95 time=0 actual_time=87600
type=note_on channel=0 note=61 velocity=95 time=0 actual_time=87600
type=note_on channel=0 note=54 velocity=95 time=0 actual_time=87600
type: note_off, time: 240, actual_time: 87840
type: note_off, time: 0, actual_time: 87840
type: note_off, time: 0, actual_time: 87840
type=note_on channel=0 note=69 velocity=95 time=0 actual_time=87840
type=note_on channel=0 note=64 velocity=95 time=0 actual_time=87840
type=note_on channel=0 note=57 velocity=95 time=0 actual_time=87840
type: note_off, time: 480, actual_time: 88320
type: note_off, time: 0, actual_time: 88320
type: note_off, time: 0, actual_time: 88320
type=note_on channel=0 note=60 velocity=95 time=0 actual_time=88320
type=note_on channel=0 note=55 velocity=95 time=0 actual_time=88320
type=note_on channel=0 note=48 velocity=95 time=0 actual_time=88320
type: note_off, time: 720, actual_time: 89040
type: note_off, time: 0, actual_time: 89040
type: note_off, time: 0, actual_time: 89040
type=note_on channel=0 note=60 velocity=95 time=0 actual_time=89040
type=note_on channel=0 note=55 velocity=95 time=0 actual_time=89040
type=note_on channel=0 note=48 velocity=95 time=0 actual_time=89040
type: note_off, time: 240, actual_time: 89280
type: note_off, time: 0, actual_time: 89280
type: note_off, time: 0, actual_time: 89280
type=note_on channel=0 note=60 velocity=95 time=0 actual_time=89280
type=note_on channel=0 note=55 velocity=95 time=0 actual_time=89280
type=note_on channel=0 note=48 velocity=95 time=0 actual_time=89280
type: note_off, time: 480, actual_time: 89760
type: note_off, time: 0, actual_time: 89760
type: note_off, time: 0, actual_time: 89760
type=note_on channel=0 note=59 velocity=95 time=0 actual_time=89760
type=note_on channel=0 note=54 velocity=95 time=0 actual_time=89760
type=note_on channel=0 note=47 velocity=95 time=0 actual_time=89760
type: note_off, time: 240, actual_time: 90000
type: note_off, time: 0, actual_time: 90000
type: note_off, time: 0, actual_time: 90000
type=note_on channel=0 note=59 velocity=95 time=0 actual_time=90000
type=note_on channel=0 note=54 velocity=95 time=0 actual_time=90000
type=note_on channel=0 note=47 velocity=95 time=0 actual_time=90000
type: note_off, time: 480, actual_time: 90480
type: note_off, time: 0, actual_time: 90480
type: note_off, time: 0, actual_time: 90480
type=note_on channel=0 note=59 velocity=95 time=0 actual_time=90480
type=note_on channel=0 note=54 velocity=95 time=0 actual_time=90480
type=note_on channel=0 note=47 velocity=95 time=0 actual_time=90480
type: note_off, time: 480, actual_time: 90960
type: note_off, time: 0, actual_time: 90960
type: note_off, time: 0, actual_time: 90960
type=note_on channel=0 note=60 velocity=95 time=0 actual_time=90960
type=note_on channel=0 note=55 velocity=95 time=0 actual_time=90960
type=note_on channel=0 note=48 velocity=95 time=0 actual_time=90960
type: note_off, time: 480, actual_time: 91440
type: note_off, time: 0, actual_time: 91440
type: note_off, time: 0, actual_time: 91440
type=note_on channel=0 note=60 velocity=95 time=0 actual_time=91440
type=note_on channel=0 note=55 velocity=95 time=0 actual_time=91440
type=note_on channel=0 note=48 velocity=95 time=0 actual_time=91440
type: note_off, time: 240, actual_time: 91680
type: note_off, time: 0, actual_time: 91680
type: note_off, time: 0, actual_time: 91680
type=note_on channel=0 note=62 velocity=95 time=0 actual_time=91680
type=note_on channel=0 note=57 velocity=95 time=0 actual_time=91680
type=note_on channel=0 note=50 velocity=95 time=0 actual_time=91680
type: note_off, time: 480, actual_time: 92160
type: note_off, time: 0, actual_time: 92160
type: note_off, time: 0, actual_time: 92160
type=note_on channel=1 note=52 velocity=95 time=0 actual_time=92160
type: note_off, time: 240, actual_time: 92400
type=note_on channel=0 note=40 velocity=95 time=0 actual_time=92400
type: note_off, time: 240, actual_time: 92640
type=note_on channel=0 note=40 velocity=95 time=0 actual_time=92640
type: note_off, time: 240, actual_time: 92880
type=note_on channel=0 note=47 velocity=95 time=0 actual_time=92880
type: note_off, time: 240, actual_time: 93120
type=note_on channel=0 note=40 velocity=95 time=0 actual_time=93120
type: note_off, time: 240, actual_time: 93360
type=note_on channel=0 note=40 velocity=95 time=0 actual_time=93360
type: note_off, time: 240, actual_time: 93600
type=note_on channel=0 note=48 velocity=95 time=0 actual_time=93600
type: note_off, time: 240, actual_time: 93840
type=note_on channel=0 note=40 velocity=95 time=0 actual_time=93840
type: note_off, time: 240, actual_time: 94080
type=note_on channel=0 note=40 velocity=95 time=0 actual_time=94080
type: note_off, time: 240, actual_time: 94320
type=note_on channel=0 note=52 velocity=95 time=0 actual_time=94320
type=note_on channel=0 note=45 velocity=95 time=0 actual_time=94320
type: note_off, time: 240, actual_time: 94560
type: note_off, time: 0, actual_time: 94560
type=note_on channel=0 note=40 velocity=95 time=0 actual_time=94560
type: note_off, time: 240, actual_time: 94800
type=note_on channel=0 note=40 velocity=95 time=0 actual_time=94800
type: note_off, time: 240, actual_time: 95040
type=note_on channel=0 note=54 velocity=95 time=0 actual_time=95040
type=note_on channel=0 note=47 velocity=95 time=0 actual_time=95040
type: note_off, time: 240, actual_time: 95280
type: note_off, time: 0, actual_time: 95280
type=note_on channel=0 note=40 velocity=95 time=0 actual_time=95280
type: note_off, time: 240, actual_time: 95520
type=note_on channel=0 note=55 velocity=95 time=0 actual_time=95520
type=note_on channel=0 note=48 velocity=95 time=0 actual_time=95520
type: note_off, time: 240, actual_time: 95760
type: note_off, time: 0, actual_time: 95760
type=note_on channel=0 note=40 velocity=95 time=0 actual_time=95760
type: note_off, time: 240, actual_time: 96000
type=note_on channel=1 note=52 velocity=95 time=0 actual_time=96000
type: note_off, time: 240, actual_time: 96240
type=note_on channel=0 note=40 velocity=95 time=0 actual_time=96240
type: note_off, time: 240, actual_time: 96480
type=note_on channel=0 note=40 velocity=95 time=0 actual_time=96480
type: note_off, time: 240, actual_time: 96720
type=note_on channel=0 note=47 velocity=95 time=0 actual_time=96720
type: note_off, time: 240, actual_time: 96960
type=note_on channel=0 note=40 velocity=95 time=0 actual_time=96960
type: note_off, time: 240, actual_time: 97200
type=note_on channel=0 note=40 velocity=95 time=0 actual_time=97200
type: note_off, time: 240, actual_time: 97440
type=note_on channel=0 note=48 velocity=95 time=0 actual_time=97440
type: note_off, time: 240, actual_time: 97680
type=note_on channel=0 note=40 velocity=95 time=0 actual_time=97680
type: note_off, time: 240, actual_time: 97920
type=note_on channel=0 note=40 velocity=95 time=0 actual_time=97920
type: note_off, time: 240, actual_time: 98160
type=note_on channel=0 note=52 velocity=95 time=0 actual_time=98160
type=note_on channel=0 note=45 velocity=95 time=0 actual_time=98160
type: note_off, time: 240, actual_time: 98400
type: note_off, time: 0, actual_time: 98400
type=note_on channel=0 note=40 velocity=95 time=0 actual_time=98400
type: note_off, time: 240, actual_time: 98640
type=note_on channel=0 note=40 velocity=95 time=0 actual_time=98640
type: note_off, time: 240, actual_time: 98880
type=note_on channel=1 note=54 velocity=95 time=0 actual_time=98880
type=note_on channel=1 note=47 velocity=95 time=0 actual_time=98880
type: pitchwheel, time: 120, actual_time: 99000
type: pitchwheel, time: 0, actual_time: 99000
type: pitchwheel, time: 120, actual_time: 99120
type: pitchwheel, time: 0, actual_time: 99120
type: note_off, time: 0, actual_time: 99120
type: pitchwheel, time: 0, actual_time: 99120
type: pitchwheel, time: 0, actual_time: 99120
type: note_off, time: 0, actual_time: 99120
type=note_on channel=1 note=55 velocity=95 time=0 actual_time=99120
type=note_on channel=1 note=48 velocity=95 time=0 actual_time=99120
type: pitchwheel, time: 120, actual_time: 99240
type: pitchwheel, time: 0, actual_time: 99240
type: pitchwheel, time: 120, actual_time: 99360
type: pitchwheel, time: 0, actual_time: 99360
type: note_off, time: 0, actual_time: 99360
type: pitchwheel, time: 0, actual_time: 99360
type: pitchwheel, time: 0, actual_time: 99360
type: note_off, time: 0, actual_time: 99360
type=note_on channel=0 note=54 velocity=95 time=0 actual_time=99360
type=note_on channel=1 note=47 velocity=95 time=0 actual_time=99360
type: note_off, time: 240, actual_time: 99600
type: note_off, time: 0, actual_time: 99600
type=note_on channel=0 note=40 velocity=95 time=0 actual_time=99600
type: note_off, time: 240, actual_time: 99840
type=note_on channel=1 note=52 velocity=95 time=0 actual_time=99840
type: note_off, time: 240, actual_time: 100080
type=note_on channel=0 note=40 velocity=95 time=0 actual_time=100080
type: note_off, time: 240, actual_time: 100320
type=note_on channel=0 note=40 velocity=95 time=0 actual_time=100320
type: note_off, time: 240, actual_time: 100560
type=note_on channel=0 note=47 velocity=95 time=0 actual_time=100560
type: note_off, time: 240, actual_time: 100800
type=note_on channel=0 note=40 velocity=95 time=0 actual_time=100800
type: note_off, time: 240, actual_time: 101040
type=note_on channel=0 note=40 velocity=95 time=0 actual_time=101040
type: note_off, time: 240, actual_time: 101280
type=note_on channel=0 note=48 velocity=95 time=0 actual_time=101280
type: note_off, time: 240, actual_time: 101520
type=note_on channel=0 note=40 velocity=95 time=0 actual_time=101520
type: note_off, time: 240, actual_time: 101760
type=note_on channel=0 note=40 velocity=95 time=0 actual_time=101760
type: note_off, time: 240, actual_time: 102000
type=note_on channel=0 note=52 velocity=95 time=0 actual_time=102000
type=note_on channel=0 note=45 velocity=95 time=0 actual_time=102000
type: note_off, time: 240, actual_time: 102240
type: note_off, time: 0, actual_time: 102240
type=note_on channel=0 note=40 velocity=95 time=0 actual_time=102240
type: note_off, time: 240, actual_time: 102480
type=note_on channel=0 note=40 velocity=95 time=0 actual_time=102480
type: note_off, time: 240, actual_time: 102720
type=note_on channel=0 note=54 velocity=95 time=0 actual_time=102720
type=note_on channel=0 note=47 velocity=95 time=0 actual_time=102720
type: note_off, time: 240, actual_time: 102960
type: note_off, time: 0, actual_time: 102960
type=note_on channel=0 note=40 velocity=95 time=0 actual_time=102960
type: note_off, time: 240, actual_time: 103200
type=note_on channel=0 note=55 velocity=95 time=0 actual_time=103200
type=note_on channel=0 note=48 velocity=95 time=0 actual_time=103200
type: note_off, time: 240, actual_time: 103440
type: note_off, time: 0, actual_time: 103440
type=note_on channel=0 note=40 velocity=95 time=0 actual_time=103440
type: note_off, time: 240, actual_time: 103680
type=note_on channel=0 note=52 velocity=95 time=0 actual_time=103680
type: note_off, time: 240, actual_time: 103920
type=note_on channel=0 note=40 velocity=95 time=0 actual_time=103920
type: note_off, time: 240, actual_time: 104160
type=note_on channel=0 note=40 velocity=95 time=0 actual_time=104160
type: note_off, time: 240, actual_time: 104400
type=note_on channel=0 note=47 velocity=95 time=0 actual_time=104400
type: note_off, time: 240, actual_time: 104640
type=note_on channel=0 note=40 velocity=95 time=0 actual_time=104640
type: note_off, time: 240, actual_time: 104880
type=note_on channel=0 note=40 velocity=95 time=0 actual_time=104880
type: note_off, time: 240, actual_time: 105120
type=note_on channel=0 note=48 velocity=95 time=0 actual_time=105120
type: note_off, time: 240, actual_time: 105360
type=note_on channel=0 note=40 velocity=95 time=0 actual_time=105360
type: note_off, time: 240, actual_time: 105600
type=note_on channel=0 note=60 velocity=95 time=0 actual_time=105600
type=note_on channel=0 note=55 velocity=95 time=0 actual_time=105600
type=note_on channel=0 note=48 velocity=95 time=0 actual_time=105600
type: note_off, time: 320, actual_time: 105920
type: note_off, time: 0, actual_time: 105920
type: note_off, time: 0, actual_time: 105920
type=note_on channel=0 note=60 velocity=95 time=0 actual_time=105920
type=note_on channel=0 note=55 velocity=95 time=0 actual_time=105920
type=note_on channel=0 note=48 velocity=95 time=0 actual_time=105920
type: note_off, time: 320, actual_time: 106240
type: note_off, time: 0, actual_time: 106240
type: note_off, time: 0, actual_time: 106240
type=note_on channel=0 note=60 velocity=95 time=0 actual_time=106240
type=note_on channel=0 note=55 velocity=95 time=0 actual_time=106240
type=note_on channel=0 note=48 velocity=95 time=0 actual_time=106240
type: note_off, time: 320, actual_time: 106560
type: note_off, time: 0, actual_time: 106560
type: note_off, time: 0, actual_time: 106560
type=note_on channel=1 note=60 velocity=95 time=0 actual_time=106560
type=note_on channel=1 note=55 velocity=95 time=0 actual_time=106560
type=note_on channel=1 note=48 velocity=95 time=0 actual_time=106560
type: pitchwheel, time: 120, actual_time: 106680
type: pitchwheel, time: 120, actual_time: 106800
type: pitchwheel, time: 120, actual_time: 106920
type: pitchwheel, time: 120, actual_time: 107040
type: pitchwheel, time: 120, actual_time: 107160
type: pitchwheel, time: 120, actual_time: 107280
type: pitchwheel, time: 120, actual_time: 107400
type: note_off, time: 120, actual_time: 107520
type: note_off, time: 0, actual_time: 107520
type: pitchwheel, time: 0, actual_time: 107520
type: pitchwheel, time: 0, actual_time: 107520
type: note_off, time: 0, actual_time: 107520
type=note_on channel=0 note=50 velocity=95 time=0 actual_time=107520
type: note_off, time: 240, actual_time: 107760
type=note_on channel=0 note=52 velocity=70 time=0 actual_time=107760
type: note_off, time: 240, actual_time: 108000
type=note_on channel=0 note=40 velocity=95 time=0 actual_time=108000
type: note_off, time: 240, actual_time: 108240
type=note_on channel=0 note=40 velocity=95 time=0 actual_time=108240
type: note_off, time: 240, actual_time: 108480
type=note_on channel=0 note=40 velocity=95 time=0 actual_time=108480
type: note_off, time: 240, actual_time: 108720
type=note_on channel=0 note=40 velocity=95 time=0 actual_time=108720
type: note_off, time: 240, actual_time: 108960
type=note_on channel=0 note=40 velocity=95 time=0 actual_time=108960
type: note_off, time: 240, actual_time: 109200
type=note_on channel=0 note=48 velocity=95 time=0 actual_time=109200
type: note_off, time: 240, actual_time: 109440
type=note_on channel=0 note=40 velocity=95 time=0 actual_time=109440
type: note_off, time: 240, actual_time: 109680
type=note_on channel=0 note=47 velocity=95 time=0 actual_time=109680
type: note_off, time: 240, actual_time: 109920
type=note_on channel=0 note=40 velocity=95 time=0 actual_time=109920
type: note_off, time: 240, actual_time: 110160
type=note_on channel=0 note=40 velocity=95 time=0 actual_time=110160
type: note_off, time: 240, actual_time: 110400
type=note_on channel=0 note=47 velocity=95 time=0 actual_time=110400
type: note_off, time: 240, actual_time: 110640
type=note_on channel=0 note=40 velocity=95 time=0 actual_time=110640
type: note_off, time: 240, actual_time: 110880
type=note_on channel=0 note=48 velocity=95 time=0 actual_time=110880
type: note_off, time: 240, actual_time: 111120
type=note_on channel=0 note=40 velocity=95 time=0 actual_time=111120
type: note_off, time: 240, actual_time: 111360
type=note_on channel=0 note=50 velocity=95 time=0 actual_time=111360
type: note_off, time: 240, actual_time: 111600
type=note_on channel=0 note=52 velocity=70 time=0 actual_time=111600
type: note_off, time: 240, actual_time: 111840
type=note_on channel=0 note=40 velocity=95 time=0 actual_time=111840
type: note_off, time: 240, actual_time: 112080
type=note_on channel=0 note=40 velocity=95 time=0 actual_time=112080
type: note_off, time: 240, actual_time: 112320
type=note_on channel=0 note=40 velocity=95 time=0 actual_time=112320
type: note_off, time: 240, actual_time: 112560
type=note_on channel=0 note=40 velocity=95 time=0 actual_time=112560
type: note_off, time: 240, actual_time: 112800
type=note_on channel=0 note=40 velocity=95 time=0 actual_time=112800
type: note_off, time: 240, actual_time: 113040
type=note_on channel=0 note=48 velocity=95 time=0 actual_time=113040
type: note_off, time: 240, actual_time: 113280
type=note_on channel=0 note=40 velocity=95 time=0 actual_time=113280
type: note_off, time: 240, actual_time: 113520
type=note_on channel=0 note=47 velocity=95 time=0 actual_time=113520
type: note_off, time: 240, actual_time: 113760
type=note_on channel=0 note=40 velocity=95 time=0 actual_time=113760
type: note_off, time: 240, actual_time: 114000
type=note_on channel=0 note=40 velocity=95 time=0 actual_time=114000
type: note_off, time: 240, actual_time: 114240
type=note_on channel=0 note=47 velocity=95 time=0 actual_time=114240
type: note_off, time: 240, actual_time: 114480
type=note_on channel=0 note=48 velocity=70 time=0 actual_time=114480
type: note_off, time: 240, actual_time: 114720
type=note_on channel=0 note=47 velocity=70 time=0 actual_time=114720
type: note_off, time: 240, actual_time: 114960
type=note_on channel=0 note=45 velocity=70 time=0 actual_time=114960
type: note_off, time: 240, actual_time: 115200
type=note_on channel=0 note=50 velocity=95 time=0 actual_time=115200
type: note_off, time: 240, actual_time: 115440
type=note_on channel=0 note=52 velocity=70 time=0 actual_time=115440
type: note_off, time: 240, actual_time: 115680
type=note_on channel=0 note=40 velocity=95 time=0 actual_time=115680
type: note_off, time: 240, actual_time: 115920
type=note_on channel=0 note=40 velocity=95 time=0 actual_time=115920
type: note_off, time: 240, actual_time: 116160
type=note_on channel=0 note=40 velocity=95 time=0 actual_time=116160
type: note_off, time: 240, actual_time: 116400
type=note_on channel=0 note=40 velocity=95 time=0 actual_time=116400
type: note_off, time: 240, actual_time: 116640
type=note_on channel=0 note=40 velocity=95 time=0 actual_time=116640
type: note_off, time: 240, actual_time: 116880
type=note_on channel=0 note=48 velocity=95 time=0 actual_time=116880
type: note_off, time: 240, actual_time: 117120
type=note_on channel=0 note=40 velocity=95 time=0 actual_time=117120
type: note_off, time: 240, actual_time: 117360
type=note_on channel=0 note=47 velocity=95 time=0 actual_time=117360
type: note_off, time: 240, actual_time: 117600
type=note_on channel=0 note=40 velocity=95 time=0 actual_time=117600
type: note_off, time: 240, actual_time: 117840
type=note_on channel=0 note=40 velocity=95 time=0 actual_time=117840
type: note_off, time: 240, actual_time: 118080
type=note_on channel=0 note=47 velocity=95 time=0 actual_time=118080
type: note_off, time: 240, actual_time: 118320
type=note_on channel=0 note=40 velocity=95 time=0 actual_time=118320
type: note_off, time: 240, actual_time: 118560
type=note_on channel=0 note=48 velocity=95 time=0 actual_time=118560
type: note_off, time: 240, actual_time: 118800
type=note_on channel=0 note=40 velocity=95 time=0 actual_time=118800
type: note_off, time: 240, actual_time: 119040
type=note_on channel=0 note=50 velocity=95 time=0 actual_time=119040
type: note_off, time: 240, actual_time: 119280
type=note_on channel=0 note=52 velocity=70 time=0 actual_time=119280
type: note_off, time: 240, actual_time: 119520
type=note_on channel=0 note=40 velocity=95 time=0 actual_time=119520
type: note_off, time: 240, actual_time: 119760
type=note_on channel=0 note=40 velocity=95 time=0 actual_time=119760
type: note_off, time: 240, actual_time: 120000
type=note_on channel=0 note=40 velocity=95 time=0 actual_time=120000
type: note_off, time: 240, actual_time: 120240
type=note_on channel=0 note=40 velocity=95 time=0 actual_time=120240
type: note_off, time: 240, actual_time: 120480
type=note_on channel=0 note=40 velocity=95 time=0 actual_time=120480
type: note_off, time: 240, actual_time: 120720
type=note_on channel=0 note=48 velocity=95 time=0 actual_time=120720
type: note_off, time: 240, actual_time: 120960
type=note_on channel=0 note=40 velocity=95 time=0 actual_time=120960
type: note_off, time: 240, actual_time: 121200
type=note_on channel=0 note=47 velocity=95 time=0 actual_time=121200
type: note_off, time: 240, actual_time: 121440
type=note_on channel=0 note=40 velocity=95 time=0 actual_time=121440
type: note_off, time: 240, actual_time: 121680
type=note_on channel=0 note=40 velocity=95 time=0 actual_time=121680
type: note_off, time: 240, actual_time: 121920
type=note_on channel=0 note=47 velocity=95 time=0 actual_time=121920
type: note_off, time: 240, actual_time: 122160
type=note_on channel=0 note=48 velocity=70 time=0 actual_time=122160
type: note_off, time: 240, actual_time: 122400
type=note_on channel=0 note=47 velocity=70 time=0 actual_time=122400
type: note_off, time: 240, actual_time: 122640
type=note_on channel=0 note=45 velocity=70 time=0 actual_time=122640
type: note_off, time: 240, actual_time: 122880
type=note_on channel=0 note=50 velocity=95 time=0 actual_time=122880
type: note_off, time: 240, actual_time: 123120
type=note_on channel=0 note=52 velocity=70 time=0 actual_time=123120
type: note_off, time: 240, actual_time: 123360
type=note_on channel=0 note=40 velocity=95 time=0 actual_time=123360
type: note_off, time: 240, actual_time: 123600
type=note_on channel=0 note=40 velocity=95 time=0 actual_time=123600
type: note_off, time: 240, actual_time: 123840
type=note_on channel=0 note=40 velocity=95 time=0 actual_time=123840
type: note_off, time: 240, actual_time: 124080
type=note_on channel=0 note=40 velocity=95 time=0 actual_time=124080
type: note_off, time: 240, actual_time: 124320
type=note_on channel=0 note=40 velocity=95 time=0 actual_time=124320
type: note_off, time: 240, actual_time: 124560
type=note_on channel=0 note=48 velocity=95 time=0 actual_time=124560
type: note_off, time: 240, actual_time: 124800
type=note_on channel=0 note=40 velocity=95 time=0 actual_time=124800
type: note_off, time: 240, actual_time: 125040
type=note_on channel=0 note=47 velocity=95 time=0 actual_time=125040
type: note_off, time: 240, actual_time: 125280
type=note_on channel=0 note=40 velocity=95 time=0 actual_time=125280
type: note_off, time: 240, actual_time: 125520
type=note_on channel=0 note=40 velocity=95 time=0 actual_time=125520
type: note_off, time: 240, actual_time: 125760
type=note_on channel=0 note=47 velocity=95 time=0 actual_time=125760
type: note_off, time: 240, actual_time: 126000
type=note_on channel=0 note=40 velocity=95 time=0 actual_time=126000
type: note_off, time: 240, actual_time: 126240
type=note_on channel=0 note=48 velocity=95 time=0 actual_time=126240
type: note_off, time: 240, actual_time: 126480
type=note_on channel=0 note=40 velocity=95 time=0 actual_time=126480
type: note_off, time: 240, actual_time: 126720
type=note_on channel=0 note=50 velocity=95 time=0 actual_time=126720
type: note_off, time: 240, actual_time: 126960
type=note_on channel=0 note=52 velocity=70 time=0 actual_time=126960
type: note_off, time: 240, actual_time: 127200
type=note_on channel=0 note=40 velocity=95 time=0 actual_time=127200
type: note_off, time: 240, actual_time: 127440
type=note_on channel=0 note=40 velocity=95 time=0 actual_time=127440
type: note_off, time: 240, actual_time: 127680
type=note_on channel=0 note=40 velocity=95 time=0 actual_time=127680
type: note_off, time: 240, actual_time: 127920
type=note_on channel=0 note=40 velocity=95 time=0 actual_time=127920
type: note_off, time: 240, actual_time: 128160
type=note_on channel=0 note=40 velocity=95 time=0 actual_time=128160
type: note_off, time: 240, actual_time: 128400
type=note_on channel=0 note=48 velocity=95 time=0 actual_time=128400
type: note_off, time: 240, actual_time: 128640
type=note_on channel=0 note=40 velocity=95 time=0 actual_time=128640
type: note_off, time: 240, actual_time: 128880
type=note_on channel=0 note=47 velocity=95 time=0 actual_time=128880
type: note_off, time: 240, actual_time: 129120
type=note_on channel=0 note=40 velocity=95 time=0 actual_time=129120
type: note_off, time: 240, actual_time: 129360
type=note_on channel=0 note=40 velocity=95 time=0 actual_time=129360
type: note_off, time: 240, actual_time: 129600
type=note_on channel=0 note=47 velocity=95 time=0 actual_time=129600
type: note_off, time: 240, actual_time: 129840
type=note_on channel=0 note=48 velocity=70 time=0 actual_time=129840
type: note_off, time: 240, actual_time: 130080
type=note_on channel=0 note=47 velocity=70 time=0 actual_time=130080
type: note_off, time: 240, actual_time: 130320
type=note_on channel=0 note=45 velocity=70 time=0 actual_time=130320
type: note_off, time: 240, actual_time: 130560
type=note_on channel=0 note=50 velocity=95 time=0 actual_time=130560
type: note_off, time: 240, actual_time: 130800
type=note_on channel=0 note=52 velocity=70 time=0 actual_time=130800
type: note_off, time: 240, actual_time: 131040
type=note_on channel=0 note=40 velocity=95 time=0 actual_time=131040
type: note_off, time: 240, actual_time: 131280
type=note_on channel=0 note=40 velocity=95 time=0 actual_time=131280
type: note_off, time: 240, actual_time: 131520
type=note_on channel=0 note=40 velocity=95 time=0 actual_time=131520
type: note_off, time: 240, actual_time: 131760
type=note_on channel=0 note=40 velocity=95 time=0 actual_time=131760
type: note_off, time: 240, actual_time: 132000
type=note_on channel=0 note=40 velocity=95 time=0 actual_time=132000
type: note_off, time: 240, actual_time: 132240
type=note_on channel=0 note=48 velocity=95 time=0 actual_time=132240
type: note_off, time: 240, actual_time: 132480
type=note_on channel=0 note=40 velocity=95 time=0 actual_time=132480
type: note_off, time: 240, actual_time: 132720
type=note_on channel=0 note=47 velocity=95 time=0 actual_time=132720
type: note_off, time: 240, actual_time: 132960
type=note_on channel=0 note=40 velocity=95 time=0 actual_time=132960
type: note_off, time: 240, actual_time: 133200
type=note_on channel=0 note=40 velocity=95 time=0 actual_time=133200
type: note_off, time: 240, actual_time: 133440
type=note_on channel=0 note=47 velocity=95 time=0 actual_time=133440
type: note_off, time: 240, actual_time: 133680
type=note_on channel=0 note=40 velocity=95 time=0 actual_time=133680
type: note_off, time: 240, actual_time: 133920
type=note_on channel=0 note=48 velocity=95 time=0 actual_time=133920
type: note_off, time: 240, actual_time: 134160
type=note_on channel=0 note=40 velocity=95 time=0 actual_time=134160
type: note_off, time: 240, actual_time: 134400
type=note_on channel=0 note=50 velocity=95 time=0 actual_time=134400
type: note_off, time: 240, actual_time: 134640
type=note_on channel=0 note=52 velocity=70 time=0 actual_time=134640
type: note_off, time: 240, actual_time: 134880
type=note_on channel=0 note=40 velocity=95 time=0 actual_time=134880
type: note_off, time: 240, actual_time: 135120
type=note_on channel=0 note=40 velocity=95 time=0 actual_time=135120
type: note_off, time: 240, actual_time: 135360
type=note_on channel=0 note=40 velocity=95 time=0 actual_time=135360
type: note_off, time: 240, actual_time: 135600
type=note_on channel=0 note=40 velocity=95 time=0 actual_time=135600
type: note_off, time: 240, actual_time: 135840
type=note_on channel=0 note=40 velocity=95 time=0 actual_time=135840
type: note_off, time: 240, actual_time: 136080
type=note_on channel=0 note=48 velocity=95 time=0 actual_time=136080
type: note_off, time: 240, actual_time: 136320
type=note_on channel=0 note=40 velocity=95 time=0 actual_time=136320
type: note_off, time: 240, actual_time: 136560
type=note_on channel=0 note=47 velocity=95 time=0 actual_time=136560
type: note_off, time: 240, actual_time: 136800
type=note_on channel=0 note=40 velocity=95 time=0 actual_time=136800
type: note_off, time: 240, actual_time: 137040
type=note_on channel=0 note=40 velocity=95 time=0 actual_time=137040
type: note_off, time: 240, actual_time: 137280
type=note_on channel=0 note=47 velocity=95 time=0 actual_time=137280
type: note_off, time: 240, actual_time: 137520
type=note_on channel=0 note=48 velocity=70 time=0 actual_time=137520
type: note_off, time: 240, actual_time: 137760
type=note_on channel=0 note=47 velocity=70 time=0 actual_time=137760
type: note_off, time: 240, actual_time: 138000
type=note_on channel=0 note=45 velocity=70 time=0 actual_time=138000
type: note_off, time: 240, actual_time: 138240
type=note_on channel=0 note=64 velocity=95 time=0 actual_time=138240
type=note_on channel=0 note=59 velocity=95 time=0 actual_time=138240
type=note_on channel=0 note=52 velocity=95 time=0 actual_time=138240
type: note_off, time: 720, actual_time: 138960
type: note_off, time: 0, actual_time: 138960
type: note_off, time: 0, actual_time: 138960
type=note_on channel=0 note=64 velocity=95 time=0 actual_time=138960
type=note_on channel=0 note=59 velocity=95 time=0 actual_time=138960
type=note_on channel=0 note=52 velocity=95 time=0 actual_time=138960
type: note_off, time: 240, actual_time: 139200
type: note_off, time: 0, actual_time: 139200
type: note_off, time: 0, actual_time: 139200
type=note_on channel=0 note=64 velocity=95 time=0 actual_time=139200
type=note_on channel=0 note=59 velocity=95 time=0 actual_time=139200
type=note_on channel=0 note=52 velocity=95 time=0 actual_time=139200
type: note_off, time: 240, actual_time: 139440
type: note_off, time: 0, actual_time: 139440
type: note_off, time: 0, actual_time: 139440
type=note_on channel=0 note=64 velocity=95 time=0 actual_time=139440
type=note_on channel=0 note=59 velocity=95 time=0 actual_time=139440
type=note_on channel=0 note=52 velocity=95 time=0 actual_time=139440
type: note_off, time: 240, actual_time: 139680
type: note_off, time: 0, actual_time: 139680
type: note_off, time: 0, actual_time: 139680
type=note_on channel=0 note=64 velocity=95 time=0 actual_time=139680
type=note_on channel=0 note=59 velocity=95 time=0 actual_time=139680
type=note_on channel=0 note=52 velocity=95 time=0 actual_time=139680
type: note_off, time: 240, actual_time: 139920
type: note_off, time: 0, actual_time: 139920
type: note_off, time: 0, actual_time: 139920
type=note_on channel=0 note=67 velocity=95 time=0 actual_time=139920
type=note_on channel=0 note=62 velocity=95 time=0 actual_time=139920
type=note_on channel=0 note=55 velocity=95 time=0 actual_time=139920
type: note_off, time: 480, actual_time: 140400
type: note_off, time: 0, actual_time: 140400
type: note_off, time: 0, actual_time: 140400
type=note_on channel=0 note=67 velocity=95 time=0 actual_time=140400
type=note_on channel=0 note=62 velocity=95 time=0 actual_time=140400
type=note_on channel=0 note=55 velocity=95 time=0 actual_time=140400
type: note_off, time: 480, actual_time: 140880
type: note_off, time: 0, actual_time: 140880
type: note_off, time: 0, actual_time: 140880
type=note_on channel=0 note=66 velocity=95 time=0 actual_time=140880
type=note_on channel=0 note=61 velocity=95 time=0 actual_time=140880
type=note_on channel=0 note=54 velocity=95 time=0 actual_time=140880
type: note_off, time: 480, actual_time: 141360
type: note_off, time: 0, actual_time: 141360
type: note_off, time: 0, actual_time: 141360
type=note_on channel=0 note=66 velocity=95 time=0 actual_time=141360
type=note_on channel=0 note=61 velocity=95 time=0 actual_time=141360
type=note_on channel=0 note=54 velocity=95 time=0 actual_time=141360
type: note_off, time: 240, actual_time: 141600
type: note_off, time: 0, actual_time: 141600
type: note_off, time: 0, actual_time: 141600
type=note_on channel=0 note=64 velocity=95 time=0 actual_time=141600
type=note_on channel=0 note=59 velocity=95 time=0 actual_time=141600
type=note_on channel=0 note=52 velocity=95 time=0 actual_time=141600
type: note_off, time: 480, actual_time: 142080
type: note_off, time: 0, actual_time: 142080
type: note_off, time: 0, actual_time: 142080
type=note_on channel=0 note=60 velocity=95 time=0 actual_time=142080
type=note_on channel=0 note=55 velocity=95 time=0 actual_time=142080
type=note_on channel=0 note=48 velocity=95 time=0 actual_time=142080
type: note_off, time: 720, actual_time: 142800
type: note_off, time: 0, actual_time: 142800
type: note_off, time: 0, actual_time: 142800
type=note_on channel=0 note=60 velocity=95 time=0 actual_time=142800
type=note_on channel=0 note=55 velocity=95 time=0 actual_time=142800
type=note_on channel=0 note=48 velocity=95 time=0 actual_time=142800
type: note_off, time: 240, actual_time: 143040
type: note_off, time: 0, actual_time: 143040
type: note_off, time: 0, actual_time: 143040
type=note_on channel=0 note=60 velocity=95 time=0 actual_time=143040
type=note_on channel=0 note=55 velocity=95 time=0 actual_time=143040
type=note_on channel=0 note=48 velocity=95 time=0 actual_time=143040
type: note_off, time: 480, actual_time: 143520
type: note_off, time: 0, actual_time: 143520
type: note_off, time: 0, actual_time: 143520
type=note_on channel=0 note=59 velocity=95 time=0 actual_time=143520
type=note_on channel=0 note=54 velocity=95 time=0 actual_time=143520
type=note_on channel=0 note=47 velocity=95 time=0 actual_time=143520
type: note_off, time: 240, actual_time: 143760
type: note_off, time: 0, actual_time: 143760
type: note_off, time: 0, actual_time: 143760
type=note_on channel=0 note=59 velocity=95 time=0 actual_time=143760
type=note_on channel=0 note=54 velocity=95 time=0 actual_time=143760
type=note_on channel=0 note=47 velocity=95 time=0 actual_time=143760
type: note_off, time: 480, actual_time: 144240
type: note_off, time: 0, actual_time: 144240
type: note_off, time: 0, actual_time: 144240
type=note_on channel=0 note=59 velocity=95 time=0 actual_time=144240
type=note_on channel=0 note=54 velocity=95 time=0 actual_time=144240
type=note_on channel=0 note=47 velocity=95 time=0 actual_time=144240
type: note_off, time: 480, actual_time: 144720
type: note_off, time: 0, actual_time: 144720
type: note_off, time: 0, actual_time: 144720
type=note_on channel=0 note=60 velocity=95 time=0 actual_time=144720
type=note_on channel=0 note=55 velocity=95 time=0 actual_time=144720
type=note_on channel=0 note=48 velocity=95 time=0 actual_time=144720
type: note_off, time: 480, actual_time: 145200
type: note_off, time: 0, actual_time: 145200
type: note_off, time: 0, actual_time: 145200
type=note_on channel=0 note=60 velocity=95 time=0 actual_time=145200
type=note_on channel=0 note=55 velocity=95 time=0 actual_time=145200
type=note_on channel=0 note=48 velocity=95 time=0 actual_time=145200
type: note_off, time: 240, actual_time: 145440
type: note_off, time: 0, actual_time: 145440
type: note_off, time: 0, actual_time: 145440
type=note_on channel=0 note=62 velocity=95 time=0 actual_time=145440
type=note_on channel=0 note=57 velocity=95 time=0 actual_time=145440
type=note_on channel=0 note=50 velocity=95 time=0 actual_time=145440
type: note_off, time: 480, actual_time: 145920
type: note_off, time: 0, actual_time: 145920
type: note_off, time: 0, actual_time: 145920
type=note_on channel=0 note=64 velocity=95 time=0 actual_time=145920
type=note_on channel=0 note=59 velocity=95 time=0 actual_time=145920
type=note_on channel=0 note=52 velocity=95 time=0 actual_time=145920
type: note_off, time: 720, actual_time: 146640
type: note_off, time: 0, actual_time: 146640
type: note_off, time: 0, actual_time: 146640
type=note_on channel=0 note=64 velocity=95 time=0 actual_time=146640
type=note_on channel=0 note=59 velocity=95 time=0 actual_time=146640
type=note_on channel=0 note=52 velocity=95 time=0 actual_time=146640
type: note_off, time: 240, actual_time: 146880
type: note_off, time: 0, actual_time: 146880
type: note_off, time: 0, actual_time: 146880
type=note_on channel=0 note=64 velocity=95 time=0 actual_time=146880
type=note_on channel=0 note=59 velocity=95 time=0 actual_time=146880
type=note_on channel=0 note=52 velocity=95 time=0 actual_time=146880
type: note_off, time: 240, actual_time: 147120
type: note_off, time: 0, actual_time: 147120
type: note_off, time: 0, actual_time: 147120
type=note_on channel=0 note=64 velocity=95 time=0 actual_time=147120
type=note_on channel=0 note=59 velocity=95 time=0 actual_time=147120
type=note_on channel=0 note=52 velocity=95 time=0 actual_time=147120
type: note_off, time: 240, actual_time: 147360
type: note_off, time: 0, actual_time: 147360
type: note_off, time: 0, actual_time: 147360
type=note_on channel=0 note=64 velocity=95 time=0 actual_time=147360
type=note_on channel=0 note=59 velocity=95 time=0 actual_time=147360
type=note_on channel=0 note=52 velocity=95 time=0 actual_time=147360
type: note_off, time: 240, actual_time: 147600
type: note_off, time: 0, actual_time: 147600
type: note_off, time: 0, actual_time: 147600
type=note_on channel=0 note=67 velocity=95 time=0 actual_time=147600
type=note_on channel=0 note=62 velocity=95 time=0 actual_time=147600
type=note_on channel=0 note=55 velocity=95 time=0 actual_time=147600
type: note_off, time: 480, actual_time: 148080
type: note_off, time: 0, actual_time: 148080
type: note_off, time: 0, actual_time: 148080
type=note_on channel=0 note=67 velocity=95 time=0 actual_time=148080
type=note_on channel=0 note=62 velocity=95 time=0 actual_time=148080
type=note_on channel=0 note=55 velocity=95 time=0 actual_time=148080
type: note_off, time: 480, actual_time: 148560
type: note_off, time: 0, actual_time: 148560
type: note_off, time: 0, actual_time: 148560
type=note_on channel=0 note=66 velocity=95 time=0 actual_time=148560
type=note_on channel=0 note=61 velocity=95 time=0 actual_time=148560
type=note_on channel=0 note=54 velocity=95 time=0 actual_time=148560
type: note_off, time: 480, actual_time: 149040
type: note_off, time: 0, actual_time: 149040
type: note_off, time: 0, actual_time: 149040
type=note_on channel=0 note=66 velocity=95 time=0 actual_time=149040
type=note_on channel=0 note=61 velocity=95 time=0 actual_time=149040
type=note_on channel=0 note=54 velocity=95 time=0 actual_time=149040
type: note_off, time: 240, actual_time: 149280
type: note_off, time: 0, actual_time: 149280
type: note_off, time: 0, actual_time: 149280
type=note_on channel=0 note=69 velocity=95 time=0 actual_time=149280
type=note_on channel=0 note=64 velocity=95 time=0 actual_time=149280
type=note_on channel=0 note=57 velocity=95 time=0 actual_time=149280
type: note_off, time: 480, actual_time: 149760
type: note_off, time: 0, actual_time: 149760
type: note_off, time: 0, actual_time: 149760
type=note_on channel=0 note=60 velocity=95 time=0 actual_time=149760
type=note_on channel=0 note=55 velocity=95 time=0 actual_time=149760
type=note_on channel=0 note=48 velocity=95 time=0 actual_time=149760
type: note_off, time: 720, actual_time: 150480
type: note_off, time: 0, actual_time: 150480
type: note_off, time: 0, actual_time: 150480
type=note_on channel=0 note=60 velocity=95 time=0 actual_time=150480
type=note_on channel=0 note=55 velocity=95 time=0 actual_time=150480
type=note_on channel=0 note=48 velocity=95 time=0 actual_time=150480
type: note_off, time: 240, actual_time: 150720
type: note_off, time: 0, actual_time: 150720
type: note_off, time: 0, actual_time: 150720
type=note_on channel=0 note=60 velocity=95 time=0 actual_time=150720
type=note_on channel=0 note=55 velocity=95 time=0 actual_time=150720
type=note_on channel=0 note=48 velocity=95 time=0 actual_time=150720
type: note_off, time: 480, actual_time: 151200
type: note_off, time: 0, actual_time: 151200
type: note_off, time: 0, actual_time: 151200
type=note_on channel=0 note=59 velocity=95 time=0 actual_time=151200
type=note_on channel=0 note=54 velocity=95 time=0 actual_time=151200
type=note_on channel=0 note=47 velocity=95 time=0 actual_time=151200
type: note_off, time: 240, actual_time: 151440
type: note_off, time: 0, actual_time: 151440
type: note_off, time: 0, actual_time: 151440
type=note_on channel=0 note=59 velocity=95 time=0 actual_time=151440
type=note_on channel=0 note=54 velocity=95 time=0 actual_time=151440
type=note_on channel=0 note=47 velocity=95 time=0 actual_time=151440
type: note_off, time: 480, actual_time: 151920
type: note_off, time: 0, actual_time: 151920
type: note_off, time: 0, actual_time: 151920
type=note_on channel=0 note=59 velocity=95 time=0 actual_time=151920
type=note_on channel=0 note=54 velocity=95 time=0 actual_time=151920
type=note_on channel=0 note=47 velocity=95 time=0 actual_time=151920
type: note_off, time: 480, actual_time: 152400
type: note_off, time: 0, actual_time: 152400
type: note_off, time: 0, actual_time: 152400
type=note_on channel=0 note=60 velocity=95 time=0 actual_time=152400
type=note_on channel=0 note=55 velocity=95 time=0 actual_time=152400
type=note_on channel=0 note=48 velocity=95 time=0 actual_time=152400
type: note_off, time: 480, actual_time: 152880
type: note_off, time: 0, actual_time: 152880
type: note_off, time: 0, actual_time: 152880
type=note_on channel=0 note=60 velocity=95 time=0 actual_time=152880
type=note_on channel=0 note=55 velocity=95 time=0 actual_time=152880
type=note_on channel=0 note=48 velocity=95 time=0 actual_time=152880
type: note_off, time: 240, actual_time: 153120
type: note_off, time: 0, actual_time: 153120
type: note_off, time: 0, actual_time: 153120
type=note_on channel=0 note=62 velocity=95 time=0 actual_time=153120
type=note_on channel=0 note=57 velocity=95 time=0 actual_time=153120
type=note_on channel=0 note=50 velocity=95 time=0 actual_time=153120
type: note_off, time: 480, actual_time: 153600
type: note_off, time: 0, actual_time: 153600
type: note_off, time: 0, actual_time: 153600
type=note_on channel=0 note=64 velocity=95 time=0 actual_time=153600
type=note_on channel=0 note=59 velocity=95 time=0 actual_time=153600
type=note_on channel=0 note=52 velocity=95 time=0 actual_time=153600
type: note_off, time: 720, actual_time: 154320
type: note_off, time: 0, actual_time: 154320
type: note_off, time: 0, actual_time: 154320
type=note_on channel=0 note=64 velocity=95 time=0 actual_time=154320
type=note_on channel=0 note=59 velocity=95 time=0 actual_time=154320
type=note_on channel=0 note=52 velocity=95 time=0 actual_time=154320
type: note_off, time: 240, actual_time: 154560
type: note_off, time: 0, actual_time: 154560
type: note_off, time: 0, actual_time: 154560
type=note_on channel=0 note=64 velocity=95 time=0 actual_time=154560
type=note_on channel=0 note=59 velocity=95 time=0 actual_time=154560
type=note_on channel=0 note=52 velocity=95 time=0 actual_time=154560
type: note_off, time: 240, actual_time: 154800
type: note_off, time: 0, actual_time: 154800
type: note_off, time: 0, actual_time: 154800
type=note_on channel=0 note=64 velocity=95 time=0 actual_time=154800
type=note_on channel=0 note=59 velocity=95 time=0 actual_time=154800
type=note_on channel=0 note=52 velocity=95 time=0 actual_time=154800
type: note_off, time: 240, actual_time: 155040
type: note_off, time: 0, actual_time: 155040
type: note_off, time: 0, actual_time: 155040
type=note_on channel=0 note=64 velocity=95 time=0 actual_time=155040
type=note_on channel=0 note=59 velocity=95 time=0 actual_time=155040
type=note_on channel=0 note=52 velocity=95 time=0 actual_time=155040
type: note_off, time: 240, actual_time: 155280
type: note_off, time: 0, actual_time: 155280
type: note_off, time: 0, actual_time: 155280
type=note_on channel=0 note=67 velocity=95 time=0 actual_time=155280
type=note_on channel=0 note=62 velocity=95 time=0 actual_time=155280
type=note_on channel=0 note=55 velocity=95 time=0 actual_time=155280
type: note_off, time: 480, actual_time: 155760
type: note_off, time: 0, actual_time: 155760
type: note_off, time: 0, actual_time: 155760
type=note_on channel=0 note=67 velocity=95 time=0 actual_time=155760
type=note_on channel=0 note=62 velocity=95 time=0 actual_time=155760
type=note_on channel=0 note=55 velocity=95 time=0 actual_time=155760
type: note_off, time: 480, actual_time: 156240
type: note_off, time: 0, actual_time: 156240
type: note_off, time: 0, actual_time: 156240
type=note_on channel=0 note=66 velocity=95 time=0 actual_time=156240
type=note_on channel=0 note=61 velocity=95 time=0 actual_time=156240
type=note_on channel=0 note=54 velocity=95 time=0 actual_time=156240
type: note_off, time: 480, actual_time: 156720
type: note_off, time: 0, actual_time: 156720
type: note_off, time: 0, actual_time: 156720
type=note_on channel=0 note=66 velocity=95 time=0 actual_time=156720
type=note_on channel=0 note=61 velocity=95 time=0 actual_time=156720
type=note_on channel=0 note=54 velocity=95 time=0 actual_time=156720
type: note_off, time: 240, actual_time: 156960
type: note_off, time: 0, actual_time: 156960
type: note_off, time: 0, actual_time: 156960
type=note_on channel=0 note=64 velocity=95 time=0 actual_time=156960
type=note_on channel=0 note=59 velocity=95 time=0 actual_time=156960
type=note_on channel=0 note=52 velocity=95 time=0 actual_time=156960
type: note_off, time: 480, actual_time: 157440
type: note_off, time: 0, actual_time: 157440
type: note_off, time: 0, actual_time: 157440
type=note_on channel=0 note=60 velocity=95 time=0 actual_time=157440
type=note_on channel=0 note=55 velocity=95 time=0 actual_time=157440
type=note_on channel=0 note=48 velocity=95 time=0 actual_time=157440
type: note_off, time: 720, actual_time: 158160
type: note_off, time: 0, actual_time: 158160
type: note_off, time: 0, actual_time: 158160
type=note_on channel=0 note=60 velocity=95 time=0 actual_time=158160
type=note_on channel=0 note=55 velocity=95 time=0 actual_time=158160
type=note_on channel=0 note=48 velocity=95 time=0 actual_time=158160
type: note_off, time: 240, actual_time: 158400
type: note_off, time: 0, actual_time: 158400
type: note_off, time: 0, actual_time: 158400
type=note_on channel=0 note=60 velocity=95 time=0 actual_time=158400
type=note_on channel=0 note=55 velocity=95 time=0 actual_time=158400
type=note_on channel=0 note=48 velocity=95 time=0 actual_time=158400
type: note_off, time: 480, actual_time: 158880
type: note_off, time: 0, actual_time: 158880
type: note_off, time: 0, actual_time: 158880
type=note_on channel=0 note=59 velocity=95 time=0 actual_time=158880
type=note_on channel=0 note=54 velocity=95 time=0 actual_time=158880
type=note_on channel=0 note=47 velocity=95 time=0 actual_time=158880
type: note_off, time: 240, actual_time: 159120
type: note_off, time: 0, actual_time: 159120
type: note_off, time: 0, actual_time: 159120
type=note_on channel=0 note=59 velocity=95 time=0 actual_time=159120
type=note_on channel=0 note=54 velocity=95 time=0 actual_time=159120
type=note_on channel=0 note=47 velocity=95 time=0 actual_time=159120
type: note_off, time: 480, actual_time: 159600
type: note_off, time: 0, actual_time: 159600
type: note_off, time: 0, actual_time: 159600
type=note_on channel=0 note=59 velocity=95 time=0 actual_time=159600
type=note_on channel=0 note=54 velocity=95 time=0 actual_time=159600
type=note_on channel=0 note=47 velocity=95 time=0 actual_time=159600
type: note_off, time: 480, actual_time: 160080
type: note_off, time: 0, actual_time: 160080
type: note_off, time: 0, actual_time: 160080
type=note_on channel=0 note=60 velocity=95 time=0 actual_time=160080
type=note_on channel=0 note=55 velocity=95 time=0 actual_time=160080
type=note_on channel=0 note=48 velocity=95 time=0 actual_time=160080
type: note_off, time: 480, actual_time: 160560
type: note_off, time: 0, actual_time: 160560
type: note_off, time: 0, actual_time: 160560
type=note_on channel=0 note=60 velocity=95 time=0 actual_time=160560
type=note_on channel=0 note=55 velocity=95 time=0 actual_time=160560
type=note_on channel=0 note=48 velocity=95 time=0 actual_time=160560
type: note_off, time: 240, actual_time: 160800
type: note_off, time: 0, actual_time: 160800
type: note_off, time: 0, actual_time: 160800
type=note_on channel=0 note=62 velocity=95 time=0 actual_time=160800
type=note_on channel=0 note=57 velocity=95 time=0 actual_time=160800
type=note_on channel=0 note=50 velocity=95 time=0 actual_time=160800
type: note_off, time: 480, actual_time: 161280
type: note_off, time: 0, actual_time: 161280
type: note_off, time: 0, actual_time: 161280
type=note_on channel=0 note=64 velocity=95 time=0 actual_time=161280
type=note_on channel=0 note=59 velocity=95 time=0 actual_time=161280
type=note_on channel=0 note=52 velocity=95 time=0 actual_time=161280
type: note_off, time: 720, actual_time: 162000
type: note_off, time: 0, actual_time: 162000
type: note_off, time: 0, actual_time: 162000
type=note_on channel=0 note=64 velocity=95 time=0 actual_time=162000
type=note_on channel=0 note=59 velocity=95 time=0 actual_time=162000
type=note_on channel=0 note=52 velocity=95 time=0 actual_time=162000
type: note_off, time: 240, actual_time: 162240
type: note_off, time: 0, actual_time: 162240
type: note_off, time: 0, actual_time: 162240
type=note_on channel=0 note=64 velocity=95 time=0 actual_time=162240
type=note_on channel=0 note=59 velocity=95 time=0 actual_time=162240
type=note_on channel=0 note=52 velocity=95 time=0 actual_time=162240
type: note_off, time: 240, actual_time: 162480
type: note_off, time: 0, actual_time: 162480
type: note_off, time: 0, actual_time: 162480
type=note_on channel=0 note=64 velocity=95 time=0 actual_time=162480
type=note_on channel=0 note=59 velocity=95 time=0 actual_time=162480
type=note_on channel=0 note=52 velocity=95 time=0 actual_time=162480
type: note_off, time: 240, actual_time: 162720
type: note_off, time: 0, actual_time: 162720
type: note_off, time: 0, actual_time: 162720
type=note_on channel=0 note=64 velocity=95 time=0 actual_time=162720
type=note_on channel=0 note=59 velocity=95 time=0 actual_time=162720
type=note_on channel=0 note=52 velocity=95 time=0 actual_time=162720
type: note_off, time: 240, actual_time: 162960
type: note_off, time: 0, actual_time: 162960
type: note_off, time: 0, actual_time: 162960
type=note_on channel=0 note=67 velocity=95 time=0 actual_time=162960
type=note_on channel=0 note=62 velocity=95 time=0 actual_time=162960
type=note_on channel=0 note=55 velocity=95 time=0 actual_time=162960
type: note_off, time: 480, actual_time: 163440
type: note_off, time: 0, actual_time: 163440
type: note_off, time: 0, actual_time: 163440
type=note_on channel=0 note=67 velocity=95 time=0 actual_time=163440
type=note_on channel=0 note=62 velocity=95 time=0 actual_time=163440
type=note_on channel=0 note=55 velocity=95 time=0 actual_time=163440
type: note_off, time: 480, actual_time: 163920
type: note_off, time: 0, actual_time: 163920
type: note_off, time: 0, actual_time: 163920
type=note_on channel=0 note=66 velocity=95 time=0 actual_time=163920
type=note_on channel=0 note=61 velocity=95 time=0 actual_time=163920
type=note_on channel=0 note=54 velocity=95 time=0 actual_time=163920
type: note_off, time: 480, actual_time: 164400
type: note_off, time: 0, actual_time: 164400
type: note_off, time: 0, actual_time: 164400
type=note_on channel=0 note=66 velocity=95 time=0 actual_time=164400
type=note_on channel=0 note=61 velocity=95 time=0 actual_time=164400
type=note_on channel=0 note=54 velocity=95 time=0 actual_time=164400
type: note_off, time: 240, actual_time: 164640
type: note_off, time: 0, actual_time: 164640
type: note_off, time: 0, actual_time: 164640
type=note_on channel=0 note=69 velocity=95 time=0 actual_time=164640
type=note_on channel=0 note=64 velocity=95 time=0 actual_time=164640
type=note_on channel=0 note=57 velocity=95 time=0 actual_time=164640
type: note_off, time: 480, actual_time: 165120
type: note_off, time: 0, actual_time: 165120
type: note_off, time: 0, actual_time: 165120
type=note_on channel=0 note=60 velocity=95 time=0 actual_time=165120
type=note_on channel=0 note=55 velocity=95 time=0 actual_time=165120
type=note_on channel=0 note=48 velocity=95 time=0 actual_time=165120
type: note_off, time: 720, actual_time: 165840
type: note_off, time: 0, actual_time: 165840
type: note_off, time: 0, actual_time: 165840
type=note_on channel=0 note=60 velocity=95 time=0 actual_time=165840
type=note_on channel=0 note=55 velocity=95 time=0 actual_time=165840
type=note_on channel=0 note=48 velocity=95 time=0 actual_time=165840
type: note_off, time: 240, actual_time: 166080
type: note_off, time: 0, actual_time: 166080
type: note_off, time: 0, actual_time: 166080
type=note_on channel=0 note=60 velocity=95 time=0 actual_time=166080
type=note_on channel=0 note=55 velocity=95 time=0 actual_time=166080
type=note_on channel=0 note=48 velocity=95 time=0 actual_time=166080
type: note_off, time: 480, actual_time: 166560
type: note_off, time: 0, actual_time: 166560
type: note_off, time: 0, actual_time: 166560
type=note_on channel=0 note=59 velocity=95 time=0 actual_time=166560
type=note_on channel=0 note=54 velocity=95 time=0 actual_time=166560
type=note_on channel=0 note=47 velocity=95 time=0 actual_time=166560
type: note_off, time: 240, actual_time: 166800
type: note_off, time: 0, actual_time: 166800
type: note_off, time: 0, actual_time: 166800
type=note_on channel=0 note=59 velocity=95 time=0 actual_time=166800
type=note_on channel=0 note=54 velocity=95 time=0 actual_time=166800
type=note_on channel=0 note=47 velocity=95 time=0 actual_time=166800
type: note_off, time: 480, actual_time: 167280
type: note_off, time: 0, actual_time: 167280
type: note_off, time: 0, actual_time: 167280
type=note_on channel=0 note=59 velocity=95 time=0 actual_time=167280
type=note_on channel=0 note=54 velocity=95 time=0 actual_time=167280
type=note_on channel=0 note=47 velocity=95 time=0 actual_time=167280
type: note_off, time: 480, actual_time: 167760
type: note_off, time: 0, actual_time: 167760
type: note_off, time: 0, actual_time: 167760
type=note_on channel=0 note=60 velocity=95 time=0 actual_time=167760
type=note_on channel=0 note=55 velocity=95 time=0 actual_time=167760
type=note_on channel=0 note=48 velocity=95 time=0 actual_time=167760
type: note_off, time: 480, actual_time: 168240
type: note_off, time: 0, actual_time: 168240
type: note_off, time: 0, actual_time: 168240
type=note_on channel=0 note=60 velocity=95 time=0 actual_time=168240
type=note_on channel=0 note=55 velocity=95 time=0 actual_time=168240
type=note_on channel=0 note=48 velocity=95 time=0 actual_time=168240
type: note_off, time: 240, actual_time: 168480
type: note_off, time: 0, actual_time: 168480
type: note_off, time: 0, actual_time: 168480
type=note_on channel=0 note=62 velocity=95 time=0 actual_time=168480
type=note_on channel=0 note=57 velocity=95 time=0 actual_time=168480
type=note_on channel=0 note=50 velocity=95 time=0 actual_time=168480
type: note_off, time: 480, actual_time: 168960
type: note_off, time: 0, actual_time: 168960
type: note_off, time: 0, actual_time: 168960
type=note_on channel=0 note=64 velocity=95 time=0 actual_time=168960
type=note_on channel=0 note=59 velocity=95 time=0 actual_time=168960
type=note_on channel=0 note=52 velocity=95 time=0 actual_time=168960
type: note_off, time: 720, actual_time: 169680
type: note_off, time: 0, actual_time: 169680
type: note_off, time: 0, actual_time: 169680
type=note_on channel=0 note=47 velocity=31 time=0 actual_time=169680
type=note_on channel=0 note=59 velocity=95 time=0 actual_time=169680
type: note_off, time: 240, actual_time: 169920
type: note_off, time: 0, actual_time: 169920
type=note_on channel=0 note=47 velocity=31 time=0 actual_time=169920
type=note_on channel=0 note=59 velocity=95 time=0 actual_time=169920
type: note_off, time: 240, actual_time: 170160
type: note_off, time: 0, actual_time: 170160
type=note_on channel=0 note=47 velocity=31 time=0 actual_time=170160
type=note_on channel=0 note=59 velocity=95 time=0 actual_time=170160
type: note_off, time: 240, actual_time: 170400
type: note_off, time: 0, actual_time: 170400
type=note_on channel=0 note=64 velocity=95 time=0 actual_time=170400
type=note_on channel=0 note=59 velocity=95 time=0 actual_time=170400
type=note_on channel=0 note=52 velocity=95 time=0 actual_time=170400
type: note_off, time: 720, actual_time: 171120
type: note_off, time: 0, actual_time: 171120
type: note_off, time: 0, actual_time: 171120
type=note_on channel=0 note=47 velocity=31 time=0 actual_time=171120
type=note_on channel=0 note=59 velocity=95 time=0 actual_time=171120
type: note_off, time: 240, actual_time: 171360
type: note_off, time: 0, actual_time: 171360
type=note_on channel=0 note=47 velocity=31 time=0 actual_time=171360
type=note_on channel=0 note=59 velocity=95 time=0 actual_time=171360
type: note_off, time: 240, actual_time: 171600
type: note_off, time: 0, actual_time: 171600
type=note_on channel=0 note=47 velocity=31 time=0 actual_time=171600
type=note_on channel=0 note=59 velocity=95 time=0 actual_time=171600
type: note_off, time: 240, actual_time: 171840
type: note_off, time: 0, actual_time: 171840
type=note_on channel=0 note=64 velocity=95 time=0 actual_time=171840
type=note_on channel=0 note=59 velocity=95 time=0 actual_time=171840
type=note_on channel=0 note=52 velocity=95 time=0 actual_time=171840
type: note_off, time: 480, actual_time: 172320
type: note_off, time: 0, actual_time: 172320
type: note_off, time: 0, actual_time: 172320
type=note_on channel=0 note=64 velocity=95 time=0 actual_time=172320
type=note_on channel=0 note=59 velocity=95 time=0 actual_time=172320
type=note_on channel=0 note=52 velocity=95 time=0 actual_time=172320
type: note_off, time: 240, actual_time: 172560
type: note_off, time: 0, actual_time: 172560
type: note_off, time: 0, actual_time: 172560
type=note_on channel=0 note=64 velocity=95 time=0 actual_time=172560
type=note_on channel=0 note=59 velocity=95 time=0 actual_time=172560
type=note_on channel=0 note=52 velocity=95 time=0 actual_time=172560
type: note_off, time: 240, actual_time: 172800
type: note_off, time: 0, actual_time: 172800
type: note_off, time: 0, actual_time: 172800
type=note_on channel=0 note=67 velocity=95 time=0 actual_time=172800
type=note_on channel=0 note=62 velocity=95 time=0 actual_time=172800
type=note_on channel=0 note=55 velocity=95 time=0 actual_time=172800
type: note_off, time: 720, actual_time: 173520
type: note_off, time: 0, actual_time: 173520
type: note_off, time: 0, actual_time: 173520
type=note_on channel=0 note=66 velocity=95 time=0 actual_time=173520
type=note_on channel=0 note=61 velocity=95 time=0 actual_time=173520
type=note_on channel=0 note=54 velocity=95 time=0 actual_time=173520
type: note_off, time: 720, actual_time: 174240
type: note_off, time: 0, actual_time: 174240
type: note_off, time: 0, actual_time: 174240
type=note_on channel=0 note=69 velocity=95 time=0 actual_time=174240
type=note_on channel=0 note=64 velocity=95 time=0 actual_time=174240
type=note_on channel=0 note=57 velocity=95 time=0 actual_time=174240
type: note_off, time: 720, actual_time: 174960
type: note_off, time: 0, actual_time: 174960
type: note_off, time: 0, actual_time: 174960
type=note_on channel=0 note=69 velocity=95 time=0 actual_time=174960
type=note_on channel=0 note=64 velocity=95 time=0 actual_time=174960
type=note_on channel=0 note=57 velocity=95 time=0 actual_time=174960
type: note_off, time: 240, actual_time: 175200
type: note_off, time: 0, actual_time: 175200
type: note_off, time: 0, actual_time: 175200
type=note_on channel=0 note=69 velocity=95 time=0 actual_time=175200
type=note_on channel=0 note=64 velocity=95 time=0 actual_time=175200
type=note_on channel=0 note=57 velocity=95 time=0 actual_time=175200
type: note_off, time: 240, actual_time: 175440
type: note_off, time: 0, actual_time: 175440
type: note_off, time: 0, actual_time: 175440
type=note_on channel=0 note=69 velocity=95 time=0 actual_time=175440
type=note_on channel=0 note=64 velocity=95 time=0 actual_time=175440
type=note_on channel=0 note=57 velocity=95 time=0 actual_time=175440
type: note_off, time: 43, actual_time: 175483
type: note_off, time: 0, actual_time: 175483
type: note_off, time: 0, actual_time: 175483
type=note_on channel=0 note=69 velocity=95 time=197 actual_time=175680
type=note_on channel=0 note=64 velocity=95 time=0 actual_time=175680
type=note_on channel=0 note=57 velocity=95 time=0 actual_time=175680
type: note_off, time: 240, actual_time: 175920
type: note_off, time: 0, actual_time: 175920
type: note_off, time: 0, actual_time: 175920
type=note_on channel=0 note=69 velocity=95 time=0 actual_time=175920
type=note_on channel=0 note=64 velocity=95 time=0 actual_time=175920
type=note_on channel=0 note=57 velocity=95 time=0 actual_time=175920
type: note_off, time: 240, actual_time: 176160
type: note_off, time: 0, actual_time: 176160
type: note_off, time: 0, actual_time: 176160
type=note_on channel=0 note=66 velocity=95 time=0 actual_time=176160
type=note_on channel=0 note=61 velocity=95 time=0 actual_time=176160
type=note_on channel=0 note=54 velocity=95 time=0 actual_time=176160
type: note_off, time: 43, actual_time: 176203
type: note_off, time: 0, actual_time: 176203
type: note_off, time: 0, actual_time: 176203
type=note_on channel=0 note=67 velocity=95 time=197 actual_time=176400
type=note_on channel=0 note=62 velocity=95 time=0 actual_time=176400
type=note_on channel=0 note=55 velocity=95 time=0 actual_time=176400
type: note_off, time: 43, actual_time: 176443
type: note_off, time: 0, actual_time: 176443
type: note_off, time: 0, actual_time: 176443
type=note_on channel=0 note=64 velocity=95 time=197 actual_time=176640
type=note_on channel=0 note=59 velocity=95 time=0 actual_time=176640
type=note_on channel=0 note=52 velocity=95 time=0 actual_time=176640
type: note_off, time: 720, actual_time: 177360
type: note_off, time: 0, actual_time: 177360
type: note_off, time: 0, actual_time: 177360
type=note_on channel=0 note=47 velocity=31 time=0 actual_time=177360
type=note_on channel=0 note=59 velocity=95 time=0 actual_time=177360
type: note_off, time: 240, actual_time: 177600
type: note_off, time: 0, actual_time: 177600
type=note_on channel=0 note=47 velocity=31 time=0 actual_time=177600
type=note_on channel=0 note=59 velocity=95 time=0 actual_time=177600
type: note_off, time: 240, actual_time: 177840
type: note_off, time: 0, actual_time: 177840
type=note_on channel=0 note=47 velocity=31 time=0 actual_time=177840
type=note_on channel=0 note=59 velocity=95 time=0 actual_time=177840
type: note_off, time: 240, actual_time: 178080
type: note_off, time: 0, actual_time: 178080
type=note_on channel=0 note=64 velocity=95 time=0 actual_time=178080
type=note_on channel=0 note=59 velocity=95 time=0 actual_time=178080
type=note_on channel=0 note=52 velocity=95 time=0 actual_time=178080
type: note_off, time: 720, actual_time: 178800
type: note_off, time: 0, actual_time: 178800
type: note_off, time: 0, actual_time: 178800
type=note_on channel=0 note=47 velocity=31 time=0 actual_time=178800
type=note_on channel=0 note=59 velocity=95 time=0 actual_time=178800
type: note_off, time: 240, actual_time: 179040
type: note_off, time: 0, actual_time: 179040
type=note_on channel=0 note=47 velocity=31 time=0 actual_time=179040
type=note_on channel=0 note=59 velocity=95 time=0 actual_time=179040
type: note_off, time: 240, actual_time: 179280
type: note_off, time: 0, actual_time: 179280
type=note_on channel=0 note=47 velocity=31 time=0 actual_time=179280
type=note_on channel=0 note=59 velocity=95 time=0 actual_time=179280
type: note_off, time: 240, actual_time: 179520
type: note_off, time: 0, actual_time: 179520
type=note_on channel=0 note=64 velocity=95 time=0 actual_time=179520
type=note_on channel=0 note=59 velocity=95 time=0 actual_time=179520
type=note_on channel=0 note=52 velocity=95 time=0 actual_time=179520
type: note_off, time: 480, actual_time: 180000
type: note_off, time: 0, actual_time: 180000
type: note_off, time: 0, actual_time: 180000
type=note_on channel=0 note=64 velocity=95 time=0 actual_time=180000
type=note_on channel=0 note=59 velocity=95 time=0 actual_time=180000
type=note_on channel=0 note=52 velocity=95 time=0 actual_time=180000
type: note_off, time: 240, actual_time: 180240
type: note_off, time: 0, actual_time: 180240
type: note_off, time: 0, actual_time: 180240
type=note_on channel=0 note=64 velocity=95 time=0 actual_time=180240
type=note_on channel=0 note=59 velocity=95 time=0 actual_time=180240
type=note_on channel=0 note=52 velocity=95 time=0 actual_time=180240
type: note_off, time: 240, actual_time: 180480
type: note_off, time: 0, actual_time: 180480
type: note_off, time: 0, actual_time: 180480
type=note_on channel=0 note=60 velocity=95 time=0 actual_time=180480
type=note_on channel=0 note=55 velocity=95 time=0 actual_time=180480
type=note_on channel=0 note=48 velocity=95 time=0 actual_time=180480
type: note_off, time: 480, actual_time: 180960
type: note_off, time: 0, actual_time: 180960
type: note_off, time: 0, actual_time: 180960
type=note_on channel=0 note=66 velocity=95 time=0 actual_time=180960
type=note_on channel=0 note=61 velocity=95 time=0 actual_time=180960
type=note_on channel=0 note=54 velocity=95 time=0 actual_time=180960
type: note_off, time: 43, actual_time: 181003
type: note_off, time: 0, actual_time: 181003
type: note_off, time: 0, actual_time: 181003
type=note_on channel=0 note=59 velocity=95 time=197 actual_time=181200
type=note_on channel=0 note=54 velocity=95 time=0 actual_time=181200
type=note_on channel=0 note=47 velocity=95 time=0 actual_time=181200
type: note_off, time: 480, actual_time: 181680
type: note_off, time: 0, actual_time: 181680
type: note_off, time: 0, actual_time: 181680
type=note_on channel=0 note=57 velocity=95 time=0 actual_time=181680
type=note_on channel=0 note=52 velocity=95 time=0 actual_time=181680
type=note_on channel=0 note=45 velocity=95 time=0 actual_time=181680
type: note_off, time: 240, actual_time: 181920
type: note_off, time: 0, actual_time: 181920
type: note_off, time: 0, actual_time: 181920
type=note_on channel=0 note=57 velocity=95 time=0 actual_time=181920
type=note_on channel=0 note=52 velocity=95 time=0 actual_time=181920
type=note_on channel=0 note=45 velocity=95 time=0 actual_time=181920
type: note_off, time: 720, actual_time: 182640
type: note_off, time: 0, actual_time: 182640
type: note_off, time: 0, actual_time: 182640
type=note_on channel=0 note=45 velocity=95 time=0 actual_time=182640
type: note_off, time: 240, actual_time: 182880
type=note_on channel=0 note=47 velocity=95 time=0 actual_time=182880
type: note_off, time: 240, actual_time: 183120
type=note_on channel=0 note=40 velocity=95 time=0 actual_time=183120
type: note_off, time: 240, actual_time: 183360
type=note_on channel=0 note=47 velocity=95 time=0 actual_time=183360
type: note_off, time: 240, actual_time: 183600
type=note_on channel=0 note=48 velocity=70 time=0 actual_time=183600
type: note_off, time: 240, actual_time: 183840
type=note_on channel=0 note=47 velocity=70 time=0 actual_time=183840
type: note_off, time: 240, actual_time: 184080
type=note_on channel=0 note=45 velocity=70 time=0 actual_time=184080
type: note_off, time: 240, actual_time: 184320
type=note_on channel=0 note=64 velocity=95 time=0 actual_time=184320
type=note_on channel=0 note=59 velocity=95 time=0 actual_time=184320
type=note_on channel=0 note=52 velocity=95 time=0 actual_time=184320
type: note_off, time: 720, actual_time: 185040
type: note_off, time: 0, actual_time: 185040
type: note_off, time: 0, actual_time: 185040
type=note_on channel=0 note=47 velocity=31 time=0 actual_time=185040
type=note_on channel=0 note=59 velocity=95 time=0 actual_time=185040
type: note_off, time: 240, actual_time: 185280
type: note_off, time: 0, actual_time: 185280
type=note_on channel=0 note=47 velocity=31 time=0 actual_time=185280
type=note_on channel=0 note=59 velocity=95 time=0 actual_time=185280
type: note_off, time: 240, actual_time: 185520
type: note_off, time: 0, actual_time: 185520
type=note_on channel=0 note=47 velocity=31 time=0 actual_time=185520
type=note_on channel=0 note=59 velocity=95 time=0 actual_time=185520
type: note_off, time: 240, actual_time: 185760
type: note_off, time: 0, actual_time: 185760
type=note_on channel=0 note=64 velocity=95 time=0 actual_time=185760
type=note_on channel=0 note=59 velocity=95 time=0 actual_time=185760
type=note_on channel=0 note=52 velocity=95 time=0 actual_time=185760
type: note_off, time: 720, actual_time: 186480
type: note_off, time: 0, actual_time: 186480
type: note_off, time: 0, actual_time: 186480
type=note_on channel=0 note=47 velocity=31 time=0 actual_time=186480
type=note_on channel=0 note=59 velocity=95 time=0 actual_time=186480
type: note_off, time: 240, actual_time: 186720
type: note_off, time: 0, actual_time: 186720
type=note_on channel=0 note=47 velocity=31 time=0 actual_time=186720
type=note_on channel=0 note=59 velocity=95 time=0 actual_time=186720
type: note_off, time: 240, actual_time: 186960
type: note_off, time: 0, actual_time: 186960
type=note_on channel=0 note=47 velocity=31 time=0 actual_time=186960
type=note_on channel=0 note=59 velocity=95 time=0 actual_time=186960
type: note_off, time: 240, actual_time: 187200
type: note_off, time: 0, actual_time: 187200
type=note_on channel=0 note=64 velocity=95 time=0 actual_time=187200
type=note_on channel=0 note=59 velocity=95 time=0 actual_time=187200
type=note_on channel=0 note=52 velocity=95 time=0 actual_time=187200
type: note_off, time: 480, actual_time: 187680
type: note_off, time: 0, actual_time: 187680
type: note_off, time: 0, actual_time: 187680
type=note_on channel=0 note=64 velocity=95 time=0 actual_time=187680
type=note_on channel=0 note=59 velocity=95 time=0 actual_time=187680
type=note_on channel=0 note=52 velocity=95 time=0 actual_time=187680
type: note_off, time: 240, actual_time: 187920
type: note_off, time: 0, actual_time: 187920
type: note_off, time: 0, actual_time: 187920
type=note_on channel=0 note=64 velocity=95 time=0 actual_time=187920
type=note_on channel=0 note=59 velocity=95 time=0 actual_time=187920
type=note_on channel=0 note=52 velocity=95 time=0 actual_time=187920
type: note_off, time: 240, actual_time: 188160
type: note_off, time: 0, actual_time: 188160
type: note_off, time: 0, actual_time: 188160
type=note_on channel=0 note=67 velocity=95 time=0 actual_time=188160
type=note_on channel=0 note=62 velocity=95 time=0 actual_time=188160
type=note_on channel=0 note=55 velocity=95 time=0 actual_time=188160
type: note_off, time: 720, actual_time: 188880
type: note_off, time: 0, actual_time: 188880
type: note_off, time: 0, actual_time: 188880
type=note_on channel=0 note=66 velocity=95 time=0 actual_time=188880
type=note_on channel=0 note=61 velocity=95 time=0 actual_time=188880
type=note_on channel=0 note=54 velocity=95 time=0 actual_time=188880
type: note_off, time: 720, actual_time: 189600
type: note_off, time: 0, actual_time: 189600
type: note_off, time: 0, actual_time: 189600
type=note_on channel=0 note=69 velocity=95 time=0 actual_time=189600
type=note_on channel=0 note=64 velocity=95 time=0 actual_time=189600
type=note_on channel=0 note=57 velocity=95 time=0 actual_time=189600
type: note_off, time: 720, actual_time: 190320
type: note_off, time: 0, actual_time: 190320
type: note_off, time: 0, actual_time: 190320
type=note_on channel=0 note=69 velocity=95 time=0 actual_time=190320
type=note_on channel=0 note=64 velocity=95 time=0 actual_time=190320
type=note_on channel=0 note=57 velocity=95 time=0 actual_time=190320
type: note_off, time: 240, actual_time: 190560
type: note_off, time: 0, actual_time: 190560
type: note_off, time: 0, actual_time: 190560
type=note_on channel=0 note=69 velocity=95 time=0 actual_time=190560
type=note_on channel=0 note=64 velocity=95 time=0 actual_time=190560
type=note_on channel=0 note=57 velocity=95 time=0 actual_time=190560
type: note_off, time: 240, actual_time: 190800
type: note_off, time: 0, actual_time: 190800
type: note_off, time: 0, actual_time: 190800
type=note_on channel=0 note=69 velocity=95 time=0 actual_time=190800
type=note_on channel=0 note=64 velocity=95 time=0 actual_time=190800
type=note_on channel=0 note=57 velocity=95 time=0 actual_time=190800
type: note_off, time: 43, actual_time: 190843
type: note_off, time: 0, actual_time: 190843
type: note_off, time: 0, actual_time: 190843
type=note_on channel=0 note=69 velocity=95 time=197 actual_time=191040
type=note_on channel=0 note=64 velocity=95 time=0 actual_time=191040
type=note_on channel=0 note=57 velocity=95 time=0 actual_time=191040
type: note_off, time: 240, actual_time: 191280
type: note_off, time: 0, actual_time: 191280
type: note_off, time: 0, actual_time: 191280
type=note_on channel=0 note=69 velocity=95 time=0 actual_time=191280
type=note_on channel=0 note=64 velocity=95 time=0 actual_time=191280
type=note_on channel=0 note=57 velocity=95 time=0 actual_time=191280
type: note_off, time: 240, actual_time: 191520
type: note_off, time: 0, actual_time: 191520
type: note_off, time: 0, actual_time: 191520
type=note_on channel=0 note=66 velocity=95 time=0 actual_time=191520
type=note_on channel=0 note=61 velocity=95 time=0 actual_time=191520
type=note_on channel=0 note=54 velocity=95 time=0 actual_time=191520
type: note_off, time: 43, actual_time: 191563
type: note_off, time: 0, actual_time: 191563
type: note_off, time: 0, actual_time: 191563
type=note_on channel=0 note=67 velocity=95 time=197 actual_time=191760
type=note_on channel=0 note=62 velocity=95 time=0 actual_time=191760
type=note_on channel=0 note=55 velocity=95 time=0 actual_time=191760
type: note_off, time: 43, actual_time: 191803
type: note_off, time: 0, actual_time: 191803
type: note_off, time: 0, actual_time: 191803
type=note_on channel=0 note=64 velocity=95 time=197 actual_time=192000
type=note_on channel=0 note=59 velocity=95 time=0 actual_time=192000
type=note_on channel=0 note=52 velocity=95 time=0 actual_time=192000
type: note_off, time: 720, actual_time: 192720
type: note_off, time: 0, actual_time: 192720
type: note_off, time: 0, actual_time: 192720
type=note_on channel=0 note=47 velocity=31 time=0 actual_time=192720
type=note_on channel=0 note=59 velocity=95 time=0 actual_time=192720
type: note_off, time: 240, actual_time: 192960
type: note_off, time: 0, actual_time: 192960
type=note_on channel=0 note=47 velocity=31 time=0 actual_time=192960
type=note_on channel=0 note=59 velocity=95 time=0 actual_time=192960
type: note_off, time: 240, actual_time: 193200
type: note_off, time: 0, actual_time: 193200
type=note_on channel=0 note=47 velocity=31 time=0 actual_time=193200
type=note_on channel=0 note=59 velocity=95 time=0 actual_time=193200
type: note_off, time: 240, actual_time: 193440
type: note_off, time: 0, actual_time: 193440
type=note_on channel=0 note=64 velocity=95 time=0 actual_time=193440
type=note_on channel=0 note=59 velocity=95 time=0 actual_time=193440
type=note_on channel=0 note=52 velocity=95 time=0 actual_time=193440
type: note_off, time: 720, actual_time: 194160
type: note_off, time: 0, actual_time: 194160
type: note_off, time: 0, actual_time: 194160
type=note_on channel=0 note=47 velocity=31 time=0 actual_time=194160
type=note_on channel=0 note=59 velocity=95 time=0 actual_time=194160
type: note_off, time: 240, actual_time: 194400
type: note_off, time: 0, actual_time: 194400
type=note_on channel=0 note=47 velocity=31 time=0 actual_time=194400
type=note_on channel=0 note=59 velocity=95 time=0 actual_time=194400
type: note_off, time: 240, actual_time: 194640
type: note_off, time: 0, actual_time: 194640
type=note_on channel=0 note=47 velocity=31 time=0 actual_time=194640
type=note_on channel=0 note=59 velocity=95 time=0 actual_time=194640
type: note_off, time: 240, actual_time: 194880
type: note_off, time: 0, actual_time: 194880
type=note_on channel=0 note=64 velocity=95 time=0 actual_time=194880
type=note_on channel=0 note=59 velocity=95 time=0 actual_time=194880
type=note_on channel=0 note=52 velocity=95 time=0 actual_time=194880
type: note_off, time: 480, actual_time: 195360
type: note_off, time: 0, actual_time: 195360
type: note_off, time: 0, actual_time: 195360
type=note_on channel=0 note=64 velocity=95 time=0 actual_time=195360
type=note_on channel=0 note=59 velocity=95 time=0 actual_time=195360
type=note_on channel=0 note=52 velocity=95 time=0 actual_time=195360
type: note_off, time: 240, actual_time: 195600
type: note_off, time: 0, actual_time: 195600
type: note_off, time: 0, actual_time: 195600
type=note_on channel=0 note=64 velocity=95 time=0 actual_time=195600
type=note_on channel=0 note=59 velocity=95 time=0 actual_time=195600
type=note_on channel=0 note=52 velocity=95 time=0 actual_time=195600
type: note_off, time: 240, actual_time: 195840
type: note_off, time: 0, actual_time: 195840
type: note_off, time: 0, actual_time: 195840
type=note_on channel=0 note=60 velocity=95 time=0 actual_time=195840
type=note_on channel=0 note=55 velocity=95 time=0 actual_time=195840
type=note_on channel=0 note=48 velocity=95 time=0 actual_time=195840
type: note_off, time: 480, actual_time: 196320
type: note_off, time: 0, actual_time: 196320
type: note_off, time: 0, actual_time: 196320
type=note_on channel=0 note=66 velocity=95 time=0 actual_time=196320
type=note_on channel=0 note=61 velocity=95 time=0 actual_time=196320
type=note_on channel=0 note=54 velocity=95 time=0 actual_time=196320
type: note_off, time: 43, actual_time: 196363
type: note_off, time: 0, actual_time: 196363
type: note_off, time: 0, actual_time: 196363
type=note_on channel=0 note=59 velocity=95 time=197 actual_time=196560
type=note_on channel=0 note=54 velocity=95 time=0 actual_time=196560
type=note_on channel=0 note=47 velocity=95 time=0 actual_time=196560
type: note_off, time: 480, actual_time: 197040
type: note_off, time: 0, actual_time: 197040
type: note_off, time: 0, actual_time: 197040
type=note_on channel=0 note=57 velocity=95 time=0 actual_time=197040
type=note_on channel=0 note=52 velocity=95 time=0 actual_time=197040
type=note_on channel=0 note=45 velocity=95 time=0 actual_time=197040
type: note_off, time: 240, actual_time: 197280
type: note_off, time: 0, actual_time: 197280
type: note_off, time: 0, actual_time: 197280
type=note_on channel=0 note=57 velocity=95 time=0 actual_time=197280
type=note_on channel=0 note=52 velocity=95 time=0 actual_time=197280
type=note_on channel=0 note=45 velocity=95 time=0 actual_time=197280
type: note_off, time: 720, actual_time: 198000
type: note_off, time: 0, actual_time: 198000
type: note_off, time: 0, actual_time: 198000
type=note_on channel=0 note=45 velocity=95 time=0 actual_time=198000
type: note_off, time: 240, actual_time: 198240
type=note_on channel=0 note=47 velocity=95 time=0 actual_time=198240
type: note_off, time: 240, actual_time: 198480
type=note_on channel=0 note=40 velocity=95 time=0 actual_time=198480
type: note_off, time: 240, actual_time: 198720
type=note_on channel=0 note=47 velocity=95 time=0 actual_time=198720
type: note_off, time: 240, actual_time: 198960
type=note_on channel=0 note=48 velocity=70 time=0 actual_time=198960
type: note_off, time: 240, actual_time: 199200
type=note_on channel=0 note=47 velocity=70 time=0 actual_time=199200
type: note_off, time: 240, actual_time: 199440
type=note_on channel=0 note=45 velocity=70 time=0 actual_time=199440
type: note_off, time: 240, actual_time: 199680
type=note_on channel=1 note=52 velocity=95 time=0 actual_time=199680
type: pitchwheel, time: 160, actual_time: 199840
type: pitchwheel, time: 160, actual_time: 200000
type: pitchwheel, time: 160, actual_time: 200160
type: pitchwheel, time: 160, actual_time: 200320
type: pitchwheel, time: 160, actual_time: 200480
type: pitchwheel, time: 160, actual_time: 200640
type: pitchwheel, time: 160, actual_time: 200800
type: pitchwheel, time: 160, actual_time: 200960
type: pitchwheel, time: 160, actual_time: 201120
type: pitchwheel, time: 160, actual_time: 201280
type: pitchwheel, time: 160, actual_time: 201440
type: pitchwheel, time: 160, actual_time: 201600
type: pitchwheel, time: 160, actual_time: 201760
type: pitchwheel, time: 80, actual_time: 201840
type: pitchwheel, time: 0, actual_time: 201840
type: note_off, time: 0, actual_time: 201840
type=note_on channel=0 note=55 velocity=95 time=0 actual_time=201840
type: note_off, time: 480, actual_time: 202320
type=note_on channel=0 note=54 velocity=95 time=0 actual_time=202320
type: note_off, time: 240, actual_time: 202560
type=note_on channel=0 note=55 velocity=95 time=0 actual_time=202560
type: note_off, time: 240, actual_time: 202800
type=note_on channel=0 note=54 velocity=95 time=0 actual_time=202800
type: note_off, time: 240, actual_time: 203040
type=note_on channel=0 note=50 velocity=95 time=0 actual_time=203040
type: note_off, time: 240, actual_time: 203280
type=note_on channel=0 note=50 velocity=95 time=0 actual_time=203280
type=note_on channel=1 note=50 velocity=95 time=60 actual_time=203340
type: note_off, time: 180, actual_time: 203520
type: note_off, time: 0, actual_time: 203520
type=note_on channel=1 note=52 velocity=95 time=0 actual_time=203520
type: pitchwheel, time: 160, actual_time: 203680
type: pitchwheel, time: 160, actual_time: 203840
type: pitchwheel, time: 160, actual_time: 204000
type: pitchwheel, time: 160, actual_time: 204160
type: pitchwheel, time: 160, actual_time: 204320
type: pitchwheel, time: 160, actual_time: 204480
type: pitchwheel, time: 160, actual_time: 204640
type: pitchwheel, time: 160, actual_time: 204800
type: pitchwheel, time: 160, actual_time: 204960
type: pitchwheel, time: 160, actual_time: 205120
type: pitchwheel, time: 160, actual_time: 205280
type: pitchwheel, time: 160, actual_time: 205440
type: pitchwheel, time: 160, actual_time: 205600
type: pitchwheel, time: 80, actual_time: 205680
type: pitchwheel, time: 0, actual_time: 205680
type: note_off, time: 0, actual_time: 205680
type=note_on channel=0 note=55 velocity=95 time=0 actual_time=205680
type: note_off, time: 480, actual_time: 206160
type=note_on channel=0 note=54 velocity=95 time=0 actual_time=206160
type: note_off, time: 240, actual_time: 206400
type=note_on channel=0 note=55 velocity=95 time=0 actual_time=206400
type: note_off, time: 240, actual_time: 206640
type=note_on channel=0 note=54 velocity=95 time=0 actual_time=206640
type: note_off, time: 240, actual_time: 206880
type=note_on channel=0 note=57 velocity=95 time=0 actual_time=206880
type: note_off, time: 480, actual_time: 207360
type=note_on channel=0 note=55 velocity=95 time=0 actual_time=207360
type: note_off, time: 960, actual_time: 208320
type=note_on channel=0 note=55 velocity=95 time=0 actual_time=208320
type: note_off, time: 240, actual_time: 208560
type=note_on channel=0 note=55 velocity=95 time=0 actual_time=208560
type: note_off, time: 240, actual_time: 208800
type=note_on channel=0 note=55 velocity=95 time=0 actual_time=208800
type: note_off, time: 240, actual_time: 209040
type=note_on channel=0 note=55 velocity=95 time=0 actual_time=209040
type: note_off, time: 480, actual_time: 209520
type=note_on channel=0 note=55 velocity=95 time=0 actual_time=209520
type: note_off, time: 480, actual_time: 210000
type=note_on channel=0 note=54 velocity=95 time=0 actual_time=210000
type: note_off, time: 240, actual_time: 210240
type=note_on channel=0 note=55 velocity=95 time=0 actual_time=210240
type: note_off, time: 240, actual_time: 210480
type=note_on channel=0 note=54 velocity=95 time=0 actual_time=210480
type: note_off, time: 240, actual_time: 210720
type=note_on channel=0 note=50 velocity=95 time=0 actual_time=210720
type: note_off, time: 240, actual_time: 210960
type=note_on channel=0 note=50 velocity=95 time=0 actual_time=210960
type=note_on channel=1 note=50 velocity=95 time=60 actual_time=211020
type: note_off, time: 180, actual_time: 211200
type: note_off, time: 0, actual_time: 211200
type=note_on channel=1 note=52 velocity=95 time=0 actual_time=211200
type: note_off, time: 480, actual_time: 211680
type=note_on channel=0 note=40 velocity=95 time=0 actual_time=211680
type: note_off, time: 240, actual_time: 211920
type=note_on channel=0 note=40 velocity=95 time=0 actual_time=211920
type: note_off, time: 240, actual_time: 212160
type=note_on channel=0 note=52 velocity=95 time=0 actual_time=212160
type: note_off, time: 240, actual_time: 212400
type=note_on channel=0 note=40 velocity=95 time=0 actual_time=212400
type: note_off, time: 240, actual_time: 212640
type=note_on channel=0 note=40 velocity=95 time=0 actual_time=212640
type: note_off, time: 240, actual_time: 212880
type=note_on channel=0 note=52 velocity=95 time=0 actual_time=212880
type: note_off, time: 480, actual_time: 213360
type=note_on channel=0 note=52 velocity=95 time=0 actual_time=213360
type: note_off, time: 240, actual_time: 213600
type=note_on channel=0 note=52 velocity=95 time=0 actual_time=213600
type: note_off, time: 1440, actual_time: 215040
type=note_on channel=1 note=62 velocity=95 time=0 actual_time=215040
type: pitchwheel, time: 120, actual_time: 215160
type: pitchwheel, time: 120, actual_time: 215280
type: pitchwheel, time: 0, actual_time: 215280
type: note_off, time: 0, actual_time: 215280
type=note_on channel=1 note=64 velocity=95 time=0 actual_time=215280
type: pitchwheel, time: 160, actual_time: 215440
type: pitchwheel, time: 160, actual_time: 215600
type: pitchwheel, time: 160, actual_time: 215760
type: pitchwheel, time: 160, actual_time: 215920
type: pitchwheel, time: 160, actual_time: 216080
type: pitchwheel, time: 160, actual_time: 216240
type: pitchwheel, time: 160, actual_time: 216400
type: pitchwheel, time: 160, actual_time: 216560
type: pitchwheel, time: 160, actual_time: 216720
type: pitchwheel, time: 160, actual_time: 216880
type: pitchwheel, time: 160, actual_time: 217040
type: pitchwheel, time: 160, actual_time: 217200
type: pitchwheel, time: 0, actual_time: 217200
type: note_off, time: 0, actual_time: 217200
type=note_on channel=0 note=67 velocity=95 time=0 actual_time=217200
type: note_off, time: 480, actual_time: 217680
type=note_on channel=0 note=66 velocity=95 time=0 actual_time=217680
type: note_off, time: 240, actual_time: 217920
type=note_on channel=0 note=67 velocity=95 time=0 actual_time=217920
type: note_off, time: 240, actual_time: 218160
type=note_on channel=0 note=66 velocity=95 time=0 actual_time=218160
type: note_off, time: 240, actual_time: 218400
type=note_on channel=0 note=62 velocity=95 time=0 actual_time=218400
type: note_off, time: 480, actual_time: 218880
type=note_on channel=1 note=62 velocity=95 time=0 actual_time=218880
type: pitchwheel, time: 120, actual_time: 219000
type: pitchwheel, time: 120, actual_time: 219120
type: pitchwheel, time: 0, actual_time: 219120
type: note_off, time: 0, actual_time: 219120
type=note_on channel=1 note=64 velocity=95 time=0 actual_time=219120
type: pitchwheel, time: 160, actual_time: 219280
type: pitchwheel, time: 160, actual_time: 219440
type: pitchwheel, time: 160, actual_time: 219600
type: pitchwheel, time: 160, actual_time: 219760
type: pitchwheel, time: 160, actual_time: 219920
type: pitchwheel, time: 160, actual_time: 220080
type: pitchwheel, time: 160, actual_time: 220240
type: pitchwheel, time: 160, actual_time: 220400
type: pitchwheel, time: 160, actual_time: 220560
type: pitchwheel, time: 160, actual_time: 220720
type: pitchwheel, time: 160, actual_time: 220880
type: pitchwheel, time: 160, actual_time: 221040
type: pitchwheel, time: 0, actual_time: 221040
type: note_off, time: 0, actual_time: 221040
type=note_on channel=0 note=67 velocity=95 time=0 actual_time=221040
type: note_off, time: 480, actual_time: 221520
type=note_on channel=0 note=66 velocity=95 time=0 actual_time=221520
type: note_off, time: 240, actual_time: 221760
type=note_on channel=0 note=67 velocity=95 time=0 actual_time=221760
type: note_off, time: 240, actual_time: 222000
type=note_on channel=0 note=66 velocity=95 time=0 actual_time=222000
type: note_off, time: 240, actual_time: 222240
type=note_on channel=0 note=69 velocity=95 time=0 actual_time=222240
type: note_off, time: 480, actual_time: 222720
type=note_on channel=0 note=67 velocity=95 time=0 actual_time=222720
type: note_off, time: 960, actual_time: 223680
type=note_on channel=0 note=67 velocity=95 time=0 actual_time=223680
type: note_off, time: 480, actual_time: 224160
type=note_on channel=0 note=67 velocity=95 time=0 actual_time=224160
type: note_off, time: 240, actual_time: 224400
type=note_on channel=0 note=67 velocity=95 time=0 actual_time=224400
type: note_off, time: 480, actual_time: 224880
type=note_on channel=0 note=67 velocity=95 time=0 actual_time=224880
type: note_off, time: 480, actual_time: 225360
type=note_on channel=0 note=66 velocity=95 time=0 actual_time=225360
type: note_off, time: 240, actual_time: 225600
type=note_on channel=0 note=67 velocity=95 time=0 actual_time=225600
type: note_off, time: 240, actual_time: 225840
type=note_on channel=0 note=66 velocity=95 time=0 actual_time=225840
type: note_off, time: 240, actual_time: 226080
type=note_on channel=0 note=62 velocity=95 time=0 actual_time=226080
type: note_off, time: 480, actual_time: 226560
type=note_on channel=1 note=62 velocity=95 time=0 actual_time=226560
type: pitchwheel, time: 120, actual_time: 226680
type: pitchwheel, time: 120, actual_time: 226800
type: pitchwheel, time: 0, actual_time: 226800
type: note_off, time: 0, actual_time: 226800
type=note_on channel=1 note=64 velocity=95 time=0 actual_time=226800
type: pitchwheel, time: 160, actual_time: 226960
type: pitchwheel, time: 160, actual_time: 227120
type: pitchwheel, time: 160, actual_time: 227280
type: pitchwheel, time: 160, actual_time: 227440
type: pitchwheel, time: 160, actual_time: 227600
type: pitchwheel, time: 160, actual_time: 227760
type: pitchwheel, time: 160, actual_time: 227920
type: pitchwheel, time: 160, actual_time: 228080
type: pitchwheel, time: 160, actual_time: 228240
type: pitchwheel, time: 160, actual_time: 228400
type: pitchwheel, time: 160, actual_time: 228560
type: pitchwheel, time: 160, actual_time: 228720
type: pitchwheel, time: 160, actual_time: 228880
type: pitchwheel, time: 160, actual_time: 229040
type: pitchwheel, time: 160, actual_time: 229200
type: pitchwheel, time: 160, actual_time: 229360
type: pitchwheel, time: 160, actual_time: 229520
type: pitchwheel, time: 160, actual_time: 229680
type: pitchwheel, time: 160, actual_time: 229840
type: pitchwheel, time: 160, actual_time: 230000
type: pitchwheel, time: 160, actual_time: 230160
type: pitchwheel, time: 160, actual_time: 230320
type: pitchwheel, time: 80, actual_time: 230400
type: pitchwheel, time: 0, actual_time: 230400
type: pitchwheel, time: 0, actual_time: 230400
type: note_off, time: 0, actual_time: 230400
type=note_on channel=0 note=50 velocity=95 time=0 actual_time=230400
type: note_off, time: 240, actual_time: 230640
type=note_on channel=0 note=52 velocity=70 time=0 actual_time=230640
type: note_off, time: 240, actual_time: 230880
type=note_on channel=0 note=40 velocity=95 time=0 actual_time=230880
type: note_off, time: 240, actual_time: 231120
type=note_on channel=0 note=40 velocity=95 time=0 actual_time=231120
type: note_off, time: 240, actual_time: 231360
type=note_on channel=0 note=40 velocity=95 time=0 actual_time=231360
type: note_off, time: 240, actual_time: 231600
type=note_on channel=0 note=40 velocity=95 time=0 actual_time=231600
type: note_off, time: 240, actual_time: 231840
type=note_on channel=0 note=40 velocity=95 time=0 actual_time=231840
type: note_off, time: 240, actual_time: 232080
type=note_on channel=0 note=48 velocity=95 time=0 actual_time=232080
type: note_off, time: 240, actual_time: 232320
type=note_on channel=0 note=40 velocity=95 time=0 actual_time=232320
type: note_off, time: 240, actual_time: 232560
type=note_on channel=0 note=47 velocity=95 time=0 actual_time=232560
type: note_off, time: 240, actual_time: 232800
type=note_on channel=0 note=40 velocity=95 time=0 actual_time=232800
type: note_off, time: 240, actual_time: 233040
type=note_on channel=0 note=40 velocity=95 time=0 actual_time=233040
type: note_off, time: 240, actual_time: 233280
type=note_on channel=0 note=47 velocity=95 time=0 actual_time=233280
type: note_off, time: 240, actual_time: 233520
type=note_on channel=0 note=40 velocity=95 time=0 actual_time=233520
type: note_off, time: 240, actual_time: 233760
type=note_on channel=0 note=48 velocity=95 time=0 actual_time=233760
type: note_off, time: 240, actual_time: 234000
type=note_on channel=0 note=40 velocity=95 time=0 actual_time=234000
type: note_off, time: 240, actual_time: 234240
type=note_on channel=0 note=50 velocity=95 time=0 actual_time=234240
type: note_off, time: 240, actual_time: 234480
type=note_on channel=0 note=52 velocity=70 time=0 actual_time=234480
type: note_off, time: 240, actual_time: 234720
type=note_on channel=0 note=40 velocity=95 time=0 actual_time=234720
type: note_off, time: 240, actual_time: 234960
type=note_on channel=0 note=40 velocity=95 time=0 actual_time=234960
type: note_off, time: 240, actual_time: 235200
type=note_on channel=0 note=40 velocity=95 time=0 actual_time=235200
type: note_off, time: 240, actual_time: 235440
type=note_on channel=0 note=40 velocity=95 time=0 actual_time=235440
type: note_off, time: 240, actual_time: 235680
type=note_on channel=0 note=40 velocity=95 time=0 actual_time=235680
type: note_off, time: 240, actual_time: 235920
type=note_on channel=0 note=48 velocity=95 time=0 actual_time=235920
type: note_off, time: 240, actual_time: 236160
type=note_on channel=0 note=40 velocity=95 time=0 actual_time=236160
type: note_off, time: 240, actual_time: 236400
type=note_on channel=0 note=47 velocity=95 time=0 actual_time=236400
type: note_off, time: 240, actual_time: 236640
type=note_on channel=0 note=40 velocity=95 time=0 actual_time=236640
type: note_off, time: 240, actual_time: 236880
type=note_on channel=0 note=40 velocity=95 time=0 actual_time=236880
type: note_off, time: 240, actual_time: 237120
type=note_on channel=0 note=47 velocity=95 time=0 actual_time=237120
type: note_off, time: 240, actual_time: 237360
type=note_on channel=0 note=48 velocity=70 time=0 actual_time=237360
type: note_off, time: 240, actual_time: 237600
type=note_on channel=0 note=47 velocity=70 time=0 actual_time=237600
type: note_off, time: 240, actual_time: 237840
type=note_on channel=0 note=45 velocity=70 time=0 actual_time=237840
type: note_off, time: 240, actual_time: 238080
type=note_on channel=0 note=50 velocity=95 time=0 actual_time=238080
type: note_off, time: 240, actual_time: 238320
type=note_on channel=0 note=52 velocity=70 time=0 actual_time=238320
type: note_off, time: 240, actual_time: 238560
type=note_on channel=0 note=40 velocity=95 time=0 actual_time=238560
type: note_off, time: 240, actual_time: 238800
type=note_on channel=0 note=40 velocity=95 time=0 actual_time=238800
type: note_off, time: 240, actual_time: 239040
type=note_on channel=0 note=40 velocity=95 time=0 actual_time=239040
type: note_off, time: 240, actual_time: 239280
type=note_on channel=0 note=40 velocity=95 time=0 actual_time=239280
type: note_off, time: 240, actual_time: 239520
type=note_on channel=0 note=40 velocity=95 time=0 actual_time=239520
type: note_off, time: 240, actual_time: 239760
type=note_on channel=0 note=48 velocity=95 time=0 actual_time=239760
type: note_off, time: 240, actual_time: 240000
type=note_on channel=0 note=40 velocity=95 time=0 actual_time=240000
type: note_off, time: 240, actual_time: 240240
type=note_on channel=0 note=47 velocity=95 time=0 actual_time=240240
type: note_off, time: 240, actual_time: 240480
type=note_on channel=0 note=40 velocity=95 time=0 actual_time=240480
type: note_off, time: 240, actual_time: 240720
type=note_on channel=0 note=40 velocity=95 time=0 actual_time=240720
type: note_off, time: 240, actual_time: 240960
type=note_on channel=0 note=47 velocity=95 time=0 actual_time=240960
type: note_off, time: 240, actual_time: 241200
type=note_on channel=0 note=40 velocity=95 time=0 actual_time=241200
type: note_off, time: 240, actual_time: 241440
type=note_on channel=0 note=48 velocity=95 time=0 actual_time=241440
type: note_off, time: 240, actual_time: 241680
type=note_on channel=0 note=40 velocity=95 time=0 actual_time=241680
type: note_off, time: 240, actual_time: 241920
type=note_on channel=0 note=50 velocity=95 time=0 actual_time=241920
type: note_off, time: 240, actual_time: 242160
type=note_on channel=0 note=52 velocity=70 time=0 actual_time=242160
type: note_off, time: 240, actual_time: 242400
type=note_on channel=0 note=40 velocity=95 time=0 actual_time=242400
type: note_off, time: 240, actual_time: 242640
type=note_on channel=0 note=40 velocity=95 time=0 actual_time=242640
type: note_off, time: 240, actual_time: 242880
type=note_on channel=0 note=40 velocity=95 time=0 actual_time=242880
type: note_off, time: 240, actual_time: 243120
type=note_on channel=0 note=40 velocity=95 time=0 actual_time=243120
type: note_off, time: 240, actual_time: 243360
type=note_on channel=0 note=40 velocity=95 time=0 actual_time=243360
type: note_off, time: 240, actual_time: 243600
type=note_on channel=0 note=48 velocity=95 time=0 actual_time=243600
type: note_off, time: 240, actual_time: 243840
type=note_on channel=0 note=40 velocity=95 time=0 actual_time=243840
type: note_off, time: 240, actual_time: 244080
type=note_on channel=0 note=47 velocity=95 time=0 actual_time=244080
type: note_off, time: 240, actual_time: 244320
type=note_on channel=0 note=40 velocity=95 time=0 actual_time=244320
type: note_off, time: 240, actual_time: 244560
type=note_on channel=0 note=40 velocity=95 time=0 actual_time=244560
type: note_off, time: 240, actual_time: 244800
type=note_on channel=0 note=47 velocity=95 time=0 actual_time=244800
type: note_off, time: 240, actual_time: 245040
type=note_on channel=0 note=48 velocity=70 time=0 actual_time=245040
type: note_off, time: 240, actual_time: 245280
type=note_on channel=0 note=47 velocity=70 time=0 actual_time=245280
type: note_off, time: 240, actual_time: 245520
type=note_on channel=0 note=45 velocity=70 time=0 actual_time=245520
type: note_off, time: 240, actual_time: 245760
type=note_on channel=0 note=64 velocity=95 time=0 actual_time=245760
type=note_on channel=0 note=59 velocity=95 time=0 actual_time=245760
type=note_on channel=0 note=52 velocity=95 time=0 actual_time=245760
type: note_off, time: 720, actual_time: 246480
type: note_off, time: 0, actual_time: 246480
type: note_off, time: 0, actual_time: 246480
type=note_on channel=0 note=64 velocity=95 time=0 actual_time=246480
type=note_on channel=0 note=59 velocity=95 time=0 actual_time=246480
type=note_on channel=0 note=52 velocity=95 time=0 actual_time=246480
type: note_off, time: 240, actual_time: 246720
type: note_off, time: 0, actual_time: 246720
type: note_off, time: 0, actual_time: 246720
type=note_on channel=0 note=64 velocity=95 time=0 actual_time=246720
type=note_on channel=0 note=59 velocity=95 time=0 actual_time=246720
type=note_on channel=0 note=52 velocity=95 time=0 actual_time=246720
type: note_off, time: 240, actual_time: 246960
type: note_off, time: 0, actual_time: 246960
type: note_off, time: 0, actual_time: 246960
type=note_on channel=0 note=64 velocity=95 time=0 actual_time=246960
type=note_on channel=0 note=59 velocity=95 time=0 actual_time=246960
type=note_on channel=0 note=52 velocity=95 time=0 actual_time=246960
type: note_off, time: 240, actual_time: 247200
type: note_off, time: 0, actual_time: 247200
type: note_off, time: 0, actual_time: 247200
type=note_on channel=0 note=64 velocity=95 time=0 actual_time=247200
type=note_on channel=0 note=59 velocity=95 time=0 actual_time=247200
type=note_on channel=0 note=52 velocity=95 time=0 actual_time=247200
type: note_off, time: 240, actual_time: 247440
type: note_off, time: 0, actual_time: 247440
type: note_off, time: 0, actual_time: 247440
type=note_on channel=0 note=67 velocity=95 time=0 actual_time=247440
type=note_on channel=0 note=62 velocity=95 time=0 actual_time=247440
type=note_on channel=0 note=55 velocity=95 time=0 actual_time=247440
type: note_off, time: 480, actual_time: 247920
type: note_off, time: 0, actual_time: 247920
type: note_off, time: 0, actual_time: 247920
type=note_on channel=0 note=67 velocity=95 time=0 actual_time=247920
type=note_on channel=0 note=62 velocity=95 time=0 actual_time=247920
type=note_on channel=0 note=55 velocity=95 time=0 actual_time=247920
type: note_off, time: 480, actual_time: 248400
type: note_off, time: 0, actual_time: 248400
type: note_off, time: 0, actual_time: 248400
type=note_on channel=0 note=66 velocity=95 time=0 actual_time=248400
type=note_on channel=0 note=61 velocity=95 time=0 actual_time=248400
type=note_on channel=0 note=54 velocity=95 time=0 actual_time=248400
type: note_off, time: 480, actual_time: 248880
type: note_off, time: 0, actual_time: 248880
type: note_off, time: 0, actual_time: 248880
type=note_on channel=0 note=66 velocity=95 time=0 actual_time=248880
type=note_on channel=0 note=61 velocity=95 time=0 actual_time=248880
type=note_on channel=0 note=54 velocity=95 time=0 actual_time=248880
type: note_off, time: 240, actual_time: 249120
type: note_off, time: 0, actual_time: 249120
type: note_off, time: 0, actual_time: 249120
type=note_on channel=0 note=64 velocity=95 time=0 actual_time=249120
type=note_on channel=0 note=59 velocity=95 time=0 actual_time=249120
type=note_on channel=0 note=52 velocity=95 time=0 actual_time=249120
type: note_off, time: 480, actual_time: 249600
type: note_off, time: 0, actual_time: 249600
type: note_off, time: 0, actual_time: 249600
type=note_on channel=0 note=60 velocity=95 time=0 actual_time=249600
type=note_on channel=0 note=55 velocity=95 time=0 actual_time=249600
type=note_on channel=0 note=48 velocity=95 time=0 actual_time=249600
type: note_off, time: 720, actual_time: 250320
type: note_off, time: 0, actual_time: 250320
type: note_off, time: 0, actual_time: 250320
type=note_on channel=0 note=60 velocity=95 time=0 actual_time=250320
type=note_on channel=0 note=55 velocity=95 time=0 actual_time=250320
type=note_on channel=0 note=48 velocity=95 time=0 actual_time=250320
type: note_off, time: 240, actual_time: 250560
type: note_off, time: 0, actual_time: 250560
type: note_off, time: 0, actual_time: 250560
type=note_on channel=0 note=60 velocity=95 time=0 actual_time=250560
type=note_on channel=0 note=55 velocity=95 time=0 actual_time=250560
type=note_on channel=0 note=48 velocity=95 time=0 actual_time=250560
type: note_off, time: 480, actual_time: 251040
type: note_off, time: 0, actual_time: 251040
type: note_off, time: 0, actual_time: 251040
type=note_on channel=0 note=59 velocity=95 time=0 actual_time=251040
type=note_on channel=0 note=54 velocity=95 time=0 actual_time=251040
type=note_on channel=0 note=47 velocity=95 time=0 actual_time=251040
type: note_off, time: 240, actual_time: 251280
type: note_off, time: 0, actual_time: 251280
type: note_off, time: 0, actual_time: 251280
type=note_on channel=0 note=59 velocity=95 time=0 actual_time=251280
type=note_on channel=0 note=54 velocity=95 time=0 actual_time=251280
type=note_on channel=0 note=47 velocity=95 time=0 actual_time=251280
type: note_off, time: 480, actual_time: 251760
type: note_off, time: 0, actual_time: 251760
type: note_off, time: 0, actual_time: 251760
type=note_on channel=0 note=59 velocity=95 time=0 actual_time=251760
type=note_on channel=0 note=54 velocity=95 time=0 actual_time=251760
type=note_on channel=0 note=47 velocity=95 time=0 actual_time=251760
type: note_off, time: 480, actual_time: 252240
type: note_off, time: 0, actual_time: 252240
type: note_off, time: 0, actual_time: 252240
type=note_on channel=0 note=60 velocity=95 time=0 actual_time=252240
type=note_on channel=0 note=55 velocity=95 time=0 actual_time=252240
type=note_on channel=0 note=48 velocity=95 time=0 actual_time=252240
type: note_off, time: 480, actual_time: 252720
type: note_off, time: 0, actual_time: 252720
type: note_off, time: 0, actual_time: 252720
type=note_on channel=0 note=60 velocity=95 time=0 actual_time=252720
type=note_on channel=0 note=55 velocity=95 time=0 actual_time=252720
type=note_on channel=0 note=48 velocity=95 time=0 actual_time=252720
type: note_off, time: 240, actual_time: 252960
type: note_off, time: 0, actual_time: 252960
type: note_off, time: 0, actual_time: 252960
type=note_on channel=0 note=62 velocity=95 time=0 actual_time=252960
type=note_on channel=0 note=57 velocity=95 time=0 actual_time=252960
type=note_on channel=0 note=50 velocity=95 time=0 actual_time=252960
type: note_off, time: 480, actual_time: 253440
type: note_off, time: 0, actual_time: 253440
type: note_off, time: 0, actual_time: 253440
type=note_on channel=0 note=64 velocity=95 time=0 actual_time=253440
type=note_on channel=0 note=59 velocity=95 time=0 actual_time=253440
type=note_on channel=0 note=52 velocity=95 time=0 actual_time=253440
type: note_off, time: 720, actual_time: 254160
type: note_off, time: 0, actual_time: 254160
type: note_off, time: 0, actual_time: 254160
type=note_on channel=0 note=64 velocity=95 time=0 actual_time=254160
type=note_on channel=0 note=59 velocity=95 time=0 actual_time=254160
type=note_on channel=0 note=52 velocity=95 time=0 actual_time=254160
type: note_off, time: 240, actual_time: 254400
type: note_off, time: 0, actual_time: 254400
type: note_off, time: 0, actual_time: 254400
type=note_on channel=0 note=64 velocity=95 time=0 actual_time=254400
type=note_on channel=0 note=59 velocity=95 time=0 actual_time=254400
type=note_on channel=0 note=52 velocity=95 time=0 actual_time=254400
type: note_off, time: 240, actual_time: 254640
type: note_off, time: 0, actual_time: 254640
type: note_off, time: 0, actual_time: 254640
type=note_on channel=0 note=64 velocity=95 time=0 actual_time=254640
type=note_on channel=0 note=59 velocity=95 time=0 actual_time=254640
type=note_on channel=0 note=52 velocity=95 time=0 actual_time=254640
type: note_off, time: 240, actual_time: 254880
type: note_off, time: 0, actual_time: 254880
type: note_off, time: 0, actual_time: 254880
type=note_on channel=0 note=64 velocity=95 time=0 actual_time=254880
type=note_on channel=0 note=59 velocity=95 time=0 actual_time=254880
type=note_on channel=0 note=52 velocity=95 time=0 actual_time=254880
type: note_off, time: 240, actual_time: 255120
type: note_off, time: 0, actual_time: 255120
type: note_off, time: 0, actual_time: 255120
type=note_on channel=0 note=67 velocity=95 time=0 actual_time=255120
type=note_on channel=0 note=62 velocity=95 time=0 actual_time=255120
type=note_on channel=0 note=55 velocity=95 time=0 actual_time=255120
type: note_off, time: 480, actual_time: 255600
type: note_off, time: 0, actual_time: 255600
type: note_off, time: 0, actual_time: 255600
type=note_on channel=0 note=67 velocity=95 time=0 actual_time=255600
type=note_on channel=0 note=62 velocity=95 time=0 actual_time=255600
type=note_on channel=0 note=55 velocity=95 time=0 actual_time=255600
type: note_off, time: 480, actual_time: 256080
type: note_off, time: 0, actual_time: 256080
type: note_off, time: 0, actual_time: 256080
type=note_on channel=0 note=66 velocity=95 time=0 actual_time=256080
type=note_on channel=0 note=61 velocity=95 time=0 actual_time=256080
type=note_on channel=0 note=54 velocity=95 time=0 actual_time=256080
type: note_off, time: 480, actual_time: 256560
type: note_off, time: 0, actual_time: 256560
type: note_off, time: 0, actual_time: 256560
type=note_on channel=0 note=66 velocity=95 time=0 actual_time=256560
type=note_on channel=0 note=61 velocity=95 time=0 actual_time=256560
type=note_on channel=0 note=54 velocity=95 time=0 actual_time=256560
type: note_off, time: 240, actual_time: 256800
type: note_off, time: 0, actual_time: 256800
type: note_off, time: 0, actual_time: 256800
type=note_on channel=0 note=69 velocity=95 time=0 actual_time=256800
type=note_on channel=0 note=64 velocity=95 time=0 actual_time=256800
type=note_on channel=0 note=57 velocity=95 time=0 actual_time=256800
type: note_off, time: 480, actual_time: 257280
type: note_off, time: 0, actual_time: 257280
type: note_off, time: 0, actual_time: 257280
type=note_on channel=0 note=60 velocity=95 time=0 actual_time=257280
type=note_on channel=0 note=55 velocity=95 time=0 actual_time=257280
type=note_on channel=0 note=48 velocity=95 time=0 actual_time=257280
type: note_off, time: 720, actual_time: 258000
type: note_off, time: 0, actual_time: 258000
type: note_off, time: 0, actual_time: 258000
type=note_on channel=0 note=60 velocity=95 time=0 actual_time=258000
type=note_on channel=0 note=55 velocity=95 time=0 actual_time=258000
type=note_on channel=0 note=48 velocity=95 time=0 actual_time=258000
type: note_off, time: 240, actual_time: 258240
type: note_off, time: 0, actual_time: 258240
type: note_off, time: 0, actual_time: 258240
type=note_on channel=0 note=60 velocity=95 time=0 actual_time=258240
type=note_on channel=0 note=55 velocity=95 time=0 actual_time=258240
type=note_on channel=0 note=48 velocity=95 time=0 actual_time=258240
type: note_off, time: 480, actual_time: 258720
type: note_off, time: 0, actual_time: 258720
type: note_off, time: 0, actual_time: 258720
type=note_on channel=0 note=59 velocity=95 time=0 actual_time=258720
type=note_on channel=0 note=54 velocity=95 time=0 actual_time=258720
type=note_on channel=0 note=47 velocity=95 time=0 actual_time=258720
type: note_off, time: 240, actual_time: 258960
type: note_off, time: 0, actual_time: 258960
type: note_off, time: 0, actual_time: 258960
type=note_on channel=0 note=59 velocity=95 time=0 actual_time=258960
type=note_on channel=0 note=54 velocity=95 time=0 actual_time=258960
type=note_on channel=0 note=47 velocity=95 time=0 actual_time=258960
type: note_off, time: 480, actual_time: 259440
type: note_off, time: 0, actual_time: 259440
type: note_off, time: 0, actual_time: 259440
type=note_on channel=0 note=59 velocity=95 time=0 actual_time=259440
type=note_on channel=0 note=54 velocity=95 time=0 actual_time=259440
type=note_on channel=0 note=47 velocity=95 time=0 actual_time=259440
type: note_off, time: 480, actual_time: 259920
type: note_off, time: 0, actual_time: 259920
type: note_off, time: 0, actual_time: 259920
type=note_on channel=0 note=60 velocity=95 time=0 actual_time=259920
type=note_on channel=0 note=55 velocity=95 time=0 actual_time=259920
type=note_on channel=0 note=48 velocity=95 time=0 actual_time=259920
type: note_off, time: 480, actual_time: 260400
type: note_off, time: 0, actual_time: 260400
type: note_off, time: 0, actual_time: 260400
type=note_on channel=0 note=60 velocity=95 time=0 actual_time=260400
type=note_on channel=0 note=55 velocity=95 time=0 actual_time=260400
type=note_on channel=0 note=48 velocity=95 time=0 actual_time=260400
type: note_off, time: 240, actual_time: 260640
type: note_off, time: 0, actual_time: 260640
type: note_off, time: 0, actual_time: 260640
type=note_on channel=0 note=62 velocity=95 time=0 actual_time=260640
type=note_on channel=0 note=57 velocity=95 time=0 actual_time=260640
type=note_on channel=0 note=50 velocity=95 time=0 actual_time=260640
type: note_off, time: 480, actual_time: 261120
type: note_off, time: 0, actual_time: 261120
type: note_off, time: 0, actual_time: 261120
type=note_on channel=0 note=64 velocity=95 time=0 actual_time=261120
type=note_on channel=0 note=59 velocity=95 time=0 actual_time=261120
type=note_on channel=0 note=52 velocity=95 time=0 actual_time=261120
type: note_off, time: 720, actual_time: 261840
type: note_off, time: 0, actual_time: 261840
type: note_off, time: 0, actual_time: 261840
type=note_on channel=0 note=64 velocity=95 time=0 actual_time=261840
type=note_on channel=0 note=59 velocity=95 time=0 actual_time=261840
type=note_on channel=0 note=52 velocity=95 time=0 actual_time=261840
type: note_off, time: 240, actual_time: 262080
type: note_off, time: 0, actual_time: 262080
type: note_off, time: 0, actual_time: 262080
type=note_on channel=0 note=64 velocity=95 time=0 actual_time=262080
type=note_on channel=0 note=59 velocity=95 time=0 actual_time=262080
type=note_on channel=0 note=52 velocity=95 time=0 actual_time=262080
type: note_off, time: 240, actual_time: 262320
type: note_off, time: 0, actual_time: 262320
type: note_off, time: 0, actual_time: 262320
type=note_on channel=0 note=64 velocity=95 time=0 actual_time=262320
type=note_on channel=0 note=59 velocity=95 time=0 actual_time=262320
type=note_on channel=0 note=52 velocity=95 time=0 actual_time=262320
type: note_off, time: 240, actual_time: 262560
type: note_off, time: 0, actual_time: 262560
type: note_off, time: 0, actual_time: 262560
type=note_on channel=0 note=64 velocity=95 time=0 actual_time=262560
type=note_on channel=0 note=59 velocity=95 time=0 actual_time=262560
type=note_on channel=0 note=52 velocity=95 time=0 actual_time=262560
type: note_off, time: 240, actual_time: 262800
type: note_off, time: 0, actual_time: 262800
type: note_off, time: 0, actual_time: 262800
type=note_on channel=0 note=67 velocity=95 time=0 actual_time=262800
type=note_on channel=0 note=62 velocity=95 time=0 actual_time=262800
type=note_on channel=0 note=55 velocity=95 time=0 actual_time=262800
type: note_off, time: 480, actual_time: 263280
type: note_off, time: 0, actual_time: 263280
type: note_off, time: 0, actual_time: 263280
type=note_on channel=0 note=67 velocity=95 time=0 actual_time=263280
type=note_on channel=0 note=62 velocity=95 time=0 actual_time=263280
type=note_on channel=0 note=55 velocity=95 time=0 actual_time=263280
type: note_off, time: 480, actual_time: 263760
type: note_off, time: 0, actual_time: 263760
type: note_off, time: 0, actual_time: 263760
type=note_on channel=0 note=66 velocity=95 time=0 actual_time=263760
type=note_on channel=0 note=61 velocity=95 time=0 actual_time=263760
type=note_on channel=0 note=54 velocity=95 time=0 actual_time=263760
type: note_off, time: 480, actual_time: 264240
type: note_off, time: 0, actual_time: 264240
type: note_off, time: 0, actual_time: 264240
type=note_on channel=0 note=66 velocity=95 time=0 actual_time=264240
type=note_on channel=0 note=61 velocity=95 time=0 actual_time=264240
type=note_on channel=0 note=54 velocity=95 time=0 actual_time=264240
type: note_off, time: 240, actual_time: 264480
type: note_off, time: 0, actual_time: 264480
type: note_off, time: 0, actual_time: 264480
type=note_on channel=0 note=64 velocity=95 time=0 actual_time=264480
type=note_on channel=0 note=59 velocity=95 time=0 actual_time=264480
type=note_on channel=0 note=52 velocity=95 time=0 actual_time=264480
type: note_off, time: 480, actual_time: 264960
type: note_off, time: 0, actual_time: 264960
type: note_off, time: 0, actual_time: 264960
type=note_on channel=0 note=60 velocity=95 time=0 actual_time=264960
type=note_on channel=0 note=55 velocity=95 time=0 actual_time=264960
type=note_on channel=0 note=48 velocity=95 time=0 actual_time=264960
type: note_off, time: 720, actual_time: 265680
type: note_off, time: 0, actual_time: 265680
type: note_off, time: 0, actual_time: 265680
type=note_on channel=0 note=60 velocity=95 time=0 actual_time=265680
type=note_on channel=0 note=55 velocity=95 time=0 actual_time=265680
type=note_on channel=0 note=48 velocity=95 time=0 actual_time=265680
type: note_off, time: 240, actual_time: 265920
type: note_off, time: 0, actual_time: 265920
type: note_off, time: 0, actual_time: 265920
type=note_on channel=0 note=60 velocity=95 time=0 actual_time=265920
type=note_on channel=0 note=55 velocity=95 time=0 actual_time=265920
type=note_on channel=0 note=48 velocity=95 time=0 actual_time=265920
type: note_off, time: 480, actual_time: 266400
type: note_off, time: 0, actual_time: 266400
type: note_off, time: 0, actual_time: 266400
type=note_on channel=0 note=59 velocity=95 time=0 actual_time=266400
type=note_on channel=0 note=54 velocity=95 time=0 actual_time=266400
type=note_on channel=0 note=47 velocity=95 time=0 actual_time=266400
type: note_off, time: 240, actual_time: 266640
type: note_off, time: 0, actual_time: 266640
type: note_off, time: 0, actual_time: 266640
type=note_on channel=0 note=59 velocity=95 time=0 actual_time=266640
type=note_on channel=0 note=54 velocity=95 time=0 actual_time=266640
type=note_on channel=0 note=47 velocity=95 time=0 actual_time=266640
type: note_off, time: 480, actual_time: 267120
type: note_off, time: 0, actual_time: 267120
type: note_off, time: 0, actual_time: 267120
type=note_on channel=0 note=59 velocity=95 time=0 actual_time=267120
type=note_on channel=0 note=54 velocity=95 time=0 actual_time=267120
type=note_on channel=0 note=47 velocity=95 time=0 actual_time=267120
type: note_off, time: 480, actual_time: 267600
type: note_off, time: 0, actual_time: 267600
type: note_off, time: 0, actual_time: 267600
type=note_on channel=0 note=60 velocity=95 time=0 actual_time=267600
type=note_on channel=0 note=55 velocity=95 time=0 actual_time=267600
type=note_on channel=0 note=48 velocity=95 time=0 actual_time=267600
type: note_off, time: 480, actual_time: 268080
type: note_off, time: 0, actual_time: 268080
type: note_off, time: 0, actual_time: 268080
type=note_on channel=0 note=60 velocity=95 time=0 actual_time=268080
type=note_on channel=0 note=55 velocity=95 time=0 actual_time=268080
type=note_on channel=0 note=48 velocity=95 time=0 actual_time=268080
type: note_off, time: 240, actual_time: 268320
type: note_off, time: 0, actual_time: 268320
type: note_off, time: 0, actual_time: 268320
type=note_on channel=0 note=62 velocity=95 time=0 actual_time=268320
type=note_on channel=0 note=57 velocity=95 time=0 actual_time=268320
type=note_on channel=0 note=50 velocity=95 time=0 actual_time=268320
type: note_off, time: 480, actual_time: 268800
type: note_off, time: 0, actual_time: 268800
type: note_off, time: 0, actual_time: 268800
type=note_on channel=0 note=64 velocity=95 time=0 actual_time=268800
type=note_on channel=0 note=59 velocity=95 time=0 actual_time=268800
type=note_on channel=0 note=52 velocity=95 time=0 actual_time=268800
type: note_off, time: 720, actual_time: 269520
type: note_off, time: 0, actual_time: 269520
type: note_off, time: 0, actual_time: 269520
type=note_on channel=0 note=64 velocity=95 time=0 actual_time=269520
type=note_on channel=0 note=59 velocity=95 time=0 actual_time=269520
type=note_on channel=0 note=52 velocity=95 time=0 actual_time=269520
type: note_off, time: 240, actual_time: 269760
type: note_off, time: 0, actual_time: 269760
type: note_off, time: 0, actual_time: 269760
type=note_on channel=0 note=64 velocity=95 time=0 actual_time=269760
type=note_on channel=0 note=59 velocity=95 time=0 actual_time=269760
type=note_on channel=0 note=52 velocity=95 time=0 actual_time=269760
type: note_off, time: 240, actual_time: 270000
type: note_off, time: 0, actual_time: 270000
type: note_off, time: 0, actual_time: 270000
type=note_on channel=0 note=64 velocity=95 time=0 actual_time=270000
type=note_on channel=0 note=59 velocity=95 time=0 actual_time=270000
type=note_on channel=0 note=52 velocity=95 time=0 actual_time=270000
type: note_off, time: 240, actual_time: 270240
type: note_off, time: 0, actual_time: 270240
type: note_off, time: 0, actual_time: 270240
type=note_on channel=0 note=64 velocity=95 time=0 actual_time=270240
type=note_on channel=0 note=59 velocity=95 time=0 actual_time=270240
type=note_on channel=0 note=52 velocity=95 time=0 actual_time=270240
type: note_off, time: 240, actual_time: 270480
type: note_off, time: 0, actual_time: 270480
type: note_off, time: 0, actual_time: 270480
type=note_on channel=0 note=67 velocity=95 time=0 actual_time=270480
type=note_on channel=0 note=62 velocity=95 time=0 actual_time=270480
type=note_on channel=0 note=55 velocity=95 time=0 actual_time=270480
type: note_off, time: 480, actual_time: 270960
type: note_off, time: 0, actual_time: 270960
type: note_off, time: 0, actual_time: 270960
type=note_on channel=0 note=67 velocity=95 time=0 actual_time=270960
type=note_on channel=0 note=62 velocity=95 time=0 actual_time=270960
type=note_on channel=0 note=55 velocity=95 time=0 actual_time=270960
type: note_off, time: 480, actual_time: 271440
type: note_off, time: 0, actual_time: 271440
type: note_off, time: 0, actual_time: 271440
type=note_on channel=0 note=66 velocity=95 time=0 actual_time=271440
type=note_on channel=0 note=61 velocity=95 time=0 actual_time=271440
type=note_on channel=0 note=54 velocity=95 time=0 actual_time=271440
type: note_off, time: 480, actual_time: 271920
type: note_off, time: 0, actual_time: 271920
type: note_off, time: 0, actual_time: 271920
type=note_on channel=0 note=66 velocity=95 time=0 actual_time=271920
type=note_on channel=0 note=61 velocity=95 time=0 actual_time=271920
type=note_on channel=0 note=54 velocity=95 time=0 actual_time=271920
type: note_off, time: 240, actual_time: 272160
type: note_off, time: 0, actual_time: 272160
type: note_off, time: 0, actual_time: 272160
type=note_on channel=0 note=69 velocity=95 time=0 actual_time=272160
type=note_on channel=0 note=64 velocity=95 time=0 actual_time=272160
type=note_on channel=0 note=57 velocity=95 time=0 actual_time=272160
type: note_off, time: 480, actual_time: 272640
type: note_off, time: 0, actual_time: 272640
type: note_off, time: 0, actual_time: 272640
type=note_on channel=0 note=60 velocity=95 time=0 actual_time=272640
type=note_on channel=0 note=55 velocity=95 time=0 actual_time=272640
type=note_on channel=0 note=48 velocity=95 time=0 actual_time=272640
type: note_off, time: 720, actual_time: 273360
type: note_off, time: 0, actual_time: 273360
type: note_off, time: 0, actual_time: 273360
type=note_on channel=0 note=60 velocity=95 time=0 actual_time=273360
type=note_on channel=0 note=55 velocity=95 time=0 actual_time=273360
type=note_on channel=0 note=48 velocity=95 time=0 actual_time=273360
type: note_off, time: 240, actual_time: 273600
type: note_off, time: 0, actual_time: 273600
type: note_off, time: 0, actual_time: 273600
type=note_on channel=0 note=60 velocity=95 time=0 actual_time=273600
type=note_on channel=0 note=55 velocity=95 time=0 actual_time=273600
type=note_on channel=0 note=48 velocity=95 time=0 actual_time=273600
type: note_off, time: 480, actual_time: 274080
type: note_off, time: 0, actual_time: 274080
type: note_off, time: 0, actual_time: 274080
type=note_on channel=0 note=59 velocity=95 time=0 actual_time=274080
type=note_on channel=0 note=54 velocity=95 time=0 actual_time=274080
type=note_on channel=0 note=47 velocity=95 time=0 actual_time=274080
type: note_off, time: 240, actual_time: 274320
type: note_off, time: 0, actual_time: 274320
type: note_off, time: 0, actual_time: 274320
type=note_on channel=0 note=59 velocity=95 time=0 actual_time=274320
type=note_on channel=0 note=54 velocity=95 time=0 actual_time=274320
type=note_on channel=0 note=47 velocity=95 time=0 actual_time=274320
type: note_off, time: 480, actual_time: 274800
type: note_off, time: 0, actual_time: 274800
type: note_off, time: 0, actual_time: 274800
type=note_on channel=0 note=59 velocity=95 time=0 actual_time=274800
type=note_on channel=0 note=54 velocity=95 time=0 actual_time=274800
type=note_on channel=0 note=47 velocity=95 time=0 actual_time=274800
type: note_off, time: 480, actual_time: 275280
type: note_off, time: 0, actual_time: 275280
type: note_off, time: 0, actual_time: 275280
type=note_on channel=0 note=60 velocity=95 time=0 actual_time=275280
type=note_on channel=0 note=55 velocity=95 time=0 actual_time=275280
type=note_on channel=0 note=48 velocity=95 time=0 actual_time=275280
type: note_off, time: 480, actual_time: 275760
type: note_off, time: 0, actual_time: 275760
type: note_off, time: 0, actual_time: 275760
type=note_on channel=0 note=60 velocity=95 time=0 actual_time=275760
type=note_on channel=0 note=55 velocity=95 time=0 actual_time=275760
type=note_on channel=0 note=48 velocity=95 time=0 actual_time=275760
type: note_off, time: 240, actual_time: 276000
type: note_off, time: 0, actual_time: 276000
type: note_off, time: 0, actual_time: 276000
type=note_on channel=0 note=62 velocity=95 time=0 actual_time=276000
type=note_on channel=0 note=57 velocity=95 time=0 actual_time=276000
type=note_on channel=0 note=50 velocity=95 time=0 actual_time=276000
type: note_off, time: 480, actual_time: 276480
type: note_off, time: 0, actual_time: 276480
type: note_off, time: 0, actual_time: 276480
type=note_on channel=0 note=64 velocity=95 time=0 actual_time=276480
type=note_on channel=0 note=59 velocity=95 time=0 actual_time=276480
type=note_on channel=0 note=52 velocity=95 time=0 actual_time=276480
type: note_off, time: 720, actual_time: 277200
type: note_off, time: 0, actual_time: 277200
type: note_off, time: 0, actual_time: 277200
type=note_on channel=0 note=64 velocity=95 time=0 actual_time=277200
type=note_on channel=0 note=59 velocity=95 time=0 actual_time=277200
type=note_on channel=0 note=52 velocity=95 time=0 actual_time=277200
type: note_off, time: 240, actual_time: 277440
type: note_off, time: 0, actual_time: 277440
type: note_off, time: 0, actual_time: 277440
type=note_on channel=0 note=64 velocity=95 time=0 actual_time=277440
type=note_on channel=0 note=59 velocity=95 time=0 actual_time=277440
type=note_on channel=0 note=52 velocity=95 time=0 actual_time=277440
type: note_off, time: 240, actual_time: 277680
type: note_off, time: 0, actual_time: 277680
type: note_off, time: 0, actual_time: 277680
type=note_on channel=0 note=64 velocity=95 time=0 actual_time=277680
type=note_on channel=0 note=59 velocity=95 time=0 actual_time=277680
type=note_on channel=0 note=52 velocity=95 time=0 actual_time=277680
type: note_off, time: 240, actual_time: 277920
type: note_off, time: 0, actual_time: 277920
type: note_off, time: 0, actual_time: 277920
type=note_on channel=0 note=64 velocity=95 time=0 actual_time=277920
type=note_on channel=0 note=59 velocity=95 time=0 actual_time=277920
type=note_on channel=0 note=52 velocity=95 time=0 actual_time=277920
type: note_off, time: 240, actual_time: 278160
type: note_off, time: 0, actual_time: 278160
type: note_off, time: 0, actual_time: 278160
type=note_on channel=0 note=67 velocity=95 time=0 actual_time=278160
type=note_on channel=0 note=62 velocity=95 time=0 actual_time=278160
type=note_on channel=0 note=55 velocity=95 time=0 actual_time=278160
type: note_off, time: 480, actual_time: 278640
type: note_off, time: 0, actual_time: 278640
type: note_off, time: 0, actual_time: 278640
type=note_on channel=0 note=67 velocity=95 time=0 actual_time=278640
type=note_on channel=0 note=62 velocity=95 time=0 actual_time=278640
type=note_on channel=0 note=55 velocity=95 time=0 actual_time=278640
type: note_off, time: 480, actual_time: 279120
type: note_off, time: 0, actual_time: 279120
type: note_off, time: 0, actual_time: 279120
type=note_on channel=0 note=66 velocity=95 time=0 actual_time=279120
type=note_on channel=0 note=61 velocity=95 time=0 actual_time=279120
type=note_on channel=0 note=54 velocity=95 time=0 actual_time=279120
type: note_off, time: 480, actual_time: 279600
type: note_off, time: 0, actual_time: 279600
type: note_off, time: 0, actual_time: 279600
type=note_on channel=0 note=66 velocity=95 time=0 actual_time=279600
type=note_on channel=0 note=61 velocity=95 time=0 actual_time=279600
type=note_on channel=0 note=54 velocity=95 time=0 actual_time=279600
type: note_off, time: 240, actual_time: 279840
type: note_off, time: 0, actual_time: 279840
type: note_off, time: 0, actual_time: 279840
type=note_on channel=0 note=64 velocity=95 time=0 actual_time=279840
type=note_on channel=0 note=59 velocity=95 time=0 actual_time=279840
type=note_on channel=0 note=52 velocity=95 time=0 actual_time=279840
type: note_off, time: 480, actual_time: 280320
type: note_off, time: 0, actual_time: 280320
type: note_off, time: 0, actual_time: 280320
type=note_on channel=0 note=60 velocity=95 time=0 actual_time=280320
type=note_on channel=0 note=55 velocity=95 time=0 actual_time=280320
type=note_on channel=0 note=48 velocity=95 time=0 actual_time=280320
type: note_off, time: 720, actual_time: 281040
type: note_off, time: 0, actual_time: 281040
type: note_off, time: 0, actual_time: 281040
type=note_on channel=0 note=60 velocity=95 time=0 actual_time=281040
type=note_on channel=0 note=55 velocity=95 time=0 actual_time=281040
type=note_on channel=0 note=48 velocity=95 time=0 actual_time=281040
type: note_off, time: 240, actual_time: 281280
type: note_off, time: 0, actual_time: 281280
type: note_off, time: 0, actual_time: 281280
type=note_on channel=0 note=60 velocity=95 time=0 actual_time=281280
type=note_on channel=0 note=55 velocity=95 time=0 actual_time=281280
type=note_on channel=0 note=48 velocity=95 time=0 actual_time=281280
type: note_off, time: 480, actual_time: 281760
type: note_off, time: 0, actual_time: 281760
type: note_off, time: 0, actual_time: 281760
type=note_on channel=0 note=59 velocity=95 time=0 actual_time=281760
type=note_on channel=0 note=54 velocity=95 time=0 actual_time=281760
type=note_on channel=0 note=47 velocity=95 time=0 actual_time=281760
type: note_off, time: 240, actual_time: 282000
type: note_off, time: 0, actual_time: 282000
type: note_off, time: 0, actual_time: 282000
type=note_on channel=0 note=59 velocity=95 time=0 actual_time=282000
type=note_on channel=0 note=54 velocity=95 time=0 actual_time=282000
type=note_on channel=0 note=47 velocity=95 time=0 actual_time=282000
type: note_off, time: 480, actual_time: 282480
type: note_off, time: 0, actual_time: 282480
type: note_off, time: 0, actual_time: 282480
type=note_on channel=0 note=59 velocity=95 time=0 actual_time=282480
type=note_on channel=0 note=54 velocity=95 time=0 actual_time=282480
type=note_on channel=0 note=47 velocity=95 time=0 actual_time=282480
type: note_off, time: 480, actual_time: 282960
type: note_off, time: 0, actual_time: 282960
type: note_off, time: 0, actual_time: 282960
type=note_on channel=0 note=60 velocity=95 time=0 actual_time=282960
type=note_on channel=0 note=55 velocity=95 time=0 actual_time=282960
type=note_on channel=0 note=48 velocity=95 time=0 actual_time=282960
type: note_off, time: 480, actual_time: 283440
type: note_off, time: 0, actual_time: 283440
type: note_off, time: 0, actual_time: 283440
type=note_on channel=0 note=60 velocity=95 time=0 actual_time=283440
type=note_on channel=0 note=55 velocity=95 time=0 actual_time=283440
type=note_on channel=0 note=48 velocity=95 time=0 actual_time=283440
type: note_off, time: 240, actual_time: 283680
type: note_off, time: 0, actual_time: 283680
type: note_off, time: 0, actual_time: 283680
type=note_on channel=0 note=62 velocity=95 time=0 actual_time=283680
type=note_on channel=0 note=57 velocity=95 time=0 actual_time=283680
type=note_on channel=0 note=50 velocity=95 time=0 actual_time=283680
type: note_off, time: 480, actual_time: 284160
type: note_off, time: 0, actual_time: 284160
type: note_off, time: 0, actual_time: 284160
type=note_on channel=0 note=64 velocity=95 time=0 actual_time=284160
type=note_on channel=0 note=59 velocity=95 time=0 actual_time=284160
type=note_on channel=0 note=52 velocity=95 time=0 actual_time=284160
type: note_off, time: 720, actual_time: 284880
type: note_off, time: 0, actual_time: 284880
type: note_off, time: 0, actual_time: 284880
type=note_on channel=0 note=64 velocity=95 time=0 actual_time=284880
type=note_on channel=0 note=59 velocity=95 time=0 actual_time=284880
type=note_on channel=0 note=52 velocity=95 time=0 actual_time=284880
type: note_off, time: 240, actual_time: 285120
type: note_off, time: 0, actual_time: 285120
type: note_off, time: 0, actual_time: 285120
type=note_on channel=0 note=64 velocity=95 time=0 actual_time=285120
type=note_on channel=0 note=59 velocity=95 time=0 actual_time=285120
type=note_on channel=0 note=52 velocity=95 time=0 actual_time=285120
type: note_off, time: 240, actual_time: 285360
type: note_off, time: 0, actual_time: 285360
type: note_off, time: 0, actual_time: 285360
type=note_on channel=0 note=64 velocity=95 time=0 actual_time=285360
type=note_on channel=0 note=59 velocity=95 time=0 actual_time=285360
type=note_on channel=0 note=52 velocity=95 time=0 actual_time=285360
type: note_off, time: 240, actual_time: 285600
type: note_off, time: 0, actual_time: 285600
type: note_off, time: 0, actual_time: 285600
type=note_on channel=0 note=64 velocity=95 time=0 actual_time=285600
type=note_on channel=0 note=59 velocity=95 time=0 actual_time=285600
type=note_on channel=0 note=52 velocity=95 time=0 actual_time=285600
type: note_off, time: 240, actual_time: 285840
type: note_off, time: 0, actual_time: 285840
type: note_off, time: 0, actual_time: 285840
type=note_on channel=0 note=67 velocity=95 time=0 actual_time=285840
type=note_on channel=0 note=62 velocity=95 time=0 actual_time=285840
type=note_on channel=0 note=55 velocity=95 time=0 actual_time=285840
type: note_off, time: 480, actual_time: 286320
type: note_off, time: 0, actual_time: 286320
type: note_off, time: 0, actual_time: 286320
type=note_on channel=0 note=67 velocity=95 time=0 actual_time=286320
type=note_on channel=0 note=62 velocity=95 time=0 actual_time=286320
type=note_on channel=0 note=55 velocity=95 time=0 actual_time=286320
type: note_off, time: 480, actual_time: 286800
type: note_off, time: 0, actual_time: 286800
type: note_off, time: 0, actual_time: 286800
type=note_on channel=0 note=66 velocity=95 time=0 actual_time=286800
type=note_on channel=0 note=61 velocity=95 time=0 actual_time=286800
type=note_on channel=0 note=54 velocity=95 time=0 actual_time=286800
type: note_off, time: 480, actual_time: 287280
type: note_off, time: 0, actual_time: 287280
type: note_off, time: 0, actual_time: 287280
type=note_on channel=0 note=66 velocity=95 time=0 actual_time=287280
type=note_on channel=0 note=61 velocity=95 time=0 actual_time=287280
type=note_on channel=0 note=54 velocity=95 time=0 actual_time=287280
type: note_off, time: 240, actual_time: 287520
type: note_off, time: 0, actual_time: 287520
type: note_off, time: 0, actual_time: 287520
type=note_on channel=0 note=69 velocity=95 time=0 actual_time=287520
type=note_on channel=0 note=64 velocity=95 time=0 actual_time=287520
type=note_on channel=0 note=57 velocity=95 time=0 actual_time=287520
type: note_off, time: 480, actual_time: 288000
type: note_off, time: 0, actual_time: 288000
type: note_off, time: 0, actual_time: 288000
type=note_on channel=0 note=60 velocity=95 time=0 actual_time=288000
type=note_on channel=0 note=55 velocity=95 time=0 actual_time=288000
type=note_on channel=0 note=48 velocity=95 time=0 actual_time=288000
type: note_off, time: 720, actual_time: 288720
type: note_off, time: 0, actual_time: 288720
type: note_off, time: 0, actual_time: 288720
type=note_on channel=0 note=60 velocity=95 time=0 actual_time=288720
type=note_on channel=0 note=55 velocity=95 time=0 actual_time=288720
type=note_on channel=0 note=48 velocity=95 time=0 actual_time=288720
type: note_off, time: 240, actual_time: 288960
type: note_off, time: 0, actual_time: 288960
type: note_off, time: 0, actual_time: 288960
type=note_on channel=0 note=60 velocity=95 time=0 actual_time=288960
type=note_on channel=0 note=55 velocity=95 time=0 actual_time=288960
type=note_on channel=0 note=48 velocity=95 time=0 actual_time=288960
type: note_off, time: 480, actual_time: 289440
type: note_off, time: 0, actual_time: 289440
type: note_off, time: 0, actual_time: 289440
type=note_on channel=0 note=59 velocity=95 time=0 actual_time=289440
type=note_on channel=0 note=54 velocity=95 time=0 actual_time=289440
type=note_on channel=0 note=47 velocity=95 time=0 actual_time=289440
type: note_off, time: 240, actual_time: 289680
type: note_off, time: 0, actual_time: 289680
type: note_off, time: 0, actual_time: 289680
type=note_on channel=0 note=59 velocity=95 time=0 actual_time=289680
type=note_on channel=0 note=54 velocity=95 time=0 actual_time=289680
type=note_on channel=0 note=47 velocity=95 time=0 actual_time=289680
type: note_off, time: 480, actual_time: 290160
type: note_off, time: 0, actual_time: 290160
type: note_off, time: 0, actual_time: 290160
type=note_on channel=0 note=59 velocity=95 time=0 actual_time=290160
type=note_on channel=0 note=54 velocity=95 time=0 actual_time=290160
type=note_on channel=0 note=47 velocity=95 time=0 actual_time=290160
type: note_off, time: 480, actual_time: 290640
type: note_off, time: 0, actual_time: 290640
type: note_off, time: 0, actual_time: 290640
type=note_on channel=0 note=60 velocity=95 time=0 actual_time=290640
type=note_on channel=0 note=55 velocity=95 time=0 actual_time=290640
type=note_on channel=0 note=48 velocity=95 time=0 actual_time=290640
type: note_off, time: 480, actual_time: 291120
type: note_off, time: 0, actual_time: 291120
type: note_off, time: 0, actual_time: 291120
type=note_on channel=0 note=60 velocity=95 time=0 actual_time=291120
type=note_on channel=0 note=55 velocity=95 time=0 actual_time=291120
type=note_on channel=0 note=48 velocity=95 time=0 actual_time=291120
type: note_off, time: 240, actual_time: 291360
type: note_off, time: 0, actual_time: 291360
type: note_off, time: 0, actual_time: 291360
type=note_on channel=0 note=62 velocity=95 time=0 actual_time=291360
type=note_on channel=0 note=57 velocity=95 time=0 actual_time=291360
type=note_on channel=0 note=50 velocity=95 time=0 actual_time=291360
type: note_off, time: 480, actual_time: 291840
type: note_off, time: 0, actual_time: 291840
type: note_off, time: 0, actual_time: 291840
type=note_on channel=0 note=64 velocity=95 time=0 actual_time=291840
type=note_on channel=0 note=59 velocity=95 time=0 actual_time=291840
type=note_on channel=0 note=52 velocity=95 time=0 actual_time=291840
type: note_off, time: 720, actual_time: 292560
type: note_off, time: 0, actual_time: 292560
type: note_off, time: 0, actual_time: 292560
type=note_on channel=0 note=64 velocity=95 time=0 actual_time=292560
type=note_on channel=0 note=59 velocity=95 time=0 actual_time=292560
type=note_on channel=0 note=52 velocity=95 time=0 actual_time=292560
type: note_off, time: 240, actual_time: 292800
type: note_off, time: 0, actual_time: 292800
type: note_off, time: 0, actual_time: 292800
type=note_on channel=0 note=64 velocity=95 time=0 actual_time=292800
type=note_on channel=0 note=59 velocity=95 time=0 actual_time=292800
type=note_on channel=0 note=52 velocity=95 time=0 actual_time=292800
type: note_off, time: 240, actual_time: 293040
type: note_off, time: 0, actual_time: 293040
type: note_off, time: 0, actual_time: 293040
type=note_on channel=0 note=64 velocity=95 time=0 actual_time=293040
type=note_on channel=0 note=59 velocity=95 time=0 actual_time=293040
type=note_on channel=0 note=52 velocity=95 time=0 actual_time=293040
type: note_off, time: 240, actual_time: 293280
type: note_off, time: 0, actual_time: 293280
type: note_off, time: 0, actual_time: 293280
type=note_on channel=0 note=64 velocity=95 time=0 actual_time=293280
type=note_on channel=0 note=59 velocity=95 time=0 actual_time=293280
type=note_on channel=0 note=52 velocity=95 time=0 actual_time=293280
type: note_off, time: 240, actual_time: 293520
type: note_off, time: 0, actual_time: 293520
type: note_off, time: 0, actual_time: 293520
type=note_on channel=0 note=67 velocity=95 time=0 actual_time=293520
type=note_on channel=0 note=62 velocity=95 time=0 actual_time=293520
type=note_on channel=0 note=55 velocity=95 time=0 actual_time=293520
type: note_off, time: 480, actual_time: 294000
type: note_off, time: 0, actual_time: 294000
type: note_off, time: 0, actual_time: 294000
type=note_on channel=0 note=67 velocity=95 time=0 actual_time=294000
type=note_on channel=0 note=62 velocity=95 time=0 actual_time=294000
type=note_on channel=0 note=55 velocity=95 time=0 actual_time=294000
type: note_off, time: 480, actual_time: 294480
type: note_off, time: 0, actual_time: 294480
type: note_off, time: 0, actual_time: 294480
type=note_on channel=0 note=66 velocity=95 time=0 actual_time=294480
type=note_on channel=0 note=61 velocity=95 time=0 actual_time=294480
type=note_on channel=0 note=54 velocity=95 time=0 actual_time=294480
type: note_off, time: 480, actual_time: 294960
type: note_off, time: 0, actual_time: 294960
type: note_off, time: 0, actual_time: 294960
type=note_on channel=0 note=66 velocity=95 time=0 actual_time=294960
type=note_on channel=0 note=61 velocity=95 time=0 actual_time=294960
type=note_on channel=0 note=54 velocity=95 time=0 actual_time=294960
type: note_off, time: 240, actual_time: 295200
type: note_off, time: 0, actual_time: 295200
type: note_off, time: 0, actual_time: 295200
type=note_on channel=0 note=64 velocity=95 time=0 actual_time=295200
type=note_on channel=0 note=59 velocity=95 time=0 actual_time=295200
type=note_on channel=0 note=52 velocity=95 time=0 actual_time=295200
type: note_off, time: 480, actual_time: 295680
type: note_off, time: 0, actual_time: 295680
type: note_off, time: 0, actual_time: 295680
type=note_on channel=0 note=60 velocity=95 time=0 actual_time=295680
type=note_on channel=0 note=55 velocity=95 time=0 actual_time=295680
type=note_on channel=0 note=48 velocity=95 time=0 actual_time=295680
type: note_off, time: 720, actual_time: 296400
type: note_off, time: 0, actual_time: 296400
type: note_off, time: 0, actual_time: 296400
type=note_on channel=0 note=60 velocity=95 time=0 actual_time=296400
type=note_on channel=0 note=55 velocity=95 time=0 actual_time=296400
type=note_on channel=0 note=48 velocity=95 time=0 actual_time=296400
type: note_off, time: 240, actual_time: 296640
type: note_off, time: 0, actual_time: 296640
type: note_off, time: 0, actual_time: 296640
type=note_on channel=0 note=60 velocity=95 time=0 actual_time=296640
type=note_on channel=0 note=55 velocity=95 time=0 actual_time=296640
type=note_on channel=0 note=48 velocity=95 time=0 actual_time=296640
type: note_off, time: 480, actual_time: 297120
type: note_off, time: 0, actual_time: 297120
type: note_off, time: 0, actual_time: 297120
type=note_on channel=0 note=59 velocity=95 time=0 actual_time=297120
type=note_on channel=0 note=54 velocity=95 time=0 actual_time=297120
type=note_on channel=0 note=47 velocity=95 time=0 actual_time=297120
type: note_off, time: 240, actual_time: 297360
type: note_off, time: 0, actual_time: 297360
type: note_off, time: 0, actual_time: 297360
type=note_on channel=0 note=59 velocity=95 time=0 actual_time=297360
type=note_on channel=0 note=54 velocity=95 time=0 actual_time=297360
type=note_on channel=0 note=47 velocity=95 time=0 actual_time=297360
type: note_off, time: 480, actual_time: 297840
type: note_off, time: 0, actual_time: 297840
type: note_off, time: 0, actual_time: 297840
type=note_on channel=0 note=59 velocity=95 time=0 actual_time=297840
type=note_on channel=0 note=54 velocity=95 time=0 actual_time=297840
type=note_on channel=0 note=47 velocity=95 time=0 actual_time=297840
type: note_off, time: 480, actual_time: 298320
type: note_off, time: 0, actual_time: 298320
type: note_off, time: 0, actual_time: 298320
type=note_on channel=0 note=60 velocity=95 time=0 actual_time=298320
type=note_on channel=0 note=55 velocity=95 time=0 actual_time=298320
type=note_on channel=0 note=48 velocity=95 time=0 actual_time=298320
type: note_off, time: 480, actual_time: 298800
type: note_off, time: 0, actual_time: 298800
type: note_off, time: 0, actual_time: 298800
type=note_on channel=0 note=60 velocity=95 time=0 actual_time=298800
type=note_on channel=0 note=55 velocity=95 time=0 actual_time=298800
type=note_on channel=0 note=48 velocity=95 time=0 actual_time=298800
type: note_off, time: 240, actual_time: 299040
type: note_off, time: 0, actual_time: 299040
type: note_off, time: 0, actual_time: 299040
type=note_on channel=0 note=62 velocity=95 time=0 actual_time=299040
type=note_on channel=0 note=57 velocity=95 time=0 actual_time=299040
type=note_on channel=0 note=50 velocity=95 time=0 actual_time=299040
type: note_off, time: 480, actual_time: 299520
type: note_off, time: 0, actual_time: 299520
type: note_off, time: 0, actual_time: 299520
type=note_on channel=0 note=64 velocity=95 time=0 actual_time=299520
type=note_on channel=0 note=59 velocity=95 time=0 actual_time=299520
type=note_on channel=0 note=52 velocity=95 time=0 actual_time=299520
type: note_off, time: 720, actual_time: 300240
type: note_off, time: 0, actual_time: 300240
type: note_off, time: 0, actual_time: 300240
type=note_on channel=0 note=64 velocity=95 time=0 actual_time=300240
type=note_on channel=0 note=59 velocity=95 time=0 actual_time=300240
type=note_on channel=0 note=52 velocity=95 time=0 actual_time=300240
type: note_off, time: 240, actual_time: 300480
type: note_off, time: 0, actual_time: 300480
type: note_off, time: 0, actual_time: 300480
type=note_on channel=0 note=64 velocity=95 time=0 actual_time=300480
type=note_on channel=0 note=59 velocity=95 time=0 actual_time=300480
type=note_on channel=0 note=52 velocity=95 time=0 actual_time=300480
type: note_off, time: 240, actual_time: 300720
type: note_off, time: 0, actual_time: 300720
type: note_off, time: 0, actual_time: 300720
type=note_on channel=0 note=64 velocity=95 time=0 actual_time=300720
type=note_on channel=0 note=59 velocity=95 time=0 actual_time=300720
type=note_on channel=0 note=52 velocity=95 time=0 actual_time=300720
type: note_off, time: 240, actual_time: 300960
type: note_off, time: 0, actual_time: 300960
type: note_off, time: 0, actual_time: 300960
type=note_on channel=0 note=64 velocity=95 time=0 actual_time=300960
type=note_on channel=0 note=59 velocity=95 time=0 actual_time=300960
type=note_on channel=0 note=52 velocity=95 time=0 actual_time=300960
type: note_off, time: 240, actual_time: 301200
type: note_off, time: 0, actual_time: 301200
type: note_off, time: 0, actual_time: 301200
type=note_on channel=0 note=67 velocity=95 time=0 actual_time=301200
type=note_on channel=0 note=62 velocity=95 time=0 actual_time=301200
type=note_on channel=0 note=55 velocity=95 time=0 actual_time=301200
type: note_off, time: 480, actual_time: 301680
type: note_off, time: 0, actual_time: 301680
type: note_off, time: 0, actual_time: 301680
type=note_on channel=0 note=67 velocity=95 time=0 actual_time=301680
type=note_on channel=0 note=62 velocity=95 time=0 actual_time=301680
type=note_on channel=0 note=55 velocity=95 time=0 actual_time=301680
type: note_off, time: 480, actual_time: 302160
type: note_off, time: 0, actual_time: 302160
type: note_off, time: 0, actual_time: 302160
type=note_on channel=0 note=66 velocity=95 time=0 actual_time=302160
type=note_on channel=0 note=61 velocity=95 time=0 actual_time=302160
type=note_on channel=0 note=54 velocity=95 time=0 actual_time=302160
type: note_off, time: 480, actual_time: 302640
type: note_off, time: 0, actual_time: 302640
type: note_off, time: 0, actual_time: 302640
type=note_on channel=0 note=66 velocity=95 time=0 actual_time=302640
type=note_on channel=0 note=61 velocity=95 time=0 actual_time=302640
type=note_on channel=0 note=54 velocity=95 time=0 actual_time=302640
type: note_off, time: 240, actual_time: 302880
type: note_off, time: 0, actual_time: 302880
type: note_off, time: 0, actual_time: 302880
type=note_on channel=0 note=69 velocity=95 time=0 actual_time=302880
type=note_on channel=0 note=64 velocity=95 time=0 actual_time=302880
type=note_on channel=0 note=57 velocity=95 time=0 actual_time=302880
type: note_off, time: 480, actual_time: 303360
type: note_off, time: 0, actual_time: 303360
type: note_off, time: 0, actual_time: 303360
type=note_on channel=0 note=60 velocity=95 time=0 actual_time=303360
type=note_on channel=0 note=55 velocity=95 time=0 actual_time=303360
type=note_on channel=0 note=48 velocity=95 time=0 actual_time=303360
type: note_off, time: 720, actual_time: 304080
type: note_off, time: 0, actual_time: 304080
type: note_off, time: 0, actual_time: 304080
type=note_on channel=0 note=60 velocity=95 time=0 actual_time=304080
type=note_on channel=0 note=55 velocity=95 time=0 actual_time=304080
type=note_on channel=0 note=48 velocity=95 time=0 actual_time=304080
type: note_off, time: 240, actual_time: 304320
type: note_off, time: 0, actual_time: 304320
type: note_off, time: 0, actual_time: 304320
type=note_on channel=0 note=60 velocity=95 time=0 actual_time=304320
type=note_on channel=0 note=55 velocity=95 time=0 actual_time=304320
type=note_on channel=0 note=48 velocity=95 time=0 actual_time=304320
type: note_off, time: 480, actual_time: 304800
type: note_off, time: 0, actual_time: 304800
type: note_off, time: 0, actual_time: 304800
type=note_on channel=0 note=59 velocity=95 time=0 actual_time=304800
type=note_on channel=0 note=54 velocity=95 time=0 actual_time=304800
type=note_on channel=0 note=47 velocity=95 time=0 actual_time=304800
type: note_off, time: 240, actual_time: 305040
type: note_off, time: 0, actual_time: 305040
type: note_off, time: 0, actual_time: 305040
type=note_on channel=0 note=59 velocity=95 time=0 actual_time=305040
type=note_on channel=0 note=54 velocity=95 time=0 actual_time=305040
type=note_on channel=0 note=47 velocity=95 time=0 actual_time=305040
type: note_off, time: 480, actual_time: 305520
type: note_off, time: 0, actual_time: 305520
type: note_off, time: 0, actual_time: 305520
type=note_on channel=0 note=59 velocity=95 time=0 actual_time=305520
type=note_on channel=0 note=54 velocity=95 time=0 actual_time=305520
type=note_on channel=0 note=47 velocity=95 time=0 actual_time=305520
type: note_off, time: 480, actual_time: 306000
type: note_off, time: 0, actual_time: 306000
type: note_off, time: 0, actual_time: 306000
type=note_on channel=0 note=60 velocity=95 time=0 actual_time=306000
type=note_on channel=0 note=55 velocity=95 time=0 actual_time=306000
type=note_on channel=0 note=48 velocity=95 time=0 actual_time=306000
type: note_off, time: 480, actual_time: 306480
type: note_off, time: 0, actual_time: 306480
type: note_off, time: 0, actual_time: 306480
type=note_on channel=0 note=60 velocity=95 time=0 actual_time=306480
type=note_on channel=0 note=55 velocity=95 time=0 actual_time=306480
type=note_on channel=0 note=48 velocity=95 time=0 actual_time=306480
type: note_off, time: 240, actual_time: 306720
type: note_off, time: 0, actual_time: 306720
type: note_off, time: 0, actual_time: 306720
type=note_on channel=0 note=62 velocity=95 time=0 actual_time=306720
type=note_on channel=0 note=57 velocity=95 time=0 actual_time=306720
type=note_on channel=0 note=50 velocity=95 time=0 actual_time=306720
type: note_off, time: 480, actual_time: 307200
type: note_off, time: 0, actual_time: 307200
type: note_off, time: 0, actual_time: 307200
type=note_on channel=1 note=52 velocity=95 time=0 actual_time=307200
type: note_off, time: 240, actual_time: 307440
type=note_on channel=0 note=40 velocity=95 time=0 actual_time=307440
type: note_off, time: 240, actual_time: 307680
type=note_on channel=0 note=40 velocity=95 time=0 actual_time=307680
type: note_off, time: 240, actual_time: 307920
type=note_on channel=0 note=47 velocity=95 time=0 actual_time=307920
type: note_off, time: 240, actual_time: 308160
type=note_on channel=0 note=40 velocity=95 time=0 actual_time=308160
type: note_off, time: 240, actual_time: 308400
type=note_on channel=0 note=40 velocity=95 time=0 actual_time=308400
type: note_off, time: 240, actual_time: 308640
type=note_on channel=0 note=48 velocity=95 time=0 actual_time=308640
type: note_off, time: 240, actual_time: 308880
type=note_on channel=0 note=40 velocity=95 time=0 actual_time=308880
type: note_off, time: 240, actual_time: 309120
type=note_on channel=0 note=40 velocity=95 time=0 actual_time=309120
type: note_off, time: 240, actual_time: 309360
type=note_on channel=0 note=52 velocity=95 time=0 actual_time=309360
type=note_on channel=0 note=45 velocity=95 time=0 actual_time=309360
type: note_off, time: 240, actual_time: 309600
type: note_off, time: 0, actual_time: 309600
type=note_on channel=0 note=40 velocity=95 time=0 actual_time=309600
type: note_off, time: 240, actual_time: 309840
type=note_on channel=0 note=40 velocity=95 time=0 actual_time=309840
type: note_off, time: 240, actual_time: 310080
type=note_on channel=0 note=54 velocity=95 time=0 actual_time=310080
type=note_on channel=0 note=47 velocity=95 time=0 actual_time=310080
type: note_off, time: 240, actual_time: 310320
type: note_off, time: 0, actual_time: 310320
type=note_on channel=0 note=40 velocity=95 time=0 actual_time=310320
type: note_off, time: 240, actual_time: 310560
type=note_on channel=0 note=55 velocity=95 time=0 actual_time=310560
type=note_on channel=0 note=48 velocity=95 time=0 actual_time=310560
type: note_off, time: 240, actual_time: 310800
type: note_off, time: 0, actual_time: 310800
type=note_on channel=0 note=40 velocity=95 time=0 actual_time=310800
type: note_off, time: 240, actual_time: 311040
type=note_on channel=1 note=52 velocity=95 time=0 actual_time=311040
type: note_off, time: 240, actual_time: 311280
type=note_on channel=0 note=40 velocity=95 time=0 actual_time=311280
type: note_off, time: 240, actual_time: 311520
type=note_on channel=0 note=40 velocity=95 time=0 actual_time=311520
type: note_off, time: 240, actual_time: 311760
type=note_on channel=0 note=47 velocity=95 time=0 actual_time=311760
type: note_off, time: 240, actual_time: 312000
type=note_on channel=0 note=40 velocity=95 time=0 actual_time=312000
type: note_off, time: 240, actual_time: 312240
type=note_on channel=0 note=40 velocity=95 time=0 actual_time=312240
type: note_off, time: 240, actual_time: 312480
type=note_on channel=0 note=48 velocity=95 time=0 actual_time=312480
type: note_off, time: 240, actual_time: 312720
type=note_on channel=0 note=40 velocity=95 time=0 actual_time=312720
type: note_off, time: 240, actual_time: 312960
type=note_on channel=0 note=40 velocity=95 time=0 actual_time=312960
type: note_off, time: 240, actual_time: 313200
type=note_on channel=0 note=52 velocity=95 time=0 actual_time=313200
type=note_on channel=0 note=45 velocity=95 time=0 actual_time=313200
type: note_off, time: 240, actual_time: 313440
type: note_off, time: 0, actual_time: 313440
type=note_on channel=0 note=40 velocity=95 time=0 actual_time=313440
type: note_off, time: 240, actual_time: 313680
type=note_on channel=0 note=40 velocity=95 time=0 actual_time=313680
type: note_off, time: 240, actual_time: 313920
type=note_on channel=1 note=54 velocity=95 time=0 actual_time=313920
type=note_on channel=1 note=47 velocity=95 time=0 actual_time=313920
type: pitchwheel, time: 120, actual_time: 314040
type: pitchwheel, time: 0, actual_time: 314040
type: pitchwheel, time: 120, actual_time: 314160
type: pitchwheel, time: 0, actual_time: 314160
type: note_off, time: 0, actual_time: 314160
type: pitchwheel, time: 0, actual_time: 314160
type: pitchwheel, time: 0, actual_time: 314160
type: note_off, time: 0, actual_time: 314160
type=note_on channel=1 note=55 velocity=95 time=0 actual_time=314160
type=note_on channel=1 note=48 velocity=95 time=0 actual_time=314160
type: pitchwheel, time: 120, actual_time: 314280
type: pitchwheel, time: 0, actual_time: 314280
type: pitchwheel, time: 120, actual_time: 314400
type: pitchwheel, time: 0, actual_time: 314400
type: note_off, time: 0, actual_time: 314400
type: pitchwheel, time: 0, actual_time: 314400
type: pitchwheel, time: 0, actual_time: 314400
type: note_off, time: 0, actual_time: 314400
type=note_on channel=0 note=54 velocity=95 time=0 actual_time=314400
type=note_on channel=1 note=47 velocity=95 time=0 actual_time=314400
type: note_off, time: 240, actual_time: 314640
type: note_off, time: 0, actual_time: 314640
type=note_on channel=0 note=40 velocity=95 time=0 actual_time=314640
type: note_off, time: 240, actual_time: 314880
type=note_on channel=1 note=52 velocity=95 time=0 actual_time=314880
type: note_off, time: 240, actual_time: 315120
type=note_on channel=0 note=40 velocity=95 time=0 actual_time=315120
type: note_off, time: 240, actual_time: 315360
type=note_on channel=0 note=40 velocity=95 time=0 actual_time=315360
type: note_off, time: 240, actual_time: 315600
type=note_on channel=0 note=47 velocity=95 time=0 actual_time=315600
type: note_off, time: 240, actual_time: 315840
type=note_on channel=0 note=40 velocity=95 time=0 actual_time=315840
type: note_off, time: 240, actual_time: 316080
type=note_on channel=0 note=40 velocity=95 time=0 actual_time=316080
type: note_off, time: 240, actual_time: 316320
type=note_on channel=0 note=48 velocity=95 time=0 actual_time=316320
type: note_off, time: 240, actual_time: 316560
type=note_on channel=0 note=40 velocity=95 time=0 actual_time=316560
type: note_off, time: 240, actual_time: 316800
type=note_on channel=0 note=40 velocity=95 time=0 actual_time=316800
type: note_off, time: 240, actual_time: 317040
type=note_on channel=0 note=52 velocity=95 time=0 actual_time=317040
type=note_on channel=0 note=45 velocity=95 time=0 actual_time=317040
type: note_off, time: 240, actual_time: 317280
type: note_off, time: 0, actual_time: 317280
type=note_on channel=0 note=40 velocity=95 time=0 actual_time=317280
type: note_off, time: 240, actual_time: 317520
type=note_on channel=0 note=40 velocity=95 time=0 actual_time=317520
type: note_off, time: 240, actual_time: 317760
type=note_on channel=0 note=54 velocity=95 time=0 actual_time=317760
type=note_on channel=0 note=47 velocity=95 time=0 actual_time=317760
type: note_off, time: 240, actual_time: 318000
type: note_off, time: 0, actual_time: 318000
type=note_on channel=0 note=40 velocity=95 time=0 actual_time=318000
type: note_off, time: 240, actual_time: 318240
type=note_on channel=0 note=55 velocity=95 time=0 actual_time=318240
type=note_on channel=0 note=48 velocity=95 time=0 actual_time=318240
type: note_off, time: 240, actual_time: 318480
type: note_off, time: 0, actual_time: 318480
type=note_on channel=0 note=40 velocity=95 time=0 actual_time=318480
type: note_off, time: 240, actual_time: 318720
type=note_on channel=0 note=52 velocity=95 time=0 actual_time=318720
type: note_off, time: 240, actual_time: 318960
type=note_on channel=0 note=40 velocity=95 time=0 actual_time=318960
type: note_off, time: 240, actual_time: 319200
type=note_on channel=0 note=40 velocity=95 time=0 actual_time=319200
type: note_off, time: 240, actual_time: 319440
type=note_on channel=0 note=47 velocity=95 time=0 actual_time=319440
type: note_off, time: 240, actual_time: 319680
type=note_on channel=0 note=40 velocity=95 time=0 actual_time=319680
type: note_off, time: 240, actual_time: 319920
type=note_on channel=0 note=40 velocity=95 time=0 actual_time=319920
type: note_off, time: 240, actual_time: 320160
type=note_on channel=0 note=48 velocity=95 time=0 actual_time=320160
type: note_off, time: 240, actual_time: 320400
type=note_on channel=0 note=40 velocity=95 time=0 actual_time=320400
type: note_off, time: 240, actual_time: 320640
type=note_on channel=0 note=60 velocity=95 time=0 actual_time=320640
type=note_on channel=0 note=55 velocity=95 time=0 actual_time=320640
type=note_on channel=0 note=48 velocity=95 time=0 actual_time=320640
type: note_off, time: 320, actual_time: 320960
type: note_off, time: 0, actual_time: 320960
type: note_off, time: 0, actual_time: 320960
type=note_on channel=0 note=60 velocity=95 time=0 actual_time=320960
type=note_on channel=0 note=55 velocity=95 time=0 actual_time=320960
type=note_on channel=0 note=48 velocity=95 time=0 actual_time=320960
type: note_off, time: 320, actual_time: 321280
type: note_off, time: 0, actual_time: 321280
type: note_off, time: 0, actual_time: 321280
type=note_on channel=0 note=60 velocity=95 time=0 actual_time=321280
type=note_on channel=0 note=55 velocity=95 time=0 actual_time=321280
type=note_on channel=0 note=48 velocity=95 time=0 actual_time=321280
type: note_off, time: 320, actual_time: 321600
type: note_off, time: 0, actual_time: 321600
type: note_off, time: 0, actual_time: 321600
type=note_on channel=1 note=60 velocity=95 time=0 actual_time=321600
type=note_on channel=1 note=55 velocity=95 time=0 actual_time=321600
type=note_on channel=1 note=48 velocity=95 time=0 actual_time=321600
type: note_off, time: 960, actual_time: 322560
type: note_off, time: 0, actual_time: 322560
type: note_off, time: 0, actual_time: 322560
MetaMessage type: end_of_track, time: 0, actual_time: 322560
type: pitchwheel, time: 0, actual_time: 0
type=control_change channel=0 control=7 value=111 time=0 actual_time=0
type=control_change channel=0 control=10 value=111 time=0 actual_time=0
type=control_change channel=0 control=93 value=0 time=0 actual_time=0
type=control_change channel=0 control=91 value=0 time=0 actual_time=0
type=control_change channel=0 control=95 value=0 time=0 actual_time=0
type=control_change channel=0 control=92 value=0 time=0 actual_time=0
type=control_change channel=0 control=11 value=127 time=0 actual_time=0
type: program_change, time: 0, actual_time: 0
type=control_change channel=1 control=7 value=111 time=0 actual_time=0
type=control_change channel=1 control=10 value=111 time=0 actual_time=0
type=control_change channel=1 control=93 value=0 time=0 actual_time=0
type=control_change channel=1 control=91 value=0 time=0 actual_time=0
type=control_change channel=1 control=95 value=0 time=0 actual_time=0
type=control_change channel=1 control=92 value=0 time=0 actual_time=0
type=control_change channel=1 control=11 value=127 time=0 actual_time=0
type: program_change, time: 0, actual_time: 0
type=note_on channel=0 note=59 velocity=79 time=3360 actual_time=3360
type: note_off, time: 240, actual_time: 3600
type=note_on channel=0 note=60 velocity=54 time=0 actual_time=3600
type=note_on channel=1 note=60 velocity=79 time=120 actual_time=3720
type: note_off, time: 120, actual_time: 3840
type: note_off, time: 0, actual_time: 3840
type=note_on channel=1 note=62 velocity=79 time=0 actual_time=3840
type: note_off, time: 720, actual_time: 4560
type=note_on channel=0 note=64 velocity=79 time=0 actual_time=4560
type: note_off, time: 720, actual_time: 5280
type=note_on channel=0 note=64 velocity=79 time=0 actual_time=5280
type: note_off, time: 3360, actual_time: 8640
type=note_on channel=0 note=62 velocity=79 time=0 actual_time=8640
type: note_off, time: 240, actual_time: 8880
type=note_on channel=0 note=64 velocity=54 time=0 actual_time=8880
type: note_off, time: 240, actual_time: 9120
type=note_on channel=0 note=55 velocity=79 time=0 actual_time=9120
type: note_off, time: 240, actual_time: 9360
type=note_on channel=0 note=59 velocity=79 time=0 actual_time=9360
type=note_on channel=1 note=60 velocity=79 time=1080 actual_time=10440
type: note_off, time: 120, actual_time: 10560
type: note_off, time: 0, actual_time: 10560
type=note_on channel=1 note=62 velocity=79 time=0 actual_time=10560
type: note_off, time: 960, actual_time: 11520
type=note_on channel=0 note=60 velocity=79 time=0 actual_time=11520
type: note_off, time: 1440, actual_time: 12960
type=note_on channel=0 note=59 velocity=79 time=0 actual_time=12960
type: note_off, time: 1440, actual_time: 14400
type=note_on channel=0 note=57 velocity=79 time=0 actual_time=14400
type: note_off, time: 960, actual_time: 15360
type=note_on channel=0 note=45 velocity=79 time=30720 actual_time=46080
type: note_off, time: 480, actual_time: 46560
type=note_on channel=0 note=52 velocity=79 time=0 actual_time=46560
type: note_off, time: 240, actual_time: 46800
type=note_on channel=0 note=57 velocity=79 time=0 actual_time=46800
type: note_off, time: 240, actual_time: 47040
type=note_on channel=0 note=59 velocity=79 time=0 actual_time=47040
type: note_off, time: 240, actual_time: 47280
type=note_on channel=0 note=60 velocity=54 time=0 actual_time=47280
type: note_off, time: 480, actual_time: 47760
type=note_on channel=0 note=64 velocity=79 time=0 actual_time=47760
type=note_on channel=0 note=62 velocity=79 time=0 actual_time=47760
type: note_off, time: 2160, actual_time: 49920
type: note_off, time: 0, actual_time: 49920
type=note_on channel=0 note=45 velocity=79 time=0 actual_time=49920
type: note_off, time: 480, actual_time: 50400
type=note_on channel=0 note=52 velocity=79 time=0 actual_time=50400
type: note_off, time: 240, actual_time: 50640
type=note_on channel=0 note=57 velocity=79 time=0 actual_time=50640
type: note_off, time: 240, actual_time: 50880
type=note_on channel=0 note=59 velocity=79 time=0 actual_time=50880
type: note_off, time: 240, actual_time: 51120
type=note_on channel=0 note=60 velocity=54 time=0 actual_time=51120
type: note_off, time: 480, actual_time: 51600
type=note_on channel=0 note=59 velocity=79 time=0 actual_time=51600
type=note_on channel=0 note=57 velocity=79 time=0 actual_time=51600
type: note_off, time: 2160, actual_time: 53760
type: note_off, time: 0, actual_time: 53760
type=note_on channel=0 note=45 velocity=79 time=0 actual_time=53760
type: note_off, time: 480, actual_time: 54240
type=note_on channel=0 note=52 velocity=79 time=0 actual_time=54240
type: note_off, time: 240, actual_time: 54480
type=note_on channel=0 note=57 velocity=79 time=0 actual_time=54480
type: note_off, time: 240, actual_time: 54720
type=note_on channel=0 note=59 velocity=79 time=0 actual_time=54720
type: note_off, time: 240, actual_time: 54960
type=note_on channel=0 note=60 velocity=54 time=0 actual_time=54960
type: note_off, time: 480, actual_time: 55440
type=note_on channel=0 note=64 velocity=79 time=0 actual_time=55440
type=note_on channel=0 note=62 velocity=79 time=0 actual_time=55440
type: note_off, time: 2160, actual_time: 57600
type: note_off, time: 0, actual_time: 57600
type=note_on channel=0 note=45 velocity=79 time=0 actual_time=57600
type: note_off, time: 480, actual_time: 58080
type=note_on channel=0 note=52 velocity=79 time=0 actual_time=58080
type: note_off, time: 240, actual_time: 58320
type=note_on channel=0 note=57 velocity=79 time=0 actual_time=58320
type: note_off, time: 240, actual_time: 58560
type=note_on channel=0 note=59 velocity=79 time=0 actual_time=58560
type: note_off, time: 240, actual_time: 58800
type=note_on channel=0 note=60 velocity=54 time=0 actual_time=58800
type: note_off, time: 240, actual_time: 59040
type=note_on channel=0 note=57 velocity=79 time=0 actual_time=59040
type: note_off, time: 240, actual_time: 59280
type=note_on channel=0 note=52 velocity=79 time=0 actual_time=59280
type: note_off, time: 240, actual_time: 59520
type=note_on channel=0 note=48 velocity=79 time=0 actual_time=59520
type: note_off, time: 240, actual_time: 59760
type=note_on channel=0 note=52 velocity=79 time=0 actual_time=59760
type: note_off, time: 240, actual_time: 60000
type=note_on channel=0 note=55 velocity=79 time=0 actual_time=60000
type: note_off, time: 240, actual_time: 60240
type=note_on channel=0 note=62 velocity=79 time=0 actual_time=60240
type: note_off, time: 1200, actual_time: 61440
type=note_on channel=0 note=55 velocity=95 time=33600 actual_time=95040
type: note_off, time: 240, actual_time: 95280
type=note_on channel=0 note=57 velocity=70 time=0 actual_time=95280
type: note_off, time: 240, actual_time: 95520
type=note_on channel=0 note=57 velocity=95 time=0 actual_time=95520
type: note_off, time: 240, actual_time: 95760
type=note_on channel=1 note=60 velocity=95 time=0 actual_time=95760
type: pitchwheel, time: 160, actual_time: 95920
type: pitchwheel, time: 160, actual_time: 96080
type: pitchwheel, time: 160, actual_time: 96240
type: pitchwheel, time: 160, actual_time: 96400
type: pitchwheel, time: 160, actual_time: 96560
type: pitchwheel, time: 160, actual_time: 96720
type: pitchwheel, time: 160, actual_time: 96880
type: pitchwheel, time: 160, actual_time: 97040
type: pitchwheel, time: 160, actual_time: 97200
type: pitchwheel, time: 160, actual_time: 97360
type: pitchwheel, time: 80, actual_time: 97440
type: pitchwheel, time: 0, actual_time: 97440
type: pitchwheel, time: 0, actual_time: 97440
type: note_off, time: 0, actual_time: 97440
type=note_on channel=0 note=67 velocity=95 time=0 actual_time=97440
type: pitchwheel, time: 0, actual_time: 97440
type=note_on channel=1 note=62 velocity=95 time=0 actual_time=97440
type: pitchwheel, time: 98, actual_time: 97538
type: pitchwheel, time: 98, actual_time: 97636
type: pitchwheel, time: 98, actual_time: 97734
type: pitchwheel, time: 98, actual_time: 97832
type: pitchwheel, time: 98, actual_time: 97930
type: pitchwheel, time: 98, actual_time: 98028
type: pitchwheel, time: 98, actual_time: 98126
type: pitchwheel, time: 98, actual_time: 98224
type: pitchwheel, time: 98, actual_time: 98322
type: pitchwheel, time: 98, actual_time: 98420
type: pitchwheel, time: 98, actual_time: 98518
type: pitchwheel, time: 2, actual_time: 98520
type: note_off, time: 1080, actual_time: 99600
type: pitchwheel, time: 0, actual_time: 99600
type: pitchwheel, time: 0, actual_time: 99600
type: note_off, time: 0, actual_time: 99600
type=note_on channel=0 note=64 velocity=95 time=0 actual_time=99600
type: note_off, time: 240, actual_time: 99840
type=note_on channel=1 note=57 velocity=95 time=0 actual_time=99840
type: pitchwheel, time: 160, actual_time: 100000
type: pitchwheel, time: 160, actual_time: 100160
type: pitchwheel, time: 160, actual_time: 100320
type: pitchwheel, time: 160, actual_time: 100480
type: pitchwheel, time: 160, actual_time: 100640
type: pitchwheel, time: 160, actual_time: 100800
type: pitchwheel, time: 160, actual_time: 100960
type: pitchwheel, time: 160, actual_time: 101120
type: pitchwheel, time: 160, actual_time: 101280
type: pitchwheel, time: 160, actual_time: 101440
type: pitchwheel, time: 160, actual_time: 101600
type: pitchwheel, time: 160, actual_time: 101760
type: pitchwheel, time: 160, actual_time: 101920
type: pitchwheel, time: 160, actual_time: 102080
type: pitchwheel, time: 160, actual_time: 102240
type: pitchwheel, time: 160, actual_time: 102400
type: pitchwheel, time: 160, actual_time: 102560
type: pitchwheel, time: 160, actual_time: 102720
type: pitchwheel, time: 0, actual_time: 102720
type: note_off, time: 0, actual_time: 102720
type=note_on channel=0 note=55 velocity=95 time=0 actual_time=102720
type: note_off, time: 240, actual_time: 102960
type=note_on channel=0 note=57 velocity=70 time=0 actual_time=102960
type: note_off, time: 240, actual_time: 103200
type=note_on channel=0 note=57 velocity=95 time=0 actual_time=103200
type: note_off, time: 240, actual_time: 103440
type=note_on channel=1 note=60 velocity=95 time=0 actual_time=103440
type: pitchwheel, time: 160, actual_time: 103600
type: pitchwheel, time: 160, actual_time: 103760
type: pitchwheel, time: 160, actual_time: 103920
type: pitchwheel, time: 160, actual_time: 104080
type: pitchwheel, time: 160, actual_time: 104240
type: pitchwheel, time: 160, actual_time: 104400
type: pitchwheel, time: 160, actual_time: 104560
type: pitchwheel, time: 80, actual_time: 104640
type: pitchwheel, time: 0, actual_time: 104640
type: note_off, time: 0, actual_time: 104640
type=note_on channel=0 note=57 velocity=95 time=0 actual_time=104640
type: note_off, time: 240, actual_time: 104880
type=note_on channel=0 note=55 velocity=70 time=0 actual_time=104880
type: note_off, time: 240, actual_time: 105120
type=note_on channel=0 note=52 velocity=95 time=0 actual_time=105120
type: note_off, time: 240, actual_time: 105360
type=note_on channel=1 note=55 velocity=95 time=0 actual_time=105360
type: pitchwheel, time: 160, actual_time: 105520
type: pitchwheel, time: 160, actual_time: 105680
type: pitchwheel, time: 160, actual_time: 105840
type: pitchwheel, time: 160, actual_time: 106000
type: pitchwheel, time: 160, actual_time: 106160
type: pitchwheel, time: 160, actual_time: 106320
type: pitchwheel, time: 160, actual_time: 106480
type: pitchwheel, time: 80, actual_time: 106560
type: pitchwheel, time: 0, actual_time: 106560
type: note_off, time: 0, actual_time: 106560
type=note_on channel=0 note=52 velocity=95 time=0 actual_time=106560
type: note_off, time: 240, actual_time: 106800
type=note_on channel=0 note=50 velocity=70 time=0 actual_time=106800
type: note_off, time: 240, actual_time: 107040
type=note_on channel=0 note=40 velocity=95 time=0 actual_time=107040
type: note_off, time: 480, actual_time: 107520
type=note_on channel=0 note=64 velocity=47 time=6240 actual_time=113760
type: note_off, time: 480, actual_time: 114240
type=note_on channel=0 note=59 velocity=47 time=0 actual_time=114240
type: note_off, time: 480, actual_time: 114720
type=note_on channel=0 note=62 velocity=47 time=0 actual_time=114720
type: note_off, time: 480, actual_time: 115200
type=note_on channel=0 note=64 velocity=47 time=0 actual_time=115200
type=note_on channel=0 note=60 velocity=47 time=0 actual_time=115200
type=note_on channel=0 note=57 velocity=47 time=0 actual_time=115200
type=note_on channel=0 note=52 velocity=47 time=0 actual_time=115200
type=note_on channel=0 note=45 velocity=47 time=0 actual_time=115200
type: note_off, time: 3840, actual_time: 119040
type: note_off, time: 0, actual_time: 119040
type: note_off, time: 0, actual_time: 119040
type: note_off, time: 0, actual_time: 119040
type: note_off, time: 0, actual_time: 119040
type=note_on channel=0 note=62 velocity=47 time=2400 actual_time=121440
type: note_off, time: 480, actual_time: 121920
type=note_on channel=0 note=55 velocity=47 time=0 actual_time=121920
type: note_off, time: 480, actual_time: 122400
type=note_on channel=0 note=59 velocity=47 time=0 actual_time=122400
type: note_off, time: 480, actual_time: 122880
type=note_on channel=0 note=67 velocity=47 time=0 actual_time=122880
type: note_off, time: 240, actual_time: 123120
type=note_on channel=0 note=67 velocity=47 time=0 actual_time=123120
type: note_off, time: 480, actual_time: 123600
type=note_on channel=0 note=64 velocity=47 time=0 actual_time=123600
type: note_off, time: 240, actual_time: 123840
type=note_on channel=0 note=67 velocity=47 time=0 actual_time=123840
type=note_on channel=0 note=64 velocity=47 time=0 actual_time=123840
type: note_off, time: 240, actual_time: 124080
type: note_off, time: 0, actual_time: 124080
type=note_on channel=0 note=67 velocity=47 time=0 actual_time=124080
type=note_on channel=0 note=64 velocity=47 time=0 actual_time=124080
type: note_off, time: 240, actual_time: 124320
type: note_off, time: 0, actual_time: 124320
type=note_on channel=0 note=67 velocity=47 time=0 actual_time=124320
type=note_on channel=0 note=64 velocity=47 time=0 actual_time=124320
type: note_off, time: 240, actual_time: 124560
type: note_off, time: 0, actual_time: 124560
type=note_on channel=0 note=67 velocity=47 time=0 actual_time=124560
type=note_on channel=0 note=64 velocity=47 time=0 actual_time=124560
type: note_off, time: 240, actual_time: 124800
type: note_off, time: 0, actual_time: 124800
type=note_on channel=0 note=67 velocity=47 time=0 actual_time=124800
type=note_on channel=0 note=64 velocity=47 time=0 actual_time=124800
type: note_off, time: 240, actual_time: 125040
type: note_off, time: 0, actual_time: 125040
type=note_on channel=0 note=67 velocity=47 time=0 actual_time=125040
type=note_on channel=0 note=64 velocity=47 time=0 actual_time=125040
type: note_off, time: 240, actual_time: 125280
type: note_off, time: 0, actual_time: 125280
type=note_on channel=0 note=67 velocity=47 time=0 actual_time=125280
type=note_on channel=0 note=64 velocity=47 time=0 actual_time=125280
type: note_off, time: 240, actual_time: 125520
type: note_off, time: 0, actual_time: 125520
type=note_on channel=0 note=67 velocity=47 time=0 actual_time=125520
type=note_on channel=0 note=64 velocity=47 time=0 actual_time=125520
type: note_off, time: 240, actual_time: 125760
type: note_off, time: 0, actual_time: 125760
type=note_on channel=0 note=67 velocity=47 time=0 actual_time=125760
type=note_on channel=0 note=64 velocity=47 time=0 actual_time=125760
type: note_off, time: 240, actual_time: 126000
type: note_off, time: 0, actual_time: 126000
type=note_on channel=0 note=67 velocity=47 time=0 actual_time=126000
type=note_on channel=0 note=64 velocity=47 time=0 actual_time=126000
type: note_off, time: 240, actual_time: 126240
type: note_off, time: 0, actual_time: 126240
type=note_on channel=0 note=67 velocity=47 time=0 actual_time=126240
type=note_on channel=0 note=64 velocity=47 time=0 actual_time=126240
type: note_off, time: 240, actual_time: 126480
type: note_off, time: 0, actual_time: 126480
type=note_on channel=0 note=67 velocity=47 time=0 actual_time=126480
type=note_on channel=0 note=64 velocity=47 time=0 actual_time=126480
type: note_off, time: 240, actual_time: 126720
type: note_off, time: 0, actual_time: 126720
type=note_on channel=0 note=67 velocity=47 time=0 actual_time=126720
type=note_on channel=0 note=64 velocity=47 time=0 actual_time=126720
type: note_off, time: 240, actual_time: 126960
type: note_off, time: 0, actual_time: 126960
type=note_on channel=0 note=67 velocity=47 time=0 actual_time=126960
type=note_on channel=0 note=64 velocity=47 time=0 actual_time=126960
type: note_off, time: 240, actual_time: 127200
type: note_off, time: 0, actual_time: 127200
type=note_on channel=0 note=67 velocity=47 time=0 actual_time=127200
type=note_on channel=0 note=64 velocity=47 time=0 actual_time=127200
type: note_off, time: 240, actual_time: 127440
type: note_off, time: 0, actual_time: 127440
type=note_on channel=0 note=67 velocity=47 time=0 actual_time=127440
type=note_on channel=0 note=64 velocity=47 time=0 actual_time=127440
type: note_off, time: 240, actual_time: 127680
type: note_off, time: 0, actual_time: 127680
type=note_on channel=0 note=57 velocity=47 time=1440 actual_time=129120
type: note_off, time: 480, actual_time: 129600
type=note_on channel=0 note=64 velocity=47 time=0 actual_time=129600
type: note_off, time: 480, actual_time: 130080
type=note_on channel=0 note=57 velocity=47 time=0 actual_time=130080
type: note_off, time: 480, actual_time: 130560
type=note_on channel=0 note=69 velocity=47 time=0 actual_time=130560
type: note_off, time: 240, actual_time: 130800
type=note_on channel=0 note=64 velocity=47 time=0 actual_time=130800
type: note_off, time: 480, actual_time: 131280
type=note_on channel=0 note=67 velocity=47 time=0 actual_time=131280
type: note_off, time: 240, actual_time: 131520
type=note_on channel=0 note=69 velocity=47 time=0 actual_time=131520
type: note_off, time: 240, actual_time: 131760
type=note_on channel=0 note=69 velocity=47 time=0 actual_time=131760
type: note_off, time: 240, actual_time: 132000
type=note_on channel=0 note=60 velocity=47 time=0 actual_time=132000
type: note_off, time: 240, actual_time: 132240
type=note_on channel=0 note=67 velocity=47 time=0 actual_time=132240
type: note_off, time: 240, actual_time: 132480
type=note_on channel=0 note=69 velocity=47 time=0 actual_time=132480
type: note_off, time: 240, actual_time: 132720
type=note_on channel=0 note=69 velocity=47 time=0 actual_time=132720
type: note_off, time: 240, actual_time: 132960
type=note_on channel=0 note=60 velocity=47 time=0 actual_time=132960
type: note_off, time: 240, actual_time: 133200
type=note_on channel=0 note=67 velocity=47 time=0 actual_time=133200
type: note_off, time: 240, actual_time: 133440
type=note_on channel=0 note=69 velocity=47 time=0 actual_time=133440
type: note_off, time: 240, actual_time: 133680
type=note_on channel=0 note=69 velocity=47 time=0 actual_time=133680
type: note_off, time: 240, actual_time: 133920
type=note_on channel=0 note=67 velocity=47 time=0 actual_time=133920
type: note_off, time: 240, actual_time: 134160
type=note_on channel=0 note=67 velocity=47 time=0 actual_time=134160
type: note_off, time: 240, actual_time: 134400
type=note_on channel=0 note=45 velocity=79 time=49920 actual_time=184320
type: note_off, time: 480, actual_time: 184800
type=note_on channel=0 note=52 velocity=79 time=0 actual_time=184800
type: note_off, time: 240, actual_time: 185040
type=note_on channel=0 note=57 velocity=79 time=0 actual_time=185040
type: note_off, time: 240, actual_time: 185280
type=note_on channel=0 note=59 velocity=79 time=0 actual_time=185280
type: note_off, time: 240, actual_time: 185520
type=note_on channel=0 note=60 velocity=54 time=0 actual_time=185520
type: note_off, time: 480, actual_time: 186000
type=note_on channel=0 note=62 velocity=79 time=0 actual_time=186000
type: note_off, time: 720, actual_time: 186720
type=note_on channel=0 note=64 velocity=79 time=0 actual_time=186720
type: note_off, time: 480, actual_time: 187200
type=note_on channel=0 note=62 velocity=79 time=0 actual_time=187200
type: note_off, time: 480, actual_time: 187680
type=note_on channel=0 note=57 velocity=79 time=0 actual_time=187680
type: note_off, time: 480, actual_time: 188160
type=note_on channel=0 note=45 velocity=79 time=0 actual_time=188160
type: note_off, time: 480, actual_time: 188640
type=note_on channel=0 note=52 velocity=79 time=0 actual_time=188640
type: note_off, time: 240, actual_time: 188880
type=note_on channel=0 note=57 velocity=79 time=0 actual_time=188880
type: note_off, time: 240, actual_time: 189120
type=note_on channel=0 note=59 velocity=79 time=0 actual_time=189120
type: note_off, time: 240, actual_time: 189360
type=note_on channel=0 note=60 velocity=54 time=0 actual_time=189360
type: note_off, time: 480, actual_time: 189840
type=note_on channel=0 note=59 velocity=79 time=0 actual_time=189840
type=note_on channel=0 note=57 velocity=79 time=0 actual_time=189840
type: note_off, time: 2160, actual_time: 192000
type: note_off, time: 0, actual_time: 192000
type=note_on channel=0 note=45 velocity=79 time=0 actual_time=192000
type: note_off, time: 480, actual_time: 192480
type=note_on channel=0 note=52 velocity=79 time=0 actual_time=192480
type: note_off, time: 240, actual_time: 192720
type=note_on channel=0 note=57 velocity=79 time=0 actual_time=192720
type: note_off, time: 240, actual_time: 192960
type=note_on channel=0 note=59 velocity=79 time=0 actual_time=192960
type: note_off, time: 240, actual_time: 193200
type=note_on channel=0 note=60 velocity=54 time=0 actual_time=193200
type: note_off, time: 480, actual_time: 193680
type=note_on channel=0 note=62 velocity=79 time=0 actual_time=193680
type: note_off, time: 720, actual_time: 194400
type=note_on channel=0 note=64 velocity=79 time=0 actual_time=194400
type: note_off, time: 480, actual_time: 194880
type=note_on channel=0 note=62 velocity=79 time=0 actual_time=194880
type: note_off, time: 480, actual_time: 195360
type=note_on channel=0 note=57 velocity=79 time=0 actual_time=195360
type: note_off, time: 480, actual_time: 195840
type=note_on channel=0 note=45 velocity=79 time=0 actual_time=195840
type: note_off, time: 480, actual_time: 196320
type=note_on channel=0 note=52 velocity=79 time=0 actual_time=196320
type: note_off, time: 240, actual_time: 196560
type=note_on channel=0 note=57 velocity=79 time=0 actual_time=196560
type: note_off, time: 240, actual_time: 196800
type=note_on channel=0 note=59 velocity=79 time=0 actual_time=196800
type: note_off, time: 240, actual_time: 197040
type=note_on channel=0 note=60 velocity=54 time=0 actual_time=197040
type: note_off, time: 480, actual_time: 197520
type=note_on channel=0 note=59 velocity=79 time=0 actual_time=197520
type=note_on channel=0 note=57 velocity=79 time=0 actual_time=197520
type: note_off, time: 2160, actual_time: 199680
type: note_off, time: 0, actual_time: 199680
type: pitchwheel, time: 0, actual_time: 199680
type=note_on channel=1 note=60 velocity=95 time=0 actual_time=199680
type: pitchwheel, time: 96, actual_time: 199776
type: pitchwheel, time: 96, actual_time: 199872
type: pitchwheel, time: 96, actual_time: 199968
type: pitchwheel, time: 96, actual_time: 200064
type: pitchwheel, time: 96, actual_time: 200160
type: pitchwheel, time: 0, actual_time: 200160
type: pitchwheel, time: 480, actual_time: 200640
type: pitchwheel, time: 0, actual_time: 200640
type: note_off, time: 0, actual_time: 200640
type=note_on channel=0 note=57 velocity=127 time=0 actual_time=200640
type: note_off, time: 240, actual_time: 200880
type=note_on channel=0 note=55 velocity=102 time=0 actual_time=200880
type: note_off, time: 240, actual_time: 201120
type=note_on channel=1 note=57 velocity=127 time=0 actual_time=201120
type: pitchwheel, time: 160, actual_time: 201280
type: pitchwheel, time: 160, actual_time: 201440
type: pitchwheel, time: 160, actual_time: 201600
type: pitchwheel, time: 160, actual_time: 201760
type: pitchwheel, time: 80, actual_time: 201840
type: pitchwheel, time: 0, actual_time: 201840
type: pitchwheel, time: 0, actual_time: 201840
type: note_off, time: 0, actual_time: 201840
type=note_on channel=1 note=57 velocity=127 time=0 actual_time=201840
type: pitchwheel, time: 160, actual_time: 202000
type: pitchwheel, time: 160, actual_time: 202160
type: pitchwheel, time: 160, actual_time: 202320
type: pitchwheel, time: 160, actual_time: 202480
type: pitchwheel, time: 80, actual_time: 202560
type: pitchwheel, time: 0, actual_time: 202560
type: pitchwheel, time: 0, actual_time: 202560
type: note_off, time: 0, actual_time: 202560
type=note_on channel=1 note=57 velocity=127 time=0 actual_time=202560
type: pitchwheel, time: 160, actual_time: 202720
type: pitchwheel, time: 160, actual_time: 202880
type: pitchwheel, time: 160, actual_time: 203040
type: pitchwheel, time: 160, actual_time: 203200
type: pitchwheel, time: 80, actual_time: 203280
type: pitchwheel, time: 0, actual_time: 203280
type: pitchwheel, time: 0, actual_time: 203280
type: note_off, time: 0, actual_time: 203280
type=note_on channel=0 note=57 velocity=127 time=0 actual_time=203280
type: note_off, time: 240, actual_time: 203520
type=note_on channel=0 note=57 velocity=127 time=0 actual_time=203520
type: note_off, time: 240, actual_time: 203760
type=note_on channel=0 note=55 velocity=102 time=0 actual_time=203760
type: note_off, time: 240, actual_time: 204000
type=note_on channel=0 note=52 velocity=127 time=0 actual_time=204000
type: note_off, time: 240, actual_time: 204240
type=note_on channel=0 note=55 velocity=127 time=0 actual_time=204240
type: note_off, time: 240, actual_time: 204480
type=note_on channel=0 note=52 velocity=127 time=0 actual_time=204480
type: note_off, time: 240, actual_time: 204720
type=note_on channel=0 note=51 velocity=127 time=0 actual_time=204720
type: note_off, time: 240, actual_time: 204960
type: pitchwheel, time: 0, actual_time: 204960
type=note_on channel=1 note=50 velocity=127 time=0 actual_time=204960
type: pitchwheel, time: 72, actual_time: 205032
type: pitchwheel, time: 72, actual_time: 205104
type: pitchwheel, time: 72, actual_time: 205176
type: pitchwheel, time: 72, actual_time: 205248
type: pitchwheel, time: 72, actual_time: 205320
type: pitchwheel, time: 0, actual_time: 205320
type: pitchwheel, time: 360, actual_time: 205680
type: pitchwheel, time: 0, actual_time: 205680
type: note_off, time: 0, actual_time: 205680
type=note_on channel=0 note=51 velocity=127 time=0 actual_time=205680
type: note_off, time: 240, actual_time: 205920
type=note_on channel=0 note=51 velocity=127 time=0 actual_time=205920
type: note_off, time: 240, actual_time: 206160
type=note_on channel=0 note=50 velocity=127 time=0 actual_time=206160
type: note_off, time: 240, actual_time: 206400
type=note_on channel=0 note=48 velocity=127 time=0 actual_time=206400
type: note_off, time: 240, actual_time: 206640
type=note_on channel=0 note=48 velocity=127 time=0 actual_time=206640
type: note_off, time: 240, actual_time: 206880
type=note_on channel=0 note=48 velocity=127 time=0 actual_time=206880
type: note_off, time: 240, actual_time: 207120
type=note_on channel=0 note=45 velocity=127 time=0 actual_time=207120
type: note_off, time: 240, actual_time: 207360
type=note_on channel=1 note=45 velocity=127 time=0 actual_time=207360
type: pitchwheel, time: 160, actual_time: 207520
type: pitchwheel, time: 160, actual_time: 207680
type: pitchwheel, time: 160, actual_time: 207840
type: pitchwheel, time: 160, actual_time: 208000
type: pitchwheel, time: 80, actual_time: 208080
type: pitchwheel, time: 0, actual_time: 208080
type: pitchwheel, time: 0, actual_time: 208080
type: note_off, time: 0, actual_time: 208080
type=note_on channel=0 note=45 velocity=127 time=0 actual_time=208080
type: note_off, time: 240, actual_time: 208320
type=note_on channel=0 note=48 velocity=127 time=0 actual_time=208320
type: note_off, time: 240, actual_time: 208560
type=note_on channel=0 note=45 velocity=127 time=0 actual_time=208560
type: note_off, time: 240, actual_time: 208800
type=note_on channel=1 note=45 velocity=127 time=0 actual_time=208800
type: pitchwheel, time: 160, actual_time: 208960
type: pitchwheel, time: 160, actual_time: 209120
type: pitchwheel, time: 160, actual_time: 209280
type: pitchwheel, time: 160, actual_time: 209440
type: pitchwheel, time: 80, actual_time: 209520
type: pitchwheel, time: 0, actual_time: 209520
type: pitchwheel, time: 0, actual_time: 209520
type: note_off, time: 0, actual_time: 209520
type=note_on channel=0 note=43 velocity=127 time=0 actual_time=209520
type: note_off, time: 240, actual_time: 209760
type=note_on channel=0 note=45 velocity=127 time=0 actual_time=209760
type: note_off, time: 240, actual_time: 210000
type=note_on channel=0 note=43 velocity=127 time=0 actual_time=210000
type: note_off, time: 240, actual_time: 210240
type=note_on channel=0 note=45 velocity=127 time=0 actual_time=210240
type: note_off, time: 480, actual_time: 210720
type=note_on channel=0 note=40 velocity=127 time=0 actual_time=210720
type: note_off, time: 240, actual_time: 210960
type=note_on channel=0 note=40 velocity=127 time=0 actual_time=210960
type: note_off, time: 240, actual_time: 211200
type=note_on channel=0 note=57 velocity=127 time=0 actual_time=211200
type: note_off, time: 240, actual_time: 211440
type=note_on channel=0 note=57 velocity=127 time=0 actual_time=211440
type: note_off, time: 480, actual_time: 211920
type=note_on channel=0 note=57 velocity=127 time=0 actual_time=211920
type: note_off, time: 240, actual_time: 212160
type: pitchwheel, time: 0, actual_time: 212160
type=note_on channel=1 note=60 velocity=127 time=0 actual_time=212160
type: pitchwheel, time: 48, actual_time: 212208
type: pitchwheel, time: 48, actual_time: 212256
type: pitchwheel, time: 48, actual_time: 212304
type: pitchwheel, time: 48, actual_time: 212352
type: pitchwheel, time: 48, actual_time: 212400
type: pitchwheel, time: 0, actual_time: 212400
type: pitchwheel, time: 240, actual_time: 212640
type: pitchwheel, time: 0, actual_time: 212640
type: note_off, time: 0, actual_time: 212640
type=note_on channel=0 note=57 velocity=127 time=0 actual_time=212640
type: note_off, time: 240, actual_time: 212880
type=note_on channel=0 note=57 velocity=127 time=0 actual_time=212880
type: note_off, time: 480, actual_time: 213360
type=note_on channel=0 note=57 velocity=127 time=0 actual_time=213360
type: note_off, time: 240, actual_time: 213600
type=note_on channel=0 note=57 velocity=127 time=0 actual_time=213600
type: note_off, time: 240, actual_time: 213840
type=note_on channel=0 note=55 velocity=127 time=0 actual_time=213840
type: note_off, time: 240, actual_time: 214080
type: pitchwheel, time: 0, actual_time: 214080
type=note_on channel=1 note=60 velocity=127 time=0 actual_time=214080
type: pitchwheel, time: 48, actual_time: 214128
type: pitchwheel, time: 48, actual_time: 214176
type: pitchwheel, time: 48, actual_time: 214224
type: pitchwheel, time: 48, actual_time: 214272
type: pitchwheel, time: 48, actual_time: 214320
type: pitchwheel, time: 0, actual_time: 214320
type: pitchwheel, time: 240, actual_time: 214560
type: pitchwheel, time: 0, actual_time: 214560
type: note_off, time: 0, actual_time: 214560
type=note_on channel=0 note=50 velocity=127 time=0 actual_time=214560
type: note_off, time: 240, actual_time: 214800
type=note_on channel=0 note=50 velocity=127 time=0 actual_time=214800
type: note_off, time: 240, actual_time: 215040
type=note_on channel=0 note=59 velocity=127 time=0 actual_time=215040
type: note_off, time: 1440, actual_time: 216480
type=note_on channel=0 note=52 velocity=127 time=0 actual_time=216480
type: note_off, time: 1440, actual_time: 217920
type=note_on channel=0 note=59 velocity=127 time=0 actual_time=217920
type: note_off, time: 240, actual_time: 218160
type=note_on channel=0 note=60 velocity=127 time=0 actual_time=218160
type: note_off, time: 240, actual_time: 218400
type=note_on channel=0 note=50 velocity=127 time=0 actual_time=218400
type: note_off, time: 240, actual_time: 218640
type=note_on channel=0 note=50 velocity=127 time=0 actual_time=218640
type: note_off, time: 240, actual_time: 218880
type=note_on channel=0 note=59 velocity=127 time=0 actual_time=218880
type: note_off, time: 1440, actual_time: 220320
type=note_on channel=0 note=57 velocity=127 time=0 actual_time=220320
type: note_off, time: 720, actual_time: 221040
type=note_on channel=1 note=57 velocity=127 time=0 actual_time=221040
type: note_off, time: 720, actual_time: 221760
type=note_on channel=0 note=64 velocity=127 time=0 actual_time=221760
type=note_on channel=0 note=60 velocity=127 time=0 actual_time=221760
type: note_off, time: 480, actual_time: 222240
type: note_off, time: 0, actual_time: 222240
type=note_on channel=0 note=64 velocity=127 time=0 actual_time=222240
type=note_on channel=0 note=60 velocity=127 time=0 actual_time=222240
type: note_off, time: 480, actual_time: 222720
type: note_off, time: 0, actual_time: 222720
type: pitchwheel, time: 0, actual_time: 222720
type=note_on channel=1 note=62 velocity=127 time=0 actual_time=222720
type: pitchwheel, time: 72, actual_time: 222792
type: pitchwheel, time: 72, actual_time: 222864
type: pitchwheel, time: 72, actual_time: 222936
type: pitchwheel, time: 72, actual_time: 223008
type: pitchwheel, time: 72, actual_time: 223080
type: pitchwheel, time: 0, actual_time: 223080
type: pitchwheel, time: 360, actual_time: 223440
type: pitchwheel, time: 0, actual_time: 223440
type: note_off, time: 0, actual_time: 223440
type=note_on channel=0 note=67 velocity=127 time=0 actual_time=223440
type: pitchwheel, time: 0, actual_time: 223440
type=note_on channel=1 note=62 velocity=127 time=0 actual_time=223440
type: note_off, time: 240, actual_time: 223680
type: pitchwheel, time: 0, actual_time: 223680
type: pitchwheel, time: 0, actual_time: 223680
type: note_off, time: 0, actual_time: 223680
type=note_on channel=0 note=67 velocity=127 time=0 actual_time=223680
type: pitchwheel, time: 0, actual_time: 223680
type=note_on channel=1 note=62 velocity=127 time=0 actual_time=223680
type: note_off, time: 240, actual_time: 223920
type: pitchwheel, time: 0, actual_time: 223920
type: pitchwheel, time: 0, actual_time: 223920
type: note_off, time: 0, actual_time: 223920
type=note_on channel=0 note=67 velocity=127 time=0 actual_time=223920
type: pitchwheel, time: 0, actual_time: 223920
type=note_on channel=1 note=62 velocity=127 time=0 actual_time=223920
type: note_off, time: 240, actual_time: 224160
type: pitchwheel, time: 0, actual_time: 224160
type: pitchwheel, time: 0, actual_time: 224160
type: note_off, time: 0, actual_time: 224160
type=note_on channel=0 note=64 velocity=127 time=0 actual_time=224160
type: pitchwheel, time: 0, actual_time: 224160
type=note_on channel=1 note=62 velocity=127 time=0 actual_time=224160
type: pitchwheel, time: 32, actual_time: 224192
type: pitchwheel, time: 32, actual_time: 224224
type: pitchwheel, time: 32, actual_time: 224256
type: pitchwheel, time: 32, actual_time: 224288
type: pitchwheel, time: 32, actual_time: 224320
type: pitchwheel, time: 32, actual_time: 224352
type: pitchwheel, time: 32, actual_time: 224384
type: pitchwheel, time: 32, actual_time: 224416
type: pitchwheel, time: 32, actual_time: 224448
type: pitchwheel, time: 32, actual_time: 224480
type: pitchwheel, time: 32, actual_time: 224512
type: pitchwheel, time: 8, actual_time: 224520
type: note_off, time: 360, actual_time: 224880
type: pitchwheel, time: 0, actual_time: 224880
type: pitchwheel, time: 0, actual_time: 224880
type: note_off, time: 0, actual_time: 224880
type=note_on channel=0 note=64 velocity=127 time=0 actual_time=224880
type: pitchwheel, time: 0, actual_time: 224880
type=note_on channel=1 note=62 velocity=127 time=0 actual_time=224880
type: note_off, time: 240, actual_time: 225120
type: pitchwheel, time: 0, actual_time: 225120
type: pitchwheel, time: 0, actual_time: 225120
type: note_off, time: 0, actual_time: 225120
type=note_on channel=0 note=64 velocity=127 time=0 actual_time=225120
type: pitchwheel, time: 0, actual_time: 225120
type=note_on channel=1 note=62 velocity=127 time=0 actual_time=225120
type: note_off, time: 240, actual_time: 225360
type: pitchwheel, time: 0, actual_time: 225360
type: pitchwheel, time: 0, actual_time: 225360
type: note_off, time: 0, actual_time: 225360
type=note_on channel=0 note=64 velocity=127 time=0 actual_time=225360
type: pitchwheel, time: 0, actual_time: 225360
type=note_on channel=1 note=62 velocity=127 time=0 actual_time=225360
type: note_off, time: 240, actual_time: 225600
type: pitchwheel, time: 0, actual_time: 225600
type: pitchwheel, time: 0, actual_time: 225600
type: note_off, time: 0, actual_time: 225600
type=note_on channel=0 note=64 velocity=127 time=0 actual_time=225600
type: pitchwheel, time: 0, actual_time: 225600
type=note_on channel=1 note=62 velocity=127 time=0 actual_time=225600
type: note_off, time: 240, actual_time: 225840
type: pitchwheel, time: 0, actual_time: 225840
type: pitchwheel, time: 0, actual_time: 225840
type: note_off, time: 0, actual_time: 225840
type=note_on channel=0 note=64 velocity=127 time=0 actual_time=225840
type: pitchwheel, time: 0, actual_time: 225840
type=note_on channel=1 note=62 velocity=127 time=0 actual_time=225840
type: note_off, time: 720, actual_time: 226560
type: pitchwheel, time: 0, actual_time: 226560
type: pitchwheel, time: 0, actual_time: 226560
type: note_off, time: 0, actual_time: 226560
type=note_on channel=0 note=67 velocity=127 time=0 actual_time=226560
type: pitchwheel, time: 0, actual_time: 226560
type=note_on channel=1 note=65 velocity=127 time=0 actual_time=226560
type: pitchwheel, time: 10, actual_time: 226570
type: pitchwheel, time: 10, actual_time: 226580
type: pitchwheel, time: 10, actual_time: 226590
type: pitchwheel, time: 10, actual_time: 226600
type: pitchwheel, time: 10, actual_time: 226610
type: pitchwheel, time: 10, actual_time: 226620
type: pitchwheel, time: 10, actual_time: 226630
type: pitchwheel, time: 10, actual_time: 226640
type: pitchwheel, time: 10, actual_time: 226650
type: pitchwheel, time: 10, actual_time: 226660
type: pitchwheel, time: 10, actual_time: 226670
type: pitchwheel, time: 10, actual_time: 226680
type: note_off, time: 120, actual_time: 226800
type: pitchwheel, time: 0, actual_time: 226800
type: pitchwheel, time: 0, actual_time: 226800
type: note_off, time: 0, actual_time: 226800
type=note_on channel=0 note=67 velocity=127 time=0 actual_time=226800
type: pitchwheel, time: 0, actual_time: 226800
type=note_on channel=1 note=65 velocity=127 time=0 actual_time=226800
type: note_off, time: 480, actual_time: 227280
type: pitchwheel, time: 0, actual_time: 227280
type: pitchwheel, time: 0, actual_time: 227280
type: note_off, time: 0, actual_time: 227280
type=note_on channel=0 note=67 velocity=127 time=0 actual_time=227280
type: pitchwheel, time: 0, actual_time: 227280
type=note_on channel=1 note=65 velocity=127 time=0 actual_time=227280
type: note_off, time: 240, actual_time: 227520
type: pitchwheel, time: 0, actual_time: 227520
type: pitchwheel, time: 0, actual_time: 227520
type: note_off, time: 0, actual_time: 227520
type=note_on channel=0 note=67 velocity=127 time=0 actual_time=227520
type: pitchwheel, time: 0, actual_time: 227520
type=note_on channel=1 note=65 velocity=127 time=0 actual_time=227520
type: note_off, time: 240, actual_time: 227760
type: pitchwheel, time: 0, actual_time: 227760
type: pitchwheel, time: 0, actual_time: 227760
type: note_off, time: 0, actual_time: 227760
type=note_on channel=0 note=67 velocity=127 time=0 actual_time=227760
type: pitchwheel, time: 0, actual_time: 227760
type=note_on channel=1 note=65 velocity=127 time=0 actual_time=227760
type: note_off, time: 240, actual_time: 228000
type: pitchwheel, time: 0, actual_time: 228000
type: pitchwheel, time: 0, actual_time: 228000
type: note_off, time: 0, actual_time: 228000
type=note_on channel=0 note=71 velocity=127 time=0 actual_time=228000
type: pitchwheel, time: 0, actual_time: 228000
type=note_on channel=1 note=69 velocity=127 time=0 actual_time=228000
type: pitchwheel, time: 32, actual_time: 228032
type: pitchwheel, time: 32, actual_time: 228064
type: pitchwheel, time: 32, actual_time: 228096
type: pitchwheel, time: 32, actual_time: 228128
type: pitchwheel, time: 32, actual_time: 228160
type: pitchwheel, time: 32, actual_time: 228192
type: pitchwheel, time: 32, actual_time: 228224
type: pitchwheel, time: 32, actual_time: 228256
type: pitchwheel, time: 32, actual_time: 228288
type: pitchwheel, time: 32, actual_time: 228320
type: pitchwheel, time: 32, actual_time: 228352
type: pitchwheel, time: 8, actual_time: 228360
type: note_off, time: 360, actual_time: 228720
type: pitchwheel, time: 0, actual_time: 228720
type: pitchwheel, time: 0, actual_time: 228720
type: note_off, time: 0, actual_time: 228720
type=note_on channel=0 note=71 velocity=127 time=0 actual_time=228720
type: pitchwheel, time: 0, actual_time: 228720
type=note_on channel=1 note=69 velocity=127 time=0 actual_time=228720
type: note_off, time: 240, actual_time: 228960
type: pitchwheel, time: 0, actual_time: 228960
type: pitchwheel, time: 0, actual_time: 228960
type: note_off, time: 0, actual_time: 228960
type=note_on channel=0 note=71 velocity=127 time=0 actual_time=228960
type: pitchwheel, time: 0, actual_time: 228960
type=note_on channel=1 note=69 velocity=127 time=0 actual_time=228960
type: note_off, time: 240, actual_time: 229200
type: pitchwheel, time: 0, actual_time: 229200
type: pitchwheel, time: 0, actual_time: 229200
type: note_off, time: 0, actual_time: 229200
type=note_on channel=0 note=71 velocity=127 time=0 actual_time=229200
type: pitchwheel, time: 0, actual_time: 229200
type=note_on channel=1 note=69 velocity=127 time=0 actual_time=229200
type: note_off, time: 240, actual_time: 229440
type: pitchwheel, time: 0, actual_time: 229440
type: pitchwheel, time: 0, actual_time: 229440
type: note_off, time: 0, actual_time: 229440
type=note_on channel=0 note=76 velocity=127 time=0 actual_time=229440
type: pitchwheel, time: 0, actual_time: 229440
type=note_on channel=1 note=74 velocity=127 time=0 actual_time=229440
type: pitchwheel, time: 10, actual_time: 229450
type: pitchwheel, time: 10, actual_time: 229460
type: pitchwheel, time: 10, actual_time: 229470
type: pitchwheel, time: 10, actual_time: 229480
type: pitchwheel, time: 10, actual_time: 229490
type: pitchwheel, time: 10, actual_time: 229500
type: pitchwheel, time: 10, actual_time: 229510
type: pitchwheel, time: 10, actual_time: 229520
type: pitchwheel, time: 10, actual_time: 229530
type: pitchwheel, time: 10, actual_time: 229540
type: pitchwheel, time: 10, actual_time: 229550
type: pitchwheel, time: 10, actual_time: 229560
type: note_off, time: 120, actual_time: 229680
type: pitchwheel, time: 0, actual_time: 229680
type: pitchwheel, time: 0, actual_time: 229680
type: note_off, time: 0, actual_time: 229680
type=note_on channel=0 note=76 velocity=127 time=0 actual_time=229680
type: pitchwheel, time: 0, actual_time: 229680
type=note_on channel=1 note=74 velocity=127 time=0 actual_time=229680
type: note_off, time: 240, actual_time: 229920
type: pitchwheel, time: 0, actual_time: 229920
type: pitchwheel, time: 0, actual_time: 229920
type: note_off, time: 0, actual_time: 229920
type=note_on channel=0 note=76 velocity=127 time=0 actual_time=229920
type: pitchwheel, time: 0, actual_time: 229920
type=note_on channel=1 note=74 velocity=127 time=0 actual_time=229920
type: note_off, time: 240, actual_time: 230160
type: pitchwheel, time: 0, actual_time: 230160
type: pitchwheel, time: 0, actual_time: 230160
type: note_off, time: 0, actual_time: 230160
type=note_on channel=0 note=81 velocity=127 time=0 actual_time=230160
type=note_on channel=0 note=76 velocity=127 time=0 actual_time=230160
type: note_off, time: 240, actual_time: 230400
type: note_off, time: 0, actual_time: 230400
type=note_on channel=0 note=81 velocity=127 time=0 actual_time=230400
type: pitchwheel, time: 0, actual_time: 230400
type=note_on channel=1 note=79 velocity=127 time=0 actual_time=230400
type: pitchwheel, time: 58, actual_time: 230458
type: pitchwheel, time: 58, actual_time: 230516
type: pitchwheel, time: 58, actual_time: 230574
type: pitchwheel, time: 58, actual_time: 230632
type: pitchwheel, time: 58, actual_time: 230690
type: pitchwheel, time: 58, actual_time: 230748
type: pitchwheel, time: 58, actual_time: 230806
type: pitchwheel, time: 58, actual_time: 230864
type: pitchwheel, time: 58, actual_time: 230922
type: pitchwheel, time: 58, actual_time: 230980
type: pitchwheel, time: 58, actual_time: 231038
type: pitchwheel, time: 2, actual_time: 231040
type: note_off, time: 7040, actual_time: 238080
type: pitchwheel, time: 0, actual_time: 238080
type: pitchwheel, time: 0, actual_time: 238080
type: note_off, time: 0, actual_time: 238080
type=note_on channel=0 note=64 velocity=127 time=37200 actual_time=275280
type: note_off, time: 240, actual_time: 275520
type=note_on channel=0 note=59 velocity=127 time=0 actual_time=275520
type: note_off, time: 480, actual_time: 276000
type=note_on channel=0 note=57 velocity=127 time=0 actual_time=276000
type: note_off, time: 480, actual_time: 276480
type=note_on channel=0 note=59 velocity=127 time=0 actual_time=276480
type: note_off, time: 1440, actual_time: 277920
type=note_on channel=0 note=57 velocity=127 time=0 actual_time=277920
type: note_off, time: 2400, actual_time: 280320
type=note_on channel=0 note=60 velocity=127 time=0 actual_time=280320
type: note_off, time: 720, actual_time: 281040
type=note_on channel=0 note=59 velocity=127 time=0 actual_time=281040
type: note_off, time: 720, actual_time: 281760
type=note_on channel=0 note=57 velocity=127 time=0 actual_time=281760
type: note_off, time: 1440, actual_time: 283200
type=note_on channel=0 note=55 velocity=127 time=0 actual_time=283200
type: note_off, time: 480, actual_time: 283680
type=note_on channel=0 note=60 velocity=127 time=0 actual_time=283680
type: note_off, time: 480, actual_time: 284160
type=note_on channel=0 note=59 velocity=127 time=0 actual_time=284160
type: note_off, time: 1440, actual_time: 285600
type=note_on channel=0 note=60 velocity=127 time=0 actual_time=285600
type: note_off, time: 2160, actual_time: 287760
type=note_on channel=0 note=60 velocity=127 time=0 actual_time=287760
type: note_off, time: 240, actual_time: 288000
type=note_on channel=0 note=59 velocity=127 time=0 actual_time=288000
type: note_off, time: 1440, actual_time: 289440
type=note_on channel=0 note=57 velocity=127 time=0 actual_time=289440
type: note_off, time: 2400, actual_time: 291840
type=note_on channel=0 note=57 velocity=127 time=0 actual_time=291840
type: note_off, time: 7680, actual_time: 299520
MetaMessage type: end_of_track, time: 0, actual_time: 299520
MetaMessage type: track_name, time: 0, actual_time: 0
type: program_change, time: 0, actual_time: 0
type=control_change channel=0 control=7 value=124 time=0 actual_time=0
type=note_on channel=0 note=59 velocity=80 time=0 actual_time=0
type=note_on channel=0 note=59 velocity=80 time=0 actual_time=0
type=note_on channel=0 note=55 velocity=80 time=0 actual_time=0
type=note_on channel=0 note=57 velocity=80 time=0 actual_time=0
type=note_on channel=0 note=55 velocity=80 time=0 actual_time=0
type=note_on channel=0 note=59 velocity=80 time=0 actual_time=0
type=note_on channel=0 note=59 velocity=80 time=0 actual_time=0
type=note_on channel=0 note=59 velocity=80 time=0 actual_time=0
type=note_on channel=0 note=59 velocity=80 time=0 actual_time=0
type=note_on channel=0 note=59 velocity=80 time=0 actual_time=0
type=note_on channel=0 note=59 velocity=80 time=0 actual_time=0
type=note_on channel=0 note=59 velocity=80 time=0 actual_time=0
type=note_on channel=0 note=59 velocity=80 time=0 actual_time=0
type=note_on channel=0 note=59 velocity=80 time=0 actual_time=0
type=note_on channel=0 note=59 velocity=80 time=0 actual_time=0
type=note_on channel=0 note=59 velocity=80 time=0 actual_time=0
type=note_on channel=0 note=57 velocity=80 time=0 actual_time=0
type=note_on channel=0 note=59 velocity=80 time=0 actual_time=0
type=note_on channel=0 note=59 velocity=80 time=0 actual_time=0
type=note_on channel=0 note=59 velocity=80 time=0 actual_time=0
type=note_on channel=0 note=59 velocity=80 time=0 actual_time=0
type=note_on channel=0 note=58 velocity=80 time=0 actual_time=0
type=note_on channel=0 note=59 velocity=80 time=0 actual_time=0
type=note_on channel=0 note=59 velocity=80 time=0 actual_time=0
type=note_on channel=0 note=59 velocity=80 time=0 actual_time=0
type=note_on channel=0 note=59 velocity=80 time=0 actual_time=0
type=note_on channel=0 note=59 velocity=80 time=0 actual_time=0
type=note_on channel=0 note=59 velocity=80 time=0 actual_time=0
type=note_on channel=0 note=59 velocity=80 time=0 actual_time=0
type=note_on channel=0 note=59 velocity=80 time=0 actual_time=0
type=note_on channel=0 note=59 velocity=80 time=0 actual_time=0
type=note_on channel=0 note=57 velocity=80 time=0 actual_time=0
type=note_on channel=0 note=59 velocity=80 time=0 actual_time=0
type=note_on channel=0 note=59 velocity=80 time=0 actual_time=0
type=note_on channel=0 note=62 velocity=80 time=0 actual_time=0
type=note_on channel=0 note=59 velocity=80 time=0 actual_time=0
type=note_on channel=0 note=59 velocity=80 time=0 actual_time=0
type=note_on channel=0 note=57 velocity=80 time=0 actual_time=0
type=note_on channel=0 note=59 velocity=80 time=0 actual_time=0
type=note_on channel=0 note=59 velocity=80 time=0 actual_time=0
type=note_on channel=0 note=59 velocity=80 time=0 actual_time=0
type=note_on channel=0 note=59 velocity=80 time=0 actual_time=0
type=note_on channel=0 note=58 velocity=80 time=0 actual_time=0
type=note_on channel=0 note=62 velocity=80 time=0 actual_time=0
type=note_on channel=0 note=59 velocity=80 time=0 actual_time=0
type=note_on channel=0 note=59 velocity=80 time=0 actual_time=0
type=note_on channel=0 note=59 velocity=80 time=0 actual_time=0
type=note_on channel=0 note=62 velocity=80 time=0 actual_time=0
type=note_on channel=0 note=61 velocity=80 time=0 actual_time=0
type=note_on channel=0 note=59 velocity=80 time=0 actual_time=0
type=note_on channel=0 note=59 velocity=80 time=0 actual_time=0
type=note_on channel=0 note=59 velocity=80 time=0 actual_time=0
type=note_on channel=0 note=59 velocity=80 time=0 actual_time=0
type=note_on channel=0 note=59 velocity=80 time=0 actual_time=0
type=note_on channel=0 note=62 velocity=80 time=0 actual_time=0
type=note_on channel=0 note=59 velocity=80 time=0 actual_time=0
type=note_on channel=0 note=59 velocity=80 time=0 actual_time=0
type=note_on channel=0 note=59 velocity=80 time=0 actual_time=0
type=note_on channel=0 note=59 velocity=80 time=0 actual_time=0
type=note_on channel=0 note=62 velocity=80 time=0 actual_time=0
type=note_on channel=0 note=59 velocity=80 time=0 actual_time=0
type=note_on channel=0 note=59 velocity=80 time=0 actual_time=0
type=note_on channel=0 note=59 velocity=80 time=0 actual_time=0
type=note_on channel=0 note=59 velocity=80 time=0 actual_time=0
type=note_on channel=0 note=59 velocity=80 time=0 actual_time=0
type=note_on channel=0 note=59 velocity=80 time=0 actual_time=0
type=note_on channel=0 note=59 velocity=80 time=20 actual_time=20
type=note_on channel=0 note=59 velocity=80 time=0 actual_time=20
type=note_on channel=0 note=59 velocity=80 time=0 actual_time=20
type=note_on channel=0 note=59 velocity=80 time=0 actual_time=20
type=note_on channel=0 note=59 velocity=80 time=0 actual_time=20
type=note_on channel=0 note=59 velocity=80 time=0 actual_time=20
type=note_on channel=0 note=59 velocity=80 time=0 actual_time=20
type=note_on channel=0 note=62 velocity=80 time=0 actual_time=20
type=note_on channel=0 note=59 velocity=80 time=0 actual_time=20
type=note_on channel=0 note=57 velocity=80 time=0 actual_time=20
type=note_on channel=0 note=59 velocity=80 time=0 actual_time=20
type=note_on channel=0 note=59 velocity=80 time=0 actual_time=20
type=note_on channel=0 note=59 velocity=80 time=0 actual_time=20
type=note_on channel=0 note=59 velocity=80 time=0 actual_time=20
type=note_on channel=0 note=59 velocity=80 time=0 actual_time=20
type=note_on channel=0 note=59 velocity=80 time=0 actual_time=20
type=note_on channel=0 note=59 velocity=80 time=0 actual_time=20
type=note_on channel=0 note=59 velocity=80 time=0 actual_time=20
type=note_on channel=0 note=59 velocity=80 time=0 actual_time=20
type=note_on channel=0 note=62 velocity=80 time=0 actual_time=20
type=note_on channel=0 note=62 velocity=80 time=0 actual_time=20
type=note_on channel=0 note=59 velocity=80 time=0 actual_time=20
type=note_on channel=0 note=59 velocity=80 time=0 actual_time=20
type=note_on channel=0 note=59 velocity=80 time=0 actual_time=20
type=note_on channel=0 note=59 velocity=80 time=0 actual_time=20
type=note_on channel=0 note=59 velocity=80 time=0 actual_time=20
type=note_on channel=0 note=60 velocity=80 time=0 actual_time=20
type=note_on channel=0 note=59 velocity=80 time=0 actual_time=20
type=note_on channel=0 note=59 velocity=80 time=0 actual_time=20
type=note_on channel=0 note=60 velocity=80 time=0 actual_time=20
type=note_on channel=0 note=59 velocity=80 time=0 actual_time=20
type=note_on channel=0 note=59 velocity=80 time=0 actual_time=20
type=note_on channel=0 note=59 velocity=80 time=0 actual_time=20
type=note_on channel=0 note=59 velocity=80 time=0 actual_time=20
type=note_on channel=0 note=59 velocity=80 time=0 actual_time=20
type=note_on channel=0 note=59 velocity=80 time=0 actual_time=20
type=note_on channel=0 note=57 velocity=80 time=0 actual_time=20
type=note_on channel=0 note=59 velocity=80 time=0 actual_time=20
type=note_on channel=0 note=59 velocity=80 time=0 actual_time=20
type=note_on channel=0 note=67 velocity=80 time=0 actual_time=20
type=note_on channel=0 note=59 velocity=80 time=0 actual_time=20
type=note_on channel=0 note=59 velocity=80 time=0 actual_time=20
type=note_on channel=0 note=59 velocity=80 time=0 actual_time=20
type=note_on channel=0 note=59 velocity=80 time=0 actual_time=20
type=note_on channel=0 note=59 velocity=80 time=0 actual_time=20
type=note_on channel=0 note=59 velocity=80 time=0 actual_time=20
type=note_on channel=0 note=59 velocity=80 time=0 actual_time=20
type=note_on channel=0 note=59 velocity=80 time=0 actual_time=20
type=note_on channel=0 note=59 velocity=80 time=0 actual_time=20
type=note_on channel=0 note=59 velocity=80 time=0 actual_time=20
type=note_on channel=0 note=59 velocity=80 time=0 actual_time=20
type=note_on channel=0 note=59 velocity=80 time=0 actual_time=20
type=note_on channel=0 note=59 velocity=80 time=0 actual_time=20
type=note_on channel=0 note=54 velocity=80 time=0 actual_time=20
type=note_on channel=0 note=59 velocity=80 time=0 actual_time=20
type=note_on channel=0 note=59 velocity=80 time=0 actual_time=20
type=note_on channel=0 note=57 velocity=80 time=0 actual_time=20
type=note_on channel=0 note=59 velocity=80 time=0 actual_time=20
type=note_on channel=0 note=59 velocity=80 time=0 actual_time=20
type=note_on channel=0 note=59 velocity=80 time=0 actual_time=20
type=note_on channel=0 note=61 velocity=80 time=0 actual_time=20
type=note_on channel=0 note=59 velocity=80 time=0 actual_time=20
type=note_on channel=0 note=59 velocity=80 time=0 actual_time=20
type=note_on channel=0 note=59 velocity=80 time=0 actual_time=20
type=note_on channel=0 note=59 velocity=80 time=0 actual_time=20
type=note_on channel=0 note=59 velocity=80 time=0 actual_time=20
type=note_on channel=0 note=59 velocity=80 time=0 actual_time=20
type=note_on channel=0 note=65 velocity=80 time=0 actual_time=20
type=note_on channel=0 note=59 velocity=80 time=0 actual_time=20
type=note_on channel=0 note=59 velocity=80 time=0 actual_time=20
type=note_on channel=0 note=59 velocity=80 time=20 actual_time=40
type=note_on channel=0 note=59 velocity=80 time=0 actual_time=40
type=note_on channel=0 note=59 velocity=80 time=0 actual_time=40
type=note_on channel=0 note=59 velocity=80 time=0 actual_time=40
type=note_on channel=0 note=59 velocity=80 time=0 actual_time=40
type=note_on channel=0 note=59 velocity=80 time=0 actual_time=40
type=note_on channel=0 note=59 velocity=80 time=0 actual_time=40
type=note_on channel=0 note=59 velocity=80 time=0 actual_time=40
type=note_on channel=0 note=59 velocity=80 time=0 actual_time=40
type=note_on channel=0 note=59 velocity=80 time=0 actual_time=40
type=note_on channel=0 note=57 velocity=80 time=0 actual_time=40
type=note_on channel=0 note=59 velocity=80 time=0 actual_time=40
type=note_on channel=0 note=59 velocity=80 time=0 actual_time=40
type=note_on channel=0 note=57 velocity=80 time=0 actual_time=40
type=note_on channel=0 note=52 velocity=80 time=0 actual_time=40
type=note_on channel=0 note=59 velocity=80 time=0 actual_time=40
type=note_on channel=0 note=59 velocity=80 time=0 actual_time=40
type=note_on channel=0 note=59 velocity=80 time=0 actual_time=40
type=note_on channel=0 note=59 velocity=80 time=0 actual_time=40
type=note_on channel=0 note=57 velocity=80 time=0 actual_time=40
type=note_on channel=0 note=59 velocity=80 time=0 actual_time=40
type=note_on channel=0 note=59 velocity=80 time=0 actual_time=40
type=note_on channel=0 note=61 velocity=80 time=0 actual_time=40
type=note_on channel=0 note=59 velocity=80 time=0 actual_time=40
type=note_on channel=0 note=59 velocity=80 time=0 actual_time=40
type=note_on channel=0 note=59 velocity=80 time=0 actual_time=40
type=note_on channel=0 note=59 velocity=80 time=0 actual_time=40
type=note_on channel=0 note=57 velocity=80 time=0 actual_time=40
type=note_on channel=0 note=59 velocity=80 time=0 actual_time=40
type=note_on channel=0 note=59 velocity=80 time=0 actual_time=40
type=note_on channel=0 note=59 velocity=80 time=0 actual_time=40
type=note_on channel=0 note=59 velocity=80 time=0 actual_time=40
type=note_on channel=0 note=59 velocity=80 time=0 actual_time=40
type=note_on channel=0 note=57 velocity=80 time=0 actual_time=40
type=note_on channel=0 note=59 velocity=80 time=0 actual_time=40
type=note_on channel=0 note=59 velocity=80 time=0 actual_time=40
type=note_on channel=0 note=59 velocity=80 time=0 actual_time=40
type=note_on channel=0 note=59 velocity=80 time=0 actual_time=40
type=note_on channel=0 note=59 velocity=80 time=0 actual_time=40
type=note_on channel=0 note=59 velocity=80 time=0 actual_time=40
type=note_on channel=0 note=62 velocity=80 time=0 actual_time=40
type=note_on channel=0 note=62 velocity=80 time=0 actual_time=40
type=note_on channel=0 note=59 velocity=80 time=0 actual_time=40
type=note_on channel=0 note=59 velocity=80 time=0 actual_time=40
type=note_on channel=0 note=57 velocity=80 time=0 actual_time=40
type=note_on channel=0 note=57 velocity=80 time=0 actual_time=40
type=note_on channel=0 note=57 velocity=80 time=0 actual_time=40
type=note_on channel=0 note=59 velocity=80 time=0 actual_time=40
type=note_on channel=0 note=62 velocity=80 time=0 actual_time=40
type=note_on channel=0 note=59 velocity=80 time=0 actual_time=40
type=note_on channel=0 note=54 velocity=80 time=0 actual_time=40
type=note_on channel=0 note=57 velocity=80 time=0 actual_time=40
type=note_on channel=0 note=59 velocity=80 time=0 actual_time=40
type=note_on channel=0 note=59 velocity=80 time=0 actual_time=40
type=note_on channel=0 note=59 velocity=80 time=0 actual_time=40
type=note_on channel=0 note=59 velocity=80 time=0 actual_time=40
type=note_on channel=0 note=59 velocity=80 time=0 actual_time=40
type=note_on channel=0 note=59 velocity=80 time=0 actual_time=40
type=note_on channel=0 note=62 velocity=80 time=0 actual_time=40
type=note_on channel=0 note=59 velocity=80 time=0 actual_time=40
type=note_on channel=0 note=59 velocity=80 time=0 actual_time=40
type=note_on channel=0 note=59 velocity=80 time=0 actual_time=40
type=note_on channel=0 note=59 velocity=80 time=0 actual_time=40
type=note_on channel=0 note=59 velocity=80 time=0 actual_time=40
type=note_on channel=0 note=59 velocity=80 time=0 actual_time=40
type=note_on channel=0 note=57 velocity=80 time=0 actual_time=40
type=note_on channel=0 note=58 velocity=80 time=0 actual_time=40
type=note_on channel=0 note=59 velocity=80 time=0 actual_time=40
type=note_on channel=0 note=59 velocity=80 time=0 actual_time=40
type=note_on channel=0 note=59 velocity=80 time=0 actual_time=40
type=note_on channel=0 note=59 velocity=80 time=0 actual_time=40
type: note_off, time: 8, actual_time: 48
type: note_off, time: 0, actual_time: 48
type: note_off, time: 0, actual_time: 48
type: note_off, time: 0, actual_time: 48
type=note_on channel=0 note=59 velocity=80 time=12 actual_time=60
type=note_on channel=0 note=62 velocity=80 time=0 actual_time=60
type=note_on channel=0 note=62 velocity=80 time=0 actual_time=60
type=note_on channel=0 note=59 velocity=80 time=0 actual_time=60
type=note_on channel=0 note=62 velocity=80 time=0 actual_time=60
type=note_on channel=0 note=59 velocity=80 time=0 actual_time=60
type=note_on channel=0 note=59 velocity=80 time=0 actual_time=60
type=note_on channel=0 note=59 velocity=80 time=0 actual_time=60
type=note_on channel=0 note=59 velocity=80 time=0 actual_time=60
type=note_on channel=0 note=59 velocity=80 time=0 actual_time=60
type=note_on channel=0 note=59 velocity=80 time=0 actual_time=60
type=note_on channel=0 note=59 velocity=80 time=0 actual_time=60
type=note_on channel=0 note=54 velocity=80 time=0 actual_time=60
type=note_on channel=0 note=59 velocity=80 time=0 actual_time=60
type=note_on channel=0 note=60 velocity=80 time=0 actual_time=60
type=note_on channel=0 note=59 velocity=80 time=0 actual_time=60
type=note_on channel=0 note=59 velocity=80 time=0 actual_time=60
type=note_on channel=0 note=58 velocity=80 time=0 actual_time=60
type=note_on channel=0 note=59 velocity=80 time=0 actual_time=60
type=note_on channel=0 note=55 velocity=80 time=0 actual_time=60
type=note_on channel=0 note=62 velocity=80 time=0 actual_time=60
type=note_on channel=0 note=59 velocity=80 time=0 actual_time=60
type=note_on channel=0 note=61 velocity=80 time=0 actual_time=60
type=note_on channel=0 note=59 velocity=80 time=0 actual_time=60
type=note_on channel=0 note=60 velocity=80 time=0 actual_time=60
type=note_on channel=0 note=59 velocity=80 time=0 actual_time=60
type=note_on channel=0 note=59 velocity=80 time=0 actual_time=60
type=note_on channel=0 note=62 velocity=80 time=0 actual_time=60
type=note_on channel=0 note=59 velocity=80 time=0 actual_time=60
type=note_on channel=0 note=59 velocity=80 time=0 actual_time=60
type=note_on channel=0 note=59 velocity=80 time=0 actual_time=60
type=note_on channel=0 note=59 velocity=80 time=0 actual_time=60
type=note_on channel=0 note=59 velocity=80 time=0 actual_time=60
type=note_on channel=0 note=57 velocity=80 time=0 actual_time=60
type=note_on channel=0 note=59 velocity=80 time=0 actual_time=60
type=note_on channel=0 note=59 velocity=80 time=0 actual_time=60
type=note_on channel=0 note=59 velocity=80 time=0 actual_time=60
type=note_on channel=0 note=59 velocity=80 time=0 actual_time=60
type=note_on channel=0 note=57 velocity=80 time=0 actual_time=60
type=note_on channel=0 note=59 velocity=80 time=0 actual_time=60
type=note_on channel=0 note=59 velocity=80 time=0 actual_time=60
type=note_on channel=0 note=59 velocity=80 time=0 actual_time=60
type=note_on channel=0 note=57 velocity=80 time=0 actual_time=60
type=note_on channel=0 note=59 velocity=80 time=0 actual_time=60
type=note_on channel=0 note=54 velocity=80 time=0 actual_time=60
type=note_on channel=0 note=59 velocity=80 time=0 actual_time=60
type=note_on channel=0 note=59 velocity=80 time=0 actual_time=60
type=note_on channel=0 note=62 velocity=80 time=0 actual_time=60
type=note_on channel=0 note=59 velocity=80 time=0 actual_time=60
type=note_on channel=0 note=59 velocity=80 time=0 actual_time=60
type=note_on channel=0 note=59 velocity=80 time=0 actual_time=60
type=note_on channel=0 note=59 velocity=80 time=0 actual_time=60
type=note_on channel=0 note=59 velocity=80 time=0 actual_time=60
type=note_on channel=0 note=59 velocity=80 time=0 actual_time=60
type=note_on channel=0 note=59 velocity=80 time=0 actual_time=60
type=note_on channel=0 note=59 velocity=80 time=0 actual_time=60
type=note_on channel=0 note=59 velocity=80 time=0 actual_time=60
type=note_on channel=0 note=59 velocity=80 time=0 actual_time=60
type=note_on channel=0 note=57 velocity=80 time=0 actual_time=60
type=note_on channel=0 note=59 velocity=80 time=0 actual_time=60
type=note_on channel=0 note=57 velocity=80 time=0 actual_time=60
type=note_on channel=0 note=57 velocity=80 time=0 actual_time=60
type=note_on channel=0 note=59 velocity=80 time=0 actual_time=60
type=note_on channel=0 note=59 velocity=80 time=0 actual_time=60
type=note_on channel=0 note=59 velocity=80 time=0 actual_time=60
type=note_on channel=0 note=59 velocity=80 time=0 actual_time=60
type=note_on channel=0 note=59 velocity=80 time=0 actual_time=60
type=note_on channel=0 note=55 velocity=80 time=0 actual_time=60
type=note_on channel=0 note=59 velocity=80 time=0 actual_time=60
type=note_on channel=0 note=57 velocity=80 time=0 actual_time=60
type=note_on channel=0 note=59 velocity=80 time=0 actual_time=60
type=note_on channel=0 note=64 velocity=80 time=0 actual_time=60
type=note_on channel=0 note=62 velocity=80 time=0 actual_time=60
type=note_on channel=0 note=59 velocity=80 time=0 actual_time=60
type=note_on channel=0 note=59 velocity=80 time=0 actual_time=60
type=note_on channel=0 note=59 velocity=80 time=0 actual_time=60
type=note_on channel=0 note=59 velocity=80 time=0 actual_time=60
type: note_off, time: 8, actual_time: 68
type: note_off, time: 0, actual_time: 68
type: note_off, time: 0, actual_time: 68
type: note_off, time: 0, actual_time: 68
type: note_off, time: 0, actual_time: 68
type: note_off, time: 0, actual_time: 68
type: note_off, time: 0, actual_time: 68
type: note_off, time: 0, actual_time: 68
type: note_off, time: 0, actual_time: 68
type: note_off, time: 0, actual_time: 68
type: note_off, time: 4, actual_time: 72
type: note_off, time: 16, actual_time: 88
type: note_off, time: 0, actual_time: 88
type: note_off, time: 0, actual_time: 88
type: note_off, time: 0, actual_time: 88
type: note_off, time: 0, actual_time: 88
type: note_off, time: 0, actual_time: 88
type: note_off, time: 0, actual_time: 88
type: note_off, time: 0, actual_time: 88
type: note_off, time: 8, actual_time: 96
type: note_off, time: 0, actual_time: 96
type: note_off, time: 0, actual_time: 96
type: note_off, time: 0, actual_time: 96
type: note_off, time: 0, actual_time: 96
type: note_off, time: 0, actual_time: 96
type: note_off, time: 0, actual_time: 96
type: note_off, time: 0, actual_time: 96
type: note_off, time: 0, actual_time: 96
type: note_off, time: 0, actual_time: 96
type: note_off, time: 0, actual_time: 96
type: note_off, time: 0, actual_time: 96
type: note_off, time: 0, actual_time: 96
type: note_off, time: 0, actual_time: 96
type: note_off, time: 0, actual_time: 96
type: note_off, time: 0, actual_time: 96
type: note_off, time: 0, actual_time: 96
type: note_off, time: 0, actual_time: 96
type: note_off, time: 0, actual_time: 96
type: note_off, time: 0, actual_time: 96
type: note_off, time: 0, actual_time: 96
type: note_off, time: 0, actual_time: 96
type: note_off, time: 0, actual_time: 96
type: note_off, time: 0, actual_time: 96
type: note_off, time: 0, actual_time: 96
type: note_off, time: 0, actual_time: 96
type: note_off, time: 0, actual_time: 96
type: note_off, time: 0, actual_time: 96
type: note_off, time: 0, actual_time: 96
type: note_off, time: 0, actual_time: 96
type: note_off, time: 0, actual_time: 96
type: note_off, time: 0, actual_time: 96
type: note_off, time: 0, actual_time: 96
type: note_off, time: 0, actual_time: 96
type: note_off, time: 0, actual_time: 96
type: note_off, time: 0, actual_time: 96
type: note_off, time: 0, actual_time: 96
type: note_off, time: 0, actual_time: 96
type: note_off, time: 0, actual_time: 96
type: note_off, time: 0, actual_time: 96
type: note_off, time: 0, actual_time: 96
type: note_off, time: 0, actual_time: 96
type: note_off, time: 0, actual_time: 96
type: note_off, time: 0, actual_time: 96
type: note_off, time: 0, actual_time: 96
type: note_off, time: 0, actual_time: 96
type: note_off, time: 0, actual_time: 96
type: note_off, time: 0, actual_time: 96
type: note_off, time: 0, actual_time: 96
type: note_off, time: 0, actual_time: 96
type: note_off, time: 0, actual_time: 96
type: note_off, time: 0, actual_time: 96
type: note_off, time: 0, actual_time: 96
type: note_off, time: 0, actual_time: 96
type: note_off, time: 0, actual_time: 96
type: note_off, time: 0, actual_time: 96
type: note_off, time: 12, actual_time: 108
type: note_off, time: 0, actual_time: 108
type: note_off, time: 0, actual_time: 108
type: note_off, time: 0, actual_time: 108
type: note_off, time: 0, actual_time: 108
type: note_off, time: 0, actual_time: 108
type: note_off, time: 0, actual_time: 108
type: note_off, time: 0, actual_time: 108
type: note_off, time: 0, actual_time: 108
type: note_off, time: 0, actual_time: 108
type: note_off, time: 0, actual_time: 108
type: note_off, time: 0, actual_time: 108
type: note_off, time: 8, actual_time: 116
type: note_off, time: 0, actual_time: 116
type: note_off, time: 0, actual_time: 116
type: note_off, time: 0, actual_time: 116
type: note_off, time: 0, actual_time: 116
type: note_off, time: 0, actual_time: 116
type: note_off, time: 0, actual_time: 116
type: note_off, time: 0, actual_time: 116
type: note_off, time: 0, actual_time: 116
type: note_off, time: 0, actual_time: 116
type: note_off, time: 0, actual_time: 116
type: note_off, time: 0, actual_time: 116
type: note_off, time: 0, actual_time: 116
type: note_off, time: 0, actual_time: 116
type: note_off, time: 0, actual_time: 116
type: note_off, time: 0, actual_time: 116
type: note_off, time: 0, actual_time: 116
type: note_off, time: 0, actual_time: 116
type: note_off, time: 0, actual_time: 116
type: note_off, time: 0, actual_time: 116
type: note_off, time: 0, actual_time: 116
type: note_off, time: 0, actual_time: 116
type: note_off, time: 0, actual_time: 116
type: note_off, time: 0, actual_time: 116
type: note_off, time: 0, actual_time: 116
type: note_off, time: 0, actual_time: 116
type: note_off, time: 0, actual_time: 116
type: note_off, time: 0, actual_time: 116
type: note_off, time: 0, actual_time: 116
type: note_off, time: 0, actual_time: 116
type: note_off, time: 0, actual_time: 116
type: note_off, time: 0, actual_time: 116
type: note_off, time: 0, actual_time: 116
type: note_off, time: 0, actual_time: 116
type: note_off, time: 0, actual_time: 116
type: note_off, time: 0, actual_time: 116
type: note_off, time: 0, actual_time: 116
type: note_off, time: 0, actual_time: 116
type: note_off, time: 0, actual_time: 116
type: note_off, time: 0, actual_time: 116
type: note_off, time: 0, actual_time: 116
type: note_off, time: 0, actual_time: 116
type: note_off, time: 0, actual_time: 116
type: note_off, time: 0, actual_time: 116
type: note_off, time: 0, actual_time: 116
type: note_off, time: 0, actual_time: 116
type: note_off, time: 0, actual_time: 116
type: note_off, time: 0, actual_time: 116
type: note_off, time: 20, actual_time: 136
type: note_off, time: 0, actual_time: 136
type: note_off, time: 0, actual_time: 136
type: note_off, time: 0, actual_time: 136
type: note_off, time: 0, actual_time: 136
type: note_off, time: 0, actual_time: 136
type: note_off, time: 0, actual_time: 136
type: note_off, time: 0, actual_time: 136
type: note_off, time: 0, actual_time: 136
type: note_off, time: 0, actual_time: 136
type: note_off, time: 0, actual_time: 136
type: note_off, time: 0, actual_time: 136
type: note_off, time: 0, actual_time: 136
type: note_off, time: 0, actual_time: 136
type: note_off, time: 0, actual_time: 136
type: note_off, time: 0, actual_time: 136
type: note_off, time: 0, actual_time: 136
type: note_off, time: 0, actual_time: 136
type: note_off, time: 0, actual_time: 136
type: note_off, time: 0, actual_time: 136
type: note_off, time: 0, actual_time: 136
type: note_off, time: 0, actual_time: 136
type: note_off, time: 0, actual_time: 136
type: note_off, time: 0, actual_time: 136
type: note_off, time: 0, actual_time: 136
type: note_off, time: 0, actual_time: 136
type: note_off, time: 0, actual_time: 136
type: note_off, time: 0, actual_time: 136
type: note_off, time: 0, actual_time: 136
type: note_off, time: 0, actual_time: 136
type: note_off, time: 0, actual_time: 136
type: note_off, time: 0, actual_time: 136
type: note_off, time: 0, actual_time: 136
type: note_off, time: 0, actual_time: 136
type: note_off, time: 0, actual_time: 136
type: note_off, time: 0, actual_time: 136
type: note_off, time: 0, actual_time: 136
type: note_off, time: 0, actual_time: 136
type: note_off, time: 0, actual_time: 136
type: note_off, time: 0, actual_time: 136
type: note_off, time: 0, actual_time: 136
type: note_off, time: 0, actual_time: 136
type: note_off, time: 0, actual_time: 136
type: note_off, time: 0, actual_time: 136
type: note_off, time: 0, actual_time: 136
type: note_off, time: 0, actual_time: 136
type: note_off, time: 0, actual_time: 136
type: note_off, time: 0, actual_time: 136
type: note_off, time: 8, actual_time: 144
type: note_off, time: 12, actual_time: 156
type: note_off, time: 0, actual_time: 156
type: note_off, time: 0, actual_time: 156
type: note_off, time: 0, actual_time: 156
type: note_off, time: 0, actual_time: 156
type: note_off, time: 0, actual_time: 156
type: note_off, time: 0, actual_time: 156
type: note_off, time: 0, actual_time: 156
type: note_off, time: 0, actual_time: 156
type: note_off, time: 0, actual_time: 156
type: note_off, time: 0, actual_time: 156
type: note_off, time: 0, actual_time: 156
type: note_off, time: 0, actual_time: 156
type: note_off, time: 0, actual_time: 156
type: note_off, time: 0, actual_time: 156
type: note_off, time: 0, actual_time: 156
type: note_off, time: 0, actual_time: 156
type: note_off, time: 0, actual_time: 156
type: note_off, time: 0, actual_time: 156
type: note_off, time: 0, actual_time: 156
type: note_off, time: 0, actual_time: 156
type: note_off, time: 0, actual_time: 156
type: note_off, time: 0, actual_time: 156
type: note_off, time: 0, actual_time: 156
type: note_off, time: 0, actual_time: 156
type: note_off, time: 0, actual_time: 156
type: note_off, time: 0, actual_time: 156
type: note_off, time: 0, actual_time: 156
type: note_off, time: 0, actual_time: 156
type: note_off, time: 0, actual_time: 156
type: note_off, time: 0, actual_time: 156
type: note_off, time: 0, actual_time: 156
type: note_off, time: 0, actual_time: 156
type: note_off, time: 0, actual_time: 156
type: note_off, time: 0, actual_time: 156
type: note_off, time: 0, actual_time: 156
type: note_off, time: 0, actual_time: 156
type: note_off, time: 0, actual_time: 156
type: note_off, time: 0, actual_time: 156
type: note_off, time: 0, actual_time: 156
type: note_off, time: 0, actual_time: 156
type: note_off, time: 0, actual_time: 156
type: note_off, time: 0, actual_time: 156
type: note_off, time: 0, actual_time: 156
type: note_off, time: 0, actual_time: 156
type: note_off, time: 0, actual_time: 156
type: note_off, time: 0, actual_time: 156
type: note_off, time: 0, actual_time: 156
type: note_off, time: 0, actual_time: 156
type: note_off, time: 0, actual_time: 156
type: note_off, time: 0, actual_time: 156
type: note_off, time: 0, actual_time: 156
type: note_off, time: 0, actual_time: 156
type: note_off, time: 0, actual_time: 156
type: note_off, time: 0, actual_time: 156
type: note_off, time: 0, actual_time: 156
type: note_off, time: 0, actual_time: 156
type: note_off, time: 0, actual_time: 156
type: note_off, time: 0, actual_time: 156
type: note_off, time: 8, actual_time: 164
type: note_off, time: 0, actual_time: 164
type: note_off, time: 0, actual_time: 164
type: note_off, time: 4, actual_time: 168
type: note_off, time: 0, actual_time: 168
type: note_off, time: 16, actual_time: 184
type: note_off, time: 4, actual_time: 188
type: note_off, time: 8, actual_time: 196
type: note_off, time: 0, actual_time: 196
type: note_off, time: 0, actual_time: 196
type: note_off, time: 0, actual_time: 196
type: note_off, time: 0, actual_time: 196
type: note_off, time: 8, actual_time: 204
type: note_off, time: 0, actual_time: 204
type: note_off, time: 8, actual_time: 212
type: note_off, time: 0, actual_time: 212
type: note_off, time: 0, actual_time: 212
type: note_off, time: 0, actual_time: 212
type: note_off, time: 0, actual_time: 212
type: note_off, time: 0, actual_time: 212
type: note_off, time: 0, actual_time: 212
type: note_off, time: 4, actual_time: 216
type: note_off, time: 12, actual_time: 228
type: note_off, time: 4, actual_time: 232
type: note_off, time: 0, actual_time: 232
type: note_off, time: 0, actual_time: 232
type: note_off, time: 0, actual_time: 232
type: note_off, time: 0, actual_time: 232
type: note_off, time: 4, actual_time: 236
type: note_off, time: 16, actual_time: 252
type: note_off, time: 0, actual_time: 252
type: note_off, time: 0, actual_time: 252
type: note_off, time: 0, actual_time: 252
type: note_off, time: 4, actual_time: 256
type: note_off, time: 32, actual_time: 288
type: note_off, time: 64, actual_time: 352
type: note_off, time: 72, actual_time: 424
type=note_on channel=0 note=59 velocity=80 time=7376 actual_time=7800
type: note_off, time: 96, actual_time: 7896
type=note_on channel=0 note=59 velocity=0 time=0 actual_time=7896
type=note_on channel=0 note=59 velocity=0 time=120 actual_time=8016
type=note_on channel=0 note=59 velocity=0 time=72 actual_time=8088
type=note_on channel=0 note=62 velocity=80 time=12 actual_time=8100
type: note_off, time: 144, actual_time: 8244
type=note_on channel=0 note=62 velocity=0 time=0 actual_time=8244
type=note_on channel=0 note=59 velocity=0 time=132 actual_time=8376
type=note_on channel=0 note=57 velocity=0 time=120 actual_time=8496
type=note_on channel=0 note=57 velocity=0 time=72 actual_time=8568
type=note_on channel=0 note=57 velocity=0 time=168 actual_time=8736
type=note_on channel=0 note=57 velocity=0 time=120 actual_time=8856
type=note_on channel=0 note=57 velocity=0 time=120 actual_time=8976
type=note_on channel=0 note=57 velocity=0 time=120 actual_time=9096
type=note_on channel=0 note=57 velocity=0 time=72 actual_time=9168
type=note_on channel=0 note=57 velocity=0 time=108 actual_time=9276
type=note_on channel=0 note=59 velocity=0 time=216 actual_time=9492
type=note_on channel=0 note=59 velocity=0 time=324 actual_time=9816
type=note_on channel=0 note=59 velocity=80 time=24 actual_time=9840
type: note_off, time: 96, actual_time: 9936
type=note_on channel=0 note=59 velocity=0 time=0 actual_time=9936
type=note_on channel=0 note=59 velocity=0 time=120 actual_time=10056
type=note_on channel=0 note=62 velocity=0 time=72 actual_time=10128
type=note_on channel=0 note=62 velocity=0 time=108 actual_time=10236
type=note_on channel=0 note=62 velocity=0 time=120 actual_time=10356
type=note_on channel=0 note=62 velocity=0 time=120 actual_time=10476
type=note_on channel=0 note=62 velocity=80 time=24 actual_time=10500
type: note_off, time: 108, actual_time: 10608
type=note_on channel=0 note=62 velocity=0 time=0 actual_time=10608
type=note_on channel=0 note=62 velocity=0 time=156 actual_time=10764
type=note_on channel=0 note=62 velocity=0 time=132 actual_time=10896
type=note_on channel=0 note=62 velocity=0 time=120 actual_time=11016
type=note_on channel=0 note=61 velocity=0 time=120 actual_time=11136
type=note_on channel=0 note=61 velocity=0 time=72 actual_time=11208
type=note_on channel=0 note=62 velocity=0 time=108 actual_time=11316
type=note_on channel=0 note=59 velocity=0 time=120 actual_time=11436
type=note_on channel=0 note=59 velocity=0 time=196 actual_time=11632
type=note_on channel=0 note=59 velocity=80 time=8 actual_time=11640
type: note_off, time: 96, actual_time: 11736
type=note_on channel=0 note=59 velocity=0 time=0 actual_time=11736
type=note_on channel=0 note=59 velocity=80 time=24 actual_time=11760
type: note_off, time: 96, actual_time: 11856
type=note_on channel=0 note=59 velocity=0 time=0 actual_time=11856
type=note_on channel=0 note=59 velocity=80 time=24 actual_time=11880
type: note_off, time: 48, actual_time: 11928
type=note_on channel=0 note=59 velocity=0 time=0 actual_time=11928
type=note_on channel=0 note=62 velocity=0 time=156 actual_time=12084
type=note_on channel=0 note=59 velocity=0 time=132 actual_time=12216
type=note_on channel=0 note=57 velocity=0 time=120 actual_time=12336
type=note_on channel=0 note=57 velocity=0 time=72 actual_time=12408
type=note_on channel=0 note=57 velocity=0 time=168 actual_time=12576
type=note_on channel=0 note=57 velocity=0 time=120 actual_time=12696
type=note_on channel=0 note=59 velocity=80 time=24 actual_time=12720
type: note_off, time: 48, actual_time: 12768
type=note_on channel=0 note=57 velocity=0 time=0 actual_time=12768
type=note_on channel=0 note=57 velocity=0 time=108 actual_time=12876
type=note_on channel=0 note=59 velocity=80 time=24 actual_time=12900
type: note_off, time: 384, actual_time: 13284
type=note_on channel=0 note=59 velocity=0 time=0 actual_time=13284
type=note_on channel=0 note=59 velocity=0 time=372 actual_time=13656
type=note_on channel=0 note=59 velocity=0 time=120 actual_time=13776
type=note_on channel=0 note=59 velocity=0 time=120 actual_time=13896
type=note_on channel=0 note=59 velocity=0 time=72 actual_time=13968
type=note_on channel=0 note=59 velocity=0 time=108 actual_time=14076
type=note_on channel=0 note=59 velocity=0 time=120 actual_time=14196
type=note_on channel=0 note=59 velocity=0 time=120 actual_time=14316
type=note_on channel=0 note=59 velocity=80 time=84 actual_time=14400
type=note_on channel=0 note=59 velocity=0 time=36 actual_time=14436
type: note_off, time: 348, actual_time: 14784
type=note_on channel=0 note=57 velocity=0 time=0 actual_time=14784
type=note_on channel=0 note=57 velocity=0 time=768 actual_time=15552
type=note_on channel=0 note=59 velocity=0 time=3864 actual_time=19416
type=note_on channel=0 note=59 velocity=0 time=120 actual_time=19536
type=note_on channel=0 note=59 velocity=80 time=24 actual_time=19560
type: note_off, time: 48, actual_time: 19608
type=note_on channel=0 note=59 velocity=0 time=0 actual_time=19608
type=note_on channel=0 note=59 velocity=80 time=12 actual_time=19620
type: note_off, time: 144, actual_time: 19764
type=note_on channel=0 note=59 velocity=0 time=0 actual_time=19764
type=note_on channel=0 note=59 velocity=80 time=36 actual_time=19800
type: note_off, time: 96, actual_time: 19896
type=note_on channel=0 note=57 velocity=0 time=0 actual_time=19896
type=note_on channel=0 note=57 velocity=0 time=120 actual_time=20016
type=note_on channel=0 note=54 velocity=0 time=72 actual_time=20088
type=note_on channel=0 note=57 velocity=0 time=168 actual_time=20256
type=note_on channel=0 note=57 velocity=0 time=120 actual_time=20376
type=note_on channel=0 note=59 velocity=80 time=24 actual_time=20400
type: note_off, time: 48, actual_time: 20448
type=note_on channel=0 note=57 velocity=0 time=0 actual_time=20448
type=note_on channel=0 note=57 velocity=0 time=108 actual_time=20556
type=note_on channel=0 note=57 velocity=0 time=408 actual_time=20964
type=note_on channel=0 note=54 velocity=0 time=492 actual_time=21456
type=note_on channel=0 note=54 velocity=0 time=72 actual_time=21528
type=note_on channel=0 note=57 velocity=0 time=108 actual_time=21636
type=note_on channel=0 note=57 velocity=0 time=120 actual_time=21756
type=note_on channel=0 note=57 velocity=0 time=120 actual_time=21876
type=note_on channel=0 note=57 velocity=80 time=24 actual_time=21900
type: note_off, time: 48, actual_time: 21948
type=note_on channel=0 note=57 velocity=0 time=0 actual_time=21948
type=note_on channel=0 note=57 velocity=0 time=60 actual_time=22008
type=note_on channel=0 note=57 velocity=0 time=120 actual_time=22128
type=note_on channel=0 note=59 velocity=0 time=108 actual_time=22236
type=note_on channel=0 note=59 velocity=80 time=24 actual_time=22260
type: note_off, time: 48, actual_time: 22308
type=note_on channel=0 note=57 velocity=0 time=0 actual_time=22308
type=note_on channel=0 note=59 velocity=80 time=12 actual_time=22320
type: note_off, time: 96, actual_time: 22416
type=note_on channel=0 note=57 velocity=0 time=0 actual_time=22416
type=note_on channel=0 note=57 velocity=0 time=72 actual_time=22488
type=note_on channel=0 note=52 velocity=80 time=12 actual_time=22500
type: note_off, time: 96, actual_time: 22596
type=note_on channel=0 note=52 velocity=0 time=0 actual_time=22596
type=note_on channel=0 note=52 velocity=0 time=120 actual_time=22716
type=note_on channel=0 note=59 velocity=80 time=24 actual_time=22740
type: note_off, time: 96, actual_time: 22836
type=note_on channel=0 note=52 velocity=0 time=0 actual_time=22836
type=note_on channel=0 note=50 velocity=0 time=120 actual_time=22956
type=note_on channel=0 note=57 velocity=80 time=204 actual_time=23160
type: note_off, time: 96, actual_time: 23256
type=note_on channel=0 note=57 velocity=0 time=0 actual_time=23256
type=note_on channel=0 note=57 velocity=0 time=72 actual_time=23328
type=note_on channel=0 note=57 velocity=0 time=108 actual_time=23436
type=note_on channel=0 note=59 velocity=0 time=120 actual_time=23556
type=note_on channel=0 note=59 velocity=80 time=24 actual_time=23580
type: note_off, time: 192, actual_time: 23772
type=note_on channel=0 note=57 velocity=0 time=0 actual_time=23772
type=note_on channel=0 note=57 velocity=0 time=192 actual_time=23964
type=note_on channel=0 note=57 velocity=0 time=84 actual_time=24048
type=note_on channel=0 note=59 velocity=80 time=12 actual_time=24060
type: note_off, time: 96, actual_time: 24156
type=note_on channel=0 note=57 velocity=0 time=0 actual_time=24156
type=note_on channel=0 note=57 velocity=0 time=120 actual_time=24276
type=note_on channel=0 note=57 velocity=0 time=120 actual_time=24396
type=note_on channel=0 note=59 velocity=0 time=312 actual_time=24708
type=note_on channel=0 note=59 velocity=0 time=240 actual_time=24948
type=note_on channel=0 note=59 velocity=0 time=108 actual_time=25056
type=note_on channel=0 note=59 velocity=0 time=120 actual_time=25176
type=note_on channel=0 note=59 velocity=0 time=120 actual_time=25296
type=note_on channel=0 note=62 velocity=0 time=216 actual_time=25512
type=note_on channel=0 note=62 velocity=0 time=240 actual_time=25752
type=note_on channel=0 note=62 velocity=0 time=264 actual_time=26016
type=note_on channel=0 note=61 velocity=0 time=120 actual_time=26136
type=note_on channel=0 note=61 velocity=0 time=120 actual_time=26256
type=note_on channel=0 note=62 velocity=0 time=120 actual_time=26376
type=note_on channel=0 note=59 velocity=0 time=216 actual_time=26592
type=note_on channel=0 note=59 velocity=0 time=504 actual_time=27096
type=note_on channel=0 note=59 velocity=0 time=120 actual_time=27216
type=note_on channel=0 note=59 velocity=80 time=24 actual_time=27240
type: note_off, time: 96, actual_time: 27336
type=note_on channel=0 note=59 velocity=0 time=0 actual_time=27336
type=note_on channel=0 note=62 velocity=80 time=24 actual_time=27360
type: note_off, time: 96, actual_time: 27456
type=note_on channel=0 note=62 velocity=0 time=0 actual_time=27456
type=note_on channel=0 note=59 velocity=0 time=120 actual_time=27576
type=note_on channel=0 note=59 velocity=0 time=120 actual_time=27696
type=note_on channel=0 note=59 velocity=80 time=24 actual_time=27720
type: note_off, time: 96, actual_time: 27816
type=note_on channel=0 note=59 velocity=0 time=0 actual_time=27816
type=note_on channel=0 note=62 velocity=0 time=120 actual_time=27936
type=note_on channel=0 note=62 velocity=0 time=120 actual_time=28056
type=note_on channel=0 note=62 velocity=0 time=120 actual_time=28176
type=note_on channel=0 note=62 velocity=0 time=120 actual_time=28296
type=note_on channel=0 note=61 velocity=0 time=120 actual_time=28416
type=note_on channel=0 note=61 velocity=0 time=72 actual_time=28488
type=note_on channel=0 note=62 velocity=0 time=204 actual_time=28692
type=note_on channel=0 note=59 velocity=0 time=324 actual_time=29016
type=note_on channel=0 note=59 velocity=0 time=120 actual_time=29136
type=note_on channel=0 note=59 velocity=80 time=24 actual_time=29160
type: note_off, time: 48, actual_time: 29208
type=note_on channel=0 note=59 velocity=0 time=0 actual_time=29208
type=note_on channel=0 note=62 velocity=0 time=180 actual_time=29388
type=note_on channel=0 note=59 velocity=0 time=108 actual_time=29496
type=note_on channel=0 note=59 velocity=80 time=24 actual_time=29520
type: note_off, time: 96, actual_time: 29616
type=note_on channel=0 note=59 velocity=0 time=0 actual_time=29616
type=note_on channel=0 note=59 velocity=0 time=120 actual_time=29736
type=note_on channel=0 note=62 velocity=0 time=120 actual_time=29856
type=note_on channel=0 note=62 velocity=0 time=120 actual_time=29976
type=note_on channel=0 note=62 velocity=0 time=120 actual_time=30096
type=note_on channel=0 note=62 velocity=0 time=120 actual_time=30216
type=note_on channel=0 note=61 velocity=0 time=120 actual_time=30336
type=note_on channel=0 note=61 velocity=0 time=120 actual_time=30456
type=note_on channel=0 note=61 velocity=0 time=120 actual_time=30576
type=note_on channel=0 note=62 velocity=0 time=120 actual_time=30696
type=note_on channel=0 note=59 velocity=0 time=240 actual_time=30936
type=note_on channel=0 note=59 velocity=0 time=120 actual_time=31056
type=note_on channel=0 note=59 velocity=0 time=120 actual_time=31176
type=note_on channel=0 note=62 velocity=80 time=24 actual_time=31200
type: note_off, time: 96, actual_time: 31296
type=note_on channel=0 note=62 velocity=0 time=0 actual_time=31296
type=note_on channel=0 note=59 velocity=0 time=120 actual_time=31416
type=note_on channel=0 note=57 velocity=0 time=120 actual_time=31536
type=note_on channel=0 note=57 velocity=0 time=120 actual_time=31656
type=note_on channel=0 note=62 velocity=0 time=120 actual_time=31776
type=note_on channel=0 note=62 velocity=80 time=24 actual_time=31800
type: note_off, time: 96, actual_time: 31896
type=note_on channel=0 note=62 velocity=0 time=0 actual_time=31896
type=note_on channel=0 note=62 velocity=0 time=120 actual_time=32016
type=note_on channel=0 note=61 velocity=0 time=216 actual_time=32232
type=note_on channel=0 note=61 velocity=0 time=240 actual_time=32472
type=note_on channel=0 note=61 velocity=0 time=144 actual_time=32616
type=note_on channel=0 note=62 velocity=0 time=120 actual_time=32736
type=note_on channel=0 note=62 velocity=0 time=240 actual_time=32976
type=note_on channel=0 note=59 velocity=0 time=72 actual_time=33048
type=note_on channel=0 note=59 velocity=80 time=12 actual_time=33060
type: note_off, time: 192, actual_time: 33252
type=note_on channel=0 note=57 velocity=0 time=0 actual_time=33252
type=note_on channel=0 note=59 velocity=0 time=5364 actual_time=38616
type=note_on channel=0 note=59 velocity=0 time=120 actual_time=38736
type=note_on channel=0 note=59 velocity=0 time=120 actual_time=38856
type=note_on channel=0 note=59 velocity=0 time=120 actual_time=38976
type=note_on channel=0 note=57 velocity=0 time=120 actual_time=39096
type=note_on channel=0 note=57 velocity=0 time=120 actual_time=39216
type=note_on channel=0 note=59 velocity=80 time=24 actual_time=39240
type: note_off, time: 96, actual_time: 39336
type=note_on channel=0 note=57 velocity=0 time=0 actual_time=39336
type=note_on channel=0 note=57 velocity=0 time=120 actual_time=39456
type=note_on channel=0 note=57 velocity=0 time=120 actual_time=39576
type=note_on channel=0 note=57 velocity=0 time=120 actual_time=39696
type=note_on channel=0 note=57 velocity=0 time=120 actual_time=39816
type=note_on channel=0 note=57 velocity=0 time=72 actual_time=39888
type=note_on channel=0 note=57 velocity=0 time=108 actual_time=39996
type=note_on channel=0 note=57 velocity=0 time=120 actual_time=40116
type=note_on channel=0 note=57 velocity=0 time=120 actual_time=40236
type=note_on channel=0 note=54 velocity=0 time=180 actual_time=40416
type=note_on channel=0 note=54 velocity=0 time=120 actual_time=40536
type=note_on channel=0 note=54 velocity=0 time=120 actual_time=40656
type=note_on channel=0 note=59 velocity=80 time=24 actual_time=40680
type: note_off, time: 96, actual_time: 40776
type=note_on channel=0 note=54 velocity=0 time=0 actual_time=40776
type=note_on channel=0 note=57 velocity=0 time=72 actual_time=40848
type=note_on channel=0 note=57 velocity=80 time=12 actual_time=40860
type: note_off, time: 144, actual_time: 41004
type=note_on channel=0 note=57 velocity=0 time=0 actual_time=41004
type=note_on channel=0 note=57 velocity=0 time=132 actual_time=41136
type=note_on channel=0 note=57 velocity=0 time=72 actual_time=41208
type=note_on channel=0 note=59 velocity=80 time=12 actual_time=41220
type: note_off, time: 156, actual_time: 41376
type=note_on channel=0 note=59 velocity=0 time=0 actual_time=41376
type=note_on channel=0 note=57 velocity=0 time=120 actual_time=41496
type=note_on channel=0 note=59 velocity=80 time=24 actual_time=41520
type: note_off, time: 48, actual_time: 41568
type=note_on channel=0 note=57 velocity=0 time=0 actual_time=41568
type=note_on channel=0 note=57 velocity=0 time=108 actual_time=41676
type=note_on channel=0 note=57 velocity=0 time=120 actual_time=41796
type=note_on channel=0 note=57 velocity=0 time=120 actual_time=41916
type=note_on channel=0 note=59 velocity=0 time=216 actual_time=42132
type=note_on channel=0 note=59 velocity=0 time=324 actual_time=42456
type=note_on channel=0 note=59 velocity=0 time=120 actual_time=42576
type=note_on channel=0 note=59 velocity=0 time=72 actual_time=42648
type=note_on channel=0 note=59 velocity=0 time=180 actual_time=42828
type=note_on channel=0 note=57 velocity=0 time=108 actual_time=42936
type=note_on channel=0 note=57 velocity=0 time=120 actual_time=43056
type=note_on channel=0 note=59 velocity=80 time=24 actual_time=43080
type: note_off, time: 48, actual_time: 43128
type=note_on channel=0 note=54 velocity=0 time=0 actual_time=43128
type=note_on channel=0 note=57 velocity=0 time=168 actual_time=43296
type=note_on channel=0 note=57 velocity=0 time=120 actual_time=43416
type=note_on channel=0 note=57 velocity=0 time=120 actual_time=43536
type=note_on channel=0 note=59 velocity=80 time=24 actual_time=43560
type: note_off, time: 48, actual_time: 43608
type=note_on channel=0 note=54 velocity=0 time=0 actual_time=43608
type=note_on channel=0 note=57 velocity=0 time=156 actual_time=43764
type=note_on channel=0 note=57 velocity=0 time=84 actual_time=43848
type=note_on channel=0 note=57 velocity=0 time=108 actual_time=43956
type=note_on channel=0 note=57 velocity=0 time=120 actual_time=44076
type=note_on channel=0 note=54 velocity=0 time=180 actual_time=44256
type=note_on channel=0 note=54 velocity=0 time=120 actual_time=44376
type=note_on channel=0 note=54 velocity=0 time=120 actual_time=44496
type=note_on channel=0 note=54 velocity=0 time=72 actual_time=44568
type=note_on channel=0 note=54 velocity=0 time=156 actual_time=44724
type=note_on channel=0 note=59 velocity=80 time=96 actual_time=44820
type: note_off, time: 48, actual_time: 44868
type=note_on channel=0 note=54 velocity=0 time=0 actual_time=44868
type=note_on channel=0 note=54 velocity=0 time=60 actual_time=44928
type=note_on channel=0 note=54 velocity=80 time=12 actual_time=44940
type: note_off, time: 144, actual_time: 45084
type=note_on channel=0 note=54 velocity=0 time=0 actual_time=45084
type=note_on channel=0 note=62 velocity=0 time=84 actual_time=45168
type=note_on channel=0 note=58 velocity=80 time=12 actual_time=45180
type: note_off, time: 144, actual_time: 45324
type=note_on channel=0 note=62 velocity=0 time=0 actual_time=45324
type=note_on channel=0 note=62 velocity=0 time=84 actual_time=45408
type=note_on channel=0 note=59 velocity=80 time=12 actual_time=45420
type: note_off, time: 96, actual_time: 45516
type=note_on channel=0 note=62 velocity=0 time=0 actual_time=45516
type=note_on channel=0 note=63 velocity=80 time=24 actual_time=45540
type: note_off, time: 192, actual_time: 45732
type=note_on channel=0 note=61 velocity=0 time=0 actual_time=45732
type=note_on channel=0 note=59 velocity=0 time=564 actual_time=46296
type=note_on channel=0 note=59 velocity=0 time=120 actual_time=46416
type=note_on channel=0 note=59 velocity=80 time=24 actual_time=46440
type: note_off, time: 96, actual_time: 46536
type=note_on channel=0 note=59 velocity=0 time=0 actual_time=46536
type=note_on channel=0 note=59 velocity=80 time=24 actual_time=46560
type: note_off, time: 96, actual_time: 46656
type=note_on channel=0 note=62 velocity=0 time=0 actual_time=46656
type=note_on channel=0 note=59 velocity=80 time=24 actual_time=46680
type: note_off, time: 96, actual_time: 46776
type=note_on channel=0 note=59 velocity=0 time=0 actual_time=46776
type=note_on channel=0 note=59 velocity=0 time=120 actual_time=46896
type=note_on channel=0 note=54 velocity=80 time=24 actual_time=46920
type: note_off, time: 96, actual_time: 47016
type=note_on channel=0 note=59 velocity=0 time=0 actual_time=47016
type=note_on channel=0 note=62 velocity=0 time=120 actual_time=47136
type=note_on channel=0 note=62 velocity=0 time=120 actual_time=47256
type=note_on channel=0 note=62 velocity=0 time=120 actual_time=47376
type=note_on channel=0 note=62 velocity=0 time=120 actual_time=47496
type=note_on channel=0 note=61 velocity=0 time=120 actual_time=47616
type=note_on channel=0 note=59 velocity=80 time=24 actual_time=47640
type: note_off, time: 48, actual_time: 47688
type=note_on channel=0 note=61 velocity=0 time=0 actual_time=47688
type=note_on channel=0 note=62 velocity=0 time=204 actual_time=47892
type=note_on channel=0 note=59 velocity=0 time=324 actual_time=48216
type=note_on channel=0 note=59 velocity=0 time=120 actual_time=48336
type=note_on channel=0 note=59 velocity=0 time=72 actual_time=48408
type=note_on channel=0 note=62 velocity=0 time=180 actual_time=48588
type=note_on channel=0 note=59 velocity=0 time=108 actual_time=48696
type=note_on channel=0 note=59 velocity=80 time=24 actual_time=48720
type: note_off, time: 96, actual_time: 48816
type=note_on channel=0 note=59 velocity=0 time=0 actual_time=48816
type=note_on channel=0 note=59 velocity=0 time=120 actual_time=48936
type=note_on channel=0 note=62 velocity=0 time=120 actual_time=49056
type=note_on channel=0 note=62 velocity=0 time=120 actual_time=49176
type=note_on channel=0 note=62 velocity=0 time=120 actual_time=49296
type=note_on channel=0 note=62 velocity=0 time=120 actual_time=49416
type=note_on channel=0 note=61 velocity=0 time=120 actual_time=49536
type=note_on channel=0 note=61 velocity=0 time=120 actual_time=49656
type=note_on channel=0 note=61 velocity=0 time=120 actual_time=49776
type=note_on channel=0 note=62 velocity=0 time=120 actual_time=49896
type=note_on channel=0 note=59 velocity=0 time=240 actual_time=50136
type=note_on channel=0 note=59 velocity=0 time=120 actual_time=50256
type=note_on channel=0 note=59 velocity=0 time=120 actual_time=50376
type=note_on channel=0 note=62 velocity=0 time=120 actual_time=50496
type=note_on channel=0 note=59 velocity=0 time=120 actual_time=50616
type=note_on channel=0 note=59 velocity=80 time=24 actual_time=50640
type: note_off, time: 96, actual_time: 50736
type=note_on channel=0 note=57 velocity=0 time=0 actual_time=50736
type=note_on channel=0 note=57 velocity=0 time=120 actual_time=50856
type=note_on channel=0 note=62 velocity=0 time=120 actual_time=50976
type=note_on channel=0 note=62 velocity=0 time=120 actual_time=51096
type=note_on channel=0 note=62 velocity=0 time=120 actual_time=51216
type=note_on channel=0 note=61 velocity=0 time=216 actual_time=51432
type=note_on channel=0 note=59 velocity=80 time=48 actual_time=51480
type: note_off, time: 192, actual_time: 51672
type=note_on channel=0 note=61 velocity=0 time=0 actual_time=51672
type=note_on channel=0 note=59 velocity=80 time=48 actual_time=51720
type: note_off, time: 96, actual_time: 51816
type=note_on channel=0 note=61 velocity=0 time=0 actual_time=51816
type=note_on channel=0 note=62 velocity=80 time=24 actual_time=51840
type: note_off, time: 96, actual_time: 51936
type=note_on channel=0 note=62 velocity=0 time=0 actual_time=51936
type=note_on channel=0 note=62 velocity=0 time=240 actual_time=52176
type=note_on channel=0 note=59 velocity=0 time=72 actual_time=52248
type=note_on channel=0 note=57 velocity=0 time=204 actual_time=52452
type=note_on channel=0 note=57 velocity=0 time=4524 actual_time=56976
type=note_on channel=0 note=57 velocity=0 time=72 actual_time=57048
type=note_on channel=0 note=59 velocity=80 time=12 actual_time=57060
type: note_off, time: 96, actual_time: 57156
type=note_on channel=0 note=57 velocity=0 time=0 actual_time=57156
type=note_on channel=0 note=57 velocity=0 time=120 actual_time=57276
type=note_on channel=0 note=57 velocity=0 time=120 actual_time=57396
type=note_on channel=0 note=57 velocity=0 time=120 actual_time=57516
type=note_on channel=0 note=57 velocity=0 time=180 actual_time=57696
type=note_on channel=0 note=59 velocity=0 time=7800 actual_time=65496
type=note_on channel=0 note=59 velocity=80 time=24 actual_time=65520
type: note_off, time: 96, actual_time: 65616
type=note_on channel=0 note=59 velocity=0 time=0 actual_time=65616
type=note_on channel=0 note=59 velocity=80 time=24 actual_time=65640
type: note_off, time: 96, actual_time: 65736
type=note_on channel=0 note=59 velocity=0 time=0 actual_time=65736
type=note_on channel=0 note=59 velocity=0 time=120 actual_time=65856
type=note_on channel=0 note=57 velocity=0 time=120 actual_time=65976
type=note_on channel=0 note=57 velocity=0 time=120 actual_time=66096
type=note_on channel=0 note=57 velocity=0 time=120 actual_time=66216
type=note_on channel=0 note=57 velocity=0 time=120 actual_time=66336
type=note_on channel=0 note=57 velocity=0 time=120 actual_time=66456
type=note_on channel=0 note=57 velocity=0 time=120 actual_time=66576
type=note_on channel=0 note=57 velocity=0 time=120 actual_time=66696
type=note_on channel=0 note=59 velocity=80 time=24 actual_time=66720
type: note_off, time: 96, actual_time: 66816
type=note_on channel=0 note=57 velocity=0 time=0 actual_time=66816
type=note_on channel=0 note=57 velocity=0 time=72 actual_time=66888
type=note_on channel=0 note=57 velocity=0 time=204 actual_time=67092
type=note_on channel=0 note=54 velocity=0 time=324 actual_time=67416
type=note_on channel=0 note=53 velocity=80 time=24 actual_time=67440
type: note_off, time: 96, actual_time: 67536
type=note_on channel=0 note=54 velocity=0 time=0 actual_time=67536
type=note_on channel=0 note=54 velocity=0 time=72 actual_time=67608
type=note_on channel=0 note=57 velocity=0 time=156 actual_time=67764
type=note_on channel=0 note=57 velocity=0 time=132 actual_time=67896
type=note_on channel=0 note=57 velocity=0 time=120 actual_time=68016
type=note_on channel=0 note=59 velocity=80 time=24 actual_time=68040
type: note_off, time: 96, actual_time: 68136
type=note_on channel=0 note=57 velocity=0 time=0 actual_time=68136
type=note_on channel=0 note=59 velocity=0 time=120 actual_time=68256
type=note_on channel=0 note=59 velocity=0 time=120 actual_time=68376
type=note_on channel=0 note=59 velocity=80 time=24 actual_time=68400
type: note_off, time: 96, actual_time: 68496
type=note_on channel=0 note=59 velocity=0 time=0 actual_time=68496
type=note_on channel=0 note=62 velocity=0 time=240 actual_time=68736
type=note_on channel=0 note=59 velocity=80 time=24 actual_time=68760
type: note_off, time: 96, actual_time: 68856
type=note_on channel=0 note=59 velocity=0 time=0 actual_time=68856
type=note_on channel=0 note=59 velocity=0 time=120 actual_time=68976
type=note_on channel=0 note=59 velocity=0 time=168 actual_time=69144
type=note_on channel=0 note=57 velocity=0 time=72 actual_time=69216
type=note_on channel=0 note=57 velocity=0 time=120 actual_time=69336
type=note_on channel=0 note=57 velocity=0 time=120 actual_time=69456
type=note_on channel=0 note=57 velocity=0 time=120 actual_time=69576
type=note_on channel=0 note=57 velocity=0 time=120 actual_time=69696
type=note_on channel=0 note=57 velocity=80 time=24 actual_time=69720
type: note_off, time: 96, actual_time: 69816
type=note_on channel=0 note=57 velocity=0 time=0 actual_time=69816
type=note_on channel=0 note=57 velocity=0 time=120 actual_time=69936
type=note_on channel=0 note=59 velocity=80 time=24 actual_time=69960
type: note_off, time: 96, actual_time: 70056
type=note_on channel=0 note=57 velocity=0 time=0 actual_time=70056
type=note_on channel=0 note=59 velocity=80 time=24 actual_time=70080
type: note_off, time: 96, actual_time: 70176
type=note_on channel=0 note=57 velocity=0 time=0 actual_time=70176
type=note_on channel=0 note=57 velocity=0 time=120 actual_time=70296
type=note_on channel=0 note=57 velocity=0 time=120 actual_time=70416
type=note_on channel=0 note=57 velocity=0 time=216 actual_time=70632
type=note_on channel=0 note=59 velocity=80 time=48 actual_time=70680
type: note_off, time: 192, actual_time: 70872
type=note_on channel=0 note=57 velocity=0 time=0 actual_time=70872
type=note_on channel=0 note=59 velocity=0 time=264 actual_time=71136
type=note_on channel=0 note=62 velocity=0 time=240 actual_time=71376
type=note_on channel=0 note=59 velocity=80 time=24 actual_time=71400
type: note_off, time: 48, actual_time: 71448
type=note_on channel=0 note=59 velocity=0 time=0 actual_time=71448
type=note_on channel=0 note=62 velocity=80 time=12 actual_time=71460
type: note_off, time: 384, actual_time: 71844
type=note_on channel=0 note=62 velocity=0 time=0 actual_time=71844
type=note_on channel=0 note=59 velocity=80 time=156 actual_time=72000
type: note_off, time: 768, actual_time: 72768
type=note_on channel=0 note=66 velocity=0 time=0 actual_time=72768
type=note_on channel=0 note=59 velocity=80 time=312 actual_time=73080
type: note_off, time: 96, actual_time: 73176
type=note_on channel=0 note=59 velocity=0 time=0 actual_time=73176
type=note_on channel=0 note=59 velocity=0 time=120 actual_time=73296
type=note_on channel=0 note=59 velocity=0 time=120 actual_time=73416
type=note_on channel=0 note=62 velocity=0 time=120 actual_time=73536
type=note_on channel=0 note=59 velocity=0 time=120 actual_time=73656
type=note_on channel=0 note=59 velocity=0 time=120 actual_time=73776
type=note_on channel=0 note=59 velocity=0 time=120 actual_time=73896
type=note_on channel=0 note=62 velocity=0 time=120 actual_time=74016
type=note_on channel=0 note=62 velocity=0 time=120 actual_time=74136
type=note_on channel=0 note=62 velocity=0 time=120 actual_time=74256
type=note_on channel=0 note=62 velocity=0 time=120 actual_time=74376
type=note_on channel=0 note=61 velocity=0 time=120 actual_time=74496
type=note_on channel=0 note=61 velocity=0 time=72 actual_time=74568
type=note_on channel=0 note=59 velocity=80 time=12 actual_time=74580
type: note_off, time: 192, actual_time: 74772
type=note_on channel=0 note=62 velocity=0 time=0 actual_time=74772
type=note_on channel=0 note=59 velocity=0 time=324 actual_time=75096
type=note_on channel=0 note=59 velocity=80 time=24 actual_time=75120
type: note_off, time: 96, actual_time: 75216
type=note_on channel=0 note=59 velocity=0 time=0 actual_time=75216
type=note_on channel=0 note=59 velocity=0 time=72 actual_time=75288
type=note_on channel=0 note=62 velocity=0 time=180 actual_time=75468
type=note_on channel=0 note=59 velocity=0 time=108 actual_time=75576
type=note_on channel=0 note=59 velocity=0 time=120 actual_time=75696
type=note_on channel=0 note=59 velocity=0 time=120 actual_time=75816
type=note_on channel=0 note=62 velocity=0 time=120 actual_time=75936
type=note_on channel=0 note=62 velocity=0 time=120 actual_time=76056
type=note_on channel=0 note=62 velocity=0 time=120 actual_time=76176
type=note_on channel=0 note=59 velocity=80 time=24 actual_time=76200
type: note_off, time: 96, actual_time: 76296
type=note_on channel=0 note=62 velocity=0 time=0 actual_time=76296
type=note_on channel=0 note=61 velocity=0 time=120 actual_time=76416
type=note_on channel=0 note=61 velocity=0 time=120 actual_time=76536
type=note_on channel=0 note=61 velocity=0 time=120 actual_time=76656
type=note_on channel=0 note=62 velocity=0 time=120 actual_time=76776
type=note_on channel=0 note=59 velocity=0 time=240 actual_time=77016
type=note_on channel=0 note=59 velocity=0 time=120 actual_time=77136
type=note_on channel=0 note=59 velocity=0 time=120 actual_time=77256
type=note_on channel=0 note=62 velocity=0 time=120 actual_time=77376
type=note_on channel=0 note=59 velocity=80 time=24 actual_time=77400
type: note_off, time: 96, actual_time: 77496
type=note_on channel=0 note=59 velocity=0 time=0 actual_time=77496
type=note_on channel=0 note=57 velocity=0 time=120 actual_time=77616
type=note_on channel=0 note=59 velocity=80 time=24 actual_time=77640
type: note_off, time: 96, actual_time: 77736
type=note_on channel=0 note=57 velocity=0 time=0 actual_time=77736
type=note_on channel=0 note=59 velocity=80 time=24 actual_time=77760
type: note_off, time: 96, actual_time: 77856
type=note_on channel=0 note=62 velocity=0 time=0 actual_time=77856
type=note_on channel=0 note=62 velocity=80 time=24 actual_time=77880
type: note_off, time: 96, actual_time: 77976
type=note_on channel=0 note=62 velocity=0 time=0 actual_time=77976
type=note_on channel=0 note=62 velocity=0 time=120 actual_time=78096
type=note_on channel=0 note=61 velocity=0 time=216 actual_time=78312
type=note_on channel=0 note=61 velocity=0 time=240 actual_time=78552
type=note_on channel=0 note=61 velocity=0 time=144 actual_time=78696
type=note_on channel=0 note=62 velocity=0 time=120 actual_time=78816
type=note_on channel=0 note=62 velocity=0 time=240 actual_time=79056
type=note_on channel=0 note=59 velocity=0 time=72 actual_time=79128
type=note_on channel=0 note=57 velocity=0 time=204 actual_time=79332
type=note_on channel=0 note=59 velocity=0 time=2844 actual_time=82176
type=note_on channel=0 note=57 velocity=80 time=24 actual_time=82200
type: note_off, time: 96, actual_time: 82296
type=note_on channel=0 note=57 velocity=0 time=0 actual_time=82296
type=note_on channel=0 note=57 velocity=0 time=120 actual_time=82416
type=note_on channel=0 note=59 velocity=0 time=120 actual_time=82536
type=note_on channel=0 note=59 velocity=80 time=24 actual_time=82560
type: note_off, time: 768, actual_time: 83328
type=note_on channel=0 note=59 velocity=0 time=0 actual_time=83328
type=note_on channel=0 note=59 velocity=80 time=672 actual_time=84000
type: note_off, time: 96, actual_time: 84096
type=note_on channel=0 note=59 velocity=0 time=0 actual_time=84096
type=note_on channel=0 note=57 velocity=0 time=120 actual_time=84216
type=note_on channel=0 note=57 velocity=80 time=24 actual_time=84240
type: note_off, time: 96, actual_time: 84336
type=note_on channel=0 note=57 velocity=0 time=0 actual_time=84336
type=note_on channel=0 note=59 velocity=0 time=120 actual_time=84456
type=note_on channel=0 note=59 velocity=80 time=24 actual_time=84480
type: note_off, time: 768, actual_time: 85248
type=note_on channel=0 note=59 velocity=0 time=0 actual_time=85248
type=note_on channel=0 note=59 velocity=0 time=768 actual_time=86016
type=note_on channel=0 note=57 velocity=0 time=120 actual_time=86136
type=note_on channel=0 note=59 velocity=80 time=24 actual_time=86160
type: note_off, time: 96, actual_time: 86256
type=note_on channel=0 note=57 velocity=0 time=0 actual_time=86256
type=note_on channel=0 note=59 velocity=0 time=120 actual_time=86376
type=note_on channel=0 note=59 velocity=80 time=24 actual_time=86400
type: note_off, time: 1728, actual_time: 88128
type=note_on channel=0 note=59 velocity=0 time=0 actual_time=88128
MetaMessage type: end_of_track, time: 0, actual_time: 88128
