MetaMessage type: track_name, time: 0, actual_time: 0
type: program_change, time: 0, actual_time: 0
type=control_change channel=0 control=7 value=124 time=0 actual_time=0
type=note_on channel=0 note=59 velocity=80 time=7800 actual_time=7800
type: note_off, time: 7800, actual_time: 7896
type=note_on channel=0 note=59 velocity=0 time=96 actual_time=7896
type=note_on channel=0 note=59 velocity=80 time=24 actual_time=7920
type: note_off, time: 24, actual_time: 8016
type=note_on channel=0 note=59 velocity=0 time=96 actual_time=8016
type=note_on channel=0 note=59 velocity=80 time=24 actual_time=8040
type: note_off, time: 24, actual_time: 8088
type=note_on channel=0 note=59 velocity=0 time=48 actual_time=8088
type=note_on channel=0 note=62 velocity=80 time=12 actual_time=8100
type: note_off, time: 12, actual_time: 8244
type=note_on channel=0 note=62 velocity=0 time=144 actual_time=8244
type=note_on channel=0 note=59 velocity=80 time=36 actual_time=8280
type: note_off, time: 36, actual_time: 8376
type=note_on channel=0 note=59 velocity=0 time=96 actual_time=8376
type=note_on channel=0 note=57 velocity=80 time=24 actual_time=8400
type: note_off, time: 24, actual_time: 8496
type=note_on channel=0 note=57 velocity=0 time=96 actual_time=8496
type=note_on channel=0 note=57 velocity=80 time=24 actual_time=8520
type: note_off, time: 24, actual_time: 8568
type=note_on channel=0 note=57 velocity=0 time=48 actual_time=8568
type=note_on channel=0 note=57 velocity=80 time=12 actual_time=8580
type: note_off, time: 12, actual_time: 8736
type=note_on channel=0 note=57 velocity=0 time=156 actual_time=8736
type=note_on channel=0 note=57 velocity=80 time=24 actual_time=8760
type: note_off, time: 24, actual_time: 8856
type=note_on channel=0 note=57 velocity=0 time=96 actual_time=8856
type=note_on channel=0 note=57 velocity=80 time=24 actual_time=8880
type: note_off, time: 24, actual_time: 8976
type=note_on channel=0 note=57 velocity=0 time=96 actual_time=8976
type=note_on channel=0 note=57 velocity=80 time=24 actual_time=9000
type: note_off, time: 24, actual_time: 9096
type=note_on channel=0 note=57 velocity=0 time=96 actual_time=9096
type=note_on channel=0 note=57 velocity=80 time=24 actual_time=9120
type: note_off, time: 24, actual_time: 9168
type=note_on channel=0 note=57 velocity=0 time=48 actual_time=9168
type=note_on channel=0 note=57 velocity=80 time=12 actual_time=9180
type: note_off, time: 12, actual_time: 9276
type=note_on channel=0 note=57 velocity=0 time=96 actual_time=9276
type=note_on channel=0 note=59 velocity=80 time=24 actual_time=9300
type: note_off, time: 24, actual_time: 9492
type=note_on channel=0 note=59 velocity=0 time=192 actual_time=9492
type=note_on channel=0 note=59 velocity=80 time=228 actual_time=9720
type: note_off, time: 228, actual_time: 9816
type=note_on channel=0 note=59 velocity=0 time=96 actual_time=9816
type=note_on channel=0 note=59 velocity=80 time=24 actual_time=9840
type: note_off, time: 24, actual_time: 9936
type=note_on channel=0 note=59 velocity=0 time=96 actual_time=9936
type=note_on channel=0 note=59 velocity=80 time=24 actual_time=9960
type: note_off, time: 24, actual_time: 10056
type=note_on channel=0 note=59 velocity=0 time=96 actual_time=10056
type=note_on channel=0 note=62 velocity=80 time=24 actual_time=10080
type: note_off, time: 24, actual_time: 10128
type=note_on channel=0 note=62 velocity=0 time=48 actual_time=10128
type=note_on channel=0 note=62 velocity=80 time=12 actual_time=10140
type: note_off, time: 12, actual_time: 10236
type=note_on channel=0 note=62 velocity=0 time=96 actual_time=10236
type=note_on channel=0 note=62 velocity=80 time=24 actual_time=10260
type: note_off, time: 24, actual_time: 10356
type=note_on channel=0 note=62 velocity=0 time=96 actual_time=10356
type=note_on channel=0 note=62 velocity=80 time=24 actual_time=10380
type: note_off, time: 24, actual_time: 10476
type=note_on channel=0 note=62 velocity=0 time=96 actual_time=10476
type=note_on channel=0 note=62 velocity=80 time=24 actual_time=10500
type: note_off, time: 24, actual_time: 10608
type=note_on channel=0 note=62 velocity=0 time=108 actual_time=10608
type=note_on channel=0 note=62 velocity=80 time=12 actual_time=10620
type: note_off, time: 12, actual_time: 10764
type=note_on channel=0 note=62 velocity=0 time=144 actual_time=10764
type=note_on channel=0 note=62 velocity=80 time=36 actual_time=10800
type: note_off, time: 36, actual_time: 10896
type=note_on channel=0 note=62 velocity=0 time=96 actual_time=10896
type=note_on channel=0 note=62 velocity=80 time=24 actual_time=10920
type: note_off, time: 24, actual_time: 11016
type=note_on channel=0 note=62 velocity=0 time=96 actual_time=11016
type=note_on channel=0 note=61 velocity=80 time=24 actual_time=11040
type: note_off, time: 24, actual_time: 11136
type=note_on channel=0 note=61 velocity=0 time=96 actual_time=11136
type=note_on channel=0 note=61 velocity=80 time=24 actual_time=11160
type: note_off, time: 24, actual_time: 11208
type=note_on channel=0 note=61 velocity=0 time=48 actual_time=11208
type=note_on channel=0 note=62 velocity=80 time=12 actual_time=11220
type: note_off, time: 12, actual_time: 11316
type=note_on channel=0 note=62 velocity=0 time=96 actual_time=11316
type=note_on channel=0 note=59 velocity=80 time=24 actual_time=11340
type: note_off, time: 24, actual_time: 11436
type=note_on channel=0 note=59 velocity=0 time=96 actual_time=11436
type=note_on channel=0 note=59 velocity=80 time=164 actual_time=11600
type: note_off, time: 164, actual_time: 11632
type=note_on channel=0 note=59 velocity=0 time=32 actual_time=11632
type=note_on channel=0 note=59 velocity=80 time=8 actual_time=11640
type: note_off, time: 8, actual_time: 11736
type=note_on channel=0 note=59 velocity=0 time=96 actual_time=11736
type=note_on channel=0 note=59 velocity=80 time=24 actual_time=11760
type: note_off, time: 24, actual_time: 11856
type=note_on channel=0 note=59 velocity=0 time=96 actual_time=11856
type=note_on channel=0 note=59 velocity=80 time=24 actual_time=11880
type: note_off, time: 24, actual_time: 11928
type=note_on channel=0 note=59 velocity=0 time=48 actual_time=11928
type=note_on channel=0 note=62 velocity=80 time=12 actual_time=11940
type: note_off, time: 12, actual_time: 12084
type=note_on channel=0 note=62 velocity=0 time=144 actual_time=12084
type=note_on channel=0 note=59 velocity=80 time=36 actual_time=12120
type: note_off, time: 36, actual_time: 12216
type=note_on channel=0 note=59 velocity=0 time=96 actual_time=12216
type=note_on channel=0 note=57 velocity=80 time=24 actual_time=12240
type: note_off, time: 24, actual_time: 12336
type=note_on channel=0 note=57 velocity=0 time=96 actual_time=12336
type=note_on channel=0 note=57 velocity=80 time=24 actual_time=12360
type: note_off, time: 24, actual_time: 12408
type=note_on channel=0 note=57 velocity=0 time=48 actual_time=12408
type=note_on channel=0 note=57 velocity=80 time=12 actual_time=12420
type: note_off, time: 12, actual_time: 12576
type=note_on channel=0 note=57 velocity=0 time=156 actual_time=12576
type=note_on channel=0 note=57 velocity=80 time=24 actual_time=12600
type: note_off, time: 24, actual_time: 12696
type=note_on channel=0 note=57 velocity=0 time=96 actual_time=12696
type=note_on channel=0 note=57 velocity=80 time=24 actual_time=12720
type: note_off, time: 24, actual_time: 12768
type=note_on channel=0 note=57 velocity=0 time=48 actual_time=12768
type=note_on channel=0 note=57 velocity=80 time=12 actual_time=12780
type: note_off, time: 12, actual_time: 12876
type=note_on channel=0 note=57 velocity=0 time=96 actual_time=12876
type=note_on channel=0 note=59 velocity=80 time=24 actual_time=12900
type: note_off, time: 24, actual_time: 13284
type=note_on channel=0 note=59 velocity=0 time=384 actual_time=13284
type=note_on channel=0 note=59 velocity=80 time=276 actual_time=13560
type: note_off, time: 276, actual_time: 13656
type=note_on channel=0 note=59 velocity=0 time=96 actual_time=13656
type=note_on channel=0 note=59 velocity=80 time=24 actual_time=13680
type: note_off, time: 24, actual_time: 13776
type=note_on channel=0 note=59 velocity=0 time=96 actual_time=13776
type=note_on channel=0 note=59 velocity=80 time=24 actual_time=13800
type: note_off, time: 24, actual_time: 13896
type=note_on channel=0 note=59 velocity=0 time=96 actual_time=13896
type=note_on channel=0 note=59 velocity=80 time=24 actual_time=13920
type: note_off, time: 24, actual_time: 13968
type=note_on channel=0 note=59 velocity=0 time=48 actual_time=13968
type=note_on channel=0 note=59 velocity=80 time=12 actual_time=13980
type: note_off, time: 12, actual_time: 14076
type=note_on channel=0 note=59 velocity=0 time=96 actual_time=14076
type=note_on channel=0 note=59 velocity=80 time=24 actual_time=14100
type: note_off, time: 24, actual_time: 14196
type=note_on channel=0 note=59 velocity=0 time=96 actual_time=14196
type=note_on channel=0 note=59 velocity=80 time=24 actual_time=14220
type: note_off, time: 24, actual_time: 14316
type=note_on channel=0 note=59 velocity=0 time=96 actual_time=14316
type=note_on channel=0 note=59 velocity=80 time=24 actual_time=14340
type: note_off, time: 24, actual_time: 14436
type=note_on channel=0 note=57 velocity=80 time=60 actual_time=14400
type: note_off, time: 60, actual_time: 14784
type=note_on channel=0 note=59 velocity=0 time=36 actual_time=14436
type=note_on channel=0 note=57 velocity=0 time=348 actual_time=14784
type=note_on channel=0 note=57 velocity=80 time=456 actual_time=15240
type: note_off, time: 456, actual_time: 15552
type=note_on channel=0 note=57 velocity=0 time=312 actual_time=15552
type=note_on channel=0 note=59 velocity=80 time=3768 actual_time=19320
type: note_off, time: 3768, actual_time: 19416
type=note_on channel=0 note=59 velocity=0 time=96 actual_time=19416
type=note_on channel=0 note=59 velocity=80 time=24 actual_time=19440
type: note_off, time: 24, actual_time: 19536
type=note_on channel=0 note=59 velocity=0 time=96 actual_time=19536
type=note_on channel=0 note=59 velocity=80 time=24 actual_time=19560
type: note_off, time: 24, actual_time: 19608
type=note_on channel=0 note=59 velocity=0 time=48 actual_time=19608
type=note_on channel=0 note=59 velocity=80 time=12 actual_time=19620
type: note_off, time: 12, actual_time: 19764
type=note_on channel=0 note=59 velocity=0 time=144 actual_time=19764
type=note_on channel=0 note=57 velocity=80 time=36 actual_time=19800
type: note_off, time: 36, actual_time: 19896
type=note_on channel=0 note=57 velocity=0 time=96 actual_time=19896
type=note_on channel=0 note=57 velocity=80 time=24 actual_time=19920
type: note_off, time: 24, actual_time: 20016
type=note_on channel=0 note=57 velocity=0 time=96 actual_time=20016
type=note_on channel=0 note=54 velocity=80 time=24 actual_time=20040
type: note_off, time: 24, actual_time: 20088
type=note_on channel=0 note=54 velocity=0 time=48 actual_time=20088
type=note_on channel=0 note=57 velocity=80 time=12 actual_time=20100
type: note_off, time: 12, actual_time: 20256
type=note_on channel=0 note=57 velocity=0 time=156 actual_time=20256
type=note_on channel=0 note=57 velocity=80 time=24 actual_time=20280
type: note_off, time: 24, actual_time: 20376
type=note_on channel=0 note=57 velocity=0 time=96 actual_time=20376
type=note_on channel=0 note=57 velocity=80 time=24 actual_time=20400
type: note_off, time: 24, actual_time: 20448
type=note_on channel=0 note=57 velocity=0 time=48 actual_time=20448
type=note_on channel=0 note=57 velocity=80 time=12 actual_time=20460
type: note_off, time: 12, actual_time: 20556
type=note_on channel=0 note=57 velocity=0 time=96 actual_time=20556
type=note_on channel=0 note=57 velocity=80 time=24 actual_time=20580
type: note_off, time: 24, actual_time: 20964
type=note_on channel=0 note=57 velocity=0 time=384 actual_time=20964
type=note_on channel=0 note=54 velocity=80 time=396 actual_time=21360
type: note_off, time: 396, actual_time: 21456
type=note_on channel=0 note=54 velocity=0 time=96 actual_time=21456
type=note_on channel=0 note=54 velocity=80 time=24 actual_time=21480
type: note_off, time: 24, actual_time: 21528
type=note_on channel=0 note=54 velocity=0 time=48 actual_time=21528
type=note_on channel=0 note=57 velocity=80 time=12 actual_time=21540
type: note_off, time: 12, actual_time: 21636
type=note_on channel=0 note=57 velocity=0 time=96 actual_time=21636
type=note_on channel=0 note=57 velocity=80 time=24 actual_time=21660
type: note_off, time: 24, actual_time: 21756
type=note_on channel=0 note=57 velocity=0 time=96 actual_time=21756
type=note_on channel=0 note=57 velocity=80 time=24 actual_time=21780
type: note_off, time: 24, actual_time: 21876
type=note_on channel=0 note=57 velocity=0 time=96 actual_time=21876
type=note_on channel=0 note=57 velocity=80 time=24 actual_time=21900
type: note_off, time: 24, actual_time: 21948
type=note_on channel=0 note=57 velocity=0 time=48 actual_time=21948
type=note_on channel=0 note=57 velocity=80 time=12 actual_time=21960
type: note_off, time: 12, actual_time: 22008
type=note_on channel=0 note=57 velocity=0 time=48 actual_time=22008
type=note_on channel=0 note=57 velocity=80 time=12 actual_time=22020
type: note_off, time: 12, actual_time: 22128
type=note_on channel=0 note=57 velocity=0 time=108 actual_time=22128
type=note_on channel=0 note=59 velocity=80 time=12 actual_time=22140
type: note_off, time: 12, actual_time: 22236
type=note_on channel=0 note=59 velocity=0 time=96 actual_time=22236
type=note_on channel=0 note=57 velocity=80 time=24 actual_time=22260
type: note_off, time: 24, actual_time: 22308
type=note_on channel=0 note=57 velocity=0 time=48 actual_time=22308
type=note_on channel=0 note=57 velocity=80 time=12 actual_time=22320
type: note_off, time: 12, actual_time: 22416
type=note_on channel=0 note=57 velocity=0 time=96 actual_time=22416
type=note_on channel=0 note=57 velocity=80 time=24 actual_time=22440
type: note_off, time: 24, actual_time: 22488
type=note_on channel=0 note=57 velocity=0 time=48 actual_time=22488
type=note_on channel=0 note=52 velocity=80 time=12 actual_time=22500
type: note_off, time: 12, actual_time: 22596
type=note_on channel=0 note=52 velocity=0 time=96 actual_time=22596
type=note_on channel=0 note=52 velocity=80 time=24 actual_time=22620
type: note_off, time: 24, actual_time: 22716
type=note_on channel=0 note=52 velocity=0 time=96 actual_time=22716
type=note_on channel=0 note=52 velocity=80 time=24 actual_time=22740
type: note_off, time: 24, actual_time: 22836
type=note_on channel=0 note=52 velocity=0 time=96 actual_time=22836
type=note_on channel=0 note=50 velocity=80 time=24 actual_time=22860
type: note_off, time: 24, actual_time: 22956
type=note_on channel=0 note=50 velocity=0 time=96 actual_time=22956
type=note_on channel=0 note=57 velocity=80 time=204 actual_time=23160
type: note_off, time: 204, actual_time: 23256
type=note_on channel=0 note=57 velocity=0 time=96 actual_time=23256
type=note_on channel=0 note=57 velocity=80 time=24 actual_time=23280
type: note_off, time: 24, actual_time: 23328
type=note_on channel=0 note=57 velocity=0 time=48 actual_time=23328
type=note_on channel=0 note=57 velocity=80 time=12 actual_time=23340
type: note_off, time: 12, actual_time: 23436
type=note_on channel=0 note=57 velocity=0 time=96 actual_time=23436
type=note_on channel=0 note=59 velocity=80 time=24 actual_time=23460
type: note_off, time: 24, actual_time: 23556
type=note_on channel=0 note=59 velocity=0 time=96 actual_time=23556
type=note_on channel=0 note=57 velocity=80 time=24 actual_time=23580
type: note_off, time: 24, actual_time: 23772
type=note_on channel=0 note=57 velocity=0 time=192 actual_time=23772
type=note_on channel=0 note=57 velocity=80 time=48 actual_time=23820
type: note_off, time: 48, actual_time: 23964
type=note_on channel=0 note=57 velocity=0 time=144 actual_time=23964
type=note_on channel=0 note=57 velocity=80 time=36 actual_time=24000
type: note_off, time: 36, actual_time: 24048
type=note_on channel=0 note=57 velocity=0 time=48 actual_time=24048
type=note_on channel=0 note=57 velocity=80 time=12 actual_time=24060
type: note_off, time: 12, actual_time: 24156
type=note_on channel=0 note=57 velocity=0 time=96 actual_time=24156
type=note_on channel=0 note=57 velocity=80 time=24 actual_time=24180
type: note_off, time: 24, actual_time: 24276
type=note_on channel=0 note=57 velocity=0 time=96 actual_time=24276
type=note_on channel=0 note=57 velocity=80 time=24 actual_time=24300
type: note_off, time: 24, actual_time: 24396
type=note_on channel=0 note=57 velocity=0 time=96 actual_time=24396
type=note_on channel=0 note=59 velocity=80 time=24 actual_time=24420
type: note_off, time: 24, actual_time: 24708
type=note_on channel=0 note=59 velocity=0 time=288 actual_time=24708
type=note_on channel=0 note=59 velocity=80 time=192 actual_time=24900
type: note_off, time: 192, actual_time: 24948
type=note_on channel=0 note=59 velocity=0 time=48 actual_time=24948
type=note_on channel=0 note=59 velocity=80 time=12 actual_time=24960
type: note_off, time: 12, actual_time: 25056
type=note_on channel=0 note=59 velocity=0 time=96 actual_time=25056
type=note_on channel=0 note=59 velocity=80 time=24 actual_time=25080
type: note_off, time: 24, actual_time: 25176
type=note_on channel=0 note=59 velocity=0 time=96 actual_time=25176
type=note_on channel=0 note=59 velocity=80 time=24 actual_time=25200
type: note_off, time: 24, actual_time: 25296
type=note_on channel=0 note=59 velocity=0 time=96 actual_time=25296
type=note_on channel=0 note=62 velocity=80 time=24 actual_time=25320
type: note_off, time: 24, actual_time: 25512
type=note_on channel=0 note=62 velocity=0 time=192 actual_time=25512
type=note_on channel=0 note=62 velocity=80 time=48 actual_time=25560
type: note_off, time: 48, actual_time: 25752
type=note_on channel=0 note=62 velocity=0 time=192 actual_time=25752
type=note_on channel=0 note=62 velocity=80 time=48 actual_time=25800
type: note_off, time: 48, actual_time: 26016
type=note_on channel=0 note=62 velocity=0 time=216 actual_time=26016
type=note_on channel=0 note=61 velocity=80 time=24 actual_time=26040
type: note_off, time: 24, actual_time: 26136
type=note_on channel=0 note=61 velocity=0 time=96 actual_time=26136
type=note_on channel=0 note=61 velocity=80 time=24 actual_time=26160
type: note_off, time: 24, actual_time: 26256
type=note_on channel=0 note=61 velocity=0 time=96 actual_time=26256
type=note_on channel=0 note=62 velocity=80 time=24 actual_time=26280
type: note_off, time: 24, actual_time: 26376
type=note_on channel=0 note=62 velocity=0 time=96 actual_time=26376
type=note_on channel=0 note=59 velocity=80 time=24 actual_time=26400
type: note_off, time: 24, actual_time: 26592
type=note_on channel=0 note=59 velocity=0 time=192 actual_time=26592
type=note_on channel=0 note=59 velocity=80 time=408 actual_time=27000
type: note_off, time: 408, actual_time: 27096
type=note_on channel=0 note=59 velocity=0 time=96 actual_time=27096
type=note_on channel=0 note=59 velocity=80 time=24 actual_time=27120
type: note_off, time: 24, actual_time: 27216
type=note_on channel=0 note=59 velocity=0 time=96 actual_time=27216
type=note_on channel=0 note=59 velocity=80 time=24 actual_time=27240
type: note_off, time: 24, actual_time: 27336
type=note_on channel=0 note=59 velocity=0 time=96 actual_time=27336
type=note_on channel=0 note=62 velocity=80 time=24 actual_time=27360
type: note_off, time: 24, actual_time: 27456
type=note_on channel=0 note=62 velocity=0 time=96 actual_time=27456
type=note_on channel=0 note=59 velocity=80 time=24 actual_time=27480
type: note_off, time: 24, actual_time: 27576
type=note_on channel=0 note=59 velocity=0 time=96 actual_time=27576
type=note_on channel=0 note=59 velocity=80 time=24 actual_time=27600
type: note_off, time: 24, actual_time: 27696
type=note_on channel=0 note=59 velocity=0 time=96 actual_time=27696
type=note_on channel=0 note=59 velocity=80 time=24 actual_time=27720
type: note_off, time: 24, actual_time: 27816
type=note_on channel=0 note=59 velocity=0 time=96 actual_time=27816
type=note_on channel=0 note=62 velocity=80 time=24 actual_time=27840
type: note_off, time: 24, actual_time: 27936
type=note_on channel=0 note=62 velocity=0 time=96 actual_time=27936
type=note_on channel=0 note=62 velocity=80 time=24 actual_time=27960
type: note_off, time: 24, actual_time: 28056
type=note_on channel=0 note=62 velocity=0 time=96 actual_time=28056
type=note_on channel=0 note=62 velocity=80 time=24 actual_time=28080
type: note_off, time: 24, actual_time: 28176
type=note_on channel=0 note=62 velocity=0 time=96 actual_time=28176
type=note_on channel=0 note=62 velocity=80 time=24 actual_time=28200
type: note_off, time: 24, actual_time: 28296
type=note_on channel=0 note=62 velocity=0 time=96 actual_time=28296
type=note_on channel=0 note=61 velocity=80 time=24 actual_time=28320
type: note_off, time: 24, actual_time: 28416
type=note_on channel=0 note=61 velocity=0 time=96 actual_time=28416
type=note_on channel=0 note=61 velocity=80 time=24 actual_time=28440
type: note_off, time: 24, actual_time: 28488
type=note_on channel=0 note=61 velocity=0 time=48 actual_time=28488
type=note_on channel=0 note=62 velocity=80 time=12 actual_time=28500
type: note_off, time: 12, actual_time: 28692
type=note_on channel=0 note=62 velocity=0 time=192 actual_time=28692
type=note_on channel=0 note=59 velocity=80 time=228 actual_time=28920
type: note_off, time: 228, actual_time: 29016
type=note_on channel=0 note=59 velocity=0 time=96 actual_time=29016
type=note_on channel=0 note=59 velocity=80 time=24 actual_time=29040
type: note_off, time: 24, actual_time: 29136
type=note_on channel=0 note=59 velocity=0 time=96 actual_time=29136
type=note_on channel=0 note=59 velocity=80 time=24 actual_time=29160
type: note_off, time: 24, actual_time: 29208
type=note_on channel=0 note=59 velocity=0 time=48 actual_time=29208
type=note_on channel=0 note=62 velocity=80 time=12 actual_time=29220
type: note_off, time: 12, actual_time: 29388
type=note_on channel=0 note=62 velocity=0 time=168 actual_time=29388
type=note_on channel=0 note=59 velocity=80 time=12 actual_time=29400
type: note_off, time: 12, actual_time: 29496
type=note_on channel=0 note=59 velocity=0 time=96 actual_time=29496
type=note_on channel=0 note=59 velocity=80 time=24 actual_time=29520
type: note_off, time: 24, actual_time: 29616
type=note_on channel=0 note=59 velocity=0 time=96 actual_time=29616
type=note_on channel=0 note=59 velocity=80 time=24 actual_time=29640
type: note_off, time: 24, actual_time: 29736
type=note_on channel=0 note=59 velocity=0 time=96 actual_time=29736
type=note_on channel=0 note=62 velocity=80 time=24 actual_time=29760
type: note_off, time: 24, actual_time: 29856
type=note_on channel=0 note=62 velocity=0 time=96 actual_time=29856
type=note_on channel=0 note=62 velocity=80 time=24 actual_time=29880
type: note_off, time: 24, actual_time: 29976
type=note_on channel=0 note=62 velocity=0 time=96 actual_time=29976
type=note_on channel=0 note=62 velocity=80 time=24 actual_time=30000
type: note_off, time: 24, actual_time: 30096
type=note_on channel=0 note=62 velocity=0 time=96 actual_time=30096
type=note_on channel=0 note=62 velocity=80 time=24 actual_time=30120
type: note_off, time: 24, actual_time: 30216
type=note_on channel=0 note=62 velocity=0 time=96 actual_time=30216
type=note_on channel=0 note=61 velocity=80 time=24 actual_time=30240
type: note_off, time: 24, actual_time: 30336
type=note_on channel=0 note=61 velocity=0 time=96 actual_time=30336
type=note_on channel=0 note=61 velocity=80 time=24 actual_time=30360
type: note_off, time: 24, actual_time: 30456
type=note_on channel=0 note=61 velocity=0 time=96 actual_time=30456
type=note_on channel=0 note=61 velocity=80 time=24 actual_time=30480
type: note_off, time: 24, actual_time: 30576
type=note_on channel=0 note=61 velocity=0 time=96 actual_time=30576
type=note_on channel=0 note=62 velocity=80 time=24 actual_time=30600
type: note_off, time: 24, actual_time: 30696
type=note_on channel=0 note=62 velocity=0 time=96 actual_time=30696
type=note_on channel=0 note=59 velocity=80 time=144 actual_time=30840
type: note_off, time: 144, actual_time: 30936
type=note_on channel=0 note=59 velocity=0 time=96 actual_time=30936
type=note_on channel=0 note=59 velocity=80 time=24 actual_time=30960
type: note_off, time: 24, actual_time: 31056
type=note_on channel=0 note=59 velocity=0 time=96 actual_time=31056
type=note_on channel=0 note=59 velocity=80 time=24 actual_time=31080
type: note_off, time: 24, actual_time: 31176
type=note_on channel=0 note=59 velocity=0 time=96 actual_time=31176
type=note_on channel=0 note=62 velocity=80 time=24 actual_time=31200
type: note_off, time: 24, actual_time: 31296
type=note_on channel=0 note=62 velocity=0 time=96 actual_time=31296
type=note_on channel=0 note=59 velocity=80 time=24 actual_time=31320
type: note_off, time: 24, actual_time: 31416
type=note_on channel=0 note=59 velocity=0 time=96 actual_time=31416
type=note_on channel=0 note=57 velocity=80 time=24 actual_time=31440
type: note_off, time: 24, actual_time: 31536
type=note_on channel=0 note=57 velocity=0 time=96 actual_time=31536
type=note_on channel=0 note=57 velocity=80 time=24 actual_time=31560
type: note_off, time: 24, actual_time: 31656
type=note_on channel=0 note=57 velocity=0 time=96 actual_time=31656
type=note_on channel=0 note=62 velocity=80 time=24 actual_time=31680
type: note_off, time: 24, actual_time: 31776
type=note_on channel=0 note=62 velocity=0 time=96 actual_time=31776
type=note_on channel=0 note=62 velocity=80 time=24 actual_time=31800
type: note_off, time: 24, actual_time: 31896
type=note_on channel=0 note=62 velocity=0 time=96 actual_time=31896
type=note_on channel=0 note=62 velocity=80 time=24 actual_time=31920
type: note_off, time: 24, actual_time: 32016
type=note_on channel=0 note=62 velocity=0 time=96 actual_time=32016
type=note_on channel=0 note=61 velocity=80 time=24 actual_time=32040
type: note_off, time: 24, actual_time: 32232
type=note_on channel=0 note=61 velocity=0 time=192 actual_time=32232
type=note_on channel=0 note=61 velocity=80 time=48 actual_time=32280
type: note_off, time: 48, actual_time: 32472
type=note_on channel=0 note=61 velocity=0 time=192 actual_time=32472
type=note_on channel=0 note=61 velocity=80 time=48 actual_time=32520
type: note_off, time: 48, actual_time: 32616
type=note_on channel=0 note=61 velocity=0 time=96 actual_time=32616
type=note_on channel=0 note=62 velocity=80 time=24 actual_time=32640
type: note_off, time: 24, actual_time: 32736
type=note_on channel=0 note=62 velocity=0 time=96 actual_time=32736
type=note_on channel=0 note=62 velocity=80 time=144 actual_time=32880
type: note_off, time: 144, actual_time: 32976
type=note_on channel=0 note=62 velocity=0 time=96 actual_time=32976
type=note_on channel=0 note=59 velocity=80 time=24 actual_time=33000
type: note_off, time: 24, actual_time: 33048
type=note_on channel=0 note=59 velocity=0 time=48 actual_time=33048
type=note_on channel=0 note=57 velocity=80 time=12 actual_time=33060
type: note_off, time: 12, actual_time: 33252
type=note_on channel=0 note=57 velocity=0 time=192 actual_time=33252
type=note_on channel=0 note=59 velocity=80 time=5268 actual_time=38520
type: note_off, time: 5268, actual_time: 38616
type=note_on channel=0 note=59 velocity=0 time=96 actual_time=38616
type=note_on channel=0 note=59 velocity=80 time=24 actual_time=38640
type: note_off, time: 24, actual_time: 38736
type=note_on channel=0 note=59 velocity=0 time=96 actual_time=38736
type=note_on channel=0 note=59 velocity=80 time=24 actual_time=38760
type: note_off, time: 24, actual_time: 38856
type=note_on channel=0 note=59 velocity=0 time=96 actual_time=38856
type=note_on channel=0 note=59 velocity=80 time=24 actual_time=38880
type: note_off, time: 24, actual_time: 38976
type=note_on channel=0 note=59 velocity=0 time=96 actual_time=38976
type=note_on channel=0 note=57 velocity=80 time=24 actual_time=39000
type: note_off, time: 24, actual_time: 39096
type=note_on channel=0 note=57 velocity=0 time=96 actual_time=39096
type=note_on channel=0 note=57 velocity=80 time=24 actual_time=39120
type: note_off, time: 24, actual_time: 39216
type=note_on channel=0 note=57 velocity=0 time=96 actual_time=39216
type=note_on channel=0 note=57 velocity=80 time=24 actual_time=39240
type: note_off, time: 24, actual_time: 39336
type=note_on channel=0 note=57 velocity=0 time=96 actual_time=39336
type=note_on channel=0 note=57 velocity=80 time=24 actual_time=39360
type: note_off, time: 24, actual_time: 39456
type=note_on channel=0 note=57 velocity=0 time=96 actual_time=39456
type=note_on channel=0 note=57 velocity=80 time=24 actual_time=39480
type: note_off, time: 24, actual_time: 39576
type=note_on channel=0 note=57 velocity=0 time=96 actual_time=39576
type=note_on channel=0 note=57 velocity=80 time=24 actual_time=39600
type: note_off, time: 24, actual_time: 39696
type=note_on channel=0 note=57 velocity=0 time=96 actual_time=39696
type=note_on channel=0 note=57 velocity=80 time=24 actual_time=39720
type: note_off, time: 24, actual_time: 39816
type=note_on channel=0 note=57 velocity=0 time=96 actual_time=39816
type=note_on channel=0 note=57 velocity=80 time=24 actual_time=39840
type: note_off, time: 24, actual_time: 39888
type=note_on channel=0 note=57 velocity=0 time=48 actual_time=39888
type=note_on channel=0 note=57 velocity=80 time=12 actual_time=39900
type: note_off, time: 12, actual_time: 39996
type=note_on channel=0 note=57 velocity=0 time=96 actual_time=39996
type=note_on channel=0 note=57 velocity=80 time=24 actual_time=40020
type: note_off, time: 24, actual_time: 40116
type=note_on channel=0 note=57 velocity=0 time=96 actual_time=40116
type=note_on channel=0 note=57 velocity=80 time=24 actual_time=40140
type: note_off, time: 24, actual_time: 40236
type=note_on channel=0 note=57 velocity=0 time=96 actual_time=40236
type=note_on channel=0 note=54 velocity=80 time=24 actual_time=40260
type: note_off, time: 24, actual_time: 40416
type=note_on channel=0 note=54 velocity=0 time=156 actual_time=40416
type=note_on channel=0 note=54 velocity=80 time=24 actual_time=40440
type: note_off, time: 24, actual_time: 40536
type=note_on channel=0 note=54 velocity=0 time=96 actual_time=40536
type=note_on channel=0 note=54 velocity=80 time=24 actual_time=40560
type: note_off, time: 24, actual_time: 40656
type=note_on channel=0 note=54 velocity=0 time=96 actual_time=40656
type=note_on channel=0 note=54 velocity=80 time=24 actual_time=40680
type: note_off, time: 24, actual_time: 40776
type=note_on channel=0 note=54 velocity=0 time=96 actual_time=40776
type=note_on channel=0 note=57 velocity=80 time=24 actual_time=40800
type: note_off, time: 24, actual_time: 40848
type=note_on channel=0 note=57 velocity=0 time=48 actual_time=40848
type=note_on channel=0 note=57 velocity=80 time=12 actual_time=40860
type: note_off, time: 12, actual_time: 41004
type=note_on channel=0 note=57 velocity=0 time=144 actual_time=41004
type=note_on channel=0 note=57 velocity=80 time=36 actual_time=41040
type: note_off, time: 36, actual_time: 41136
type=note_on channel=0 note=57 velocity=0 time=96 actual_time=41136
type=note_on channel=0 note=57 velocity=80 time=24 actual_time=41160
type: note_off, time: 24, actual_time: 41208
type=note_on channel=0 note=57 velocity=0 time=48 actual_time=41208
type=note_on channel=0 note=59 velocity=80 time=12 actual_time=41220
type: note_off, time: 12, actual_time: 41376
type=note_on channel=0 note=59 velocity=0 time=156 actual_time=41376
type=note_on channel=0 note=57 velocity=80 time=24 actual_time=41400
type: note_off, time: 24, actual_time: 41496
type=note_on channel=0 note=57 velocity=0 time=96 actual_time=41496
type=note_on channel=0 note=57 velocity=80 time=24 actual_time=41520
type: note_off, time: 24, actual_time: 41568
type=note_on channel=0 note=57 velocity=0 time=48 actual_time=41568
type=note_on channel=0 note=57 velocity=80 time=12 actual_time=41580
type: note_off, time: 12, actual_time: 41676
type=note_on channel=0 note=57 velocity=0 time=96 actual_time=41676
type=note_on channel=0 note=57 velocity=80 time=24 actual_time=41700
type: note_off, time: 24, actual_time: 41796
type=note_on channel=0 note=57 velocity=0 time=96 actual_time=41796
type=note_on channel=0 note=57 velocity=80 time=24 actual_time=41820
type: note_off, time: 24, actual_time: 41916
type=note_on channel=0 note=57 velocity=0 time=96 actual_time=41916
type=note_on channel=0 note=59 velocity=80 time=24 actual_time=41940
type: note_off, time: 24, actual_time: 42132
type=note_on channel=0 note=59 velocity=0 time=192 actual_time=42132
type=note_on channel=0 note=59 velocity=80 time=228 actual_time=42360
type: note_off, time: 228, actual_time: 42456
type=note_on channel=0 note=59 velocity=0 time=96 actual_time=42456
type=note_on channel=0 note=59 velocity=80 time=24 actual_time=42480
type: note_off, time: 24, actual_time: 42576
type=note_on channel=0 note=59 velocity=0 time=96 actual_time=42576
type=note_on channel=0 note=59 velocity=80 time=24 actual_time=42600
type: note_off, time: 24, actual_time: 42648
type=note_on channel=0 note=59 velocity=0 time=48 actual_time=42648
type=note_on channel=0 note=59 velocity=80 time=12 actual_time=42660
type: note_off, time: 12, actual_time: 42828
type=note_on channel=0 note=59 velocity=0 time=168 actual_time=42828
type=note_on channel=0 note=57 velocity=80 time=12 actual_time=42840
type: note_off, time: 12, actual_time: 42936
type=note_on channel=0 note=57 velocity=0 time=96 actual_time=42936
type=note_on channel=0 note=57 velocity=80 time=24 actual_time=42960
type: note_off, time: 24, actual_time: 43056
type=note_on channel=0 note=57 velocity=0 time=96 actual_time=43056
type=note_on channel=0 note=54 velocity=80 time=24 actual_time=43080
type: note_off, time: 24, actual_time: 43128
type=note_on channel=0 note=54 velocity=0 time=48 actual_time=43128
type=note_on channel=0 note=57 velocity=80 time=12 actual_time=43140
type: note_off, time: 12, actual_time: 43296
type=note_on channel=0 note=57 velocity=0 time=156 actual_time=43296
type=note_on channel=0 note=57 velocity=80 time=24 actual_time=43320
type: note_off, time: 24, actual_time: 43416
type=note_on channel=0 note=57 velocity=0 time=96 actual_time=43416
type=note_on channel=0 note=57 velocity=80 time=24 actual_time=43440
type: note_off, time: 24, actual_time: 43536
type=note_on channel=0 note=57 velocity=0 time=96 actual_time=43536
type=note_on channel=0 note=54 velocity=80 time=24 actual_time=43560
type: note_off, time: 24, actual_time: 43608
type=note_on channel=0 note=54 velocity=0 time=48 actual_time=43608
type=note_on channel=0 note=57 velocity=80 time=12 actual_time=43620
type: note_off, time: 12, actual_time: 43764
type=note_on channel=0 note=57 velocity=0 time=144 actual_time=43764
type=note_on channel=0 note=57 velocity=80 time=36 actual_time=43800
type: note_off, time: 36, actual_time: 43848
type=note_on channel=0 note=57 velocity=0 time=48 actual_time=43848
type=note_on channel=0 note=57 velocity=80 time=12 actual_time=43860
type: note_off, time: 12, actual_time: 43956
type=note_on channel=0 note=57 velocity=0 time=96 actual_time=43956
type=note_on channel=0 note=57 velocity=80 time=24 actual_time=43980
type: note_off, time: 24, actual_time: 44076
type=note_on channel=0 note=57 velocity=0 time=96 actual_time=44076
type=note_on channel=0 note=54 velocity=80 time=24 actual_time=44100
type: note_off, time: 24, actual_time: 44256
type=note_on channel=0 note=54 velocity=0 time=156 actual_time=44256
type=note_on channel=0 note=54 velocity=80 time=24 actual_time=44280
type: note_off, time: 24, actual_time: 44376
type=note_on channel=0 note=54 velocity=0 time=96 actual_time=44376
type=note_on channel=0 note=54 velocity=80 time=24 actual_time=44400
type: note_off, time: 24, actual_time: 44496
type=note_on channel=0 note=54 velocity=0 time=96 actual_time=44496
type=note_on channel=0 note=54 velocity=80 time=24 actual_time=44520
type: note_off, time: 24, actual_time: 44568
type=note_on channel=0 note=54 velocity=0 time=48 actual_time=44568
type=note_on channel=0 note=54 velocity=80 time=12 actual_time=44580
type: note_off, time: 12, actual_time: 44724
type=note_on channel=0 note=54 velocity=0 time=144 actual_time=44724
type=note_on channel=0 note=54 velocity=80 time=96 actual_time=44820
type: note_off, time: 96, actual_time: 44868
type=note_on channel=0 note=54 velocity=0 time=48 actual_time=44868
type=note_on channel=0 note=54 velocity=80 time=12 actual_time=44880
type: note_off, time: 12, actual_time: 44928
type=note_on channel=0 note=54 velocity=0 time=48 actual_time=44928
type=note_on channel=0 note=54 velocity=80 time=12 actual_time=44940
type: note_off, time: 12, actual_time: 45084
type=note_on channel=0 note=54 velocity=0 time=144 actual_time=45084
type=note_on channel=0 note=62 velocity=80 time=36 actual_time=45120
type: note_off, time: 36, actual_time: 45168
type=note_on channel=0 note=62 velocity=0 time=48 actual_time=45168
type=note_on channel=0 note=62 velocity=80 time=12 actual_time=45180
type: note_off, time: 12, actual_time: 45324
type=note_on channel=0 note=62 velocity=0 time=144 actual_time=45324
type=note_on channel=0 note=62 velocity=80 time=36 actual_time=45360
type: note_off, time: 36, actual_time: 45408
type=note_on channel=0 note=62 velocity=0 time=48 actual_time=45408
type=note_on channel=0 note=62 velocity=80 time=12 actual_time=45420
type: note_off, time: 12, actual_time: 45516
type=note_on channel=0 note=62 velocity=0 time=96 actual_time=45516
type=note_on channel=0 note=61 velocity=80 time=24 actual_time=45540
type: note_off, time: 24, actual_time: 45732
type=note_on channel=0 note=61 velocity=0 time=192 actual_time=45732
type=note_on channel=0 note=59 velocity=80 time=468 actual_time=46200
type: note_off, time: 468, actual_time: 46296
type=note_on channel=0 note=59 velocity=0 time=96 actual_time=46296
type=note_on channel=0 note=59 velocity=80 time=24 actual_time=46320
type: note_off, time: 24, actual_time: 46416
type=note_on channel=0 note=59 velocity=0 time=96 actual_time=46416
type=note_on channel=0 note=59 velocity=80 time=24 actual_time=46440
type: note_off, time: 24, actual_time: 46536
type=note_on channel=0 note=59 velocity=0 time=96 actual_time=46536
type=note_on channel=0 note=62 velocity=80 time=24 actual_time=46560
type: note_off, time: 24, actual_time: 46656
type=note_on channel=0 note=62 velocity=0 time=96 actual_time=46656
type=note_on channel=0 note=59 velocity=80 time=24 actual_time=46680
type: note_off, time: 24, actual_time: 46776
type=note_on channel=0 note=59 velocity=0 time=96 actual_time=46776
type=note_on channel=0 note=59 velocity=80 time=24 actual_time=46800
type: note_off, time: 24, actual_time: 46896
type=note_on channel=0 note=59 velocity=0 time=96 actual_time=46896
type=note_on channel=0 note=59 velocity=80 time=24 actual_time=46920
type: note_off, time: 24, actual_time: 47016
type=note_on channel=0 note=59 velocity=0 time=96 actual_time=47016
type=note_on channel=0 note=62 velocity=80 time=24 actual_time=47040
type: note_off, time: 24, actual_time: 47136
type=note_on channel=0 note=62 velocity=0 time=96 actual_time=47136
type=note_on channel=0 note=62 velocity=80 time=24 actual_time=47160
type: note_off, time: 24, actual_time: 47256
type=note_on channel=0 note=62 velocity=0 time=96 actual_time=47256
type=note_on channel=0 note=62 velocity=80 time=24 actual_time=47280
type: note_off, time: 24, actual_time: 47376
type=note_on channel=0 note=62 velocity=0 time=96 actual_time=47376
type=note_on channel=0 note=62 velocity=80 time=24 actual_time=47400
type: note_off, time: 24, actual_time: 47496
type=note_on channel=0 note=62 velocity=0 time=96 actual_time=47496
type=note_on channel=0 note=61 velocity=80 time=24 actual_time=47520
type: note_off, time: 24, actual_time: 47616
type=note_on channel=0 note=61 velocity=0 time=96 actual_time=47616
type=note_on channel=0 note=61 velocity=80 time=24 actual_time=47640
type: note_off, time: 24, actual_time: 47688
type=note_on channel=0 note=61 velocity=0 time=48 actual_time=47688
type=note_on channel=0 note=62 velocity=80 time=12 actual_time=47700
type: note_off, time: 12, actual_time: 47892
type=note_on channel=0 note=62 velocity=0 time=192 actual_time=47892
type=note_on channel=0 note=59 velocity=80 time=228 actual_time=48120
type: note_off, time: 228, actual_time: 48216
type=note_on channel=0 note=59 velocity=0 time=96 actual_time=48216
type=note_on channel=0 note=59 velocity=80 time=24 actual_time=48240
type: note_off, time: 24, actual_time: 48336
type=note_on channel=0 note=59 velocity=0 time=96 actual_time=48336
type=note_on channel=0 note=59 velocity=80 time=24 actual_time=48360
type: note_off, time: 24, actual_time: 48408
type=note_on channel=0 note=59 velocity=0 time=48 actual_time=48408
type=note_on channel=0 note=62 velocity=80 time=12 actual_time=48420
type: note_off, time: 12, actual_time: 48588
type=note_on channel=0 note=62 velocity=0 time=168 actual_time=48588
type=note_on channel=0 note=59 velocity=80 time=12 actual_time=48600
type: note_off, time: 12, actual_time: 48696
type=note_on channel=0 note=59 velocity=0 time=96 actual_time=48696
type=note_on channel=0 note=59 velocity=80 time=24 actual_time=48720
type: note_off, time: 24, actual_time: 48816
type=note_on channel=0 note=59 velocity=0 time=96 actual_time=48816
type=note_on channel=0 note=59 velocity=80 time=24 actual_time=48840
type: note_off, time: 24, actual_time: 48936
type=note_on channel=0 note=59 velocity=0 time=96 actual_time=48936
type=note_on channel=0 note=62 velocity=80 time=24 actual_time=48960
type: note_off, time: 24, actual_time: 49056
type=note_on channel=0 note=62 velocity=0 time=96 actual_time=49056
type=note_on channel=0 note=62 velocity=80 time=24 actual_time=49080
type: note_off, time: 24, actual_time: 49176
type=note_on channel=0 note=62 velocity=0 time=96 actual_time=49176
type=note_on channel=0 note=62 velocity=80 time=24 actual_time=49200
type: note_off, time: 24, actual_time: 49296
type=note_on channel=0 note=62 velocity=0 time=96 actual_time=49296
type=note_on channel=0 note=62 velocity=80 time=24 actual_time=49320
type: note_off, time: 24, actual_time: 49416
type=note_on channel=0 note=62 velocity=0 time=96 actual_time=49416
type=note_on channel=0 note=61 velocity=80 time=24 actual_time=49440
type: note_off, time: 24, actual_time: 49536
type=note_on channel=0 note=61 velocity=0 time=96 actual_time=49536
type=note_on channel=0 note=61 velocity=80 time=24 actual_time=49560
type: note_off, time: 24, actual_time: 49656
type=note_on channel=0 note=61 velocity=0 time=96 actual_time=49656
type=note_on channel=0 note=61 velocity=80 time=24 actual_time=49680
type: note_off, time: 24, actual_time: 49776
type=note_on channel=0 note=61 velocity=0 time=96 actual_time=49776
type=note_on channel=0 note=62 velocity=80 time=24 actual_time=49800
type: note_off, time: 24, actual_time: 49896
type=note_on channel=0 note=62 velocity=0 time=96 actual_time=49896
type=note_on channel=0 note=59 velocity=80 time=144 actual_time=50040
type: note_off, time: 144, actual_time: 50136
type=note_on channel=0 note=59 velocity=0 time=96 actual_time=50136
type=note_on channel=0 note=59 velocity=80 time=24 actual_time=50160
type: note_off, time: 24, actual_time: 50256
type=note_on channel=0 note=59 velocity=0 time=96 actual_time=50256
type=note_on channel=0 note=59 velocity=80 time=24 actual_time=50280
type: note_off, time: 24, actual_time: 50376
type=note_on channel=0 note=59 velocity=0 time=96 actual_time=50376
type=note_on channel=0 note=62 velocity=80 time=24 actual_time=50400
type: note_off, time: 24, actual_time: 50496
type=note_on channel=0 note=62 velocity=0 time=96 actual_time=50496
type=note_on channel=0 note=59 velocity=80 time=24 actual_time=50520
type: note_off, time: 24, actual_time: 50616
type=note_on channel=0 note=59 velocity=0 time=96 actual_time=50616
type=note_on channel=0 note=57 velocity=80 time=24 actual_time=50640
type: note_off, time: 24, actual_time: 50736
type=note_on channel=0 note=57 velocity=0 time=96 actual_time=50736
type=note_on channel=0 note=57 velocity=80 time=24 actual_time=50760
type: note_off, time: 24, actual_time: 50856
type=note_on channel=0 note=57 velocity=0 time=96 actual_time=50856
type=note_on channel=0 note=62 velocity=80 time=24 actual_time=50880
type: note_off, time: 24, actual_time: 50976
type=note_on channel=0 note=62 velocity=0 time=96 actual_time=50976
type=note_on channel=0 note=62 velocity=80 time=24 actual_time=51000
type: note_off, time: 24, actual_time: 51096
type=note_on channel=0 note=62 velocity=0 time=96 actual_time=51096
type=note_on channel=0 note=62 velocity=80 time=24 actual_time=51120
type: note_off, time: 24, actual_time: 51216
type=note_on channel=0 note=62 velocity=0 time=96 actual_time=51216
type=note_on channel=0 note=61 velocity=80 time=24 actual_time=51240
type: note_off, time: 24, actual_time: 51432
type=note_on channel=0 note=61 velocity=0 time=192 actual_time=51432
type=note_on channel=0 note=61 velocity=80 time=48 actual_time=51480
type: note_off, time: 48, actual_time: 51672
type=note_on channel=0 note=61 velocity=0 time=192 actual_time=51672
type=note_on channel=0 note=61 velocity=80 time=48 actual_time=51720
type: note_off, time: 48, actual_time: 51816
type=note_on channel=0 note=61 velocity=0 time=96 actual_time=51816
type=note_on channel=0 note=62 velocity=80 time=24 actual_time=51840
type: note_off, time: 24, actual_time: 51936
type=note_on channel=0 note=62 velocity=0 time=96 actual_time=51936
type=note_on channel=0 note=62 velocity=80 time=144 actual_time=52080
type: note_off, time: 144, actual_time: 52176
type=note_on channel=0 note=62 velocity=0 time=96 actual_time=52176
type=note_on channel=0 note=59 velocity=80 time=24 actual_time=52200
type: note_off, time: 24, actual_time: 52248
type=note_on channel=0 note=59 velocity=0 time=48 actual_time=52248
type=note_on channel=0 note=57 velocity=80 time=12 actual_time=52260
type: note_off, time: 12, actual_time: 52452
type=note_on channel=0 note=57 velocity=0 time=192 actual_time=52452
type=note_on channel=0 note=57 velocity=80 time=4428 actual_time=56880
type: note_off, time: 4428, actual_time: 56976
type=note_on channel=0 note=57 velocity=0 time=96 actual_time=56976
type=note_on channel=0 note=57 velocity=80 time=24 actual_time=57000
type: note_off, time: 24, actual_time: 57048
type=note_on channel=0 note=57 velocity=0 time=48 actual_time=57048
type=note_on channel=0 note=57 velocity=80 time=12 actual_time=57060
type: note_off, time: 12, actual_time: 57156
type=note_on channel=0 note=57 velocity=0 time=96 actual_time=57156
type=note_on channel=0 note=57 velocity=80 time=24 actual_time=57180
type: note_off, time: 24, actual_time: 57276
type=note_on channel=0 note=57 velocity=0 time=96 actual_time=57276
type=note_on channel=0 note=57 velocity=80 time=24 actual_time=57300
type: note_off, time: 24, actual_time: 57396
type=note_on channel=0 note=57 velocity=0 time=96 actual_time=57396
type=note_on channel=0 note=57 velocity=80 time=24 actual_time=57420
type: note_off, time: 24, actual_time: 57516
type=note_on channel=0 note=57 velocity=0 time=96 actual_time=57516
type=note_on channel=0 note=57 velocity=80 time=24 actual_time=57540
type: note_off, time: 24, actual_time: 57696
type=note_on channel=0 note=57 velocity=0 time=156 actual_time=57696
type=note_on channel=0 note=59 velocity=80 time=7704 actual_time=65400
type: note_off, time: 7704, actual_time: 65496
type=note_on channel=0 note=59 velocity=0 time=96 actual_time=65496
type=note_on channel=0 note=59 velocity=80 time=24 actual_time=65520
type: note_off, time: 24, actual_time: 65616
type=note_on channel=0 note=59 velocity=0 time=96 actual_time=65616
type=note_on channel=0 note=59 velocity=80 time=24 actual_time=65640
type: note_off, time: 24, actual_time: 65736
type=note_on channel=0 note=59 velocity=0 time=96 actual_time=65736
type=note_on channel=0 note=59 velocity=80 time=24 actual_time=65760
type: note_off, time: 24, actual_time: 65856
type=note_on channel=0 note=59 velocity=0 time=96 actual_time=65856
type=note_on channel=0 note=57 velocity=80 time=24 actual_time=65880
type: note_off, time: 24, actual_time: 65976
type=note_on channel=0 note=57 velocity=0 time=96 actual_time=65976
type=note_on channel=0 note=57 velocity=80 time=24 actual_time=66000
type: note_off, time: 24, actual_time: 66096
type=note_on channel=0 note=57 velocity=0 time=96 actual_time=66096
type=note_on channel=0 note=57 velocity=80 time=24 actual_time=66120
type: note_off, time: 24, actual_time: 66216
type=note_on channel=0 note=57 velocity=0 time=96 actual_time=66216
type=note_on channel=0 note=57 velocity=80 time=24 actual_time=66240
type: note_off, time: 24, actual_time: 66336
type=note_on channel=0 note=57 velocity=0 time=96 actual_time=66336
type=note_on channel=0 note=57 velocity=80 time=24 actual_time=66360
type: note_off, time: 24, actual_time: 66456
type=note_on channel=0 note=57 velocity=0 time=96 actual_time=66456
type=note_on channel=0 note=57 velocity=80 time=24 actual_time=66480
type: note_off, time: 24, actual_time: 66576
type=note_on channel=0 note=57 velocity=0 time=96 actual_time=66576
type=note_on channel=0 note=57 velocity=80 time=24 actual_time=66600
type: note_off, time: 24, actual_time: 66696
type=note_on channel=0 note=57 velocity=0 time=96 actual_time=66696
type=note_on channel=0 note=57 velocity=80 time=24 actual_time=66720
type: note_off, time: 24, actual_time: 66816
type=note_on channel=0 note=57 velocity=0 time=96 actual_time=66816
type=note_on channel=0 note=57 velocity=80 time=24 actual_time=66840
type: note_off, time: 24, actual_time: 66888
type=note_on channel=0 note=57 velocity=0 time=48 actual_time=66888
type=note_on channel=0 note=57 velocity=80 time=12 actual_time=66900
type: note_off, time: 12, actual_time: 67092
type=note_on channel=0 note=57 velocity=0 time=192 actual_time=67092
type=note_on channel=0 note=54 velocity=80 time=228 actual_time=67320
type: note_off, time: 228, actual_time: 67416
type=note_on channel=0 note=54 velocity=0 time=96 actual_time=67416
type=note_on channel=0 note=54 velocity=80 time=24 actual_time=67440
type: note_off, time: 24, actual_time: 67536
type=note_on channel=0 note=54 velocity=0 time=96 actual_time=67536
type=note_on channel=0 note=54 velocity=80 time=24 actual_time=67560
type: note_off, time: 24, actual_time: 67608
type=note_on channel=0 note=54 velocity=0 time=48 actual_time=67608
type=note_on channel=0 note=57 velocity=80 time=12 actual_time=67620
type: note_off, time: 12, actual_time: 67764
type=note_on channel=0 note=57 velocity=0 time=144 actual_time=67764
type=note_on channel=0 note=57 velocity=80 time=36 actual_time=67800
type: note_off, time: 36, actual_time: 67896
type=note_on channel=0 note=57 velocity=0 time=96 actual_time=67896
type=note_on channel=0 note=57 velocity=80 time=24 actual_time=67920
type: note_off, time: 24, actual_time: 68016
type=note_on channel=0 note=57 velocity=0 time=96 actual_time=68016
type=note_on channel=0 note=57 velocity=80 time=24 actual_time=68040
type: note_off, time: 24, actual_time: 68136
type=note_on channel=0 note=57 velocity=0 time=96 actual_time=68136
type=note_on channel=0 note=59 velocity=80 time=24 actual_time=68160
type: note_off, time: 24, actual_time: 68256
type=note_on channel=0 note=59 velocity=0 time=96 actual_time=68256
type=note_on channel=0 note=59 velocity=80 time=24 actual_time=68280
type: note_off, time: 24, actual_time: 68376
type=note_on channel=0 note=59 velocity=0 time=96 actual_time=68376
type=note_on channel=0 note=59 velocity=80 time=24 actual_time=68400
type: note_off, time: 24, actual_time: 68496
type=note_on channel=0 note=59 velocity=0 time=96 actual_time=68496
type=note_on channel=0 note=62 velocity=80 time=144 actual_time=68640
type: note_off, time: 144, actual_time: 68736
type=note_on channel=0 note=62 velocity=0 time=96 actual_time=68736
type=note_on channel=0 note=59 velocity=80 time=24 actual_time=68760
type: note_off, time: 24, actual_time: 68856
type=note_on channel=0 note=59 velocity=0 time=96 actual_time=68856
type=note_on channel=0 note=59 velocity=80 time=24 actual_time=68880
type: note_off, time: 24, actual_time: 68976
type=note_on channel=0 note=59 velocity=0 time=96 actual_time=68976
type=note_on channel=0 note=59 velocity=80 time=24 actual_time=69000
type: note_off, time: 24, actual_time: 69144
type=note_on channel=0 note=57 velocity=80 time=120 actual_time=69120
type: note_off, time: 120, actual_time: 69216
type=note_on channel=0 note=59 velocity=0 time=24 actual_time=69144
type=note_on channel=0 note=57 velocity=0 time=72 actual_time=69216
type=note_on channel=0 note=57 velocity=80 time=24 actual_time=69240
type: note_off, time: 24, actual_time: 69336
type=note_on channel=0 note=57 velocity=0 time=96 actual_time=69336
type=note_on channel=0 note=57 velocity=80 time=24 actual_time=69360
type: note_off, time: 24, actual_time: 69456
type=note_on channel=0 note=57 velocity=0 time=96 actual_time=69456
type=note_on channel=0 note=57 velocity=80 time=24 actual_time=69480
type: note_off, time: 24, actual_time: 69576
type=note_on channel=0 note=57 velocity=0 time=96 actual_time=69576
type=note_on channel=0 note=57 velocity=80 time=24 actual_time=69600
type: note_off, time: 24, actual_time: 69696
type=note_on channel=0 note=57 velocity=0 time=96 actual_time=69696
type=note_on channel=0 note=57 velocity=80 time=24 actual_time=69720
type: note_off, time: 24, actual_time: 69816
type=note_on channel=0 note=57 velocity=0 time=96 actual_time=69816
type=note_on channel=0 note=57 velocity=80 time=24 actual_time=69840
type: note_off, time: 24, actual_time: 69936
type=note_on channel=0 note=57 velocity=0 time=96 actual_time=69936
type=note_on channel=0 note=57 velocity=80 time=24 actual_time=69960
type: note_off, time: 24, actual_time: 70056
type=note_on channel=0 note=57 velocity=0 time=96 actual_time=70056
type=note_on channel=0 note=57 velocity=80 time=24 actual_time=70080
type: note_off, time: 24, actual_time: 70176
type=note_on channel=0 note=57 velocity=0 time=96 actual_time=70176
type=note_on channel=0 note=57 velocity=80 time=24 actual_time=70200
type: note_off, time: 24, actual_time: 70296
type=note_on channel=0 note=57 velocity=0 time=96 actual_time=70296
type=note_on channel=0 note=57 velocity=80 time=24 actual_time=70320
type: note_off, time: 24, actual_time: 70416
type=note_on channel=0 note=57 velocity=0 time=96 actual_time=70416
type=note_on channel=0 note=57 velocity=80 time=24 actual_time=70440
type: note_off, time: 24, actual_time: 70632
type=note_on channel=0 note=57 velocity=0 time=192 actual_time=70632
type=note_on channel=0 note=57 velocity=80 time=48 actual_time=70680
type: note_off, time: 48, actual_time: 70872
type=note_on channel=0 note=57 velocity=0 time=192 actual_time=70872
type=note_on channel=0 note=59 velocity=80 time=48 actual_time=70920
type: note_off, time: 48, actual_time: 71136
type=note_on channel=0 note=59 velocity=0 time=216 actual_time=71136
type=note_on channel=0 note=62 velocity=80 time=144 actual_time=71280
type: note_off, time: 144, actual_time: 71376
type=note_on channel=0 note=62 velocity=0 time=96 actual_time=71376
type=note_on channel=0 note=59 velocity=80 time=24 actual_time=71400
type: note_off, time: 24, actual_time: 71448
type=note_on channel=0 note=59 velocity=0 time=48 actual_time=71448
type=note_on channel=0 note=62 velocity=80 time=12 actual_time=71460
type: note_off, time: 12, actual_time: 71844
type=note_on channel=0 note=62 velocity=0 time=384 actual_time=71844
type=note_on channel=0 note=66 velocity=80 time=156 actual_time=72000
type: note_off, time: 156, actual_time: 72768
type=note_on channel=0 note=66 velocity=0 time=768 actual_time=72768
type=note_on channel=0 note=59 velocity=80 time=312 actual_time=73080
type: note_off, time: 312, actual_time: 73176
type=note_on channel=0 note=59 velocity=0 time=96 actual_time=73176
type=note_on channel=0 note=59 velocity=80 time=24 actual_time=73200
type: note_off, time: 24, actual_time: 73296
type=note_on channel=0 note=59 velocity=0 time=96 actual_time=73296
type=note_on channel=0 note=59 velocity=80 time=24 actual_time=73320
type: note_off, time: 24, actual_time: 73416
type=note_on channel=0 note=59 velocity=0 time=96 actual_time=73416
type=note_on channel=0 note=62 velocity=80 time=24 actual_time=73440
type: note_off, time: 24, actual_time: 73536
type=note_on channel=0 note=62 velocity=0 time=96 actual_time=73536
type=note_on channel=0 note=59 velocity=80 time=24 actual_time=73560
type: note_off, time: 24, actual_time: 73656
type=note_on channel=0 note=59 velocity=0 time=96 actual_time=73656
type=note_on channel=0 note=59 velocity=80 time=24 actual_time=73680
type: note_off, time: 24, actual_time: 73776
type=note_on channel=0 note=59 velocity=0 time=96 actual_time=73776
type=note_on channel=0 note=59 velocity=80 time=24 actual_time=73800
type: note_off, time: 24, actual_time: 73896
type=note_on channel=0 note=59 velocity=0 time=96 actual_time=73896
type=note_on channel=0 note=62 velocity=80 time=24 actual_time=73920
type: note_off, time: 24, actual_time: 74016
type=note_on channel=0 note=62 velocity=0 time=96 actual_time=74016
type=note_on channel=0 note=62 velocity=80 time=24 actual_time=74040
type: note_off, time: 24, actual_time: 74136
type=note_on channel=0 note=62 velocity=0 time=96 actual_time=74136
type=note_on channel=0 note=62 velocity=80 time=24 actual_time=74160
type: note_off, time: 24, actual_time: 74256
type=note_on channel=0 note=62 velocity=0 time=96 actual_time=74256
type=note_on channel=0 note=62 velocity=80 time=24 actual_time=74280
type: note_off, time: 24, actual_time: 74376
type=note_on channel=0 note=62 velocity=0 time=96 actual_time=74376
type=note_on channel=0 note=61 velocity=80 time=24 actual_time=74400
type: note_off, time: 24, actual_time: 74496
type=note_on channel=0 note=61 velocity=0 time=96 actual_time=74496
type=note_on channel=0 note=61 velocity=80 time=24 actual_time=74520
type: note_off, time: 24, actual_time: 74568
type=note_on channel=0 note=61 velocity=0 time=48 actual_time=74568
type=note_on channel=0 note=62 velocity=80 time=12 actual_time=74580
type: note_off, time: 12, actual_time: 74772
type=note_on channel=0 note=62 velocity=0 time=192 actual_time=74772
type=note_on channel=0 note=59 velocity=80 time=228 actual_time=75000
type: note_off, time: 228, actual_time: 75096
type=note_on channel=0 note=59 velocity=0 time=96 actual_time=75096
type=note_on channel=0 note=59 velocity=80 time=24 actual_time=75120
type: note_off, time: 24, actual_time: 75216
type=note_on channel=0 note=59 velocity=0 time=96 actual_time=75216
type=note_on channel=0 note=59 velocity=80 time=24 actual_time=75240
type: note_off, time: 24, actual_time: 75288
type=note_on channel=0 note=59 velocity=0 time=48 actual_time=75288
type=note_on channel=0 note=62 velocity=80 time=12 actual_time=75300
type: note_off, time: 12, actual_time: 75468
type=note_on channel=0 note=62 velocity=0 time=168 actual_time=75468
type=note_on channel=0 note=59 velocity=80 time=12 actual_time=75480
type: note_off, time: 12, actual_time: 75576
type=note_on channel=0 note=59 velocity=0 time=96 actual_time=75576
type=note_on channel=0 note=59 velocity=80 time=24 actual_time=75600
type: note_off, time: 24, actual_time: 75696
type=note_on channel=0 note=59 velocity=0 time=96 actual_time=75696
type=note_on channel=0 note=59 velocity=80 time=24 actual_time=75720
type: note_off, time: 24, actual_time: 75816
type=note_on channel=0 note=59 velocity=0 time=96 actual_time=75816
type=note_on channel=0 note=62 velocity=80 time=24 actual_time=75840
type: note_off, time: 24, actual_time: 75936
type=note_on channel=0 note=62 velocity=0 time=96 actual_time=75936
type=note_on channel=0 note=62 velocity=80 time=24 actual_time=75960
type: note_off, time: 24, actual_time: 76056
type=note_on channel=0 note=62 velocity=0 time=96 actual_time=76056
type=note_on channel=0 note=62 velocity=80 time=24 actual_time=76080
type: note_off, time: 24, actual_time: 76176
type=note_on channel=0 note=62 velocity=0 time=96 actual_time=76176
type=note_on channel=0 note=62 velocity=80 time=24 actual_time=76200
type: note_off, time: 24, actual_time: 76296
type=note_on channel=0 note=62 velocity=0 time=96 actual_time=76296
type=note_on channel=0 note=61 velocity=80 time=24 actual_time=76320
type: note_off, time: 24, actual_time: 76416
type=note_on channel=0 note=61 velocity=0 time=96 actual_time=76416
type=note_on channel=0 note=61 velocity=80 time=24 actual_time=76440
type: note_off, time: 24, actual_time: 76536
type=note_on channel=0 note=61 velocity=0 time=96 actual_time=76536
type=note_on channel=0 note=61 velocity=80 time=24 actual_time=76560
type: note_off, time: 24, actual_time: 76656
type=note_on channel=0 note=61 velocity=0 time=96 actual_time=76656
type=note_on channel=0 note=62 velocity=80 time=24 actual_time=76680
type: note_off, time: 24, actual_time: 76776
type=note_on channel=0 note=62 velocity=0 time=96 actual_time=76776
type=note_on channel=0 note=59 velocity=80 time=144 actual_time=76920
type: note_off, time: 144, actual_time: 77016
type=note_on channel=0 note=59 velocity=0 time=96 actual_time=77016
type=note_on channel=0 note=59 velocity=80 time=24 actual_time=77040
type: note_off, time: 24, actual_time: 77136
type=note_on channel=0 note=59 velocity=0 time=96 actual_time=77136
type=note_on channel=0 note=59 velocity=80 time=24 actual_time=77160
type: note_off, time: 24, actual_time: 77256
type=note_on channel=0 note=59 velocity=0 time=96 actual_time=77256
type=note_on channel=0 note=62 velocity=80 time=24 actual_time=77280
type: note_off, time: 24, actual_time: 77376
type=note_on channel=0 note=62 velocity=0 time=96 actual_time=77376
type=note_on channel=0 note=59 velocity=80 time=24 actual_time=77400
type: note_off, time: 24, actual_time: 77496
type=note_on channel=0 note=59 velocity=0 time=96 actual_time=77496
type=note_on channel=0 note=57 velocity=80 time=24 actual_time=77520
type: note_off, time: 24, actual_time: 77616
type=note_on channel=0 note=57 velocity=0 time=96 actual_time=77616
type=note_on channel=0 note=57 velocity=80 time=24 actual_time=77640
type: note_off, time: 24, actual_time: 77736
type=note_on channel=0 note=57 velocity=0 time=96 actual_time=77736
type=note_on channel=0 note=62 velocity=80 time=24 actual_time=77760
type: note_off, time: 24, actual_time: 77856
type=note_on channel=0 note=62 velocity=0 time=96 actual_time=77856
type=note_on channel=0 note=62 velocity=80 time=24 actual_time=77880
type: note_off, time: 24, actual_time: 77976
type=note_on channel=0 note=62 velocity=0 time=96 actual_time=77976
type=note_on channel=0 note=62 velocity=80 time=24 actual_time=78000
type: note_off, time: 24, actual_time: 78096
type=note_on channel=0 note=62 velocity=0 time=96 actual_time=78096
type=note_on channel=0 note=61 velocity=80 time=24 actual_time=78120
type: note_off, time: 24, actual_time: 78312
type=note_on channel=0 note=61 velocity=0 time=192 actual_time=78312
type=note_on channel=0 note=61 velocity=80 time=48 actual_time=78360
type: note_off, time: 48, actual_time: 78552
type=note_on channel=0 note=61 velocity=0 time=192 actual_time=78552
type=note_on channel=0 note=61 velocity=80 time=48 actual_time=78600
type: note_off, time: 48, actual_time: 78696
type=note_on channel=0 note=61 velocity=0 time=96 actual_time=78696
type=note_on channel=0 note=62 velocity=80 time=24 actual_time=78720
type: note_off, time: 24, actual_time: 78816
type=note_on channel=0 note=62 velocity=0 time=96 actual_time=78816
type=note_on channel=0 note=62 velocity=80 time=144 actual_time=78960
type: note_off, time: 144, actual_time: 79056
type=note_on channel=0 note=62 velocity=0 time=96 actual_time=79056
type=note_on channel=0 note=59 velocity=80 time=24 actual_time=79080
type: note_off, time: 24, actual_time: 79128
type=note_on channel=0 note=59 velocity=0 time=48 actual_time=79128
type=note_on channel=0 note=57 velocity=80 time=12 actual_time=79140
type: note_off, time: 12, actual_time: 79332
type=note_on channel=0 note=57 velocity=0 time=192 actual_time=79332
type=note_on channel=0 note=59 velocity=80 time=2748 actual_time=82080
type: note_off, time: 2748, actual_time: 82176
type=note_on channel=0 note=59 velocity=0 time=96 actual_time=82176
type=note_on channel=0 note=57 velocity=80 time=24 actual_time=82200
type: note_off, time: 24, actual_time: 82296
type=note_on channel=0 note=57 velocity=0 time=96 actual_time=82296
type=note_on channel=0 note=57 velocity=80 time=24 actual_time=82320
type: note_off, time: 24, actual_time: 82416
type=note_on channel=0 note=57 velocity=0 time=96 actual_time=82416
type=note_on channel=0 note=59 velocity=80 time=24 actual_time=82440
type: note_off, time: 24, actual_time: 82536
type=note_on channel=0 note=59 velocity=0 time=96 actual_time=82536
type=note_on channel=0 note=59 velocity=80 time=24 actual_time=82560
type: note_off, time: 24, actual_time: 83328
type=note_on channel=0 note=59 velocity=0 time=768 actual_time=83328
type=note_on channel=0 note=59 velocity=80 time=672 actual_time=84000
type: note_off, time: 672, actual_time: 84096
type=note_on channel=0 note=59 velocity=0 time=96 actual_time=84096
type=note_on channel=0 note=57 velocity=80 time=24 actual_time=84120
type: note_off, time: 24, actual_time: 84216
type=note_on channel=0 note=57 velocity=0 time=96 actual_time=84216
type=note_on channel=0 note=57 velocity=80 time=24 actual_time=84240
type: note_off, time: 24, actual_time: 84336
type=note_on channel=0 note=57 velocity=0 time=96 actual_time=84336
type=note_on channel=0 note=59 velocity=80 time=24 actual_time=84360
type: note_off, time: 24, actual_time: 84456
type=note_on channel=0 note=59 velocity=0 time=96 actual_time=84456
type=note_on channel=0 note=59 velocity=80 time=24 actual_time=84480
type: note_off, time: 24, actual_time: 85248
type=note_on channel=0 note=59 velocity=0 time=768 actual_time=85248
type=note_on channel=0 note=59 velocity=80 time=672 actual_time=85920
type: note_off, time: 672, actual_time: 86016
type=note_on channel=0 note=59 velocity=0 time=96 actual_time=86016
type=note_on channel=0 note=57 velocity=80 time=24 actual_time=86040
type: note_off, time: 24, actual_time: 86136
type=note_on channel=0 note=57 velocity=0 time=96 actual_time=86136
type=note_on channel=0 note=57 velocity=80 time=24 actual_time=86160
type: note_off, time: 24, actual_time: 86256
type=note_on channel=0 note=57 velocity=0 time=96 actual_time=86256
type=note_on channel=0 note=59 velocity=80 time=24 actual_time=86280
type: note_off, time: 24, actual_time: 86376
type=note_on channel=0 note=59 velocity=0 time=96 actual_time=86376
type=note_on channel=0 note=59 velocity=80 time=24 actual_time=86400
type: note_off, time: 24, actual_time: 88128
type=note_on channel=0 note=59 velocity=0 time=1728 actual_time=88128
MetaMessage type: end_of_track, time: 0, actual_time: 88128
MetaMessage type: track_name, time: 0, actual_time: 0
type: program_change, time: 0, actual_time: 0
type=control_change channel=0 control=7 value=124 time=0 actual_time=0
type=note_on channel=0 note=59 velocity=80 time=7800 actual_time=0
type: note_off, time: 7800, actual_time: 96
type=note_on channel=0 note=59 velocity=0 time=96 actual_time=7896
type=note_on channel=0 note=59 velocity=80 time=24 actual_time=60
type: note_off, time: 24, actual_time: 156
type=note_on channel=0 note=59 velocity=0 time=96 actual_time=8016
type=note_on channel=0 note=59 velocity=80 time=24 actual_time=20
type: note_off, time: 24, actual_time: 68
type=note_on channel=0 note=59 velocity=0 time=48 actual_time=8088
type=note_on channel=0 note=59 velocity=80 time=12 actual_time=0
type: note_off, time: 12, actual_time: 144
type=note_on channel=0 note=62 velocity=0 time=144 actual_time=8244
type=note_on channel=0 note=59 velocity=80 time=36 actual_time=60
type: note_off, time: 36, actual_time: 156
type=note_on channel=0 note=59 velocity=0 time=96 actual_time=8376
type=note_on channel=0 note=57 velocity=80 time=24 actual_time=0
type: note_off, time: 24, actual_time: 96
type=note_on channel=0 note=57 velocity=0 time=96 actual_time=8496
type=note_on channel=0 note=59 velocity=80 time=24 actual_time=60
type: note_off, time: 24, actual_time: 108
type=note_on channel=0 note=57 velocity=0 time=48 actual_time=8568
type=note_on channel=0 note=59 velocity=80 time=12 actual_time=0
type: note_off, time: 12, actual_time: 156
type=note_on channel=0 note=57 velocity=0 time=156 actual_time=8736
type=note_on channel=0 note=57 velocity=80 time=24 actual_time=40
type: note_off, time: 24, actual_time: 136
type=note_on channel=0 note=57 velocity=0 time=96 actual_time=8856
type=note_on channel=0 note=59 velocity=80 time=24 actual_time=0
type: note_off, time: 24, actual_time: 96
type=note_on channel=0 note=57 velocity=0 time=96 actual_time=8976
type=note_on channel=0 note=59 velocity=80 time=24 actual_time=0
type: note_off, time: 24, actual_time: 96
type=note_on channel=0 note=57 velocity=0 time=96 actual_time=9096
type=note_on channel=0 note=59 velocity=80 time=24 actual_time=40
type: note_off, time: 24, actual_time: 88
type=note_on channel=0 note=57 velocity=0 time=48 actual_time=9168
type=note_on channel=0 note=59 velocity=80 time=12 actual_time=0
type: note_off, time: 12, actual_time: 96
type=note_on channel=0 note=57 velocity=0 time=96 actual_time=9276
type=note_on channel=0 note=59 velocity=80 time=24 actual_time=60
type: note_off, time: 24, actual_time: 252
type=note_on channel=0 note=59 velocity=0 time=192 actual_time=9492
type=note_on channel=0 note=59 velocity=80 time=228 actual_time=20
type: note_off, time: 228, actual_time: 116
type=note_on channel=0 note=59 velocity=0 time=96 actual_time=9816
type=note_on channel=0 note=59 velocity=80 time=24 actual_time=20
type: note_off, time: 24, actual_time: 116
type=note_on channel=0 note=59 velocity=0 time=96 actual_time=9936
type=note_on channel=0 note=59 velocity=80 time=24 actual_time=9960
type: note_off, time: 24, actual_time: 10056
type=note_on channel=0 note=59 velocity=0 time=96 actual_time=10056
type=note_on channel=0 note=59 velocity=80 time=24 actual_time=10080
type: note_off, time: 24, actual_time: 10128
type=note_on channel=0 note=62 velocity=0 time=48 actual_time=10128
type=note_on channel=0 note=59 velocity=80 time=12 actual_time=20
type: note_off, time: 12, actual_time: 116
type=note_on channel=0 note=62 velocity=0 time=96 actual_time=10236
type=note_on channel=0 note=62 velocity=80 time=24 actual_time=60
type: note_off, time: 24, actual_time: 156
type=note_on channel=0 note=62 velocity=0 time=96 actual_time=10356
type=note_on channel=0 note=59 velocity=80 time=24 actual_time=60
type: note_off, time: 24, actual_time: 156
type=note_on channel=0 note=62 velocity=0 time=96 actual_time=10476
type=note_on channel=0 note=62 velocity=80 time=24 actual_time=10500
type: note_off, time: 24, actual_time: 10608
type=note_on channel=0 note=62 velocity=0 time=108 actual_time=10608
type=note_on channel=0 note=59 velocity=80 time=12 actual_time=20
type: note_off, time: 12, actual_time: 164
type=note_on channel=0 note=62 velocity=0 time=144 actual_time=10764
type=note_on channel=0 note=59 velocity=80 time=36 actual_time=40
type: note_off, time: 36, actual_time: 136
type=note_on channel=0 note=62 velocity=0 time=96 actual_time=10896
type=note_on channel=0 note=59 velocity=80 time=24 actual_time=60
type: note_off, time: 24, actual_time: 156
type=note_on channel=0 note=62 velocity=0 time=96 actual_time=11016
type=note_on channel=0 note=59 velocity=80 time=24 actual_time=11040
type: note_off, time: 24, actual_time: 11136
type=note_on channel=0 note=61 velocity=0 time=96 actual_time=11136
type=note_on channel=0 note=59 velocity=80 time=24 actual_time=0
type: note_off, time: 24, actual_time: 48
type=note_on channel=0 note=61 velocity=0 time=48 actual_time=11208
type=note_on channel=0 note=59 velocity=80 time=12 actual_time=11220
type: note_off, time: 12, actual_time: 11316
type=note_on channel=0 note=62 velocity=0 time=96 actual_time=11316
type=note_on channel=0 note=59 velocity=80 time=24 actual_time=40
type: note_off, time: 24, actual_time: 136
type=note_on channel=0 note=59 velocity=0 time=96 actual_time=11436
type=note_on channel=0 note=59 velocity=80 time=164 actual_time=60
type: note_off, time: 164, actual_time: 92
type=note_on channel=0 note=59 velocity=0 time=32 actual_time=11632
type=note_on channel=0 note=59 velocity=80 time=8 actual_time=11640
type: note_off, time: 8, actual_time: 11736
type=note_on channel=0 note=59 velocity=0 time=96 actual_time=11736
type=note_on channel=0 note=59 velocity=80 time=24 actual_time=20
type: note_off, time: 24, actual_time: 116
type=note_on channel=0 note=59 velocity=0 time=96 actual_time=11856
type=note_on channel=0 note=59 velocity=80 time=24 actual_time=40
type: note_off, time: 24, actual_time: 88
type=note_on channel=0 note=59 velocity=0 time=48 actual_time=11928
type=note_on channel=0 note=59 velocity=80 time=12 actual_time=20
type: note_off, time: 12, actual_time: 164
type=note_on channel=0 note=62 velocity=0 time=144 actual_time=12084
type=note_on channel=0 note=59 velocity=80 time=36 actual_time=12120
type: note_off, time: 36, actual_time: 12216
type=note_on channel=0 note=59 velocity=0 time=96 actual_time=12216
type=note_on channel=0 note=59 velocity=80 time=24 actual_time=40
type: note_off, time: 24, actual_time: 136
type=note_on channel=0 note=57 velocity=0 time=96 actual_time=12336
type=note_on channel=0 note=59 velocity=80 time=24 actual_time=20
type: note_off, time: 24, actual_time: 68
type=note_on channel=0 note=57 velocity=0 time=48 actual_time=12408
type=note_on channel=0 note=59 velocity=80 time=12 actual_time=0
type: note_off, time: 12, actual_time: 156
type=note_on channel=0 note=57 velocity=0 time=156 actual_time=12576
type=note_on channel=0 note=57 velocity=80 time=24 actual_time=20
type: note_off, time: 24, actual_time: 116
type=note_on channel=0 note=57 velocity=0 time=96 actual_time=12696
type=note_on channel=0 note=59 velocity=80 time=24 actual_time=0
type: note_off, time: 24, actual_time: 48
type=note_on channel=0 note=57 velocity=0 time=48 actual_time=12768
type=note_on channel=0 note=59 velocity=80 time=12 actual_time=60
type: note_off, time: 12, actual_time: 156
type=note_on channel=0 note=57 velocity=0 time=96 actual_time=12876
type=note_on channel=0 note=59 velocity=80 time=24 actual_time=0
type: note_off, time: 24, actual_time: 384
type=note_on channel=0 note=59 velocity=0 time=384 actual_time=13284
type=note_on channel=0 note=59 velocity=80 time=276 actual_time=0
type: note_off, time: 276, actual_time: 96
type=note_on channel=0 note=59 velocity=0 time=96 actual_time=13656
type=note_on channel=0 note=59 velocity=80 time=24 actual_time=40
type: note_off, time: 24, actual_time: 136
type=note_on channel=0 note=59 velocity=0 time=96 actual_time=13776
type=note_on channel=0 note=59 velocity=80 time=24 actual_time=60
type: note_off, time: 24, actual_time: 156
type=note_on channel=0 note=59 velocity=0 time=96 actual_time=13896
type=note_on channel=0 note=59 velocity=80 time=24 actual_time=20
type: note_off, time: 24, actual_time: 68
type=note_on channel=0 note=59 velocity=0 time=48 actual_time=13968
type=note_on channel=0 note=59 velocity=80 time=12 actual_time=0
type: note_off, time: 12, actual_time: 96
type=note_on channel=0 note=59 velocity=0 time=96 actual_time=14076
type=note_on channel=0 note=59 velocity=80 time=24 actual_time=0
type: note_off, time: 24, actual_time: 96
type=note_on channel=0 note=59 velocity=0 time=96 actual_time=14196
type=note_on channel=0 note=59 velocity=80 time=24 actual_time=0
type: note_off, time: 24, actual_time: 96
type=note_on channel=0 note=59 velocity=0 time=96 actual_time=14316
type=note_on channel=0 note=59 velocity=80 time=24 actual_time=0
type: note_off, time: 24, actual_time: 96
type=note_on channel=0 note=59 velocity=80 time=60 actual_time=14400
type: note_off, time: 60, actual_time: 14784
type=note_on channel=0 note=59 velocity=0 time=36 actual_time=14436
type=note_on channel=0 note=57 velocity=0 time=348 actual_time=14784
type=note_on channel=0 note=57 velocity=80 time=456 actual_time=20
type: note_off, time: 456, actual_time: 332
type=note_on channel=0 note=57 velocity=0 time=312 actual_time=15552
type=note_on channel=0 note=59 velocity=80 time=3768 actual_time=60
type: note_off, time: 3768, actual_time: 156
type=note_on channel=0 note=59 velocity=0 time=96 actual_time=19416
type=note_on channel=0 note=59 velocity=80 time=24 actual_time=0
type: note_off, time: 24, actual_time: 96
type=note_on channel=0 note=59 velocity=0 time=96 actual_time=19536
type=note_on channel=0 note=59 velocity=80 time=24 actual_time=60
type: note_off, time: 24, actual_time: 108
type=note_on channel=0 note=59 velocity=0 time=48 actual_time=19608
type=note_on channel=0 note=59 velocity=80 time=12 actual_time=0
type: note_off, time: 12, actual_time: 144
type=note_on channel=0 note=59 velocity=0 time=144 actual_time=19764
type=note_on channel=0 note=59 velocity=80 time=36 actual_time=60
type: note_off, time: 36, actual_time: 156
type=note_on channel=0 note=57 velocity=0 time=96 actual_time=19896
type=note_on channel=0 note=59 velocity=80 time=24 actual_time=60
type: note_off, time: 24, actual_time: 156
type=note_on channel=0 note=57 velocity=0 time=96 actual_time=20016
type=note_on channel=0 note=59 velocity=80 time=24 actual_time=40
type: note_off, time: 24, actual_time: 88
type=note_on channel=0 note=54 velocity=0 time=48 actual_time=20088
type=note_on channel=0 note=59 velocity=80 time=12 actual_time=40
type: note_off, time: 12, actual_time: 196
type=note_on channel=0 note=57 velocity=0 time=156 actual_time=20256
type=note_on channel=0 note=59 velocity=80 time=24 actual_time=20
type: note_off, time: 24, actual_time: 116
type=note_on channel=0 note=57 velocity=0 time=96 actual_time=20376
type=note_on channel=0 note=59 velocity=80 time=24 actual_time=40
type: note_off, time: 24, actual_time: 88
type=note_on channel=0 note=57 velocity=0 time=48 actual_time=20448
type=note_on channel=0 note=57 velocity=80 time=12 actual_time=20460
type: note_off, time: 12, actual_time: 20556
type=note_on channel=0 note=57 velocity=0 time=96 actual_time=20556
type=note_on channel=0 note=59 velocity=80 time=24 actual_time=40
type: note_off, time: 24, actual_time: 424
type=note_on channel=0 note=57 velocity=0 time=384 actual_time=20964
type=note_on channel=0 note=59 velocity=80 time=396 actual_time=60
type: note_off, time: 396, actual_time: 156
type=note_on channel=0 note=54 velocity=0 time=96 actual_time=21456
type=note_on channel=0 note=59 velocity=80 time=24 actual_time=40
type: note_off, time: 24, actual_time: 88
type=note_on channel=0 note=54 velocity=0 time=48 actual_time=21528
type=note_on channel=0 note=59 velocity=80 time=12 actual_time=20
type: note_off, time: 12, actual_time: 116
type=note_on channel=0 note=57 velocity=0 time=96 actual_time=21636
type=note_on channel=0 note=59 velocity=80 time=24 actual_time=0
type: note_off, time: 24, actual_time: 96
type=note_on channel=0 note=57 velocity=0 time=96 actual_time=21756
type=note_on channel=0 note=59 velocity=80 time=24 actual_time=21780
type: note_off, time: 24, actual_time: 21876
type=note_on channel=0 note=57 velocity=0 time=96 actual_time=21876
type=note_on channel=0 note=59 velocity=80 time=24 actual_time=20
type: note_off, time: 24, actual_time: 68
type=note_on channel=0 note=57 velocity=0 time=48 actual_time=21948
type=note_on channel=0 note=59 velocity=80 time=12 actual_time=21960
type: note_off, time: 12, actual_time: 22008
type=note_on channel=0 note=57 velocity=0 time=48 actual_time=22008
type=note_on channel=0 note=59 velocity=80 time=12 actual_time=20
type: note_off, time: 12, actual_time: 128
type=note_on channel=0 note=57 velocity=0 time=108 actual_time=22128
type=note_on channel=0 note=59 velocity=80 time=12 actual_time=20
type: note_off, time: 12, actual_time: 116
type=note_on channel=0 note=59 velocity=0 time=96 actual_time=22236
type=note_on channel=0 note=59 velocity=80 time=24 actual_time=60
type: note_off, time: 24, actual_time: 108
type=note_on channel=0 note=57 velocity=0 time=48 actual_time=22308
type=note_on channel=0 note=61 velocity=80 time=12 actual_time=0
type: note_off, time: 12, actual_time: 96
type=note_on channel=0 note=57 velocity=0 time=96 actual_time=22416
type=note_on channel=0 note=57 velocity=80 time=24 actual_time=22440
type: note_off, time: 24, actual_time: 22488
type=note_on channel=0 note=57 velocity=0 time=48 actual_time=22488
type=note_on channel=0 note=52 velocity=80 time=12 actual_time=40
type: note_off, time: 12, actual_time: 136
type=note_on channel=0 note=52 velocity=0 time=96 actual_time=22596
type=note_on channel=0 note=52 velocity=80 time=24 actual_time=40
type: note_off, time: 24, actual_time: 136
type=note_on channel=0 note=52 velocity=0 time=96 actual_time=22716
type=note_on channel=0 note=52 velocity=80 time=24 actual_time=40
type: note_off, time: 24, actual_time: 136
type=note_on channel=0 note=52 velocity=0 time=96 actual_time=22836
type=note_on channel=0 note=59 velocity=80 time=24 actual_time=20
type: note_off, time: 24, actual_time: 116
type=note_on channel=0 note=50 velocity=0 time=96 actual_time=22956
type=note_on channel=0 note=59 velocity=80 time=204 actual_time=40
type: note_off, time: 204, actual_time: 136
type=note_on channel=0 note=57 velocity=0 time=96 actual_time=23256
type=note_on channel=0 note=59 velocity=80 time=24 actual_time=40
type: note_off, time: 24, actual_time: 88
type=note_on channel=0 note=57 velocity=0 time=48 actual_time=23328
type=note_on channel=0 note=59 velocity=80 time=12 actual_time=60
type: note_off, time: 12, actual_time: 156
type=note_on channel=0 note=57 velocity=0 time=96 actual_time=23436
type=note_on channel=0 note=59 velocity=80 time=24 actual_time=20
type: note_off, time: 24, actual_time: 116
type=note_on channel=0 note=59 velocity=0 time=96 actual_time=23556
type=note_on channel=0 note=57 velocity=80 time=24 actual_time=0
type: note_off, time: 24, actual_time: 192
type=note_on channel=0 note=57 velocity=0 time=192 actual_time=23772
type=note_on channel=0 note=59 velocity=80 time=48 actual_time=0
type: note_off, time: 48, actual_time: 144
type=note_on channel=0 note=57 velocity=0 time=144 actual_time=23964
type=note_on channel=0 note=59 velocity=80 time=36 actual_time=40
type: note_off, time: 36, actual_time: 88
type=note_on channel=0 note=57 velocity=0 time=48 actual_time=24048
type=note_on channel=0 note=57 velocity=80 time=12 actual_time=0
type: note_off, time: 12, actual_time: 96
type=note_on channel=0 note=57 velocity=0 time=96 actual_time=24156
type=note_on channel=0 note=57 velocity=80 time=24 actual_time=60
type: note_off, time: 24, actual_time: 156
type=note_on channel=0 note=57 velocity=0 time=96 actual_time=24276
type=note_on channel=0 note=57 velocity=80 time=24 actual_time=0
type: note_off, time: 24, actual_time: 96
type=note_on channel=0 note=57 velocity=0 time=96 actual_time=24396
type=note_on channel=0 note=59 velocity=80 time=24 actual_time=40
type: note_off, time: 24, actual_time: 328
type=note_on channel=0 note=59 velocity=0 time=288 actual_time=24708
type=note_on channel=0 note=59 velocity=80 time=192 actual_time=60
type: note_off, time: 192, actual_time: 108
type=note_on channel=0 note=59 velocity=0 time=48 actual_time=24948
type=note_on channel=0 note=59 velocity=80 time=12 actual_time=60
type: note_off, time: 12, actual_time: 156
type=note_on channel=0 note=59 velocity=0 time=96 actual_time=25056
type=note_on channel=0 note=59 velocity=80 time=24 actual_time=20
type: note_off, time: 24, actual_time: 116
type=note_on channel=0 note=59 velocity=0 time=96 actual_time=25176
type=note_on channel=0 note=59 velocity=80 time=24 actual_time=60
type: note_off, time: 24, actual_time: 156
type=note_on channel=0 note=59 velocity=0 time=96 actual_time=25296
type=note_on channel=0 note=59 velocity=80 time=24 actual_time=40
type: note_off, time: 24, actual_time: 232
type=note_on channel=0 note=62 velocity=0 time=192 actual_time=25512
type=note_on channel=0 note=59 velocity=80 time=48 actual_time=20
type: note_off, time: 48, actual_time: 212
type=note_on channel=0 note=62 velocity=0 time=192 actual_time=25752
type=note_on channel=0 note=59 velocity=80 time=48 actual_time=40
type: note_off, time: 48, actual_time: 256
type=note_on channel=0 note=62 velocity=0 time=216 actual_time=26016
type=note_on channel=0 note=59 velocity=80 time=24 actual_time=0
type: note_off, time: 24, actual_time: 96
type=note_on channel=0 note=61 velocity=0 time=96 actual_time=26136
type=note_on channel=0 note=59 velocity=80 time=24 actual_time=0
type: note_off, time: 24, actual_time: 96
type=note_on channel=0 note=61 velocity=0 time=96 actual_time=26256
type=note_on channel=0 note=64 velocity=80 time=24 actual_time=60
type: note_off, time: 24, actual_time: 156
type=note_on channel=0 note=62 velocity=0 time=96 actual_time=26376
type=note_on channel=0 note=59 velocity=80 time=24 actual_time=40
type: note_off, time: 24, actual_time: 232
type=note_on channel=0 note=59 velocity=0 time=192 actual_time=26592
type=note_on channel=0 note=59 velocity=80 time=408 actual_time=20
type: note_off, time: 408, actual_time: 116
type=note_on channel=0 note=59 velocity=0 time=96 actual_time=27096
type=note_on channel=0 note=59 velocity=80 time=24 actual_time=60
type: note_off, time: 24, actual_time: 156
type=note_on channel=0 note=59 velocity=0 time=96 actual_time=27216
type=note_on channel=0 note=59 velocity=80 time=24 actual_time=40
type: note_off, time: 24, actual_time: 136
type=note_on channel=0 note=59 velocity=0 time=96 actual_time=27336
type=note_on channel=0 note=59 velocity=80 time=24 actual_time=27360
type: note_off, time: 24, actual_time: 27456
type=note_on channel=0 note=62 velocity=0 time=96 actual_time=27456
type=note_on channel=0 note=59 velocity=80 time=24 actual_time=27480
type: note_off, time: 24, actual_time: 27576
type=note_on channel=0 note=59 velocity=0 time=96 actual_time=27576
type=note_on channel=0 note=59 velocity=80 time=24 actual_time=60
type: note_off, time: 24, actual_time: 156
type=note_on channel=0 note=59 velocity=0 time=96 actual_time=27696
type=note_on channel=0 note=59 velocity=80 time=24 actual_time=0
type: note_off, time: 24, actual_time: 96
type=note_on channel=0 note=59 velocity=0 time=96 actual_time=27816
type=note_on channel=0 note=59 velocity=80 time=24 actual_time=40
type: note_off, time: 24, actual_time: 136
type=note_on channel=0 note=62 velocity=0 time=96 actual_time=27936
type=note_on channel=0 note=59 velocity=80 time=24 actual_time=60
type: note_off, time: 24, actual_time: 156
type=note_on channel=0 note=62 velocity=0 time=96 actual_time=28056
type=note_on channel=0 note=59 velocity=80 time=24 actual_time=40
type: note_off, time: 24, actual_time: 136
type=note_on channel=0 note=62 velocity=0 time=96 actual_time=28176
type=note_on channel=0 note=65 velocity=80 time=24 actual_time=0
type: note_off, time: 24, actual_time: 96
type=note_on channel=0 note=62 velocity=0 time=96 actual_time=28296
type=note_on channel=0 note=61 velocity=80 time=24 actual_time=20
type: note_off, time: 24, actual_time: 116
type=note_on channel=0 note=61 velocity=0 time=96 actual_time=28416
type=note_on channel=0 note=59 velocity=80 time=24 actual_time=20
type: note_off, time: 24, actual_time: 68
type=note_on channel=0 note=61 velocity=0 time=48 actual_time=28488
type=note_on channel=0 note=59 velocity=80 time=12 actual_time=60
type: note_off, time: 12, actual_time: 252
type=note_on channel=0 note=62 velocity=0 time=192 actual_time=28692
type=note_on channel=0 note=59 velocity=80 time=228 actual_time=0
type: note_off, time: 228, actual_time: 96
type=note_on channel=0 note=59 velocity=0 time=96 actual_time=29016
type=note_on channel=0 note=59 velocity=80 time=24 actual_time=60
type: note_off, time: 24, actual_time: 156
type=note_on channel=0 note=59 velocity=0 time=96 actual_time=29136
type=note_on channel=0 note=59 velocity=80 time=24 actual_time=0
type: note_off, time: 24, actual_time: 48
type=note_on channel=0 note=59 velocity=0 time=48 actual_time=29208
type=note_on channel=0 note=58 velocity=80 time=12 actual_time=60
type: note_off, time: 12, actual_time: 228
type=note_on channel=0 note=62 velocity=0 time=168 actual_time=29388
type=note_on channel=0 note=59 velocity=80 time=12 actual_time=20
type: note_off, time: 12, actual_time: 116
type=note_on channel=0 note=59 velocity=0 time=96 actual_time=29496
type=note_on channel=0 note=59 velocity=80 time=24 actual_time=60
type: note_off, time: 24, actual_time: 156
type=note_on channel=0 note=59 velocity=0 time=96 actual_time=29616
type=note_on channel=0 note=59 velocity=80 time=24 actual_time=60
type: note_off, time: 24, actual_time: 156
type=note_on channel=0 note=59 velocity=0 time=96 actual_time=29736
type=note_on channel=0 note=59 velocity=80 time=24 actual_time=60
type: note_off, time: 24, actual_time: 156
type=note_on channel=0 note=62 velocity=0 time=96 actual_time=29856
type=note_on channel=0 note=59 velocity=80 time=24 actual_time=29880
type: note_off, time: 24, actual_time: 29976
type=note_on channel=0 note=62 velocity=0 time=96 actual_time=29976
type=note_on channel=0 note=59 velocity=80 time=24 actual_time=60
type: note_off, time: 24, actual_time: 156
type=note_on channel=0 note=62 velocity=0 time=96 actual_time=30096
type=note_on channel=0 note=59 velocity=80 time=24 actual_time=20
type: note_off, time: 24, actual_time: 116
type=note_on channel=0 note=62 velocity=0 time=96 actual_time=30216
type=note_on channel=0 note=61 velocity=80 time=24 actual_time=0
type: note_off, time: 24, actual_time: 96
type=note_on channel=0 note=61 velocity=0 time=96 actual_time=30336
type=note_on channel=0 note=61 velocity=80 time=24 actual_time=30360
type: note_off, time: 24, actual_time: 30456
type=note_on channel=0 note=61 velocity=0 time=96 actual_time=30456
type=note_on channel=0 note=61 velocity=80 time=24 actual_time=40
type: note_off, time: 24, actual_time: 136
type=note_on channel=0 note=61 velocity=0 time=96 actual_time=30576
type=note_on channel=0 note=59 velocity=80 time=24 actual_time=20
type: note_off, time: 24, actual_time: 116
type=note_on channel=0 note=62 velocity=0 time=96 actual_time=30696
type=note_on channel=0 note=59 velocity=80 time=144 actual_time=40
type: note_off, time: 144, actual_time: 136
type=note_on channel=0 note=59 velocity=0 time=96 actual_time=30936
type=note_on channel=0 note=59 velocity=80 time=24 actual_time=40
type: note_off, time: 24, actual_time: 136
type=note_on channel=0 note=59 velocity=0 time=96 actual_time=31056
type=note_on channel=0 note=59 velocity=80 time=24 actual_time=0
type: note_off, time: 24, actual_time: 96
type=note_on channel=0 note=59 velocity=0 time=96 actual_time=31176
type=note_on channel=0 note=62 velocity=80 time=24 actual_time=31200
type: note_off, time: 24, actual_time: 31296
type=note_on channel=0 note=62 velocity=0 time=96 actual_time=31296
type=note_on channel=0 note=59 velocity=80 time=24 actual_time=0
type: note_off, time: 24, actual_time: 96
type=note_on channel=0 note=59 velocity=0 time=96 actual_time=31416
type=note_on channel=0 note=57 velocity=80 time=24 actual_time=0
type: note_off, time: 24, actual_time: 96
type=note_on channel=0 note=57 velocity=0 time=96 actual_time=31536
type=note_on channel=0 note=59 velocity=80 time=24 actual_time=31560
type: note_off, time: 24, actual_time: 31656
type=note_on channel=0 note=57 velocity=0 time=96 actual_time=31656
type=note_on channel=0 note=62 velocity=80 time=24 actual_time=20
type: note_off, time: 24, actual_time: 116
type=note_on channel=0 note=62 velocity=0 time=96 actual_time=31776
type=note_on channel=0 note=62 velocity=80 time=24 actual_time=40
type: note_off, time: 24, actual_time: 136
type=note_on channel=0 note=62 velocity=0 time=96 actual_time=31896
type=note_on channel=0 note=59 velocity=80 time=24 actual_time=60
type: note_off, time: 24, actual_time: 156
type=note_on channel=0 note=62 velocity=0 time=96 actual_time=32016
type=note_on channel=0 note=61 velocity=80 time=24 actual_time=40
type: note_off, time: 24, actual_time: 232
type=note_on channel=0 note=61 velocity=0 time=192 actual_time=32232
type=note_on channel=0 note=61 velocity=80 time=48 actual_time=40
type: note_off, time: 48, actual_time: 232
type=note_on channel=0 note=61 velocity=0 time=192 actual_time=32472
type=note_on channel=0 note=59 velocity=80 time=48 actual_time=20
type: note_off, time: 48, actual_time: 116
type=note_on channel=0 note=61 velocity=0 time=96 actual_time=32616
type=note_on channel=0 note=59 velocity=80 time=24 actual_time=40
type: note_off, time: 24, actual_time: 136
type=note_on channel=0 note=62 velocity=0 time=96 actual_time=32736
type=note_on channel=0 note=62 velocity=80 time=144 actual_time=32880
type: note_off, time: 144, actual_time: 32976
type=note_on channel=0 note=62 velocity=0 time=96 actual_time=32976
type=note_on channel=0 note=59 velocity=80 time=24 actual_time=40
type: note_off, time: 24, actual_time: 88
type=note_on channel=0 note=59 velocity=0 time=48 actual_time=33048
type=note_on channel=0 note=53 velocity=80 time=12 actual_time=0
type: note_off, time: 12, actual_time: 192
type=note_on channel=0 note=57 velocity=0 time=192 actual_time=33252
type=note_on channel=0 note=59 velocity=80 time=5268 actual_time=38520
type: note_off, time: 5268, actual_time: 38616
type=note_on channel=0 note=59 velocity=0 time=96 actual_time=38616
type=note_on channel=0 note=59 velocity=80 time=24 actual_time=20
type: note_off, time: 24, actual_time: 116
type=note_on channel=0 note=59 velocity=0 time=96 actual_time=38736
type=note_on channel=0 note=59 velocity=80 time=24 actual_time=0
type: note_off, time: 24, actual_time: 96
type=note_on channel=0 note=59 velocity=0 time=96 actual_time=38856
type=note_on channel=0 note=54 velocity=80 time=24 actual_time=60
type: note_off, time: 24, actual_time: 156
type=note_on channel=0 note=59 velocity=0 time=96 actual_time=38976
type=note_on channel=0 note=57 velocity=80 time=24 actual_time=0
type: note_off, time: 24, actual_time: 96
type=note_on channel=0 note=57 velocity=0 time=96 actual_time=39096
type=note_on channel=0 note=59 velocity=80 time=24 actual_time=0
type: note_off, time: 24, actual_time: 96
type=note_on channel=0 note=57 velocity=0 time=96 actual_time=39216
type=note_on channel=0 note=57 velocity=80 time=24 actual_time=60
type: note_off, time: 24, actual_time: 156
type=note_on channel=0 note=57 velocity=0 time=96 actual_time=39336
type=note_on channel=0 note=53 velocity=80 time=24 actual_time=60
type: note_off, time: 24, actual_time: 156
type=note_on channel=0 note=57 velocity=0 time=96 actual_time=39456
type=note_on channel=0 note=57 velocity=80 time=24 actual_time=60
type: note_off, time: 24, actual_time: 156
type=note_on channel=0 note=57 velocity=0 time=96 actual_time=39576
type=note_on channel=0 note=59 velocity=80 time=24 actual_time=60
type: note_off, time: 24, actual_time: 156
type=note_on channel=0 note=57 velocity=0 time=96 actual_time=39696
type=note_on channel=0 note=61 velocity=80 time=24 actual_time=20
type: note_off, time: 24, actual_time: 116
type=note_on channel=0 note=57 velocity=0 time=96 actual_time=39816
type=note_on channel=0 note=59 velocity=80 time=24 actual_time=20
type: note_off, time: 24, actual_time: 68
type=note_on channel=0 note=57 velocity=0 time=48 actual_time=39888
type=note_on channel=0 note=53 velocity=80 time=12 actual_time=60
type: note_off, time: 12, actual_time: 156
type=note_on channel=0 note=57 velocity=0 time=96 actual_time=39996
type=note_on channel=0 note=59 velocity=80 time=24 actual_time=40020
type: note_off, time: 24, actual_time: 40116
type=note_on channel=0 note=57 velocity=0 time=96 actual_time=40116
type=note_on channel=0 note=59 velocity=80 time=24 actual_time=40140
type: note_off, time: 24, actual_time: 40236
type=note_on channel=0 note=57 velocity=0 time=96 actual_time=40236
type=note_on channel=0 note=59 velocity=80 time=24 actual_time=40260
type: note_off, time: 24, actual_time: 40416
type=note_on channel=0 note=54 velocity=0 time=156 actual_time=40416
type=note_on channel=0 note=54 velocity=80 time=24 actual_time=40440
type: note_off, time: 24, actual_time: 40536
type=note_on channel=0 note=54 velocity=0 time=96 actual_time=40536
type=note_on channel=0 note=59 velocity=80 time=24 actual_time=40560
type: note_off, time: 24, actual_time: 40656
type=note_on channel=0 note=54 velocity=0 time=96 actual_time=40656
type=note_on channel=0 note=59 velocity=80 time=24 actual_time=0
type: note_off, time: 24, actual_time: 96
type=note_on channel=0 note=54 velocity=0 time=96 actual_time=40776
type=note_on channel=0 note=59 velocity=80 time=24 actual_time=40800
type: note_off, time: 24, actual_time: 40848
type=note_on channel=0 note=57 velocity=0 time=48 actual_time=40848
type=note_on channel=0 note=57 velocity=80 time=12 actual_time=20
type: note_off, time: 12, actual_time: 164
type=note_on channel=0 note=57 velocity=0 time=144 actual_time=41004
type=note_on channel=0 note=59 velocity=80 time=36 actual_time=40
type: note_off, time: 36, actual_time: 136
type=note_on channel=0 note=57 velocity=0 time=96 actual_time=41136
type=note_on channel=0 note=59 velocity=80 time=24 actual_time=60
type: note_off, time: 24, actual_time: 108
type=note_on channel=0 note=57 velocity=0 time=48 actual_time=41208
type=note_on channel=0 note=61 velocity=80 time=12 actual_time=40
type: note_off, time: 12, actual_time: 196
type=note_on channel=0 note=59 velocity=0 time=156 actual_time=41376
type=note_on channel=0 note=59 velocity=80 time=24 actual_time=60
type: note_off, time: 24, actual_time: 156
type=note_on channel=0 note=57 velocity=0 time=96 actual_time=41496
type=note_on channel=0 note=59 velocity=80 time=24 actual_time=41520
type: note_off, time: 24, actual_time: 41568
type=note_on channel=0 note=57 velocity=0 time=48 actual_time=41568
type=note_on channel=0 note=57 velocity=80 time=12 actual_time=20
type: note_off, time: 12, actual_time: 116
type=note_on channel=0 note=57 velocity=0 time=96 actual_time=41676
type=note_on channel=0 note=52 velocity=80 time=24 actual_time=0
type: note_off, time: 24, actual_time: 96
type=note_on channel=0 note=57 velocity=0 time=96 actual_time=41796
type=note_on channel=0 note=59 velocity=80 time=24 actual_time=41820
type: note_off, time: 24, actual_time: 41916
type=note_on channel=0 note=57 velocity=0 time=96 actual_time=41916
type=note_on channel=0 note=59 velocity=80 time=24 actual_time=41940
type: note_off, time: 24, actual_time: 42132
type=note_on channel=0 note=59 velocity=0 time=192 actual_time=42132
type=note_on channel=0 note=59 velocity=80 time=228 actual_time=20
type: note_off, time: 228, actual_time: 116
type=note_on channel=0 note=59 velocity=0 time=96 actual_time=42456
type=note_on channel=0 note=59 velocity=80 time=24 actual_time=40
type: note_off, time: 24, actual_time: 136
type=note_on channel=0 note=59 velocity=0 time=96 actual_time=42576
type=note_on channel=0 note=59 velocity=80 time=24 actual_time=42600
type: note_off, time: 24, actual_time: 42648
type=note_on channel=0 note=59 velocity=0 time=48 actual_time=42648
type=note_on channel=0 note=59 velocity=80 time=12 actual_time=60
type: note_off, time: 12, actual_time: 228
type=note_on channel=0 note=59 velocity=0 time=168 actual_time=42828
type=note_on channel=0 note=59 velocity=80 time=12 actual_time=40
type: note_off, time: 12, actual_time: 136
type=note_on channel=0 note=57 velocity=0 time=96 actual_time=42936
type=note_on channel=0 note=59 velocity=80 time=24 actual_time=60
type: note_off, time: 24, actual_time: 156
type=note_on channel=0 note=57 velocity=0 time=96 actual_time=43056
type=note_on channel=0 note=59 velocity=80 time=24 actual_time=0
type: note_off, time: 24, actual_time: 48
type=note_on channel=0 note=54 velocity=0 time=48 actual_time=43128
type=note_on channel=0 note=57 velocity=80 time=12 actual_time=20
type: note_off, time: 12, actual_time: 176
type=note_on channel=0 note=57 velocity=0 time=156 actual_time=43296
type=note_on channel=0 note=59 velocity=80 time=24 actual_time=60
type: note_off, time: 24, actual_time: 156
type=note_on channel=0 note=57 velocity=0 time=96 actual_time=43416
type=note_on channel=0 note=59 velocity=80 time=24 actual_time=40
type: note_off, time: 24, actual_time: 136
type=note_on channel=0 note=57 velocity=0 time=96 actual_time=43536
type=note_on channel=0 note=59 velocity=80 time=24 actual_time=43560
type: note_off, time: 24, actual_time: 43608
type=note_on channel=0 note=54 velocity=0 time=48 actual_time=43608
type=note_on channel=0 note=59 velocity=80 time=12 actual_time=60
type: note_off, time: 12, actual_time: 204
type=note_on channel=0 note=57 velocity=0 time=144 actual_time=43764
type=note_on channel=0 note=59 velocity=80 time=36 actual_time=0
type: note_off, time: 36, actual_time: 48
type=note_on channel=0 note=57 velocity=0 time=48 actual_time=43848
type=note_on channel=0 note=59 velocity=80 time=12 actual_time=0
type: note_off, time: 12, actual_time: 96
type=note_on channel=0 note=57 velocity=0 time=96 actual_time=43956
type=note_on channel=0 note=59 velocity=80 time=24 actual_time=43980
type: note_off, time: 24, actual_time: 44076
type=note_on channel=0 note=57 velocity=0 time=96 actual_time=44076
type=note_on channel=0 note=59 velocity=80 time=24 actual_time=20
type: note_off, time: 24, actual_time: 176
type=note_on channel=0 note=54 velocity=0 time=156 actual_time=44256
type=note_on channel=0 note=59 velocity=80 time=24 actual_time=44280
type: note_off, time: 24, actual_time: 44376
type=note_on channel=0 note=54 velocity=0 time=96 actual_time=44376
type=note_on channel=0 note=59 velocity=80 time=24 actual_time=60
type: note_off, time: 24, actual_time: 156
type=note_on channel=0 note=54 velocity=0 time=96 actual_time=44496
type=note_on channel=0 note=59 velocity=80 time=24 actual_time=60
type: note_off, time: 24, actual_time: 108
type=note_on channel=0 note=54 velocity=0 time=48 actual_time=44568
type=note_on channel=0 note=54 velocity=80 time=12 actual_time=0
type: note_off, time: 12, actual_time: 144
type=note_on channel=0 note=54 velocity=0 time=144 actual_time=44724
type=note_on channel=0 note=59 velocity=80 time=96 actual_time=60
type: note_off, time: 96, actual_time: 108
type=note_on channel=0 note=54 velocity=0 time=48 actual_time=44868
type=note_on channel=0 note=55 velocity=80 time=12 actual_time=44880
type: note_off, time: 12, actual_time: 44928
type=note_on channel=0 note=54 velocity=0 time=48 actual_time=44928
type=note_on channel=0 note=59 velocity=80 time=12 actual_time=20
type: note_off, time: 12, actual_time: 164
type=note_on channel=0 note=54 velocity=0 time=144 actual_time=45084
type=note_on channel=0 note=59 velocity=80 time=36 actual_time=60
type: note_off, time: 36, actual_time: 108
type=note_on channel=0 note=62 velocity=0 time=48 actual_time=45168
type=note_on channel=0 note=62 velocity=80 time=12 actual_time=45180
type: note_off, time: 12, actual_time: 45324
type=note_on channel=0 note=62 velocity=0 time=144 actual_time=45324
type=note_on channel=0 note=59 velocity=80 time=36 actual_time=60
type: note_off, time: 36, actual_time: 108
type=note_on channel=0 note=62 velocity=0 time=48 actual_time=45408
type=note_on channel=0 note=59 velocity=80 time=12 actual_time=45420
type: note_off, time: 12, actual_time: 45516
type=note_on channel=0 note=62 velocity=0 time=96 actual_time=45516
type=note_on channel=0 note=59 velocity=80 time=24 actual_time=40
type: note_off, time: 24, actual_time: 232
type=note_on channel=0 note=61 velocity=0 time=192 actual_time=45732
type=note_on channel=0 note=59 velocity=80 time=468 actual_time=46200
type: note_off, time: 468, actual_time: 46296
type=note_on channel=0 note=59 velocity=0 time=96 actual_time=46296
type=note_on channel=0 note=59 velocity=80 time=24 actual_time=20
type: note_off, time: 24, actual_time: 116
type=note_on channel=0 note=59 velocity=0 time=96 actual_time=46416
type=note_on channel=0 note=59 velocity=80 time=24 actual_time=20
type: note_off, time: 24, actual_time: 116
type=note_on channel=0 note=59 velocity=0 time=96 actual_time=46536
type=note_on channel=0 note=59 velocity=80 time=24 actual_time=0
type: note_off, time: 24, actual_time: 96
type=note_on channel=0 note=62 velocity=0 time=96 actual_time=46656
type=note_on channel=0 note=59 velocity=80 time=24 actual_time=60
type: note_off, time: 24, actual_time: 156
type=note_on channel=0 note=59 velocity=0 time=96 actual_time=46776
type=note_on channel=0 note=59 velocity=80 time=24 actual_time=60
type: note_off, time: 24, actual_time: 156
type=note_on channel=0 note=59 velocity=0 time=96 actual_time=46896
type=note_on channel=0 note=59 velocity=80 time=24 actual_time=0
type: note_off, time: 24, actual_time: 96
type=note_on channel=0 note=59 velocity=0 time=96 actual_time=47016
type=note_on channel=0 note=59 velocity=80 time=24 actual_time=60
type: note_off, time: 24, actual_time: 156
type=note_on channel=0 note=62 velocity=0 time=96 actual_time=47136
type=note_on channel=0 note=59 velocity=80 time=24 actual_time=47160
type: note_off, time: 24, actual_time: 47256
type=note_on channel=0 note=62 velocity=0 time=96 actual_time=47256
type=note_on channel=0 note=67 velocity=80 time=24 actual_time=60
type: note_off, time: 24, actual_time: 156
type=note_on channel=0 note=62 velocity=0 time=96 actual_time=47376
type=note_on channel=0 note=62 velocity=80 time=24 actual_time=60
type: note_off, time: 24, actual_time: 156
type=note_on channel=0 note=62 velocity=0 time=96 actual_time=47496
type=note_on channel=0 note=59 velocity=80 time=24 actual_time=20
type: note_off, time: 24, actual_time: 116
type=note_on channel=0 note=61 velocity=0 time=96 actual_time=47616
type=note_on channel=0 note=59 velocity=80 time=24 actual_time=0
type: note_off, time: 24, actual_time: 48
type=note_on channel=0 note=61 velocity=0 time=48 actual_time=47688
type=note_on channel=0 note=59 velocity=80 time=12 actual_time=20
type: note_off, time: 12, actual_time: 212
type=note_on channel=0 note=62 velocity=0 time=192 actual_time=47892
type=note_on channel=0 note=59 velocity=80 time=228 actual_time=40
type: note_off, time: 228, actual_time: 136
type=note_on channel=0 note=59 velocity=0 time=96 actual_time=48216
type=note_on channel=0 note=59 velocity=80 time=24 actual_time=60
type: note_off, time: 24, actual_time: 156
type=note_on channel=0 note=59 velocity=0 time=96 actual_time=48336
type=note_on channel=0 note=59 velocity=80 time=24 actual_time=0
type: note_off, time: 24, actual_time: 48
type=note_on channel=0 note=59 velocity=0 time=48 actual_time=48408
type=note_on channel=0 note=59 velocity=80 time=12 actual_time=48420
type: note_off, time: 12, actual_time: 48588
type=note_on channel=0 note=62 velocity=0 time=168 actual_time=48588
type=note_on channel=0 note=59 velocity=80 time=12 actual_time=40
type: note_off, time: 12, actual_time: 136
type=note_on channel=0 note=59 velocity=0 time=96 actual_time=48696
type=note_on channel=0 note=59 velocity=80 time=24 actual_time=48720
type: note_off, time: 24, actual_time: 48816
type=note_on channel=0 note=59 velocity=0 time=96 actual_time=48816
type=note_on channel=0 note=59 velocity=80 time=24 actual_time=20
type: note_off, time: 24, actual_time: 116
type=note_on channel=0 note=59 velocity=0 time=96 actual_time=48936
type=note_on channel=0 note=59 velocity=80 time=24 actual_time=48960
type: note_off, time: 24, actual_time: 49056
type=note_on channel=0 note=62 velocity=0 time=96 actual_time=49056
type=note_on channel=0 note=62 velocity=80 time=24 actual_time=60
type: note_off, time: 24, actual_time: 156
type=note_on channel=0 note=62 velocity=0 time=96 actual_time=49176
type=note_on channel=0 note=59 velocity=80 time=24 actual_time=20
type: note_off, time: 24, actual_time: 116
type=note_on channel=0 note=62 velocity=0 time=96 actual_time=49296
type=note_on channel=0 note=59 velocity=80 time=24 actual_time=60
type: note_off, time: 24, actual_time: 156
type=note_on channel=0 note=62 velocity=0 time=96 actual_time=49416
type=note_on channel=0 note=61 velocity=80 time=24 actual_time=20
type: note_off, time: 24, actual_time: 116
type=note_on channel=0 note=61 velocity=0 time=96 actual_time=49536
type=note_on channel=0 note=59 velocity=80 time=24 actual_time=0
type: note_off, time: 24, actual_time: 96
type=note_on channel=0 note=61 velocity=0 time=96 actual_time=49656
type=note_on channel=0 note=59 velocity=80 time=24 actual_time=20
type: note_off, time: 24, actual_time: 116
type=note_on channel=0 note=61 velocity=0 time=96 actual_time=49776
type=note_on channel=0 note=59 velocity=80 time=24 actual_time=49800
type: note_off, time: 24, actual_time: 49896
type=note_on channel=0 note=62 velocity=0 time=96 actual_time=49896
type=note_on channel=0 note=59 velocity=80 time=144 actual_time=50040
type: note_off, time: 144, actual_time: 50136
type=note_on channel=0 note=59 velocity=0 time=96 actual_time=50136
type=note_on channel=0 note=59 velocity=80 time=24 actual_time=20
type: note_off, time: 24, actual_time: 116
type=note_on channel=0 note=59 velocity=0 time=96 actual_time=50256
type=note_on channel=0 note=59 velocity=80 time=24 actual_time=20
type: note_off, time: 24, actual_time: 116
type=note_on channel=0 note=59 velocity=0 time=96 actual_time=50376
type=note_on channel=0 note=59 velocity=80 time=24 actual_time=0
type: note_off, time: 24, actual_time: 96
type=note_on channel=0 note=62 velocity=0 time=96 actual_time=50496
type=note_on channel=0 note=59 velocity=80 time=24 actual_time=60
type: note_off, time: 24, actual_time: 156
type=note_on channel=0 note=59 velocity=0 time=96 actual_time=50616
type=note_on channel=0 note=59 velocity=80 time=24 actual_time=40
type: note_off, time: 24, actual_time: 136
type=note_on channel=0 note=57 velocity=0 time=96 actual_time=50736
type=note_on channel=0 note=59 velocity=80 time=24 actual_time=60
type: note_off, time: 24, actual_time: 156
type=note_on channel=0 note=57 velocity=0 time=96 actual_time=50856
type=note_on channel=0 note=59 velocity=80 time=24 actual_time=40
type: note_off, time: 24, actual_time: 136
type=note_on channel=0 note=62 velocity=0 time=96 actual_time=50976
type=note_on channel=0 note=62 velocity=80 time=24 actual_time=20
type: note_off, time: 24, actual_time: 116
type=note_on channel=0 note=62 velocity=0 time=96 actual_time=51096
type=note_on channel=0 note=59 velocity=80 time=24 actual_time=40
type: note_off, time: 24, actual_time: 136
type=note_on channel=0 note=62 velocity=0 time=96 actual_time=51216
type=note_on channel=0 note=59 velocity=80 time=24 actual_time=0
type: note_off, time: 24, actual_time: 192
type=note_on channel=0 note=61 velocity=0 time=192 actual_time=51432
type=note_on channel=0 note=59 velocity=80 time=48 actual_time=60
type: note_off, time: 48, actual_time: 252
type=note_on channel=0 note=61 velocity=0 time=192 actual_time=51672
type=note_on channel=0 note=59 velocity=80 time=48 actual_time=20
type: note_off, time: 48, actual_time: 116
type=note_on channel=0 note=61 velocity=0 time=96 actual_time=51816
type=note_on channel=0 note=59 velocity=80 time=24 actual_time=51840
type: note_off, time: 24, actual_time: 51936
type=note_on channel=0 note=62 velocity=0 time=96 actual_time=51936
type=note_on channel=0 note=65 velocity=80 time=144 actual_time=52080
type: note_off, time: 144, actual_time: 52176
type=note_on channel=0 note=62 velocity=0 time=96 actual_time=52176
type=note_on channel=0 note=59 velocity=80 time=24 actual_time=60
type: note_off, time: 24, actual_time: 108
type=note_on channel=0 note=59 velocity=0 time=48 actual_time=52248
type=note_on channel=0 note=59 velocity=80 time=12 actual_time=60
type: note_off, time: 12, actual_time: 252
type=note_on channel=0 note=57 velocity=0 time=192 actual_time=52452
type=note_on channel=0 note=59 velocity=80 time=4428 actual_time=20
type: note_off, time: 4428, actual_time: 116
type=note_on channel=0 note=57 velocity=0 time=96 actual_time=56976
type=note_on channel=0 note=59 velocity=80 time=24 actual_time=60
type: note_off, time: 24, actual_time: 108
type=note_on channel=0 note=57 velocity=0 time=48 actual_time=57048
type=note_on channel=0 note=57 velocity=80 time=12 actual_time=20
type: note_off, time: 12, actual_time: 116
type=note_on channel=0 note=57 velocity=0 time=96 actual_time=57156
type=note_on channel=0 note=59 velocity=80 time=24 actual_time=40
type: note_off, time: 24, actual_time: 136
type=note_on channel=0 note=57 velocity=0 time=96 actual_time=57276
type=note_on channel=0 note=59 velocity=80 time=24 actual_time=60
type: note_off, time: 24, actual_time: 156
type=note_on channel=0 note=57 velocity=0 time=96 actual_time=57396
type=note_on channel=0 note=59 velocity=80 time=24 actual_time=60
type: note_off, time: 24, actual_time: 156
type=note_on channel=0 note=57 velocity=0 time=96 actual_time=57516
type=note_on channel=0 note=59 velocity=80 time=24 actual_time=20
type: note_off, time: 24, actual_time: 176
type=note_on channel=0 note=57 velocity=0 time=156 actual_time=57696
type=note_on channel=0 note=59 velocity=80 time=7704 actual_time=20
type: note_off, time: 7704, actual_time: 116
type=note_on channel=0 note=59 velocity=0 time=96 actual_time=65496
type=note_on channel=0 note=59 velocity=80 time=24 actual_time=60
type: note_off, time: 24, actual_time: 156
type=note_on channel=0 note=59 velocity=0 time=96 actual_time=65616
type=note_on channel=0 note=59 velocity=80 time=24 actual_time=65640
type: note_off, time: 24, actual_time: 65736
type=note_on channel=0 note=59 velocity=0 time=96 actual_time=65736
type=note_on channel=0 note=59 velocity=80 time=24 actual_time=0
type: note_off, time: 24, actual_time: 96
type=note_on channel=0 note=59 velocity=0 time=96 actual_time=65856
type=note_on channel=0 note=59 velocity=80 time=24 actual_time=40
type: note_off, time: 24, actual_time: 136
type=note_on channel=0 note=57 velocity=0 time=96 actual_time=65976
type=note_on channel=0 note=59 velocity=80 time=24 actual_time=40
type: note_off, time: 24, actual_time: 136
type=note_on channel=0 note=57 velocity=0 time=96 actual_time=66096
type=note_on channel=0 note=59 velocity=80 time=24 actual_time=66120
type: note_off, time: 24, actual_time: 66216
type=note_on channel=0 note=57 velocity=0 time=96 actual_time=66216
type=note_on channel=0 note=57 velocity=80 time=24 actual_time=0
type: note_off, time: 24, actual_time: 96
type=note_on channel=0 note=57 velocity=0 time=96 actual_time=66336
type=note_on channel=0 note=61 velocity=80 time=24 actual_time=0
type: note_off, time: 24, actual_time: 96
type=note_on channel=0 note=57 velocity=0 time=96 actual_time=66456
type=note_on channel=0 note=61 velocity=80 time=24 actual_time=66480
type: note_off, time: 24, actual_time: 66576
type=note_on channel=0 note=57 velocity=0 time=96 actual_time=66576
type=note_on channel=0 note=59 velocity=80 time=24 actual_time=0
type: note_off, time: 24, actual_time: 96
type=note_on channel=0 note=57 velocity=0 time=96 actual_time=66696
type=note_on channel=0 note=59 velocity=80 time=24 actual_time=60
type: note_off, time: 24, actual_time: 156
type=note_on channel=0 note=57 velocity=0 time=96 actual_time=66816
type=note_on channel=0 note=53 velocity=80 time=24 actual_time=0
type: note_off, time: 24, actual_time: 48
type=note_on channel=0 note=57 velocity=0 time=48 actual_time=66888
type=note_on channel=0 note=59 velocity=80 time=12 actual_time=40
type: note_off, time: 12, actual_time: 232
type=note_on channel=0 note=57 velocity=0 time=192 actual_time=67092
type=note_on channel=0 note=59 velocity=80 time=228 actual_time=40
type: note_off, time: 228, actual_time: 136
type=note_on channel=0 note=54 velocity=0 time=96 actual_time=67416
type=note_on channel=0 note=59 velocity=80 time=24 actual_time=60
type: note_off, time: 24, actual_time: 156
type=note_on channel=0 note=54 velocity=0 time=96 actual_time=67536
type=note_on channel=0 note=59 velocity=80 time=24 actual_time=40
type: note_off, time: 24, actual_time: 88
type=note_on channel=0 note=54 velocity=0 time=48 actual_time=67608
type=note_on channel=0 note=59 velocity=80 time=12 actual_time=67620
type: note_off, time: 12, actual_time: 67764
type=note_on channel=0 note=57 velocity=0 time=144 actual_time=67764
type=note_on channel=0 note=59 velocity=80 time=36 actual_time=67800
type: note_off, time: 36, actual_time: 67896
type=note_on channel=0 note=57 velocity=0 time=96 actual_time=67896
type=note_on channel=0 note=62 velocity=80 time=24 actual_time=40
type: note_off, time: 24, actual_time: 136
type=note_on channel=0 note=57 velocity=0 time=96 actual_time=68016
type=note_on channel=0 note=57 velocity=80 time=24 actual_time=20
type: note_off, time: 24, actual_time: 116
type=note_on channel=0 note=57 velocity=0 time=96 actual_time=68136
type=note_on channel=0 note=59 velocity=80 time=24 actual_time=0
type: note_off, time: 24, actual_time: 96
type=note_on channel=0 note=59 velocity=0 time=96 actual_time=68256
type=note_on channel=0 note=59 velocity=80 time=24 actual_time=0
type: note_off, time: 24, actual_time: 96
type=note_on channel=0 note=59 velocity=0 time=96 actual_time=68376
type=note_on channel=0 note=59 velocity=80 time=24 actual_time=68400
type: note_off, time: 24, actual_time: 68496
type=note_on channel=0 note=59 velocity=0 time=96 actual_time=68496
type=note_on channel=0 note=59 velocity=80 time=144 actual_time=68640
type: note_off, time: 144, actual_time: 68736
type=note_on channel=0 note=62 velocity=0 time=96 actual_time=68736
type=note_on channel=0 note=59 velocity=80 time=24 actual_time=68760
type: note_off, time: 24, actual_time: 68856
type=note_on channel=0 note=59 velocity=0 time=96 actual_time=68856
type=note_on channel=0 note=59 velocity=80 time=24 actual_time=20
type: note_off, time: 24, actual_time: 116
type=note_on channel=0 note=59 velocity=0 time=96 actual_time=68976
type=note_on channel=0 note=54 velocity=80 time=24 actual_time=40
type: note_off, time: 24, actual_time: 184
type=note_on channel=0 note=59 velocity=80 time=120 actual_time=60
type: note_off, time: 120, actual_time: 156
type=note_on channel=0 note=59 velocity=0 time=24 actual_time=69144
type=note_on channel=0 note=57 velocity=0 time=72 actual_time=69216
type=note_on channel=0 note=61 velocity=80 time=24 actual_time=69240
type: note_off, time: 24, actual_time: 69336
type=note_on channel=0 note=57 velocity=0 time=96 actual_time=69336
type=note_on channel=0 note=59 velocity=80 time=24 actual_time=60
type: note_off, time: 24, actual_time: 156
type=note_on channel=0 note=57 velocity=0 time=96 actual_time=69456
type=note_on channel=0 note=59 velocity=80 time=24 actual_time=40
type: note_off, time: 24, actual_time: 136
type=note_on channel=0 note=57 velocity=0 time=96 actual_time=69576
type=note_on channel=0 note=59 velocity=80 time=24 actual_time=69600
type: note_off, time: 24, actual_time: 69696
type=note_on channel=0 note=57 velocity=0 time=96 actual_time=69696
type=note_on channel=0 note=57 velocity=80 time=24 actual_time=0
type: note_off, time: 24, actual_time: 96
type=note_on channel=0 note=57 velocity=0 time=96 actual_time=69816
type=note_on channel=0 note=57 velocity=80 time=24 actual_time=60
type: note_off, time: 24, actual_time: 156
type=note_on channel=0 note=57 velocity=0 time=96 actual_time=69936
type=note_on channel=0 note=59 velocity=80 time=24 actual_time=20
type: note_off, time: 24, actual_time: 116
type=note_on channel=0 note=57 velocity=0 time=96 actual_time=70056
type=note_on channel=0 note=59 velocity=80 time=24 actual_time=0
type: note_off, time: 24, actual_time: 96
type=note_on channel=0 note=57 velocity=0 time=96 actual_time=70176
type=note_on channel=0 note=57 velocity=80 time=24 actual_time=0
type: note_off, time: 24, actual_time: 96
type=note_on channel=0 note=57 velocity=0 time=96 actual_time=70296
type=note_on channel=0 note=59 velocity=80 time=24 actual_time=20
type: note_off, time: 24, actual_time: 116
type=note_on channel=0 note=57 velocity=0 time=96 actual_time=70416
type=note_on channel=0 note=59 velocity=80 time=24 actual_time=20
type: note_off, time: 24, actual_time: 212
type=note_on channel=0 note=57 velocity=0 time=192 actual_time=70632
type=note_on channel=0 note=59 velocity=80 time=48 actual_time=60
type: note_off, time: 48, actual_time: 252
type=note_on channel=0 note=57 velocity=0 time=192 actual_time=70872
type=note_on channel=0 note=59 velocity=80 time=48 actual_time=0
type: note_off, time: 48, actual_time: 216
type=note_on channel=0 note=59 velocity=0 time=216 actual_time=71136
type=note_on channel=0 note=59 velocity=80 time=144 actual_time=20
type: note_off, time: 144, actual_time: 116
type=note_on channel=0 note=62 velocity=0 time=96 actual_time=71376
type=note_on channel=0 note=59 velocity=80 time=24 actual_time=60
type: note_off, time: 24, actual_time: 108
type=note_on channel=0 note=59 velocity=0 time=48 actual_time=71448
type=note_on channel=0 note=62 velocity=80 time=12 actual_time=60
type: note_off, time: 12, actual_time: 444
type=note_on channel=0 note=62 velocity=0 time=384 actual_time=71844
type=note_on channel=0 note=65 velocity=80 time=156 actual_time=40
type: note_off, time: 156, actual_time: 808
type=note_on channel=0 note=66 velocity=0 time=768 actual_time=72768
type=note_on channel=0 note=59 velocity=80 time=312 actual_time=0
type: note_off, time: 312, actual_time: 96
type=note_on channel=0 note=59 velocity=0 time=96 actual_time=73176
type=note_on channel=0 note=59 velocity=80 time=24 actual_time=0
type: note_off, time: 24, actual_time: 96
type=note_on channel=0 note=59 velocity=0 time=96 actual_time=73296
type=note_on channel=0 note=59 velocity=80 time=24 actual_time=73320
type: note_off, time: 24, actual_time: 73416
type=note_on channel=0 note=59 velocity=0 time=96 actual_time=73416
type=note_on channel=0 note=59 velocity=80 time=24 actual_time=73440
type: note_off, time: 24, actual_time: 73536
type=note_on channel=0 note=62 velocity=0 time=96 actual_time=73536
type=note_on channel=0 note=56 velocity=80 time=24 actual_time=0
type: note_off, time: 24, actual_time: 96
type=note_on channel=0 note=59 velocity=0 time=96 actual_time=73656
type=note_on channel=0 note=59 velocity=80 time=24 actual_time=60
type: note_off, time: 24, actual_time: 156
type=note_on channel=0 note=59 velocity=0 time=96 actual_time=73776
type=note_on channel=0 note=59 velocity=80 time=24 actual_time=73800
type: note_off, time: 24, actual_time: 73896
type=note_on channel=0 note=59 velocity=0 time=96 actual_time=73896
type=note_on channel=0 note=59 velocity=80 time=24 actual_time=0
type: note_off, time: 24, actual_time: 96
type=note_on channel=0 note=62 velocity=0 time=96 actual_time=74016
type=note_on channel=0 note=59 velocity=80 time=24 actual_time=40
type: note_off, time: 24, actual_time: 136
type=note_on channel=0 note=62 velocity=0 time=96 actual_time=74136
type=note_on channel=0 note=62 velocity=80 time=24 actual_time=40
type: note_off, time: 24, actual_time: 136
type=note_on channel=0 note=62 velocity=0 time=96 actual_time=74256
type=note_on channel=0 note=59 velocity=80 time=24 actual_time=0
type: note_off, time: 24, actual_time: 96
type=note_on channel=0 note=62 velocity=0 time=96 actual_time=74376
type=note_on channel=0 note=59 velocity=80 time=24 actual_time=20
type: note_off, time: 24, actual_time: 116
type=note_on channel=0 note=61 velocity=0 time=96 actual_time=74496
type=note_on channel=0 note=61 velocity=80 time=24 actual_time=20
type: note_off, time: 24, actual_time: 68
type=note_on channel=0 note=61 velocity=0 time=48 actual_time=74568
type=note_on channel=0 note=59 velocity=80 time=12 actual_time=40
type: note_off, time: 12, actual_time: 232
type=note_on channel=0 note=62 velocity=0 time=192 actual_time=74772
type=note_on channel=0 note=59 velocity=80 time=228 actual_time=20
type: note_off, time: 228, actual_time: 116
type=note_on channel=0 note=59 velocity=0 time=96 actual_time=75096
type=note_on channel=0 note=59 velocity=80 time=24 actual_time=60
type: note_off, time: 24, actual_time: 156
type=note_on channel=0 note=59 velocity=0 time=96 actual_time=75216
type=note_on channel=0 note=59 velocity=80 time=24 actual_time=75240
type: note_off, time: 24, actual_time: 75288
type=note_on channel=0 note=59 velocity=0 time=48 actual_time=75288
type=note_on channel=0 note=62 velocity=80 time=12 actual_time=60
type: note_off, time: 12, actual_time: 228
type=note_on channel=0 note=62 velocity=0 time=168 actual_time=75468
type=note_on channel=0 note=59 velocity=80 time=12 actual_time=0
type: note_off, time: 12, actual_time: 96
type=note_on channel=0 note=59 velocity=0 time=96 actual_time=75576
type=note_on channel=0 note=59 velocity=80 time=24 actual_time=40
type: note_off, time: 24, actual_time: 136
type=note_on channel=0 note=59 velocity=0 time=96 actual_time=75696
type=note_on channel=0 note=58 velocity=80 time=24 actual_time=0
type: note_off, time: 24, actual_time: 96
type=note_on channel=0 note=59 velocity=0 time=96 actual_time=75816
type=note_on channel=0 note=61 velocity=80 time=24 actual_time=40
type: note_off, time: 24, actual_time: 136
type=note_on channel=0 note=62 velocity=0 time=96 actual_time=75936
type=note_on channel=0 note=62 velocity=80 time=24 actual_time=0
type: note_off, time: 24, actual_time: 96
type=note_on channel=0 note=62 velocity=0 time=96 actual_time=76056
type=note_on channel=0 note=62 velocity=80 time=24 actual_time=0
type: note_off, time: 24, actual_time: 96
type=note_on channel=0 note=62 velocity=0 time=96 actual_time=76176
type=note_on channel=0 note=59 velocity=80 time=24 actual_time=60
type: note_off, time: 24, actual_time: 156
type=note_on channel=0 note=62 velocity=0 time=96 actual_time=76296
type=note_on channel=0 note=59 velocity=80 time=24 actual_time=60
type: note_off, time: 24, actual_time: 156
type=note_on channel=0 note=61 velocity=0 time=96 actual_time=76416
type=note_on channel=0 note=59 velocity=80 time=24 actual_time=60
type: note_off, time: 24, actual_time: 156
type=note_on channel=0 note=61 velocity=0 time=96 actual_time=76536
type=note_on channel=0 note=59 velocity=80 time=24 actual_time=76560
type: note_off, time: 24, actual_time: 76656
type=note_on channel=0 note=61 velocity=0 time=96 actual_time=76656
type=note_on channel=0 note=64 velocity=80 time=24 actual_time=40
type: note_off, time: 24, actual_time: 136
type=note_on channel=0 note=62 velocity=0 time=96 actual_time=76776
type=note_on channel=0 note=59 velocity=80 time=144 actual_time=0
type: note_off, time: 144, actual_time: 96
type=note_on channel=0 note=59 velocity=0 time=96 actual_time=77016
type=note_on channel=0 note=59 velocity=80 time=24 actual_time=20
type: note_off, time: 24, actual_time: 116
type=note_on channel=0 note=59 velocity=0 time=96 actual_time=77136
type=note_on channel=0 note=59 velocity=80 time=24 actual_time=60
type: note_off, time: 24, actual_time: 156
type=note_on channel=0 note=59 velocity=0 time=96 actual_time=77256
type=note_on channel=0 note=62 velocity=80 time=24 actual_time=60
type: note_off, time: 24, actual_time: 156
type=note_on channel=0 note=62 velocity=0 time=96 actual_time=77376
type=note_on channel=0 note=59 velocity=80 time=24 actual_time=77400
type: note_off, time: 24, actual_time: 77496
type=note_on channel=0 note=59 velocity=0 time=96 actual_time=77496
type=note_on channel=0 note=57 velocity=80 time=24 actual_time=77520
type: note_off, time: 24, actual_time: 77616
type=note_on channel=0 note=57 velocity=0 time=96 actual_time=77616
type=note_on channel=0 note=57 velocity=80 time=24 actual_time=60
type: note_off, time: 24, actual_time: 156
type=note_on channel=0 note=57 velocity=0 time=96 actual_time=77736
type=note_on channel=0 note=59 velocity=80 time=24 actual_time=40
type: note_off, time: 24, actual_time: 136
type=note_on channel=0 note=62 velocity=0 time=96 actual_time=77856
type=note_on channel=0 note=62 velocity=80 time=24 actual_time=60
type: note_off, time: 24, actual_time: 156
type=note_on channel=0 note=62 velocity=0 time=96 actual_time=77976
type=note_on channel=0 note=59 velocity=80 time=24 actual_time=60
type: note_off, time: 24, actual_time: 156
type=note_on channel=0 note=62 velocity=0 time=96 actual_time=78096
type=note_on channel=0 note=59 velocity=80 time=24 actual_time=78120
type: note_off, time: 24, actual_time: 78312
type=note_on channel=0 note=61 velocity=0 time=192 actual_time=78312
type=note_on channel=0 note=59 velocity=80 time=48 actual_time=20
type: note_off, time: 48, actual_time: 212
type=note_on channel=0 note=61 velocity=0 time=192 actual_time=78552
type=note_on channel=0 note=59 velocity=80 time=48 actual_time=40
type: note_off, time: 48, actual_time: 136
type=note_on channel=0 note=61 velocity=0 time=96 actual_time=78696
type=note_on channel=0 note=62 velocity=80 time=24 actual_time=60
type: note_off, time: 24, actual_time: 156
type=note_on channel=0 note=62 velocity=0 time=96 actual_time=78816
type=note_on channel=0 note=59 velocity=80 time=144 actual_time=78960
type: note_off, time: 144, actual_time: 79056
type=note_on channel=0 note=62 velocity=0 time=96 actual_time=79056
type=note_on channel=0 note=54 velocity=80 time=24 actual_time=20
type: note_off, time: 24, actual_time: 68
type=note_on channel=0 note=59 velocity=0 time=48 actual_time=79128
type=note_on channel=0 note=57 velocity=80 time=12 actual_time=79140
type: note_off, time: 12, actual_time: 79332
type=note_on channel=0 note=57 velocity=0 time=192 actual_time=79332
type=note_on channel=0 note=59 velocity=80 time=2748 actual_time=60
type: note_off, time: 2748, actual_time: 156
type=note_on channel=0 note=59 velocity=0 time=96 actual_time=82176
type=note_on channel=0 note=57 velocity=80 time=24 actual_time=0
type: note_off, time: 24, actual_time: 96
type=note_on channel=0 note=57 velocity=0 time=96 actual_time=82296
type=note_on channel=0 note=57 velocity=80 time=24 actual_time=0
type: note_off, time: 24, actual_time: 96
type=note_on channel=0 note=57 velocity=0 time=96 actual_time=82416
type=note_on channel=0 note=59 velocity=80 time=24 actual_time=60
type: note_off, time: 24, actual_time: 156
type=note_on channel=0 note=59 velocity=0 time=96 actual_time=82536
type=note_on channel=0 note=59 velocity=80 time=24 actual_time=82560
type: note_off, time: 24, actual_time: 83328
type=note_on channel=0 note=59 velocity=0 time=768 actual_time=83328
type=note_on channel=0 note=57 velocity=80 time=672 actual_time=84000
type: note_off, time: 672, actual_time: 84096
type=note_on channel=0 note=59 velocity=0 time=96 actual_time=84096
type=note_on channel=0 note=59 velocity=80 time=24 actual_time=0
type: note_off, time: 24, actual_time: 96
type=note_on channel=0 note=57 velocity=0 time=96 actual_time=84216
type=note_on channel=0 note=57 velocity=80 time=24 actual_time=60
type: note_off, time: 24, actual_time: 156
type=note_on channel=0 note=57 velocity=0 time=96 actual_time=84336
type=note_on channel=0 note=59 velocity=80 time=24 actual_time=40
type: note_off, time: 24, actual_time: 136
type=note_on channel=0 note=59 velocity=0 time=96 actual_time=84456
type=note_on channel=0 note=56 velocity=80 time=24 actual_time=0
type: note_off, time: 24, actual_time: 768
type=note_on channel=0 note=59 velocity=0 time=768 actual_time=85248
type=note_on channel=0 note=62 velocity=80 time=672 actual_time=20
type: note_off, time: 672, actual_time: 116
type=note_on channel=0 note=59 velocity=0 time=96 actual_time=86016
type=note_on channel=0 note=57 velocity=80 time=24 actual_time=40
type: note_off, time: 24, actual_time: 136
type=note_on channel=0 note=57 velocity=0 time=96 actual_time=86136
type=note_on channel=0 note=59 velocity=80 time=24 actual_time=60
type: note_off, time: 24, actual_time: 156
type=note_on channel=0 note=57 velocity=0 time=96 actual_time=86256
type=note_on channel=0 note=59 velocity=80 time=24 actual_time=60
type: note_off, time: 24, actual_time: 156
type=note_on channel=0 note=59 velocity=0 time=96 actual_time=86376
type=note_on channel=0 note=59 velocity=80 time=24 actual_time=0
type: note_off, time: 24, actual_time: 1728
type=note_on channel=0 note=59 velocity=0 time=1728 actual_time=88128
MetaMessage type: end_of_track, time: 0, actual_time: 88128
MetaMessage type: track_name, time: 0, actual_time: 0
type: program_change, time: 0, actual_time: 0
type=control_change channel=1 control=7 value=99 time=0 actual_time=0
type=note_on channel=1 note=65 velocity=80 time=27840 actual_time=180
type: note_off, time: 27840, actual_time: 276
type=note_on channel=1 note=66 velocity=0 time=96 actual_time=27936
type=note_on channel=1 note=66 velocity=80 time=24 actual_time=180
type: note_off, time: 24, actual_time: 276
type=note_on channel=1 note=66 velocity=0 time=96 actual_time=28056
type=note_on channel=1 note=66 velocity=80 time=24 actual_time=28080
type: note_off, time: 24, actual_time: 28176
type=note_on channel=1 note=66 velocity=0 time=96 actual_time=28176
type=note_on channel=1 note=66 velocity=80 time=24 actual_time=180
type: note_off, time: 24, actual_time: 276
type=note_on channel=1 note=66 velocity=0 time=96 actual_time=28296
type=note_on channel=1 note=66 velocity=80 time=24 actual_time=60
type: note_off, time: 24, actual_time: 156
type=note_on channel=1 note=64 velocity=0 time=96 actual_time=28416
type=note_on channel=1 note=66 velocity=80 time=24 actual_time=120
type: note_off, time: 24, actual_time: 168
type=note_on channel=1 note=64 velocity=0 time=48 actual_time=28488
type=note_on channel=1 note=66 velocity=80 time=12 actual_time=0
type: note_off, time: 12, actual_time: 192
type=note_on channel=1 note=66 velocity=0 time=192 actual_time=28692
type=note_on channel=1 note=66 velocity=80 time=1548 actual_time=180
type: note_off, time: 1548, actual_time: 276
type=note_on channel=1 note=64 velocity=0 time=96 actual_time=30336
type=note_on channel=1 note=62 velocity=80 time=24 actual_time=30360
type: note_off, time: 24, actual_time: 30456
type=note_on channel=1 note=64 velocity=0 time=96 actual_time=30456
type=note_on channel=1 note=66 velocity=80 time=24 actual_time=180
type: note_off, time: 24, actual_time: 276
type=note_on channel=1 note=64 velocity=0 time=96 actual_time=30576
type=note_on channel=1 note=66 velocity=80 time=24 actual_time=180
type: note_off, time: 24, actual_time: 276
type=note_on channel=1 note=66 velocity=0 time=96 actual_time=30696
type=note_on channel=1 note=70 velocity=80 time=984 actual_time=31680
type: note_off, time: 984, actual_time: 31776
type=note_on channel=1 note=66 velocity=0 time=96 actual_time=31776
type=note_on channel=1 note=66 velocity=80 time=24 actual_time=120
type: note_off, time: 24, actual_time: 216
type=note_on channel=1 note=66 velocity=0 time=96 actual_time=31896
type=note_on channel=1 note=66 velocity=80 time=24 actual_time=31920
type: note_off, time: 24, actual_time: 32016
type=note_on channel=1 note=66 velocity=0 time=96 actual_time=32016
type=note_on channel=1 note=64 velocity=80 time=24 actual_time=32040
type: note_off, time: 24, actual_time: 32232
type=note_on channel=1 note=64 velocity=0 time=192 actual_time=32232
type=note_on channel=1 note=66 velocity=80 time=48 actual_time=0
type: note_off, time: 48, actual_time: 192
type=note_on channel=1 note=64 velocity=0 time=192 actual_time=32472
type=note_on channel=1 note=66 velocity=80 time=48 actual_time=60
type: note_off, time: 48, actual_time: 156
type=note_on channel=1 note=64 velocity=0 time=96 actual_time=32616
type=note_on channel=1 note=66 velocity=80 time=24 actual_time=60
type: note_off, time: 24, actual_time: 156
type=note_on channel=1 note=66 velocity=0 time=96 actual_time=32736
type=note_on channel=1 note=66 velocity=80 time=14304 actual_time=180
type: note_off, time: 14304, actual_time: 276
type=note_on channel=1 note=66 velocity=0 time=96 actual_time=47136
type=note_on channel=1 note=66 velocity=80 time=24 actual_time=0
type: note_off, time: 24, actual_time: 96
type=note_on channel=1 note=66 velocity=0 time=96 actual_time=47256
type=note_on channel=1 note=66 velocity=80 time=24 actual_time=0
type: note_off, time: 24, actual_time: 96
type=note_on channel=1 note=66 velocity=0 time=96 actual_time=47376
type=note_on channel=1 note=66 velocity=80 time=24 actual_time=47400
type: note_off, time: 24, actual_time: 47496
type=note_on channel=1 note=66 velocity=0 time=96 actual_time=47496
type=note_on channel=1 note=66 velocity=80 time=24 actual_time=120
type: note_off, time: 24, actual_time: 216
type=note_on channel=1 note=64 velocity=0 time=96 actual_time=47616
type=note_on channel=1 note=66 velocity=80 time=24 actual_time=0
type: note_off, time: 24, actual_time: 48
type=note_on channel=1 note=64 velocity=0 time=48 actual_time=47688
type=note_on channel=1 note=66 velocity=80 time=12 actual_time=180
type: note_off, time: 12, actual_time: 372
type=note_on channel=1 note=66 velocity=0 time=192 actual_time=47892
type=note_on channel=1 note=66 velocity=80 time=1548 actual_time=0
type: note_off, time: 1548, actual_time: 96
type=note_on channel=1 note=64 velocity=0 time=96 actual_time=49536
type=note_on channel=1 note=66 velocity=80 time=24 actual_time=60
type: note_off, time: 24, actual_time: 156
type=note_on channel=1 note=64 velocity=0 time=96 actual_time=49656
type=note_on channel=1 note=66 velocity=80 time=24 actual_time=180
type: note_off, time: 24, actual_time: 276
type=note_on channel=1 note=64 velocity=0 time=96 actual_time=49776
type=note_on channel=1 note=66 velocity=80 time=24 actual_time=180
type: note_off, time: 24, actual_time: 276
type=note_on channel=1 note=66 velocity=0 time=96 actual_time=49896
type=note_on channel=1 note=66 velocity=80 time=984 actual_time=120
type: note_off, time: 984, actual_time: 216
type=note_on channel=1 note=66 velocity=0 time=96 actual_time=50976
type=note_on channel=1 note=66 velocity=80 time=24 actual_time=0
type: note_off, time: 24, actual_time: 96
type=note_on channel=1 note=66 velocity=0 time=96 actual_time=51096
type=note_on channel=1 note=66 velocity=80 time=24 actual_time=120
type: note_off, time: 24, actual_time: 216
type=note_on channel=1 note=66 velocity=0 time=96 actual_time=51216
type=note_on channel=1 note=66 velocity=80 time=24 actual_time=60
type: note_off, time: 24, actual_time: 252
type=note_on channel=1 note=64 velocity=0 time=192 actual_time=51432
type=note_on channel=1 note=66 velocity=80 time=48 actual_time=51480
type: note_off, time: 48, actual_time: 51672
type=note_on channel=1 note=64 velocity=0 time=192 actual_time=51672
type=note_on channel=1 note=66 velocity=80 time=48 actual_time=0
type: note_off, time: 48, actual_time: 96
type=note_on channel=1 note=64 velocity=0 time=96 actual_time=51816
type=note_on channel=1 note=66 velocity=80 time=24 actual_time=51840
type: note_off, time: 24, actual_time: 51936
type=note_on channel=1 note=66 velocity=0 time=96 actual_time=51936
type=note_on channel=1 note=66 velocity=80 time=21984 actual_time=60
type: note_off, time: 21984, actual_time: 156
type=note_on channel=1 note=66 velocity=0 time=96 actual_time=74016
type=note_on channel=1 note=66 velocity=80 time=24 actual_time=180
type: note_off, time: 24, actual_time: 276
type=note_on channel=1 note=66 velocity=0 time=96 actual_time=74136
type=note_on channel=1 note=66 velocity=80 time=24 actual_time=180
type: note_off, time: 24, actual_time: 276
type=note_on channel=1 note=66 velocity=0 time=96 actual_time=74256
type=note_on channel=1 note=66 velocity=80 time=24 actual_time=180
type: note_off, time: 24, actual_time: 276
type=note_on channel=1 note=66 velocity=0 time=96 actual_time=74376
type=note_on channel=1 note=66 velocity=80 time=24 actual_time=60
type: note_off, time: 24, actual_time: 156
type=note_on channel=1 note=64 velocity=0 time=96 actual_time=74496
type=note_on channel=1 note=66 velocity=80 time=24 actual_time=0
type: note_off, time: 24, actual_time: 48
type=note_on channel=1 note=64 velocity=0 time=48 actual_time=74568
type=note_on channel=1 note=66 velocity=80 time=12 actual_time=0
type: note_off, time: 12, actual_time: 192
type=note_on channel=1 note=66 velocity=0 time=192 actual_time=74772
type=note_on channel=1 note=64 velocity=80 time=1548 actual_time=60
type: note_off, time: 1548, actual_time: 156
type=note_on channel=1 note=64 velocity=0 time=96 actual_time=76416
type=note_on channel=1 note=66 velocity=80 time=24 actual_time=60
type: note_off, time: 24, actual_time: 156
type=note_on channel=1 note=64 velocity=0 time=96 actual_time=76536
type=note_on channel=1 note=66 velocity=80 time=24 actual_time=120
type: note_off, time: 24, actual_time: 216
type=note_on channel=1 note=64 velocity=0 time=96 actual_time=76656
type=note_on channel=1 note=66 velocity=80 time=24 actual_time=76680
type: note_off, time: 24, actual_time: 76776
type=note_on channel=1 note=66 velocity=0 time=96 actual_time=76776
type=note_on channel=1 note=66 velocity=80 time=984 actual_time=0
type: note_off, time: 984, actual_time: 96
type=note_on channel=1 note=66 velocity=0 time=96 actual_time=77856
type=note_on channel=1 note=66 velocity=80 time=24 actual_time=60
type: note_off, time: 24, actual_time: 156
type=note_on channel=1 note=66 velocity=0 time=96 actual_time=77976
type=note_on channel=1 note=66 velocity=80 time=24 actual_time=180
type: note_off, time: 24, actual_time: 276
type=note_on channel=1 note=66 velocity=0 time=96 actual_time=78096
type=note_on channel=1 note=64 velocity=80 time=24 actual_time=60
type: note_off, time: 24, actual_time: 252
type=note_on channel=1 note=64 velocity=0 time=192 actual_time=78312
type=note_on channel=1 note=66 velocity=80 time=48 actual_time=60
type: note_off, time: 48, actual_time: 252
type=note_on channel=1 note=64 velocity=0 time=192 actual_time=78552
type=note_on channel=1 note=66 velocity=80 time=48 actual_time=120
type: note_off, time: 48, actual_time: 216
type=note_on channel=1 note=64 velocity=0 time=96 actual_time=78696
type=note_on channel=1 note=66 velocity=80 time=24 actual_time=120
type: note_off, time: 24, actual_time: 216
type=note_on channel=1 note=66 velocity=0 time=96 actual_time=78816
type=note_on channel=1 note=66 velocity=80 time=3264 actual_time=180
type: note_off, time: 3264, actual_time: 276
type=note_on channel=1 note=62 velocity=0 time=96 actual_time=82176
type=note_on channel=1 note=66 velocity=80 time=24 actual_time=120
type: note_off, time: 24, actual_time: 216
type=note_on channel=1 note=61 velocity=0 time=96 actual_time=82296
type=note_on channel=1 note=66 velocity=80 time=24 actual_time=60
type: note_off, time: 24, actual_time: 156
type=note_on channel=1 note=61 velocity=0 time=96 actual_time=82416
type=note_on channel=1 note=66 velocity=80 time=24 actual_time=180
type: note_off, time: 24, actual_time: 276
type=note_on channel=1 note=62 velocity=0 time=96 actual_time=82536
type=note_on channel=1 note=66 velocity=80 time=24 actual_time=0
type: note_off, time: 24, actual_time: 768
type=note_on channel=1 note=62 velocity=0 time=768 actual_time=83328
type=note_on channel=1 note=62 velocity=80 time=672 actual_time=84000
type: note_off, time: 672, actual_time: 84096
type=note_on channel=1 note=62 velocity=0 time=96 actual_time=84096
type=note_on channel=1 note=66 velocity=80 time=24 actual_time=0
type: note_off, time: 24, actual_time: 96
type=note_on channel=1 note=61 velocity=0 time=96 actual_time=84216
type=note_on channel=1 note=66 velocity=80 time=24 actual_time=0
type: note_off, time: 24, actual_time: 96
type=note_on channel=1 note=61 velocity=0 time=96 actual_time=84336
type=note_on channel=1 note=66 velocity=80 time=24 actual_time=0
type: note_off, time: 24, actual_time: 96
type=note_on channel=1 note=62 velocity=0 time=96 actual_time=84456
type=note_on channel=1 note=66 velocity=80 time=24 actual_time=0
type: note_off, time: 24, actual_time: 768
type=note_on channel=1 note=62 velocity=0 time=768 actual_time=85248
type=note_on channel=1 note=62 velocity=80 time=672 actual_time=180
type: note_off, time: 672, actual_time: 276
type=note_on channel=1 note=62 velocity=0 time=96 actual_time=86016
type=note_on channel=1 note=65 velocity=80 time=24 actual_time=0
type: note_off, time: 24, actual_time: 96
type=note_on channel=1 note=61 velocity=0 time=96 actual_time=86136
type=note_on channel=1 note=66 velocity=80 time=24 actual_time=0
type: note_off, time: 24, actual_time: 96
type=note_on channel=1 note=61 velocity=0 time=96 actual_time=86256
type=note_on channel=1 note=66 velocity=80 time=24 actual_time=180
type: note_off, time: 24, actual_time: 276
type=note_on channel=1 note=62 velocity=0 time=96 actual_time=86376
type=note_on channel=1 note=66 velocity=80 time=24 actual_time=60
type: note_off, time: 24, actual_time: 1788
type=note_on channel=1 note=62 velocity=0 time=1728 actual_time=88128
MetaMessage type: end_of_track, time: 0, actual_time: 88128
MetaMessage type: track_name, time: 0, actual_time: 0
type: program_change, time: 0, actual_time: 0
type=control_change channel=2 control=7 value=109 time=0 actual_time=0
type=note_on channel=2 note=59 velocity=80 time=3780 actual_time=60
type: note_off, time: 3780, actual_time: 76
type=note_on channel=2 note=59 velocity=0 time=16 actual_time=3796
type=note_on channel=2 note=59 velocity=80 time=4 actual_time=3800
type: note_off, time: 4, actual_time: 3816
type=note_on channel=2 note=66 velocity=0 time=16 actual_time=3816
type=note_on channel=2 note=71 velocity=80 time=4 actual_time=3820
type: note_off, time: 4, actual_time: 3836
type=note_on channel=2 note=71 velocity=0 time=16 actual_time=3836
type=note_on channel=2 note=59 velocity=80 time=4 actual_time=60
type: note_off, time: 4, actual_time: 828
type=note_on channel=2 note=59 velocity=80 time=0 actual_time=3840
type: note_off, time: 0, actual_time: 4608
type=note_on channel=2 note=59 velocity=80 time=0 actual_time=0
type: note_off, time: 0, actual_time: 768
type=note_on channel=2 note=66 velocity=0 time=768 actual_time=4608
type=note_on channel=2 note=71 velocity=0 time=0 actual_time=4608
type=note_on channel=2 note=59 velocity=0 time=0 actual_time=4608
type=note_on channel=2 note=59 velocity=80 time=192 actual_time=60
type: note_off, time: 192, actual_time: 444
type=note_on channel=2 note=59 velocity=80 time=0 actual_time=0
type: note_off, time: 0, actual_time: 384
type=note_on channel=2 note=62 velocity=0 time=384 actual_time=5184
type=note_on channel=2 note=55 velocity=0 time=0 actual_time=5184
type=note_on channel=2 note=59 velocity=80 time=96 actual_time=0
type: note_off, time: 96, actual_time: 384
type=note_on channel=2 note=59 velocity=80 time=0 actual_time=5280
type: note_off, time: 0, actual_time: 5664
type=note_on channel=2 note=64 velocity=0 time=384 actual_time=5664
type=note_on channel=2 note=57 velocity=0 time=0 actual_time=5664
type=note_on channel=2 note=59 velocity=80 time=96 actual_time=40
type: note_off, time: 96, actual_time: 808
type=note_on channel=2 note=59 velocity=80 time=0 actual_time=5760
type: note_off, time: 0, actual_time: 6528
type=note_on channel=2 note=59 velocity=0 time=768 actual_time=6528
type=note_on channel=2 note=66 velocity=0 time=0 actual_time=6528
type=note_on channel=2 note=59 velocity=80 time=192 actual_time=6720
type: note_off, time: 192, actual_time: 7104
type=note_on channel=2 note=55 velocity=80 time=0 actual_time=0
type: note_off, time: 0, actual_time: 384
type=note_on channel=2 note=55 velocity=0 time=384 actual_time=7104
type=note_on channel=2 note=62 velocity=0 time=0 actual_time=7104
type=note_on channel=2 note=59 velocity=80 time=96 actual_time=20
type: note_off, time: 96, actual_time: 404
type=note_on channel=2 note=59 velocity=80 time=0 actual_time=60
type: note_off, time: 0, actual_time: 444
type=note_on channel=2 note=57 velocity=0 time=384 actual_time=7584
type=note_on channel=2 note=64 velocity=0 time=0 actual_time=7584
type=note_on channel=2 note=59 velocity=80 time=96 actual_time=60
type: note_off, time: 96, actual_time: 828
type=note_on channel=2 note=59 velocity=80 time=0 actual_time=60
type: note_off, time: 0, actual_time: 828
type=note_on channel=2 note=66 velocity=0 time=768 actual_time=8448
type=note_on channel=2 note=59 velocity=0 time=0 actual_time=8448
type=note_on channel=2 note=59 velocity=80 time=6912 actual_time=20
type: note_off, time: 6912, actual_time: 116
type=note_on channel=2 note=47 velocity=0 time=96 actual_time=15456
type=note_on channel=2 note=59 velocity=80 time=24 actual_time=20
type: note_off, time: 24, actual_time: 164
type=note_on channel=2 note=59 velocity=80 time=0 actual_time=20
type: note_off, time: 0, actual_time: 164
type=note_on channel=2 note=59 velocity=80 time=0 actual_time=40
type: note_off, time: 0, actual_time: 184
type=note_on channel=2 note=47 velocity=0 time=144 actual_time=15624
type=note_on channel=2 note=59 velocity=0 time=0 actual_time=15624
type=note_on channel=2 note=54 velocity=0 time=0 actual_time=15624
type=note_on channel=2 note=59 velocity=80 time=36 actual_time=0
type: note_off, time: 36, actual_time: 108
type=note_on channel=2 note=59 velocity=80 time=0 actual_time=15660
type: note_off, time: 0, actual_time: 15708
type=note_on channel=2 note=54 velocity=80 time=0 actual_time=20
type: note_off, time: 0, actual_time: 68
type=note_on channel=2 note=54 velocity=0 time=48 actual_time=15708
type=note_on channel=2 note=59 velocity=0 time=0 actual_time=15708
type=note_on channel=2 note=59 velocity=80 time=12 actual_time=40
type: note_off, time: 12, actual_time: 88
type=note_on channel=2 note=54 velocity=0 time=48 actual_time=15768
type=note_on channel=2 note=47 velocity=0 time=0 actual_time=15768
type=note_on channel=2 note=47 velocity=80 time=12 actual_time=60
type: note_off, time: 12, actual_time: 108
type=note_on channel=2 note=59 velocity=80 time=0 actual_time=40
type: note_off, time: 0, actual_time: 88
type=note_on channel=2 note=59 velocity=80 time=0 actual_time=20
type: note_off, time: 0, actual_time: 68
type=note_on channel=2 note=54 velocity=0 time=48 actual_time=15828
type=note_on channel=2 note=59 velocity=0 time=0 actual_time=15828
type=note_on channel=2 note=47 velocity=0 time=0 actual_time=15828
type=note_on channel=2 note=59 velocity=80 time=12 actual_time=0
type: note_off, time: 12, actual_time: 96
type=note_on channel=2 note=47 velocity=0 time=96 actual_time=15936
type=note_on channel=2 note=59 velocity=80 time=24 actual_time=0
type: note_off, time: 24, actual_time: 144
type=note_on channel=2 note=59 velocity=80 time=0 actual_time=40
type: note_off, time: 0, actual_time: 184
type=note_on channel=2 note=49 velocity=80 time=0 actual_time=20
type: note_off, time: 0, actual_time: 164
type=note_on channel=2 note=54 velocity=0 time=144 actual_time=16104
type=note_on channel=2 note=47 velocity=0 time=0 actual_time=16104
type=note_on channel=2 note=59 velocity=0 time=0 actual_time=16104
type=note_on channel=2 note=59 velocity=80 time=36 actual_time=0
type: note_off, time: 36, actual_time: 48
type=note_on channel=2 note=47 velocity=80 time=0 actual_time=40
type: note_off, time: 0, actual_time: 148
type=note_on channel=2 note=59 velocity=80 time=0 actual_time=20
type: note_off, time: 0, actual_time: 68
type=note_on channel=2 note=54 velocity=0 time=48 actual_time=16188
type=note_on channel=2 note=59 velocity=0 time=0 actual_time=16188
type=note_on channel=2 note=54 velocity=80 time=12 actual_time=40
type: note_off, time: 12, actual_time: 88
type=note_on channel=2 note=54 velocity=0 time=48 actual_time=16248
type=note_on channel=2 note=47 velocity=0 time=0 actual_time=16248
type=note_on channel=2 note=59 velocity=80 time=12 actual_time=20
type: note_off, time: 12, actual_time: 68
type=note_on channel=2 note=59 velocity=80 time=0 actual_time=16260
type: note_off, time: 0, actual_time: 16308
type=note_on channel=2 note=59 velocity=80 time=0 actual_time=0
type: note_off, time: 0, actual_time: 48
type=note_on channel=2 note=59 velocity=0 time=48 actual_time=16308
type=note_on channel=2 note=47 velocity=0 time=0 actual_time=16308
type=note_on channel=2 note=54 velocity=0 time=0 actual_time=16308
type=note_on channel=2 note=59 velocity=80 time=12 actual_time=0
type: note_off, time: 12, actual_time: 96
type=note_on channel=2 note=43 velocity=0 time=96 actual_time=16416
type=note_on channel=2 note=59 velocity=80 time=24 actual_time=16440
type: note_off, time: 24, actual_time: 16584
type=note_on channel=2 note=59 velocity=80 time=0 actual_time=0
type: note_off, time: 0, actual_time: 144
type=note_on channel=2 note=59 velocity=80 time=0 actual_time=60
type: note_off, time: 0, actual_time: 204
type=note_on channel=2 note=55 velocity=0 time=144 actual_time=16584
type=note_on channel=2 note=43 velocity=0 time=0 actual_time=16584
type=note_on channel=2 note=50 velocity=0 time=0 actual_time=16584
type=note_on channel=2 note=59 velocity=80 time=36 actual_time=40
type: note_off, time: 36, actual_time: 148
type=note_on channel=2 note=50 velocity=80 time=0 actual_time=60
type: note_off, time: 0, actual_time: 108
type=note_on channel=2 note=59 velocity=80 time=0 actual_time=40
type: note_off, time: 0, actual_time: 88
type=note_on channel=2 note=55 velocity=0 time=48 actual_time=16668
type=note_on channel=2 note=50 velocity=0 time=0 actual_time=16668
type=note_on channel=2 note=59 velocity=80 time=12 actual_time=0
type: note_off, time: 12, actual_time: 48
type=note_on channel=2 note=50 velocity=0 time=48 actual_time=16728
type=note_on channel=2 note=43 velocity=0 time=0 actual_time=16728
type=note_on channel=2 note=59 velocity=80 time=12 actual_time=16740
type: note_off, time: 12, actual_time: 16788
type=note_on channel=2 note=59 velocity=80 time=0 actual_time=60
type: note_off, time: 0, actual_time: 108
type=note_on channel=2 note=59 velocity=80 time=0 actual_time=0
type: note_off, time: 0, actual_time: 48
type=note_on channel=2 note=55 velocity=0 time=48 actual_time=16788
type=note_on channel=2 note=43 velocity=0 time=0 actual_time=16788
type=note_on channel=2 note=50 velocity=0 time=0 actual_time=16788
type=note_on channel=2 note=59 velocity=80 time=12 actual_time=40
type: note_off, time: 12, actual_time: 136
type=note_on channel=2 note=45 velocity=0 time=96 actual_time=16896
type=note_on channel=2 note=57 velocity=80 time=24 actual_time=40
type: note_off, time: 24, actual_time: 184
type=note_on channel=2 note=48 velocity=80 time=0 actual_time=16920
type: note_off, time: 0, actual_time: 17064
type=note_on channel=2 note=59 velocity=80 time=0 actual_time=40
type: note_off, time: 0, actual_time: 184
type=note_on channel=2 note=52 velocity=0 time=144 actual_time=17064
type=note_on channel=2 note=45 velocity=0 time=0 actual_time=17064
type=note_on channel=2 note=57 velocity=0 time=0 actual_time=17064
type=note_on channel=2 note=59 velocity=80 time=36 actual_time=60
type: note_off, time: 36, actual_time: 108
type=note_on channel=2 note=45 velocity=80 time=0 actual_time=60
type: note_off, time: 0, actual_time: 168
type=note_on channel=2 note=56 velocity=80 time=0 actual_time=60
type: note_off, time: 0, actual_time: 108
type=note_on channel=2 note=57 velocity=0 time=48 actual_time=17148
type=note_on channel=2 note=52 velocity=0 time=0 actual_time=17148
type=note_on channel=2 note=52 velocity=80 time=12 actual_time=20
type: note_off, time: 12, actual_time: 68
type=note_on channel=2 note=52 velocity=0 time=48 actual_time=17208
type=note_on channel=2 note=45 velocity=0 time=0 actual_time=17208
type=note_on channel=2 note=54 velocity=80 time=12 actual_time=17220
type: note_off, time: 12, actual_time: 17268
type=note_on channel=2 note=49 velocity=80 time=0 actual_time=20
type: note_off, time: 0, actual_time: 68
type=note_on channel=2 note=59 velocity=80 time=0 actual_time=40
type: note_off, time: 0, actual_time: 88
type=note_on channel=2 note=52 velocity=0 time=48 actual_time=17268
type=note_on channel=2 note=45 velocity=0 time=0 actual_time=17268
type=note_on channel=2 note=57 velocity=0 time=0 actual_time=17268
type=note_on channel=2 note=59 velocity=80 time=12 actual_time=0
type: note_off, time: 12, actual_time: 96
type=note_on channel=2 note=47 velocity=0 time=96 actual_time=17376
type=note_on channel=2 note=54 velocity=80 time=24 actual_time=20
type: note_off, time: 24, actual_time: 164
type=note_on channel=2 note=59 velocity=80 time=0 actual_time=60
type: note_off, time: 0, actual_time: 204
type=note_on channel=2 note=59 velocity=80 time=0 actual_time=20
type: note_off, time: 0, actual_time: 164
type=note_on channel=2 note=59 velocity=0 time=144 actual_time=17544
type=note_on channel=2 note=47 velocity=0 time=0 actual_time=17544
type=note_on channel=2 note=54 velocity=0 time=0 actual_time=17544
type=note_on channel=2 note=59 velocity=80 time=36 actual_time=17580
type: note_off, time: 36, actual_time: 17688
type=note_on channel=2 note=59 velocity=80 time=0 actual_time=0
type: note_off, time: 0, actual_time: 48
type=note_on channel=2 note=59 velocity=80 time=0 actual_time=40
type: note_off, time: 0, actual_time: 88
type=note_on channel=2 note=59 velocity=0 time=48 actual_time=17628
type=note_on channel=2 note=54 velocity=0 time=0 actual_time=17628
type=note_on channel=2 note=59 velocity=80 time=12 actual_time=0
type: note_off, time: 12, actual_time: 48
type=note_on channel=2 note=54 velocity=0 time=48 actual_time=17688
type=note_on channel=2 note=47 velocity=0 time=0 actual_time=17688
type=note_on channel=2 note=59 velocity=80 time=12 actual_time=60
type: note_off, time: 12, actual_time: 108
type=note_on channel=2 note=59 velocity=80 time=0 actual_time=60
type: note_off, time: 0, actual_time: 108
type=note_on channel=2 note=59 velocity=80 time=0 actual_time=0
type: note_off, time: 0, actual_time: 48
type=note_on channel=2 note=59 velocity=0 time=48 actual_time=17748
type=note_on channel=2 note=47 velocity=0 time=0 actual_time=17748
type=note_on channel=2 note=54 velocity=0 time=0 actual_time=17748
type=note_on channel=2 note=59 velocity=80 time=12 actual_time=60
type: note_off, time: 12, actual_time: 156
type=note_on channel=2 note=47 velocity=0 time=96 actual_time=17856
type=note_on channel=2 note=59 velocity=80 time=24 actual_time=60
type: note_off, time: 24, actual_time: 204
type=note_on channel=2 note=59 velocity=80 time=0 actual_time=40
type: note_off, time: 0, actual_time: 184
type=note_on channel=2 note=59 velocity=80 time=0 actual_time=20
type: note_off, time: 0, actual_time: 164
type=note_on channel=2 note=54 velocity=0 time=144 actual_time=18024
type=note_on channel=2 note=47 velocity=0 time=0 actual_time=18024
type=note_on channel=2 note=59 velocity=0 time=0 actual_time=18024
type=note_on channel=2 note=59 velocity=80 time=36 actual_time=18060
type: note_off, time: 36, actual_time: 18108
type=note_on channel=2 note=59 velocity=80 time=0 actual_time=18060
type: note_off, time: 0, actual_time: 18108
type=note_on channel=2 note=59 velocity=80 time=0 actual_time=20
type: note_off, time: 0, actual_time: 128
type=note_on channel=2 note=54 velocity=0 time=48 actual_time=18108
type=note_on channel=2 note=59 velocity=0 time=0 actual_time=18108
type=note_on channel=2 note=59 velocity=80 time=12 actual_time=0
type: note_off, time: 12, actual_time: 48
type=note_on channel=2 note=54 velocity=0 time=48 actual_time=18168
type=note_on channel=2 note=47 velocity=0 time=0 actual_time=18168
type=note_on channel=2 note=59 velocity=80 time=12 actual_time=0
type: note_off, time: 12, actual_time: 48
type=note_on channel=2 note=59 velocity=80 time=0 actual_time=60
type: note_off, time: 0, actual_time: 108
type=note_on channel=2 note=54 velocity=80 time=0 actual_time=20
type: note_off, time: 0, actual_time: 68
type=note_on channel=2 note=54 velocity=0 time=48 actual_time=18228
type=note_on channel=2 note=47 velocity=0 time=0 actual_time=18228
type=note_on channel=2 note=59 velocity=0 time=0 actual_time=18228
type=note_on channel=2 note=45 velocity=80 time=12 actual_time=40
type: note_off, time: 12, actual_time: 136
type=note_on channel=2 note=43 velocity=0 time=96 actual_time=18336
type=note_on channel=2 note=59 velocity=80 time=24 actual_time=0
type: note_off, time: 24, actual_time: 144
type=note_on channel=2 note=59 velocity=80 time=0 actual_time=40
type: note_off, time: 0, actual_time: 184
type=note_on channel=2 note=53 velocity=80 time=0 actual_time=0
type: note_off, time: 0, actual_time: 144
type=note_on channel=2 note=50 velocity=0 time=144 actual_time=18504
type=note_on channel=2 note=43 velocity=0 time=0 actual_time=18504
type=note_on channel=2 note=55 velocity=0 time=0 actual_time=18504
type=note_on channel=2 note=59 velocity=80 time=36 actual_time=18540
type: note_off, time: 36, actual_time: 18588
type=note_on channel=2 note=59 velocity=80 time=0 actual_time=0
type: note_off, time: 0, actual_time: 48
type=note_on channel=2 note=43 velocity=80 time=0 actual_time=20
type: note_off, time: 0, actual_time: 128
type=note_on channel=2 note=50 velocity=0 time=48 actual_time=18588
type=note_on channel=2 note=55 velocity=0 time=0 actual_time=18588
type=note_on channel=2 note=59 velocity=80 time=12 actual_time=20
type: note_off, time: 12, actual_time: 68
type=note_on channel=2 note=50 velocity=0 time=48 actual_time=18648
type=note_on channel=2 note=43 velocity=0 time=0 actual_time=18648
type=note_on channel=2 note=59 velocity=80 time=12 actual_time=60
type: note_off, time: 12, actual_time: 108
type=note_on channel=2 note=59 velocity=80 time=0 actual_time=60
type: note_off, time: 0, actual_time: 108
type=note_on channel=2 note=59 velocity=80 time=0 actual_time=18660
type: note_off, time: 0, actual_time: 18708
type=note_on channel=2 note=50 velocity=0 time=48 actual_time=18708
type=note_on channel=2 note=43 velocity=0 time=0 actual_time=18708
type=note_on channel=2 note=55 velocity=0 time=0 actual_time=18708
type=note_on channel=2 note=59 velocity=80 time=12 actual_time=18720
type: note_off, time: 12, actual_time: 18816
type=note_on channel=2 note=45 velocity=0 time=96 actual_time=18816
type=note_on channel=2 note=59 velocity=80 time=24 actual_time=0
type: note_off, time: 24, actual_time: 144
type=note_on channel=2 note=45 velocity=80 time=0 actual_time=60
type: note_off, time: 0, actual_time: 204
type=note_on channel=2 note=59 velocity=80 time=0 actual_time=40
type: note_off, time: 0, actual_time: 184
type=note_on channel=2 note=57 velocity=0 time=144 actual_time=18984
type=note_on channel=2 note=45 velocity=0 time=0 actual_time=18984
type=note_on channel=2 note=52 velocity=0 time=0 actual_time=18984
type=note_on channel=2 note=59 velocity=80 time=36 actual_time=40
type: note_off, time: 36, actual_time: 148
type=note_on channel=2 note=59 velocity=80 time=0 actual_time=60
type: note_off, time: 0, actual_time: 108
type=note_on channel=2 note=59 velocity=80 time=0 actual_time=19020
type: note_off, time: 0, actual_time: 19068
type=note_on channel=2 note=57 velocity=0 time=48 actual_time=19068
type=note_on channel=2 note=52 velocity=0 time=0 actual_time=19068
type=note_on channel=2 note=59 velocity=80 time=12 actual_time=40
type: note_off, time: 12, actual_time: 88
type=note_on channel=2 note=52 velocity=0 time=48 actual_time=19128
type=note_on channel=2 note=45 velocity=0 time=0 actual_time=19128
type=note_on channel=2 note=48 velocity=80 time=12 actual_time=0
type: note_off, time: 12, actual_time: 48
type=note_on channel=2 note=59 velocity=80 time=0 actual_time=0
type: note_off, time: 0, actual_time: 48
type=note_on channel=2 note=59 velocity=80 time=0 actual_time=0
type: note_off, time: 0, actual_time: 48
type=note_on channel=2 note=57 velocity=0 time=48 actual_time=19188
type=note_on channel=2 note=45 velocity=0 time=0 actual_time=19188
type=note_on channel=2 note=52 velocity=0 time=0 actual_time=19188
type=note_on channel=2 note=66 velocity=80 time=12 actual_time=40
type: note_off, time: 12, actual_time: 424
type=note_on channel=2 note=59 velocity=80 time=0 actual_time=20
type: note_off, time: 0, actual_time: 404
type=note_on channel=2 note=59 velocity=0 time=384 actual_time=19584
type=note_on channel=2 note=66 velocity=0 time=0 actual_time=19584
type=note_on channel=2 note=59 velocity=80 time=14976 actual_time=34560
type: note_off, time: 14976, actual_time: 34656
type=note_on channel=2 note=47 velocity=0 time=96 actual_time=34656
type=note_on channel=2 note=59 velocity=80 time=24 actual_time=40
type: note_off, time: 24, actual_time: 184
type=note_on channel=2 note=59 velocity=80 time=0 actual_time=20
type: note_off, time: 0, actual_time: 164
type=note_on channel=2 note=59 velocity=80 time=0 actual_time=0
type: note_off, time: 0, actual_time: 144
type=note_on channel=2 note=54 velocity=0 time=144 actual_time=34824
type=note_on channel=2 note=59 velocity=0 time=0 actual_time=34824
type=note_on channel=2 note=47 velocity=0 time=0 actual_time=34824
type=note_on channel=2 note=59 velocity=80 time=36 actual_time=34860
type: note_off, time: 36, actual_time: 34908
type=note_on channel=2 note=59 velocity=80 time=0 actual_time=34860
type: note_off, time: 0, actual_time: 34908
type=note_on channel=2 note=59 velocity=80 time=0 actual_time=60
type: note_off, time: 0, actual_time: 168
type=note_on channel=2 note=59 velocity=0 time=48 actual_time=34908
type=note_on channel=2 note=54 velocity=0 time=0 actual_time=34908
type=note_on channel=2 note=59 velocity=80 time=12 actual_time=60
type: note_off, time: 12, actual_time: 108
type=note_on channel=2 note=54 velocity=0 time=48 actual_time=34968
type=note_on channel=2 note=47 velocity=0 time=0 actual_time=34968
type=note_on channel=2 note=59 velocity=80 time=12 actual_time=20
type: note_off, time: 12, actual_time: 68
type=note_on channel=2 note=60 velocity=80 time=0 actual_time=20
type: note_off, time: 0, actual_time: 68
type=note_on channel=2 note=59 velocity=80 time=0 actual_time=60
type: note_off, time: 0, actual_time: 108
type=note_on channel=2 note=47 velocity=0 time=48 actual_time=35028
type=note_on channel=2 note=59 velocity=0 time=0 actual_time=35028
type=note_on channel=2 note=54 velocity=0 time=0 actual_time=35028
type=note_on channel=2 note=59 velocity=80 time=12 actual_time=60
type: note_off, time: 12, actual_time: 156
type=note_on channel=2 note=47 velocity=0 time=96 actual_time=35136
type=note_on channel=2 note=54 velocity=80 time=24 actual_time=60
type: note_off, time: 24, actual_time: 204
type=note_on channel=2 note=59 velocity=80 time=0 actual_time=35160
type: note_off, time: 0, actual_time: 35304
type=note_on channel=2 note=59 velocity=80 time=0 actual_time=0
type: note_off, time: 0, actual_time: 144
type=note_on channel=2 note=59 velocity=0 time=144 actual_time=35304
type=note_on channel=2 note=47 velocity=0 time=0 actual_time=35304
type=note_on channel=2 note=54 velocity=0 time=0 actual_time=35304
type=note_on channel=2 note=59 velocity=80 time=36 actual_time=60
type: note_off, time: 36, actual_time: 108
type=note_on channel=2 note=59 velocity=80 time=0 actual_time=60
type: note_off, time: 0, actual_time: 168
type=note_on channel=2 note=59 velocity=80 time=0 actual_time=20
type: note_off, time: 0, actual_time: 68
type=note_on channel=2 note=59 velocity=0 time=48 actual_time=35388
type=note_on channel=2 note=54 velocity=0 time=0 actual_time=35388
type=note_on channel=2 note=59 velocity=80 time=12 actual_time=35400
type: note_off, time: 12, actual_time: 35448
type=note_on channel=2 note=54 velocity=0 time=48 actual_time=35448
type=note_on channel=2 note=47 velocity=0 time=0 actual_time=35448
type=note_on channel=2 note=59 velocity=80 time=12 actual_time=60
type: note_off, time: 12, actual_time: 108
type=note_on channel=2 note=59 velocity=80 time=0 actual_time=60
type: note_off, time: 0, actual_time: 108
type=note_on channel=2 note=59 velocity=80 time=0 actual_time=35460
type: note_off, time: 0, actual_time: 35508
type=note_on channel=2 note=54 velocity=0 time=48 actual_time=35508
type=note_on channel=2 note=47 velocity=0 time=0 actual_time=35508
type=note_on channel=2 note=59 velocity=0 time=0 actual_time=35508
type=note_on channel=2 note=59 velocity=80 time=12 actual_time=35520
type: note_off, time: 12, actual_time: 35616
type=note_on channel=2 note=43 velocity=0 time=96 actual_time=35616
type=note_on channel=2 note=59 velocity=80 time=24 actual_time=20
type: note_off, time: 24, actual_time: 164
type=note_on channel=2 note=43 velocity=80 time=0 actual_time=35640
type: note_off, time: 0, actual_time: 35784
type=note_on channel=2 note=54 velocity=80 time=0 actual_time=0
type: note_off, time: 0, actual_time: 144
type=note_on channel=2 note=50 velocity=0 time=144 actual_time=35784
type=note_on channel=2 note=43 velocity=0 time=0 actual_time=35784
type=note_on channel=2 note=55 velocity=0 time=0 actual_time=35784
type=note_on channel=2 note=60 velocity=80 time=36 actual_time=20
type: note_off, time: 36, actual_time: 68
type=note_on channel=2 note=59 velocity=80 time=0 actual_time=40
type: note_off, time: 0, actual_time: 88
type=note_on channel=2 note=59 velocity=80 time=0 actual_time=35820
type: note_off, time: 0, actual_time: 35928
type=note_on channel=2 note=50 velocity=0 time=48 actual_time=35868
type=note_on channel=2 note=55 velocity=0 time=0 actual_time=35868
type=note_on channel=2 note=59 velocity=80 time=12 actual_time=0
type: note_off, time: 12, actual_time: 48
type=note_on channel=2 note=50 velocity=0 time=48 actual_time=35928
type=note_on channel=2 note=43 velocity=0 time=0 actual_time=35928
type=note_on channel=2 note=59 velocity=80 time=12 actual_time=60
type: note_off, time: 12, actual_time: 108
type=note_on channel=2 note=43 velocity=80 time=0 actual_time=0
type: note_off, time: 0, actual_time: 48
type=note_on channel=2 note=48 velocity=80 time=0 actual_time=20
type: note_off, time: 0, actual_time: 68
type=note_on channel=2 note=50 velocity=0 time=48 actual_time=35988
type=note_on channel=2 note=43 velocity=0 time=0 actual_time=35988
type=note_on channel=2 note=55 velocity=0 time=0 actual_time=35988
type=note_on channel=2 note=59 velocity=80 time=12 actual_time=0
type: note_off, time: 12, actual_time: 96
type=note_on channel=2 note=45 velocity=0 time=96 actual_time=36096
type=note_on channel=2 note=59 velocity=80 time=24 actual_time=20
type: note_off, time: 24, actual_time: 164
type=note_on channel=2 note=59 velocity=80 time=0 actual_time=36120
type: note_off, time: 0, actual_time: 36264
type=note_on channel=2 note=55 velocity=80 time=0 actual_time=60
type: note_off, time: 0, actual_time: 204
type=note_on channel=2 note=57 velocity=0 time=144 actual_time=36264
type=note_on channel=2 note=45 velocity=0 time=0 actual_time=36264
type=note_on channel=2 note=52 velocity=0 time=0 actual_time=36264
type=note_on channel=2 note=59 velocity=80 time=36 actual_time=40
type: note_off, time: 36, actual_time: 88
type=note_on channel=2 note=59 velocity=80 time=0 actual_time=36300
type: note_off, time: 0, actual_time: 36408
type=note_on channel=2 note=52 velocity=80 time=0 actual_time=36300
type: note_off, time: 0, actual_time: 36348
type=note_on channel=2 note=52 velocity=0 time=48 actual_time=36348
type=note_on channel=2 note=57 velocity=0 time=0 actual_time=36348
type=note_on channel=2 note=59 velocity=80 time=12 actual_time=0
type: note_off, time: 12, actual_time: 48
type=note_on channel=2 note=52 velocity=0 time=48 actual_time=36408
type=note_on channel=2 note=45 velocity=0 time=0 actual_time=36408
type=note_on channel=2 note=59 velocity=80 time=12 actual_time=20
type: note_off, time: 12, actual_time: 68
type=note_on channel=2 note=59 velocity=80 time=0 actual_time=40
type: note_off, time: 0, actual_time: 88
type=note_on channel=2 note=59 velocity=80 time=0 actual_time=20
type: note_off, time: 0, actual_time: 68
type=note_on channel=2 note=57 velocity=0 time=48 actual_time=36468
type=note_on channel=2 note=45 velocity=0 time=0 actual_time=36468
type=note_on channel=2 note=52 velocity=0 time=0 actual_time=36468
type=note_on channel=2 note=59 velocity=80 time=12 actual_time=40
type: note_off, time: 12, actual_time: 136
type=note_on channel=2 note=47 velocity=0 time=96 actual_time=36576
type=note_on channel=2 note=59 velocity=80 time=24 actual_time=0
type: note_off, time: 24, actual_time: 144
type=note_on channel=2 note=47 velocity=80 time=0 actual_time=36600
type: note_off, time: 0, actual_time: 36744
type=note_on channel=2 note=54 velocity=80 time=0 actual_time=60
type: note_off, time: 0, actual_time: 204
type=note_on channel=2 note=54 velocity=0 time=144 actual_time=36744
type=note_on channel=2 note=47 velocity=0 time=0 actual_time=36744
type=note_on channel=2 note=59 velocity=0 time=0 actual_time=36744
type=note_on channel=2 note=59 velocity=80 time=36 actual_time=0
type: note_off, time: 36, actual_time: 48
type=note_on channel=2 note=59 velocity=80 time=0 actual_time=0
type: note_off, time: 0, actual_time: 48
type=note_on channel=2 note=59 velocity=80 time=0 actual_time=60
type: note_off, time: 0, actual_time: 168
type=note_on channel=2 note=54 velocity=0 time=48 actual_time=36828
type=note_on channel=2 note=59 velocity=0 time=0 actual_time=36828
type=note_on channel=2 note=59 velocity=80 time=12 actual_time=20
type: note_off, time: 12, actual_time: 68
type=note_on channel=2 note=54 velocity=0 time=48 actual_time=36888
type=note_on channel=2 note=47 velocity=0 time=0 actual_time=36888
type=note_on channel=2 note=59 velocity=80 time=12 actual_time=40
type: note_off, time: 12, actual_time: 88
type=note_on channel=2 note=59 velocity=80 time=0 actual_time=0
type: note_off, time: 0, actual_time: 48
type=note_on channel=2 note=59 velocity=80 time=0 actual_time=0
type: note_off, time: 0, actual_time: 48
type=note_on channel=2 note=54 velocity=0 time=48 actual_time=36948
type=note_on channel=2 note=47 velocity=0 time=0 actual_time=36948
type=note_on channel=2 note=59 velocity=0 time=0 actual_time=36948
type=note_on channel=2 note=47 velocity=80 time=12 actual_time=20
type: note_off, time: 12, actual_time: 116
type=note_on channel=2 note=47 velocity=0 time=96 actual_time=37056
type=note_on channel=2 note=59 velocity=80 time=24 actual_time=0
type: note_off, time: 24, actual_time: 144
type=note_on channel=2 note=59 velocity=80 time=0 actual_time=0
type: note_off, time: 0, actual_time: 144
type=note_on channel=2 note=59 velocity=80 time=0 actual_time=37080
type: note_off, time: 0, actual_time: 37224
type=note_on channel=2 note=59 velocity=0 time=144 actual_time=37224
type=note_on channel=2 note=47 velocity=0 time=0 actual_time=37224
type=note_on channel=2 note=54 velocity=0 time=0 actual_time=37224
type=note_on channel=2 note=59 velocity=80 time=36 actual_time=40
type: note_off, time: 36, actual_time: 148
type=note_on channel=2 note=59 velocity=80 time=0 actual_time=0
type: note_off, time: 0, actual_time: 48
type=note_on channel=2 note=59 velocity=80 time=0 actual_time=40
type: note_off, time: 0, actual_time: 88
type=note_on channel=2 note=59 velocity=0 time=48 actual_time=37308
type=note_on channel=2 note=54 velocity=0 time=0 actual_time=37308
type=note_on channel=2 note=59 velocity=80 time=12 actual_time=60
type: note_off, time: 12, actual_time: 108
type=note_on channel=2 note=54 velocity=0 time=48 actual_time=37368
type=note_on channel=2 note=47 velocity=0 time=0 actual_time=37368
type=note_on channel=2 note=59 velocity=80 time=12 actual_time=20
type: note_off, time: 12, actual_time: 68
type=note_on channel=2 note=59 velocity=80 time=0 actual_time=0
type: note_off, time: 0, actual_time: 48
type=note_on channel=2 note=59 velocity=80 time=0 actual_time=0
type: note_off, time: 0, actual_time: 48
type=note_on channel=2 note=59 velocity=0 time=48 actual_time=37428
type=note_on channel=2 note=47 velocity=0 time=0 actual_time=37428
type=note_on channel=2 note=54 velocity=0 time=0 actual_time=37428
type=note_on channel=2 note=59 velocity=80 time=12 actual_time=0
type: note_off, time: 12, actual_time: 96
type=note_on channel=2 note=43 velocity=0 time=96 actual_time=37536
type=note_on channel=2 note=50 velocity=80 time=24 actual_time=40
type: note_off, time: 24, actual_time: 184
type=note_on channel=2 note=43 velocity=80 time=0 actual_time=60
type: note_off, time: 0, actual_time: 204
type=note_on channel=2 note=59 velocity=80 time=0 actual_time=60
type: note_off, time: 0, actual_time: 204
type=note_on channel=2 note=55 velocity=0 time=144 actual_time=37704
type=note_on channel=2 note=43 velocity=0 time=0 actual_time=37704
type=note_on channel=2 note=50 velocity=0 time=0 actual_time=37704
type=note_on channel=2 note=59 velocity=80 time=36 actual_time=40
type: note_off, time: 36, actual_time: 148
type=note_on channel=2 note=55 velocity=80 time=0 actual_time=37740
type: note_off, time: 0, actual_time: 37788
type=note_on channel=2 note=59 velocity=80 time=0 actual_time=0
type: note_off, time: 0, actual_time: 48
type=note_on channel=2 note=55 velocity=0 time=48 actual_time=37788
type=note_on channel=2 note=50 velocity=0 time=0 actual_time=37788
type=note_on channel=2 note=50 velocity=80 time=12 actual_time=37800
type: note_off, time: 12, actual_time: 37848
type=note_on channel=2 note=50 velocity=0 time=48 actual_time=37848
type=note_on channel=2 note=43 velocity=0 time=0 actual_time=37848
type=note_on channel=2 note=50 velocity=80 time=12 actual_time=0
type: note_off, time: 12, actual_time: 48
type=note_on channel=2 note=46 velocity=80 time=0 actual_time=0
type: note_off, time: 0, actual_time: 48
type=note_on channel=2 note=59 velocity=80 time=0 actual_time=0
type: note_off, time: 0, actual_time: 48
type=note_on channel=2 note=55 velocity=0 time=48 actual_time=37908
type=note_on channel=2 note=43 velocity=0 time=0 actual_time=37908
type=note_on channel=2 note=50 velocity=0 time=0 actual_time=37908
type=note_on channel=2 note=59 velocity=80 time=12 actual_time=0
type: note_off, time: 12, actual_time: 96
type=note_on channel=2 note=45 velocity=0 time=96 actual_time=38016
type=note_on channel=2 note=59 velocity=80 time=24 actual_time=60
type: note_off, time: 24, actual_time: 204
type=note_on channel=2 note=59 velocity=80 time=0 actual_time=38040
type: note_off, time: 0, actual_time: 38184
type=note_on channel=2 note=52 velocity=80 time=0 actual_time=38040
type: note_off, time: 0, actual_time: 38184
type=note_on channel=2 note=52 velocity=0 time=144 actual_time=38184
type=note_on channel=2 note=45 velocity=0 time=0 actual_time=38184
type=note_on channel=2 note=57 velocity=0 time=0 actual_time=38184
type=note_on channel=2 note=59 velocity=80 time=36 actual_time=0
type: note_off, time: 36, actual_time: 108
type=note_on channel=2 note=59 velocity=80 time=0 actual_time=38220
type: note_off, time: 0, actual_time: 38268
type=note_on channel=2 note=59 velocity=80 time=0 actual_time=20
type: note_off, time: 0, actual_time: 68
type=note_on channel=2 note=52 velocity=0 time=48 actual_time=38268
type=note_on channel=2 note=57 velocity=0 time=0 actual_time=38268
type=note_on channel=2 note=56 velocity=80 time=12 actual_time=40
type: note_off, time: 12, actual_time: 88
type=note_on channel=2 note=52 velocity=0 time=48 actual_time=38328
type=note_on channel=2 note=45 velocity=0 time=0 actual_time=38328
type=note_on channel=2 note=59 velocity=80 time=12 actual_time=0
type: note_off, time: 12, actual_time: 48
type=note_on channel=2 note=59 velocity=80 time=0 actual_time=40
type: note_off, time: 0, actual_time: 88
type=note_on channel=2 note=59 velocity=80 time=0 actual_time=0
type: note_off, time: 0, actual_time: 48
type=note_on channel=2 note=52 velocity=0 time=48 actual_time=38388
type=note_on channel=2 note=45 velocity=0 time=0 actual_time=38388
type=note_on channel=2 note=57 velocity=0 time=0 actual_time=38388
type=note_on channel=2 note=59 velocity=80 time=12 actual_time=0
type: note_off, time: 12, actual_time: 384
type=note_on channel=2 note=59 velocity=80 time=0 actual_time=38400
type: note_off, time: 0, actual_time: 38784
type=note_on channel=2 note=66 velocity=0 time=384 actual_time=38784
type=note_on channel=2 note=59 velocity=0 time=0 actual_time=38784
type=note_on channel=2 note=59 velocity=80 time=22656 actual_time=40
type: note_off, time: 22656, actual_time: 424
type=note_on channel=2 note=59 velocity=80 time=0 actual_time=20
type: note_off, time: 0, actual_time: 404
type=note_on channel=2 note=59 velocity=80 time=0 actual_time=20
type: note_off, time: 0, actual_time: 404
type=note_on channel=2 note=59 velocity=0 time=384 actual_time=61824
type=note_on channel=2 note=66 velocity=0 time=0 actual_time=61824
type=note_on channel=2 note=71 velocity=0 time=0 actual_time=61824
type=note_on channel=2 note=70 velocity=80 time=5736 actual_time=20
type: note_off, time: 5736, actual_time: 116
type=note_on channel=2 note=71 velocity=0 time=96 actual_time=67656
type=note_on channel=2 note=66 velocity=80 time=24 actual_time=60
type: note_off, time: 24, actual_time: 156
type=note_on channel=2 note=66 velocity=0 time=96 actual_time=67776
type=note_on channel=2 note=59 velocity=80 time=24 actual_time=67800
type: note_off, time: 24, actual_time: 67896
type=note_on channel=2 note=59 velocity=0 time=96 actual_time=67896
type=note_on channel=2 note=59 velocity=80 time=264 actual_time=60
type: note_off, time: 264, actual_time: 156
type=note_on channel=2 note=67 velocity=0 time=96 actual_time=68256
type=note_on channel=2 note=59 velocity=80 time=24 actual_time=40
type: note_off, time: 24, actual_time: 136
type=note_on channel=2 note=62 velocity=0 time=96 actual_time=68376
type=note_on channel=2 note=59 velocity=80 time=24 actual_time=0
type: note_off, time: 24, actual_time: 96
type=note_on channel=2 note=55 velocity=0 time=96 actual_time=68496
type=note_on channel=2 note=71 velocity=80 time=144 actual_time=68640
type: note_off, time: 144, actual_time: 68736
type=note_on channel=2 note=69 velocity=0 time=96 actual_time=68736
type=note_on channel=2 note=59 velocity=80 time=24 actual_time=20
type: note_off, time: 24, actual_time: 116
type=note_on channel=2 note=64 velocity=0 time=96 actual_time=68856
type=note_on channel=2 note=59 velocity=80 time=24 actual_time=40
type: note_off, time: 24, actual_time: 136
type=note_on channel=2 note=57 velocity=0 time=96 actual_time=68976
type=note_on channel=2 note=59 velocity=80 time=504 actual_time=40
type: note_off, time: 504, actual_time: 136
type=note_on channel=2 note=71 velocity=0 time=96 actual_time=69576
type=note_on channel=2 note=66 velocity=80 time=24 actual_time=69600
type: note_off, time: 24, actual_time: 69696
type=note_on channel=2 note=66 velocity=0 time=96 actual_time=69696
type=note_on channel=2 note=59 velocity=80 time=24 actual_time=69720
type: note_off, time: 24, actual_time: 69816
type=note_on channel=2 note=59 velocity=0 time=96 actual_time=69816
type=note_on channel=2 note=67 velocity=80 time=264 actual_time=60
type: note_off, time: 264, actual_time: 156
type=note_on channel=2 note=67 velocity=0 time=96 actual_time=70176
type=note_on channel=2 note=59 velocity=80 time=24 actual_time=40
type: note_off, time: 24, actual_time: 136
type=note_on channel=2 note=62 velocity=0 time=96 actual_time=70296
type=note_on channel=2 note=59 velocity=80 time=24 actual_time=40
type: note_off, time: 24, actual_time: 136
type=note_on channel=2 note=55 velocity=0 time=96 actual_time=70416
type=note_on channel=2 note=69 velocity=80 time=144 actual_time=70560
type: note_off, time: 144, actual_time: 70656
type=note_on channel=2 note=69 velocity=0 time=96 actual_time=70656
type=note_on channel=2 note=59 velocity=80 time=24 actual_time=40
type: note_off, time: 24, actual_time: 136
type=note_on channel=2 note=64 velocity=0 time=96 actual_time=70776
type=note_on channel=2 note=59 velocity=80 time=24 actual_time=60
type: note_off, time: 24, actual_time: 156
type=note_on channel=2 note=57 velocity=0 time=96 actual_time=70896
type=note_on channel=2 note=59 velocity=80 time=504 actual_time=71400
type: note_off, time: 504, actual_time: 71496
type=note_on channel=2 note=71 velocity=0 time=96 actual_time=71496
type=note_on channel=2 note=66 velocity=80 time=24 actual_time=0
type: note_off, time: 24, actual_time: 96
type=note_on channel=2 note=66 velocity=0 time=96 actual_time=71616
type=note_on channel=2 note=59 velocity=80 time=24 actual_time=20
type: note_off, time: 24, actual_time: 116
type=note_on channel=2 note=59 velocity=0 time=96 actual_time=71736
type=note_on channel=2 note=59 velocity=80 time=264 actual_time=20
type: note_off, time: 264, actual_time: 116
type=note_on channel=2 note=67 velocity=0 time=96 actual_time=72096
type=note_on channel=2 note=59 velocity=80 time=24 actual_time=0
type: note_off, time: 24, actual_time: 96
type=note_on channel=2 note=62 velocity=0 time=96 actual_time=72216
type=note_on channel=2 note=59 velocity=80 time=24 actual_time=20
type: note_off, time: 24, actual_time: 116
type=note_on channel=2 note=55 velocity=0 time=96 actual_time=72336
type=note_on channel=2 note=59 velocity=80 time=144 actual_time=60
type: note_off, time: 144, actual_time: 156
type=note_on channel=2 note=69 velocity=0 time=96 actual_time=72576
type=note_on channel=2 note=59 velocity=80 time=24 actual_time=20
type: note_off, time: 24, actual_time: 116
type=note_on channel=2 note=64 velocity=0 time=96 actual_time=72696
type=note_on channel=2 note=59 velocity=80 time=24 actual_time=60
type: note_off, time: 24, actual_time: 156
type=note_on channel=2 note=57 velocity=0 time=96 actual_time=72816
MetaMessage type: end_of_track, time: 0, actual_time: 72816
MetaMessage type: track_name, time: 0, actual_time: 0
type: program_change, time: 0, actual_time: 0
type=control_change channel=3 control=7 value=89 time=0 actual_time=0
type=note_on channel=3 note=47 velocity=81 time=0 actual_time=120
type: note_off, time: 0, actual_time: 420
type=control_change channel=3 control=64 value=127 time=0 actual_time=0
type=note_on channel=3 note=47 velocity=80 time=120 actual_time=120
type: note_off, time: 120, actual_time: 216
type=note_on channel=3 note=54 velocity=0 time=96 actual_time=216
type=note_on channel=3 note=59 velocity=80 time=24 actual_time=240
type: note_off, time: 24, actual_time: 336
type=note_on channel=3 note=47 velocity=0 time=60 actual_time=300
type=note_on channel=3 note=59 velocity=0 time=36 actual_time=336
type=note_on channel=3 note=47 velocity=80 time=24 actual_time=0
type: note_off, time: 24, actual_time: 192
type=note_on channel=3 note=62 velocity=0 time=192 actual_time=552
type=note_on channel=3 note=47 velocity=80 time=48 actual_time=360
type: note_off, time: 48, actual_time: 456
type=note_on channel=3 note=59 velocity=0 time=96 actual_time=696
type=note_on channel=3 note=54 velocity=80 time=24 actual_time=720
type: note_off, time: 24, actual_time: 816
type=note_on channel=3 note=54 velocity=0 time=96 actual_time=816
type=note_on channel=3 note=55 velocity=80 time=24 actual_time=360
type: note_off, time: 24, actual_time: 456
type=note_on channel=3 note=55 velocity=0 time=96 actual_time=936
type=note_on channel=3 note=47 velocity=80 time=24 actual_time=120
type: note_off, time: 24, actual_time: 216
type=note_on channel=3 note=43 velocity=0 time=96 actual_time=1056
type=note_on channel=3 note=47 velocity=80 time=24 actual_time=1080
type: note_off, time: 24, actual_time: 1176
type=note_on channel=3 note=47 velocity=0 time=96 actual_time=1176
type=note_on channel=3 note=47 velocity=80 time=24 actual_time=240
type: note_off, time: 24, actual_time: 336
type=note_on channel=3 note=50 velocity=0 time=96 actual_time=1296
type=note_on channel=3 note=47 velocity=80 time=24 actual_time=0
type: note_off, time: 24, actual_time: 96
type=note_on channel=3 note=55 velocity=0 time=96 actual_time=1416
type=note_on channel=3 note=47 velocity=80 time=24 actual_time=0
type: note_off, time: 24, actual_time: 96
type=note_on channel=3 note=45 velocity=0 time=96 actual_time=1536
type=note_on channel=3 note=52 velocity=80 time=24 actual_time=360
type: note_off, time: 24, actual_time: 456
type=note_on channel=3 note=52 velocity=0 time=96 actual_time=1656
type=note_on channel=3 note=47 velocity=80 time=24 actual_time=360
type: note_off, time: 24, actual_time: 456
type=note_on channel=3 note=57 velocity=0 time=96 actual_time=1776
type=note_on channel=3 note=59 velocity=80 time=24 actual_time=1800
type: note_off, time: 24, actual_time: 1896
type=note_on channel=3 note=59 velocity=0 time=96 actual_time=1896
type=control_change channel=3 control=64 value=127 time=24 actual_time=1920
type=note_on channel=3 note=47 velocity=81 time=0 actual_time=240
type: note_off, time: 0, actual_time: 540
type=note_on channel=3 note=47 velocity=80 time=120 actual_time=360
type: note_off, time: 120, actual_time: 456
type=note_on channel=3 note=54 velocity=0 time=96 actual_time=2136
type=note_on channel=3 note=59 velocity=80 time=24 actual_time=0
type: note_off, time: 24, actual_time: 96
type=note_on channel=3 note=47 velocity=0 time=60 actual_time=2220
type=note_on channel=3 note=59 velocity=0 time=36 actual_time=2256
type=note_on channel=3 note=47 velocity=80 time=24 actual_time=360
type: note_off, time: 24, actual_time: 552
type=note_on channel=3 note=62 velocity=0 time=192 actual_time=2472
type=note_on channel=3 note=56 velocity=80 time=48 actual_time=0
type: note_off, time: 48, actual_time: 96
type=note_on channel=3 note=59 velocity=0 time=96 actual_time=2616
type=note_on channel=3 note=47 velocity=80 time=24 actual_time=0
type: note_off, time: 24, actual_time: 96
type=note_on channel=3 note=54 velocity=0 time=96 actual_time=2736
type=note_on channel=3 note=47 velocity=80 time=24 actual_time=0
type: note_off, time: 24, actual_time: 96
type=note_on channel=3 note=55 velocity=0 time=96 actual_time=2856
type=note_on channel=3 note=47 velocity=80 time=24 actual_time=240
type: note_off, time: 24, actual_time: 336
type=note_on channel=3 note=43 velocity=0 time=96 actual_time=2976
type=note_on channel=3 note=46 velocity=80 time=24 actual_time=360
type: note_off, time: 24, actual_time: 456
type=note_on channel=3 note=47 velocity=0 time=96 actual_time=3096
type=note_on channel=3 note=47 velocity=80 time=24 actual_time=0
type: note_off, time: 24, actual_time: 96
type=note_on channel=3 note=50 velocity=0 time=96 actual_time=3216
type=note_on channel=3 note=47 velocity=80 time=24 actual_time=240
type: note_off, time: 24, actual_time: 336
type=note_on channel=3 note=55 velocity=0 time=96 actual_time=3336
type=note_on channel=3 note=47 velocity=80 time=24 actual_time=0
type: note_off, time: 24, actual_time: 96
type=note_on channel=3 note=45 velocity=0 time=96 actual_time=3456
type=note_on channel=3 note=47 velocity=80 time=24 actual_time=240
type: note_off, time: 24, actual_time: 336
type=note_on channel=3 note=52 velocity=0 time=96 actual_time=3576
type=note_on channel=3 note=47 velocity=80 time=24 actual_time=360
type: note_off, time: 24, actual_time: 456
type=note_on channel=3 note=57 velocity=0 time=96 actual_time=3696
type=note_on channel=3 note=47 velocity=80 time=24 actual_time=3720
type: note_off, time: 24, actual_time: 3816
type=note_on channel=3 note=59 velocity=0 time=96 actual_time=3816
type=control_change channel=3 control=64 value=127 time=24 actual_time=3840
type=note_on channel=3 note=47 velocity=81 time=0 actual_time=0
type: note_off, time: 0, actual_time: 300
type=note_on channel=3 note=47 velocity=80 time=120 actual_time=3960
type: note_off, time: 120, actual_time: 4056
type=note_on channel=3 note=54 velocity=0 time=96 actual_time=4056
type=note_on channel=3 note=59 velocity=80 time=24 actual_time=0
type: note_off, time: 24, actual_time: 96
type=note_on channel=3 note=47 velocity=0 time=60 actual_time=4140
type=note_on channel=3 note=59 velocity=0 time=36 actual_time=4176
type=note_on channel=3 note=47 velocity=80 time=24 actual_time=240
type: note_off, time: 24, actual_time: 432
type=note_on channel=3 note=62 velocity=0 time=192 actual_time=4392
type=note_on channel=3 note=47 velocity=80 time=48 actual_time=240
type: note_off, time: 48, actual_time: 336
type=note_on channel=3 note=59 velocity=0 time=96 actual_time=4536
type=note_on channel=3 note=47 velocity=80 time=24 actual_time=4560
type: note_off, time: 24, actual_time: 4656
type=note_on channel=3 note=54 velocity=0 time=96 actual_time=4656
type=note_on channel=3 note=47 velocity=80 time=24 actual_time=240
type: note_off, time: 24, actual_time: 336
type=note_on channel=3 note=55 velocity=0 time=96 actual_time=4776
type=note_on channel=3 note=47 velocity=80 time=24 actual_time=120
type: note_off, time: 24, actual_time: 216
type=note_on channel=3 note=43 velocity=0 time=96 actual_time=4896
type=note_on channel=3 note=49 velocity=80 time=24 actual_time=240
type: note_off, time: 24, actual_time: 336
type=note_on channel=3 note=47 velocity=0 time=96 actual_time=5016
type=note_on channel=3 note=47 velocity=80 time=24 actual_time=360
type: note_off, time: 24, actual_time: 456
type=note_on channel=3 note=50 velocity=0 time=96 actual_time=5136
type=note_on channel=3 note=58 velocity=80 time=24 actual_time=0
type: note_off, time: 24, actual_time: 96
type=note_on channel=3 note=55 velocity=0 time=96 actual_time=5256
type=note_on channel=3 note=47 velocity=80 time=24 actual_time=240
type: note_off, time: 24, actual_time: 336
type=note_on channel=3 note=45 velocity=0 time=96 actual_time=5376
type=note_on channel=3 note=49 velocity=80 time=24 actual_time=360
type: note_off, time: 24, actual_time: 456
type=note_on channel=3 note=52 velocity=0 time=96 actual_time=5496
type=note_on channel=3 note=57 velocity=80 time=24 actual_time=120
type: note_off, time: 24, actual_time: 216
type=note_on channel=3 note=57 velocity=0 time=96 actual_time=5616
type=note_on channel=3 note=47 velocity=80 time=24 actual_time=5640
type: note_off, time: 24, actual_time: 5736
type=note_on channel=3 note=59 velocity=0 time=96 actual_time=5736
type=note_on channel=3 note=47 velocity=81 time=24 actual_time=360
type: note_off, time: 24, actual_time: 660
type=control_change channel=3 control=64 value=127 time=0 actual_time=5760
type=note_on channel=3 note=47 velocity=80 time=120 actual_time=120
type: note_off, time: 120, actual_time: 216
type=note_on channel=3 note=54 velocity=0 time=96 actual_time=5976
type=note_on channel=3 note=47 velocity=80 time=24 actual_time=0
type: note_off, time: 24, actual_time: 96
type=note_on channel=3 note=47 velocity=0 time=60 actual_time=6060
type=note_on channel=3 note=59 velocity=0 time=36 actual_time=6096
type=note_on channel=3 note=47 velocity=80 time=24 actual_time=240
type: note_off, time: 24, actual_time: 432
type=note_on channel=3 note=62 velocity=0 time=192 actual_time=6312
type=note_on channel=3 note=47 velocity=80 time=48 actual_time=240
type: note_off, time: 48, actual_time: 336
type=note_on channel=3 note=59 velocity=0 time=96 actual_time=6456
type=note_on channel=3 note=47 velocity=80 time=24 actual_time=0
type: note_off, time: 24, actual_time: 96
type=note_on channel=3 note=54 velocity=0 time=96 actual_time=6576
type=note_on channel=3 note=47 velocity=80 time=24 actual_time=6600
type: note_off, time: 24, actual_time: 6696
type=note_on channel=3 note=55 velocity=0 time=96 actual_time=6696
type=note_on channel=3 note=43 velocity=80 time=24 actual_time=240
type: note_off, time: 24, actual_time: 336
type=note_on channel=3 note=43 velocity=0 time=96 actual_time=6816
type=note_on channel=3 note=47 velocity=80 time=24 actual_time=240
type: note_off, time: 24, actual_time: 336
type=note_on channel=3 note=47 velocity=0 time=96 actual_time=6936
type=note_on channel=3 note=50 velocity=80 time=24 actual_time=360
type: note_off, time: 24, actual_time: 456
type=note_on channel=3 note=50 velocity=0 time=96 actual_time=7056
type=note_on channel=3 note=55 velocity=80 time=24 actual_time=360
type: note_off, time: 24, actual_time: 456
type=note_on channel=3 note=55 velocity=0 time=96 actual_time=7176
type=note_on channel=3 note=47 velocity=80 time=24 actual_time=120
type: note_off, time: 24, actual_time: 216
type=note_on channel=3 note=45 velocity=0 time=96 actual_time=7296
type=note_on channel=3 note=47 velocity=80 time=24 actual_time=0
type: note_off, time: 24, actual_time: 96
type=note_on channel=3 note=64 velocity=0 time=96 actual_time=7416
type=note_on channel=3 note=47 velocity=80 time=24 actual_time=120
type: note_off, time: 24, actual_time: 216
type=note_on channel=3 note=59 velocity=0 time=96 actual_time=7536
type=note_on channel=3 note=47 velocity=80 time=24 actual_time=360
type: note_off, time: 24, actual_time: 456
type=note_on channel=3 note=57 velocity=0 time=96 actual_time=7656
type=control_change channel=3 control=64 value=127 time=24 actual_time=7680
type=note_on channel=3 note=47 velocity=81 time=0 actual_time=0
type: note_off, time: 0, actual_time: 300
type=note_on channel=3 note=54 velocity=80 time=120 actual_time=360
type: note_off, time: 120, actual_time: 456
type=note_on channel=3 note=54 velocity=0 time=96 actual_time=7896
type=note_on channel=3 note=58 velocity=80 time=24 actual_time=360
type: note_off, time: 24, actual_time: 456
type=note_on channel=3 note=47 velocity=0 time=60 actual_time=7980
type=note_on channel=3 note=59 velocity=0 time=36 actual_time=8016
type=note_on channel=3 note=47 velocity=80 time=24 actual_time=0
type: note_off, time: 24, actual_time: 192
type=note_on channel=3 note=62 velocity=0 time=192 actual_time=8232
type=note_on channel=3 note=47 velocity=80 time=48 actual_time=240
type: note_off, time: 48, actual_time: 336
type=note_on channel=3 note=59 velocity=0 time=96 actual_time=8376
type=note_on channel=3 note=47 velocity=80 time=24 actual_time=8400
type: note_off, time: 24, actual_time: 8496
type=note_on channel=3 note=54 velocity=0 time=96 actual_time=8496
type=note_on channel=3 note=55 velocity=80 time=24 actual_time=8520
type: note_off, time: 24, actual_time: 8616
type=note_on channel=3 note=55 velocity=0 time=96 actual_time=8616
type=note_on channel=3 note=47 velocity=80 time=24 actual_time=240
type: note_off, time: 24, actual_time: 336
type=note_on channel=3 note=43 velocity=0 time=96 actual_time=8736
type=note_on channel=3 note=47 velocity=80 time=24 actual_time=8760
type: note_off, time: 24, actual_time: 8856
type=note_on channel=3 note=47 velocity=0 time=96 actual_time=8856
type=note_on channel=3 note=47 velocity=80 time=24 actual_time=8880
type: note_off, time: 24, actual_time: 8976
type=note_on channel=3 note=50 velocity=0 time=96 actual_time=8976
type=note_on channel=3 note=47 velocity=80 time=24 actual_time=0
type: note_off, time: 24, actual_time: 96
type=note_on channel=3 note=55 velocity=0 time=96 actual_time=9096
type=note_on channel=3 note=45 velocity=80 time=24 actual_time=120
type: note_off, time: 24, actual_time: 216
type=note_on channel=3 note=45 velocity=0 time=96 actual_time=9216
type=note_on channel=3 note=52 velocity=80 time=24 actual_time=360
type: note_off, time: 24, actual_time: 456
type=note_on channel=3 note=52 velocity=0 time=96 actual_time=9336
type=note_on channel=3 note=47 velocity=80 time=24 actual_time=120
type: note_off, time: 24, actual_time: 216
type=note_on channel=3 note=57 velocity=0 time=96 actual_time=9456
type=note_on channel=3 note=47 velocity=80 time=24 actual_time=240
type: note_off, time: 24, actual_time: 336
type=note_on channel=3 note=59 velocity=0 time=96 actual_time=9576
type=note_on channel=3 note=47 velocity=81 time=24 actual_time=9600
type: note_off, time: 24, actual_time: 9900
type=control_change channel=3 control=64 value=127 time=0 actual_time=9600
type=note_on channel=3 note=54 velocity=80 time=120 actual_time=9720
type: note_off, time: 120, actual_time: 9816
type=note_on channel=3 note=54 velocity=0 time=96 actual_time=9816
type=note_on channel=3 note=47 velocity=80 time=24 actual_time=0
type: note_off, time: 24, actual_time: 96
type=note_on channel=3 note=47 velocity=0 time=60 actual_time=9900
type=note_on channel=3 note=59 velocity=0 time=36 actual_time=9936
type=note_on channel=3 note=47 velocity=80 time=24 actual_time=360
type: note_off, time: 24, actual_time: 552
type=note_on channel=3 note=62 velocity=0 time=192 actual_time=10152
type=note_on channel=3 note=47 velocity=80 time=48 actual_time=360
type: note_off, time: 48, actual_time: 456
type=note_on channel=3 note=59 velocity=0 time=96 actual_time=10296
type=note_on channel=3 note=54 velocity=80 time=24 actual_time=10320
type: note_off, time: 24, actual_time: 10416
type=note_on channel=3 note=54 velocity=0 time=96 actual_time=10416
type=note_on channel=3 note=47 velocity=80 time=24 actual_time=0
type: note_off, time: 24, actual_time: 96
type=note_on channel=3 note=55 velocity=0 time=96 actual_time=10536
type=note_on channel=3 note=47 velocity=80 time=24 actual_time=10560
type: note_off, time: 24, actual_time: 10656
type=note_on channel=3 note=43 velocity=0 time=96 actual_time=10656
type=note_on channel=3 note=47 velocity=80 time=24 actual_time=10680
type: note_off, time: 24, actual_time: 10776
type=note_on channel=3 note=47 velocity=0 time=96 actual_time=10776
type=note_on channel=3 note=47 velocity=80 time=24 actual_time=10800
type: note_off, time: 24, actual_time: 10896
type=note_on channel=3 note=50 velocity=0 time=96 actual_time=10896
type=note_on channel=3 note=57 velocity=80 time=24 actual_time=360
type: note_off, time: 24, actual_time: 456
type=note_on channel=3 note=55 velocity=0 time=96 actual_time=11016
type=note_on channel=3 note=45 velocity=80 time=24 actual_time=360
type: note_off, time: 24, actual_time: 456
type=note_on channel=3 note=45 velocity=0 time=96 actual_time=11136
type=note_on channel=3 note=47 velocity=80 time=24 actual_time=120
type: note_off, time: 24, actual_time: 216
type=note_on channel=3 note=52 velocity=0 time=96 actual_time=11256
type=note_on channel=3 note=47 velocity=80 time=24 actual_time=360
type: note_off, time: 24, actual_time: 456
type=note_on channel=3 note=57 velocity=0 time=96 actual_time=11376
type=note_on channel=3 note=47 velocity=80 time=24 actual_time=360
type: note_off, time: 24, actual_time: 456
type=note_on channel=3 note=59 velocity=0 time=96 actual_time=11496
type=control_change channel=3 control=64 value=127 time=24 actual_time=11520
type=note_on channel=3 note=47 velocity=81 time=0 actual_time=120
type: note_off, time: 0, actual_time: 420
type=note_on channel=3 note=54 velocity=80 time=120 actual_time=0
type: note_off, time: 120, actual_time: 96
type=note_on channel=3 note=54 velocity=0 time=96 actual_time=11736
type=note_on channel=3 note=59 velocity=80 time=24 actual_time=240
type: note_off, time: 24, actual_time: 336
type=note_on channel=3 note=47 velocity=0 time=60 actual_time=11820
type=note_on channel=3 note=59 velocity=0 time=36 actual_time=11856
type=note_on channel=3 note=47 velocity=80 time=24 actual_time=11880
type: note_off, time: 24, actual_time: 12072
type=note_on channel=3 note=62 velocity=0 time=192 actual_time=12072
type=note_on channel=3 note=47 velocity=80 time=48 actual_time=12120
type: note_off, time: 48, actual_time: 12216
type=note_on channel=3 note=59 velocity=0 time=96 actual_time=12216
type=note_on channel=3 note=47 velocity=80 time=24 actual_time=360
type: note_off, time: 24, actual_time: 456
type=note_on channel=3 note=54 velocity=0 time=96 actual_time=12336
type=note_on channel=3 note=47 velocity=80 time=24 actual_time=0
type: note_off, time: 24, actual_time: 96
type=note_on channel=3 note=55 velocity=0 time=96 actual_time=12456
type=note_on channel=3 note=47 velocity=80 time=24 actual_time=120
type: note_off, time: 24, actual_time: 216
type=note_on channel=3 note=43 velocity=0 time=96 actual_time=12576
type=note_on channel=3 note=47 velocity=80 time=24 actual_time=120
type: note_off, time: 24, actual_time: 216
type=note_on channel=3 note=47 velocity=0 time=96 actual_time=12696
type=note_on channel=3 note=47 velocity=80 time=24 actual_time=12720
type: note_off, time: 24, actual_time: 12816
type=note_on channel=3 note=50 velocity=0 time=96 actual_time=12816
type=note_on channel=3 note=47 velocity=80 time=24 actual_time=240
type: note_off, time: 24, actual_time: 336
type=note_on channel=3 note=55 velocity=0 time=96 actual_time=12936
type=note_on channel=3 note=47 velocity=80 time=24 actual_time=0
type: note_off, time: 24, actual_time: 96
type=note_on channel=3 note=45 velocity=0 time=96 actual_time=13056
type=note_on channel=3 note=47 velocity=80 time=24 actual_time=0
type: note_off, time: 24, actual_time: 96
type=note_on channel=3 note=52 velocity=0 time=96 actual_time=13176
type=note_on channel=3 note=47 velocity=80 time=24 actual_time=120
type: note_off, time: 24, actual_time: 216
type=note_on channel=3 note=57 velocity=0 time=96 actual_time=13296
type=note_on channel=3 note=47 velocity=80 time=24 actual_time=13320
type: note_off, time: 24, actual_time: 13416
type=note_on channel=3 note=59 velocity=0 time=96 actual_time=13416
type=note_on channel=3 note=47 velocity=81 time=24 actual_time=13440
type: note_off, time: 24, actual_time: 13740
type=control_change channel=3 control=64 value=127 time=0 actual_time=13440
type=note_on channel=3 note=47 velocity=80 time=120 actual_time=13560
type: note_off, time: 120, actual_time: 13656
type=note_on channel=3 note=54 velocity=0 time=96 actual_time=13656
type=note_on channel=3 note=47 velocity=80 time=24 actual_time=13680
type: note_off, time: 24, actual_time: 13776
type=note_on channel=3 note=47 velocity=0 time=60 actual_time=13740
type=note_on channel=3 note=59 velocity=0 time=36 actual_time=13776
type=note_on channel=3 note=47 velocity=80 time=24 actual_time=13800
type: note_off, time: 24, actual_time: 13992
type=note_on channel=3 note=62 velocity=0 time=192 actual_time=13992
type=note_on channel=3 note=47 velocity=80 time=48 actual_time=0
type: note_off, time: 48, actual_time: 96
type=note_on channel=3 note=59 velocity=0 time=96 actual_time=14136
type=note_on channel=3 note=54 velocity=80 time=24 actual_time=14160
type: note_off, time: 24, actual_time: 14256
type=note_on channel=3 note=54 velocity=0 time=96 actual_time=14256
type=note_on channel=3 note=55 velocity=80 time=24 actual_time=0
type: note_off, time: 24, actual_time: 96
type=note_on channel=3 note=55 velocity=0 time=96 actual_time=14376
type=note_on channel=3 note=47 velocity=80 time=24 actual_time=360
type: note_off, time: 24, actual_time: 456
type=note_on channel=3 note=43 velocity=0 time=96 actual_time=14496
type=note_on channel=3 note=47 velocity=80 time=24 actual_time=0
type: note_off, time: 24, actual_time: 96
type=note_on channel=3 note=47 velocity=0 time=96 actual_time=14616
type=note_on channel=3 note=47 velocity=80 time=24 actual_time=120
type: note_off, time: 24, actual_time: 216
type=note_on channel=3 note=50 velocity=0 time=96 actual_time=14736
type=note_on channel=3 note=47 velocity=80 time=24 actual_time=14760
type: note_off, time: 24, actual_time: 14856
type=note_on channel=3 note=55 velocity=0 time=96 actual_time=14856
type=note_on channel=3 note=47 velocity=80 time=24 actual_time=240
type: note_off, time: 24, actual_time: 336
type=note_on channel=3 note=45 velocity=0 time=96 actual_time=14976
type=note_on channel=3 note=47 velocity=80 time=24 actual_time=360
type: note_off, time: 24, actual_time: 456
type=note_on channel=3 note=64 velocity=0 time=96 actual_time=15096
type=note_on channel=3 note=47 velocity=80 time=24 actual_time=0
type: note_off, time: 24, actual_time: 96
type=note_on channel=3 note=59 velocity=0 time=96 actual_time=15216
type=note_on channel=3 note=47 velocity=80 time=24 actual_time=360
type: note_off, time: 24, actual_time: 456
type=note_on channel=3 note=57 velocity=0 time=96 actual_time=15336
type=note_on channel=3 note=47 velocity=80 time=24 actual_time=120
type: note_off, time: 24, actual_time: 216
type=note_on channel=3 note=54 velocity=0 time=96 actual_time=15456
type=note_on channel=3 note=59 velocity=80 time=24 actual_time=360
type: note_off, time: 24, actual_time: 552
type=note_on channel=3 note=59 velocity=0 time=192 actual_time=15672
type=note_on channel=3 note=47 velocity=80 time=48 actual_time=15720
type: note_off, time: 48, actual_time: 15912
type=note_on channel=3 note=61 velocity=0 time=192 actual_time=15912
type=note_on channel=3 note=47 velocity=80 time=48 actual_time=0
type: note_off, time: 48, actual_time: 192
type=note_on channel=3 note=62 velocity=0 time=192 actual_time=16152
type=note_on channel=3 note=47 velocity=80 time=48 actual_time=120
type: note_off, time: 48, actual_time: 336
type=note_on channel=3 note=64 velocity=0 time=216 actual_time=16416
type=note_on channel=3 note=47 velocity=80 time=24 actual_time=240
type: note_off, time: 24, actual_time: 432
type=note_on channel=3 note=62 velocity=0 time=192 actual_time=16632
type=note_on channel=3 note=47 velocity=80 time=48 actual_time=360
type: note_off, time: 48, actual_time: 552
type=note_on channel=3 note=61 velocity=0 time=192 actual_time=16872
type=note_on channel=3 note=47 velocity=80 time=48 actual_time=240
type: note_off, time: 48, actual_time: 336
type=note_on channel=3 note=57 velocity=0 time=96 actual_time=17016
type=note_on channel=3 note=47 velocity=80 time=24 actual_time=360
type: note_off, time: 24, actual_time: 456
type=note_on channel=3 note=66 velocity=0 time=96 actual_time=17136
type=note_on channel=3 note=57 velocity=80 time=24 actual_time=240
type: note_off, time: 24, actual_time: 336
type=note_on channel=3 note=57 velocity=0 time=96 actual_time=17256
type=note_on channel=3 note=47 velocity=80 time=24 actual_time=0
type: note_off, time: 24, actual_time: 192
type=note_on channel=3 note=54 velocity=0 time=192 actual_time=17472
type=note_on channel=3 note=59 velocity=80 time=48 actual_time=360
type: note_off, time: 48, actual_time: 456
type=note_on channel=3 note=59 velocity=0 time=96 actual_time=17616
type=note_on channel=3 note=47 velocity=80 time=24 actual_time=0
type: note_off, time: 24, actual_time: 192
type=note_on channel=3 note=61 velocity=0 time=192 actual_time=17832
type=note_on channel=3 note=47 velocity=80 time=48 actual_time=240
type: note_off, time: 48, actual_time: 432
type=note_on channel=3 note=62 velocity=0 time=192 actual_time=18072
type=note_on channel=3 note=47 velocity=80 time=48 actual_time=18120
type: note_off, time: 48, actual_time: 18336
type=note_on channel=3 note=69 velocity=0 time=216 actual_time=18336
type=note_on channel=3 note=47 velocity=80 time=24 actual_time=120
type: note_off, time: 24, actual_time: 312
type=note_on channel=3 note=67 velocity=0 time=192 actual_time=18552
type=note_on channel=3 note=47 velocity=80 time=48 actual_time=18600
type: note_off, time: 48, actual_time: 18792
type=note_on channel=3 note=66 velocity=0 time=192 actual_time=18792
type=note_on channel=3 note=47 velocity=80 time=48 actual_time=18840
type: note_off, time: 48, actual_time: 18936
type=note_on channel=3 note=59 velocity=0 time=96 actual_time=18936
type=note_on channel=3 note=64 velocity=80 time=24 actual_time=240
type: note_off, time: 24, actual_time: 336
type=note_on channel=3 note=64 velocity=0 time=96 actual_time=19056
type=note_on channel=3 note=47 velocity=80 time=24 actual_time=240
type: note_off, time: 24, actual_time: 336
type=note_on channel=3 note=57 velocity=0 time=96 actual_time=19176
type=control_change channel=3 control=64 value=127 time=24 actual_time=19200
type=note_on channel=3 note=47 velocity=81 time=0 actual_time=240
type: note_off, time: 0, actual_time: 540
type=note_on channel=3 note=54 velocity=80 time=120 actual_time=120
type: note_off, time: 120, actual_time: 216
type=note_on channel=3 note=54 velocity=0 time=96 actual_time=19416
type=note_on channel=3 note=63 velocity=80 time=24 actual_time=120
type: note_off, time: 24, actual_time: 216
type=note_on channel=3 note=47 velocity=0 time=60 actual_time=19500
type=note_on channel=3 note=59 velocity=0 time=36 actual_time=19536
type=note_on channel=3 note=62 velocity=80 time=24 actual_time=120
type: note_off, time: 24, actual_time: 312
type=note_on channel=3 note=62 velocity=0 time=192 actual_time=19752
type=note_on channel=3 note=62 velocity=80 time=48 actual_time=360
type: note_off, time: 48, actual_time: 456
type=note_on channel=3 note=59 velocity=0 time=96 actual_time=19896
type=note_on channel=3 note=47 velocity=80 time=24 actual_time=240
type: note_off, time: 24, actual_time: 336
type=note_on channel=3 note=54 velocity=0 time=96 actual_time=20016
type=note_on channel=3 note=47 velocity=80 time=24 actual_time=360
type: note_off, time: 24, actual_time: 456
type=note_on channel=3 note=55 velocity=0 time=96 actual_time=20136
type=note_on channel=3 note=43 velocity=80 time=24 actual_time=20160
type: note_off, time: 24, actual_time: 20256
type=note_on channel=3 note=43 velocity=0 time=96 actual_time=20256
type=note_on channel=3 note=47 velocity=80 time=24 actual_time=20280
type: note_off, time: 24, actual_time: 20376
type=note_on channel=3 note=47 velocity=0 time=96 actual_time=20376
type=note_on channel=3 note=47 velocity=80 time=24 actual_time=0
type: note_off, time: 24, actual_time: 96
type=note_on channel=3 note=50 velocity=0 time=96 actual_time=20496
type=note_on channel=3 note=55 velocity=80 time=24 actual_time=240
type: note_off, time: 24, actual_time: 336
type=note_on channel=3 note=55 velocity=0 time=96 actual_time=20616
type=note_on channel=3 note=45 velocity=80 time=24 actual_time=240
type: note_off, time: 24, actual_time: 336
type=note_on channel=3 note=45 velocity=0 time=96 actual_time=20736
type=note_on channel=3 note=47 velocity=80 time=24 actual_time=240
type: note_off, time: 24, actual_time: 336
type=note_on channel=3 note=52 velocity=0 time=96 actual_time=20856
type=note_on channel=3 note=47 velocity=80 time=24 actual_time=0
type: note_off, time: 24, actual_time: 96
type=note_on channel=3 note=57 velocity=0 time=96 actual_time=20976
type=note_on channel=3 note=47 velocity=80 time=24 actual_time=360
type: note_off, time: 24, actual_time: 456
type=note_on channel=3 note=59 velocity=0 time=96 actual_time=21096
type=note_on channel=3 note=47 velocity=81 time=24 actual_time=21120
type: note_off, time: 24, actual_time: 21420
type=control_change channel=3 control=64 value=127 time=0 actual_time=21120
type=note_on channel=3 note=47 velocity=80 time=120 actual_time=21240
type: note_off, time: 120, actual_time: 21336
type=note_on channel=3 note=54 velocity=0 time=96 actual_time=21336
type=note_on channel=3 note=47 velocity=80 time=24 actual_time=240
type: note_off, time: 24, actual_time: 336
type=note_on channel=3 note=47 velocity=0 time=60 actual_time=21420
type=note_on channel=3 note=59 velocity=0 time=36 actual_time=21456
type=note_on channel=3 note=62 velocity=80 time=24 actual_time=0
type: note_off, time: 24, actual_time: 192
type=note_on channel=3 note=62 velocity=0 time=192 actual_time=21672
type=note_on channel=3 note=47 velocity=80 time=48 actual_time=0
type: note_off, time: 48, actual_time: 96
type=note_on channel=3 note=59 velocity=0 time=96 actual_time=21816
type=note_on channel=3 note=47 velocity=80 time=24 actual_time=21840
type: note_off, time: 24, actual_time: 21936
type=note_on channel=3 note=54 velocity=0 time=96 actual_time=21936
type=note_on channel=3 note=55 velocity=80 time=24 actual_time=120
type: note_off, time: 24, actual_time: 216
type=note_on channel=3 note=55 velocity=0 time=96 actual_time=22056
type=note_on channel=3 note=47 velocity=80 time=24 actual_time=240
type: note_off, time: 24, actual_time: 336
type=note_on channel=3 note=43 velocity=0 time=96 actual_time=22176
type=note_on channel=3 note=47 velocity=80 time=24 actual_time=0
type: note_off, time: 24, actual_time: 96
type=note_on channel=3 note=47 velocity=0 time=96 actual_time=22296
type=note_on channel=3 note=47 velocity=80 time=24 actual_time=240
type: note_off, time: 24, actual_time: 336
type=note_on channel=3 note=50 velocity=0 time=96 actual_time=22416
type=note_on channel=3 note=47 velocity=80 time=24 actual_time=120
type: note_off, time: 24, actual_time: 216
type=note_on channel=3 note=55 velocity=0 time=96 actual_time=22536
type=note_on channel=3 note=49 velocity=80 time=24 actual_time=120
type: note_off, time: 24, actual_time: 216
type=note_on channel=3 note=45 velocity=0 time=96 actual_time=22656
type=note_on channel=3 note=52 velocity=80 time=24 actual_time=120
type: note_off, time: 24, actual_time: 216
type=note_on channel=3 note=52 velocity=0 time=96 actual_time=22776
type=note_on channel=3 note=57 velocity=80 time=24 actual_time=360
type: note_off, time: 24, actual_time: 456
type=note_on channel=3 note=57 velocity=0 time=96 actual_time=22896
type=note_on channel=3 note=47 velocity=80 time=24 actual_time=240
type: note_off, time: 24, actual_time: 336
type=note_on channel=3 note=59 velocity=0 time=96 actual_time=23016
type=control_change channel=3 control=64 value=127 time=24 actual_time=23040
type=note_on channel=3 note=47 velocity=81 time=0 actual_time=0
type: note_off, time: 0, actual_time: 300
type=note_on channel=3 note=47 velocity=80 time=120 actual_time=360
type: note_off, time: 120, actual_time: 456
type=note_on channel=3 note=54 velocity=0 time=96 actual_time=23256
type=note_on channel=3 note=59 velocity=80 time=24 actual_time=23280
type: note_off, time: 24, actual_time: 23376
type=note_on channel=3 note=47 velocity=0 time=60 actual_time=23340
type=note_on channel=3 note=59 velocity=0 time=36 actual_time=23376
type=note_on channel=3 note=47 velocity=80 time=24 actual_time=360
type: note_off, time: 24, actual_time: 552
type=note_on channel=3 note=62 velocity=0 time=192 actual_time=23592
type=note_on channel=3 note=47 velocity=80 time=48 actual_time=240
type: note_off, time: 48, actual_time: 336
type=note_on channel=3 note=59 velocity=0 time=96 actual_time=23736
type=note_on channel=3 note=47 velocity=80 time=24 actual_time=240
type: note_off, time: 24, actual_time: 336
type=note_on channel=3 note=54 velocity=0 time=96 actual_time=23856
type=note_on channel=3 note=47 velocity=80 time=24 actual_time=23880
type: note_off, time: 24, actual_time: 23976
type=note_on channel=3 note=55 velocity=0 time=96 actual_time=23976
type=note_on channel=3 note=43 velocity=80 time=24 actual_time=240
type: note_off, time: 24, actual_time: 336
type=note_on channel=3 note=43 velocity=0 time=96 actual_time=24096
type=note_on channel=3 note=47 velocity=80 time=24 actual_time=240
type: note_off, time: 24, actual_time: 336
type=note_on channel=3 note=47 velocity=0 time=96 actual_time=24216
type=note_on channel=3 note=47 velocity=80 time=24 actual_time=360
type: note_off, time: 24, actual_time: 456
type=note_on channel=3 note=50 velocity=0 time=96 actual_time=24336
type=note_on channel=3 note=47 velocity=80 time=24 actual_time=0
type: note_off, time: 24, actual_time: 96
type=note_on channel=3 note=55 velocity=0 time=96 actual_time=24456
type=note_on channel=3 note=47 velocity=80 time=24 actual_time=120
type: note_off, time: 24, actual_time: 216
type=note_on channel=3 note=45 velocity=0 time=96 actual_time=24576
type=note_on channel=3 note=52 velocity=80 time=24 actual_time=240
type: note_off, time: 24, actual_time: 336
type=note_on channel=3 note=52 velocity=0 time=96 actual_time=24696
type=note_on channel=3 note=47 velocity=80 time=24 actual_time=0
type: note_off, time: 24, actual_time: 96
type=note_on channel=3 note=57 velocity=0 time=96 actual_time=24816
type=note_on channel=3 note=47 velocity=80 time=24 actual_time=120
type: note_off, time: 24, actual_time: 216
type=note_on channel=3 note=59 velocity=0 time=96 actual_time=24936
type=note_on channel=3 note=47 velocity=81 time=24 actual_time=360
type: note_off, time: 24, actual_time: 660
type=control_change channel=3 control=64 value=127 time=0 actual_time=24960
type=note_on channel=3 note=54 velocity=80 time=120 actual_time=120
type: note_off, time: 120, actual_time: 216
type=note_on channel=3 note=54 velocity=0 time=96 actual_time=25176
type=note_on channel=3 note=60 velocity=80 time=24 actual_time=25200
type: note_off, time: 24, actual_time: 25296
type=note_on channel=3 note=47 velocity=0 time=60 actual_time=25260
type=note_on channel=3 note=59 velocity=0 time=36 actual_time=25296
type=note_on channel=3 note=47 velocity=80 time=24 actual_time=0
type: note_off, time: 24, actual_time: 192
type=note_on channel=3 note=62 velocity=0 time=192 actual_time=25512
type=note_on channel=3 note=47 velocity=80 time=48 actual_time=240
type: note_off, time: 48, actual_time: 336
type=note_on channel=3 note=59 velocity=0 time=96 actual_time=25656
type=note_on channel=3 note=47 velocity=80 time=24 actual_time=120
type: note_off, time: 24, actual_time: 216
type=note_on channel=3 note=54 velocity=0 time=96 actual_time=25776
type=note_on channel=3 note=47 velocity=80 time=24 actual_time=120
type: note_off, time: 24, actual_time: 216
type=note_on channel=3 note=55 velocity=0 time=96 actual_time=25896
type=note_on channel=3 note=43 velocity=80 time=24 actual_time=25920
type: note_off, time: 24, actual_time: 26016
type=note_on channel=3 note=43 velocity=0 time=96 actual_time=26016
type=note_on channel=3 note=47 velocity=80 time=24 actual_time=120
type: note_off, time: 24, actual_time: 216
type=note_on channel=3 note=47 velocity=0 time=96 actual_time=26136
type=note_on channel=3 note=47 velocity=80 time=24 actual_time=26160
type: note_off, time: 24, actual_time: 26256
type=note_on channel=3 note=50 velocity=0 time=96 actual_time=26256
type=note_on channel=3 note=47 velocity=80 time=24 actual_time=240
type: note_off, time: 24, actual_time: 336
type=note_on channel=3 note=55 velocity=0 time=96 actual_time=26376
type=note_on channel=3 note=47 velocity=80 time=24 actual_time=0
type: note_off, time: 24, actual_time: 96
type=note_on channel=3 note=45 velocity=0 time=96 actual_time=26496
type=note_on channel=3 note=47 velocity=80 time=24 actual_time=360
type: note_off, time: 24, actual_time: 456
type=note_on channel=3 note=64 velocity=0 time=96 actual_time=26616
type=note_on channel=3 note=47 velocity=80 time=24 actual_time=0
type: note_off, time: 24, actual_time: 96
type=note_on channel=3 note=59 velocity=0 time=96 actual_time=26736
type=note_on channel=3 note=47 velocity=80 time=24 actual_time=0
type: note_off, time: 24, actual_time: 96
type=note_on channel=3 note=57 velocity=0 time=96 actual_time=26856
type=note_on channel=3 note=47 velocity=80 time=7704 actual_time=360
type: note_off, time: 7704, actual_time: 456
type=note_on channel=3 note=54 velocity=0 time=96 actual_time=34656
type=note_on channel=3 note=59 velocity=80 time=24 actual_time=0
type: note_off, time: 24, actual_time: 192
type=note_on channel=3 note=59 velocity=0 time=192 actual_time=34872
type=note_on channel=3 note=47 velocity=80 time=48 actual_time=360
type: note_off, time: 48, actual_time: 552
type=note_on channel=3 note=61 velocity=0 time=192 actual_time=35112
type=note_on channel=3 note=62 velocity=80 time=48 actual_time=120
type: note_off, time: 48, actual_time: 312
type=note_on channel=3 note=62 velocity=0 time=192 actual_time=35352
type=note_on channel=3 note=47 velocity=80 time=48 actual_time=240
type: note_off, time: 48, actual_time: 456
type=note_on channel=3 note=64 velocity=0 time=216 actual_time=35616
type=note_on channel=3 note=47 velocity=80 time=24 actual_time=360
type: note_off, time: 24, actual_time: 552
type=note_on channel=3 note=62 velocity=0 time=192 actual_time=35832
type=note_on channel=3 note=61 velocity=80 time=48 actual_time=35880
type: note_off, time: 48, actual_time: 36072
type=note_on channel=3 note=61 velocity=0 time=192 actual_time=36072
type=note_on channel=3 note=47 velocity=80 time=48 actual_time=240
type: note_off, time: 48, actual_time: 432
type=note_on channel=3 note=57 velocity=0 time=192 actual_time=36312
type=note_on channel=3 note=47 velocity=80 time=48 actual_time=120
type: note_off, time: 48, actual_time: 216
type=note_on channel=3 note=61 velocity=0 time=96 actual_time=36456
type=note_on channel=3 note=47 velocity=80 time=24 actual_time=240
type: note_off, time: 24, actual_time: 432
type=note_on channel=3 note=54 velocity=0 time=192 actual_time=36672
type=note_on channel=3 note=47 velocity=80 time=48 actual_time=36720
type: note_off, time: 48, actual_time: 36816
type=note_on channel=3 note=59 velocity=0 time=96 actual_time=36816
type=note_on channel=3 note=47 velocity=80 time=24 actual_time=36840
type: note_off, time: 24, actual_time: 37032
type=note_on channel=3 note=61 velocity=0 time=192 actual_time=37032
type=note_on channel=3 note=47 velocity=80 time=48 actual_time=120
type: note_off, time: 48, actual_time: 312
type=note_on channel=3 note=62 velocity=0 time=192 actual_time=37272
type=note_on channel=3 note=69 velocity=80 time=48 actual_time=37320
type: note_off, time: 48, actual_time: 37536
type=note_on channel=3 note=69 velocity=0 time=216 actual_time=37536
type=note_on channel=3 note=47 velocity=80 time=24 actual_time=120
type: note_off, time: 24, actual_time: 312
type=note_on channel=3 note=67 velocity=0 time=192 actual_time=37752
type=note_on channel=3 note=47 velocity=80 time=48 actual_time=360
type: note_off, time: 48, actual_time: 552
type=note_on channel=3 note=66 velocity=0 time=192 actual_time=37992
type=note_on channel=3 note=47 velocity=80 time=48 actual_time=120
type: note_off, time: 48, actual_time: 216
type=note_on channel=3 note=59 velocity=0 time=96 actual_time=38136
type=note_on channel=3 note=47 velocity=80 time=24 actual_time=0
type: note_off, time: 24, actual_time: 96
type=note_on channel=3 note=64 velocity=0 time=96 actual_time=38256
type=note_on channel=3 note=47 velocity=80 time=24 actual_time=38280
type: note_off, time: 24, actual_time: 38376
type=note_on channel=3 note=57 velocity=0 time=96 actual_time=38376
type=note_on channel=3 note=43 velocity=81 time=24 actual_time=360
type: note_off, time: 24, actual_time: 660
type=control_change channel=3 control=64 value=127 time=0 actual_time=38400
type=note_on channel=3 note=47 velocity=80 time=120 actual_time=240
type: note_off, time: 120, actual_time: 336
type=note_on channel=3 note=54 velocity=0 time=96 actual_time=38616
type=note_on channel=3 note=47 velocity=80 time=24 actual_time=120
type: note_off, time: 24, actual_time: 216
type=note_on channel=3 note=47 velocity=0 time=60 actual_time=38700
type=note_on channel=3 note=59 velocity=0 time=36 actual_time=38736
type=note_on channel=3 note=62 velocity=80 time=24 actual_time=0
type: note_off, time: 24, actual_time: 192
type=note_on channel=3 note=62 velocity=0 time=192 actual_time=38952
type=note_on channel=3 note=47 velocity=80 time=48 actual_time=240
type: note_off, time: 48, actual_time: 336
type=note_on channel=3 note=59 velocity=0 time=96 actual_time=39096
type=note_on channel=3 note=47 velocity=80 time=24 actual_time=0
type: note_off, time: 24, actual_time: 96
type=note_on channel=3 note=54 velocity=0 time=96 actual_time=39216
type=note_on channel=3 note=54 velocity=80 time=24 actual_time=240
type: note_off, time: 24, actual_time: 336
type=note_on channel=3 note=55 velocity=0 time=96 actual_time=39336
type=note_on channel=3 note=47 velocity=80 time=24 actual_time=39360
type: note_off, time: 24, actual_time: 39456
type=note_on channel=3 note=43 velocity=0 time=96 actual_time=39456
type=note_on channel=3 note=47 velocity=80 time=24 actual_time=240
type: note_off, time: 24, actual_time: 336
type=note_on channel=3 note=47 velocity=0 time=96 actual_time=39576
type=note_on channel=3 note=50 velocity=80 time=24 actual_time=240
type: note_off, time: 24, actual_time: 336
type=note_on channel=3 note=50 velocity=0 time=96 actual_time=39696
type=note_on channel=3 note=56 velocity=80 time=24 actual_time=120
type: note_off, time: 24, actual_time: 216
type=note_on channel=3 note=55 velocity=0 time=96 actual_time=39816
type=note_on channel=3 note=47 velocity=80 time=24 actual_time=0
type: note_off, time: 24, actual_time: 96
type=note_on channel=3 note=45 velocity=0 time=96 actual_time=39936
type=note_on channel=3 note=52 velocity=80 time=24 actual_time=39960
type: note_off, time: 24, actual_time: 40056
type=note_on channel=3 note=52 velocity=0 time=96 actual_time=40056
type=note_on channel=3 note=57 velocity=80 time=24 actual_time=360
type: note_off, time: 24, actual_time: 456
type=note_on channel=3 note=57 velocity=0 time=96 actual_time=40176
type=note_on channel=3 note=47 velocity=80 time=24 actual_time=0
type: note_off, time: 24, actual_time: 96
type=note_on channel=3 note=59 velocity=0 time=96 actual_time=40296
type=control_change channel=3 control=64 value=127 time=24 actual_time=40320
type=note_on channel=3 note=47 velocity=81 time=0 actual_time=240
type: note_off, time: 0, actual_time: 540
type=note_on channel=3 note=59 velocity=80 time=120 actual_time=0
type: note_off, time: 120, actual_time: 96
type=note_on channel=3 note=54 velocity=0 time=96 actual_time=40536
type=note_on channel=3 note=59 velocity=80 time=24 actual_time=40560
type: note_off, time: 24, actual_time: 40656
type=note_on channel=3 note=47 velocity=0 time=60 actual_time=40620
type=note_on channel=3 note=59 velocity=0 time=36 actual_time=40656
type=note_on channel=3 note=47 velocity=80 time=24 actual_time=0
type: note_off, time: 24, actual_time: 192
type=note_on channel=3 note=62 velocity=0 time=192 actual_time=40872
type=note_on channel=3 note=59 velocity=80 time=48 actual_time=0
type: note_off, time: 48, actual_time: 96
type=note_on channel=3 note=59 velocity=0 time=96 actual_time=41016
type=note_on channel=3 note=47 velocity=80 time=24 actual_time=41040
type: note_off, time: 24, actual_time: 41136
type=note_on channel=3 note=54 velocity=0 time=96 actual_time=41136
type=note_on channel=3 note=55 velocity=80 time=24 actual_time=360
type: note_off, time: 24, actual_time: 456
type=note_on channel=3 note=55 velocity=0 time=96 actual_time=41256
type=note_on channel=3 note=40 velocity=80 time=24 actual_time=0
type: note_off, time: 24, actual_time: 96
type=note_on channel=3 note=43 velocity=0 time=96 actual_time=41376
type=note_on channel=3 note=47 velocity=80 time=24 actual_time=41400
type: note_off, time: 24, actual_time: 41496
type=note_on channel=3 note=47 velocity=0 time=96 actual_time=41496
type=note_on channel=3 note=47 velocity=80 time=24 actual_time=240
type: note_off, time: 24, actual_time: 336
type=note_on channel=3 note=50 velocity=0 time=96 actual_time=41616
type=note_on channel=3 note=47 velocity=80 time=24 actual_time=120
type: note_off, time: 24, actual_time: 216
type=note_on channel=3 note=55 velocity=0 time=96 actual_time=41736
type=note_on channel=3 note=47 velocity=80 time=24 actual_time=120
type: note_off, time: 24, actual_time: 216
type=note_on channel=3 note=45 velocity=0 time=96 actual_time=41856
type=note_on channel=3 note=52 velocity=80 time=24 actual_time=360
type: note_off, time: 24, actual_time: 456
type=note_on channel=3 note=52 velocity=0 time=96 actual_time=41976
type=note_on channel=3 note=47 velocity=80 time=24 actual_time=360
type: note_off, time: 24, actual_time: 456
type=note_on channel=3 note=57 velocity=0 time=96 actual_time=42096
type=note_on channel=3 note=59 velocity=80 time=24 actual_time=42120
type: note_off, time: 24, actual_time: 42216
type=note_on channel=3 note=59 velocity=0 time=96 actual_time=42216
type=note_on channel=3 note=47 velocity=81 time=24 actual_time=360
type: note_off, time: 24, actual_time: 660
type=control_change channel=3 control=64 value=127 time=0 actual_time=42240
type=note_on channel=3 note=47 velocity=80 time=120 actual_time=42360
type: note_off, time: 120, actual_time: 42456
type=note_on channel=3 note=54 velocity=0 time=96 actual_time=42456
type=note_on channel=3 note=63 velocity=80 time=24 actual_time=42480
type: note_off, time: 24, actual_time: 42576
type=note_on channel=3 note=47 velocity=0 time=60 actual_time=42540
type=note_on channel=3 note=59 velocity=0 time=36 actual_time=42576
type=note_on channel=3 note=47 velocity=80 time=24 actual_time=360
type: note_off, time: 24, actual_time: 552
type=note_on channel=3 note=62 velocity=0 time=192 actual_time=42792
type=note_on channel=3 note=59 velocity=80 time=48 actual_time=360
type: note_off, time: 48, actual_time: 456
type=note_on channel=3 note=59 velocity=0 time=96 actual_time=42936
type=note_on channel=3 note=54 velocity=80 time=24 actual_time=42960
type: note_off, time: 24, actual_time: 43056
type=note_on channel=3 note=54 velocity=0 time=96 actual_time=43056
type=note_on channel=3 note=55 velocity=80 time=24 actual_time=360
type: note_off, time: 24, actual_time: 456
type=note_on channel=3 note=55 velocity=0 time=96 actual_time=43176
type=note_on channel=3 note=47 velocity=80 time=24 actual_time=0
type: note_off, time: 24, actual_time: 96
type=note_on channel=3 note=43 velocity=0 time=96 actual_time=43296
type=note_on channel=3 note=47 velocity=80 time=24 actual_time=43320
type: note_off, time: 24, actual_time: 43416
type=note_on channel=3 note=47 velocity=0 time=96 actual_time=43416
type=note_on channel=3 note=49 velocity=80 time=24 actual_time=120
type: note_off, time: 24, actual_time: 216
type=note_on channel=3 note=50 velocity=0 time=96 actual_time=43536
type=note_on channel=3 note=47 velocity=80 time=24 actual_time=43560
type: note_off, time: 24, actual_time: 43656
type=note_on channel=3 note=55 velocity=0 time=96 actual_time=43656
type=note_on channel=3 note=47 velocity=80 time=24 actual_time=43680
type: note_off, time: 24, actual_time: 43776
type=note_on channel=3 note=45 velocity=0 time=96 actual_time=43776
type=note_on channel=3 note=47 velocity=80 time=24 actual_time=43800
type: note_off, time: 24, actual_time: 43896
type=note_on channel=3 note=52 velocity=0 time=96 actual_time=43896
type=note_on channel=3 note=47 velocity=80 time=24 actual_time=43920
type: note_off, time: 24, actual_time: 44016
type=note_on channel=3 note=57 velocity=0 time=96 actual_time=44016
type=note_on channel=3 note=47 velocity=80 time=24 actual_time=360
type: note_off, time: 24, actual_time: 456
type=note_on channel=3 note=59 velocity=0 time=96 actual_time=44136
type=control_change channel=3 control=64 value=127 time=24 actual_time=44160
type=note_on channel=3 note=47 velocity=81 time=0 actual_time=120
type: note_off, time: 0, actual_time: 420
type=note_on channel=3 note=47 velocity=80 time=120 actual_time=0
type: note_off, time: 120, actual_time: 96
type=note_on channel=3 note=54 velocity=0 time=96 actual_time=44376
type=note_on channel=3 note=47 velocity=80 time=24 actual_time=0
type: note_off, time: 24, actual_time: 96
type=note_on channel=3 note=47 velocity=0 time=60 actual_time=44460
type=note_on channel=3 note=59 velocity=0 time=36 actual_time=44496
type=note_on channel=3 note=47 velocity=80 time=24 actual_time=44520
type: note_off, time: 24, actual_time: 44712
type=note_on channel=3 note=62 velocity=0 time=192 actual_time=44712
type=note_on channel=3 note=47 velocity=80 time=48 actual_time=120
type: note_off, time: 48, actual_time: 216
type=note_on channel=3 note=59 velocity=0 time=96 actual_time=44856
type=note_on channel=3 note=47 velocity=80 time=24 actual_time=240
type: note_off, time: 24, actual_time: 336
type=note_on channel=3 note=54 velocity=0 time=96 actual_time=44976
type=note_on channel=3 note=55 velocity=80 time=24 actual_time=360
type: note_off, time: 24, actual_time: 456
type=note_on channel=3 note=55 velocity=0 time=96 actual_time=45096
type=note_on channel=3 note=47 velocity=80 time=24 actual_time=120
type: note_off, time: 24, actual_time: 216
type=note_on channel=3 note=43 velocity=0 time=96 actual_time=45216
type=note_on channel=3 note=47 velocity=80 time=24 actual_time=240
type: note_off, time: 24, actual_time: 336
type=note_on channel=3 note=47 velocity=0 time=96 actual_time=45336
type=note_on channel=3 note=48 velocity=80 time=24 actual_time=120
type: note_off, time: 24, actual_time: 216
type=note_on channel=3 note=50 velocity=0 time=96 actual_time=45456
type=note_on channel=3 note=51 velocity=80 time=24 actual_time=240
type: note_off, time: 24, actual_time: 336
type=note_on channel=3 note=55 velocity=0 time=96 actual_time=45576
type=note_on channel=3 note=47 velocity=80 time=24 actual_time=120
type: note_off, time: 24, actual_time: 216
type=note_on channel=3 note=45 velocity=0 time=96 actual_time=45696
type=note_on channel=3 note=47 velocity=80 time=24 actual_time=240
type: note_off, time: 24, actual_time: 336
type=note_on channel=3 note=64 velocity=0 time=96 actual_time=45816
type=note_on channel=3 note=59 velocity=80 time=24 actual_time=45840
type: note_off, time: 24, actual_time: 45936
type=note_on channel=3 note=59 velocity=0 time=96 actual_time=45936
type=note_on channel=3 note=62 velocity=80 time=24 actual_time=240
type: note_off, time: 24, actual_time: 336
type=note_on channel=3 note=57 velocity=0 time=96 actual_time=46056
type=note_on channel=3 note=47 velocity=80 time=15384 actual_time=0
type: note_off, time: 15384, actual_time: 96
type=note_on channel=3 note=59 velocity=0 time=96 actual_time=61536
type=note_on channel=3 note=61 velocity=80 time=24 actual_time=0
type: note_off, time: 24, actual_time: 192
type=note_on channel=3 note=61 velocity=0 time=192 actual_time=61752
type=note_on channel=3 note=62 velocity=80 time=48 actual_time=360
type: note_off, time: 48, actual_time: 552
type=note_on channel=3 note=62 velocity=0 time=192 actual_time=61992
type=note_on channel=3 note=47 velocity=80 time=48 actual_time=0
type: note_off, time: 48, actual_time: 192
type=note_on channel=3 note=61 velocity=0 time=192 actual_time=62232
type=note_on channel=3 note=47 velocity=80 time=48 actual_time=0
type: note_off, time: 48, actual_time: 216
type=note_on channel=3 note=62 velocity=0 time=216 actual_time=62496
type=note_on channel=3 note=47 velocity=80 time=24 actual_time=0
type: note_off, time: 24, actual_time: 192
type=note_on channel=3 note=64 velocity=0 time=192 actual_time=62712
type=note_on channel=3 note=47 velocity=80 time=48 actual_time=62760
type: note_off, time: 48, actual_time: 62952
type=note_on channel=3 note=69 velocity=0 time=192 actual_time=62952
type=note_on channel=3 note=47 velocity=80 time=48 actual_time=120
type: note_off, time: 48, actual_time: 216
type=note_on channel=3 note=62 velocity=0 time=96 actual_time=63096
type=note_on channel=3 note=47 velocity=80 time=24 actual_time=0
type: note_off, time: 24, actual_time: 96
type=note_on channel=3 note=62 velocity=0 time=96 actual_time=63216
type=note_on channel=3 note=61 velocity=80 time=24 actual_time=63240
type: note_off, time: 24, actual_time: 63336
type=note_on channel=3 note=57 velocity=0 time=96 actual_time=63336
type=note_on channel=3 note=47 velocity=80 time=24 actual_time=0
type: note_off, time: 24, actual_time: 96
type=note_on channel=3 note=59 velocity=0 time=96 actual_time=63456
type=note_on channel=3 note=47 velocity=80 time=24 actual_time=360
type: note_off, time: 24, actual_time: 456
type=note_on channel=3 note=62 velocity=0 time=96 actual_time=63576
type=note_on channel=3 note=47 velocity=80 time=24 actual_time=120
type: note_off, time: 24, actual_time: 216
type=note_on channel=3 note=59 velocity=0 time=96 actual_time=63696
type=note_on channel=3 note=62 velocity=80 time=24 actual_time=240
type: note_off, time: 24, actual_time: 432
type=note_on channel=3 note=62 velocity=0 time=192 actual_time=63912
type=note_on channel=3 note=47 velocity=80 time=48 actual_time=120
type: note_off, time: 48, actual_time: 216
type=note_on channel=3 note=61 velocity=0 time=96 actual_time=64056
type=note_on channel=3 note=47 velocity=80 time=24 actual_time=360
type: note_off, time: 24, actual_time: 456
type=note_on channel=3 note=64 velocity=0 time=96 actual_time=64176
type=note_on channel=3 note=47 velocity=80 time=24 actual_time=360
type: note_off, time: 24, actual_time: 576
type=note_on channel=3 note=69 velocity=0 time=216 actual_time=64416
type=note_on channel=3 note=47 velocity=80 time=24 actual_time=240
type: note_off, time: 24, actual_time: 336
type=note_on channel=3 note=64 velocity=0 time=96 actual_time=64536
type=note_on channel=3 note=47 velocity=80 time=24 actual_time=360
type: note_off, time: 24, actual_time: 456
type=note_on channel=3 note=69 velocity=0 time=96 actual_time=64656
type=note_on channel=3 note=47 velocity=80 time=24 actual_time=240
type: note_off, time: 24, actual_time: 432
type=note_on channel=3 note=57 velocity=0 time=192 actual_time=64872
type=note_on channel=3 note=54 velocity=80 time=48 actual_time=360
type: note_off, time: 48, actual_time: 456
type=note_on channel=3 note=59 velocity=0 time=96 actual_time=65016
type=note_on channel=3 note=64 velocity=80 time=24 actual_time=120
type: note_off, time: 24, actual_time: 216
type=note_on channel=3 note=64 velocity=0 time=96 actual_time=65136
type=note_on channel=3 note=47 velocity=80 time=24 actual_time=120
type: note_off, time: 24, actual_time: 216
type=note_on channel=3 note=57 velocity=0 time=96 actual_time=65256
type=note_on channel=3 note=47 velocity=80 time=24 actual_time=65280
type: note_off, time: 24, actual_time: 65376
type=note_on channel=3 note=59 velocity=0 time=96 actual_time=65376
type=note_on channel=3 note=47 velocity=80 time=24 actual_time=0
type: note_off, time: 24, actual_time: 192
type=note_on channel=3 note=66 velocity=0 time=192 actual_time=65592
type=note_on channel=3 note=47 velocity=80 time=48 actual_time=240
type: note_off, time: 48, actual_time: 432
type=note_on channel=3 note=61 velocity=0 time=192 actual_time=65832
type=note_on channel=3 note=59 velocity=80 time=48 actual_time=360
type: note_off, time: 48, actual_time: 552
type=note_on channel=3 note=59 velocity=0 time=192 actual_time=66072
type=note_on channel=3 note=64 velocity=80 time=48 actual_time=0
type: note_off, time: 48, actual_time: 216
type=note_on channel=3 note=64 velocity=0 time=216 actual_time=66336
type=note_on channel=3 note=47 velocity=80 time=24 actual_time=360
type: note_off, time: 24, actual_time: 456
type=note_on channel=3 note=64 velocity=0 time=96 actual_time=66456
type=note_on channel=3 note=47 velocity=80 time=24 actual_time=240
type: note_off, time: 24, actual_time: 336
type=note_on channel=3 note=69 velocity=0 time=96 actual_time=66576
type=note_on channel=3 note=47 velocity=80 time=24 actual_time=240
type: note_off, time: 24, actual_time: 432
type=note_on channel=3 note=64 velocity=0 time=192 actual_time=66792
type=note_on channel=3 note=47 velocity=80 time=48 actual_time=66840
type: note_off, time: 48, actual_time: 66936
type=note_on channel=3 note=62 velocity=0 time=96 actual_time=66936
type=note_on channel=3 note=47 velocity=80 time=24 actual_time=66960
type: note_off, time: 24, actual_time: 67056
type=note_on channel=3 note=67 velocity=0 time=96 actual_time=67056
type=note_on channel=3 note=47 velocity=80 time=24 actual_time=0
type: note_off, time: 24, actual_time: 216
type=note_on channel=3 note=59 velocity=0 time=216 actual_time=67296
type=note_on channel=3 note=47 velocity=80 time=24 actual_time=120
type: note_off, time: 24, actual_time: 216
type=note_on channel=3 note=62 velocity=0 time=96 actual_time=67416
type=note_on channel=3 note=47 velocity=80 time=24 actual_time=67440
type: note_off, time: 24, actual_time: 67536
type=note_on channel=3 note=59 velocity=0 time=96 actual_time=67536
type=note_on channel=3 note=62 velocity=80 time=24 actual_time=0
type: note_off, time: 24, actual_time: 192
type=note_on channel=3 note=62 velocity=0 time=192 actual_time=67752
type=note_on channel=3 note=47 velocity=80 time=48 actual_time=67800
type: note_off, time: 48, actual_time: 67896
type=note_on channel=3 note=61 velocity=0 time=96 actual_time=67896
type=note_on channel=3 note=69 velocity=80 time=24 actual_time=0
type: note_off, time: 24, actual_time: 96
type=note_on channel=3 note=69 velocity=0 time=96 actual_time=68016
type=note_on channel=3 note=47 velocity=80 time=24 actual_time=360
type: note_off, time: 24, actual_time: 576
type=note_on channel=3 note=66 velocity=0 time=216 actual_time=68256
type=note_on channel=3 note=47 velocity=80 time=24 actual_time=240
type: note_off, time: 24, actual_time: 336
type=note_on channel=3 note=66 velocity=0 time=96 actual_time=68376
type=note_on channel=3 note=69 velocity=80 time=24 actual_time=0
type: note_off, time: 24, actual_time: 96
type=note_on channel=3 note=69 velocity=0 time=96 actual_time=68496
type=note_on channel=3 note=47 velocity=80 time=24 actual_time=68520
type: note_off, time: 24, actual_time: 68712
type=note_on channel=3 note=64 velocity=0 time=192 actual_time=68712
type=note_on channel=3 note=47 velocity=80 time=48 actual_time=68760
type: note_off, time: 48, actual_time: 68856
type=note_on channel=3 note=62 velocity=0 time=96 actual_time=68856
type=note_on channel=3 note=47 velocity=80 time=24 actual_time=68880
type: note_off, time: 24, actual_time: 68976
type=note_on channel=3 note=67 velocity=0 time=96 actual_time=68976
type=note_on channel=3 note=57 velocity=80 time=24 actual_time=120
type: note_off, time: 24, actual_time: 336
type=note_on channel=3 note=59 velocity=0 time=216 actual_time=69216
type=note_on channel=3 note=47 velocity=80 time=24 actual_time=360
type: note_off, time: 24, actual_time: 552
type=note_on channel=3 note=66 velocity=0 time=192 actual_time=69432
type=note_on channel=3 note=47 velocity=80 time=48 actual_time=120
type: note_off, time: 48, actual_time: 312
type=note_on channel=3 note=61 velocity=0 time=192 actual_time=69672
type=note_on channel=3 note=59 velocity=80 time=48 actual_time=0
type: note_off, time: 48, actual_time: 192
type=note_on channel=3 note=59 velocity=0 time=192 actual_time=69912
type=note_on channel=3 note=47 velocity=80 time=48 actual_time=69960
type: note_off, time: 48, actual_time: 70176
type=note_on channel=3 note=64 velocity=0 time=216 actual_time=70176
type=note_on channel=3 note=47 velocity=80 time=24 actual_time=0
type: note_off, time: 24, actual_time: 96
type=note_on channel=3 note=64 velocity=0 time=96 actual_time=70296
type=note_on channel=3 note=47 velocity=80 time=24 actual_time=0
type: note_off, time: 24, actual_time: 96
type=note_on channel=3 note=69 velocity=0 time=96 actual_time=70416
type=note_on channel=3 note=47 velocity=80 time=24 actual_time=70440
type: note_off, time: 24, actual_time: 70632
type=note_on channel=3 note=64 velocity=0 time=192 actual_time=70632
type=note_on channel=3 note=47 velocity=80 time=48 actual_time=240
type: note_off, time: 48, actual_time: 336
type=note_on channel=3 note=62 velocity=0 time=96 actual_time=70776
type=note_on channel=3 note=47 velocity=80 time=24 actual_time=70800
type: note_off, time: 24, actual_time: 70896
type=note_on channel=3 note=67 velocity=0 time=96 actual_time=70896
type=note_on channel=3 note=59 velocity=80 time=24 actual_time=120
type: note_off, time: 24, actual_time: 336
type=note_on channel=3 note=59 velocity=0 time=216 actual_time=71136
type=note_on channel=3 note=62 velocity=80 time=24 actual_time=120
type: note_off, time: 24, actual_time: 216
type=note_on channel=3 note=62 velocity=0 time=96 actual_time=71256
type=note_on channel=3 note=47 velocity=80 time=24 actual_time=0
type: note_off, time: 24, actual_time: 96
type=note_on channel=3 note=59 velocity=0 time=96 actual_time=71376
type=note_on channel=3 note=47 velocity=80 time=24 actual_time=71400
type: note_off, time: 24, actual_time: 71592
type=note_on channel=3 note=62 velocity=0 time=192 actual_time=71592
type=note_on channel=3 note=47 velocity=80 time=48 actual_time=360
type: note_off, time: 48, actual_time: 456
type=note_on channel=3 note=61 velocity=0 time=96 actual_time=71736
type=note_on channel=3 note=47 velocity=80 time=24 actual_time=71760
type: note_off, time: 24, actual_time: 71856
type=note_on channel=3 note=69 velocity=0 time=96 actual_time=71856
type=note_on channel=3 note=47 velocity=80 time=24 actual_time=360
type: note_off, time: 24, actual_time: 576
type=note_on channel=3 note=66 velocity=0 time=216 actual_time=72096
type=note_on channel=3 note=47 velocity=80 time=24 actual_time=120
type: note_off, time: 24, actual_time: 216
type=note_on channel=3 note=66 velocity=0 time=96 actual_time=72216
type=note_on channel=3 note=47 velocity=80 time=24 actual_time=240
type: note_off, time: 24, actual_time: 336
type=note_on channel=3 note=69 velocity=0 time=96 actual_time=72336
type=note_on channel=3 note=47 velocity=80 time=24 actual_time=72360
type: note_off, time: 24, actual_time: 72552
type=note_on channel=3 note=64 velocity=0 time=192 actual_time=72552
type=note_on channel=3 note=62 velocity=80 time=48 actual_time=240
type: note_off, time: 48, actual_time: 336
type=note_on channel=3 note=62 velocity=0 time=96 actual_time=72696
type=note_on channel=3 note=47 velocity=80 time=24 actual_time=0
type: note_off, time: 24, actual_time: 96
type=note_on channel=3 note=67 velocity=0 time=96 actual_time=72816
type=note_on channel=3 note=59 velocity=80 time=24 actual_time=72840
type: note_off, time: 24, actual_time: 72936
type=note_on channel=3 note=59 velocity=0 time=96 actual_time=72936
type=note_on channel=3 note=47 velocity=60 time=15864 actual_time=360
type: note_off, time: 15864, actual_time: 456
type=note_on channel=3 note=47 velocity=0 time=96 actual_time=88896
type=note_on channel=3 note=47 velocity=60 time=24 actual_time=240
type: note_off, time: 24, actual_time: 336
type=note_on channel=3 note=50 velocity=0 time=96 actual_time=89016
type=note_on channel=3 note=47 velocity=60 time=24 actual_time=360
type: note_off, time: 24, actual_time: 456
type=note_on channel=3 note=57 velocity=0 time=96 actual_time=89136
type=note_on channel=3 note=47 velocity=60 time=24 actual_time=120
type: note_off, time: 24, actual_time: 336
type=note_on channel=3 note=50 velocity=0 time=216 actual_time=89376
type=note_on channel=3 note=47 velocity=60 time=24 actual_time=0
type: note_off, time: 24, actual_time: 96
type=note_on channel=3 note=52 velocity=0 time=96 actual_time=89496
type=note_on channel=3 note=47 velocity=60 time=24 actual_time=0
type: note_off, time: 24, actual_time: 96
type=note_on channel=3 note=50 velocity=0 time=96 actual_time=89616
type=note_on channel=3 note=47 velocity=60 time=24 actual_time=360
type: note_off, time: 24, actual_time: 936
type=note_on channel=3 note=57 velocity=0 time=576 actual_time=90216
MetaMessage type: end_of_track, time: 0, actual_time: 90216
MetaMessage type: track_name, time: 0, actual_time: 0
type: program_change, time: 0, actual_time: 0
type=control_change channel=4 control=7 value=109 time=0 actual_time=0
type=note_on channel=4 note=59 velocity=80 time=15360 actual_time=0
type: note_off, time: 15360, actual_time: 3648
type=note_on channel=4 note=54 velocity=80 time=0 actual_time=40
type: note_off, time: 0, actual_time: 3688
type=note_on channel=4 note=47 velocity=80 time=0 actual_time=15360
type: note_off, time: 0, actual_time: 19008
type=note_on channel=4 note=47 velocity=0 time=3648 actual_time=19008
type=note_on channel=4 note=54 velocity=0 time=0 actual_time=19008
type=note_on channel=4 note=59 velocity=0 time=0 actual_time=19008
type=note_on channel=4 note=47 velocity=80 time=7392 actual_time=0
type: note_off, time: 7392, actual_time: 32
type=note_on channel=4 note=47 velocity=0 time=32 actual_time=26432
type=note_on channel=4 note=47 velocity=80 time=8 actual_time=60
type: note_off, time: 8, actual_time: 92
type=note_on channel=4 note=47 velocity=0 time=32 actual_time=26472
type=note_on channel=4 note=47 velocity=80 time=8 actual_time=40
type: note_off, time: 8, actual_time: 72
type=note_on channel=4 note=47 velocity=0 time=32 actual_time=26512
type=note_on channel=4 note=47 velocity=80 time=8 actual_time=60
type: note_off, time: 8, actual_time: 92
type=note_on channel=4 note=49 velocity=0 time=32 actual_time=26552
type=note_on channel=4 note=47 velocity=80 time=8 actual_time=20
type: note_off, time: 8, actual_time: 52
type=note_on channel=4 note=49 velocity=0 time=32 actual_time=26592
type=note_on channel=4 note=47 velocity=80 time=8 actual_time=26600
type: note_off, time: 8, actual_time: 26632
type=note_on channel=4 note=49 velocity=0 time=32 actual_time=26632
type=note_on channel=4 note=47 velocity=80 time=8 actual_time=40
type: note_off, time: 8, actual_time: 72
type=note_on channel=4 note=52 velocity=0 time=32 actual_time=26672
type=note_on channel=4 note=52 velocity=80 time=8 actual_time=26680
type: note_off, time: 8, actual_time: 26712
type=note_on channel=4 note=52 velocity=0 time=32 actual_time=26712
type=note_on channel=4 note=47 velocity=80 time=8 actual_time=0
type: note_off, time: 8, actual_time: 32
type=note_on channel=4 note=52 velocity=0 time=32 actual_time=26752
type=note_on channel=4 note=47 velocity=80 time=8 actual_time=60
type: note_off, time: 8, actual_time: 92
type=note_on channel=4 note=45 velocity=0 time=32 actual_time=26792
type=note_on channel=4 note=47 velocity=80 time=8 actual_time=20
type: note_off, time: 8, actual_time: 52
type=note_on channel=4 note=45 velocity=0 time=32 actual_time=26832
type=note_on channel=4 note=45 velocity=80 time=8 actual_time=0
type: note_off, time: 8, actual_time: 32
type=note_on channel=4 note=45 velocity=0 time=32 actual_time=26872
type=note_on channel=4 note=47 velocity=80 time=8 actual_time=20
type: note_off, time: 8, actual_time: 116
type=note_on channel=4 note=47 velocity=80 time=0 actual_time=0
type: note_off, time: 0, actual_time: 96
type=note_on channel=4 note=47 velocity=80 time=0 actual_time=40
type: note_off, time: 0, actual_time: 136
type=note_on channel=4 note=54 velocity=0 time=96 actual_time=26976
type=note_on channel=4 note=59 velocity=0 time=0 actual_time=26976
type=note_on channel=4 note=47 velocity=0 time=0 actual_time=26976
type=note_on channel=4 note=47 velocity=80 time=24 actual_time=20
type: note_off, time: 24, actual_time: 68
type=note_on channel=4 note=47 velocity=80 time=0 actual_time=20
type: note_off, time: 0, actual_time: 68
type=note_on channel=4 note=54 velocity=0 time=48 actual_time=27048
type=note_on channel=4 note=47 velocity=0 time=0 actual_time=27048
type=note_on channel=4 note=47 velocity=80 time=12 actual_time=27060
type: note_off, time: 12, actual_time: 27108
type=note_on channel=4 note=47 velocity=80 time=0 actual_time=20
type: note_off, time: 0, actual_time: 68
type=note_on channel=4 note=54 velocity=0 time=48 actual_time=27108
type=note_on channel=4 note=47 velocity=0 time=0 actual_time=27108
type=note_on channel=4 note=47 velocity=80 time=12 actual_time=20
type: note_off, time: 12, actual_time: 116
type=note_on channel=4 note=59 velocity=80 time=0 actual_time=27120
type: note_off, time: 0, actual_time: 27216
type=note_on channel=4 note=47 velocity=80 time=0 actual_time=27120
type: note_off, time: 0, actual_time: 27216
type=note_on channel=4 note=47 velocity=0 time=96 actual_time=27216
type=note_on channel=4 note=59 velocity=0 time=0 actual_time=27216
type=note_on channel=4 note=54 velocity=0 time=0 actual_time=27216
type=note_on channel=4 note=47 velocity=80 time=24 actual_time=27240
type: note_off, time: 24, actual_time: 27288
type=note_on channel=4 note=47 velocity=80 time=0 actual_time=40
type: note_off, time: 0, actual_time: 88
type=note_on channel=4 note=47 velocity=0 time=48 actual_time=27288
type=note_on channel=4 note=54 velocity=0 time=0 actual_time=27288
type=note_on channel=4 note=47 velocity=80 time=12 actual_time=0
type: note_off, time: 12, actual_time: 48
type=note_on channel=4 note=54 velocity=80 time=0 actual_time=0
type: note_off, time: 0, actual_time: 48
type=note_on channel=4 note=54 velocity=0 time=48 actual_time=27348
type=note_on channel=4 note=47 velocity=0 time=0 actual_time=27348
type=note_on channel=4 note=47 velocity=80 time=12 actual_time=20
type: note_off, time: 12, actual_time: 116
type=note_on channel=4 note=59 velocity=80 time=0 actual_time=60
type: note_off, time: 0, actual_time: 156
type=note_on channel=4 note=47 velocity=80 time=0 actual_time=20
type: note_off, time: 0, actual_time: 116
type=note_on channel=4 note=54 velocity=0 time=96 actual_time=27456
type=note_on channel=4 note=59 velocity=0 time=0 actual_time=27456
type=note_on channel=4 note=47 velocity=0 time=0 actual_time=27456
type=note_on channel=4 note=47 velocity=80 time=24 actual_time=27480
type: note_off, time: 24, actual_time: 27528
type=note_on channel=4 note=47 velocity=80 time=0 actual_time=20
type: note_off, time: 0, actual_time: 68
type=note_on channel=4 note=54 velocity=0 time=48 actual_time=27528
type=note_on channel=4 note=47 velocity=0 time=0 actual_time=27528
type=note_on channel=4 note=47 velocity=80 time=12 actual_time=40
type: note_off, time: 12, actual_time: 88
type=note_on channel=4 note=47 velocity=80 time=0 actual_time=20
type: note_off, time: 0, actual_time: 68
type=note_on channel=4 note=54 velocity=0 time=48 actual_time=27588
type=note_on channel=4 note=47 velocity=0 time=0 actual_time=27588
type=note_on channel=4 note=47 velocity=80 time=12 actual_time=20
type: note_off, time: 12, actual_time: 116
type=note_on channel=4 note=47 velocity=80 time=0 actual_time=20
type: note_off, time: 0, actual_time: 116
type=note_on channel=4 note=54 velocity=80 time=0 actual_time=20
type: note_off, time: 0, actual_time: 116
type=note_on channel=4 note=54 velocity=0 time=96 actual_time=27696
type=note_on channel=4 note=59 velocity=0 time=0 actual_time=27696
type=note_on channel=4 note=47 velocity=0 time=0 actual_time=27696
type=note_on channel=4 note=47 velocity=80 time=24 actual_time=60
type: note_off, time: 24, actual_time: 108
type=note_on channel=4 note=47 velocity=80 time=0 actual_time=27720
type: note_off, time: 0, actual_time: 27768
type=note_on channel=4 note=54 velocity=0 time=48 actual_time=27768
type=note_on channel=4 note=47 velocity=0 time=0 actual_time=27768
type=note_on channel=4 note=54 velocity=80 time=12 actual_time=40
type: note_off, time: 12, actual_time: 88
type=note_on channel=4 note=47 velocity=80 time=0 actual_time=40
type: note_off, time: 0, actual_time: 88
type=note_on channel=4 note=47 velocity=0 time=48 actual_time=27828
type=note_on channel=4 note=54 velocity=0 time=0 actual_time=27828
type=note_on channel=4 note=47 velocity=80 time=12 actual_time=20
type: note_off, time: 12, actual_time: 116
type=note_on channel=4 note=55 velocity=80 time=0 actual_time=27840
type: note_off, time: 0, actual_time: 27936
type=note_on channel=4 note=43 velocity=80 time=0 actual_time=20
type: note_off, time: 0, actual_time: 116
type=note_on channel=4 note=43 velocity=0 time=96 actual_time=27936
type=note_on channel=4 note=55 velocity=0 time=0 actual_time=27936
type=note_on channel=4 note=50 velocity=0 time=0 actual_time=27936
type=note_on channel=4 note=47 velocity=80 time=24 actual_time=60
type: note_off, time: 24, actual_time: 108
type=note_on channel=4 note=47 velocity=80 time=0 actual_time=27960
type: note_off, time: 0, actual_time: 28008
type=note_on channel=4 note=43 velocity=0 time=48 actual_time=28008
type=note_on channel=4 note=50 velocity=0 time=0 actual_time=28008
type=note_on channel=4 note=50 velocity=80 time=12 actual_time=28020
type: note_off, time: 12, actual_time: 28068
type=note_on channel=4 note=43 velocity=80 time=0 actual_time=40
type: note_off, time: 0, actual_time: 88
type=note_on channel=4 note=43 velocity=0 time=48 actual_time=28068
type=note_on channel=4 note=50 velocity=0 time=0 actual_time=28068
type=note_on channel=4 note=54 velocity=80 time=12 actual_time=60
type: note_off, time: 12, actual_time: 156
type=note_on channel=4 note=47 velocity=80 time=0 actual_time=0
type: note_off, time: 0, actual_time: 96
type=note_on channel=4 note=50 velocity=80 time=0 actual_time=28080
type: note_off, time: 0, actual_time: 28176
type=note_on channel=4 note=50 velocity=0 time=96 actual_time=28176
type=note_on channel=4 note=43 velocity=0 time=0 actual_time=28176
type=note_on channel=4 note=55 velocity=0 time=0 actual_time=28176
type=note_on channel=4 note=47 velocity=80 time=24 actual_time=40
type: note_off, time: 24, actual_time: 88
type=note_on channel=4 note=50 velocity=80 time=0 actual_time=0
type: note_off, time: 0, actual_time: 48
type=note_on channel=4 note=50 velocity=0 time=48 actual_time=28248
type=note_on channel=4 note=43 velocity=0 time=0 actual_time=28248
type=note_on channel=4 note=43 velocity=80 time=12 actual_time=60
type: note_off, time: 12, actual_time: 108
type=note_on channel=4 note=47 velocity=80 time=0 actual_time=28260
type: note_off, time: 0, actual_time: 28308
type=note_on channel=4 note=50 velocity=0 time=48 actual_time=28308
type=note_on channel=4 note=43 velocity=0 time=0 actual_time=28308
type=note_on channel=4 note=47 velocity=80 time=12 actual_time=40
type: note_off, time: 12, actual_time: 136
type=note_on channel=4 note=47 velocity=80 time=0 actual_time=20
type: note_off, time: 0, actual_time: 116
type=note_on channel=4 note=47 velocity=80 time=0 actual_time=60
type: note_off, time: 0, actual_time: 156
type=note_on channel=4 note=57 velocity=0 time=96 actual_time=28416
type=note_on channel=4 note=45 velocity=0 time=0 actual_time=28416
type=note_on channel=4 note=52 velocity=0 time=0 actual_time=28416
type=note_on channel=4 note=45 velocity=80 time=24 actual_time=60
type: note_off, time: 24, actual_time: 108
type=note_on channel=4 note=47 velocity=80 time=0 actual_time=0
type: note_off, time: 0, actual_time: 48
type=note_on channel=4 note=52 velocity=0 time=48 actual_time=28488
type=note_on channel=4 note=45 velocity=0 time=0 actual_time=28488
type=note_on channel=4 note=47 velocity=80 time=12 actual_time=60
type: note_off, time: 12, actual_time: 108
type=note_on channel=4 note=52 velocity=80 time=0 actual_time=60
type: note_off, time: 0, actual_time: 108
type=note_on channel=4 note=52 velocity=0 time=48 actual_time=28548
type=note_on channel=4 note=45 velocity=0 time=0 actual_time=28548
type=note_on channel=4 note=47 velocity=80 time=12 actual_time=20
type: note_off, time: 12, actual_time: 116
type=note_on channel=4 note=47 velocity=80 time=0 actual_time=28560
type: note_off, time: 0, actual_time: 28656
type=note_on channel=4 note=47 velocity=80 time=0 actual_time=28560
type: note_off, time: 0, actual_time: 28656
type=note_on channel=4 note=52 velocity=0 time=96 actual_time=28656
type=note_on channel=4 note=57 velocity=0 time=0 actual_time=28656
type=note_on channel=4 note=45 velocity=0 time=0 actual_time=28656
type=note_on channel=4 note=45 velocity=80 time=24 actual_time=0
type: note_off, time: 24, actual_time: 48
type=note_on channel=4 note=52 velocity=80 time=0 actual_time=40
type: note_off, time: 0, actual_time: 88
type=note_on channel=4 note=52 velocity=0 time=48 actual_time=28728
type=note_on channel=4 note=45 velocity=0 time=0 actual_time=28728
type=note_on channel=4 note=48 velocity=80 time=12 actual_time=60
type: note_off, time: 12, actual_time: 108
type=note_on channel=4 note=45 velocity=80 time=0 actual_time=28740
type: note_off, time: 0, actual_time: 28788
type=note_on channel=4 note=45 velocity=0 time=48 actual_time=28788
type=note_on channel=4 note=52 velocity=0 time=0 actual_time=28788
type=note_on channel=4 note=47 velocity=80 time=12 actual_time=0
type: note_off, time: 12, actual_time: 96
type=note_on channel=4 note=47 velocity=80 time=0 actual_time=60
type: note_off, time: 0, actual_time: 156
type=note_on channel=4 note=47 velocity=80 time=0 actual_time=40
type: note_off, time: 0, actual_time: 136
type=note_on channel=4 note=47 velocity=0 time=96 actual_time=28896
type=note_on channel=4 note=59 velocity=0 time=0 actual_time=28896
type=note_on channel=4 note=54 velocity=0 time=0 actual_time=28896
type=note_on channel=4 note=47 velocity=80 time=24 actual_time=60
type: note_off, time: 24, actual_time: 108
type=note_on channel=4 note=49 velocity=80 time=0 actual_time=28920
type: note_off, time: 0, actual_time: 28968
type=note_on channel=4 note=47 velocity=80 time=0 actual_time=40
type: note_off, time: 0, actual_time: 88
type=note_on channel=4 note=47 velocity=0 time=48 actual_time=28968
type=note_on channel=4 note=54 velocity=0 time=0 actual_time=28968
type=note_on channel=4 note=59 velocity=0 time=0 actual_time=28968
type=note_on channel=4 note=47 velocity=80 time=12 actual_time=0
type: note_off, time: 12, actual_time: 48
type=note_on channel=4 note=47 velocity=80 time=0 actual_time=20
type: note_off, time: 0, actual_time: 68
type=note_on channel=4 note=47 velocity=80 time=0 actual_time=0
type: note_off, time: 0, actual_time: 48
type=note_on channel=4 note=47 velocity=0 time=48 actual_time=29028
type=note_on channel=4 note=59 velocity=0 time=0 actual_time=29028
type=note_on channel=4 note=54 velocity=0 time=0 actual_time=29028
type=note_on channel=4 note=47 velocity=80 time=12 actual_time=29040
type: note_off, time: 12, actual_time: 29136
type=note_on channel=4 note=47 velocity=80 time=0 actual_time=29040
type: note_off, time: 0, actual_time: 29136
type=note_on channel=4 note=54 velocity=80 time=0 actual_time=40
type: note_off, time: 0, actual_time: 136
type=note_on channel=4 note=54 velocity=0 time=96 actual_time=29136
type=note_on channel=4 note=59 velocity=0 time=0 actual_time=29136
type=note_on channel=4 note=47 velocity=0 time=0 actual_time=29136
type=note_on channel=4 note=47 velocity=80 time=24 actual_time=0
type: note_off, time: 24, actual_time: 48
type=note_on channel=4 note=47 velocity=80 time=0 actual_time=40
type: note_off, time: 0, actual_time: 88
type=note_on channel=4 note=47 velocity=80 time=0 actual_time=29160
type: note_off, time: 0, actual_time: 29208
type=note_on channel=4 note=59 velocity=0 time=48 actual_time=29208
type=note_on channel=4 note=54 velocity=0 time=0 actual_time=29208
type=note_on channel=4 note=47 velocity=0 time=0 actual_time=29208
type=note_on channel=4 note=47 velocity=80 time=12 actual_time=60
type: note_off, time: 12, actual_time: 108
type=note_on channel=4 note=47 velocity=80 time=0 actual_time=0
type: note_off, time: 0, actual_time: 48
type=note_on channel=4 note=54 velocity=80 time=0 actual_time=60
type: note_off, time: 0, actual_time: 108
type=note_on channel=4 note=54 velocity=0 time=48 actual_time=29268
type=note_on channel=4 note=59 velocity=0 time=0 actual_time=29268
type=note_on channel=4 note=47 velocity=0 time=0 actual_time=29268
type=note_on channel=4 note=47 velocity=80 time=12 actual_time=60
type: note_off, time: 12, actual_time: 156
type=note_on channel=4 note=47 velocity=80 time=0 actual_time=20
type: note_off, time: 0, actual_time: 116
type=note_on channel=4 note=47 velocity=80 time=0 actual_time=29280
type: note_off, time: 0, actual_time: 29376
type=note_on channel=4 note=54 velocity=0 time=96 actual_time=29376
type=note_on channel=4 note=59 velocity=0 time=0 actual_time=29376
type=note_on channel=4 note=47 velocity=0 time=0 actual_time=29376
type=note_on channel=4 note=47 velocity=80 time=24 actual_time=60
type: note_off, time: 24, actual_time: 108
type=note_on channel=4 note=47 velocity=80 time=0 actual_time=0
type: note_off, time: 0, actual_time: 48
type=note_on channel=4 note=47 velocity=80 time=0 actual_time=0
type: note_off, time: 0, actual_time: 48
type=note_on channel=4 note=59 velocity=0 time=48 actual_time=29448
type=note_on channel=4 note=54 velocity=0 time=0 actual_time=29448
type=note_on channel=4 note=47 velocity=0 time=0 actual_time=29448
type=note_on channel=4 note=47 velocity=80 time=12 actual_time=0
type: note_off, time: 12, actual_time: 48
type=note_on channel=4 note=47 velocity=80 time=0 actual_time=29460
type: note_off, time: 0, actual_time: 29508
type=note_on channel=4 note=54 velocity=80 time=0 actual_time=60
type: note_off, time: 0, actual_time: 108
type=note_on channel=4 note=54 velocity=0 time=48 actual_time=29508
type=note_on channel=4 note=59 velocity=0 time=0 actual_time=29508
type=note_on channel=4 note=47 velocity=0 time=0 actual_time=29508
type=note_on channel=4 note=47 velocity=80 time=12 actual_time=29520
type: note_off, time: 12, actual_time: 29616
type=note_on channel=4 note=47 velocity=80 time=0 actual_time=40
type: note_off, time: 0, actual_time: 136
type=note_on channel=4 note=47 velocity=80 time=0 actual_time=29520
type: note_off, time: 0, actual_time: 29616
type=note_on channel=4 note=54 velocity=0 time=96 actual_time=29616
type=note_on channel=4 note=59 velocity=0 time=0 actual_time=29616
type=note_on channel=4 note=47 velocity=0 time=0 actual_time=29616
type=note_on channel=4 note=47 velocity=80 time=24 actual_time=0
type: note_off, time: 24, actual_time: 48
type=note_on channel=4 note=59 velocity=80 time=0 actual_time=40
type: note_off, time: 0, actual_time: 88
type=note_on channel=4 note=47 velocity=80 time=0 actual_time=60
type: note_off, time: 0, actual_time: 108
type=note_on channel=4 note=59 velocity=0 time=48 actual_time=29688
type=note_on channel=4 note=54 velocity=0 time=0 actual_time=29688
type=note_on channel=4 note=47 velocity=0 time=0 actual_time=29688
type=note_on channel=4 note=47 velocity=80 time=12 actual_time=20
type: note_off, time: 12, actual_time: 68
type=note_on channel=4 note=47 velocity=80 time=0 actual_time=0
type: note_off, time: 0, actual_time: 48
type=note_on channel=4 note=47 velocity=80 time=0 actual_time=20
type: note_off, time: 0, actual_time: 68
type=note_on channel=4 note=54 velocity=0 time=48 actual_time=29748
type=note_on channel=4 note=59 velocity=0 time=0 actual_time=29748
type=note_on channel=4 note=47 velocity=0 time=0 actual_time=29748
type=note_on channel=4 note=47 velocity=80 time=12 actual_time=40
type: note_off, time: 12, actual_time: 136
type=note_on channel=4 note=47 velocity=80 time=0 actual_time=20
type: note_off, time: 0, actual_time: 116
type=note_on channel=4 note=47 velocity=80 time=0 actual_time=20
type: note_off, time: 0, actual_time: 116
type=note_on channel=4 note=47 velocity=0 time=96 actual_time=29856
type=note_on channel=4 note=52 velocity=0 time=0 actual_time=29856
type=note_on channel=4 note=40 velocity=0 time=0 actual_time=29856
type=note_on channel=4 note=43 velocity=80 time=24 actual_time=40
type: note_off, time: 24, actual_time: 88
type=note_on channel=4 note=47 velocity=80 time=0 actual_time=20
type: note_off, time: 0, actual_time: 68
type=note_on channel=4 note=47 velocity=80 time=0 actual_time=40
type: note_off, time: 0, actual_time: 88
type=note_on channel=4 note=52 velocity=0 time=48 actual_time=29928
type=note_on channel=4 note=47 velocity=0 time=0 actual_time=29928
type=note_on channel=4 note=40 velocity=0 time=0 actual_time=29928
type=note_on channel=4 note=47 velocity=80 time=12 actual_time=0
type: note_off, time: 12, actual_time: 48
type=note_on channel=4 note=47 velocity=80 time=0 actual_time=60
type: note_off, time: 0, actual_time: 108
type=note_on channel=4 note=47 velocity=80 time=0 actual_time=29940
type: note_off, time: 0, actual_time: 29988
type=note_on channel=4 note=47 velocity=0 time=48 actual_time=29988
type=note_on channel=4 note=52 velocity=0 time=0 actual_time=29988
type=note_on channel=4 note=40 velocity=0 time=0 actual_time=29988
type=note_on channel=4 note=47 velocity=80 time=12 actual_time=60
type: note_off, time: 12, actual_time: 156
type=note_on channel=4 note=47 velocity=80 time=0 actual_time=40
type: note_off, time: 0, actual_time: 136
type=note_on channel=4 note=47 velocity=80 time=0 actual_time=20
type: note_off, time: 0, actual_time: 116
type=note_on channel=4 note=47 velocity=0 time=96 actual_time=30096
type=note_on channel=4 note=52 velocity=0 time=0 actual_time=30096
type=note_on channel=4 note=40 velocity=0 time=0 actual_time=30096
type=note_on channel=4 note=40 velocity=80 time=24 actual_time=40
type: note_off, time: 24, actual_time: 88
type=note_on channel=4 note=47 velocity=80 time=0 actual_time=30120
type: note_off, time: 0, actual_time: 30168
type=note_on channel=4 note=52 velocity=80 time=0 actual_time=20
type: note_off, time: 0, actual_time: 68
type=note_on channel=4 note=52 velocity=0 time=48 actual_time=30168
type=note_on channel=4 note=47 velocity=0 time=0 actual_time=30168
type=note_on channel=4 note=40 velocity=0 time=0 actual_time=30168
type=note_on channel=4 note=45 velocity=80 time=12 actual_time=40
type: note_off, time: 12, actual_time: 88
type=note_on channel=4 note=52 velocity=80 time=0 actual_time=20
type: note_off, time: 0, actual_time: 68
type=note_on channel=4 note=47 velocity=80 time=0 actual_time=30180
type: note_off, time: 0, actual_time: 30228
type=note_on channel=4 note=47 velocity=0 time=48 actual_time=30228
type=note_on channel=4 note=52 velocity=0 time=0 actual_time=30228
type=note_on channel=4 note=40 velocity=0 time=0 actual_time=30228
type=note_on channel=4 note=41 velocity=80 time=12 actual_time=40
type: note_off, time: 12, actual_time: 136
type=note_on channel=4 note=47 velocity=80 time=0 actual_time=30240
type: note_off, time: 0, actual_time: 30336
type=note_on channel=4 note=47 velocity=80 time=0 actual_time=20
type: note_off, time: 0, actual_time: 116
type=note_on channel=4 note=49 velocity=0 time=96 actual_time=30336
type=note_on channel=4 note=54 velocity=0 time=0 actual_time=30336
type=note_on channel=4 note=42 velocity=0 time=0 actual_time=30336
type=note_on channel=4 note=42 velocity=80 time=24 actual_time=0
type: note_off, time: 24, actual_time: 48
type=note_on channel=4 note=47 velocity=80 time=0 actual_time=40
type: note_off, time: 0, actual_time: 88
type=note_on channel=4 note=47 velocity=80 time=0 actual_time=20
type: note_off, time: 0, actual_time: 68
type=note_on channel=4 note=54 velocity=0 time=48 actual_time=30408
type=note_on channel=4 note=49 velocity=0 time=0 actual_time=30408
type=note_on channel=4 note=42 velocity=0 time=0 actual_time=30408
type=note_on channel=4 note=47 velocity=80 time=12 actual_time=0
type: note_off, time: 12, actual_time: 48
type=note_on channel=4 note=54 velocity=80 time=0 actual_time=40
type: note_off, time: 0, actual_time: 88
type=note_on channel=4 note=47 velocity=80 time=0 actual_time=0
type: note_off, time: 0, actual_time: 48
type=note_on channel=4 note=49 velocity=0 time=48 actual_time=30468
type=note_on channel=4 note=54 velocity=0 time=0 actual_time=30468
type=note_on channel=4 note=42 velocity=0 time=0 actual_time=30468
type=note_on channel=4 note=42 velocity=80 time=12 actual_time=0
type: note_off, time: 12, actual_time: 96
type=note_on channel=4 note=54 velocity=80 time=0 actual_time=0
type: note_off, time: 0, actual_time: 96
type=note_on channel=4 note=47 velocity=80 time=0 actual_time=20
type: note_off, time: 0, actual_time: 116
type=note_on channel=4 note=49 velocity=0 time=96 actual_time=30576
type=note_on channel=4 note=54 velocity=0 time=0 actual_time=30576
type=note_on channel=4 note=42 velocity=0 time=0 actual_time=30576
type=note_on channel=4 note=47 velocity=80 time=24 actual_time=40
type: note_off, time: 24, actual_time: 88
type=note_on channel=4 note=49 velocity=80 time=0 actual_time=40
type: note_off, time: 0, actual_time: 88
type=note_on channel=4 note=47 velocity=80 time=0 actual_time=20
type: note_off, time: 0, actual_time: 68
type=note_on channel=4 note=54 velocity=0 time=48 actual_time=30648
type=note_on channel=4 note=49 velocity=0 time=0 actual_time=30648
type=note_on channel=4 note=42 velocity=0 time=0 actual_time=30648
type=note_on channel=4 note=47 velocity=80 time=12 actual_time=30660
type: note_off, time: 12, actual_time: 30708
type=note_on channel=4 note=47 velocity=80 time=0 actual_time=40
type: note_off, time: 0, actual_time: 88
type=note_on channel=4 note=47 velocity=80 time=0 actual_time=30660
type: note_off, time: 0, actual_time: 30708
type=note_on channel=4 note=49 velocity=0 time=48 actual_time=30708
type=note_on channel=4 note=54 velocity=0 time=0 actual_time=30708
type=note_on channel=4 note=42 velocity=0 time=0 actual_time=30708
type=note_on channel=4 note=47 velocity=80 time=12 actual_time=40
type: note_off, time: 12, actual_time: 136
type=note_on channel=4 note=59 velocity=80 time=0 actual_time=40
type: note_off, time: 0, actual_time: 136
type=note_on channel=4 note=54 velocity=80 time=0 actual_time=0
type: note_off, time: 0, actual_time: 96
type=note_on channel=4 note=54 velocity=0 time=96 actual_time=30816
type=note_on channel=4 note=59 velocity=0 time=0 actual_time=30816
type=note_on channel=4 note=47 velocity=0 time=0 actual_time=30816
type=note_on channel=4 note=47 velocity=80 time=24 actual_time=60
type: note_off, time: 24, actual_time: 108
type=note_on channel=4 note=52 velocity=80 time=0 actual_time=20
type: note_off, time: 0, actual_time: 68
type=note_on channel=4 note=54 velocity=0 time=48 actual_time=30888
type=note_on channel=4 note=47 velocity=0 time=0 actual_time=30888
type=note_on channel=4 note=47 velocity=80 time=12 actual_time=30900
type: note_off, time: 12, actual_time: 30948
type=note_on channel=4 note=54 velocity=80 time=0 actual_time=20
type: note_off, time: 0, actual_time: 68
type=note_on channel=4 note=54 velocity=0 time=48 actual_time=30948
type=note_on channel=4 note=47 velocity=0 time=0 actual_time=30948
type=note_on channel=4 note=47 velocity=80 time=12 actual_time=20
type: note_off, time: 12, actual_time: 116
type=note_on channel=4 note=47 velocity=80 time=0 actual_time=0
type: note_off, time: 0, actual_time: 96
type=note_on channel=4 note=47 velocity=80 time=0 actual_time=0
type: note_off, time: 0, actual_time: 96
type=note_on channel=4 note=47 velocity=0 time=96 actual_time=31056
type=note_on channel=4 note=59 velocity=0 time=0 actual_time=31056
type=note_on channel=4 note=54 velocity=0 time=0 actual_time=31056
type=note_on channel=4 note=47 velocity=80 time=24 actual_time=31080
type: note_off, time: 24, actual_time: 31128
type=note_on channel=4 note=47 velocity=80 time=0 actual_time=60
type: note_off, time: 0, actual_time: 108
type=note_on channel=4 note=47 velocity=0 time=48 actual_time=31128
type=note_on channel=4 note=54 velocity=0 time=0 actual_time=31128
type=note_on channel=4 note=47 velocity=80 time=12 actual_time=0
type: note_off, time: 12, actual_time: 48
type=note_on channel=4 note=47 velocity=80 time=0 actual_time=40
type: note_off, time: 0, actual_time: 88
type=note_on channel=4 note=47 velocity=0 time=48 actual_time=31188
type=note_on channel=4 note=54 velocity=0 time=0 actual_time=31188
type=note_on channel=4 note=47 velocity=80 time=12 actual_time=31200
type: note_off, time: 12, actual_time: 31296
type=note_on channel=4 note=47 velocity=80 time=0 actual_time=60
type: note_off, time: 0, actual_time: 156
type=note_on channel=4 note=47 velocity=80 time=0 actual_time=40
type: note_off, time: 0, actual_time: 136
type=note_on channel=4 note=47 velocity=0 time=96 actual_time=31296
type=note_on channel=4 note=59 velocity=0 time=0 actual_time=31296
type=note_on channel=4 note=54 velocity=0 time=0 actual_time=31296
type=note_on channel=4 note=47 velocity=80 time=24 actual_time=60
type: note_off, time: 24, actual_time: 108
type=note_on channel=4 note=47 velocity=80 time=0 actual_time=40
type: note_off, time: 0, actual_time: 88
type=note_on channel=4 note=47 velocity=0 time=48 actual_time=31368
type=note_on channel=4 note=54 velocity=0 time=0 actual_time=31368
type=note_on channel=4 note=52 velocity=80 time=12 actual_time=20
type: note_off, time: 12, actual_time: 68
type=note_on channel=4 note=47 velocity=80 time=0 actual_time=0
type: note_off, time: 0, actual_time: 48
type=note_on channel=4 note=47 velocity=0 time=48 actual_time=31428
type=note_on channel=4 note=54 velocity=0 time=0 actual_time=31428
type=note_on channel=4 note=53 velocity=80 time=12 actual_time=0
type: note_off, time: 12, actual_time: 96
type=note_on channel=4 note=47 velocity=80 time=0 actual_time=60
type: note_off, time: 0, actual_time: 156
type=note_on channel=4 note=47 velocity=80 time=0 actual_time=20
type: note_off, time: 0, actual_time: 116
type=note_on channel=4 note=47 velocity=0 time=96 actual_time=31536
type=note_on channel=4 note=59 velocity=0 time=0 actual_time=31536
type=note_on channel=4 note=54 velocity=0 time=0 actual_time=31536
type=note_on channel=4 note=54 velocity=80 time=24 actual_time=31560
type: note_off, time: 24, actual_time: 31608
type=note_on channel=4 note=49 velocity=80 time=0 actual_time=20
type: note_off, time: 0, actual_time: 68
type=note_on channel=4 note=47 velocity=0 time=48 actual_time=31608
type=note_on channel=4 note=54 velocity=0 time=0 actual_time=31608
type=note_on channel=4 note=47 velocity=80 time=12 actual_time=40
type: note_off, time: 12, actual_time: 88
type=note_on channel=4 note=47 velocity=80 time=0 actual_time=0
type: note_off, time: 0, actual_time: 48
type=note_on channel=4 note=47 velocity=0 time=48 actual_time=31668
type=note_on channel=4 note=54 velocity=0 time=0 actual_time=31668
type=note_on channel=4 note=47 velocity=80 time=12 actual_time=20
type: note_off, time: 12, actual_time: 116
type=note_on channel=4 note=55 velocity=80 time=0 actual_time=31680
type: note_off, time: 0, actual_time: 31776
type=note_on channel=4 note=47 velocity=80 time=0 actual_time=31680
type: note_off, time: 0, actual_time: 31776
type=note_on channel=4 note=43 velocity=0 time=96 actual_time=31776
type=note_on channel=4 note=55 velocity=0 time=0 actual_time=31776
type=note_on channel=4 note=50 velocity=0 time=0 actual_time=31776
type=note_on channel=4 note=47 velocity=80 time=24 actual_time=60
type: note_off, time: 24, actual_time: 108
type=note_on channel=4 note=47 velocity=80 time=0 actual_time=0
type: note_off, time: 0, actual_time: 48
type=note_on channel=4 note=43 velocity=0 time=48 actual_time=31848
type=note_on channel=4 note=50 velocity=0 time=0 actual_time=31848
type=note_on channel=4 note=47 velocity=80 time=12 actual_time=40
type: note_off, time: 12, actual_time: 88
type=note_on channel=4 note=47 velocity=80 time=0 actual_time=31860
type: note_off, time: 0, actual_time: 31908
type=note_on channel=4 note=43 velocity=0 time=48 actual_time=31908
type=note_on channel=4 note=50 velocity=0 time=0 actual_time=31908
type=note_on channel=4 note=50 velocity=80 time=12 actual_time=20
type: note_off, time: 12, actual_time: 116
type=note_on channel=4 note=47 velocity=80 time=0 actual_time=31920
type: note_off, time: 0, actual_time: 32016
type=note_on channel=4 note=47 velocity=80 time=0 actual_time=0
type: note_off, time: 0, actual_time: 96
type=note_on channel=4 note=43 velocity=0 time=96 actual_time=32016
type=note_on channel=4 note=55 velocity=0 time=0 actual_time=32016
type=note_on channel=4 note=50 velocity=0 time=0 actual_time=32016
type=note_on channel=4 note=47 velocity=80 time=24 actual_time=32040
type: note_off, time: 24, actual_time: 32088
type=note_on channel=4 note=47 velocity=80 time=0 actual_time=40
type: note_off, time: 0, actual_time: 88
type=note_on channel=4 note=43 velocity=0 time=48 actual_time=32088
type=note_on channel=4 note=50 velocity=0 time=0 actual_time=32088
type=note_on channel=4 note=47 velocity=80 time=12 actual_time=60
type: note_off, time: 12, actual_time: 108
type=note_on channel=4 note=47 velocity=80 time=0 actual_time=0
type: note_off, time: 0, actual_time: 48
type=note_on channel=4 note=43 velocity=0 time=48 actual_time=32148
type=note_on channel=4 note=50 velocity=0 time=0 actual_time=32148
type=note_on channel=4 note=47 velocity=80 time=12 actual_time=20
type: note_off, time: 12, actual_time: 116
type=note_on channel=4 note=47 velocity=80 time=0 actual_time=0
type: note_off, time: 0, actual_time: 96
type=note_on channel=4 note=47 velocity=80 time=0 actual_time=60
type: note_off, time: 0, actual_time: 156
type=note_on channel=4 note=45 velocity=0 time=96 actual_time=32256
type=note_on channel=4 note=57 velocity=0 time=0 actual_time=32256
type=note_on channel=4 note=52 velocity=0 time=0 actual_time=32256
type=note_on channel=4 note=47 velocity=80 time=24 actual_time=0
type: note_off, time: 24, actual_time: 48
type=note_on channel=4 note=47 velocity=80 time=0 actual_time=20
type: note_off, time: 0, actual_time: 68
type=note_on channel=4 note=45 velocity=0 time=48 actual_time=32328
type=note_on channel=4 note=52 velocity=0 time=0 actual_time=32328
type=note_on channel=4 note=47 velocity=80 time=12 actual_time=40
type: note_off, time: 12, actual_time: 88
type=note_on channel=4 note=45 velocity=80 time=0 actual_time=20
type: note_off, time: 0, actual_time: 68
type=note_on channel=4 note=45 velocity=0 time=48 actual_time=32388
type=note_on channel=4 note=52 velocity=0 time=0 actual_time=32388
type=note_on channel=4 note=47 velocity=80 time=12 actual_time=0
type: note_off, time: 12, actual_time: 96
type=note_on channel=4 note=47 velocity=80 time=0 actual_time=60
type: note_off, time: 0, actual_time: 156
type=note_on channel=4 note=47 velocity=80 time=0 actual_time=20
type: note_off, time: 0, actual_time: 116
type=note_on channel=4 note=45 velocity=0 time=96 actual_time=32496
type=note_on channel=4 note=57 velocity=0 time=0 actual_time=32496
type=note_on channel=4 note=52 velocity=0 time=0 actual_time=32496
type=note_on channel=4 note=47 velocity=80 time=24 actual_time=20
type: note_off, time: 24, actual_time: 68
type=note_on channel=4 note=47 velocity=80 time=0 actual_time=60
type: note_off, time: 0, actual_time: 108
type=note_on channel=4 note=45 velocity=0 time=48 actual_time=32568
type=note_on channel=4 note=52 velocity=0 time=0 actual_time=32568
type=note_on channel=4 note=47 velocity=80 time=12 actual_time=60
type: note_off, time: 12, actual_time: 108
type=note_on channel=4 note=45 velocity=80 time=0 actual_time=60
type: note_off, time: 0, actual_time: 108
type=note_on channel=4 note=45 velocity=0 time=48 actual_time=32628
type=note_on channel=4 note=52 velocity=0 time=0 actual_time=32628
type=note_on channel=4 note=47 velocity=80 time=12 actual_time=32640
type: note_off, time: 12, actual_time: 32736
type=note_on channel=4 note=59 velocity=80 time=0 actual_time=60
type: note_off, time: 0, actual_time: 156
type=note_on channel=4 note=47 velocity=80 time=0 actual_time=60
type: note_off, time: 0, actual_time: 156
type=note_on channel=4 note=54 velocity=0 time=96 actual_time=32736
type=note_on channel=4 note=59 velocity=0 time=0 actual_time=32736
type=note_on channel=4 note=47 velocity=0 time=0 actual_time=32736
type=note_on channel=4 note=47 velocity=80 time=24 actual_time=40
type: note_off, time: 24, actual_time: 88
type=note_on channel=4 note=51 velocity=80 time=0 actual_time=20
type: note_off, time: 0, actual_time: 68
type=note_on channel=4 note=54 velocity=0 time=48 actual_time=32808
type=note_on channel=4 note=47 velocity=0 time=0 actual_time=32808
type=note_on channel=4 note=47 velocity=80 time=12 actual_time=40
type: note_off, time: 12, actual_time: 88
type=note_on channel=4 note=47 velocity=80 time=0 actual_time=32820
type: note_off, time: 0, actual_time: 32868
type=note_on channel=4 note=54 velocity=0 time=48 actual_time=32868
type=note_on channel=4 note=47 velocity=0 time=0 actual_time=32868
type=note_on channel=4 note=47 velocity=80 time=12 actual_time=60
type: note_off, time: 12, actual_time: 156
type=note_on channel=4 note=59 velocity=80 time=0 actual_time=60
type: note_off, time: 0, actual_time: 156
type=note_on channel=4 note=47 velocity=80 time=0 actual_time=40
type: note_off, time: 0, actual_time: 136
type=note_on channel=4 note=47 velocity=0 time=96 actual_time=32976
type=note_on channel=4 note=59 velocity=0 time=0 actual_time=32976
type=note_on channel=4 note=54 velocity=0 time=0 actual_time=32976
type=note_on channel=4 note=47 velocity=80 time=24 actual_time=40
type: note_off, time: 24, actual_time: 88
type=note_on channel=4 note=47 velocity=80 time=0 actual_time=60
type: note_off, time: 0, actual_time: 108
type=note_on channel=4 note=47 velocity=0 time=48 actual_time=33048
type=note_on channel=4 note=54 velocity=0 time=0 actual_time=33048
type=note_on channel=4 note=47 velocity=80 time=12 actual_time=33060
type: note_off, time: 12, actual_time: 33108
type=note_on channel=4 note=47 velocity=80 time=0 actual_time=60
type: note_off, time: 0, actual_time: 108
type=note_on channel=4 note=47 velocity=0 time=48 actual_time=33108
type=note_on channel=4 note=54 velocity=0 time=0 actual_time=33108
type=note_on channel=4 note=54 velocity=80 time=12 actual_time=0
type: note_off, time: 12, actual_time: 96
type=note_on channel=4 note=47 velocity=80 time=0 actual_time=20
type: note_off, time: 0, actual_time: 116
type=note_on channel=4 note=47 velocity=80 time=0 actual_time=33120
type: note_off, time: 0, actual_time: 33216
type=note_on channel=4 note=47 velocity=0 time=96 actual_time=33216
type=note_on channel=4 note=59 velocity=0 time=0 actual_time=33216
type=note_on channel=4 note=54 velocity=0 time=0 actual_time=33216
type=note_on channel=4 note=47 velocity=80 time=24 actual_time=40
type: note_off, time: 24, actual_time: 88
type=note_on channel=4 note=47 velocity=80 time=0 actual_time=0
type: note_off, time: 0, actual_time: 48
type=note_on channel=4 note=47 velocity=0 time=48 actual_time=33288
type=note_on channel=4 note=54 velocity=0 time=0 actual_time=33288
type=note_on channel=4 note=47 velocity=80 time=12 actual_time=60
type: note_off, time: 12, actual_time: 108
type=note_on channel=4 note=44 velocity=80 time=0 actual_time=60
type: note_off, time: 0, actual_time: 108
type=note_on channel=4 note=47 velocity=0 time=48 actual_time=33348
type=note_on channel=4 note=54 velocity=0 time=0 actual_time=33348
type=note_on channel=4 note=47 velocity=80 time=12 actual_time=60
type: note_off, time: 12, actual_time: 156
type=note_on channel=4 note=47 velocity=80 time=0 actual_time=40
type: note_off, time: 0, actual_time: 136
type=note_on channel=4 note=51 velocity=80 time=0 actual_time=33360
type: note_off, time: 0, actual_time: 33456
type=note_on channel=4 note=47 velocity=0 time=96 actual_time=33456
type=note_on channel=4 note=59 velocity=0 time=0 actual_time=33456
type=note_on channel=4 note=54 velocity=0 time=0 actual_time=33456
type=note_on channel=4 note=47 velocity=80 time=24 actual_time=20
type: note_off, time: 24, actual_time: 68
type=note_on channel=4 note=47 velocity=80 time=0 actual_time=0
type: note_off, time: 0, actual_time: 48
type=note_on channel=4 note=47 velocity=0 time=48 actual_time=33528
type=note_on channel=4 note=54 velocity=0 time=0 actual_time=33528
type=note_on channel=4 note=54 velocity=80 time=12 actual_time=60
type: note_off, time: 12, actual_time: 108
type=note_on channel=4 note=47 velocity=80 time=0 actual_time=33540
type: note_off, time: 0, actual_time: 33588
type=note_on channel=4 note=47 velocity=0 time=48 actual_time=33588
type=note_on channel=4 note=54 velocity=0 time=0 actual_time=33588
type=note_on channel=4 note=47 velocity=80 time=12 actual_time=0
type: note_off, time: 12, actual_time: 96
type=note_on channel=4 note=47 velocity=80 time=0 actual_time=33600
type: note_off, time: 0, actual_time: 33696
type=note_on channel=4 note=47 velocity=80 time=0 actual_time=60
type: note_off, time: 0, actual_time: 156
type=note_on channel=4 note=47 velocity=0 time=96 actual_time=33696
type=note_on channel=4 note=52 velocity=0 time=0 actual_time=33696
type=note_on channel=4 note=40 velocity=0 time=0 actual_time=33696
type=note_on channel=4 note=47 velocity=80 time=24 actual_time=33720
type: note_off, time: 24, actual_time: 33816
type=note_on channel=4 note=47 velocity=80 time=0 actual_time=60
type: note_off, time: 0, actual_time: 156
type=note_on channel=4 note=47 velocity=80 time=0 actual_time=40
type: note_off, time: 0, actual_time: 136
type=note_on channel=4 note=47 velocity=0 time=96 actual_time=33816
type=note_on channel=4 note=52 velocity=0 time=0 actual_time=33816
type=note_on channel=4 note=40 velocity=0 time=0 actual_time=33816
type=note_on channel=4 note=47 velocity=80 time=24 actual_time=33840
type: note_off, time: 24, actual_time: 33936
type=note_on channel=4 note=52 velocity=80 time=0 actual_time=40
type: note_off, time: 0, actual_time: 136
type=note_on channel=4 note=47 velocity=80 time=0 actual_time=20
type: note_off, time: 0, actual_time: 116
type=note_on channel=4 note=47 velocity=0 time=96 actual_time=33936
type=note_on channel=4 note=52 velocity=0 time=0 actual_time=33936
type=note_on channel=4 note=40 velocity=0 time=0 actual_time=33936
type=note_on channel=4 note=47 velocity=80 time=24 actual_time=33960
type: note_off, time: 24, actual_time: 34056
type=note_on channel=4 note=47 velocity=80 time=0 actual_time=20
type: note_off, time: 0, actual_time: 116
type=note_on channel=4 note=40 velocity=80 time=0 actual_time=20
type: note_off, time: 0, actual_time: 116
type=note_on channel=4 note=40 velocity=0 time=96 actual_time=34056
type=note_on channel=4 note=47 velocity=0 time=0 actual_time=34056
type=note_on channel=4 note=52 velocity=0 time=0 actual_time=34056
type=note_on channel=4 note=54 velocity=80 time=24 actual_time=34080
type: note_off, time: 24, actual_time: 34176
type=note_on channel=4 note=47 velocity=80 time=0 actual_time=20
type: note_off, time: 0, actual_time: 116
type=note_on channel=4 note=47 velocity=80 time=0 actual_time=34080
type: note_off, time: 0, actual_time: 34176
type=note_on channel=4 note=42 velocity=0 time=96 actual_time=34176
type=note_on channel=4 note=49 velocity=0 time=0 actual_time=34176
type=note_on channel=4 note=54 velocity=0 time=0 actual_time=34176
type=note_on channel=4 note=47 velocity=80 time=24 actual_time=34200
type: note_off, time: 24, actual_time: 34296
type=note_on channel=4 note=47 velocity=80 time=0 actual_time=34200
type: note_off, time: 0, actual_time: 34296
type=note_on channel=4 note=47 velocity=80 time=0 actual_time=34200
type: note_off, time: 0, actual_time: 34296
type=note_on channel=4 note=54 velocity=0 time=96 actual_time=34296
type=note_on channel=4 note=42 velocity=0 time=0 actual_time=34296
type=note_on channel=4 note=49 velocity=0 time=0 actual_time=34296
type=note_on channel=4 note=47 velocity=80 time=24 actual_time=60
type: note_off, time: 24, actual_time: 156
type=note_on channel=4 note=47 velocity=80 time=0 actual_time=40
type: note_off, time: 0, actual_time: 136
type=note_on channel=4 note=47 velocity=80 time=0 actual_time=40
type: note_off, time: 0, actual_time: 136
type=note_on channel=4 note=49 velocity=0 time=96 actual_time=34416
type=note_on channel=4 note=54 velocity=0 time=0 actual_time=34416
type=note_on channel=4 note=42 velocity=0 time=0 actual_time=34416
type=note_on channel=4 note=47 velocity=80 time=24 actual_time=60
type: note_off, time: 24, actual_time: 156
type=note_on channel=4 note=47 velocity=80 time=0 actual_time=60
type: note_off, time: 0, actual_time: 156
type=note_on channel=4 note=47 velocity=80 time=0 actual_time=34440
type: note_off, time: 0, actual_time: 34536
type=note_on channel=4 note=54 velocity=0 time=96 actual_time=34536
type=note_on channel=4 note=49 velocity=0 time=0 actual_time=34536
type=note_on channel=4 note=42 velocity=0 time=0 actual_time=34536
type=note_on channel=4 note=43 velocity=80 time=24 actual_time=20
type: note_off, time: 24, actual_time: 3668
type=note_on channel=4 note=47 velocity=80 time=0 actual_time=20
type: note_off, time: 0, actual_time: 3668
type=note_on channel=4 note=56 velocity=80 time=0 actual_time=20
type: note_off, time: 0, actual_time: 3668
type=note_on channel=4 note=59 velocity=0 time=3648 actual_time=38208
type=note_on channel=4 note=54 velocity=0 time=0 actual_time=38208
type=note_on channel=4 note=47 velocity=0 time=0 actual_time=38208
type=note_on channel=4 note=47 velocity=80 time=7632 actual_time=60
type: note_off, time: 7632, actual_time: 92
type=note_on channel=4 note=47 velocity=80 time=0 actual_time=60
type: note_off, time: 0, actual_time: 92
type=note_on channel=4 note=47 velocity=80 time=0 actual_time=0
type: note_off, time: 0, actual_time: 32
type=note_on channel=4 note=45 velocity=0 time=32 actual_time=45872
type=note_on channel=4 note=52 velocity=0 time=0 actual_time=45872
type=note_on channel=4 note=57 velocity=0 time=0 actual_time=45872
type=note_on channel=4 note=47 velocity=80 time=8 actual_time=45880
type: note_off, time: 8, actual_time: 45912
type=note_on channel=4 note=45 velocity=80 time=0 actual_time=20
type: note_off, time: 0, actual_time: 52
type=note_on channel=4 note=52 velocity=80 time=0 actual_time=60
type: note_off, time: 0, actual_time: 92
type=note_on channel=4 note=52 velocity=0 time=32 actual_time=45912
type=note_on channel=4 note=45 velocity=0 time=0 actual_time=45912
type=note_on channel=4 note=57 velocity=0 time=0 actual_time=45912
type=note_on channel=4 note=57 velocity=80 time=8 actual_time=45920
type: note_off, time: 8, actual_time: 45952
type=note_on channel=4 note=47 velocity=80 time=0 actual_time=45920
type: note_off, time: 0, actual_time: 45952
type=note_on channel=4 note=47 velocity=80 time=0 actual_time=40
type: note_off, time: 0, actual_time: 72
type=note_on channel=4 note=52 velocity=0 time=32 actual_time=45952
type=note_on channel=4 note=45 velocity=0 time=0 actual_time=45952
type=note_on channel=4 note=57 velocity=0 time=0 actual_time=45952
type=note_on channel=4 note=47 velocity=80 time=8 actual_time=60
type: note_off, time: 8, actual_time: 92
type=note_on channel=4 note=48 velocity=80 time=0 actual_time=60
type: note_off, time: 0, actual_time: 92
type=note_on channel=4 note=52 velocity=80 time=0 actual_time=0
type: note_off, time: 0, actual_time: 32
type=note_on channel=4 note=52 velocity=0 time=32 actual_time=45992
type=note_on channel=4 note=45 velocity=0 time=0 actual_time=45992
type=note_on channel=4 note=57 velocity=0 time=0 actual_time=45992
type=note_on channel=4 note=47 velocity=80 time=8 actual_time=60
type: note_off, time: 8, actual_time: 92
type=note_on channel=4 note=45 velocity=80 time=0 actual_time=46000
type: note_off, time: 0, actual_time: 46032
type=note_on channel=4 note=47 velocity=80 time=0 actual_time=0
type: note_off, time: 0, actual_time: 32
type=note_on channel=4 note=52 velocity=0 time=32 actual_time=46032
type=note_on channel=4 note=45 velocity=0 time=0 actual_time=46032
type=note_on channel=4 note=57 velocity=0 time=0 actual_time=46032
type=note_on channel=4 note=47 velocity=80 time=8 actual_time=0
type: note_off, time: 8, actual_time: 32
type=note_on channel=4 note=47 velocity=80 time=0 actual_time=0
type: note_off, time: 0, actual_time: 32
type=note_on channel=4 note=47 velocity=80 time=0 actual_time=46040
type: note_off, time: 0, actual_time: 46072
type=note_on channel=4 note=52 velocity=0 time=32 actual_time=46072
type=note_on channel=4 note=45 velocity=0 time=0 actual_time=46072
type=note_on channel=4 note=57 velocity=0 time=0 actual_time=46072
type=note_on channel=4 note=47 velocity=80 time=8 actual_time=0
type: note_off, time: 8, actual_time: 96
type=note_on channel=4 note=59 velocity=80 time=0 actual_time=46080
type: note_off, time: 0, actual_time: 46176
type=note_on channel=4 note=47 velocity=80 time=0 actual_time=46080
type: note_off, time: 0, actual_time: 46176
type=note_on channel=4 note=47 velocity=0 time=96 actual_time=46176
type=note_on channel=4 note=59 velocity=0 time=0 actual_time=46176
type=note_on channel=4 note=54 velocity=0 time=0 actual_time=46176
type=note_on channel=4 note=54 velocity=80 time=24 actual_time=46200
type: note_off, time: 24, actual_time: 46248
type=note_on channel=4 note=47 velocity=80 time=0 actual_time=46200
type: note_off, time: 0, actual_time: 46248
type=note_on channel=4 note=47 velocity=0 time=48 actual_time=46248
type=note_on channel=4 note=54 velocity=0 time=0 actual_time=46248
type=note_on channel=4 note=47 velocity=80 time=12 actual_time=20
type: note_off, time: 12, actual_time: 68
type=note_on channel=4 note=47 velocity=80 time=0 actual_time=40
type: note_off, time: 0, actual_time: 88
type=note_on channel=4 note=47 velocity=0 time=48 actual_time=46308
type=note_on channel=4 note=54 velocity=0 time=0 actual_time=46308
type=note_on channel=4 note=47 velocity=80 time=12 actual_time=0
type: note_off, time: 12, actual_time: 96
type=note_on channel=4 note=47 velocity=80 time=0 actual_time=40
type: note_off, time: 0, actual_time: 136
type=note_on channel=4 note=54 velocity=80 time=0 actual_time=46320
type: note_off, time: 0, actual_time: 46416
type=note_on channel=4 note=54 velocity=0 time=96 actual_time=46416
type=note_on channel=4 note=59 velocity=0 time=0 actual_time=46416
type=note_on channel=4 note=47 velocity=0 time=0 actual_time=46416
type=note_on channel=4 note=47 velocity=80 time=24 actual_time=60
type: note_off, time: 24, actual_time: 108
type=note_on channel=4 note=47 velocity=80 time=0 actual_time=46440
type: note_off, time: 0, actual_time: 46488
type=note_on channel=4 note=54 velocity=0 time=48 actual_time=46488
type=note_on channel=4 note=47 velocity=0 time=0 actual_time=46488
type=note_on channel=4 note=47 velocity=80 time=12 actual_time=0
type: note_off, time: 12, actual_time: 48
type=note_on channel=4 note=47 velocity=80 time=0 actual_time=46500
type: note_off, time: 0, actual_time: 46548
type=note_on channel=4 note=54 velocity=0 time=48 actual_time=46548
type=note_on channel=4 note=47 velocity=0 time=0 actual_time=46548
type=note_on channel=4 note=47 velocity=80 time=12 actual_time=0
type: note_off, time: 12, actual_time: 96
type=note_on channel=4 note=59 velocity=80 time=0 actual_time=46560
type: note_off, time: 0, actual_time: 46656
type=note_on channel=4 note=51 velocity=80 time=0 actual_time=40
type: note_off, time: 0, actual_time: 136
type=note_on channel=4 note=54 velocity=0 time=96 actual_time=46656
type=note_on channel=4 note=59 velocity=0 time=0 actual_time=46656
type=note_on channel=4 note=47 velocity=0 time=0 actual_time=46656
type=note_on channel=4 note=45 velocity=80 time=24 actual_time=20
type: note_off, time: 24, actual_time: 68
type=note_on channel=4 note=47 velocity=80 time=0 actual_time=20
type: note_off, time: 0, actual_time: 68
type=note_on channel=4 note=54 velocity=0 time=48 actual_time=46728
type=note_on channel=4 note=47 velocity=0 time=0 actual_time=46728
type=note_on channel=4 note=47 velocity=80 time=12 actual_time=60
type: note_off, time: 12, actual_time: 108
type=note_on channel=4 note=47 velocity=80 time=0 actual_time=60
type: note_off, time: 0, actual_time: 108
type=note_on channel=4 note=54 velocity=0 time=48 actual_time=46788
type=note_on channel=4 note=47 velocity=0 time=0 actual_time=46788
type=note_on channel=4 note=47 velocity=80 time=12 actual_time=20
type: note_off, time: 12, actual_time: 116
type=note_on channel=4 note=47 velocity=80 time=0 actual_time=60
type: note_off, time: 0, actual_time: 156
type=note_on channel=4 note=54 velocity=80 time=0 actual_time=60
type: note_off, time: 0, actual_time: 156
type=note_on channel=4 note=54 velocity=0 time=96 actual_time=46896
type=note_on channel=4 note=59 velocity=0 time=0 actual_time=46896
type=note_on channel=4 note=47 velocity=0 time=0 actual_time=46896
type=note_on channel=4 note=47 velocity=80 time=24 actual_time=40
type: note_off, time: 24, actual_time: 88
type=note_on channel=4 note=47 velocity=80 time=0 actual_time=46920
type: note_off, time: 0, actual_time: 46968
type=note_on channel=4 note=54 velocity=0 time=48 actual_time=46968
type=note_on channel=4 note=47 velocity=0 time=0 actual_time=46968
type=note_on channel=4 note=47 velocity=80 time=12 actual_time=20
type: note_off, time: 12, actual_time: 68
type=note_on channel=4 note=47 velocity=80 time=0 actual_time=46980
type: note_off, time: 0, actual_time: 47028
type=note_on channel=4 note=54 velocity=0 time=48 actual_time=47028
type=note_on channel=4 note=47 velocity=0 time=0 actual_time=47028
type=note_on channel=4 note=47 velocity=80 time=12 actual_time=40
type: note_off, time: 12, actual_time: 136
type=note_on channel=4 note=55 velocity=80 time=0 actual_time=0
type: note_off, time: 0, actual_time: 96
type=note_on channel=4 note=47 velocity=80 time=0 actual_time=0
type: note_off, time: 0, actual_time: 96
type=note_on channel=4 note=50 velocity=0 time=96 actual_time=47136
type=note_on channel=4 note=55 velocity=0 time=0 actual_time=47136
type=note_on channel=4 note=43 velocity=0 time=0 actual_time=47136
type=note_on channel=4 note=47 velocity=80 time=24 actual_time=40
type: note_off, time: 24, actual_time: 88
type=note_on channel=4 note=47 velocity=80 time=0 actual_time=40
type: note_off, time: 0, actual_time: 88
type=note_on channel=4 note=50 velocity=0 time=48 actual_time=47208
type=note_on channel=4 note=43 velocity=0 time=0 actual_time=47208
type=note_on channel=4 note=47 velocity=80 time=12 actual_time=0
type: note_off, time: 12, actual_time: 48
type=note_on channel=4 note=50 velocity=80 time=0 actual_time=60
type: note_off, time: 0, actual_time: 108
type=note_on channel=4 note=50 velocity=0 time=48 actual_time=47268
type=note_on channel=4 note=43 velocity=0 time=0 actual_time=47268
type=note_on channel=4 note=43 velocity=80 time=12 actual_time=40
type: note_off, time: 12, actual_time: 136
type=note_on channel=4 note=51 velocity=80 time=0 actual_time=40
type: note_off, time: 0, actual_time: 136
type=note_on channel=4 note=47 velocity=80 time=0 actual_time=40
type: note_off, time: 0, actual_time: 136
type=note_on channel=4 note=50 velocity=0 time=96 actual_time=47376
type=note_on channel=4 note=55 velocity=0 time=0 actual_time=47376
type=note_on channel=4 note=43 velocity=0 time=0 actual_time=47376
type=note_on channel=4 note=47 velocity=80 time=24 actual_time=47400
type: note_off, time: 24, actual_time: 47448
type=note_on channel=4 note=47 velocity=80 time=0 actual_time=60
type: note_off, time: 0, actual_time: 108
type=note_on channel=4 note=50 velocity=0 time=48 actual_time=47448
type=note_on channel=4 note=43 velocity=0 time=0 actual_time=47448
type=note_on channel=4 note=47 velocity=80 time=12 actual_time=0
type: note_off, time: 12, actual_time: 48
type=note_on channel=4 note=47 velocity=80 time=0 actual_time=47460
type: note_off, time: 0, actual_time: 47508
type=note_on channel=4 note=50 velocity=0 time=48 actual_time=47508
type=note_on channel=4 note=43 velocity=0 time=0 actual_time=47508
type=note_on channel=4 note=45 velocity=80 time=12 actual_time=40
type: note_off, time: 12, actual_time: 136
type=note_on channel=4 note=47 velocity=80 time=0 actual_time=0
type: note_off, time: 0, actual_time: 96
type=note_on channel=4 note=47 velocity=80 time=0 actual_time=40
type: note_off, time: 0, actual_time: 136
type=note_on channel=4 note=52 velocity=0 time=96 actual_time=47616
type=note_on channel=4 note=57 velocity=0 time=0 actual_time=47616
type=note_on channel=4 note=45 velocity=0 time=0 actual_time=47616
type=note_on channel=4 note=45 velocity=80 time=24 actual_time=60
type: note_off, time: 24, actual_time: 108
type=note_on channel=4 note=51 velocity=80 time=0 actual_time=0
type: note_off, time: 0, actual_time: 48
type=note_on channel=4 note=52 velocity=0 time=48 actual_time=47688
type=note_on channel=4 note=45 velocity=0 time=0 actual_time=47688
type=note_on channel=4 note=47 velocity=80 time=12 actual_time=47700
type: note_off, time: 12, actual_time: 47748
type=note_on channel=4 note=47 velocity=80 time=0 actual_time=40
type: note_off, time: 0, actual_time: 88
type=note_on channel=4 note=52 velocity=0 time=48 actual_time=47748
type=note_on channel=4 note=45 velocity=0 time=0 actual_time=47748
type=note_on channel=4 note=47 velocity=80 time=12 actual_time=40
type: note_off, time: 12, actual_time: 136
type=note_on channel=4 note=47 velocity=80 time=0 actual_time=47760
type: note_off, time: 0, actual_time: 47856
type=note_on channel=4 note=47 velocity=80 time=0 actual_time=40
type: note_off, time: 0, actual_time: 136
type=note_on channel=4 note=52 velocity=0 time=96 actual_time=47856
type=note_on channel=4 note=57 velocity=0 time=0 actual_time=47856
type=note_on channel=4 note=45 velocity=0 time=0 actual_time=47856
type=note_on channel=4 note=47 velocity=80 time=24 actual_time=20
type: note_off, time: 24, actual_time: 68
type=note_on channel=4 note=47 velocity=80 time=0 actual_time=20
type: note_off, time: 0, actual_time: 68
type=note_on channel=4 note=52 velocity=0 time=48 actual_time=47928
type=note_on channel=4 note=45 velocity=0 time=0 actual_time=47928
type=note_on channel=4 note=47 velocity=80 time=12 actual_time=20
type: note_off, time: 12, actual_time: 68
type=note_on channel=4 note=47 velocity=80 time=0 actual_time=60
type: note_off, time: 0, actual_time: 108
type=note_on channel=4 note=52 velocity=0 time=48 actual_time=47988
type=note_on channel=4 note=45 velocity=0 time=0 actual_time=47988
type=note_on channel=4 note=47 velocity=80 time=12 actual_time=20
type: note_off, time: 12, actual_time: 116
type=note_on channel=4 note=47 velocity=80 time=0 actual_time=40
type: note_off, time: 0, actual_time: 136
type=note_on channel=4 note=47 velocity=80 time=0 actual_time=48000
type: note_off, time: 0, actual_time: 48096
type=note_on channel=4 note=54 velocity=0 time=96 actual_time=48096
type=note_on channel=4 note=59 velocity=0 time=0 actual_time=48096
type=note_on channel=4 note=47 velocity=0 time=0 actual_time=48096
type=note_on channel=4 note=47 velocity=80 time=24 actual_time=40
type: note_off, time: 24, actual_time: 88
type=note_on channel=4 note=47 velocity=80 time=0 actual_time=0
type: note_off, time: 0, actual_time: 48
type=note_on channel=4 note=47 velocity=80 time=0 actual_time=20
type: note_off, time: 0, actual_time: 68
type=note_on channel=4 note=59 velocity=0 time=48 actual_time=48168
type=note_on channel=4 note=54 velocity=0 time=0 actual_time=48168
type=note_on channel=4 note=47 velocity=0 time=0 actual_time=48168
type=note_on channel=4 note=47 velocity=80 time=12 actual_time=0
type: note_off, time: 12, actual_time: 48
type=note_on channel=4 note=61 velocity=80 time=0 actual_time=60
type: note_off, time: 0, actual_time: 108
type=note_on channel=4 note=47 velocity=80 time=0 actual_time=0
type: note_off, time: 0, actual_time: 48
type=note_on channel=4 note=54 velocity=0 time=48 actual_time=48228
type=note_on channel=4 note=59 velocity=0 time=0 actual_time=48228
type=note_on channel=4 note=47 velocity=0 time=0 actual_time=48228
type=note_on channel=4 note=47 velocity=80 time=12 actual_time=0
type: note_off, time: 12, actual_time: 96
type=note_on channel=4 note=59 velocity=80 time=0 actual_time=20
type: note_off, time: 0, actual_time: 116
type=note_on channel=4 note=47 velocity=80 time=0 actual_time=60
type: note_off, time: 0, actual_time: 156
type=note_on channel=4 note=47 velocity=0 time=96 actual_time=48336
type=note_on channel=4 note=59 velocity=0 time=0 actual_time=48336
type=note_on channel=4 note=54 velocity=0 time=0 actual_time=48336
type=note_on channel=4 note=47 velocity=80 time=24 actual_time=48360
type: note_off, time: 24, actual_time: 48408
type=note_on channel=4 note=47 velocity=80 time=0 actual_time=0
type: note_off, time: 0, actual_time: 48
type=note_on channel=4 note=47 velocity=80 time=0 actual_time=60
type: note_off, time: 0, actual_time: 108
type=note_on channel=4 note=47 velocity=0 time=48 actual_time=48408
type=note_on channel=4 note=54 velocity=0 time=0 actual_time=48408
type=note_on channel=4 note=59 velocity=0 time=0 actual_time=48408
type=note_on channel=4 note=47 velocity=80 time=12 actual_time=40
type: note_off, time: 12, actual_time: 88
type=note_on channel=4 note=59 velocity=80 time=0 actual_time=40
type: note_off, time: 0, actual_time: 88
type=note_on channel=4 note=47 velocity=80 time=0 actual_time=20
type: note_off, time: 0, actual_time: 68
type=note_on channel=4 note=47 velocity=0 time=48 actual_time=48468
type=note_on channel=4 note=59 velocity=0 time=0 actual_time=48468
type=note_on channel=4 note=54 velocity=0 time=0 actual_time=48468
type=note_on channel=4 note=47 velocity=80 time=12 actual_time=20
type: note_off, time: 12, actual_time: 116
type=note_on channel=4 note=47 velocity=80 time=0 actual_time=0
type: note_off, time: 0, actual_time: 96
type=note_on channel=4 note=47 velocity=80 time=0 actual_time=0
type: note_off, time: 0, actual_time: 96
type=note_on channel=4 note=47 velocity=0 time=96 actual_time=48576
type=note_on channel=4 note=59 velocity=0 time=0 actual_time=48576
type=note_on channel=4 note=54 velocity=0 time=0 actual_time=48576
type=note_on channel=4 note=54 velocity=80 time=24 actual_time=20
type: note_off, time: 24, actual_time: 68
type=note_on channel=4 note=47 velocity=80 time=0 actual_time=48600
type: note_off, time: 0, actual_time: 48648
type=note_on channel=4 note=47 velocity=80 time=0 actual_time=60
type: note_off, time: 0, actual_time: 108
type=note_on channel=4 note=47 velocity=0 time=48 actual_time=48648
type=note_on channel=4 note=54 velocity=0 time=0 actual_time=48648
type=note_on channel=4 note=59 velocity=0 time=0 actual_time=48648
type=note_on channel=4 note=47 velocity=80 time=12 actual_time=60
type: note_off, time: 12, actual_time: 108
type=note_on channel=4 note=47 velocity=80 time=0 actual_time=40
type: note_off, time: 0, actual_time: 88
type=note_on channel=4 note=47 velocity=80 time=0 actual_time=0
type: note_off, time: 0, actual_time: 48
type=note_on channel=4 note=47 velocity=0 time=48 actual_time=48708
type=note_on channel=4 note=59 velocity=0 time=0 actual_time=48708
type=note_on channel=4 note=54 velocity=0 time=0 actual_time=48708
type=note_on channel=4 note=54 velocity=80 time=12 actual_time=40
type: note_off, time: 12, actual_time: 136
type=note_on channel=4 note=58 velocity=80 time=0 actual_time=60
type: note_off, time: 0, actual_time: 156
type=note_on channel=4 note=47 velocity=80 time=0 actual_time=0
type: note_off, time: 0, actual_time: 96
type=note_on channel=4 note=47 velocity=0 time=96 actual_time=48816
type=note_on channel=4 note=59 velocity=0 time=0 actual_time=48816
type=note_on channel=4 note=54 velocity=0 time=0 actual_time=48816
type=note_on channel=4 note=47 velocity=80 time=24 actual_time=0
type: note_off, time: 24, actual_time: 48
type=note_on channel=4 note=54 velocity=80 time=0 actual_time=0
type: note_off, time: 0, actual_time: 48
type=note_on channel=4 note=47 velocity=80 time=0 actual_time=0
type: note_off, time: 0, actual_time: 48
type=note_on channel=4 note=47 velocity=0 time=48 actual_time=48888
type=note_on channel=4 note=54 velocity=0 time=0 actual_time=48888
type=note_on channel=4 note=59 velocity=0 time=0 actual_time=48888
type=note_on channel=4 note=54 velocity=80 time=12 actual_time=60
type: note_off, time: 12, actual_time: 108
type=note_on channel=4 note=59 velocity=80 time=0 actual_time=40
type: note_off, time: 0, actual_time: 88
type=note_on channel=4 note=47 velocity=80 time=0 actual_time=40
type: note_off, time: 0, actual_time: 88
type=note_on channel=4 note=47 velocity=0 time=48 actual_time=48948
type=note_on channel=4 note=59 velocity=0 time=0 actual_time=48948
type=note_on channel=4 note=54 velocity=0 time=0 actual_time=48948
type=note_on channel=4 note=47 velocity=80 time=12 actual_time=40
type: note_off, time: 12, actual_time: 136
type=note_on channel=4 note=47 velocity=80 time=0 actual_time=40
type: note_off, time: 0, actual_time: 136
type=note_on channel=4 note=40 velocity=80 time=0 actual_time=0
type: note_off, time: 0, actual_time: 96
type=note_on channel=4 note=40 velocity=0 time=96 actual_time=49056
type=note_on channel=4 note=52 velocity=0 time=0 actual_time=49056
type=note_on channel=4 note=47 velocity=0 time=0 actual_time=49056
type=note_on channel=4 note=56 velocity=80 time=24 actual_time=60
type: note_off, time: 24, actual_time: 108
type=note_on channel=4 note=47 velocity=80 time=0 actual_time=60
type: note_off, time: 0, actual_time: 108
type=note_on channel=4 note=47 velocity=80 time=0 actual_time=20
type: note_off, time: 0, actual_time: 68
type=note_on channel=4 note=40 velocity=0 time=48 actual_time=49128
type=note_on channel=4 note=47 velocity=0 time=0 actual_time=49128
type=note_on channel=4 note=52 velocity=0 time=0 actual_time=49128
type=note_on channel=4 note=47 velocity=80 time=12 actual_time=40
type: note_off, time: 12, actual_time: 88
type=note_on channel=4 note=47 velocity=80 time=0 actual_time=0
type: note_off, time: 0, actual_time: 48
type=note_on channel=4 note=47 velocity=80 time=0 actual_time=20
type: note_off, time: 0, actual_time: 68
type=note_on channel=4 note=40 velocity=0 time=48 actual_time=49188
type=note_on channel=4 note=52 velocity=0 time=0 actual_time=49188
type=note_on channel=4 note=47 velocity=0 time=0 actual_time=49188
type=note_on channel=4 note=47 velocity=80 time=12 actual_time=49200
type: note_off, time: 12, actual_time: 49296
type=note_on channel=4 note=47 velocity=80 time=0 actual_time=60
type: note_off, time: 0, actual_time: 156
type=note_on channel=4 note=40 velocity=80 time=0 actual_time=0
type: note_off, time: 0, actual_time: 96
type=note_on channel=4 note=40 velocity=0 time=96 actual_time=49296
type=note_on channel=4 note=52 velocity=0 time=0 actual_time=49296
type=note_on channel=4 note=47 velocity=0 time=0 actual_time=49296
type=note_on channel=4 note=47 velocity=80 time=24 actual_time=40
type: note_off, time: 24, actual_time: 88
type=note_on channel=4 note=47 velocity=80 time=0 actual_time=20
type: note_off, time: 0, actual_time: 68
type=note_on channel=4 note=47 velocity=80 time=0 actual_time=49320
type: note_off, time: 0, actual_time: 49368
type=note_on channel=4 note=40 velocity=0 time=48 actual_time=49368
type=note_on channel=4 note=47 velocity=0 time=0 actual_time=49368
type=note_on channel=4 note=52 velocity=0 time=0 actual_time=49368
type=note_on channel=4 note=47 velocity=80 time=12 actual_time=0
type: note_off, time: 12, actual_time: 48
type=note_on channel=4 note=52 velocity=80 time=0 actual_time=20
type: note_off, time: 0, actual_time: 68
type=note_on channel=4 note=39 velocity=80 time=0 actual_time=40
type: note_off, time: 0, actual_time: 88
type=note_on channel=4 note=40 velocity=0 time=48 actual_time=49428
type=note_on channel=4 note=52 velocity=0 time=0 actual_time=49428
type=note_on channel=4 note=47 velocity=0 time=0 actual_time=49428
type=note_on channel=4 note=52 velocity=80 time=12 actual_time=0
type: note_off, time: 12, actual_time: 96
type=note_on channel=4 note=47 velocity=80 time=0 actual_time=0
type: note_off, time: 0, actual_time: 96
type=note_on channel=4 note=42 velocity=80 time=0 actual_time=0
type: note_off, time: 0, actual_time: 96
type=note_on channel=4 note=42 velocity=0 time=96 actual_time=49536
type=note_on channel=4 note=54 velocity=0 time=0 actual_time=49536
type=note_on channel=4 note=49 velocity=0 time=0 actual_time=49536
type=note_on channel=4 note=54 velocity=80 time=24 actual_time=60
type: note_off, time: 24, actual_time: 108
type=note_on channel=4 note=47 velocity=80 time=0 actual_time=0
type: note_off, time: 0, actual_time: 48
type=note_on channel=4 note=47 velocity=80 time=0 actual_time=60
type: note_off, time: 0, actual_time: 108
type=note_on channel=4 note=42 velocity=0 time=48 actual_time=49608
type=note_on channel=4 note=49 velocity=0 time=0 actual_time=49608
type=note_on channel=4 note=54 velocity=0 time=0 actual_time=49608
type=note_on channel=4 note=47 velocity=80 time=12 actual_time=40
type: note_off, time: 12, actual_time: 88
type=note_on channel=4 note=47 velocity=80 time=0 actual_time=49620
type: note_off, time: 0, actual_time: 49668
type=note_on channel=4 note=47 velocity=80 time=0 actual_time=40
type: note_off, time: 0, actual_time: 88
type=note_on channel=4 note=42 velocity=0 time=48 actual_time=49668
type=note_on channel=4 note=54 velocity=0 time=0 actual_time=49668
type=note_on channel=4 note=49 velocity=0 time=0 actual_time=49668
type=note_on channel=4 note=47 velocity=80 time=12 actual_time=49680
type: note_off, time: 12, actual_time: 49776
type=note_on channel=4 note=54 velocity=80 time=0 actual_time=40
type: note_off, time: 0, actual_time: 136
type=note_on channel=4 note=47 velocity=80 time=0 actual_time=49680
type: note_off, time: 0, actual_time: 49776
type=note_on channel=4 note=42 velocity=0 time=96 actual_time=49776
type=note_on channel=4 note=54 velocity=0 time=0 actual_time=49776
type=note_on channel=4 note=49 velocity=0 time=0 actual_time=49776
type=note_on channel=4 note=54 velocity=80 time=24 actual_time=20
type: note_off, time: 24, actual_time: 68
type=note_on channel=4 note=49 velocity=80 time=0 actual_time=49800
type: note_off, time: 0, actual_time: 49848
type=note_on channel=4 note=47 velocity=80 time=0 actual_time=60
type: note_off, time: 0, actual_time: 108
type=note_on channel=4 note=42 velocity=0 time=48 actual_time=49848
type=note_on channel=4 note=49 velocity=0 time=0 actual_time=49848
type=note_on channel=4 note=54 velocity=0 time=0 actual_time=49848
type=note_on channel=4 note=49 velocity=80 time=12 actual_time=20
type: note_off, time: 12, actual_time: 68
type=note_on channel=4 note=47 velocity=80 time=0 actual_time=20
type: note_off, time: 0, actual_time: 68
type=note_on channel=4 note=47 velocity=80 time=0 actual_time=0
type: note_off, time: 0, actual_time: 48
type=note_on channel=4 note=42 velocity=0 time=48 actual_time=49908
type=note_on channel=4 note=54 velocity=0 time=0 actual_time=49908
type=note_on channel=4 note=49 velocity=0 time=0 actual_time=49908
type=note_on channel=4 note=47 velocity=80 time=12 actual_time=49920
type: note_off, time: 12, actual_time: 50016
type=note_on channel=4 note=47 velocity=80 time=0 actual_time=60
type: note_off, time: 0, actual_time: 156
type=note_on channel=4 note=48 velocity=80 time=0 actual_time=49920
type: note_off, time: 0, actual_time: 50016
type=note_on channel=4 note=47 velocity=0 time=96 actual_time=50016
type=note_on channel=4 note=59 velocity=0 time=0 actual_time=50016
type=note_on channel=4 note=54 velocity=0 time=0 actual_time=50016
type=note_on channel=4 note=47 velocity=80 time=24 actual_time=50040
type: note_off, time: 24, actual_time: 50088
type=note_on channel=4 note=47 velocity=80 time=0 actual_time=0
type: note_off, time: 0, actual_time: 48
type=note_on channel=4 note=47 velocity=0 time=48 actual_time=50088
type=note_on channel=4 note=54 velocity=0 time=0 actual_time=50088
type=note_on channel=4 note=47 velocity=80 time=12 actual_time=20
type: note_off, time: 12, actual_time: 68
type=note_on channel=4 note=50 velocity=80 time=0 actual_time=50100
type: note_off, time: 0, actual_time: 50148
type=note_on channel=4 note=47 velocity=0 time=48 actual_time=50148
type=note_on channel=4 note=54 velocity=0 time=0 actual_time=50148
type=note_on channel=4 note=47 velocity=80 time=12 actual_time=50160
type: note_off, time: 12, actual_time: 50256
type=note_on channel=4 note=47 velocity=80 time=0 actual_time=0
type: note_off, time: 0, actual_time: 96
type=note_on channel=4 note=47 velocity=80 time=0 actual_time=20
type: note_off, time: 0, actual_time: 116
type=note_on channel=4 note=54 velocity=0 time=96 actual_time=50256
type=note_on channel=4 note=59 velocity=0 time=0 actual_time=50256
type=note_on channel=4 note=47 velocity=0 time=0 actual_time=50256
type=note_on channel=4 note=47 velocity=80 time=24 actual_time=60
type: note_off, time: 24, actual_time: 108
type=note_on channel=4 note=54 velocity=80 time=0 actual_time=0
type: note_off, time: 0, actual_time: 48
type=note_on channel=4 note=54 velocity=0 time=48 actual_time=50328
type=note_on channel=4 note=47 velocity=0 time=0 actual_time=50328
type=note_on channel=4 note=47 velocity=80 time=12 actual_time=20
type: note_off, time: 12, actual_time: 68
type=note_on channel=4 note=47 velocity=80 time=0 actual_time=60
type: note_off, time: 0, actual_time: 108
type=note_on channel=4 note=54 velocity=0 time=48 actual_time=50388
type=note_on channel=4 note=47 velocity=0 time=0 actual_time=50388
type=note_on channel=4 note=47 velocity=80 time=12 actual_time=60
type: note_off, time: 12, actual_time: 156
type=note_on channel=4 note=47 velocity=80 time=0 actual_time=0
type: note_off, time: 0, actual_time: 96
type=note_on channel=4 note=47 velocity=80 time=0 actual_time=60
type: note_off, time: 0, actual_time: 156
type=note_on channel=4 note=54 velocity=0 time=96 actual_time=50496
type=note_on channel=4 note=59 velocity=0 time=0 actual_time=50496
type=note_on channel=4 note=47 velocity=0 time=0 actual_time=50496
type=note_on channel=4 note=47 velocity=80 time=24 actual_time=20
type: note_off, time: 24, actual_time: 68
type=note_on channel=4 note=47 velocity=80 time=0 actual_time=60
type: note_off, time: 0, actual_time: 108
type=note_on channel=4 note=54 velocity=0 time=48 actual_time=50568
type=note_on channel=4 note=47 velocity=0 time=0 actual_time=50568
type=note_on channel=4 note=47 velocity=80 time=12 actual_time=50580
type: note_off, time: 12, actual_time: 50628
type=note_on channel=4 note=47 velocity=80 time=0 actual_time=60
type: note_off, time: 0, actual_time: 108
type=note_on channel=4 note=54 velocity=0 time=48 actual_time=50628
type=note_on channel=4 note=47 velocity=0 time=0 actual_time=50628
type=note_on channel=4 note=44 velocity=80 time=12 actual_time=0
type: note_off, time: 12, actual_time: 96
type=note_on channel=4 note=47 velocity=80 time=0 actual_time=0
type: note_off, time: 0, actual_time: 96
type=note_on channel=4 note=47 velocity=80 time=0 actual_time=60
type: note_off, time: 0, actual_time: 156
type=note_on channel=4 note=54 velocity=0 time=96 actual_time=50736
type=note_on channel=4 note=59 velocity=0 time=0 actual_time=50736
type=note_on channel=4 note=47 velocity=0 time=0 actual_time=50736
type=note_on channel=4 note=47 velocity=80 time=24 actual_time=50760
type: note_off, time: 24, actual_time: 50808
type=note_on channel=4 note=54 velocity=80 time=0 actual_time=0
type: note_off, time: 0, actual_time: 48
type=note_on channel=4 note=54 velocity=0 time=48 actual_time=50808
type=note_on channel=4 note=47 velocity=0 time=0 actual_time=50808
type=note_on channel=4 note=47 velocity=80 time=12 actual_time=0
type: note_off, time: 12, actual_time: 48
type=note_on channel=4 note=54 velocity=80 time=0 actual_time=20
type: note_off, time: 0, actual_time: 68
type=note_on channel=4 note=54 velocity=0 time=48 actual_time=50868
type=note_on channel=4 note=47 velocity=0 time=0 actual_time=50868
type=note_on channel=4 note=47 velocity=80 time=12 actual_time=20
type: note_off, time: 12, actual_time: 116
type=note_on channel=4 note=47 velocity=80 time=0 actual_time=20
type: note_off, time: 0, actual_time: 116
type=note_on channel=4 note=50 velocity=80 time=0 actual_time=0
type: note_off, time: 0, actual_time: 96
type=note_on channel=4 note=50 velocity=0 time=96 actual_time=50976
type=note_on channel=4 note=55 velocity=0 time=0 actual_time=50976
type=note_on channel=4 note=43 velocity=0 time=0 actual_time=50976
type=note_on channel=4 note=47 velocity=80 time=24 actual_time=40
type: note_off, time: 24, actual_time: 88
type=note_on channel=4 note=47 velocity=80 time=0 actual_time=51000
type: note_off, time: 0, actual_time: 51048
type=note_on channel=4 note=50 velocity=0 time=48 actual_time=51048
type=note_on channel=4 note=43 velocity=0 time=0 actual_time=51048
type=note_on channel=4 note=43 velocity=80 time=12 actual_time=40
type: note_off, time: 12, actual_time: 88
type=note_on channel=4 note=47 velocity=80 time=0 actual_time=40
type: note_off, time: 0, actual_time: 88
type=note_on channel=4 note=50 velocity=0 time=48 actual_time=51108
type=note_on channel=4 note=43 velocity=0 time=0 actual_time=51108
type=note_on channel=4 note=43 velocity=80 time=12 actual_time=20
type: note_off, time: 12, actual_time: 116
type=note_on channel=4 note=55 velocity=80 time=0 actual_time=20
type: note_off, time: 0, actual_time: 116
type=note_on channel=4 note=47 velocity=80 time=0 actual_time=0
type: note_off, time: 0, actual_time: 96
type=note_on channel=4 note=50 velocity=0 time=96 actual_time=51216
type=note_on channel=4 note=55 velocity=0 time=0 actual_time=51216
type=note_on channel=4 note=43 velocity=0 time=0 actual_time=51216
type=note_on channel=4 note=47 velocity=80 time=24 actual_time=60
type: note_off, time: 24, actual_time: 108
type=note_on channel=4 note=47 velocity=80 time=0 actual_time=60
type: note_off, time: 0, actual_time: 108
type=note_on channel=4 note=50 velocity=0 time=48 actual_time=51288
type=note_on channel=4 note=43 velocity=0 time=0 actual_time=51288
type=note_on channel=4 note=47 velocity=80 time=12 actual_time=0
type: note_off, time: 12, actual_time: 48
type=note_on channel=4 note=47 velocity=80 time=0 actual_time=51300
type: note_off, time: 0, actual_time: 51348
type=note_on channel=4 note=50 velocity=0 time=48 actual_time=51348
type=note_on channel=4 note=43 velocity=0 time=0 actual_time=51348
type=note_on channel=4 note=46 velocity=80 time=12 actual_time=60
type: note_off, time: 12, actual_time: 156
type=note_on channel=4 note=47 velocity=80 time=0 actual_time=0
type: note_off, time: 0, actual_time: 96
type=note_on channel=4 note=47 velocity=80 time=0 actual_time=20
type: note_off, time: 0, actual_time: 116
type=note_on channel=4 note=52 velocity=0 time=96 actual_time=51456
type=note_on channel=4 note=57 velocity=0 time=0 actual_time=51456
type=note_on channel=4 note=45 velocity=0 time=0 actual_time=51456
type=note_on channel=4 note=45 velocity=80 time=24 actual_time=51480
type: note_off, time: 24, actual_time: 51528
type=note_on channel=4 note=47 velocity=80 time=0 actual_time=40
type: note_off, time: 0, actual_time: 88
type=note_on channel=4 note=52 velocity=0 time=48 actual_time=51528
type=note_on channel=4 note=45 velocity=0 time=0 actual_time=51528
type=note_on channel=4 note=47 velocity=80 time=12 actual_time=51540
type: note_off, time: 12, actual_time: 51588
type=note_on channel=4 note=47 velocity=80 time=0 actual_time=51540
type: note_off, time: 0, actual_time: 51588
type=note_on channel=4 note=52 velocity=0 time=48 actual_time=51588
type=note_on channel=4 note=45 velocity=0 time=0 actual_time=51588
type=note_on channel=4 note=47 velocity=80 time=12 actual_time=0
type: note_off, time: 12, actual_time: 96
type=note_on channel=4 note=57 velocity=80 time=0 actual_time=51600
type: note_off, time: 0, actual_time: 51696
type=note_on channel=4 note=47 velocity=80 time=0 actual_time=0
type: note_off, time: 0, actual_time: 96
type=note_on channel=4 note=52 velocity=0 time=96 actual_time=51696
type=note_on channel=4 note=57 velocity=0 time=0 actual_time=51696
type=note_on channel=4 note=45 velocity=0 time=0 actual_time=51696
type=note_on channel=4 note=47 velocity=80 time=24 actual_time=51720
type: note_off, time: 24, actual_time: 51768
type=note_on channel=4 note=52 velocity=80 time=0 actual_time=51720
type: note_off, time: 0, actual_time: 51768
type=note_on channel=4 note=52 velocity=0 time=48 actual_time=51768
type=note_on channel=4 note=45 velocity=0 time=0 actual_time=51768
type=note_on channel=4 note=45 velocity=80 time=12 actual_time=51780
type: note_off, time: 12, actual_time: 51828
type=note_on channel=4 note=47 velocity=80 time=0 actual_time=40
type: note_off, time: 0, actual_time: 88
type=note_on channel=4 note=52 velocity=0 time=48 actual_time=51828
type=note_on channel=4 note=45 velocity=0 time=0 actual_time=51828
type=note_on channel=4 note=47 velocity=80 time=12 actual_time=51840
type: note_off, time: 12, actual_time: 51936
type=note_on channel=4 note=47 velocity=80 time=0 actual_time=51840
type: note_off, time: 0, actual_time: 51936
type=note_on channel=4 note=46 velocity=80 time=0 actual_time=40
type: note_off, time: 0, actual_time: 136
type=note_on channel=4 note=47 velocity=0 time=96 actual_time=51936
type=note_on channel=4 note=59 velocity=0 time=0 actual_time=51936
type=note_on channel=4 note=54 velocity=0 time=0 actual_time=51936
type=note_on channel=4 note=47 velocity=80 time=24 actual_time=0
type: note_off, time: 24, actual_time: 48
type=note_on channel=4 note=47 velocity=80 time=0 actual_time=20
type: note_off, time: 0, actual_time: 68
type=note_on channel=4 note=47 velocity=0 time=48 actual_time=52008
type=note_on channel=4 note=54 velocity=0 time=0 actual_time=52008
type=note_on channel=4 note=47 velocity=80 time=12 actual_time=0
type: note_off, time: 12, actual_time: 48
type=note_on channel=4 note=47 velocity=80 time=0 actual_time=0
type: note_off, time: 0, actual_time: 48
type=note_on channel=4 note=47 velocity=0 time=48 actual_time=52068
type=note_on channel=4 note=54 velocity=0 time=0 actual_time=52068
type=note_on channel=4 note=43 velocity=80 time=12 actual_time=52080
type: note_off, time: 12, actual_time: 52176
type=note_on channel=4 note=63 velocity=80 time=0 actual_time=40
type: note_off, time: 0, actual_time: 136
type=note_on channel=4 note=47 velocity=80 time=0 actual_time=52080
type: note_off, time: 0, actual_time: 52176
type=note_on channel=4 note=54 velocity=0 time=96 actual_time=52176
type=note_on channel=4 note=59 velocity=0 time=0 actual_time=52176
type=note_on channel=4 note=47 velocity=0 time=0 actual_time=52176
type=note_on channel=4 note=51 velocity=80 time=24 actual_time=40
type: note_off, time: 24, actual_time: 88
type=note_on channel=4 note=47 velocity=80 time=0 actual_time=0
type: note_off, time: 0, actual_time: 48
type=note_on channel=4 note=54 velocity=0 time=48 actual_time=52248
type=note_on channel=4 note=47 velocity=0 time=0 actual_time=52248
type=note_on channel=4 note=47 velocity=80 time=12 actual_time=60
type: note_off, time: 12, actual_time: 108
type=note_on channel=4 note=47 velocity=80 time=0 actual_time=40
type: note_off, time: 0, actual_time: 88
type=note_on channel=4 note=54 velocity=0 time=48 actual_time=52308
type=note_on channel=4 note=47 velocity=0 time=0 actual_time=52308
type=note_on channel=4 note=47 velocity=80 time=12 actual_time=40
type: note_off, time: 12, actual_time: 136
type=note_on channel=4 note=59 velocity=80 time=0 actual_time=20
type: note_off, time: 0, actual_time: 116
type=note_on channel=4 note=47 velocity=80 time=0 actual_time=60
type: note_off, time: 0, actual_time: 156
type=note_on channel=4 note=54 velocity=0 time=96 actual_time=52416
type=note_on channel=4 note=59 velocity=0 time=0 actual_time=52416
type=note_on channel=4 note=47 velocity=0 time=0 actual_time=52416
type=note_on channel=4 note=47 velocity=80 time=24 actual_time=52440
type: note_off, time: 24, actual_time: 52488
type=note_on channel=4 note=47 velocity=80 time=0 actual_time=52440
type: note_off, time: 0, actual_time: 52488
type=note_on channel=4 note=54 velocity=0 time=48 actual_time=52488
type=note_on channel=4 note=47 velocity=0 time=0 actual_time=52488
type=note_on channel=4 note=47 velocity=80 time=12 actual_time=0
type: note_off, time: 12, actual_time: 48
type=note_on channel=4 note=47 velocity=80 time=0 actual_time=0
type: note_off, time: 0, actual_time: 48
type=note_on channel=4 note=54 velocity=0 time=48 actual_time=52548
type=note_on channel=4 note=47 velocity=0 time=0 actual_time=52548
type=note_on channel=4 note=47 velocity=80 time=12 actual_time=20
type: note_off, time: 12, actual_time: 116
type=note_on channel=4 note=47 velocity=80 time=0 actual_time=0
type: note_off, time: 0, actual_time: 96
type=note_on channel=4 note=47 velocity=80 time=0 actual_time=0
type: note_off, time: 0, actual_time: 96
type=note_on channel=4 note=54 velocity=0 time=96 actual_time=52656
type=note_on channel=4 note=59 velocity=0 time=0 actual_time=52656
type=note_on channel=4 note=47 velocity=0 time=0 actual_time=52656
type=note_on channel=4 note=47 velocity=80 time=24 actual_time=60
type: note_off, time: 24, actual_time: 108
type=note_on channel=4 note=47 velocity=80 time=0 actual_time=20
type: note_off, time: 0, actual_time: 68
type=note_on channel=4 note=54 velocity=0 time=48 actual_time=52728
type=note_on channel=4 note=47 velocity=0 time=0 actual_time=52728
type=note_on channel=4 note=47 velocity=80 time=12 actual_time=40
type: note_off, time: 12, actual_time: 88
type=note_on channel=4 note=47 velocity=80 time=0 actual_time=0
type: note_off, time: 0, actual_time: 48
type=note_on channel=4 note=54 velocity=0 time=48 actual_time=52788
type=note_on channel=4 note=47 velocity=0 time=0 actual_time=52788
type=note_on channel=4 note=47 velocity=80 time=12 actual_time=20
type: note_off, time: 12, actual_time: 116
type=note_on channel=4 note=47 velocity=80 time=0 actual_time=52800
type: note_off, time: 0, actual_time: 52896
type=note_on channel=4 note=40 velocity=80 time=0 actual_time=40
type: note_off, time: 0, actual_time: 136
type=note_on channel=4 note=40 velocity=0 time=96 actual_time=52896
type=note_on channel=4 note=52 velocity=0 time=0 actual_time=52896
type=note_on channel=4 note=47 velocity=0 time=0 actual_time=52896
type=note_on channel=4 note=47 velocity=80 time=24 actual_time=20
type: note_off, time: 24, actual_time: 116
type=note_on channel=4 note=47 velocity=80 time=0 actual_time=40
type: note_off, time: 0, actual_time: 136
type=note_on channel=4 note=47 velocity=80 time=0 actual_time=20
type: note_off, time: 0, actual_time: 116
type=note_on channel=4 note=52 velocity=0 time=96 actual_time=53016
type=note_on channel=4 note=40 velocity=0 time=0 actual_time=53016
type=note_on channel=4 note=47 velocity=0 time=0 actual_time=53016
type=note_on channel=4 note=47 velocity=80 time=24 actual_time=40
type: note_off, time: 24, actual_time: 136
type=note_on channel=4 note=47 velocity=80 time=0 actual_time=20
type: note_off, time: 0, actual_time: 116
type=note_on channel=4 note=47 velocity=80 time=0 actual_time=40
type: note_off, time: 0, actual_time: 136
type=note_on channel=4 note=47 velocity=0 time=96 actual_time=53136
type=note_on channel=4 note=52 velocity=0 time=0 actual_time=53136
type=note_on channel=4 note=40 velocity=0 time=0 actual_time=53136
type=note_on channel=4 note=47 velocity=80 time=24 actual_time=20
type: note_off, time: 24, actual_time: 116
type=note_on channel=4 note=47 velocity=80 time=0 actual_time=60
type: note_off, time: 0, actual_time: 156
type=note_on channel=4 note=47 velocity=80 time=0 actual_time=40
type: note_off, time: 0, actual_time: 136
type=note_on channel=4 note=40 velocity=0 time=96 actual_time=53256
type=note_on channel=4 note=47 velocity=0 time=0 actual_time=53256
type=note_on channel=4 note=52 velocity=0 time=0 actual_time=53256
type=note_on channel=4 note=47 velocity=80 time=24 actual_time=53280
type: note_off, time: 24, actual_time: 53376
type=note_on channel=4 note=57 velocity=80 time=0 actual_time=20
type: note_off, time: 0, actual_time: 116
type=note_on channel=4 note=47 velocity=80 time=0 actual_time=20
type: note_off, time: 0, actual_time: 116
type=note_on channel=4 note=42 velocity=0 time=96 actual_time=53376
type=note_on channel=4 note=54 velocity=0 time=0 actual_time=53376
type=note_on channel=4 note=49 velocity=0 time=0 actual_time=53376
type=note_on channel=4 note=47 velocity=80 time=24 actual_time=0
type: note_off, time: 24, actual_time: 96
type=note_on channel=4 note=42 velocity=80 time=0 actual_time=40
type: note_off, time: 0, actual_time: 136
type=note_on channel=4 note=47 velocity=80 time=0 actual_time=20
type: note_off, time: 0, actual_time: 116
type=note_on channel=4 note=54 velocity=0 time=96 actual_time=53496
type=note_on channel=4 note=42 velocity=0 time=0 actual_time=53496
type=note_on channel=4 note=49 velocity=0 time=0 actual_time=53496
type=note_on channel=4 note=42 velocity=80 time=24 actual_time=53520
type: note_off, time: 24, actual_time: 53616
type=note_on channel=4 note=54 velocity=80 time=0 actual_time=53520
type: note_off, time: 0, actual_time: 53616
type=note_on channel=4 note=53 velocity=80 time=0 actual_time=20
type: note_off, time: 0, actual_time: 116
type=note_on channel=4 note=49 velocity=0 time=96 actual_time=53616
type=note_on channel=4 note=54 velocity=0 time=0 actual_time=53616
type=note_on channel=4 note=42 velocity=0 time=0 actual_time=53616
type=note_on channel=4 note=47 velocity=80 time=24 actual_time=40
type: note_off, time: 24, actual_time: 136
type=note_on channel=4 note=49 velocity=80 time=0 actual_time=53640
type: note_off, time: 0, actual_time: 53736
type=note_on channel=4 note=47 velocity=80 time=0 actual_time=40
type: note_off, time: 0, actual_time: 136
type=note_on channel=4 note=42 velocity=0 time=96 actual_time=53736
type=note_on channel=4 note=49 velocity=0 time=0 actual_time=53736
type=note_on channel=4 note=54 velocity=0 time=0 actual_time=53736
type=note_on channel=4 note=54 velocity=80 time=24 actual_time=60
type: note_off, time: 24, actual_time: 996
type=note_on channel=4 note=47 velocity=80 time=0 actual_time=0
type: note_off, time: 0, actual_time: 936
type=note_on channel=4 note=47 velocity=80 time=0 actual_time=20
type: note_off, time: 0, actual_time: 956
type=note_on channel=4 note=47 velocity=0 time=936 actual_time=54696
type=note_on channel=4 note=59 velocity=0 time=0 actual_time=54696
type=note_on channel=4 note=54 velocity=0 time=0 actual_time=54696
type=note_on channel=4 note=43 velocity=80 time=24 actual_time=0
type: note_off, time: 24, actual_time: 408
type=note_on channel=4 note=47 velocity=80 time=0 actual_time=54720
type: note_off, time: 0, actual_time: 55128
type=note_on channel=4 note=57 velocity=80 time=0 actual_time=60
type: note_off, time: 0, actual_time: 468
type=note_on channel=4 note=55 velocity=0 time=408 actual_time=55128
type=note_on channel=4 note=50 velocity=0 time=0 actual_time=55128
type=note_on channel=4 note=43 velocity=0 time=0 actual_time=55128
type=note_on channel=4 note=47 velocity=80 time=12 actual_time=60
type: note_off, time: 12, actual_time: 108
type=note_on channel=4 note=47 velocity=80 time=0 actual_time=60
type: note_off, time: 0, actual_time: 108
type=note_on channel=4 note=43 velocity=0 time=48 actual_time=55188
type=note_on channel=4 note=50 velocity=0 time=0 actual_time=55188
type=note_on channel=4 note=50 velocity=80 time=12 actual_time=55200
type: note_off, time: 12, actual_time: 55608
type=note_on channel=4 note=47 velocity=80 time=0 actual_time=0
type: note_off, time: 0, actual_time: 408
type=note_on channel=4 note=56 velocity=80 time=0 actual_time=0
type: note_off, time: 0, actual_time: 408
type=note_on channel=4 note=57 velocity=0 time=408 actual_time=55608
type=note_on channel=4 note=52 velocity=0 time=0 actual_time=55608
type=note_on channel=4 note=45 velocity=0 time=0 actual_time=55608
type=note_on channel=4 note=47 velocity=80 time=12 actual_time=55620
type: note_off, time: 12, actual_time: 55668
type=note_on channel=4 note=47 velocity=80 time=0 actual_time=60
type: note_off, time: 0, actual_time: 108
type=note_on channel=4 note=52 velocity=0 time=48 actual_time=55668
type=note_on channel=4 note=45 velocity=0 time=0 actual_time=55668
type=note_on channel=4 note=47 velocity=80 time=12 actual_time=60
type: note_off, time: 12, actual_time: 996
type=note_on channel=4 note=47 velocity=80 time=0 actual_time=0
type: note_off, time: 0, actual_time: 936
type=note_on channel=4 note=47 velocity=80 time=0 actual_time=55680
type: note_off, time: 0, actual_time: 56616
type=note_on channel=4 note=54 velocity=0 time=936 actual_time=56616
type=note_on channel=4 note=59 velocity=0 time=0 actual_time=56616
type=note_on channel=4 note=47 velocity=0 time=0 actual_time=56616
type=note_on channel=4 note=47 velocity=80 time=24 actual_time=40
type: note_off, time: 24, actual_time: 448
type=note_on channel=4 note=47 velocity=80 time=0 actual_time=20
type: note_off, time: 0, actual_time: 428
type=note_on channel=4 note=47 velocity=80 time=0 actual_time=0
type: note_off, time: 0, actual_time: 408
type=note_on channel=4 note=43 velocity=0 time=408 actual_time=57048
type=note_on channel=4 note=50 velocity=0 time=0 actual_time=57048
type=note_on channel=4 note=55 velocity=0 time=0 actual_time=57048
type=note_on channel=4 note=50 velocity=80 time=12 actual_time=0
type: note_off, time: 12, actual_time: 48
type=note_on channel=4 note=47 velocity=80 time=0 actual_time=0
type: note_off, time: 0, actual_time: 48
type=note_on channel=4 note=43 velocity=0 time=48 actual_time=57108
type=note_on channel=4 note=50 velocity=0 time=0 actual_time=57108
type=note_on channel=4 note=47 velocity=80 time=12 actual_time=60
type: note_off, time: 12, actual_time: 468
type=note_on channel=4 note=47 velocity=80 time=0 actual_time=60
type: note_off, time: 0, actual_time: 468
type=note_on channel=4 note=47 velocity=80 time=0 actual_time=57120
type: note_off, time: 0, actual_time: 57528
type=note_on channel=4 note=45 velocity=0 time=408 actual_time=57528
type=note_on channel=4 note=52 velocity=0 time=0 actual_time=57528
type=note_on channel=4 note=57 velocity=0 time=0 actual_time=57528
type=note_on channel=4 note=52 velocity=80 time=12 actual_time=57540
type: note_off, time: 12, actual_time: 57588
type=note_on channel=4 note=48 velocity=80 time=0 actual_time=20
type: note_off, time: 0, actual_time: 68
type=note_on channel=4 note=45 velocity=0 time=48 actual_time=57588
type=note_on channel=4 note=52 velocity=0 time=0 actual_time=57588
type=note_on channel=4 note=47 velocity=80 time=12 actual_time=20
type: note_off, time: 12, actual_time: 956
type=note_on channel=4 note=59 velocity=80 time=0 actual_time=40
type: note_off, time: 0, actual_time: 976
type=note_on channel=4 note=54 velocity=80 time=0 actual_time=40
type: note_off, time: 0, actual_time: 976
type=note_on channel=4 note=54 velocity=0 time=936 actual_time=58536
type=note_on channel=4 note=59 velocity=0 time=0 actual_time=58536
type=note_on channel=4 note=47 velocity=0 time=0 actual_time=58536
type=note_on channel=4 note=47 velocity=80 time=24 actual_time=58560
type: note_off, time: 24, actual_time: 58968
type=note_on channel=4 note=47 velocity=80 time=0 actual_time=20
type: note_off, time: 0, actual_time: 428
type=note_on channel=4 note=47 velocity=80 time=0 actual_time=20
type: note_off, time: 0, actual_time: 428
type=note_on channel=4 note=43 velocity=0 time=408 actual_time=58968
type=note_on channel=4 note=50 velocity=0 time=0 actual_time=58968
type=note_on channel=4 note=55 velocity=0 time=0 actual_time=58968
type=note_on channel=4 note=50 velocity=80 time=12 actual_time=40
type: note_off, time: 12, actual_time: 88
type=note_on channel=4 note=43 velocity=80 time=0 actual_time=40
type: note_off, time: 0, actual_time: 88
type=note_on channel=4 note=43 velocity=0 time=48 actual_time=59028
type=note_on channel=4 note=50 velocity=0 time=0 actual_time=59028
type=note_on channel=4 note=47 velocity=80 time=12 actual_time=0
type: note_off, time: 12, actual_time: 408
type=note_on channel=4 note=47 velocity=80 time=0 actual_time=40
type: note_off, time: 0, actual_time: 448
type=note_on channel=4 note=47 velocity=80 time=0 actual_time=20
type: note_off, time: 0, actual_time: 428
type=note_on channel=4 note=45 velocity=0 time=408 actual_time=59448
type=note_on channel=4 note=52 velocity=0 time=0 actual_time=59448
type=note_on channel=4 note=57 velocity=0 time=0 actual_time=59448
type=note_on channel=4 note=47 velocity=80 time=12 actual_time=60
type: note_off, time: 12, actual_time: 108
type=note_on channel=4 note=47 velocity=80 time=0 actual_time=60
type: note_off, time: 0, actual_time: 108
type=note_on channel=4 note=45 velocity=0 time=48 actual_time=59508
type=note_on channel=4 note=52 velocity=0 time=0 actual_time=59508
type=note_on channel=4 note=47 velocity=80 time=12 actual_time=20
type: note_off, time: 12, actual_time: 956
type=note_on channel=4 note=47 velocity=80 time=0 actual_time=20
type: note_off, time: 0, actual_time: 956
type=note_on channel=4 note=47 velocity=80 time=0 actual_time=40
type: note_off, time: 0, actual_time: 976
type=note_on channel=4 note=47 velocity=0 time=936 actual_time=60456
type=note_on channel=4 note=59 velocity=0 time=0 actual_time=60456
type=note_on channel=4 note=54 velocity=0 time=0 actual_time=60456
type=note_on channel=4 note=47 velocity=80 time=24 actual_time=40
type: note_off, time: 24, actual_time: 448
type=note_on channel=4 note=50 velocity=80 time=0 actual_time=60
type: note_off, time: 0, actual_time: 468
type=note_on channel=4 note=47 velocity=80 time=0 actual_time=0
type: note_off, time: 0, actual_time: 408
type=note_on channel=4 note=55 velocity=0 time=408 actual_time=60888
type=note_on channel=4 note=50 velocity=0 time=0 actual_time=60888
type=note_on channel=4 note=43 velocity=0 time=0 actual_time=60888
type=note_on channel=4 note=47 velocity=80 time=12 actual_time=40
type: note_off, time: 12, actual_time: 88
type=note_on channel=4 note=50 velocity=80 time=0 actual_time=0
type: note_off, time: 0, actual_time: 48
type=note_on channel=4 note=50 velocity=0 time=48 actual_time=60948
type=note_on channel=4 note=43 velocity=0 time=0 actual_time=60948
type=note_on channel=4 note=47 velocity=80 time=12 actual_time=20
type: note_off, time: 12, actual_time: 488
type=note_on channel=4 note=52 velocity=80 time=0 actual_time=60
type: note_off, time: 0, actual_time: 528
type=note_on channel=4 note=47 velocity=80 time=0 actual_time=60960
type: note_off, time: 0, actual_time: 61428
type=note_on channel=4 note=57 velocity=0 time=468 actual_time=61428
type=note_on channel=4 note=52 velocity=0 time=0 actual_time=61428
type=note_on channel=4 note=45 velocity=0 time=0 actual_time=61428
type=note_on channel=4 note=47 velocity=80 time=12 actual_time=20
type: note_off, time: 12, actual_time: 7508
type=note_on channel=4 note=47 velocity=80 time=0 actual_time=0
type: note_off, time: 0, actual_time: 7488
type=note_on channel=4 note=59 velocity=80 time=0 actual_time=61440
type: note_off, time: 0, actual_time: 68928
type=note_on channel=4 note=59 velocity=0 time=7488 actual_time=68928
type=note_on channel=4 note=54 velocity=0 time=0 actual_time=68928
type=note_on channel=4 note=47 velocity=0 time=0 actual_time=68928
type=note_on channel=4 note=47 velocity=80 time=3792 actual_time=40
type: note_off, time: 3792, actual_time: 72
type=note_on channel=4 note=47 velocity=80 time=0 actual_time=60
type: note_off, time: 0, actual_time: 92
type=note_on channel=4 note=52 velocity=0 time=32 actual_time=72752
type=note_on channel=4 note=45 velocity=0 time=0 actual_time=72752
type=note_on channel=4 note=47 velocity=80 time=8 actual_time=0
type: note_off, time: 8, actual_time: 32
type=note_on channel=4 note=47 velocity=80 time=0 actual_time=20
type: note_off, time: 0, actual_time: 52
type=note_on channel=4 note=52 velocity=0 time=32 actual_time=72792
type=note_on channel=4 note=45 velocity=0 time=0 actual_time=72792
type=note_on channel=4 note=47 velocity=80 time=8 actual_time=20
type: note_off, time: 8, actual_time: 52
type=note_on channel=4 note=52 velocity=80 time=0 actual_time=72800
type: note_off, time: 0, actual_time: 72832
type=note_on channel=4 note=52 velocity=0 time=32 actual_time=72832
type=note_on channel=4 note=45 velocity=0 time=0 actual_time=72832
type=note_on channel=4 note=47 velocity=80 time=8 actual_time=72840
type: note_off, time: 8, actual_time: 72872
type=note_on channel=4 note=47 velocity=80 time=0 actual_time=40
type: note_off, time: 0, actual_time: 72
type=note_on channel=4 note=52 velocity=0 time=32 actual_time=72872
type=note_on channel=4 note=45 velocity=0 time=0 actual_time=72872
type=note_on channel=4 note=47 velocity=80 time=8 actual_time=72880
type: note_off, time: 8, actual_time: 72912
type=note_on channel=4 note=47 velocity=80 time=0 actual_time=40
type: note_off, time: 0, actual_time: 72
type=note_on channel=4 note=45 velocity=0 time=32 actual_time=72912
type=note_on channel=4 note=52 velocity=0 time=0 actual_time=72912
type=note_on channel=4 note=47 velocity=80 time=8 actual_time=20
type: note_off, time: 8, actual_time: 52
type=note_on channel=4 note=47 velocity=80 time=0 actual_time=72920
type: note_off, time: 0, actual_time: 72952
type=note_on channel=4 note=45 velocity=0 time=32 actual_time=72952
type=note_on channel=4 note=52 velocity=0 time=0 actual_time=72952
type=note_on channel=4 note=47 velocity=80 time=8 actual_time=60
type: note_off, time: 8, actual_time: 156
type=note_on channel=4 note=56 velocity=80 time=0 actual_time=0
type: note_off, time: 0, actual_time: 96
type=note_on channel=4 note=47 velocity=80 time=0 actual_time=40
type: note_off, time: 0, actual_time: 136
type=note_on channel=4 note=54 velocity=0 time=96 actual_time=73056
type=note_on channel=4 note=59 velocity=0 time=0 actual_time=73056
type=note_on channel=4 note=47 velocity=0 time=0 actual_time=73056
type=note_on channel=4 note=48 velocity=80 time=24 actual_time=20
type: note_off, time: 24, actual_time: 68
type=note_on channel=4 note=54 velocity=80 time=0 actual_time=40
type: note_off, time: 0, actual_time: 88
type=note_on channel=4 note=54 velocity=0 time=48 actual_time=73128
type=note_on channel=4 note=47 velocity=0 time=0 actual_time=73128
type=note_on channel=4 note=47 velocity=80 time=12 actual_time=40
type: note_off, time: 12, actual_time: 88
type=note_on channel=4 note=47 velocity=80 time=0 actual_time=20
type: note_off, time: 0, actual_time: 68
type=note_on channel=4 note=54 velocity=0 time=48 actual_time=73188
type=note_on channel=4 note=47 velocity=0 time=0 actual_time=73188
type=note_on channel=4 note=47 velocity=80 time=12 actual_time=20
type: note_off, time: 12, actual_time: 116
type=note_on channel=4 note=59 velocity=80 time=0 actual_time=40
type: note_off, time: 0, actual_time: 136
type=note_on channel=4 note=47 velocity=80 time=0 actual_time=73200
type: note_off, time: 0, actual_time: 73296
type=note_on channel=4 note=47 velocity=0 time=96 actual_time=73296
type=note_on channel=4 note=59 velocity=0 time=0 actual_time=73296
type=note_on channel=4 note=54 velocity=0 time=0 actual_time=73296
type=note_on channel=4 note=47 velocity=80 time=24 actual_time=60
type: note_off, time: 24, actual_time: 108
type=note_on channel=4 note=47 velocity=80 time=0 actual_time=20
type: note_off, time: 0, actual_time: 68
type=note_on channel=4 note=47 velocity=0 time=48 actual_time=73368
type=note_on channel=4 note=54 velocity=0 time=0 actual_time=73368
type=note_on channel=4 note=47 velocity=80 time=12 actual_time=40
type: note_off, time: 12, actual_time: 88
type=note_on channel=4 note=47 velocity=80 time=0 actual_time=40
type: note_off, time: 0, actual_time: 88
type=note_on channel=4 note=47 velocity=0 time=48 actual_time=73428
type=note_on channel=4 note=54 velocity=0 time=0 actual_time=73428
type=note_on channel=4 note=47 velocity=80 time=12 actual_time=40
type: note_off, time: 12, actual_time: 136
type=note_on channel=4 note=47 velocity=80 time=0 actual_time=73440
type: note_off, time: 0, actual_time: 73536
type=note_on channel=4 note=47 velocity=80 time=0 actual_time=20
type: note_off, time: 0, actual_time: 116
type=note_on channel=4 note=47 velocity=0 time=96 actual_time=73536
type=note_on channel=4 note=59 velocity=0 time=0 actual_time=73536
type=note_on channel=4 note=54 velocity=0 time=0 actual_time=73536
type=note_on channel=4 note=54 velocity=80 time=24 actual_time=40
type: note_off, time: 24, actual_time: 88
type=note_on channel=4 note=42 velocity=80 time=0 actual_time=20
type: note_off, time: 0, actual_time: 68
type=note_on channel=4 note=47 velocity=0 time=48 actual_time=73608
type=note_on channel=4 note=54 velocity=0 time=0 actual_time=73608
type=note_on channel=4 note=47 velocity=80 time=12 actual_time=40
type: note_off, time: 12, actual_time: 88
type=note_on channel=4 note=47 velocity=80 time=0 actual_time=0
type: note_off, time: 0, actual_time: 48
type=note_on channel=4 note=47 velocity=0 time=48 actual_time=73668
type=note_on channel=4 note=54 velocity=0 time=0 actual_time=73668
type=note_on channel=4 note=47 velocity=80 time=12 actual_time=73680
type: note_off, time: 12, actual_time: 73776
type=note_on channel=4 note=47 velocity=80 time=0 actual_time=60
type: note_off, time: 0, actual_time: 156
type=note_on channel=4 note=47 velocity=80 time=0 actual_time=0
type: note_off, time: 0, actual_time: 96
type=note_on channel=4 note=47 velocity=0 time=96 actual_time=73776
type=note_on channel=4 note=59 velocity=0 time=0 actual_time=73776
type=note_on channel=4 note=54 velocity=0 time=0 actual_time=73776
type=note_on channel=4 note=47 velocity=80 time=24 actual_time=73800
type: note_off, time: 24, actual_time: 73848
type=note_on channel=4 note=47 velocity=80 time=0 actual_time=60
type: note_off, time: 0, actual_time: 108
type=note_on channel=4 note=47 velocity=0 time=48 actual_time=73848
type=note_on channel=4 note=54 velocity=0 time=0 actual_time=73848
type=note_on channel=4 note=47 velocity=80 time=12 actual_time=40
type: note_off, time: 12, actual_time: 88
type=note_on channel=4 note=47 velocity=80 time=0 actual_time=0
type: note_off, time: 0, actual_time: 48
type=note_on channel=4 note=47 velocity=0 time=48 actual_time=73908
type=note_on channel=4 note=54 velocity=0 time=0 actual_time=73908
type=note_on channel=4 note=50 velocity=80 time=12 actual_time=73920
type: note_off, time: 12, actual_time: 74016
type=note_on channel=4 note=47 velocity=80 time=0 actual_time=40
type: note_off, time: 0, actual_time: 136
type=note_on channel=4 note=47 velocity=80 time=0 actual_time=0
type: note_off, time: 0, actual_time: 96
type=note_on channel=4 note=43 velocity=0 time=96 actual_time=74016
type=note_on channel=4 note=55 velocity=0 time=0 actual_time=74016
type=note_on channel=4 note=50 velocity=0 time=0 actual_time=74016
type=note_on channel=4 note=47 velocity=80 time=24 actual_time=60
type: note_off, time: 24, actual_time: 108
type=note_on channel=4 note=43 velocity=80 time=0 actual_time=60
type: note_off, time: 0, actual_time: 108
type=note_on channel=4 note=43 velocity=0 time=48 actual_time=74088
type=note_on channel=4 note=50 velocity=0 time=0 actual_time=74088
type=note_on channel=4 note=47 velocity=80 time=12 actual_time=60
type: note_off, time: 12, actual_time: 108
type=note_on channel=4 note=47 velocity=80 time=0 actual_time=74100
type: note_off, time: 0, actual_time: 74148
type=note_on channel=4 note=43 velocity=0 time=48 actual_time=74148
type=note_on channel=4 note=50 velocity=0 time=0 actual_time=74148
type=note_on channel=4 note=47 velocity=80 time=12 actual_time=74160
type: note_off, time: 12, actual_time: 74256
type=note_on channel=4 note=47 velocity=80 time=0 actual_time=0
type: note_off, time: 0, actual_time: 96
type=note_on channel=4 note=47 velocity=80 time=0 actual_time=0
type: note_off, time: 0, actual_time: 96
type=note_on channel=4 note=43 velocity=0 time=96 actual_time=74256
type=note_on channel=4 note=55 velocity=0 time=0 actual_time=74256
type=note_on channel=4 note=50 velocity=0 time=0 actual_time=74256
type=note_on channel=4 note=50 velocity=80 time=24 actual_time=40
type: note_off, time: 24, actual_time: 88
type=note_on channel=4 note=47 velocity=80 time=0 actual_time=60
type: note_off, time: 0, actual_time: 108
type=note_on channel=4 note=43 velocity=0 time=48 actual_time=74328
type=note_on channel=4 note=50 velocity=0 time=0 actual_time=74328
type=note_on channel=4 note=47 velocity=80 time=12 actual_time=60
type: note_off, time: 12, actual_time: 108
type=note_on channel=4 note=47 velocity=80 time=0 actual_time=74340
type: note_off, time: 0, actual_time: 74388
type=note_on channel=4 note=43 velocity=0 time=48 actual_time=74388
type=note_on channel=4 note=50 velocity=0 time=0 actual_time=74388
type=note_on channel=4 note=47 velocity=80 time=12 actual_time=0
type: note_off, time: 12, actual_time: 96
type=note_on channel=4 note=52 velocity=80 time=0 actual_time=20
type: note_off, time: 0, actual_time: 116
type=note_on channel=4 note=47 velocity=80 time=0 actual_time=40
type: note_off, time: 0, actual_time: 136
type=note_on channel=4 note=45 velocity=0 time=96 actual_time=74496
type=note_on channel=4 note=57 velocity=0 time=0 actual_time=74496
type=note_on channel=4 note=52 velocity=0 time=0 actual_time=74496
type=note_on channel=4 note=52 velocity=80 time=24 actual_time=0
type: note_off, time: 24, actual_time: 48
type=note_on channel=4 note=47 velocity=80 time=0 actual_time=40
type: note_off, time: 0, actual_time: 88
type=note_on channel=4 note=45 velocity=0 time=48 actual_time=74568
type=note_on channel=4 note=52 velocity=0 time=0 actual_time=74568
type=note_on channel=4 note=47 velocity=80 time=12 actual_time=20
type: note_off, time: 12, actual_time: 68
type=note_on channel=4 note=47 velocity=80 time=0 actual_time=60
type: note_off, time: 0, actual_time: 108
type=note_on channel=4 note=45 velocity=0 time=48 actual_time=74628
type=note_on channel=4 note=52 velocity=0 time=0 actual_time=74628
type=note_on channel=4 note=52 velocity=80 time=12 actual_time=0
type: note_off, time: 12, actual_time: 96
type=note_on channel=4 note=47 velocity=80 time=0 actual_time=60
type: note_off, time: 0, actual_time: 156
type=note_on channel=4 note=47 velocity=80 time=0 actual_time=20
type: note_off, time: 0, actual_time: 116
type=note_on channel=4 note=45 velocity=0 time=96 actual_time=74736
type=note_on channel=4 note=57 velocity=0 time=0 actual_time=74736
type=note_on channel=4 note=52 velocity=0 time=0 actual_time=74736
type=note_on channel=4 note=47 velocity=80 time=24 actual_time=74760
type: note_off, time: 24, actual_time: 74808
type=note_on channel=4 note=45 velocity=80 time=0 actual_time=74760
type: note_off, time: 0, actual_time: 74808
type=note_on channel=4 note=45 velocity=0 time=48 actual_time=74808
type=note_on channel=4 note=52 velocity=0 time=0 actual_time=74808
type=note_on channel=4 note=47 velocity=80 time=12 actual_time=60
type: note_off, time: 12, actual_time: 108
type=note_on channel=4 note=47 velocity=80 time=0 actual_time=74820
type: note_off, time: 0, actual_time: 74868
type=note_on channel=4 note=45 velocity=0 time=48 actual_time=74868
type=note_on channel=4 note=52 velocity=0 time=0 actual_time=74868
type=note_on channel=4 note=47 velocity=80 time=12 actual_time=20
type: note_off, time: 12, actual_time: 116
type=note_on channel=4 note=63 velocity=80 time=0 actual_time=0
type: note_off, time: 0, actual_time: 96
type=note_on channel=4 note=47 velocity=80 time=0 actual_time=74880
type: note_off, time: 0, actual_time: 74976
type=note_on channel=4 note=47 velocity=0 time=96 actual_time=74976
type=note_on channel=4 note=59 velocity=0 time=0 actual_time=74976
type=note_on channel=4 note=54 velocity=0 time=0 actual_time=74976
type=note_on channel=4 note=47 velocity=80 time=24 actual_time=40
type: note_off, time: 24, actual_time: 88
type=note_on channel=4 note=47 velocity=80 time=0 actual_time=40
type: note_off, time: 0, actual_time: 88
type=note_on channel=4 note=47 velocity=80 time=0 actual_time=40
type: note_off, time: 0, actual_time: 88
type=note_on channel=4 note=47 velocity=0 time=48 actual_time=75048
type=note_on channel=4 note=54 velocity=0 time=0 actual_time=75048
type=note_on channel=4 note=59 velocity=0 time=0 actual_time=75048
type=note_on channel=4 note=47 velocity=80 time=12 actual_time=75060
type: note_off, time: 12, actual_time: 75108
type=note_on channel=4 note=47 velocity=80 time=0 actual_time=0
type: note_off, time: 0, actual_time: 48
type=note_on channel=4 note=47 velocity=80 time=0 actual_time=75060
type: note_off, time: 0, actual_time: 75108
type=note_on channel=4 note=47 velocity=0 time=48 actual_time=75108
type=note_on channel=4 note=59 velocity=0 time=0 actual_time=75108
type=note_on channel=4 note=54 velocity=0 time=0 actual_time=75108
type=note_on channel=4 note=47 velocity=80 time=12 actual_time=60
type: note_off, time: 12, actual_time: 156
type=note_on channel=4 note=47 velocity=80 time=0 actual_time=40
type: note_off, time: 0, actual_time: 136
type=note_on channel=4 note=47 velocity=80 time=0 actual_time=0
type: note_off, time: 0, actual_time: 96
type=note_on channel=4 note=54 velocity=0 time=96 actual_time=75216
type=note_on channel=4 note=59 velocity=0 time=0 actual_time=75216
type=note_on channel=4 note=47 velocity=0 time=0 actual_time=75216
type=note_on channel=4 note=47 velocity=80 time=24 actual_time=20
type: note_off, time: 24, actual_time: 68
type=note_on channel=4 note=47 velocity=80 time=0 actual_time=75240
type: note_off, time: 0, actual_time: 75288
type=note_on channel=4 note=60 velocity=80 time=0 actual_time=60
type: note_off, time: 0, actual_time: 108
type=note_on channel=4 note=59 velocity=0 time=48 actual_time=75288
type=note_on channel=4 note=54 velocity=0 time=0 actual_time=75288
type=note_on channel=4 note=47 velocity=0 time=0 actual_time=75288
type=note_on channel=4 note=47 velocity=80 time=12 actual_time=60
type: note_off, time: 12, actual_time: 108
type=note_on channel=4 note=47 velocity=80 time=0 actual_time=0
type: note_off, time: 0, actual_time: 48
type=note_on channel=4 note=47 velocity=80 time=0 actual_time=75300
type: note_off, time: 0, actual_time: 75348
type=note_on channel=4 note=54 velocity=0 time=48 actual_time=75348
type=note_on channel=4 note=59 velocity=0 time=0 actual_time=75348
type=note_on channel=4 note=47 velocity=0 time=0 actual_time=75348
type=note_on channel=4 note=47 velocity=80 time=12 actual_time=60
type: note_off, time: 12, actual_time: 156
type=note_on channel=4 note=59 velocity=80 time=0 actual_time=20
type: note_off, time: 0, actual_time: 116
type=note_on channel=4 note=54 velocity=80 time=0 actual_time=60
type: note_off, time: 0, actual_time: 156
type=note_on channel=4 note=54 velocity=0 time=96 actual_time=75456
type=note_on channel=4 note=59 velocity=0 time=0 actual_time=75456
type=note_on channel=4 note=47 velocity=0 time=0 actual_time=75456
type=note_on channel=4 note=47 velocity=80 time=24 actual_time=0
type: note_off, time: 24, actual_time: 48
type=note_on channel=4 note=54 velocity=80 time=0 actual_time=20
type: note_off, time: 0, actual_time: 68
type=note_on channel=4 note=60 velocity=80 time=0 actual_time=40
type: note_off, time: 0, actual_time: 88
type=note_on channel=4 note=59 velocity=0 time=48 actual_time=75528
type=note_on channel=4 note=54 velocity=0 time=0 actual_time=75528
type=note_on channel=4 note=47 velocity=0 time=0 actual_time=75528
type=note_on channel=4 note=47 velocity=80 time=12 actual_time=0
type: note_off, time: 12, actual_time: 48
type=note_on channel=4 note=47 velocity=80 time=0 actual_time=60
type: note_off, time: 0, actual_time: 108
type=note_on channel=4 note=47 velocity=80 time=0 actual_time=60
type: note_off, time: 0, actual_time: 108
type=note_on channel=4 note=54 velocity=0 time=48 actual_time=75588
type=note_on channel=4 note=59 velocity=0 time=0 actual_time=75588
type=note_on channel=4 note=47 velocity=0 time=0 actual_time=75588
type=note_on channel=4 note=47 velocity=80 time=12 actual_time=0
type: note_off, time: 12, actual_time: 96
type=note_on channel=4 note=47 velocity=80 time=0 actual_time=0
type: note_off, time: 0, actual_time: 96
type=note_on channel=4 note=54 velocity=80 time=0 actual_time=0
type: note_off, time: 0, actual_time: 96
type=note_on channel=4 note=54 velocity=0 time=96 actual_time=75696
type=note_on channel=4 note=59 velocity=0 time=0 actual_time=75696
type=note_on channel=4 note=47 velocity=0 time=0 actual_time=75696
type=note_on channel=4 note=47 velocity=80 time=24 actual_time=75720
type: note_off, time: 24, actual_time: 75768
type=note_on channel=4 note=54 velocity=80 time=0 actual_time=75720
type: note_off, time: 0, actual_time: 75768
type=note_on channel=4 note=47 velocity=80 time=0 actual_time=0
type: note_off, time: 0, actual_time: 48
type=note_on channel=4 note=59 velocity=0 time=48 actual_time=75768
type=note_on channel=4 note=54 velocity=0 time=0 actual_time=75768
type=note_on channel=4 note=47 velocity=0 time=0 actual_time=75768
type=note_on channel=4 note=47 velocity=80 time=12 actual_time=75780
type: note_off, time: 12, actual_time: 75828
type=note_on channel=4 note=47 velocity=80 time=0 actual_time=20
type: note_off, time: 0, actual_time: 68
type=note_on channel=4 note=54 velocity=80 time=0 actual_time=20
type: note_off, time: 0, actual_time: 68
type=note_on channel=4 note=54 velocity=0 time=48 actual_time=75828
type=note_on channel=4 note=59 velocity=0 time=0 actual_time=75828
type=note_on channel=4 note=47 velocity=0 time=0 actual_time=75828
type=note_on channel=4 note=47 velocity=80 time=12 actual_time=75840
type: note_off, time: 12, actual_time: 75936
type=note_on channel=4 note=57 velocity=80 time=0 actual_time=75840
type: note_off, time: 0, actual_time: 75936
type=note_on channel=4 note=47 velocity=80 time=0 actual_time=75840
type: note_off, time: 0, actual_time: 75936
type=note_on channel=4 note=47 velocity=0 time=96 actual_time=75936
type=note_on channel=4 note=52 velocity=0 time=0 actual_time=75936
type=note_on channel=4 note=40 velocity=0 time=0 actual_time=75936
type=note_on channel=4 note=47 velocity=80 time=24 actual_time=40
type: note_off, time: 24, actual_time: 88
type=note_on channel=4 note=47 velocity=80 time=0 actual_time=60
type: note_off, time: 0, actual_time: 108
type=note_on channel=4 note=47 velocity=80 time=0 actual_time=0
type: note_off, time: 0, actual_time: 48
type=note_on channel=4 note=52 velocity=0 time=48 actual_time=76008
type=note_on channel=4 note=47 velocity=0 time=0 actual_time=76008
type=note_on channel=4 note=40 velocity=0 time=0 actual_time=76008
type=note_on channel=4 note=47 velocity=80 time=12 actual_time=20
type: note_off, time: 12, actual_time: 68
type=note_on channel=4 note=57 velocity=80 time=0 actual_time=60
type: note_off, time: 0, actual_time: 108
type=note_on channel=4 note=47 velocity=80 time=0 actual_time=20
type: note_off, time: 0, actual_time: 68
type=note_on channel=4 note=47 velocity=0 time=48 actual_time=76068
type=note_on channel=4 note=52 velocity=0 time=0 actual_time=76068
type=note_on channel=4 note=40 velocity=0 time=0 actual_time=76068
type=note_on channel=4 note=47 velocity=80 time=12 actual_time=76080
type: note_off, time: 12, actual_time: 76176
type=note_on channel=4 note=47 velocity=80 time=0 actual_time=20
type: note_off, time: 0, actual_time: 116
type=note_on channel=4 note=47 velocity=80 time=0 actual_time=76080
type: note_off, time: 0, actual_time: 76176
type=note_on channel=4 note=47 velocity=0 time=96 actual_time=76176
type=note_on channel=4 note=52 velocity=0 time=0 actual_time=76176
type=note_on channel=4 note=40 velocity=0 time=0 actual_time=76176
type=note_on channel=4 note=47 velocity=80 time=24 actual_time=20
type: note_off, time: 24, actual_time: 68
type=note_on channel=4 note=47 velocity=80 time=0 actual_time=0
type: note_off, time: 0, actual_time: 48
type=note_on channel=4 note=52 velocity=80 time=0 actual_time=40
type: note_off, time: 0, actual_time: 88
type=note_on channel=4 note=52 velocity=0 time=48 actual_time=76248
type=note_on channel=4 note=47 velocity=0 time=0 actual_time=76248
type=note_on channel=4 note=40 velocity=0 time=0 actual_time=76248
type=note_on channel=4 note=47 velocity=80 time=12 actual_time=60
type: note_off, time: 12, actual_time: 108
type=note_on channel=4 note=47 velocity=80 time=0 actual_time=60
type: note_off, time: 0, actual_time: 108
type=note_on channel=4 note=47 velocity=80 time=0 actual_time=60
type: note_off, time: 0, actual_time: 108
type=note_on channel=4 note=47 velocity=0 time=48 actual_time=76308
type=note_on channel=4 note=52 velocity=0 time=0 actual_time=76308
type=note_on channel=4 note=40 velocity=0 time=0 actual_time=76308
type=note_on channel=4 note=42 velocity=80 time=12 actual_time=40
type: note_off, time: 12, actual_time: 136
type=note_on channel=4 note=51 velocity=80 time=0 actual_time=76320
type: note_off, time: 0, actual_time: 76416
type=note_on channel=4 note=47 velocity=80 time=0 actual_time=60
type: note_off, time: 0, actual_time: 156
type=note_on channel=4 note=49 velocity=0 time=96 actual_time=76416
type=note_on channel=4 note=54 velocity=0 time=0 actual_time=76416
type=note_on channel=4 note=42 velocity=0 time=0 actual_time=76416
type=note_on channel=4 note=42 velocity=80 time=24 actual_time=20
type: note_off, time: 24, actual_time: 68
type=note_on channel=4 note=48 velocity=80 time=0 actual_time=60
type: note_off, time: 0, actual_time: 108
type=note_on channel=4 note=47 velocity=80 time=0 actual_time=40
type: note_off, time: 0, actual_time: 88
type=note_on channel=4 note=54 velocity=0 time=48 actual_time=76488
type=note_on channel=4 note=49 velocity=0 time=0 actual_time=76488
type=note_on channel=4 note=42 velocity=0 time=0 actual_time=76488
type=note_on channel=4 note=47 velocity=80 time=12 actual_time=20
type: note_off, time: 12, actual_time: 68
type=note_on channel=4 note=47 velocity=80 time=0 actual_time=40
type: note_off, time: 0, actual_time: 88
type=note_on channel=4 note=44 velocity=80 time=0 actual_time=40
type: note_off, time: 0, actual_time: 88
type=note_on channel=4 note=49 velocity=0 time=48 actual_time=76548
type=note_on channel=4 note=54 velocity=0 time=0 actual_time=76548
type=note_on channel=4 note=42 velocity=0 time=0 actual_time=76548
type=note_on channel=4 note=47 velocity=80 time=12 actual_time=60
type: note_off, time: 12, actual_time: 156
type=note_on channel=4 note=47 velocity=80 time=0 actual_time=40
type: note_off, time: 0, actual_time: 136
type=note_on channel=4 note=47 velocity=80 time=0 actual_time=0
type: note_off, time: 0, actual_time: 96
type=note_on channel=4 note=49 velocity=0 time=96 actual_time=76656
type=note_on channel=4 note=54 velocity=0 time=0 actual_time=76656
type=note_on channel=4 note=42 velocity=0 time=0 actual_time=76656
type=note_on channel=4 note=42 velocity=80 time=24 actual_time=0
type: note_off, time: 24, actual_time: 48
type=note_on channel=4 note=47 velocity=80 time=0 actual_time=60
type: note_off, time: 0, actual_time: 108
type=note_on channel=4 note=54 velocity=80 time=0 actual_time=0
type: note_off, time: 0, actual_time: 48
type=note_on channel=4 note=54 velocity=0 time=48 actual_time=76728
type=note_on channel=4 note=49 velocity=0 time=0 actual_time=76728
type=note_on channel=4 note=42 velocity=0 time=0 actual_time=76728
type=note_on channel=4 note=47 velocity=80 time=12 actual_time=60
type: note_off, time: 12, actual_time: 108
type=note_on channel=4 note=47 velocity=80 time=0 actual_time=40
type: note_off, time: 0, actual_time: 88
type=note_on channel=4 note=49 velocity=80 time=0 actual_time=40
type: note_off, time: 0, actual_time: 88
type=note_on channel=4 note=49 velocity=0 time=48 actual_time=76788
type=note_on channel=4 note=54 velocity=0 time=0 actual_time=76788
type=note_on channel=4 note=42 velocity=0 time=0 actual_time=76788
type=note_on channel=4 note=47 velocity=80 time=12 actual_time=40
type: note_off, time: 12, actual_time: 136
type=note_on channel=4 note=47 velocity=80 time=0 actual_time=0
type: note_off, time: 0, actual_time: 96
type=note_on channel=4 note=47 velocity=80 time=0 actual_time=76800
type: note_off, time: 0, actual_time: 76896
type=note_on channel=4 note=47 velocity=0 time=96 actual_time=76896
type=note_on channel=4 note=59 velocity=0 time=0 actual_time=76896
type=note_on channel=4 note=54 velocity=0 time=0 actual_time=76896
type=note_on channel=4 note=47 velocity=80 time=24 actual_time=40
type: note_off, time: 24, actual_time: 88
type=note_on channel=4 note=47 velocity=80 time=0 actual_time=40
type: note_off, time: 0, actual_time: 88
type=note_on channel=4 note=47 velocity=0 time=48 actual_time=76968
type=note_on channel=4 note=54 velocity=0 time=0 actual_time=76968
type=note_on channel=4 note=47 velocity=80 time=12 actual_time=40
type: note_off, time: 12, actual_time: 88
type=note_on channel=4 note=47 velocity=80 time=0 actual_time=20
type: note_off, time: 0, actual_time: 68
type=note_on channel=4 note=47 velocity=0 time=48 actual_time=77028
type=note_on channel=4 note=54 velocity=0 time=0 actual_time=77028
type=note_on channel=4 note=47 velocity=80 time=12 actual_time=40
type: note_off, time: 12, actual_time: 136
type=note_on channel=4 note=47 velocity=80 time=0 actual_time=60
type: note_off, time: 0, actual_time: 156
type=note_on channel=4 note=47 velocity=80 time=0 actual_time=77040
type: note_off, time: 0, actual_time: 77136
type=note_on channel=4 note=54 velocity=0 time=96 actual_time=77136
type=note_on channel=4 note=59 velocity=0 time=0 actual_time=77136
type=note_on channel=4 note=47 velocity=0 time=0 actual_time=77136
type=note_on channel=4 note=47 velocity=80 time=24 actual_time=0
type: note_off, time: 24, actual_time: 48
type=note_on channel=4 note=47 velocity=80 time=0 actual_time=0
type: note_off, time: 0, actual_time: 48
type=note_on channel=4 note=54 velocity=0 time=48 actual_time=77208
type=note_on channel=4 note=47 velocity=0 time=0 actual_time=77208
type=note_on channel=4 note=47 velocity=80 time=12 actual_time=20
type: note_off, time: 12, actual_time: 68
type=note_on channel=4 note=54 velocity=80 time=0 actual_time=77220
type: note_off, time: 0, actual_time: 77268
type=note_on channel=4 note=54 velocity=0 time=48 actual_time=77268
type=note_on channel=4 note=47 velocity=0 time=0 actual_time=77268
type=note_on channel=4 note=47 velocity=80 time=12 actual_time=0
type: note_off, time: 12, actual_time: 96
type=note_on channel=4 note=61 velocity=80 time=0 actual_time=40
type: note_off, time: 0, actual_time: 136
type=note_on channel=4 note=47 velocity=80 time=0 actual_time=60
type: note_off, time: 0, actual_time: 156
type=note_on channel=4 note=54 velocity=0 time=96 actual_time=77376
type=note_on channel=4 note=59 velocity=0 time=0 actual_time=77376
type=note_on channel=4 note=47 velocity=0 time=0 actual_time=77376
type=note_on channel=4 note=47 velocity=80 time=24 actual_time=20
type: note_off, time: 24, actual_time: 68
type=note_on channel=4 note=54 velocity=80 time=0 actual_time=40
type: note_off, time: 0, actual_time: 88
type=note_on channel=4 note=54 velocity=0 time=48 actual_time=77448
type=note_on channel=4 note=47 velocity=0 time=0 actual_time=77448
type=note_on channel=4 note=47 velocity=80 time=12 actual_time=60
type: note_off, time: 12, actual_time: 108
type=note_on channel=4 note=47 velocity=80 time=0 actual_time=60
type: note_off, time: 0, actual_time: 108
type=note_on channel=4 note=54 velocity=0 time=48 actual_time=77508
type=note_on channel=4 note=47 velocity=0 time=0 actual_time=77508
type=note_on channel=4 note=47 velocity=80 time=12 actual_time=0
type: note_off, time: 12, actual_time: 96
type=note_on channel=4 note=47 velocity=80 time=0 actual_time=60
type: note_off, time: 0, actual_time: 156
type=note_on channel=4 note=47 velocity=80 time=0 actual_time=60
type: note_off, time: 0, actual_time: 156
type=note_on channel=4 note=54 velocity=0 time=96 actual_time=77616
type=note_on channel=4 note=59 velocity=0 time=0 actual_time=77616
type=note_on channel=4 note=47 velocity=0 time=0 actual_time=77616
type=note_on channel=4 note=47 velocity=80 time=24 actual_time=40
type: note_off, time: 24, actual_time: 88
type=note_on channel=4 note=47 velocity=80 time=0 actual_time=20
type: note_off, time: 0, actual_time: 68
type=note_on channel=4 note=54 velocity=0 time=48 actual_time=77688
type=note_on channel=4 note=47 velocity=0 time=0 actual_time=77688
type=note_on channel=4 note=47 velocity=80 time=12 actual_time=60
type: note_off, time: 12, actual_time: 108
type=note_on channel=4 note=47 velocity=80 time=0 actual_time=60
type: note_off, time: 0, actual_time: 108
type=note_on channel=4 note=54 velocity=0 time=48 actual_time=77748
type=note_on channel=4 note=47 velocity=0 time=0 actual_time=77748
type=note_on channel=4 note=48 velocity=80 time=12 actual_time=0
type: note_off, time: 12, actual_time: 96
type=note_on channel=4 note=47 velocity=80 time=0 actual_time=60
type: note_off, time: 0, actual_time: 156
type=note_on channel=4 note=50 velocity=80 time=0 actual_time=77760
type: note_off, time: 0, actual_time: 77856
type=note_on channel=4 note=50 velocity=0 time=96 actual_time=77856
type=note_on channel=4 note=55 velocity=0 time=0 actual_time=77856
type=note_on channel=4 note=43 velocity=0 time=0 actual_time=77856
type=note_on channel=4 note=42 velocity=80 time=24 actual_time=60
type: note_off, time: 24, actual_time: 108
type=note_on channel=4 note=47 velocity=80 time=0 actual_time=77880
type: note_off, time: 0, actual_time: 77928
type=note_on channel=4 note=50 velocity=0 time=48 actual_time=77928
type=note_on channel=4 note=43 velocity=0 time=0 actual_time=77928
type=note_on channel=4 note=47 velocity=80 time=12 actual_time=0
type: note_off, time: 12, actual_time: 48
type=note_on channel=4 note=47 velocity=80 time=0 actual_time=0
type: note_off, time: 0, actual_time: 48
type=note_on channel=4 note=50 velocity=0 time=48 actual_time=77988
type=note_on channel=4 note=43 velocity=0 time=0 actual_time=77988
type=note_on channel=4 note=47 velocity=80 time=12 actual_time=20
type: note_off, time: 12, actual_time: 116
type=note_on channel=4 note=47 velocity=80 time=0 actual_time=78000
type: note_off, time: 0, actual_time: 78096
type=note_on channel=4 note=47 velocity=80 time=0 actual_time=0
type: note_off, time: 0, actual_time: 96
type=note_on channel=4 note=50 velocity=0 time=96 actual_time=78096
type=note_on channel=4 note=55 velocity=0 time=0 actual_time=78096
type=note_on channel=4 note=43 velocity=0 time=0 actual_time=78096
type=note_on channel=4 note=43 velocity=80 time=24 actual_time=60
type: note_off, time: 24, actual_time: 108
type=note_on channel=4 note=50 velocity=80 time=0 actual_time=78120
type: note_off, time: 0, actual_time: 78168
type=note_on channel=4 note=50 velocity=0 time=48 actual_time=78168
type=note_on channel=4 note=43 velocity=0 time=0 actual_time=78168
type=note_on channel=4 note=47 velocity=80 time=12 actual_time=0
type: note_off, time: 12, actual_time: 48
type=note_on channel=4 note=47 velocity=80 time=0 actual_time=20
type: note_off, time: 0, actual_time: 68
type=note_on channel=4 note=50 velocity=0 time=48 actual_time=78228
type=note_on channel=4 note=43 velocity=0 time=0 actual_time=78228
type=note_on channel=4 note=47 velocity=80 time=12 actual_time=60
type: note_off, time: 12, actual_time: 156
type=note_on channel=4 note=57 velocity=80 time=0 actual_time=60
type: note_off, time: 0, actual_time: 156
type=note_on channel=4 note=47 velocity=80 time=0 actual_time=60
type: note_off, time: 0, actual_time: 156
type=note_on channel=4 note=52 velocity=0 time=96 actual_time=78336
type=note_on channel=4 note=57 velocity=0 time=0 actual_time=78336
type=note_on channel=4 note=45 velocity=0 time=0 actual_time=78336
type=note_on channel=4 note=44 velocity=80 time=24 actual_time=78360
type: note_off, time: 24, actual_time: 78408
type=note_on channel=4 note=47 velocity=80 time=0 actual_time=0
type: note_off, time: 0, actual_time: 48
type=note_on channel=4 note=52 velocity=0 time=48 actual_time=78408
type=note_on channel=4 note=45 velocity=0 time=0 actual_time=78408
type=note_on channel=4 note=47 velocity=80 time=12 actual_time=78420
type: note_off, time: 12, actual_time: 78468
type=note_on channel=4 note=47 velocity=80 time=0 actual_time=78420
type: note_off, time: 0, actual_time: 78468
type=note_on channel=4 note=52 velocity=0 time=48 actual_time=78468
type=note_on channel=4 note=45 velocity=0 time=0 actual_time=78468
type=note_on channel=4 note=47 velocity=80 time=12 actual_time=60
type: note_off, time: 12, actual_time: 156
type=note_on channel=4 note=47 velocity=80 time=0 actual_time=40
type: note_off, time: 0, actual_time: 136
type=note_on channel=4 note=47 velocity=80 time=0 actual_time=78480
type: note_off, time: 0, actual_time: 78576
type=note_on channel=4 note=52 velocity=0 time=96 actual_time=78576
type=note_on channel=4 note=57 velocity=0 time=0 actual_time=78576
type=note_on channel=4 note=45 velocity=0 time=0 actual_time=78576
type=note_on channel=4 note=47 velocity=80 time=24 actual_time=40
type: note_off, time: 24, actual_time: 88
type=note_on channel=4 note=47 velocity=80 time=0 actual_time=78600
type: note_off, time: 0, actual_time: 78648
type=note_on channel=4 note=52 velocity=0 time=48 actual_time=78648
type=note_on channel=4 note=45 velocity=0 time=0 actual_time=78648
type=note_on channel=4 note=47 velocity=80 time=12 actual_time=0
type: note_off, time: 12, actual_time: 48
type=note_on channel=4 note=47 velocity=80 time=0 actual_time=78660
type: note_off, time: 0, actual_time: 78708
type=note_on channel=4 note=52 velocity=0 time=48 actual_time=78708
type=note_on channel=4 note=45 velocity=0 time=0 actual_time=78708
type=note_on channel=4 note=57 velocity=80 time=12 actual_time=60
type: note_off, time: 12, actual_time: 156
type=note_on channel=4 note=47 velocity=80 time=0 actual_time=78720
type: note_off, time: 0, actual_time: 78816
type=note_on channel=4 note=47 velocity=80 time=0 actual_time=40
type: note_off, time: 0, actual_time: 136
type=note_on channel=4 note=47 velocity=0 time=96 actual_time=78816
type=note_on channel=4 note=59 velocity=0 time=0 actual_time=78816
type=note_on channel=4 note=54 velocity=0 time=0 actual_time=78816
type=note_on channel=4 note=47 velocity=80 time=24 actual_time=40
type: note_off, time: 24, actual_time: 88
type=note_on channel=4 note=47 velocity=80 time=0 actual_time=20
type: note_off, time: 0, actual_time: 68
type=note_on channel=4 note=47 velocity=0 time=48 actual_time=78888
type=note_on channel=4 note=54 velocity=0 time=0 actual_time=78888
type=note_on channel=4 note=47 velocity=80 time=12 actual_time=20
type: note_off, time: 12, actual_time: 68
type=note_on channel=4 note=47 velocity=80 time=0 actual_time=20
type: note_off, time: 0, actual_time: 68
type=note_on channel=4 note=47 velocity=0 time=48 actual_time=78948
type=note_on channel=4 note=54 velocity=0 time=0 actual_time=78948
type=note_on channel=4 note=47 velocity=80 time=12 actual_time=40
type: note_off, time: 12, actual_time: 136
type=note_on channel=4 note=47 velocity=80 time=0 actual_time=40
type: note_off, time: 0, actual_time: 136
type=note_on channel=4 note=47 velocity=80 time=0 actual_time=20
type: note_off, time: 0, actual_time: 116
type=note_on channel=4 note=54 velocity=0 time=96 actual_time=79056
type=note_on channel=4 note=59 velocity=0 time=0 actual_time=79056
type=note_on channel=4 note=47 velocity=0 time=0 actual_time=79056
type=note_on channel=4 note=47 velocity=80 time=24 actual_time=0
type: note_off, time: 24, actual_time: 48
type=note_on channel=4 note=54 velocity=80 time=0 actual_time=79080
type: note_off, time: 0, actual_time: 79128
type=note_on channel=4 note=54 velocity=0 time=48 actual_time=79128
type=note_on channel=4 note=47 velocity=0 time=0 actual_time=79128
type=note_on channel=4 note=47 velocity=80 time=12 actual_time=0
type: note_off, time: 12, actual_time: 48
type=note_on channel=4 note=54 velocity=80 time=0 actual_time=79140
type: note_off, time: 0, actual_time: 79188
type=note_on channel=4 note=54 velocity=0 time=48 actual_time=79188
type=note_on channel=4 note=47 velocity=0 time=0 actual_time=79188
type=note_on channel=4 note=47 velocity=80 time=12 actual_time=40
type: note_off, time: 12, actual_time: 136
type=note_on channel=4 note=47 velocity=80 time=0 actual_time=40
type: note_off, time: 0, actual_time: 136
type=note_on channel=4 note=47 velocity=80 time=0 actual_time=40
type: note_off, time: 0, actual_time: 136
type=note_on channel=4 note=54 velocity=0 time=96 actual_time=79296
type=note_on channel=4 note=59 velocity=0 time=0 actual_time=79296
type=note_on channel=4 note=47 velocity=0 time=0 actual_time=79296
type=note_on channel=4 note=47 velocity=80 time=24 actual_time=20
type: note_off, time: 24, actual_time: 68
type=note_on channel=4 note=54 velocity=80 time=0 actual_time=0
type: note_off, time: 0, actual_time: 48
type=note_on channel=4 note=54 velocity=0 time=48 actual_time=79368
type=note_on channel=4 note=47 velocity=0 time=0 actual_time=79368
type=note_on channel=4 note=45 velocity=80 time=12 actual_time=40
type: note_off, time: 12, actual_time: 88
type=note_on channel=4 note=47 velocity=80 time=0 actual_time=60
type: note_off, time: 0, actual_time: 108
type=note_on channel=4 note=54 velocity=0 time=48 actual_time=79428
type=note_on channel=4 note=47 velocity=0 time=0 actual_time=79428
type=note_on channel=4 note=47 velocity=80 time=12 actual_time=0
type: note_off, time: 12, actual_time: 96
type=note_on channel=4 note=47 velocity=80 time=0 actual_time=79440
type: note_off, time: 0, actual_time: 79536
type=note_on channel=4 note=47 velocity=80 time=0 actual_time=0
type: note_off, time: 0, actual_time: 96
type=note_on channel=4 note=54 velocity=0 time=96 actual_time=79536
type=note_on channel=4 note=59 velocity=0 time=0 actual_time=79536
type=note_on channel=4 note=47 velocity=0 time=0 actual_time=79536
type=note_on channel=4 note=47 velocity=80 time=24 actual_time=40
type: note_off, time: 24, actual_time: 88
type=note_on channel=4 note=54 velocity=80 time=0 actual_time=60
type: note_off, time: 0, actual_time: 108
type=note_on channel=4 note=54 velocity=0 time=48 actual_time=79608
type=note_on channel=4 note=47 velocity=0 time=0 actual_time=79608
type=note_on channel=4 note=47 velocity=80 time=12 actual_time=20
type: note_off, time: 12, actual_time: 68
type=note_on channel=4 note=47 velocity=80 time=0 actual_time=60
type: note_off, time: 0, actual_time: 108
type=note_on channel=4 note=54 velocity=0 time=48 actual_time=79668
type=note_on channel=4 note=47 velocity=0 time=0 actual_time=79668
type=note_on channel=4 note=49 velocity=80 time=12 actual_time=20
type: note_off, time: 12, actual_time: 116
type=note_on channel=4 note=47 velocity=80 time=0 actual_time=60
type: note_off, time: 0, actual_time: 156
type=note_on channel=4 note=40 velocity=80 time=0 actual_time=40
type: note_off, time: 0, actual_time: 136
type=note_on channel=4 note=40 velocity=0 time=96 actual_time=79776
type=note_on channel=4 note=52 velocity=0 time=0 actual_time=79776
type=note_on channel=4 note=47 velocity=0 time=0 actual_time=79776
type=note_on channel=4 note=47 velocity=80 time=24 actual_time=60
type: note_off, time: 24, actual_time: 156
type=note_on channel=4 note=39 velocity=80 time=0 actual_time=60
type: note_off, time: 0, actual_time: 156
type=note_on channel=4 note=52 velocity=80 time=0 actual_time=0
type: note_off, time: 0, actual_time: 96
type=note_on channel=4 note=52 velocity=0 time=96 actual_time=79896
type=note_on channel=4 note=40 velocity=0 time=0 actual_time=79896
type=note_on channel=4 note=47 velocity=0 time=0 actual_time=79896
type=note_on channel=4 note=47 velocity=80 time=24 actual_time=40
type: note_off, time: 24, actual_time: 136
type=note_on channel=4 note=56 velocity=80 time=0 actual_time=40
type: note_off, time: 0, actual_time: 136
type=note_on channel=4 note=47 velocity=80 time=0 actual_time=20
type: note_off, time: 0, actual_time: 116
type=note_on channel=4 note=47 velocity=0 time=96 actual_time=80016
type=note_on channel=4 note=52 velocity=0 time=0 actual_time=80016
type=note_on channel=4 note=40 velocity=0 time=0 actual_time=80016
type=note_on channel=4 note=47 velocity=80 time=24 actual_time=0
type: note_off, time: 24, actual_time: 96
type=note_on channel=4 note=47 velocity=80 time=0 actual_time=20
type: note_off, time: 0, actual_time: 116
type=note_on channel=4 note=35 velocity=80 time=0 actual_time=20
type: note_off, time: 0, actual_time: 116
type=note_on channel=4 note=40 velocity=0 time=96 actual_time=80136
type=note_on channel=4 note=47 velocity=0 time=0 actual_time=80136
type=note_on channel=4 note=52 velocity=0 time=0 actual_time=80136
type=note_on channel=4 note=47 velocity=80 time=24 actual_time=80160
type: note_off, time: 24, actual_time: 80256
type=note_on channel=4 note=47 velocity=80 time=0 actual_time=80160
type: note_off, time: 0, actual_time: 80256
type=note_on channel=4 note=42 velocity=80 time=0 actual_time=40
type: note_off, time: 0, actual_time: 136
type=note_on channel=4 note=42 velocity=0 time=96 actual_time=80256
type=note_on channel=4 note=54 velocity=0 time=0 actual_time=80256
type=note_on channel=4 note=49 velocity=0 time=0 actual_time=80256
type=note_on channel=4 note=47 velocity=80 time=24 actual_time=40
type: note_off, time: 24, actual_time: 136
type=note_on channel=4 note=42 velocity=80 time=0 actual_time=20
type: note_off, time: 0, actual_time: 116
type=note_on channel=4 note=56 velocity=80 time=0 actual_time=20
type: note_off, time: 0, actual_time: 116
type=note_on channel=4 note=54 velocity=0 time=96 actual_time=80376
type=note_on channel=4 note=42 velocity=0 time=0 actual_time=80376
type=note_on channel=4 note=49 velocity=0 time=0 actual_time=80376
type=note_on channel=4 note=47 velocity=80 time=24 actual_time=0
type: note_off, time: 24, actual_time: 96
type=note_on channel=4 note=47 velocity=80 time=0 actual_time=40
type: note_off, time: 0, actual_time: 136
type=note_on channel=4 note=47 velocity=80 time=0 actual_time=80400
type: note_off, time: 0, actual_time: 80496
type=note_on channel=4 note=49 velocity=0 time=96 actual_time=80496
type=note_on channel=4 note=54 velocity=0 time=0 actual_time=80496
type=note_on channel=4 note=42 velocity=0 time=0 actual_time=80496
type=note_on channel=4 note=47 velocity=80 time=24 actual_time=60
type: note_off, time: 24, actual_time: 156
type=note_on channel=4 note=47 velocity=80 time=0 actual_time=60
type: note_off, time: 0, actual_time: 156
type=note_on channel=4 note=47 velocity=80 time=0 actual_time=60
type: note_off, time: 0, actual_time: 156
type=note_on channel=4 note=42 velocity=0 time=96 actual_time=80616
type=note_on channel=4 note=49 velocity=0 time=0 actual_time=80616
type=note_on channel=4 note=54 velocity=0 time=0 actual_time=80616
type=note_on channel=4 note=47 velocity=80 time=24 actual_time=60
type: note_off, time: 24, actual_time: 996
type=note_on channel=4 note=47 velocity=80 time=0 actual_time=80640
type: note_off, time: 0, actual_time: 81576
type=note_on channel=4 note=54 velocity=80 time=0 actual_time=40
type: note_off, time: 0, actual_time: 976
type=note_on channel=4 note=54 velocity=0 time=936 actual_time=81576
type=note_on channel=4 note=59 velocity=0 time=0 actual_time=81576
type=note_on channel=4 note=47 velocity=0 time=0 actual_time=81576
type=note_on channel=4 note=47 velocity=80 time=24 actual_time=20
type: note_off, time: 24, actual_time: 428
type=note_on channel=4 note=47 velocity=80 time=0 actual_time=81600
type: note_off, time: 0, actual_time: 82008
type=note_on channel=4 note=47 velocity=80 time=0 actual_time=20
type: note_off, time: 0, actual_time: 428
type=note_on channel=4 note=43 velocity=0 time=408 actual_time=82008
type=note_on channel=4 note=50 velocity=0 time=0 actual_time=82008
type=note_on channel=4 note=55 velocity=0 time=0 actual_time=82008
type=note_on channel=4 note=47 velocity=80 time=12 actual_time=20
type: note_off, time: 12, actual_time: 68
type=note_on channel=4 note=47 velocity=80 time=0 actual_time=20
type: note_off, time: 0, actual_time: 68
type=note_on channel=4 note=50 velocity=0 time=48 actual_time=82068
type=note_on channel=4 note=43 velocity=0 time=0 actual_time=82068
type=note_on channel=4 note=47 velocity=80 time=12 actual_time=0
type: note_off, time: 12, actual_time: 408
type=note_on channel=4 note=47 velocity=80 time=0 actual_time=82080
type: note_off, time: 0, actual_time: 82488
type=note_on channel=4 note=45 velocity=80 time=0 actual_time=40
type: note_off, time: 0, actual_time: 448
type=note_on channel=4 note=45 velocity=0 time=408 actual_time=82488
type=note_on channel=4 note=52 velocity=0 time=0 actual_time=82488
type=note_on channel=4 note=57 velocity=0 time=0 actual_time=82488
type=note_on channel=4 note=47 velocity=80 time=12 actual_time=40
type: note_off, time: 12, actual_time: 88
type=note_on channel=4 note=47 velocity=80 time=0 actual_time=20
type: note_off, time: 0, actual_time: 68
type=note_on channel=4 note=45 velocity=0 time=48 actual_time=82548
type=note_on channel=4 note=52 velocity=0 time=0 actual_time=82548
type=note_on channel=4 note=54 velocity=80 time=12 actual_time=0
type: note_off, time: 12, actual_time: 936
type=note_on channel=4 note=47 velocity=80 time=0 actual_time=0
type: note_off, time: 0, actual_time: 936
type=note_on channel=4 note=47 velocity=80 time=0 actual_time=40
type: note_off, time: 0, actual_time: 976
type=note_on channel=4 note=47 velocity=0 time=936 actual_time=83496
type=note_on channel=4 note=59 velocity=0 time=0 actual_time=83496
type=note_on channel=4 note=54 velocity=0 time=0 actual_time=83496
type=note_on channel=4 note=44 velocity=80 time=24 actual_time=60
type: note_off, time: 24, actual_time: 468
type=note_on channel=4 note=50 velocity=80 time=0 actual_time=83520
type: note_off, time: 0, actual_time: 83928
type=note_on channel=4 note=47 velocity=80 time=0 actual_time=40
type: note_off, time: 0, actual_time: 448
type=note_on channel=4 note=55 velocity=0 time=408 actual_time=83928
type=note_on channel=4 note=50 velocity=0 time=0 actual_time=83928
type=note_on channel=4 note=43 velocity=0 time=0 actual_time=83928
type=note_on channel=4 note=47 velocity=80 time=12 actual_time=83940
type: note_off, time: 12, actual_time: 83988
type=note_on channel=4 note=50 velocity=80 time=0 actual_time=40
type: note_off, time: 0, actual_time: 88
type=note_on channel=4 note=50 velocity=0 time=48 actual_time=83988
type=note_on channel=4 note=43 velocity=0 time=0 actual_time=83988
type=note_on channel=4 note=45 velocity=80 time=12 actual_time=20
type: note_off, time: 12, actual_time: 428
type=note_on channel=4 note=47 velocity=80 time=0 actual_time=84000
type: note_off, time: 0, actual_time: 84408
type=note_on channel=4 note=47 velocity=80 time=0 actual_time=0
type: note_off, time: 0, actual_time: 408
type=note_on channel=4 note=57 velocity=0 time=408 actual_time=84408
type=note_on channel=4 note=52 velocity=0 time=0 actual_time=84408
type=note_on channel=4 note=45 velocity=0 time=0 actual_time=84408
type=note_on channel=4 note=47 velocity=80 time=12 actual_time=40
type: note_off, time: 12, actual_time: 88
type=note_on channel=4 note=47 velocity=80 time=0 actual_time=20
type: note_off, time: 0, actual_time: 68
type=note_on channel=4 note=52 velocity=0 time=48 actual_time=84468
type=note_on channel=4 note=45 velocity=0 time=0 actual_time=84468
type=note_on channel=4 note=47 velocity=80 time=12 actual_time=84480
type: note_off, time: 12, actual_time: 85416
type=note_on channel=4 note=47 velocity=80 time=0 actual_time=0
type: note_off, time: 0, actual_time: 936
type=note_on channel=4 note=47 velocity=80 time=0 actual_time=40
type: note_off, time: 0, actual_time: 976
type=note_on channel=4 note=47 velocity=0 time=936 actual_time=85416
type=note_on channel=4 note=59 velocity=0 time=0 actual_time=85416
type=note_on channel=4 note=54 velocity=0 time=0 actual_time=85416
type=note_on channel=4 note=47 velocity=80 time=24 actual_time=85440
type: note_off, time: 24, actual_time: 85848
type=note_on channel=4 note=47 velocity=80 time=0 actual_time=0
type: note_off, time: 0, actual_time: 408
type=note_on channel=4 note=55 velocity=80 time=0 actual_time=40
type: note_off, time: 0, actual_time: 448
type=note_on channel=4 note=55 velocity=0 time=408 actual_time=85848
type=note_on channel=4 note=50 velocity=0 time=0 actual_time=85848
type=note_on channel=4 note=43 velocity=0 time=0 actual_time=85848
type=note_on channel=4 note=47 velocity=80 time=12 actual_time=0
type: note_off, time: 12, actual_time: 48
type=note_on channel=4 note=47 velocity=80 time=0 actual_time=0
type: note_off, time: 0, actual_time: 48
type=note_on channel=4 note=50 velocity=0 time=48 actual_time=85908
type=note_on channel=4 note=43 velocity=0 time=0 actual_time=85908
type=note_on channel=4 note=47 velocity=80 time=12 actual_time=20
type: note_off, time: 12, actual_time: 428
type=note_on channel=4 note=47 velocity=80 time=0 actual_time=0
type: note_off, time: 0, actual_time: 408
type=note_on channel=4 note=47 velocity=80 time=0 actual_time=60
type: note_off, time: 0, actual_time: 468
type=note_on channel=4 note=57 velocity=0 time=408 actual_time=86328
type=note_on channel=4 note=52 velocity=0 time=0 actual_time=86328
type=note_on channel=4 note=45 velocity=0 time=0 actual_time=86328
type=note_on channel=4 note=47 velocity=80 time=12 actual_time=60
type: note_off, time: 12, actual_time: 108
type=note_on channel=4 note=47 velocity=80 time=0 actual_time=0
type: note_off, time: 0, actual_time: 48
type=note_on channel=4 note=52 velocity=0 time=48 actual_time=86388
type=note_on channel=4 note=45 velocity=0 time=0 actual_time=86388
type=note_on channel=4 note=52 velocity=80 time=12 actual_time=0
type: note_off, time: 12, actual_time: 936
type=note_on channel=4 note=47 velocity=80 time=0 actual_time=0
type: note_off, time: 0, actual_time: 936
type=note_on channel=4 note=47 velocity=80 time=0 actual_time=60
type: note_off, time: 0, actual_time: 996
type=note_on channel=4 note=54 velocity=0 time=936 actual_time=87336
type=note_on channel=4 note=59 velocity=0 time=0 actual_time=87336
type=note_on channel=4 note=47 velocity=0 time=0 actual_time=87336
type=note_on channel=4 note=47 velocity=80 time=24 actual_time=40
type: note_off, time: 24, actual_time: 448
type=note_on channel=4 note=51 velocity=80 time=0 actual_time=87360
type: note_off, time: 0, actual_time: 87768
type=note_on channel=4 note=47 velocity=80 time=0 actual_time=60
type: note_off, time: 0, actual_time: 468
type=note_on channel=4 note=43 velocity=0 time=408 actual_time=87768
type=note_on channel=4 note=50 velocity=0 time=0 actual_time=87768
type=note_on channel=4 note=55 velocity=0 time=0 actual_time=87768
type=note_on channel=4 note=47 velocity=80 time=12 actual_time=87780
type: note_off, time: 12, actual_time: 87828
type=note_on channel=4 note=47 velocity=80 time=0 actual_time=0
type: note_off, time: 0, actual_time: 48
type=note_on channel=4 note=43 velocity=0 time=48 actual_time=87828
type=note_on channel=4 note=50 velocity=0 time=0 actual_time=87828
type=note_on channel=4 note=47 velocity=80 time=12 actual_time=40
type: note_off, time: 12, actual_time: 508
type=note_on channel=4 note=47 velocity=80 time=0 actual_time=60
type: note_off, time: 0, actual_time: 528
type=note_on channel=4 note=47 velocity=80 time=0 actual_time=60
type: note_off, time: 0, actual_time: 528
type=note_on channel=4 note=45 velocity=0 time=468 actual_time=88308
type=note_on channel=4 note=52 velocity=0 time=0 actual_time=88308
type=note_on channel=4 note=57 velocity=0 time=0 actual_time=88308
type=note_on channel=4 note=47 velocity=80 time=12 actual_time=20
type: note_off, time: 12, actual_time: 3668
type=note_on channel=4 note=55 velocity=80 time=0 actual_time=0
type: note_off, time: 0, actual_time: 3648
type=note_on channel=4 note=47 velocity=80 time=0 actual_time=40
type: note_off, time: 0, actual_time: 3688
type=note_on channel=4 note=47 velocity=0 time=3648 actual_time=91968
type=note_on channel=4 note=54 velocity=0 time=0 actual_time=91968
type=note_on channel=4 note=59 velocity=0 time=0 actual_time=91968
MetaMessage type: end_of_track, time: 0, actual_time: 91968
MetaMessage type: track_name, time: 0, actual_time: 0
type: program_change, time: 0, actual_time: 0
type=control_change channel=5 control=7 value=114 time=0 actual_time=0
type=note_on channel=5 note=47 velocity=80 time=15360 actual_time=15360
type: note_off, time: 15360, actual_time: 19008
type=note_on channel=5 note=47 velocity=80 time=0 actual_time=4
type: note_off, time: 0, actual_time: 3652
type=note_on channel=5 note=47 velocity=80 time=0 actual_time=12
type: note_off, time: 0, actual_time: 3660
type=note_on channel=5 note=59 velocity=0 time=3648 actual_time=19008
type=note_on channel=5 note=54 velocity=0 time=0 actual_time=19008
type=note_on channel=5 note=47 velocity=0 time=0 actual_time=19008
type=note_on channel=5 note=47 velocity=80 time=7392 actual_time=12
type: note_off, time: 7392, actual_time: 44
type=note_on channel=5 note=56 velocity=80 time=0 actual_time=4
type: note_off, time: 0, actual_time: 36
type=note_on channel=5 note=52 velocity=0 time=32 actual_time=26432
type=note_on channel=5 note=45 velocity=0 time=0 actual_time=26432
type=note_on channel=5 note=45 velocity=80 time=8 actual_time=12
type: note_off, time: 8, actual_time: 44
type=note_on channel=5 note=47 velocity=80 time=0 actual_time=12
type: note_off, time: 0, actual_time: 44
type=note_on channel=5 note=52 velocity=0 time=32 actual_time=26472
type=note_on channel=5 note=45 velocity=0 time=0 actual_time=26472
type=note_on channel=5 note=47 velocity=80 time=8 actual_time=26480
type: note_off, time: 8, actual_time: 26512
type=note_on channel=5 note=47 velocity=80 time=0 actual_time=26480
type: note_off, time: 0, actual_time: 26512
type=note_on channel=5 note=45 velocity=0 time=32 actual_time=26512
type=note_on channel=5 note=52 velocity=0 time=0 actual_time=26512
type=note_on channel=5 note=45 velocity=80 time=8 actual_time=4
type: note_off, time: 8, actual_time: 36
type=note_on channel=5 note=48 velocity=80 time=0 actual_time=4
type: note_off, time: 0, actual_time: 36
type=note_on channel=5 note=52 velocity=0 time=32 actual_time=26552
type=note_on channel=5 note=45 velocity=0 time=0 actual_time=26552
type=note_on channel=5 note=45 velocity=80 time=8 actual_time=26560
type: note_off, time: 8, actual_time: 26592
type=note_on channel=5 note=47 velocity=80 time=0 actual_time=4
type: note_off, time: 0, actual_time: 36
type=note_on channel=5 note=52 velocity=0 time=32 actual_time=26592
type=note_on channel=5 note=45 velocity=0 time=0 actual_time=26592
type=note_on channel=5 note=47 velocity=80 time=8 actual_time=4
type: note_off, time: 8, actual_time: 36
type=note_on channel=5 note=47 velocity=80 time=0 actual_time=0
type: note_off, time: 0, actual_time: 32
type=note_on channel=5 note=52 velocity=0 time=32 actual_time=26632
type=note_on channel=5 note=45 velocity=0 time=0 actual_time=26632
type=note_on channel=5 note=47 velocity=80 time=8 actual_time=8
type: note_off, time: 8, actual_time: 40
type=note_on channel=5 note=47 velocity=80 time=0 actual_time=26640
type: note_off, time: 0, actual_time: 26672
type=note_on channel=5 note=52 velocity=0 time=32 actual_time=26672
type=note_on channel=5 note=45 velocity=0 time=0 actual_time=26672
type=note_on channel=5 note=47 velocity=80 time=8 actual_time=26680
type: note_off, time: 8, actual_time: 26712
type=note_on channel=5 note=52 velocity=80 time=0 actual_time=0
type: note_off, time: 0, actual_time: 32
type=note_on channel=5 note=52 velocity=0 time=32 actual_time=26712
type=note_on channel=5 note=45 velocity=0 time=0 actual_time=26712
type=note_on channel=5 note=47 velocity=80 time=8 actual_time=4
type: note_off, time: 8, actual_time: 36
type=note_on channel=5 note=52 velocity=80 time=0 actual_time=12
type: note_off, time: 0, actual_time: 44
type=note_on channel=5 note=52 velocity=0 time=32 actual_time=26752
type=note_on channel=5 note=45 velocity=0 time=0 actual_time=26752
type=note_on channel=5 note=47 velocity=80 time=8 actual_time=8
type: note_off, time: 8, actual_time: 40
type=note_on channel=5 note=47 velocity=80 time=0 actual_time=4
type: note_off, time: 0, actual_time: 36
type=note_on channel=5 note=52 velocity=0 time=32 actual_time=26792
type=note_on channel=5 note=45 velocity=0 time=0 actual_time=26792
type=note_on channel=5 note=52 velocity=80 time=8 actual_time=8
type: note_off, time: 8, actual_time: 40
type=note_on channel=5 note=47 velocity=80 time=0 actual_time=12
type: note_off, time: 0, actual_time: 44
type=note_on channel=5 note=45 velocity=0 time=32 actual_time=26832
type=note_on channel=5 note=52 velocity=0 time=0 actual_time=26832
type=note_on channel=5 note=47 velocity=80 time=8 actual_time=0
type: note_off, time: 8, actual_time: 32
type=note_on channel=5 note=47 velocity=80 time=0 actual_time=26840
type: note_off, time: 0, actual_time: 26872
type=note_on channel=5 note=45 velocity=0 time=32 actual_time=26872
type=note_on channel=5 note=52 velocity=0 time=0 actual_time=26872
type=note_on channel=5 note=58 velocity=80 time=8 actual_time=12
type: note_off, time: 8, actual_time: 108
type=note_on channel=5 note=55 velocity=80 time=0 actual_time=12
type: note_off, time: 0, actual_time: 108
type=note_on channel=5 note=47 velocity=80 time=0 actual_time=0
type: note_off, time: 0, actual_time: 96
type=note_on channel=5 note=47 velocity=0 time=96 actual_time=26976
type=note_on channel=5 note=59 velocity=0 time=0 actual_time=26976
type=note_on channel=5 note=54 velocity=0 time=0 actual_time=26976
type=note_on channel=5 note=54 velocity=80 time=24 actual_time=8
type: note_off, time: 24, actual_time: 56
type=note_on channel=5 note=47 velocity=80 time=0 actual_time=8
type: note_off, time: 0, actual_time: 56
type=note_on channel=5 note=47 velocity=0 time=48 actual_time=27048
type=note_on channel=5 note=54 velocity=0 time=0 actual_time=27048
type=note_on channel=5 note=47 velocity=80 time=12 actual_time=0
type: note_off, time: 12, actual_time: 48
type=note_on channel=5 note=47 velocity=80 time=0 actual_time=12
type: note_off, time: 0, actual_time: 60
type=note_on channel=5 note=47 velocity=0 time=48 actual_time=27108
type=note_on channel=5 note=54 velocity=0 time=0 actual_time=27108
type=note_on channel=5 note=47 velocity=80 time=12 actual_time=27120
type: note_off, time: 12, actual_time: 27216
type=note_on channel=5 note=61 velocity=80 time=0 actual_time=8
type: note_off, time: 0, actual_time: 104
type=note_on channel=5 note=47 velocity=80 time=0 actual_time=27120
type: note_off, time: 0, actual_time: 27216
type=note_on channel=5 note=54 velocity=0 time=96 actual_time=27216
type=note_on channel=5 note=59 velocity=0 time=0 actual_time=27216
type=note_on channel=5 note=47 velocity=0 time=0 actual_time=27216
type=note_on channel=5 note=47 velocity=80 time=24 actual_time=12
type: note_off, time: 24, actual_time: 60
type=note_on channel=5 note=47 velocity=80 time=0 actual_time=4
type: note_off, time: 0, actual_time: 52
type=note_on channel=5 note=54 velocity=0 time=48 actual_time=27288
type=note_on channel=5 note=47 velocity=0 time=0 actual_time=27288
type=note_on channel=5 note=52 velocity=80 time=12 actual_time=4
type: note_off, time: 12, actual_time: 52
type=note_on channel=5 note=47 velocity=80 time=0 actual_time=4
type: note_off, time: 0, actual_time: 52
type=note_on channel=5 note=54 velocity=0 time=48 actual_time=27348
type=note_on channel=5 note=47 velocity=0 time=0 actual_time=27348
type=note_on channel=5 note=52 velocity=80 time=12 actual_time=0
type: note_off, time: 12, actual_time: 96
type=note_on channel=5 note=47 velocity=80 time=0 actual_time=0
type: note_off, time: 0, actual_time: 96
type=note_on channel=5 note=54 velocity=80 time=0 actual_time=8
type: note_off, time: 0, actual_time: 104
type=note_on channel=5 note=54 velocity=0 time=96 actual_time=27456
type=note_on channel=5 note=59 velocity=0 time=0 actual_time=27456
type=note_on channel=5 note=47 velocity=0 time=0 actual_time=27456
type=note_on channel=5 note=47 velocity=80 time=24 actual_time=27480
type: note_off, time: 24, actual_time: 27528
type=note_on channel=5 note=47 velocity=80 time=0 actual_time=27480
type: note_off, time: 0, actual_time: 27528
type=note_on channel=5 note=47 velocity=0 time=48 actual_time=27528
type=note_on channel=5 note=54 velocity=0 time=0 actual_time=27528
type=note_on channel=5 note=47 velocity=80 time=12 actual_time=12
type: note_off, time: 12, actual_time: 60
type=note_on channel=5 note=47 velocity=80 time=0 actual_time=27540
type: note_off, time: 0, actual_time: 27588
type=note_on channel=5 note=54 velocity=0 time=48 actual_time=27588
type=note_on channel=5 note=47 velocity=0 time=0 actual_time=27588
type=note_on channel=5 note=47 velocity=80 time=12 actual_time=8
type: note_off, time: 12, actual_time: 104
type=note_on channel=5 note=47 velocity=80 time=0 actual_time=27600
type: note_off, time: 0, actual_time: 27696
type=note_on channel=5 note=47 velocity=80 time=0 actual_time=4
type: note_off, time: 0, actual_time: 100
type=note_on channel=5 note=54 velocity=0 time=96 actual_time=27696
type=note_on channel=5 note=59 velocity=0 time=0 actual_time=27696
type=note_on channel=5 note=47 velocity=0 time=0 actual_time=27696
type=note_on channel=5 note=47 velocity=80 time=24 actual_time=0
type: note_off, time: 24, actual_time: 48
type=note_on channel=5 note=47 velocity=80 time=0 actual_time=4
type: note_off, time: 0, actual_time: 52
type=note_on channel=5 note=47 velocity=0 time=48 actual_time=27768
type=note_on channel=5 note=54 velocity=0 time=0 actual_time=27768
type=note_on channel=5 note=47 velocity=80 time=12 actual_time=8
type: note_off, time: 12, actual_time: 56
type=note_on channel=5 note=47 velocity=80 time=0 actual_time=0
type: note_off, time: 0, actual_time: 48
type=note_on channel=5 note=54 velocity=0 time=48 actual_time=27828
type=note_on channel=5 note=47 velocity=0 time=0 actual_time=27828
type=note_on channel=5 note=47 velocity=80 time=12 actual_time=0
type: note_off, time: 12, actual_time: 96
type=note_on channel=5 note=47 velocity=80 time=0 actual_time=0
type: note_off, time: 0, actual_time: 96
type=note_on channel=5 note=47 velocity=80 time=0 actual_time=0
type: note_off, time: 0, actual_time: 96
type=note_on channel=5 note=50 velocity=0 time=96 actual_time=27936
type=note_on channel=5 note=55 velocity=0 time=0 actual_time=27936
type=note_on channel=5 note=43 velocity=0 time=0 actual_time=27936
type=note_on channel=5 note=43 velocity=80 time=24 actual_time=0
type: note_off, time: 24, actual_time: 48
type=note_on channel=5 note=50 velocity=80 time=0 actual_time=0
type: note_off, time: 0, actual_time: 48
type=note_on channel=5 note=50 velocity=0 time=48 actual_time=28008
type=note_on channel=5 note=43 velocity=0 time=0 actual_time=28008
type=note_on channel=5 note=47 velocity=80 time=12 actual_time=4
type: note_off, time: 12, actual_time: 52
type=note_on channel=5 note=47 velocity=80 time=0 actual_time=0
type: note_off, time: 0, actual_time: 48
type=note_on channel=5 note=50 velocity=0 time=48 actual_time=28068
type=note_on channel=5 note=43 velocity=0 time=0 actual_time=28068
type=note_on channel=5 note=47 velocity=80 time=12 actual_time=12
type: note_off, time: 12, actual_time: 108
type=note_on channel=5 note=55 velocity=80 time=0 actual_time=8
type: note_off, time: 0, actual_time: 104
type=note_on channel=5 note=46 velocity=80 time=0 actual_time=4
type: note_off, time: 0, actual_time: 100
type=note_on channel=5 note=50 velocity=0 time=96 actual_time=28176
type=note_on channel=5 note=55 velocity=0 time=0 actual_time=28176
type=note_on channel=5 note=43 velocity=0 time=0 actual_time=28176
type=note_on channel=5 note=50 velocity=80 time=24 actual_time=12
type: note_off, time: 24, actual_time: 60
type=note_on channel=5 note=43 velocity=80 time=0 actual_time=28200
type: note_off, time: 0, actual_time: 28248
type=note_on channel=5 note=43 velocity=0 time=48 actual_time=28248
type=note_on channel=5 note=50 velocity=0 time=0 actual_time=28248
type=note_on channel=5 note=50 velocity=80 time=12 actual_time=8
type: note_off, time: 12, actual_time: 56
type=note_on channel=5 note=47 velocity=80 time=0 actual_time=8
type: note_off, time: 0, actual_time: 56
type=note_on channel=5 note=43 velocity=0 time=48 actual_time=28308
type=note_on channel=5 note=50 velocity=0 time=0 actual_time=28308
type=note_on channel=5 note=47 velocity=80 time=12 actual_time=8
type: note_off, time: 12, actual_time: 104
type=note_on channel=5 note=47 velocity=80 time=0 actual_time=12
type: note_off, time: 0, actual_time: 108
type=note_on channel=5 note=47 velocity=80 time=0 actual_time=12
type: note_off, time: 0, actual_time: 108
type=note_on channel=5 note=45 velocity=0 time=96 actual_time=28416
type=note_on channel=5 note=57 velocity=0 time=0 actual_time=28416
type=note_on channel=5 note=52 velocity=0 time=0 actual_time=28416
type=note_on channel=5 note=52 velocity=80 time=24 actual_time=0
type: note_off, time: 24, actual_time: 48
type=note_on channel=5 note=45 velocity=80 time=0 actual_time=28440
type: note_off, time: 0, actual_time: 28488
type=note_on channel=5 note=45 velocity=0 time=48 actual_time=28488
type=note_on channel=5 note=52 velocity=0 time=0 actual_time=28488
type=note_on channel=5 note=47 velocity=80 time=12 actual_time=0
type: note_off, time: 12, actual_time: 48
type=note_on channel=5 note=52 velocity=80 time=0 actual_time=8
type: note_off, time: 0, actual_time: 56
type=note_on channel=5 note=52 velocity=0 time=48 actual_time=28548
type=note_on channel=5 note=45 velocity=0 time=0 actual_time=28548
type=note_on channel=5 note=50 velocity=80 time=12 actual_time=8
type: note_off, time: 12, actual_time: 104
type=note_on channel=5 note=47 velocity=80 time=0 actual_time=0
type: note_off, time: 0, actual_time: 96
type=note_on channel=5 note=42 velocity=80 time=0 actual_time=8
type: note_off, time: 0, actual_time: 104
type=note_on channel=5 note=45 velocity=0 time=96 actual_time=28656
type=note_on channel=5 note=57 velocity=0 time=0 actual_time=28656
type=note_on channel=5 note=52 velocity=0 time=0 actual_time=28656
type=note_on channel=5 note=47 velocity=80 time=24 actual_time=28680
type: note_off, time: 24, actual_time: 28728
type=note_on channel=5 note=47 velocity=80 time=0 actual_time=12
type: note_off, time: 0, actual_time: 60
type=note_on channel=5 note=45 velocity=0 time=48 actual_time=28728
type=note_on channel=5 note=52 velocity=0 time=0 actual_time=28728
type=note_on channel=5 note=44 velocity=80 time=12 actual_time=12
type: note_off, time: 12, actual_time: 60
type=note_on channel=5 note=47 velocity=80 time=0 actual_time=28740
type: note_off, time: 0, actual_time: 28788
type=note_on channel=5 note=52 velocity=0 time=48 actual_time=28788
type=note_on channel=5 note=45 velocity=0 time=0 actual_time=28788
type=note_on channel=5 note=47 velocity=80 time=12 actual_time=28800
type: note_off, time: 12, actual_time: 28896
type=note_on channel=5 note=59 velocity=80 time=0 actual_time=12
type: note_off, time: 0, actual_time: 108
type=note_on channel=5 note=54 velocity=80 time=0 actual_time=28800
type: note_off, time: 0, actual_time: 28896
type=note_on channel=5 note=54 velocity=0 time=96 actual_time=28896
type=note_on channel=5 note=59 velocity=0 time=0 actual_time=28896
type=note_on channel=5 note=47 velocity=0 time=0 actual_time=28896
type=note_on channel=5 note=47 velocity=80 time=24 actual_time=4
type: note_off, time: 24, actual_time: 52
type=note_on channel=5 note=47 velocity=80 time=0 actual_time=4
type: note_off, time: 0, actual_time: 52
type=note_on channel=5 note=54 velocity=0 time=48 actual_time=28968
type=note_on channel=5 note=47 velocity=0 time=0 actual_time=28968
type=note_on channel=5 note=47 velocity=80 time=12 actual_time=8
type: note_off, time: 12, actual_time: 56
type=note_on channel=5 note=54 velocity=80 time=0 actual_time=0
type: note_off, time: 0, actual_time: 48
type=note_on channel=5 note=54 velocity=0 time=48 actual_time=29028
type=note_on channel=5 note=47 velocity=0 time=0 actual_time=29028
type=note_on channel=5 note=59 velocity=80 time=12 actual_time=8
type: note_off, time: 12, actual_time: 104
type=note_on channel=5 note=47 velocity=80 time=0 actual_time=29040
type: note_off, time: 0, actual_time: 29136
type=note_on channel=5 note=47 velocity=80 time=0 actual_time=8
type: note_off, time: 0, actual_time: 104
type=note_on channel=5 note=47 velocity=0 time=96 actual_time=29136
type=note_on channel=5 note=59 velocity=0 time=0 actual_time=29136
type=note_on channel=5 note=54 velocity=0 time=0 actual_time=29136
type=note_on channel=5 note=54 velocity=80 time=24 actual_time=4
type: note_off, time: 24, actual_time: 52
type=note_on channel=5 note=47 velocity=80 time=0 actual_time=4
type: note_off, time: 0, actual_time: 52
type=note_on channel=5 note=47 velocity=0 time=48 actual_time=29208
type=note_on channel=5 note=54 velocity=0 time=0 actual_time=29208
type=note_on channel=5 note=53 velocity=80 time=12 actual_time=12
type: note_off, time: 12, actual_time: 60
type=note_on channel=5 note=47 velocity=80 time=0 actual_time=4
type: note_off, time: 0, actual_time: 52
type=note_on channel=5 note=47 velocity=0 time=48 actual_time=29268
type=note_on channel=5 note=54 velocity=0 time=0 actual_time=29268
type=note_on channel=5 note=58 velocity=80 time=12 actual_time=8
type: note_off, time: 12, actual_time: 104
type=note_on channel=5 note=47 velocity=80 time=0 actual_time=12
type: note_off, time: 0, actual_time: 108
type=note_on channel=5 note=47 velocity=80 time=0 actual_time=29280
type: note_off, time: 0, actual_time: 29376
type=note_on channel=5 note=47 velocity=0 time=96 actual_time=29376
type=note_on channel=5 note=59 velocity=0 time=0 actual_time=29376
type=note_on channel=5 note=54 velocity=0 time=0 actual_time=29376
type=note_on channel=5 note=47 velocity=80 time=24 actual_time=12
type: note_off, time: 24, actual_time: 60
type=note_on channel=5 note=47 velocity=80 time=0 actual_time=0
type: note_off, time: 0, actual_time: 48
type=note_on channel=5 note=47 velocity=0 time=48 actual_time=29448
type=note_on channel=5 note=54 velocity=0 time=0 actual_time=29448
type=note_on channel=5 note=54 velocity=80 time=12 actual_time=29460
type: note_off, time: 12, actual_time: 29508
type=note_on channel=5 note=47 velocity=80 time=0 actual_time=0
type: note_off, time: 0, actual_time: 48
type=note_on channel=5 note=47 velocity=0 time=48 actual_time=29508
type=note_on channel=5 note=54 velocity=0 time=0 actual_time=29508
type=note_on channel=5 note=47 velocity=80 time=12 actual_time=0
type: note_off, time: 12, actual_time: 96
type=note_on channel=5 note=47 velocity=80 time=0 actual_time=4
type: note_off, time: 0, actual_time: 100
type=note_on channel=5 note=47 velocity=80 time=0 actual_time=12
type: note_off, time: 0, actual_time: 108
type=note_on channel=5 note=47 velocity=0 time=96 actual_time=29616
type=note_on channel=5 note=59 velocity=0 time=0 actual_time=29616
type=note_on channel=5 note=54 velocity=0 time=0 actual_time=29616
type=note_on channel=5 note=47 velocity=80 time=24 actual_time=29640
type: note_off, time: 24, actual_time: 29688
type=note_on channel=5 note=47 velocity=80 time=0 actual_time=29640
type: note_off, time: 0, actual_time: 29688
type=note_on channel=5 note=47 velocity=0 time=48 actual_time=29688
type=note_on channel=5 note=54 velocity=0 time=0 actual_time=29688
type=note_on channel=5 note=47 velocity=80 time=12 actual_time=0
type: note_off, time: 12, actual_time: 48
type=note_on channel=5 note=47 velocity=80 time=0 actual_time=0
type: note_off, time: 0, actual_time: 48
type=note_on channel=5 note=47 velocity=0 time=48 actual_time=29748
type=note_on channel=5 note=54 velocity=0 time=0 actual_time=29748
type=note_on channel=5 note=47 velocity=80 time=12 actual_time=4
type: note_off, time: 12, actual_time: 100
type=note_on channel=5 note=47 velocity=80 time=0 actual_time=0
type: note_off, time: 0, actual_time: 96
type=note_on channel=5 note=47 velocity=80 time=0 actual_time=29760
type: note_off, time: 0, actual_time: 29856
type=note_on channel=5 note=40 velocity=0 time=96 actual_time=29856
type=note_on channel=5 note=52 velocity=0 time=0 actual_time=29856
type=note_on channel=5 note=47 velocity=0 time=0 actual_time=29856
type=note_on channel=5 note=47 velocity=80 time=24 actual_time=4
type: note_off, time: 24, actual_time: 52
type=note_on channel=5 note=47 velocity=80 time=0 actual_time=8
type: note_off, time: 0, actual_time: 56
type=note_on channel=5 note=40 velocity=0 time=48 actual_time=29928
type=note_on channel=5 note=47 velocity=0 time=0 actual_time=29928
type=note_on channel=5 note=47 velocity=80 time=12 actual_time=0
type: note_off, time: 12, actual_time: 48
type=note_on channel=5 note=47 velocity=80 time=0 actual_time=12
type: note_off, time: 0, actual_time: 60
type=note_on channel=5 note=40 velocity=0 time=48 actual_time=29988
type=note_on channel=5 note=47 velocity=0 time=0 actual_time=29988
type=note_on channel=5 note=47 velocity=80 time=12 actual_time=12
type: note_off, time: 12, actual_time: 108
type=note_on channel=5 note=52 velocity=80 time=0 actual_time=0
type: note_off, time: 0, actual_time: 96
type=note_on channel=5 note=42 velocity=80 time=0 actual_time=0
type: note_off, time: 0, actual_time: 96
type=note_on channel=5 note=40 velocity=0 time=96 actual_time=30096
type=note_on channel=5 note=52 velocity=0 time=0 actual_time=30096
type=note_on channel=5 note=47 velocity=0 time=0 actual_time=30096
type=note_on channel=5 note=47 velocity=80 time=24 actual_time=8
type: note_off, time: 24, actual_time: 56
type=note_on channel=5 note=47 velocity=80 time=0 actual_time=30120
type: note_off, time: 0, actual_time: 30168
type=note_on channel=5 note=40 velocity=0 time=48 actual_time=30168
type=note_on channel=5 note=47 velocity=0 time=0 actual_time=30168
type=note_on channel=5 note=47 velocity=80 time=12 actual_time=8
type: note_off, time: 12, actual_time: 56
type=note_on channel=5 note=47 velocity=80 time=0 actual_time=8
type: note_off, time: 0, actual_time: 56
type=note_on channel=5 note=40 velocity=0 time=48 actual_time=30228
type=note_on channel=5 note=47 velocity=0 time=0 actual_time=30228
type=note_on channel=5 note=47 velocity=80 time=12 actual_time=4
type: note_off, time: 12, actual_time: 100
type=note_on channel=5 note=54 velocity=80 time=0 actual_time=12
type: note_off, time: 0, actual_time: 108
type=note_on channel=5 note=42 velocity=80 time=0 actual_time=12
type: note_off, time: 0, actual_time: 108
type=note_on channel=5 note=42 velocity=0 time=96 actual_time=30336
type=note_on channel=5 note=54 velocity=0 time=0 actual_time=30336
type=note_on channel=5 note=49 velocity=0 time=0 actual_time=30336
type=note_on channel=5 note=49 velocity=80 time=24 actual_time=0
type: note_off, time: 24, actual_time: 48
type=note_on channel=5 note=42 velocity=80 time=0 actual_time=0
type: note_off, time: 0, actual_time: 48
type=note_on channel=5 note=42 velocity=0 time=48 actual_time=30408
type=note_on channel=5 note=49 velocity=0 time=0 actual_time=30408
type=note_on channel=5 note=47 velocity=80 time=12 actual_time=30420
type: note_off, time: 12, actual_time: 30468
type=note_on channel=5 note=47 velocity=80 time=0 actual_time=30420
type: note_off, time: 0, actual_time: 30468
type=note_on channel=5 note=42 velocity=0 time=48 actual_time=30468
type=note_on channel=5 note=49 velocity=0 time=0 actual_time=30468
type=note_on channel=5 note=47 velocity=80 time=12 actual_time=8
type: note_off, time: 12, actual_time: 104
type=note_on channel=5 note=47 velocity=80 time=0 actual_time=8
type: note_off, time: 0, actual_time: 104
type=note_on channel=5 note=47 velocity=80 time=0 actual_time=12
type: note_off, time: 0, actual_time: 108
type=note_on channel=5 note=42 velocity=0 time=96 actual_time=30576
type=note_on channel=5 note=54 velocity=0 time=0 actual_time=30576
type=note_on channel=5 note=49 velocity=0 time=0 actual_time=30576
type=note_on channel=5 note=47 velocity=80 time=24 actual_time=30600
type: note_off, time: 24, actual_time: 30648
type=note_on channel=5 note=47 velocity=80 time=0 actual_time=4
type: note_off, time: 0, actual_time: 52
type=note_on channel=5 note=42 velocity=0 time=48 actual_time=30648
type=note_on channel=5 note=49 velocity=0 time=0 actual_time=30648
type=note_on channel=5 note=49 velocity=80 time=12 actual_time=4
type: note_off, time: 12, actual_time: 52
type=note_on channel=5 note=47 velocity=80 time=0 actual_time=8
type: note_off, time: 0, actual_time: 56
type=note_on channel=5 note=42 velocity=0 time=48 actual_time=30708
type=note_on channel=5 note=49 velocity=0 time=0 actual_time=30708
type=note_on channel=5 note=44 velocity=80 time=12 actual_time=0
type: note_off, time: 12, actual_time: 96
type=note_on channel=5 note=55 velocity=80 time=0 actual_time=8
type: note_off, time: 0, actual_time: 104
type=note_on channel=5 note=47 velocity=80 time=0 actual_time=12
type: note_off, time: 0, actual_time: 108
type=note_on channel=5 note=54 velocity=0 time=96 actual_time=30816
type=note_on channel=5 note=59 velocity=0 time=0 actual_time=30816
type=note_on channel=5 note=47 velocity=0 time=0 actual_time=30816
type=note_on channel=5 note=47 velocity=80 time=24 actual_time=30840
type: note_off, time: 24, actual_time: 30888
type=note_on channel=5 note=54 velocity=80 time=0 actual_time=8
type: note_off, time: 0, actual_time: 56
type=note_on channel=5 note=54 velocity=0 time=48 actual_time=30888
type=note_on channel=5 note=47 velocity=0 time=0 actual_time=30888
type=note_on channel=5 note=47 velocity=80 time=12 actual_time=12
type: note_off, time: 12, actual_time: 60
type=note_on channel=5 note=47 velocity=80 time=0 actual_time=4
type: note_off, time: 0, actual_time: 52
type=note_on channel=5 note=54 velocity=0 time=48 actual_time=30948
type=note_on channel=5 note=47 velocity=0 time=0 actual_time=30948
type=note_on channel=5 note=47 velocity=80 time=12 actual_time=0
type: note_off, time: 12, actual_time: 96
type=note_on channel=5 note=47 velocity=80 time=0 actual_time=12
type: note_off, time: 0, actual_time: 108
type=note_on channel=5 note=47 velocity=80 time=0 actual_time=0
type: note_off, time: 0, actual_time: 96
type=note_on channel=5 note=47 velocity=0 time=96 actual_time=31056
type=note_on channel=5 note=59 velocity=0 time=0 actual_time=31056
type=note_on channel=5 note=54 velocity=0 time=0 actual_time=31056
type=note_on channel=5 note=47 velocity=80 time=24 actual_time=12
type: note_off, time: 24, actual_time: 60
type=note_on channel=5 note=47 velocity=80 time=0 actual_time=31080
type: note_off, time: 0, actual_time: 31128
type=note_on channel=5 note=47 velocity=0 time=48 actual_time=31128
type=note_on channel=5 note=54 velocity=0 time=0 actual_time=31128
type=note_on channel=5 note=54 velocity=80 time=12 actual_time=31140
type: note_off, time: 12, actual_time: 31188
type=note_on channel=5 note=47 velocity=80 time=0 actual_time=0
type: note_off, time: 0, actual_time: 48
type=note_on channel=5 note=47 velocity=0 time=48 actual_time=31188
type=note_on channel=5 note=54 velocity=0 time=0 actual_time=31188
type=note_on channel=5 note=47 velocity=80 time=12 actual_time=31200
type: note_off, time: 12, actual_time: 31296
type=note_on channel=5 note=47 velocity=80 time=0 actual_time=12
type: note_off, time: 0, actual_time: 108
type=note_on channel=5 note=47 velocity=80 time=0 actual_time=12
type: note_off, time: 0, actual_time: 108
type=note_on channel=5 note=47 velocity=0 time=96 actual_time=31296
type=note_on channel=5 note=59 velocity=0 time=0 actual_time=31296
type=note_on channel=5 note=54 velocity=0 time=0 actual_time=31296
type=note_on channel=5 note=47 velocity=80 time=24 actual_time=12
type: note_off, time: 24, actual_time: 60
type=note_on channel=5 note=47 velocity=80 time=0 actual_time=4
type: note_off, time: 0, actual_time: 52
type=note_on channel=5 note=47 velocity=0 time=48 actual_time=31368
type=note_on channel=5 note=54 velocity=0 time=0 actual_time=31368
type=note_on channel=5 note=54 velocity=80 time=12 actual_time=31380
type: note_off, time: 12, actual_time: 31428
type=note_on channel=5 note=47 velocity=80 time=0 actual_time=4
type: note_off, time: 0, actual_time: 52
type=note_on channel=5 note=47 velocity=0 time=48 actual_time=31428
type=note_on channel=5 note=54 velocity=0 time=0 actual_time=31428
type=note_on channel=5 note=47 velocity=80 time=12 actual_time=4
type: note_off, time: 12, actual_time: 100
type=note_on channel=5 note=47 velocity=80 time=0 actual_time=8
type: note_off, time: 0, actual_time: 104
type=note_on channel=5 note=47 velocity=80 time=0 actual_time=4
type: note_off, time: 0, actual_time: 100
type=note_on channel=5 note=47 velocity=0 time=96 actual_time=31536
type=note_on channel=5 note=59 velocity=0 time=0 actual_time=31536
type=note_on channel=5 note=54 velocity=0 time=0 actual_time=31536
type=note_on channel=5 note=54 velocity=80 time=24 actual_time=31560
type: note_off, time: 24, actual_time: 31608
type=note_on channel=5 note=47 velocity=80 time=0 actual_time=12
type: note_off, time: 0, actual_time: 60
type=note_on channel=5 note=47 velocity=0 time=48 actual_time=31608
type=note_on channel=5 note=54 velocity=0 time=0 actual_time=31608
type=note_on channel=5 note=47 velocity=80 time=12 actual_time=0
type: note_off, time: 12, actual_time: 48
type=note_on channel=5 note=47 velocity=80 time=0 actual_time=31620
type: note_off, time: 0, actual_time: 31668
type=note_on channel=5 note=47 velocity=0 time=48 actual_time=31668
type=note_on channel=5 note=54 velocity=0 time=0 actual_time=31668
type=note_on channel=5 note=47 velocity=80 time=12 actual_time=8
type: note_off, time: 12, actual_time: 104
type=note_on channel=5 note=47 velocity=80 time=0 actual_time=12
type: note_off, time: 0, actual_time: 108
type=note_on channel=5 note=43 velocity=80 time=0 actual_time=0
type: note_off, time: 0, actual_time: 96
type=note_on channel=5 note=43 velocity=0 time=96 actual_time=31776
type=note_on channel=5 note=55 velocity=0 time=0 actual_time=31776
type=note_on channel=5 note=50 velocity=0 time=0 actual_time=31776
type=note_on channel=5 note=50 velocity=80 time=24 actual_time=4
type: note_off, time: 24, actual_time: 52
type=note_on channel=5 note=47 velocity=80 time=0 actual_time=4
type: note_off, time: 0, actual_time: 52
type=note_on channel=5 note=43 velocity=0 time=48 actual_time=31848
type=note_on channel=5 note=50 velocity=0 time=0 actual_time=31848
type=note_on channel=5 note=50 velocity=80 time=12 actual_time=31860
type: note_off, time: 12, actual_time: 31908
type=note_on channel=5 note=47 velocity=80 time=0 actual_time=4
type: note_off, time: 0, actual_time: 52
type=note_on channel=5 note=43 velocity=0 time=48 actual_time=31908
type=note_on channel=5 note=50 velocity=0 time=0 actual_time=31908
type=note_on channel=5 note=50 velocity=80 time=12 actual_time=4
type: note_off, time: 12, actual_time: 100
type=note_on channel=5 note=55 velocity=80 time=0 actual_time=4
type: note_off, time: 0, actual_time: 100
type=note_on channel=5 note=47 velocity=80 time=0 actual_time=12
type: note_off, time: 0, actual_time: 108
type=note_on channel=5 note=43 velocity=0 time=96 actual_time=32016
type=note_on channel=5 note=55 velocity=0 time=0 actual_time=32016
type=note_on channel=5 note=50 velocity=0 time=0 actual_time=32016
type=note_on channel=5 note=47 velocity=80 time=24 actual_time=12
type: note_off, time: 24, actual_time: 60
type=note_on channel=5 note=47 velocity=80 time=0 actual_time=8
type: note_off, time: 0, actual_time: 56
type=note_on channel=5 note=43 velocity=0 time=48 actual_time=32088
type=note_on channel=5 note=50 velocity=0 time=0 actual_time=32088
type=note_on channel=5 note=47 velocity=80 time=12 actual_time=12
type: note_off, time: 12, actual_time: 60
type=note_on channel=5 note=43 velocity=80 time=0 actual_time=4
type: note_off, time: 0, actual_time: 52
type=note_on channel=5 note=43 velocity=0 time=48 actual_time=32148
type=note_on channel=5 note=50 velocity=0 time=0 actual_time=32148
type=note_on channel=5 note=54 velocity=80 time=12 actual_time=32160
type: note_off, time: 12, actual_time: 32256
type=note_on channel=5 note=47 velocity=80 time=0 actual_time=8
type: note_off, time: 0, actual_time: 104
type=note_on channel=5 note=47 velocity=80 time=0 actual_time=8
type: note_off, time: 0, actual_time: 104
type=note_on channel=5 note=45 velocity=0 time=96 actual_time=32256
type=note_on channel=5 note=57 velocity=0 time=0 actual_time=32256
type=note_on channel=5 note=52 velocity=0 time=0 actual_time=32256
type=note_on channel=5 note=47 velocity=80 time=24 actual_time=12
type: note_off, time: 24, actual_time: 60
type=note_on channel=5 note=45 velocity=80 time=0 actual_time=4
type: note_off, time: 0, actual_time: 52
type=note_on channel=5 note=45 velocity=0 time=48 actual_time=32328
type=note_on channel=5 note=52 velocity=0 time=0 actual_time=32328
type=note_on channel=5 note=47 velocity=80 time=12 actual_time=4
type: note_off, time: 12, actual_time: 52
type=note_on channel=5 note=47 velocity=80 time=0 actual_time=8
type: note_off, time: 0, actual_time: 56
type=note_on channel=5 note=45 velocity=0 time=48 actual_time=32388
type=note_on channel=5 note=52 velocity=0 time=0 actual_time=32388
type=note_on channel=5 note=52 velocity=80 time=12 actual_time=0
type: note_off, time: 12, actual_time: 96
type=note_on channel=5 note=57 velocity=80 time=0 actual_time=0
type: note_off, time: 0, actual_time: 96
type=note_on channel=5 note=47 velocity=80 time=0 actual_time=0
type: note_off, time: 0, actual_time: 96
type=note_on channel=5 note=45 velocity=0 time=96 actual_time=32496
type=note_on channel=5 note=57 velocity=0 time=0 actual_time=32496
type=note_on channel=5 note=52 velocity=0 time=0 actual_time=32496
type=note_on channel=5 note=47 velocity=80 time=24 actual_time=12
type: note_off, time: 24, actual_time: 60
type=note_on channel=5 note=45 velocity=80 time=0 actual_time=8
type: note_off, time: 0, actual_time: 56
type=note_on channel=5 note=45 velocity=0 time=48 actual_time=32568
type=note_on channel=5 note=52 velocity=0 time=0 actual_time=32568
type=note_on channel=5 note=49 velocity=80 time=12 actual_time=32580
type: note_off, time: 12, actual_time: 32628
type=note_on channel=5 note=45 velocity=80 time=0 actual_time=32580
type: note_off, time: 0, actual_time: 32628
type=note_on channel=5 note=45 velocity=0 time=48 actual_time=32628
type=note_on channel=5 note=52 velocity=0 time=0 actual_time=32628
type=note_on channel=5 note=44 velocity=80 time=12 actual_time=32640
type: note_off, time: 12, actual_time: 32736
type=note_on channel=5 note=58 velocity=80 time=0 actual_time=12
type: note_off, time: 0, actual_time: 108
type=note_on channel=5 note=47 velocity=80 time=0 actual_time=32640
type: note_off, time: 0, actual_time: 32736
type=note_on channel=5 note=54 velocity=0 time=96 actual_time=32736
type=note_on channel=5 note=59 velocity=0 time=0 actual_time=32736
type=note_on channel=5 note=47 velocity=0 time=0 actual_time=32736
type=note_on channel=5 note=47 velocity=80 time=24 actual_time=0
type: note_off, time: 24, actual_time: 48
type=note_on channel=5 note=47 velocity=80 time=0 actual_time=32760
type: note_off, time: 0, actual_time: 32808
type=note_on channel=5 note=54 velocity=0 time=48 actual_time=32808
type=note_on channel=5 note=47 velocity=0 time=0 actual_time=32808
type=note_on channel=5 note=47 velocity=80 time=12 actual_time=12
type: note_off, time: 12, actual_time: 60
type=note_on channel=5 note=47 velocity=80 time=0 actual_time=4
type: note_off, time: 0, actual_time: 52
type=note_on channel=5 note=54 velocity=0 time=48 actual_time=32868
type=note_on channel=5 note=47 velocity=0 time=0 actual_time=32868
type=note_on channel=5 note=57 velocity=80 time=12 actual_time=12
type: note_off, time: 12, actual_time: 108
type=note_on channel=5 note=47 velocity=80 time=0 actual_time=32880
type: note_off, time: 0, actual_time: 32976
type=note_on channel=5 note=47 velocity=80 time=0 actual_time=32880
type: note_off, time: 0, actual_time: 32976
type=note_on channel=5 note=47 velocity=0 time=96 actual_time=32976
type=note_on channel=5 note=59 velocity=0 time=0 actual_time=32976
type=note_on channel=5 note=54 velocity=0 time=0 actual_time=32976
type=note_on channel=5 note=47 velocity=80 time=24 actual_time=0
type: note_off, time: 24, actual_time: 48
type=note_on channel=5 note=47 velocity=80 time=0 actual_time=33000
type: note_off, time: 0, actual_time: 33048
type=note_on channel=5 note=47 velocity=0 time=48 actual_time=33048
type=note_on channel=5 note=54 velocity=0 time=0 actual_time=33048
type=note_on channel=5 note=54 velocity=80 time=12 actual_time=8
type: note_off, time: 12, actual_time: 56
type=note_on channel=5 note=47 velocity=80 time=0 actual_time=12
type: note_off, time: 0, actual_time: 60
type=note_on channel=5 note=47 velocity=0 time=48 actual_time=33108
type=note_on channel=5 note=54 velocity=0 time=0 actual_time=33108
type=note_on channel=5 note=47 velocity=80 time=12 actual_time=0
type: note_off, time: 12, actual_time: 96
type=note_on channel=5 note=47 velocity=80 time=0 actual_time=0
type: note_off, time: 0, actual_time: 96
type=note_on channel=5 note=47 velocity=80 time=0 actual_time=12
type: note_off, time: 0, actual_time: 108
type=note_on channel=5 note=47 velocity=0 time=96 actual_time=33216
type=note_on channel=5 note=59 velocity=0 time=0 actual_time=33216
type=note_on channel=5 note=54 velocity=0 time=0 actual_time=33216
type=note_on channel=5 note=54 velocity=80 time=24 actual_time=33240
type: note_off, time: 24, actual_time: 33288
type=note_on channel=5 note=51 velocity=80 time=0 actual_time=12
type: note_off, time: 0, actual_time: 60
type=note_on channel=5 note=47 velocity=0 time=48 actual_time=33288
type=note_on channel=5 note=54 velocity=0 time=0 actual_time=33288
type=note_on channel=5 note=47 velocity=80 time=12 actual_time=12
type: note_off, time: 12, actual_time: 60
type=note_on channel=5 note=47 velocity=80 time=0 actual_time=0
type: note_off, time: 0, actual_time: 48
type=note_on channel=5 note=47 velocity=0 time=48 actual_time=33348
type=note_on channel=5 note=54 velocity=0 time=0 actual_time=33348
type=note_on channel=5 note=47 velocity=80 time=12 actual_time=8
type: note_off, time: 12, actual_time: 104
type=note_on channel=5 note=59 velocity=80 time=0 actual_time=12
type: note_off, time: 0, actual_time: 108
type=note_on channel=5 note=47 velocity=80 time=0 actual_time=4
type: note_off, time: 0, actual_time: 100
type=note_on channel=5 note=47 velocity=0 time=96 actual_time=33456
type=note_on channel=5 note=59 velocity=0 time=0 actual_time=33456
type=note_on channel=5 note=54 velocity=0 time=0 actual_time=33456
type=note_on channel=5 note=54 velocity=80 time=24 actual_time=12
type: note_off, time: 24, actual_time: 60
type=note_on channel=5 note=47 velocity=80 time=0 actual_time=4
type: note_off, time: 0, actual_time: 52
type=note_on channel=5 note=47 velocity=0 time=48 actual_time=33528
type=note_on channel=5 note=54 velocity=0 time=0 actual_time=33528
type=note_on channel=5 note=47 velocity=80 time=12 actual_time=12
type: note_off, time: 12, actual_time: 60
type=note_on channel=5 note=47 velocity=80 time=0 actual_time=12
type: note_off, time: 0, actual_time: 60
type=note_on channel=5 note=47 velocity=0 time=48 actual_time=33588
type=note_on channel=5 note=54 velocity=0 time=0 actual_time=33588
type=note_on channel=5 note=47 velocity=80 time=12 actual_time=8
type: note_off, time: 12, actual_time: 104
type=note_on channel=5 note=47 velocity=80 time=0 actual_time=8
type: note_off, time: 0, actual_time: 104
type=note_on channel=5 note=40 velocity=80 time=0 actual_time=4
type: note_off, time: 0, actual_time: 100
type=note_on channel=5 note=40 velocity=0 time=96 actual_time=33696
type=note_on channel=5 note=52 velocity=0 time=0 actual_time=33696
type=note_on channel=5 note=47 velocity=0 time=0 actual_time=33696
type=note_on channel=5 note=47 velocity=80 time=24 actual_time=4
type: note_off, time: 24, actual_time: 100
type=note_on channel=5 note=52 velocity=80 time=0 actual_time=0
type: note_off, time: 0, actual_time: 96
type=note_on channel=5 note=40 velocity=80 time=0 actual_time=12
type: note_off, time: 0, actual_time: 108
type=note_on channel=5 note=40 velocity=0 time=96 actual_time=33816
type=note_on channel=5 note=52 velocity=0 time=0 actual_time=33816
type=note_on channel=5 note=47 velocity=0 time=0 actual_time=33816
type=note_on channel=5 note=47 velocity=80 time=24 actual_time=0
type: note_off, time: 24, actual_time: 96
type=note_on channel=5 note=47 velocity=80 time=0 actual_time=12
type: note_off, time: 0, actual_time: 108
type=note_on channel=5 note=47 velocity=80 time=0 actual_time=12
type: note_off, time: 0, actual_time: 108
type=note_on channel=5 note=40 velocity=0 time=96 actual_time=33936
type=note_on channel=5 note=52 velocity=0 time=0 actual_time=33936
type=note_on channel=5 note=47 velocity=0 time=0 actual_time=33936
type=note_on channel=5 note=47 velocity=80 time=24 actual_time=12
type: note_off, time: 24, actual_time: 108
type=note_on channel=5 note=47 velocity=80 time=0 actual_time=8
type: note_off, time: 0, actual_time: 104
type=note_on channel=5 note=47 velocity=80 time=0 actual_time=33960
type: note_off, time: 0, actual_time: 34056
type=note_on channel=5 note=52 velocity=0 time=96 actual_time=34056
type=note_on channel=5 note=47 velocity=0 time=0 actual_time=34056
type=note_on channel=5 note=40 velocity=0 time=0 actual_time=34056
type=note_on channel=5 note=47 velocity=80 time=24 actual_time=4
type: note_off, time: 24, actual_time: 100
type=note_on channel=5 note=47 velocity=80 time=0 actual_time=0
type: note_off, time: 0, actual_time: 96
type=note_on channel=5 note=54 velocity=80 time=0 actual_time=12
type: note_off, time: 0, actual_time: 108
type=note_on channel=5 note=54 velocity=0 time=96 actual_time=34176
type=note_on channel=5 note=49 velocity=0 time=0 actual_time=34176
type=note_on channel=5 note=42 velocity=0 time=0 actual_time=34176
type=note_on channel=5 note=54 velocity=80 time=24 actual_time=4
type: note_off, time: 24, actual_time: 100
type=note_on channel=5 note=42 velocity=80 time=0 actual_time=34200
type: note_off, time: 0, actual_time: 34296
type=note_on channel=5 note=47 velocity=80 time=0 actual_time=34200
type: note_off, time: 0, actual_time: 34296
type=note_on channel=5 note=49 velocity=0 time=96 actual_time=34296
type=note_on channel=5 note=42 velocity=0 time=0 actual_time=34296
type=note_on channel=5 note=54 velocity=0 time=0 actual_time=34296
type=note_on channel=5 note=47 velocity=80 time=24 actual_time=4
type: note_off, time: 24, actual_time: 100
type=note_on channel=5 note=47 velocity=80 time=0 actual_time=34320
type: note_off, time: 0, actual_time: 34416
type=note_on channel=5 note=42 velocity=80 time=0 actual_time=34320
type: note_off, time: 0, actual_time: 34416
type=note_on channel=5 note=42 velocity=0 time=96 actual_time=34416
type=note_on channel=5 note=54 velocity=0 time=0 actual_time=34416
type=note_on channel=5 note=49 velocity=0 time=0 actual_time=34416
type=note_on channel=5 note=47 velocity=80 time=24 actual_time=0
type: note_off, time: 24, actual_time: 96
type=note_on channel=5 note=49 velocity=80 time=0 actual_time=12
type: note_off, time: 0, actual_time: 108
type=note_on channel=5 note=42 velocity=80 time=0 actual_time=12
type: note_off, time: 0, actual_time: 108
type=note_on channel=5 note=42 velocity=0 time=96 actual_time=34536
type=note_on channel=5 note=49 velocity=0 time=0 actual_time=34536
type=note_on channel=5 note=54 velocity=0 time=0 actual_time=34536
type=note_on channel=5 note=47 velocity=80 time=24 actual_time=0
type: note_off, time: 24, actual_time: 3648
type=note_on channel=5 note=47 velocity=80 time=0 actual_time=34560
type: note_off, time: 0, actual_time: 38208
type=note_on channel=5 note=47 velocity=80 time=0 actual_time=12
type: note_off, time: 0, actual_time: 3660
type=note_on channel=5 note=47 velocity=0 time=3648 actual_time=38208
type=note_on channel=5 note=54 velocity=0 time=0 actual_time=38208
type=note_on channel=5 note=59 velocity=0 time=0 actual_time=38208
type=note_on channel=5 note=47 velocity=80 time=7632 actual_time=4
type: note_off, time: 7632, actual_time: 36
type=note_on channel=5 note=47 velocity=80 time=0 actual_time=45840
type: note_off, time: 0, actual_time: 45872
type=note_on channel=5 note=47 velocity=80 time=0 actual_time=45840
type: note_off, time: 0, actual_time: 45872
type=note_on channel=5 note=57 velocity=0 time=32 actual_time=45872
type=note_on channel=5 note=52 velocity=0 time=0 actual_time=45872
type=note_on channel=5 note=45 velocity=0 time=0 actual_time=45872
type=note_on channel=5 note=52 velocity=80 time=8 actual_time=0
type: note_off, time: 8, actual_time: 32
type=note_on channel=5 note=47 velocity=80 time=0 actual_time=0
type: note_off, time: 0, actual_time: 32
type=note_on channel=5 note=47 velocity=80 time=0 actual_time=0
type: note_off, time: 0, actual_time: 32
type=note_on channel=5 note=57 velocity=0 time=32 actual_time=45912
type=note_on channel=5 note=45 velocity=0 time=0 actual_time=45912
type=note_on channel=5 note=52 velocity=0 time=0 actual_time=45912
type=note_on channel=5 note=47 velocity=80 time=8 actual_time=45920
type: note_off, time: 8, actual_time: 45952
type=note_on channel=5 note=47 velocity=80 time=0 actual_time=12
type: note_off, time: 0, actual_time: 44
type=note_on channel=5 note=47 velocity=80 time=0 actual_time=8
type: note_off, time: 0, actual_time: 40
type=note_on channel=5 note=57 velocity=0 time=32 actual_time=45952
type=note_on channel=5 note=45 velocity=0 time=0 actual_time=45952
type=note_on channel=5 note=52 velocity=0 time=0 actual_time=45952
type=note_on channel=5 note=52 velocity=80 time=8 actual_time=0
type: note_off, time: 8, actual_time: 32
type=note_on channel=5 note=47 velocity=80 time=0 actual_time=8
type: note_off, time: 0, actual_time: 40
type=note_on channel=5 note=47 velocity=80 time=0 actual_time=12
type: note_off, time: 0, actual_time: 44
type=note_on channel=5 note=57 velocity=0 time=32 actual_time=45992
type=note_on channel=5 note=45 velocity=0 time=0 actual_time=45992
type=note_on channel=5 note=52 velocity=0 time=0 actual_time=45992
type=note_on channel=5 note=52 velocity=80 time=8 actual_time=12
type: note_off, time: 8, actual_time: 44
type=note_on channel=5 note=47 velocity=80 time=0 actual_time=0
type: note_off, time: 0, actual_time: 32
type=note_on channel=5 note=57 velocity=80 time=0 actual_time=12
type: note_off, time: 0, actual_time: 44
type=note_on channel=5 note=57 velocity=0 time=32 actual_time=46032
type=note_on channel=5 note=45 velocity=0 time=0 actual_time=46032
type=note_on channel=5 note=52 velocity=0 time=0 actual_time=46032
type=note_on channel=5 note=47 velocity=80 time=8 actual_time=8
type: note_off, time: 8, actual_time: 40
type=note_on channel=5 note=47 velocity=80 time=0 actual_time=8
type: note_off, time: 0, actual_time: 40
type=note_on channel=5 note=47 velocity=80 time=0 actual_time=4
type: note_off, time: 0, actual_time: 36
type=note_on channel=5 note=57 velocity=0 time=32 actual_time=46072
type=note_on channel=5 note=45 velocity=0 time=0 actual_time=46072
type=note_on channel=5 note=52 velocity=0 time=0 actual_time=46072
type=note_on channel=5 note=47 velocity=80 time=8 actual_time=12
type: note_off, time: 8, actual_time: 108
type=note_on channel=5 note=47 velocity=80 time=0 actual_time=12
type: note_off, time: 0, actual_time: 108
type=note_on channel=5 note=47 velocity=80 time=0 actual_time=12
type: note_off, time: 0, actual_time: 108
type=note_on channel=5 note=54 velocity=0 time=96 actual_time=46176
type=note_on channel=5 note=59 velocity=0 time=0 actual_time=46176
type=note_on channel=5 note=47 velocity=0 time=0 actual_time=46176
type=note_on channel=5 note=47 velocity=80 time=24 actual_time=4
type: note_off, time: 24, actual_time: 52
type=note_on channel=5 note=54 velocity=80 time=0 actual_time=46200
type: note_off, time: 0, actual_time: 46248
type=note_on channel=5 note=54 velocity=0 time=48 actual_time=46248
type=note_on channel=5 note=47 velocity=0 time=0 actual_time=46248
type=note_on channel=5 note=47 velocity=80 time=12 actual_time=12
type: note_off, time: 12, actual_time: 60
type=note_on channel=5 note=47 velocity=80 time=0 actual_time=12
type: note_off, time: 0, actual_time: 60
type=note_on channel=5 note=54 velocity=0 time=48 actual_time=46308
type=note_on channel=5 note=47 velocity=0 time=0 actual_time=46308
type=note_on channel=5 note=47 velocity=80 time=12 actual_time=4
type: note_off, time: 12, actual_time: 100
type=note_on channel=5 note=59 velocity=80 time=0 actual_time=8
type: note_off, time: 0, actual_time: 104
type=note_on channel=5 note=47 velocity=80 time=0 actual_time=46320
type: note_off, time: 0, actual_time: 46416
type=note_on channel=5 note=47 velocity=0 time=96 actual_time=46416
type=note_on channel=5 note=59 velocity=0 time=0 actual_time=46416
type=note_on channel=5 note=54 velocity=0 time=0 actual_time=46416
type=note_on channel=5 note=47 velocity=80 time=24 actual_time=8
type: note_off, time: 24, actual_time: 56
type=note_on channel=5 note=47 velocity=80 time=0 actual_time=8
type: note_off, time: 0, actual_time: 56
type=note_on channel=5 note=47 velocity=0 time=48 actual_time=46488
type=note_on channel=5 note=54 velocity=0 time=0 actual_time=46488
type=note_on channel=5 note=47 velocity=80 time=12 actual_time=46500
type: note_off, time: 12, actual_time: 46548
type=note_on channel=5 note=47 velocity=80 time=0 actual_time=46500
type: note_off, time: 0, actual_time: 46548
type=note_on channel=5 note=47 velocity=0 time=48 actual_time=46548
type=note_on channel=5 note=54 velocity=0 time=0 actual_time=46548
type=note_on channel=5 note=59 velocity=80 time=12 actual_time=8
type: note_off, time: 12, actual_time: 104
type=note_on channel=5 note=59 velocity=80 time=0 actual_time=8
type: note_off, time: 0, actual_time: 104
type=note_on channel=5 note=47 velocity=80 time=0 actual_time=12
type: note_off, time: 0, actual_time: 108
type=note_on channel=5 note=47 velocity=0 time=96 actual_time=46656
type=note_on channel=5 note=59 velocity=0 time=0 actual_time=46656
type=note_on channel=5 note=54 velocity=0 time=0 actual_time=46656
type=note_on channel=5 note=47 velocity=80 time=24 actual_time=12
type: note_off, time: 24, actual_time: 60
type=note_on channel=5 note=42 velocity=80 time=0 actual_time=12
type: note_off, time: 0, actual_time: 60
type=note_on channel=5 note=47 velocity=0 time=48 actual_time=46728
type=note_on channel=5 note=54 velocity=0 time=0 actual_time=46728
type=note_on channel=5 note=47 velocity=80 time=12 actual_time=12
type: note_off, time: 12, actual_time: 60
type=note_on channel=5 note=47 velocity=80 time=0 actual_time=46740
type: note_off, time: 0, actual_time: 46788
type=note_on channel=5 note=47 velocity=0 time=48 actual_time=46788
type=note_on channel=5 note=54 velocity=0 time=0 actual_time=46788
type=note_on channel=5 note=47 velocity=80 time=12 actual_time=46800
type: note_off, time: 12, actual_time: 46896
type=note_on channel=5 note=47 velocity=80 time=0 actual_time=46800
type: note_off, time: 0, actual_time: 46896
type=note_on channel=5 note=47 velocity=80 time=0 actual_time=4
type: note_off, time: 0, actual_time: 100
type=note_on channel=5 note=47 velocity=0 time=96 actual_time=46896
type=note_on channel=5 note=59 velocity=0 time=0 actual_time=46896
type=note_on channel=5 note=54 velocity=0 time=0 actual_time=46896
type=note_on channel=5 note=47 velocity=80 time=24 actual_time=12
type: note_off, time: 24, actual_time: 60
type=note_on channel=5 note=47 velocity=80 time=0 actual_time=0
type: note_off, time: 0, actual_time: 48
type=note_on channel=5 note=47 velocity=0 time=48 actual_time=46968
type=note_on channel=5 note=54 velocity=0 time=0 actual_time=46968
type=note_on channel=5 note=47 velocity=80 time=12 actual_time=8
type: note_off, time: 12, actual_time: 56
type=note_on channel=5 note=47 velocity=80 time=0 actual_time=8
type: note_off, time: 0, actual_time: 56
type=note_on channel=5 note=47 velocity=0 time=48 actual_time=47028
type=note_on channel=5 note=54 velocity=0 time=0 actual_time=47028
type=note_on channel=5 note=47 velocity=80 time=12 actual_time=4
type: note_off, time: 12, actual_time: 100
type=note_on channel=5 note=47 velocity=80 time=0 actual_time=47040
type: note_off, time: 0, actual_time: 47136
type=note_on channel=5 note=43 velocity=80 time=0 actual_time=8
type: note_off, time: 0, actual_time: 104
type=note_on channel=5 note=43 velocity=0 time=96 actual_time=47136
type=note_on channel=5 note=55 velocity=0 time=0 actual_time=47136
type=note_on channel=5 note=50 velocity=0 time=0 actual_time=47136
type=note_on channel=5 note=54 velocity=80 time=24 actual_time=12
type: note_off, time: 24, actual_time: 60
type=note_on channel=5 note=47 velocity=80 time=0 actual_time=12
type: note_off, time: 0, actual_time: 60
type=note_on channel=5 note=43 velocity=0 time=48 actual_time=47208
type=note_on channel=5 note=50 velocity=0 time=0 actual_time=47208
type=note_on channel=5 note=47 velocity=80 time=12 actual_time=12
type: note_off, time: 12, actual_time: 60
type=note_on channel=5 note=43 velocity=80 time=0 actual_time=47220
type: note_off, time: 0, actual_time: 47268
type=note_on channel=5 note=43 velocity=0 time=48 actual_time=47268
type=note_on channel=5 note=50 velocity=0 time=0 actual_time=47268
type=note_on channel=5 note=50 velocity=80 time=12 actual_time=4
type: note_off, time: 12, actual_time: 100
type=note_on channel=5 note=55 velocity=80 time=0 actual_time=0
type: note_off, time: 0, actual_time: 96
type=note_on channel=5 note=47 velocity=80 time=0 actual_time=8
type: note_off, time: 0, actual_time: 104
type=note_on channel=5 note=43 velocity=0 time=96 actual_time=47376
type=note_on channel=5 note=55 velocity=0 time=0 actual_time=47376
type=note_on channel=5 note=50 velocity=0 time=0 actual_time=47376
type=note_on channel=5 note=50 velocity=80 time=24 actual_time=47400
type: note_off, time: 24, actual_time: 47448
type=note_on channel=5 note=47 velocity=80 time=0 actual_time=8
type: note_off, time: 0, actual_time: 56
type=note_on channel=5 note=43 velocity=0 time=48 actual_time=47448
type=note_on channel=5 note=50 velocity=0 time=0 actual_time=47448
type=note_on channel=5 note=47 velocity=80 time=12 actual_time=0
type: note_off, time: 12, actual_time: 48
type=note_on channel=5 note=47 velocity=80 time=0 actual_time=4
type: note_off, time: 0, actual_time: 52
type=note_on channel=5 note=43 velocity=0 time=48 actual_time=47508
type=note_on channel=5 note=50 velocity=0 time=0 actual_time=47508
type=note_on channel=5 note=47 velocity=80 time=12 actual_time=12
type: note_off, time: 12, actual_time: 108
type=note_on channel=5 note=47 velocity=80 time=0 actual_time=0
type: note_off, time: 0, actual_time: 96
type=note_on channel=5 note=47 velocity=80 time=0 actual_time=8
type: note_off, time: 0, actual_time: 104
type=note_on channel=5 note=45 velocity=0 time=96 actual_time=47616
type=note_on channel=5 note=57 velocity=0 time=0 actual_time=47616
type=note_on channel=5 note=52 velocity=0 time=0 actual_time=47616
type=note_on channel=5 note=53 velocity=80 time=24 actual_time=8
type: note_off, time: 24, actual_time: 56
type=note_on channel=5 note=47 velocity=80 time=0 actual_time=8
type: note_off, time: 0, actual_time: 56
type=note_on channel=5 note=45 velocity=0 time=48 actual_time=47688
type=note_on channel=5 note=52 velocity=0 time=0 actual_time=47688
type=note_on channel=5 note=47 velocity=80 time=12 actual_time=0
type: note_off, time: 12, actual_time: 48
type=note_on channel=5 note=47 velocity=80 time=0 actual_time=4
type: note_off, time: 0, actual_time: 52
type=note_on channel=5 note=45 velocity=0 time=48 actual_time=47748
type=note_on channel=5 note=52 velocity=0 time=0 actual_time=47748
type=note_on channel=5 note=47 velocity=80 time=12 actual_time=8
type: note_off, time: 12, actual_time: 104
type=note_on channel=5 note=47 velocity=80 time=0 actual_time=8
type: note_off, time: 0, actual_time: 104
type=note_on channel=5 note=44 velocity=80 time=0 actual_time=0
type: note_off, time: 0, actual_time: 96
type=note_on channel=5 note=45 velocity=0 time=96 actual_time=47856
type=note_on channel=5 note=57 velocity=0 time=0 actual_time=47856
type=note_on channel=5 note=52 velocity=0 time=0 actual_time=47856
type=note_on channel=5 note=52 velocity=80 time=24 actual_time=12
type: note_off, time: 24, actual_time: 60
type=note_on channel=5 note=47 velocity=80 time=0 actual_time=12
type: note_off, time: 0, actual_time: 60
type=note_on channel=5 note=45 velocity=0 time=48 actual_time=47928
type=note_on channel=5 note=52 velocity=0 time=0 actual_time=47928
type=note_on channel=5 note=47 velocity=80 time=12 actual_time=8
type: note_off, time: 12, actual_time: 56
type=note_on channel=5 note=47 velocity=80 time=0 actual_time=8
type: note_off, time: 0, actual_time: 56
type=note_on channel=5 note=45 velocity=0 time=48 actual_time=47988
type=note_on channel=5 note=52 velocity=0 time=0 actual_time=47988
type=note_on channel=5 note=47 velocity=80 time=12 actual_time=4
type: note_off, time: 12, actual_time: 100
type=note_on channel=5 note=59 velocity=80 time=0 actual_time=48000
type: note_off, time: 0, actual_time: 48096
type=note_on channel=5 note=47 velocity=80 time=0 actual_time=0
type: note_off, time: 0, actual_time: 96
type=note_on channel=5 note=47 velocity=0 time=96 actual_time=48096
type=note_on channel=5 note=59 velocity=0 time=0 actual_time=48096
type=note_on channel=5 note=54 velocity=0 time=0 actual_time=48096
type=note_on channel=5 note=54 velocity=80 time=24 actual_time=8
type: note_off, time: 24, actual_time: 56
type=note_on channel=5 note=47 velocity=80 time=0 actual_time=8
type: note_off, time: 0, actual_time: 56
type=note_on channel=5 note=47 velocity=0 time=48 actual_time=48168
type=note_on channel=5 note=54 velocity=0 time=0 actual_time=48168
type=note_on channel=5 note=47 velocity=80 time=12 actual_time=8
type: note_off, time: 12, actual_time: 56
type=note_on channel=5 note=47 velocity=80 time=0 actual_time=4
type: note_off, time: 0, actual_time: 52
type=note_on channel=5 note=47 velocity=0 time=48 actual_time=48228
type=note_on channel=5 note=54 velocity=0 time=0 actual_time=48228
type=note_on channel=5 note=47 velocity=80 time=12 actual_time=4
type: note_off, time: 12, actual_time: 100
type=note_on channel=5 note=47 velocity=80 time=0 actual_time=8
type: note_off, time: 0, actual_time: 104
type=note_on channel=5 note=47 velocity=80 time=0 actual_time=12
type: note_off, time: 0, actual_time: 108
type=note_on channel=5 note=54 velocity=0 time=96 actual_time=48336
type=note_on channel=5 note=59 velocity=0 time=0 actual_time=48336
type=note_on channel=5 note=47 velocity=0 time=0 actual_time=48336
type=note_on channel=5 note=47 velocity=80 time=24 actual_time=0
type: note_off, time: 24, actual_time: 48
type=note_on channel=5 note=47 velocity=80 time=0 actual_time=12
type: note_off, time: 0, actual_time: 60
type=note_on channel=5 note=54 velocity=0 time=48 actual_time=48408
type=note_on channel=5 note=47 velocity=0 time=0 actual_time=48408
type=note_on channel=5 note=47 velocity=80 time=12 actual_time=4
type: note_off, time: 12, actual_time: 52
type=note_on channel=5 note=51 velocity=80 time=0 actual_time=0
type: note_off, time: 0, actual_time: 48
type=note_on channel=5 note=54 velocity=0 time=48 actual_time=48468
type=note_on channel=5 note=47 velocity=0 time=0 actual_time=48468
type=note_on channel=5 note=47 velocity=80 time=12 actual_time=0
type: note_off, time: 12, actual_time: 96
type=note_on channel=5 note=47 velocity=80 time=0 actual_time=0
type: note_off, time: 0, actual_time: 96
type=note_on channel=5 note=47 velocity=80 time=0 actual_time=0
type: note_off, time: 0, actual_time: 96
type=note_on channel=5 note=54 velocity=0 time=96 actual_time=48576
type=note_on channel=5 note=59 velocity=0 time=0 actual_time=48576
type=note_on channel=5 note=47 velocity=0 time=0 actual_time=48576
type=note_on channel=5 note=47 velocity=80 time=24 actual_time=0
type: note_off, time: 24, actual_time: 48
type=note_on channel=5 note=47 velocity=80 time=0 actual_time=8
type: note_off, time: 0, actual_time: 56
type=note_on channel=5 note=54 velocity=0 time=48 actual_time=48648
type=note_on channel=5 note=47 velocity=0 time=0 actual_time=48648
type=note_on channel=5 note=47 velocity=80 time=12 actual_time=0
type: note_off, time: 12, actual_time: 48
type=note_on channel=5 note=47 velocity=80 time=0 actual_time=0
type: note_off, time: 0, actual_time: 48
type=note_on channel=5 note=54 velocity=0 time=48 actual_time=48708
type=note_on channel=5 note=47 velocity=0 time=0 actual_time=48708
type=note_on channel=5 note=47 velocity=80 time=12 actual_time=4
type: note_off, time: 12, actual_time: 100
type=note_on channel=5 note=59 velocity=80 time=0 actual_time=12
type: note_off, time: 0, actual_time: 108
type=note_on channel=5 note=47 velocity=80 time=0 actual_time=12
type: note_off, time: 0, actual_time: 108
type=note_on channel=5 note=54 velocity=0 time=96 actual_time=48816
type=note_on channel=5 note=59 velocity=0 time=0 actual_time=48816
type=note_on channel=5 note=47 velocity=0 time=0 actual_time=48816
type=note_on channel=5 note=47 velocity=80 time=24 actual_time=48840
type: note_off, time: 24, actual_time: 48888
type=note_on channel=5 note=54 velocity=80 time=0 actual_time=4
type: note_off, time: 0, actual_time: 52
type=note_on channel=5 note=54 velocity=0 time=48 actual_time=48888
type=note_on channel=5 note=47 velocity=0 time=0 actual_time=48888
type=note_on channel=5 note=47 velocity=80 time=12 actual_time=48900
type: note_off, time: 12, actual_time: 48948
type=note_on channel=5 note=47 velocity=80 time=0 actual_time=8
type: note_off, time: 0, actual_time: 56
type=note_on channel=5 note=54 velocity=0 time=48 actual_time=48948
type=note_on channel=5 note=47 velocity=0 time=0 actual_time=48948
type=note_on channel=5 note=47 velocity=80 time=12 actual_time=8
type: note_off, time: 12, actual_time: 104
type=note_on channel=5 note=47 velocity=80 time=0 actual_time=48960
type: note_off, time: 0, actual_time: 49056
type=note_on channel=5 note=47 velocity=80 time=0 actual_time=48960
type: note_off, time: 0, actual_time: 49056
type=note_on channel=5 note=47 velocity=0 time=96 actual_time=49056
type=note_on channel=5 note=52 velocity=0 time=0 actual_time=49056
type=note_on channel=5 note=40 velocity=0 time=0 actual_time=49056
type=note_on channel=5 note=35 velocity=80 time=24 actual_time=4
type: note_off, time: 24, actual_time: 52
type=note_on channel=5 note=47 velocity=80 time=0 actual_time=4
type: note_off, time: 0, actual_time: 52
type=note_on channel=5 note=47 velocity=0 time=48 actual_time=49128
type=note_on channel=5 note=40 velocity=0 time=0 actual_time=49128
type=note_on channel=5 note=47 velocity=80 time=12 actual_time=0
type: note_off, time: 12, actual_time: 48
type=note_on channel=5 note=47 velocity=80 time=0 actual_time=4
type: note_off, time: 0, actual_time: 52
type=note_on channel=5 note=47 velocity=0 time=48 actual_time=49188
type=note_on channel=5 note=40 velocity=0 time=0 actual_time=49188
type=note_on channel=5 note=40 velocity=80 time=12 actual_time=8
type: note_off, time: 12, actual_time: 104
type=note_on channel=5 note=47 velocity=80 time=0 actual_time=8
type: note_off, time: 0, actual_time: 104
type=note_on channel=5 note=47 velocity=80 time=0 actual_time=12
type: note_off, time: 0, actual_time: 108
type=note_on channel=5 note=47 velocity=0 time=96 actual_time=49296
type=note_on channel=5 note=52 velocity=0 time=0 actual_time=49296
type=note_on channel=5 note=40 velocity=0 time=0 actual_time=49296
type=note_on channel=5 note=40 velocity=80 time=24 actual_time=0
type: note_off, time: 24, actual_time: 48
type=note_on channel=5 note=47 velocity=80 time=0 actual_time=8
type: note_off, time: 0, actual_time: 56
type=note_on channel=5 note=47 velocity=0 time=48 actual_time=49368
type=note_on channel=5 note=40 velocity=0 time=0 actual_time=49368
type=note_on channel=5 note=40 velocity=80 time=12 actual_time=8
type: note_off, time: 12, actual_time: 56
type=note_on channel=5 note=47 velocity=80 time=0 actual_time=0
type: note_off, time: 0, actual_time: 48
type=note_on channel=5 note=47 velocity=0 time=48 actual_time=49428
type=note_on channel=5 note=40 velocity=0 time=0 actual_time=49428
type=note_on channel=5 note=47 velocity=80 time=12 actual_time=4
type: note_off, time: 12, actual_time: 100
type=note_on channel=5 note=47 velocity=80 time=0 actual_time=4
type: note_off, time: 0, actual_time: 100
type=note_on channel=5 note=47 velocity=80 time=0 actual_time=8
type: note_off, time: 0, actual_time: 104
type=note_on channel=5 note=49 velocity=0 time=96 actual_time=49536
type=note_on channel=5 note=54 velocity=0 time=0 actual_time=49536
type=note_on channel=5 note=42 velocity=0 time=0 actual_time=49536
type=note_on channel=5 note=40 velocity=80 time=24 actual_time=8
type: note_off, time: 24, actual_time: 56
type=note_on channel=5 note=52 velocity=80 time=0 actual_time=49560
type: note_off, time: 0, actual_time: 49608
type=note_on channel=5 note=49 velocity=0 time=48 actual_time=49608
type=note_on channel=5 note=42 velocity=0 time=0 actual_time=49608
type=note_on channel=5 note=47 velocity=80 time=12 actual_time=8
type: note_off, time: 12, actual_time: 56
type=note_on channel=5 note=49 velocity=80 time=0 actual_time=4
type: note_off, time: 0, actual_time: 52
type=note_on channel=5 note=49 velocity=0 time=48 actual_time=49668
type=note_on channel=5 note=42 velocity=0 time=0 actual_time=49668
type=note_on channel=5 note=47 velocity=80 time=12 actual_time=0
type: note_off, time: 12, actual_time: 96
type=note_on channel=5 note=47 velocity=80 time=0 actual_time=8
type: note_off, time: 0, actual_time: 104
type=note_on channel=5 note=49 velocity=80 time=0 actual_time=49680
type: note_off, time: 0, actual_time: 49776
type=note_on channel=5 note=49 velocity=0 time=96 actual_time=49776
type=note_on channel=5 note=54 velocity=0 time=0 actual_time=49776
type=note_on channel=5 note=42 velocity=0 time=0 actual_time=49776
type=note_on channel=5 note=47 velocity=80 time=24 actual_time=0
type: note_off, time: 24, actual_time: 48
type=note_on channel=5 note=47 velocity=80 time=0 actual_time=12
type: note_off, time: 0, actual_time: 60
type=note_on channel=5 note=49 velocity=0 time=48 actual_time=49848
type=note_on channel=5 note=42 velocity=0 time=0 actual_time=49848
type=note_on channel=5 note=47 velocity=80 time=12 actual_time=12
type: note_off, time: 12, actual_time: 60
type=note_on channel=5 note=47 velocity=80 time=0 actual_time=4
type: note_off, time: 0, actual_time: 52
type=note_on channel=5 note=49 velocity=0 time=48 actual_time=49908
type=note_on channel=5 note=42 velocity=0 time=0 actual_time=49908
type=note_on channel=5 note=54 velocity=80 time=12 actual_time=4
type: note_off, time: 12, actual_time: 100
type=note_on channel=5 note=47 velocity=80 time=0 actual_time=0
type: note_off, time: 0, actual_time: 96
type=note_on channel=5 note=47 velocity=80 time=0 actual_time=0
type: note_off, time: 0, actual_time: 96
type=note_on channel=5 note=47 velocity=0 time=96 actual_time=50016
type=note_on channel=5 note=59 velocity=0 time=0 actual_time=50016
type=note_on channel=5 note=54 velocity=0 time=0 actual_time=50016
type=note_on channel=5 note=54 velocity=80 time=24 actual_time=8
type: note_off, time: 24, actual_time: 56
type=note_on channel=5 note=47 velocity=80 time=0 actual_time=4
type: note_off, time: 0, actual_time: 52
type=note_on channel=5 note=47 velocity=0 time=48 actual_time=50088
type=note_on channel=5 note=54 velocity=0 time=0 actual_time=50088
type=note_on channel=5 note=54 velocity=80 time=12 actual_time=50100
type: note_off, time: 12, actual_time: 50148
type=note_on channel=5 note=47 velocity=80 time=0 actual_time=0
type: note_off, time: 0, actual_time: 48
type=note_on channel=5 note=47 velocity=0 time=48 actual_time=50148
type=note_on channel=5 note=54 velocity=0 time=0 actual_time=50148
type=note_on channel=5 note=47 velocity=80 time=12 actual_time=4
type: note_off, time: 12, actual_time: 100
type=note_on channel=5 note=59 velocity=80 time=0 actual_time=8
type: note_off, time: 0, actual_time: 104
type=note_on channel=5 note=47 velocity=80 time=0 actual_time=4
type: note_off, time: 0, actual_time: 100
type=note_on channel=5 note=54 velocity=0 time=96 actual_time=50256
type=note_on channel=5 note=59 velocity=0 time=0 actual_time=50256
type=note_on channel=5 note=47 velocity=0 time=0 actual_time=50256
type=note_on channel=5 note=47 velocity=80 time=24 actual_time=0
type: note_off, time: 24, actual_time: 48
type=note_on channel=5 note=47 velocity=80 time=0 actual_time=4
type: note_off, time: 0, actual_time: 52
type=note_on channel=5 note=54 velocity=0 time=48 actual_time=50328
type=note_on channel=5 note=47 velocity=0 time=0 actual_time=50328
type=note_on channel=5 note=47 velocity=80 time=12 actual_time=50340
type: note_off, time: 12, actual_time: 50388
type=note_on channel=5 note=47 velocity=80 time=0 actual_time=8
type: note_off, time: 0, actual_time: 56
type=note_on channel=5 note=54 velocity=0 time=48 actual_time=50388
type=note_on channel=5 note=47 velocity=0 time=0 actual_time=50388
type=note_on channel=5 note=47 velocity=80 time=12 actual_time=50400
type: note_off, time: 12, actual_time: 50496
type=note_on channel=5 note=47 velocity=80 time=0 actual_time=50400
type: note_off, time: 0, actual_time: 50496
type=note_on channel=5 note=47 velocity=80 time=0 actual_time=50400
type: note_off, time: 0, actual_time: 50496
type=note_on channel=5 note=54 velocity=0 time=96 actual_time=50496
type=note_on channel=5 note=59 velocity=0 time=0 actual_time=50496
type=note_on channel=5 note=47 velocity=0 time=0 actual_time=50496
type=note_on channel=5 note=47 velocity=80 time=24 actual_time=4
type: note_off, time: 24, actual_time: 52
type=note_on channel=5 note=47 velocity=80 time=0 actual_time=4
type: note_off, time: 0, actual_time: 52
type=note_on channel=5 note=54 velocity=0 time=48 actual_time=50568
type=note_on channel=5 note=47 velocity=0 time=0 actual_time=50568
type=note_on channel=5 note=47 velocity=80 time=12 actual_time=0
type: note_off, time: 12, actual_time: 48
type=note_on channel=5 note=47 velocity=80 time=0 actual_time=50580
type: note_off, time: 0, actual_time: 50628
type=note_on channel=5 note=54 velocity=0 time=48 actual_time=50628
type=note_on channel=5 note=47 velocity=0 time=0 actual_time=50628
type=note_on channel=5 note=47 velocity=80 time=12 actual_time=0
type: note_off, time: 12, actual_time: 96
type=note_on channel=5 note=47 velocity=80 time=0 actual_time=12
type: note_off, time: 0, actual_time: 108
type=note_on channel=5 note=54 velocity=80 time=0 actual_time=8
type: note_off, time: 0, actual_time: 104
type=note_on channel=5 note=54 velocity=0 time=96 actual_time=50736
type=note_on channel=5 note=59 velocity=0 time=0 actual_time=50736
type=note_on channel=5 note=47 velocity=0 time=0 actual_time=50736
type=note_on channel=5 note=43 velocity=80 time=24 actual_time=12
type: note_off, time: 24, actual_time: 60
type=note_on channel=5 note=47 velocity=80 time=0 actual_time=12
type: note_off, time: 0, actual_time: 60
type=note_on channel=5 note=54 velocity=0 time=48 actual_time=50808
type=note_on channel=5 note=47 velocity=0 time=0 actual_time=50808
type=note_on channel=5 note=47 velocity=80 time=12 actual_time=0
type: note_off, time: 12, actual_time: 48
type=note_on channel=5 note=54 velocity=80 time=0 actual_time=0
type: note_off, time: 0, actual_time: 48
type=note_on channel=5 note=54 velocity=0 time=48 actual_time=50868
type=note_on channel=5 note=47 velocity=0 time=0 actual_time=50868
type=note_on channel=5 note=47 velocity=80 time=12 actual_time=0
type: note_off, time: 12, actual_time: 96
type=note_on channel=5 note=47 velocity=80 time=0 actual_time=50880
type: note_off, time: 0, actual_time: 50976
type=note_on channel=5 note=47 velocity=80 time=0 actual_time=8
type: note_off, time: 0, actual_time: 104
type=note_on channel=5 note=50 velocity=0 time=96 actual_time=50976
type=note_on channel=5 note=55 velocity=0 time=0 actual_time=50976
type=note_on channel=5 note=43 velocity=0 time=0 actual_time=50976
type=note_on channel=5 note=47 velocity=80 time=24 actual_time=12
type: note_off, time: 24, actual_time: 60
type=note_on channel=5 note=47 velocity=80 time=0 actual_time=0
type: note_off, time: 0, actual_time: 48
type=note_on channel=5 note=50 velocity=0 time=48 actual_time=51048
type=note_on channel=5 note=43 velocity=0 time=0 actual_time=51048
type=note_on channel=5 note=47 velocity=80 time=12 actual_time=8
type: note_off, time: 12, actual_time: 56
type=note_on channel=5 note=55 velocity=80 time=0 actual_time=12
type: note_off, time: 0, actual_time: 60
type=note_on channel=5 note=50 velocity=0 time=48 actual_time=51108
type=note_on channel=5 note=43 velocity=0 time=0 actual_time=51108
type=note_on channel=5 note=47 velocity=80 time=12 actual_time=51120
type: note_off, time: 12, actual_time: 51216
type=note_on channel=5 note=47 velocity=80 time=0 actual_time=12
type: note_off, time: 0, actual_time: 108
type=note_on channel=5 note=52 velocity=80 time=0 actual_time=8
type: note_off, time: 0, actual_time: 104
type=note_on channel=5 note=50 velocity=0 time=96 actual_time=51216
type=note_on channel=5 note=55 velocity=0 time=0 actual_time=51216
type=note_on channel=5 note=43 velocity=0 time=0 actual_time=51216
type=note_on channel=5 note=47 velocity=80 time=24 actual_time=51240
type: note_off, time: 24, actual_time: 51288
type=note_on channel=5 note=47 velocity=80 time=0 actual_time=8
type: note_off, time: 0, actual_time: 56
type=note_on channel=5 note=50 velocity=0 time=48 actual_time=51288
type=note_on channel=5 note=43 velocity=0 time=0 actual_time=51288
type=note_on channel=5 note=47 velocity=80 time=12 actual_time=0
type: note_off, time: 12, actual_time: 48
type=note_on channel=5 note=47 velocity=80 time=0 actual_time=51300
type: note_off, time: 0, actual_time: 51348
type=note_on channel=5 note=50 velocity=0 time=48 actual_time=51348
type=note_on channel=5 note=43 velocity=0 time=0 actual_time=51348
type=note_on channel=5 note=45 velocity=80 time=12 actual_time=12
type: note_off, time: 12, actual_time: 108
type=note_on channel=5 note=47 velocity=80 time=0 actual_time=8
type: note_off, time: 0, actual_time: 104
type=note_on channel=5 note=47 velocity=80 time=0 actual_time=51360
type: note_off, time: 0, actual_time: 51456
type=note_on channel=5 note=52 velocity=0 time=96 actual_time=51456
type=note_on channel=5 note=57 velocity=0 time=0 actual_time=51456
type=note_on channel=5 note=45 velocity=0 time=0 actual_time=51456
type=note_on channel=5 note=40 velocity=80 time=24 actual_time=12
type: note_off, time: 24, actual_time: 60
type=note_on channel=5 note=47 velocity=80 time=0 actual_time=4
type: note_off, time: 0, actual_time: 52
type=note_on channel=5 note=52 velocity=0 time=48 actual_time=51528
type=note_on channel=5 note=45 velocity=0 time=0 actual_time=51528
type=note_on channel=5 note=47 velocity=80 time=12 actual_time=0
type: note_off, time: 12, actual_time: 48
type=note_on channel=5 note=52 velocity=80 time=0 actual_time=12
type: note_off, time: 0, actual_time: 60
type=note_on channel=5 note=52 velocity=0 time=48 actual_time=51588
type=note_on channel=5 note=45 velocity=0 time=0 actual_time=51588
type=note_on channel=5 note=47 velocity=80 time=12 actual_time=4
type: note_off, time: 12, actual_time: 100
type=note_on channel=5 note=55 velocity=80 time=0 actual_time=51600
type: note_off, time: 0, actual_time: 51696
type=note_on channel=5 note=47 velocity=80 time=0 actual_time=8
type: note_off, time: 0, actual_time: 104
type=note_on channel=5 note=52 velocity=0 time=96 actual_time=51696
type=note_on channel=5 note=57 velocity=0 time=0 actual_time=51696
type=note_on channel=5 note=45 velocity=0 time=0 actual_time=51696
type=note_on channel=5 note=47 velocity=80 time=24 actual_time=51720
type: note_off, time: 24, actual_time: 51768
type=note_on channel=5 note=52 velocity=80 time=0 actual_time=51720
type: note_off, time: 0, actual_time: 51768
type=note_on channel=5 note=52 velocity=0 time=48 actual_time=51768
type=note_on channel=5 note=45 velocity=0 time=0 actual_time=51768
type=note_on channel=5 note=47 velocity=80 time=12 actual_time=4
type: note_off, time: 12, actual_time: 52
type=note_on channel=5 note=52 velocity=80 time=0 actual_time=0
type: note_off, time: 0, actual_time: 48
type=note_on channel=5 note=52 velocity=0 time=48 actual_time=51828
type=note_on channel=5 note=45 velocity=0 time=0 actual_time=51828
type=note_on channel=5 note=47 velocity=80 time=12 actual_time=8
type: note_off, time: 12, actual_time: 104
type=note_on channel=5 note=47 velocity=80 time=0 actual_time=51840
type: note_off, time: 0, actual_time: 51936
type=note_on channel=5 note=47 velocity=80 time=0 actual_time=4
type: note_off, time: 0, actual_time: 100
type=note_on channel=5 note=47 velocity=0 time=96 actual_time=51936
type=note_on channel=5 note=59 velocity=0 time=0 actual_time=51936
type=note_on channel=5 note=54 velocity=0 time=0 actual_time=51936
type=note_on channel=5 note=47 velocity=80 time=24 actual_time=4
type: note_off, time: 24, actual_time: 52
type=note_on channel=5 note=47 velocity=80 time=0 actual_time=8
type: note_off, time: 0, actual_time: 56
type=note_on channel=5 note=47 velocity=0 time=48 actual_time=52008
type=note_on channel=5 note=54 velocity=0 time=0 actual_time=52008
type=note_on channel=5 note=47 velocity=80 time=12 actual_time=4
type: note_off, time: 12, actual_time: 52
type=note_on channel=5 note=47 velocity=80 time=0 actual_time=12
type: note_off, time: 0, actual_time: 60
type=note_on channel=5 note=47 velocity=0 time=48 actual_time=52068
type=note_on channel=5 note=54 velocity=0 time=0 actual_time=52068
type=note_on channel=5 note=47 velocity=80 time=12 actual_time=8
type: note_off, time: 12, actual_time: 104
type=note_on channel=5 note=47 velocity=80 time=0 actual_time=0
type: note_off, time: 0, actual_time: 96
type=note_on channel=5 note=47 velocity=80 time=0 actual_time=4
type: note_off, time: 0, actual_time: 100
type=note_on channel=5 note=54 velocity=0 time=96 actual_time=52176
type=note_on channel=5 note=59 velocity=0 time=0 actual_time=52176
type=note_on channel=5 note=47 velocity=0 time=0 actual_time=52176
type=note_on channel=5 note=47 velocity=80 time=24 actual_time=0
type: note_off, time: 24, actual_time: 48
type=note_on channel=5 note=47 velocity=80 time=0 actual_time=0
type: note_off, time: 0, actual_time: 48
type=note_on channel=5 note=54 velocity=0 time=48 actual_time=52248
type=note_on channel=5 note=47 velocity=0 time=0 actual_time=52248
type=note_on channel=5 note=47 velocity=80 time=12 actual_time=12
type: note_off, time: 12, actual_time: 60
type=note_on channel=5 note=54 velocity=80 time=0 actual_time=0
type: note_off, time: 0, actual_time: 48
type=note_on channel=5 note=54 velocity=0 time=48 actual_time=52308
type=note_on channel=5 note=47 velocity=0 time=0 actual_time=52308
type=note_on channel=5 note=47 velocity=80 time=12 actual_time=52320
type: note_off, time: 12, actual_time: 52416
type=note_on channel=5 note=47 velocity=80 time=0 actual_time=0
type: note_off, time: 0, actual_time: 96
type=note_on channel=5 note=54 velocity=80 time=0 actual_time=4
type: note_off, time: 0, actual_time: 100
type=note_on channel=5 note=54 velocity=0 time=96 actual_time=52416
type=note_on channel=5 note=59 velocity=0 time=0 actual_time=52416
type=note_on channel=5 note=47 velocity=0 time=0 actual_time=52416
type=note_on channel=5 note=47 velocity=80 time=24 actual_time=4
type: note_off, time: 24, actual_time: 52
type=note_on channel=5 note=54 velocity=80 time=0 actual_time=4
type: note_off, time: 0, actual_time: 52
type=note_on channel=5 note=54 velocity=0 time=48 actual_time=52488
type=note_on channel=5 note=47 velocity=0 time=0 actual_time=52488
type=note_on channel=5 note=47 velocity=80 time=12 actual_time=8
type: note_off, time: 12, actual_time: 56
type=note_on channel=5 note=52 velocity=80 time=0 actual_time=52500
type: note_off, time: 0, actual_time: 52548
type=note_on channel=5 note=54 velocity=0 time=48 actual_time=52548
type=note_on channel=5 note=47 velocity=0 time=0 actual_time=52548
type=note_on channel=5 note=47 velocity=80 time=12 actual_time=12
type: note_off, time: 12, actual_time: 108
type=note_on channel=5 note=47 velocity=80 time=0 actual_time=4
type: note_off, time: 0, actual_time: 100
type=note_on channel=5 note=47 velocity=80 time=0 actual_time=0
type: note_off, time: 0, actual_time: 96
type=note_on channel=5 note=54 velocity=0 time=96 actual_time=52656
type=note_on channel=5 note=59 velocity=0 time=0 actual_time=52656
type=note_on channel=5 note=47 velocity=0 time=0 actual_time=52656
type=note_on channel=5 note=47 velocity=80 time=24 actual_time=12
type: note_off, time: 24, actual_time: 60
type=note_on channel=5 note=47 velocity=80 time=0 actual_time=4
type: note_off, time: 0, actual_time: 52
type=note_on channel=5 note=54 velocity=0 time=48 actual_time=52728
type=note_on channel=5 note=47 velocity=0 time=0 actual_time=52728
type=note_on channel=5 note=47 velocity=80 time=12 actual_time=52740
type: note_off, time: 12, actual_time: 52788
type=note_on channel=5 note=47 velocity=80 time=0 actual_time=12
type: note_off, time: 0, actual_time: 60
type=note_on channel=5 note=54 velocity=0 time=48 actual_time=52788
type=note_on channel=5 note=47 velocity=0 time=0 actual_time=52788
type=note_on channel=5 note=47 velocity=80 time=12 actual_time=12
type: note_off, time: 12, actual_time: 108
type=note_on channel=5 note=47 velocity=80 time=0 actual_time=12
type: note_off, time: 0, actual_time: 108
type=note_on channel=5 note=47 velocity=80 time=0 actual_time=0
type: note_off, time: 0, actual_time: 96
type=note_on channel=5 note=47 velocity=0 time=96 actual_time=52896
type=note_on channel=5 note=52 velocity=0 time=0 actual_time=52896
type=note_on channel=5 note=40 velocity=0 time=0 actual_time=52896
type=note_on channel=5 note=47 velocity=80 time=24 actual_time=52920
type: note_off, time: 24, actual_time: 53016
type=note_on channel=5 note=40 velocity=80 time=0 actual_time=8
type: note_off, time: 0, actual_time: 104
type=note_on channel=5 note=47 velocity=80 time=0 actual_time=8
type: note_off, time: 0, actual_time: 104
type=note_on channel=5 note=47 velocity=0 time=96 actual_time=53016
type=note_on channel=5 note=40 velocity=0 time=0 actual_time=53016
type=note_on channel=5 note=52 velocity=0 time=0 actual_time=53016
type=note_on channel=5 note=47 velocity=80 time=24 actual_time=8
type: note_off, time: 24, actual_time: 104
type=note_on channel=5 note=47 velocity=80 time=0 actual_time=0
type: note_off, time: 0, actual_time: 96
type=note_on channel=5 note=36 velocity=80 time=0 actual_time=12
type: note_off, time: 0, actual_time: 108
type=note_on channel=5 note=40 velocity=0 time=96 actual_time=53136
type=note_on channel=5 note=52 velocity=0 time=0 actual_time=53136
type=note_on channel=5 note=47 velocity=0 time=0 actual_time=53136
type=note_on channel=5 note=47 velocity=80 time=24 actual_time=8
type: note_off, time: 24, actual_time: 104
type=note_on channel=5 note=47 velocity=80 time=0 actual_time=53160
type: note_off, time: 0, actual_time: 53256
type=note_on channel=5 note=47 velocity=80 time=0 actual_time=8
type: note_off, time: 0, actual_time: 104
type=note_on channel=5 note=52 velocity=0 time=96 actual_time=53256
type=note_on channel=5 note=47 velocity=0 time=0 actual_time=53256
type=note_on channel=5 note=40 velocity=0 time=0 actual_time=53256
type=note_on channel=5 note=39 velocity=80 time=24 actual_time=12
type: note_off, time: 24, actual_time: 108
type=note_on channel=5 note=47 velocity=80 time=0 actual_time=12
type: note_off, time: 0, actual_time: 108
type=note_on channel=5 note=47 velocity=80 time=0 actual_time=53280
type: note_off, time: 0, actual_time: 53376
type=note_on channel=5 note=49 velocity=0 time=96 actual_time=53376
type=note_on channel=5 note=54 velocity=0 time=0 actual_time=53376
type=note_on channel=5 note=42 velocity=0 time=0 actual_time=53376
type=note_on channel=5 note=47 velocity=80 time=24 actual_time=4
type: note_off, time: 24, actual_time: 100
type=note_on channel=5 note=47 velocity=80 time=0 actual_time=4
type: note_off, time: 0, actual_time: 100
type=note_on channel=5 note=47 velocity=80 time=0 actual_time=12
type: note_off, time: 0, actual_time: 108
type=note_on channel=5 note=49 velocity=0 time=96 actual_time=53496
type=note_on channel=5 note=42 velocity=0 time=0 actual_time=53496
type=note_on channel=5 note=54 velocity=0 time=0 actual_time=53496
type=note_on channel=5 note=47 velocity=80 time=24 actual_time=4
type: note_off, time: 24, actual_time: 100
type=note_on channel=5 note=47 velocity=80 time=0 actual_time=4
type: note_off, time: 0, actual_time: 100
type=note_on channel=5 note=47 velocity=80 time=0 actual_time=53520
type: note_off, time: 0, actual_time: 53616
type=note_on channel=5 note=42 velocity=0 time=96 actual_time=53616
type=note_on channel=5 note=54 velocity=0 time=0 actual_time=53616
type=note_on channel=5 note=49 velocity=0 time=0 actual_time=53616
type=note_on channel=5 note=47 velocity=80 time=24 actual_time=0
type: note_off, time: 24, actual_time: 96
type=note_on channel=5 note=47 velocity=80 time=0 actual_time=8
type: note_off, time: 0, actual_time: 104
type=note_on channel=5 note=47 velocity=80 time=0 actual_time=4
type: note_off, time: 0, actual_time: 100
type=note_on channel=5 note=54 velocity=0 time=96 actual_time=53736
type=note_on channel=5 note=49 velocity=0 time=0 actual_time=53736
type=note_on channel=5 note=42 velocity=0 time=0 actual_time=53736
type=note_on channel=5 note=47 velocity=80 time=24 actual_time=4
type: note_off, time: 24, actual_time: 148
type=note_on channel=5 note=47 velocity=80 time=0 actual_time=4
type: note_off, time: 0, actual_time: 940
type=note_on channel=5 note=47 velocity=80 time=0 actual_time=8
type: note_off, time: 0, actual_time: 944
type=note_on channel=5 note=47 velocity=80 time=0 actual_time=8
type: note_off, time: 0, actual_time: 152
type=note_on channel=5 note=47 velocity=0 time=144 actual_time=53904
type=note_on channel=5 note=45 velocity=80 time=36 actual_time=4
type: note_off, time: 36, actual_time: 148
type=note_on channel=5 note=47 velocity=80 time=0 actual_time=0
type: note_off, time: 0, actual_time: 144
type=note_on channel=5 note=49 velocity=0 time=144 actual_time=54084
type=note_on channel=5 note=49 velocity=0 time=0 actual_time=54084
type=note_on channel=5 note=47 velocity=80 time=36 actual_time=0
type: note_off, time: 36, actual_time: 144
type=note_on channel=5 note=47 velocity=80 time=0 actual_time=12
type: note_off, time: 0, actual_time: 156
type=note_on channel=5 note=50 velocity=0 time=144 actual_time=54264
type=note_on channel=5 note=50 velocity=0 time=0 actual_time=54264
type=note_on channel=5 note=47 velocity=80 time=36 actual_time=12
type: note_off, time: 36, actual_time: 156
type=note_on channel=5 note=47 velocity=80 time=0 actual_time=8
type: note_off, time: 0, actual_time: 152
type=note_on channel=5 note=49 velocity=0 time=144 actual_time=54444
type=note_on channel=5 note=49 velocity=0 time=0 actual_time=54444
type=note_on channel=5 note=50 velocity=80 time=36 actual_time=54480
type: note_off, time: 36, actual_time: 54576
type=note_on channel=5 note=47 velocity=80 time=0 actual_time=12
type: note_off, time: 0, actual_time: 108
type=note_on channel=5 note=50 velocity=0 time=96 actual_time=54576
type=note_on channel=5 note=50 velocity=0 time=0 actual_time=54576
type=note_on channel=5 note=47 velocity=80 time=24 actual_time=4
type: note_off, time: 24, actual_time: 100
type=note_on channel=5 note=47 velocity=80 time=0 actual_time=4
type: note_off, time: 0, actual_time: 100
type=note_on channel=5 note=49 velocity=0 time=96 actual_time=54696
type=note_on channel=5 note=54 velocity=0 time=0 actual_time=54696
type=note_on channel=5 note=47 velocity=0 time=0 actual_time=54696
type=note_on channel=5 note=59 velocity=0 time=0 actual_time=54696
type=note_on channel=5 note=49 velocity=0 time=0 actual_time=54696
type=note_on channel=5 note=47 velocity=80 time=24 actual_time=12
type: note_off, time: 24, actual_time: 420
type=note_on channel=5 note=53 velocity=80 time=0 actual_time=0
type: note_off, time: 0, actual_time: 408
type=note_on channel=5 note=52 velocity=80 time=0 actual_time=8
type: note_off, time: 0, actual_time: 152
type=note_on channel=5 note=47 velocity=80 time=0 actual_time=4
type: note_off, time: 0, actual_time: 148
type=note_on channel=5 note=52 velocity=0 time=144 actual_time=54864
type=note_on channel=5 note=52 velocity=0 time=0 actual_time=54864
type=note_on channel=5 note=47 velocity=80 time=36 actual_time=0
type: note_off, time: 36, actual_time: 144
type=note_on channel=5 note=50 velocity=80 time=0 actual_time=8
type: note_off, time: 0, actual_time: 152
type=note_on channel=5 note=50 velocity=0 time=144 actual_time=55044
type=note_on channel=5 note=50 velocity=0 time=0 actual_time=55044
type=note_on channel=5 note=47 velocity=80 time=36 actual_time=0
type: note_off, time: 36, actual_time: 48
type=note_on channel=5 note=48 velocity=80 time=0 actual_time=0
type: note_off, time: 0, actual_time: 48
type=note_on channel=5 note=49 velocity=0 time=48 actual_time=55128
type=note_on channel=5 note=43 velocity=0 time=0 actual_time=55128
type=note_on channel=5 note=55 velocity=0 time=0 actual_time=55128
type=note_on channel=5 note=47 velocity=80 time=12 actual_time=12
type: note_off, time: 12, actual_time: 60
type=note_on channel=5 note=47 velocity=80 time=0 actual_time=12
type: note_off, time: 0, actual_time: 60
type=note_on channel=5 note=43 velocity=80 time=0 actual_time=12
type: note_off, time: 0, actual_time: 60
type=note_on channel=5 note=43 velocity=0 time=48 actual_time=55188
type=note_on channel=5 note=55 velocity=0 time=0 actual_time=55188
type=note_on channel=5 note=50 velocity=0 time=0 actual_time=55188
type=note_on channel=5 note=47 velocity=80 time=12 actual_time=0
type: note_off, time: 12, actual_time: 408
type=note_on channel=5 note=47 velocity=80 time=0 actual_time=4
type: note_off, time: 0, actual_time: 340
type=note_on channel=5 note=47 velocity=80 time=0 actual_time=55200
type: note_off, time: 0, actual_time: 55608
type=note_on channel=5 note=49 velocity=0 time=48 actual_time=55248
type=note_on channel=5 note=47 velocity=80 time=12 actual_time=12
type: note_off, time: 12, actual_time: 156
type=note_on channel=5 note=50 velocity=80 time=0 actual_time=8
type: note_off, time: 0, actual_time: 152
type=note_on channel=5 note=50 velocity=0 time=144 actual_time=55404
type=note_on channel=5 note=50 velocity=0 time=0 actual_time=55404
type=note_on channel=5 note=48 velocity=80 time=36 actual_time=4
type: note_off, time: 36, actual_time: 100
type=note_on channel=5 note=47 velocity=80 time=0 actual_time=12
type: note_off, time: 0, actual_time: 108
type=note_on channel=5 note=49 velocity=0 time=96 actual_time=55536
type=note_on channel=5 note=45 velocity=0 time=0 actual_time=55536
type=note_on channel=5 note=49 velocity=0 time=0 actual_time=55536
type=note_on channel=5 note=47 velocity=80 time=24 actual_time=55560
type: note_off, time: 24, actual_time: 55608
type=note_on channel=5 note=47 velocity=80 time=0 actual_time=4
type: note_off, time: 0, actual_time: 52
type=note_on channel=5 note=45 velocity=0 time=48 actual_time=55608
type=note_on channel=5 note=57 velocity=0 time=0 actual_time=55608
type=note_on channel=5 note=52 velocity=0 time=0 actual_time=55608
type=note_on channel=5 note=57 velocity=80 time=12 actual_time=8
type: note_off, time: 12, actual_time: 56
type=note_on channel=5 note=55 velocity=80 time=0 actual_time=4
type: note_off, time: 0, actual_time: 52
type=note_on channel=5 note=52 velocity=0 time=48 actual_time=55668
type=note_on channel=5 note=57 velocity=0 time=0 actual_time=55668
type=note_on channel=5 note=45 velocity=0 time=0 actual_time=55668
type=note_on channel=5 note=47 velocity=80 time=12 actual_time=0
type: note_off, time: 12, actual_time: 144
type=note_on channel=5 note=47 velocity=80 time=0 actual_time=4
type: note_off, time: 0, actual_time: 940
type=note_on channel=5 note=47 velocity=80 time=0 actual_time=4
type: note_off, time: 0, actual_time: 940
type=note_on channel=5 note=47 velocity=80 time=0 actual_time=4
type: note_off, time: 0, actual_time: 148
type=note_on channel=5 note=47 velocity=0 time=144 actual_time=55824
type=note_on channel=5 note=47 velocity=0 time=0 actual_time=55824
type=note_on channel=5 note=47 velocity=80 time=36 actual_time=12
type: note_off, time: 36, actual_time: 108
type=note_on channel=5 note=47 velocity=80 time=0 actual_time=12
type: note_off, time: 0, actual_time: 108
type=note_on channel=5 note=45 velocity=0 time=96 actual_time=55956
type=note_on channel=5 note=45 velocity=0 time=0 actual_time=55956
type=note_on channel=5 note=47 velocity=80 time=24 actual_time=12
type: note_off, time: 24, actual_time: 60
type=note_on channel=5 note=47 velocity=80 time=0 actual_time=4
type: note_off, time: 0, actual_time: 52
type=note_on channel=5 note=45 velocity=0 time=48 actual_time=56028
type=note_on channel=5 note=45 velocity=0 time=0 actual_time=56028
type=note_on channel=5 note=47 velocity=80 time=12 actual_time=12
type: note_off, time: 12, actual_time: 156
type=note_on channel=5 note=47 velocity=80 time=0 actual_time=8
type: note_off, time: 0, actual_time: 152
type=note_on channel=5 note=47 velocity=0 time=144 actual_time=56184
type=note_on channel=5 note=47 velocity=0 time=0 actual_time=56184
type=note_on channel=5 note=47 velocity=80 time=36 actual_time=56220
type: note_off, time: 36, actual_time: 56316
type=note_on channel=5 note=47 velocity=80 time=0 actual_time=4
type: note_off, time: 0, actual_time: 100
type=note_on channel=5 note=45 velocity=0 time=96 actual_time=56316
type=note_on channel=5 note=45 velocity=0 time=0 actual_time=56316
type=note_on channel=5 note=41 velocity=80 time=24 actual_time=8
type: note_off, time: 24, actual_time: 56
type=note_on channel=5 note=47 velocity=80 time=0 actual_time=4
type: note_off, time: 0, actual_time: 52
type=note_on channel=5 note=45 velocity=0 time=48 actual_time=56388
type=note_on channel=5 note=45 velocity=0 time=0 actual_time=56388
type=note_on channel=5 note=47 velocity=80 time=12 actual_time=8
type: note_off, time: 12, actual_time: 104
type=note_on channel=5 note=47 velocity=80 time=0 actual_time=4
type: note_off, time: 0, actual_time: 100
type=note_on channel=5 note=47 velocity=0 time=96 actual_time=56496
type=note_on channel=5 note=47 velocity=0 time=0 actual_time=56496
type=note_on channel=5 note=47 velocity=80 time=24 actual_time=0
type: note_off, time: 24, actual_time: 96
type=note_on channel=5 note=47 velocity=80 time=0 actual_time=12
type: note_off, time: 0, actual_time: 108
type=note_on channel=5 note=47 velocity=0 time=96 actual_time=56616
type=note_on channel=5 note=54 velocity=0 time=0 actual_time=56616
type=note_on channel=5 note=59 velocity=0 time=0 actual_time=56616
type=note_on channel=5 note=47 velocity=0 time=0 actual_time=56616
type=note_on channel=5 note=47 velocity=80 time=24 actual_time=56640
type: note_off, time: 24, actual_time: 57048
type=note_on channel=5 note=47 velocity=80 time=0 actual_time=12
type: note_off, time: 0, actual_time: 60
type=note_on channel=5 note=47 velocity=80 time=0 actual_time=8
type: note_off, time: 0, actual_time: 416
type=note_on channel=5 note=47 velocity=80 time=0 actual_time=12
type: note_off, time: 0, actual_time: 60
type=note_on channel=5 note=52 velocity=0 time=48 actual_time=56688
type=note_on channel=5 note=52 velocity=0 time=0 actual_time=56688
type=note_on channel=5 note=50 velocity=80 time=12 actual_time=56700
type: note_off, time: 12, actual_time: 56748
type=note_on channel=5 note=50 velocity=80 time=0 actual_time=8
type: note_off, time: 0, actual_time: 56
type=note_on channel=5 note=50 velocity=0 time=48 actual_time=56748
type=note_on channel=5 note=50 velocity=0 time=0 actual_time=56748
type=note_on channel=5 note=57 velocity=80 time=12 actual_time=12
type: note_off, time: 12, actual_time: 60
type=note_on channel=5 note=47 velocity=80 time=0 actual_time=4
type: note_off, time: 0, actual_time: 52
type=note_on channel=5 note=52 velocity=0 time=48 actual_time=56808
type=note_on channel=5 note=52 velocity=0 time=0 actual_time=56808
type=note_on channel=5 note=50 velocity=80 time=12 actual_time=56820
type: note_off, time: 12, actual_time: 56868
type=note_on channel=5 note=47 velocity=80 time=0 actual_time=12
type: note_off, time: 0, actual_time: 60
type=note_on channel=5 note=50 velocity=0 time=48 actual_time=56868
type=note_on channel=5 note=50 velocity=0 time=0 actual_time=56868
type=note_on channel=5 note=47 velocity=80 time=12 actual_time=0
type: note_off, time: 12, actual_time: 48
type=note_on channel=5 note=47 velocity=80 time=0 actual_time=12
type: note_off, time: 0, actual_time: 60
type=note_on channel=5 note=52 velocity=0 time=48 actual_time=56928
type=note_on channel=5 note=52 velocity=0 time=0 actual_time=56928
type=note_on channel=5 note=47 velocity=80 time=12 actual_time=4
type: note_off, time: 12, actual_time: 52
type=note_on channel=5 note=47 velocity=80 time=0 actual_time=56940
type: note_off, time: 0, actual_time: 56988
type=note_on channel=5 note=50 velocity=0 time=48 actual_time=56988
type=note_on channel=5 note=50 velocity=0 time=0 actual_time=56988
type=note_on channel=5 note=47 velocity=80 time=12 actual_time=4
type: note_off, time: 12, actual_time: 52
type=note_on channel=5 note=47 velocity=80 time=0 actual_time=57000
type: note_off, time: 0, actual_time: 57048
type=note_on channel=5 note=52 velocity=0 time=48 actual_time=57048
type=note_on channel=5 note=43 velocity=0 time=0 actual_time=57048
type=note_on channel=5 note=55 velocity=0 time=0 actual_time=57048
type=note_on channel=5 note=52 velocity=0 time=0 actual_time=57048
type=note_on channel=5 note=47 velocity=80 time=12 actual_time=57060
type: note_off, time: 12, actual_time: 57108
type=note_on channel=5 note=49 velocity=80 time=0 actual_time=8
type: note_off, time: 0, actual_time: 56
type=note_on channel=5 note=50 velocity=80 time=0 actual_time=12
type: note_off, time: 0, actual_time: 60
type=note_on channel=5 note=50 velocity=0 time=48 actual_time=57108
type=note_on channel=5 note=50 velocity=0 time=0 actual_time=57108
type=note_on channel=5 note=43 velocity=0 time=0 actual_time=57108
type=note_on channel=5 note=47 velocity=80 time=12 actual_time=57120
type: note_off, time: 12, actual_time: 57528
type=note_on channel=5 note=57 velocity=80 time=0 actual_time=57120
type: note_off, time: 0, actual_time: 57528
type=note_on channel=5 note=47 velocity=80 time=0 actual_time=57120
type: note_off, time: 0, actual_time: 57168
type=note_on channel=5 note=47 velocity=80 time=0 actual_time=57120
type: note_off, time: 0, actual_time: 57168
type=note_on channel=5 note=50 velocity=0 time=48 actual_time=57168
type=note_on channel=5 note=50 velocity=0 time=0 actual_time=57168
type=note_on channel=5 note=47 velocity=80 time=12 actual_time=12
type: note_off, time: 12, actual_time: 60
type=note_on channel=5 note=47 velocity=80 time=0 actual_time=0
type: note_off, time: 0, actual_time: 48
type=note_on channel=5 note=49 velocity=0 time=48 actual_time=57228
type=note_on channel=5 note=49 velocity=0 time=0 actual_time=57228
type=note_on channel=5 note=47 velocity=80 time=12 actual_time=57240
type: note_off, time: 12, actual_time: 57288
type=note_on channel=5 note=50 velocity=80 time=0 actual_time=0
type: note_off, time: 0, actual_time: 48
type=note_on channel=5 note=50 velocity=0 time=48 actual_time=57288
type=note_on channel=5 note=50 velocity=0 time=0 actual_time=57288
type=note_on channel=5 note=47 velocity=80 time=12 actual_time=4
type: note_off, time: 12, actual_time: 52
type=note_on channel=5 note=49 velocity=80 time=0 actual_time=0
type: note_off, time: 0, actual_time: 48
type=note_on channel=5 note=49 velocity=0 time=48 actual_time=57348
type=note_on channel=5 note=49 velocity=0 time=0 actual_time=57348
type=note_on channel=5 note=47 velocity=80 time=12 actual_time=57360
type: note_off, time: 12, actual_time: 57408
type=note_on channel=5 note=47 velocity=80 time=0 actual_time=8
type: note_off, time: 0, actual_time: 56
type=note_on channel=5 note=50 velocity=0 time=48 actual_time=57408
type=note_on channel=5 note=50 velocity=0 time=0 actual_time=57408
type=note_on channel=5 note=47 velocity=80 time=12 actual_time=12
type: note_off, time: 12, actual_time: 60
type=note_on channel=5 note=47 velocity=80 time=0 actual_time=57420
type: note_off, time: 0, actual_time: 57468
type=note_on channel=5 note=49 velocity=0 time=48 actual_time=57468
type=note_on channel=5 note=49 velocity=0 time=0 actual_time=57468
type=note_on channel=5 note=47 velocity=80 time=12 actual_time=57480
type: note_off, time: 12, actual_time: 57528
type=note_on channel=5 note=47 velocity=80 time=0 actual_time=12
type: note_off, time: 0, actual_time: 60
type=note_on channel=5 note=50 velocity=0 time=48 actual_time=57528
type=note_on channel=5 note=45 velocity=0 time=0 actual_time=57528
type=note_on channel=5 note=57 velocity=0 time=0 actual_time=57528
type=note_on channel=5 note=50 velocity=0 time=0 actual_time=57528
type=note_on channel=5 note=47 velocity=80 time=12 actual_time=57540
type: note_off, time: 12, actual_time: 57588
type=note_on channel=5 note=47 velocity=80 time=0 actual_time=8
type: note_off, time: 0, actual_time: 56
type=note_on channel=5 note=47 velocity=80 time=0 actual_time=8
type: note_off, time: 0, actual_time: 56
type=note_on channel=5 note=45 velocity=0 time=48 actual_time=57588
type=note_on channel=5 note=45 velocity=0 time=0 actual_time=57588
type=note_on channel=5 note=52 velocity=0 time=0 actual_time=57588
type=note_on channel=5 note=47 velocity=80 time=12 actual_time=12
type: note_off, time: 12, actual_time: 156
type=note_on channel=5 note=47 velocity=80 time=0 actual_time=4
type: note_off, time: 0, actual_time: 940
type=note_on channel=5 note=50 velocity=80 time=0 actual_time=8
type: note_off, time: 0, actual_time: 944
type=note_on channel=5 note=47 velocity=80 time=0 actual_time=12
type: note_off, time: 0, actual_time: 156
type=note_on channel=5 note=47 velocity=0 time=144 actual_time=57744
type=note_on channel=5 note=54 velocity=80 time=36 actual_time=12
type: note_off, time: 36, actual_time: 156
type=note_on channel=5 note=47 velocity=80 time=0 actual_time=8
type: note_off, time: 0, actual_time: 152
type=note_on channel=5 note=49 velocity=0 time=144 actual_time=57924
type=note_on channel=5 note=49 velocity=0 time=0 actual_time=57924
type=note_on channel=5 note=47 velocity=80 time=36 actual_time=12
type: note_off, time: 36, actual_time: 156
type=note_on channel=5 note=47 velocity=80 time=0 actual_time=12
type: note_off, time: 0, actual_time: 156
type=note_on channel=5 note=50 velocity=0 time=144 actual_time=58104
type=note_on channel=5 note=50 velocity=0 time=0 actual_time=58104
type=note_on channel=5 note=47 velocity=80 time=36 actual_time=4
type: note_off, time: 36, actual_time: 148
type=note_on channel=5 note=47 velocity=80 time=0 actual_time=12
type: note_off, time: 0, actual_time: 156
type=note_on channel=5 note=49 velocity=0 time=144 actual_time=58284
type=note_on channel=5 note=49 velocity=0 time=0 actual_time=58284
type=note_on channel=5 note=47 velocity=80 time=36 actual_time=12
type: note_off, time: 36, actual_time: 108
type=note_on channel=5 note=50 velocity=80 time=0 actual_time=8
type: note_off, time: 0, actual_time: 104
type=note_on channel=5 note=50 velocity=0 time=96 actual_time=58416
type=note_on channel=5 note=50 velocity=0 time=0 actual_time=58416
type=note_on channel=5 note=47 velocity=80 time=24 actual_time=4
type: note_off, time: 24, actual_time: 100
type=note_on channel=5 note=45 velocity=80 time=0 actual_time=12
type: note_off, time: 0, actual_time: 108
type=note_on channel=5 note=49 velocity=0 time=96 actual_time=58536
type=note_on channel=5 note=59 velocity=0 time=0 actual_time=58536
type=note_on channel=5 note=47 velocity=0 time=0 actual_time=58536
type=note_on channel=5 note=54 velocity=0 time=0 actual_time=58536
type=note_on channel=5 note=49 velocity=0 time=0 actual_time=58536
type=note_on channel=5 note=47 velocity=80 time=24 actual_time=0
type: note_off, time: 24, actual_time: 144
type=note_on channel=5 note=47 velocity=80 time=0 actual_time=8
type: note_off, time: 0, actual_time: 152
type=note_on channel=5 note=47 velocity=80 time=0 actual_time=58560
type: note_off, time: 0, actual_time: 58968
type=note_on channel=5 note=47 velocity=80 time=0 actual_time=12
type: note_off, time: 0, actual_time: 420
type=note_on channel=5 note=52 velocity=0 time=144 actual_time=58704
type=note_on channel=5 note=52 velocity=0 time=0 actual_time=58704
type=note_on channel=5 note=47 velocity=80 time=36 actual_time=12
type: note_off, time: 36, actual_time: 156
type=note_on channel=5 note=47 velocity=80 time=0 actual_time=8
type: note_off, time: 0, actual_time: 152
type=note_on channel=5 note=50 velocity=0 time=144 actual_time=58884
type=note_on channel=5 note=50 velocity=0 time=0 actual_time=58884
type=note_on channel=5 note=47 velocity=80 time=36 actual_time=8
type: note_off, time: 36, actual_time: 56
type=note_on channel=5 note=49 velocity=80 time=0 actual_time=12
type: note_off, time: 0, actual_time: 60
type=note_on channel=5 note=49 velocity=0 time=48 actual_time=58968
type=note_on channel=5 note=43 velocity=0 time=0 actual_time=58968
type=note_on channel=5 note=55 velocity=0 time=0 actual_time=58968
type=note_on channel=5 note=47 velocity=80 time=12 actual_time=8
type: note_off, time: 12, actual_time: 56
type=note_on channel=5 note=47 velocity=80 time=0 actual_time=12
type: note_off, time: 0, actual_time: 60
type=note_on channel=5 note=47 velocity=80 time=0 actual_time=58980
type: note_off, time: 0, actual_time: 59028
type=note_on channel=5 note=50 velocity=0 time=48 actual_time=59028
type=note_on channel=5 note=55 velocity=0 time=0 actual_time=59028
type=note_on channel=5 note=43 velocity=0 time=0 actual_time=59028
type=note_on channel=5 note=47 velocity=80 time=12 actual_time=0
type: note_off, time: 12, actual_time: 408
type=note_on channel=5 note=47 velocity=80 time=0 actual_time=59040
type: note_off, time: 0, actual_time: 59376
type=note_on channel=5 note=52 velocity=80 time=0 actual_time=4
type: note_off, time: 0, actual_time: 412
type=note_on channel=5 note=49 velocity=0 time=48 actual_time=59088
type=note_on channel=5 note=50 velocity=80 time=12 actual_time=59100
type: note_off, time: 12, actual_time: 59244
type=note_on channel=5 note=50 velocity=80 time=0 actual_time=8
type: note_off, time: 0, actual_time: 152
type=note_on channel=5 note=50 velocity=0 time=144 actual_time=59244
type=note_on channel=5 note=50 velocity=0 time=0 actual_time=59244
type=note_on channel=5 note=47 velocity=80 time=36 actual_time=8
type: note_off, time: 36, actual_time: 104
type=note_on channel=5 note=47 velocity=80 time=0 actual_time=59280
type: note_off, time: 0, actual_time: 59376
type=note_on channel=5 note=49 velocity=0 time=96 actual_time=59376
type=note_on channel=5 note=45 velocity=0 time=0 actual_time=59376
type=note_on channel=5 note=49 velocity=0 time=0 actual_time=59376
type=note_on channel=5 note=47 velocity=80 time=24 actual_time=4
type: note_off, time: 24, actual_time: 52
type=note_on channel=5 note=47 velocity=80 time=0 actual_time=4
type: note_off, time: 0, actual_time: 52
type=note_on channel=5 note=45 velocity=0 time=48 actual_time=59448
type=note_on channel=5 note=52 velocity=0 time=0 actual_time=59448
type=note_on channel=5 note=57 velocity=0 time=0 actual_time=59448
type=note_on channel=5 note=47 velocity=80 time=12 actual_time=8
type: note_off, time: 12, actual_time: 56
type=note_on channel=5 note=47 velocity=80 time=0 actual_time=0
type: note_off, time: 0, actual_time: 48
type=note_on channel=5 note=57 velocity=0 time=48 actual_time=59508
type=note_on channel=5 note=52 velocity=0 time=0 actual_time=59508
type=note_on channel=5 note=45 velocity=0 time=0 actual_time=59508
type=note_on channel=5 note=47 velocity=80 time=12 actual_time=0
type: note_off, time: 12, actual_time: 144
type=note_on channel=5 note=54 velocity=80 time=0 actual_time=4
type: note_off, time: 0, actual_time: 940
type=note_on channel=5 note=47 velocity=80 time=0 actual_time=8
type: note_off, time: 0, actual_time: 944
type=note_on channel=5 note=47 velocity=80 time=0 actual_time=12
type: note_off, time: 0, actual_time: 156
type=note_on channel=5 note=47 velocity=0 time=144 actual_time=59664
type=note_on channel=5 note=47 velocity=0 time=0 actual_time=59664
type=note_on channel=5 note=45 velocity=80 time=36 actual_time=4
type: note_off, time: 36, actual_time: 148
type=note_on channel=5 note=45 velocity=80 time=0 actual_time=8
type: note_off, time: 0, actual_time: 152
type=note_on channel=5 note=45 velocity=0 time=144 actual_time=59844
type=note_on channel=5 note=45 velocity=0 time=0 actual_time=59844
type=note_on channel=5 note=47 velocity=80 time=36 actual_time=4
type: note_off, time: 36, actual_time: 148
type=note_on channel=5 note=47 velocity=80 time=0 actual_time=59880
type: note_off, time: 0, actual_time: 60024
type=note_on channel=5 note=47 velocity=0 time=144 actual_time=60024
type=note_on channel=5 note=47 velocity=0 time=0 actual_time=60024
type=note_on channel=5 note=41 velocity=80 time=36 actual_time=0
type: note_off, time: 36, actual_time: 96
type=note_on channel=5 note=47 velocity=80 time=0 actual_time=0
type: note_off, time: 0, actual_time: 96
type=note_on channel=5 note=45 velocity=0 time=96 actual_time=60156
type=note_on channel=5 note=45 velocity=0 time=0 actual_time=60156
type=note_on channel=5 note=45 velocity=80 time=24 actual_time=0
type: note_off, time: 24, actual_time: 48
type=note_on channel=5 note=47 velocity=80 time=0 actual_time=4
type: note_off, time: 0, actual_time: 52
type=note_on channel=5 note=45 velocity=0 time=48 actual_time=60228
type=note_on channel=5 note=45 velocity=0 time=0 actual_time=60228
type=note_on channel=5 note=43 velocity=80 time=12 actual_time=4
type: note_off, time: 12, actual_time: 100
type=note_on channel=5 note=47 velocity=80 time=0 actual_time=4
type: note_off, time: 0, actual_time: 100
type=note_on channel=5 note=47 velocity=0 time=96 actual_time=60336
type=note_on channel=5 note=47 velocity=0 time=0 actual_time=60336
type=note_on channel=5 note=47 velocity=80 time=24 actual_time=4
type: note_off, time: 24, actual_time: 100
type=note_on channel=5 note=47 velocity=80 time=0 actual_time=60360
type: note_off, time: 0, actual_time: 60456
type=note_on channel=5 note=47 velocity=0 time=96 actual_time=60456
type=note_on channel=5 note=54 velocity=0 time=0 actual_time=60456
type=note_on channel=5 note=59 velocity=0 time=0 actual_time=60456
type=note_on channel=5 note=47 velocity=0 time=0 actual_time=60456
type=note_on channel=5 note=47 velocity=80 time=24 actual_time=60480
type: note_off, time: 24, actual_time: 60528
type=note_on channel=5 note=47 velocity=80 time=0 actual_time=60480
type: note_off, time: 0, actual_time: 60888
type=note_on channel=5 note=52 velocity=80 time=0 actual_time=0
type: note_off, time: 0, actual_time: 48
type=note_on channel=5 note=47 velocity=80 time=0 actual_time=0
type: note_off, time: 0, actual_time: 408
type=note_on channel=5 note=52 velocity=0 time=48 actual_time=60528
type=note_on channel=5 note=52 velocity=0 time=0 actual_time=60528
type=note_on channel=5 note=47 velocity=80 time=12 actual_time=4
type: note_off, time: 12, actual_time: 52
type=note_on channel=5 note=47 velocity=80 time=0 actual_time=4
type: note_off, time: 0, actual_time: 52
type=note_on channel=5 note=50 velocity=0 time=48 actual_time=60588
type=note_on channel=5 note=50 velocity=0 time=0 actual_time=60588
type=note_on channel=5 note=47 velocity=80 time=12 actual_time=4
type: note_off, time: 12, actual_time: 52
type=note_on channel=5 note=47 velocity=80 time=0 actual_time=8
type: note_off, time: 0, actual_time: 56
type=note_on channel=5 note=52 velocity=0 time=48 actual_time=60648
type=note_on channel=5 note=52 velocity=0 time=0 actual_time=60648
type=note_on channel=5 note=47 velocity=80 time=12 actual_time=8
type: note_off, time: 12, actual_time: 56
type=note_on channel=5 note=50 velocity=80 time=0 actual_time=60660
type: note_off, time: 0, actual_time: 60708
type=note_on channel=5 note=50 velocity=0 time=48 actual_time=60708
type=note_on channel=5 note=50 velocity=0 time=0 actual_time=60708
type=note_on channel=5 note=49 velocity=80 time=12 actual_time=60720
type: note_off, time: 12, actual_time: 60768
type=note_on channel=5 note=47 velocity=80 time=0 actual_time=12
type: note_off, time: 0, actual_time: 60
type=note_on channel=5 note=52 velocity=0 time=48 actual_time=60768
type=note_on channel=5 note=52 velocity=0 time=0 actual_time=60768
type=note_on channel=5 note=47 velocity=80 time=12 actual_time=8
type: note_off, time: 12, actual_time: 56
type=note_on channel=5 note=47 velocity=80 time=0 actual_time=0
type: note_off, time: 0, actual_time: 48
type=note_on channel=5 note=50 velocity=0 time=48 actual_time=60828
type=note_on channel=5 note=50 velocity=0 time=0 actual_time=60828
type=note_on channel=5 note=52 velocity=80 time=12 actual_time=4
type: note_off, time: 12, actual_time: 52
type=note_on channel=5 note=47 velocity=80 time=0 actual_time=8
type: note_off, time: 0, actual_time: 56
type=note_on channel=5 note=52 velocity=0 time=48 actual_time=60888
type=note_on channel=5 note=43 velocity=0 time=0 actual_time=60888
type=note_on channel=5 note=55 velocity=0 time=0 actual_time=60888
type=note_on channel=5 note=52 velocity=0 time=0 actual_time=60888
type=note_on channel=5 note=47 velocity=80 time=12 actual_time=12
type: note_off, time: 12, actual_time: 60
type=note_on channel=5 note=47 velocity=80 time=0 actual_time=4
type: note_off, time: 0, actual_time: 52
type=note_on channel=5 note=47 velocity=80 time=0 actual_time=60900
type: note_off, time: 0, actual_time: 60948
type=note_on channel=5 note=43 velocity=0 time=48 actual_time=60948
type=note_on channel=5 note=50 velocity=0 time=0 actual_time=60948
type=note_on channel=5 note=50 velocity=0 time=0 actual_time=60948
type=note_on channel=5 note=47 velocity=80 time=12 actual_time=4
type: note_off, time: 12, actual_time: 52
type=note_on channel=5 note=47 velocity=80 time=0 actual_time=12
type: note_off, time: 0, actual_time: 60
type=note_on channel=5 note=47 velocity=80 time=0 actual_time=8
type: note_off, time: 0, actual_time: 476
type=note_on channel=5 note=47 velocity=80 time=0 actual_time=12
type: note_off, time: 0, actual_time: 480
type=note_on channel=5 note=50 velocity=0 time=48 actual_time=61008
type=note_on channel=5 note=50 velocity=0 time=0 actual_time=61008
type=note_on channel=5 note=49 velocity=80 time=12 actual_time=4
type: note_off, time: 12, actual_time: 52
type=note_on channel=5 note=47 velocity=80 time=0 actual_time=4
type: note_off, time: 0, actual_time: 52
type=note_on channel=5 note=49 velocity=0 time=48 actual_time=61068
type=note_on channel=5 note=49 velocity=0 time=0 actual_time=61068
type=note_on channel=5 note=47 velocity=80 time=12 actual_time=4
type: note_off, time: 12, actual_time: 52
type=note_on channel=5 note=50 velocity=80 time=0 actual_time=0
type: note_off, time: 0, actual_time: 48
type=note_on channel=5 note=50 velocity=0 time=48 actual_time=61128
type=note_on channel=5 note=50 velocity=0 time=0 actual_time=61128
type=note_on channel=5 note=47 velocity=80 time=12 actual_time=8
type: note_off, time: 12, actual_time: 56
type=note_on channel=5 note=47 velocity=80 time=0 actual_time=61140
type: note_off, time: 0, actual_time: 61188
type=note_on channel=5 note=49 velocity=0 time=48 actual_time=61188
type=note_on channel=5 note=49 velocity=0 time=0 actual_time=61188
type=note_on channel=5 note=47 velocity=80 time=12 actual_time=4
type: note_off, time: 12, actual_time: 52
type=note_on channel=5 note=47 velocity=80 time=0 actual_time=61200
type: note_off, time: 0, actual_time: 61248
type=note_on channel=5 note=50 velocity=0 time=48 actual_time=61248
type=note_on channel=5 note=50 velocity=0 time=0 actual_time=61248
type=note_on channel=5 note=47 velocity=80 time=12 actual_time=61260
type: note_off, time: 12, actual_time: 61308
type=note_on channel=5 note=47 velocity=80 time=0 actual_time=8
type: note_off, time: 0, actual_time: 56
type=note_on channel=5 note=49 velocity=0 time=48 actual_time=61308
type=note_on channel=5 note=49 velocity=0 time=0 actual_time=61308
type=note_on channel=5 note=47 velocity=80 time=12 actual_time=0
type: note_off, time: 12, actual_time: 48
type=note_on channel=5 note=50 velocity=80 time=0 actual_time=0
type: note_off, time: 0, actual_time: 48
type=note_on channel=5 note=50 velocity=0 time=48 actual_time=61368
type=note_on channel=5 note=50 velocity=0 time=0 actual_time=61368
type=note_on channel=5 note=47 velocity=80 time=12 actual_time=0
type: note_off, time: 12, actual_time: 48
type=note_on channel=5 note=47 velocity=80 time=0 actual_time=0
type: note_off, time: 0, actual_time: 48
type=note_on channel=5 note=45 velocity=0 time=48 actual_time=61428
type=note_on channel=5 note=45 velocity=0 time=0 actual_time=61428
type=note_on channel=5 note=57 velocity=0 time=0 actual_time=61428
type=note_on channel=5 note=45 velocity=0 time=0 actual_time=61428
type=note_on channel=5 note=64 velocity=80 time=12 actual_time=12
type: note_off, time: 12, actual_time: 7500
type=note_on channel=5 note=54 velocity=80 time=0 actual_time=8
type: note_off, time: 0, actual_time: 7496
type=note_on channel=5 note=44 velocity=80 time=0 actual_time=61440
type: note_off, time: 0, actual_time: 68928
type=note_on channel=5 note=47 velocity=0 time=7488 actual_time=68928
type=note_on channel=5 note=54 velocity=0 time=0 actual_time=68928
type=note_on channel=5 note=59 velocity=0 time=0 actual_time=68928
type=note_on channel=5 note=47 velocity=80 time=3552 actual_time=4
type: note_off, time: 3552, actual_time: 36
type=note_on channel=5 note=47 velocity=80 time=0 actual_time=72480
type: note_off, time: 0, actual_time: 72512
type=note_on channel=5 note=45 velocity=0 time=32 actual_time=72512
type=note_on channel=5 note=52 velocity=0 time=0 actual_time=72512
type=note_on channel=5 note=48 velocity=80 time=8 actual_time=8
type: note_off, time: 8, actual_time: 40
type=note_on channel=5 note=47 velocity=80 time=0 actual_time=0
type: note_off, time: 0, actual_time: 32
type=note_on channel=5 note=45 velocity=0 time=32 actual_time=72552
type=note_on channel=5 note=52 velocity=0 time=0 actual_time=72552
type=note_on channel=5 note=45 velocity=80 time=8 actual_time=8
type: note_off, time: 8, actual_time: 40
type=note_on channel=5 note=47 velocity=80 time=0 actual_time=0
type: note_off, time: 0, actual_time: 32
type=note_on channel=5 note=52 velocity=0 time=32 actual_time=72592
type=note_on channel=5 note=45 velocity=0 time=0 actual_time=72592
type=note_on channel=5 note=47 velocity=80 time=8 actual_time=12
type: note_off, time: 8, actual_time: 44
type=note_on channel=5 note=47 velocity=80 time=0 actual_time=72600
type: note_off, time: 0, actual_time: 72632
type=note_on channel=5 note=45 velocity=0 time=32 actual_time=72632
type=note_on channel=5 note=52 velocity=0 time=0 actual_time=72632
type=note_on channel=5 note=47 velocity=80 time=8 actual_time=4
type: note_off, time: 8, actual_time: 36
type=note_on channel=5 note=47 velocity=80 time=0 actual_time=72640
type: note_off, time: 0, actual_time: 72672
type=note_on channel=5 note=45 velocity=0 time=32 actual_time=72672
type=note_on channel=5 note=52 velocity=0 time=0 actual_time=72672
type=note_on channel=5 note=47 velocity=80 time=8 actual_time=12
type: note_off, time: 8, actual_time: 44
type=note_on channel=5 note=47 velocity=80 time=0 actual_time=4
type: note_off, time: 0, actual_time: 36
type=note_on channel=5 note=45 velocity=0 time=32 actual_time=72712
type=note_on channel=5 note=52 velocity=0 time=0 actual_time=72712
type=note_on channel=5 note=52 velocity=80 time=8 actual_time=4
type: note_off, time: 8, actual_time: 36
type=note_on channel=5 note=47 velocity=80 time=0 actual_time=72720
type: note_off, time: 0, actual_time: 72752
type=note_on channel=5 note=45 velocity=0 time=32 actual_time=72752
type=note_on channel=5 note=52 velocity=0 time=0 actual_time=72752
type=note_on channel=5 note=47 velocity=80 time=8 actual_time=12
type: note_off, time: 8, actual_time: 44
type=note_on channel=5 note=47 velocity=80 time=0 actual_time=12
type: note_off, time: 0, actual_time: 44
type=note_on channel=5 note=45 velocity=0 time=32 actual_time=72792
type=note_on channel=5 note=52 velocity=0 time=0 actual_time=72792
type=note_on channel=5 note=47 velocity=80 time=8 actual_time=8
type: note_off, time: 8, actual_time: 40
type=note_on channel=5 note=47 velocity=80 time=0 actual_time=0
type: note_off, time: 0, actual_time: 32
type=note_on channel=5 note=52 velocity=0 time=32 actual_time=72832
type=note_on channel=5 note=45 velocity=0 time=0 actual_time=72832
type=note_on channel=5 note=40 velocity=80 time=8 actual_time=72840
type: note_off, time: 8, actual_time: 72872
type=note_on channel=5 note=47 velocity=80 time=0 actual_time=4
type: note_off, time: 0, actual_time: 36
type=note_on channel=5 note=52 velocity=0 time=32 actual_time=72872
type=note_on channel=5 note=45 velocity=0 time=0 actual_time=72872
type=note_on channel=5 note=47 velocity=80 time=8 actual_time=72880
type: note_off, time: 8, actual_time: 72912
type=note_on channel=5 note=47 velocity=80 time=0 actual_time=8
type: note_off, time: 0, actual_time: 40
type=note_on channel=5 note=45 velocity=0 time=32 actual_time=72912
type=note_on channel=5 note=52 velocity=0 time=0 actual_time=72912
type=note_on channel=5 note=47 velocity=80 time=8 actual_time=0
type: note_off, time: 8, actual_time: 32
type=note_on channel=5 note=47 velocity=80 time=0 actual_time=12
type: note_off, time: 0, actual_time: 44
type=note_on channel=5 note=45 velocity=0 time=32 actual_time=72952
type=note_on channel=5 note=52 velocity=0 time=0 actual_time=72952
type=note_on channel=5 note=52 velocity=80 time=8 actual_time=8
type: note_off, time: 8, actual_time: 104
type=note_on channel=5 note=59 velocity=80 time=0 actual_time=8
type: note_off, time: 0, actual_time: 104
type=note_on channel=5 note=46 velocity=80 time=0 actual_time=8
type: note_off, time: 0, actual_time: 104
type=note_on channel=5 note=47 velocity=0 time=96 actual_time=73056
type=note_on channel=5 note=59 velocity=0 time=0 actual_time=73056
type=note_on channel=5 note=54 velocity=0 time=0 actual_time=73056
type=note_on channel=5 note=47 velocity=80 time=24 actual_time=73080
type: note_off, time: 24, actual_time: 73128
type=note_on channel=5 note=49 velocity=80 time=0 actual_time=73080
type: note_off, time: 0, actual_time: 73128
type=note_on channel=5 note=47 velocity=0 time=48 actual_time=73128
type=note_on channel=5 note=54 velocity=0 time=0 actual_time=73128
type=note_on channel=5 note=47 velocity=80 time=12 actual_time=4
type: note_off, time: 12, actual_time: 52
type=note_on channel=5 note=47 velocity=80 time=0 actual_time=73140
type: note_off, time: 0, actual_time: 73188
type=note_on channel=5 note=47 velocity=0 time=48 actual_time=73188
type=note_on channel=5 note=54 velocity=0 time=0 actual_time=73188
type=note_on channel=5 note=47 velocity=80 time=12 actual_time=4
type: note_off, time: 12, actual_time: 100
type=note_on channel=5 note=47 velocity=80 time=0 actual_time=0
type: note_off, time: 0, actual_time: 96
type=note_on channel=5 note=47 velocity=80 time=0 actual_time=0
type: note_off, time: 0, actual_time: 96
type=note_on channel=5 note=54 velocity=0 time=96 actual_time=73296
type=note_on channel=5 note=59 velocity=0 time=0 actual_time=73296
type=note_on channel=5 note=47 velocity=0 time=0 actual_time=73296
type=note_on channel=5 note=47 velocity=80 time=24 actual_time=12
type: note_off, time: 24, actual_time: 60
type=note_on channel=5 note=47 velocity=80 time=0 actual_time=73320
type: note_off, time: 0, actual_time: 73368
type=note_on channel=5 note=54 velocity=0 time=48 actual_time=73368
type=note_on channel=5 note=47 velocity=0 time=0 actual_time=73368
type=note_on channel=5 note=47 velocity=80 time=12 actual_time=4
type: note_off, time: 12, actual_time: 52
type=note_on channel=5 note=47 velocity=80 time=0 actual_time=12
type: note_off, time: 0, actual_time: 60
type=note_on channel=5 note=54 velocity=0 time=48 actual_time=73428
type=note_on channel=5 note=47 velocity=0 time=0 actual_time=73428
type=note_on channel=5 note=48 velocity=80 time=12 actual_time=73440
type: note_off, time: 12, actual_time: 73536
type=note_on channel=5 note=64 velocity=80 time=0 actual_time=73440
type: note_off, time: 0, actual_time: 73536
type=note_on channel=5 note=47 velocity=80 time=0 actual_time=4
type: note_off, time: 0, actual_time: 100
type=note_on channel=5 note=54 velocity=0 time=96 actual_time=73536
type=note_on channel=5 note=59 velocity=0 time=0 actual_time=73536
type=note_on channel=5 note=47 velocity=0 time=0 actual_time=73536
type=note_on channel=5 note=47 velocity=80 time=24 actual_time=0
type: note_off, time: 24, actual_time: 48
type=note_on channel=5 note=55 velocity=80 time=0 actual_time=12
type: note_off, time: 0, actual_time: 60
type=note_on channel=5 note=54 velocity=0 time=48 actual_time=73608
type=note_on channel=5 note=47 velocity=0 time=0 actual_time=73608
type=note_on channel=5 note=50 velocity=80 time=12 actual_time=0
type: note_off, time: 12, actual_time: 48
type=note_on channel=5 note=50 velocity=80 time=0 actual_time=4
type: note_off, time: 0, actual_time: 52
type=note_on channel=5 note=54 velocity=0 time=48 actual_time=73668
type=note_on channel=5 note=47 velocity=0 time=0 actual_time=73668
type=note_on channel=5 note=47 velocity=80 time=12 actual_time=0
type: note_off, time: 12, actual_time: 96
type=note_on channel=5 note=47 velocity=80 time=0 actual_time=12
type: note_off, time: 0, actual_time: 108
type=note_on channel=5 note=47 velocity=80 time=0 actual_time=73680
type: note_off, time: 0, actual_time: 73776
type=note_on channel=5 note=54 velocity=0 time=96 actual_time=73776
type=note_on channel=5 note=59 velocity=0 time=0 actual_time=73776
type=note_on channel=5 note=47 velocity=0 time=0 actual_time=73776
type=note_on channel=5 note=47 velocity=80 time=24 actual_time=73800
type: note_off, time: 24, actual_time: 73848
type=note_on channel=5 note=47 velocity=80 time=0 actual_time=4
type: note_off, time: 0, actual_time: 52
type=note_on channel=5 note=54 velocity=0 time=48 actual_time=73848
type=note_on channel=5 note=47 velocity=0 time=0 actual_time=73848
type=note_on channel=5 note=47 velocity=80 time=12 actual_time=12
type: note_off, time: 12, actual_time: 60
type=note_on channel=5 note=47 velocity=80 time=0 actual_time=12
type: note_off, time: 0, actual_time: 60
type=note_on channel=5 note=54 velocity=0 time=48 actual_time=73908
type=note_on channel=5 note=47 velocity=0 time=0 actual_time=73908
type=note_on channel=5 note=47 velocity=80 time=12 actual_time=4
type: note_off, time: 12, actual_time: 100
type=note_on channel=5 note=47 velocity=80 time=0 actual_time=8
type: note_off, time: 0, actual_time: 104
type=note_on channel=5 note=47 velocity=80 time=0 actual_time=12
type: note_off, time: 0, actual_time: 108
type=note_on channel=5 note=50 velocity=0 time=96 actual_time=74016
type=note_on channel=5 note=55 velocity=0 time=0 actual_time=74016
type=note_on channel=5 note=43 velocity=0 time=0 actual_time=74016
type=note_on channel=5 note=43 velocity=80 time=24 actual_time=8
type: note_off, time: 24, actual_time: 56
type=note_on channel=5 note=47 velocity=80 time=0 actual_time=4
type: note_off, time: 0, actual_time: 52
type=note_on channel=5 note=50 velocity=0 time=48 actual_time=74088
type=note_on channel=5 note=43 velocity=0 time=0 actual_time=74088
type=note_on channel=5 note=47 velocity=80 time=12 actual_time=74100
type: note_off, time: 12, actual_time: 74148
type=note_on channel=5 note=50 velocity=80 time=0 actual_time=8
type: note_off, time: 0, actual_time: 56
type=note_on channel=5 note=50 velocity=0 time=48 actual_time=74148
type=note_on channel=5 note=43 velocity=0 time=0 actual_time=74148
type=note_on channel=5 note=47 velocity=80 time=12 actual_time=12
type: note_off, time: 12, actual_time: 108
type=note_on channel=5 note=47 velocity=80 time=0 actual_time=4
type: note_off, time: 0, actual_time: 100
type=note_on channel=5 note=47 velocity=80 time=0 actual_time=4
type: note_off, time: 0, actual_time: 100
type=note_on channel=5 note=50 velocity=0 time=96 actual_time=74256
type=note_on channel=5 note=55 velocity=0 time=0 actual_time=74256
type=note_on channel=5 note=43 velocity=0 time=0 actual_time=74256
type=note_on channel=5 note=47 velocity=80 time=24 actual_time=74280
type: note_off, time: 24, actual_time: 74328
type=note_on channel=5 note=47 velocity=80 time=0 actual_time=8
type: note_off, time: 0, actual_time: 56
type=note_on channel=5 note=50 velocity=0 time=48 actual_time=74328
type=note_on channel=5 note=43 velocity=0 time=0 actual_time=74328
type=note_on channel=5 note=47 velocity=80 time=12 actual_time=74340
type: note_off, time: 12, actual_time: 74388
type=note_on channel=5 note=47 velocity=80 time=0 actual_time=74340
type: note_off, time: 0, actual_time: 74388
type=note_on channel=5 note=50 velocity=0 time=48 actual_time=74388
type=note_on channel=5 note=43 velocity=0 time=0 actual_time=74388
type=note_on channel=5 note=47 velocity=80 time=12 actual_time=12
type: note_off, time: 12, actual_time: 108
type=note_on channel=5 note=57 velocity=80 time=0 actual_time=74400
type: note_off, time: 0, actual_time: 74496
type=note_on channel=5 note=47 velocity=80 time=0 actual_time=8
type: note_off, time: 0, actual_time: 104
type=note_on channel=5 note=52 velocity=0 time=96 actual_time=74496
type=note_on channel=5 note=57 velocity=0 time=0 actual_time=74496
type=note_on channel=5 note=45 velocity=0 time=0 actual_time=74496
type=note_on channel=5 note=49 velocity=80 time=24 actual_time=12
type: note_off, time: 24, actual_time: 60
type=note_on channel=5 note=52 velocity=80 time=0 actual_time=8
type: note_off, time: 0, actual_time: 56
type=note_on channel=5 note=52 velocity=0 time=48 actual_time=74568
type=note_on channel=5 note=45 velocity=0 time=0 actual_time=74568
type=note_on channel=5 note=47 velocity=80 time=12 actual_time=4
type: note_off, time: 12, actual_time: 52
type=note_on channel=5 note=47 velocity=80 time=0 actual_time=0
type: note_off, time: 0, actual_time: 48
type=note_on channel=5 note=52 velocity=0 time=48 actual_time=74628
type=note_on channel=5 note=45 velocity=0 time=0 actual_time=74628
type=note_on channel=5 note=45 velocity=80 time=12 actual_time=8
type: note_off, time: 12, actual_time: 104
type=note_on channel=5 note=47 velocity=80 time=0 actual_time=0
type: note_off, time: 0, actual_time: 96
type=note_on channel=5 note=47 velocity=80 time=0 actual_time=74640
type: note_off, time: 0, actual_time: 74736
type=note_on channel=5 note=52 velocity=0 time=96 actual_time=74736
type=note_on channel=5 note=57 velocity=0 time=0 actual_time=74736
type=note_on channel=5 note=45 velocity=0 time=0 actual_time=74736
type=note_on channel=5 note=47 velocity=80 time=24 actual_time=0
type: note_off, time: 24, actual_time: 48
type=note_on channel=5 note=47 velocity=80 time=0 actual_time=8
type: note_off, time: 0, actual_time: 56
type=note_on channel=5 note=52 velocity=0 time=48 actual_time=74808
type=note_on channel=5 note=45 velocity=0 time=0 actual_time=74808
type=note_on channel=5 note=47 velocity=80 time=12 actual_time=4
type: note_off, time: 12, actual_time: 52
type=note_on channel=5 note=47 velocity=80 time=0 actual_time=12
type: note_off, time: 0, actual_time: 60
type=note_on channel=5 note=52 velocity=0 time=48 actual_time=74868
type=note_on channel=5 note=45 velocity=0 time=0 actual_time=74868
type=note_on channel=5 note=47 velocity=80 time=12 actual_time=8
type: note_off, time: 12, actual_time: 104
type=note_on channel=5 note=59 velocity=80 time=0 actual_time=4
type: note_off, time: 0, actual_time: 100
type=note_on channel=5 note=47 velocity=80 time=0 actual_time=74880
type: note_off, time: 0, actual_time: 74976
type=note_on channel=5 note=54 velocity=0 time=96 actual_time=74976
type=note_on channel=5 note=59 velocity=0 time=0 actual_time=74976
type=note_on channel=5 note=47 velocity=0 time=0 actual_time=74976
type=note_on channel=5 note=47 velocity=80 time=24 actual_time=4
type: note_off, time: 24, actual_time: 52
type=note_on channel=5 note=47 velocity=80 time=0 actual_time=8
type: note_off, time: 0, actual_time: 56
type=note_on channel=5 note=54 velocity=0 time=48 actual_time=75048
type=note_on channel=5 note=47 velocity=0 time=0 actual_time=75048
type=note_on channel=5 note=46 velocity=80 time=12 actual_time=8
type: note_off, time: 12, actual_time: 56
type=note_on channel=5 note=47 velocity=80 time=0 actual_time=12
type: note_off, time: 0, actual_time: 60
type=note_on channel=5 note=54 velocity=0 time=48 actual_time=75108
type=note_on channel=5 note=47 velocity=0 time=0 actual_time=75108
type=note_on channel=5 note=47 velocity=80 time=12 actual_time=0
type: note_off, time: 12, actual_time: 96
type=note_on channel=5 note=47 velocity=80 time=0 actual_time=4
type: note_off, time: 0, actual_time: 100
type=note_on channel=5 note=47 velocity=80 time=0 actual_time=4
type: note_off, time: 0, actual_time: 100
type=note_on channel=5 note=47 velocity=0 time=96 actual_time=75216
type=note_on channel=5 note=59 velocity=0 time=0 actual_time=75216
type=note_on channel=5 note=54 velocity=0 time=0 actual_time=75216
type=note_on channel=5 note=54 velocity=80 time=24 actual_time=4
type: note_off, time: 24, actual_time: 52
type=note_on channel=5 note=47 velocity=80 time=0 actual_time=4
type: note_off, time: 0, actual_time: 52
type=note_on channel=5 note=47 velocity=0 time=48 actual_time=75288
type=note_on channel=5 note=54 velocity=0 time=0 actual_time=75288
type=note_on channel=5 note=47 velocity=80 time=12 actual_time=8
type: note_off, time: 12, actual_time: 56
type=note_on channel=5 note=47 velocity=80 time=0 actual_time=0
type: note_off, time: 0, actual_time: 48
type=note_on channel=5 note=47 velocity=0 time=48 actual_time=75348
type=note_on channel=5 note=54 velocity=0 time=0 actual_time=75348
type=note_on channel=5 note=47 velocity=80 time=12 actual_time=8
type: note_off, time: 12, actual_time: 104
type=note_on channel=5 note=59 velocity=80 time=0 actual_time=4
type: note_off, time: 0, actual_time: 100
type=note_on channel=5 note=47 velocity=80 time=0 actual_time=75360
type: note_off, time: 0, actual_time: 75456
type=note_on channel=5 note=47 velocity=0 time=96 actual_time=75456
type=note_on channel=5 note=59 velocity=0 time=0 actual_time=75456
type=note_on channel=5 note=54 velocity=0 time=0 actual_time=75456
type=note_on channel=5 note=47 velocity=80 time=24 actual_time=4
type: note_off, time: 24, actual_time: 52
type=note_on channel=5 note=47 velocity=80 time=0 actual_time=75480
type: note_off, time: 0, actual_time: 75528
type=note_on channel=5 note=47 velocity=0 time=48 actual_time=75528
type=note_on channel=5 note=54 velocity=0 time=0 actual_time=75528
type=note_on channel=5 note=47 velocity=80 time=12 actual_time=75540
type: note_off, time: 12, actual_time: 75588
type=note_on channel=5 note=47 velocity=80 time=0 actual_time=75540
type: note_off, time: 0, actual_time: 75588
type=note_on channel=5 note=47 velocity=0 time=48 actual_time=75588
type=note_on channel=5 note=54 velocity=0 time=0 actual_time=75588
type=note_on channel=5 note=47 velocity=80 time=12 actual_time=12
type: note_off, time: 12, actual_time: 108
type=note_on channel=5 note=47 velocity=80 time=0 actual_time=75600
type: note_off, time: 0, actual_time: 75696
type=note_on channel=5 note=47 velocity=80 time=0 actual_time=75600
type: note_off, time: 0, actual_time: 75696
type=note_on channel=5 note=47 velocity=0 time=96 actual_time=75696
type=note_on channel=5 note=59 velocity=0 time=0 actual_time=75696
type=note_on channel=5 note=54 velocity=0 time=0 actual_time=75696
type=note_on channel=5 note=54 velocity=80 time=24 actual_time=4
type: note_off, time: 24, actual_time: 52
type=note_on channel=5 note=47 velocity=80 time=0 actual_time=12
type: note_off, time: 0, actual_time: 60
type=note_on channel=5 note=47 velocity=0 time=48 actual_time=75768
type=note_on channel=5 note=54 velocity=0 time=0 actual_time=75768
type=note_on channel=5 note=47 velocity=80 time=12 actual_time=12
type: note_off, time: 12, actual_time: 60
type=note_on channel=5 note=47 velocity=80 time=0 actual_time=4
type: note_off, time: 0, actual_time: 52
type=note_on channel=5 note=47 velocity=0 time=48 actual_time=75828
type=note_on channel=5 note=54 velocity=0 time=0 actual_time=75828
type=note_on channel=5 note=47 velocity=80 time=12 actual_time=4
type: note_off, time: 12, actual_time: 100
type=note_on channel=5 note=47 velocity=80 time=0 actual_time=4
type: note_off, time: 0, actual_time: 100
type=note_on channel=5 note=40 velocity=80 time=0 actual_time=0
type: note_off, time: 0, actual_time: 96
type=note_on channel=5 note=40 velocity=0 time=96 actual_time=75936
type=note_on channel=5 note=52 velocity=0 time=0 actual_time=75936
type=note_on channel=5 note=47 velocity=0 time=0 actual_time=75936
type=note_on channel=5 note=47 velocity=80 time=24 actual_time=75960
type: note_off, time: 24, actual_time: 76008
type=note_on channel=5 note=47 velocity=80 time=0 actual_time=8
type: note_off, time: 0, actual_time: 56
type=note_on channel=5 note=40 velocity=0 time=48 actual_time=76008
type=note_on channel=5 note=47 velocity=0 time=0 actual_time=76008
type=note_on channel=5 note=47 velocity=80 time=12 actual_time=76020
type: note_off, time: 12, actual_time: 76068
type=note_on channel=5 note=47 velocity=80 time=0 actual_time=12
type: note_off, time: 0, actual_time: 60
type=note_on channel=5 note=40 velocity=0 time=48 actual_time=76068
type=note_on channel=5 note=47 velocity=0 time=0 actual_time=76068
type=note_on channel=5 note=47 velocity=80 time=12 actual_time=76080
type: note_off, time: 12, actual_time: 76176
type=note_on channel=5 note=47 velocity=80 time=0 actual_time=0
type: note_off, time: 0, actual_time: 96
type=note_on channel=5 note=40 velocity=80 time=0 actual_time=4
type: note_off, time: 0, actual_time: 100
type=note_on channel=5 note=40 velocity=0 time=96 actual_time=76176
type=note_on channel=5 note=52 velocity=0 time=0 actual_time=76176
type=note_on channel=5 note=47 velocity=0 time=0 actual_time=76176
type=note_on channel=5 note=47 velocity=80 time=24 actual_time=76200
type: note_off, time: 24, actual_time: 76248
type=note_on channel=5 note=47 velocity=80 time=0 actual_time=4
type: note_off, time: 0, actual_time: 52
type=note_on channel=5 note=40 velocity=0 time=48 actual_time=76248
type=note_on channel=5 note=47 velocity=0 time=0 actual_time=76248
type=note_on channel=5 note=47 velocity=80 time=12 actual_time=12
type: note_off, time: 12, actual_time: 60
type=note_on channel=5 note=47 velocity=80 time=0 actual_time=4
type: note_off, time: 0, actual_time: 52
type=note_on channel=5 note=40 velocity=0 time=48 actual_time=76308
type=note_on channel=5 note=47 velocity=0 time=0 actual_time=76308
type=note_on channel=5 note=49 velocity=80 time=12 actual_time=12
type: note_off, time: 12, actual_time: 108
type=note_on channel=5 note=47 velocity=80 time=0 actual_time=76320
type: note_off, time: 0, actual_time: 76416
type=note_on channel=5 note=38 velocity=80 time=0 actual_time=76320
type: note_off, time: 0, actual_time: 76416
type=note_on channel=5 note=42 velocity=0 time=96 actual_time=76416
type=note_on channel=5 note=54 velocity=0 time=0 actual_time=76416
type=note_on channel=5 note=49 velocity=0 time=0 actual_time=76416
type=note_on channel=5 note=47 velocity=80 time=24 actual_time=76440
type: note_off, time: 24, actual_time: 76488
type=note_on channel=5 note=47 velocity=80 time=0 actual_time=8
type: note_off, time: 0, actual_time: 56
type=note_on channel=5 note=42 velocity=0 time=48 actual_time=76488
type=note_on channel=5 note=49 velocity=0 time=0 actual_time=76488
type=note_on channel=5 note=47 velocity=80 time=12 actual_time=76500
type: note_off, time: 12, actual_time: 76548
type=note_on channel=5 note=47 velocity=80 time=0 actual_time=76500
type: note_off, time: 0, actual_time: 76548
type=note_on channel=5 note=42 velocity=0 time=48 actual_time=76548
type=note_on channel=5 note=49 velocity=0 time=0 actual_time=76548
type=note_on channel=5 note=47 velocity=80 time=12 actual_time=76560
type: note_off, time: 12, actual_time: 76656
type=note_on channel=5 note=47 velocity=80 time=0 actual_time=4
type: note_off, time: 0, actual_time: 100
type=note_on channel=5 note=42 velocity=80 time=0 actual_time=4
type: note_off, time: 0, actual_time: 100
type=note_on channel=5 note=42 velocity=0 time=96 actual_time=76656
type=note_on channel=5 note=54 velocity=0 time=0 actual_time=76656
type=note_on channel=5 note=49 velocity=0 time=0 actual_time=76656
type=note_on channel=5 note=47 velocity=80 time=24 actual_time=12
type: note_off, time: 24, actual_time: 60
type=note_on channel=5 note=47 velocity=80 time=0 actual_time=8
type: note_off, time: 0, actual_time: 56
type=note_on channel=5 note=42 velocity=0 time=48 actual_time=76728
type=note_on channel=5 note=49 velocity=0 time=0 actual_time=76728
type=note_on channel=5 note=47 velocity=80 time=12 actual_time=8
type: note_off, time: 12, actual_time: 56
type=note_on channel=5 note=47 velocity=80 time=0 actual_time=8
type: note_off, time: 0, actual_time: 56
type=note_on channel=5 note=42 velocity=0 time=48 actual_time=76788
type=note_on channel=5 note=49 velocity=0 time=0 actual_time=76788
type=note_on channel=5 note=47 velocity=80 time=12 actual_time=8
type: note_off, time: 12, actual_time: 104
type=note_on channel=5 note=47 velocity=80 time=0 actual_time=4
type: note_off, time: 0, actual_time: 100
type=note_on channel=5 note=47 velocity=80 time=0 actual_time=0
type: note_off, time: 0, actual_time: 96
type=note_on channel=5 note=47 velocity=0 time=96 actual_time=76896
type=note_on channel=5 note=59 velocity=0 time=0 actual_time=76896
type=note_on channel=5 note=54 velocity=0 time=0 actual_time=76896
type=note_on channel=5 note=50 velocity=80 time=24 actual_time=76920
type: note_off, time: 24, actual_time: 76968
type=note_on channel=5 note=47 velocity=80 time=0 actual_time=8
type: note_off, time: 0, actual_time: 56
type=note_on channel=5 note=47 velocity=0 time=48 actual_time=76968
type=note_on channel=5 note=54 velocity=0 time=0 actual_time=76968
type=note_on channel=5 note=47 velocity=80 time=12 actual_time=76980
type: note_off, time: 12, actual_time: 77028
type=note_on channel=5 note=47 velocity=80 time=0 actual_time=12
type: note_off, time: 0, actual_time: 60
type=note_on channel=5 note=47 velocity=0 time=48 actual_time=77028
type=note_on channel=5 note=54 velocity=0 time=0 actual_time=77028
type=note_on channel=5 note=47 velocity=80 time=12 actual_time=8
type: note_off, time: 12, actual_time: 104
type=note_on channel=5 note=62 velocity=80 time=0 actual_time=4
type: note_off, time: 0, actual_time: 100
type=note_on channel=5 note=54 velocity=80 time=0 actual_time=0
type: note_off, time: 0, actual_time: 96
type=note_on channel=5 note=54 velocity=0 time=96 actual_time=77136
type=note_on channel=5 note=59 velocity=0 time=0 actual_time=77136
type=note_on channel=5 note=47 velocity=0 time=0 actual_time=77136
type=note_on channel=5 note=51 velocity=80 time=24 actual_time=77160
type: note_off, time: 24, actual_time: 77208
type=note_on channel=5 note=54 velocity=80 time=0 actual_time=8
type: note_off, time: 0, actual_time: 56
type=note_on channel=5 note=54 velocity=0 time=48 actual_time=77208
type=note_on channel=5 note=47 velocity=0 time=0 actual_time=77208
type=note_on channel=5 note=47 velocity=80 time=12 actual_time=4
type: note_off, time: 12, actual_time: 52
type=note_on channel=5 note=54 velocity=80 time=0 actual_time=8
type: note_off, time: 0, actual_time: 56
type=note_on channel=5 note=54 velocity=0 time=48 actual_time=77268
type=note_on channel=5 note=47 velocity=0 time=0 actual_time=77268
type=note_on channel=5 note=47 velocity=80 time=12 actual_time=12
type: note_off, time: 12, actual_time: 108
type=note_on channel=5 note=47 velocity=80 time=0 actual_time=12
type: note_off, time: 0, actual_time: 108
type=note_on channel=5 note=51 velocity=80 time=0 actual_time=0
type: note_off, time: 0, actual_time: 96
type=note_on channel=5 note=54 velocity=0 time=96 actual_time=77376
type=note_on channel=5 note=59 velocity=0 time=0 actual_time=77376
type=note_on channel=5 note=47 velocity=0 time=0 actual_time=77376
type=note_on channel=5 note=46 velocity=80 time=24 actual_time=8
type: note_off, time: 24, actual_time: 56
type=note_on channel=5 note=54 velocity=80 time=0 actual_time=12
type: note_off, time: 0, actual_time: 60
type=note_on channel=5 note=54 velocity=0 time=48 actual_time=77448
type=note_on channel=5 note=47 velocity=0 time=0 actual_time=77448
type=note_on channel=5 note=47 velocity=80 time=12 actual_time=0
type: note_off, time: 12, actual_time: 48
type=note_on channel=5 note=47 velocity=80 time=0 actual_time=77460
type: note_off, time: 0, actual_time: 77508
type=note_on channel=5 note=54 velocity=0 time=48 actual_time=77508
type=note_on channel=5 note=47 velocity=0 time=0 actual_time=77508
type=note_on channel=5 note=47 velocity=80 time=12 actual_time=0
type: note_off, time: 12, actual_time: 96
type=note_on channel=5 note=47 velocity=80 time=0 actual_time=8
type: note_off, time: 0, actual_time: 104
type=note_on channel=5 note=47 velocity=80 time=0 actual_time=77520
type: note_off, time: 0, actual_time: 77616
type=note_on channel=5 note=54 velocity=0 time=96 actual_time=77616
type=note_on channel=5 note=59 velocity=0 time=0 actual_time=77616
type=note_on channel=5 note=47 velocity=0 time=0 actual_time=77616
type=note_on channel=5 note=47 velocity=80 time=24 actual_time=12
type: note_off, time: 24, actual_time: 60
type=note_on channel=5 note=53 velocity=80 time=0 actual_time=12
type: note_off, time: 0, actual_time: 60
type=note_on channel=5 note=54 velocity=0 time=48 actual_time=77688
type=note_on channel=5 note=47 velocity=0 time=0 actual_time=77688
type=note_on channel=5 note=47 velocity=80 time=12 actual_time=77700
type: note_off, time: 12, actual_time: 77748
type=note_on channel=5 note=54 velocity=80 time=0 actual_time=77700
type: note_off, time: 0, actual_time: 77748
type=note_on channel=5 note=54 velocity=0 time=48 actual_time=77748
type=note_on channel=5 note=47 velocity=0 time=0 actual_time=77748
type=note_on channel=5 note=47 velocity=80 time=12 actual_time=0
type: note_off, time: 12, actual_time: 96
type=note_on channel=5 note=47 velocity=80 time=0 actual_time=77760
type: note_off, time: 0, actual_time: 77856
type=note_on channel=5 note=47 velocity=80 time=0 actual_time=77760
type: note_off, time: 0, actual_time: 77856
type=note_on channel=5 note=50 velocity=0 time=96 actual_time=77856
type=note_on channel=5 note=55 velocity=0 time=0 actual_time=77856
type=note_on channel=5 note=43 velocity=0 time=0 actual_time=77856
type=note_on channel=5 note=47 velocity=80 time=24 actual_time=0
type: note_off, time: 24, actual_time: 48
type=note_on channel=5 note=50 velocity=80 time=0 actual_time=0
type: note_off, time: 0, actual_time: 48
type=note_on channel=5 note=50 velocity=0 time=48 actual_time=77928
type=note_on channel=5 note=43 velocity=0 time=0 actual_time=77928
type=note_on channel=5 note=47 velocity=80 time=12 actual_time=12
type: note_off, time: 12, actual_time: 60
type=note_on channel=5 note=47 velocity=80 time=0 actual_time=8
type: note_off, time: 0, actual_time: 56
type=note_on channel=5 note=50 velocity=0 time=48 actual_time=77988
type=note_on channel=5 note=43 velocity=0 time=0 actual_time=77988
type=note_on channel=5 note=43 velocity=80 time=12 actual_time=8
type: note_off, time: 12, actual_time: 104
type=note_on channel=5 note=47 velocity=80 time=0 actual_time=8
type: note_off, time: 0, actual_time: 104
type=note_on channel=5 note=47 velocity=80 time=0 actual_time=12
type: note_off, time: 0, actual_time: 108
type=note_on channel=5 note=50 velocity=0 time=96 actual_time=78096
type=note_on channel=5 note=55 velocity=0 time=0 actual_time=78096
type=note_on channel=5 note=43 velocity=0 time=0 actual_time=78096
type=note_on channel=5 note=47 velocity=80 time=24 actual_time=4
type: note_off, time: 24, actual_time: 52
type=note_on channel=5 note=50 velocity=80 time=0 actual_time=12
type: note_off, time: 0, actual_time: 60
type=note_on channel=5 note=50 velocity=0 time=48 actual_time=78168
type=note_on channel=5 note=43 velocity=0 time=0 actual_time=78168
type=note_on channel=5 note=47 velocity=80 time=12 actual_time=78180
type: note_off, time: 12, actual_time: 78228
type=note_on channel=5 note=47 velocity=80 time=0 actual_time=78180
type: note_off, time: 0, actual_time: 78228
type=note_on channel=5 note=50 velocity=0 time=48 actual_time=78228
type=note_on channel=5 note=43 velocity=0 time=0 actual_time=78228
type=note_on channel=5 note=47 velocity=80 time=12 actual_time=0
type: note_off, time: 12, actual_time: 96
type=note_on channel=5 note=47 velocity=80 time=0 actual_time=12
type: note_off, time: 0, actual_time: 108
type=note_on channel=5 note=47 velocity=80 time=0 actual_time=78240
type: note_off, time: 0, actual_time: 78336
type=note_on channel=5 note=52 velocity=0 time=96 actual_time=78336
type=note_on channel=5 note=57 velocity=0 time=0 actual_time=78336
type=note_on channel=5 note=45 velocity=0 time=0 actual_time=78336
type=note_on channel=5 note=45 velocity=80 time=24 actual_time=12
type: note_off, time: 24, actual_time: 60
type=note_on channel=5 note=47 velocity=80 time=0 actual_time=12
type: note_off, time: 0, actual_time: 60
type=note_on channel=5 note=52 velocity=0 time=48 actual_time=78408
type=note_on channel=5 note=45 velocity=0 time=0 actual_time=78408
type=note_on channel=5 note=45 velocity=80 time=12 actual_time=0
type: note_off, time: 12, actual_time: 48
type=note_on channel=5 note=47 velocity=80 time=0 actual_time=0
type: note_off, time: 0, actual_time: 48
type=note_on channel=5 note=52 velocity=0 time=48 actual_time=78468
type=note_on channel=5 note=45 velocity=0 time=0 actual_time=78468
type=note_on channel=5 note=45 velocity=80 time=12 actual_time=0
type: note_off, time: 12, actual_time: 96
type=note_on channel=5 note=47 velocity=80 time=0 actual_time=4
type: note_off, time: 0, actual_time: 100
type=note_on channel=5 note=47 velocity=80 time=0 actual_time=8
type: note_off, time: 0, actual_time: 104
type=note_on channel=5 note=52 velocity=0 time=96 actual_time=78576
type=note_on channel=5 note=57 velocity=0 time=0 actual_time=78576
type=note_on channel=5 note=45 velocity=0 time=0 actual_time=78576
type=note_on channel=5 note=47 velocity=80 time=24 actual_time=12
type: note_off, time: 24, actual_time: 60
type=note_on channel=5 note=47 velocity=80 time=0 actual_time=4
type: note_off, time: 0, actual_time: 52
type=note_on channel=5 note=52 velocity=0 time=48 actual_time=78648
type=note_on channel=5 note=45 velocity=0 time=0 actual_time=78648
type=note_on channel=5 note=45 velocity=80 time=12 actual_time=8
type: note_off, time: 12, actual_time: 56
type=note_on channel=5 note=52 velocity=80 time=0 actual_time=8
type: note_off, time: 0, actual_time: 56
type=note_on channel=5 note=52 velocity=0 time=48 actual_time=78708
type=note_on channel=5 note=45 velocity=0 time=0 actual_time=78708
type=note_on channel=5 note=47 velocity=80 time=12 actual_time=4
type: note_off, time: 12, actual_time: 100
type=note_on channel=5 note=47 velocity=80 time=0 actual_time=8
type: note_off, time: 0, actual_time: 104
type=note_on channel=5 note=47 velocity=80 time=0 actual_time=4
type: note_off, time: 0, actual_time: 100
type=note_on channel=5 note=47 velocity=0 time=96 actual_time=78816
type=note_on channel=5 note=59 velocity=0 time=0 actual_time=78816
type=note_on channel=5 note=54 velocity=0 time=0 actual_time=78816
type=note_on channel=5 note=54 velocity=80 time=24 actual_time=8
type: note_off, time: 24, actual_time: 56
type=note_on channel=5 note=47 velocity=80 time=0 actual_time=4
type: note_off, time: 0, actual_time: 52
type=note_on channel=5 note=47 velocity=0 time=48 actual_time=78888
type=note_on channel=5 note=54 velocity=0 time=0 actual_time=78888
type=note_on channel=5 note=47 velocity=80 time=12 actual_time=0
type: note_off, time: 12, actual_time: 48
type=note_on channel=5 note=47 velocity=80 time=0 actual_time=78900
type: note_off, time: 0, actual_time: 78948
type=note_on channel=5 note=47 velocity=0 time=48 actual_time=78948
type=note_on channel=5 note=54 velocity=0 time=0 actual_time=78948
type=note_on channel=5 note=47 velocity=80 time=12 actual_time=12
type: note_off, time: 12, actual_time: 108
type=note_on channel=5 note=59 velocity=80 time=0 actual_time=8
type: note_off, time: 0, actual_time: 104
type=note_on channel=5 note=47 velocity=80 time=0 actual_time=8
type: note_off, time: 0, actual_time: 104
type=note_on channel=5 note=54 velocity=0 time=96 actual_time=79056
type=note_on channel=5 note=59 velocity=0 time=0 actual_time=79056
type=note_on channel=5 note=47 velocity=0 time=0 actual_time=79056
type=note_on channel=5 note=47 velocity=80 time=24 actual_time=0
type: note_off, time: 24, actual_time: 48
type=note_on channel=5 note=54 velocity=80 time=0 actual_time=79080
type: note_off, time: 0, actual_time: 79128
type=note_on channel=5 note=54 velocity=0 time=48 actual_time=79128
type=note_on channel=5 note=47 velocity=0 time=0 actual_time=79128
type=note_on channel=5 note=47 velocity=80 time=12 actual_time=8
type: note_off, time: 12, actual_time: 56
type=note_on channel=5 note=54 velocity=80 time=0 actual_time=79140
type: note_off, time: 0, actual_time: 79188
type=note_on channel=5 note=54 velocity=0 time=48 actual_time=79188
type=note_on channel=5 note=47 velocity=0 time=0 actual_time=79188
type=note_on channel=5 note=47 velocity=80 time=12 actual_time=12
type: note_off, time: 12, actual_time: 108
type=note_on channel=5 note=47 velocity=80 time=0 actual_time=79200
type: note_off, time: 0, actual_time: 79296
type=note_on channel=5 note=47 velocity=80 time=0 actual_time=8
type: note_off, time: 0, actual_time: 104
type=note_on channel=5 note=54 velocity=0 time=96 actual_time=79296
type=note_on channel=5 note=59 velocity=0 time=0 actual_time=79296
type=note_on channel=5 note=47 velocity=0 time=0 actual_time=79296
type=note_on channel=5 note=47 velocity=80 time=24 actual_time=79320
type: note_off, time: 24, actual_time: 79368
type=note_on channel=5 note=47 velocity=80 time=0 actual_time=8
type: note_off, time: 0, actual_time: 56
type=note_on channel=5 note=54 velocity=0 time=48 actual_time=79368
type=note_on channel=5 note=47 velocity=0 time=0 actual_time=79368
type=note_on channel=5 note=47 velocity=80 time=12 actual_time=4
type: note_off, time: 12, actual_time: 52
type=note_on channel=5 note=47 velocity=80 time=0 actual_time=4
type: note_off, time: 0, actual_time: 52
type=note_on channel=5 note=54 velocity=0 time=48 actual_time=79428
type=note_on channel=5 note=47 velocity=0 time=0 actual_time=79428
type=note_on channel=5 note=47 velocity=80 time=12 actual_time=79440
type: note_off, time: 12, actual_time: 79536
type=note_on channel=5 note=47 velocity=80 time=0 actual_time=0
type: note_off, time: 0, actual_time: 96
type=note_on channel=5 note=47 velocity=80 time=0 actual_time=79440
type: note_off, time: 0, actual_time: 79536
type=note_on channel=5 note=54 velocity=0 time=96 actual_time=79536
type=note_on channel=5 note=59 velocity=0 time=0 actual_time=79536
type=note_on channel=5 note=47 velocity=0 time=0 actual_time=79536
type=note_on channel=5 note=47 velocity=80 time=24 actual_time=4
type: note_off, time: 24, actual_time: 52
type=note_on channel=5 note=47 velocity=80 time=0 actual_time=0
type: note_off, time: 0, actual_time: 48
type=note_on channel=5 note=54 velocity=0 time=48 actual_time=79608
type=note_on channel=5 note=47 velocity=0 time=0 actual_time=79608
type=note_on channel=5 note=47 velocity=80 time=12 actual_time=79620
type: note_off, time: 12, actual_time: 79668
type=note_on channel=5 note=47 velocity=80 time=0 actual_time=0
type: note_off, time: 0, actual_time: 48
type=note_on channel=5 note=54 velocity=0 time=48 actual_time=79668
type=note_on channel=5 note=47 velocity=0 time=0 actual_time=79668
type=note_on channel=5 note=40 velocity=80 time=12 actual_time=4
type: note_off, time: 12, actual_time: 100
type=note_on channel=5 note=47 velocity=80 time=0 actual_time=12
type: note_off, time: 0, actual_time: 108
type=note_on channel=5 note=47 velocity=80 time=0 actual_time=8
type: note_off, time: 0, actual_time: 104
type=note_on channel=5 note=47 velocity=0 time=96 actual_time=79776
type=note_on channel=5 note=52 velocity=0 time=0 actual_time=79776
type=note_on channel=5 note=40 velocity=0 time=0 actual_time=79776
type=note_on channel=5 note=47 velocity=80 time=24 actual_time=8
type: note_off, time: 24, actual_time: 104
type=note_on channel=5 note=47 velocity=80 time=0 actual_time=8
type: note_off, time: 0, actual_time: 104
type=note_on channel=5 note=47 velocity=80 time=0 actual_time=8
type: note_off, time: 0, actual_time: 104
type=note_on channel=5 note=47 velocity=0 time=96 actual_time=79896
type=note_on channel=5 note=40 velocity=0 time=0 actual_time=79896
type=note_on channel=5 note=52 velocity=0 time=0 actual_time=79896
type=note_on channel=5 note=42 velocity=80 time=24 actual_time=12
type: note_off, time: 24, actual_time: 108
type=note_on channel=5 note=47 velocity=80 time=0 actual_time=79920
type: note_off, time: 0, actual_time: 80016
type=note_on channel=5 note=40 velocity=80 time=0 actual_time=8
type: note_off, time: 0, actual_time: 104
type=note_on channel=5 note=40 velocity=0 time=96 actual_time=80016
type=note_on channel=5 note=52 velocity=0 time=0 actual_time=80016
type=note_on channel=5 note=47 velocity=0 time=0 actual_time=80016
type=note_on channel=5 note=47 velocity=80 time=24 actual_time=80040
type: note_off, time: 24, actual_time: 80136
type=note_on channel=5 note=47 velocity=80 time=0 actual_time=4
type: note_off, time: 0, actual_time: 100
type=note_on channel=5 note=48 velocity=80 time=0 actual_time=0
type: note_off, time: 0, actual_time: 96
type=note_on channel=5 note=52 velocity=0 time=96 actual_time=80136
type=note_on channel=5 note=47 velocity=0 time=0 actual_time=80136
type=note_on channel=5 note=40 velocity=0 time=0 actual_time=80136
type=note_on channel=5 note=42 velocity=80 time=24 actual_time=4
type: note_off, time: 24, actual_time: 100
type=note_on channel=5 note=47 velocity=80 time=0 actual_time=4
type: note_off, time: 0, actual_time: 100
type=note_on channel=5 note=47 velocity=80 time=0 actual_time=12
type: note_off, time: 0, actual_time: 108
type=note_on channel=5 note=49 velocity=0 time=96 actual_time=80256
type=note_on channel=5 note=54 velocity=0 time=0 actual_time=80256
type=note_on channel=5 note=42 velocity=0 time=0 actual_time=80256
type=note_on channel=5 note=47 velocity=80 time=24 actual_time=0
type: note_off, time: 24, actual_time: 96
type=note_on channel=5 note=47 velocity=80 time=0 actual_time=12
type: note_off, time: 0, actual_time: 108
type=note_on channel=5 note=47 velocity=80 time=0 actual_time=12
type: note_off, time: 0, actual_time: 108
type=note_on channel=5 note=49 velocity=0 time=96 actual_time=80376
type=note_on channel=5 note=42 velocity=0 time=0 actual_time=80376
type=note_on channel=5 note=54 velocity=0 time=0 actual_time=80376
type=note_on channel=5 note=47 velocity=80 time=24 actual_time=0
type: note_off, time: 24, actual_time: 96
type=note_on channel=5 note=47 velocity=80 time=0 actual_time=80400
type: note_off, time: 0, actual_time: 80496
type=note_on channel=5 note=47 velocity=80 time=0 actual_time=8
type: note_off, time: 0, actual_time: 104
type=note_on channel=5 note=42 velocity=0 time=96 actual_time=80496
type=note_on channel=5 note=54 velocity=0 time=0 actual_time=80496
type=note_on channel=5 note=49 velocity=0 time=0 actual_time=80496
type=note_on channel=5 note=47 velocity=80 time=24 actual_time=8
type: note_off, time: 24, actual_time: 104
type=note_on channel=5 note=47 velocity=80 time=0 actual_time=12
type: note_off, time: 0, actual_time: 108
type=note_on channel=5 note=47 velocity=80 time=0 actual_time=12
type: note_off, time: 0, actual_time: 108
type=note_on channel=5 note=54 velocity=0 time=96 actual_time=80616
type=note_on channel=5 note=49 velocity=0 time=0 actual_time=80616
type=note_on channel=5 note=42 velocity=0 time=0 actual_time=80616
type=note_on channel=5 note=47 velocity=80 time=24 actual_time=4
type: note_off, time: 24, actual_time: 148
type=note_on channel=5 note=47 velocity=80 time=0 actual_time=80640
type: note_off, time: 0, actual_time: 81576
type=note_on channel=5 note=54 velocity=80 time=0 actual_time=80640
type: note_off, time: 0, actual_time: 81576
type=note_on channel=5 note=51 velocity=80 time=0 actual_time=80640
type: note_off, time: 0, actual_time: 80784
type=note_on channel=5 note=47 velocity=0 time=144 actual_time=80784
type=note_on channel=5 note=47 velocity=80 time=36 actual_time=0
type: note_off, time: 36, actual_time: 144
type=note_on channel=5 note=47 velocity=80 time=0 actual_time=0
type: note_off, time: 0, actual_time: 144
type=note_on channel=5 note=49 velocity=0 time=144 actual_time=80964
type=note_on channel=5 note=49 velocity=0 time=0 actual_time=80964
type=note_on channel=5 note=47 velocity=80 time=36 actual_time=0
type: note_off, time: 36, actual_time: 144
type=note_on channel=5 note=47 velocity=80 time=0 actual_time=81000
type: note_off, time: 0, actual_time: 81144
type=note_on channel=5 note=50 velocity=0 time=144 actual_time=81144
type=note_on channel=5 note=47 velocity=0 time=0 actual_time=81144
type=note_on channel=5 note=50 velocity=0 time=0 actual_time=81144
type=note_on channel=5 note=47 velocity=80 time=36 actual_time=12
type: note_off, time: 36, actual_time: 156
type=note_on channel=5 note=47 velocity=80 time=0 actual_time=0
type: note_off, time: 0, actual_time: 144
type=note_on channel=5 note=49 velocity=0 time=144 actual_time=81324
type=note_on channel=5 note=49 velocity=0 time=0 actual_time=81324
type=note_on channel=5 note=47 velocity=80 time=36 actual_time=12
type: note_off, time: 36, actual_time: 108
type=note_on channel=5 note=47 velocity=80 time=0 actual_time=81360
type: note_off, time: 0, actual_time: 81456
type=note_on channel=5 note=50 velocity=0 time=96 actual_time=81456
type=note_on channel=5 note=50 velocity=0 time=0 actual_time=81456
type=note_on channel=5 note=47 velocity=80 time=24 actual_time=12
type: note_off, time: 24, actual_time: 108
type=note_on channel=5 note=47 velocity=80 time=0 actual_time=4
type: note_off, time: 0, actual_time: 100
type=note_on channel=5 note=49 velocity=0 time=96 actual_time=81576
type=note_on channel=5 note=59 velocity=0 time=0 actual_time=81576
type=note_on channel=5 note=54 velocity=0 time=0 actual_time=81576
type=note_on channel=5 note=49 velocity=0 time=0 actual_time=81576
type=note_on channel=5 note=47 velocity=64 time=0 actual_time=81576
type: note_off, time: 0, actual_time: 81576
type=note_on channel=5 note=47 velocity=0 time=0 actual_time=81576
type=note_on channel=5 note=47 velocity=80 time=24 actual_time=81600
type: note_off, time: 24, actual_time: 81744
type=note_on channel=5 note=47 velocity=80 time=0 actual_time=8
type: note_off, time: 0, actual_time: 152
type=note_on channel=5 note=47 velocity=80 time=0 actual_time=4
type: note_off, time: 0, actual_time: 412
type=note_on channel=5 note=47 velocity=80 time=0 actual_time=0
type: note_off, time: 0, actual_time: 408
type=note_on channel=5 note=52 velocity=0 time=144 actual_time=81744
type=note_on channel=5 note=52 velocity=0 time=0 actual_time=81744
type=note_on channel=5 note=47 velocity=80 time=36 actual_time=81780
type: note_off, time: 36, actual_time: 81924
type=note_on channel=5 note=47 velocity=80 time=0 actual_time=4
type: note_off, time: 0, actual_time: 148
type=note_on channel=5 note=50 velocity=0 time=144 actual_time=81924
type=note_on channel=5 note=50 velocity=0 time=0 actual_time=81924
type=note_on channel=5 note=47 velocity=80 time=36 actual_time=4
type: note_off, time: 36, actual_time: 52
type=note_on channel=5 note=47 velocity=80 time=0 actual_time=12
type: note_off, time: 0, actual_time: 60
type=note_on channel=5 note=49 velocity=0 time=48 actual_time=82008
type=note_on channel=5 note=43 velocity=0 time=0 actual_time=82008
type=note_on channel=5 note=55 velocity=0 time=0 actual_time=82008
type=note_on channel=5 note=49 velocity=0 time=0 actual_time=82008
type=note_on channel=5 note=43 velocity=80 time=12 actual_time=4
type: note_off, time: 12, actual_time: 52
type=note_on channel=5 note=47 velocity=80 time=0 actual_time=8
type: note_off, time: 0, actual_time: 56
type=note_on channel=5 note=47 velocity=80 time=0 actual_time=8
type: note_off, time: 0, actual_time: 56
type=note_on channel=5 note=50 velocity=0 time=48 actual_time=82068
type=note_on channel=5 note=55 velocity=0 time=0 actual_time=82068
type=note_on channel=5 note=43 velocity=0 time=0 actual_time=82068
type=note_on channel=5 note=47 velocity=80 time=12 actual_time=8
type: note_off, time: 12, actual_time: 416
type=note_on channel=5 note=47 velocity=80 time=0 actual_time=8
type: note_off, time: 0, actual_time: 344
type=note_on channel=5 note=52 velocity=80 time=0 actual_time=0
type: note_off, time: 0, actual_time: 408
type=note_on channel=5 note=47 velocity=64 time=48 actual_time=0
type: note_off, time: 48, actual_time: 0
type=note_on channel=5 note=49 velocity=0 time=0 actual_time=82128
type=note_on channel=5 note=47 velocity=80 time=12 actual_time=8
type: note_off, time: 12, actual_time: 152
type=note_on channel=5 note=47 velocity=80 time=0 actual_time=12
type: note_off, time: 0, actual_time: 156
type=note_on channel=5 note=50 velocity=0 time=144 actual_time=82284
type=note_on channel=5 note=50 velocity=0 time=0 actual_time=82284
type=note_on channel=5 note=47 velocity=80 time=36 actual_time=82320
type: note_off, time: 36, actual_time: 82416
type=note_on channel=5 note=47 velocity=80 time=0 actual_time=12
type: note_off, time: 0, actual_time: 108
type=note_on channel=5 note=49 velocity=0 time=96 actual_time=82416
type=note_on channel=5 note=45 velocity=0 time=0 actual_time=82416
type=note_on channel=5 note=49 velocity=0 time=0 actual_time=82416
type=note_on channel=5 note=47 velocity=80 time=24 actual_time=8
type: note_off, time: 24, actual_time: 56
type=note_on channel=5 note=45 velocity=80 time=0 actual_time=0
type: note_off, time: 0, actual_time: 48
type=note_on channel=5 note=45 velocity=0 time=48 actual_time=82488
type=note_on channel=5 note=57 velocity=0 time=0 actual_time=82488
type=note_on channel=5 note=52 velocity=0 time=0 actual_time=82488
type=note_on channel=5 note=52 velocity=80 time=12 actual_time=0
type: note_off, time: 12, actual_time: 48
type=note_on channel=5 note=47 velocity=80 time=0 actual_time=8
type: note_off, time: 0, actual_time: 56
type=note_on channel=5 note=57 velocity=0 time=48 actual_time=82548
type=note_on channel=5 note=52 velocity=0 time=0 actual_time=82548
type=note_on channel=5 note=45 velocity=0 time=0 actual_time=82548
type=note_on channel=5 note=47 velocity=80 time=12 actual_time=8
type: note_off, time: 12, actual_time: 152
type=note_on channel=5 note=47 velocity=80 time=0 actual_time=12
type: note_off, time: 0, actual_time: 948
type=note_on channel=5 note=47 velocity=80 time=0 actual_time=82560
type: note_off, time: 0, actual_time: 83496
type=note_on channel=5 note=47 velocity=80 time=0 actual_time=82560
type: note_off, time: 0, actual_time: 82704
type=note_on channel=5 note=47 velocity=0 time=144 actual_time=82704
type=note_on channel=5 note=47 velocity=0 time=0 actual_time=82704
type=note_on channel=5 note=47 velocity=80 time=36 actual_time=4
type: note_off, time: 36, actual_time: 100
type=note_on channel=5 note=47 velocity=80 time=0 actual_time=82740
type: note_off, time: 0, actual_time: 82836
type=note_on channel=5 note=45 velocity=0 time=96 actual_time=82836
type=note_on channel=5 note=45 velocity=0 time=0 actual_time=82836
type=note_on channel=5 note=45 velocity=80 time=24 actual_time=12
type: note_off, time: 24, actual_time: 60
type=note_on channel=5 note=45 velocity=80 time=0 actual_time=82860
type: note_off, time: 0, actual_time: 82908
type=note_on channel=5 note=45 velocity=0 time=48 actual_time=82908
type=note_on channel=5 note=45 velocity=0 time=0 actual_time=82908
type=note_on channel=5 note=44 velocity=80 time=12 actual_time=8
type: note_off, time: 12, actual_time: 152
type=note_on channel=5 note=47 velocity=80 time=0 actual_time=8
type: note_off, time: 0, actual_time: 152
type=note_on channel=5 note=47 velocity=0 time=144 actual_time=83064
type=note_on channel=5 note=47 velocity=0 time=0 actual_time=83064
type=note_on channel=5 note=47 velocity=80 time=36 actual_time=8
type: note_off, time: 36, actual_time: 104
type=note_on channel=5 note=47 velocity=80 time=0 actual_time=4
type: note_off, time: 0, actual_time: 100
type=note_on channel=5 note=45 velocity=0 time=96 actual_time=83196
type=note_on channel=5 note=45 velocity=0 time=0 actual_time=83196
type=note_on channel=5 note=45 velocity=80 time=24 actual_time=12
type: note_off, time: 24, actual_time: 60
type=note_on channel=5 note=45 velocity=80 time=0 actual_time=8
type: note_off, time: 0, actual_time: 56
type=note_on channel=5 note=45 velocity=0 time=48 actual_time=83268
type=note_on channel=5 note=45 velocity=0 time=0 actual_time=83268
type=note_on channel=5 note=47 velocity=80 time=12 actual_time=83280
type: note_off, time: 12, actual_time: 83376
type=note_on channel=5 note=47 velocity=80 time=0 actual_time=0
type: note_off, time: 0, actual_time: 96
type=note_on channel=5 note=47 velocity=0 time=96 actual_time=83376
type=note_on channel=5 note=47 velocity=0 time=0 actual_time=83376
type=note_on channel=5 note=43 velocity=80 time=24 actual_time=12
type: note_off, time: 24, actual_time: 108
type=note_on channel=5 note=47 velocity=80 time=0 actual_time=12
type: note_off, time: 0, actual_time: 108
type=note_on channel=5 note=47 velocity=0 time=96 actual_time=83496
type=note_on channel=5 note=59 velocity=0 time=0 actual_time=83496
type=note_on channel=5 note=54 velocity=0 time=0 actual_time=83496
type=note_on channel=5 note=47 velocity=0 time=0 actual_time=83496
type=note_on channel=5 note=47 velocity=80 time=24 actual_time=83520
type: note_off, time: 24, actual_time: 83568
type=note_on channel=5 note=47 velocity=80 time=0 actual_time=4
type: note_off, time: 0, actual_time: 412
type=note_on channel=5 note=52 velocity=80 time=0 actual_time=83520
type: note_off, time: 0, actual_time: 83568
type=note_on channel=5 note=47 velocity=80 time=0 actual_time=12
type: note_off, time: 0, actual_time: 420
type=note_on channel=5 note=52 velocity=0 time=48 actual_time=83568
type=note_on channel=5 note=52 velocity=0 time=0 actual_time=83568
type=note_on channel=5 note=48 velocity=80 time=12 actual_time=4
type: note_off, time: 12, actual_time: 52
type=note_on channel=5 note=47 velocity=80 time=0 actual_time=8
type: note_off, time: 0, actual_time: 56
type=note_on channel=5 note=50 velocity=0 time=48 actual_time=83628
type=note_on channel=5 note=50 velocity=0 time=0 actual_time=83628
type=note_on channel=5 note=50 velocity=80 time=12 actual_time=0
type: note_off, time: 12, actual_time: 48
type=note_on channel=5 note=47 velocity=80 time=0 actual_time=12
type: note_off, time: 0, actual_time: 60
type=note_on channel=5 note=52 velocity=0 time=48 actual_time=83688
type=note_on channel=5 note=52 velocity=0 time=0 actual_time=83688
type=note_on channel=5 note=50 velocity=80 time=12 actual_time=4
type: note_off, time: 12, actual_time: 52
type=note_on channel=5 note=55 velocity=80 time=0 actual_time=12
type: note_off, time: 0, actual_time: 60
type=note_on channel=5 note=50 velocity=0 time=48 actual_time=83748
type=note_on channel=5 note=50 velocity=0 time=0 actual_time=83748
type=note_on channel=5 note=47 velocity=80 time=12 actual_time=0
type: note_off, time: 12, actual_time: 48
type=note_on channel=5 note=52 velocity=80 time=0 actual_time=0
type: note_off, time: 0, actual_time: 48
type=note_on channel=5 note=52 velocity=0 time=48 actual_time=83808
type=note_on channel=5 note=52 velocity=0 time=0 actual_time=83808
type=note_on channel=5 note=47 velocity=80 time=12 actual_time=4
type: note_off, time: 12, actual_time: 52
type=note_on channel=5 note=47 velocity=80 time=0 actual_time=12
type: note_off, time: 0, actual_time: 60
type=note_on channel=5 note=50 velocity=0 time=48 actual_time=83868
type=note_on channel=5 note=50 velocity=0 time=0 actual_time=83868
type=note_on channel=5 note=47 velocity=80 time=12 actual_time=0
type: note_off, time: 12, actual_time: 48
type=note_on channel=5 note=47 velocity=80 time=0 actual_time=83880
type: note_off, time: 0, actual_time: 83928
type=note_on channel=5 note=52 velocity=0 time=48 actual_time=83928
type=note_on channel=5 note=43 velocity=0 time=0 actual_time=83928
type=note_on channel=5 note=55 velocity=0 time=0 actual_time=83928
type=note_on channel=5 note=52 velocity=0 time=0 actual_time=83928
type=note_on channel=5 note=50 velocity=80 time=12 actual_time=0
type: note_off, time: 12, actual_time: 48
type=note_on channel=5 note=47 velocity=80 time=0 actual_time=8
type: note_off, time: 0, actual_time: 56
type=note_on channel=5 note=47 velocity=80 time=0 actual_time=83940
type: note_off, time: 0, actual_time: 83988
type=note_on channel=5 note=43 velocity=0 time=48 actual_time=83988
type=note_on channel=5 note=50 velocity=0 time=0 actual_time=83988
type=note_on channel=5 note=50 velocity=0 time=0 actual_time=83988
type=note_on channel=5 note=47 velocity=80 time=12 actual_time=84000
type: note_off, time: 12, actual_time: 84048
type=note_on channel=5 note=47 velocity=80 time=0 actual_time=0
type: note_off, time: 0, actual_time: 48
type=note_on channel=5 note=47 velocity=80 time=0 actual_time=12
type: note_off, time: 0, actual_time: 420
type=note_on channel=5 note=47 velocity=80 time=0 actual_time=12
type: note_off, time: 0, actual_time: 420
type=note_on channel=5 note=50 velocity=0 time=48 actual_time=84048
type=note_on channel=5 note=50 velocity=0 time=0 actual_time=84048
type=note_on channel=5 note=49 velocity=80 time=12 actual_time=4
type: note_off, time: 12, actual_time: 52
type=note_on channel=5 note=47 velocity=80 time=0 actual_time=84060
type: note_off, time: 0, actual_time: 84108
type=note_on channel=5 note=49 velocity=0 time=48 actual_time=84108
type=note_on channel=5 note=49 velocity=0 time=0 actual_time=84108
type=note_on channel=5 note=50 velocity=80 time=12 actual_time=12
type: note_off, time: 12, actual_time: 60
type=note_on channel=5 note=47 velocity=80 time=0 actual_time=8
type: note_off, time: 0, actual_time: 56
type=note_on channel=5 note=50 velocity=0 time=48 actual_time=84168
type=note_on channel=5 note=50 velocity=0 time=0 actual_time=84168
type=note_on channel=5 note=50 velocity=80 time=12 actual_time=12
type: note_off, time: 12, actual_time: 60
type=note_on channel=5 note=47 velocity=80 time=0 actual_time=4
type: note_off, time: 0, actual_time: 52
type=note_on channel=5 note=49 velocity=0 time=48 actual_time=84228
type=note_on channel=5 note=49 velocity=0 time=0 actual_time=84228
type=note_on channel=5 note=47 velocity=80 time=12 actual_time=4
type: note_off, time: 12, actual_time: 52
type=note_on channel=5 note=47 velocity=80 time=0 actual_time=12
type: note_off, time: 0, actual_time: 60
type=note_on channel=5 note=50 velocity=0 time=48 actual_time=84288
type=note_on channel=5 note=50 velocity=0 time=0 actual_time=84288
type=note_on channel=5 note=47 velocity=80 time=12 actual_time=12
type: note_off, time: 12, actual_time: 60
type=note_on channel=5 note=49 velocity=80 time=0 actual_time=4
type: note_off, time: 0, actual_time: 52
type=note_on channel=5 note=49 velocity=0 time=48 actual_time=84348
type=note_on channel=5 note=49 velocity=0 time=0 actual_time=84348
type=note_on channel=5 note=47 velocity=80 time=12 actual_time=8
type: note_off, time: 12, actual_time: 56
type=note_on channel=5 note=46 velocity=80 time=0 actual_time=84360
type: note_off, time: 0, actual_time: 84408
type=note_on channel=5 note=50 velocity=0 time=48 actual_time=84408
type=note_on channel=5 note=45 velocity=0 time=0 actual_time=84408
type=note_on channel=5 note=57 velocity=0 time=0 actual_time=84408
type=note_on channel=5 note=50 velocity=0 time=0 actual_time=84408
type=note_on channel=5 note=47 velocity=80 time=12 actual_time=12
type: note_off, time: 12, actual_time: 60
type=note_on channel=5 note=47 velocity=80 time=0 actual_time=8
type: note_off, time: 0, actual_time: 56
type=note_on channel=5 note=52 velocity=80 time=0 actual_time=84420
type: note_off, time: 0, actual_time: 84468
type=note_on channel=5 note=52 velocity=0 time=48 actual_time=84468
type=note_on channel=5 note=45 velocity=0 time=0 actual_time=84468
type=note_on channel=5 note=45 velocity=0 time=0 actual_time=84468
type=note_on channel=5 note=47 velocity=80 time=12 actual_time=0
type: note_off, time: 12, actual_time: 144
type=note_on channel=5 note=47 velocity=80 time=0 actual_time=12
type: note_off, time: 0, actual_time: 948
type=note_on channel=5 note=59 velocity=80 time=0 actual_time=0
type: note_off, time: 0, actual_time: 936
type=note_on channel=5 note=47 velocity=80 time=0 actual_time=4
type: note_off, time: 0, actual_time: 148
type=note_on channel=5 note=47 velocity=0 time=144 actual_time=84624
type=note_on channel=5 note=47 velocity=80 time=36 actual_time=84660
type: note_off, time: 36, actual_time: 84804
type=note_on channel=5 note=47 velocity=80 time=0 actual_time=4
type: note_off, time: 0, actual_time: 148
type=note_on channel=5 note=49 velocity=0 time=144 actual_time=84804
type=note_on channel=5 note=49 velocity=0 time=0 actual_time=84804
type=note_on channel=5 note=47 velocity=80 time=36 actual_time=84840
type: note_off, time: 36, actual_time: 84984
type=note_on channel=5 note=47 velocity=80 time=0 actual_time=0
type: note_off, time: 0, actual_time: 144
type=note_on channel=5 note=50 velocity=0 time=144 actual_time=84984
type=note_on channel=5 note=50 velocity=0 time=0 actual_time=84984
type=note_on channel=5 note=49 velocity=80 time=36 actual_time=8
type: note_off, time: 36, actual_time: 152
type=note_on channel=5 note=49 velocity=80 time=0 actual_time=0
type: note_off, time: 0, actual_time: 144
type=note_on channel=5 note=49 velocity=0 time=144 actual_time=85164
type=note_on channel=5 note=49 velocity=0 time=0 actual_time=85164
type=note_on channel=5 note=45 velocity=80 time=36 actual_time=85200
type: note_off, time: 36, actual_time: 85296
type=note_on channel=5 note=47 velocity=80 time=0 actual_time=4
type: note_off, time: 0, actual_time: 100
type=note_on channel=5 note=50 velocity=0 time=96 actual_time=85296
type=note_on channel=5 note=50 velocity=0 time=0 actual_time=85296
type=note_on channel=5 note=47 velocity=80 time=24 actual_time=8
type: note_off, time: 24, actual_time: 104
type=note_on channel=5 note=47 velocity=80 time=0 actual_time=12
type: note_off, time: 0, actual_time: 108
type=note_on channel=5 note=49 velocity=0 time=96 actual_time=85416
type=note_on channel=5 note=54 velocity=0 time=0 actual_time=85416
type=note_on channel=5 note=47 velocity=0 time=0 actual_time=85416
type=note_on channel=5 note=59 velocity=0 time=0 actual_time=85416
type=note_on channel=5 note=49 velocity=0 time=0 actual_time=85416
type=note_on channel=5 note=47 velocity=80 time=24 actual_time=4
type: note_off, time: 24, actual_time: 412
type=note_on channel=5 note=47 velocity=80 time=0 actual_time=85440
type: note_off, time: 0, actual_time: 85584
type=note_on channel=5 note=47 velocity=80 time=0 actual_time=12
type: note_off, time: 0, actual_time: 156
type=note_on channel=5 note=47 velocity=80 time=0 actual_time=4
type: note_off, time: 0, actual_time: 148
type=note_on channel=5 note=55 velocity=0 time=144 actual_time=85584
type=note_on channel=5 note=55 velocity=0 time=0 actual_time=85584
type=note_on channel=5 note=47 velocity=80 time=36 actual_time=4
type: note_off, time: 36, actual_time: 148
type=note_on channel=5 note=47 velocity=80 time=0 actual_time=0
type: note_off, time: 0, actual_time: 144
type=note_on channel=5 note=54 velocity=0 time=144 actual_time=85764
type=note_on channel=5 note=54 velocity=0 time=0 actual_time=85764
type=note_on channel=5 note=52 velocity=80 time=36 actual_time=0
type: note_off, time: 36, actual_time: 48
type=note_on channel=5 note=52 velocity=80 time=0 actual_time=4
type: note_off, time: 0, actual_time: 52
type=note_on channel=5 note=52 velocity=0 time=48 actual_time=85848
type=note_on channel=5 note=55 velocity=0 time=0 actual_time=85848
type=note_on channel=5 note=43 velocity=0 time=0 actual_time=85848
type=note_on channel=5 note=47 velocity=80 time=12 actual_time=8
type: note_off, time: 12, actual_time: 56
type=note_on channel=5 note=47 velocity=80 time=0 actual_time=8
type: note_off, time: 0, actual_time: 56
type=note_on channel=5 note=43 velocity=0 time=48 actual_time=85908
type=note_on channel=5 note=55 velocity=0 time=0 actual_time=85908
type=note_on channel=5 note=47 velocity=80 time=12 actual_time=0
type: note_off, time: 12, actual_time: 336
type=note_on channel=5 note=47 velocity=80 time=0 actual_time=12
type: note_off, time: 0, actual_time: 420
type=note_on channel=5 note=47 velocity=80 time=60 actual_time=85980
type: note_off, time: 60, actual_time: 86124
type=note_on channel=5 note=47 velocity=80 time=0 actual_time=0
type: note_off, time: 0, actual_time: 144
type=note_on channel=5 note=50 velocity=0 time=144 actual_time=86124
type=note_on channel=5 note=50 velocity=0 time=0 actual_time=86124
type=note_on channel=5 note=49 velocity=80 time=36 actual_time=12
type: note_off, time: 36, actual_time: 108
type=note_on channel=5 note=50 velocity=80 time=0 actual_time=12
type: note_off, time: 0, actual_time: 108
type=note_on channel=5 note=49 velocity=0 time=96 actual_time=86256
type=note_on channel=5 note=45 velocity=0 time=0 actual_time=86256
type=note_on channel=5 note=49 velocity=0 time=0 actual_time=86256
type=note_on channel=5 note=47 velocity=80 time=24 actual_time=4
type: note_off, time: 24, actual_time: 52
type=note_on channel=5 note=45 velocity=80 time=0 actual_time=0
type: note_off, time: 0, actual_time: 48
type=note_on channel=5 note=45 velocity=0 time=48 actual_time=86328
type=note_on channel=5 note=52 velocity=0 time=0 actual_time=86328
type=note_on channel=5 note=57 velocity=0 time=0 actual_time=86328
type=note_on channel=5 note=47 velocity=80 time=12 actual_time=86340
type: note_off, time: 12, actual_time: 86388
type=note_on channel=5 note=47 velocity=80 time=0 actual_time=12
type: note_off, time: 0, actual_time: 60
type=note_on channel=5 note=52 velocity=0 time=48 actual_time=86388
type=note_on channel=5 note=57 velocity=0 time=0 actual_time=86388
type=note_on channel=5 note=45 velocity=0 time=0 actual_time=86388
type=note_on channel=5 note=47 velocity=80 time=12 actual_time=8
type: note_off, time: 12, actual_time: 152
type=note_on channel=5 note=59 velocity=80 time=0 actual_time=12
type: note_off, time: 0, actual_time: 948
type=note_on channel=5 note=47 velocity=80 time=0 actual_time=86400
type: note_off, time: 0, actual_time: 87336
type=note_on channel=5 note=52 velocity=80 time=0 actual_time=0
type: note_off, time: 0, actual_time: 144
type=note_on channel=5 note=47 velocity=0 time=144 actual_time=86544
type=note_on channel=5 note=47 velocity=0 time=0 actual_time=86544
type=note_on channel=5 note=46 velocity=80 time=36 actual_time=12
type: note_off, time: 36, actual_time: 156
type=note_on channel=5 note=44 velocity=80 time=0 actual_time=8
type: note_off, time: 0, actual_time: 152
type=note_on channel=5 note=45 velocity=0 time=144 actual_time=86724
type=note_on channel=5 note=45 velocity=0 time=0 actual_time=86724
type=note_on channel=5 note=47 velocity=80 time=36 actual_time=4
type: note_off, time: 36, actual_time: 148
type=note_on channel=5 note=47 velocity=80 time=0 actual_time=4
type: note_off, time: 0, actual_time: 148
type=note_on channel=5 note=47 velocity=0 time=144 actual_time=86904
type=note_on channel=5 note=47 velocity=0 time=0 actual_time=86904
type=note_on channel=5 note=47 velocity=80 time=36 actual_time=4
type: note_off, time: 36, actual_time: 100
type=note_on channel=5 note=47 velocity=80 time=0 actual_time=8
type: note_off, time: 0, actual_time: 104
type=note_on channel=5 note=45 velocity=0 time=96 actual_time=87036
type=note_on channel=5 note=45 velocity=0 time=0 actual_time=87036
type=note_on channel=5 note=45 velocity=80 time=24 actual_time=87060
type: note_off, time: 24, actual_time: 87108
type=note_on channel=5 note=47 velocity=80 time=0 actual_time=8
type: note_off, time: 0, actual_time: 56
type=note_on channel=5 note=45 velocity=0 time=48 actual_time=87108
type=note_on channel=5 note=45 velocity=0 time=0 actual_time=87108
type=note_on channel=5 note=47 velocity=80 time=12 actual_time=12
type: note_off, time: 12, actual_time: 108
type=note_on channel=5 note=47 velocity=80 time=0 actual_time=12
type: note_off, time: 0, actual_time: 108
type=note_on channel=5 note=47 velocity=0 time=96 actual_time=87216
type=note_on channel=5 note=47 velocity=0 time=0 actual_time=87216
type=note_on channel=5 note=47 velocity=80 time=24 actual_time=8
type: note_off, time: 24, actual_time: 104
type=note_on channel=5 note=47 velocity=80 time=0 actual_time=8
type: note_off, time: 0, actual_time: 104
type=note_on channel=5 note=47 velocity=0 time=96 actual_time=87336
type=note_on channel=5 note=59 velocity=0 time=0 actual_time=87336
type=note_on channel=5 note=54 velocity=0 time=0 actual_time=87336
type=note_on channel=5 note=47 velocity=0 time=0 actual_time=87336
type=note_on channel=5 note=47 velocity=80 time=24 actual_time=8
type: note_off, time: 24, actual_time: 416
type=note_on channel=5 note=47 velocity=80 time=0 actual_time=4
type: note_off, time: 0, actual_time: 52
type=note_on channel=5 note=47 velocity=80 time=0 actual_time=0
type: note_off, time: 0, actual_time: 408
type=note_on channel=5 note=47 velocity=80 time=0 actual_time=0
type: note_off, time: 0, actual_time: 48
type=note_on channel=5 note=52 velocity=0 time=48 actual_time=87408
type=note_on channel=5 note=52 velocity=0 time=0 actual_time=87408
type=note_on channel=5 note=47 velocity=80 time=12 actual_time=87420
type: note_off, time: 12, actual_time: 87468
type=note_on channel=5 note=47 velocity=80 time=0 actual_time=12
type: note_off, time: 0, actual_time: 60
type=note_on channel=5 note=50 velocity=0 time=48 actual_time=87468
type=note_on channel=5 note=50 velocity=0 time=0 actual_time=87468
type=note_on channel=5 note=47 velocity=80 time=12 actual_time=4
type: note_off, time: 12, actual_time: 52
type=note_on channel=5 note=47 velocity=80 time=0 actual_time=8
type: note_off, time: 0, actual_time: 56
type=note_on channel=5 note=52 velocity=0 time=48 actual_time=87528
type=note_on channel=5 note=52 velocity=0 time=0 actual_time=87528
type=note_on channel=5 note=50 velocity=80 time=12 actual_time=12
type: note_off, time: 12, actual_time: 60
type=note_on channel=5 note=50 velocity=80 time=0 actual_time=0
type: note_off, time: 0, actual_time: 48
type=note_on channel=5 note=50 velocity=0 time=48 actual_time=87588
type=note_on channel=5 note=50 velocity=0 time=0 actual_time=87588
type=note_on channel=5 note=47 velocity=80 time=12 actual_time=8
type: note_off, time: 12, actual_time: 56
type=note_on channel=5 note=47 velocity=80 time=0 actual_time=12
type: note_off, time: 0, actual_time: 60
type=note_on channel=5 note=52 velocity=0 time=48 actual_time=87648
type=note_on channel=5 note=52 velocity=0 time=0 actual_time=87648
type=note_on channel=5 note=47 velocity=80 time=12 actual_time=8
type: note_off, time: 12, actual_time: 56
type=note_on channel=5 note=47 velocity=80 time=0 actual_time=87660
type: note_off, time: 0, actual_time: 87708
type=note_on channel=5 note=50 velocity=0 time=48 actual_time=87708
type=note_on channel=5 note=50 velocity=0 time=0 actual_time=87708
type=note_on channel=5 note=52 velocity=80 time=12 actual_time=8
type: note_off, time: 12, actual_time: 56
type=note_on channel=5 note=47 velocity=80 time=0 actual_time=8
type: note_off, time: 0, actual_time: 56
type=note_on channel=5 note=52 velocity=0 time=48 actual_time=87768
type=note_on channel=5 note=43 velocity=0 time=0 actual_time=87768
type=note_on channel=5 note=55 velocity=0 time=0 actual_time=87768
type=note_on channel=5 note=52 velocity=0 time=0 actual_time=87768
type=note_on channel=5 note=43 velocity=80 time=12 actual_time=4
type: note_off, time: 12, actual_time: 52
type=note_on channel=5 note=48 velocity=80 time=0 actual_time=8
type: note_off, time: 0, actual_time: 56
type=note_on channel=5 note=47 velocity=80 time=0 actual_time=87780
type: note_off, time: 0, actual_time: 87828
type=note_on channel=5 note=50 velocity=0 time=48 actual_time=87828
type=note_on channel=5 note=50 velocity=0 time=0 actual_time=87828
type=note_on channel=5 note=43 velocity=0 time=0 actual_time=87828
type=note_on channel=5 note=45 velocity=80 time=12 actual_time=0
type: note_off, time: 12, actual_time: 468
type=note_on channel=5 note=47 velocity=80 time=0 actual_time=8
type: note_off, time: 0, actual_time: 476
type=note_on channel=5 note=47 velocity=80 time=0 actual_time=8
type: note_off, time: 0, actual_time: 56
type=note_on channel=5 note=47 velocity=80 time=0 actual_time=8
type: note_off, time: 0, actual_time: 56
type=note_on channel=5 note=50 velocity=0 time=48 actual_time=87888
type=note_on channel=5 note=50 velocity=0 time=0 actual_time=87888
type=note_on channel=5 note=47 velocity=80 time=12 actual_time=8
type: note_off, time: 12, actual_time: 56
type=note_on channel=5 note=47 velocity=80 time=0 actual_time=0
type: note_off, time: 0, actual_time: 48
type=note_on channel=5 note=49 velocity=0 time=48 actual_time=87948
type=note_on channel=5 note=49 velocity=0 time=0 actual_time=87948
type=note_on channel=5 note=47 velocity=80 time=12 actual_time=12
type: note_off, time: 12, actual_time: 60
type=note_on channel=5 note=50 velocity=80 time=0 actual_time=4
type: note_off, time: 0, actual_time: 52
type=note_on channel=5 note=50 velocity=0 time=48 actual_time=88008
type=note_on channel=5 note=50 velocity=0 time=0 actual_time=88008
type=note_on channel=5 note=47 velocity=80 time=12 actual_time=4
type: note_off, time: 12, actual_time: 52
type=note_on channel=5 note=47 velocity=80 time=0 actual_time=8
type: note_off, time: 0, actual_time: 56
type=note_on channel=5 note=49 velocity=0 time=48 actual_time=88068
type=note_on channel=5 note=49 velocity=0 time=0 actual_time=88068
type=note_on channel=5 note=47 velocity=80 time=12 actual_time=0
type: note_off, time: 12, actual_time: 48
type=note_on channel=5 note=47 velocity=80 time=0 actual_time=4
type: note_off, time: 0, actual_time: 52
type=note_on channel=5 note=50 velocity=0 time=48 actual_time=88128
type=note_on channel=5 note=50 velocity=0 time=0 actual_time=88128
type=note_on channel=5 note=47 velocity=80 time=12 actual_time=8
type: note_off, time: 12, actual_time: 56
type=note_on channel=5 note=47 velocity=80 time=0 actual_time=12
type: note_off, time: 0, actual_time: 60
type=note_on channel=5 note=49 velocity=0 time=48 actual_time=88188
type=note_on channel=5 note=49 velocity=0 time=0 actual_time=88188
type=note_on channel=5 note=47 velocity=80 time=12 actual_time=12
type: note_off, time: 12, actual_time: 60
type=note_on channel=5 note=47 velocity=80 time=0 actual_time=0
type: note_off, time: 0, actual_time: 48
type=note_on channel=5 note=50 velocity=0 time=48 actual_time=88248
type=note_on channel=5 note=50 velocity=0 time=0 actual_time=88248
type=note_on channel=5 note=47 velocity=80 time=12 actual_time=4
type: note_off, time: 12, actual_time: 52
type=note_on channel=5 note=47 velocity=80 time=0 actual_time=88260
type: note_off, time: 0, actual_time: 88308
type=note_on channel=5 note=45 velocity=0 time=48 actual_time=88308
type=note_on channel=5 note=45 velocity=0 time=0 actual_time=88308
type=note_on channel=5 note=57 velocity=0 time=0 actual_time=88308
type=note_on channel=5 note=45 velocity=0 time=0 actual_time=88308
type=note_on channel=5 note=47 velocity=80 time=12 actual_time=4
type: note_off, time: 12, actual_time: 3652
type=note_on channel=5 note=47 velocity=80 time=0 actual_time=88320
type: note_off, time: 0, actual_time: 91968
type=note_on channel=5 note=47 velocity=80 time=0 actual_time=0
type: note_off, time: 0, actual_time: 3648
type=note_on channel=5 note=59 velocity=0 time=3648 actual_time=91968
type=note_on channel=5 note=54 velocity=0 time=0 actual_time=91968
type=note_on channel=5 note=47 velocity=0 time=0 actual_time=91968
MetaMessage type: end_of_track, time: 0, actual_time: 91968
MetaMessage type: track_name, time: 0, actual_time: 0
type: program_change, time: 0, actual_time: 0
type=control_change channel=6 control=7 value=99 time=0 actual_time=0
type=note_on channel=6 note=35 velocity=80 time=3840 actual_time=3840
type: note_off, time: 3840, actual_time: 4752
type=note_on channel=6 note=35 velocity=0 time=912 actual_time=4752
type=note_on channel=6 note=35 velocity=80 time=48 actual_time=180
type: note_off, time: 48, actual_time: 636
type=note_on channel=6 note=31 velocity=0 time=456 actual_time=5256
type=note_on channel=6 note=36 velocity=80 time=24 actual_time=5280
type: note_off, time: 24, actual_time: 5736
type=note_on channel=6 note=33 velocity=0 time=456 actual_time=5736
type=note_on channel=6 note=35 velocity=80 time=24 actual_time=0
type: note_off, time: 24, actual_time: 912
type=note_on channel=6 note=35 velocity=0 time=912 actual_time=6672
type=note_on channel=6 note=35 velocity=80 time=48 actual_time=6720
type: note_off, time: 48, actual_time: 7176
type=note_on channel=6 note=31 velocity=0 time=456 actual_time=7176
type=note_on channel=6 note=33 velocity=80 time=24 actual_time=180
type: note_off, time: 24, actual_time: 636
type=note_on channel=6 note=33 velocity=0 time=456 actual_time=7656
type=note_on channel=6 note=35 velocity=80 time=24 actual_time=180
type: note_off, time: 24, actual_time: 1092
type=note_on channel=6 note=35 velocity=0 time=912 actual_time=8592
type=note_on channel=6 note=35 velocity=80 time=48 actual_time=180
type: note_off, time: 48, actual_time: 636
type=note_on channel=6 note=31 velocity=0 time=456 actual_time=9096
type=note_on channel=6 note=35 velocity=80 time=24 actual_time=0
type: note_off, time: 24, actual_time: 456
type=note_on channel=6 note=33 velocity=0 time=456 actual_time=9576
type=note_on channel=6 note=35 velocity=80 time=24 actual_time=60
type: note_off, time: 24, actual_time: 972
type=note_on channel=6 note=35 velocity=0 time=912 actual_time=10512
type=note_on channel=6 note=35 velocity=80 time=48 actual_time=180
type: note_off, time: 48, actual_time: 636
type=note_on channel=6 note=31 velocity=0 time=456 actual_time=11016
type=note_on channel=6 note=37 velocity=80 time=24 actual_time=60
type: note_off, time: 24, actual_time: 516
type=note_on channel=6 note=33 velocity=0 time=456 actual_time=11496
type=note_on channel=6 note=35 velocity=80 time=24 actual_time=60
type: note_off, time: 24, actual_time: 972
type=note_on channel=6 note=35 velocity=0 time=912 actual_time=12432
type=note_on channel=6 note=35 velocity=80 time=48 actual_time=120
type: note_off, time: 48, actual_time: 576
type=note_on channel=6 note=31 velocity=0 time=456 actual_time=12936
type=note_on channel=6 note=35 velocity=80 time=24 actual_time=180
type: note_off, time: 24, actual_time: 636
type=note_on channel=6 note=33 velocity=0 time=456 actual_time=13416
type=note_on channel=6 note=35 velocity=80 time=24 actual_time=0
type: note_off, time: 24, actual_time: 912
type=note_on channel=6 note=35 velocity=0 time=912 actual_time=14352
type=note_on channel=6 note=36 velocity=80 time=48 actual_time=120
type: note_off, time: 48, actual_time: 576
type=note_on channel=6 note=31 velocity=0 time=456 actual_time=14856
type=note_on channel=6 note=35 velocity=80 time=24 actual_time=0
type: note_off, time: 24, actual_time: 456
type=note_on channel=6 note=33 velocity=0 time=456 actual_time=15336
type=note_on channel=6 note=35 velocity=80 time=24 actual_time=15360
type: note_off, time: 24, actual_time: 16272
type=note_on channel=6 note=35 velocity=0 time=912 actual_time=16272
type=note_on channel=6 note=35 velocity=80 time=48 actual_time=16320
type: note_off, time: 48, actual_time: 16776
type=note_on channel=6 note=31 velocity=0 time=456 actual_time=16776
type=note_on channel=6 note=33 velocity=80 time=24 actual_time=0
type: note_off, time: 24, actual_time: 456
type=note_on channel=6 note=33 velocity=0 time=456 actual_time=17256
type=note_on channel=6 note=35 velocity=80 time=24 actual_time=180
type: note_off, time: 24, actual_time: 1092
type=note_on channel=6 note=35 velocity=0 time=912 actual_time=18192
type=note_on channel=6 note=35 velocity=80 time=48 actual_time=60
type: note_off, time: 48, actual_time: 516
type=note_on channel=6 note=31 velocity=0 time=456 actual_time=18696
type=note_on channel=6 note=33 velocity=80 time=24 actual_time=180
type: note_off, time: 24, actual_time: 636
type=note_on channel=6 note=33 velocity=0 time=456 actual_time=19176
type=note_on channel=6 note=35 velocity=80 time=24 actual_time=60
type: note_off, time: 24, actual_time: 972
type=note_on channel=6 note=35 velocity=0 time=912 actual_time=20112
type=note_on channel=6 note=35 velocity=80 time=48 actual_time=180
type: note_off, time: 48, actual_time: 636
type=note_on channel=6 note=31 velocity=0 time=456 actual_time=20616
type=note_on channel=6 note=35 velocity=80 time=24 actual_time=60
type: note_off, time: 24, actual_time: 516
type=note_on channel=6 note=33 velocity=0 time=456 actual_time=21096
type=note_on channel=6 note=40 velocity=80 time=24 actual_time=21120
type: note_off, time: 24, actual_time: 22032
type=note_on channel=6 note=35 velocity=0 time=912 actual_time=22032
type=note_on channel=6 note=35 velocity=80 time=48 actual_time=60
type: note_off, time: 48, actual_time: 516
type=note_on channel=6 note=31 velocity=0 time=456 actual_time=22536
type=note_on channel=6 note=35 velocity=80 time=24 actual_time=180
type: note_off, time: 24, actual_time: 636
type=note_on channel=6 note=33 velocity=0 time=456 actual_time=23016
type=note_on channel=6 note=35 velocity=80 time=24 actual_time=23040
type: note_off, time: 24, actual_time: 23952
type=note_on channel=6 note=35 velocity=0 time=912 actual_time=23952
type=note_on channel=6 note=35 velocity=80 time=48 actual_time=24000
type: note_off, time: 48, actual_time: 24456
type=note_on channel=6 note=31 velocity=0 time=456 actual_time=24456
type=note_on channel=6 note=35 velocity=80 time=24 actual_time=24480
type: note_off, time: 24, actual_time: 24936
type=note_on channel=6 note=33 velocity=0 time=456 actual_time=24936
type=note_on channel=6 note=36 velocity=80 time=24 actual_time=0
type: note_off, time: 24, actual_time: 912
type=note_on channel=6 note=35 velocity=0 time=912 actual_time=25872
type=note_on channel=6 note=35 velocity=80 time=48 actual_time=0
type: note_off, time: 48, actual_time: 456
type=note_on channel=6 note=31 velocity=0 time=456 actual_time=26376
type=note_on channel=6 note=33 velocity=80 time=24 actual_time=120
type: note_off, time: 24, actual_time: 576
type=note_on channel=6 note=33 velocity=0 time=456 actual_time=26856
type=note_on channel=6 note=35 velocity=80 time=24 actual_time=60
type: note_off, time: 24, actual_time: 156
type=note_on channel=6 note=35 velocity=0 time=96 actual_time=26976
type=note_on channel=6 note=35 velocity=80 time=24 actual_time=60
type: note_off, time: 24, actual_time: 108
type=note_on channel=6 note=35 velocity=0 time=48 actual_time=27048
type=note_on channel=6 note=35 velocity=80 time=12 actual_time=120
type: note_off, time: 12, actual_time: 168
type=note_on channel=6 note=35 velocity=0 time=48 actual_time=27108
type=note_on channel=6 note=35 velocity=80 time=12 actual_time=27120
type: note_off, time: 12, actual_time: 27216
type=note_on channel=6 note=35 velocity=0 time=96 actual_time=27216
type=note_on channel=6 note=35 velocity=80 time=24 actual_time=120
type: note_off, time: 24, actual_time: 168
type=note_on channel=6 note=35 velocity=0 time=48 actual_time=27288
type=note_on channel=6 note=35 velocity=80 time=12 actual_time=60
type: note_off, time: 12, actual_time: 108
type=note_on channel=6 note=35 velocity=0 time=48 actual_time=27348
type=note_on channel=6 note=35 velocity=80 time=12 actual_time=120
type: note_off, time: 12, actual_time: 216
type=note_on channel=6 note=35 velocity=0 time=96 actual_time=27456
type=note_on channel=6 note=35 velocity=80 time=24 actual_time=27480
type: note_off, time: 24, actual_time: 27528
type=note_on channel=6 note=35 velocity=0 time=48 actual_time=27528
type=note_on channel=6 note=35 velocity=80 time=12 actual_time=27540
type: note_off, time: 12, actual_time: 27588
type=note_on channel=6 note=35 velocity=0 time=48 actual_time=27588
type=note_on channel=6 note=40 velocity=80 time=12 actual_time=0
type: note_off, time: 12, actual_time: 96
type=note_on channel=6 note=35 velocity=0 time=96 actual_time=27696
type=note_on channel=6 note=35 velocity=80 time=24 actual_time=180
type: note_off, time: 24, actual_time: 228
type=note_on channel=6 note=35 velocity=0 time=48 actual_time=27768
type=note_on channel=6 note=35 velocity=80 time=12 actual_time=60
type: note_off, time: 12, actual_time: 108
type=note_on channel=6 note=35 velocity=0 time=48 actual_time=27828
type=note_on channel=6 note=35 velocity=80 time=12 actual_time=120
type: note_off, time: 12, actual_time: 216
type=note_on channel=6 note=31 velocity=0 time=96 actual_time=27936
type=note_on channel=6 note=31 velocity=80 time=24 actual_time=60
type: note_off, time: 24, actual_time: 108
type=note_on channel=6 note=31 velocity=0 time=48 actual_time=28008
type=note_on channel=6 note=26 velocity=80 time=12 actual_time=120
type: note_off, time: 12, actual_time: 168
type=note_on channel=6 note=31 velocity=0 time=48 actual_time=28068
type=note_on channel=6 note=31 velocity=80 time=12 actual_time=60
type: note_off, time: 12, actual_time: 156
type=note_on channel=6 note=31 velocity=0 time=96 actual_time=28176
type=note_on channel=6 note=31 velocity=80 time=24 actual_time=0
type: note_off, time: 24, actual_time: 48
type=note_on channel=6 note=31 velocity=0 time=48 actual_time=28248
type=note_on channel=6 note=35 velocity=80 time=12 actual_time=60
type: note_off, time: 12, actual_time: 108
type=note_on channel=6 note=31 velocity=0 time=48 actual_time=28308
type=note_on channel=6 note=35 velocity=80 time=12 actual_time=0
type: note_off, time: 12, actual_time: 96
type=note_on channel=6 note=33 velocity=0 time=96 actual_time=28416
type=note_on channel=6 note=33 velocity=80 time=24 actual_time=0
type: note_off, time: 24, actual_time: 48
type=note_on channel=6 note=33 velocity=0 time=48 actual_time=28488
type=note_on channel=6 note=35 velocity=80 time=12 actual_time=60
type: note_off, time: 12, actual_time: 108
type=note_on channel=6 note=33 velocity=0 time=48 actual_time=28548
type=note_on channel=6 note=35 velocity=80 time=12 actual_time=60
type: note_off, time: 12, actual_time: 156
type=note_on channel=6 note=33 velocity=0 time=96 actual_time=28656
type=note_on channel=6 note=30 velocity=80 time=24 actual_time=0
type: note_off, time: 24, actual_time: 48
type=note_on channel=6 note=33 velocity=0 time=48 actual_time=28728
type=note_on channel=6 note=33 velocity=80 time=12 actual_time=180
type: note_off, time: 12, actual_time: 228
type=note_on channel=6 note=33 velocity=0 time=48 actual_time=28788
type=note_on channel=6 note=35 velocity=80 time=12 actual_time=120
type: note_off, time: 12, actual_time: 216
type=note_on channel=6 note=35 velocity=0 time=96 actual_time=28896
type=note_on channel=6 note=35 velocity=80 time=24 actual_time=28920
type: note_off, time: 24, actual_time: 28968
type=note_on channel=6 note=35 velocity=0 time=48 actual_time=28968
type=note_on channel=6 note=35 velocity=80 time=12 actual_time=60
type: note_off, time: 12, actual_time: 108
type=note_on channel=6 note=35 velocity=0 time=48 actual_time=29028
type=note_on channel=6 note=35 velocity=80 time=12 actual_time=120
type: note_off, time: 12, actual_time: 216
type=note_on channel=6 note=35 velocity=0 time=96 actual_time=29136
type=note_on channel=6 note=35 velocity=80 time=24 actual_time=29160
type: note_off, time: 24, actual_time: 29208
type=note_on channel=6 note=35 velocity=0 time=48 actual_time=29208
type=note_on channel=6 note=35 velocity=80 time=12 actual_time=0
type: note_off, time: 12, actual_time: 48
type=note_on channel=6 note=35 velocity=0 time=48 actual_time=29268
type=note_on channel=6 note=35 velocity=80 time=12 actual_time=60
type: note_off, time: 12, actual_time: 156
type=note_on channel=6 note=35 velocity=0 time=96 actual_time=29376
type=note_on channel=6 note=35 velocity=80 time=24 actual_time=120
type: note_off, time: 24, actual_time: 168
type=note_on channel=6 note=35 velocity=0 time=48 actual_time=29448
type=note_on channel=6 note=35 velocity=80 time=12 actual_time=120
type: note_off, time: 12, actual_time: 168
type=note_on channel=6 note=35 velocity=0 time=48 actual_time=29508
type=note_on channel=6 note=35 velocity=80 time=12 actual_time=60
type: note_off, time: 12, actual_time: 156
type=note_on channel=6 note=35 velocity=0 time=96 actual_time=29616
type=note_on channel=6 note=35 velocity=80 time=24 actual_time=29640
type: note_off, time: 24, actual_time: 29688
type=note_on channel=6 note=35 velocity=0 time=48 actual_time=29688
type=note_on channel=6 note=35 velocity=80 time=12 actual_time=180
type: note_off, time: 12, actual_time: 228
type=note_on channel=6 note=35 velocity=0 time=48 actual_time=29748
type=note_on channel=6 note=35 velocity=80 time=12 actual_time=0
type: note_off, time: 12, actual_time: 96
type=note_on channel=6 note=28 velocity=0 time=96 actual_time=29856
type=note_on channel=6 note=35 velocity=80 time=24 actual_time=29880
type: note_off, time: 24, actual_time: 29928
type=note_on channel=6 note=28 velocity=0 time=48 actual_time=29928
type=note_on channel=6 note=35 velocity=80 time=12 actual_time=29940
type: note_off, time: 12, actual_time: 29988
type=note_on channel=6 note=28 velocity=0 time=48 actual_time=29988
type=note_on channel=6 note=35 velocity=80 time=12 actual_time=30000
type: note_off, time: 12, actual_time: 30096
type=note_on channel=6 note=28 velocity=0 time=96 actual_time=30096
type=note_on channel=6 note=35 velocity=80 time=24 actual_time=30120
type: note_off, time: 24, actual_time: 30168
type=note_on channel=6 note=28 velocity=0 time=48 actual_time=30168
type=note_on channel=6 note=28 velocity=80 time=12 actual_time=30180
type: note_off, time: 12, actual_time: 30228
type=note_on channel=6 note=28 velocity=0 time=48 actual_time=30228
type=note_on channel=6 note=35 velocity=80 time=12 actual_time=120
type: note_off, time: 12, actual_time: 216
type=note_on channel=6 note=30 velocity=0 time=96 actual_time=30336
type=note_on channel=6 note=35 velocity=80 time=24 actual_time=30360
type: note_off, time: 24, actual_time: 30408
type=note_on channel=6 note=30 velocity=0 time=48 actual_time=30408
type=note_on channel=6 note=35 velocity=80 time=12 actual_time=0
type: note_off, time: 12, actual_time: 48
type=note_on channel=6 note=30 velocity=0 time=48 actual_time=30468
type=note_on channel=6 note=35 velocity=80 time=12 actual_time=60
type: note_off, time: 12, actual_time: 156
type=note_on channel=6 note=30 velocity=0 time=96 actual_time=30576
type=note_on channel=6 note=35 velocity=80 time=24 actual_time=120
type: note_off, time: 24, actual_time: 168
type=note_on channel=6 note=30 velocity=0 time=48 actual_time=30648
type=note_on channel=6 note=30 velocity=80 time=12 actual_time=120
type: note_off, time: 12, actual_time: 168
type=note_on channel=6 note=30 velocity=0 time=48 actual_time=30708
type=note_on channel=6 note=35 velocity=80 time=12 actual_time=60
type: note_off, time: 12, actual_time: 156
type=note_on channel=6 note=35 velocity=0 time=96 actual_time=30816
type=note_on channel=6 note=35 velocity=80 time=24 actual_time=0
type: note_off, time: 24, actual_time: 48
type=note_on channel=6 note=35 velocity=0 time=48 actual_time=30888
type=note_on channel=6 note=35 velocity=80 time=12 actual_time=0
type: note_off, time: 12, actual_time: 48
type=note_on channel=6 note=35 velocity=0 time=48 actual_time=30948
type=note_on channel=6 note=35 velocity=80 time=12 actual_time=120
type: note_off, time: 12, actual_time: 216
type=note_on channel=6 note=35 velocity=0 time=96 actual_time=31056
type=note_on channel=6 note=35 velocity=80 time=24 actual_time=31080
type: note_off, time: 24, actual_time: 31128
type=note_on channel=6 note=35 velocity=0 time=48 actual_time=31128
type=note_on channel=6 note=35 velocity=80 time=12 actual_time=60
type: note_off, time: 12, actual_time: 108
type=note_on channel=6 note=35 velocity=0 time=48 actual_time=31188
type=note_on channel=6 note=35 velocity=80 time=12 actual_time=0
type: note_off, time: 12, actual_time: 96
type=note_on channel=6 note=35 velocity=0 time=96 actual_time=31296
type=note_on channel=6 note=35 velocity=80 time=24 actual_time=0
type: note_off, time: 24, actual_time: 48
type=note_on channel=6 note=35 velocity=0 time=48 actual_time=31368
type=note_on channel=6 note=34 velocity=80 time=12 actual_time=60
type: note_off, time: 12, actual_time: 108
type=note_on channel=6 note=35 velocity=0 time=48 actual_time=31428
type=note_on channel=6 note=35 velocity=80 time=12 actual_time=120
type: note_off, time: 12, actual_time: 216
type=note_on channel=6 note=35 velocity=0 time=96 actual_time=31536
type=note_on channel=6 note=35 velocity=80 time=24 actual_time=120
type: note_off, time: 24, actual_time: 168
type=note_on channel=6 note=35 velocity=0 time=48 actual_time=31608
type=note_on channel=6 note=35 velocity=80 time=12 actual_time=31620
type: note_off, time: 12, actual_time: 31668
type=note_on channel=6 note=35 velocity=0 time=48 actual_time=31668
type=note_on channel=6 note=35 velocity=80 time=12 actual_time=31680
type: note_off, time: 12, actual_time: 31776
type=note_on channel=6 note=31 velocity=0 time=96 actual_time=31776
type=note_on channel=6 note=35 velocity=80 time=24 actual_time=0
type: note_off, time: 24, actual_time: 48
type=note_on channel=6 note=31 velocity=0 time=48 actual_time=31848
type=note_on channel=6 note=35 velocity=80 time=12 actual_time=180
type: note_off, time: 12, actual_time: 228
type=note_on channel=6 note=31 velocity=0 time=48 actual_time=31908
type=note_on channel=6 note=35 velocity=80 time=12 actual_time=60
type: note_off, time: 12, actual_time: 156
type=note_on channel=6 note=31 velocity=0 time=96 actual_time=32016
type=note_on channel=6 note=31 velocity=80 time=24 actual_time=32040
type: note_off, time: 24, actual_time: 32088
type=note_on channel=6 note=31 velocity=0 time=48 actual_time=32088
type=note_on channel=6 note=31 velocity=80 time=12 actual_time=180
type: note_off, time: 12, actual_time: 228
type=note_on channel=6 note=31 velocity=0 time=48 actual_time=32148
type=note_on channel=6 note=35 velocity=80 time=12 actual_time=180
type: note_off, time: 12, actual_time: 276
type=note_on channel=6 note=33 velocity=0 time=96 actual_time=32256
type=note_on channel=6 note=33 velocity=80 time=24 actual_time=0
type: note_off, time: 24, actual_time: 48
type=note_on channel=6 note=33 velocity=0 time=48 actual_time=32328
type=note_on channel=6 note=33 velocity=80 time=12 actual_time=32340
type: note_off, time: 12, actual_time: 32388
type=note_on channel=6 note=33 velocity=0 time=48 actual_time=32388
type=note_on channel=6 note=35 velocity=80 time=12 actual_time=0
type: note_off, time: 12, actual_time: 96
type=note_on channel=6 note=33 velocity=0 time=96 actual_time=32496
type=note_on channel=6 note=35 velocity=80 time=24 actual_time=120
type: note_off, time: 24, actual_time: 168
type=note_on channel=6 note=33 velocity=0 time=48 actual_time=32568
type=note_on channel=6 note=35 velocity=80 time=12 actual_time=180
type: note_off, time: 12, actual_time: 228
type=note_on channel=6 note=33 velocity=0 time=48 actual_time=32628
type=note_on channel=6 note=35 velocity=80 time=12 actual_time=180
type: note_off, time: 12, actual_time: 276
type=note_on channel=6 note=35 velocity=0 time=96 actual_time=32736
type=note_on channel=6 note=35 velocity=80 time=24 actual_time=0
type: note_off, time: 24, actual_time: 48
type=note_on channel=6 note=35 velocity=0 time=48 actual_time=32808
type=note_on channel=6 note=36 velocity=80 time=12 actual_time=0
type: note_off, time: 12, actual_time: 48
type=note_on channel=6 note=35 velocity=0 time=48 actual_time=32868
type=note_on channel=6 note=35 velocity=80 time=12 actual_time=180
type: note_off, time: 12, actual_time: 276
type=note_on channel=6 note=35 velocity=0 time=96 actual_time=32976
type=note_on channel=6 note=35 velocity=80 time=24 actual_time=60
type: note_off, time: 24, actual_time: 108
type=note_on channel=6 note=35 velocity=0 time=48 actual_time=33048
type=note_on channel=6 note=35 velocity=80 time=12 actual_time=60
type: note_off, time: 12, actual_time: 108
type=note_on channel=6 note=35 velocity=0 time=48 actual_time=33108
type=note_on channel=6 note=38 velocity=80 time=12 actual_time=180
type: note_off, time: 12, actual_time: 276
type=note_on channel=6 note=35 velocity=0 time=96 actual_time=33216
type=note_on channel=6 note=35 velocity=80 time=24 actual_time=0
type: note_off, time: 24, actual_time: 48
type=note_on channel=6 note=35 velocity=0 time=48 actual_time=33288
type=note_on channel=6 note=35 velocity=80 time=12 actual_time=33300
type: note_off, time: 12, actual_time: 33348
type=note_on channel=6 note=35 velocity=0 time=48 actual_time=33348
type=note_on channel=6 note=30 velocity=80 time=12 actual_time=33360
type: note_off, time: 12, actual_time: 33456
type=note_on channel=6 note=35 velocity=0 time=96 actual_time=33456
type=note_on channel=6 note=35 velocity=80 time=24 actual_time=180
type: note_off, time: 24, actual_time: 228
type=note_on channel=6 note=35 velocity=0 time=48 actual_time=33528
type=note_on channel=6 note=35 velocity=80 time=12 actual_time=60
type: note_off, time: 12, actual_time: 108
type=note_on channel=6 note=35 velocity=0 time=48 actual_time=33588
type=note_on channel=6 note=35 velocity=80 time=12 actual_time=33600
type: note_off, time: 12, actual_time: 33696
type=note_on channel=6 note=28 velocity=0 time=96 actual_time=33696
type=note_on channel=6 note=35 velocity=80 time=24 actual_time=60
type: note_off, time: 24, actual_time: 156
type=note_on channel=6 note=28 velocity=0 time=96 actual_time=33816
type=note_on channel=6 note=35 velocity=80 time=24 actual_time=33840
type: note_off, time: 24, actual_time: 33936
type=note_on channel=6 note=28 velocity=0 time=96 actual_time=33936
type=note_on channel=6 note=35 velocity=80 time=24 actual_time=60
type: note_off, time: 24, actual_time: 156
type=note_on channel=6 note=28 velocity=0 time=96 actual_time=34056
type=note_on channel=6 note=35 velocity=80 time=24 actual_time=0
type: note_off, time: 24, actual_time: 96
type=note_on channel=6 note=30 velocity=0 time=96 actual_time=34176
type=note_on channel=6 note=26 velocity=80 time=24 actual_time=34200
type: note_off, time: 24, actual_time: 34296
type=note_on channel=6 note=30 velocity=0 time=96 actual_time=34296
type=note_on channel=6 note=29 velocity=80 time=24 actual_time=34320
type: note_off, time: 24, actual_time: 34416
type=note_on channel=6 note=30 velocity=0 time=96 actual_time=34416
type=note_on channel=6 note=35 velocity=80 time=24 actual_time=180
type: note_off, time: 24, actual_time: 276
type=note_on channel=6 note=30 velocity=0 time=96 actual_time=34536
type=note_on channel=6 note=35 velocity=80 time=24 actual_time=0
type: note_off, time: 24, actual_time: 912
type=note_on channel=6 note=35 velocity=0 time=912 actual_time=35472
type=note_on channel=6 note=35 velocity=80 time=48 actual_time=0
type: note_off, time: 48, actual_time: 456
type=note_on channel=6 note=31 velocity=0 time=456 actual_time=35976
type=note_on channel=6 note=36 velocity=80 time=24 actual_time=0
type: note_off, time: 24, actual_time: 456
type=note_on channel=6 note=33 velocity=0 time=456 actual_time=36456
type=note_on channel=6 note=35 velocity=80 time=24 actual_time=180
type: note_off, time: 24, actual_time: 1092
type=note_on channel=6 note=35 velocity=0 time=912 actual_time=37392
type=note_on channel=6 note=31 velocity=80 time=48 actual_time=120
type: note_off, time: 48, actual_time: 576
type=note_on channel=6 note=31 velocity=0 time=456 actual_time=37896
type=note_on channel=6 note=33 velocity=80 time=24 actual_time=37920
type: note_off, time: 24, actual_time: 38376
type=note_on channel=6 note=33 velocity=0 time=456 actual_time=38376
type=note_on channel=6 note=35 velocity=80 time=24 actual_time=60
type: note_off, time: 24, actual_time: 972
type=note_on channel=6 note=35 velocity=0 time=912 actual_time=39312
type=note_on channel=6 note=35 velocity=80 time=48 actual_time=39360
type: note_off, time: 48, actual_time: 39816
type=note_on channel=6 note=31 velocity=0 time=456 actual_time=39816
type=note_on channel=6 note=33 velocity=80 time=24 actual_time=0
type: note_off, time: 24, actual_time: 456
type=note_on channel=6 note=33 velocity=0 time=456 actual_time=40296
type=note_on channel=6 note=35 velocity=80 time=24 actual_time=180
type: note_off, time: 24, actual_time: 1092
type=note_on channel=6 note=35 velocity=0 time=912 actual_time=41232
type=note_on channel=6 note=35 velocity=80 time=48 actual_time=180
type: note_off, time: 48, actual_time: 636
type=note_on channel=6 note=31 velocity=0 time=456 actual_time=41736
type=note_on channel=6 note=35 velocity=80 time=24 actual_time=180
type: note_off, time: 24, actual_time: 636
type=note_on channel=6 note=33 velocity=0 time=456 actual_time=42216
type=note_on channel=6 note=35 velocity=80 time=24 actual_time=42240
type: note_off, time: 24, actual_time: 43152
type=note_on channel=6 note=35 velocity=0 time=912 actual_time=43152
type=note_on channel=6 note=35 velocity=80 time=48 actual_time=180
type: note_off, time: 48, actual_time: 636
type=note_on channel=6 note=31 velocity=0 time=456 actual_time=43656
type=note_on channel=6 note=35 velocity=80 time=24 actual_time=0
type: note_off, time: 24, actual_time: 456
type=note_on channel=6 note=33 velocity=0 time=456 actual_time=44136
type=note_on channel=6 note=32 velocity=80 time=24 actual_time=120
type: note_off, time: 24, actual_time: 1032
type=note_on channel=6 note=35 velocity=0 time=912 actual_time=45072
type=note_on channel=6 note=31 velocity=80 time=48 actual_time=120
type: note_off, time: 48, actual_time: 576
type=note_on channel=6 note=31 velocity=0 time=456 actual_time=45576
type=note_on channel=6 note=33 velocity=80 time=24 actual_time=120
type: note_off, time: 24, actual_time: 576
type=note_on channel=6 note=33 velocity=0 time=456 actual_time=46056
type=note_on channel=6 note=35 velocity=80 time=24 actual_time=120
type: note_off, time: 24, actual_time: 216
type=note_on channel=6 note=35 velocity=0 time=96 actual_time=46176
type=note_on channel=6 note=35 velocity=80 time=24 actual_time=60
type: note_off, time: 24, actual_time: 108
type=note_on channel=6 note=35 velocity=0 time=48 actual_time=46248
type=note_on channel=6 note=35 velocity=80 time=12 actual_time=60
type: note_off, time: 12, actual_time: 108
type=note_on channel=6 note=35 velocity=0 time=48 actual_time=46308
type=note_on channel=6 note=35 velocity=80 time=12 actual_time=0
type: note_off, time: 12, actual_time: 96
type=note_on channel=6 note=35 velocity=0 time=96 actual_time=46416
type=note_on channel=6 note=35 velocity=80 time=24 actual_time=46440
type: note_off, time: 24, actual_time: 46488
type=note_on channel=6 note=35 velocity=0 time=48 actual_time=46488
type=note_on channel=6 note=39 velocity=80 time=12 actual_time=180
type: note_off, time: 12, actual_time: 228
type=note_on channel=6 note=35 velocity=0 time=48 actual_time=46548
type=note_on channel=6 note=35 velocity=80 time=12 actual_time=60
type: note_off, time: 12, actual_time: 156
type=note_on channel=6 note=35 velocity=0 time=96 actual_time=46656
type=note_on channel=6 note=35 velocity=80 time=24 actual_time=0
type: note_off, time: 24, actual_time: 48
type=note_on channel=6 note=35 velocity=0 time=48 actual_time=46728
type=note_on channel=6 note=35 velocity=80 time=12 actual_time=0
type: note_off, time: 12, actual_time: 48
type=note_on channel=6 note=35 velocity=0 time=48 actual_time=46788
type=note_on channel=6 note=32 velocity=80 time=12 actual_time=0
type: note_off, time: 12, actual_time: 96
type=note_on channel=6 note=35 velocity=0 time=96 actual_time=46896
type=note_on channel=6 note=35 velocity=80 time=24 actual_time=60
type: note_off, time: 24, actual_time: 108
type=note_on channel=6 note=35 velocity=0 time=48 actual_time=46968
type=note_on channel=6 note=35 velocity=80 time=12 actual_time=180
type: note_off, time: 12, actual_time: 228
type=note_on channel=6 note=35 velocity=0 time=48 actual_time=47028
type=note_on channel=6 note=35 velocity=80 time=12 actual_time=47040
type: note_off, time: 12, actual_time: 47136
type=note_on channel=6 note=31 velocity=0 time=96 actual_time=47136
type=note_on channel=6 note=35 velocity=80 time=24 actual_time=47160
type: note_off, time: 24, actual_time: 47208
type=note_on channel=6 note=31 velocity=0 time=48 actual_time=47208
type=note_on channel=6 note=35 velocity=80 time=12 actual_time=180
type: note_off, time: 12, actual_time: 228
type=note_on channel=6 note=31 velocity=0 time=48 actual_time=47268
type=note_on channel=6 note=35 velocity=80 time=12 actual_time=180
type: note_off, time: 12, actual_time: 276
type=note_on channel=6 note=31 velocity=0 time=96 actual_time=47376
type=note_on channel=6 note=35 velocity=80 time=24 actual_time=60
type: note_off, time: 24, actual_time: 108
type=note_on channel=6 note=31 velocity=0 time=48 actual_time=47448
type=note_on channel=6 note=31 velocity=80 time=12 actual_time=60
type: note_off, time: 12, actual_time: 108
type=note_on channel=6 note=31 velocity=0 time=48 actual_time=47508
type=note_on channel=6 note=35 velocity=80 time=12 actual_time=60
type: note_off, time: 12, actual_time: 156
type=note_on channel=6 note=33 velocity=0 time=96 actual_time=47616
type=note_on channel=6 note=35 velocity=80 time=24 actual_time=0
type: note_off, time: 24, actual_time: 48
type=note_on channel=6 note=33 velocity=0 time=48 actual_time=47688
type=note_on channel=6 note=35 velocity=80 time=12 actual_time=47700
type: note_off, time: 12, actual_time: 47748
type=note_on channel=6 note=33 velocity=0 time=48 actual_time=47748
type=note_on channel=6 note=35 velocity=80 time=12 actual_time=47760
type: note_off, time: 12, actual_time: 47856
type=note_on channel=6 note=33 velocity=0 time=96 actual_time=47856
type=note_on channel=6 note=35 velocity=80 time=24 actual_time=0
type: note_off, time: 24, actual_time: 48
type=note_on channel=6 note=33 velocity=0 time=48 actual_time=47928
type=note_on channel=6 note=35 velocity=80 time=12 actual_time=180
type: note_off, time: 12, actual_time: 228
type=note_on channel=6 note=33 velocity=0 time=48 actual_time=47988
type=note_on channel=6 note=35 velocity=80 time=12 actual_time=0
type: note_off, time: 12, actual_time: 96
type=note_on channel=6 note=35 velocity=0 time=96 actual_time=48096
type=note_on channel=6 note=35 velocity=80 time=24 actual_time=180
type: note_off, time: 24, actual_time: 228
type=note_on channel=6 note=35 velocity=0 time=48 actual_time=48168
type=note_on channel=6 note=35 velocity=80 time=12 actual_time=120
type: note_off, time: 12, actual_time: 168
type=note_on channel=6 note=35 velocity=0 time=48 actual_time=48228
type=note_on channel=6 note=39 velocity=80 time=12 actual_time=0
type: note_off, time: 12, actual_time: 96
type=note_on channel=6 note=35 velocity=0 time=96 actual_time=48336
type=note_on channel=6 note=35 velocity=80 time=24 actual_time=48360
type: note_off, time: 24, actual_time: 48408
type=note_on channel=6 note=35 velocity=0 time=48 actual_time=48408
type=note_on channel=6 note=35 velocity=80 time=12 actual_time=48420
type: note_off, time: 12, actual_time: 48468
type=note_on channel=6 note=35 velocity=0 time=48 actual_time=48468
type=note_on channel=6 note=35 velocity=80 time=12 actual_time=60
type: note_off, time: 12, actual_time: 156
type=note_on channel=6 note=35 velocity=0 time=96 actual_time=48576
type=note_on channel=6 note=35 velocity=80 time=24 actual_time=120
type: note_off, time: 24, actual_time: 168
type=note_on channel=6 note=35 velocity=0 time=48 actual_time=48648
type=note_on channel=6 note=35 velocity=80 time=12 actual_time=120
type: note_off, time: 12, actual_time: 168
type=note_on channel=6 note=35 velocity=0 time=48 actual_time=48708
type=note_on channel=6 note=35 velocity=80 time=12 actual_time=120
type: note_off, time: 12, actual_time: 216
type=note_on channel=6 note=35 velocity=0 time=96 actual_time=48816
type=note_on channel=6 note=35 velocity=80 time=24 actual_time=0
type: note_off, time: 24, actual_time: 48
type=note_on channel=6 note=35 velocity=0 time=48 actual_time=48888
type=note_on channel=6 note=35 velocity=80 time=12 actual_time=120
type: note_off, time: 12, actual_time: 168
type=note_on channel=6 note=35 velocity=0 time=48 actual_time=48948
type=note_on channel=6 note=28 velocity=80 time=12 actual_time=180
type: note_off, time: 12, actual_time: 276
type=note_on channel=6 note=28 velocity=0 time=96 actual_time=49056
type=note_on channel=6 note=35 velocity=80 time=24 actual_time=49080
type: note_off, time: 24, actual_time: 49128
type=note_on channel=6 note=28 velocity=0 time=48 actual_time=49128
type=note_on channel=6 note=35 velocity=80 time=12 actual_time=60
type: note_off, time: 12, actual_time: 108
type=note_on channel=6 note=28 velocity=0 time=48 actual_time=49188
type=note_on channel=6 note=35 velocity=80 time=12 actual_time=180
type: note_off, time: 12, actual_time: 276
type=note_on channel=6 note=28 velocity=0 time=96 actual_time=49296
type=note_on channel=6 note=35 velocity=80 time=24 actual_time=180
type: note_off, time: 24, actual_time: 228
type=note_on channel=6 note=28 velocity=0 time=48 actual_time=49368
type=note_on channel=6 note=35 velocity=80 time=12 actual_time=49380
type: note_off, time: 12, actual_time: 49428
type=note_on channel=6 note=28 velocity=0 time=48 actual_time=49428
type=note_on channel=6 note=35 velocity=80 time=12 actual_time=180
type: note_off, time: 12, actual_time: 276
type=note_on channel=6 note=30 velocity=0 time=96 actual_time=49536
type=note_on channel=6 note=35 velocity=80 time=24 actual_time=49560
type: note_off, time: 24, actual_time: 49608
type=note_on channel=6 note=30 velocity=0 time=48 actual_time=49608
type=note_on channel=6 note=35 velocity=80 time=12 actual_time=120
type: note_off, time: 12, actual_time: 168
type=note_on channel=6 note=30 velocity=0 time=48 actual_time=49668
type=note_on channel=6 note=35 velocity=80 time=12 actual_time=120
type: note_off, time: 12, actual_time: 216
type=note_on channel=6 note=30 velocity=0 time=96 actual_time=49776
type=note_on channel=6 note=35 velocity=80 time=24 actual_time=60
type: note_off, time: 24, actual_time: 108
type=note_on channel=6 note=30 velocity=0 time=48 actual_time=49848
type=note_on channel=6 note=35 velocity=80 time=12 actual_time=49860
type: note_off, time: 12, actual_time: 49908
type=note_on channel=6 note=30 velocity=0 time=48 actual_time=49908
type=note_on channel=6 note=36 velocity=80 time=12 actual_time=49920
type: note_off, time: 12, actual_time: 50016
type=note_on channel=6 note=35 velocity=0 time=96 actual_time=50016
type=note_on channel=6 note=35 velocity=80 time=24 actual_time=120
type: note_off, time: 24, actual_time: 168
type=note_on channel=6 note=35 velocity=0 time=48 actual_time=50088
type=note_on channel=6 note=35 velocity=80 time=12 actual_time=180
type: note_off, time: 12, actual_time: 228
type=note_on channel=6 note=35 velocity=0 time=48 actual_time=50148
type=note_on channel=6 note=35 velocity=80 time=12 actual_time=60
type: note_off, time: 12, actual_time: 156
type=note_on channel=6 note=35 velocity=0 time=96 actual_time=50256
type=note_on channel=6 note=35 velocity=80 time=24 actual_time=120
type: note_off, time: 24, actual_time: 168
type=note_on channel=6 note=35 velocity=0 time=48 actual_time=50328
type=note_on channel=6 note=35 velocity=80 time=12 actual_time=180
type: note_off, time: 12, actual_time: 228
type=note_on channel=6 note=35 velocity=0 time=48 actual_time=50388
type=note_on channel=6 note=37 velocity=80 time=12 actual_time=120
type: note_off, time: 12, actual_time: 216
type=note_on channel=6 note=35 velocity=0 time=96 actual_time=50496
type=note_on channel=6 note=35 velocity=80 time=24 actual_time=120
type: note_off, time: 24, actual_time: 168
type=note_on channel=6 note=35 velocity=0 time=48 actual_time=50568
type=note_on channel=6 note=35 velocity=80 time=12 actual_time=0
type: note_off, time: 12, actual_time: 48
type=note_on channel=6 note=35 velocity=0 time=48 actual_time=50628
type=note_on channel=6 note=35 velocity=80 time=12 actual_time=60
type: note_off, time: 12, actual_time: 156
type=note_on channel=6 note=35 velocity=0 time=96 actual_time=50736
type=note_on channel=6 note=35 velocity=80 time=24 actual_time=0
type: note_off, time: 24, actual_time: 48
type=note_on channel=6 note=35 velocity=0 time=48 actual_time=50808
type=note_on channel=6 note=35 velocity=80 time=12 actual_time=50820
type: note_off, time: 12, actual_time: 50868
type=note_on channel=6 note=35 velocity=0 time=48 actual_time=50868
type=note_on channel=6 note=28 velocity=80 time=12 actual_time=50880
type: note_off, time: 12, actual_time: 50976
type=note_on channel=6 note=31 velocity=0 time=96 actual_time=50976
type=note_on channel=6 note=27 velocity=80 time=24 actual_time=0
type: note_off, time: 24, actual_time: 48
type=note_on channel=6 note=31 velocity=0 time=48 actual_time=51048
type=note_on channel=6 note=35 velocity=80 time=12 actual_time=180
type: note_off, time: 12, actual_time: 228
type=note_on channel=6 note=31 velocity=0 time=48 actual_time=51108
type=note_on channel=6 note=31 velocity=80 time=12 actual_time=60
type: note_off, time: 12, actual_time: 156
type=note_on channel=6 note=31 velocity=0 time=96 actual_time=51216
type=note_on channel=6 note=35 velocity=80 time=24 actual_time=180
type: note_off, time: 24, actual_time: 228
type=note_on channel=6 note=31 velocity=0 time=48 actual_time=51288
type=note_on channel=6 note=35 velocity=80 time=12 actual_time=180
type: note_off, time: 12, actual_time: 228
type=note_on channel=6 note=31 velocity=0 time=48 actual_time=51348
type=note_on channel=6 note=35 velocity=80 time=12 actual_time=0
type: note_off, time: 12, actual_time: 96
type=note_on channel=6 note=33 velocity=0 time=96 actual_time=51456
type=note_on channel=6 note=35 velocity=80 time=24 actual_time=120
type: note_off, time: 24, actual_time: 168
type=note_on channel=6 note=33 velocity=0 time=48 actual_time=51528
type=note_on channel=6 note=33 velocity=80 time=12 actual_time=51540
type: note_off, time: 12, actual_time: 51588
type=note_on channel=6 note=33 velocity=0 time=48 actual_time=51588
type=note_on channel=6 note=33 velocity=80 time=12 actual_time=51600
type: note_off, time: 12, actual_time: 51696
type=note_on channel=6 note=33 velocity=0 time=96 actual_time=51696
type=note_on channel=6 note=33 velocity=80 time=24 actual_time=60
type: note_off, time: 24, actual_time: 108
type=note_on channel=6 note=33 velocity=0 time=48 actual_time=51768
type=note_on channel=6 note=33 velocity=80 time=12 actual_time=60
type: note_off, time: 12, actual_time: 108
type=note_on channel=6 note=33 velocity=0 time=48 actual_time=51828
type=note_on channel=6 note=35 velocity=80 time=12 actual_time=0
type: note_off, time: 12, actual_time: 96
type=note_on channel=6 note=35 velocity=0 time=96 actual_time=51936
type=note_on channel=6 note=35 velocity=80 time=24 actual_time=120
type: note_off, time: 24, actual_time: 168
type=note_on channel=6 note=35 velocity=0 time=48 actual_time=52008
type=note_on channel=6 note=35 velocity=80 time=12 actual_time=52020
type: note_off, time: 12, actual_time: 52068
type=note_on channel=6 note=35 velocity=0 time=48 actual_time=52068
type=note_on channel=6 note=35 velocity=80 time=12 actual_time=60
type: note_off, time: 12, actual_time: 156
type=note_on channel=6 note=35 velocity=0 time=96 actual_time=52176
type=note_on channel=6 note=35 velocity=80 time=24 actual_time=60
type: note_off, time: 24, actual_time: 108
type=note_on channel=6 note=35 velocity=0 time=48 actual_time=52248
type=note_on channel=6 note=35 velocity=80 time=12 actual_time=0
type: note_off, time: 12, actual_time: 48
type=note_on channel=6 note=35 velocity=0 time=48 actual_time=52308
type=note_on channel=6 note=35 velocity=80 time=12 actual_time=52320
type: note_off, time: 12, actual_time: 52416
type=note_on channel=6 note=35 velocity=0 time=96 actual_time=52416
type=note_on channel=6 note=35 velocity=80 time=24 actual_time=0
type: note_off, time: 24, actual_time: 48
type=note_on channel=6 note=35 velocity=0 time=48 actual_time=52488
type=note_on channel=6 note=33 velocity=80 time=12 actual_time=60
type: note_off, time: 12, actual_time: 108
type=note_on channel=6 note=35 velocity=0 time=48 actual_time=52548
type=note_on channel=6 note=35 velocity=80 time=12 actual_time=0
type: note_off, time: 12, actual_time: 96
type=note_on channel=6 note=35 velocity=0 time=96 actual_time=52656
type=note_on channel=6 note=35 velocity=80 time=24 actual_time=60
type: note_off, time: 24, actual_time: 108
type=note_on channel=6 note=35 velocity=0 time=48 actual_time=52728
type=note_on channel=6 note=35 velocity=80 time=12 actual_time=60
type: note_off, time: 12, actual_time: 108
type=note_on channel=6 note=35 velocity=0 time=48 actual_time=52788
type=note_on channel=6 note=35 velocity=80 time=12 actual_time=52800
type: note_off, time: 12, actual_time: 52896
type=note_on channel=6 note=28 velocity=0 time=96 actual_time=52896
type=note_on channel=6 note=35 velocity=80 time=24 actual_time=60
type: note_off, time: 24, actual_time: 156
type=note_on channel=6 note=28 velocity=0 time=96 actual_time=53016
type=note_on channel=6 note=35 velocity=80 time=24 actual_time=120
type: note_off, time: 24, actual_time: 216
type=note_on channel=6 note=28 velocity=0 time=96 actual_time=53136
type=note_on channel=6 note=35 velocity=80 time=24 actual_time=0
type: note_off, time: 24, actual_time: 96
type=note_on channel=6 note=28 velocity=0 time=96 actual_time=53256
type=note_on channel=6 note=35 velocity=80 time=24 actual_time=53280
type: note_off, time: 24, actual_time: 53376
type=note_on channel=6 note=30 velocity=0 time=96 actual_time=53376
type=note_on channel=6 note=35 velocity=80 time=24 actual_time=180
type: note_off, time: 24, actual_time: 276
type=note_on channel=6 note=30 velocity=0 time=96 actual_time=53496
type=note_on channel=6 note=35 velocity=80 time=24 actual_time=60
type: note_off, time: 24, actual_time: 156
type=note_on channel=6 note=30 velocity=0 time=96 actual_time=53616
type=note_on channel=6 note=30 velocity=80 time=24 actual_time=180
type: note_off, time: 24, actual_time: 276
type=note_on channel=6 note=30 velocity=0 time=96 actual_time=53736
type=note_on channel=6 note=35 velocity=80 time=24 actual_time=120
type: note_off, time: 24, actual_time: 168
type=note_on channel=6 note=35 velocity=0 time=48 actual_time=53808
type=note_on channel=6 note=35 velocity=80 time=12 actual_time=120
type: note_off, time: 12, actual_time: 168
type=note_on channel=6 note=35 velocity=0 time=48 actual_time=53868
type=note_on channel=6 note=35 velocity=80 time=12 actual_time=60
type: note_off, time: 12, actual_time: 156
type=note_on channel=6 note=35 velocity=0 time=96 actual_time=53976
type=note_on channel=6 note=35 velocity=80 time=24 actual_time=180
type: note_off, time: 24, actual_time: 276
type=note_on channel=6 note=35 velocity=0 time=96 actual_time=54096
type=note_on channel=6 note=34 velocity=80 time=24 actual_time=0
type: note_off, time: 24, actual_time: 96
type=note_on channel=6 note=35 velocity=0 time=96 actual_time=54216
type=note_on channel=6 note=35 velocity=80 time=24 actual_time=54240
type: note_off, time: 24, actual_time: 54336
type=note_on channel=6 note=35 velocity=0 time=96 actual_time=54336
type=note_on channel=6 note=35 velocity=80 time=24 actual_time=180
type: note_off, time: 24, actual_time: 276
type=note_on channel=6 note=35 velocity=0 time=96 actual_time=54456
type=note_on channel=6 note=35 velocity=80 time=24 actual_time=120
type: note_off, time: 24, actual_time: 216
type=note_on channel=6 note=35 velocity=0 time=96 actual_time=54576
type=note_on channel=6 note=35 velocity=80 time=24 actual_time=120
type: note_off, time: 24, actual_time: 216
type=note_on channel=6 note=35 velocity=0 time=96 actual_time=54696
type=note_on channel=6 note=35 velocity=80 time=24 actual_time=180
type: note_off, time: 24, actual_time: 276
type=note_on channel=6 note=31 velocity=0 time=96 actual_time=54816
type=note_on channel=6 note=35 velocity=80 time=24 actual_time=60
type: note_off, time: 24, actual_time: 156
type=note_on channel=6 note=31 velocity=0 time=96 actual_time=54936
type=note_on channel=6 note=35 velocity=80 time=24 actual_time=60
type: note_off, time: 24, actual_time: 156
type=note_on channel=6 note=31 velocity=0 time=96 actual_time=55056
type=note_on channel=6 note=35 velocity=80 time=24 actual_time=60
type: note_off, time: 24, actual_time: 108
type=note_on channel=6 note=31 velocity=0 time=48 actual_time=55128
type=note_on channel=6 note=35 velocity=80 time=12 actual_time=60
type: note_off, time: 12, actual_time: 108
type=note_on channel=6 note=31 velocity=0 time=48 actual_time=55188
type=note_on channel=6 note=35 velocity=80 time=12 actual_time=55200
type: note_off, time: 12, actual_time: 55296
type=note_on channel=6 note=33 velocity=0 time=96 actual_time=55296
type=note_on channel=6 note=35 velocity=80 time=24 actual_time=60
type: note_off, time: 24, actual_time: 156
type=note_on channel=6 note=33 velocity=0 time=96 actual_time=55416
type=note_on channel=6 note=35 velocity=80 time=24 actual_time=120
type: note_off, time: 24, actual_time: 216
type=note_on channel=6 note=33 velocity=0 time=96 actual_time=55536
type=note_on channel=6 note=35 velocity=80 time=24 actual_time=0
type: note_off, time: 24, actual_time: 48
type=note_on channel=6 note=33 velocity=0 time=48 actual_time=55608
type=note_on channel=6 note=35 velocity=80 time=12 actual_time=0
type: note_off, time: 12, actual_time: 48
type=note_on channel=6 note=33 velocity=0 time=48 actual_time=55668
type=note_on channel=6 note=35 velocity=80 time=12 actual_time=120
type: note_off, time: 12, actual_time: 216
type=note_on channel=6 note=35 velocity=0 time=96 actual_time=55776
type=note_on channel=6 note=35 velocity=80 time=24 actual_time=60
type: note_off, time: 24, actual_time: 156
type=note_on channel=6 note=35 velocity=0 time=96 actual_time=55896
type=note_on channel=6 note=39 velocity=80 time=24 actual_time=0
type: note_off, time: 24, actual_time: 96
type=note_on channel=6 note=35 velocity=0 time=96 actual_time=56016
type=note_on channel=6 note=35 velocity=80 time=24 actual_time=180
type: note_off, time: 24, actual_time: 276
type=note_on channel=6 note=35 velocity=0 time=96 actual_time=56136
type=note_on channel=6 note=35 velocity=80 time=24 actual_time=180
type: note_off, time: 24, actual_time: 276
type=note_on channel=6 note=35 velocity=0 time=96 actual_time=56256
type=note_on channel=6 note=35 velocity=80 time=24 actual_time=60
type: note_off, time: 24, actual_time: 156
type=note_on channel=6 note=35 velocity=0 time=96 actual_time=56376
type=note_on channel=6 note=35 velocity=80 time=24 actual_time=56400
type: note_off, time: 24, actual_time: 56496
type=note_on channel=6 note=35 velocity=0 time=96 actual_time=56496
type=note_on channel=6 note=35 velocity=80 time=24 actual_time=0
type: note_off, time: 24, actual_time: 96
type=note_on channel=6 note=35 velocity=0 time=96 actual_time=56616
type=note_on channel=6 note=35 velocity=80 time=24 actual_time=56640
type: note_off, time: 24, actual_time: 56736
type=note_on channel=6 note=31 velocity=0 time=96 actual_time=56736
type=note_on channel=6 note=31 velocity=80 time=24 actual_time=120
type: note_off, time: 24, actual_time: 216
type=note_on channel=6 note=31 velocity=0 time=96 actual_time=56856
type=note_on channel=6 note=35 velocity=80 time=24 actual_time=56880
type: note_off, time: 24, actual_time: 56976
type=note_on channel=6 note=31 velocity=0 time=96 actual_time=56976
type=note_on channel=6 note=35 velocity=80 time=24 actual_time=180
type: note_off, time: 24, actual_time: 228
type=note_on channel=6 note=31 velocity=0 time=48 actual_time=57048
type=note_on channel=6 note=35 velocity=80 time=12 actual_time=120
type: note_off, time: 12, actual_time: 168
type=note_on channel=6 note=31 velocity=0 time=48 actual_time=57108
type=note_on channel=6 note=35 velocity=80 time=12 actual_time=57120
type: note_off, time: 12, actual_time: 57216
type=note_on channel=6 note=33 velocity=0 time=96 actual_time=57216
type=note_on channel=6 note=35 velocity=80 time=24 actual_time=0
type: note_off, time: 24, actual_time: 96
type=note_on channel=6 note=33 velocity=0 time=96 actual_time=57336
type=note_on channel=6 note=35 velocity=80 time=24 actual_time=180
type: note_off, time: 24, actual_time: 276
type=note_on channel=6 note=33 velocity=0 time=96 actual_time=57456
type=note_on channel=6 note=33 velocity=80 time=24 actual_time=180
type: note_off, time: 24, actual_time: 228
type=note_on channel=6 note=33 velocity=0 time=48 actual_time=57528
type=note_on channel=6 note=35 velocity=80 time=12 actual_time=120
type: note_off, time: 12, actual_time: 168
type=note_on channel=6 note=33 velocity=0 time=48 actual_time=57588
type=note_on channel=6 note=35 velocity=80 time=12 actual_time=57600
type: note_off, time: 12, actual_time: 57696
type=note_on channel=6 note=35 velocity=0 time=96 actual_time=57696
type=note_on channel=6 note=35 velocity=80 time=24 actual_time=180
type: note_off, time: 24, actual_time: 276
type=note_on channel=6 note=35 velocity=0 time=96 actual_time=57816
type=note_on channel=6 note=35 velocity=80 time=24 actual_time=180
type: note_off, time: 24, actual_time: 276
type=note_on channel=6 note=35 velocity=0 time=96 actual_time=57936
type=note_on channel=6 note=33 velocity=80 time=24 actual_time=120
type: note_off, time: 24, actual_time: 216
type=note_on channel=6 note=35 velocity=0 time=96 actual_time=58056
type=note_on channel=6 note=37 velocity=80 time=24 actual_time=0
type: note_off, time: 24, actual_time: 96
type=note_on channel=6 note=35 velocity=0 time=96 actual_time=58176
type=note_on channel=6 note=35 velocity=80 time=24 actual_time=60
type: note_off, time: 24, actual_time: 156
type=note_on channel=6 note=35 velocity=0 time=96 actual_time=58296
type=note_on channel=6 note=35 velocity=80 time=24 actual_time=180
type: note_off, time: 24, actual_time: 276
type=note_on channel=6 note=35 velocity=0 time=96 actual_time=58416
type=note_on channel=6 note=36 velocity=80 time=24 actual_time=60
type: note_off, time: 24, actual_time: 156
type=note_on channel=6 note=35 velocity=0 time=96 actual_time=58536
type=note_on channel=6 note=35 velocity=80 time=24 actual_time=60
type: note_off, time: 24, actual_time: 156
type=note_on channel=6 note=31 velocity=0 time=96 actual_time=58656
type=note_on channel=6 note=35 velocity=80 time=24 actual_time=180
type: note_off, time: 24, actual_time: 276
type=note_on channel=6 note=31 velocity=0 time=96 actual_time=58776
type=note_on channel=6 note=35 velocity=80 time=24 actual_time=58800
type: note_off, time: 24, actual_time: 58896
type=note_on channel=6 note=31 velocity=0 time=96 actual_time=58896
type=note_on channel=6 note=29 velocity=80 time=24 actual_time=58920
type: note_off, time: 24, actual_time: 58968
type=note_on channel=6 note=31 velocity=0 time=48 actual_time=58968
type=note_on channel=6 note=31 velocity=80 time=12 actual_time=180
type: note_off, time: 12, actual_time: 228
type=note_on channel=6 note=31 velocity=0 time=48 actual_time=59028
type=note_on channel=6 note=35 velocity=80 time=12 actual_time=60
type: note_off, time: 12, actual_time: 156
type=note_on channel=6 note=33 velocity=0 time=96 actual_time=59136
type=note_on channel=6 note=33 velocity=80 time=24 actual_time=180
type: note_off, time: 24, actual_time: 276
type=note_on channel=6 note=33 velocity=0 time=96 actual_time=59256
type=note_on channel=6 note=35 velocity=80 time=24 actual_time=60
type: note_off, time: 24, actual_time: 156
type=note_on channel=6 note=33 velocity=0 time=96 actual_time=59376
type=note_on channel=6 note=35 velocity=80 time=24 actual_time=0
type: note_off, time: 24, actual_time: 48
type=note_on channel=6 note=33 velocity=0 time=48 actual_time=59448
type=note_on channel=6 note=35 velocity=80 time=12 actual_time=59460
type: note_off, time: 12, actual_time: 59508
type=note_on channel=6 note=33 velocity=0 time=48 actual_time=59508
type=note_on channel=6 note=35 velocity=80 time=12 actual_time=0
type: note_off, time: 12, actual_time: 96
type=note_on channel=6 note=35 velocity=0 time=96 actual_time=59616
type=note_on channel=6 note=35 velocity=80 time=24 actual_time=180
type: note_off, time: 24, actual_time: 276
type=note_on channel=6 note=35 velocity=0 time=96 actual_time=59736
type=note_on channel=6 note=35 velocity=80 time=24 actual_time=59760
type: note_off, time: 24, actual_time: 59856
type=note_on channel=6 note=35 velocity=0 time=96 actual_time=59856
type=note_on channel=6 note=35 velocity=80 time=24 actual_time=120
type: note_off, time: 24, actual_time: 216
type=note_on channel=6 note=35 velocity=0 time=96 actual_time=59976
type=note_on channel=6 note=35 velocity=80 time=24 actual_time=60
type: note_off, time: 24, actual_time: 156
type=note_on channel=6 note=35 velocity=0 time=96 actual_time=60096
type=note_on channel=6 note=35 velocity=80 time=24 actual_time=120
type: note_off, time: 24, actual_time: 216
type=note_on channel=6 note=35 velocity=0 time=96 actual_time=60216
type=note_on channel=6 note=35 velocity=80 time=24 actual_time=180
type: note_off, time: 24, actual_time: 276
type=note_on channel=6 note=35 velocity=0 time=96 actual_time=60336
type=note_on channel=6 note=35 velocity=80 time=24 actual_time=180
type: note_off, time: 24, actual_time: 276
type=note_on channel=6 note=35 velocity=0 time=96 actual_time=60456
type=note_on channel=6 note=35 velocity=80 time=24 actual_time=0
type: note_off, time: 24, actual_time: 96
type=note_on channel=6 note=31 velocity=0 time=96 actual_time=60576
type=note_on channel=6 note=35 velocity=80 time=24 actual_time=180
type: note_off, time: 24, actual_time: 276
type=note_on channel=6 note=31 velocity=0 time=96 actual_time=60696
type=note_on channel=6 note=35 velocity=80 time=24 actual_time=120
type: note_off, time: 24, actual_time: 216
type=note_on channel=6 note=31 velocity=0 time=96 actual_time=60816
type=note_on channel=6 note=35 velocity=80 time=24 actual_time=120
type: note_off, time: 24, actual_time: 168
type=note_on channel=6 note=31 velocity=0 time=48 actual_time=60888
type=note_on channel=6 note=31 velocity=80 time=12 actual_time=60900
type: note_off, time: 12, actual_time: 60948
type=note_on channel=6 note=31 velocity=0 time=48 actual_time=60948
type=note_on channel=6 note=35 velocity=80 time=12 actual_time=0
type: note_off, time: 12, actual_time: 96
type=note_on channel=6 note=33 velocity=0 time=96 actual_time=61056
type=note_on channel=6 note=35 velocity=80 time=24 actual_time=120
type: note_off, time: 24, actual_time: 216
type=note_on channel=6 note=33 velocity=0 time=96 actual_time=61176
type=note_on channel=6 note=33 velocity=80 time=24 actual_time=61200
type: note_off, time: 24, actual_time: 61296
type=note_on channel=6 note=33 velocity=0 time=96 actual_time=61296
type=note_on channel=6 note=33 velocity=80 time=24 actual_time=61320
type: note_off, time: 24, actual_time: 61428
type=note_on channel=6 note=33 velocity=0 time=108 actual_time=61428
type=note_on channel=6 note=35 velocity=80 time=12 actual_time=120
type: note_off, time: 12, actual_time: 216
type=note_on channel=6 note=35 velocity=0 time=96 actual_time=61536
type=note_on channel=6 note=35 velocity=80 time=24 actual_time=120
type: note_off, time: 24, actual_time: 216
type=note_on channel=6 note=35 velocity=0 time=96 actual_time=61656
type=note_on channel=6 note=35 velocity=80 time=24 actual_time=180
type: note_off, time: 24, actual_time: 276
type=note_on channel=6 note=35 velocity=0 time=96 actual_time=61776
type=note_on channel=6 note=31 velocity=80 time=24 actual_time=120
type: note_off, time: 24, actual_time: 216
type=note_on channel=6 note=35 velocity=0 time=96 actual_time=61896
type=note_on channel=6 note=38 velocity=80 time=24 actual_time=0
type: note_off, time: 24, actual_time: 96
type=note_on channel=6 note=35 velocity=0 time=96 actual_time=62016
type=note_on channel=6 note=35 velocity=80 time=24 actual_time=62040
type: note_off, time: 24, actual_time: 62136
type=note_on channel=6 note=35 velocity=0 time=96 actual_time=62136
type=note_on channel=6 note=35 velocity=80 time=24 actual_time=180
type: note_off, time: 24, actual_time: 276
type=note_on channel=6 note=35 velocity=0 time=96 actual_time=62256
type=note_on channel=6 note=40 velocity=80 time=24 actual_time=180
type: note_off, time: 24, actual_time: 276
type=note_on channel=6 note=35 velocity=0 time=96 actual_time=62376
type=note_on channel=6 note=35 velocity=80 time=24 actual_time=120
type: note_off, time: 24, actual_time: 216
type=note_on channel=6 note=31 velocity=0 time=96 actual_time=62496
type=note_on channel=6 note=35 velocity=80 time=24 actual_time=0
type: note_off, time: 24, actual_time: 96
type=note_on channel=6 note=31 velocity=0 time=96 actual_time=62616
type=note_on channel=6 note=31 velocity=80 time=24 actual_time=60
type: note_off, time: 24, actual_time: 156
type=note_on channel=6 note=31 velocity=0 time=96 actual_time=62736
type=note_on channel=6 note=35 velocity=80 time=24 actual_time=180
type: note_off, time: 24, actual_time: 276
type=note_on channel=6 note=31 velocity=0 time=96 actual_time=62856
type=note_on channel=6 note=35 velocity=80 time=24 actual_time=60
type: note_off, time: 24, actual_time: 156
type=note_on channel=6 note=33 velocity=0 time=96 actual_time=62976
type=note_on channel=6 note=35 velocity=80 time=24 actual_time=120
type: note_off, time: 24, actual_time: 216
type=note_on channel=6 note=33 velocity=0 time=96 actual_time=63096
type=note_on channel=6 note=35 velocity=80 time=24 actual_time=0
type: note_off, time: 24, actual_time: 96
type=note_on channel=6 note=33 velocity=0 time=96 actual_time=63216
type=note_on channel=6 note=35 velocity=80 time=24 actual_time=120
type: note_off, time: 24, actual_time: 216
type=note_on channel=6 note=33 velocity=0 time=96 actual_time=63336
type=note_on channel=6 note=35 velocity=80 time=24 actual_time=180
type: note_off, time: 24, actual_time: 276
type=note_on channel=6 note=35 velocity=0 time=96 actual_time=63456
type=note_on channel=6 note=35 velocity=80 time=24 actual_time=60
type: note_off, time: 24, actual_time: 156
type=note_on channel=6 note=35 velocity=0 time=96 actual_time=63576
type=note_on channel=6 note=35 velocity=80 time=24 actual_time=120
type: note_off, time: 24, actual_time: 216
type=note_on channel=6 note=35 velocity=0 time=96 actual_time=63696
type=note_on channel=6 note=35 velocity=80 time=24 actual_time=180
type: note_off, time: 24, actual_time: 276
type=note_on channel=6 note=35 velocity=0 time=96 actual_time=63816
type=note_on channel=6 note=35 velocity=80 time=24 actual_time=63840
type: note_off, time: 24, actual_time: 63936
type=note_on channel=6 note=35 velocity=0 time=96 actual_time=63936
type=note_on channel=6 note=35 velocity=80 time=24 actual_time=180
type: note_off, time: 24, actual_time: 276
type=note_on channel=6 note=35 velocity=0 time=96 actual_time=64056
type=note_on channel=6 note=35 velocity=80 time=24 actual_time=0
type: note_off, time: 24, actual_time: 96
type=note_on channel=6 note=35 velocity=0 time=96 actual_time=64176
type=note_on channel=6 note=35 velocity=80 time=24 actual_time=0
type: note_off, time: 24, actual_time: 96
type=note_on channel=6 note=35 velocity=0 time=96 actual_time=64296
type=note_on channel=6 note=35 velocity=80 time=24 actual_time=0
type: note_off, time: 24, actual_time: 96
type=note_on channel=6 note=31 velocity=0 time=96 actual_time=64416
type=note_on channel=6 note=31 velocity=80 time=24 actual_time=64440
type: note_off, time: 24, actual_time: 64536
type=note_on channel=6 note=31 velocity=0 time=96 actual_time=64536
type=note_on channel=6 note=31 velocity=80 time=24 actual_time=120
type: note_off, time: 24, actual_time: 216
type=note_on channel=6 note=31 velocity=0 time=96 actual_time=64656
type=note_on channel=6 note=35 velocity=80 time=24 actual_time=60
type: note_off, time: 24, actual_time: 156
type=note_on channel=6 note=31 velocity=0 time=96 actual_time=64776
type=note_on channel=6 note=35 velocity=80 time=24 actual_time=120
type: note_off, time: 24, actual_time: 216
type=note_on channel=6 note=33 velocity=0 time=96 actual_time=64896
type=note_on channel=6 note=33 velocity=80 time=24 actual_time=120
type: note_off, time: 24, actual_time: 216
type=note_on channel=6 note=33 velocity=0 time=96 actual_time=65016
type=note_on channel=6 note=35 velocity=80 time=24 actual_time=0
type: note_off, time: 24, actual_time: 96
type=note_on channel=6 note=33 velocity=0 time=96 actual_time=65136
type=note_on channel=6 note=33 velocity=80 time=24 actual_time=120
type: note_off, time: 24, actual_time: 216
type=note_on channel=6 note=33 velocity=0 time=96 actual_time=65256
type=note_on channel=6 note=35 velocity=80 time=24 actual_time=120
type: note_off, time: 24, actual_time: 216
type=note_on channel=6 note=35 velocity=0 time=96 actual_time=65376
type=note_on channel=6 note=35 velocity=80 time=24 actual_time=0
type: note_off, time: 24, actual_time: 96
type=note_on channel=6 note=35 velocity=0 time=96 actual_time=65496
type=note_on channel=6 note=36 velocity=80 time=24 actual_time=60
type: note_off, time: 24, actual_time: 156
type=note_on channel=6 note=35 velocity=0 time=96 actual_time=65616
type=note_on channel=6 note=35 velocity=80 time=24 actual_time=120
type: note_off, time: 24, actual_time: 216
type=note_on channel=6 note=35 velocity=0 time=96 actual_time=65736
type=note_on channel=6 note=35 velocity=80 time=24 actual_time=120
type: note_off, time: 24, actual_time: 216
type=note_on channel=6 note=35 velocity=0 time=96 actual_time=65856
type=note_on channel=6 note=35 velocity=80 time=24 actual_time=180
type: note_off, time: 24, actual_time: 276
type=note_on channel=6 note=35 velocity=0 time=96 actual_time=65976
type=note_on channel=6 note=35 velocity=80 time=24 actual_time=180
type: note_off, time: 24, actual_time: 276
type=note_on channel=6 note=35 velocity=0 time=96 actual_time=66096
type=note_on channel=6 note=35 velocity=80 time=24 actual_time=0
type: note_off, time: 24, actual_time: 96
type=note_on channel=6 note=35 velocity=0 time=96 actual_time=66216
type=note_on channel=6 note=35 velocity=80 time=24 actual_time=66240
type: note_off, time: 24, actual_time: 66336
type=note_on channel=6 note=31 velocity=0 time=96 actual_time=66336
type=note_on channel=6 note=35 velocity=80 time=24 actual_time=0
type: note_off, time: 24, actual_time: 96
type=note_on channel=6 note=31 velocity=0 time=96 actual_time=66456
type=note_on channel=6 note=35 velocity=80 time=24 actual_time=120
type: note_off, time: 24, actual_time: 216
type=note_on channel=6 note=31 velocity=0 time=96 actual_time=66576
type=note_on channel=6 note=35 velocity=80 time=24 actual_time=120
type: note_off, time: 24, actual_time: 216
type=note_on channel=6 note=31 velocity=0 time=96 actual_time=66696
type=note_on channel=6 note=35 velocity=80 time=24 actual_time=60
type: note_off, time: 24, actual_time: 156
type=note_on channel=6 note=33 velocity=0 time=96 actual_time=66816
type=note_on channel=6 note=33 velocity=80 time=24 actual_time=120
type: note_off, time: 24, actual_time: 216
type=note_on channel=6 note=33 velocity=0 time=96 actual_time=66936
type=note_on channel=6 note=35 velocity=80 time=24 actual_time=66960
type: note_off, time: 24, actual_time: 67056
type=note_on channel=6 note=33 velocity=0 time=96 actual_time=67056
type=note_on channel=6 note=35 velocity=80 time=24 actual_time=120
type: note_off, time: 24, actual_time: 216
type=note_on channel=6 note=33 velocity=0 time=96 actual_time=67176
type=note_on channel=6 note=35 velocity=80 time=24 actual_time=67200
type: note_off, time: 24, actual_time: 67296
type=note_on channel=6 note=35 velocity=0 time=96 actual_time=67296
type=note_on channel=6 note=35 velocity=80 time=24 actual_time=60
type: note_off, time: 24, actual_time: 156
type=note_on channel=6 note=35 velocity=0 time=96 actual_time=67416
type=note_on channel=6 note=35 velocity=80 time=24 actual_time=0
type: note_off, time: 24, actual_time: 96
type=note_on channel=6 note=35 velocity=0 time=96 actual_time=67536
type=note_on channel=6 note=35 velocity=80 time=24 actual_time=180
type: note_off, time: 24, actual_time: 276
type=note_on channel=6 note=35 velocity=0 time=96 actual_time=67656
type=note_on channel=6 note=35 velocity=80 time=24 actual_time=67680
type: note_off, time: 24, actual_time: 67776
type=note_on channel=6 note=35 velocity=0 time=96 actual_time=67776
type=note_on channel=6 note=35 velocity=80 time=24 actual_time=120
type: note_off, time: 24, actual_time: 216
type=note_on channel=6 note=35 velocity=0 time=96 actual_time=67896
type=note_on channel=6 note=35 velocity=80 time=24 actual_time=0
type: note_off, time: 24, actual_time: 96
type=note_on channel=6 note=35 velocity=0 time=96 actual_time=68016
type=note_on channel=6 note=35 velocity=80 time=24 actual_time=0
type: note_off, time: 24, actual_time: 96
type=note_on channel=6 note=35 velocity=0 time=96 actual_time=68136
type=note_on channel=6 note=35 velocity=80 time=24 actual_time=180
type: note_off, time: 24, actual_time: 276
type=note_on channel=6 note=31 velocity=0 time=96 actual_time=68256
type=note_on channel=6 note=35 velocity=80 time=24 actual_time=0
type: note_off, time: 24, actual_time: 96
type=note_on channel=6 note=31 velocity=0 time=96 actual_time=68376
type=note_on channel=6 note=35 velocity=80 time=24 actual_time=120
type: note_off, time: 24, actual_time: 216
type=note_on channel=6 note=31 velocity=0 time=96 actual_time=68496
type=note_on channel=6 note=35 velocity=80 time=24 actual_time=60
type: note_off, time: 24, actual_time: 156
type=note_on channel=6 note=31 velocity=0 time=96 actual_time=68616
type=note_on channel=6 note=35 velocity=80 time=24 actual_time=120
type: note_off, time: 24, actual_time: 216
type=note_on channel=6 note=33 velocity=0 time=96 actual_time=68736
type=note_on channel=6 note=35 velocity=80 time=24 actual_time=68760
type: note_off, time: 24, actual_time: 68856
type=note_on channel=6 note=33 velocity=0 time=96 actual_time=68856
type=note_on channel=6 note=35 velocity=80 time=24 actual_time=68880
type: note_off, time: 24, actual_time: 68976
type=note_on channel=6 note=33 velocity=0 time=96 actual_time=68976
type=note_on channel=6 note=35 velocity=80 time=24 actual_time=69000
type: note_off, time: 24, actual_time: 69096
type=note_on channel=6 note=33 velocity=0 time=96 actual_time=69096
type=note_on channel=6 note=35 velocity=80 time=24 actual_time=69120
type: note_off, time: 24, actual_time: 69216
type=note_on channel=6 note=35 velocity=0 time=96 actual_time=69216
type=note_on channel=6 note=35 velocity=80 time=24 actual_time=69240
type: note_off, time: 24, actual_time: 69336
type=note_on channel=6 note=35 velocity=0 time=96 actual_time=69336
type=note_on channel=6 note=35 velocity=80 time=24 actual_time=0
type: note_off, time: 24, actual_time: 96
type=note_on channel=6 note=35 velocity=0 time=96 actual_time=69456
type=note_on channel=6 note=35 velocity=80 time=24 actual_time=60
type: note_off, time: 24, actual_time: 156
type=note_on channel=6 note=35 velocity=0 time=96 actual_time=69576
type=note_on channel=6 note=35 velocity=80 time=24 actual_time=120
type: note_off, time: 24, actual_time: 216
type=note_on channel=6 note=35 velocity=0 time=96 actual_time=69696
type=note_on channel=6 note=35 velocity=80 time=24 actual_time=60
type: note_off, time: 24, actual_time: 156
type=note_on channel=6 note=35 velocity=0 time=96 actual_time=69816
type=note_on channel=6 note=35 velocity=80 time=24 actual_time=120
type: note_off, time: 24, actual_time: 216
type=note_on channel=6 note=35 velocity=0 time=96 actual_time=69936
type=note_on channel=6 note=40 velocity=80 time=24 actual_time=120
type: note_off, time: 24, actual_time: 216
type=note_on channel=6 note=35 velocity=0 time=96 actual_time=70056
type=note_on channel=6 note=35 velocity=80 time=24 actual_time=70080
type: note_off, time: 24, actual_time: 70176
type=note_on channel=6 note=31 velocity=0 time=96 actual_time=70176
type=note_on channel=6 note=31 velocity=80 time=24 actual_time=120
type: note_off, time: 24, actual_time: 216
type=note_on channel=6 note=31 velocity=0 time=96 actual_time=70296
type=note_on channel=6 note=31 velocity=80 time=24 actual_time=0
type: note_off, time: 24, actual_time: 96
type=note_on channel=6 note=31 velocity=0 time=96 actual_time=70416
type=note_on channel=6 note=35 velocity=80 time=24 actual_time=0
type: note_off, time: 24, actual_time: 96
type=note_on channel=6 note=31 velocity=0 time=96 actual_time=70536
type=note_on channel=6 note=35 velocity=80 time=24 actual_time=180
type: note_off, time: 24, actual_time: 276
type=note_on channel=6 note=33 velocity=0 time=96 actual_time=70656
type=note_on channel=6 note=35 velocity=80 time=24 actual_time=70680
type: note_off, time: 24, actual_time: 70776
type=note_on channel=6 note=33 velocity=0 time=96 actual_time=70776
type=note_on channel=6 note=35 velocity=80 time=24 actual_time=120
type: note_off, time: 24, actual_time: 216
type=note_on channel=6 note=33 velocity=0 time=96 actual_time=70896
type=note_on channel=6 note=35 velocity=80 time=24 actual_time=180
type: note_off, time: 24, actual_time: 276
type=note_on channel=6 note=33 velocity=0 time=96 actual_time=71016
type=note_on channel=6 note=31 velocity=80 time=24 actual_time=180
type: note_off, time: 24, actual_time: 276
type=note_on channel=6 note=35 velocity=0 time=96 actual_time=71136
type=note_on channel=6 note=35 velocity=80 time=24 actual_time=120
type: note_off, time: 24, actual_time: 216
type=note_on channel=6 note=35 velocity=0 time=96 actual_time=71256
type=note_on channel=6 note=38 velocity=80 time=24 actual_time=180
type: note_off, time: 24, actual_time: 276
type=note_on channel=6 note=35 velocity=0 time=96 actual_time=71376
type=note_on channel=6 note=35 velocity=80 time=24 actual_time=180
type: note_off, time: 24, actual_time: 276
type=note_on channel=6 note=35 velocity=0 time=96 actual_time=71496
type=note_on channel=6 note=35 velocity=80 time=24 actual_time=180
type: note_off, time: 24, actual_time: 276
type=note_on channel=6 note=35 velocity=0 time=96 actual_time=71616
type=note_on channel=6 note=35 velocity=80 time=24 actual_time=71640
type: note_off, time: 24, actual_time: 71736
type=note_on channel=6 note=35 velocity=0 time=96 actual_time=71736
type=note_on channel=6 note=32 velocity=80 time=24 actual_time=71760
type: note_off, time: 24, actual_time: 71856
type=note_on channel=6 note=35 velocity=0 time=96 actual_time=71856
type=note_on channel=6 note=35 velocity=80 time=24 actual_time=0
type: note_off, time: 24, actual_time: 96
type=note_on channel=6 note=35 velocity=0 time=96 actual_time=71976
type=note_on channel=6 note=31 velocity=80 time=24 actual_time=0
type: note_off, time: 24, actual_time: 96
type=note_on channel=6 note=31 velocity=0 time=96 actual_time=72096
type=note_on channel=6 note=34 velocity=80 time=24 actual_time=0
type: note_off, time: 24, actual_time: 96
type=note_on channel=6 note=31 velocity=0 time=96 actual_time=72216
type=note_on channel=6 note=35 velocity=80 time=24 actual_time=120
type: note_off, time: 24, actual_time: 216
type=note_on channel=6 note=31 velocity=0 time=96 actual_time=72336
type=note_on channel=6 note=36 velocity=80 time=24 actual_time=60
type: note_off, time: 24, actual_time: 156
type=note_on channel=6 note=31 velocity=0 time=96 actual_time=72456
type=note_on channel=6 note=35 velocity=80 time=24 actual_time=120
type: note_off, time: 24, actual_time: 216
type=note_on channel=6 note=33 velocity=0 time=96 actual_time=72576
type=note_on channel=6 note=35 velocity=80 time=24 actual_time=120
type: note_off, time: 24, actual_time: 216
type=note_on channel=6 note=33 velocity=0 time=96 actual_time=72696
type=note_on channel=6 note=35 velocity=80 time=24 actual_time=0
type: note_off, time: 24, actual_time: 96
type=note_on channel=6 note=33 velocity=0 time=96 actual_time=72816
type=note_on channel=6 note=35 velocity=80 time=24 actual_time=60
type: note_off, time: 24, actual_time: 156
type=note_on channel=6 note=33 velocity=0 time=96 actual_time=72936
type=note_on channel=6 note=35 velocity=80 time=24 actual_time=180
type: note_off, time: 24, actual_time: 276
type=note_on channel=6 note=35 velocity=0 time=96 actual_time=73056
type=note_on channel=6 note=35 velocity=80 time=24 actual_time=0
type: note_off, time: 24, actual_time: 48
type=note_on channel=6 note=35 velocity=0 time=48 actual_time=73128
type=note_on channel=6 note=35 velocity=80 time=12 actual_time=180
type: note_off, time: 12, actual_time: 228
type=note_on channel=6 note=35 velocity=0 time=48 actual_time=73188
type=note_on channel=6 note=40 velocity=80 time=12 actual_time=60
type: note_off, time: 12, actual_time: 156
type=note_on channel=6 note=35 velocity=0 time=96 actual_time=73296
type=note_on channel=6 note=35 velocity=80 time=24 actual_time=73320
type: note_off, time: 24, actual_time: 73368
type=note_on channel=6 note=35 velocity=0 time=48 actual_time=73368
type=note_on channel=6 note=35 velocity=80 time=12 actual_time=73380
type: note_off, time: 12, actual_time: 73428
type=note_on channel=6 note=35 velocity=0 time=48 actual_time=73428
type=note_on channel=6 note=35 velocity=80 time=12 actual_time=180
type: note_off, time: 12, actual_time: 276
type=note_on channel=6 note=35 velocity=0 time=96 actual_time=73536
type=note_on channel=6 note=35 velocity=80 time=24 actual_time=120
type: note_off, time: 24, actual_time: 168
type=note_on channel=6 note=35 velocity=0 time=48 actual_time=73608
type=note_on channel=6 note=40 velocity=80 time=12 actual_time=120
type: note_off, time: 12, actual_time: 168
type=note_on channel=6 note=35 velocity=0 time=48 actual_time=73668
type=note_on channel=6 note=35 velocity=80 time=12 actual_time=0
type: note_off, time: 12, actual_time: 96
type=note_on channel=6 note=35 velocity=0 time=96 actual_time=73776
type=note_on channel=6 note=35 velocity=80 time=24 actual_time=0
type: note_off, time: 24, actual_time: 48
type=note_on channel=6 note=35 velocity=0 time=48 actual_time=73848
type=note_on channel=6 note=35 velocity=80 time=12 actual_time=180
type: note_off, time: 12, actual_time: 228
type=note_on channel=6 note=35 velocity=0 time=48 actual_time=73908
type=note_on channel=6 note=31 velocity=80 time=12 actual_time=60
type: note_off, time: 12, actual_time: 156
type=note_on channel=6 note=31 velocity=0 time=96 actual_time=74016
type=note_on channel=6 note=35 velocity=80 time=24 actual_time=120
type: note_off, time: 24, actual_time: 168
type=note_on channel=6 note=31 velocity=0 time=48 actual_time=74088
type=note_on channel=6 note=31 velocity=80 time=12 actual_time=120
type: note_off, time: 12, actual_time: 168
type=note_on channel=6 note=31 velocity=0 time=48 actual_time=74148
type=note_on channel=6 note=35 velocity=80 time=12 actual_time=0
type: note_off, time: 12, actual_time: 96
type=note_on channel=6 note=31 velocity=0 time=96 actual_time=74256
type=note_on channel=6 note=31 velocity=80 time=24 actual_time=60
type: note_off, time: 24, actual_time: 108
type=note_on channel=6 note=31 velocity=0 time=48 actual_time=74328
type=note_on channel=6 note=31 velocity=80 time=12 actual_time=60
type: note_off, time: 12, actual_time: 108
type=note_on channel=6 note=31 velocity=0 time=48 actual_time=74388
type=note_on channel=6 note=35 velocity=80 time=12 actual_time=0
type: note_off, time: 12, actual_time: 96
type=note_on channel=6 note=33 velocity=0 time=96 actual_time=74496
type=note_on channel=6 note=35 velocity=80 time=24 actual_time=180
type: note_off, time: 24, actual_time: 228
type=note_on channel=6 note=33 velocity=0 time=48 actual_time=74568
type=note_on channel=6 note=35 velocity=80 time=12 actual_time=180
type: note_off, time: 12, actual_time: 228
type=note_on channel=6 note=33 velocity=0 time=48 actual_time=74628
type=note_on channel=6 note=35 velocity=80 time=12 actual_time=0
type: note_off, time: 12, actual_time: 96
type=note_on channel=6 note=33 velocity=0 time=96 actual_time=74736
type=note_on channel=6 note=35 velocity=80 time=24 actual_time=60
type: note_off, time: 24, actual_time: 108
type=note_on channel=6 note=33 velocity=0 time=48 actual_time=74808
type=note_on channel=6 note=35 velocity=80 time=12 actual_time=120
type: note_off, time: 12, actual_time: 168
type=note_on channel=6 note=33 velocity=0 time=48 actual_time=74868
type=note_on channel=6 note=35 velocity=80 time=12 actual_time=60
type: note_off, time: 12, actual_time: 156
type=note_on channel=6 note=35 velocity=0 time=96 actual_time=74976
type=note_on channel=6 note=35 velocity=80 time=24 actual_time=120
type: note_off, time: 24, actual_time: 168
type=note_on channel=6 note=35 velocity=0 time=48 actual_time=75048
type=note_on channel=6 note=35 velocity=80 time=12 actual_time=120
type: note_off, time: 12, actual_time: 168
type=note_on channel=6 note=35 velocity=0 time=48 actual_time=75108
type=note_on channel=6 note=35 velocity=80 time=12 actual_time=180
type: note_off, time: 12, actual_time: 276
type=note_on channel=6 note=35 velocity=0 time=96 actual_time=75216
type=note_on channel=6 note=35 velocity=80 time=24 actual_time=120
type: note_off, time: 24, actual_time: 168
type=note_on channel=6 note=35 velocity=0 time=48 actual_time=75288
type=note_on channel=6 note=35 velocity=80 time=12 actual_time=180
type: note_off, time: 12, actual_time: 228
type=note_on channel=6 note=35 velocity=0 time=48 actual_time=75348
type=note_on channel=6 note=35 velocity=80 time=12 actual_time=75360
type: note_off, time: 12, actual_time: 75456
type=note_on channel=6 note=35 velocity=0 time=96 actual_time=75456
type=note_on channel=6 note=35 velocity=80 time=24 actual_time=75480
type: note_off, time: 24, actual_time: 75528
type=note_on channel=6 note=35 velocity=0 time=48 actual_time=75528
type=note_on channel=6 note=35 velocity=80 time=12 actual_time=180
type: note_off, time: 12, actual_time: 228
type=note_on channel=6 note=35 velocity=0 time=48 actual_time=75588
type=note_on channel=6 note=35 velocity=80 time=12 actual_time=75600
type: note_off, time: 12, actual_time: 75696
type=note_on channel=6 note=35 velocity=0 time=96 actual_time=75696
type=note_on channel=6 note=35 velocity=80 time=24 actual_time=75720
type: note_off, time: 24, actual_time: 75768
type=note_on channel=6 note=35 velocity=0 time=48 actual_time=75768
type=note_on channel=6 note=32 velocity=80 time=12 actual_time=0
type: note_off, time: 12, actual_time: 48
type=note_on channel=6 note=35 velocity=0 time=48 actual_time=75828
type=note_on channel=6 note=35 velocity=80 time=12 actual_time=120
type: note_off, time: 12, actual_time: 216
type=note_on channel=6 note=28 velocity=0 time=96 actual_time=75936
type=note_on channel=6 note=35 velocity=80 time=24 actual_time=75960
type: note_off, time: 24, actual_time: 76008
type=note_on channel=6 note=28 velocity=0 time=48 actual_time=76008
type=note_on channel=6 note=35 velocity=80 time=12 actual_time=180
type: note_off, time: 12, actual_time: 228
type=note_on channel=6 note=28 velocity=0 time=48 actual_time=76068
type=note_on channel=6 note=28 velocity=80 time=12 actual_time=76080
type: note_off, time: 12, actual_time: 76176
type=note_on channel=6 note=28 velocity=0 time=96 actual_time=76176
type=note_on channel=6 note=35 velocity=80 time=24 actual_time=0
type: note_off, time: 24, actual_time: 48
type=note_on channel=6 note=28 velocity=0 time=48 actual_time=76248
type=note_on channel=6 note=35 velocity=80 time=12 actual_time=120
type: note_off, time: 12, actual_time: 168
type=note_on channel=6 note=28 velocity=0 time=48 actual_time=76308
type=note_on channel=6 note=30 velocity=80 time=12 actual_time=120
type: note_off, time: 12, actual_time: 216
type=note_on channel=6 note=30 velocity=0 time=96 actual_time=76416
type=note_on channel=6 note=35 velocity=80 time=24 actual_time=76440
type: note_off, time: 24, actual_time: 76488
type=note_on channel=6 note=30 velocity=0 time=48 actual_time=76488
type=note_on channel=6 note=35 velocity=80 time=12 actual_time=180
type: note_off, time: 12, actual_time: 228
type=note_on channel=6 note=30 velocity=0 time=48 actual_time=76548
type=note_on channel=6 note=35 velocity=80 time=12 actual_time=120
type: note_off, time: 12, actual_time: 216
type=note_on channel=6 note=30 velocity=0 time=96 actual_time=76656
type=note_on channel=6 note=30 velocity=80 time=24 actual_time=76680
type: note_off, time: 24, actual_time: 76728
type=note_on channel=6 note=30 velocity=0 time=48 actual_time=76728
type=note_on channel=6 note=30 velocity=80 time=12 actual_time=120
type: note_off, time: 12, actual_time: 168
type=note_on channel=6 note=30 velocity=0 time=48 actual_time=76788
type=note_on channel=6 note=35 velocity=80 time=12 actual_time=0
type: note_off, time: 12, actual_time: 96
type=note_on channel=6 note=35 velocity=0 time=96 actual_time=76896
type=note_on channel=6 note=35 velocity=80 time=24 actual_time=180
type: note_off, time: 24, actual_time: 228
type=note_on channel=6 note=35 velocity=0 time=48 actual_time=76968
type=note_on channel=6 note=35 velocity=80 time=12 actual_time=0
type: note_off, time: 12, actual_time: 48
type=note_on channel=6 note=35 velocity=0 time=48 actual_time=77028
type=note_on channel=6 note=35 velocity=80 time=12 actual_time=0
type: note_off, time: 12, actual_time: 96
type=note_on channel=6 note=35 velocity=0 time=96 actual_time=77136
type=note_on channel=6 note=35 velocity=80 time=24 actual_time=120
type: note_off, time: 24, actual_time: 168
type=note_on channel=6 note=35 velocity=0 time=48 actual_time=77208
type=note_on channel=6 note=35 velocity=80 time=12 actual_time=180
type: note_off, time: 12, actual_time: 228
type=note_on channel=6 note=35 velocity=0 time=48 actual_time=77268
type=note_on channel=6 note=35 velocity=80 time=12 actual_time=77280
type: note_off, time: 12, actual_time: 77376
type=note_on channel=6 note=35 velocity=0 time=96 actual_time=77376
type=note_on channel=6 note=35 velocity=80 time=24 actual_time=120
type: note_off, time: 24, actual_time: 168
type=note_on channel=6 note=35 velocity=0 time=48 actual_time=77448
type=note_on channel=6 note=35 velocity=80 time=12 actual_time=120
type: note_off, time: 12, actual_time: 168
type=note_on channel=6 note=35 velocity=0 time=48 actual_time=77508
type=note_on channel=6 note=35 velocity=80 time=12 actual_time=0
type: note_off, time: 12, actual_time: 96
type=note_on channel=6 note=35 velocity=0 time=96 actual_time=77616
type=note_on channel=6 note=35 velocity=80 time=24 actual_time=60
type: note_off, time: 24, actual_time: 108
type=note_on channel=6 note=35 velocity=0 time=48 actual_time=77688
type=note_on channel=6 note=35 velocity=80 time=12 actual_time=60
type: note_off, time: 12, actual_time: 108
type=note_on channel=6 note=35 velocity=0 time=48 actual_time=77748
type=note_on channel=6 note=35 velocity=80 time=12 actual_time=77760
type: note_off, time: 12, actual_time: 77856
type=note_on channel=6 note=31 velocity=0 time=96 actual_time=77856
type=note_on channel=6 note=35 velocity=80 time=24 actual_time=180
type: note_off, time: 24, actual_time: 228
type=note_on channel=6 note=31 velocity=0 time=48 actual_time=77928
type=note_on channel=6 note=35 velocity=80 time=12 actual_time=60
type: note_off, time: 12, actual_time: 108
type=note_on channel=6 note=31 velocity=0 time=48 actual_time=77988
type=note_on channel=6 note=30 velocity=80 time=12 actual_time=60
type: note_off, time: 12, actual_time: 156
type=note_on channel=6 note=31 velocity=0 time=96 actual_time=78096
type=note_on channel=6 note=35 velocity=80 time=24 actual_time=60
type: note_off, time: 24, actual_time: 108
type=note_on channel=6 note=31 velocity=0 time=48 actual_time=78168
type=note_on channel=6 note=31 velocity=80 time=12 actual_time=60
type: note_off, time: 12, actual_time: 108
type=note_on channel=6 note=31 velocity=0 time=48 actual_time=78228
type=note_on channel=6 note=35 velocity=80 time=12 actual_time=78240
type: note_off, time: 12, actual_time: 78336
type=note_on channel=6 note=33 velocity=0 time=96 actual_time=78336
type=note_on channel=6 note=33 velocity=80 time=24 actual_time=120
type: note_off, time: 24, actual_time: 168
type=note_on channel=6 note=33 velocity=0 time=48 actual_time=78408
type=note_on channel=6 note=33 velocity=80 time=12 actual_time=78420
type: note_off, time: 12, actual_time: 78468
type=note_on channel=6 note=33 velocity=0 time=48 actual_time=78468
type=note_on channel=6 note=35 velocity=80 time=12 actual_time=60
type: note_off, time: 12, actual_time: 156
type=note_on channel=6 note=33 velocity=0 time=96 actual_time=78576
type=note_on channel=6 note=35 velocity=80 time=24 actual_time=180
type: note_off, time: 24, actual_time: 228
type=note_on channel=6 note=33 velocity=0 time=48 actual_time=78648
type=note_on channel=6 note=35 velocity=80 time=12 actual_time=78660
type: note_off, time: 12, actual_time: 78708
type=note_on channel=6 note=33 velocity=0 time=48 actual_time=78708
type=note_on channel=6 note=35 velocity=80 time=12 actual_time=180
type: note_off, time: 12, actual_time: 276
type=note_on channel=6 note=35 velocity=0 time=96 actual_time=78816
type=note_on channel=6 note=35 velocity=80 time=24 actual_time=0
type: note_off, time: 24, actual_time: 48
type=note_on channel=6 note=35 velocity=0 time=48 actual_time=78888
type=note_on channel=6 note=35 velocity=80 time=12 actual_time=0
type: note_off, time: 12, actual_time: 48
type=note_on channel=6 note=35 velocity=0 time=48 actual_time=78948
type=note_on channel=6 note=35 velocity=80 time=12 actual_time=78960
type: note_off, time: 12, actual_time: 79056
type=note_on channel=6 note=35 velocity=0 time=96 actual_time=79056
type=note_on channel=6 note=35 velocity=80 time=24 actual_time=79080
type: note_off, time: 24, actual_time: 79128
type=note_on channel=6 note=35 velocity=0 time=48 actual_time=79128
type=note_on channel=6 note=35 velocity=80 time=12 actual_time=60
type: note_off, time: 12, actual_time: 108
type=note_on channel=6 note=35 velocity=0 time=48 actual_time=79188
type=note_on channel=6 note=35 velocity=80 time=12 actual_time=180
type: note_off, time: 12, actual_time: 276
type=note_on channel=6 note=35 velocity=0 time=96 actual_time=79296
type=note_on channel=6 note=35 velocity=80 time=24 actual_time=60
type: note_off, time: 24, actual_time: 108
type=note_on channel=6 note=35 velocity=0 time=48 actual_time=79368
type=note_on channel=6 note=30 velocity=80 time=12 actual_time=60
type: note_off, time: 12, actual_time: 108
type=note_on channel=6 note=35 velocity=0 time=48 actual_time=79428
type=note_on channel=6 note=35 velocity=80 time=12 actual_time=60
type: note_off, time: 12, actual_time: 156
type=note_on channel=6 note=35 velocity=0 time=96 actual_time=79536
type=note_on channel=6 note=35 velocity=80 time=24 actual_time=79560
type: note_off, time: 24, actual_time: 79608
type=note_on channel=6 note=35 velocity=0 time=48 actual_time=79608
type=note_on channel=6 note=35 velocity=80 time=12 actual_time=120
type: note_off, time: 12, actual_time: 168
type=note_on channel=6 note=35 velocity=0 time=48 actual_time=79668
type=note_on channel=6 note=35 velocity=80 time=12 actual_time=79680
type: note_off, time: 12, actual_time: 79776
type=note_on channel=6 note=28 velocity=0 time=96 actual_time=79776
type=note_on channel=6 note=28 velocity=80 time=24 actual_time=60
type: note_off, time: 24, actual_time: 156
type=note_on channel=6 note=28 velocity=0 time=96 actual_time=79896
type=note_on channel=6 note=35 velocity=80 time=24 actual_time=120
type: note_off, time: 24, actual_time: 216
type=note_on channel=6 note=28 velocity=0 time=96 actual_time=80016
type=note_on channel=6 note=25 velocity=80 time=24 actual_time=0
type: note_off, time: 24, actual_time: 96
type=note_on channel=6 note=28 velocity=0 time=96 actual_time=80136
type=note_on channel=6 note=35 velocity=80 time=24 actual_time=80160
type: note_off, time: 24, actual_time: 80256
type=note_on channel=6 note=30 velocity=0 time=96 actual_time=80256
type=note_on channel=6 note=35 velocity=80 time=24 actual_time=180
type: note_off, time: 24, actual_time: 276
type=note_on channel=6 note=30 velocity=0 time=96 actual_time=80376
type=note_on channel=6 note=35 velocity=80 time=24 actual_time=0
type: note_off, time: 24, actual_time: 96
type=note_on channel=6 note=30 velocity=0 time=96 actual_time=80496
type=note_on channel=6 note=30 velocity=80 time=24 actual_time=80520
type: note_off, time: 24, actual_time: 80616
type=note_on channel=6 note=30 velocity=0 time=96 actual_time=80616
type=note_on channel=6 note=38 velocity=80 time=24 actual_time=60
type: note_off, time: 24, actual_time: 156
type=note_on channel=6 note=35 velocity=0 time=96 actual_time=80736
type=note_on channel=6 note=35 velocity=80 time=24 actual_time=180
type: note_off, time: 24, actual_time: 276
type=note_on channel=6 note=35 velocity=0 time=96 actual_time=80856
type=note_on channel=6 note=35 velocity=80 time=24 actual_time=60
type: note_off, time: 24, actual_time: 156
type=note_on channel=6 note=35 velocity=0 time=96 actual_time=80976
type=note_on channel=6 note=35 velocity=80 time=24 actual_time=0
type: note_off, time: 24, actual_time: 96
type=note_on channel=6 note=35 velocity=0 time=96 actual_time=81096
type=note_on channel=6 note=35 velocity=80 time=24 actual_time=0
type: note_off, time: 24, actual_time: 96
type=note_on channel=6 note=35 velocity=0 time=96 actual_time=81216
type=note_on channel=6 note=35 velocity=80 time=24 actual_time=120
type: note_off, time: 24, actual_time: 216
type=note_on channel=6 note=35 velocity=0 time=96 actual_time=81336
type=note_on channel=6 note=35 velocity=80 time=24 actual_time=180
type: note_off, time: 24, actual_time: 276
type=note_on channel=6 note=35 velocity=0 time=96 actual_time=81456
type=note_on channel=6 note=35 velocity=80 time=24 actual_time=180
type: note_off, time: 24, actual_time: 276
type=note_on channel=6 note=35 velocity=0 time=96 actual_time=81576
type=note_on channel=6 note=31 velocity=80 time=24 actual_time=81600
type: note_off, time: 24, actual_time: 81696
type=note_on channel=6 note=31 velocity=0 time=96 actual_time=81696
type=note_on channel=6 note=35 velocity=80 time=24 actual_time=120
type: note_off, time: 24, actual_time: 216
type=note_on channel=6 note=31 velocity=0 time=96 actual_time=81816
type=note_on channel=6 note=35 velocity=80 time=24 actual_time=60
type: note_off, time: 24, actual_time: 156
type=note_on channel=6 note=31 velocity=0 time=96 actual_time=81936
type=note_on channel=6 note=35 velocity=80 time=24 actual_time=0
type: note_off, time: 24, actual_time: 96
type=note_on channel=6 note=31 velocity=0 time=96 actual_time=82056
type=note_on channel=6 note=35 velocity=80 time=24 actual_time=0
type: note_off, time: 24, actual_time: 96
type=note_on channel=6 note=33 velocity=0 time=96 actual_time=82176
type=note_on channel=6 note=35 velocity=80 time=24 actual_time=180
type: note_off, time: 24, actual_time: 276
type=note_on channel=6 note=33 velocity=0 time=96 actual_time=82296
type=note_on channel=6 note=35 velocity=80 time=24 actual_time=180
type: note_off, time: 24, actual_time: 276
type=note_on channel=6 note=33 velocity=0 time=96 actual_time=82416
type=note_on channel=6 note=30 velocity=80 time=24 actual_time=60
type: note_off, time: 24, actual_time: 156
type=note_on channel=6 note=33 velocity=0 time=96 actual_time=82536
type=note_on channel=6 note=35 velocity=80 time=24 actual_time=0
type: note_off, time: 24, actual_time: 96
type=note_on channel=6 note=35 velocity=0 time=96 actual_time=82656
type=note_on channel=6 note=35 velocity=80 time=24 actual_time=180
type: note_off, time: 24, actual_time: 276
type=note_on channel=6 note=35 velocity=0 time=96 actual_time=82776
type=note_on channel=6 note=35 velocity=80 time=24 actual_time=0
type: note_off, time: 24, actual_time: 96
type=note_on channel=6 note=35 velocity=0 time=96 actual_time=82896
type=note_on channel=6 note=35 velocity=80 time=24 actual_time=0
type: note_off, time: 24, actual_time: 96
type=note_on channel=6 note=35 velocity=0 time=96 actual_time=83016
type=note_on channel=6 note=35 velocity=80 time=24 actual_time=0
type: note_off, time: 24, actual_time: 96
type=note_on channel=6 note=35 velocity=0 time=96 actual_time=83136
type=note_on channel=6 note=35 velocity=80 time=24 actual_time=180
type: note_off, time: 24, actual_time: 276
type=note_on channel=6 note=35 velocity=0 time=96 actual_time=83256
type=note_on channel=6 note=36 velocity=80 time=24 actual_time=83280
type: note_off, time: 24, actual_time: 83376
type=note_on channel=6 note=35 velocity=0 time=96 actual_time=83376
type=note_on channel=6 note=35 velocity=80 time=24 actual_time=0
type: note_off, time: 24, actual_time: 96
type=note_on channel=6 note=35 velocity=0 time=96 actual_time=83496
type=note_on channel=6 note=35 velocity=80 time=24 actual_time=180
type: note_off, time: 24, actual_time: 276
type=note_on channel=6 note=31 velocity=0 time=96 actual_time=83616
type=note_on channel=6 note=35 velocity=80 time=24 actual_time=60
type: note_off, time: 24, actual_time: 156
type=note_on channel=6 note=31 velocity=0 time=96 actual_time=83736
type=note_on channel=6 note=35 velocity=80 time=24 actual_time=83760
type: note_off, time: 24, actual_time: 83856
type=note_on channel=6 note=31 velocity=0 time=96 actual_time=83856
type=note_on channel=6 note=31 velocity=80 time=24 actual_time=83880
type: note_off, time: 24, actual_time: 83976
type=note_on channel=6 note=31 velocity=0 time=96 actual_time=83976
type=note_on channel=6 note=33 velocity=80 time=24 actual_time=60
type: note_off, time: 24, actual_time: 156
type=note_on channel=6 note=33 velocity=0 time=96 actual_time=84096
type=note_on channel=6 note=33 velocity=80 time=24 actual_time=180
type: note_off, time: 24, actual_time: 276
type=note_on channel=6 note=33 velocity=0 time=96 actual_time=84216
type=note_on channel=6 note=33 velocity=80 time=24 actual_time=120
type: note_off, time: 24, actual_time: 216
type=note_on channel=6 note=33 velocity=0 time=96 actual_time=84336
type=note_on channel=6 note=35 velocity=80 time=24 actual_time=120
type: note_off, time: 24, actual_time: 216
type=note_on channel=6 note=33 velocity=0 time=96 actual_time=84456
type=note_on channel=6 note=35 velocity=80 time=24 actual_time=180
type: note_off, time: 24, actual_time: 276
type=note_on channel=6 note=35 velocity=0 time=96 actual_time=84576
type=note_on channel=6 note=35 velocity=80 time=24 actual_time=0
type: note_off, time: 24, actual_time: 96
type=note_on channel=6 note=35 velocity=0 time=96 actual_time=84696
type=note_on channel=6 note=35 velocity=80 time=24 actual_time=180
type: note_off, time: 24, actual_time: 276
type=note_on channel=6 note=35 velocity=0 time=96 actual_time=84816
type=note_on channel=6 note=35 velocity=80 time=24 actual_time=84840
type: note_off, time: 24, actual_time: 84936
type=note_on channel=6 note=35 velocity=0 time=96 actual_time=84936
type=note_on channel=6 note=38 velocity=80 time=24 actual_time=180
type: note_off, time: 24, actual_time: 276
type=note_on channel=6 note=35 velocity=0 time=96 actual_time=85056
type=note_on channel=6 note=35 velocity=80 time=24 actual_time=120
type: note_off, time: 24, actual_time: 216
type=note_on channel=6 note=35 velocity=0 time=96 actual_time=85176
type=note_on channel=6 note=35 velocity=80 time=24 actual_time=180
type: note_off, time: 24, actual_time: 276
type=note_on channel=6 note=35 velocity=0 time=96 actual_time=85296
type=note_on channel=6 note=35 velocity=80 time=24 actual_time=180
type: note_off, time: 24, actual_time: 276
type=note_on channel=6 note=35 velocity=0 time=96 actual_time=85416
type=note_on channel=6 note=34 velocity=80 time=24 actual_time=180
type: note_off, time: 24, actual_time: 276
type=note_on channel=6 note=31 velocity=0 time=96 actual_time=85536
type=note_on channel=6 note=35 velocity=80 time=24 actual_time=85560
type: note_off, time: 24, actual_time: 85656
type=note_on channel=6 note=31 velocity=0 time=96 actual_time=85656
type=note_on channel=6 note=31 velocity=80 time=24 actual_time=60
type: note_off, time: 24, actual_time: 156
type=note_on channel=6 note=31 velocity=0 time=96 actual_time=85776
type=note_on channel=6 note=31 velocity=80 time=24 actual_time=60
type: note_off, time: 24, actual_time: 156
type=note_on channel=6 note=31 velocity=0 time=96 actual_time=85896
type=note_on channel=6 note=35 velocity=80 time=24 actual_time=85920
type: note_off, time: 24, actual_time: 86016
type=note_on channel=6 note=33 velocity=0 time=96 actual_time=86016
type=note_on channel=6 note=35 velocity=80 time=24 actual_time=120
type: note_off, time: 24, actual_time: 216
type=note_on channel=6 note=33 velocity=0 time=96 actual_time=86136
type=note_on channel=6 note=35 velocity=80 time=24 actual_time=86160
type: note_off, time: 24, actual_time: 86256
type=note_on channel=6 note=33 velocity=0 time=96 actual_time=86256
type=note_on channel=6 note=35 velocity=80 time=24 actual_time=120
type: note_off, time: 24, actual_time: 216
type=note_on channel=6 note=33 velocity=0 time=96 actual_time=86376
type=note_on channel=6 note=30 velocity=80 time=24 actual_time=120
type: note_off, time: 24, actual_time: 216
type=note_on channel=6 note=35 velocity=0 time=96 actual_time=86496
type=note_on channel=6 note=35 velocity=80 time=24 actual_time=120
type: note_off, time: 24, actual_time: 216
type=note_on channel=6 note=35 velocity=0 time=96 actual_time=86616
type=note_on channel=6 note=35 velocity=80 time=24 actual_time=180
type: note_off, time: 24, actual_time: 276
type=note_on channel=6 note=35 velocity=0 time=96 actual_time=86736
type=note_on channel=6 note=35 velocity=80 time=24 actual_time=86760
type: note_off, time: 24, actual_time: 86856
type=note_on channel=6 note=35 velocity=0 time=96 actual_time=86856
type=note_on channel=6 note=35 velocity=80 time=24 actual_time=86880
type: note_off, time: 24, actual_time: 86976
type=note_on channel=6 note=35 velocity=0 time=96 actual_time=86976
type=note_on channel=6 note=39 velocity=80 time=24 actual_time=87000
type: note_off, time: 24, actual_time: 87096
type=note_on channel=6 note=35 velocity=0 time=96 actual_time=87096
type=note_on channel=6 note=35 velocity=80 time=24 actual_time=87120
type: note_off, time: 24, actual_time: 87216
type=note_on channel=6 note=35 velocity=0 time=96 actual_time=87216
type=note_on channel=6 note=35 velocity=80 time=24 actual_time=87240
type: note_off, time: 24, actual_time: 87336
type=note_on channel=6 note=35 velocity=0 time=96 actual_time=87336
type=note_on channel=6 note=31 velocity=80 time=24 actual_time=0
type: note_off, time: 24, actual_time: 96
type=note_on channel=6 note=31 velocity=0 time=96 actual_time=87456
type=note_on channel=6 note=35 velocity=80 time=24 actual_time=87480
type: note_off, time: 24, actual_time: 87576
type=note_on channel=6 note=31 velocity=0 time=96 actual_time=87576
type=note_on channel=6 note=35 velocity=80 time=24 actual_time=0
type: note_off, time: 24, actual_time: 96
type=note_on channel=6 note=31 velocity=0 time=96 actual_time=87696
type=note_on channel=6 note=35 velocity=80 time=24 actual_time=180
type: note_off, time: 24, actual_time: 276
type=note_on channel=6 note=31 velocity=0 time=96 actual_time=87816
type=note_on channel=6 note=34 velocity=80 time=24 actual_time=60
type: note_off, time: 24, actual_time: 156
type=note_on channel=6 note=33 velocity=0 time=96 actual_time=87936
type=note_on channel=6 note=35 velocity=80 time=24 actual_time=87960
type: note_off, time: 24, actual_time: 88056
type=note_on channel=6 note=33 velocity=0 time=96 actual_time=88056
type=note_on channel=6 note=35 velocity=80 time=24 actual_time=0
type: note_off, time: 24, actual_time: 96
type=note_on channel=6 note=33 velocity=0 time=96 actual_time=88176
type=note_on channel=6 note=35 velocity=80 time=24 actual_time=120
type: note_off, time: 24, actual_time: 216
type=note_on channel=6 note=33 velocity=0 time=96 actual_time=88296
type=note_on channel=6 note=40 velocity=80 time=24 actual_time=180
type: note_off, time: 24, actual_time: 3828
type=note_on channel=6 note=35 velocity=0 time=3648 actual_time=91968
MetaMessage type: end_of_track, time: 0, actual_time: 91968
type=control_change channel=9 control=7 value=87 time=0 actual_time=0
type=note_on channel=9 note=40 velocity=80 time=3960 actual_time=3960
type: note_off, time: 3960, actual_time: 4056
type=note_on channel=9 note=40 velocity=0 time=96 actual_time=4056
type=note_on channel=9 note=40 velocity=80 time=24 actual_time=40
type: note_off, time: 24, actual_time: 72
type=note_on channel=9 note=31 velocity=0 time=32 actual_time=4112
type=note_on channel=9 note=31 velocity=80 time=8 actual_time=4120
type: note_off, time: 8, actual_time: 4152
type=note_on channel=9 note=31 velocity=0 time=32 actual_time=4152
type=note_on channel=9 note=40 velocity=80 time=8 actual_time=40
type: note_off, time: 8, actual_time: 72
type=note_on channel=9 note=31 velocity=0 time=32 actual_time=4192
type=note_on channel=9 note=40 velocity=80 time=8 actual_time=80
type: note_off, time: 8, actual_time: 176
type=note_on channel=9 note=40 velocity=0 time=96 actual_time=4296
type=note_on channel=9 note=40 velocity=80 time=24 actual_time=40
type: note_off, time: 24, actual_time: 136
type=note_on channel=9 note=31 velocity=0 time=96 actual_time=4416
type=note_on channel=9 note=40 velocity=80 time=24 actual_time=40
type: note_off, time: 24, actual_time: 136
type=note_on channel=9 note=40 velocity=0 time=96 actual_time=4536
type=note_on channel=9 note=31 velocity=80 time=24 actual_time=80
type: note_off, time: 24, actual_time: 112
type=note_on channel=9 note=31 velocity=0 time=32 actual_time=4592
type=note_on channel=9 note=31 velocity=80 time=8 actual_time=80
type: note_off, time: 8, actual_time: 112
type=note_on channel=9 note=31 velocity=0 time=32 actual_time=4632
type=note_on channel=9 note=31 velocity=80 time=8 actual_time=4640
type: note_off, time: 8, actual_time: 4672
type=note_on channel=9 note=31 velocity=0 time=32 actual_time=4672
type=note_on channel=9 note=40 velocity=80 time=8 actual_time=80
type: note_off, time: 8, actual_time: 176
type=note_on channel=9 note=40 velocity=0 time=96 actual_time=4776
type=note_on channel=9 note=40 velocity=80 time=24 actual_time=80
type: note_off, time: 24, actual_time: 176
type=note_on channel=9 note=31 velocity=0 time=96 actual_time=4896
type=note_on channel=9 note=40 velocity=80 time=24 actual_time=120
type: note_off, time: 24, actual_time: 216
type=note_on channel=9 note=40 velocity=0 time=96 actual_time=5016
type=note_on channel=9 note=35 velocity=80 time=24 actual_time=0
type: note_off, time: 24, actual_time: 32
type=note_on channel=9 note=31 velocity=0 time=32 actual_time=5072
type=note_on channel=9 note=31 velocity=80 time=8 actual_time=120
type: note_off, time: 8, actual_time: 152
type=note_on channel=9 note=31 velocity=0 time=32 actual_time=5112
type=note_on channel=9 note=40 velocity=80 time=8 actual_time=40
type: note_off, time: 8, actual_time: 72
type=note_on channel=9 note=31 velocity=0 time=32 actual_time=5152
type=note_on channel=9 note=40 velocity=80 time=8 actual_time=80
type: note_off, time: 8, actual_time: 176
type=note_on channel=9 note=40 velocity=0 time=96 actual_time=5256
type=note_on channel=9 note=31 velocity=80 time=24 actual_time=80
type: note_off, time: 24, actual_time: 176
type=note_on channel=9 note=31 velocity=0 time=96 actual_time=5376
type=note_on channel=9 note=40 velocity=80 time=24 actual_time=0
type: note_off, time: 24, actual_time: 96
type=note_on channel=9 note=40 velocity=0 time=96 actual_time=5496
type=note_on channel=9 note=40 velocity=80 time=24 actual_time=5520
type: note_off, time: 24, actual_time: 5552
type=note_on channel=9 note=31 velocity=0 time=32 actual_time=5552
type=note_on channel=9 note=36 velocity=80 time=8 actual_time=80
type: note_off, time: 8, actual_time: 112
type=note_on channel=9 note=31 velocity=0 time=32 actual_time=5592
type=note_on channel=9 note=35 velocity=80 time=8 actual_time=5600
type: note_off, time: 8, actual_time: 5632
type=note_on channel=9 note=31 velocity=0 time=32 actual_time=5632
type=note_on channel=9 note=40 velocity=80 time=8 actual_time=40
type: note_off, time: 8, actual_time: 136
type=note_on channel=9 note=40 velocity=0 time=96 actual_time=5736
type=note_on channel=9 note=31 velocity=80 time=24 actual_time=0
type: note_off, time: 24, actual_time: 96
type=note_on channel=9 note=31 velocity=0 time=96 actual_time=5856
type=note_on channel=9 note=40 velocity=80 time=24 actual_time=5880
type: note_off, time: 24, actual_time: 5976
type=note_on channel=9 note=40 velocity=0 time=96 actual_time=5976
type=note_on channel=9 note=40 velocity=80 time=24 actual_time=120
type: note_off, time: 24, actual_time: 152
type=note_on channel=9 note=31 velocity=0 time=32 actual_time=6032
type=note_on channel=9 note=40 velocity=80 time=8 actual_time=6040
type: note_off, time: 8, actual_time: 6072
type=note_on channel=9 note=31 velocity=0 time=32 actual_time=6072
type=note_on channel=9 note=40 velocity=80 time=8 actual_time=80
type: note_off, time: 8, actual_time: 112
type=note_on channel=9 note=31 velocity=0 time=32 actual_time=6112
type=note_on channel=9 note=40 velocity=80 time=8 actual_time=6120
type: note_off, time: 8, actual_time: 6216
type=note_on channel=9 note=40 velocity=0 time=96 actual_time=6216
type=note_on channel=9 note=40 velocity=80 time=24 actual_time=0
type: note_off, time: 24, actual_time: 96
type=note_on channel=9 note=31 velocity=0 time=96 actual_time=6336
type=note_on channel=9 note=40 velocity=80 time=24 actual_time=40
type: note_off, time: 24, actual_time: 136
type=note_on channel=9 note=40 velocity=0 time=96 actual_time=6456
type=note_on channel=9 note=40 velocity=80 time=24 actual_time=80
type: note_off, time: 24, actual_time: 112
type=note_on channel=9 note=31 velocity=0 time=32 actual_time=6512
type=note_on channel=9 note=40 velocity=80 time=8 actual_time=120
type: note_off, time: 8, actual_time: 152
type=note_on channel=9 note=31 velocity=0 time=32 actual_time=6552
type=note_on channel=9 note=40 velocity=80 time=8 actual_time=0
type: note_off, time: 8, actual_time: 32
type=note_on channel=9 note=31 velocity=0 time=32 actual_time=6592
type=note_on channel=9 note=40 velocity=80 time=8 actual_time=0
type: note_off, time: 8, actual_time: 96
type=note_on channel=9 note=40 velocity=0 time=96 actual_time=6696
type=note_on channel=9 note=40 velocity=80 time=24 actual_time=120
type: note_off, time: 24, actual_time: 216
type=note_on channel=9 note=31 velocity=0 time=96 actual_time=6816
type=note_on channel=9 note=40 velocity=80 time=24 actual_time=40
type: note_off, time: 24, actual_time: 136
type=note_on channel=9 note=40 velocity=0 time=96 actual_time=6936
type=note_on channel=9 note=40 velocity=80 time=24 actual_time=0
type: note_off, time: 24, actual_time: 32
type=note_on channel=9 note=31 velocity=0 time=32 actual_time=6992
type=note_on channel=9 note=40 velocity=80 time=8 actual_time=120
type: note_off, time: 8, actual_time: 152
type=note_on channel=9 note=31 velocity=0 time=32 actual_time=7032
type=note_on channel=9 note=40 velocity=80 time=8 actual_time=40
type: note_off, time: 8, actual_time: 72
type=note_on channel=9 note=31 velocity=0 time=32 actual_time=7072
type=note_on channel=9 note=40 velocity=80 time=8 actual_time=80
type: note_off, time: 8, actual_time: 176
type=note_on channel=9 note=40 velocity=0 time=96 actual_time=7176
type=note_on channel=9 note=40 velocity=80 time=24 actual_time=0
type: note_off, time: 24, actual_time: 96
type=note_on channel=9 note=31 velocity=0 time=96 actual_time=7296
type=note_on channel=9 note=40 velocity=80 time=24 actual_time=7320
type: note_off, time: 24, actual_time: 7416
type=note_on channel=9 note=40 velocity=0 time=96 actual_time=7416
type=note_on channel=9 note=36 velocity=80 time=24 actual_time=7440
type: note_off, time: 24, actual_time: 7472
type=note_on channel=9 note=31 velocity=0 time=32 actual_time=7472
type=note_on channel=9 note=29 velocity=80 time=8 actual_time=80
type: note_off, time: 8, actual_time: 112
type=note_on channel=9 note=31 velocity=0 time=32 actual_time=7512
type=note_on channel=9 note=40 velocity=80 time=8 actual_time=7520
type: note_off, time: 8, actual_time: 7552
type=note_on channel=9 note=31 velocity=0 time=32 actual_time=7552
type=note_on channel=9 note=40 velocity=80 time=8 actual_time=80
type: note_off, time: 8, actual_time: 176
type=note_on channel=9 note=40 velocity=0 time=96 actual_time=7656
type=note_on channel=9 note=31 velocity=80 time=24 actual_time=120
type: note_off, time: 24, actual_time: 216
type=note_on channel=9 note=31 velocity=0 time=96 actual_time=7776
type=note_on channel=9 note=40 velocity=80 time=24 actual_time=40
type: note_off, time: 24, actual_time: 136
type=note_on channel=9 note=40 velocity=0 time=96 actual_time=7896
type=note_on channel=9 note=31 velocity=80 time=24 actual_time=120
type: note_off, time: 24, actual_time: 152
type=note_on channel=9 note=31 velocity=0 time=32 actual_time=7952
type=note_on channel=9 note=40 velocity=80 time=8 actual_time=7960
type: note_off, time: 8, actual_time: 7992
type=note_on channel=9 note=31 velocity=0 time=32 actual_time=7992
type=note_on channel=9 note=40 velocity=80 time=8 actual_time=80
type: note_off, time: 8, actual_time: 112
type=note_on channel=9 note=31 velocity=0 time=32 actual_time=8032
type=note_on channel=9 note=40 velocity=80 time=8 actual_time=40
type: note_off, time: 8, actual_time: 136
type=note_on channel=9 note=40 velocity=0 time=96 actual_time=8136
type=note_on channel=9 note=40 velocity=80 time=24 actual_time=40
type: note_off, time: 24, actual_time: 136
type=note_on channel=9 note=31 velocity=0 time=96 actual_time=8256
type=note_on channel=9 note=40 velocity=80 time=24 actual_time=8280
type: note_off, time: 24, actual_time: 8376
type=note_on channel=9 note=40 velocity=0 time=96 actual_time=8376
type=note_on channel=9 note=40 velocity=80 time=24 actual_time=0
type: note_off, time: 24, actual_time: 32
type=note_on channel=9 note=31 velocity=0 time=32 actual_time=8432
type=note_on channel=9 note=40 velocity=80 time=8 actual_time=8440
type: note_off, time: 8, actual_time: 8472
type=note_on channel=9 note=31 velocity=0 time=32 actual_time=8472
type=note_on channel=9 note=40 velocity=80 time=8 actual_time=8480
type: note_off, time: 8, actual_time: 8512
type=note_on channel=9 note=31 velocity=0 time=32 actual_time=8512
type=note_on channel=9 note=40 velocity=80 time=8 actual_time=40
type: note_off, time: 8, actual_time: 136
type=note_on channel=9 note=40 velocity=0 time=96 actual_time=8616
type=note_on channel=9 note=31 velocity=80 time=24 actual_time=80
type: note_off, time: 24, actual_time: 176
type=note_on channel=9 note=31 velocity=0 time=96 actual_time=8736
type=note_on channel=9 note=40 velocity=80 time=24 actual_time=40
type: note_off, time: 24, actual_time: 136
type=note_on channel=9 note=40 velocity=0 time=96 actual_time=8856
type=note_on channel=9 note=40 velocity=80 time=24 actual_time=40
type: note_off, time: 24, actual_time: 72
type=note_on channel=9 note=31 velocity=0 time=32 actual_time=8912
type=note_on channel=9 note=40 velocity=80 time=8 actual_time=120
type: note_off, time: 8, actual_time: 152
type=note_on channel=9 note=31 velocity=0 time=32 actual_time=8952
type=note_on channel=9 note=31 velocity=80 time=8 actual_time=120
type: note_off, time: 8, actual_time: 152
type=note_on channel=9 note=31 velocity=0 time=32 actual_time=8992
type=note_on channel=9 note=40 velocity=80 time=8 actual_time=0
type: note_off, time: 8, actual_time: 96
type=note_on channel=9 note=40 velocity=0 time=96 actual_time=9096
type=note_on channel=9 note=40 velocity=80 time=24 actual_time=120
type: note_off, time: 24, actual_time: 216
type=note_on channel=9 note=31 velocity=0 time=96 actual_time=9216
type=note_on channel=9 note=40 velocity=80 time=24 actual_time=0
type: note_off, time: 24, actual_time: 96
type=note_on channel=9 note=40 velocity=0 time=96 actual_time=9336
type=note_on channel=9 note=28 velocity=80 time=24 actual_time=40
type: note_off, time: 24, actual_time: 72
type=note_on channel=9 note=31 velocity=0 time=32 actual_time=9392
type=note_on channel=9 note=40 velocity=80 time=8 actual_time=40
type: note_off, time: 8, actual_time: 72
type=note_on channel=9 note=31 velocity=0 time=32 actual_time=9432
type=note_on channel=9 note=40 velocity=80 time=8 actual_time=40
type: note_off, time: 8, actual_time: 72
type=note_on channel=9 note=31 velocity=0 time=32 actual_time=9472
type=note_on channel=9 note=40 velocity=80 time=8 actual_time=120
type: note_off, time: 8, actual_time: 216
type=note_on channel=9 note=40 velocity=0 time=96 actual_time=9576
type=note_on channel=9 note=31 velocity=80 time=24 actual_time=120
type: note_off, time: 24, actual_time: 216
type=note_on channel=9 note=31 velocity=0 time=96 actual_time=9696
type=note_on channel=9 note=41 velocity=80 time=24 actual_time=120
type: note_off, time: 24, actual_time: 216
type=note_on channel=9 note=40 velocity=0 time=96 actual_time=9816
type=note_on channel=9 note=40 velocity=80 time=24 actual_time=0
type: note_off, time: 24, actual_time: 32
type=note_on channel=9 note=31 velocity=0 time=32 actual_time=9872
type=note_on channel=9 note=40 velocity=80 time=8 actual_time=80
type: note_off, time: 8, actual_time: 112
type=note_on channel=9 note=31 velocity=0 time=32 actual_time=9912
type=note_on channel=9 note=40 velocity=80 time=8 actual_time=120
type: note_off, time: 8, actual_time: 152
type=note_on channel=9 note=31 velocity=0 time=32 actual_time=9952
type=note_on channel=9 note=40 velocity=80 time=8 actual_time=120
type: note_off, time: 8, actual_time: 216
type=note_on channel=9 note=40 velocity=0 time=96 actual_time=10056
type=note_on channel=9 note=40 velocity=80 time=24 actual_time=0
type: note_off, time: 24, actual_time: 96
type=note_on channel=9 note=31 velocity=0 time=96 actual_time=10176
type=note_on channel=9 note=40 velocity=80 time=24 actual_time=10200
type: note_off, time: 24, actual_time: 10296
type=note_on channel=9 note=40 velocity=0 time=96 actual_time=10296
type=note_on channel=9 note=31 velocity=80 time=24 actual_time=0
type: note_off, time: 24, actual_time: 32
type=note_on channel=9 note=31 velocity=0 time=32 actual_time=10352
type=note_on channel=9 note=40 velocity=80 time=8 actual_time=80
type: note_off, time: 8, actual_time: 112
type=note_on channel=9 note=31 velocity=0 time=32 actual_time=10392
type=note_on channel=9 note=27 velocity=80 time=8 actual_time=0
type: note_off, time: 8, actual_time: 32
type=note_on channel=9 note=31 velocity=0 time=32 actual_time=10432
type=note_on channel=9 note=40 velocity=80 time=8 actual_time=10440
type: note_off, time: 8, actual_time: 10536
type=note_on channel=9 note=40 velocity=0 time=96 actual_time=10536
type=note_on channel=9 note=40 velocity=80 time=24 actual_time=0
type: note_off, time: 24, actual_time: 96
type=note_on channel=9 note=31 velocity=0 time=96 actual_time=10656
type=note_on channel=9 note=40 velocity=80 time=24 actual_time=120
type: note_off, time: 24, actual_time: 216
type=note_on channel=9 note=40 velocity=0 time=96 actual_time=10776
type=note_on channel=9 note=29 velocity=80 time=24 actual_time=0
type: note_off, time: 24, actual_time: 32
type=note_on channel=9 note=31 velocity=0 time=32 actual_time=10832
type=note_on channel=9 note=40 velocity=80 time=8 actual_time=10840
type: note_off, time: 8, actual_time: 10872
type=note_on channel=9 note=31 velocity=0 time=32 actual_time=10872
type=note_on channel=9 note=40 velocity=80 time=8 actual_time=80
type: note_off, time: 8, actual_time: 112
type=note_on channel=9 note=31 velocity=0 time=32 actual_time=10912
type=note_on channel=9 note=40 velocity=80 time=8 actual_time=40
type: note_off, time: 8, actual_time: 136
type=note_on channel=9 note=40 velocity=0 time=96 actual_time=11016
type=note_on channel=9 note=40 velocity=80 time=24 actual_time=120
type: note_off, time: 24, actual_time: 216
type=note_on channel=9 note=31 velocity=0 time=96 actual_time=11136
type=note_on channel=9 note=40 velocity=80 time=24 actual_time=120
type: note_off, time: 24, actual_time: 216
type=note_on channel=9 note=40 velocity=0 time=96 actual_time=11256
type=note_on channel=9 note=40 velocity=80 time=24 actual_time=120
type: note_off, time: 24, actual_time: 152
type=note_on channel=9 note=31 velocity=0 time=32 actual_time=11312
type=note_on channel=9 note=36 velocity=80 time=8 actual_time=40
type: note_off, time: 8, actual_time: 72
type=note_on channel=9 note=31 velocity=0 time=32 actual_time=11352
type=note_on channel=9 note=40 velocity=80 time=8 actual_time=40
type: note_off, time: 8, actual_time: 72
type=note_on channel=9 note=31 velocity=0 time=32 actual_time=11392
type=note_on channel=9 note=36 velocity=80 time=8 actual_time=120
type: note_off, time: 8, actual_time: 216
type=note_on channel=9 note=40 velocity=0 time=96 actual_time=11496
type=note_on channel=9 note=40 velocity=80 time=24 actual_time=40
type: note_off, time: 24, actual_time: 136
type=note_on channel=9 note=31 velocity=0 time=96 actual_time=11616
type=note_on channel=9 note=40 velocity=80 time=24 actual_time=80
type: note_off, time: 24, actual_time: 176
type=note_on channel=9 note=40 velocity=0 time=96 actual_time=11736
type=note_on channel=9 note=40 velocity=80 time=24 actual_time=11760
type: note_off, time: 24, actual_time: 11792
type=note_on channel=9 note=31 velocity=0 time=32 actual_time=11792
type=note_on channel=9 note=40 velocity=80 time=8 actual_time=80
type: note_off, time: 8, actual_time: 112
type=note_on channel=9 note=31 velocity=0 time=32 actual_time=11832
type=note_on channel=9 note=40 velocity=80 time=8 actual_time=40
type: note_off, time: 8, actual_time: 72
type=note_on channel=9 note=31 velocity=0 time=32 actual_time=11872
type=note_on channel=9 note=40 velocity=80 time=8 actual_time=11880
type: note_off, time: 8, actual_time: 11976
type=note_on channel=9 note=40 velocity=0 time=96 actual_time=11976
type=note_on channel=9 note=40 velocity=80 time=24 actual_time=120
type: note_off, time: 24, actual_time: 216
type=note_on channel=9 note=31 velocity=0 time=96 actual_time=12096
type=note_on channel=9 note=40 velocity=80 time=24 actual_time=120
type: note_off, time: 24, actual_time: 216
type=note_on channel=9 note=40 velocity=0 time=96 actual_time=12216
type=note_on channel=9 note=40 velocity=80 time=24 actual_time=120
type: note_off, time: 24, actual_time: 152
type=note_on channel=9 note=31 velocity=0 time=32 actual_time=12272
type=note_on channel=9 note=31 velocity=80 time=8 actual_time=80
type: note_off, time: 8, actual_time: 112
type=note_on channel=9 note=31 velocity=0 time=32 actual_time=12312
type=note_on channel=9 note=29 velocity=80 time=8 actual_time=12320
type: note_off, time: 8, actual_time: 12352
type=note_on channel=9 note=31 velocity=0 time=32 actual_time=12352
type=note_on channel=9 note=40 velocity=80 time=8 actual_time=40
type: note_off, time: 8, actual_time: 136
type=note_on channel=9 note=40 velocity=0 time=96 actual_time=12456
type=note_on channel=9 note=40 velocity=80 time=24 actual_time=40
type: note_off, time: 24, actual_time: 136
type=note_on channel=9 note=31 velocity=0 time=96 actual_time=12576
type=note_on channel=9 note=40 velocity=80 time=24 actual_time=120
type: note_off, time: 24, actual_time: 216
type=note_on channel=9 note=40 velocity=0 time=96 actual_time=12696
type=note_on channel=9 note=40 velocity=80 time=24 actual_time=12720
type: note_off, time: 24, actual_time: 12752
type=note_on channel=9 note=31 velocity=0 time=32 actual_time=12752
type=note_on channel=9 note=40 velocity=80 time=8 actual_time=40
type: note_off, time: 8, actual_time: 72
type=note_on channel=9 note=31 velocity=0 time=32 actual_time=12792
type=note_on channel=9 note=40 velocity=80 time=8 actual_time=40
type: note_off, time: 8, actual_time: 72
type=note_on channel=9 note=31 velocity=0 time=32 actual_time=12832
type=note_on channel=9 note=40 velocity=80 time=8 actual_time=80
type: note_off, time: 8, actual_time: 176
type=note_on channel=9 note=40 velocity=0 time=96 actual_time=12936
type=note_on channel=9 note=40 velocity=80 time=24 actual_time=80
type: note_off, time: 24, actual_time: 176
type=note_on channel=9 note=31 velocity=0 time=96 actual_time=13056
type=note_on channel=9 note=40 velocity=80 time=24 actual_time=13080
type: note_off, time: 24, actual_time: 13176
type=note_on channel=9 note=40 velocity=0 time=96 actual_time=13176
type=note_on channel=9 note=31 velocity=80 time=24 actual_time=13200
type: note_off, time: 24, actual_time: 13232
type=note_on channel=9 note=31 velocity=0 time=32 actual_time=13232
type=note_on channel=9 note=33 velocity=80 time=8 actual_time=13240
type: note_off, time: 8, actual_time: 13272
type=note_on channel=9 note=31 velocity=0 time=32 actual_time=13272
type=note_on channel=9 note=40 velocity=80 time=8 actual_time=0
type: note_off, time: 8, actual_time: 32
type=note_on channel=9 note=31 velocity=0 time=32 actual_time=13312
type=note_on channel=9 note=40 velocity=80 time=8 actual_time=80
type: note_off, time: 8, actual_time: 176
type=note_on channel=9 note=40 velocity=0 time=96 actual_time=13416
type=note_on channel=9 note=40 velocity=80 time=24 actual_time=13440
type: note_off, time: 24, actual_time: 13536
type=note_on channel=9 note=31 velocity=0 time=96 actual_time=13536
type=note_on channel=9 note=40 velocity=80 time=24 actual_time=13560
type: note_off, time: 24, actual_time: 13656
type=note_on channel=9 note=40 velocity=0 time=96 actual_time=13656
type=note_on channel=9 note=33 velocity=80 time=24 actual_time=40
type: note_off, time: 24, actual_time: 72
type=note_on channel=9 note=31 velocity=0 time=32 actual_time=13712
type=note_on channel=9 note=40 velocity=80 time=8 actual_time=80
type: note_off, time: 8, actual_time: 112
type=note_on channel=9 note=31 velocity=0 time=32 actual_time=13752
type=note_on channel=9 note=35 velocity=80 time=8 actual_time=0
type: note_off, time: 8, actual_time: 32
type=note_on channel=9 note=31 velocity=0 time=32 actual_time=13792
type=note_on channel=9 note=40 velocity=80 time=8 actual_time=0
type: note_off, time: 8, actual_time: 96
type=note_on channel=9 note=40 velocity=0 time=96 actual_time=13896
type=note_on channel=9 note=40 velocity=80 time=24 actual_time=13920
type: note_off, time: 24, actual_time: 14016
type=note_on channel=9 note=31 velocity=0 time=96 actual_time=14016
type=note_on channel=9 note=40 velocity=80 time=24 actual_time=14040
type: note_off, time: 24, actual_time: 14136
type=note_on channel=9 note=40 velocity=0 time=96 actual_time=14136
type=note_on channel=9 note=40 velocity=80 time=24 actual_time=120
type: note_off, time: 24, actual_time: 152
type=note_on channel=9 note=31 velocity=0 time=32 actual_time=14192
type=note_on channel=9 note=31 velocity=80 time=8 actual_time=40
type: note_off, time: 8, actual_time: 72
type=note_on channel=9 note=31 velocity=0 time=32 actual_time=14232
type=note_on channel=9 note=40 velocity=80 time=8 actual_time=40
type: note_off, time: 8, actual_time: 72
type=note_on channel=9 note=31 velocity=0 time=32 actual_time=14272
type=note_on channel=9 note=39 velocity=80 time=8 actual_time=0
type: note_off, time: 8, actual_time: 96
type=note_on channel=9 note=40 velocity=0 time=96 actual_time=14376
type=note_on channel=9 note=40 velocity=80 time=24 actual_time=80
type: note_off, time: 24, actual_time: 176
type=note_on channel=9 note=31 velocity=0 time=96 actual_time=14496
type=note_on channel=9 note=40 velocity=80 time=24 actual_time=14520
type: note_off, time: 24, actual_time: 14616
type=note_on channel=9 note=40 velocity=0 time=96 actual_time=14616
type=note_on channel=9 note=40 velocity=80 time=24 actual_time=40
type: note_off, time: 24, actual_time: 72
type=note_on channel=9 note=31 velocity=0 time=32 actual_time=14672
type=note_on channel=9 note=40 velocity=80 time=8 actual_time=0
type: note_off, time: 8, actual_time: 32
type=note_on channel=9 note=31 velocity=0 time=32 actual_time=14712
type=note_on channel=9 note=31 velocity=80 time=8 actual_time=14720
type: note_off, time: 8, actual_time: 14752
type=note_on channel=9 note=31 velocity=0 time=32 actual_time=14752
type=note_on channel=9 note=40 velocity=80 time=8 actual_time=14760
type: note_off, time: 8, actual_time: 14856
type=note_on channel=9 note=40 velocity=0 time=96 actual_time=14856
type=note_on channel=9 note=40 velocity=80 time=24 actual_time=14880
type: note_off, time: 24, actual_time: 14912
type=note_on channel=9 note=40 velocity=80 time=0 actual_time=14880
type: note_off, time: 0, actual_time: 14912
type=note_on channel=9 note=31 velocity=0 time=32 actual_time=14912
type=note_on channel=9 note=31 velocity=0 time=0 actual_time=14912
type=note_on channel=9 note=40 velocity=80 time=8 actual_time=120
type: note_off, time: 8, actual_time: 152
type=note_on channel=9 note=31 velocity=0 time=32 actual_time=14952
type=note_on channel=9 note=40 velocity=80 time=8 actual_time=14960
type: note_off, time: 8, actual_time: 14992
type=note_on channel=9 note=31 velocity=0 time=32 actual_time=14992
type=note_on channel=9 note=40 velocity=80 time=8 actual_time=40
type: note_off, time: 8, actual_time: 72
type=note_on channel=9 note=31 velocity=80 time=0 actual_time=40
type: note_off, time: 0, actual_time: 72
type=note_on channel=9 note=31 velocity=0 time=32 actual_time=15032
type=note_on channel=9 note=31 velocity=0 time=0 actual_time=15032
type=note_on channel=9 note=40 velocity=80 time=8 actual_time=120
type: note_off, time: 8, actual_time: 152
type=note_on channel=9 note=31 velocity=0 time=32 actual_time=15072
type=note_on channel=9 note=40 velocity=80 time=8 actual_time=0
type: note_off, time: 8, actual_time: 32
type=note_on channel=9 note=31 velocity=0 time=32 actual_time=15112
type=note_on channel=9 note=40 velocity=80 time=8 actual_time=120
type: note_off, time: 8, actual_time: 152
type=note_on channel=9 note=47 velocity=0 time=32 actual_time=15152
type=note_on channel=9 note=40 velocity=80 time=8 actual_time=120
type: note_off, time: 8, actual_time: 152
type=note_on channel=9 note=45 velocity=0 time=32 actual_time=15192
type=note_on channel=9 note=40 velocity=80 time=8 actual_time=80
type: note_off, time: 8, actual_time: 112
type=note_on channel=9 note=43 velocity=0 time=32 actual_time=15232
type=note_on channel=9 note=40 velocity=80 time=8 actual_time=40
type: note_off, time: 8, actual_time: 72
type=note_on channel=9 note=47 velocity=0 time=32 actual_time=15272
type=note_on channel=9 note=40 velocity=80 time=8 actual_time=120
type: note_off, time: 8, actual_time: 152
type=note_on channel=9 note=45 velocity=0 time=32 actual_time=15312
type=note_on channel=9 note=40 velocity=80 time=8 actual_time=120
type: note_off, time: 8, actual_time: 152
type=note_on channel=9 note=43 velocity=0 time=32 actual_time=15352
type=note_on channel=9 note=40 velocity=80 time=8 actual_time=0
type: note_off, time: 8, actual_time: 96
type=note_on channel=9 note=40 velocity=80 time=0 actual_time=80
type: note_off, time: 0, actual_time: 176
type=note_on channel=9 note=40 velocity=80 time=0 actual_time=15360
type: note_off, time: 0, actual_time: 15456
type=note_on channel=9 note=49 velocity=0 time=96 actual_time=15456
type=note_on channel=9 note=35 velocity=0 time=0 actual_time=15456
type=note_on channel=9 note=53 velocity=0 time=0 actual_time=15456
type=note_on channel=9 note=40 velocity=80 time=24 actual_time=15480
type: note_off, time: 24, actual_time: 15576
type=note_on channel=9 note=40 velocity=80 time=0 actual_time=15480
type: note_off, time: 0, actual_time: 15576
type=note_on channel=9 note=40 velocity=0 time=96 actual_time=15576
type=note_on channel=9 note=53 velocity=0 time=0 actual_time=15576
type=note_on channel=9 note=53 velocity=80 time=24 actual_time=40
type: note_off, time: 24, actual_time: 104
type=note_on channel=9 note=53 velocity=0 time=64 actual_time=15664
type=note_on channel=9 note=40 velocity=80 time=16 actual_time=40
type: note_off, time: 16, actual_time: 72
type=note_on channel=9 note=35 velocity=0 time=32 actual_time=15712
type=note_on channel=9 note=40 velocity=80 time=8 actual_time=80
type: note_off, time: 8, actual_time: 176
type=note_on channel=9 note=40 velocity=80 time=0 actual_time=120
type: note_off, time: 0, actual_time: 216
type=note_on channel=9 note=53 velocity=0 time=96 actual_time=15816
type=note_on channel=9 note=40 velocity=0 time=0 actual_time=15816
type=note_on channel=9 note=40 velocity=80 time=24 actual_time=0
type: note_off, time: 24, actual_time: 96
type=note_on channel=9 note=40 velocity=80 time=0 actual_time=80
type: note_off, time: 0, actual_time: 176
type=note_on channel=9 note=35 velocity=0 time=96 actual_time=15936
type=note_on channel=9 note=53 velocity=0 time=0 actual_time=15936
type=note_on channel=9 note=43 velocity=80 time=24 actual_time=0
type: note_off, time: 24, actual_time: 96
type=note_on channel=9 note=53 velocity=80 time=0 actual_time=15960
type: note_off, time: 0, actual_time: 16056
type=note_on channel=9 note=53 velocity=0 time=96 actual_time=16056
type=note_on channel=9 note=40 velocity=0 time=0 actual_time=16056
type=note_on channel=9 note=40 velocity=80 time=24 actual_time=120
type: note_off, time: 24, actual_time: 184
type=note_on channel=9 note=53 velocity=0 time=64 actual_time=16144
type=note_on channel=9 note=35 velocity=80 time=16 actual_time=0
type: note_off, time: 16, actual_time: 32
type=note_on channel=9 note=35 velocity=0 time=32 actual_time=16192
type=note_on channel=9 note=40 velocity=80 time=8 actual_time=0
type: note_off, time: 8, actual_time: 96
type=note_on channel=9 note=40 velocity=80 time=0 actual_time=16200
type: note_off, time: 0, actual_time: 16296
type=note_on channel=9 note=40 velocity=0 time=96 actual_time=16296
type=note_on channel=9 note=53 velocity=0 time=0 actual_time=16296
type=note_on channel=9 note=40 velocity=80 time=24 actual_time=40
type: note_off, time: 24, actual_time: 136
type=note_on channel=9 note=40 velocity=80 time=0 actual_time=0
type: note_off, time: 0, actual_time: 96
type=note_on channel=9 note=53 velocity=0 time=96 actual_time=16416
type=note_on channel=9 note=35 velocity=0 time=0 actual_time=16416
type=note_on channel=9 note=40 velocity=80 time=24 actual_time=0
type: note_off, time: 24, actual_time: 96
type=note_on channel=9 note=40 velocity=80 time=0 actual_time=0
type: note_off, time: 0, actual_time: 96
type=note_on channel=9 note=53 velocity=0 time=96 actual_time=16536
type=note_on channel=9 note=40 velocity=0 time=0 actual_time=16536
type=note_on channel=9 note=40 velocity=80 time=24 actual_time=80
type: note_off, time: 24, actual_time: 144
type=note_on channel=9 note=53 velocity=0 time=64 actual_time=16624
type=note_on channel=9 note=40 velocity=80 time=16 actual_time=120
type: note_off, time: 16, actual_time: 152
type=note_on channel=9 note=35 velocity=0 time=32 actual_time=16672
type=note_on channel=9 note=40 velocity=80 time=8 actual_time=80
type: note_off, time: 8, actual_time: 176
type=note_on channel=9 note=40 velocity=80 time=0 actual_time=16680
type: note_off, time: 0, actual_time: 16776
type=note_on channel=9 note=40 velocity=0 time=96 actual_time=16776
type=note_on channel=9 note=53 velocity=0 time=0 actual_time=16776
type=note_on channel=9 note=40 velocity=80 time=24 actual_time=120
type: note_off, time: 24, actual_time: 216
type=note_on channel=9 note=35 velocity=80 time=0 actual_time=80
type: note_off, time: 0, actual_time: 176
type=note_on channel=9 note=35 velocity=0 time=96 actual_time=16896
type=note_on channel=9 note=53 velocity=0 time=0 actual_time=16896
type=note_on channel=9 note=40 velocity=80 time=24 actual_time=0
type: note_off, time: 24, actual_time: 96
type=note_on channel=9 note=40 velocity=80 time=0 actual_time=40
type: note_off, time: 0, actual_time: 136
type=note_on channel=9 note=53 velocity=0 time=96 actual_time=17016
type=note_on channel=9 note=40 velocity=0 time=0 actual_time=17016
type=note_on channel=9 note=54 velocity=80 time=24 actual_time=0
type: note_off, time: 24, actual_time: 64
type=note_on channel=9 note=53 velocity=0 time=64 actual_time=17104
type=note_on channel=9 note=40 velocity=80 time=16 actual_time=120
type: note_off, time: 16, actual_time: 152
type=note_on channel=9 note=35 velocity=0 time=32 actual_time=17152
type=note_on channel=9 note=40 velocity=80 time=8 actual_time=17160
type: note_off, time: 8, actual_time: 17256
type=note_on channel=9 note=40 velocity=80 time=0 actual_time=80
type: note_off, time: 0, actual_time: 176
type=note_on channel=9 note=53 velocity=0 time=96 actual_time=17256
type=note_on channel=9 note=40 velocity=0 time=0 actual_time=17256
type=note_on channel=9 note=40 velocity=80 time=24 actual_time=120
type: note_off, time: 24, actual_time: 216
type=note_on channel=9 note=40 velocity=80 time=0 actual_time=17280
type: note_off, time: 0, actual_time: 17376
type=note_on channel=9 note=35 velocity=0 time=96 actual_time=17376
type=note_on channel=9 note=53 velocity=0 time=0 actual_time=17376
type=note_on channel=9 note=40 velocity=80 time=24 actual_time=40
type: note_off, time: 24, actual_time: 136
type=note_on channel=9 note=40 velocity=80 time=0 actual_time=40
type: note_off, time: 0, actual_time: 136
type=note_on channel=9 note=40 velocity=0 time=96 actual_time=17496
type=note_on channel=9 note=53 velocity=0 time=0 actual_time=17496
type=note_on channel=9 note=40 velocity=80 time=24 actual_time=80
type: note_off, time: 24, actual_time: 144
type=note_on channel=9 note=53 velocity=0 time=64 actual_time=17584
type=note_on channel=9 note=40 velocity=80 time=16 actual_time=80
type: note_off, time: 16, actual_time: 112
type=note_on channel=9 note=35 velocity=0 time=32 actual_time=17632
type=note_on channel=9 note=40 velocity=80 time=8 actual_time=80
type: note_off, time: 8, actual_time: 176
type=note_on channel=9 note=40 velocity=80 time=0 actual_time=80
type: note_off, time: 0, actual_time: 176
type=note_on channel=9 note=53 velocity=0 time=96 actual_time=17736
type=note_on channel=9 note=40 velocity=0 time=0 actual_time=17736
type=note_on channel=9 note=40 velocity=80 time=24 actual_time=17760
type: note_off, time: 24, actual_time: 17856
type=note_on channel=9 note=40 velocity=80 time=0 actual_time=17760
type: note_off, time: 0, actual_time: 17856
type=note_on channel=9 note=53 velocity=0 time=96 actual_time=17856
type=note_on channel=9 note=35 velocity=0 time=0 actual_time=17856
type=note_on channel=9 note=40 velocity=80 time=24 actual_time=120
type: note_off, time: 24, actual_time: 216
type=note_on channel=9 note=40 velocity=80 time=0 actual_time=17880
type: note_off, time: 0, actual_time: 17976
type=note_on channel=9 note=53 velocity=0 time=96 actual_time=17976
type=note_on channel=9 note=40 velocity=0 time=0 actual_time=17976
type=note_on channel=9 note=40 velocity=80 time=24 actual_time=18000
type: note_off, time: 24, actual_time: 18064
type=note_on channel=9 note=53 velocity=0 time=64 actual_time=18064
type=note_on channel=9 note=40 velocity=80 time=16 actual_time=0
type: note_off, time: 16, actual_time: 32
type=note_on channel=9 note=35 velocity=0 time=32 actual_time=18112
type=note_on channel=9 note=53 velocity=80 time=8 actual_time=18120
type: note_off, time: 8, actual_time: 18216
type=note_on channel=9 note=40 velocity=80 time=0 actual_time=120
type: note_off, time: 0, actual_time: 216
type=note_on channel=9 note=40 velocity=0 time=96 actual_time=18216
type=note_on channel=9 note=53 velocity=0 time=0 actual_time=18216
type=note_on channel=9 note=40 velocity=80 time=24 actual_time=18240
type: note_off, time: 24, actual_time: 18336
type=note_on channel=9 note=40 velocity=80 time=0 actual_time=0
type: note_off, time: 0, actual_time: 96
type=note_on channel=9 note=53 velocity=0 time=96 actual_time=18336
type=note_on channel=9 note=35 velocity=0 time=0 actual_time=18336
type=note_on channel=9 note=39 velocity=80 time=24 actual_time=80
type: note_off, time: 24, actual_time: 176
type=note_on channel=9 note=53 velocity=80 time=0 actual_time=40
type: note_off, time: 0, actual_time: 136
type=note_on channel=9 note=53 velocity=0 time=96 actual_time=18456
type=note_on channel=9 note=40 velocity=0 time=0 actual_time=18456
type=note_on channel=9 note=40 velocity=80 time=24 actual_time=0
type: note_off, time: 24, actual_time: 64
type=note_on channel=9 note=53 velocity=0 time=64 actual_time=18544
type=note_on channel=9 note=35 velocity=80 time=16 actual_time=18560
type: note_off, time: 16, actual_time: 18592
type=note_on channel=9 note=35 velocity=0 time=32 actual_time=18592
type=note_on channel=9 note=40 velocity=80 time=8 actual_time=0
type: note_off, time: 8, actual_time: 96
type=note_on channel=9 note=40 velocity=80 time=0 actual_time=0
type: note_off, time: 0, actual_time: 96
type=note_on channel=9 note=40 velocity=0 time=96 actual_time=18696
type=note_on channel=9 note=53 velocity=0 time=0 actual_time=18696
type=note_on channel=9 note=40 velocity=80 time=24 actual_time=80
type: note_off, time: 24, actual_time: 176
type=note_on channel=9 note=40 velocity=80 time=0 actual_time=120
type: note_off, time: 0, actual_time: 216
type=note_on channel=9 note=53 velocity=0 time=96 actual_time=18816
type=note_on channel=9 note=35 velocity=0 time=0 actual_time=18816
type=note_on channel=9 note=36 velocity=80 time=24 actual_time=80
type: note_off, time: 24, actual_time: 176
type=note_on channel=9 note=40 velocity=80 time=0 actual_time=120
type: note_off, time: 0, actual_time: 216
type=note_on channel=9 note=53 velocity=0 time=96 actual_time=18936
type=note_on channel=9 note=40 velocity=0 time=0 actual_time=18936
type=note_on channel=9 note=40 velocity=80 time=24 actual_time=120
type: note_off, time: 24, actual_time: 152
type=note_on channel=9 note=40 velocity=80 time=0 actual_time=80
type: note_off, time: 0, actual_time: 112
type=note_on channel=9 note=47 velocity=0 time=32 actual_time=18992
type=note_on channel=9 note=40 velocity=0 time=0 actual_time=18992
type=note_on channel=9 note=40 velocity=80 time=8 actual_time=19000
type: note_off, time: 8, actual_time: 19032
type=note_on channel=9 note=45 velocity=0 time=32 actual_time=19032
type=note_on channel=9 note=43 velocity=80 time=8 actual_time=120
type: note_off, time: 8, actual_time: 152
type=note_on channel=9 note=43 velocity=0 time=32 actual_time=19072
type=note_on channel=9 note=41 velocity=80 time=8 actual_time=19080
type: note_off, time: 8, actual_time: 19272
type=note_on channel=9 note=40 velocity=80 time=120 actual_time=40
type: note_off, time: 120, actual_time: 136
type=note_on channel=9 note=40 velocity=80 time=0 actual_time=0
type: note_off, time: 0, actual_time: 96
type=note_on channel=9 note=40 velocity=80 time=0 actual_time=19200
type: note_off, time: 0, actual_time: 19296
type=note_on channel=9 note=41 velocity=0 time=72 actual_time=19272
type=note_on channel=9 note=49 velocity=0 time=24 actual_time=19296
type=note_on channel=9 note=35 velocity=0 time=0 actual_time=19296
type=note_on channel=9 note=53 velocity=0 time=0 actual_time=19296
type=note_on channel=9 note=36 velocity=80 time=24 actual_time=40
type: note_off, time: 24, actual_time: 136
type=note_on channel=9 note=40 velocity=80 time=0 actual_time=120
type: note_off, time: 0, actual_time: 216
type=note_on channel=9 note=53 velocity=0 time=96 actual_time=19416
type=note_on channel=9 note=40 velocity=0 time=0 actual_time=19416
type=note_on channel=9 note=40 velocity=80 time=24 actual_time=80
type: note_off, time: 24, actual_time: 144
type=note_on channel=9 note=53 velocity=0 time=64 actual_time=19504
type=note_on channel=9 note=35 velocity=80 time=16 actual_time=0
type: note_off, time: 16, actual_time: 32
type=note_on channel=9 note=35 velocity=0 time=32 actual_time=19552
type=note_on channel=9 note=57 velocity=80 time=8 actual_time=40
type: note_off, time: 8, actual_time: 136
type=note_on channel=9 note=40 velocity=80 time=0 actual_time=80
type: note_off, time: 0, actual_time: 176
type=note_on channel=9 note=40 velocity=0 time=96 actual_time=19656
type=note_on channel=9 note=53 velocity=0 time=0 actual_time=19656
type=note_on channel=9 note=40 velocity=80 time=24 actual_time=40
type: note_off, time: 24, actual_time: 136
type=note_on channel=9 note=40 velocity=80 time=0 actual_time=19680
type: note_off, time: 0, actual_time: 19776
type=note_on channel=9 note=53 velocity=0 time=96 actual_time=19776
type=note_on channel=9 note=35 velocity=0 time=0 actual_time=19776
type=note_on channel=9 note=40 velocity=80 time=24 actual_time=19800
type: note_off, time: 24, actual_time: 19896
type=note_on channel=9 note=40 velocity=80 time=0 actual_time=19800
type: note_off, time: 0, actual_time: 19896
type=note_on channel=9 note=53 velocity=0 time=96 actual_time=19896
type=note_on channel=9 note=40 velocity=0 time=0 actual_time=19896
type=note_on channel=9 note=40 velocity=80 time=24 actual_time=0
type: note_off, time: 24, actual_time: 64
type=note_on channel=9 note=53 velocity=0 time=64 actual_time=19984
type=note_on channel=9 note=40 velocity=80 time=16 actual_time=20000
type: note_off, time: 16, actual_time: 20032
type=note_on channel=9 note=35 velocity=0 time=32 actual_time=20032
type=note_on channel=9 note=40 velocity=80 time=8 actual_time=80
type: note_off, time: 8, actual_time: 176
type=note_on channel=9 note=53 velocity=80 time=0 actual_time=0
type: note_off, time: 0, actual_time: 96
type=note_on channel=9 note=53 velocity=0 time=96 actual_time=20136
type=note_on channel=9 note=40 velocity=0 time=0 actual_time=20136
type=note_on channel=9 note=40 velocity=80 time=24 actual_time=120
type: note_off, time: 24, actual_time: 216
type=note_on channel=9 note=35 velocity=80 time=0 actual_time=40
type: note_off, time: 0, actual_time: 136
type=note_on channel=9 note=35 velocity=0 time=96 actual_time=20256
type=note_on channel=9 note=53 velocity=0 time=0 actual_time=20256
type=note_on channel=9 note=53 velocity=80 time=24 actual_time=80
type: note_off, time: 24, actual_time: 176
type=note_on channel=9 note=40 velocity=80 time=0 actual_time=80
type: note_off, time: 0, actual_time: 176
type=note_on channel=9 note=40 velocity=0 time=96 actual_time=20376
type=note_on channel=9 note=53 velocity=0 time=0 actual_time=20376
type=note_on channel=9 note=40 velocity=80 time=24 actual_time=40
type: note_off, time: 24, actual_time: 104
type=note_on channel=9 note=53 velocity=0 time=64 actual_time=20464
type=note_on channel=9 note=35 velocity=80 time=16 actual_time=80
type: note_off, time: 16, actual_time: 112
type=note_on channel=9 note=35 velocity=0 time=32 actual_time=20512
type=note_on channel=9 note=40 velocity=80 time=8 actual_time=120
type: note_off, time: 8, actual_time: 216
type=note_on channel=9 note=40 velocity=80 time=0 actual_time=0
type: note_off, time: 0, actual_time: 96
type=note_on channel=9 note=53 velocity=0 time=96 actual_time=20616
type=note_on channel=9 note=40 velocity=0 time=0 actual_time=20616
type=note_on channel=9 note=35 velocity=80 time=24 actual_time=20640
type: note_off, time: 24, actual_time: 20736
type=note_on channel=9 note=54 velocity=80 time=0 actual_time=80
type: note_off, time: 0, actual_time: 176
type=note_on channel=9 note=53 velocity=0 time=96 actual_time=20736
type=note_on channel=9 note=35 velocity=0 time=0 actual_time=20736
type=note_on channel=9 note=40 velocity=80 time=24 actual_time=80
type: note_off, time: 24, actual_time: 176
type=note_on channel=9 note=40 velocity=80 time=0 actual_time=20760
type: note_off, time: 0, actual_time: 20856
type=note_on channel=9 note=53 velocity=0 time=96 actual_time=20856
type=note_on channel=9 note=40 velocity=0 time=0 actual_time=20856
type=note_on channel=9 note=40 velocity=80 time=24 actual_time=80
type: note_off, time: 24, actual_time: 144
type=note_on channel=9 note=53 velocity=0 time=64 actual_time=20944
type=note_on channel=9 note=35 velocity=80 time=16 actual_time=120
type: note_off, time: 16, actual_time: 152
type=note_on channel=9 note=35 velocity=0 time=32 actual_time=20992
type=note_on channel=9 note=53 velocity=80 time=8 actual_time=40
type: note_off, time: 8, actual_time: 136
type=note_on channel=9 note=40 velocity=80 time=0 actual_time=40
type: note_off, time: 0, actual_time: 136
type=note_on channel=9 note=40 velocity=0 time=96 actual_time=21096
type=note_on channel=9 note=53 velocity=0 time=0 actual_time=21096
type=note_on channel=9 note=40 velocity=80 time=24 actual_time=21120
type: note_off, time: 24, actual_time: 21216
type=note_on channel=9 note=40 velocity=80 time=0 actual_time=120
type: note_off, time: 0, actual_time: 216
type=note_on channel=9 note=40 velocity=80 time=0 actual_time=40
type: note_off, time: 0, actual_time: 136
type=note_on channel=9 note=53 velocity=0 time=96 actual_time=21216
type=note_on channel=9 note=35 velocity=0 time=0 actual_time=21216
type=note_on channel=9 note=49 velocity=0 time=0 actual_time=21216
type=note_on channel=9 note=40 velocity=80 time=24 actual_time=80
type: note_off, time: 24, actual_time: 176
type=note_on channel=9 note=53 velocity=80 time=0 actual_time=0
type: note_off, time: 0, actual_time: 96
type=note_on channel=9 note=53 velocity=0 time=96 actual_time=21336
type=note_on channel=9 note=40 velocity=0 time=0 actual_time=21336
type=note_on channel=9 note=53 velocity=80 time=24 actual_time=0
type: note_off, time: 24, actual_time: 64
type=note_on channel=9 note=53 velocity=0 time=64 actual_time=21424
type=note_on channel=9 note=35 velocity=80 time=16 actual_time=120
type: note_off, time: 16, actual_time: 152
type=note_on channel=9 note=35 velocity=0 time=32 actual_time=21472
type=note_on channel=9 note=40 velocity=80 time=8 actual_time=120
type: note_off, time: 8, actual_time: 216
type=note_on channel=9 note=48 velocity=80 time=0 actual_time=21480
type: note_off, time: 0, actual_time: 21576
type=note_on channel=9 note=53 velocity=0 time=96 actual_time=21576
type=note_on channel=9 note=40 velocity=0 time=0 actual_time=21576
type=note_on channel=9 note=53 velocity=80 time=24 actual_time=120
type: note_off, time: 24, actual_time: 216
type=note_on channel=9 note=40 velocity=80 time=0 actual_time=0
type: note_off, time: 0, actual_time: 96
type=note_on channel=9 note=35 velocity=0 time=96 actual_time=21696
type=note_on channel=9 note=53 velocity=0 time=0 actual_time=21696
type=note_on channel=9 note=40 velocity=80 time=24 actual_time=120
type: note_off, time: 24, actual_time: 216
type=note_on channel=9 note=40 velocity=80 time=0 actual_time=120
type: note_off, time: 0, actual_time: 216
type=note_on channel=9 note=53 velocity=0 time=96 actual_time=21816
type=note_on channel=9 note=40 velocity=0 time=0 actual_time=21816
type=note_on channel=9 note=40 velocity=80 time=24 actual_time=40
type: note_off, time: 24, actual_time: 104
type=note_on channel=9 note=53 velocity=0 time=64 actual_time=21904
type=note_on channel=9 note=39 velocity=80 time=16 actual_time=80
type: note_off, time: 16, actual_time: 112
type=note_on channel=9 note=35 velocity=0 time=32 actual_time=21952
type=note_on channel=9 note=40 velocity=80 time=8 actual_time=0
type: note_off, time: 8, actual_time: 96
type=note_on channel=9 note=40 velocity=80 time=0 actual_time=21960
type: note_off, time: 0, actual_time: 22056
type=note_on channel=9 note=53 velocity=0 time=96 actual_time=22056
type=note_on channel=9 note=40 velocity=0 time=0 actual_time=22056
type=note_on channel=9 note=40 velocity=80 time=24 actual_time=0
type: note_off, time: 24, actual_time: 96
type=note_on channel=9 note=40 velocity=80 time=0 actual_time=40
type: note_off, time: 0, actual_time: 136
type=note_on channel=9 note=35 velocity=0 time=96 actual_time=22176
type=note_on channel=9 note=53 velocity=0 time=0 actual_time=22176
type=note_on channel=9 note=40 velocity=80 time=24 actual_time=40
type: note_off, time: 24, actual_time: 136
type=note_on channel=9 note=40 velocity=80 time=0 actual_time=120
type: note_off, time: 0, actual_time: 216
type=note_on channel=9 note=40 velocity=0 time=96 actual_time=22296
type=note_on channel=9 note=53 velocity=0 time=0 actual_time=22296
type=note_on channel=9 note=40 velocity=80 time=24 actual_time=120
type: note_off, time: 24, actual_time: 184
type=note_on channel=9 note=53 velocity=0 time=64 actual_time=22384
type=note_on channel=9 note=35 velocity=80 time=16 actual_time=0
type: note_off, time: 16, actual_time: 32
type=note_on channel=9 note=35 velocity=0 time=32 actual_time=22432
type=note_on channel=9 note=40 velocity=80 time=8 actual_time=120
type: note_off, time: 8, actual_time: 216
type=note_on channel=9 note=40 velocity=80 time=0 actual_time=22440
type: note_off, time: 0, actual_time: 22536
type=note_on channel=9 note=53 velocity=0 time=96 actual_time=22536
type=note_on channel=9 note=40 velocity=0 time=0 actual_time=22536
type=note_on channel=9 note=40 velocity=80 time=24 actual_time=120
type: note_off, time: 24, actual_time: 216
type=note_on channel=9 note=40 velocity=80 time=0 actual_time=0
type: note_off, time: 0, actual_time: 96
type=note_on channel=9 note=53 velocity=0 time=96 actual_time=22656
type=note_on channel=9 note=35 velocity=0 time=0 actual_time=22656
type=note_on channel=9 note=40 velocity=80 time=24 actual_time=0
type: note_off, time: 24, actual_time: 96
type=note_on channel=9 note=40 velocity=80 time=0 actual_time=80
type: note_off, time: 0, actual_time: 176
type=note_on channel=9 note=53 velocity=0 time=96 actual_time=22776
type=note_on channel=9 note=40 velocity=0 time=0 actual_time=22776
type=note_on channel=9 note=50 velocity=80 time=24 actual_time=120
type: note_off, time: 24, actual_time: 184
type=note_on channel=9 note=53 velocity=0 time=64 actual_time=22864
type=note_on channel=9 note=40 velocity=80 time=16 actual_time=80
type: note_off, time: 16, actual_time: 112
type=note_on channel=9 note=35 velocity=0 time=32 actual_time=22912
type=note_on channel=9 note=53 velocity=80 time=8 actual_time=120
type: note_off, time: 8, actual_time: 216
type=note_on channel=9 note=40 velocity=80 time=0 actual_time=0
type: note_off, time: 0, actual_time: 96
type=note_on channel=9 note=40 velocity=0 time=96 actual_time=23016
type=note_on channel=9 note=53 velocity=0 time=0 actual_time=23016
type=note_on channel=9 note=49 velocity=80 time=24 actual_time=23040
type: note_off, time: 24, actual_time: 23136
type=note_on channel=9 note=40 velocity=80 time=0 actual_time=120
type: note_off, time: 0, actual_time: 216
type=note_on channel=9 note=53 velocity=80 time=0 actual_time=40
type: note_off, time: 0, actual_time: 136
type=note_on channel=9 note=53 velocity=0 time=96 actual_time=23136
type=note_on channel=9 note=35 velocity=0 time=0 actual_time=23136
type=note_on channel=9 note=49 velocity=0 time=0 actual_time=23136
type=note_on channel=9 note=40 velocity=80 time=24 actual_time=0
type: note_off, time: 24, actual_time: 96
type=note_on channel=9 note=40 velocity=80 time=0 actual_time=0
type: note_off, time: 0, actual_time: 96
type=note_on channel=9 note=53 velocity=0 time=96 actual_time=23256
type=note_on channel=9 note=40 velocity=0 time=0 actual_time=23256
type=note_on channel=9 note=40 velocity=80 time=24 actual_time=120
type: note_off, time: 24, actual_time: 184
type=note_on channel=9 note=53 velocity=0 time=64 actual_time=23344
type=note_on channel=9 note=40 velocity=80 time=16 actual_time=40
type: note_off, time: 16, actual_time: 72
type=note_on channel=9 note=35 velocity=0 time=32 actual_time=23392
type=note_on channel=9 note=53 velocity=80 time=8 actual_time=23400
type: note_off, time: 8, actual_time: 23496
type=note_on channel=9 note=40 velocity=80 time=0 actual_time=0
type: note_off, time: 0, actual_time: 96
type=note_on channel=9 note=40 velocity=0 time=96 actual_time=23496
type=note_on channel=9 note=53 velocity=0 time=0 actual_time=23496
type=note_on channel=9 note=53 velocity=80 time=24 actual_time=80
type: note_off, time: 24, actual_time: 176
type=note_on channel=9 note=40 velocity=80 time=0 actual_time=80
type: note_off, time: 0, actual_time: 176
type=note_on channel=9 note=35 velocity=0 time=96 actual_time=23616
type=note_on channel=9 note=53 velocity=0 time=0 actual_time=23616
type=note_on channel=9 note=53 velocity=80 time=24 actual_time=120
type: note_off, time: 24, actual_time: 216
type=note_on channel=9 note=40 velocity=80 time=0 actual_time=0
type: note_off, time: 0, actual_time: 96
type=note_on channel=9 note=40 velocity=0 time=96 actual_time=23736
type=note_on channel=9 note=53 velocity=0 time=0 actual_time=23736
type=note_on channel=9 note=40 velocity=80 time=24 actual_time=80
type: note_off, time: 24, actual_time: 144
type=note_on channel=9 note=53 velocity=0 time=64 actual_time=23824
type=note_on channel=9 note=40 velocity=80 time=16 actual_time=80
type: note_off, time: 16, actual_time: 112
type=note_on channel=9 note=35 velocity=0 time=32 actual_time=23872
type=note_on channel=9 note=40 velocity=80 time=8 actual_time=0
type: note_off, time: 8, actual_time: 96
type=note_on channel=9 note=40 velocity=80 time=0 actual_time=80
type: note_off, time: 0, actual_time: 176
type=note_on channel=9 note=53 velocity=0 time=96 actual_time=23976
type=note_on channel=9 note=40 velocity=0 time=0 actual_time=23976
type=note_on channel=9 note=40 velocity=80 time=24 actual_time=0
type: note_off, time: 24, actual_time: 96
type=note_on channel=9 note=40 velocity=80 time=0 actual_time=120
type: note_off, time: 0, actual_time: 216
type=note_on channel=9 note=35 velocity=0 time=96 actual_time=24096
type=note_on channel=9 note=53 velocity=0 time=0 actual_time=24096
type=note_on channel=9 note=40 velocity=80 time=24 actual_time=80
type: note_off, time: 24, actual_time: 176
type=note_on channel=9 note=40 velocity=80 time=0 actual_time=0
type: note_off, time: 0, actual_time: 96
type=note_on channel=9 note=40 velocity=0 time=96 actual_time=24216
type=note_on channel=9 note=53 velocity=0 time=0 actual_time=24216
type=note_on channel=9 note=40 velocity=80 time=24 actual_time=0
type: note_off, time: 24, actual_time: 64
type=note_on channel=9 note=53 velocity=0 time=64 actual_time=24304
type=note_on channel=9 note=40 velocity=80 time=16 actual_time=40
type: note_off, time: 16, actual_time: 72
type=note_on channel=9 note=35 velocity=0 time=32 actual_time=24352
type=note_on channel=9 note=40 velocity=80 time=8 actual_time=120
type: note_off, time: 8, actual_time: 216
type=note_on channel=9 note=40 velocity=80 time=0 actual_time=120
type: note_off, time: 0, actual_time: 216
type=note_on channel=9 note=53 velocity=0 time=96 actual_time=24456
type=note_on channel=9 note=40 velocity=0 time=0 actual_time=24456
type=note_on channel=9 note=40 velocity=80 time=24 actual_time=24480
type: note_off, time: 24, actual_time: 24576
type=note_on channel=9 note=36 velocity=80 time=0 actual_time=24480
type: note_off, time: 0, actual_time: 24576
type=note_on channel=9 note=35 velocity=0 time=96 actual_time=24576
type=note_on channel=9 note=53 velocity=0 time=0 actual_time=24576
type=note_on channel=9 note=40 velocity=80 time=24 actual_time=120
type: note_off, time: 24, actual_time: 216
type=note_on channel=9 note=40 velocity=80 time=0 actual_time=0
type: note_off, time: 0, actual_time: 96
type=note_on channel=9 note=40 velocity=0 time=96 actual_time=24696
type=note_on channel=9 note=53 velocity=0 time=0 actual_time=24696
type=note_on channel=9 note=40 velocity=80 time=24 actual_time=0
type: note_off, time: 24, actual_time: 64
type=note_on channel=9 note=53 velocity=0 time=64 actual_time=24784
type=note_on channel=9 note=40 velocity=80 time=16 actual_time=80
type: note_off, time: 16, actual_time: 112
type=note_on channel=9 note=35 velocity=0 time=32 actual_time=24832
type=note_on channel=9 note=40 velocity=80 time=8 actual_time=120
type: note_off, time: 8, actual_time: 216
type=note_on channel=9 note=40 velocity=80 time=0 actual_time=120
type: note_off, time: 0, actual_time: 216
type=note_on channel=9 note=40 velocity=0 time=96 actual_time=24936
type=note_on channel=9 note=53 velocity=0 time=0 actual_time=24936
type=note_on channel=9 note=40 velocity=80 time=24 actual_time=120
type: note_off, time: 24, actual_time: 216
type=note_on channel=9 note=40 velocity=80 time=0 actual_time=120
type: note_off, time: 0, actual_time: 216
type=note_on channel=9 note=40 velocity=80 time=0 actual_time=40
type: note_off, time: 0, actual_time: 136
type=note_on channel=9 note=49 velocity=0 time=96 actual_time=25056
type=note_on channel=9 note=35 velocity=0 time=0 actual_time=25056
type=note_on channel=9 note=53 velocity=0 time=0 actual_time=25056
type=note_on channel=9 note=53 velocity=80 time=24 actual_time=25080
type: note_off, time: 24, actual_time: 25176
type=note_on channel=9 note=40 velocity=80 time=0 actual_time=25080
type: note_off, time: 0, actual_time: 25176
type=note_on channel=9 note=40 velocity=0 time=96 actual_time=25176
type=note_on channel=9 note=53 velocity=0 time=0 actual_time=25176
type=note_on channel=9 note=53 velocity=80 time=24 actual_time=40
type: note_off, time: 24, actual_time: 104
type=note_on channel=9 note=53 velocity=0 time=64 actual_time=25264
type=note_on channel=9 note=35 velocity=80 time=16 actual_time=25280
type: note_off, time: 16, actual_time: 25312
type=note_on channel=9 note=35 velocity=0 time=32 actual_time=25312
type=note_on channel=9 note=35 velocity=80 time=8 actual_time=80
type: note_off, time: 8, actual_time: 176
type=note_on channel=9 note=58 velocity=80 time=0 actual_time=120
type: note_off, time: 0, actual_time: 216
type=note_on channel=9 note=53 velocity=0 time=96 actual_time=25416
type=note_on channel=9 note=40 velocity=0 time=0 actual_time=25416
type=note_on channel=9 note=35 velocity=80 time=24 actual_time=25440
type: note_off, time: 24, actual_time: 25536
type=note_on channel=9 note=40 velocity=80 time=0 actual_time=120
type: note_off, time: 0, actual_time: 216
type=note_on channel=9 note=53 velocity=0 time=96 actual_time=25536
type=note_on channel=9 note=35 velocity=0 time=0 actual_time=25536
type=note_on channel=9 note=40 velocity=80 time=24 actual_time=40
type: note_off, time: 24, actual_time: 136
type=note_on channel=9 note=40 velocity=80 time=0 actual_time=40
type: note_off, time: 0, actual_time: 136
type=note_on channel=9 note=53 velocity=0 time=96 actual_time=25656
type=note_on channel=9 note=40 velocity=0 time=0 actual_time=25656
type=note_on channel=9 note=40 velocity=80 time=24 actual_time=120
type: note_off, time: 24, actual_time: 184
type=note_on channel=9 note=53 velocity=0 time=64 actual_time=25744
type=note_on channel=9 note=40 velocity=80 time=16 actual_time=25760
type: note_off, time: 16, actual_time: 25792
type=note_on channel=9 note=35 velocity=0 time=32 actual_time=25792
type=note_on channel=9 note=53 velocity=80 time=8 actual_time=25800
type: note_off, time: 8, actual_time: 25896
type=note_on channel=9 note=40 velocity=80 time=0 actual_time=80
type: note_off, time: 0, actual_time: 176
type=note_on channel=9 note=40 velocity=0 time=96 actual_time=25896
type=note_on channel=9 note=53 velocity=0 time=0 actual_time=25896
type=note_on channel=9 note=40 velocity=80 time=24 actual_time=40
type: note_off, time: 24, actual_time: 136
type=note_on channel=9 note=40 velocity=80 time=0 actual_time=80
type: note_off, time: 0, actual_time: 176
type=note_on channel=9 note=53 velocity=0 time=96 actual_time=26016
type=note_on channel=9 note=35 velocity=0 time=0 actual_time=26016
type=note_on channel=9 note=40 velocity=80 time=24 actual_time=120
type: note_off, time: 24, actual_time: 216
type=note_on channel=9 note=53 velocity=80 time=0 actual_time=40
type: note_off, time: 0, actual_time: 136
type=note_on channel=9 note=53 velocity=0 time=96 actual_time=26136
type=note_on channel=9 note=40 velocity=0 time=0 actual_time=26136
type=note_on channel=9 note=53 velocity=80 time=24 actual_time=0
type: note_off, time: 24, actual_time: 64
type=note_on channel=9 note=53 velocity=0 time=64 actual_time=26224
type=note_on channel=9 note=40 velocity=80 time=16 actual_time=80
type: note_off, time: 16, actual_time: 112
type=note_on channel=9 note=35 velocity=0 time=32 actual_time=26272
type=note_on channel=9 note=40 velocity=80 time=8 actual_time=26280
type: note_off, time: 8, actual_time: 26376
type=note_on channel=9 note=53 velocity=80 time=0 actual_time=120
type: note_off, time: 0, actual_time: 216
type=note_on channel=9 note=53 velocity=0 time=96 actual_time=26376
type=note_on channel=9 note=40 velocity=0 time=0 actual_time=26376
type=note_on channel=9 note=40 velocity=80 time=24 actual_time=0
type: note_off, time: 24, actual_time: 32
type=note_on channel=9 note=40 velocity=0 time=32 actual_time=26432
type=note_on channel=9 note=35 velocity=80 time=8 actual_time=26440
type: note_off, time: 8, actual_time: 26472
type=note_on channel=9 note=40 velocity=0 time=32 actual_time=26472
type=note_on channel=9 note=40 velocity=80 time=8 actual_time=120
type: note_off, time: 8, actual_time: 152
type=note_on channel=9 note=40 velocity=0 time=32 actual_time=26512
type=note_on channel=9 note=40 velocity=80 time=8 actual_time=26520
type: note_off, time: 8, actual_time: 26552
type=note_on channel=9 note=41 velocity=0 time=32 actual_time=26552
type=note_on channel=9 note=40 velocity=80 time=8 actual_time=80
type: note_off, time: 8, actual_time: 112
type=note_on channel=9 note=41 velocity=0 time=32 actual_time=26592
type=note_on channel=9 note=40 velocity=80 time=8 actual_time=40
type: note_off, time: 8, actual_time: 72
type=note_on channel=9 note=41 velocity=0 time=32 actual_time=26632
type=note_on channel=9 note=47 velocity=80 time=8 actual_time=26640
type: note_off, time: 8, actual_time: 26672
type=note_on channel=9 note=47 velocity=0 time=32 actual_time=26672
type=note_on channel=9 note=40 velocity=80 time=8 actual_time=120
type: note_off, time: 8, actual_time: 152
type=note_on channel=9 note=47 velocity=0 time=32 actual_time=26712
type=note_on channel=9 note=40 velocity=80 time=8 actual_time=40
type: note_off, time: 8, actual_time: 72
type=note_on channel=9 note=45 velocity=0 time=32 actual_time=26752
type=note_on channel=9 note=40 velocity=80 time=8 actual_time=0
type: note_off, time: 8, actual_time: 32
type=note_on channel=9 note=47 velocity=0 time=32 actual_time=26792
type=note_on channel=9 note=47 velocity=80 time=8 actual_time=26800
type: note_off, time: 8, actual_time: 26832
type=note_on channel=9 note=47 velocity=0 time=32 actual_time=26832
type=note_on channel=9 note=40 velocity=80 time=8 actual_time=26840
type: note_off, time: 8, actual_time: 26872
type=note_on channel=9 note=45 velocity=0 time=32 actual_time=26872
type=note_on channel=9 note=40 velocity=80 time=8 actual_time=40
type: note_off, time: 8, actual_time: 136
type=note_on channel=9 note=40 velocity=80 time=0 actual_time=80
type: note_off, time: 0, actual_time: 176
type=note_on channel=9 note=40 velocity=80 time=0 actual_time=26880
type: note_off, time: 0, actual_time: 26976
type=note_on channel=9 note=40 velocity=80 time=0 actual_time=26880
type: note_off, time: 0, actual_time: 26976
type=note_on channel=9 note=53 velocity=0 time=96 actual_time=26976
type=note_on channel=9 note=59 velocity=0 time=0 actual_time=26976
type=note_on channel=9 note=35 velocity=0 time=0 actual_time=26976
type=note_on channel=9 note=49 velocity=0 time=0 actual_time=26976
type=note_on channel=9 note=40 velocity=80 time=24 actual_time=80
type: note_off, time: 24, actual_time: 176
type=note_on channel=9 note=40 velocity=80 time=0 actual_time=40
type: note_off, time: 0, actual_time: 136
type=note_on channel=9 note=40 velocity=80 time=0 actual_time=120
type: note_off, time: 0, actual_time: 216
type=note_on channel=9 note=53 velocity=0 time=96 actual_time=27096
type=note_on channel=9 note=40 velocity=0 time=0 actual_time=27096
type=note_on channel=9 note=59 velocity=0 time=0 actual_time=27096
type=note_on channel=9 note=40 velocity=80 time=24 actual_time=80
type: note_off, time: 24, actual_time: 144
type=note_on channel=9 note=53 velocity=80 time=0 actual_time=120
type: note_off, time: 0, actual_time: 184
type=note_on channel=9 note=53 velocity=0 time=64 actual_time=27184
type=note_on channel=9 note=59 velocity=0 time=0 actual_time=27184
type=note_on channel=9 note=40 velocity=80 time=16 actual_time=120
type: note_off, time: 16, actual_time: 152
type=note_on channel=9 note=35 velocity=0 time=32 actual_time=27232
type=note_on channel=9 note=40 velocity=80 time=8 actual_time=27240
type: note_off, time: 8, actual_time: 27336
type=note_on channel=9 note=40 velocity=80 time=0 actual_time=27240
type: note_off, time: 0, actual_time: 27336
type=note_on channel=9 note=36 velocity=80 time=0 actual_time=0
type: note_off, time: 0, actual_time: 96
type=note_on channel=9 note=40 velocity=0 time=96 actual_time=27336
type=note_on channel=9 note=53 velocity=0 time=0 actual_time=27336
type=note_on channel=9 note=59 velocity=0 time=0 actual_time=27336
type=note_on channel=9 note=40 velocity=80 time=24 actual_time=0
type: note_off, time: 24, actual_time: 96
type=note_on channel=9 note=40 velocity=80 time=0 actual_time=27360
type: note_off, time: 0, actual_time: 27456
type=note_on channel=9 note=53 velocity=80 time=0 actual_time=120
type: note_off, time: 0, actual_time: 216
type=note_on channel=9 note=53 velocity=0 time=96 actual_time=27456
type=note_on channel=9 note=59 velocity=0 time=0 actual_time=27456
type=note_on channel=9 note=35 velocity=0 time=0 actual_time=27456
type=note_on channel=9 note=40 velocity=80 time=24 actual_time=120
type: note_off, time: 24, actual_time: 216
type=note_on channel=9 note=40 velocity=80 time=0 actual_time=40
type: note_off, time: 0, actual_time: 136
type=note_on channel=9 note=40 velocity=80 time=0 actual_time=0
type: note_off, time: 0, actual_time: 96
type=note_on channel=9 note=59 velocity=0 time=96 actual_time=27576
type=note_on channel=9 note=40 velocity=0 time=0 actual_time=27576
type=note_on channel=9 note=53 velocity=0 time=0 actual_time=27576
type=note_on channel=9 note=40 velocity=80 time=24 actual_time=80
type: note_off, time: 24, actual_time: 144
type=note_on channel=9 note=40 velocity=80 time=0 actual_time=120
type: note_off, time: 0, actual_time: 184
type=note_on channel=9 note=59 velocity=0 time=64 actual_time=27664
type=note_on channel=9 note=53 velocity=0 time=0 actual_time=27664
type=note_on channel=9 note=40 velocity=80 time=16 actual_time=80
type: note_off, time: 16, actual_time: 112
type=note_on channel=9 note=35 velocity=0 time=32 actual_time=27712
type=note_on channel=9 note=40 velocity=80 time=8 actual_time=80
type: note_off, time: 8, actual_time: 176
type=note_on channel=9 note=40 velocity=80 time=0 actual_time=27720
type: note_off, time: 0, actual_time: 27816
type=note_on channel=9 note=59 velocity=80 time=0 actual_time=80
type: note_off, time: 0, actual_time: 176
type=note_on channel=9 note=59 velocity=0 time=96 actual_time=27816
type=note_on channel=9 note=53 velocity=0 time=0 actual_time=27816
type=note_on channel=9 note=40 velocity=0 time=0 actual_time=27816
type=note_on channel=9 note=53 velocity=80 time=24 actual_time=0
type: note_off, time: 24, actual_time: 96
type=note_on channel=9 note=49 velocity=80 time=0 actual_time=27840
type: note_off, time: 0, actual_time: 27936
type=note_on channel=9 note=35 velocity=80 time=0 actual_time=40
type: note_off, time: 0, actual_time: 136
type=note_on channel=9 note=54 velocity=80 time=0 actual_time=120
type: note_off, time: 0, actual_time: 216
type=note_on channel=9 note=59 velocity=0 time=96 actual_time=27936
type=note_on channel=9 note=53 velocity=0 time=0 actual_time=27936
type=note_on channel=9 note=49 velocity=0 time=0 actual_time=27936
type=note_on channel=9 note=35 velocity=0 time=0 actual_time=27936
type=note_on channel=9 note=57 velocity=80 time=24 actual_time=40
type: note_off, time: 24, actual_time: 136
type=note_on channel=9 note=40 velocity=80 time=0 actual_time=120
type: note_off, time: 0, actual_time: 216
type=note_on channel=9 note=40 velocity=80 time=0 actual_time=80
type: note_off, time: 0, actual_time: 176
type=note_on channel=9 note=59 velocity=0 time=96 actual_time=28056
type=note_on channel=9 note=40 velocity=0 time=0 actual_time=28056
type=note_on channel=9 note=53 velocity=0 time=0 actual_time=28056
type=note_on channel=9 note=56 velocity=80 time=24 actual_time=80
type: note_off, time: 24, actual_time: 144
type=note_on channel=9 note=40 velocity=80 time=0 actual_time=0
type: note_off, time: 0, actual_time: 64
type=note_on channel=9 note=59 velocity=0 time=64 actual_time=28144
type=note_on channel=9 note=53 velocity=0 time=0 actual_time=28144
type=note_on channel=9 note=40 velocity=80 time=16 actual_time=28160
type: note_off, time: 16, actual_time: 28192
type=note_on channel=9 note=35 velocity=0 time=32 actual_time=28192
type=note_on channel=9 note=40 velocity=80 time=8 actual_time=28200
type: note_off, time: 8, actual_time: 28296
type=note_on channel=9 note=40 velocity=80 time=0 actual_time=28200
type: note_off, time: 0, actual_time: 28296
type=note_on channel=9 note=57 velocity=80 time=0 actual_time=120
type: note_off, time: 0, actual_time: 216
type=note_on channel=9 note=59 velocity=0 time=96 actual_time=28296
type=note_on channel=9 note=53 velocity=0 time=0 actual_time=28296
type=note_on channel=9 note=40 velocity=0 time=0 actual_time=28296
type=note_on channel=9 note=40 velocity=80 time=24 actual_time=0
type: note_off, time: 24, actual_time: 64
type=note_on channel=9 note=40 velocity=80 time=0 actual_time=80
type: note_off, time: 0, actual_time: 144
type=note_on channel=9 note=40 velocity=80 time=0 actual_time=0
type: note_off, time: 0, actual_time: 64
type=note_on channel=9 note=59 velocity=0 time=64 actual_time=28384
type=note_on channel=9 note=53 velocity=0 time=0 actual_time=28384
type=note_on channel=9 note=35 velocity=0 time=0 actual_time=28384
type=note_on channel=9 note=40 velocity=80 time=16 actual_time=40
type: note_off, time: 16, actual_time: 72
type=note_on channel=9 note=35 velocity=0 time=32 actual_time=28432
type=note_on channel=9 note=47 velocity=80 time=8 actual_time=0
type: note_off, time: 8, actual_time: 96
type=note_on channel=9 note=40 velocity=80 time=0 actual_time=120
type: note_off, time: 0, actual_time: 216
type=note_on channel=9 note=40 velocity=80 time=0 actual_time=120
type: note_off, time: 0, actual_time: 216
type=note_on channel=9 note=40 velocity=80 time=0 actual_time=0
type: note_off, time: 0, actual_time: 96
type=note_on channel=9 note=59 velocity=0 time=96 actual_time=28536
type=note_on channel=9 note=49 velocity=0 time=0 actual_time=28536
type=note_on channel=9 note=40 velocity=0 time=0 actual_time=28536
type=note_on channel=9 note=53 velocity=0 time=0 actual_time=28536
type=note_on channel=9 note=40 velocity=80 time=24 actual_time=120
type: note_off, time: 24, actual_time: 184
type=note_on channel=9 note=53 velocity=80 time=0 actual_time=120
type: note_off, time: 0, actual_time: 184
type=note_on channel=9 note=59 velocity=80 time=0 actual_time=0
type: note_off, time: 0, actual_time: 64
type=note_on channel=9 note=59 velocity=0 time=64 actual_time=28624
type=note_on channel=9 note=53 velocity=0 time=0 actual_time=28624
type=note_on channel=9 note=35 velocity=0 time=0 actual_time=28624
type=note_on channel=9 note=40 velocity=80 time=16 actual_time=80
type: note_off, time: 16, actual_time: 112
type=note_on channel=9 note=35 velocity=0 time=32 actual_time=28672
type=note_on channel=9 note=40 velocity=80 time=8 actual_time=0
type: note_off, time: 8, actual_time: 96
type=note_on channel=9 note=40 velocity=80 time=0 actual_time=28680
type: note_off, time: 0, actual_time: 28776
type=note_on channel=9 note=40 velocity=80 time=0 actual_time=40
type: note_off, time: 0, actual_time: 136
type=note_on channel=9 note=40 velocity=80 time=0 actual_time=120
type: note_off, time: 0, actual_time: 216
type=note_on channel=9 note=59 velocity=0 time=96 actual_time=28776
type=note_on channel=9 note=49 velocity=0 time=0 actual_time=28776
type=note_on channel=9 note=40 velocity=0 time=0 actual_time=28776
type=note_on channel=9 note=53 velocity=0 time=0 actual_time=28776
type=note_on channel=9 note=40 velocity=80 time=24 actual_time=0
type: note_off, time: 24, actual_time: 96
type=note_on channel=9 note=40 velocity=80 time=0 actual_time=40
type: note_off, time: 0, actual_time: 136
type=note_on channel=9 note=40 velocity=80 time=0 actual_time=40
type: note_off, time: 0, actual_time: 136
type=note_on channel=9 note=53 velocity=80 time=0 actual_time=120
type: note_off, time: 0, actual_time: 216
type=note_on channel=9 note=53 velocity=0 time=96 actual_time=28896
type=note_on channel=9 note=59 velocity=0 time=0 actual_time=28896
type=note_on channel=9 note=35 velocity=0 time=0 actual_time=28896
type=note_on channel=9 note=49 velocity=0 time=0 actual_time=28896
type=note_on channel=9 note=40 velocity=80 time=24 actual_time=40
type: note_off, time: 24, actual_time: 136
type=note_on channel=9 note=36 velocity=80 time=0 actual_time=40
type: note_off, time: 0, actual_time: 136
type=note_on channel=9 note=53 velocity=80 time=0 actual_time=40
type: note_off, time: 0, actual_time: 136
type=note_on channel=9 note=53 velocity=0 time=96 actual_time=29016
type=note_on channel=9 note=40 velocity=0 time=0 actual_time=29016
type=note_on channel=9 note=59 velocity=0 time=0 actual_time=29016
type=note_on channel=9 note=40 velocity=80 time=24 actual_time=29040
type: note_off, time: 24, actual_time: 29104
type=note_on channel=9 note=40 velocity=80 time=0 actual_time=80
type: note_off, time: 0, actual_time: 144
type=note_on channel=9 note=53 velocity=0 time=64 actual_time=29104
type=note_on channel=9 note=59 velocity=0 time=0 actual_time=29104
type=note_on channel=9 note=35 velocity=80 time=16 actual_time=80
type: note_off, time: 16, actual_time: 112
type=note_on channel=9 note=35 velocity=0 time=32 actual_time=29152
type=note_on channel=9 note=59 velocity=80 time=8 actual_time=0
type: note_off, time: 8, actual_time: 96
type=note_on channel=9 note=54 velocity=80 time=0 actual_time=120
type: note_off, time: 0, actual_time: 216
type=note_on channel=9 note=40 velocity=80 time=0 actual_time=120
type: note_off, time: 0, actual_time: 216
type=note_on channel=9 note=40 velocity=0 time=96 actual_time=29256
type=note_on channel=9 note=53 velocity=0 time=0 actual_time=29256
type=note_on channel=9 note=59 velocity=0 time=0 actual_time=29256
type=note_on channel=9 note=40 velocity=80 time=24 actual_time=120
type: note_off, time: 24, actual_time: 216
type=note_on channel=9 note=40 velocity=80 time=0 actual_time=0
type: note_off, time: 0, actual_time: 96
type=note_on channel=9 note=40 velocity=80 time=0 actual_time=40
type: note_off, time: 0, actual_time: 136
type=note_on channel=9 note=53 velocity=0 time=96 actual_time=29376
type=note_on channel=9 note=59 velocity=0 time=0 actual_time=29376
type=note_on channel=9 note=35 velocity=0 time=0 actual_time=29376
type=note_on channel=9 note=40 velocity=80 time=24 actual_time=120
type: note_off, time: 24, actual_time: 216
type=note_on channel=9 note=40 velocity=80 time=0 actual_time=40
type: note_off, time: 0, actual_time: 136
type=note_on channel=9 note=59 velocity=80 time=0 actual_time=29400
type: note_off, time: 0, actual_time: 29496
type=note_on channel=9 note=59 velocity=0 time=96 actual_time=29496
type=note_on channel=9 note=40 velocity=0 time=0 actual_time=29496
type=note_on channel=9 note=53 velocity=0 time=0 actual_time=29496
type=note_on channel=9 note=40 velocity=80 time=24 actual_time=40
type: note_off, time: 24, actual_time: 104
type=note_on channel=9 note=40 velocity=80 time=0 actual_time=29520
type: note_off, time: 0, actual_time: 29584
type=note_on channel=9 note=59 velocity=0 time=64 actual_time=29584
type=note_on channel=9 note=53 velocity=0 time=0 actual_time=29584
type=note_on channel=9 note=40 velocity=80 time=16 actual_time=40
type: note_off, time: 16, actual_time: 72
type=note_on channel=9 note=35 velocity=0 time=32 actual_time=29632
type=note_on channel=9 note=40 velocity=80 time=8 actual_time=29640
type: note_off, time: 8, actual_time: 29736
type=note_on channel=9 note=40 velocity=80 time=0 actual_time=80
type: note_off, time: 0, actual_time: 176
type=note_on channel=9 note=40 velocity=80 time=0 actual_time=120
type: note_off, time: 0, actual_time: 216
type=note_on channel=9 note=59 velocity=0 time=96 actual_time=29736
type=note_on channel=9 note=53 velocity=0 time=0 actual_time=29736
type=note_on channel=9 note=40 velocity=0 time=0 actual_time=29736
type=note_on channel=9 note=53 velocity=80 time=24 actual_time=80
type: note_off, time: 24, actual_time: 176
type=note_on channel=9 note=49 velocity=80 time=0 actual_time=120
type: note_off, time: 0, actual_time: 216
type=note_on channel=9 note=40 velocity=80 time=0 actual_time=80
type: note_off, time: 0, actual_time: 176
type=note_on channel=9 note=59 velocity=80 time=0 actual_time=120
type: note_off, time: 0, actual_time: 216
type=note_on channel=9 note=59 velocity=0 time=96 actual_time=29856
type=note_on channel=9 note=53 velocity=0 time=0 actual_time=29856
type=note_on channel=9 note=49 velocity=0 time=0 actual_time=29856
type=note_on channel=9 note=35 velocity=0 time=0 actual_time=29856
type=note_on channel=9 note=40 velocity=80 time=24 actual_time=0
type: note_off, time: 24, actual_time: 96
type=note_on channel=9 note=40 velocity=80 time=0 actual_time=0
type: note_off, time: 0, actual_time: 96
type=note_on channel=9 note=40 velocity=80 time=0 actual_time=0
type: note_off, time: 0, actual_time: 96
type=note_on channel=9 note=59 velocity=0 time=96 actual_time=29976
type=note_on channel=9 note=40 velocity=0 time=0 actual_time=29976
type=note_on channel=9 note=53 velocity=0 time=0 actual_time=29976
type=note_on channel=9 note=53 velocity=80 time=24 actual_time=40
type: note_off, time: 24, actual_time: 104
type=note_on channel=9 note=59 velocity=80 time=0 actual_time=40
type: note_off, time: 0, actual_time: 104
type=note_on channel=9 note=59 velocity=0 time=64 actual_time=30064
type=note_on channel=9 note=53 velocity=0 time=0 actual_time=30064
type=note_on channel=9 note=40 velocity=80 time=16 actual_time=40
type: note_off, time: 16, actual_time: 72
type=note_on channel=9 note=35 velocity=0 time=32 actual_time=30112
type=note_on channel=9 note=44 velocity=80 time=8 actual_time=120
type: note_off, time: 8, actual_time: 216
type=note_on channel=9 note=40 velocity=80 time=0 actual_time=40
type: note_off, time: 0, actual_time: 136
type=note_on channel=9 note=40 velocity=80 time=0 actual_time=0
type: note_off, time: 0, actual_time: 96
type=note_on channel=9 note=59 velocity=0 time=96 actual_time=30216
type=note_on channel=9 note=53 velocity=0 time=0 actual_time=30216
type=note_on channel=9 note=40 velocity=0 time=0 actual_time=30216
type=note_on channel=9 note=40 velocity=80 time=24 actual_time=30240
type: note_off, time: 24, actual_time: 30304
type=note_on channel=9 note=53 velocity=80 time=0 actual_time=80
type: note_off, time: 0, actual_time: 144
type=note_on channel=9 note=40 velocity=80 time=0 actual_time=80
type: note_off, time: 0, actual_time: 144
type=note_on channel=9 note=59 velocity=0 time=64 actual_time=30304
type=note_on channel=9 note=53 velocity=0 time=0 actual_time=30304
type=note_on channel=9 note=35 velocity=0 time=0 actual_time=30304
type=note_on channel=9 note=40 velocity=80 time=16 actual_time=80
type: note_off, time: 16, actual_time: 112
type=note_on channel=9 note=35 velocity=0 time=32 actual_time=30352
type=note_on channel=9 note=40 velocity=80 time=8 actual_time=80
type: note_off, time: 8, actual_time: 176
type=note_on channel=9 note=40 velocity=80 time=0 actual_time=0
type: note_off, time: 0, actual_time: 96
type=note_on channel=9 note=53 velocity=80 time=0 actual_time=80
type: note_off, time: 0, actual_time: 176
type=note_on channel=9 note=40 velocity=80 time=0 actual_time=120
type: note_off, time: 0, actual_time: 216
type=note_on channel=9 note=59 velocity=0 time=96 actual_time=30456
type=note_on channel=9 note=49 velocity=0 time=0 actual_time=30456
type=note_on channel=9 note=40 velocity=0 time=0 actual_time=30456
type=note_on channel=9 note=53 velocity=0 time=0 actual_time=30456
type=note_on channel=9 note=40 velocity=80 time=24 actual_time=0
type: note_off, time: 24, actual_time: 64
type=note_on channel=9 note=40 velocity=80 time=0 actual_time=40
type: note_off, time: 0, actual_time: 104
type=note_on channel=9 note=40 velocity=80 time=0 actual_time=40
type: note_off, time: 0, actual_time: 104
type=note_on channel=9 note=59 velocity=0 time=64 actual_time=30544
type=note_on channel=9 note=53 velocity=0 time=0 actual_time=30544
type=note_on channel=9 note=35 velocity=0 time=0 actual_time=30544
type=note_on channel=9 note=40 velocity=80 time=16 actual_time=120
type: note_off, time: 16, actual_time: 152
type=note_on channel=9 note=35 velocity=0 time=32 actual_time=30592
type=note_on channel=9 note=40 velocity=80 time=8 actual_time=40
type: note_off, time: 8, actual_time: 136
type=note_on channel=9 note=40 velocity=80 time=0 actual_time=40
type: note_off, time: 0, actual_time: 136
type=note_on channel=9 note=40 velocity=80 time=0 actual_time=0
type: note_off, time: 0, actual_time: 96
type=note_on channel=9 note=59 velocity=80 time=0 actual_time=40
type: note_off, time: 0, actual_time: 136
type=note_on channel=9 note=59 velocity=0 time=96 actual_time=30696
type=note_on channel=9 note=49 velocity=0 time=0 actual_time=30696
type=note_on channel=9 note=40 velocity=0 time=0 actual_time=30696
type=note_on channel=9 note=53 velocity=0 time=0 actual_time=30696
type=note_on channel=9 note=40 velocity=80 time=24 actual_time=80
type: note_off, time: 24, actual_time: 176
type=note_on channel=9 note=40 velocity=80 time=0 actual_time=120
type: note_off, time: 0, actual_time: 216
type=note_on channel=9 note=40 velocity=80 time=0 actual_time=120
type: note_off, time: 0, actual_time: 216
type=note_on channel=9 note=50 velocity=80 time=0 actual_time=120
type: note_off, time: 0, actual_time: 216
type=note_on channel=9 note=53 velocity=0 time=96 actual_time=30816
type=note_on channel=9 note=59 velocity=0 time=0 actual_time=30816
type=note_on channel=9 note=35 velocity=0 time=0 actual_time=30816
type=note_on channel=9 note=49 velocity=0 time=0 actual_time=30816
type=note_on channel=9 note=40 velocity=80 time=24 actual_time=40
type: note_off, time: 24, actual_time: 136
type=note_on channel=9 note=37 velocity=80 time=0 actual_time=30840
type: note_off, time: 0, actual_time: 30936
type=note_on channel=9 note=57 velocity=80 time=0 actual_time=40
type: note_off, time: 0, actual_time: 136
type=note_on channel=9 note=53 velocity=0 time=96 actual_time=30936
type=note_on channel=9 note=40 velocity=0 time=0 actual_time=30936
type=note_on channel=9 note=59 velocity=0 time=0 actual_time=30936
type=note_on channel=9 note=40 velocity=80 time=24 actual_time=40
type: note_off, time: 24, actual_time: 104
type=note_on channel=9 note=40 velocity=80 time=0 actual_time=120
type: note_off, time: 0, actual_time: 184
type=note_on channel=9 note=53 velocity=0 time=64 actual_time=31024
type=note_on channel=9 note=59 velocity=0 time=0 actual_time=31024
type=note_on channel=9 note=40 velocity=80 time=16 actual_time=80
type: note_off, time: 16, actual_time: 112
type=note_on channel=9 note=35 velocity=0 time=32 actual_time=31072
type=note_on channel=9 note=40 velocity=80 time=8 actual_time=31080
type: note_off, time: 8, actual_time: 31176
type=note_on channel=9 note=53 velocity=80 time=0 actual_time=120
type: note_off, time: 0, actual_time: 216
type=note_on channel=9 note=40 velocity=80 time=0 actual_time=0
type: note_off, time: 0, actual_time: 96
type=note_on channel=9 note=40 velocity=0 time=96 actual_time=31176
type=note_on channel=9 note=53 velocity=0 time=0 actual_time=31176
type=note_on channel=9 note=59 velocity=0 time=0 actual_time=31176
type=note_on channel=9 note=40 velocity=80 time=24 actual_time=0
type: note_off, time: 24, actual_time: 96
type=note_on channel=9 note=40 velocity=80 time=0 actual_time=80
type: note_off, time: 0, actual_time: 176
type=note_on channel=9 note=53 velocity=80 time=0 actual_time=0
type: note_off, time: 0, actual_time: 96
type=note_on channel=9 note=53 velocity=0 time=96 actual_time=31296
type=note_on channel=9 note=59 velocity=0 time=0 actual_time=31296
type=note_on channel=9 note=35 velocity=0 time=0 actual_time=31296
type=note_on channel=9 note=40 velocity=80 time=24 actual_time=40
type: note_off, time: 24, actual_time: 136
type=note_on channel=9 note=40 velocity=80 time=0 actual_time=80
type: note_off, time: 0, actual_time: 176
type=note_on channel=9 note=40 velocity=80 time=0 actual_time=80
type: note_off, time: 0, actual_time: 176
type=note_on channel=9 note=59 velocity=0 time=96 actual_time=31416
type=note_on channel=9 note=40 velocity=0 time=0 actual_time=31416
type=note_on channel=9 note=53 velocity=0 time=0 actual_time=31416
type=note_on channel=9 note=40 velocity=80 time=24 actual_time=0
type: note_off, time: 24, actual_time: 64
type=note_on channel=9 note=40 velocity=80 time=0 actual_time=31440
type: note_off, time: 0, actual_time: 31504
type=note_on channel=9 note=59 velocity=0 time=64 actual_time=31504
type=note_on channel=9 note=53 velocity=0 time=0 actual_time=31504
type=note_on channel=9 note=35 velocity=80 time=16 actual_time=40
type: note_off, time: 16, actual_time: 72
type=note_on channel=9 note=35 velocity=0 time=32 actual_time=31552
type=note_on channel=9 note=40 velocity=80 time=8 actual_time=80
type: note_off, time: 8, actual_time: 176
type=note_on channel=9 note=40 velocity=80 time=0 actual_time=40
type: note_off, time: 0, actual_time: 136
type=note_on channel=9 note=40 velocity=80 time=0 actual_time=40
type: note_off, time: 0, actual_time: 136
type=note_on channel=9 note=59 velocity=0 time=96 actual_time=31656
type=note_on channel=9 note=53 velocity=0 time=0 actual_time=31656
type=note_on channel=9 note=40 velocity=0 time=0 actual_time=31656
type=note_on channel=9 note=40 velocity=80 time=24 actual_time=0
type: note_off, time: 24, actual_time: 96
type=note_on channel=9 note=40 velocity=80 time=0 actual_time=0
type: note_off, time: 0, actual_time: 96
type=note_on channel=9 note=40 velocity=80 time=0 actual_time=40
type: note_off, time: 0, actual_time: 136
type=note_on channel=9 note=40 velocity=80 time=0 actual_time=80
type: note_off, time: 0, actual_time: 176
type=note_on channel=9 note=59 velocity=0 time=96 actual_time=31776
type=note_on channel=9 note=53 velocity=0 time=0 actual_time=31776
type=note_on channel=9 note=49 velocity=0 time=0 actual_time=31776
type=note_on channel=9 note=35 velocity=0 time=0 actual_time=31776
type=note_on channel=9 note=40 velocity=80 time=24 actual_time=40
type: note_off, time: 24, actual_time: 136
type=note_on channel=9 note=40 velocity=80 time=0 actual_time=80
type: note_off, time: 0, actual_time: 176
type=note_on channel=9 note=40 velocity=80 time=0 actual_time=40
type: note_off, time: 0, actual_time: 136
type=note_on channel=9 note=59 velocity=0 time=96 actual_time=31896
type=note_on channel=9 note=40 velocity=0 time=0 actual_time=31896
type=note_on channel=9 note=53 velocity=0 time=0 actual_time=31896
type=note_on channel=9 note=53 velocity=80 time=24 actual_time=40
type: note_off, time: 24, actual_time: 104
type=note_on channel=9 note=40 velocity=80 time=0 actual_time=31920
type: note_off, time: 0, actual_time: 31984
type=note_on channel=9 note=59 velocity=0 time=64 actual_time=31984
type=note_on channel=9 note=53 velocity=0 time=0 actual_time=31984
type=note_on channel=9 note=40 velocity=80 time=16 actual_time=40
type: note_off, time: 16, actual_time: 72
type=note_on channel=9 note=35 velocity=0 time=32 actual_time=32032
type=note_on channel=9 note=40 velocity=80 time=8 actual_time=80
type: note_off, time: 8, actual_time: 176
type=note_on channel=9 note=40 velocity=80 time=0 actual_time=0
type: note_off, time: 0, actual_time: 96
type=note_on channel=9 note=59 velocity=80 time=0 actual_time=32040
type: note_off, time: 0, actual_time: 32136
type=note_on channel=9 note=59 velocity=0 time=96 actual_time=32136
type=note_on channel=9 note=53 velocity=0 time=0 actual_time=32136
type=note_on channel=9 note=40 velocity=0 time=0 actual_time=32136
type=note_on channel=9 note=35 velocity=80 time=24 actual_time=40
type: note_off, time: 24, actual_time: 104
type=note_on channel=9 note=40 velocity=80 time=0 actual_time=80
type: note_off, time: 0, actual_time: 144
type=note_on channel=9 note=59 velocity=80 time=0 actual_time=80
type: note_off, time: 0, actual_time: 144
type=note_on channel=9 note=59 velocity=0 time=64 actual_time=32224
type=note_on channel=9 note=53 velocity=0 time=0 actual_time=32224
type=note_on channel=9 note=35 velocity=0 time=0 actual_time=32224
type=note_on channel=9 note=35 velocity=80 time=16 actual_time=0
type: note_off, time: 16, actual_time: 32
type=note_on channel=9 note=35 velocity=0 time=32 actual_time=32272
type=note_on channel=9 note=40 velocity=80 time=8 actual_time=32280
type: note_off, time: 8, actual_time: 32376
type=note_on channel=9 note=40 velocity=80 time=0 actual_time=40
type: note_off, time: 0, actual_time: 136
type=note_on channel=9 note=53 velocity=80 time=0 actual_time=0
type: note_off, time: 0, actual_time: 96
type=note_on channel=9 note=40 velocity=80 time=0 actual_time=32280
type: note_off, time: 0, actual_time: 32376
type=note_on channel=9 note=59 velocity=0 time=96 actual_time=32376
type=note_on channel=9 note=49 velocity=0 time=0 actual_time=32376
type=note_on channel=9 note=40 velocity=0 time=0 actual_time=32376
type=note_on channel=9 note=53 velocity=0 time=0 actual_time=32376
type=note_on channel=9 note=40 velocity=80 time=24 actual_time=120
type: note_off, time: 24, actual_time: 184
type=note_on channel=9 note=53 velocity=80 time=0 actual_time=0
type: note_off, time: 0, actual_time: 64
type=note_on channel=9 note=57 velocity=80 time=0 actual_time=80
type: note_off, time: 0, actual_time: 144
type=note_on channel=9 note=59 velocity=0 time=64 actual_time=32464
type=note_on channel=9 note=53 velocity=0 time=0 actual_time=32464
type=note_on channel=9 note=35 velocity=0 time=0 actual_time=32464
type=note_on channel=9 note=35 velocity=80 time=16 actual_time=0
type: note_off, time: 16, actual_time: 32
type=note_on channel=9 note=35 velocity=0 time=32 actual_time=32512
type=note_on channel=9 note=40 velocity=80 time=8 actual_time=80
type: note_off, time: 8, actual_time: 176
type=note_on channel=9 note=40 velocity=80 time=0 actual_time=0
type: note_off, time: 0, actual_time: 96
type=note_on channel=9 note=40 velocity=80 time=0 actual_time=40
type: note_off, time: 0, actual_time: 136
type=note_on channel=9 note=59 velocity=80 time=0 actual_time=40
type: note_off, time: 0, actual_time: 136
type=note_on channel=9 note=59 velocity=0 time=96 actual_time=32616
type=note_on channel=9 note=49 velocity=0 time=0 actual_time=32616
type=note_on channel=9 note=40 velocity=0 time=0 actual_time=32616
type=note_on channel=9 note=53 velocity=0 time=0 actual_time=32616
type=note_on channel=9 note=53 velocity=80 time=24 actual_time=0
type: note_off, time: 24, actual_time: 96
type=note_on channel=9 note=40 velocity=80 time=0 actual_time=40
type: note_off, time: 0, actual_time: 136
type=note_on channel=9 note=40 velocity=80 time=0 actual_time=32640
type: note_off, time: 0, actual_time: 32736
type=note_on channel=9 note=40 velocity=80 time=0 actual_time=40
type: note_off, time: 0, actual_time: 136
type=note_on channel=9 note=59 velocity=0 time=96 actual_time=32736
type=note_on channel=9 note=53 velocity=0 time=0 actual_time=32736
type=note_on channel=9 note=49 velocity=0 time=0 actual_time=32736
type=note_on channel=9 note=35 velocity=0 time=0 actual_time=32736
type=note_on channel=9 note=40 velocity=80 time=24 actual_time=40
type: note_off, time: 24, actual_time: 136
type=note_on channel=9 note=40 velocity=80 time=0 actual_time=120
type: note_off, time: 0, actual_time: 216
type=note_on channel=9 note=40 velocity=80 time=0 actual_time=80
type: note_off, time: 0, actual_time: 176
type=note_on channel=9 note=59 velocity=0 time=96 actual_time=32856
type=note_on channel=9 note=40 velocity=0 time=0 actual_time=32856
type=note_on channel=9 note=53 velocity=0 time=0 actual_time=32856
type=note_on channel=9 note=40 velocity=80 time=24 actual_time=0
type: note_off, time: 24, actual_time: 64
type=note_on channel=9 note=40 velocity=80 time=0 actual_time=40
type: note_off, time: 0, actual_time: 104
type=note_on channel=9 note=59 velocity=0 time=64 actual_time=32944
type=note_on channel=9 note=53 velocity=0 time=0 actual_time=32944
type=note_on channel=9 note=40 velocity=80 time=16 actual_time=0
type: note_off, time: 16, actual_time: 32
type=note_on channel=9 note=35 velocity=0 time=32 actual_time=32992
type=note_on channel=9 note=40 velocity=80 time=8 actual_time=33000
type: note_off, time: 8, actual_time: 33096
type=note_on channel=9 note=40 velocity=80 time=0 actual_time=40
type: note_off, time: 0, actual_time: 136
type=note_on channel=9 note=59 velocity=80 time=0 actual_time=33000
type: note_off, time: 0, actual_time: 33096
type=note_on channel=9 note=59 velocity=0 time=96 actual_time=33096
type=note_on channel=9 note=53 velocity=0 time=0 actual_time=33096
type=note_on channel=9 note=40 velocity=0 time=0 actual_time=33096
type=note_on channel=9 note=40 velocity=80 time=24 actual_time=40
type: note_off, time: 24, actual_time: 136
type=note_on channel=9 note=40 velocity=80 time=0 actual_time=33120
type: note_off, time: 0, actual_time: 33216
type=note_on channel=9 note=35 velocity=80 time=0 actual_time=40
type: note_off, time: 0, actual_time: 136
type=note_on channel=9 note=35 velocity=0 time=96 actual_time=33216
type=note_on channel=9 note=59 velocity=0 time=0 actual_time=33216
type=note_on channel=9 note=53 velocity=0 time=0 actual_time=33216
type=note_on channel=9 note=40 velocity=80 time=24 actual_time=33240
type: note_off, time: 24, actual_time: 33336
type=note_on channel=9 note=40 velocity=80 time=0 actual_time=33240
type: note_off, time: 0, actual_time: 33336
type=note_on channel=9 note=53 velocity=80 time=0 actual_time=0
type: note_off, time: 0, actual_time: 96
type=note_on channel=9 note=53 velocity=0 time=96 actual_time=33336
type=note_on channel=9 note=40 velocity=0 time=0 actual_time=33336
type=note_on channel=9 note=59 velocity=0 time=0 actual_time=33336
type=note_on channel=9 note=63 velocity=80 time=24 actual_time=33360
type: note_off, time: 24, actual_time: 33424
type=note_on channel=9 note=40 velocity=80 time=0 actual_time=80
type: note_off, time: 0, actual_time: 144
type=note_on channel=9 note=53 velocity=0 time=64 actual_time=33424
type=note_on channel=9 note=59 velocity=0 time=0 actual_time=33424
type=note_on channel=9 note=35 velocity=80 time=16 actual_time=40
type: note_off, time: 16, actual_time: 72
type=note_on channel=9 note=35 velocity=0 time=32 actual_time=33472
type=note_on channel=9 note=40 velocity=80 time=8 actual_time=120
type: note_off, time: 8, actual_time: 216
type=note_on channel=9 note=40 velocity=80 time=0 actual_time=0
type: note_off, time: 0, actual_time: 96
type=note_on channel=9 note=40 velocity=80 time=0 actual_time=40
type: note_off, time: 0, actual_time: 136
type=note_on channel=9 note=40 velocity=0 time=96 actual_time=33576
type=note_on channel=9 note=53 velocity=0 time=0 actual_time=33576
type=note_on channel=9 note=59 velocity=0 time=0 actual_time=33576
type=note_on channel=9 note=40 velocity=80 time=24 actual_time=120
type: note_off, time: 24, actual_time: 216
type=note_on channel=9 note=40 velocity=80 time=0 actual_time=0
type: note_off, time: 0, actual_time: 96
type=note_on channel=9 note=31 velocity=80 time=0 actual_time=33600
type: note_off, time: 0, actual_time: 33696
type=note_on channel=9 note=40 velocity=80 time=0 actual_time=120
type: note_off, time: 0, actual_time: 216
type=note_on channel=9 note=59 velocity=0 time=96 actual_time=33696
type=note_on channel=9 note=53 velocity=0 time=0 actual_time=33696
type=note_on channel=9 note=49 velocity=0 time=0 actual_time=33696
type=note_on channel=9 note=35 velocity=0 time=0 actual_time=33696
type=note_on channel=9 note=50 velocity=80 time=24 actual_time=33720
type: note_off, time: 24, actual_time: 33816
type=note_on channel=9 note=40 velocity=80 time=0 actual_time=40
type: note_off, time: 0, actual_time: 136
type=note_on channel=9 note=40 velocity=80 time=0 actual_time=0
type: note_off, time: 0, actual_time: 96
type=note_on channel=9 note=59 velocity=0 time=96 actual_time=33816
type=note_on channel=9 note=40 velocity=0 time=0 actual_time=33816
type=note_on channel=9 note=53 velocity=0 time=0 actual_time=33816
type=note_on channel=9 note=53 velocity=80 time=24 actual_time=0
type: note_off, time: 24, actual_time: 64
type=note_on channel=9 note=59 velocity=80 time=0 actual_time=0
type: note_off, time: 0, actual_time: 64
type=note_on channel=9 note=59 velocity=0 time=64 actual_time=33904
type=note_on channel=9 note=53 velocity=0 time=0 actual_time=33904
type=note_on channel=9 note=35 velocity=80 time=16 actual_time=33920
type: note_off, time: 16, actual_time: 33952
type=note_on channel=9 note=35 velocity=0 time=32 actual_time=33952
type=note_on channel=9 note=53 velocity=80 time=8 actual_time=80
type: note_off, time: 8, actual_time: 176
type=note_on channel=9 note=40 velocity=80 time=0 actual_time=33960
type: note_off, time: 0, actual_time: 34056
type=note_on channel=9 note=40 velocity=80 time=0 actual_time=40
type: note_off, time: 0, actual_time: 136
type=note_on channel=9 note=40 velocity=0 time=96 actual_time=34056
type=note_on channel=9 note=59 velocity=0 time=0 actual_time=34056
type=note_on channel=9 note=53 velocity=0 time=0 actual_time=34056
type=note_on channel=9 note=59 velocity=80 time=24 actual_time=0
type: note_off, time: 24, actual_time: 96
type=note_on channel=9 note=40 velocity=80 time=0 actual_time=120
type: note_off, time: 0, actual_time: 216
type=note_on channel=9 note=40 velocity=80 time=0 actual_time=0
type: note_off, time: 0, actual_time: 96
type=note_on channel=9 note=53 velocity=0 time=96 actual_time=34176
type=note_on channel=9 note=35 velocity=0 time=0 actual_time=34176
type=note_on channel=9 note=59 velocity=0 time=0 actual_time=34176
type=note_on channel=9 note=39 velocity=80 time=24 actual_time=40
type: note_off, time: 24, actual_time: 136
type=note_on channel=9 note=40 velocity=80 time=0 actual_time=34200
type: note_off, time: 0, actual_time: 34296
type=note_on channel=9 note=40 velocity=80 time=0 actual_time=0
type: note_off, time: 0, actual_time: 96
type=note_on channel=9 note=53 velocity=0 time=96 actual_time=34296
type=note_on channel=9 note=59 velocity=0 time=0 actual_time=34296
type=note_on channel=9 note=40 velocity=0 time=0 actual_time=34296
type=note_on channel=9 note=40 velocity=80 time=24 actual_time=40
type: note_off, time: 24, actual_time: 72
type=note_on channel=9 note=40 velocity=0 time=32 actual_time=34352
type=note_on channel=9 note=40 velocity=80 time=8 actual_time=80
type: note_off, time: 8, actual_time: 112
type=note_on channel=9 note=40 velocity=0 time=32 actual_time=34392
type=note_on channel=9 note=40 velocity=80 time=8 actual_time=0
type: note_off, time: 8, actual_time: 32
type=note_on channel=9 note=40 velocity=0 time=32 actual_time=34432
type=note_on channel=9 note=40 velocity=80 time=8 actual_time=80
type: note_off, time: 8, actual_time: 112
type=note_on channel=9 note=47 velocity=0 time=32 actual_time=34472
type=note_on channel=9 note=45 velocity=80 time=8 actual_time=120
type: note_off, time: 8, actual_time: 152
type=note_on channel=9 note=45 velocity=0 time=32 actual_time=34512
type=note_on channel=9 note=40 velocity=80 time=8 actual_time=40
type: note_off, time: 8, actual_time: 72
type=note_on channel=9 note=43 velocity=0 time=32 actual_time=34552
type=note_on channel=9 note=40 velocity=80 time=8 actual_time=120
type: note_off, time: 8, actual_time: 216
type=note_on channel=9 note=40 velocity=80 time=0 actual_time=0
type: note_off, time: 0, actual_time: 96
type=note_on channel=9 note=40 velocity=80 time=0 actual_time=34560
type: note_off, time: 0, actual_time: 34656
type=note_on channel=9 note=53 velocity=0 time=96 actual_time=34656
type=note_on channel=9 note=35 velocity=0 time=0 actual_time=34656
type=note_on channel=9 note=49 velocity=0 time=0 actual_time=34656
type=note_on channel=9 note=40 velocity=80 time=24 actual_time=0
type: note_off, time: 24, actual_time: 96
type=note_on channel=9 note=40 velocity=80 time=0 actual_time=40
type: note_off, time: 0, actual_time: 136
type=note_on channel=9 note=53 velocity=0 time=96 actual_time=34776
type=note_on channel=9 note=40 velocity=0 time=0 actual_time=34776
type=note_on channel=9 note=53 velocity=80 time=24 actual_time=40
type: note_off, time: 24, actual_time: 104
type=note_on channel=9 note=53 velocity=0 time=64 actual_time=34864
type=note_on channel=9 note=40 velocity=80 time=16 actual_time=120
type: note_off, time: 16, actual_time: 152
type=note_on channel=9 note=35 velocity=0 time=32 actual_time=34912
type=note_on channel=9 note=40 velocity=80 time=8 actual_time=120
type: note_off, time: 8, actual_time: 216
type=note_on channel=9 note=40 velocity=80 time=0 actual_time=120
type: note_off, time: 0, actual_time: 216
type=note_on channel=9 note=40 velocity=0 time=96 actual_time=35016
type=note_on channel=9 note=53 velocity=0 time=0 actual_time=35016
type=note_on channel=9 note=40 velocity=80 time=24 actual_time=40
type: note_off, time: 24, actual_time: 136
type=note_on channel=9 note=40 velocity=80 time=0 actual_time=40
type: note_off, time: 0, actual_time: 136
type=note_on channel=9 note=35 velocity=0 time=96 actual_time=35136
type=note_on channel=9 note=53 velocity=0 time=0 actual_time=35136
type=note_on channel=9 note=40 velocity=80 time=24 actual_time=0
type: note_off, time: 24, actual_time: 96
type=note_on channel=9 note=40 velocity=80 time=0 actual_time=40
type: note_off, time: 0, actual_time: 136
type=note_on channel=9 note=40 velocity=0 time=96 actual_time=35256
type=note_on channel=9 note=53 velocity=0 time=0 actual_time=35256
type=note_on channel=9 note=53 velocity=80 time=24 actual_time=35280
type: note_off, time: 24, actual_time: 35344
type=note_on channel=9 note=53 velocity=0 time=64 actual_time=35344
type=note_on channel=9 note=40 velocity=80 time=16 actual_time=120
type: note_off, time: 16, actual_time: 152
type=note_on channel=9 note=35 velocity=0 time=32 actual_time=35392
type=note_on channel=9 note=40 velocity=80 time=8 actual_time=120
type: note_off, time: 8, actual_time: 216
type=note_on channel=9 note=40 velocity=80 time=0 actual_time=40
type: note_off, time: 0, actual_time: 136
type=note_on channel=9 note=53 velocity=0 time=96 actual_time=35496
type=note_on channel=9 note=40 velocity=0 time=0 actual_time=35496
type=note_on channel=9 note=53 velocity=80 time=24 actual_time=40
type: note_off, time: 24, actual_time: 136
type=note_on channel=9 note=40 velocity=80 time=0 actual_time=40
type: note_off, time: 0, actual_time: 136
type=note_on channel=9 note=35 velocity=0 time=96 actual_time=35616
type=note_on channel=9 note=53 velocity=0 time=0 actual_time=35616
type=note_on channel=9 note=40 velocity=80 time=24 actual_time=120
type: note_off, time: 24, actual_time: 216
type=note_on channel=9 note=40 velocity=80 time=0 actual_time=80
type: note_off, time: 0, actual_time: 176
type=note_on channel=9 note=40 velocity=0 time=96 actual_time=35736
type=note_on channel=9 note=53 velocity=0 time=0 actual_time=35736
type=note_on channel=9 note=53 velocity=80 time=24 actual_time=120
type: note_off, time: 24, actual_time: 184
type=note_on channel=9 note=53 velocity=0 time=64 actual_time=35824
type=note_on channel=9 note=40 velocity=80 time=16 actual_time=40
type: note_off, time: 16, actual_time: 72
type=note_on channel=9 note=35 velocity=0 time=32 actual_time=35872
type=note_on channel=9 note=40 velocity=80 time=8 actual_time=120
type: note_off, time: 8, actual_time: 216
type=note_on channel=9 note=40 velocity=80 time=0 actual_time=80
type: note_off, time: 0, actual_time: 176
type=note_on channel=9 note=53 velocity=0 time=96 actual_time=35976
type=note_on channel=9 note=40 velocity=0 time=0 actual_time=35976
type=note_on channel=9 note=38 velocity=80 time=24 actual_time=0
type: note_off, time: 24, actual_time: 96
type=note_on channel=9 note=55 velocity=80 time=0 actual_time=120
type: note_off, time: 0, actual_time: 216
type=note_on channel=9 note=53 velocity=0 time=96 actual_time=36096
type=note_on channel=9 note=35 velocity=0 time=0 actual_time=36096
type=note_on channel=9 note=40 velocity=80 time=24 actual_time=80
type: note_off, time: 24, actual_time: 176
type=note_on channel=9 note=40 velocity=80 time=0 actual_time=0
type: note_off, time: 0, actual_time: 96
type=note_on channel=9 note=53 velocity=0 time=96 actual_time=36216
type=note_on channel=9 note=40 velocity=0 time=0 actual_time=36216
type=note_on channel=9 note=40 velocity=80 time=24 actual_time=36240
type: note_off, time: 24, actual_time: 36304
type=note_on channel=9 note=53 velocity=0 time=64 actual_time=36304
type=note_on channel=9 note=35 velocity=80 time=16 actual_time=80
type: note_off, time: 16, actual_time: 112
type=note_on channel=9 note=35 velocity=0 time=32 actual_time=36352
type=note_on channel=9 note=53 velocity=80 time=8 actual_time=40
type: note_off, time: 8, actual_time: 136
type=note_on channel=9 note=40 velocity=80 time=0 actual_time=0
type: note_off, time: 0, actual_time: 96
type=note_on channel=9 note=40 velocity=0 time=96 actual_time=36456
type=note_on channel=9 note=53 velocity=0 time=0 actual_time=36456
type=note_on channel=9 note=40 velocity=80 time=24 actual_time=40
type: note_off, time: 24, actual_time: 136
type=note_on channel=9 note=40 velocity=80 time=0 actual_time=80
type: note_off, time: 0, actual_time: 176
type=note_on channel=9 note=53 velocity=0 time=96 actual_time=36576
type=note_on channel=9 note=35 velocity=0 time=0 actual_time=36576
type=note_on channel=9 note=40 velocity=80 time=24 actual_time=40
type: note_off, time: 24, actual_time: 136
type=note_on channel=9 note=53 velocity=80 time=0 actual_time=0
type: note_off, time: 0, actual_time: 96
type=note_on channel=9 note=53 velocity=0 time=96 actual_time=36696
type=note_on channel=9 note=40 velocity=0 time=0 actual_time=36696
type=note_on channel=9 note=40 velocity=80 time=24 actual_time=0
type: note_off, time: 24, actual_time: 64
type=note_on channel=9 note=53 velocity=0 time=64 actual_time=36784
type=note_on channel=9 note=35 velocity=80 time=16 actual_time=36800
type: note_off, time: 16, actual_time: 36832
type=note_on channel=9 note=35 velocity=0 time=32 actual_time=36832
type=note_on channel=9 note=53 velocity=80 time=8 actual_time=40
type: note_off, time: 8, actual_time: 136
type=note_on channel=9 note=40 velocity=80 time=0 actual_time=36840
type: note_off, time: 0, actual_time: 36936
type=note_on channel=9 note=40 velocity=0 time=96 actual_time=36936
type=note_on channel=9 note=53 velocity=0 time=0 actual_time=36936
type=note_on channel=9 note=40 velocity=80 time=24 actual_time=0
type: note_off, time: 24, actual_time: 96
type=note_on channel=9 note=40 velocity=80 time=0 actual_time=36960
type: note_off, time: 0, actual_time: 37056
type=note_on channel=9 note=35 velocity=0 time=96 actual_time=37056
type=note_on channel=9 note=53 velocity=0 time=0 actual_time=37056
type=note_on channel=9 note=40 velocity=80 time=24 actual_time=0
type: note_off, time: 24, actual_time: 96
type=note_on channel=9 note=40 velocity=80 time=0 actual_time=0
type: note_off, time: 0, actual_time: 96
type=note_on channel=9 note=40 velocity=0 time=96 actual_time=37176
type=note_on channel=9 note=53 velocity=0 time=0 actual_time=37176
type=note_on channel=9 note=40 velocity=80 time=24 actual_time=0
type: note_off, time: 24, actual_time: 64
type=note_on channel=9 note=53 velocity=0 time=64 actual_time=37264
type=note_on channel=9 note=35 velocity=80 time=16 actual_time=0
type: note_off, time: 16, actual_time: 32
type=note_on channel=9 note=35 velocity=0 time=32 actual_time=37312
type=note_on channel=9 note=40 velocity=80 time=8 actual_time=0
type: note_off, time: 8, actual_time: 96
type=note_on channel=9 note=40 velocity=80 time=0 actual_time=120
type: note_off, time: 0, actual_time: 216
type=note_on channel=9 note=53 velocity=0 time=96 actual_time=37416
type=note_on channel=9 note=40 velocity=0 time=0 actual_time=37416
type=note_on channel=9 note=40 velocity=80 time=24 actual_time=80
type: note_off, time: 24, actual_time: 176
type=note_on channel=9 note=40 velocity=80 time=0 actual_time=120
type: note_off, time: 0, actual_time: 216
type=note_on channel=9 note=35 velocity=0 time=96 actual_time=37536
type=note_on channel=9 note=53 velocity=0 time=0 actual_time=37536
type=note_on channel=9 note=40 velocity=80 time=24 actual_time=37560
type: note_off, time: 24, actual_time: 37656
type=note_on channel=9 note=40 velocity=80 time=0 actual_time=120
type: note_off, time: 0, actual_time: 216
type=note_on channel=9 note=40 velocity=0 time=96 actual_time=37656
type=note_on channel=9 note=53 velocity=0 time=0 actual_time=37656
type=note_on channel=9 note=40 velocity=80 time=24 actual_time=120
type: note_off, time: 24, actual_time: 184
type=note_on channel=9 note=53 velocity=0 time=64 actual_time=37744
type=note_on channel=9 note=40 velocity=80 time=16 actual_time=0
type: note_off, time: 16, actual_time: 32
type=note_on channel=9 note=35 velocity=0 time=32 actual_time=37792
type=note_on channel=9 note=40 velocity=80 time=8 actual_time=80
type: note_off, time: 8, actual_time: 176
type=note_on channel=9 note=40 velocity=80 time=0 actual_time=0
type: note_off, time: 0, actual_time: 96
type=note_on channel=9 note=53 velocity=0 time=96 actual_time=37896
type=note_on channel=9 note=40 velocity=0 time=0 actual_time=37896
type=note_on channel=9 note=40 velocity=80 time=24 actual_time=37920
type: note_off, time: 24, actual_time: 38016
type=note_on channel=9 note=40 velocity=80 time=0 actual_time=120
type: note_off, time: 0, actual_time: 216
type=note_on channel=9 note=35 velocity=0 time=96 actual_time=38016
type=note_on channel=9 note=53 velocity=0 time=0 actual_time=38016
type=note_on channel=9 note=53 velocity=80 time=24 actual_time=80
type: note_off, time: 24, actual_time: 176
type=note_on channel=9 note=40 velocity=80 time=0 actual_time=80
type: note_off, time: 0, actual_time: 176
type=note_on channel=9 note=40 velocity=0 time=96 actual_time=38136
type=note_on channel=9 note=53 velocity=0 time=0 actual_time=38136
type=note_on channel=9 note=40 velocity=80 time=24 actual_time=40
type: note_off, time: 24, actual_time: 72
type=note_on channel=9 note=47 velocity=80 time=0 actual_time=80
type: note_off, time: 0, actual_time: 112
type=note_on channel=9 note=47 velocity=0 time=32 actual_time=38192
type=note_on channel=9 note=40 velocity=0 time=0 actual_time=38192
type=note_on channel=9 note=40 velocity=80 time=8 actual_time=38200
type: note_off, time: 8, actual_time: 38232
type=note_on channel=9 note=45 velocity=0 time=32 actual_time=38232
type=note_on channel=9 note=40 velocity=80 time=8 actual_time=40
type: note_off, time: 8, actual_time: 72
type=note_on channel=9 note=43 velocity=0 time=32 actual_time=38272
type=note_on channel=9 note=40 velocity=80 time=8 actual_time=38280
type: note_off, time: 8, actual_time: 38472
type=note_on channel=9 note=40 velocity=80 time=120 actual_time=40
type: note_off, time: 120, actual_time: 136
type=note_on channel=9 note=35 velocity=80 time=0 actual_time=0
type: note_off, time: 0, actual_time: 96
type=note_on channel=9 note=40 velocity=80 time=0 actual_time=120
type: note_off, time: 0, actual_time: 216
type=note_on channel=9 note=41 velocity=0 time=72 actual_time=38472
type=note_on channel=9 note=49 velocity=0 time=24 actual_time=38496
type=note_on channel=9 note=35 velocity=0 time=0 actual_time=38496
type=note_on channel=9 note=53 velocity=0 time=0 actual_time=38496
type=note_on channel=9 note=40 velocity=80 time=24 actual_time=0
type: note_off, time: 24, actual_time: 96
type=note_on channel=9 note=40 velocity=80 time=0 actual_time=80
type: note_off, time: 0, actual_time: 176
type=note_on channel=9 note=53 velocity=0 time=96 actual_time=38616
type=note_on channel=9 note=40 velocity=0 time=0 actual_time=38616
type=note_on channel=9 note=40 velocity=80 time=24 actual_time=80
type: note_off, time: 24, actual_time: 144
type=note_on channel=9 note=53 velocity=0 time=64 actual_time=38704
type=note_on channel=9 note=40 velocity=80 time=16 actual_time=120
type: note_off, time: 16, actual_time: 152
type=note_on channel=9 note=35 velocity=0 time=32 actual_time=38752
type=note_on channel=9 note=53 velocity=80 time=8 actual_time=120
type: note_off, time: 8, actual_time: 216
type=note_on channel=9 note=40 velocity=80 time=0 actual_time=80
type: note_off, time: 0, actual_time: 176
type=note_on channel=9 note=40 velocity=0 time=96 actual_time=38856
type=note_on channel=9 note=53 velocity=0 time=0 actual_time=38856
type=note_on channel=9 note=40 velocity=80 time=24 actual_time=38880
type: note_off, time: 24, actual_time: 38976
type=note_on channel=9 note=40 velocity=80 time=0 actual_time=80
type: note_off, time: 0, actual_time: 176
type=note_on channel=9 note=35 velocity=0 time=96 actual_time=38976
type=note_on channel=9 note=53 velocity=0 time=0 actual_time=38976
type=note_on channel=9 note=40 velocity=80 time=24 actual_time=0
type: note_off, time: 24, actual_time: 96
type=note_on channel=9 note=40 velocity=80 time=0 actual_time=40
type: note_off, time: 0, actual_time: 136
type=note_on channel=9 note=40 velocity=0 time=96 actual_time=39096
type=note_on channel=9 note=53 velocity=0 time=0 actual_time=39096
type=note_on channel=9 note=53 velocity=80 time=24 actual_time=40
type: note_off, time: 24, actual_time: 104
type=note_on channel=9 note=53 velocity=0 time=64 actual_time=39184
type=note_on channel=9 note=40 velocity=80 time=16 actual_time=40
type: note_off, time: 16, actual_time: 72
type=note_on channel=9 note=35 velocity=0 time=32 actual_time=39232
type=note_on channel=9 note=40 velocity=80 time=8 actual_time=39240
type: note_off, time: 8, actual_time: 39336
type=note_on channel=9 note=40 velocity=80 time=0 actual_time=40
type: note_off, time: 0, actual_time: 136
type=note_on channel=9 note=53 velocity=0 time=96 actual_time=39336
type=note_on channel=9 note=40 velocity=0 time=0 actual_time=39336
type=note_on channel=9 note=40 velocity=80 time=24 actual_time=80
type: note_off, time: 24, actual_time: 176
type=note_on channel=9 note=40 velocity=80 time=0 actual_time=120
type: note_off, time: 0, actual_time: 216
type=note_on channel=9 note=35 velocity=0 time=96 actual_time=39456
type=note_on channel=9 note=53 velocity=0 time=0 actual_time=39456
type=note_on channel=9 note=52 velocity=80 time=24 actual_time=39480
type: note_off, time: 24, actual_time: 39576
type=note_on channel=9 note=40 velocity=80 time=0 actual_time=40
type: note_off, time: 0, actual_time: 136
type=note_on channel=9 note=40 velocity=0 time=96 actual_time=39576
type=note_on channel=9 note=53 velocity=0 time=0 actual_time=39576
type=note_on channel=9 note=40 velocity=80 time=24 actual_time=40
type: note_off, time: 24, actual_time: 104
type=note_on channel=9 note=53 velocity=0 time=64 actual_time=39664
type=note_on channel=9 note=40 velocity=80 time=16 actual_time=0
type: note_off, time: 16, actual_time: 32
type=note_on channel=9 note=35 velocity=0 time=32 actual_time=39712
type=note_on channel=9 note=40 velocity=80 time=8 actual_time=80
type: note_off, time: 8, actual_time: 176
type=note_on channel=9 note=40 velocity=80 time=0 actual_time=40
type: note_off, time: 0, actual_time: 136
type=note_on channel=9 note=53 velocity=0 time=96 actual_time=39816
type=note_on channel=9 note=40 velocity=0 time=0 actual_time=39816
type=note_on channel=9 note=35 velocity=80 time=24 actual_time=120
type: note_off, time: 24, actual_time: 216
type=note_on channel=9 note=53 velocity=80 time=0 actual_time=120
type: note_off, time: 0, actual_time: 216
type=note_on channel=9 note=53 velocity=0 time=96 actual_time=39936
type=note_on channel=9 note=35 velocity=0 time=0 actual_time=39936
type=note_on channel=9 note=40 velocity=80 time=24 actual_time=120
type: note_off, time: 24, actual_time: 216
type=note_on channel=9 note=40 velocity=80 time=0 actual_time=40
type: note_off, time: 0, actual_time: 136
type=note_on channel=9 note=53 velocity=0 time=96 actual_time=40056
type=note_on channel=9 note=40 velocity=0 time=0 actual_time=40056
type=note_on channel=9 note=40 velocity=80 time=24 actual_time=40080
type: note_off, time: 24, actual_time: 40144
type=note_on channel=9 note=53 velocity=0 time=64 actual_time=40144
type=note_on channel=9 note=40 velocity=80 time=16 actual_time=40160
type: note_off, time: 16, actual_time: 40192
type=note_on channel=9 note=35 velocity=0 time=32 actual_time=40192
type=note_on channel=9 note=55 velocity=80 time=8 actual_time=40
type: note_off, time: 8, actual_time: 136
type=note_on channel=9 note=42 velocity=80 time=0 actual_time=40200
type: note_off, time: 0, actual_time: 40296
type=note_on channel=9 note=40 velocity=0 time=96 actual_time=40296
type=note_on channel=9 note=53 velocity=0 time=0 actual_time=40296
type=note_on channel=9 note=49 velocity=80 time=24 actual_time=80
type: note_off, time: 24, actual_time: 176
type=note_on channel=9 note=40 velocity=80 time=0 actual_time=0
type: note_off, time: 0, actual_time: 96
type=note_on channel=9 note=40 velocity=80 time=0 actual_time=40
type: note_off, time: 0, actual_time: 136
type=note_on channel=9 note=49 velocity=0 time=96 actual_time=40416
type=note_on channel=9 note=35 velocity=0 time=0 actual_time=40416
type=note_on channel=9 note=53 velocity=0 time=0 actual_time=40416
type=note_on channel=9 note=52 velocity=80 time=24 actual_time=80
type: note_off, time: 24, actual_time: 176
type=note_on channel=9 note=40 velocity=80 time=0 actual_time=40440
type: note_off, time: 0, actual_time: 40536
type=note_on channel=9 note=40 velocity=0 time=96 actual_time=40536
type=note_on channel=9 note=53 velocity=0 time=0 actual_time=40536
type=note_on channel=9 note=40 velocity=80 time=24 actual_time=40560
type: note_off, time: 24, actual_time: 40624
type=note_on channel=9 note=53 velocity=0 time=64 actual_time=40624
type=note_on channel=9 note=40 velocity=80 time=16 actual_time=0
type: note_off, time: 16, actual_time: 32
type=note_on channel=9 note=35 velocity=0 time=32 actual_time=40672
type=note_on channel=9 note=53 velocity=80 time=8 actual_time=120
type: note_off, time: 8, actual_time: 216
type=note_on channel=9 note=40 velocity=80 time=0 actual_time=0
type: note_off, time: 0, actual_time: 96
type=note_on channel=9 note=40 velocity=0 time=96 actual_time=40776
type=note_on channel=9 note=53 velocity=0 time=0 actual_time=40776
type=note_on channel=9 note=40 velocity=80 time=24 actual_time=80
type: note_off, time: 24, actual_time: 176
type=note_on channel=9 note=40 velocity=80 time=0 actual_time=80
type: note_off, time: 0, actual_time: 176
type=note_on channel=9 note=35 velocity=0 time=96 actual_time=40896
type=note_on channel=9 note=53 velocity=0 time=0 actual_time=40896
type=note_on channel=9 note=40 velocity=80 time=24 actual_time=40
type: note_off, time: 24, actual_time: 136
type=note_on channel=9 note=51 velocity=80 time=0 actual_time=40920
type: note_off, time: 0, actual_time: 41016
type=note_on channel=9 note=53 velocity=0 time=96 actual_time=41016
type=note_on channel=9 note=40 velocity=0 time=0 actual_time=41016
type=note_on channel=9 note=50 velocity=80 time=24 actual_time=41040
type: note_off, time: 24, actual_time: 41104
type=note_on channel=9 note=53 velocity=0 time=64 actual_time=41104
type=note_on channel=9 note=40 velocity=80 time=16 actual_time=0
type: note_off, time: 16, actual_time: 32
type=note_on channel=9 note=35 velocity=0 time=32 actual_time=41152
type=note_on channel=9 note=40 velocity=80 time=8 actual_time=41160
type: note_off, time: 8, actual_time: 41256
type=note_on channel=9 note=40 velocity=80 time=0 actual_time=120
type: note_off, time: 0, actual_time: 216
type=note_on channel=9 note=40 velocity=0 time=96 actual_time=41256
type=note_on channel=9 note=53 velocity=0 time=0 actual_time=41256
type=note_on channel=9 note=40 velocity=80 time=24 actual_time=120
type: note_off, time: 24, actual_time: 216
type=note_on channel=9 note=53 velocity=80 time=0 actual_time=40
type: note_off, time: 0, actual_time: 136
type=note_on channel=9 note=53 velocity=0 time=96 actual_time=41376
type=note_on channel=9 note=35 velocity=0 time=0 actual_time=41376
type=note_on channel=9 note=40 velocity=80 time=24 actual_time=40
type: note_off, time: 24, actual_time: 136
type=note_on channel=9 note=40 velocity=80 time=0 actual_time=41400
type: note_off, time: 0, actual_time: 41496
type=note_on channel=9 note=53 velocity=0 time=96 actual_time=41496
type=note_on channel=9 note=40 velocity=0 time=0 actual_time=41496
type=note_on channel=9 note=40 velocity=80 time=24 actual_time=41520
type: note_off, time: 24, actual_time: 41584
type=note_on channel=9 note=53 velocity=0 time=64 actual_time=41584
type=note_on channel=9 note=40 velocity=80 time=16 actual_time=80
type: note_off, time: 16, actual_time: 112
type=note_on channel=9 note=35 velocity=0 time=32 actual_time=41632
type=note_on channel=9 note=40 velocity=80 time=8 actual_time=40
type: note_off, time: 8, actual_time: 136
type=note_on channel=9 note=40 velocity=80 time=0 actual_time=41640
type: note_off, time: 0, actual_time: 41736
type=note_on channel=9 note=40 velocity=0 time=96 actual_time=41736
type=note_on channel=9 note=53 velocity=0 time=0 actual_time=41736
type=note_on channel=9 note=40 velocity=80 time=24 actual_time=120
type: note_off, time: 24, actual_time: 216
type=note_on channel=9 note=40 velocity=80 time=0 actual_time=120
type: note_off, time: 0, actual_time: 216
type=note_on channel=9 note=35 velocity=0 time=96 actual_time=41856
type=note_on channel=9 note=53 velocity=0 time=0 actual_time=41856
type=note_on channel=9 note=53 velocity=80 time=24 actual_time=120
type: note_off, time: 24, actual_time: 216
type=note_on channel=9 note=40 velocity=80 time=0 actual_time=80
type: note_off, time: 0, actual_time: 176
type=note_on channel=9 note=40 velocity=0 time=96 actual_time=41976
type=note_on channel=9 note=53 velocity=0 time=0 actual_time=41976
type=note_on channel=9 note=56 velocity=80 time=24 actual_time=0
type: note_off, time: 24, actual_time: 64
type=note_on channel=9 note=53 velocity=0 time=64 actual_time=42064
type=note_on channel=9 note=40 velocity=80 time=16 actual_time=80
type: note_off, time: 16, actual_time: 112
type=note_on channel=9 note=35 velocity=0 time=32 actual_time=42112
type=note_on channel=9 note=40 velocity=80 time=8 actual_time=80
type: note_off, time: 8, actual_time: 176
type=note_on channel=9 note=53 velocity=80 time=0 actual_time=0
type: note_off, time: 0, actual_time: 96
type=note_on channel=9 note=53 velocity=0 time=96 actual_time=42216
type=note_on channel=9 note=40 velocity=0 time=0 actual_time=42216
type=note_on channel=9 note=53 velocity=80 time=24 actual_time=120
type: note_off, time: 24, actual_time: 216
type=note_on channel=9 note=40 velocity=80 time=0 actual_time=80
type: note_off, time: 0, actual_time: 176
type=note_on channel=9 note=40 velocity=80 time=0 actual_time=120
type: note_off, time: 0, actual_time: 216
type=note_on channel=9 note=49 velocity=0 time=96 actual_time=42336
type=note_on channel=9 note=35 velocity=0 time=0 actual_time=42336
type=note_on channel=9 note=53 velocity=0 time=0 actual_time=42336
type=note_on channel=9 note=40 velocity=80 time=24 actual_time=40
type: note_off, time: 24, actual_time: 136
type=note_on channel=9 note=40 velocity=80 time=0 actual_time=42360
type: note_off, time: 0, actual_time: 42456
type=note_on channel=9 note=40 velocity=0 time=96 actual_time=42456
type=note_on channel=9 note=53 velocity=0 time=0 actual_time=42456
type=note_on channel=9 note=53 velocity=80 time=24 actual_time=80
type: note_off, time: 24, actual_time: 144
type=note_on channel=9 note=53 velocity=0 time=64 actual_time=42544
type=note_on channel=9 note=40 velocity=80 time=16 actual_time=42560
type: note_off, time: 16, actual_time: 42592
type=note_on channel=9 note=35 velocity=0 time=32 actual_time=42592
type=note_on channel=9 note=40 velocity=80 time=8 actual_time=120
type: note_off, time: 8, actual_time: 216
type=note_on channel=9 note=40 velocity=80 time=0 actual_time=120
type: note_off, time: 0, actual_time: 216
type=note_on channel=9 note=53 velocity=0 time=96 actual_time=42696
type=note_on channel=9 note=40 velocity=0 time=0 actual_time=42696
type=note_on channel=9 note=35 velocity=80 time=24 actual_time=80
type: note_off, time: 24, actual_time: 176
type=note_on channel=9 note=53 velocity=80 time=0 actual_time=120
type: note_off, time: 0, actual_time: 216
type=note_on channel=9 note=53 velocity=0 time=96 actual_time=42816
type=note_on channel=9 note=35 velocity=0 time=0 actual_time=42816
type=note_on channel=9 note=40 velocity=80 time=24 actual_time=0
type: note_off, time: 24, actual_time: 96
type=note_on channel=9 note=56 velocity=80 time=0 actual_time=0
type: note_off, time: 0, actual_time: 96
type=note_on channel=9 note=53 velocity=0 time=96 actual_time=42936
type=note_on channel=9 note=40 velocity=0 time=0 actual_time=42936
type=note_on channel=9 note=40 velocity=80 time=24 actual_time=80
type: note_off, time: 24, actual_time: 144
type=note_on channel=9 note=53 velocity=0 time=64 actual_time=43024
type=note_on channel=9 note=40 velocity=80 time=16 actual_time=43040
type: note_off, time: 16, actual_time: 43072
type=note_on channel=9 note=35 velocity=0 time=32 actual_time=43072
type=note_on channel=9 note=40 velocity=80 time=8 actual_time=40
type: note_off, time: 8, actual_time: 136
type=note_on channel=9 note=40 velocity=80 time=0 actual_time=120
type: note_off, time: 0, actual_time: 216
type=note_on channel=9 note=40 velocity=0 time=96 actual_time=43176
type=note_on channel=9 note=53 velocity=0 time=0 actual_time=43176
type=note_on channel=9 note=40 velocity=80 time=24 actual_time=43200
type: note_off, time: 24, actual_time: 43296
type=note_on channel=9 note=56 velocity=80 time=0 actual_time=80
type: note_off, time: 0, actual_time: 176
type=note_on channel=9 note=53 velocity=0 time=96 actual_time=43296
type=note_on channel=9 note=35 velocity=0 time=0 actual_time=43296
type=note_on channel=9 note=40 velocity=80 time=24 actual_time=43320
type: note_off, time: 24, actual_time: 43416
type=note_on channel=9 note=53 velocity=80 time=0 actual_time=0
type: note_off, time: 0, actual_time: 96
type=note_on channel=9 note=53 velocity=0 time=96 actual_time=43416
type=note_on channel=9 note=40 velocity=0 time=0 actual_time=43416
type=note_on channel=9 note=40 velocity=80 time=24 actual_time=120
type: note_off, time: 24, actual_time: 184
type=note_on channel=9 note=53 velocity=0 time=64 actual_time=43504
type=note_on channel=9 note=40 velocity=80 time=16 actual_time=80
type: note_off, time: 16, actual_time: 112
type=note_on channel=9 note=35 velocity=0 time=32 actual_time=43552
type=note_on channel=9 note=53 velocity=80 time=8 actual_time=43560
type: note_off, time: 8, actual_time: 43656
type=note_on channel=9 note=41 velocity=80 time=0 actual_time=80
type: note_off, time: 0, actual_time: 176
type=note_on channel=9 note=40 velocity=0 time=96 actual_time=43656
type=note_on channel=9 note=53 velocity=0 time=0 actual_time=43656
type=note_on channel=9 note=40 velocity=80 time=24 actual_time=40
type: note_off, time: 24, actual_time: 136
type=note_on channel=9 note=35 velocity=80 time=0 actual_time=40
type: note_off, time: 0, actual_time: 136
type=note_on channel=9 note=35 velocity=0 time=96 actual_time=43776
type=note_on channel=9 note=53 velocity=0 time=0 actual_time=43776
type=note_on channel=9 note=40 velocity=80 time=24 actual_time=0
type: note_off, time: 24, actual_time: 96
type=note_on channel=9 note=53 velocity=80 time=0 actual_time=120
type: note_off, time: 0, actual_time: 216
type=note_on channel=9 note=53 velocity=0 time=96 actual_time=43896
type=note_on channel=9 note=40 velocity=0 time=0 actual_time=43896
type=note_on channel=9 note=40 velocity=80 time=24 actual_time=80
type: note_off, time: 24, actual_time: 144
type=note_on channel=9 note=53 velocity=0 time=64 actual_time=43984
type=note_on channel=9 note=40 velocity=80 time=16 actual_time=80
type: note_off, time: 16, actual_time: 112
type=note_on channel=9 note=35 velocity=0 time=32 actual_time=44032
type=note_on channel=9 note=40 velocity=80 time=8 actual_time=80
type: note_off, time: 8, actual_time: 176
type=note_on channel=9 note=40 velocity=80 time=0 actual_time=40
type: note_off, time: 0, actual_time: 136
type=note_on channel=9 note=53 velocity=0 time=96 actual_time=44136
type=note_on channel=9 note=40 velocity=0 time=0 actual_time=44136
type=note_on channel=9 note=49 velocity=80 time=24 actual_time=120
type: note_off, time: 24, actual_time: 216
type=note_on channel=9 note=40 velocity=80 time=0 actual_time=80
type: note_off, time: 0, actual_time: 176
type=note_on channel=9 note=48 velocity=80 time=0 actual_time=120
type: note_off, time: 0, actual_time: 216
type=note_on channel=9 note=53 velocity=0 time=96 actual_time=44256
type=note_on channel=9 note=35 velocity=0 time=0 actual_time=44256
type=note_on channel=9 note=49 velocity=0 time=0 actual_time=44256
type=note_on channel=9 note=40 velocity=80 time=24 actual_time=40
type: note_off, time: 24, actual_time: 136
type=note_on channel=9 note=40 velocity=80 time=0 actual_time=120
type: note_off, time: 0, actual_time: 216
type=note_on channel=9 note=53 velocity=0 time=96 actual_time=44376
type=note_on channel=9 note=40 velocity=0 time=0 actual_time=44376
type=note_on channel=9 note=40 velocity=80 time=24 actual_time=40
type: note_off, time: 24, actual_time: 104
type=note_on channel=9 note=53 velocity=0 time=64 actual_time=44464
type=note_on channel=9 note=40 velocity=80 time=16 actual_time=0
type: note_off, time: 16, actual_time: 32
type=note_on channel=9 note=35 velocity=0 time=32 actual_time=44512
type=note_on channel=9 note=53 velocity=80 time=8 actual_time=80
type: note_off, time: 8, actual_time: 176
type=note_on channel=9 note=40 velocity=80 time=0 actual_time=80
type: note_off, time: 0, actual_time: 176
type=note_on channel=9 note=40 velocity=0 time=96 actual_time=44616
type=note_on channel=9 note=53 velocity=0 time=0 actual_time=44616
type=note_on channel=9 note=40 velocity=80 time=24 actual_time=40
type: note_off, time: 24, actual_time: 136
type=note_on channel=9 note=53 velocity=80 time=0 actual_time=40
type: note_off, time: 0, actual_time: 136
type=note_on channel=9 note=53 velocity=0 time=96 actual_time=44736
type=note_on channel=9 note=35 velocity=0 time=0 actual_time=44736
type=note_on channel=9 note=40 velocity=80 time=24 actual_time=80
type: note_off, time: 24, actual_time: 176
type=note_on channel=9 note=40 velocity=80 time=0 actual_time=40
type: note_off, time: 0, actual_time: 136
type=note_on channel=9 note=40 velocity=0 time=96 actual_time=44856
type=note_on channel=9 note=53 velocity=0 time=0 actual_time=44856
type=note_on channel=9 note=53 velocity=80 time=24 actual_time=40
type: note_off, time: 24, actual_time: 104
type=note_on channel=9 note=53 velocity=0 time=64 actual_time=44944
type=note_on channel=9 note=40 velocity=80 time=16 actual_time=44960
type: note_off, time: 16, actual_time: 44992
type=note_on channel=9 note=35 velocity=0 time=32 actual_time=44992
type=note_on channel=9 note=40 velocity=80 time=8 actual_time=45000
type: note_off, time: 8, actual_time: 45096
type=note_on channel=9 note=40 velocity=80 time=0 actual_time=0
type: note_off, time: 0, actual_time: 96
type=note_on channel=9 note=40 velocity=0 time=96 actual_time=45096
type=note_on channel=9 note=53 velocity=0 time=0 actual_time=45096
type=note_on channel=9 note=53 velocity=80 time=24 actual_time=120
type: note_off, time: 24, actual_time: 216
type=note_on channel=9 note=40 velocity=80 time=0 actual_time=120
type: note_off, time: 0, actual_time: 216
type=note_on channel=9 note=35 velocity=0 time=96 actual_time=45216
type=note_on channel=9 note=53 velocity=0 time=0 actual_time=45216
type=note_on channel=9 note=40 velocity=80 time=24 actual_time=80
type: note_off, time: 24, actual_time: 176
type=note_on channel=9 note=40 velocity=80 time=0 actual_time=40
type: note_off, time: 0, actual_time: 136
type=note_on channel=9 note=53 velocity=0 time=96 actual_time=45336
type=note_on channel=9 note=40 velocity=0 time=0 actual_time=45336
type=note_on channel=9 note=40 velocity=80 time=24 actual_time=80
type: note_off, time: 24, actual_time: 144
type=note_on channel=9 note=53 velocity=0 time=64 actual_time=45424
type=note_on channel=9 note=35 velocity=80 time=16 actual_time=80
type: note_off, time: 16, actual_time: 112
type=note_on channel=9 note=35 velocity=0 time=32 actual_time=45472
type=note_on channel=9 note=40 velocity=80 time=8 actual_time=120
type: note_off, time: 8, actual_time: 216
type=note_on channel=9 note=53 velocity=80 time=0 actual_time=120
type: note_off, time: 0, actual_time: 216
type=note_on channel=9 note=53 velocity=0 time=96 actual_time=45576
type=note_on channel=9 note=40 velocity=0 time=0 actual_time=45576
type=note_on channel=9 note=40 velocity=80 time=24 actual_time=120
type: note_off, time: 24, actual_time: 152
type=note_on channel=9 note=40 velocity=0 time=32 actual_time=45632
type=note_on channel=9 note=40 velocity=80 time=8 actual_time=80
type: note_off, time: 8, actual_time: 112
type=note_on channel=9 note=40 velocity=0 time=32 actual_time=45672
type=note_on channel=9 note=43 velocity=80 time=8 actual_time=45680
type: note_off, time: 8, actual_time: 45712
type=note_on channel=9 note=40 velocity=0 time=32 actual_time=45712
type=note_on channel=9 note=40 velocity=80 time=8 actual_time=45720
type: note_off, time: 8, actual_time: 45752
type=note_on channel=9 note=41 velocity=0 time=32 actual_time=45752
type=note_on channel=9 note=40 velocity=80 time=8 actual_time=40
type: note_off, time: 8, actual_time: 72
type=note_on channel=9 note=41 velocity=0 time=32 actual_time=45792
type=note_on channel=9 note=40 velocity=80 time=8 actual_time=45800
type: note_off, time: 8, actual_time: 45832
type=note_on channel=9 note=41 velocity=0 time=32 actual_time=45832
type=note_on channel=9 note=47 velocity=80 time=8 actual_time=45840
type: note_off, time: 8, actual_time: 45872
type=note_on channel=9 note=47 velocity=0 time=32 actual_time=45872
type=note_on channel=9 note=40 velocity=80 time=8 actual_time=40
type: note_off, time: 8, actual_time: 72
type=note_on channel=9 note=47 velocity=0 time=32 actual_time=45912
type=note_on channel=9 note=40 velocity=80 time=8 actual_time=40
type: note_off, time: 8, actual_time: 72
type=note_on channel=9 note=45 velocity=0 time=32 actual_time=45952
type=note_on channel=9 note=47 velocity=80 time=8 actual_time=0
type: note_off, time: 8, actual_time: 32
type=note_on channel=9 note=47 velocity=0 time=32 actual_time=45992
type=note_on channel=9 note=47 velocity=80 time=8 actual_time=0
type: note_off, time: 8, actual_time: 32
type=note_on channel=9 note=47 velocity=0 time=32 actual_time=46032
type=note_on channel=9 note=40 velocity=80 time=8 actual_time=0
type: note_off, time: 8, actual_time: 32
type=note_on channel=9 note=45 velocity=0 time=32 actual_time=46072
type=note_on channel=9 note=40 velocity=80 time=8 actual_time=40
type: note_off, time: 8, actual_time: 136
type=note_on channel=9 note=35 velocity=80 time=0 actual_time=40
type: note_off, time: 0, actual_time: 136
type=note_on channel=9 note=40 velocity=80 time=0 actual_time=120
type: note_off, time: 0, actual_time: 216
type=note_on channel=9 note=40 velocity=80 time=0 actual_time=120
type: note_off, time: 0, actual_time: 216
type=note_on channel=9 note=53 velocity=0 time=96 actual_time=46176
type=note_on channel=9 note=59 velocity=0 time=0 actual_time=46176
type=note_on channel=9 note=35 velocity=0 time=0 actual_time=46176
type=note_on channel=9 note=49 velocity=0 time=0 actual_time=46176
type=note_on channel=9 note=57 velocity=80 time=24 actual_time=46200
type: note_off, time: 24, actual_time: 46296
type=note_on channel=9 note=41 velocity=80 time=0 actual_time=46200
type: note_off, time: 0, actual_time: 46296
type=note_on channel=9 note=40 velocity=80 time=0 actual_time=0
type: note_off, time: 0, actual_time: 96
type=note_on channel=9 note=53 velocity=0 time=96 actual_time=46296
type=note_on channel=9 note=40 velocity=0 time=0 actual_time=46296
type=note_on channel=9 note=59 velocity=0 time=0 actual_time=46296
type=note_on channel=9 note=40 velocity=80 time=24 actual_time=120
type: note_off, time: 24, actual_time: 184
type=note_on channel=9 note=53 velocity=80 time=0 actual_time=40
type: note_off, time: 0, actual_time: 104
type=note_on channel=9 note=53 velocity=0 time=64 actual_time=46384
type=note_on channel=9 note=59 velocity=0 time=0 actual_time=46384
type=note_on channel=9 note=40 velocity=80 time=16 actual_time=120
type: note_off, time: 16, actual_time: 152
type=note_on channel=9 note=35 velocity=0 time=32 actual_time=46432
type=note_on channel=9 note=40 velocity=80 time=8 actual_time=40
type: note_off, time: 8, actual_time: 136
type=note_on channel=9 note=53 velocity=80 time=0 actual_time=80
type: note_off, time: 0, actual_time: 176
type=note_on channel=9 note=40 velocity=80 time=0 actual_time=0
type: note_off, time: 0, actual_time: 96
type=note_on channel=9 note=40 velocity=0 time=96 actual_time=46536
type=note_on channel=9 note=53 velocity=0 time=0 actual_time=46536
type=note_on channel=9 note=59 velocity=0 time=0 actual_time=46536
type=note_on channel=9 note=40 velocity=80 time=24 actual_time=80
type: note_off, time: 24, actual_time: 176
type=note_on channel=9 note=57 velocity=80 time=0 actual_time=46560
type: note_off, time: 0, actual_time: 46656
type=note_on channel=9 note=40 velocity=80 time=0 actual_time=0
type: note_off, time: 0, actual_time: 96
type=note_on channel=9 note=53 velocity=0 time=96 actual_time=46656
type=note_on channel=9 note=59 velocity=0 time=0 actual_time=46656
type=note_on channel=9 note=35 velocity=0 time=0 actual_time=46656
type=note_on channel=9 note=40 velocity=80 time=24 actual_time=0
type: note_off, time: 24, actual_time: 96
type=note_on channel=9 note=40 velocity=80 time=0 actual_time=120
type: note_off, time: 0, actual_time: 216
type=note_on channel=9 note=40 velocity=80 time=0 actual_time=80
type: note_off, time: 0, actual_time: 176
type=note_on channel=9 note=59 velocity=0 time=96 actual_time=46776
type=note_on channel=9 note=40 velocity=0 time=0 actual_time=46776
type=note_on channel=9 note=53 velocity=0 time=0 actual_time=46776
type=note_on channel=9 note=53 velocity=80 time=24 actual_time=46800
type: note_off, time: 24, actual_time: 46864
type=note_on channel=9 note=40 velocity=80 time=0 actual_time=40
type: note_off, time: 0, actual_time: 104
type=note_on channel=9 note=59 velocity=0 time=64 actual_time=46864
type=note_on channel=9 note=53 velocity=0 time=0 actual_time=46864
type=note_on channel=9 note=40 velocity=80 time=16 actual_time=80
type: note_off, time: 16, actual_time: 112
type=note_on channel=9 note=35 velocity=0 time=32 actual_time=46912
type=note_on channel=9 note=40 velocity=80 time=8 actual_time=80
type: note_off, time: 8, actual_time: 176
type=note_on channel=9 note=40 velocity=80 time=0 actual_time=80
type: note_off, time: 0, actual_time: 176
type=note_on channel=9 note=40 velocity=80 time=0 actual_time=46920
type: note_off, time: 0, actual_time: 47016
type=note_on channel=9 note=59 velocity=0 time=96 actual_time=47016
type=note_on channel=9 note=53 velocity=0 time=0 actual_time=47016
type=note_on channel=9 note=40 velocity=0 time=0 actual_time=47016
type=note_on channel=9 note=40 velocity=80 time=24 actual_time=40
type: note_off, time: 24, actual_time: 136
type=note_on channel=9 note=40 velocity=80 time=0 actual_time=0
type: note_off, time: 0, actual_time: 96
type=note_on channel=9 note=35 velocity=80 time=0 actual_time=80
type: note_off, time: 0, actual_time: 176
type=note_on channel=9 note=40 velocity=80 time=0 actual_time=0
type: note_off, time: 0, actual_time: 96
type=note_on channel=9 note=59 velocity=0 time=96 actual_time=47136
type=note_on channel=9 note=53 velocity=0 time=0 actual_time=47136
type=note_on channel=9 note=49 velocity=0 time=0 actual_time=47136
type=note_on channel=9 note=35 velocity=0 time=0 actual_time=47136
type=note_on channel=9 note=40 velocity=80 time=24 actual_time=80
type: note_off, time: 24, actual_time: 176
type=note_on channel=9 note=40 velocity=80 time=0 actual_time=120
type: note_off, time: 0, actual_time: 216
type=note_on channel=9 note=40 velocity=80 time=0 actual_time=40
type: note_off, time: 0, actual_time: 136
type=note_on channel=9 note=59 velocity=0 time=96 actual_time=47256
type=note_on channel=9 note=40 velocity=0 time=0 actual_time=47256
type=note_on channel=9 note=53 velocity=0 time=0 actual_time=47256
type=note_on channel=9 note=40 velocity=80 time=24 actual_time=47280
type: note_off, time: 24, actual_time: 47344
type=note_on channel=9 note=40 velocity=80 time=0 actual_time=0
type: note_off, time: 0, actual_time: 64
type=note_on channel=9 note=59 velocity=0 time=64 actual_time=47344
type=note_on channel=9 note=53 velocity=0 time=0 actual_time=47344
type=note_on channel=9 note=40 velocity=80 time=16 actual_time=40
type: note_off, time: 16, actual_time: 72
type=note_on channel=9 note=35 velocity=0 time=32 actual_time=47392
type=note_on channel=9 note=36 velocity=80 time=8 actual_time=47400
type: note_off, time: 8, actual_time: 47496
type=note_on channel=9 note=40 velocity=80 time=0 actual_time=80
type: note_off, time: 0, actual_time: 176
type=note_on channel=9 note=40 velocity=80 time=0 actual_time=80
type: note_off, time: 0, actual_time: 176
type=note_on channel=9 note=59 velocity=0 time=96 actual_time=47496
type=note_on channel=9 note=53 velocity=0 time=0 actual_time=47496
type=note_on channel=9 note=40 velocity=0 time=0 actual_time=47496
type=note_on channel=9 note=35 velocity=80 time=24 actual_time=120
type: note_off, time: 24, actual_time: 184
type=note_on channel=9 note=40 velocity=80 time=0 actual_time=0
type: note_off, time: 0, actual_time: 64
type=note_on channel=9 note=40 velocity=80 time=0 actual_time=80
type: note_off, time: 0, actual_time: 144
type=note_on channel=9 note=59 velocity=0 time=64 actual_time=47584
type=note_on channel=9 note=53 velocity=0 time=0 actual_time=47584
type=note_on channel=9 note=35 velocity=0 time=0 actual_time=47584
type=note_on channel=9 note=36 velocity=80 time=16 actual_time=120
type: note_off, time: 16, actual_time: 152
type=note_on channel=9 note=35 velocity=0 time=32 actual_time=47632
type=note_on channel=9 note=40 velocity=80 time=8 actual_time=0
type: note_off, time: 8, actual_time: 96
type=note_on channel=9 note=40 velocity=80 time=0 actual_time=40
type: note_off, time: 0, actual_time: 136
type=note_on channel=9 note=40 velocity=80 time=0 actual_time=0
type: note_off, time: 0, actual_time: 96
type=note_on channel=9 note=40 velocity=80 time=0 actual_time=120
type: note_off, time: 0, actual_time: 216
type=note_on channel=9 note=59 velocity=0 time=96 actual_time=47736
type=note_on channel=9 note=49 velocity=0 time=0 actual_time=47736
type=note_on channel=9 note=40 velocity=0 time=0 actual_time=47736
type=note_on channel=9 note=53 velocity=0 time=0 actual_time=47736
type=note_on channel=9 note=39 velocity=80 time=24 actual_time=120
type: note_off, time: 24, actual_time: 184
type=note_on channel=9 note=40 velocity=80 time=0 actual_time=40
type: note_off, time: 0, actual_time: 104
type=note_on channel=9 note=40 velocity=80 time=0 actual_time=40
type: note_off, time: 0, actual_time: 104
type=note_on channel=9 note=59 velocity=0 time=64 actual_time=47824
type=note_on channel=9 note=53 velocity=0 time=0 actual_time=47824
type=note_on channel=9 note=35 velocity=0 time=0 actual_time=47824
type=note_on channel=9 note=40 velocity=80 time=16 actual_time=80
type: note_off, time: 16, actual_time: 112
type=note_on channel=9 note=35 velocity=0 time=32 actual_time=47872
type=note_on channel=9 note=49 velocity=80 time=8 actual_time=40
type: note_off, time: 8, actual_time: 136
type=note_on channel=9 note=40 velocity=80 time=0 actual_time=47880
type: note_off, time: 0, actual_time: 47976
type=note_on channel=9 note=40 velocity=80 time=0 actual_time=47880
type: note_off, time: 0, actual_time: 47976
type=note_on channel=9 note=40 velocity=80 time=0 actual_time=120
type: note_off, time: 0, actual_time: 216
type=note_on channel=9 note=59 velocity=0 time=96 actual_time=47976
type=note_on channel=9 note=49 velocity=0 time=0 actual_time=47976
type=note_on channel=9 note=40 velocity=0 time=0 actual_time=47976
type=note_on channel=9 note=53 velocity=0 time=0 actual_time=47976
type=note_on channel=9 note=40 velocity=80 time=24 actual_time=40
type: note_off, time: 24, actual_time: 136
type=note_on channel=9 note=49 velocity=80 time=0 actual_time=0
type: note_off, time: 0, actual_time: 96
type=note_on channel=9 note=40 velocity=80 time=0 actual_time=40
type: note_off, time: 0, actual_time: 136
type=note_on channel=9 note=59 velocity=80 time=0 actual_time=0
type: note_off, time: 0, actual_time: 96
type=note_on channel=9 note=59 velocity=0 time=96 actual_time=48096
type=note_on channel=9 note=53 velocity=0 time=0 actual_time=48096
type=note_on channel=9 note=49 velocity=0 time=0 actual_time=48096
type=note_on channel=9 note=35 velocity=0 time=0 actual_time=48096
type=note_on channel=9 note=40 velocity=80 time=24 actual_time=40
type: note_off, time: 24, actual_time: 136
type=note_on channel=9 note=45 velocity=80 time=0 actual_time=48120
type: note_off, time: 0, actual_time: 48216
type=note_on channel=9 note=40 velocity=80 time=0 actual_time=80
type: note_off, time: 0, actual_time: 176
type=note_on channel=9 note=59 velocity=0 time=96 actual_time=48216
type=note_on channel=9 note=40 velocity=0 time=0 actual_time=48216
type=note_on channel=9 note=53 velocity=0 time=0 actual_time=48216
type=note_on channel=9 note=53 velocity=80 time=24 actual_time=80
type: note_off, time: 24, actual_time: 144
type=note_on channel=9 note=40 velocity=80 time=0 actual_time=40
type: note_off, time: 0, actual_time: 104
type=note_on channel=9 note=59 velocity=0 time=64 actual_time=48304
type=note_on channel=9 note=53 velocity=0 time=0 actual_time=48304
type=note_on channel=9 note=40 velocity=80 time=16 actual_time=120
type: note_off, time: 16, actual_time: 152
type=note_on channel=9 note=35 velocity=0 time=32 actual_time=48352
type=note_on channel=9 note=40 velocity=80 time=8 actual_time=0
type: note_off, time: 8, actual_time: 96
type=note_on channel=9 note=40 velocity=80 time=0 actual_time=0
type: note_off, time: 0, actual_time: 96
type=note_on channel=9 note=40 velocity=80 time=0 actual_time=40
type: note_off, time: 0, actual_time: 136
type=note_on channel=9 note=59 velocity=0 time=96 actual_time=48456
type=note_on channel=9 note=53 velocity=0 time=0 actual_time=48456
type=note_on channel=9 note=40 velocity=0 time=0 actual_time=48456
type=note_on channel=9 note=40 velocity=80 time=24 actual_time=120
type: note_off, time: 24, actual_time: 216
type=note_on channel=9 note=40 velocity=80 time=0 actual_time=48480
type: note_off, time: 0, actual_time: 48576
type=note_on channel=9 note=40 velocity=80 time=0 actual_time=40
type: note_off, time: 0, actual_time: 136
type=note_on channel=9 note=35 velocity=0 time=96 actual_time=48576
type=note_on channel=9 note=59 velocity=0 time=0 actual_time=48576
type=note_on channel=9 note=53 velocity=0 time=0 actual_time=48576
type=note_on channel=9 note=64 velocity=80 time=24 actual_time=80
type: note_off, time: 24, actual_time: 176
type=note_on channel=9 note=40 velocity=80 time=0 actual_time=80
type: note_off, time: 0, actual_time: 176
type=note_on channel=9 note=40 velocity=80 time=0 actual_time=40
type: note_off, time: 0, actual_time: 136
type=note_on channel=9 note=53 velocity=0 time=96 actual_time=48696
type=note_on channel=9 note=40 velocity=0 time=0 actual_time=48696
type=note_on channel=9 note=59 velocity=0 time=0 actual_time=48696
type=note_on channel=9 note=40 velocity=80 time=24 actual_time=48720
type: note_off, time: 24, actual_time: 48784
type=note_on channel=9 note=53 velocity=80 time=0 actual_time=40
type: note_off, time: 0, actual_time: 104
type=note_on channel=9 note=53 velocity=0 time=64 actual_time=48784
type=note_on channel=9 note=59 velocity=0 time=0 actual_time=48784
type=note_on channel=9 note=35 velocity=80 time=16 actual_time=120
type: note_off, time: 16, actual_time: 152
type=note_on channel=9 note=35 velocity=0 time=32 actual_time=48832
type=note_on channel=9 note=58 velocity=80 time=8 actual_time=40
type: note_off, time: 8, actual_time: 136
type=note_on channel=9 note=40 velocity=80 time=0 actual_time=80
type: note_off, time: 0, actual_time: 176
type=note_on channel=9 note=40 velocity=80 time=0 actual_time=0
type: note_off, time: 0, actual_time: 96
type=note_on channel=9 note=40 velocity=0 time=96 actual_time=48936
type=note_on channel=9 note=53 velocity=0 time=0 actual_time=48936
type=note_on channel=9 note=59 velocity=0 time=0 actual_time=48936
type=note_on channel=9 note=40 velocity=80 time=24 actual_time=40
type: note_off, time: 24, actual_time: 136
type=note_on channel=9 note=40 velocity=80 time=0 actual_time=40
type: note_off, time: 0, actual_time: 136
type=note_on channel=9 note=40 velocity=80 time=0 actual_time=80
type: note_off, time: 0, actual_time: 176
type=note_on channel=9 note=40 velocity=80 time=0 actual_time=0
type: note_off, time: 0, actual_time: 96
type=note_on channel=9 note=53 velocity=0 time=96 actual_time=49056
type=note_on channel=9 note=59 velocity=0 time=0 actual_time=49056
type=note_on channel=9 note=35 velocity=0 time=0 actual_time=49056
type=note_on channel=9 note=49 velocity=0 time=0 actual_time=49056
type=note_on channel=9 note=40 velocity=80 time=24 actual_time=40
type: note_off, time: 24, actual_time: 136
type=note_on channel=9 note=40 velocity=80 time=0 actual_time=40
type: note_off, time: 0, actual_time: 136
type=note_on channel=9 note=53 velocity=80 time=0 actual_time=120
type: note_off, time: 0, actual_time: 216
type=note_on channel=9 note=53 velocity=0 time=96 actual_time=49176
type=note_on channel=9 note=40 velocity=0 time=0 actual_time=49176
type=note_on channel=9 note=59 velocity=0 time=0 actual_time=49176
type=note_on channel=9 note=40 velocity=80 time=24 actual_time=40
type: note_off, time: 24, actual_time: 104
type=note_on channel=9 note=40 velocity=80 time=0 actual_time=40
type: note_off, time: 0, actual_time: 104
type=note_on channel=9 note=53 velocity=0 time=64 actual_time=49264
type=note_on channel=9 note=59 velocity=0 time=0 actual_time=49264
type=note_on channel=9 note=40 velocity=80 time=16 actual_time=49280
type: note_off, time: 16, actual_time: 49312
type=note_on channel=9 note=35 velocity=0 time=32 actual_time=49312
type=note_on channel=9 note=40 velocity=80 time=8 actual_time=49320
type: note_off, time: 8, actual_time: 49416
type=note_on channel=9 note=40 velocity=80 time=0 actual_time=49320
type: note_off, time: 0, actual_time: 49416
type=note_on channel=9 note=40 velocity=80 time=0 actual_time=40
type: note_off, time: 0, actual_time: 136
type=note_on channel=9 note=40 velocity=0 time=96 actual_time=49416
type=note_on channel=9 note=53 velocity=0 time=0 actual_time=49416
type=note_on channel=9 note=59 velocity=0 time=0 actual_time=49416
type=note_on channel=9 note=62 velocity=80 time=24 actual_time=120
type: note_off, time: 24, actual_time: 184
type=note_on channel=9 note=40 velocity=80 time=0 actual_time=40
type: note_off, time: 0, actual_time: 104
type=note_on channel=9 note=40 velocity=80 time=0 actual_time=80
type: note_off, time: 0, actual_time: 144
type=note_on channel=9 note=35 velocity=0 time=64 actual_time=49504
type=note_on channel=9 note=53 velocity=0 time=0 actual_time=49504
type=note_on channel=9 note=59 velocity=0 time=0 actual_time=49504
type=note_on channel=9 note=31 velocity=80 time=16 actual_time=49520
type: note_off, time: 16, actual_time: 49552
type=note_on channel=9 note=35 velocity=0 time=32 actual_time=49552
type=note_on channel=9 note=40 velocity=80 time=8 actual_time=80
type: note_off, time: 8, actual_time: 176
type=note_on channel=9 note=53 velocity=80 time=0 actual_time=80
type: note_off, time: 0, actual_time: 176
type=note_on channel=9 note=40 velocity=80 time=0 actual_time=40
type: note_off, time: 0, actual_time: 136
type=note_on channel=9 note=40 velocity=80 time=0 actual_time=120
type: note_off, time: 0, actual_time: 216
type=note_on channel=9 note=49 velocity=0 time=96 actual_time=49656
type=note_on channel=9 note=59 velocity=0 time=0 actual_time=49656
type=note_on channel=9 note=53 velocity=0 time=0 actual_time=49656
type=note_on channel=9 note=40 velocity=0 time=0 actual_time=49656
type=note_on channel=9 note=40 velocity=80 time=24 actual_time=49680
type: note_off, time: 24, actual_time: 49744
type=note_on channel=9 note=40 velocity=80 time=0 actual_time=120
type: note_off, time: 0, actual_time: 184
type=note_on channel=9 note=40 velocity=80 time=0 actual_time=120
type: note_off, time: 0, actual_time: 184
type=note_on channel=9 note=35 velocity=0 time=64 actual_time=49744
type=note_on channel=9 note=53 velocity=0 time=0 actual_time=49744
type=note_on channel=9 note=59 velocity=0 time=0 actual_time=49744
type=note_on channel=9 note=40 velocity=80 time=16 actual_time=120
type: note_off, time: 16, actual_time: 152
type=note_on channel=9 note=35 velocity=0 time=32 actual_time=49792
type=note_on channel=9 note=40 velocity=80 time=8 actual_time=49800
type: note_off, time: 8, actual_time: 49896
type=note_on channel=9 note=40 velocity=80 time=0 actual_time=0
type: note_off, time: 0, actual_time: 96
type=note_on channel=9 note=40 velocity=80 time=0 actual_time=0
type: note_off, time: 0, actual_time: 96
type=note_on channel=9 note=40 velocity=80 time=0 actual_time=0
type: note_off, time: 0, actual_time: 96
type=note_on channel=9 note=49 velocity=0 time=96 actual_time=49896
type=note_on channel=9 note=59 velocity=0 time=0 actual_time=49896
type=note_on channel=9 note=53 velocity=0 time=0 actual_time=49896
type=note_on channel=9 note=40 velocity=0 time=0 actual_time=49896
type=note_on channel=9 note=40 velocity=80 time=24 actual_time=0
type: note_off, time: 24, actual_time: 96
type=note_on channel=9 note=40 velocity=80 time=0 actual_time=80
type: note_off, time: 0, actual_time: 176
type=note_on channel=9 note=35 velocity=80 time=0 actual_time=40
type: note_off, time: 0, actual_time: 136
type=note_on channel=9 note=59 velocity=80 time=0 actual_time=80
type: note_off, time: 0, actual_time: 176
type=note_on channel=9 note=59 velocity=0 time=96 actual_time=50016
type=note_on channel=9 note=53 velocity=0 time=0 actual_time=50016
type=note_on channel=9 note=49 velocity=0 time=0 actual_time=50016
type=note_on channel=9 note=35 velocity=0 time=0 actual_time=50016
type=note_on channel=9 note=53 velocity=80 time=24 actual_time=120
type: note_off, time: 24, actual_time: 216
type=note_on channel=9 note=40 velocity=80 time=0 actual_time=0
type: note_off, time: 0, actual_time: 96
type=note_on channel=9 note=40 velocity=80 time=0 actual_time=50040
type: note_off, time: 0, actual_time: 50136
type=note_on channel=9 note=59 velocity=0 time=96 actual_time=50136
type=note_on channel=9 note=40 velocity=0 time=0 actual_time=50136
type=note_on channel=9 note=53 velocity=0 time=0 actual_time=50136
type=note_on channel=9 note=40 velocity=80 time=24 actual_time=40
type: note_off, time: 24, actual_time: 104
type=note_on channel=9 note=40 velocity=80 time=0 actual_time=0
type: note_off, time: 0, actual_time: 64
type=note_on channel=9 note=59 velocity=0 time=64 actual_time=50224
type=note_on channel=9 note=53 velocity=0 time=0 actual_time=50224
type=note_on channel=9 note=40 velocity=80 time=16 actual_time=40
type: note_off, time: 16, actual_time: 72
type=note_on channel=9 note=35 velocity=0 time=32 actual_time=50272
type=note_on channel=9 note=40 velocity=80 time=8 actual_time=40
type: note_off, time: 8, actual_time: 136
type=note_on channel=9 note=40 velocity=80 time=0 actual_time=40
type: note_off, time: 0, actual_time: 136
type=note_on channel=9 note=59 velocity=80 time=0 actual_time=80
type: note_off, time: 0, actual_time: 176
type=note_on channel=9 note=59 velocity=0 time=96 actual_time=50376
type=note_on channel=9 note=53 velocity=0 time=0 actual_time=50376
type=note_on channel=9 note=40 velocity=0 time=0 actual_time=50376
type=note_on channel=9 note=40 velocity=80 time=24 actual_time=120
type: note_off, time: 24, actual_time: 216
type=note_on channel=9 note=40 velocity=80 time=0 actual_time=50400
type: note_off, time: 0, actual_time: 50496
type=note_on channel=9 note=35 velocity=80 time=0 actual_time=50400
type: note_off, time: 0, actual_time: 50496
type=note_on channel=9 note=35 velocity=0 time=96 actual_time=50496
type=note_on channel=9 note=59 velocity=0 time=0 actual_time=50496
type=note_on channel=9 note=53 velocity=0 time=0 actual_time=50496
type=note_on channel=9 note=40 velocity=80 time=24 actual_time=80
type: note_off, time: 24, actual_time: 176
type=note_on channel=9 note=36 velocity=80 time=0 actual_time=80
type: note_off, time: 0, actual_time: 176
type=note_on channel=9 note=53 velocity=80 time=0 actual_time=40
type: note_off, time: 0, actual_time: 136
type=note_on channel=9 note=53 velocity=0 time=96 actual_time=50616
type=note_on channel=9 note=40 velocity=0 time=0 actual_time=50616
type=note_on channel=9 note=59 velocity=0 time=0 actual_time=50616
type=note_on channel=9 note=63 velocity=80 time=24 actual_time=0
type: note_off, time: 24, actual_time: 64
type=note_on channel=9 note=53 velocity=80 time=0 actual_time=0
type: note_off, time: 0, actual_time: 64
type=note_on channel=9 note=53 velocity=0 time=64 actual_time=50704
type=note_on channel=9 note=59 velocity=0 time=0 actual_time=50704
type=note_on channel=9 note=35 velocity=80 time=16 actual_time=50720
type: note_off, time: 16, actual_time: 50752
type=note_on channel=9 note=35 velocity=0 time=32 actual_time=50752
type=note_on channel=9 note=40 velocity=80 time=8 actual_time=80
type: note_off, time: 8, actual_time: 176
type=note_on channel=9 note=40 velocity=80 time=0 actual_time=40
type: note_off, time: 0, actual_time: 136
type=note_on channel=9 note=40 velocity=80 time=0 actual_time=50760
type: note_off, time: 0, actual_time: 50856
type=note_on channel=9 note=40 velocity=0 time=96 actual_time=50856
type=note_on channel=9 note=53 velocity=0 time=0 actual_time=50856
type=note_on channel=9 note=59 velocity=0 time=0 actual_time=50856
type=note_on channel=9 note=40 velocity=80 time=24 actual_time=0
type: note_off, time: 24, actual_time: 96
type=note_on channel=9 note=40 velocity=80 time=0 actual_time=0
type: note_off, time: 0, actual_time: 96
type=note_on channel=9 note=40 velocity=80 time=0 actual_time=80
type: note_off, time: 0, actual_time: 176
type=note_on channel=9 note=40 velocity=80 time=0 actual_time=120
type: note_off, time: 0, actual_time: 216
type=note_on channel=9 note=53 velocity=0 time=96 actual_time=50976
type=note_on channel=9 note=59 velocity=0 time=0 actual_time=50976
type=note_on channel=9 note=35 velocity=0 time=0 actual_time=50976
type=note_on channel=9 note=49 velocity=0 time=0 actual_time=50976
type=note_on channel=9 note=40 velocity=80 time=24 actual_time=40
type: note_off, time: 24, actual_time: 136
type=note_on channel=9 note=40 velocity=80 time=0 actual_time=51000
type: note_off, time: 0, actual_time: 51096
type=note_on channel=9 note=40 velocity=80 time=0 actual_time=51000
type: note_off, time: 0, actual_time: 51096
type=note_on channel=9 note=53 velocity=0 time=96 actual_time=51096
type=note_on channel=9 note=40 velocity=0 time=0 actual_time=51096
type=note_on channel=9 note=59 velocity=0 time=0 actual_time=51096
type=note_on channel=9 note=64 velocity=80 time=24 actual_time=51120
type: note_off, time: 24, actual_time: 51184
type=note_on channel=9 note=56 velocity=80 time=0 actual_time=40
type: note_off, time: 0, actual_time: 104
type=note_on channel=9 note=53 velocity=0 time=64 actual_time=51184
type=note_on channel=9 note=59 velocity=0 time=0 actual_time=51184
type=note_on channel=9 note=40 velocity=80 time=16 actual_time=51200
type: note_off, time: 16, actual_time: 51232
type=note_on channel=9 note=35 velocity=0 time=32 actual_time=51232
type=note_on channel=9 note=40 velocity=80 time=8 actual_time=0
type: note_off, time: 8, actual_time: 96
type=note_on channel=9 note=40 velocity=80 time=0 actual_time=80
type: note_off, time: 0, actual_time: 176
type=note_on channel=9 note=40 velocity=80 time=0 actual_time=51240
type: note_off, time: 0, actual_time: 51336
type=note_on channel=9 note=40 velocity=0 time=96 actual_time=51336
type=note_on channel=9 note=53 velocity=0 time=0 actual_time=51336
type=note_on channel=9 note=59 velocity=0 time=0 actual_time=51336
type=note_on channel=9 note=40 velocity=80 time=24 actual_time=51360
type: note_off, time: 24, actual_time: 51424
type=note_on channel=9 note=40 velocity=80 time=0 actual_time=51360
type: note_off, time: 0, actual_time: 51424
type=note_on channel=9 note=40 velocity=80 time=0 actual_time=51360
type: note_off, time: 0, actual_time: 51424
type=note_on channel=9 note=35 velocity=0 time=64 actual_time=51424
type=note_on channel=9 note=53 velocity=0 time=0 actual_time=51424
type=note_on channel=9 note=59 velocity=0 time=0 actual_time=51424
type=note_on channel=9 note=40 velocity=80 time=16 actual_time=0
type: note_off, time: 16, actual_time: 32
type=note_on channel=9 note=35 velocity=0 time=32 actual_time=51472
type=note_on channel=9 note=40 velocity=80 time=8 actual_time=51480
type: note_off, time: 8, actual_time: 51576
type=note_on channel=9 note=40 velocity=80 time=0 actual_time=0
type: note_off, time: 0, actual_time: 96
type=note_on channel=9 note=36 velocity=80 time=0 actual_time=40
type: note_off, time: 0, actual_time: 136
type=note_on channel=9 note=40 velocity=80 time=0 actual_time=80
type: note_off, time: 0, actual_time: 176
type=note_on channel=9 note=49 velocity=0 time=96 actual_time=51576
type=note_on channel=9 note=59 velocity=0 time=0 actual_time=51576
type=note_on channel=9 note=53 velocity=0 time=0 actual_time=51576
type=note_on channel=9 note=40 velocity=0 time=0 actual_time=51576
type=note_on channel=9 note=40 velocity=80 time=24 actual_time=51600
type: note_off, time: 24, actual_time: 51664
type=note_on channel=9 note=53 velocity=80 time=0 actual_time=51600
type: note_off, time: 0, actual_time: 51664
type=note_on channel=9 note=40 velocity=80 time=0 actual_time=120
type: note_off, time: 0, actual_time: 184
type=note_on channel=9 note=35 velocity=0 time=64 actual_time=51664
type=note_on channel=9 note=53 velocity=0 time=0 actual_time=51664
type=note_on channel=9 note=59 velocity=0 time=0 actual_time=51664
type=note_on channel=9 note=40 velocity=80 time=16 actual_time=120
type: note_off, time: 16, actual_time: 152
type=note_on channel=9 note=35 velocity=0 time=32 actual_time=51712
type=note_on channel=9 note=40 velocity=80 time=8 actual_time=0
type: note_off, time: 8, actual_time: 96
type=note_on channel=9 note=40 velocity=80 time=0 actual_time=120
type: note_off, time: 0, actual_time: 216
type=note_on channel=9 note=40 velocity=80 time=0 actual_time=80
type: note_off, time: 0, actual_time: 176
type=note_on channel=9 note=54 velocity=80 time=0 actual_time=51720
type: note_off, time: 0, actual_time: 51816
type=note_on channel=9 note=49 velocity=0 time=96 actual_time=51816
type=note_on channel=9 note=59 velocity=0 time=0 actual_time=51816
type=note_on channel=9 note=53 velocity=0 time=0 actual_time=51816
type=note_on channel=9 note=40 velocity=0 time=0 actual_time=51816
type=note_on channel=9 note=61 velocity=80 time=24 actual_time=40
type: note_off, time: 24, actual_time: 136
type=note_on channel=9 note=35 velocity=80 time=0 actual_time=51840
type: note_off, time: 0, actual_time: 51936
type=note_on channel=9 note=40 velocity=80 time=0 actual_time=80
type: note_off, time: 0, actual_time: 176
type=note_on channel=9 note=40 velocity=80 time=0 actual_time=51840
type: note_off, time: 0, actual_time: 51936
type=note_on channel=9 note=53 velocity=0 time=96 actual_time=51936
type=note_on channel=9 note=59 velocity=0 time=0 actual_time=51936
type=note_on channel=9 note=35 velocity=0 time=0 actual_time=51936
type=note_on channel=9 note=49 velocity=0 time=0 actual_time=51936
type=note_on channel=9 note=58 velocity=80 time=24 actual_time=51960
type: note_off, time: 24, actual_time: 52056
type=note_on channel=9 note=40 velocity=80 time=0 actual_time=80
type: note_off, time: 0, actual_time: 176
type=note_on channel=9 note=40 velocity=80 time=0 actual_time=0
type: note_off, time: 0, actual_time: 96
type=note_on channel=9 note=53 velocity=0 time=96 actual_time=52056
type=note_on channel=9 note=40 velocity=0 time=0 actual_time=52056
type=note_on channel=9 note=59 velocity=0 time=0 actual_time=52056
type=note_on channel=9 note=40 velocity=80 time=24 actual_time=0
type: note_off, time: 24, actual_time: 64
type=note_on channel=9 note=40 velocity=80 time=0 actual_time=40
type: note_off, time: 0, actual_time: 104
type=note_on channel=9 note=53 velocity=0 time=64 actual_time=52144
type=note_on channel=9 note=59 velocity=0 time=0 actual_time=52144
type=note_on channel=9 note=40 velocity=80 time=16 actual_time=0
type: note_off, time: 16, actual_time: 32
type=note_on channel=9 note=35 velocity=0 time=32 actual_time=52192
type=note_on channel=9 note=40 velocity=80 time=8 actual_time=120
type: note_off, time: 8, actual_time: 216
type=note_on channel=9 note=53 velocity=80 time=0 actual_time=52200
type: note_off, time: 0, actual_time: 52296
type=note_on channel=9 note=40 velocity=80 time=0 actual_time=52200
type: note_off, time: 0, actual_time: 52296
type=note_on channel=9 note=40 velocity=0 time=96 actual_time=52296
type=note_on channel=9 note=53 velocity=0 time=0 actual_time=52296
type=note_on channel=9 note=59 velocity=0 time=0 actual_time=52296
type=note_on channel=9 note=40 velocity=80 time=24 actual_time=80
type: note_off, time: 24, actual_time: 176
type=note_on channel=9 note=40 velocity=80 time=0 actual_time=80
type: note_off, time: 0, actual_time: 176
type=note_on channel=9 note=40 velocity=80 time=0 actual_time=80
type: note_off, time: 0, actual_time: 176
type=note_on channel=9 note=53 velocity=0 time=96 actual_time=52416
type=note_on channel=9 note=59 velocity=0 time=0 actual_time=52416
type=note_on channel=9 note=35 velocity=0 time=0 actual_time=52416
type=note_on channel=9 note=40 velocity=80 time=24 actual_time=80
type: note_off, time: 24, actual_time: 176
type=note_on channel=9 note=40 velocity=80 time=0 actual_time=0
type: note_off, time: 0, actual_time: 96
type=note_on channel=9 note=56 velocity=80 time=0 actual_time=0
type: note_off, time: 0, actual_time: 96
type=note_on channel=9 note=59 velocity=0 time=96 actual_time=52536
type=note_on channel=9 note=40 velocity=0 time=0 actual_time=52536
type=note_on channel=9 note=53 velocity=0 time=0 actual_time=52536
type=note_on channel=9 note=53 velocity=80 time=24 actual_time=40
type: note_off, time: 24, actual_time: 104
type=note_on channel=9 note=60 velocity=80 time=0 actual_time=80
type: note_off, time: 0, actual_time: 144
type=note_on channel=9 note=59 velocity=0 time=64 actual_time=52624
type=note_on channel=9 note=53 velocity=0 time=0 actual_time=52624
type=note_on channel=9 note=40 velocity=80 time=16 actual_time=52640
type: note_off, time: 16, actual_time: 52672
type=note_on channel=9 note=35 velocity=0 time=32 actual_time=52672
type=note_on channel=9 note=40 velocity=80 time=8 actual_time=0
type: note_off, time: 8, actual_time: 96
type=note_on channel=9 note=40 velocity=80 time=0 actual_time=0
type: note_off, time: 0, actual_time: 96
type=note_on channel=9 note=40 velocity=80 time=0 actual_time=120
type: note_off, time: 0, actual_time: 216
type=note_on channel=9 note=59 velocity=0 time=96 actual_time=52776
type=note_on channel=9 note=53 velocity=0 time=0 actual_time=52776
type=note_on channel=9 note=40 velocity=0 time=0 actual_time=52776
type=note_on channel=9 note=40 velocity=80 time=24 actual_time=80
type: note_off, time: 24, actual_time: 176
type=note_on channel=9 note=40 velocity=80 time=0 actual_time=52800
type: note_off, time: 0, actual_time: 52896
type=note_on channel=9 note=40 velocity=80 time=0 actual_time=80
type: note_off, time: 0, actual_time: 176
type=note_on channel=9 note=40 velocity=80 time=0 actual_time=40
type: note_off, time: 0, actual_time: 136
type=note_on channel=9 note=53 velocity=0 time=96 actual_time=52896
type=note_on channel=9 note=59 velocity=0 time=0 actual_time=52896
type=note_on channel=9 note=35 velocity=0 time=0 actual_time=52896
type=note_on channel=9 note=49 velocity=0 time=0 actual_time=52896
type=note_on channel=9 note=40 velocity=80 time=24 actual_time=80
type: note_off, time: 24, actual_time: 176
type=note_on channel=9 note=40 velocity=80 time=0 actual_time=40
type: note_off, time: 0, actual_time: 136
type=note_on channel=9 note=40 velocity=80 time=0 actual_time=52920
type: note_off, time: 0, actual_time: 53016
type=note_on channel=9 note=53 velocity=0 time=96 actual_time=53016
type=note_on channel=9 note=40 velocity=0 time=0 actual_time=53016
type=note_on channel=9 note=59 velocity=0 time=0 actual_time=53016
type=note_on channel=9 note=59 velocity=80 time=24 actual_time=40
type: note_off, time: 24, actual_time: 104
type=note_on channel=9 note=53 velocity=80 time=0 actual_time=120
type: note_off, time: 0, actual_time: 184
type=note_on channel=9 note=53 velocity=0 time=64 actual_time=53104
type=note_on channel=9 note=59 velocity=0 time=0 actual_time=53104
type=note_on channel=9 note=35 velocity=80 time=16 actual_time=40
type: note_off, time: 16, actual_time: 72
type=note_on channel=9 note=35 velocity=0 time=32 actual_time=53152
type=note_on channel=9 note=59 velocity=80 time=8 actual_time=53160
type: note_off, time: 8, actual_time: 53256
type=note_on channel=9 note=40 velocity=80 time=0 actual_time=53160
type: note_off, time: 0, actual_time: 53256
type=note_on channel=9 note=40 velocity=80 time=0 actual_time=0
type: note_off, time: 0, actual_time: 96
type=note_on channel=9 note=40 velocity=0 time=96 actual_time=53256
type=note_on channel=9 note=53 velocity=0 time=0 actual_time=53256
type=note_on channel=9 note=59 velocity=0 time=0 actual_time=53256
type=note_on channel=9 note=40 velocity=80 time=24 actual_time=53280
type: note_off, time: 24, actual_time: 53376
type=note_on channel=9 note=40 velocity=80 time=0 actual_time=80
type: note_off, time: 0, actual_time: 176
type=note_on channel=9 note=40 velocity=80 time=0 actual_time=40
type: note_off, time: 0, actual_time: 136
type=note_on channel=9 note=53 velocity=0 time=96 actual_time=53376
type=note_on channel=9 note=35 velocity=0 time=0 actual_time=53376
type=note_on channel=9 note=59 velocity=0 time=0 actual_time=53376
type=note_on channel=9 note=40 velocity=80 time=24 actual_time=120
type: note_off, time: 24, actual_time: 216
type=note_on channel=9 note=40 velocity=80 time=0 actual_time=53400
type: note_off, time: 0, actual_time: 53496
type=note_on channel=9 note=40 velocity=80 time=0 actual_time=120
type: note_off, time: 0, actual_time: 216
type=note_on channel=9 note=40 velocity=0 time=96 actual_time=53496
type=note_on channel=9 note=59 velocity=0 time=0 actual_time=53496
type=note_on channel=9 note=53 velocity=0 time=0 actual_time=53496
type=note_on channel=9 note=40 velocity=80 time=24 actual_time=120
type: note_off, time: 24, actual_time: 152
type=note_on channel=9 note=40 velocity=80 time=0 actual_time=80
type: note_off, time: 0, actual_time: 112
type=note_on channel=9 note=40 velocity=0 time=32 actual_time=53552
type=note_on channel=9 note=47 velocity=0 time=0 actual_time=53552
type=note_on channel=9 note=45 velocity=80 time=8 actual_time=40
type: note_off, time: 8, actual_time: 72
type=note_on channel=9 note=45 velocity=0 time=32 actual_time=53592
type=note_on channel=9 note=45 velocity=80 time=8 actual_time=53600
type: note_off, time: 8, actual_time: 53632
type=note_on channel=9 note=43 velocity=0 time=32 actual_time=53632
type=note_on channel=9 note=41 velocity=80 time=8 actual_time=120
type: note_off, time: 8, actual_time: 312
type=note_on channel=9 note=49 velocity=80 time=120 actual_time=0
type: note_off, time: 120, actual_time: 96
type=note_on channel=9 note=40 velocity=80 time=0 actual_time=40
type: note_off, time: 0, actual_time: 136
type=note_on channel=9 note=53 velocity=80 time=0 actual_time=80
type: note_off, time: 0, actual_time: 176
type=note_on channel=9 note=41 velocity=0 time=72 actual_time=53832
type=note_on channel=9 note=49 velocity=0 time=24 actual_time=53856
type=note_on channel=9 note=35 velocity=0 time=0 actual_time=53856
type=note_on channel=9 note=53 velocity=0 time=0 actual_time=53856
type=note_on channel=9 note=40 velocity=80 time=24 actual_time=40
type: note_off, time: 24, actual_time: 136
type=note_on channel=9 note=40 velocity=80 time=0 actual_time=80
type: note_off, time: 0, actual_time: 176
type=note_on channel=9 note=53 velocity=0 time=96 actual_time=53976
type=note_on channel=9 note=40 velocity=0 time=0 actual_time=53976
type=note_on channel=9 note=53 velocity=80 time=24 actual_time=54000
type: note_off, time: 24, actual_time: 54064
type=note_on channel=9 note=53 velocity=0 time=64 actual_time=54064
type=note_on channel=9 note=40 velocity=80 time=16 actual_time=120
type: note_off, time: 16, actual_time: 152
type=note_on channel=9 note=35 velocity=0 time=32 actual_time=54112
type=note_on channel=9 note=40 velocity=80 time=8 actual_time=80
type: note_off, time: 8, actual_time: 176
type=note_on channel=9 note=40 velocity=80 time=0 actual_time=54120
type: note_off, time: 0, actual_time: 54216
type=note_on channel=9 note=53 velocity=0 time=96 actual_time=54216
type=note_on channel=9 note=40 velocity=0 time=0 actual_time=54216
type=note_on channel=9 note=40 velocity=80 time=24 actual_time=54240
type: note_off, time: 24, actual_time: 54336
type=note_on channel=9 note=35 velocity=80 time=0 actual_time=54240
type: note_off, time: 0, actual_time: 54336
type=note_on channel=9 note=35 velocity=0 time=96 actual_time=54336
type=note_on channel=9 note=53 velocity=0 time=0 actual_time=54336
type=note_on channel=9 note=40 velocity=80 time=24 actual_time=40
type: note_off, time: 24, actual_time: 136
type=note_on channel=9 note=40 velocity=80 time=0 actual_time=0
type: note_off, time: 0, actual_time: 96
type=note_on channel=9 note=40 velocity=0 time=96 actual_time=54456
type=note_on channel=9 note=53 velocity=0 time=0 actual_time=54456
type=note_on channel=9 note=53 velocity=80 time=24 actual_time=54480
type: note_off, time: 24, actual_time: 54544
type=note_on channel=9 note=53 velocity=0 time=64 actual_time=54544
type=note_on channel=9 note=40 velocity=80 time=16 actual_time=120
type: note_off, time: 16, actual_time: 152
type=note_on channel=9 note=35 velocity=0 time=32 actual_time=54592
type=note_on channel=9 note=40 velocity=80 time=8 actual_time=80
type: note_off, time: 8, actual_time: 176
type=note_on channel=9 note=40 velocity=80 time=0 actual_time=120
type: note_off, time: 0, actual_time: 216
type=note_on channel=9 note=53 velocity=0 time=96 actual_time=54696
type=note_on channel=9 note=40 velocity=0 time=0 actual_time=54696
type=note_on channel=9 note=40 velocity=80 time=24 actual_time=80
type: note_off, time: 24, actual_time: 176
type=note_on channel=9 note=40 velocity=80 time=0 actual_time=80
type: note_off, time: 0, actual_time: 176
type=note_on channel=9 note=40 velocity=80 time=0 actual_time=80
type: note_off, time: 0, actual_time: 176
type=note_on channel=9 note=53 velocity=0 time=96 actual_time=54816
type=note_on channel=9 note=35 velocity=0 time=0 actual_time=54816
type=note_on channel=9 note=49 velocity=0 time=0 actual_time=54816
type=note_on channel=9 note=40 velocity=80 time=24 actual_time=54840
type: note_off, time: 24, actual_time: 54936
type=note_on channel=9 note=40 velocity=80 time=0 actual_time=0
type: note_off, time: 0, actual_time: 96
type=note_on channel=9 note=40 velocity=0 time=96 actual_time=54936
type=note_on channel=9 note=53 velocity=0 time=0 actual_time=54936
type=note_on channel=9 note=57 velocity=80 time=24 actual_time=80
type: note_off, time: 24, actual_time: 144
type=note_on channel=9 note=53 velocity=0 time=64 actual_time=55024
type=note_on channel=9 note=40 velocity=80 time=16 actual_time=40
type: note_off, time: 16, actual_time: 72
type=note_on channel=9 note=35 velocity=0 time=32 actual_time=55072
type=note_on channel=9 note=53 velocity=80 time=8 actual_time=55080
type: note_off, time: 8, actual_time: 55176
type=note_on channel=9 note=40 velocity=80 time=0 actual_time=55080
type: note_off, time: 0, actual_time: 55176
type=note_on channel=9 note=40 velocity=0 time=96 actual_time=55176
type=note_on channel=9 note=53 velocity=0 time=0 actual_time=55176
type=note_on channel=9 note=40 velocity=80 time=24 actual_time=120
type: note_off, time: 24, actual_time: 216
type=note_on channel=9 note=40 velocity=80 time=0 actual_time=0
type: note_off, time: 0, actual_time: 96
type=note_on channel=9 note=53 velocity=0 time=96 actual_time=55296
type=note_on channel=9 note=35 velocity=0 time=0 actual_time=55296
type=note_on channel=9 note=40 velocity=80 time=24 actual_time=55320
type: note_off, time: 24, actual_time: 55416
type=note_on channel=9 note=53 velocity=80 time=0 actual_time=40
type: note_off, time: 0, actual_time: 136
type=note_on channel=9 note=40 velocity=80 time=0 actual_time=0
type: note_off, time: 0, actual_time: 96
type=note_on channel=9 note=40 velocity=0 time=96 actual_time=55416
type=note_on channel=9 note=53 velocity=0 time=0 actual_time=55416
type=note_on channel=9 note=49 velocity=0 time=0 actual_time=55416
type=note_on channel=9 note=53 velocity=80 time=24 actual_time=55440
type: note_off, time: 24, actual_time: 55504
type=note_on channel=9 note=53 velocity=0 time=64 actual_time=55504
type=note_on channel=9 note=40 velocity=80 time=16 actual_time=0
type: note_off, time: 16, actual_time: 32
type=note_on channel=9 note=35 velocity=0 time=32 actual_time=55552
type=note_on channel=9 note=40 velocity=80 time=8 actual_time=40
type: note_off, time: 8, actual_time: 136
type=note_on channel=9 note=40 velocity=80 time=0 actual_time=40
type: note_off, time: 0, actual_time: 136
type=note_on channel=9 note=40 velocity=80 time=0 actual_time=80
type: note_off, time: 0, actual_time: 176
type=note_on channel=9 note=49 velocity=0 time=96 actual_time=55656
type=note_on channel=9 note=53 velocity=0 time=0 actual_time=55656
type=note_on channel=9 note=40 velocity=0 time=0 actual_time=55656
type=note_on channel=9 note=40 velocity=80 time=24 actual_time=0
type: note_off, time: 24, actual_time: 96
type=note_on channel=9 note=40 velocity=80 time=0 actual_time=120
type: note_off, time: 0, actual_time: 216
type=note_on channel=9 note=35 velocity=0 time=96 actual_time=55776
type=note_on channel=9 note=53 velocity=0 time=0 actual_time=55776
type=note_on channel=9 note=53 velocity=80 time=24 actual_time=40
type: note_off, time: 24, actual_time: 136
type=note_on channel=9 note=40 velocity=80 time=0 actual_time=80
type: note_off, time: 0, actual_time: 176
type=note_on channel=9 note=40 velocity=0 time=96 actual_time=55896
type=note_on channel=9 note=53 velocity=0 time=0 actual_time=55896
type=note_on channel=9 note=40 velocity=80 time=24 actual_time=40
type: note_off, time: 24, actual_time: 104
type=note_on channel=9 note=53 velocity=0 time=64 actual_time=55984
type=note_on channel=9 note=35 velocity=80 time=16 actual_time=120
type: note_off, time: 16, actual_time: 152
type=note_on channel=9 note=35 velocity=0 time=32 actual_time=56032
type=note_on channel=9 note=40 velocity=80 time=8 actual_time=80
type: note_off, time: 8, actual_time: 176
type=note_on channel=9 note=53 velocity=80 time=0 actual_time=120
type: note_off, time: 0, actual_time: 216
type=note_on channel=9 note=53 velocity=0 time=96 actual_time=56136
type=note_on channel=9 note=40 velocity=0 time=0 actual_time=56136
type=note_on channel=9 note=40 velocity=80 time=24 actual_time=56160
type: note_off, time: 24, actual_time: 56256
type=note_on channel=9 note=40 velocity=80 time=0 actual_time=40
type: note_off, time: 0, actual_time: 136
type=note_on channel=9 note=35 velocity=0 time=96 actual_time=56256
type=note_on channel=9 note=53 velocity=0 time=0 actual_time=56256
type=note_on channel=9 note=40 velocity=80 time=24 actual_time=56280
type: note_off, time: 24, actual_time: 56376
type=note_on channel=9 note=53 velocity=80 time=0 actual_time=56280
type: note_off, time: 0, actual_time: 56376
type=note_on channel=9 note=53 velocity=0 time=96 actual_time=56376
type=note_on channel=9 note=40 velocity=0 time=0 actual_time=56376
type=note_on channel=9 note=40 velocity=80 time=24 actual_time=56400
type: note_off, time: 24, actual_time: 56464
type=note_on channel=9 note=53 velocity=0 time=64 actual_time=56464
type=note_on channel=9 note=35 velocity=80 time=16 actual_time=0
type: note_off, time: 16, actual_time: 32
type=note_on channel=9 note=35 velocity=0 time=32 actual_time=56512
type=note_on channel=9 note=40 velocity=80 time=8 actual_time=40
type: note_off, time: 8, actual_time: 136
type=note_on channel=9 note=40 velocity=80 time=0 actual_time=0
type: note_off, time: 0, actual_time: 96
type=note_on channel=9 note=40 velocity=0 time=96 actual_time=56616
type=note_on channel=9 note=53 velocity=0 time=0 actual_time=56616
type=note_on channel=9 note=53 velocity=80 time=24 actual_time=80
type: note_off, time: 24, actual_time: 176
type=note_on channel=9 note=40 velocity=80 time=0 actual_time=120
type: note_off, time: 0, actual_time: 216
type=note_on channel=9 note=40 velocity=80 time=0 actual_time=0
type: note_off, time: 0, actual_time: 96
type=note_on channel=9 note=49 velocity=0 time=96 actual_time=56736
type=note_on channel=9 note=35 velocity=0 time=0 actual_time=56736
type=note_on channel=9 note=53 velocity=0 time=0 actual_time=56736
type=note_on channel=9 note=58 velocity=80 time=24 actual_time=120
type: note_off, time: 24, actual_time: 216
type=note_on channel=9 note=40 velocity=80 time=0 actual_time=56760
type: note_off, time: 0, actual_time: 56856
type=note_on channel=9 note=40 velocity=0 time=96 actual_time=56856
type=note_on channel=9 note=53 velocity=0 time=0 actual_time=56856
type=note_on channel=9 note=40 velocity=80 time=24 actual_time=80
type: note_off, time: 24, actual_time: 144
type=note_on channel=9 note=53 velocity=0 time=64 actual_time=56944
type=note_on channel=9 note=40 velocity=80 time=16 actual_time=0
type: note_off, time: 16, actual_time: 32
type=note_on channel=9 note=35 velocity=0 time=32 actual_time=56992
type=note_on channel=9 note=40 velocity=80 time=8 actual_time=0
type: note_off, time: 8, actual_time: 96
type=note_on channel=9 note=40 velocity=80 time=0 actual_time=57000
type: note_off, time: 0, actual_time: 57096
type=note_on channel=9 note=53 velocity=0 time=96 actual_time=57096
type=note_on channel=9 note=40 velocity=0 time=0 actual_time=57096
type=note_on channel=9 note=40 velocity=80 time=24 actual_time=0
type: note_off, time: 24, actual_time: 96
type=note_on channel=9 note=40 velocity=80 time=0 actual_time=120
type: note_off, time: 0, actual_time: 216
type=note_on channel=9 note=53 velocity=0 time=96 actual_time=57216
type=note_on channel=9 note=35 velocity=0 time=0 actual_time=57216
type=note_on channel=9 note=40 velocity=80 time=24 actual_time=120
type: note_off, time: 24, actual_time: 216
type=note_on channel=9 note=40 velocity=80 time=0 actual_time=120
type: note_off, time: 0, actual_time: 216
type=note_on channel=9 note=40 velocity=80 time=0 actual_time=120
type: note_off, time: 0, actual_time: 216
type=note_on channel=9 note=53 velocity=0 time=96 actual_time=57336
type=note_on channel=9 note=40 velocity=0 time=0 actual_time=57336
type=note_on channel=9 note=49 velocity=0 time=0 actual_time=57336
type=note_on channel=9 note=40 velocity=80 time=24 actual_time=57360
type: note_off, time: 24, actual_time: 57424
type=note_on channel=9 note=53 velocity=0 time=64 actual_time=57424
type=note_on channel=9 note=35 velocity=80 time=16 actual_time=0
type: note_off, time: 16, actual_time: 32
type=note_on channel=9 note=35 velocity=0 time=32 actual_time=57472
type=note_on channel=9 note=54 velocity=80 time=8 actual_time=80
type: note_off, time: 8, actual_time: 176
type=note_on channel=9 note=40 velocity=80 time=0 actual_time=0
type: note_off, time: 0, actual_time: 96
type=note_on channel=9 note=40 velocity=80 time=0 actual_time=57480
type: note_off, time: 0, actual_time: 57576
type=note_on channel=9 note=40 velocity=0 time=96 actual_time=57576
type=note_on channel=9 note=53 velocity=0 time=0 actual_time=57576
type=note_on channel=9 note=49 velocity=0 time=0 actual_time=57576
type=note_on channel=9 note=35 velocity=80 time=24 actual_time=57600
type: note_off, time: 24, actual_time: 57696
type=note_on channel=9 note=40 velocity=80 time=0 actual_time=0
type: note_off, time: 0, actual_time: 96
type=note_on channel=9 note=53 velocity=0 time=96 actual_time=57696
type=note_on channel=9 note=35 velocity=0 time=0 actual_time=57696
type=note_on channel=9 note=40 velocity=80 time=24 actual_time=0
type: note_off, time: 24, actual_time: 96
type=note_on channel=9 note=40 velocity=80 time=0 actual_time=0
type: note_off, time: 0, actual_time: 96
type=note_on channel=9 note=53 velocity=0 time=96 actual_time=57816
type=note_on channel=9 note=40 velocity=0 time=0 actual_time=57816
type=note_on channel=9 note=40 velocity=80 time=24 actual_time=57840
type: note_off, time: 24, actual_time: 57904
type=note_on channel=9 note=53 velocity=0 time=64 actual_time=57904
type=note_on channel=9 note=40 velocity=80 time=16 actual_time=120
type: note_off, time: 16, actual_time: 152
type=note_on channel=9 note=35 velocity=0 time=32 actual_time=57952
type=note_on channel=9 note=40 velocity=80 time=8 actual_time=57960
type: note_off, time: 8, actual_time: 58056
type=note_on channel=9 note=40 velocity=80 time=0 actual_time=40
type: note_off, time: 0, actual_time: 136
type=note_on channel=9 note=40 velocity=0 time=96 actual_time=58056
type=note_on channel=9 note=53 velocity=0 time=0 actual_time=58056
type=note_on channel=9 note=40 velocity=80 time=24 actual_time=80
type: note_off, time: 24, actual_time: 176
type=note_on channel=9 note=40 velocity=80 time=0 actual_time=58080
type: note_off, time: 0, actual_time: 58176
type=note_on channel=9 note=35 velocity=0 time=96 actual_time=58176
type=note_on channel=9 note=53 velocity=0 time=0 actual_time=58176
type=note_on channel=9 note=40 velocity=80 time=24 actual_time=58200
type: note_off, time: 24, actual_time: 58296
type=note_on channel=9 note=40 velocity=80 time=0 actual_time=0
type: note_off, time: 0, actual_time: 96
type=note_on channel=9 note=40 velocity=0 time=96 actual_time=58296
type=note_on channel=9 note=53 velocity=0 time=0 actual_time=58296
type=note_on channel=9 note=53 velocity=80 time=24 actual_time=0
type: note_off, time: 24, actual_time: 64
type=note_on channel=9 note=53 velocity=0 time=64 actual_time=58384
type=note_on channel=9 note=40 velocity=80 time=16 actual_time=120
type: note_off, time: 16, actual_time: 152
type=note_on channel=9 note=35 velocity=0 time=32 actual_time=58432
type=note_on channel=9 note=40 velocity=80 time=8 actual_time=40
type: note_off, time: 8, actual_time: 136
type=note_on channel=9 note=40 velocity=80 time=0 actual_time=0
type: note_off, time: 0, actual_time: 96
type=note_on channel=9 note=53 velocity=0 time=96 actual_time=58536
type=note_on channel=9 note=40 velocity=0 time=0 actual_time=58536
type=note_on channel=9 note=49 velocity=80 time=24 actual_time=58560
type: note_off, time: 24, actual_time: 58656
type=note_on channel=9 note=40 velocity=80 time=0 actual_time=0
type: note_off, time: 0, actual_time: 96
type=note_on channel=9 note=58 velocity=80 time=0 actual_time=120
type: note_off, time: 0, actual_time: 216
type=note_on channel=9 note=53 velocity=0 time=96 actual_time=58656
type=note_on channel=9 note=35 velocity=0 time=0 actual_time=58656
type=note_on channel=9 note=49 velocity=0 time=0 actual_time=58656
type=note_on channel=9 note=40 velocity=80 time=24 actual_time=120
type: note_off, time: 24, actual_time: 216
type=note_on channel=9 note=40 velocity=80 time=0 actual_time=40
type: note_off, time: 0, actual_time: 136
type=note_on channel=9 note=53 velocity=0 time=96 actual_time=58776
type=note_on channel=9 note=40 velocity=0 time=0 actual_time=58776
type=note_on channel=9 note=52 velocity=80 time=24 actual_time=120
type: note_off, time: 24, actual_time: 184
type=note_on channel=9 note=53 velocity=0 time=64 actual_time=58864
type=note_on channel=9 note=33 velocity=80 time=16 actual_time=58880
type: note_off, time: 16, actual_time: 58912
type=note_on channel=9 note=35 velocity=0 time=32 actual_time=58912
type=note_on channel=9 note=53 velocity=80 time=8 actual_time=120
type: note_off, time: 8, actual_time: 216
type=note_on channel=9 note=40 velocity=80 time=0 actual_time=80
type: note_off, time: 0, actual_time: 176
type=note_on channel=9 note=40 velocity=0 time=96 actual_time=59016
type=note_on channel=9 note=53 velocity=0 time=0 actual_time=59016
type=note_on channel=9 note=40 velocity=80 time=24 actual_time=120
type: note_off, time: 24, actual_time: 216
type=note_on channel=9 note=40 velocity=80 time=0 actual_time=120
type: note_off, time: 0, actual_time: 216
type=note_on channel=9 note=35 velocity=0 time=96 actual_time=59136
type=note_on channel=9 note=53 velocity=0 time=0 actual_time=59136
type=note_on channel=9 note=40 velocity=80 time=24 actual_time=80
type: note_off, time: 24, actual_time: 176
type=note_on channel=9 note=40 velocity=80 time=0 actual_time=120
type: note_off, time: 0, actual_time: 216
type=note_on channel=9 note=40 velocity=80 time=0 actual_time=59160
type: note_off, time: 0, actual_time: 59256
type=note_on channel=9 note=49 velocity=0 time=96 actual_time=59256
type=note_on channel=9 note=40 velocity=0 time=0 actual_time=59256
type=note_on channel=9 note=53 velocity=0 time=0 actual_time=59256
type=note_on channel=9 note=40 velocity=80 time=24 actual_time=40
type: note_off, time: 24, actual_time: 104
type=note_on channel=9 note=53 velocity=0 time=64 actual_time=59344
type=note_on channel=9 note=35 velocity=80 time=16 actual_time=59360
type: note_off, time: 16, actual_time: 59392
type=note_on channel=9 note=35 velocity=0 time=32 actual_time=59392
type=note_on channel=9 note=40 velocity=80 time=8 actual_time=0
type: note_off, time: 8, actual_time: 96
type=note_on channel=9 note=40 velocity=80 time=0 actual_time=80
type: note_off, time: 0, actual_time: 176
type=note_on channel=9 note=40 velocity=80 time=0 actual_time=59400
type: note_off, time: 0, actual_time: 59496
type=note_on channel=9 note=49 velocity=0 time=96 actual_time=59496
type=note_on channel=9 note=53 velocity=0 time=0 actual_time=59496
type=note_on channel=9 note=40 velocity=0 time=0 actual_time=59496
type=note_on channel=9 note=40 velocity=80 time=24 actual_time=80
type: note_off, time: 24, actual_time: 176
type=note_on channel=9 note=40 velocity=80 time=0 actual_time=120
type: note_off, time: 0, actual_time: 216
type=note_on channel=9 note=35 velocity=0 time=96 actual_time=59616
type=note_on channel=9 note=53 velocity=0 time=0 actual_time=59616
type=note_on channel=9 note=40 velocity=80 time=24 actual_time=0
type: note_off, time: 24, actual_time: 96
type=note_on channel=9 note=40 velocity=80 time=0 actual_time=120
type: note_off, time: 0, actual_time: 216
type=note_on channel=9 note=40 velocity=0 time=96 actual_time=59736
type=note_on channel=9 note=53 velocity=0 time=0 actual_time=59736
type=note_on channel=9 note=40 velocity=80 time=24 actual_time=120
type: note_off, time: 24, actual_time: 184
type=note_on channel=9 note=53 velocity=0 time=64 actual_time=59824
type=note_on channel=9 note=40 velocity=80 time=16 actual_time=80
type: note_off, time: 16, actual_time: 112
type=note_on channel=9 note=35 velocity=0 time=32 actual_time=59872
type=note_on channel=9 note=40 velocity=80 time=8 actual_time=120
type: note_off, time: 8, actual_time: 216
type=note_on channel=9 note=40 velocity=80 time=0 actual_time=59880
type: note_off, time: 0, actual_time: 59976
type=note_on channel=9 note=53 velocity=0 time=96 actual_time=59976
type=note_on channel=9 note=40 velocity=0 time=0 actual_time=59976
type=note_on channel=9 note=40 velocity=80 time=24 actual_time=80
type: note_off, time: 24, actual_time: 176
type=note_on channel=9 note=40 velocity=80 time=0 actual_time=120
type: note_off, time: 0, actual_time: 216
type=note_on channel=9 note=35 velocity=0 time=96 actual_time=60096
type=note_on channel=9 note=53 velocity=0 time=0 actual_time=60096
type=note_on channel=9 note=53 velocity=80 time=24 actual_time=60120
type: note_off, time: 24, actual_time: 60216
type=note_on channel=9 note=40 velocity=80 time=0 actual_time=60120
type: note_off, time: 0, actual_time: 60216
type=note_on channel=9 note=40 velocity=0 time=96 actual_time=60216
type=note_on channel=9 note=53 velocity=0 time=0 actual_time=60216
type=note_on channel=9 note=53 velocity=80 time=24 actual_time=80
type: note_off, time: 24, actual_time: 144
type=note_on channel=9 note=53 velocity=0 time=64 actual_time=60304
type=note_on channel=9 note=40 velocity=80 time=16 actual_time=80
type: note_off, time: 16, actual_time: 112
type=note_on channel=9 note=35 velocity=0 time=32 actual_time=60352
type=note_on channel=9 note=40 velocity=80 time=8 actual_time=40
type: note_off, time: 8, actual_time: 136
type=note_on channel=9 note=41 velocity=80 time=0 actual_time=80
type: note_off, time: 0, actual_time: 176
type=note_on channel=9 note=40 velocity=0 time=96 actual_time=60456
type=note_on channel=9 note=53 velocity=0 time=0 actual_time=60456
type=note_on channel=9 note=40 velocity=80 time=24 actual_time=0
type: note_off, time: 24, actual_time: 96
type=note_on channel=9 note=35 velocity=80 time=0 actual_time=80
type: note_off, time: 0, actual_time: 176
type=note_on channel=9 note=49 velocity=80 time=0 actual_time=40
type: note_off, time: 0, actual_time: 136
type=note_on channel=9 note=49 velocity=0 time=96 actual_time=60576
type=note_on channel=9 note=35 velocity=0 time=0 actual_time=60576
type=note_on channel=9 note=53 velocity=0 time=0 actual_time=60576
type=note_on channel=9 note=40 velocity=80 time=24 actual_time=60600
type: note_off, time: 24, actual_time: 60696
type=note_on channel=9 note=40 velocity=80 time=0 actual_time=120
type: note_off, time: 0, actual_time: 216
type=note_on channel=9 note=40 velocity=0 time=96 actual_time=60696
type=note_on channel=9 note=53 velocity=0 time=0 actual_time=60696
type=note_on channel=9 note=53 velocity=80 time=24 actual_time=120
type: note_off, time: 24, actual_time: 184
type=note_on channel=9 note=53 velocity=0 time=64 actual_time=60784
type=note_on channel=9 note=40 velocity=80 time=16 actual_time=0
type: note_off, time: 16, actual_time: 32
type=note_on channel=9 note=35 velocity=0 time=32 actual_time=60832
type=note_on channel=9 note=53 velocity=80 time=8 actual_time=0
type: note_off, time: 8, actual_time: 96
type=note_on channel=9 note=41 velocity=80 time=0 actual_time=120
type: note_off, time: 0, actual_time: 216
type=note_on channel=9 note=40 velocity=0 time=96 actual_time=60936
type=note_on channel=9 note=53 velocity=0 time=0 actual_time=60936
type=note_on channel=9 note=40 velocity=80 time=24 actual_time=40
type: note_off, time: 24, actual_time: 136
type=note_on channel=9 note=35 velocity=80 time=0 actual_time=60960
type: note_off, time: 0, actual_time: 61056
type=note_on channel=9 note=35 velocity=0 time=96 actual_time=61056
type=note_on channel=9 note=53 velocity=0 time=0 actual_time=61056
type=note_on channel=9 note=40 velocity=80 time=24 actual_time=80
type: note_off, time: 24, actual_time: 176
type=note_on channel=9 note=40 velocity=80 time=0 actual_time=40
type: note_off, time: 0, actual_time: 136
type=note_on channel=9 note=40 velocity=80 time=0 actual_time=61080
type: note_off, time: 0, actual_time: 61176
type=note_on channel=9 note=57 velocity=0 time=96 actual_time=61176
type=note_on channel=9 note=40 velocity=0 time=0 actual_time=61176
type=note_on channel=9 note=53 velocity=0 time=0 actual_time=61176
type=note_on channel=9 note=40 velocity=80 time=24 actual_time=0
type: note_off, time: 24, actual_time: 64
type=note_on channel=9 note=53 velocity=0 time=64 actual_time=61264
type=note_on channel=9 note=38 velocity=80 time=16 actual_time=80
type: note_off, time: 16, actual_time: 112
type=note_on channel=9 note=35 velocity=0 time=32 actual_time=61312
type=note_on channel=9 note=40 velocity=80 time=8 actual_time=61320
type: note_off, time: 8, actual_time: 61416
type=note_on channel=9 note=40 velocity=80 time=0 actual_time=120
type: note_off, time: 0, actual_time: 216
type=note_on channel=9 note=53 velocity=0 time=96 actual_time=61416
type=note_on channel=9 note=40 velocity=0 time=0 actual_time=61416
type=note_on channel=9 note=40 velocity=80 time=24 actual_time=120
type: note_off, time: 24, actual_time: 152
type=note_on channel=9 note=31 velocity=80 time=0 actual_time=61440
type: note_off, time: 0, actual_time: 61472
type=note_on channel=9 note=48 velocity=80 time=0 actual_time=120
type: note_off, time: 0, actual_time: 152
type=note_on channel=9 note=49 velocity=0 time=32 actual_time=61472
type=note_on channel=9 note=31 velocity=0 time=0 actual_time=61472
type=note_on channel=9 note=35 velocity=0 time=0 actual_time=61472
type=note_on channel=9 note=40 velocity=80 time=8 actual_time=120
type: note_off, time: 8, actual_time: 152
type=note_on channel=9 note=31 velocity=0 time=32 actual_time=61512
type=note_on channel=9 note=31 velocity=80 time=8 actual_time=40
type: note_off, time: 8, actual_time: 72
type=note_on channel=9 note=31 velocity=0 time=32 actual_time=61552
type=note_on channel=9 note=40 velocity=80 time=8 actual_time=0
type: note_off, time: 8, actual_time: 96
type=note_on channel=9 note=40 velocity=0 time=96 actual_time=61656
type=note_on channel=9 note=38 velocity=80 time=24 actual_time=80
type: note_off, time: 24, actual_time: 176
type=note_on channel=9 note=35 velocity=0 time=96 actual_time=61776
type=note_on channel=9 note=40 velocity=80 time=24 actual_time=120
type: note_off, time: 24, actual_time: 216
type=note_on channel=9 note=40 velocity=0 time=96 actual_time=61896
type=note_on channel=9 note=40 velocity=80 time=24 actual_time=120
type: note_off, time: 24, actual_time: 152
type=note_on channel=9 note=40 velocity=80 time=0 actual_time=40
type: note_off, time: 0, actual_time: 72
type=note_on channel=9 note=35 velocity=0 time=32 actual_time=61952
type=note_on channel=9 note=31 velocity=0 time=0 actual_time=61952
type=note_on channel=9 note=40 velocity=80 time=8 actual_time=120
type: note_off, time: 8, actual_time: 152
type=note_on channel=9 note=31 velocity=0 time=32 actual_time=61992
type=note_on channel=9 note=40 velocity=80 time=8 actual_time=40
type: note_off, time: 8, actual_time: 72
type=note_on channel=9 note=31 velocity=0 time=32 actual_time=62032
type=note_on channel=9 note=40 velocity=80 time=8 actual_time=62040
type: note_off, time: 8, actual_time: 62136
type=note_on channel=9 note=40 velocity=0 time=96 actual_time=62136
type=note_on channel=9 note=40 velocity=80 time=24 actual_time=40
type: note_off, time: 24, actual_time: 136
type=note_on channel=9 note=35 velocity=0 time=96 actual_time=62256
type=note_on channel=9 note=36 velocity=80 time=24 actual_time=40
type: note_off, time: 24, actual_time: 136
type=note_on channel=9 note=40 velocity=0 time=96 actual_time=62376
type=note_on channel=9 note=35 velocity=80 time=24 actual_time=62400
type: note_off, time: 24, actual_time: 62432
type=note_on channel=9 note=40 velocity=80 time=0 actual_time=80
type: note_off, time: 0, actual_time: 112
type=note_on channel=9 note=31 velocity=0 time=32 actual_time=62432
type=note_on channel=9 note=35 velocity=0 time=0 actual_time=62432
type=note_on channel=9 note=40 velocity=80 time=8 actual_time=0
type: note_off, time: 8, actual_time: 32
type=note_on channel=9 note=31 velocity=0 time=32 actual_time=62472
type=note_on channel=9 note=31 velocity=80 time=8 actual_time=120
type: note_off, time: 8, actual_time: 152
type=note_on channel=9 note=31 velocity=0 time=32 actual_time=62512
type=note_on channel=9 note=40 velocity=80 time=8 actual_time=40
type: note_off, time: 8, actual_time: 136
type=note_on channel=9 note=40 velocity=0 time=96 actual_time=62616
type=note_on channel=9 note=40 velocity=80 time=24 actual_time=80
type: note_off, time: 24, actual_time: 176
type=note_on channel=9 note=35 velocity=0 time=96 actual_time=62736
type=note_on channel=9 note=40 velocity=80 time=24 actual_time=40
type: note_off, time: 24, actual_time: 136
type=note_on channel=9 note=40 velocity=0 time=96 actual_time=62856
type=note_on channel=9 note=27 velocity=80 time=24 actual_time=0
type: note_off, time: 24, actual_time: 32
type=note_on channel=9 note=40 velocity=80 time=0 actual_time=62880
type: note_off, time: 0, actual_time: 62912
type=note_on channel=9 note=35 velocity=0 time=32 actual_time=62912
type=note_on channel=9 note=31 velocity=0 time=0 actual_time=62912
type=note_on channel=9 note=40 velocity=80 time=8 actual_time=120
type: note_off, time: 8, actual_time: 152
type=note_on channel=9 note=31 velocity=0 time=32 actual_time=62952
type=note_on channel=9 note=40 velocity=80 time=8 actual_time=62960
type: note_off, time: 8, actual_time: 62992
type=note_on channel=9 note=31 velocity=0 time=32 actual_time=62992
type=note_on channel=9 note=37 velocity=80 time=8 actual_time=120
type: note_off, time: 8, actual_time: 216
type=note_on channel=9 note=40 velocity=0 time=96 actual_time=63096
type=note_on channel=9 note=40 velocity=80 time=24 actual_time=63120
type: note_off, time: 24, actual_time: 63216
type=note_on channel=9 note=35 velocity=0 time=96 actual_time=63216
type=note_on channel=9 note=40 velocity=80 time=24 actual_time=40
type: note_off, time: 24, actual_time: 136
type=note_on channel=9 note=40 velocity=0 time=96 actual_time=63336
type=note_on channel=9 note=31 velocity=80 time=24 actual_time=63360
type: note_off, time: 24, actual_time: 63392
type=note_on channel=9 note=40 velocity=80 time=0 actual_time=0
type: note_off, time: 0, actual_time: 32
type=note_on channel=9 note=35 velocity=0 time=32 actual_time=63392
type=note_on channel=9 note=31 velocity=0 time=0 actual_time=63392
type=note_on channel=9 note=40 velocity=80 time=8 actual_time=120
type: note_off, time: 8, actual_time: 152
type=note_on channel=9 note=31 velocity=0 time=32 actual_time=63432
type=note_on channel=9 note=40 velocity=80 time=8 actual_time=0
type: note_off, time: 8, actual_time: 32
type=note_on channel=9 note=31 velocity=0 time=32 actual_time=63472
type=note_on channel=9 note=41 velocity=80 time=8 actual_time=80
type: note_off, time: 8, actual_time: 176
type=note_on channel=9 note=40 velocity=0 time=96 actual_time=63576
type=note_on channel=9 note=40 velocity=80 time=24 actual_time=0
type: note_off, time: 24, actual_time: 96
type=note_on channel=9 note=35 velocity=0 time=96 actual_time=63696
type=note_on channel=9 note=40 velocity=80 time=24 actual_time=63720
type: note_off, time: 24, actual_time: 63816
type=note_on channel=9 note=40 velocity=0 time=96 actual_time=63816
type=note_on channel=9 note=40 velocity=80 time=24 actual_time=40
type: note_off, time: 24, actual_time: 72
type=note_on channel=9 note=40 velocity=80 time=0 actual_time=80
type: note_off, time: 0, actual_time: 112
type=note_on channel=9 note=31 velocity=0 time=32 actual_time=63872
type=note_on channel=9 note=35 velocity=0 time=0 actual_time=63872
type=note_on channel=9 note=40 velocity=80 time=8 actual_time=80
type: note_off, time: 8, actual_time: 112
type=note_on channel=9 note=31 velocity=0 time=32 actual_time=63912
type=note_on channel=9 note=31 velocity=80 time=8 actual_time=0
type: note_off, time: 8, actual_time: 32
type=note_on channel=9 note=31 velocity=0 time=32 actual_time=63952
type=note_on channel=9 note=40 velocity=80 time=8 actual_time=63960
type: note_off, time: 8, actual_time: 64056
type=note_on channel=9 note=40 velocity=0 time=96 actual_time=64056
type=note_on channel=9 note=40 velocity=80 time=24 actual_time=64080
type: note_off, time: 24, actual_time: 64176
type=note_on channel=9 note=35 velocity=0 time=96 actual_time=64176
type=note_on channel=9 note=40 velocity=80 time=24 actual_time=120
type: note_off, time: 24, actual_time: 216
type=note_on channel=9 note=40 velocity=0 time=96 actual_time=64296
type=note_on channel=9 note=40 velocity=80 time=24 actual_time=120
type: note_off, time: 24, actual_time: 152
type=note_on channel=9 note=31 velocity=80 time=0 actual_time=120
type: note_off, time: 0, actual_time: 152
type=note_on channel=9 note=31 velocity=0 time=32 actual_time=64352
type=note_on channel=9 note=35 velocity=0 time=0 actual_time=64352
type=note_on channel=9 note=40 velocity=80 time=8 actual_time=40
type: note_off, time: 8, actual_time: 72
type=note_on channel=9 note=31 velocity=0 time=32 actual_time=64392
type=note_on channel=9 note=31 velocity=80 time=8 actual_time=80
type: note_off, time: 8, actual_time: 112
type=note_on channel=9 note=31 velocity=0 time=32 actual_time=64432
type=note_on channel=9 note=40 velocity=80 time=8 actual_time=80
type: note_off, time: 8, actual_time: 176
type=note_on channel=9 note=40 velocity=0 time=96 actual_time=64536
type=note_on channel=9 note=35 velocity=80 time=24 actual_time=64560
type: note_off, time: 24, actual_time: 64656
type=note_on channel=9 note=35 velocity=0 time=96 actual_time=64656
type=note_on channel=9 note=40 velocity=80 time=24 actual_time=80
type: note_off, time: 24, actual_time: 176
type=note_on channel=9 note=40 velocity=0 time=96 actual_time=64776
type=note_on channel=9 note=40 velocity=80 time=24 actual_time=80
type: note_off, time: 24, actual_time: 112
type=note_on channel=9 note=40 velocity=80 time=0 actual_time=64800
type: note_off, time: 0, actual_time: 64832
type=note_on channel=9 note=35 velocity=0 time=32 actual_time=64832
type=note_on channel=9 note=31 velocity=0 time=0 actual_time=64832
type=note_on channel=9 note=40 velocity=80 time=8 actual_time=40
type: note_off, time: 8, actual_time: 72
type=note_on channel=9 note=31 velocity=0 time=32 actual_time=64872
type=note_on channel=9 note=40 velocity=80 time=8 actual_time=80
type: note_off, time: 8, actual_time: 112
type=note_on channel=9 note=31 velocity=0 time=32 actual_time=64912
type=note_on channel=9 note=40 velocity=80 time=8 actual_time=40
type: note_off, time: 8, actual_time: 136
type=note_on channel=9 note=40 velocity=0 time=96 actual_time=65016
type=note_on channel=9 note=40 velocity=80 time=24 actual_time=65040
type: note_off, time: 24, actual_time: 65136
type=note_on channel=9 note=35 velocity=0 time=96 actual_time=65136
type=note_on channel=9 note=40 velocity=80 time=24 actual_time=80
type: note_off, time: 24, actual_time: 176
type=note_on channel=9 note=40 velocity=0 time=96 actual_time=65256
type=note_on channel=9 note=40 velocity=80 time=24 actual_time=80
type: note_off, time: 24, actual_time: 112
type=note_on channel=9 note=38 velocity=80 time=0 actual_time=65280
type: note_off, time: 0, actual_time: 65312
type=note_on channel=9 note=35 velocity=0 time=32 actual_time=65312
type=note_on channel=9 note=31 velocity=0 time=0 actual_time=65312
type=note_on channel=9 note=40 velocity=80 time=8 actual_time=65320
type: note_off, time: 8, actual_time: 65352
type=note_on channel=9 note=31 velocity=0 time=32 actual_time=65352
type=note_on channel=9 note=31 velocity=80 time=8 actual_time=120
type: note_off, time: 8, actual_time: 152
type=note_on channel=9 note=31 velocity=0 time=32 actual_time=65392
type=note_on channel=9 note=40 velocity=80 time=8 actual_time=65400
type: note_off, time: 8, actual_time: 65496
type=note_on channel=9 note=40 velocity=0 time=96 actual_time=65496
type=note_on channel=9 note=40 velocity=80 time=24 actual_time=40
type: note_off, time: 24, actual_time: 136
type=note_on channel=9 note=35 velocity=0 time=96 actual_time=65616
type=note_on channel=9 note=40 velocity=80 time=24 actual_time=0
type: note_off, time: 24, actual_time: 96
type=note_on channel=9 note=40 velocity=0 time=96 actual_time=65736
type=note_on channel=9 note=40 velocity=80 time=24 actual_time=0
type: note_off, time: 24, actual_time: 32
type=note_on channel=9 note=31 velocity=80 time=0 actual_time=0
type: note_off, time: 0, actual_time: 32
type=note_on channel=9 note=31 velocity=0 time=32 actual_time=65792
type=note_on channel=9 note=35 velocity=0 time=0 actual_time=65792
type=note_on channel=9 note=40 velocity=80 time=8 actual_time=65800
type: note_off, time: 8, actual_time: 65832
type=note_on channel=9 note=31 velocity=0 time=32 actual_time=65832
type=note_on channel=9 note=40 velocity=80 time=8 actual_time=40
type: note_off, time: 8, actual_time: 72
type=note_on channel=9 note=31 velocity=0 time=32 actual_time=65872
type=note_on channel=9 note=40 velocity=80 time=8 actual_time=65880
type: note_off, time: 8, actual_time: 65976
type=note_on channel=9 note=40 velocity=0 time=96 actual_time=65976
type=note_on channel=9 note=40 velocity=80 time=24 actual_time=120
type: note_off, time: 24, actual_time: 216
type=note_on channel=9 note=35 velocity=0 time=96 actual_time=66096
type=note_on channel=9 note=40 velocity=80 time=24 actual_time=80
type: note_off, time: 24, actual_time: 176
type=note_on channel=9 note=40 velocity=0 time=96 actual_time=66216
type=note_on channel=9 note=40 velocity=80 time=24 actual_time=40
type: note_off, time: 24, actual_time: 72
type=note_on channel=9 note=40 velocity=80 time=0 actual_time=80
type: note_off, time: 0, actual_time: 112
type=note_on channel=9 note=35 velocity=0 time=32 actual_time=66272
type=note_on channel=9 note=31 velocity=0 time=0 actual_time=66272
type=note_on channel=9 note=31 velocity=80 time=8 actual_time=40
type: note_off, time: 8, actual_time: 72
type=note_on channel=9 note=31 velocity=0 time=32 actual_time=66312
type=note_on channel=9 note=40 velocity=80 time=8 actual_time=40
type: note_off, time: 8, actual_time: 72
type=note_on channel=9 note=31 velocity=0 time=32 actual_time=66352
type=note_on channel=9 note=40 velocity=80 time=8 actual_time=120
type: note_off, time: 8, actual_time: 216
type=note_on channel=9 note=40 velocity=0 time=96 actual_time=66456
type=note_on channel=9 note=40 velocity=80 time=24 actual_time=66480
type: note_off, time: 24, actual_time: 66576
type=note_on channel=9 note=35 velocity=0 time=96 actual_time=66576
type=note_on channel=9 note=40 velocity=80 time=24 actual_time=0
type: note_off, time: 24, actual_time: 96
type=note_on channel=9 note=40 velocity=0 time=96 actual_time=66696
type=note_on channel=9 note=40 velocity=80 time=24 actual_time=80
type: note_off, time: 24, actual_time: 112
type=note_on channel=9 note=40 velocity=80 time=0 actual_time=66720
type: note_off, time: 0, actual_time: 66752
type=note_on channel=9 note=31 velocity=0 time=32 actual_time=66752
type=note_on channel=9 note=35 velocity=0 time=0 actual_time=66752
type=note_on channel=9 note=31 velocity=80 time=8 actual_time=80
type: note_off, time: 8, actual_time: 112
type=note_on channel=9 note=31 velocity=0 time=32 actual_time=66792
type=note_on channel=9 note=40 velocity=80 time=8 actual_time=0
type: note_off, time: 8, actual_time: 32
type=note_on channel=9 note=31 velocity=0 time=32 actual_time=66832
type=note_on channel=9 note=43 velocity=80 time=8 actual_time=80
type: note_off, time: 8, actual_time: 176
type=note_on channel=9 note=40 velocity=0 time=96 actual_time=66936
type=note_on channel=9 note=40 velocity=80 time=24 actual_time=66960
type: note_off, time: 24, actual_time: 67056
type=note_on channel=9 note=35 velocity=0 time=96 actual_time=67056
type=note_on channel=9 note=40 velocity=80 time=24 actual_time=80
type: note_off, time: 24, actual_time: 176
type=note_on channel=9 note=40 velocity=0 time=96 actual_time=67176
type=note_on channel=9 note=40 velocity=80 time=24 actual_time=120
type: note_off, time: 24, actual_time: 152
type=note_on channel=9 note=40 velocity=80 time=0 actual_time=0
type: note_off, time: 0, actual_time: 32
type=note_on channel=9 note=31 velocity=0 time=32 actual_time=67232
type=note_on channel=9 note=35 velocity=0 time=0 actual_time=67232
type=note_on channel=9 note=31 velocity=80 time=8 actual_time=120
type: note_off, time: 8, actual_time: 152
type=note_on channel=9 note=31 velocity=0 time=32 actual_time=67272
type=note_on channel=9 note=40 velocity=80 time=8 actual_time=80
type: note_off, time: 8, actual_time: 112
type=note_on channel=9 note=31 velocity=0 time=32 actual_time=67312
type=note_on channel=9 note=40 velocity=80 time=8 actual_time=0
type: note_off, time: 8, actual_time: 96
type=note_on channel=9 note=40 velocity=0 time=96 actual_time=67416
type=note_on channel=9 note=40 velocity=80 time=24 actual_time=120
type: note_off, time: 24, actual_time: 216
type=note_on channel=9 note=35 velocity=0 time=96 actual_time=67536
type=note_on channel=9 note=40 velocity=80 time=24 actual_time=40
type: note_off, time: 24, actual_time: 136
type=note_on channel=9 note=40 velocity=0 time=96 actual_time=67656
type=note_on channel=9 note=35 velocity=80 time=24 actual_time=40
type: note_off, time: 24, actual_time: 72
type=note_on channel=9 note=40 velocity=80 time=0 actual_time=67680
type: note_off, time: 0, actual_time: 67712
type=note_on channel=9 note=31 velocity=0 time=32 actual_time=67712
type=note_on channel=9 note=35 velocity=0 time=0 actual_time=67712
type=note_on channel=9 note=40 velocity=80 time=8 actual_time=40
type: note_off, time: 8, actual_time: 72
type=note_on channel=9 note=31 velocity=0 time=32 actual_time=67752
type=note_on channel=9 note=40 velocity=80 time=8 actual_time=67760
type: note_off, time: 8, actual_time: 67792
type=note_on channel=9 note=31 velocity=0 time=32 actual_time=67792
type=note_on channel=9 note=40 velocity=80 time=8 actual_time=0
type: note_off, time: 8, actual_time: 96
type=note_on channel=9 note=40 velocity=0 time=96 actual_time=67896
type=note_on channel=9 note=35 velocity=80 time=24 actual_time=80
type: note_off, time: 24, actual_time: 176
type=note_on channel=9 note=35 velocity=0 time=96 actual_time=68016
type=note_on channel=9 note=45 velocity=80 time=24 actual_time=120
type: note_off, time: 24, actual_time: 216
type=note_on channel=9 note=40 velocity=0 time=96 actual_time=68136
type=note_on channel=9 note=38 velocity=80 time=24 actual_time=40
type: note_off, time: 24, actual_time: 72
type=note_on channel=9 note=31 velocity=80 time=0 actual_time=120
type: note_off, time: 0, actual_time: 152
type=note_on channel=9 note=31 velocity=0 time=32 actual_time=68192
type=note_on channel=9 note=35 velocity=0 time=0 actual_time=68192
type=note_on channel=9 note=31 velocity=80 time=8 actual_time=0
type: note_off, time: 8, actual_time: 32
type=note_on channel=9 note=31 velocity=0 time=32 actual_time=68232
type=note_on channel=9 note=40 velocity=80 time=8 actual_time=40
type: note_off, time: 8, actual_time: 72
type=note_on channel=9 note=31 velocity=0 time=32 actual_time=68272
type=note_on channel=9 note=40 velocity=80 time=8 actual_time=40
type: note_off, time: 8, actual_time: 136
type=note_on channel=9 note=40 velocity=0 time=96 actual_time=68376
type=note_on channel=9 note=36 velocity=80 time=24 actual_time=0
type: note_off, time: 24, actual_time: 96
type=note_on channel=9 note=35 velocity=0 time=96 actual_time=68496
type=note_on channel=9 note=40 velocity=80 time=24 actual_time=68520
type: note_off, time: 24, actual_time: 68616
type=note_on channel=9 note=40 velocity=0 time=96 actual_time=68616
type=note_on channel=9 note=40 velocity=80 time=24 actual_time=120
type: note_off, time: 24, actual_time: 152
type=note_on channel=9 note=40 velocity=80 time=0 actual_time=80
type: note_off, time: 0, actual_time: 112
type=note_on channel=9 note=31 velocity=0 time=32 actual_time=68672
type=note_on channel=9 note=35 velocity=0 time=0 actual_time=68672
type=note_on channel=9 note=31 velocity=80 time=8 actual_time=40
type: note_off, time: 8, actual_time: 72
type=note_on channel=9 note=31 velocity=0 time=32 actual_time=68712
type=note_on channel=9 note=40 velocity=80 time=8 actual_time=0
type: note_off, time: 8, actual_time: 32
type=note_on channel=9 note=31 velocity=0 time=32 actual_time=68752
type=note_on channel=9 note=40 velocity=80 time=8 actual_time=80
type: note_off, time: 8, actual_time: 176
type=note_on channel=9 note=40 velocity=0 time=96 actual_time=68856
type=note_on channel=9 note=40 velocity=80 time=24 actual_time=40
type: note_off, time: 24, actual_time: 136
type=note_on channel=9 note=35 velocity=0 time=96 actual_time=68976
type=note_on channel=9 note=40 velocity=80 time=24 actual_time=0
type: note_off, time: 24, actual_time: 96
type=note_on channel=9 note=40 velocity=0 time=96 actual_time=69096
type=note_on channel=9 note=40 velocity=80 time=24 actual_time=0
type: note_off, time: 24, actual_time: 32
type=note_on channel=9 note=40 velocity=80 time=0 actual_time=69120
type: note_off, time: 0, actual_time: 69152
type=note_on channel=9 note=31 velocity=0 time=32 actual_time=69152
type=note_on channel=9 note=35 velocity=0 time=0 actual_time=69152
type=note_on channel=9 note=40 velocity=80 time=8 actual_time=80
type: note_off, time: 8, actual_time: 112
type=note_on channel=9 note=31 velocity=0 time=32 actual_time=69192
type=note_on channel=9 note=31 velocity=80 time=8 actual_time=69200
type: note_off, time: 8, actual_time: 69232
type=note_on channel=9 note=31 velocity=0 time=32 actual_time=69232
type=note_on channel=9 note=40 velocity=80 time=8 actual_time=40
type: note_off, time: 8, actual_time: 136
type=note_on channel=9 note=40 velocity=0 time=96 actual_time=69336
type=note_on channel=9 note=40 velocity=80 time=24 actual_time=69360
type: note_off, time: 24, actual_time: 69456
type=note_on channel=9 note=35 velocity=0 time=96 actual_time=69456
type=note_on channel=9 note=40 velocity=80 time=24 actual_time=80
type: note_off, time: 24, actual_time: 176
type=note_on channel=9 note=40 velocity=0 time=96 actual_time=69576
type=note_on channel=9 note=40 velocity=80 time=24 actual_time=69600
type: note_off, time: 24, actual_time: 69632
type=note_on channel=9 note=40 velocity=80 time=0 actual_time=69600
type: note_off, time: 0, actual_time: 69632
type=note_on channel=9 note=35 velocity=0 time=32 actual_time=69632
type=note_on channel=9 note=31 velocity=0 time=0 actual_time=69632
type=note_on channel=9 note=27 velocity=80 time=8 actual_time=120
type: note_off, time: 8, actual_time: 152
type=note_on channel=9 note=31 velocity=0 time=32 actual_time=69672
type=note_on channel=9 note=40 velocity=80 time=8 actual_time=80
type: note_off, time: 8, actual_time: 112
type=note_on channel=9 note=31 velocity=0 time=32 actual_time=69712
type=note_on channel=9 note=40 velocity=80 time=8 actual_time=40
type: note_off, time: 8, actual_time: 136
type=note_on channel=9 note=40 velocity=0 time=96 actual_time=69816
type=note_on channel=9 note=40 velocity=80 time=24 actual_time=80
type: note_off, time: 24, actual_time: 176
type=note_on channel=9 note=35 velocity=0 time=96 actual_time=69936
type=note_on channel=9 note=40 velocity=80 time=24 actual_time=40
type: note_off, time: 24, actual_time: 136
type=note_on channel=9 note=40 velocity=0 time=96 actual_time=70056
type=note_on channel=9 note=35 velocity=80 time=24 actual_time=80
type: note_off, time: 24, actual_time: 112
type=note_on channel=9 note=40 velocity=80 time=0 actual_time=0
type: note_off, time: 0, actual_time: 32
type=note_on channel=9 note=31 velocity=0 time=32 actual_time=70112
type=note_on channel=9 note=35 velocity=0 time=0 actual_time=70112
type=note_on channel=9 note=31 velocity=80 time=8 actual_time=0
type: note_off, time: 8, actual_time: 32
type=note_on channel=9 note=31 velocity=0 time=32 actual_time=70152
type=note_on channel=9 note=31 velocity=80 time=8 actual_time=80
type: note_off, time: 8, actual_time: 112
type=note_on channel=9 note=31 velocity=0 time=32 actual_time=70192
type=note_on channel=9 note=40 velocity=80 time=8 actual_time=0
type: note_off, time: 8, actual_time: 96
type=note_on channel=9 note=40 velocity=0 time=96 actual_time=70296
type=note_on channel=9 note=40 velocity=80 time=24 actual_time=0
type: note_off, time: 24, actual_time: 96
type=note_on channel=9 note=35 velocity=0 time=96 actual_time=70416
type=note_on channel=9 note=40 velocity=80 time=24 actual_time=40
type: note_off, time: 24, actual_time: 136
type=note_on channel=9 note=40 velocity=0 time=96 actual_time=70536
type=note_on channel=9 note=40 velocity=80 time=24 actual_time=80
type: note_off, time: 24, actual_time: 112
type=note_on channel=9 note=40 velocity=80 time=0 actual_time=0
type: note_off, time: 0, actual_time: 32
type=note_on channel=9 note=35 velocity=0 time=32 actual_time=70592
type=note_on channel=9 note=31 velocity=0 time=0 actual_time=70592
type=note_on channel=9 note=40 velocity=80 time=8 actual_time=0
type: note_off, time: 8, actual_time: 32
type=note_on channel=9 note=31 velocity=0 time=32 actual_time=70632
type=note_on channel=9 note=40 velocity=80 time=8 actual_time=70640
type: note_off, time: 8, actual_time: 70672
type=note_on channel=9 note=31 velocity=0 time=32 actual_time=70672
type=note_on channel=9 note=38 velocity=80 time=8 actual_time=40
type: note_off, time: 8, actual_time: 136
type=note_on channel=9 note=40 velocity=0 time=96 actual_time=70776
type=note_on channel=9 note=40 velocity=80 time=24 actual_time=80
type: note_off, time: 24, actual_time: 176
type=note_on channel=9 note=35 velocity=0 time=96 actual_time=70896
type=note_on channel=9 note=40 velocity=80 time=24 actual_time=40
type: note_off, time: 24, actual_time: 136
type=note_on channel=9 note=40 velocity=0 time=96 actual_time=71016
type=note_on channel=9 note=40 velocity=80 time=24 actual_time=0
type: note_off, time: 24, actual_time: 32
type=note_on channel=9 note=35 velocity=80 time=0 actual_time=40
type: note_off, time: 0, actual_time: 72
type=note_on channel=9 note=35 velocity=0 time=32 actual_time=71072
type=note_on channel=9 note=31 velocity=0 time=0 actual_time=71072
type=note_on channel=9 note=40 velocity=80 time=8 actual_time=80
type: note_off, time: 8, actual_time: 112
type=note_on channel=9 note=31 velocity=0 time=32 actual_time=71112
type=note_on channel=9 note=40 velocity=80 time=8 actual_time=71120
type: note_off, time: 8, actual_time: 71152
type=note_on channel=9 note=31 velocity=0 time=32 actual_time=71152
type=note_on channel=9 note=40 velocity=80 time=8 actual_time=80
type: note_off, time: 8, actual_time: 176
type=note_on channel=9 note=40 velocity=0 time=96 actual_time=71256
type=note_on channel=9 note=40 velocity=80 time=24 actual_time=0
type: note_off, time: 24, actual_time: 96
type=note_on channel=9 note=35 velocity=0 time=96 actual_time=71376
type=note_on channel=9 note=40 velocity=80 time=24 actual_time=0
type: note_off, time: 24, actual_time: 96
type=note_on channel=9 note=40 velocity=0 time=96 actual_time=71496
type=note_on channel=9 note=40 velocity=80 time=24 actual_time=0
type: note_off, time: 24, actual_time: 32
type=note_on channel=9 note=40 velocity=80 time=0 actual_time=40
type: note_off, time: 0, actual_time: 72
type=note_on channel=9 note=31 velocity=0 time=32 actual_time=71552
type=note_on channel=9 note=35 velocity=0 time=0 actual_time=71552
type=note_on channel=9 note=31 velocity=80 time=8 actual_time=71560
type: note_off, time: 8, actual_time: 71592
type=note_on channel=9 note=31 velocity=0 time=32 actual_time=71592
type=note_on channel=9 note=36 velocity=80 time=8 actual_time=71600
type: note_off, time: 8, actual_time: 71632
type=note_on channel=9 note=31 velocity=0 time=32 actual_time=71632
type=note_on channel=9 note=40 velocity=80 time=8 actual_time=120
type: note_off, time: 8, actual_time: 216
type=note_on channel=9 note=40 velocity=0 time=96 actual_time=71736
type=note_on channel=9 note=40 velocity=80 time=24 actual_time=0
type: note_off, time: 24, actual_time: 96
type=note_on channel=9 note=35 velocity=0 time=96 actual_time=71856
type=note_on channel=9 note=40 velocity=80 time=24 actual_time=120
type: note_off, time: 24, actual_time: 216
type=note_on channel=9 note=40 velocity=0 time=96 actual_time=71976
type=note_on channel=9 note=35 velocity=80 time=24 actual_time=80
type: note_off, time: 24, actual_time: 112
type=note_on channel=9 note=31 velocity=80 time=0 actual_time=120
type: note_off, time: 0, actual_time: 152
type=note_on channel=9 note=31 velocity=0 time=32 actual_time=72032
type=note_on channel=9 note=35 velocity=0 time=0 actual_time=72032
type=note_on channel=9 note=40 velocity=80 time=8 actual_time=0
type: note_off, time: 8, actual_time: 32
type=note_on channel=9 note=31 velocity=0 time=32 actual_time=72072
type=note_on channel=9 note=40 velocity=80 time=8 actual_time=80
type: note_off, time: 8, actual_time: 112
type=note_on channel=9 note=31 velocity=0 time=32 actual_time=72112
type=note_on channel=9 note=40 velocity=80 time=8 actual_time=80
type: note_off, time: 8, actual_time: 176
type=note_on channel=9 note=40 velocity=0 time=96 actual_time=72216
type=note_on channel=9 note=40 velocity=80 time=24 actual_time=40
type: note_off, time: 24, actual_time: 136
type=note_on channel=9 note=35 velocity=0 time=96 actual_time=72336
type=note_on channel=9 note=40 velocity=80 time=24 actual_time=80
type: note_off, time: 24, actual_time: 176
type=note_on channel=9 note=40 velocity=0 time=96 actual_time=72456
type=note_on channel=9 note=40 velocity=80 time=24 actual_time=120
type: note_off, time: 24, actual_time: 152
type=note_on channel=9 note=40 velocity=0 time=32 actual_time=72512
type=note_on channel=9 note=40 velocity=80 time=8 actual_time=40
type: note_off, time: 8, actual_time: 72
type=note_on channel=9 note=40 velocity=0 time=32 actual_time=72552
type=note_on channel=9 note=40 velocity=80 time=8 actual_time=72560
type: note_off, time: 8, actual_time: 72592
type=note_on channel=9 note=40 velocity=0 time=32 actual_time=72592
type=note_on channel=9 note=40 velocity=80 time=8 actual_time=40
type: note_off, time: 8, actual_time: 72
type=note_on channel=9 note=40 velocity=0 time=32 actual_time=72632
type=note_on channel=9 note=40 velocity=80 time=8 actual_time=120
type: note_off, time: 8, actual_time: 152
type=note_on channel=9 note=40 velocity=0 time=32 actual_time=72672
type=note_on channel=9 note=40 velocity=80 time=8 actual_time=120
type: note_off, time: 8, actual_time: 152
type=note_on channel=9 note=40 velocity=0 time=32 actual_time=72712
type=note_on channel=9 note=40 velocity=80 time=8 actual_time=0
type: note_off, time: 8, actual_time: 32
type=note_on channel=9 note=40 velocity=80 time=0 actual_time=80
type: note_off, time: 0, actual_time: 112
type=note_on channel=9 note=47 velocity=0 time=32 actual_time=72752
type=note_on channel=9 note=40 velocity=0 time=0 actual_time=72752
type=note_on channel=9 note=45 velocity=80 time=8 actual_time=0
type: note_off, time: 8, actual_time: 32
type=note_on channel=9 note=40 velocity=80 time=0 actual_time=72760
type: note_off, time: 0, actual_time: 72792
type=note_on channel=9 note=40 velocity=0 time=32 actual_time=72792
type=note_on channel=9 note=45 velocity=0 time=0 actual_time=72792
type=note_on channel=9 note=43 velocity=80 time=8 actual_time=80
type: note_off, time: 8, actual_time: 112
type=note_on channel=9 note=40 velocity=80 time=0 actual_time=40
type: note_off, time: 0, actual_time: 72
type=note_on channel=9 note=40 velocity=0 time=32 actual_time=72832
type=note_on channel=9 note=43 velocity=0 time=0 actual_time=72832
type=note_on channel=9 note=40 velocity=80 time=8 actual_time=120
type: note_off, time: 8, actual_time: 152
type=note_on channel=9 note=47 velocity=80 time=0 actual_time=80
type: note_off, time: 0, actual_time: 112
type=note_on channel=9 note=47 velocity=0 time=32 actual_time=72872
type=note_on channel=9 note=40 velocity=0 time=0 actual_time=72872
type=note_on channel=9 note=40 velocity=80 time=8 actual_time=80
type: note_off, time: 8, actual_time: 112
type=note_on channel=9 note=45 velocity=80 time=0 actual_time=0
type: note_off, time: 0, actual_time: 32
type=note_on channel=9 note=45 velocity=0 time=32 actual_time=72912
type=note_on channel=9 note=40 velocity=0 time=0 actual_time=72912
type=note_on channel=9 note=40 velocity=80 time=8 actual_time=120
type: note_off, time: 8, actual_time: 152
type=note_on channel=9 note=40 velocity=80 time=0 actual_time=80
type: note_off, time: 0, actual_time: 112
type=note_on channel=9 note=43 velocity=0 time=32 actual_time=72952
type=note_on channel=9 note=40 velocity=0 time=0 actual_time=72952
type=note_on channel=9 note=40 velocity=80 time=8 actual_time=0
type: note_off, time: 8, actual_time: 96
type=note_on channel=9 note=40 velocity=80 time=0 actual_time=72960
type: note_off, time: 0, actual_time: 73056
type=note_on channel=9 note=35 velocity=80 time=0 actual_time=120
type: note_off, time: 0, actual_time: 216
type=note_on channel=9 note=40 velocity=80 time=0 actual_time=120
type: note_off, time: 0, actual_time: 216
type=note_on channel=9 note=59 velocity=0 time=96 actual_time=73056
type=note_on channel=9 note=53 velocity=0 time=0 actual_time=73056
type=note_on channel=9 note=49 velocity=0 time=0 actual_time=73056
type=note_on channel=9 note=35 velocity=0 time=0 actual_time=73056
type=note_on channel=9 note=40 velocity=80 time=24 actual_time=120
type: note_off, time: 24, actual_time: 216
type=note_on channel=9 note=40 velocity=80 time=0 actual_time=0
type: note_off, time: 0, actual_time: 96
type=note_on channel=9 note=59 velocity=80 time=0 actual_time=0
type: note_off, time: 0, actual_time: 96
type=note_on channel=9 note=59 velocity=0 time=96 actual_time=73176
type=note_on channel=9 note=40 velocity=0 time=0 actual_time=73176
type=note_on channel=9 note=53 velocity=0 time=0 actual_time=73176
type=note_on channel=9 note=40 velocity=80 time=24 actual_time=120
type: note_off, time: 24, actual_time: 184
type=note_on channel=9 note=40 velocity=80 time=0 actual_time=73200
type: note_off, time: 0, actual_time: 73264
type=note_on channel=9 note=59 velocity=0 time=64 actual_time=73264
type=note_on channel=9 note=53 velocity=0 time=0 actual_time=73264
type=note_on channel=9 note=40 velocity=80 time=16 actual_time=40
type: note_off, time: 16, actual_time: 72
type=note_on channel=9 note=35 velocity=0 time=32 actual_time=73312
type=note_on channel=9 note=40 velocity=80 time=8 actual_time=80
type: note_off, time: 8, actual_time: 176
type=note_on channel=9 note=40 velocity=80 time=0 actual_time=120
type: note_off, time: 0, actual_time: 216
type=note_on channel=9 note=40 velocity=80 time=0 actual_time=80
type: note_off, time: 0, actual_time: 176
type=note_on channel=9 note=59 velocity=0 time=96 actual_time=73416
type=note_on channel=9 note=53 velocity=0 time=0 actual_time=73416
type=note_on channel=9 note=40 velocity=0 time=0 actual_time=73416
type=note_on channel=9 note=53 velocity=80 time=24 actual_time=80
type: note_off, time: 24, actual_time: 176
type=note_on channel=9 note=40 velocity=80 time=0 actual_time=0
type: note_off, time: 0, actual_time: 96
type=note_on channel=9 note=40 velocity=80 time=0 actual_time=0
type: note_off, time: 0, actual_time: 96
type=note_on channel=9 note=35 velocity=0 time=96 actual_time=73536
type=note_on channel=9 note=59 velocity=0 time=0 actual_time=73536
type=note_on channel=9 note=53 velocity=0 time=0 actual_time=73536
type=note_on channel=9 note=40 velocity=80 time=24 actual_time=80
type: note_off, time: 24, actual_time: 176
type=note_on channel=9 note=40 velocity=80 time=0 actual_time=40
type: note_off, time: 0, actual_time: 136
type=note_on channel=9 note=52 velocity=80 time=0 actual_time=73560
type: note_off, time: 0, actual_time: 73656
type=note_on channel=9 note=53 velocity=0 time=96 actual_time=73656
type=note_on channel=9 note=40 velocity=0 time=0 actual_time=73656
type=note_on channel=9 note=59 velocity=0 time=0 actual_time=73656
type=note_on channel=9 note=59 velocity=80 time=24 actual_time=40
type: note_off, time: 24, actual_time: 104
type=note_on channel=9 note=40 velocity=80 time=0 actual_time=0
type: note_off, time: 0, actual_time: 64
type=note_on channel=9 note=53 velocity=0 time=64 actual_time=73744
type=note_on channel=9 note=59 velocity=0 time=0 actual_time=73744
type=note_on channel=9 note=40 velocity=80 time=16 actual_time=0
type: note_off, time: 16, actual_time: 32
type=note_on channel=9 note=35 velocity=0 time=32 actual_time=73792
type=note_on channel=9 note=40 velocity=80 time=8 actual_time=0
type: note_off, time: 8, actual_time: 96
type=note_on channel=9 note=53 velocity=80 time=0 actual_time=0
type: note_off, time: 0, actual_time: 96
type=note_on channel=9 note=40 velocity=80 time=0 actual_time=0
type: note_off, time: 0, actual_time: 96
type=note_on channel=9 note=40 velocity=0 time=96 actual_time=73896
type=note_on channel=9 note=53 velocity=0 time=0 actual_time=73896
type=note_on channel=9 note=59 velocity=0 time=0 actual_time=73896
type=note_on channel=9 note=40 velocity=80 time=24 actual_time=80
type: note_off, time: 24, actual_time: 176
type=note_on channel=9 note=40 velocity=80 time=0 actual_time=40
type: note_off, time: 0, actual_time: 136
type=note_on channel=9 note=40 velocity=80 time=0 actual_time=120
type: note_off, time: 0, actual_time: 216
type=note_on channel=9 note=40 velocity=80 time=0 actual_time=80
type: note_off, time: 0, actual_time: 176
type=note_on channel=9 note=53 velocity=0 time=96 actual_time=74016
type=note_on channel=9 note=59 velocity=0 time=0 actual_time=74016
type=note_on channel=9 note=35 velocity=0 time=0 actual_time=74016
type=note_on channel=9 note=49 velocity=0 time=0 actual_time=74016
type=note_on channel=9 note=59 velocity=80 time=24 actual_time=80
type: note_off, time: 24, actual_time: 176
type=note_on channel=9 note=44 velocity=80 time=0 actual_time=120
type: note_off, time: 0, actual_time: 216
type=note_on channel=9 note=53 velocity=80 time=0 actual_time=120
type: note_off, time: 0, actual_time: 216
type=note_on channel=9 note=53 velocity=0 time=96 actual_time=74136
type=note_on channel=9 note=40 velocity=0 time=0 actual_time=74136
type=note_on channel=9 note=59 velocity=0 time=0 actual_time=74136
type=note_on channel=9 note=40 velocity=80 time=24 actual_time=120
type: note_off, time: 24, actual_time: 184
type=note_on channel=9 note=40 velocity=80 time=0 actual_time=120
type: note_off, time: 0, actual_time: 184
type=note_on channel=9 note=53 velocity=0 time=64 actual_time=74224
type=note_on channel=9 note=59 velocity=0 time=0 actual_time=74224
type=note_on channel=9 note=40 velocity=80 time=16 actual_time=40
type: note_off, time: 16, actual_time: 72
type=note_on channel=9 note=35 velocity=0 time=32 actual_time=74272
type=note_on channel=9 note=40 velocity=80 time=8 actual_time=80
type: note_off, time: 8, actual_time: 176
type=note_on channel=9 note=40 velocity=80 time=0 actual_time=120
type: note_off, time: 0, actual_time: 216
type=note_on channel=9 note=38 velocity=80 time=0 actual_time=0
type: note_off, time: 0, actual_time: 96
type=note_on channel=9 note=40 velocity=0 time=96 actual_time=74376
type=note_on channel=9 note=53 velocity=0 time=0 actual_time=74376
type=note_on channel=9 note=59 velocity=0 time=0 actual_time=74376
type=note_on channel=9 note=40 velocity=80 time=24 actual_time=40
type: note_off, time: 24, actual_time: 104
type=note_on channel=9 note=40 velocity=80 time=0 actual_time=80
type: note_off, time: 0, actual_time: 144
type=note_on channel=9 note=32 velocity=80 time=0 actual_time=80
type: note_off, time: 0, actual_time: 144
type=note_on channel=9 note=35 velocity=0 time=64 actual_time=74464
type=note_on channel=9 note=53 velocity=0 time=0 actual_time=74464
type=note_on channel=9 note=59 velocity=0 time=0 actual_time=74464
type=note_on channel=9 note=40 velocity=80 time=16 actual_time=80
type: note_off, time: 16, actual_time: 112
type=note_on channel=9 note=35 velocity=0 time=32 actual_time=74512
type=note_on channel=9 note=40 velocity=80 time=8 actual_time=74520
type: note_off, time: 8, actual_time: 74616
type=note_on channel=9 note=53 velocity=80 time=0 actual_time=120
type: note_off, time: 0, actual_time: 216
type=note_on channel=9 note=40 velocity=80 time=0 actual_time=40
type: note_off, time: 0, actual_time: 136
type=note_on channel=9 note=40 velocity=80 time=0 actual_time=74520
type: note_off, time: 0, actual_time: 74616
type=note_on channel=9 note=49 velocity=0 time=96 actual_time=74616
type=note_on channel=9 note=59 velocity=0 time=0 actual_time=74616
type=note_on channel=9 note=53 velocity=0 time=0 actual_time=74616
type=note_on channel=9 note=40 velocity=0 time=0 actual_time=74616
type=note_on channel=9 note=40 velocity=80 time=24 actual_time=120
type: note_off, time: 24, actual_time: 184
type=note_on channel=9 note=53 velocity=80 time=0 actual_time=74640
type: note_off, time: 0, actual_time: 74704
type=note_on channel=9 note=40 velocity=80 time=0 actual_time=120
type: note_off, time: 0, actual_time: 184
type=note_on channel=9 note=35 velocity=0 time=64 actual_time=74704
type=note_on channel=9 note=53 velocity=0 time=0 actual_time=74704
type=note_on channel=9 note=59 velocity=0 time=0 actual_time=74704
type=note_on channel=9 note=40 velocity=80 time=16 actual_time=80
type: note_off, time: 16, actual_time: 112
type=note_on channel=9 note=35 velocity=0 time=32 actual_time=74752
type=note_on channel=9 note=63 velocity=80 time=8 actual_time=120
type: note_off, time: 8, actual_time: 216
type=note_on channel=9 note=40 velocity=80 time=0 actual_time=74760
type: note_off, time: 0, actual_time: 74856
type=note_on channel=9 note=40 velocity=80 time=0 actual_time=40
type: note_off, time: 0, actual_time: 136
type=note_on channel=9 note=40 velocity=80 time=0 actual_time=40
type: note_off, time: 0, actual_time: 136
type=note_on channel=9 note=49 velocity=0 time=96 actual_time=74856
type=note_on channel=9 note=59 velocity=0 time=0 actual_time=74856
type=note_on channel=9 note=53 velocity=0 time=0 actual_time=74856
type=note_on channel=9 note=40 velocity=0 time=0 actual_time=74856
type=note_on channel=9 note=40 velocity=80 time=24 actual_time=74880
type: note_off, time: 24, actual_time: 74976
type=note_on channel=9 note=40 velocity=80 time=0 actual_time=74880
type: note_off, time: 0, actual_time: 74976
type=note_on channel=9 note=40 velocity=80 time=0 actual_time=0
type: note_off, time: 0, actual_time: 96
type=note_on channel=9 note=59 velocity=80 time=0 actual_time=120
type: note_off, time: 0, actual_time: 216
type=note_on channel=9 note=59 velocity=0 time=96 actual_time=74976
type=note_on channel=9 note=53 velocity=0 time=0 actual_time=74976
type=note_on channel=9 note=49 velocity=0 time=0 actual_time=74976
type=note_on channel=9 note=35 velocity=0 time=0 actual_time=74976
type=note_on channel=9 note=53 velocity=80 time=24 actual_time=75000
type: note_off, time: 24, actual_time: 75096
type=note_on channel=9 note=40 velocity=80 time=0 actual_time=80
type: note_off, time: 0, actual_time: 176
type=note_on channel=9 note=40 velocity=80 time=0 actual_time=80
type: note_off, time: 0, actual_time: 176
type=note_on channel=9 note=59 velocity=0 time=96 actual_time=75096
type=note_on channel=9 note=40 velocity=0 time=0 actual_time=75096
type=note_on channel=9 note=53 velocity=0 time=0 actual_time=75096
type=note_on channel=9 note=40 velocity=80 time=24 actual_time=0
type: note_off, time: 24, actual_time: 64
type=note_on channel=9 note=40 velocity=80 time=0 actual_time=120
type: note_off, time: 0, actual_time: 184
type=note_on channel=9 note=59 velocity=0 time=64 actual_time=75184
type=note_on channel=9 note=53 velocity=0 time=0 actual_time=75184
type=note_on channel=9 note=40 velocity=80 time=16 actual_time=80
type: note_off, time: 16, actual_time: 112
type=note_on channel=9 note=35 velocity=0 time=32 actual_time=75232
type=note_on channel=9 note=40 velocity=80 time=8 actual_time=80
type: note_off, time: 8, actual_time: 176
type=note_on channel=9 note=40 velocity=80 time=0 actual_time=75240
type: note_off, time: 0, actual_time: 75336
type=note_on channel=9 note=40 velocity=80 time=0 actual_time=80
type: note_off, time: 0, actual_time: 176
type=note_on channel=9 note=59 velocity=0 time=96 actual_time=75336
type=note_on channel=9 note=53 velocity=0 time=0 actual_time=75336
type=note_on channel=9 note=40 velocity=0 time=0 actual_time=75336
type=note_on channel=9 note=55 velocity=80 time=24 actual_time=80
type: note_off, time: 24, actual_time: 176
type=note_on channel=9 note=40 velocity=80 time=0 actual_time=80
type: note_off, time: 0, actual_time: 176
type=note_on channel=9 note=35 velocity=80 time=0 actual_time=120
type: note_off, time: 0, actual_time: 216
type=note_on channel=9 note=35 velocity=0 time=96 actual_time=75456
type=note_on channel=9 note=59 velocity=0 time=0 actual_time=75456
type=note_on channel=9 note=53 velocity=0 time=0 actual_time=75456
type=note_on channel=9 note=40 velocity=80 time=24 actual_time=80
type: note_off, time: 24, actual_time: 176
type=note_on channel=9 note=40 velocity=80 time=0 actual_time=75480
type: note_off, time: 0, actual_time: 75576
type=note_on channel=9 note=40 velocity=80 time=0 actual_time=0
type: note_off, time: 0, actual_time: 96
type=note_on channel=9 note=53 velocity=0 time=96 actual_time=75576
type=note_on channel=9 note=40 velocity=0 time=0 actual_time=75576
type=note_on channel=9 note=59 velocity=0 time=0 actual_time=75576
type=note_on channel=9 note=59 velocity=80 time=24 actual_time=75600
type: note_off, time: 24, actual_time: 75664
type=note_on channel=9 note=40 velocity=80 time=0 actual_time=0
type: note_off, time: 0, actual_time: 64
type=note_on channel=9 note=53 velocity=0 time=64 actual_time=75664
type=note_on channel=9 note=59 velocity=0 time=0 actual_time=75664
type=note_on channel=9 note=40 velocity=80 time=16 actual_time=80
type: note_off, time: 16, actual_time: 112
type=note_on channel=9 note=35 velocity=0 time=32 actual_time=75712
type=note_on channel=9 note=40 velocity=80 time=8 actual_time=0
type: note_off, time: 8, actual_time: 96
type=note_on channel=9 note=40 velocity=80 time=0 actual_time=40
type: note_off, time: 0, actual_time: 136
type=note_on channel=9 note=40 velocity=80 time=0 actual_time=75720
type: note_off, time: 0, actual_time: 75816
type=note_on channel=9 note=40 velocity=0 time=96 actual_time=75816
type=note_on channel=9 note=53 velocity=0 time=0 actual_time=75816
type=note_on channel=9 note=59 velocity=0 time=0 actual_time=75816
type=note_on channel=9 note=40 velocity=80 time=24 actual_time=0
type: note_off, time: 24, actual_time: 96
type=note_on channel=9 note=40 velocity=80 time=0 actual_time=80
type: note_off, time: 0, actual_time: 176
type=note_on channel=9 note=49 velocity=80 time=0 actual_time=0
type: note_off, time: 0, actual_time: 96
type=note_on channel=9 note=40 velocity=80 time=0 actual_time=120
type: note_off, time: 0, actual_time: 216
type=note_on channel=9 note=53 velocity=0 time=96 actual_time=75936
type=note_on channel=9 note=59 velocity=0 time=0 actual_time=75936
type=note_on channel=9 note=35 velocity=0 time=0 actual_time=75936
type=note_on channel=9 note=49 velocity=0 time=0 actual_time=75936
type=note_on channel=9 note=40 velocity=80 time=24 actual_time=75960
type: note_off, time: 24, actual_time: 76056
type=note_on channel=9 note=45 velocity=80 time=0 actual_time=40
type: note_off, time: 0, actual_time: 136
type=note_on channel=9 note=40 velocity=80 time=0 actual_time=80
type: note_off, time: 0, actual_time: 176
type=note_on channel=9 note=53 velocity=0 time=96 actual_time=76056
type=note_on channel=9 note=40 velocity=0 time=0 actual_time=76056
type=note_on channel=9 note=59 velocity=0 time=0 actual_time=76056
type=note_on channel=9 note=40 velocity=80 time=24 actual_time=40
type: note_off, time: 24, actual_time: 104
type=note_on channel=9 note=40 velocity=80 time=0 actual_time=80
type: note_off, time: 0, actual_time: 144
type=note_on channel=9 note=53 velocity=0 time=64 actual_time=76144
type=note_on channel=9 note=59 velocity=0 time=0 actual_time=76144
type=note_on channel=9 note=40 velocity=80 time=16 actual_time=120
type: note_off, time: 16, actual_time: 152
type=note_on channel=9 note=35 velocity=0 time=32 actual_time=76192
type=note_on channel=9 note=40 velocity=80 time=8 actual_time=0
type: note_off, time: 8, actual_time: 96
type=note_on channel=9 note=40 velocity=80 time=0 actual_time=80
type: note_off, time: 0, actual_time: 176
type=note_on channel=9 note=38 velocity=80 time=0 actual_time=76200
type: note_off, time: 0, actual_time: 76296
type=note_on channel=9 note=40 velocity=0 time=96 actual_time=76296
type=note_on channel=9 note=53 velocity=0 time=0 actual_time=76296
type=note_on channel=9 note=59 velocity=0 time=0 actual_time=76296
type=note_on channel=9 note=40 velocity=80 time=24 actual_time=80
type: note_off, time: 24, actual_time: 144
type=note_on channel=9 note=53 velocity=80 time=0 actual_time=0
type: note_off, time: 0, actual_time: 64
type=note_on channel=9 note=40 velocity=80 time=0 actual_time=40
type: note_off, time: 0, actual_time: 104
type=note_on channel=9 note=35 velocity=0 time=64 actual_time=76384
type=note_on channel=9 note=53 velocity=0 time=0 actual_time=76384
type=note_on channel=9 note=59 velocity=0 time=0 actual_time=76384
type=note_on channel=9 note=35 velocity=80 time=16 actual_time=0
type: note_off, time: 16, actual_time: 32
type=note_on channel=9 note=35 velocity=0 time=32 actual_time=76432
type=note_on channel=9 note=40 velocity=80 time=8 actual_time=80
type: note_off, time: 8, actual_time: 176
type=note_on channel=9 note=40 velocity=80 time=0 actual_time=40
type: note_off, time: 0, actual_time: 136
type=note_on channel=9 note=40 velocity=80 time=0 actual_time=76440
type: note_off, time: 0, actual_time: 76536
type=note_on channel=9 note=40 velocity=80 time=0 actual_time=40
type: note_off, time: 0, actual_time: 136
type=note_on channel=9 note=49 velocity=0 time=96 actual_time=76536
type=note_on channel=9 note=59 velocity=0 time=0 actual_time=76536
type=note_on channel=9 note=53 velocity=0 time=0 actual_time=76536
type=note_on channel=9 note=40 velocity=0 time=0 actual_time=76536
type=note_on channel=9 note=40 velocity=80 time=24 actual_time=0
type: note_off, time: 24, actual_time: 64
type=note_on channel=9 note=40 velocity=80 time=0 actual_time=40
type: note_off, time: 0, actual_time: 104
type=note_on channel=9 note=40 velocity=80 time=0 actual_time=80
type: note_off, time: 0, actual_time: 144
type=note_on channel=9 note=35 velocity=0 time=64 actual_time=76624
type=note_on channel=9 note=53 velocity=0 time=0 actual_time=76624
type=note_on channel=9 note=59 velocity=0 time=0 actual_time=76624
type=note_on channel=9 note=40 velocity=80 time=16 actual_time=120
type: note_off, time: 16, actual_time: 152
type=note_on channel=9 note=35 velocity=0 time=32 actual_time=76672
type=note_on channel=9 note=40 velocity=80 time=8 actual_time=76680
type: note_off, time: 8, actual_time: 76776
type=note_on channel=9 note=40 velocity=80 time=0 actual_time=40
type: note_off, time: 0, actual_time: 136
type=note_on channel=9 note=40 velocity=80 time=0 actual_time=80
type: note_off, time: 0, actual_time: 176
type=note_on channel=9 note=50 velocity=80 time=0 actual_time=76680
type: note_off, time: 0, actual_time: 76776
type=note_on channel=9 note=49 velocity=0 time=96 actual_time=76776
type=note_on channel=9 note=59 velocity=0 time=0 actual_time=76776
type=note_on channel=9 note=53 velocity=0 time=0 actual_time=76776
type=note_on channel=9 note=40 velocity=0 time=0 actual_time=76776
type=note_on channel=9 note=53 velocity=80 time=24 actual_time=80
type: note_off, time: 24, actual_time: 176
type=note_on channel=9 note=40 velocity=80 time=0 actual_time=40
type: note_off, time: 0, actual_time: 136
type=note_on channel=9 note=40 velocity=80 time=0 actual_time=80
type: note_off, time: 0, actual_time: 176
type=note_on channel=9 note=59 velocity=80 time=0 actual_time=40
type: note_off, time: 0, actual_time: 136
type=note_on channel=9 note=59 velocity=0 time=96 actual_time=76896
type=note_on channel=9 note=53 velocity=0 time=0 actual_time=76896
type=note_on channel=9 note=49 velocity=0 time=0 actual_time=76896
type=note_on channel=9 note=35 velocity=0 time=0 actual_time=76896
type=note_on channel=9 note=40 velocity=80 time=24 actual_time=0
type: note_off, time: 24, actual_time: 96
type=note_on channel=9 note=40 velocity=80 time=0 actual_time=80
type: note_off, time: 0, actual_time: 176
type=note_on channel=9 note=40 velocity=80 time=0 actual_time=76920
type: note_off, time: 0, actual_time: 77016
type=note_on channel=9 note=59 velocity=0 time=96 actual_time=77016
type=note_on channel=9 note=40 velocity=0 time=0 actual_time=77016
type=note_on channel=9 note=53 velocity=0 time=0 actual_time=77016
type=note_on channel=9 note=40 velocity=80 time=24 actual_time=80
type: note_off, time: 24, actual_time: 144
type=note_on channel=9 note=40 velocity=80 time=0 actual_time=40
type: note_off, time: 0, actual_time: 104
type=note_on channel=9 note=59 velocity=0 time=64 actual_time=77104
type=note_on channel=9 note=53 velocity=0 time=0 actual_time=77104
type=note_on channel=9 note=40 velocity=80 time=16 actual_time=77120
type: note_off, time: 16, actual_time: 77152
type=note_on channel=9 note=35 velocity=0 time=32 actual_time=77152
type=note_on channel=9 note=40 velocity=80 time=8 actual_time=120
type: note_off, time: 8, actual_time: 216
type=note_on channel=9 note=40 velocity=80 time=0 actual_time=77160
type: note_off, time: 0, actual_time: 77256
type=note_on channel=9 note=40 velocity=80 time=0 actual_time=0
type: note_off, time: 0, actual_time: 96
type=note_on channel=9 note=59 velocity=0 time=96 actual_time=77256
type=note_on channel=9 note=53 velocity=0 time=0 actual_time=77256
type=note_on channel=9 note=40 velocity=0 time=0 actual_time=77256
type=note_on channel=9 note=40 velocity=80 time=24 actual_time=80
type: note_off, time: 24, actual_time: 176
type=note_on channel=9 note=60 velocity=80 time=0 actual_time=0
type: note_off, time: 0, actual_time: 96
type=note_on channel=9 note=40 velocity=80 time=0 actual_time=77280
type: note_off, time: 0, actual_time: 77376
type=note_on channel=9 note=35 velocity=0 time=96 actual_time=77376
type=note_on channel=9 note=59 velocity=0 time=0 actual_time=77376
type=note_on channel=9 note=53 velocity=0 time=0 actual_time=77376
type=note_on channel=9 note=40 velocity=80 time=24 actual_time=120
type: note_off, time: 24, actual_time: 216
type=note_on channel=9 note=40 velocity=80 time=0 actual_time=120
type: note_off, time: 0, actual_time: 216
type=note_on channel=9 note=40 velocity=80 time=0 actual_time=80
type: note_off, time: 0, actual_time: 176
type=note_on channel=9 note=53 velocity=0 time=96 actual_time=77496
type=note_on channel=9 note=40 velocity=0 time=0 actual_time=77496
type=note_on channel=9 note=59 velocity=0 time=0 actual_time=77496
type=note_on channel=9 note=59 velocity=80 time=24 actual_time=80
type: note_off, time: 24, actual_time: 144
type=note_on channel=9 note=53 velocity=80 time=0 actual_time=77520
type: note_off, time: 0, actual_time: 77584
type=note_on channel=9 note=53 velocity=0 time=64 actual_time=77584
type=note_on channel=9 note=59 velocity=0 time=0 actual_time=77584
type=note_on channel=9 note=35 velocity=80 time=16 actual_time=40
type: note_off, time: 16, actual_time: 72
type=note_on channel=9 note=35 velocity=0 time=32 actual_time=77632
type=note_on channel=9 note=40 velocity=80 time=8 actual_time=0
type: note_off, time: 8, actual_time: 96
type=note_on channel=9 note=57 velocity=80 time=0 actual_time=0
type: note_off, time: 0, actual_time: 96
type=note_on channel=9 note=40 velocity=80 time=0 actual_time=40
type: note_off, time: 0, actual_time: 136
type=note_on channel=9 note=40 velocity=0 time=96 actual_time=77736
type=note_on channel=9 note=53 velocity=0 time=0 actual_time=77736
type=note_on channel=9 note=59 velocity=0 time=0 actual_time=77736
type=note_on channel=9 note=61 velocity=80 time=24 actual_time=0
type: note_off, time: 24, actual_time: 96
type=note_on channel=9 note=35 velocity=80 time=0 actual_time=120
type: note_off, time: 0, actual_time: 216
type=note_on channel=9 note=49 velocity=80 time=0 actual_time=40
type: note_off, time: 0, actual_time: 136
type=note_on channel=9 note=53 velocity=80 time=0 actual_time=77760
type: note_off, time: 0, actual_time: 77856
type=note_on channel=9 note=53 velocity=0 time=96 actual_time=77856
type=note_on channel=9 note=59 velocity=0 time=0 actual_time=77856
type=note_on channel=9 note=35 velocity=0 time=0 actual_time=77856
type=note_on channel=9 note=49 velocity=0 time=0 actual_time=77856
type=note_on channel=9 note=40 velocity=80 time=24 actual_time=120
type: note_off, time: 24, actual_time: 216
type=note_on channel=9 note=40 velocity=80 time=0 actual_time=0
type: note_off, time: 0, actual_time: 96
type=note_on channel=9 note=53 velocity=80 time=0 actual_time=120
type: note_off, time: 0, actual_time: 216
type=note_on channel=9 note=53 velocity=0 time=96 actual_time=77976
type=note_on channel=9 note=40 velocity=0 time=0 actual_time=77976
type=note_on channel=9 note=59 velocity=0 time=0 actual_time=77976
type=note_on channel=9 note=40 velocity=80 time=24 actual_time=80
type: note_off, time: 24, actual_time: 144
type=note_on channel=9 note=40 velocity=80 time=0 actual_time=80
type: note_off, time: 0, actual_time: 144
type=note_on channel=9 note=53 velocity=0 time=64 actual_time=78064
type=note_on channel=9 note=59 velocity=0 time=0 actual_time=78064
type=note_on channel=9 note=40 velocity=80 time=16 actual_time=0
type: note_off, time: 16, actual_time: 32
type=note_on channel=9 note=35 velocity=0 time=32 actual_time=78112
type=note_on channel=9 note=40 velocity=80 time=8 actual_time=78120
type: note_off, time: 8, actual_time: 78216
type=note_on channel=9 note=58 velocity=80 time=0 actual_time=0
type: note_off, time: 0, actual_time: 96
type=note_on channel=9 note=40 velocity=80 time=0 actual_time=78120
type: note_off, time: 0, actual_time: 78216
type=note_on channel=9 note=40 velocity=0 time=96 actual_time=78216
type=note_on channel=9 note=53 velocity=0 time=0 actual_time=78216
type=note_on channel=9 note=59 velocity=0 time=0 actual_time=78216
type=note_on channel=9 note=59 velocity=80 time=24 actual_time=40
type: note_off, time: 24, actual_time: 104
type=note_on channel=9 note=40 velocity=80 time=0 actual_time=80
type: note_off, time: 0, actual_time: 144
type=note_on channel=9 note=40 velocity=80 time=0 actual_time=120
type: note_off, time: 0, actual_time: 184
type=note_on channel=9 note=35 velocity=0 time=64 actual_time=78304
type=note_on channel=9 note=53 velocity=0 time=0 actual_time=78304
type=note_on channel=9 note=59 velocity=0 time=0 actual_time=78304
type=note_on channel=9 note=40 velocity=80 time=16 actual_time=80
type: note_off, time: 16, actual_time: 112
type=note_on channel=9 note=35 velocity=0 time=32 actual_time=78352
type=note_on channel=9 note=59 velocity=80 time=8 actual_time=0
type: note_off, time: 8, actual_time: 96
type=note_on channel=9 note=50 velocity=80 time=0 actual_time=78360
type: note_off, time: 0, actual_time: 78456
type=note_on channel=9 note=40 velocity=80 time=0 actual_time=0
type: note_off, time: 0, actual_time: 96
type=note_on channel=9 note=49 velocity=80 time=0 actual_time=120
type: note_off, time: 0, actual_time: 216
type=note_on channel=9 note=49 velocity=0 time=96 actual_time=78456
type=note_on channel=9 note=59 velocity=0 time=0 actual_time=78456
type=note_on channel=9 note=53 velocity=0 time=0 actual_time=78456
type=note_on channel=9 note=40 velocity=0 time=0 actual_time=78456
type=note_on channel=9 note=54 velocity=80 time=24 actual_time=80
type: note_off, time: 24, actual_time: 144
type=note_on channel=9 note=40 velocity=80 time=0 actual_time=40
type: note_off, time: 0, actual_time: 104
type=note_on channel=9 note=40 velocity=80 time=0 actual_time=120
type: note_off, time: 0, actual_time: 184
type=note_on channel=9 note=35 velocity=0 time=64 actual_time=78544
type=note_on channel=9 note=53 velocity=0 time=0 actual_time=78544
type=note_on channel=9 note=59 velocity=0 time=0 actual_time=78544
type=note_on channel=9 note=35 velocity=80 time=16 actual_time=80
type: note_off, time: 16, actual_time: 112
type=note_on channel=9 note=35 velocity=0 time=32 actual_time=78592
type=note_on channel=9 note=40 velocity=80 time=8 actual_time=80
type: note_off, time: 8, actual_time: 176
type=note_on channel=9 note=53 velocity=80 time=0 actual_time=120
type: note_off, time: 0, actual_time: 216
type=note_on channel=9 note=40 velocity=80 time=0 actual_time=0
type: note_off, time: 0, actual_time: 96
type=note_on channel=9 note=40 velocity=80 time=0 actual_time=78600
type: note_off, time: 0, actual_time: 78696
type=note_on channel=9 note=49 velocity=0 time=96 actual_time=78696
type=note_on channel=9 note=59 velocity=0 time=0 actual_time=78696
type=note_on channel=9 note=53 velocity=0 time=0 actual_time=78696
type=note_on channel=9 note=40 velocity=0 time=0 actual_time=78696
type=note_on channel=9 note=40 velocity=80 time=24 actual_time=40
type: note_off, time: 24, actual_time: 136
type=note_on channel=9 note=40 velocity=80 time=0 actual_time=0
type: note_off, time: 0, actual_time: 96
type=note_on channel=9 note=40 velocity=80 time=0 actual_time=80
type: note_off, time: 0, actual_time: 176
type=note_on channel=9 note=40 velocity=80 time=0 actual_time=0
type: note_off, time: 0, actual_time: 96
type=note_on channel=9 note=53 velocity=0 time=96 actual_time=78816
type=note_on channel=9 note=59 velocity=0 time=0 actual_time=78816
type=note_on channel=9 note=35 velocity=0 time=0 actual_time=78816
type=note_on channel=9 note=49 velocity=0 time=0 actual_time=78816
type=note_on channel=9 note=40 velocity=80 time=24 actual_time=78840
type: note_off, time: 24, actual_time: 78936
type=note_on channel=9 note=40 velocity=80 time=0 actual_time=120
type: note_off, time: 0, actual_time: 216
type=note_on channel=9 note=40 velocity=80 time=0 actual_time=80
type: note_off, time: 0, actual_time: 176
type=note_on channel=9 note=53 velocity=0 time=96 actual_time=78936
type=note_on channel=9 note=40 velocity=0 time=0 actual_time=78936
type=note_on channel=9 note=59 velocity=0 time=0 actual_time=78936
type=note_on channel=9 note=59 velocity=80 time=24 actual_time=80
type: note_off, time: 24, actual_time: 144
type=note_on channel=9 note=40 velocity=80 time=0 actual_time=78960
type: note_off, time: 0, actual_time: 79024
type=note_on channel=9 note=53 velocity=0 time=64 actual_time=79024
type=note_on channel=9 note=59 velocity=0 time=0 actual_time=79024
type=note_on channel=9 note=40 velocity=80 time=16 actual_time=120
type: note_off, time: 16, actual_time: 152
type=note_on channel=9 note=35 velocity=0 time=32 actual_time=79072
type=note_on channel=9 note=40 velocity=80 time=8 actual_time=80
type: note_off, time: 8, actual_time: 176
type=note_on channel=9 note=40 velocity=80 time=0 actual_time=120
type: note_off, time: 0, actual_time: 216
type=note_on channel=9 note=40 velocity=80 time=0 actual_time=120
type: note_off, time: 0, actual_time: 216
type=note_on channel=9 note=40 velocity=0 time=96 actual_time=79176
type=note_on channel=9 note=53 velocity=0 time=0 actual_time=79176
type=note_on channel=9 note=59 velocity=0 time=0 actual_time=79176
type=note_on channel=9 note=40 velocity=80 time=24 actual_time=79200
type: note_off, time: 24, actual_time: 79296
type=note_on channel=9 note=40 velocity=80 time=0 actual_time=79200
type: note_off, time: 0, actual_time: 79296
type=note_on channel=9 note=40 velocity=80 time=0 actual_time=0
type: note_off, time: 0, actual_time: 96
type=note_on channel=9 note=53 velocity=0 time=96 actual_time=79296
type=note_on channel=9 note=59 velocity=0 time=0 actual_time=79296
type=note_on channel=9 note=35 velocity=0 time=0 actual_time=79296
type=note_on channel=9 note=40 velocity=80 time=24 actual_time=120
type: note_off, time: 24, actual_time: 216
type=note_on channel=9 note=40 velocity=80 time=0 actual_time=120
type: note_off, time: 0, actual_time: 216
type=note_on channel=9 note=40 velocity=80 time=0 actual_time=40
type: note_off, time: 0, actual_time: 136
type=note_on channel=9 note=59 velocity=0 time=96 actual_time=79416
type=note_on channel=9 note=40 velocity=0 time=0 actual_time=79416
type=note_on channel=9 note=53 velocity=0 time=0 actual_time=79416
type=note_on channel=9 note=53 velocity=80 time=24 actual_time=40
type: note_off, time: 24, actual_time: 104
type=note_on channel=9 note=59 velocity=80 time=0 actual_time=120
type: note_off, time: 0, actual_time: 184
type=note_on channel=9 note=59 velocity=0 time=64 actual_time=79504
type=note_on channel=9 note=53 velocity=0 time=0 actual_time=79504
type=note_on channel=9 note=40 velocity=80 time=16 actual_time=40
type: note_off, time: 16, actual_time: 72
type=note_on channel=9 note=35 velocity=0 time=32 actual_time=79552
type=note_on channel=9 note=35 velocity=80 time=8 actual_time=80
type: note_off, time: 8, actual_time: 176
type=note_on channel=9 note=40 velocity=80 time=0 actual_time=0
type: note_off, time: 0, actual_time: 96
type=note_on channel=9 note=63 velocity=80 time=0 actual_time=40
type: note_off, time: 0, actual_time: 136
type=note_on channel=9 note=59 velocity=0 time=96 actual_time=79656
type=note_on channel=9 note=53 velocity=0 time=0 actual_time=79656
type=note_on channel=9 note=40 velocity=0 time=0 actual_time=79656
type=note_on channel=9 note=31 velocity=80 time=24 actual_time=120
type: note_off, time: 24, actual_time: 152
type=note_on channel=9 note=31 velocity=80 time=0 actual_time=120
type: note_off, time: 0, actual_time: 152
type=note_on channel=9 note=31 velocity=0 time=32 actual_time=79712
type=note_on channel=9 note=31 velocity=0 time=0 actual_time=79712
type=note_on channel=9 note=31 velocity=80 time=8 actual_time=40
type: note_off, time: 8, actual_time: 72
type=note_on channel=9 note=31 velocity=0 time=32 actual_time=79752
type=note_on channel=9 note=40 velocity=80 time=8 actual_time=0
type: note_off, time: 8, actual_time: 32
type=note_on channel=9 note=31 velocity=0 time=32 actual_time=79792
type=note_on channel=9 note=40 velocity=80 time=8 actual_time=79800
type: note_off, time: 8, actual_time: 79832
type=note_on channel=9 note=30 velocity=80 time=0 actual_time=80
type: note_off, time: 0, actual_time: 112
type=note_on channel=9 note=31 velocity=0 time=32 actual_time=79832
type=note_on channel=9 note=31 velocity=0 time=0 actual_time=79832
type=note_on channel=9 note=40 velocity=80 time=8 actual_time=0
type: note_off, time: 8, actual_time: 32
type=note_on channel=9 note=31 velocity=0 time=32 actual_time=79872
type=note_on channel=9 note=40 velocity=80 time=8 actual_time=40
type: note_off, time: 8, actual_time: 72
type=note_on channel=9 note=31 velocity=0 time=32 actual_time=79912
type=note_on channel=9 note=31 velocity=80 time=8 actual_time=0
type: note_off, time: 8, actual_time: 32
type=note_on channel=9 note=40 velocity=80 time=0 actual_time=79920
type: note_off, time: 0, actual_time: 79952
type=note_on channel=9 note=31 velocity=0 time=32 actual_time=79952
type=note_on channel=9 note=31 velocity=0 time=0 actual_time=79952
type=note_on channel=9 note=40 velocity=80 time=8 actual_time=79960
type: note_off, time: 8, actual_time: 79992
type=note_on channel=9 note=31 velocity=0 time=32 actual_time=79992
type=note_on channel=9 note=40 velocity=80 time=8 actual_time=80000
type: note_off, time: 8, actual_time: 80032
type=note_on channel=9 note=31 velocity=0 time=32 actual_time=80032
type=note_on channel=9 note=40 velocity=80 time=8 actual_time=80
type: note_off, time: 8, actual_time: 112
type=note_on channel=9 note=30 velocity=80 time=0 actual_time=120
type: note_off, time: 0, actual_time: 152
type=note_on channel=9 note=31 velocity=0 time=32 actual_time=80072
type=note_on channel=9 note=31 velocity=0 time=0 actual_time=80072
type=note_on channel=9 note=31 velocity=80 time=8 actual_time=80080
type: note_off, time: 8, actual_time: 80112
type=note_on channel=9 note=31 velocity=0 time=32 actual_time=80112
type=note_on channel=9 note=40 velocity=80 time=8 actual_time=0
type: note_off, time: 8, actual_time: 32
type=note_on channel=9 note=31 velocity=0 time=32 actual_time=80152
type=note_on channel=9 note=40 velocity=80 time=8 actual_time=0
type: note_off, time: 8, actual_time: 32
type=note_on channel=9 note=40 velocity=80 time=0 actual_time=80
type: note_off, time: 0, actual_time: 112
type=note_on channel=9 note=31 velocity=0 time=32 actual_time=80192
type=note_on channel=9 note=31 velocity=0 time=0 actual_time=80192
type=note_on channel=9 note=40 velocity=80 time=8 actual_time=80
type: note_off, time: 8, actual_time: 112
type=note_on channel=9 note=31 velocity=0 time=32 actual_time=80232
type=note_on channel=9 note=40 velocity=80 time=8 actual_time=80
type: note_off, time: 8, actual_time: 112
type=note_on channel=9 note=31 velocity=0 time=32 actual_time=80272
type=note_on channel=9 note=46 velocity=80 time=8 actual_time=0
type: note_off, time: 8, actual_time: 32
type=note_on channel=9 note=47 velocity=0 time=32 actual_time=80312
type=note_on channel=9 note=47 velocity=80 time=8 actual_time=0
type: note_off, time: 8, actual_time: 32
type=note_on channel=9 note=47 velocity=0 time=32 actual_time=80352
type=note_on channel=9 note=40 velocity=80 time=8 actual_time=80
type: note_off, time: 8, actual_time: 112
type=note_on channel=9 note=47 velocity=0 time=32 actual_time=80392
type=note_on channel=9 note=40 velocity=80 time=8 actual_time=120
type: note_off, time: 8, actual_time: 152
type=note_on channel=9 note=45 velocity=0 time=32 actual_time=80432
type=note_on channel=9 note=40 velocity=80 time=8 actual_time=120
type: note_off, time: 8, actual_time: 152
type=note_on channel=9 note=45 velocity=0 time=32 actual_time=80472
type=note_on channel=9 note=45 velocity=80 time=8 actual_time=0
type: note_off, time: 8, actual_time: 32
type=note_on channel=9 note=45 velocity=0 time=32 actual_time=80512
type=note_on channel=9 note=43 velocity=80 time=8 actual_time=120
type: note_off, time: 8, actual_time: 152
type=note_on channel=9 note=43 velocity=0 time=32 actual_time=80552
type=note_on channel=9 note=43 velocity=80 time=8 actual_time=120
type: note_off, time: 8, actual_time: 152
type=note_on channel=9 note=43 velocity=0 time=32 actual_time=80592
type=note_on channel=9 note=40 velocity=80 time=8 actual_time=40
type: note_off, time: 8, actual_time: 72
type=note_on channel=9 note=43 velocity=0 time=32 actual_time=80632
type=note_on channel=9 note=53 velocity=80 time=8 actual_time=80
type: note_off, time: 8, actual_time: 176
type=note_on channel=9 note=40 velocity=80 time=0 actual_time=80640
type: note_off, time: 0, actual_time: 80736
type=note_on channel=9 note=40 velocity=80 time=0 actual_time=0
type: note_off, time: 0, actual_time: 96
type=note_on channel=9 note=49 velocity=0 time=96 actual_time=80736
type=note_on channel=9 note=35 velocity=0 time=0 actual_time=80736
type=note_on channel=9 note=53 velocity=0 time=0 actual_time=80736
type=note_on channel=9 note=55 velocity=80 time=24 actual_time=80760
type: note_off, time: 24, actual_time: 80856
type=note_on channel=9 note=40 velocity=80 time=0 actual_time=80760
type: note_off, time: 0, actual_time: 80856
type=note_on channel=9 note=40 velocity=0 time=96 actual_time=80856
type=note_on channel=9 note=53 velocity=0 time=0 actual_time=80856
type=note_on channel=9 note=40 velocity=80 time=24 actual_time=0
type: note_off, time: 24, actual_time: 64
type=note_on channel=9 note=53 velocity=0 time=64 actual_time=80944
type=note_on channel=9 note=35 velocity=80 time=16 actual_time=120
type: note_off, time: 16, actual_time: 152
type=note_on channel=9 note=35 velocity=0 time=32 actual_time=80992
type=note_on channel=9 note=40 velocity=80 time=8 actual_time=80
type: note_off, time: 8, actual_time: 176
type=note_on channel=9 note=40 velocity=80 time=0 actual_time=81000
type: note_off, time: 0, actual_time: 81096
type=note_on channel=9 note=53 velocity=0 time=96 actual_time=81096
type=note_on channel=9 note=40 velocity=0 time=0 actual_time=81096
type=note_on channel=9 note=40 velocity=80 time=24 actual_time=40
type: note_off, time: 24, actual_time: 136
type=note_on channel=9 note=40 velocity=80 time=0 actual_time=120
type: note_off, time: 0, actual_time: 216
type=note_on channel=9 note=35 velocity=0 time=96 actual_time=81216
type=note_on channel=9 note=53 velocity=0 time=0 actual_time=81216
type=note_on channel=9 note=40 velocity=80 time=24 actual_time=81240
type: note_off, time: 24, actual_time: 81336
type=note_on channel=9 note=52 velocity=80 time=0 actual_time=40
type: note_off, time: 0, actual_time: 136
type=note_on channel=9 note=53 velocity=0 time=96 actual_time=81336
type=note_on channel=9 note=40 velocity=0 time=0 actual_time=81336
type=note_on channel=9 note=40 velocity=80 time=24 actual_time=0
type: note_off, time: 24, actual_time: 64
type=note_on channel=9 note=53 velocity=0 time=64 actual_time=81424
type=note_on channel=9 note=35 velocity=80 time=16 actual_time=81440
type: note_off, time: 16, actual_time: 81472
type=note_on channel=9 note=35 velocity=0 time=32 actual_time=81472
type=note_on channel=9 note=40 velocity=80 time=8 actual_time=120
type: note_off, time: 8, actual_time: 216
type=note_on channel=9 note=39 velocity=80 time=0 actual_time=120
type: note_off, time: 0, actual_time: 216
type=note_on channel=9 note=40 velocity=0 time=96 actual_time=81576
type=note_on channel=9 note=53 velocity=0 time=0 actual_time=81576
type=note_on channel=9 note=40 velocity=80 time=24 actual_time=0
type: note_off, time: 24, actual_time: 96
type=note_on channel=9 note=40 velocity=80 time=0 actual_time=120
type: note_off, time: 0, actual_time: 216
type=note_on channel=9 note=40 velocity=80 time=0 actual_time=40
type: note_off, time: 0, actual_time: 136
type=note_on channel=9 note=49 velocity=0 time=96 actual_time=81696
type=note_on channel=9 note=35 velocity=0 time=0 actual_time=81696
type=note_on channel=9 note=53 velocity=0 time=0 actual_time=81696
type=note_on channel=9 note=40 velocity=80 time=24 actual_time=120
type: note_off, time: 24, actual_time: 216
type=note_on channel=9 note=40 velocity=80 time=0 actual_time=80
type: note_off, time: 0, actual_time: 176
type=note_on channel=9 note=40 velocity=0 time=96 actual_time=81816
type=note_on channel=9 note=53 velocity=0 time=0 actual_time=81816
type=note_on channel=9 note=40 velocity=80 time=24 actual_time=80
type: note_off, time: 24, actual_time: 144
type=note_on channel=9 note=53 velocity=0 time=64 actual_time=81904
type=note_on channel=9 note=35 velocity=80 time=16 actual_time=81920
type: note_off, time: 16, actual_time: 81952
type=note_on channel=9 note=35 velocity=0 time=32 actual_time=81952
type=note_on channel=9 note=40 velocity=80 time=8 actual_time=80
type: note_off, time: 8, actual_time: 176
type=note_on channel=9 note=40 velocity=80 time=0 actual_time=80
type: note_off, time: 0, actual_time: 176
type=note_on channel=9 note=53 velocity=0 time=96 actual_time=82056
type=note_on channel=9 note=40 velocity=0 time=0 actual_time=82056
type=note_on channel=9 note=35 velocity=80 time=24 actual_time=82080
type: note_off, time: 24, actual_time: 82176
type=note_on channel=9 note=40 velocity=80 time=0 actual_time=40
type: note_off, time: 0, actual_time: 136
type=note_on channel=9 note=53 velocity=0 time=96 actual_time=82176
type=note_on channel=9 note=35 velocity=0 time=0 actual_time=82176
type=note_on channel=9 note=40 velocity=80 time=24 actual_time=82200
type: note_off, time: 24, actual_time: 82296
type=note_on channel=9 note=40 velocity=80 time=0 actual_time=80
type: note_off, time: 0, actual_time: 176
type=note_on channel=9 note=40 velocity=80 time=0 actual_time=40
type: note_off, time: 0, actual_time: 136
type=note_on channel=9 note=53 velocity=0 time=96 actual_time=82296
type=note_on channel=9 note=40 velocity=0 time=0 actual_time=82296
type=note_on channel=9 note=49 velocity=0 time=0 actual_time=82296
type=note_on channel=9 note=48 velocity=80 time=24 actual_time=40
type: note_off, time: 24, actual_time: 104
type=note_on channel=9 note=53 velocity=0 time=64 actual_time=82384
type=note_on channel=9 note=40 velocity=80 time=16 actual_time=40
type: note_off, time: 16, actual_time: 72
type=note_on channel=9 note=35 velocity=0 time=32 actual_time=82432
type=note_on channel=9 note=40 velocity=80 time=8 actual_time=82440
type: note_off, time: 8, actual_time: 82536
type=note_on channel=9 note=40 velocity=80 time=0 actual_time=40
type: note_off, time: 0, actual_time: 136
type=note_on channel=9 note=40 velocity=80 time=0 actual_time=80
type: note_off, time: 0, actual_time: 176
type=note_on channel=9 note=40 velocity=0 time=96 actual_time=82536
type=note_on channel=9 note=53 velocity=0 time=0 actual_time=82536
type=note_on channel=9 note=49 velocity=0 time=0 actual_time=82536
type=note_on channel=9 note=40 velocity=80 time=24 actual_time=82560
type: note_off, time: 24, actual_time: 82656
type=note_on channel=9 note=53 velocity=80 time=0 actual_time=80
type: note_off, time: 0, actual_time: 176
type=note_on channel=9 note=53 velocity=0 time=96 actual_time=82656
type=note_on channel=9 note=35 velocity=0 time=0 actual_time=82656
type=note_on channel=9 note=40 velocity=80 time=24 actual_time=82680
type: note_off, time: 24, actual_time: 82776
type=note_on channel=9 note=40 velocity=80 time=0 actual_time=0
type: note_off, time: 0, actual_time: 96
type=note_on channel=9 note=53 velocity=0 time=96 actual_time=82776
type=note_on channel=9 note=40 velocity=0 time=0 actual_time=82776
type=note_on channel=9 note=40 velocity=80 time=24 actual_time=120
type: note_off, time: 24, actual_time: 184
type=note_on channel=9 note=53 velocity=0 time=64 actual_time=82864
type=note_on channel=9 note=35 velocity=80 time=16 actual_time=40
type: note_off, time: 16, actual_time: 72
type=note_on channel=9 note=35 velocity=0 time=32 actual_time=82912
type=note_on channel=9 note=40 velocity=80 time=8 actual_time=0
type: note_off, time: 8, actual_time: 96
type=note_on channel=9 note=40 velocity=80 time=0 actual_time=40
type: note_off, time: 0, actual_time: 136
type=note_on channel=9 note=40 velocity=0 time=96 actual_time=83016
type=note_on channel=9 note=53 velocity=0 time=0 actual_time=83016
type=note_on channel=9 note=52 velocity=80 time=24 actual_time=0
type: note_off, time: 24, actual_time: 96
type=note_on channel=9 note=40 velocity=80 time=0 actual_time=120
type: note_off, time: 0, actual_time: 216
type=note_on channel=9 note=35 velocity=0 time=96 actual_time=83136
type=note_on channel=9 note=53 velocity=0 time=0 actual_time=83136
type=note_on channel=9 note=56 velocity=80 time=24 actual_time=40
type: note_off, time: 24, actual_time: 136
type=note_on channel=9 note=40 velocity=80 time=0 actual_time=40
type: note_off, time: 0, actual_time: 136
type=note_on channel=9 note=40 velocity=0 time=96 actual_time=83256
type=note_on channel=9 note=53 velocity=0 time=0 actual_time=83256
type=note_on channel=9 note=40 velocity=80 time=24 actual_time=83280
type: note_off, time: 24, actual_time: 83344
type=note_on channel=9 note=53 velocity=0 time=64 actual_time=83344
type=note_on channel=9 note=40 velocity=80 time=16 actual_time=83360
type: note_off, time: 16, actual_time: 83392
type=note_on channel=9 note=35 velocity=0 time=32 actual_time=83392
type=note_on channel=9 note=40 velocity=80 time=8 actual_time=0
type: note_off, time: 8, actual_time: 96
type=note_on channel=9 note=40 velocity=80 time=0 actual_time=120
type: note_off, time: 0, actual_time: 216
type=note_on channel=9 note=53 velocity=0 time=96 actual_time=83496
type=note_on channel=9 note=40 velocity=0 time=0 actual_time=83496
type=note_on channel=9 note=40 velocity=80 time=24 actual_time=120
type: note_off, time: 24, actual_time: 216
type=note_on channel=9 note=40 velocity=80 time=0 actual_time=40
type: note_off, time: 0, actual_time: 136
type=note_on channel=9 note=40 velocity=80 time=0 actual_time=40
type: note_off, time: 0, actual_time: 136
type=note_on channel=9 note=53 velocity=0 time=96 actual_time=83616
type=note_on channel=9 note=35 velocity=0 time=0 actual_time=83616
type=note_on channel=9 note=49 velocity=0 time=0 actual_time=83616
type=note_on channel=9 note=37 velocity=80 time=24 actual_time=40
type: note_off, time: 24, actual_time: 136
type=note_on channel=9 note=40 velocity=80 time=0 actual_time=40
type: note_off, time: 0, actual_time: 136
type=note_on channel=9 note=53 velocity=0 time=96 actual_time=83736
type=note_on channel=9 note=40 velocity=0 time=0 actual_time=83736
type=note_on channel=9 note=53 velocity=80 time=24 actual_time=40
type: note_off, time: 24, actual_time: 104
type=note_on channel=9 note=53 velocity=0 time=64 actual_time=83824
type=note_on channel=9 note=40 velocity=80 time=16 actual_time=120
type: note_off, time: 16, actual_time: 152
type=note_on channel=9 note=35 velocity=0 time=32 actual_time=83872
type=note_on channel=9 note=40 velocity=80 time=8 actual_time=83880
type: note_off, time: 8, actual_time: 83976
type=note_on channel=9 note=40 velocity=80 time=0 actual_time=0
type: note_off, time: 0, actual_time: 96
type=note_on channel=9 note=40 velocity=0 time=96 actual_time=83976
type=note_on channel=9 note=53 velocity=0 time=0 actual_time=83976
type=note_on channel=9 note=57 velocity=80 time=24 actual_time=84000
type: note_off, time: 24, actual_time: 84096
type=note_on channel=9 note=40 velocity=80 time=0 actual_time=0
type: note_off, time: 0, actual_time: 96
type=note_on channel=9 note=35 velocity=0 time=96 actual_time=84096
type=note_on channel=9 note=53 velocity=0 time=0 actual_time=84096
type=note_on channel=9 note=40 velocity=80 time=24 actual_time=84120
type: note_off, time: 24, actual_time: 84216
type=note_on channel=9 note=40 velocity=80 time=0 actual_time=0
type: note_off, time: 0, actual_time: 96
type=note_on channel=9 note=40 velocity=80 time=0 actual_time=84120
type: note_off, time: 0, actual_time: 84216
type=note_on channel=9 note=49 velocity=0 time=96 actual_time=84216
type=note_on channel=9 note=40 velocity=0 time=0 actual_time=84216
type=note_on channel=9 note=53 velocity=0 time=0 actual_time=84216
type=note_on channel=9 note=40 velocity=80 time=24 actual_time=40
type: note_off, time: 24, actual_time: 104
type=note_on channel=9 note=53 velocity=0 time=64 actual_time=84304
type=note_on channel=9 note=40 velocity=80 time=16 actual_time=0
type: note_off, time: 16, actual_time: 32
type=note_on channel=9 note=35 velocity=0 time=32 actual_time=84352
type=note_on channel=9 note=40 velocity=80 time=8 actual_time=40
type: note_off, time: 8, actual_time: 136
type=note_on channel=9 note=53 velocity=80 time=0 actual_time=0
type: note_off, time: 0, actual_time: 96
type=note_on channel=9 note=40 velocity=80 time=0 actual_time=0
type: note_off, time: 0, actual_time: 96
type=note_on channel=9 note=49 velocity=0 time=96 actual_time=84456
type=note_on channel=9 note=53 velocity=0 time=0 actual_time=84456
type=note_on channel=9 note=40 velocity=0 time=0 actual_time=84456
type=note_on channel=9 note=40 velocity=80 time=24 actual_time=84480
type: note_off, time: 24, actual_time: 84576
type=note_on channel=9 note=40 velocity=80 time=0 actual_time=40
type: note_off, time: 0, actual_time: 136
type=note_on channel=9 note=35 velocity=0 time=96 actual_time=84576
type=note_on channel=9 note=53 velocity=0 time=0 actual_time=84576
type=note_on channel=9 note=40 velocity=80 time=24 actual_time=120
type: note_off, time: 24, actual_time: 216
type=note_on channel=9 note=40 velocity=80 time=0 actual_time=0
type: note_off, time: 0, actual_time: 96
type=note_on channel=9 note=40 velocity=0 time=96 actual_time=84696
type=note_on channel=9 note=53 velocity=0 time=0 actual_time=84696
type=note_on channel=9 note=40 velocity=80 time=24 actual_time=0
type: note_off, time: 24, actual_time: 64
type=note_on channel=9 note=53 velocity=0 time=64 actual_time=84784
type=note_on channel=9 note=40 velocity=80 time=16 actual_time=84800
type: note_off, time: 16, actual_time: 84832
type=note_on channel=9 note=35 velocity=0 time=32 actual_time=84832
type=note_on channel=9 note=40 velocity=80 time=8 actual_time=0
type: note_off, time: 8, actual_time: 96
type=note_on channel=9 note=40 velocity=80 time=0 actual_time=80
type: note_off, time: 0, actual_time: 176
type=note_on channel=9 note=53 velocity=0 time=96 actual_time=84936
type=note_on channel=9 note=40 velocity=0 time=0 actual_time=84936
type=note_on channel=9 note=40 velocity=80 time=24 actual_time=80
type: note_off, time: 24, actual_time: 176
type=note_on channel=9 note=40 velocity=80 time=0 actual_time=84960
type: note_off, time: 0, actual_time: 85056
type=note_on channel=9 note=53 velocity=0 time=96 actual_time=85056
type=note_on channel=9 note=35 velocity=0 time=0 actual_time=85056
type=note_on channel=9 note=40 velocity=80 time=24 actual_time=80
type: note_off, time: 24, actual_time: 176
type=note_on channel=9 note=53 velocity=80 time=0 actual_time=85080
type: note_off, time: 0, actual_time: 85176
type=note_on channel=9 note=53 velocity=0 time=96 actual_time=85176
type=note_on channel=9 note=40 velocity=0 time=0 actual_time=85176
type=note_on channel=9 note=48 velocity=80 time=24 actual_time=40
type: note_off, time: 24, actual_time: 104
type=note_on channel=9 note=53 velocity=0 time=64 actual_time=85264
type=note_on channel=9 note=40 velocity=80 time=16 actual_time=0
type: note_off, time: 16, actual_time: 32
type=note_on channel=9 note=35 velocity=0 time=32 actual_time=85312
type=note_on channel=9 note=51 velocity=80 time=8 actual_time=80
type: note_off, time: 8, actual_time: 176
type=note_on channel=9 note=40 velocity=80 time=0 actual_time=0
type: note_off, time: 0, actual_time: 96
type=note_on channel=9 note=40 velocity=0 time=96 actual_time=85416
type=note_on channel=9 note=53 velocity=0 time=0 actual_time=85416
type=note_on channel=9 note=51 velocity=80 time=24 actual_time=40
type: note_off, time: 24, actual_time: 136
type=note_on channel=9 note=37 velocity=80 time=0 actual_time=120
type: note_off, time: 0, actual_time: 216
type=note_on channel=9 note=40 velocity=80 time=0 actual_time=85440
type: note_off, time: 0, actual_time: 85536
type=note_on channel=9 note=49 velocity=0 time=96 actual_time=85536
type=note_on channel=9 note=35 velocity=0 time=0 actual_time=85536
type=note_on channel=9 note=53 velocity=0 time=0 actual_time=85536
type=note_on channel=9 note=40 velocity=80 time=24 actual_time=120
type: note_off, time: 24, actual_time: 216
type=note_on channel=9 note=40 velocity=80 time=0 actual_time=80
type: note_off, time: 0, actual_time: 176
type=note_on channel=9 note=40 velocity=0 time=96 actual_time=85656
type=note_on channel=9 note=53 velocity=0 time=0 actual_time=85656
type=note_on channel=9 note=40 velocity=80 time=24 actual_time=120
type: note_off, time: 24, actual_time: 184
type=note_on channel=9 note=53 velocity=0 time=64 actual_time=85744
type=note_on channel=9 note=40 velocity=80 time=16 actual_time=85760
type: note_off, time: 16, actual_time: 85792
type=note_on channel=9 note=35 velocity=0 time=32 actual_time=85792
type=note_on channel=9 note=40 velocity=80 time=8 actual_time=40
type: note_off, time: 8, actual_time: 136
type=note_on channel=9 note=40 velocity=80 time=0 actual_time=40
type: note_off, time: 0, actual_time: 136
type=note_on channel=9 note=53 velocity=0 time=96 actual_time=85896
type=note_on channel=9 note=40 velocity=0 time=0 actual_time=85896
type=note_on channel=9 note=35 velocity=80 time=24 actual_time=40
type: note_off, time: 24, actual_time: 136
type=note_on channel=9 note=40 velocity=80 time=0 actual_time=0
type: note_off, time: 0, actual_time: 96
type=note_on channel=9 note=53 velocity=0 time=96 actual_time=86016
type=note_on channel=9 note=35 velocity=0 time=0 actual_time=86016
type=note_on channel=9 note=49 velocity=80 time=24 actual_time=0
type: note_off, time: 24, actual_time: 96
type=note_on channel=9 note=40 velocity=80 time=0 actual_time=80
type: note_off, time: 0, actual_time: 176
type=note_on channel=9 note=40 velocity=80 time=0 actual_time=40
type: note_off, time: 0, actual_time: 136
type=note_on channel=9 note=53 velocity=0 time=96 actual_time=86136
type=note_on channel=9 note=40 velocity=0 time=0 actual_time=86136
type=note_on channel=9 note=49 velocity=0 time=0 actual_time=86136
type=note_on channel=9 note=53 velocity=80 time=24 actual_time=40
type: note_off, time: 24, actual_time: 104
type=note_on channel=9 note=53 velocity=0 time=64 actual_time=86224
type=note_on channel=9 note=40 velocity=80 time=16 actual_time=120
type: note_off, time: 16, actual_time: 152
type=note_on channel=9 note=35 velocity=0 time=32 actual_time=86272
type=note_on channel=9 note=40 velocity=80 time=8 actual_time=80
type: note_off, time: 8, actual_time: 176
type=note_on channel=9 note=53 velocity=80 time=0 actual_time=0
type: note_off, time: 0, actual_time: 96
type=note_on channel=9 note=40 velocity=80 time=0 actual_time=40
type: note_off, time: 0, actual_time: 136
type=note_on channel=9 note=40 velocity=0 time=96 actual_time=86376
type=note_on channel=9 note=53 velocity=0 time=0 actual_time=86376
type=note_on channel=9 note=49 velocity=0 time=0 actual_time=86376
type=note_on channel=9 note=40 velocity=80 time=24 actual_time=120
type: note_off, time: 24, actual_time: 216
type=note_on channel=9 note=40 velocity=80 time=0 actual_time=0
type: note_off, time: 0, actual_time: 96
type=note_on channel=9 note=53 velocity=0 time=96 actual_time=86496
type=note_on channel=9 note=35 velocity=0 time=0 actual_time=86496
type=note_on channel=9 note=40 velocity=80 time=24 actual_time=120
type: note_off, time: 24, actual_time: 216
type=note_on channel=9 note=48 velocity=80 time=0 actual_time=0
type: note_off, time: 0, actual_time: 96
type=note_on channel=9 note=53 velocity=0 time=96 actual_time=86616
type=note_on channel=9 note=40 velocity=0 time=0 actual_time=86616
type=note_on channel=9 note=40 velocity=80 time=24 actual_time=40
type: note_off, time: 24, actual_time: 104
type=note_on channel=9 note=53 velocity=0 time=64 actual_time=86704
type=note_on channel=9 note=40 velocity=80 time=16 actual_time=40
type: note_off, time: 16, actual_time: 72
type=note_on channel=9 note=35 velocity=0 time=32 actual_time=86752
type=note_on channel=9 note=53 velocity=80 time=8 actual_time=86760
type: note_off, time: 8, actual_time: 86856
type=note_on channel=9 note=40 velocity=80 time=0 actual_time=120
type: note_off, time: 0, actual_time: 216
type=note_on channel=9 note=40 velocity=0 time=96 actual_time=86856
type=note_on channel=9 note=53 velocity=0 time=0 actual_time=86856
type=note_on channel=9 note=40 velocity=80 time=24 actual_time=86880
type: note_off, time: 24, actual_time: 86976
type=note_on channel=9 note=40 velocity=80 time=0 actual_time=86880
type: note_off, time: 0, actual_time: 86976
type=note_on channel=9 note=35 velocity=0 time=96 actual_time=86976
type=note_on channel=9 note=53 velocity=0 time=0 actual_time=86976
type=note_on channel=9 note=40 velocity=80 time=24 actual_time=87000
type: note_off, time: 24, actual_time: 87096
type=note_on channel=9 note=40 velocity=80 time=0 actual_time=0
type: note_off, time: 0, actual_time: 96
type=note_on channel=9 note=40 velocity=0 time=96 actual_time=87096
type=note_on channel=9 note=53 velocity=0 time=0 actual_time=87096
type=note_on channel=9 note=40 velocity=80 time=24 actual_time=87120
type: note_off, time: 24, actual_time: 87184
type=note_on channel=9 note=53 velocity=0 time=64 actual_time=87184
type=note_on channel=9 note=40 velocity=80 time=16 actual_time=87200
type: note_off, time: 16, actual_time: 87232
type=note_on channel=9 note=35 velocity=0 time=32 actual_time=87232
type=note_on channel=9 note=35 velocity=80 time=8 actual_time=87240
type: note_off, time: 8, actual_time: 87336
type=note_on channel=9 note=53 velocity=80 time=0 actual_time=80
type: note_off, time: 0, actual_time: 176
type=note_on channel=9 note=53 velocity=0 time=96 actual_time=87336
type=note_on channel=9 note=40 velocity=0 time=0 actual_time=87336
type=note_on channel=9 note=40 velocity=80 time=24 actual_time=80
type: note_off, time: 24, actual_time: 176
type=note_on channel=9 note=40 velocity=80 time=0 actual_time=0
type: note_off, time: 0, actual_time: 96
type=note_on channel=9 note=40 velocity=80 time=0 actual_time=40
type: note_off, time: 0, actual_time: 136
type=note_on channel=9 note=53 velocity=0 time=96 actual_time=87456
type=note_on channel=9 note=35 velocity=0 time=0 actual_time=87456
type=note_on channel=9 note=49 velocity=0 time=0 actual_time=87456
type=note_on channel=9 note=40 velocity=80 time=24 actual_time=0
type: note_off, time: 24, actual_time: 96
type=note_on channel=9 note=40 velocity=80 time=0 actual_time=80
type: note_off, time: 0, actual_time: 176
type=note_on channel=9 note=53 velocity=0 time=96 actual_time=87576
type=note_on channel=9 note=40 velocity=0 time=0 actual_time=87576
type=note_on channel=9 note=40 velocity=80 time=24 actual_time=80
type: note_off, time: 24, actual_time: 144
type=note_on channel=9 note=53 velocity=0 time=64 actual_time=87664
type=note_on channel=9 note=40 velocity=80 time=16 actual_time=40
type: note_off, time: 16, actual_time: 72
type=note_on channel=9 note=35 velocity=0 time=32 actual_time=87712
type=note_on channel=9 note=40 velocity=80 time=8 actual_time=40
type: note_off, time: 8, actual_time: 136
type=note_on channel=9 note=40 velocity=80 time=0 actual_time=87720
type: note_off, time: 0, actual_time: 87816
type=note_on channel=9 note=40 velocity=0 time=96 actual_time=87816
type=note_on channel=9 note=53 velocity=0 time=0 actual_time=87816
type=note_on channel=9 note=40 velocity=80 time=24 actual_time=120
type: note_off, time: 24, actual_time: 216
type=note_on channel=9 note=40 velocity=80 time=0 actual_time=120
type: note_off, time: 0, actual_time: 216
type=note_on channel=9 note=40 velocity=80 time=0 actual_time=87840
type: note_off, time: 0, actual_time: 87936
type=note_on channel=9 note=49 velocity=0 time=96 actual_time=87936
type=note_on channel=9 note=35 velocity=0 time=0 actual_time=87936
type=note_on channel=9 note=53 velocity=0 time=0 actual_time=87936
type=note_on channel=9 note=53 velocity=80 time=24 actual_time=80
type: note_off, time: 24, actual_time: 176
type=note_on channel=9 note=40 velocity=80 time=0 actual_time=80
type: note_off, time: 0, actual_time: 176
type=note_on channel=9 note=40 velocity=0 time=96 actual_time=88056
type=note_on channel=9 note=53 velocity=0 time=0 actual_time=88056
type=note_on channel=9 note=53 velocity=80 time=24 actual_time=40
type: note_off, time: 24, actual_time: 104
type=note_on channel=9 note=40 velocity=80 time=0 actual_time=88080
type: note_off, time: 0, actual_time: 88144
type=note_on channel=9 note=49 velocity=0 time=64 actual_time=88144
type=note_on channel=9 note=53 velocity=0 time=0 actual_time=88144
type=note_on channel=9 note=40 velocity=80 time=16 actual_time=88160
type: note_off, time: 16, actual_time: 88192
type=note_on channel=9 note=35 velocity=0 time=32 actual_time=88192
type=note_on channel=9 note=40 velocity=80 time=8 actual_time=40
type: note_off, time: 8, actual_time: 136
type=note_on channel=9 note=40 velocity=80 time=0 actual_time=80
type: note_off, time: 0, actual_time: 176
type=note_on channel=9 note=53 velocity=0 time=96 actual_time=88296
type=note_on channel=9 note=40 velocity=0 time=0 actual_time=88296
type=note_on channel=9 note=49 velocity=80 time=24 actual_time=40
type: note_off, time: 24, actual_time: 808
type=note_on channel=9 note=40 velocity=80 time=0 actual_time=88320
type: note_off, time: 0, actual_time: 89088
type=note_on channel=9 note=35 velocity=0 time=768 actual_time=89088
type=note_on channel=9 note=49 velocity=0 time=0 actual_time=89088
MetaMessage type: end_of_track, time: 0, actual_time: 89088
