pitchwheel channel=0 pitch=0 time=0
control_change channel=0 control=7 value=87 time=0
control_change channel=0 control=10 value=63 time=0
control_change channel=0 control=93 value=0 time=0
control_change channel=0 control=91 value=0 time=0
control_change channel=0 control=95 value=0 time=0
control_change channel=0 control=92 value=0 time=0
control_change channel=0 control=11 value=127 time=0
program_change channel=0 program=30 time=0
control_change channel=1 control=7 value=87 time=0
control_change channel=1 control=10 value=63 time=0
control_change channel=1 control=93 value=0 time=0
control_change channel=1 control=91 value=0 time=0
control_change channel=1 control=95 value=0 time=0
control_change channel=1 control=92 value=0 time=0
control_change channel=1 control=11 value=127 time=0
program_change channel=1 program=30 time=0
control_change channel=1 control=11 value=31 time=24000
note_on channel=1 note=52 velocity=95 time=0
control_change channel=1 control=11 value=32 time=60
control_change channel=1 control=11 value=33 time=60
control_change channel=1 control=11 value=34 time=60
control_change channel=1 control=11 value=35 time=60
control_change channel=1 control=11 value=36 time=60
control_change channel=1 control=11 value=37 time=60
control_change channel=1 control=11 value=38 time=60
control_change channel=1 control=11 value=39 time=60
control_change channel=1 control=11 value=40 time=60
control_change channel=1 control=11 value=41 time=60
control_change channel=1 control=11 value=42 time=60
control_change channel=1 control=11 value=43 time=60
control_change channel=1 control=11 value=44 time=60
control_change channel=1 control=11 value=45 time=60
control_change channel=1 control=11 value=46 time=60
control_change channel=1 control=11 value=47 time=60
control_change channel=1 control=11 value=48 time=60
control_change channel=1 control=11 value=49 time=60
control_change channel=1 control=11 value=50 time=60
control_change channel=1 control=11 value=51 time=60
control_change channel=1 control=11 value=52 time=60
control_change channel=1 control=11 value=53 time=60
control_change channel=1 control=11 value=54 time=60
control_change channel=1 control=11 value=55 time=60
control_change channel=1 control=11 value=56 time=60
control_change channel=1 control=11 value=57 time=60
control_change channel=1 control=11 value=58 time=60
control_change channel=1 control=11 value=59 time=60
control_change channel=1 control=11 value=60 time=60
control_change channel=1 control=11 value=61 time=60
control_change channel=1 control=11 value=62 time=60
control_change channel=1 control=11 value=63 time=60
control_change channel=1 control=11 value=64 time=60
control_change channel=1 control=11 value=65 time=60
control_change channel=1 control=11 value=66 time=60
control_change channel=1 control=11 value=67 time=60
control_change channel=1 control=11 value=68 time=60
control_change channel=1 control=11 value=69 time=60
control_change channel=1 control=11 value=70 time=60
control_change channel=1 control=11 value=71 time=60
control_change channel=1 control=11 value=72 time=60
control_change channel=1 control=11 value=73 time=60
control_change channel=1 control=11 value=74 time=60
control_change channel=1 control=11 value=75 time=60
control_change channel=1 control=11 value=76 time=60
control_change channel=1 control=11 value=77 time=60
control_change channel=1 control=11 value=78 time=60
control_change channel=1 control=11 value=79 time=60
control_change channel=1 control=11 value=80 time=60
control_change channel=1 control=11 value=81 time=60
control_change channel=1 control=11 value=82 time=60
control_change channel=1 control=11 value=83 time=60
control_change channel=1 control=11 value=84 time=60
control_change channel=1 control=11 value=85 time=60
control_change channel=1 control=11 value=86 time=60
control_change channel=1 control=11 value=87 time=60
control_change channel=1 control=11 value=88 time=60
control_change channel=1 control=11 value=89 time=60
control_change channel=1 control=11 value=90 time=60
control_change channel=1 control=11 value=91 time=60
control_change channel=1 control=11 value=92 time=60
control_change channel=1 control=11 value=93 time=60
control_change channel=1 control=11 value=94 time=60
control_change channel=1 control=11 value=95 time=60
control_change channel=1 control=11 value=96 time=60
control_change channel=1 control=11 value=97 time=60
control_change channel=1 control=11 value=98 time=60
control_change channel=1 control=11 value=99 time=60
control_change channel=1 control=11 value=100 time=60
control_change channel=1 control=11 value=101 time=60
control_change channel=1 control=11 value=102 time=60
control_change channel=1 control=11 value=103 time=60
control_change channel=1 control=11 value=104 time=60
control_change channel=1 control=11 value=105 time=60
control_change channel=1 control=11 value=106 time=60
control_change channel=1 control=11 value=107 time=60
control_change channel=1 control=11 value=108 time=60
control_change channel=1 control=11 value=109 time=60
control_change channel=1 control=11 value=110 time=60
control_change channel=1 control=11 value=111 time=60
control_change channel=1 control=11 value=112 time=60
control_change channel=1 control=11 value=113 time=60
control_change channel=1 control=11 value=114 time=60
control_change channel=1 control=11 value=115 time=60
control_change channel=1 control=11 value=116 time=60
control_change channel=1 control=11 value=117 time=60
control_change channel=1 control=11 value=118 time=60
control_change channel=1 control=11 value=119 time=60
control_change channel=1 control=11 value=120 time=60
control_change channel=1 control=11 value=121 time=60
control_change channel=1 control=11 value=122 time=60
control_change channel=1 control=11 value=123 time=60
control_change channel=1 control=11 value=124 time=60
control_change channel=1 control=11 value=125 time=60
control_change channel=1 control=11 value=126 time=60
control_change channel=1 control=11 value=127 time=60
note_off channel=1 note=52 velocity=95 time=0
note_on channel=1 note=62 velocity=95 time=0
note_off channel=1 note=62 velocity=95 time=960
note_on channel=0 note=50 velocity=95 time=0
note_off channel=0 note=50 velocity=95 time=240
note_on channel=0 note=52 velocity=70 time=0
note_off channel=0 note=52 velocity=70 time=240
note_on channel=0 note=40 velocity=95 time=0
note_off channel=0 note=40 velocity=95 time=240
note_on channel=0 note=40 velocity=95 time=0
note_off channel=0 note=40 velocity=95 time=240
note_on channel=0 note=40 velocity=95 time=0
note_off channel=0 note=40 velocity=95 time=240
note_on channel=0 note=40 velocity=95 time=0
note_off channel=0 note=40 velocity=95 time=240
note_on channel=0 note=40 velocity=95 time=0
note_off channel=0 note=40 velocity=95 time=240
note_on channel=0 note=48 velocity=95 time=0
note_off channel=0 note=48 velocity=95 time=240
note_on channel=0 note=40 velocity=95 time=0
note_off channel=0 note=40 velocity=95 time=240
note_on channel=0 note=47 velocity=95 time=0
note_off channel=0 note=47 velocity=95 time=240
note_on channel=0 note=40 velocity=95 time=0
note_off channel=0 note=40 velocity=95 time=240
note_on channel=0 note=40 velocity=95 time=0
note_off channel=0 note=40 velocity=95 time=240
note_on channel=0 note=47 velocity=95 time=0
note_off channel=0 note=47 velocity=95 time=240
note_on channel=0 note=40 velocity=95 time=0
note_off channel=0 note=40 velocity=95 time=240
note_on channel=0 note=48 velocity=95 time=0
note_off channel=0 note=48 velocity=95 time=240
note_on channel=0 note=40 velocity=95 time=0
note_off channel=0 note=40 velocity=95 time=240
note_on channel=0 note=50 velocity=95 time=0
note_off channel=0 note=50 velocity=95 time=240
note_on channel=0 note=52 velocity=70 time=0
note_off channel=0 note=52 velocity=70 time=240
note_on channel=0 note=40 velocity=95 time=0
note_off channel=0 note=40 velocity=95 time=240
note_on channel=0 note=40 velocity=95 time=0
note_off channel=0 note=40 velocity=95 time=240
note_on channel=0 note=40 velocity=95 time=0
note_off channel=0 note=40 velocity=95 time=240
note_on channel=0 note=40 velocity=95 time=0
note_off channel=0 note=40 velocity=95 time=240
note_on channel=0 note=40 velocity=95 time=0
note_off channel=0 note=40 velocity=95 time=240
note_on channel=0 note=48 velocity=95 time=0
note_off channel=0 note=48 velocity=95 time=240
note_on channel=0 note=40 velocity=95 time=0
note_off channel=0 note=40 velocity=95 time=240
note_on channel=0 note=47 velocity=95 time=0
note_off channel=0 note=47 velocity=95 time=240
note_on channel=0 note=40 velocity=95 time=0
note_off channel=0 note=40 velocity=95 time=240
note_on channel=0 note=40 velocity=95 time=0
note_off channel=0 note=40 velocity=95 time=240
note_on channel=0 note=47 velocity=95 time=0
note_off channel=0 note=47 velocity=95 time=240
note_on channel=0 note=48 velocity=70 time=0
note_off channel=0 note=48 velocity=70 time=240
note_on channel=0 note=47 velocity=70 time=0
note_off channel=0 note=47 velocity=70 time=240
note_on channel=0 note=45 velocity=70 time=0
note_off channel=0 note=45 velocity=70 time=240
note_on channel=0 note=50 velocity=95 time=0
note_off channel=0 note=50 velocity=95 time=240
note_on channel=0 note=52 velocity=70 time=0
note_off channel=0 note=52 velocity=70 time=240
note_on channel=0 note=40 velocity=95 time=0
note_off channel=0 note=40 velocity=95 time=240
note_on channel=0 note=40 velocity=95 time=0
note_off channel=0 note=40 velocity=95 time=240
note_on channel=0 note=40 velocity=95 time=0
note_off channel=0 note=40 velocity=95 time=240
note_on channel=0 note=40 velocity=95 time=0
note_off channel=0 note=40 velocity=95 time=240
note_on channel=0 note=40 velocity=95 time=0
note_off channel=0 note=40 velocity=95 time=240
note_on channel=0 note=48 velocity=95 time=0
note_off channel=0 note=48 velocity=95 time=240
note_on channel=0 note=40 velocity=95 time=0
note_off channel=0 note=40 velocity=95 time=240
note_on channel=0 note=47 velocity=95 time=0
note_off channel=0 note=47 velocity=95 time=240
note_on channel=0 note=40 velocity=95 time=0
note_off channel=0 note=40 velocity=95 time=240
note_on channel=0 note=40 velocity=95 time=0
note_off channel=0 note=40 velocity=95 time=240
note_on channel=0 note=47 velocity=95 time=0
note_off channel=0 note=47 velocity=95 time=240
note_on channel=0 note=40 velocity=95 time=0
note_off channel=0 note=40 velocity=95 time=240
note_on channel=0 note=48 velocity=95 time=0
note_off channel=0 note=48 velocity=95 time=240
note_on channel=0 note=40 velocity=95 time=0
note_off channel=0 note=40 velocity=95 time=240
note_on channel=0 note=50 velocity=95 time=0
note_off channel=0 note=50 velocity=95 time=240
note_on channel=0 note=52 velocity=70 time=0
note_off channel=0 note=52 velocity=70 time=240
note_on channel=0 note=40 velocity=95 time=0
note_off channel=0 note=40 velocity=95 time=240
note_on channel=0 note=40 velocity=95 time=0
note_off channel=0 note=40 velocity=95 time=240
note_on channel=0 note=40 velocity=95 time=0
note_off channel=0 note=40 velocity=95 time=240
note_on channel=0 note=40 velocity=95 time=0
note_off channel=0 note=40 velocity=95 time=240
note_on channel=0 note=40 velocity=95 time=0
note_off channel=0 note=40 velocity=95 time=240
note_on channel=0 note=48 velocity=95 time=0
note_off channel=0 note=48 velocity=95 time=240
note_on channel=0 note=40 velocity=95 time=0
note_off channel=0 note=40 velocity=95 time=240
note_on channel=0 note=47 velocity=95 time=0
note_off channel=0 note=47 velocity=95 time=240
note_on channel=0 note=40 velocity=95 time=0
note_off channel=0 note=40 velocity=95 time=240
note_on channel=0 note=40 velocity=95 time=0
note_off channel=0 note=40 velocity=95 time=240
note_on channel=0 note=47 velocity=95 time=0
note_off channel=0 note=47 velocity=95 time=240
note_on channel=0 note=48 velocity=70 time=0
note_off channel=0 note=48 velocity=70 time=240
note_on channel=0 note=47 velocity=70 time=0
note_off channel=0 note=47 velocity=70 time=240
note_on channel=0 note=45 velocity=70 time=0
note_off channel=0 note=45 velocity=70 time=240
note_on channel=0 note=50 velocity=95 time=0
note_off channel=0 note=50 velocity=95 time=240
note_on channel=0 note=52 velocity=70 time=0
note_off channel=0 note=52 velocity=70 time=240
note_on channel=0 note=40 velocity=95 time=0
note_off channel=0 note=40 velocity=95 time=240
note_on channel=0 note=40 velocity=95 time=0
note_off channel=0 note=40 velocity=95 time=240
note_on channel=0 note=40 velocity=95 time=0
note_off channel=0 note=40 velocity=95 time=240
note_on channel=0 note=40 velocity=95 time=0
note_off channel=0 note=40 velocity=95 time=240
note_on channel=0 note=40 velocity=95 time=0
note_off channel=0 note=40 velocity=95 time=240
note_on channel=0 note=48 velocity=95 time=0
note_off channel=0 note=48 velocity=95 time=240
note_on channel=0 note=40 velocity=95 time=0
note_off channel=0 note=40 velocity=95 time=240
note_on channel=0 note=47 velocity=95 time=0
note_off channel=0 note=47 velocity=95 time=240
note_on channel=0 note=40 velocity=95 time=0
note_off channel=0 note=40 velocity=95 time=240
note_on channel=0 note=40 velocity=95 time=0
note_off channel=0 note=40 velocity=95 time=240
note_on channel=0 note=47 velocity=95 time=0
note_off channel=0 note=47 velocity=95 time=240
note_on channel=0 note=40 velocity=95 time=0
note_off channel=0 note=40 velocity=95 time=240
note_on channel=0 note=48 velocity=95 time=0
note_off channel=0 note=48 velocity=95 time=240
note_on channel=0 note=40 velocity=95 time=0
note_off channel=0 note=40 velocity=95 time=240
note_on channel=0 note=50 velocity=95 time=0
note_off channel=0 note=50 velocity=95 time=240
note_on channel=0 note=52 velocity=70 time=0
note_off channel=0 note=52 velocity=70 time=240
note_on channel=0 note=40 velocity=95 time=0
note_off channel=0 note=40 velocity=95 time=240
note_on channel=0 note=40 velocity=95 time=0
note_off channel=0 note=40 velocity=95 time=240
note_on channel=0 note=40 velocity=95 time=0
note_off channel=0 note=40 velocity=95 time=240
note_on channel=0 note=40 velocity=95 time=0
note_off channel=0 note=40 velocity=95 time=240
note_on channel=0 note=40 velocity=95 time=0
note_off channel=0 note=40 velocity=95 time=240
note_on channel=0 note=48 velocity=95 time=0
note_off channel=0 note=48 velocity=95 time=240
note_on channel=0 note=40 velocity=95 time=0
note_off channel=0 note=40 velocity=95 time=240
note_on channel=0 note=47 velocity=95 time=0
note_off channel=0 note=47 velocity=95 time=240
note_on channel=0 note=40 velocity=95 time=0
note_off channel=0 note=40 velocity=95 time=240
note_on channel=0 note=40 velocity=95 time=0
note_off channel=0 note=40 velocity=95 time=240
note_on channel=0 note=47 velocity=95 time=0
note_off channel=0 note=47 velocity=95 time=240
note_on channel=0 note=48 velocity=70 time=0
note_off channel=0 note=48 velocity=70 time=240
note_on channel=0 note=47 velocity=70 time=0
note_off channel=0 note=47 velocity=70 time=240
note_on channel=0 note=45 velocity=70 time=0
note_off channel=0 note=45 velocity=70 time=240
note_on channel=0 note=50 velocity=95 time=0
note_off channel=0 note=50 velocity=95 time=240
note_on channel=0 note=52 velocity=70 time=0
note_off channel=0 note=52 velocity=70 time=240
note_on channel=0 note=40 velocity=95 time=0
note_off channel=0 note=40 velocity=95 time=240
note_on channel=0 note=40 velocity=95 time=0
note_off channel=0 note=40 velocity=95 time=240
note_on channel=0 note=40 velocity=95 time=0
note_off channel=0 note=40 velocity=95 time=240
note_on channel=0 note=40 velocity=95 time=0
note_off channel=0 note=40 velocity=95 time=240
note_on channel=0 note=40 velocity=95 time=0
note_off channel=0 note=40 velocity=95 time=240
note_on channel=0 note=48 velocity=95 time=0
note_off channel=0 note=48 velocity=95 time=240
note_on channel=0 note=40 velocity=95 time=0
note_off channel=0 note=40 velocity=95 time=240
note_on channel=0 note=47 velocity=95 time=0
note_off channel=0 note=47 velocity=95 time=240
note_on channel=0 note=40 velocity=95 time=0
note_off channel=0 note=40 velocity=95 time=240
note_on channel=0 note=40 velocity=95 time=0
note_off channel=0 note=40 velocity=95 time=240
note_on channel=0 note=47 velocity=95 time=0
note_off channel=0 note=47 velocity=95 time=240
note_on channel=0 note=40 velocity=95 time=0
note_off channel=0 note=40 velocity=95 time=240
note_on channel=0 note=48 velocity=95 time=0
note_off channel=0 note=48 velocity=95 time=240
note_on channel=0 note=40 velocity=95 time=0
note_off channel=0 note=40 velocity=95 time=240
note_on channel=0 note=50 velocity=95 time=0
note_off channel=0 note=50 velocity=95 time=240
note_on channel=0 note=52 velocity=70 time=0
note_off channel=0 note=52 velocity=70 time=240
note_on channel=0 note=40 velocity=95 time=0
note_off channel=0 note=40 velocity=95 time=240
note_on channel=0 note=40 velocity=95 time=0
note_off channel=0 note=40 velocity=95 time=240
note_on channel=0 note=40 velocity=95 time=0
note_off channel=0 note=40 velocity=95 time=240
note_on channel=0 note=40 velocity=95 time=0
note_off channel=0 note=40 velocity=95 time=240
note_on channel=0 note=40 velocity=95 time=0
note_off channel=0 note=40 velocity=95 time=240
note_on channel=0 note=48 velocity=95 time=0
note_off channel=0 note=48 velocity=95 time=240
note_on channel=0 note=40 velocity=95 time=0
note_off channel=0 note=40 velocity=95 time=240
note_on channel=0 note=47 velocity=95 time=0
note_off channel=0 note=47 velocity=95 time=240
note_on channel=0 note=40 velocity=95 time=0
note_off channel=0 note=40 velocity=95 time=240
note_on channel=0 note=40 velocity=95 time=0
note_off channel=0 note=40 velocity=95 time=240
note_on channel=0 note=47 velocity=95 time=0
note_off channel=0 note=47 velocity=95 time=240
note_on channel=0 note=48 velocity=70 time=0
note_off channel=0 note=48 velocity=70 time=240
note_on channel=0 note=47 velocity=70 time=0
note_off channel=0 note=47 velocity=70 time=240
note_on channel=0 note=45 velocity=70 time=0
note_off channel=0 note=45 velocity=70 time=240
note_on channel=0 note=50 velocity=95 time=0
note_off channel=0 note=50 velocity=95 time=240
note_on channel=0 note=52 velocity=70 time=0
note_off channel=0 note=52 velocity=70 time=240
note_on channel=0 note=40 velocity=95 time=0
note_off channel=0 note=40 velocity=95 time=240
note_on channel=0 note=40 velocity=95 time=0
note_off channel=0 note=40 velocity=95 time=240
note_on channel=0 note=40 velocity=95 time=0
note_off channel=0 note=40 velocity=95 time=240
note_on channel=0 note=40 velocity=95 time=0
note_off channel=0 note=40 velocity=95 time=240
note_on channel=0 note=40 velocity=95 time=0
note_off channel=0 note=40 velocity=95 time=240
note_on channel=0 note=48 velocity=95 time=0
note_off channel=0 note=48 velocity=95 time=240
note_on channel=0 note=40 velocity=95 time=0
note_off channel=0 note=40 velocity=95 time=240
note_on channel=0 note=47 velocity=95 time=0
note_off channel=0 note=47 velocity=95 time=240
note_on channel=0 note=40 velocity=95 time=0
note_off channel=0 note=40 velocity=95 time=240
note_on channel=0 note=40 velocity=95 time=0
note_off channel=0 note=40 velocity=95 time=240
note_on channel=0 note=47 velocity=95 time=0
note_off channel=0 note=47 velocity=95 time=240
note_on channel=0 note=40 velocity=95 time=0
note_off channel=0 note=40 velocity=95 time=240
note_on channel=0 note=48 velocity=95 time=0
note_off channel=0 note=48 velocity=95 time=240
note_on channel=0 note=40 velocity=95 time=0
note_off channel=0 note=40 velocity=95 time=240
note_on channel=0 note=50 velocity=95 time=0
note_off channel=0 note=50 velocity=95 time=240
note_on channel=0 note=52 velocity=70 time=0
note_off channel=0 note=52 velocity=70 time=240
note_on channel=0 note=40 velocity=95 time=0
note_off channel=0 note=40 velocity=95 time=240
note_on channel=0 note=40 velocity=95 time=0
note_off channel=0 note=40 velocity=95 time=240
note_on channel=0 note=40 velocity=95 time=0
note_off channel=0 note=40 velocity=95 time=240
note_on channel=0 note=40 velocity=95 time=0
note_off channel=0 note=40 velocity=95 time=240
note_on channel=0 note=40 velocity=95 time=0
note_off channel=0 note=40 velocity=95 time=240
note_on channel=0 note=48 velocity=95 time=0
note_off channel=0 note=48 velocity=95 time=240
note_on channel=0 note=40 velocity=95 time=0
note_off channel=0 note=40 velocity=95 time=240
note_on channel=0 note=47 velocity=95 time=0
note_off channel=0 note=47 velocity=95 time=240
note_on channel=0 note=40 velocity=95 time=0
note_off channel=0 note=40 velocity=95 time=240
note_on channel=0 note=40 velocity=95 time=0
note_off channel=0 note=40 velocity=95 time=240
note_on channel=0 note=47 velocity=95 time=0
note_off channel=0 note=47 velocity=95 time=240
note_on channel=0 note=48 velocity=70 time=0
note_off channel=0 note=48 velocity=70 time=240
note_on channel=0 note=47 velocity=70 time=0
note_off channel=0 note=47 velocity=70 time=240
note_on channel=0 note=45 velocity=70 time=0
note_off channel=0 note=45 velocity=70 time=240
note_on channel=0 note=50 velocity=95 time=0
note_off channel=0 note=50 velocity=95 time=240
note_on channel=0 note=52 velocity=70 time=0
note_off channel=0 note=52 velocity=70 time=240
note_on channel=0 note=40 velocity=95 time=0
note_off channel=0 note=40 velocity=95 time=240
note_on channel=0 note=40 velocity=95 time=0
note_off channel=0 note=40 velocity=95 time=240
note_on channel=0 note=40 velocity=95 time=0
note_off channel=0 note=40 velocity=95 time=240
note_on channel=0 note=40 velocity=95 time=0
note_off channel=0 note=40 velocity=95 time=240
note_on channel=0 note=40 velocity=95 time=0
note_off channel=0 note=40 velocity=95 time=240
note_on channel=0 note=48 velocity=95 time=0
note_off channel=0 note=48 velocity=95 time=240
note_on channel=0 note=40 velocity=95 time=0
note_off channel=0 note=40 velocity=95 time=240
note_on channel=0 note=47 velocity=95 time=0
note_off channel=0 note=47 velocity=95 time=240
note_on channel=0 note=40 velocity=95 time=0
note_off channel=0 note=40 velocity=95 time=240
note_on channel=0 note=40 velocity=95 time=0
note_off channel=0 note=40 velocity=95 time=240
note_on channel=0 note=47 velocity=95 time=0
note_off channel=0 note=47 velocity=95 time=240
note_on channel=0 note=40 velocity=95 time=0
note_off channel=0 note=40 velocity=95 time=240
note_on channel=0 note=48 velocity=95 time=0
note_off channel=0 note=48 velocity=95 time=240
note_on channel=0 note=40 velocity=95 time=0
note_off channel=0 note=40 velocity=95 time=240
note_on channel=0 note=50 velocity=95 time=0
note_off channel=0 note=50 velocity=95 time=240
note_on channel=0 note=52 velocity=70 time=0
note_off channel=0 note=52 velocity=70 time=240
note_on channel=0 note=40 velocity=95 time=0
note_off channel=0 note=40 velocity=95 time=240
note_on channel=0 note=40 velocity=95 time=0
note_off channel=0 note=40 velocity=95 time=240
note_on channel=0 note=40 velocity=95 time=0
note_off channel=0 note=40 velocity=95 time=240
note_on channel=0 note=40 velocity=95 time=0
note_off channel=0 note=40 velocity=95 time=240
note_on channel=0 note=40 velocity=95 time=0
note_off channel=0 note=40 velocity=95 time=240
note_on channel=0 note=48 velocity=95 time=0
note_off channel=0 note=48 velocity=95 time=240
note_on channel=0 note=40 velocity=95 time=0
note_off channel=0 note=40 velocity=95 time=240
note_on channel=0 note=47 velocity=95 time=0
note_off channel=0 note=47 velocity=95 time=240
note_on channel=0 note=40 velocity=95 time=0
note_off channel=0 note=40 velocity=95 time=240
note_on channel=0 note=40 velocity=95 time=0
note_off channel=0 note=40 velocity=95 time=240
note_on channel=0 note=47 velocity=95 time=0
note_off channel=0 note=47 velocity=95 time=240
note_on channel=0 note=48 velocity=70 time=0
note_off channel=0 note=48 velocity=70 time=240
note_on channel=0 note=47 velocity=70 time=0
note_off channel=0 note=47 velocity=70 time=240
note_on channel=0 note=45 velocity=70 time=0
note_off channel=0 note=45 velocity=70 time=240
note_on channel=0 note=64 velocity=95 time=0
note_on channel=0 note=59 velocity=95 time=0
note_on channel=0 note=52 velocity=95 time=0
note_off channel=0 note=64 velocity=95 time=720
note_off channel=0 note=59 velocity=95 time=0
note_off channel=0 note=52 velocity=95 time=0
note_on channel=0 note=64 velocity=95 time=0
note_on channel=0 note=59 velocity=95 time=0
note_on channel=0 note=52 velocity=95 time=0
note_off channel=0 note=64 velocity=95 time=240
note_off channel=0 note=59 velocity=95 time=0
note_off channel=0 note=52 velocity=95 time=0
note_on channel=0 note=64 velocity=95 time=0
note_on channel=0 note=59 velocity=95 time=0
note_on channel=0 note=52 velocity=95 time=0
note_off channel=0 note=64 velocity=95 time=240
note_off channel=0 note=59 velocity=95 time=0
note_off channel=0 note=52 velocity=95 time=0
note_on channel=0 note=64 velocity=95 time=0
note_on channel=0 note=59 velocity=95 time=0
note_on channel=0 note=52 velocity=95 time=0
note_off channel=0 note=64 velocity=95 time=240
note_off channel=0 note=59 velocity=95 time=0
note_off channel=0 note=52 velocity=95 time=0
note_on channel=0 note=64 velocity=95 time=0
note_on channel=0 note=59 velocity=95 time=0
note_on channel=0 note=52 velocity=95 time=0
note_off channel=0 note=64 velocity=95 time=240
note_off channel=0 note=59 velocity=95 time=0
note_off channel=0 note=52 velocity=95 time=0
note_on channel=0 note=67 velocity=95 time=0
note_on channel=0 note=62 velocity=95 time=0
note_on channel=0 note=55 velocity=95 time=0
note_off channel=0 note=67 velocity=95 time=480
note_off channel=0 note=62 velocity=95 time=0
note_off channel=0 note=55 velocity=95 time=0
note_on channel=0 note=67 velocity=95 time=0
note_on channel=0 note=62 velocity=95 time=0
note_on channel=0 note=55 velocity=95 time=0
note_off channel=0 note=67 velocity=95 time=480
note_off channel=0 note=62 velocity=95 time=0
note_off channel=0 note=55 velocity=95 time=0
note_on channel=0 note=66 velocity=95 time=0
note_on channel=0 note=61 velocity=95 time=0
note_on channel=0 note=54 velocity=95 time=0
note_off channel=0 note=66 velocity=95 time=480
note_off channel=0 note=61 velocity=95 time=0
note_off channel=0 note=54 velocity=95 time=0
note_on channel=0 note=66 velocity=95 time=0
note_on channel=0 note=61 velocity=95 time=0
note_on channel=0 note=54 velocity=95 time=0
note_off channel=0 note=66 velocity=95 time=240
note_off channel=0 note=61 velocity=95 time=0
note_off channel=0 note=54 velocity=95 time=0
note_on channel=0 note=64 velocity=95 time=0
note_on channel=0 note=59 velocity=95 time=0
note_on channel=0 note=52 velocity=95 time=0
note_off channel=0 note=64 velocity=95 time=480
note_off channel=0 note=59 velocity=95 time=0
note_off channel=0 note=52 velocity=95 time=0
note_on channel=0 note=60 velocity=95 time=0
note_on channel=0 note=55 velocity=95 time=0
note_on channel=0 note=48 velocity=95 time=0
note_off channel=0 note=60 velocity=95 time=720
note_off channel=0 note=55 velocity=95 time=0
note_off channel=0 note=48 velocity=95 time=0
note_on channel=0 note=60 velocity=95 time=0
note_on channel=0 note=55 velocity=95 time=0
note_on channel=0 note=48 velocity=95 time=0
note_off channel=0 note=60 velocity=95 time=240
note_off channel=0 note=55 velocity=95 time=0
note_off channel=0 note=48 velocity=95 time=0
note_on channel=0 note=60 velocity=95 time=0
note_on channel=0 note=55 velocity=95 time=0
note_on channel=0 note=48 velocity=95 time=0
note_off channel=0 note=60 velocity=95 time=480
note_off channel=0 note=55 velocity=95 time=0
note_off channel=0 note=48 velocity=95 time=0
note_on channel=0 note=59 velocity=95 time=0
note_on channel=0 note=54 velocity=95 time=0
note_on channel=0 note=47 velocity=95 time=0
note_off channel=0 note=59 velocity=95 time=240
note_off channel=0 note=54 velocity=95 time=0
note_off channel=0 note=47 velocity=95 time=0
note_on channel=0 note=59 velocity=95 time=0
note_on channel=0 note=54 velocity=95 time=0
note_on channel=0 note=47 velocity=95 time=0
note_off channel=0 note=59 velocity=95 time=480
note_off channel=0 note=54 velocity=95 time=0
note_off channel=0 note=47 velocity=95 time=0
note_on channel=0 note=59 velocity=95 time=0
note_on channel=0 note=54 velocity=95 time=0
note_on channel=0 note=47 velocity=95 time=0
note_off channel=0 note=59 velocity=95 time=480
note_off channel=0 note=54 velocity=95 time=0
note_off channel=0 note=47 velocity=95 time=0
note_on channel=0 note=60 velocity=95 time=0
note_on channel=0 note=55 velocity=95 time=0
note_on channel=0 note=48 velocity=95 time=0
note_off channel=0 note=60 velocity=95 time=480
note_off channel=0 note=55 velocity=95 time=0
note_off channel=0 note=48 velocity=95 time=0
note_on channel=0 note=60 velocity=95 time=0
note_on channel=0 note=55 velocity=95 time=0
note_on channel=0 note=48 velocity=95 time=0
note_off channel=0 note=60 velocity=95 time=240
note_off channel=0 note=55 velocity=95 time=0
note_off channel=0 note=48 velocity=95 time=0
note_on channel=0 note=62 velocity=95 time=0
note_on channel=0 note=57 velocity=95 time=0
note_on channel=0 note=50 velocity=95 time=0
note_off channel=0 note=62 velocity=95 time=480
note_off channel=0 note=57 velocity=95 time=0
note_off channel=0 note=50 velocity=95 time=0
note_on channel=0 note=64 velocity=95 time=0
note_on channel=0 note=59 velocity=95 time=0
note_on channel=0 note=52 velocity=95 time=0
note_off channel=0 note=64 velocity=95 time=720
note_off channel=0 note=59 velocity=95 time=0
note_off channel=0 note=52 velocity=95 time=0
note_on channel=0 note=64 velocity=95 time=0
note_on channel=0 note=59 velocity=95 time=0
note_on channel=0 note=52 velocity=95 time=0
note_off channel=0 note=64 velocity=95 time=240
note_off channel=0 note=59 velocity=95 time=0
note_off channel=0 note=52 velocity=95 time=0
note_on channel=0 note=64 velocity=95 time=0
note_on channel=0 note=59 velocity=95 time=0
note_on channel=0 note=52 velocity=95 time=0
note_off channel=0 note=64 velocity=95 time=240
note_off channel=0 note=59 velocity=95 time=0
note_off channel=0 note=52 velocity=95 time=0
note_on channel=0 note=64 velocity=95 time=0
note_on channel=0 note=59 velocity=95 time=0
note_on channel=0 note=52 velocity=95 time=0
note_off channel=0 note=64 velocity=95 time=240
note_off channel=0 note=59 velocity=95 time=0
note_off channel=0 note=52 velocity=95 time=0
note_on channel=0 note=64 velocity=95 time=0
note_on channel=0 note=59 velocity=95 time=0
note_on channel=0 note=52 velocity=95 time=0
note_off channel=0 note=64 velocity=95 time=240
note_off channel=0 note=59 velocity=95 time=0
note_off channel=0 note=52 velocity=95 time=0
note_on channel=0 note=67 velocity=95 time=0
note_on channel=0 note=62 velocity=95 time=0
note_on channel=0 note=55 velocity=95 time=0
note_off channel=0 note=67 velocity=95 time=480
note_off channel=0 note=62 velocity=95 time=0
note_off channel=0 note=55 velocity=95 time=0
note_on channel=0 note=67 velocity=95 time=0
note_on channel=0 note=62 velocity=95 time=0
note_on channel=0 note=55 velocity=95 time=0
note_off channel=0 note=67 velocity=95 time=480
note_off channel=0 note=62 velocity=95 time=0
note_off channel=0 note=55 velocity=95 time=0
note_on channel=0 note=66 velocity=95 time=0
note_on channel=0 note=61 velocity=95 time=0
note_on channel=0 note=54 velocity=95 time=0
note_off channel=0 note=66 velocity=95 time=480
note_off channel=0 note=61 velocity=95 time=0
note_off channel=0 note=54 velocity=95 time=0
note_on channel=0 note=66 velocity=95 time=0
note_on channel=0 note=61 velocity=95 time=0
note_on channel=0 note=54 velocity=95 time=0
note_off channel=0 note=66 velocity=95 time=240
note_off channel=0 note=61 velocity=95 time=0
note_off channel=0 note=54 velocity=95 time=0
note_on channel=0 note=69 velocity=95 time=0
note_on channel=0 note=64 velocity=95 time=0
note_on channel=0 note=57 velocity=95 time=0
note_off channel=0 note=69 velocity=95 time=480
note_off channel=0 note=64 velocity=95 time=0
note_off channel=0 note=57 velocity=95 time=0
note_on channel=0 note=60 velocity=95 time=0
note_on channel=0 note=55 velocity=95 time=0
note_on channel=0 note=48 velocity=95 time=0
note_off channel=0 note=60 velocity=95 time=720
note_off channel=0 note=55 velocity=95 time=0
note_off channel=0 note=48 velocity=95 time=0
note_on channel=0 note=60 velocity=95 time=0
note_on channel=0 note=55 velocity=95 time=0
note_on channel=0 note=48 velocity=95 time=0
note_off channel=0 note=60 velocity=95 time=240
note_off channel=0 note=55 velocity=95 time=0
note_off channel=0 note=48 velocity=95 time=0
note_on channel=0 note=60 velocity=95 time=0
note_on channel=0 note=55 velocity=95 time=0
note_on channel=0 note=48 velocity=95 time=0
note_off channel=0 note=60 velocity=95 time=480
note_off channel=0 note=55 velocity=95 time=0
note_off channel=0 note=48 velocity=95 time=0
note_on channel=0 note=59 velocity=95 time=0
note_on channel=0 note=54 velocity=95 time=0
note_on channel=0 note=47 velocity=95 time=0
note_off channel=0 note=59 velocity=95 time=240
note_off channel=0 note=54 velocity=95 time=0
note_off channel=0 note=47 velocity=95 time=0
note_on channel=0 note=59 velocity=95 time=0
note_on channel=0 note=54 velocity=95 time=0
note_on channel=0 note=47 velocity=95 time=0
note_off channel=0 note=59 velocity=95 time=480
note_off channel=0 note=54 velocity=95 time=0
note_off channel=0 note=47 velocity=95 time=0
note_on channel=0 note=59 velocity=95 time=0
note_on channel=0 note=54 velocity=95 time=0
note_on channel=0 note=47 velocity=95 time=0
note_off channel=0 note=59 velocity=95 time=480
note_off channel=0 note=54 velocity=95 time=0
note_off channel=0 note=47 velocity=95 time=0
note_on channel=0 note=60 velocity=95 time=0
note_on channel=0 note=55 velocity=95 time=0
note_on channel=0 note=48 velocity=95 time=0
note_off channel=0 note=60 velocity=95 time=480
note_off channel=0 note=55 velocity=95 time=0
note_off channel=0 note=48 velocity=95 time=0
note_on channel=0 note=60 velocity=95 time=0
note_on channel=0 note=55 velocity=95 time=0
note_on channel=0 note=48 velocity=95 time=0
note_off channel=0 note=60 velocity=95 time=240
note_off channel=0 note=55 velocity=95 time=0
note_off channel=0 note=48 velocity=95 time=0
note_on channel=0 note=62 velocity=95 time=0
note_on channel=0 note=57 velocity=95 time=0
note_on channel=0 note=50 velocity=95 time=0
note_off channel=0 note=62 velocity=95 time=480
note_off channel=0 note=57 velocity=95 time=0
note_off channel=0 note=50 velocity=95 time=0
note_on channel=1 note=52 velocity=95 time=0
note_off channel=1 note=52 velocity=95 time=240
note_on channel=0 note=40 velocity=95 time=0
note_off channel=0 note=40 velocity=95 time=240
note_on channel=0 note=40 velocity=95 time=0
note_off channel=0 note=40 velocity=95 time=240
note_on channel=0 note=47 velocity=95 time=0
note_off channel=0 note=47 velocity=95 time=240
note_on channel=0 note=40 velocity=95 time=0
note_off channel=0 note=40 velocity=95 time=240
note_on channel=0 note=40 velocity=95 time=0
note_off channel=0 note=40 velocity=95 time=240
note_on channel=0 note=48 velocity=95 time=0
note_off channel=0 note=48 velocity=95 time=240
note_on channel=0 note=40 velocity=95 time=0
note_off channel=0 note=40 velocity=95 time=240
note_on channel=0 note=40 velocity=95 time=0
note_off channel=0 note=40 velocity=95 time=240
note_on channel=0 note=52 velocity=95 time=0
note_on channel=0 note=45 velocity=95 time=0
note_off channel=0 note=52 velocity=95 time=240
note_off channel=0 note=45 velocity=95 time=0
note_on channel=0 note=40 velocity=95 time=0
note_off channel=0 note=40 velocity=95 time=240
note_on channel=0 note=40 velocity=95 time=0
note_off channel=0 note=40 velocity=95 time=240
note_on channel=0 note=54 velocity=95 time=0
note_on channel=0 note=47 velocity=95 time=0
note_off channel=0 note=54 velocity=95 time=240
note_off channel=0 note=47 velocity=95 time=0
note_on channel=0 note=40 velocity=95 time=0
note_off channel=0 note=40 velocity=95 time=240
note_on channel=0 note=55 velocity=95 time=0
note_on channel=0 note=48 velocity=95 time=0
note_off channel=0 note=55 velocity=95 time=240
note_off channel=0 note=48 velocity=95 time=0
note_on channel=0 note=40 velocity=95 time=0
note_off channel=0 note=40 velocity=95 time=240
note_on channel=1 note=52 velocity=95 time=0
note_off channel=1 note=52 velocity=95 time=240
note_on channel=0 note=40 velocity=95 time=0
note_off channel=0 note=40 velocity=95 time=240
note_on channel=0 note=40 velocity=95 time=0
note_off channel=0 note=40 velocity=95 time=240
note_on channel=0 note=47 velocity=95 time=0
note_off channel=0 note=47 velocity=95 time=240
note_on channel=0 note=40 velocity=95 time=0
note_off channel=0 note=40 velocity=95 time=240
note_on channel=0 note=40 velocity=95 time=0
note_off channel=0 note=40 velocity=95 time=240
note_on channel=0 note=48 velocity=95 time=0
note_off channel=0 note=48 velocity=95 time=240
note_on channel=0 note=40 velocity=95 time=0
note_off channel=0 note=40 velocity=95 time=240
note_on channel=0 note=40 velocity=95 time=0
note_off channel=0 note=40 velocity=95 time=240
note_on channel=0 note=52 velocity=95 time=0
note_on channel=0 note=45 velocity=95 time=0
note_off channel=0 note=52 velocity=95 time=240
note_off channel=0 note=45 velocity=95 time=0
note_on channel=0 note=40 velocity=95 time=0
note_off channel=0 note=40 velocity=95 time=240
note_on channel=0 note=40 velocity=95 time=0
note_off channel=0 note=40 velocity=95 time=240
note_on channel=1 note=54 velocity=95 time=0
note_on channel=1 note=47 velocity=95 time=0
pitchwheel channel=1 pitch=256 time=120
pitchwheel channel=1 pitch=256 time=0
pitchwheel channel=1 pitch=640 time=120
pitchwheel channel=1 pitch=0 time=0
note_off channel=1 note=54 velocity=95 time=0
pitchwheel channel=1 pitch=640 time=0
pitchwheel channel=1 pitch=0 time=0
note_off channel=1 note=47 velocity=95 time=0
note_on channel=1 note=55 velocity=95 time=0
note_on channel=1 note=48 velocity=95 time=0
pitchwheel channel=1 pitch=-256 time=120
pitchwheel channel=1 pitch=-256 time=0
pitchwheel channel=1 pitch=-640 time=120
pitchwheel channel=1 pitch=0 time=0
note_off channel=1 note=55 velocity=95 time=0
pitchwheel channel=1 pitch=-640 time=0
pitchwheel channel=1 pitch=0 time=0
note_off channel=1 note=48 velocity=95 time=0
note_on channel=0 note=54 velocity=95 time=0
note_on channel=1 note=47 velocity=95 time=0
note_off channel=0 note=54 velocity=95 time=240
note_off channel=1 note=47 velocity=95 time=0
note_on channel=0 note=40 velocity=95 time=0
note_off channel=0 note=40 velocity=95 time=240
note_on channel=1 note=52 velocity=95 time=0
note_off channel=1 note=52 velocity=95 time=240
note_on channel=0 note=40 velocity=95 time=0
note_off channel=0 note=40 velocity=95 time=240
note_on channel=0 note=40 velocity=95 time=0
note_off channel=0 note=40 velocity=95 time=240
note_on channel=0 note=47 velocity=95 time=0
note_off channel=0 note=47 velocity=95 time=240
note_on channel=0 note=40 velocity=95 time=0
note_off channel=0 note=40 velocity=95 time=240
note_on channel=0 note=40 velocity=95 time=0
note_off channel=0 note=40 velocity=95 time=240
note_on channel=0 note=48 velocity=95 time=0
note_off channel=0 note=48 velocity=95 time=240
note_on channel=0 note=40 velocity=95 time=0
note_off channel=0 note=40 velocity=95 time=240
note_on channel=0 note=40 velocity=95 time=0
note_off channel=0 note=40 velocity=95 time=240
note_on channel=0 note=52 velocity=95 time=0
note_on channel=0 note=45 velocity=95 time=0
note_off channel=0 note=52 velocity=95 time=240
note_off channel=0 note=45 velocity=95 time=0
note_on channel=0 note=40 velocity=95 time=0
note_off channel=0 note=40 velocity=95 time=240
note_on channel=0 note=40 velocity=95 time=0
note_off channel=0 note=40 velocity=95 time=240
note_on channel=0 note=54 velocity=95 time=0
note_on channel=0 note=47 velocity=95 time=0
note_off channel=0 note=54 velocity=95 time=240
note_off channel=0 note=47 velocity=95 time=0
note_on channel=0 note=40 velocity=95 time=0
note_off channel=0 note=40 velocity=95 time=240
note_on channel=0 note=55 velocity=95 time=0
note_on channel=0 note=48 velocity=95 time=0
note_off channel=0 note=55 velocity=95 time=240
note_off channel=0 note=48 velocity=95 time=0
note_on channel=0 note=40 velocity=95 time=0
note_off channel=0 note=40 velocity=95 time=240
note_on channel=0 note=52 velocity=95 time=0
note_off channel=0 note=52 velocity=95 time=240
note_on channel=0 note=40 velocity=95 time=0
note_off channel=0 note=40 velocity=95 time=240
note_on channel=0 note=40 velocity=95 time=0
note_off channel=0 note=40 velocity=95 time=240
note_on channel=0 note=47 velocity=95 time=0
note_off channel=0 note=47 velocity=95 time=240
note_on channel=0 note=40 velocity=95 time=0
note_off channel=0 note=40 velocity=95 time=240
note_on channel=0 note=40 velocity=95 time=0
note_off channel=0 note=40 velocity=95 time=240
note_on channel=0 note=48 velocity=95 time=0
note_off channel=0 note=48 velocity=95 time=240
note_on channel=0 note=40 velocity=95 time=0
note_off channel=0 note=40 velocity=95 time=240
note_on channel=0 note=60 velocity=95 time=0
note_on channel=0 note=55 velocity=95 time=0
note_on channel=0 note=48 velocity=95 time=0
note_off channel=0 note=60 velocity=95 time=320
note_off channel=0 note=55 velocity=95 time=0
note_off channel=0 note=48 velocity=95 time=0
note_on channel=0 note=60 velocity=95 time=0
note_on channel=0 note=55 velocity=95 time=0
note_on channel=0 note=48 velocity=95 time=0
note_off channel=0 note=60 velocity=95 time=320
note_off channel=0 note=55 velocity=95 time=0
note_off channel=0 note=48 velocity=95 time=0
note_on channel=0 note=60 velocity=95 time=0
note_on channel=0 note=55 velocity=95 time=0
note_on channel=0 note=48 velocity=95 time=0
note_off channel=0 note=60 velocity=95 time=320
note_off channel=0 note=55 velocity=95 time=0
note_off channel=0 note=48 velocity=95 time=0
note_on channel=1 note=60 velocity=95 time=0
note_on channel=1 note=55 velocity=95 time=0
note_on channel=1 note=48 velocity=95 time=0
pitchwheel channel=1 pitch=128 time=120
pitchwheel channel=1 pitch=256 time=120
pitchwheel channel=1 pitch=512 time=120
pitchwheel channel=1 pitch=640 time=120
pitchwheel channel=1 pitch=768 time=120
pitchwheel channel=1 pitch=1024 time=120
pitchwheel channel=1 pitch=1152 time=120
note_off channel=1 note=60 velocity=95 time=120
note_off channel=1 note=55 velocity=95 time=0
pitchwheel channel=1 pitch=1408 time=0
pitchwheel channel=1 pitch=0 time=0
note_off channel=1 note=48 velocity=95 time=0
note_on channel=0 note=50 velocity=95 time=0
note_off channel=0 note=50 velocity=95 time=240
note_on channel=0 note=52 velocity=70 time=0
note_off channel=0 note=52 velocity=70 time=240
note_on channel=0 note=40 velocity=95 time=0
note_off channel=0 note=40 velocity=95 time=240
note_on channel=0 note=40 velocity=95 time=0
note_off channel=0 note=40 velocity=95 time=240
note_on channel=0 note=40 velocity=95 time=0
note_off channel=0 note=40 velocity=95 time=240
note_on channel=0 note=40 velocity=95 time=0
note_off channel=0 note=40 velocity=95 time=240
note_on channel=0 note=40 velocity=95 time=0
note_off channel=0 note=40 velocity=95 time=240
note_on channel=0 note=48 velocity=95 time=0
note_off channel=0 note=48 velocity=95 time=240
note_on channel=0 note=40 velocity=95 time=0
note_off channel=0 note=40 velocity=95 time=240
note_on channel=0 note=47 velocity=95 time=0
note_off channel=0 note=47 velocity=95 time=240
note_on channel=0 note=40 velocity=95 time=0
note_off channel=0 note=40 velocity=95 time=240
note_on channel=0 note=40 velocity=95 time=0
note_off channel=0 note=40 velocity=95 time=240
note_on channel=0 note=47 velocity=95 time=0
note_off channel=0 note=47 velocity=95 time=240
note_on channel=0 note=40 velocity=95 time=0
note_off channel=0 note=40 velocity=95 time=240
note_on channel=0 note=48 velocity=95 time=0
note_off channel=0 note=48 velocity=95 time=240
note_on channel=0 note=40 velocity=95 time=0
note_off channel=0 note=40 velocity=95 time=240
note_on channel=0 note=50 velocity=95 time=0
note_off channel=0 note=50 velocity=95 time=240
note_on channel=0 note=52 velocity=70 time=0
note_off channel=0 note=52 velocity=70 time=240
note_on channel=0 note=40 velocity=95 time=0
note_off channel=0 note=40 velocity=95 time=240
note_on channel=0 note=40 velocity=95 time=0
note_off channel=0 note=40 velocity=95 time=240
note_on channel=0 note=40 velocity=95 time=0
note_off channel=0 note=40 velocity=95 time=240
note_on channel=0 note=40 velocity=95 time=0
note_off channel=0 note=40 velocity=95 time=240
note_on channel=0 note=40 velocity=95 time=0
note_off channel=0 note=40 velocity=95 time=240
note_on channel=0 note=48 velocity=95 time=0
note_off channel=0 note=48 velocity=95 time=240
note_on channel=0 note=40 velocity=95 time=0
note_off channel=0 note=40 velocity=95 time=240
note_on channel=0 note=47 velocity=95 time=0
note_off channel=0 note=47 velocity=95 time=240
note_on channel=0 note=40 velocity=95 time=0
note_off channel=0 note=40 velocity=95 time=240
note_on channel=0 note=40 velocity=95 time=0
note_off channel=0 note=40 velocity=95 time=240
note_on channel=0 note=47 velocity=95 time=0
note_off channel=0 note=47 velocity=95 time=240
note_on channel=0 note=48 velocity=70 time=0
note_off channel=0 note=48 velocity=70 time=240
note_on channel=0 note=47 velocity=70 time=0
note_off channel=0 note=47 velocity=70 time=240
note_on channel=0 note=45 velocity=70 time=0
note_off channel=0 note=45 velocity=70 time=240
note_on channel=0 note=50 velocity=95 time=0
note_off channel=0 note=50 velocity=95 time=240
note_on channel=0 note=52 velocity=70 time=0
note_off channel=0 note=52 velocity=70 time=240
note_on channel=0 note=40 velocity=95 time=0
note_off channel=0 note=40 velocity=95 time=240
note_on channel=0 note=40 velocity=95 time=0
note_off channel=0 note=40 velocity=95 time=240
note_on channel=0 note=40 velocity=95 time=0
note_off channel=0 note=40 velocity=95 time=240
note_on channel=0 note=40 velocity=95 time=0
note_off channel=0 note=40 velocity=95 time=240
note_on channel=0 note=40 velocity=95 time=0
note_off channel=0 note=40 velocity=95 time=240
note_on channel=0 note=48 velocity=95 time=0
note_off channel=0 note=48 velocity=95 time=240
note_on channel=0 note=40 velocity=95 time=0
note_off channel=0 note=40 velocity=95 time=240
note_on channel=0 note=47 velocity=95 time=0
note_off channel=0 note=47 velocity=95 time=240
note_on channel=0 note=40 velocity=95 time=0
note_off channel=0 note=40 velocity=95 time=240
note_on channel=0 note=40 velocity=95 time=0
note_off channel=0 note=40 velocity=95 time=240
note_on channel=0 note=47 velocity=95 time=0
note_off channel=0 note=47 velocity=95 time=240
note_on channel=0 note=40 velocity=95 time=0
note_off channel=0 note=40 velocity=95 time=240
note_on channel=0 note=48 velocity=95 time=0
note_off channel=0 note=48 velocity=95 time=240
note_on channel=0 note=40 velocity=95 time=0
note_off channel=0 note=40 velocity=95 time=240
note_on channel=0 note=50 velocity=95 time=0
note_off channel=0 note=50 velocity=95 time=240
note_on channel=0 note=52 velocity=70 time=0
note_off channel=0 note=52 velocity=70 time=240
note_on channel=0 note=40 velocity=95 time=0
note_off channel=0 note=40 velocity=95 time=240
note_on channel=0 note=40 velocity=95 time=0
note_off channel=0 note=40 velocity=95 time=240
note_on channel=0 note=40 velocity=95 time=0
note_off channel=0 note=40 velocity=95 time=240
note_on channel=0 note=40 velocity=95 time=0
note_off channel=0 note=40 velocity=95 time=240
note_on channel=0 note=40 velocity=95 time=0
note_off channel=0 note=40 velocity=95 time=240
note_on channel=0 note=48 velocity=95 time=0
note_off channel=0 note=48 velocity=95 time=240
note_on channel=0 note=40 velocity=95 time=0
note_off channel=0 note=40 velocity=95 time=240
note_on channel=0 note=47 velocity=95 time=0
note_off channel=0 note=47 velocity=95 time=240
note_on channel=0 note=40 velocity=95 time=0
note_off channel=0 note=40 velocity=95 time=240
note_on channel=0 note=40 velocity=95 time=0
note_off channel=0 note=40 velocity=95 time=240
note_on channel=0 note=47 velocity=95 time=0
note_off channel=0 note=47 velocity=95 time=240
note_on channel=0 note=48 velocity=70 time=0
note_off channel=0 note=48 velocity=70 time=240
note_on channel=0 note=47 velocity=70 time=0
note_off channel=0 note=47 velocity=70 time=240
note_on channel=0 note=45 velocity=70 time=0
note_off channel=0 note=45 velocity=70 time=240
note_on channel=0 note=50 velocity=95 time=0
note_off channel=0 note=50 velocity=95 time=240
note_on channel=0 note=52 velocity=70 time=0
note_off channel=0 note=52 velocity=70 time=240
note_on channel=0 note=40 velocity=95 time=0
note_off channel=0 note=40 velocity=95 time=240
note_on channel=0 note=40 velocity=95 time=0
note_off channel=0 note=40 velocity=95 time=240
note_on channel=0 note=40 velocity=95 time=0
note_off channel=0 note=40 velocity=95 time=240
note_on channel=0 note=40 velocity=95 time=0
note_off channel=0 note=40 velocity=95 time=240
note_on channel=0 note=40 velocity=95 time=0
note_off channel=0 note=40 velocity=95 time=240
note_on channel=0 note=48 velocity=95 time=0
note_off channel=0 note=48 velocity=95 time=240
note_on channel=0 note=40 velocity=95 time=0
note_off channel=0 note=40 velocity=95 time=240
note_on channel=0 note=47 velocity=95 time=0
note_off channel=0 note=47 velocity=95 time=240
note_on channel=0 note=40 velocity=95 time=0
note_off channel=0 note=40 velocity=95 time=240
note_on channel=0 note=40 velocity=95 time=0
note_off channel=0 note=40 velocity=95 time=240
note_on channel=0 note=47 velocity=95 time=0
note_off channel=0 note=47 velocity=95 time=240
note_on channel=0 note=40 velocity=95 time=0
note_off channel=0 note=40 velocity=95 time=240
note_on channel=0 note=48 velocity=95 time=0
note_off channel=0 note=48 velocity=95 time=240
note_on channel=0 note=40 velocity=95 time=0
note_off channel=0 note=40 velocity=95 time=240
note_on channel=0 note=50 velocity=95 time=0
note_off channel=0 note=50 velocity=95 time=240
note_on channel=0 note=52 velocity=70 time=0
note_off channel=0 note=52 velocity=70 time=240
note_on channel=0 note=40 velocity=95 time=0
note_off channel=0 note=40 velocity=95 time=240
note_on channel=0 note=40 velocity=95 time=0
note_off channel=0 note=40 velocity=95 time=240
note_on channel=0 note=40 velocity=95 time=0
note_off channel=0 note=40 velocity=95 time=240
note_on channel=0 note=40 velocity=95 time=0
note_off channel=0 note=40 velocity=95 time=240
note_on channel=0 note=40 velocity=95 time=0
note_off channel=0 note=40 velocity=95 time=240
note_on channel=0 note=48 velocity=95 time=0
note_off channel=0 note=48 velocity=95 time=240
note_on channel=0 note=40 velocity=95 time=0
note_off channel=0 note=40 velocity=95 time=240
note_on channel=0 note=47 velocity=95 time=0
note_off channel=0 note=47 velocity=95 time=240
note_on channel=0 note=40 velocity=95 time=0
note_off channel=0 note=40 velocity=95 time=240
note_on channel=0 note=40 velocity=95 time=0
note_off channel=0 note=40 velocity=95 time=240
note_on channel=0 note=47 velocity=95 time=0
note_off channel=0 note=47 velocity=95 time=240
note_on channel=0 note=48 velocity=70 time=0
note_off channel=0 note=48 velocity=70 time=240
note_on channel=0 note=47 velocity=70 time=0
note_off channel=0 note=47 velocity=70 time=240
note_on channel=0 note=45 velocity=70 time=0
note_off channel=0 note=45 velocity=70 time=240
note_on channel=0 note=50 velocity=95 time=0
note_off channel=0 note=50 velocity=95 time=240
note_on channel=0 note=52 velocity=70 time=0
note_off channel=0 note=52 velocity=70 time=240
note_on channel=0 note=40 velocity=95 time=0
note_off channel=0 note=40 velocity=95 time=240
note_on channel=0 note=40 velocity=95 time=0
note_off channel=0 note=40 velocity=95 time=240
note_on channel=0 note=40 velocity=95 time=0
note_off channel=0 note=40 velocity=95 time=240
note_on channel=0 note=40 velocity=95 time=0
note_off channel=0 note=40 velocity=95 time=240
note_on channel=0 note=40 velocity=95 time=0
note_off channel=0 note=40 velocity=95 time=240
note_on channel=0 note=48 velocity=95 time=0
note_off channel=0 note=48 velocity=95 time=240
note_on channel=0 note=40 velocity=95 time=0
note_off channel=0 note=40 velocity=95 time=240
note_on channel=0 note=47 velocity=95 time=0
note_off channel=0 note=47 velocity=95 time=240
note_on channel=0 note=40 velocity=95 time=0
note_off channel=0 note=40 velocity=95 time=240
note_on channel=0 note=40 velocity=95 time=0
note_off channel=0 note=40 velocity=95 time=240
note_on channel=0 note=47 velocity=95 time=0
note_off channel=0 note=47 velocity=95 time=240
note_on channel=0 note=40 velocity=95 time=0
note_off channel=0 note=40 velocity=95 time=240
note_on channel=0 note=48 velocity=95 time=0
note_off channel=0 note=48 velocity=95 time=240
note_on channel=0 note=40 velocity=95 time=0
note_off channel=0 note=40 velocity=95 time=240
note_on channel=0 note=50 velocity=95 time=0
note_off channel=0 note=50 velocity=95 time=240
note_on channel=0 note=52 velocity=70 time=0
note_off channel=0 note=52 velocity=70 time=240
note_on channel=0 note=40 velocity=95 time=0
note_off channel=0 note=40 velocity=95 time=240
note_on channel=0 note=40 velocity=95 time=0
note_off channel=0 note=40 velocity=95 time=240
note_on channel=0 note=40 velocity=95 time=0
note_off channel=0 note=40 velocity=95 time=240
note_on channel=0 note=40 velocity=95 time=0
note_off channel=0 note=40 velocity=95 time=240
note_on channel=0 note=40 velocity=95 time=0
note_off channel=0 note=40 velocity=95 time=240
note_on channel=0 note=48 velocity=95 time=0
note_off channel=0 note=48 velocity=95 time=240
note_on channel=0 note=40 velocity=95 time=0
note_off channel=0 note=40 velocity=95 time=240
note_on channel=0 note=47 velocity=95 time=0
note_off channel=0 note=47 velocity=95 time=240
note_on channel=0 note=40 velocity=95 time=0
note_off channel=0 note=40 velocity=95 time=240
note_on channel=0 note=40 velocity=95 time=0
note_off channel=0 note=40 velocity=95 time=240
note_on channel=0 note=47 velocity=95 time=0
note_off channel=0 note=47 velocity=95 time=240
note_on channel=0 note=48 velocity=70 time=0
note_off channel=0 note=48 velocity=70 time=240
note_on channel=0 note=47 velocity=70 time=0
note_off channel=0 note=47 velocity=70 time=240
note_on channel=0 note=45 velocity=70 time=0
note_off channel=0 note=45 velocity=70 time=240
note_on channel=0 note=64 velocity=95 time=0
note_on channel=0 note=59 velocity=95 time=0
note_on channel=0 note=52 velocity=95 time=0
note_off channel=0 note=64 velocity=95 time=720
note_off channel=0 note=59 velocity=95 time=0
note_off channel=0 note=52 velocity=95 time=0
note_on channel=0 note=64 velocity=95 time=0
note_on channel=0 note=59 velocity=95 time=0
note_on channel=0 note=52 velocity=95 time=0
note_off channel=0 note=64 velocity=95 time=240
note_off channel=0 note=59 velocity=95 time=0
note_off channel=0 note=52 velocity=95 time=0
note_on channel=0 note=64 velocity=95 time=0
note_on channel=0 note=59 velocity=95 time=0
note_on channel=0 note=52 velocity=95 time=0
note_off channel=0 note=64 velocity=95 time=240
note_off channel=0 note=59 velocity=95 time=0
note_off channel=0 note=52 velocity=95 time=0
note_on channel=0 note=64 velocity=95 time=0
note_on channel=0 note=59 velocity=95 time=0
note_on channel=0 note=52 velocity=95 time=0
note_off channel=0 note=64 velocity=95 time=240
note_off channel=0 note=59 velocity=95 time=0
note_off channel=0 note=52 velocity=95 time=0
note_on channel=0 note=64 velocity=95 time=0
note_on channel=0 note=59 velocity=95 time=0
note_on channel=0 note=52 velocity=95 time=0
note_off channel=0 note=64 velocity=95 time=240
note_off channel=0 note=59 velocity=95 time=0
note_off channel=0 note=52 velocity=95 time=0
note_on channel=0 note=67 velocity=95 time=0
note_on channel=0 note=62 velocity=95 time=0
note_on channel=0 note=55 velocity=95 time=0
note_off channel=0 note=67 velocity=95 time=480
note_off channel=0 note=62 velocity=95 time=0
note_off channel=0 note=55 velocity=95 time=0
note_on channel=0 note=67 velocity=95 time=0
note_on channel=0 note=62 velocity=95 time=0
note_on channel=0 note=55 velocity=95 time=0
note_off channel=0 note=67 velocity=95 time=480
note_off channel=0 note=62 velocity=95 time=0
note_off channel=0 note=55 velocity=95 time=0
note_on channel=0 note=66 velocity=95 time=0
note_on channel=0 note=61 velocity=95 time=0
note_on channel=0 note=54 velocity=95 time=0
note_off channel=0 note=66 velocity=95 time=480
note_off channel=0 note=61 velocity=95 time=0
note_off channel=0 note=54 velocity=95 time=0
note_on channel=0 note=66 velocity=95 time=0
note_on channel=0 note=61 velocity=95 time=0
note_on channel=0 note=54 velocity=95 time=0
note_off channel=0 note=66 velocity=95 time=240
note_off channel=0 note=61 velocity=95 time=0
note_off channel=0 note=54 velocity=95 time=0
note_on channel=0 note=64 velocity=95 time=0
note_on channel=0 note=59 velocity=95 time=0
note_on channel=0 note=52 velocity=95 time=0
note_off channel=0 note=64 velocity=95 time=480
note_off channel=0 note=59 velocity=95 time=0
note_off channel=0 note=52 velocity=95 time=0
note_on channel=0 note=60 velocity=95 time=0
note_on channel=0 note=55 velocity=95 time=0
note_on channel=0 note=48 velocity=95 time=0
note_off channel=0 note=60 velocity=95 time=720
note_off channel=0 note=55 velocity=95 time=0
note_off channel=0 note=48 velocity=95 time=0
note_on channel=0 note=60 velocity=95 time=0
note_on channel=0 note=55 velocity=95 time=0
note_on channel=0 note=48 velocity=95 time=0
note_off channel=0 note=60 velocity=95 time=240
note_off channel=0 note=55 velocity=95 time=0
note_off channel=0 note=48 velocity=95 time=0
note_on channel=0 note=60 velocity=95 time=0
note_on channel=0 note=55 velocity=95 time=0
note_on channel=0 note=48 velocity=95 time=0
note_off channel=0 note=60 velocity=95 time=480
note_off channel=0 note=55 velocity=95 time=0
note_off channel=0 note=48 velocity=95 time=0
note_on channel=0 note=59 velocity=95 time=0
note_on channel=0 note=54 velocity=95 time=0
note_on channel=0 note=47 velocity=95 time=0
note_off channel=0 note=59 velocity=95 time=240
note_off channel=0 note=54 velocity=95 time=0
note_off channel=0 note=47 velocity=95 time=0
note_on channel=0 note=59 velocity=95 time=0
note_on channel=0 note=54 velocity=95 time=0
note_on channel=0 note=47 velocity=95 time=0
note_off channel=0 note=59 velocity=95 time=480
note_off channel=0 note=54 velocity=95 time=0
note_off channel=0 note=47 velocity=95 time=0
note_on channel=0 note=59 velocity=95 time=0
note_on channel=0 note=54 velocity=95 time=0
note_on channel=0 note=47 velocity=95 time=0
note_off channel=0 note=59 velocity=95 time=480
note_off channel=0 note=54 velocity=95 time=0
note_off channel=0 note=47 velocity=95 time=0
note_on channel=0 note=60 velocity=95 time=0
note_on channel=0 note=55 velocity=95 time=0
note_on channel=0 note=48 velocity=95 time=0
note_off channel=0 note=60 velocity=95 time=480
note_off channel=0 note=55 velocity=95 time=0
note_off channel=0 note=48 velocity=95 time=0
note_on channel=0 note=60 velocity=95 time=0
note_on channel=0 note=55 velocity=95 time=0
note_on channel=0 note=48 velocity=95 time=0
note_off channel=0 note=60 velocity=95 time=240
note_off channel=0 note=55 velocity=95 time=0
note_off channel=0 note=48 velocity=95 time=0
note_on channel=0 note=62 velocity=95 time=0
note_on channel=0 note=57 velocity=95 time=0
note_on channel=0 note=50 velocity=95 time=0
note_off channel=0 note=62 velocity=95 time=480
note_off channel=0 note=57 velocity=95 time=0
note_off channel=0 note=50 velocity=95 time=0
note_on channel=0 note=64 velocity=95 time=0
note_on channel=0 note=59 velocity=95 time=0
note_on channel=0 note=52 velocity=95 time=0
note_off channel=0 note=64 velocity=95 time=720
note_off channel=0 note=59 velocity=95 time=0
note_off channel=0 note=52 velocity=95 time=0
note_on channel=0 note=64 velocity=95 time=0
note_on channel=0 note=59 velocity=95 time=0
note_on channel=0 note=52 velocity=95 time=0
note_off channel=0 note=64 velocity=95 time=240
note_off channel=0 note=59 velocity=95 time=0
note_off channel=0 note=52 velocity=95 time=0
note_on channel=0 note=64 velocity=95 time=0
note_on channel=0 note=59 velocity=95 time=0
note_on channel=0 note=52 velocity=95 time=0
note_off channel=0 note=64 velocity=95 time=240
note_off channel=0 note=59 velocity=95 time=0
note_off channel=0 note=52 velocity=95 time=0
note_on channel=0 note=64 velocity=95 time=0
note_on channel=0 note=59 velocity=95 time=0
note_on channel=0 note=52 velocity=95 time=0
note_off channel=0 note=64 velocity=95 time=240
note_off channel=0 note=59 velocity=95 time=0
note_off channel=0 note=52 velocity=95 time=0
note_on channel=0 note=64 velocity=95 time=0
note_on channel=0 note=59 velocity=95 time=0
note_on channel=0 note=52 velocity=95 time=0
note_off channel=0 note=64 velocity=95 time=240
note_off channel=0 note=59 velocity=95 time=0
note_off channel=0 note=52 velocity=95 time=0
note_on channel=0 note=67 velocity=95 time=0
note_on channel=0 note=62 velocity=95 time=0
note_on channel=0 note=55 velocity=95 time=0
note_off channel=0 note=67 velocity=95 time=480
note_off channel=0 note=62 velocity=95 time=0
note_off channel=0 note=55 velocity=95 time=0
note_on channel=0 note=67 velocity=95 time=0
note_on channel=0 note=62 velocity=95 time=0
note_on channel=0 note=55 velocity=95 time=0
note_off channel=0 note=67 velocity=95 time=480
note_off channel=0 note=62 velocity=95 time=0
note_off channel=0 note=55 velocity=95 time=0
note_on channel=0 note=66 velocity=95 time=0
note_on channel=0 note=61 velocity=95 time=0
note_on channel=0 note=54 velocity=95 time=0
note_off channel=0 note=66 velocity=95 time=480
note_off channel=0 note=61 velocity=95 time=0
note_off channel=0 note=54 velocity=95 time=0
note_on channel=0 note=66 velocity=95 time=0
note_on channel=0 note=61 velocity=95 time=0
note_on channel=0 note=54 velocity=95 time=0
note_off channel=0 note=66 velocity=95 time=240
note_off channel=0 note=61 velocity=95 time=0
note_off channel=0 note=54 velocity=95 time=0
note_on channel=0 note=69 velocity=95 time=0
note_on channel=0 note=64 velocity=95 time=0
note_on channel=0 note=57 velocity=95 time=0
note_off channel=0 note=69 velocity=95 time=480
note_off channel=0 note=64 velocity=95 time=0
note_off channel=0 note=57 velocity=95 time=0
note_on channel=0 note=60 velocity=95 time=0
note_on channel=0 note=55 velocity=95 time=0
note_on channel=0 note=48 velocity=95 time=0
note_off channel=0 note=60 velocity=95 time=720
note_off channel=0 note=55 velocity=95 time=0
note_off channel=0 note=48 velocity=95 time=0
note_on channel=0 note=60 velocity=95 time=0
note_on channel=0 note=55 velocity=95 time=0
note_on channel=0 note=48 velocity=95 time=0
note_off channel=0 note=60 velocity=95 time=240
note_off channel=0 note=55 velocity=95 time=0
note_off channel=0 note=48 velocity=95 time=0
note_on channel=0 note=60 velocity=95 time=0
note_on channel=0 note=55 velocity=95 time=0
note_on channel=0 note=48 velocity=95 time=0
note_off channel=0 note=60 velocity=95 time=480
note_off channel=0 note=55 velocity=95 time=0
note_off channel=0 note=48 velocity=95 time=0
note_on channel=0 note=59 velocity=95 time=0
note_on channel=0 note=54 velocity=95 time=0
note_on channel=0 note=47 velocity=95 time=0
note_off channel=0 note=59 velocity=95 time=240
note_off channel=0 note=54 velocity=95 time=0
note_off channel=0 note=47 velocity=95 time=0
note_on channel=0 note=59 velocity=95 time=0
note_on channel=0 note=54 velocity=95 time=0
note_on channel=0 note=47 velocity=95 time=0
note_off channel=0 note=59 velocity=95 time=480
note_off channel=0 note=54 velocity=95 time=0
note_off channel=0 note=47 velocity=95 time=0
note_on channel=0 note=59 velocity=95 time=0
note_on channel=0 note=54 velocity=95 time=0
note_on channel=0 note=47 velocity=95 time=0
note_off channel=0 note=59 velocity=95 time=480
note_off channel=0 note=54 velocity=95 time=0
note_off channel=0 note=47 velocity=95 time=0
note_on channel=0 note=60 velocity=95 time=0
note_on channel=0 note=55 velocity=95 time=0
note_on channel=0 note=48 velocity=95 time=0
note_off channel=0 note=60 velocity=95 time=480
note_off channel=0 note=55 velocity=95 time=0
note_off channel=0 note=48 velocity=95 time=0
note_on channel=0 note=60 velocity=95 time=0
note_on channel=0 note=55 velocity=95 time=0
note_on channel=0 note=48 velocity=95 time=0
note_off channel=0 note=60 velocity=95 time=240
note_off channel=0 note=55 velocity=95 time=0
note_off channel=0 note=48 velocity=95 time=0
note_on channel=0 note=62 velocity=95 time=0
note_on channel=0 note=57 velocity=95 time=0
note_on channel=0 note=50 velocity=95 time=0
note_off channel=0 note=62 velocity=95 time=480
note_off channel=0 note=57 velocity=95 time=0
note_off channel=0 note=50 velocity=95 time=0
note_on channel=0 note=64 velocity=95 time=0
note_on channel=0 note=59 velocity=95 time=0
note_on channel=0 note=52 velocity=95 time=0
note_off channel=0 note=64 velocity=95 time=720
note_off channel=0 note=59 velocity=95 time=0
note_off channel=0 note=52 velocity=95 time=0
note_on channel=0 note=64 velocity=95 time=0
note_on channel=0 note=59 velocity=95 time=0
note_on channel=0 note=52 velocity=95 time=0
note_off channel=0 note=64 velocity=95 time=240
note_off channel=0 note=59 velocity=95 time=0
note_off channel=0 note=52 velocity=95 time=0
note_on channel=0 note=64 velocity=95 time=0
note_on channel=0 note=59 velocity=95 time=0
note_on channel=0 note=52 velocity=95 time=0
note_off channel=0 note=64 velocity=95 time=240
note_off channel=0 note=59 velocity=95 time=0
note_off channel=0 note=52 velocity=95 time=0
note_on channel=0 note=64 velocity=95 time=0
note_on channel=0 note=59 velocity=95 time=0
note_on channel=0 note=52 velocity=95 time=0
note_off channel=0 note=64 velocity=95 time=240
note_off channel=0 note=59 velocity=95 time=0
note_off channel=0 note=52 velocity=95 time=0
note_on channel=0 note=64 velocity=95 time=0
note_on channel=0 note=59 velocity=95 time=0
note_on channel=0 note=52 velocity=95 time=0
note_off channel=0 note=64 velocity=95 time=240
note_off channel=0 note=59 velocity=95 time=0
note_off channel=0 note=52 velocity=95 time=0
note_on channel=0 note=67 velocity=95 time=0
note_on channel=0 note=62 velocity=95 time=0
note_on channel=0 note=55 velocity=95 time=0
note_off channel=0 note=67 velocity=95 time=480
note_off channel=0 note=62 velocity=95 time=0
note_off channel=0 note=55 velocity=95 time=0
note_on channel=0 note=67 velocity=95 time=0
note_on channel=0 note=62 velocity=95 time=0
note_on channel=0 note=55 velocity=95 time=0
note_off channel=0 note=67 velocity=95 time=480
note_off channel=0 note=62 velocity=95 time=0
note_off channel=0 note=55 velocity=95 time=0
note_on channel=0 note=66 velocity=95 time=0
note_on channel=0 note=61 velocity=95 time=0
note_on channel=0 note=54 velocity=95 time=0
note_off channel=0 note=66 velocity=95 time=480
note_off channel=0 note=61 velocity=95 time=0
note_off channel=0 note=54 velocity=95 time=0
note_on channel=0 note=66 velocity=95 time=0
note_on channel=0 note=61 velocity=95 time=0
note_on channel=0 note=54 velocity=95 time=0
note_off channel=0 note=66 velocity=95 time=240
note_off channel=0 note=61 velocity=95 time=0
note_off channel=0 note=54 velocity=95 time=0
note_on channel=0 note=64 velocity=95 time=0
note_on channel=0 note=59 velocity=95 time=0
note_on channel=0 note=52 velocity=95 time=0
note_off channel=0 note=64 velocity=95 time=480
note_off channel=0 note=59 velocity=95 time=0
note_off channel=0 note=52 velocity=95 time=0
note_on channel=0 note=60 velocity=95 time=0
note_on channel=0 note=55 velocity=95 time=0
note_on channel=0 note=48 velocity=95 time=0
note_off channel=0 note=60 velocity=95 time=720
note_off channel=0 note=55 velocity=95 time=0
note_off channel=0 note=48 velocity=95 time=0
note_on channel=0 note=60 velocity=95 time=0
note_on channel=0 note=55 velocity=95 time=0
note_on channel=0 note=48 velocity=95 time=0
note_off channel=0 note=60 velocity=95 time=240
note_off channel=0 note=55 velocity=95 time=0
note_off channel=0 note=48 velocity=95 time=0
note_on channel=0 note=60 velocity=95 time=0
note_on channel=0 note=55 velocity=95 time=0
note_on channel=0 note=48 velocity=95 time=0
note_off channel=0 note=60 velocity=95 time=480
note_off channel=0 note=55 velocity=95 time=0
note_off channel=0 note=48 velocity=95 time=0
note_on channel=0 note=59 velocity=95 time=0
note_on channel=0 note=54 velocity=95 time=0
note_on channel=0 note=47 velocity=95 time=0
note_off channel=0 note=59 velocity=95 time=240
note_off channel=0 note=54 velocity=95 time=0
note_off channel=0 note=47 velocity=95 time=0
note_on channel=0 note=59 velocity=95 time=0
note_on channel=0 note=54 velocity=95 time=0
note_on channel=0 note=47 velocity=95 time=0
note_off channel=0 note=59 velocity=95 time=480
note_off channel=0 note=54 velocity=95 time=0
note_off channel=0 note=47 velocity=95 time=0
note_on channel=0 note=59 velocity=95 time=0
note_on channel=0 note=54 velocity=95 time=0
note_on channel=0 note=47 velocity=95 time=0
note_off channel=0 note=59 velocity=95 time=480
note_off channel=0 note=54 velocity=95 time=0
note_off channel=0 note=47 velocity=95 time=0
note_on channel=0 note=60 velocity=95 time=0
note_on channel=0 note=55 velocity=95 time=0
note_on channel=0 note=48 velocity=95 time=0
note_off channel=0 note=60 velocity=95 time=480
note_off channel=0 note=55 velocity=95 time=0
note_off channel=0 note=48 velocity=95 time=0
note_on channel=0 note=60 velocity=95 time=0
note_on channel=0 note=55 velocity=95 time=0
note_on channel=0 note=48 velocity=95 time=0
note_off channel=0 note=60 velocity=95 time=240
note_off channel=0 note=55 velocity=95 time=0
note_off channel=0 note=48 velocity=95 time=0
note_on channel=0 note=62 velocity=95 time=0
note_on channel=0 note=57 velocity=95 time=0
note_on channel=0 note=50 velocity=95 time=0
note_off channel=0 note=62 velocity=95 time=480
note_off channel=0 note=57 velocity=95 time=0
note_off channel=0 note=50 velocity=95 time=0
note_on channel=0 note=64 velocity=95 time=0
note_on channel=0 note=59 velocity=95 time=0
note_on channel=0 note=52 velocity=95 time=0
note_off channel=0 note=64 velocity=95 time=720
note_off channel=0 note=59 velocity=95 time=0
note_off channel=0 note=52 velocity=95 time=0
note_on channel=0 note=64 velocity=95 time=0
note_on channel=0 note=59 velocity=95 time=0
note_on channel=0 note=52 velocity=95 time=0
note_off channel=0 note=64 velocity=95 time=240
note_off channel=0 note=59 velocity=95 time=0
note_off channel=0 note=52 velocity=95 time=0
note_on channel=0 note=64 velocity=95 time=0
note_on channel=0 note=59 velocity=95 time=0
note_on channel=0 note=52 velocity=95 time=0
note_off channel=0 note=64 velocity=95 time=240
note_off channel=0 note=59 velocity=95 time=0
note_off channel=0 note=52 velocity=95 time=0
note_on channel=0 note=64 velocity=95 time=0
note_on channel=0 note=59 velocity=95 time=0
note_on channel=0 note=52 velocity=95 time=0
note_off channel=0 note=64 velocity=95 time=240
note_off channel=0 note=59 velocity=95 time=0
note_off channel=0 note=52 velocity=95 time=0
note_on channel=0 note=64 velocity=95 time=0
note_on channel=0 note=59 velocity=95 time=0
note_on channel=0 note=52 velocity=95 time=0
note_off channel=0 note=64 velocity=95 time=240
note_off channel=0 note=59 velocity=95 time=0
note_off channel=0 note=52 velocity=95 time=0
note_on channel=0 note=67 velocity=95 time=0
note_on channel=0 note=62 velocity=95 time=0
note_on channel=0 note=55 velocity=95 time=0
note_off channel=0 note=67 velocity=95 time=480
note_off channel=0 note=62 velocity=95 time=0
note_off channel=0 note=55 velocity=95 time=0
note_on channel=0 note=67 velocity=95 time=0
note_on channel=0 note=62 velocity=95 time=0
note_on channel=0 note=55 velocity=95 time=0
note_off channel=0 note=67 velocity=95 time=480
note_off channel=0 note=62 velocity=95 time=0
note_off channel=0 note=55 velocity=95 time=0
note_on channel=0 note=66 velocity=95 time=0
note_on channel=0 note=61 velocity=95 time=0
note_on channel=0 note=54 velocity=95 time=0
note_off channel=0 note=66 velocity=95 time=480
note_off channel=0 note=61 velocity=95 time=0
note_off channel=0 note=54 velocity=95 time=0
note_on channel=0 note=66 velocity=95 time=0
note_on channel=0 note=61 velocity=95 time=0
note_on channel=0 note=54 velocity=95 time=0
note_off channel=0 note=66 velocity=95 time=240
note_off channel=0 note=61 velocity=95 time=0
note_off channel=0 note=54 velocity=95 time=0
note_on channel=0 note=69 velocity=95 time=0
note_on channel=0 note=64 velocity=95 time=0
note_on channel=0 note=57 velocity=95 time=0
note_off channel=0 note=69 velocity=95 time=480
note_off channel=0 note=64 velocity=95 time=0
note_off channel=0 note=57 velocity=95 time=0
note_on channel=0 note=60 velocity=95 time=0
note_on channel=0 note=55 velocity=95 time=0
note_on channel=0 note=48 velocity=95 time=0
note_off channel=0 note=60 velocity=95 time=720
note_off channel=0 note=55 velocity=95 time=0
note_off channel=0 note=48 velocity=95 time=0
note_on channel=0 note=60 velocity=95 time=0
note_on channel=0 note=55 velocity=95 time=0
note_on channel=0 note=48 velocity=95 time=0
note_off channel=0 note=60 velocity=95 time=240
note_off channel=0 note=55 velocity=95 time=0
note_off channel=0 note=48 velocity=95 time=0
note_on channel=0 note=60 velocity=95 time=0
note_on channel=0 note=55 velocity=95 time=0
note_on channel=0 note=48 velocity=95 time=0
note_off channel=0 note=60 velocity=95 time=480
note_off channel=0 note=55 velocity=95 time=0
note_off channel=0 note=48 velocity=95 time=0
note_on channel=0 note=59 velocity=95 time=0
note_on channel=0 note=54 velocity=95 time=0
note_on channel=0 note=47 velocity=95 time=0
note_off channel=0 note=59 velocity=95 time=240
note_off channel=0 note=54 velocity=95 time=0
note_off channel=0 note=47 velocity=95 time=0
note_on channel=0 note=59 velocity=95 time=0
note_on channel=0 note=54 velocity=95 time=0
note_on channel=0 note=47 velocity=95 time=0
note_off channel=0 note=59 velocity=95 time=480
note_off channel=0 note=54 velocity=95 time=0
note_off channel=0 note=47 velocity=95 time=0
note_on channel=0 note=59 velocity=95 time=0
note_on channel=0 note=54 velocity=95 time=0
note_on channel=0 note=47 velocity=95 time=0
note_off channel=0 note=59 velocity=95 time=480
note_off channel=0 note=54 velocity=95 time=0
note_off channel=0 note=47 velocity=95 time=0
note_on channel=0 note=60 velocity=95 time=0
note_on channel=0 note=55 velocity=95 time=0
note_on channel=0 note=48 velocity=95 time=0
note_off channel=0 note=60 velocity=95 time=480
note_off channel=0 note=55 velocity=95 time=0
note_off channel=0 note=48 velocity=95 time=0
note_on channel=0 note=60 velocity=95 time=0
note_on channel=0 note=55 velocity=95 time=0
note_on channel=0 note=48 velocity=95 time=0
note_off channel=0 note=60 velocity=95 time=240
note_off channel=0 note=55 velocity=95 time=0
note_off channel=0 note=48 velocity=95 time=0
note_on channel=0 note=62 velocity=95 time=0
note_on channel=0 note=57 velocity=95 time=0
note_on channel=0 note=50 velocity=95 time=0
note_off channel=0 note=62 velocity=95 time=480
note_off channel=0 note=57 velocity=95 time=0
note_off channel=0 note=50 velocity=95 time=0
note_on channel=0 note=64 velocity=95 time=0
note_on channel=0 note=59 velocity=95 time=0
note_on channel=0 note=52 velocity=95 time=0
note_off channel=0 note=64 velocity=95 time=720
note_off channel=0 note=59 velocity=95 time=0
note_off channel=0 note=52 velocity=95 time=0
note_on channel=0 note=47 velocity=31 time=0
note_on channel=0 note=59 velocity=95 time=0
note_off channel=0 note=47 velocity=31 time=240
note_off channel=0 note=59 velocity=95 time=0
note_on channel=0 note=47 velocity=31 time=0
note_on channel=0 note=59 velocity=95 time=0
note_off channel=0 note=47 velocity=31 time=240
note_off channel=0 note=59 velocity=95 time=0
note_on channel=0 note=47 velocity=31 time=0
note_on channel=0 note=59 velocity=95 time=0
note_off channel=0 note=47 velocity=31 time=240
note_off channel=0 note=59 velocity=95 time=0
note_on channel=0 note=64 velocity=95 time=0
note_on channel=0 note=59 velocity=95 time=0
note_on channel=0 note=52 velocity=95 time=0
note_off channel=0 note=64 velocity=95 time=720
note_off channel=0 note=59 velocity=95 time=0
note_off channel=0 note=52 velocity=95 time=0
note_on channel=0 note=47 velocity=31 time=0
note_on channel=0 note=59 velocity=95 time=0
note_off channel=0 note=47 velocity=31 time=240
note_off channel=0 note=59 velocity=95 time=0
note_on channel=0 note=47 velocity=31 time=0
note_on channel=0 note=59 velocity=95 time=0
note_off channel=0 note=47 velocity=31 time=240
note_off channel=0 note=59 velocity=95 time=0
note_on channel=0 note=47 velocity=31 time=0
note_on channel=0 note=59 velocity=95 time=0
note_off channel=0 note=47 velocity=31 time=240
note_off channel=0 note=59 velocity=95 time=0
note_on channel=0 note=64 velocity=95 time=0
note_on channel=0 note=59 velocity=95 time=0
note_on channel=0 note=52 velocity=95 time=0
note_off channel=0 note=64 velocity=95 time=480
note_off channel=0 note=59 velocity=95 time=0
note_off channel=0 note=52 velocity=95 time=0
note_on channel=0 note=64 velocity=95 time=0
note_on channel=0 note=59 velocity=95 time=0
note_on channel=0 note=52 velocity=95 time=0
note_off channel=0 note=64 velocity=95 time=240
note_off channel=0 note=59 velocity=95 time=0
note_off channel=0 note=52 velocity=95 time=0
note_on channel=0 note=64 velocity=95 time=0
note_on channel=0 note=59 velocity=95 time=0
note_on channel=0 note=52 velocity=95 time=0
note_off channel=0 note=64 velocity=95 time=240
note_off channel=0 note=59 velocity=95 time=0
note_off channel=0 note=52 velocity=95 time=0
note_on channel=0 note=67 velocity=95 time=0
note_on channel=0 note=62 velocity=95 time=0
note_on channel=0 note=55 velocity=95 time=0
note_off channel=0 note=67 velocity=95 time=720
note_off channel=0 note=62 velocity=95 time=0
note_off channel=0 note=55 velocity=95 time=0
note_on channel=0 note=66 velocity=95 time=0
note_on channel=0 note=61 velocity=95 time=0
note_on channel=0 note=54 velocity=95 time=0
note_off channel=0 note=66 velocity=95 time=720
note_off channel=0 note=61 velocity=95 time=0
note_off channel=0 note=54 velocity=95 time=0
note_on channel=0 note=69 velocity=95 time=0
note_on channel=0 note=64 velocity=95 time=0
note_on channel=0 note=57 velocity=95 time=0
note_off channel=0 note=69 velocity=95 time=720
note_off channel=0 note=64 velocity=95 time=0
note_off channel=0 note=57 velocity=95 time=0
note_on channel=0 note=69 velocity=95 time=0
note_on channel=0 note=64 velocity=95 time=0
note_on channel=0 note=57 velocity=95 time=0
note_off channel=0 note=69 velocity=95 time=240
note_off channel=0 note=64 velocity=95 time=0
note_off channel=0 note=57 velocity=95 time=0
note_on channel=0 note=69 velocity=95 time=0
note_on channel=0 note=64 velocity=95 time=0
note_on channel=0 note=57 velocity=95 time=0
note_off channel=0 note=69 velocity=95 time=240
note_off channel=0 note=64 velocity=95 time=0
note_off channel=0 note=57 velocity=95 time=0
note_on channel=0 note=69 velocity=95 time=0
note_on channel=0 note=64 velocity=95 time=0
note_on channel=0 note=57 velocity=95 time=0
note_off channel=0 note=69 velocity=95 time=43
note_off channel=0 note=64 velocity=95 time=0
note_off channel=0 note=57 velocity=95 time=0
note_on channel=0 note=69 velocity=95 time=197
note_on channel=0 note=64 velocity=95 time=0
note_on channel=0 note=57 velocity=95 time=0
note_off channel=0 note=69 velocity=95 time=240
note_off channel=0 note=64 velocity=95 time=0
note_off channel=0 note=57 velocity=95 time=0
note_on channel=0 note=69 velocity=95 time=0
note_on channel=0 note=64 velocity=95 time=0
note_on channel=0 note=57 velocity=95 time=0
note_off channel=0 note=69 velocity=95 time=240
note_off channel=0 note=64 velocity=95 time=0
note_off channel=0 note=57 velocity=95 time=0
note_on channel=0 note=66 velocity=95 time=0
note_on channel=0 note=61 velocity=95 time=0
note_on channel=0 note=54 velocity=95 time=0
note_off channel=0 note=66 velocity=95 time=43
note_off channel=0 note=61 velocity=95 time=0
note_off channel=0 note=54 velocity=95 time=0
note_on channel=0 note=67 velocity=95 time=197
note_on channel=0 note=62 velocity=95 time=0
note_on channel=0 note=55 velocity=95 time=0
note_off channel=0 note=67 velocity=95 time=43
note_off channel=0 note=62 velocity=95 time=0
note_off channel=0 note=55 velocity=95 time=0
note_on channel=0 note=64 velocity=95 time=197
note_on channel=0 note=59 velocity=95 time=0
note_on channel=0 note=52 velocity=95 time=0
note_off channel=0 note=64 velocity=95 time=720
note_off channel=0 note=59 velocity=95 time=0
note_off channel=0 note=52 velocity=95 time=0
note_on channel=0 note=47 velocity=31 time=0
note_on channel=0 note=59 velocity=95 time=0
note_off channel=0 note=47 velocity=31 time=240
note_off channel=0 note=59 velocity=95 time=0
note_on channel=0 note=47 velocity=31 time=0
note_on channel=0 note=59 velocity=95 time=0
note_off channel=0 note=47 velocity=31 time=240
note_off channel=0 note=59 velocity=95 time=0
note_on channel=0 note=47 velocity=31 time=0
note_on channel=0 note=59 velocity=95 time=0
note_off channel=0 note=47 velocity=31 time=240
note_off channel=0 note=59 velocity=95 time=0
note_on channel=0 note=64 velocity=95 time=0
note_on channel=0 note=59 velocity=95 time=0
note_on channel=0 note=52 velocity=95 time=0
note_off channel=0 note=64 velocity=95 time=720
note_off channel=0 note=59 velocity=95 time=0
note_off channel=0 note=52 velocity=95 time=0
note_on channel=0 note=47 velocity=31 time=0
note_on channel=0 note=59 velocity=95 time=0
note_off channel=0 note=47 velocity=31 time=240
note_off channel=0 note=59 velocity=95 time=0
note_on channel=0 note=47 velocity=31 time=0
note_on channel=0 note=59 velocity=95 time=0
note_off channel=0 note=47 velocity=31 time=240
note_off channel=0 note=59 velocity=95 time=0
note_on channel=0 note=47 velocity=31 time=0
note_on channel=0 note=59 velocity=95 time=0
note_off channel=0 note=47 velocity=31 time=240
note_off channel=0 note=59 velocity=95 time=0
note_on channel=0 note=64 velocity=95 time=0
note_on channel=0 note=59 velocity=95 time=0
note_on channel=0 note=52 velocity=95 time=0
note_off channel=0 note=64 velocity=95 time=480
note_off channel=0 note=59 velocity=95 time=0
note_off channel=0 note=52 velocity=95 time=0
note_on channel=0 note=64 velocity=95 time=0
note_on channel=0 note=59 velocity=95 time=0
note_on channel=0 note=52 velocity=95 time=0
note_off channel=0 note=64 velocity=95 time=240
note_off channel=0 note=59 velocity=95 time=0
note_off channel=0 note=52 velocity=95 time=0
note_on channel=0 note=64 velocity=95 time=0
note_on channel=0 note=59 velocity=95 time=0
note_on channel=0 note=52 velocity=95 time=0
note_off channel=0 note=64 velocity=95 time=240
note_off channel=0 note=59 velocity=95 time=0
note_off channel=0 note=52 velocity=95 time=0
note_on channel=0 note=60 velocity=95 time=0
note_on channel=0 note=55 velocity=95 time=0
note_on channel=0 note=48 velocity=95 time=0
note_off channel=0 note=60 velocity=95 time=480
note_off channel=0 note=55 velocity=95 time=0
note_off channel=0 note=48 velocity=95 time=0
note_on channel=0 note=66 velocity=95 time=0
note_on channel=0 note=61 velocity=95 time=0
note_on channel=0 note=54 velocity=95 time=0
note_off channel=0 note=66 velocity=95 time=43
note_off channel=0 note=61 velocity=95 time=0
note_off channel=0 note=54 velocity=95 time=0
note_on channel=0 note=59 velocity=95 time=197
note_on channel=0 note=54 velocity=95 time=0
note_on channel=0 note=47 velocity=95 time=0
note_off channel=0 note=59 velocity=95 time=480
note_off channel=0 note=54 velocity=95 time=0
note_off channel=0 note=47 velocity=95 time=0
note_on channel=0 note=57 velocity=95 time=0
note_on channel=0 note=52 velocity=95 time=0
note_on channel=0 note=45 velocity=95 time=0
note_off channel=0 note=57 velocity=95 time=240
note_off channel=0 note=52 velocity=95 time=0
note_off channel=0 note=45 velocity=95 time=0
note_on channel=0 note=57 velocity=95 time=0
note_on channel=0 note=52 velocity=95 time=0
note_on channel=0 note=45 velocity=95 time=0
note_off channel=0 note=57 velocity=95 time=720
note_off channel=0 note=52 velocity=95 time=0
note_off channel=0 note=45 velocity=95 time=0
note_on channel=0 note=45 velocity=95 time=0
note_off channel=0 note=45 velocity=95 time=240
note_on channel=0 note=47 velocity=95 time=0
note_off channel=0 note=47 velocity=95 time=240
note_on channel=0 note=40 velocity=95 time=0
note_off channel=0 note=40 velocity=95 time=240
note_on channel=0 note=47 velocity=95 time=0
note_off channel=0 note=47 velocity=95 time=240
note_on channel=0 note=48 velocity=70 time=0
note_off channel=0 note=48 velocity=70 time=240
note_on channel=0 note=47 velocity=70 time=0
note_off channel=0 note=47 velocity=70 time=240
note_on channel=0 note=45 velocity=70 time=0
note_off channel=0 note=45 velocity=70 time=240
note_on channel=0 note=64 velocity=95 time=0
note_on channel=0 note=59 velocity=95 time=0
note_on channel=0 note=52 velocity=95 time=0
note_off channel=0 note=64 velocity=95 time=720
note_off channel=0 note=59 velocity=95 time=0
note_off channel=0 note=52 velocity=95 time=0
note_on channel=0 note=47 velocity=31 time=0
note_on channel=0 note=59 velocity=95 time=0
note_off channel=0 note=47 velocity=31 time=240
note_off channel=0 note=59 velocity=95 time=0
note_on channel=0 note=47 velocity=31 time=0
note_on channel=0 note=59 velocity=95 time=0
note_off channel=0 note=47 velocity=31 time=240
note_off channel=0 note=59 velocity=95 time=0
note_on channel=0 note=47 velocity=31 time=0
note_on channel=0 note=59 velocity=95 time=0
note_off channel=0 note=47 velocity=31 time=240
note_off channel=0 note=59 velocity=95 time=0
note_on channel=0 note=64 velocity=95 time=0
note_on channel=0 note=59 velocity=95 time=0
note_on channel=0 note=52 velocity=95 time=0
note_off channel=0 note=64 velocity=95 time=720
note_off channel=0 note=59 velocity=95 time=0
note_off channel=0 note=52 velocity=95 time=0
note_on channel=0 note=47 velocity=31 time=0
note_on channel=0 note=59 velocity=95 time=0
note_off channel=0 note=47 velocity=31 time=240
note_off channel=0 note=59 velocity=95 time=0
note_on channel=0 note=47 velocity=31 time=0
note_on channel=0 note=59 velocity=95 time=0
note_off channel=0 note=47 velocity=31 time=240
note_off channel=0 note=59 velocity=95 time=0
note_on channel=0 note=47 velocity=31 time=0
note_on channel=0 note=59 velocity=95 time=0
note_off channel=0 note=47 velocity=31 time=240
note_off channel=0 note=59 velocity=95 time=0
note_on channel=0 note=64 velocity=95 time=0
note_on channel=0 note=59 velocity=95 time=0
note_on channel=0 note=52 velocity=95 time=0
note_off channel=0 note=64 velocity=95 time=480
note_off channel=0 note=59 velocity=95 time=0
note_off channel=0 note=52 velocity=95 time=0
note_on channel=0 note=64 velocity=95 time=0
note_on channel=0 note=59 velocity=95 time=0
note_on channel=0 note=52 velocity=95 time=0
note_off channel=0 note=64 velocity=95 time=240
note_off channel=0 note=59 velocity=95 time=0
note_off channel=0 note=52 velocity=95 time=0
note_on channel=0 note=64 velocity=95 time=0
note_on channel=0 note=59 velocity=95 time=0
note_on channel=0 note=52 velocity=95 time=0
note_off channel=0 note=64 velocity=95 time=240
note_off channel=0 note=59 velocity=95 time=0
note_off channel=0 note=52 velocity=95 time=0
note_on channel=0 note=67 velocity=95 time=0
note_on channel=0 note=62 velocity=95 time=0
note_on channel=0 note=55 velocity=95 time=0
note_off channel=0 note=67 velocity=95 time=720
note_off channel=0 note=62 velocity=95 time=0
note_off channel=0 note=55 velocity=95 time=0
note_on channel=0 note=66 velocity=95 time=0
note_on channel=0 note=61 velocity=95 time=0
note_on channel=0 note=54 velocity=95 time=0
note_off channel=0 note=66 velocity=95 time=720
note_off channel=0 note=61 velocity=95 time=0
note_off channel=0 note=54 velocity=95 time=0
note_on channel=0 note=69 velocity=95 time=0
note_on channel=0 note=64 velocity=95 time=0
note_on channel=0 note=57 velocity=95 time=0
note_off channel=0 note=69 velocity=95 time=720
note_off channel=0 note=64 velocity=95 time=0
note_off channel=0 note=57 velocity=95 time=0
note_on channel=0 note=69 velocity=95 time=0
note_on channel=0 note=64 velocity=95 time=0
note_on channel=0 note=57 velocity=95 time=0
note_off channel=0 note=69 velocity=95 time=240
note_off channel=0 note=64 velocity=95 time=0
note_off channel=0 note=57 velocity=95 time=0
note_on channel=0 note=69 velocity=95 time=0
note_on channel=0 note=64 velocity=95 time=0
note_on channel=0 note=57 velocity=95 time=0
note_off channel=0 note=69 velocity=95 time=240
note_off channel=0 note=64 velocity=95 time=0
note_off channel=0 note=57 velocity=95 time=0
note_on channel=0 note=69 velocity=95 time=0
note_on channel=0 note=64 velocity=95 time=0
note_on channel=0 note=57 velocity=95 time=0
note_off channel=0 note=69 velocity=95 time=43
note_off channel=0 note=64 velocity=95 time=0
note_off channel=0 note=57 velocity=95 time=0
note_on channel=0 note=69 velocity=95 time=197
note_on channel=0 note=64 velocity=95 time=0
note_on channel=0 note=57 velocity=95 time=0
note_off channel=0 note=69 velocity=95 time=240
note_off channel=0 note=64 velocity=95 time=0
note_off channel=0 note=57 velocity=95 time=0
note_on channel=0 note=69 velocity=95 time=0
note_on channel=0 note=64 velocity=95 time=0
note_on channel=0 note=57 velocity=95 time=0
note_off channel=0 note=69 velocity=95 time=240
note_off channel=0 note=64 velocity=95 time=0
note_off channel=0 note=57 velocity=95 time=0
note_on channel=0 note=66 velocity=95 time=0
note_on channel=0 note=61 velocity=95 time=0
note_on channel=0 note=54 velocity=95 time=0
note_off channel=0 note=66 velocity=95 time=43
note_off channel=0 note=61 velocity=95 time=0
note_off channel=0 note=54 velocity=95 time=0
note_on channel=0 note=67 velocity=95 time=197
note_on channel=0 note=62 velocity=95 time=0
note_on channel=0 note=55 velocity=95 time=0
note_off channel=0 note=67 velocity=95 time=43
note_off channel=0 note=62 velocity=95 time=0
note_off channel=0 note=55 velocity=95 time=0
note_on channel=0 note=64 velocity=95 time=197
note_on channel=0 note=59 velocity=95 time=0
note_on channel=0 note=52 velocity=95 time=0
note_off channel=0 note=64 velocity=95 time=720
note_off channel=0 note=59 velocity=95 time=0
note_off channel=0 note=52 velocity=95 time=0
note_on channel=0 note=47 velocity=31 time=0
note_on channel=0 note=59 velocity=95 time=0
note_off channel=0 note=47 velocity=31 time=240
note_off channel=0 note=59 velocity=95 time=0
note_on channel=0 note=47 velocity=31 time=0
note_on channel=0 note=59 velocity=95 time=0
note_off channel=0 note=47 velocity=31 time=240
note_off channel=0 note=59 velocity=95 time=0
note_on channel=0 note=47 velocity=31 time=0
note_on channel=0 note=59 velocity=95 time=0
note_off channel=0 note=47 velocity=31 time=240
note_off channel=0 note=59 velocity=95 time=0
note_on channel=0 note=64 velocity=95 time=0
note_on channel=0 note=59 velocity=95 time=0
note_on channel=0 note=52 velocity=95 time=0
note_off channel=0 note=64 velocity=95 time=720
note_off channel=0 note=59 velocity=95 time=0
note_off channel=0 note=52 velocity=95 time=0
note_on channel=0 note=47 velocity=31 time=0
note_on channel=0 note=59 velocity=95 time=0
note_off channel=0 note=47 velocity=31 time=240
note_off channel=0 note=59 velocity=95 time=0
note_on channel=0 note=47 velocity=31 time=0
note_on channel=0 note=59 velocity=95 time=0
note_off channel=0 note=47 velocity=31 time=240
note_off channel=0 note=59 velocity=95 time=0
note_on channel=0 note=47 velocity=31 time=0
note_on channel=0 note=59 velocity=95 time=0
note_off channel=0 note=47 velocity=31 time=240
note_off channel=0 note=59 velocity=95 time=0
note_on channel=0 note=64 velocity=95 time=0
note_on channel=0 note=59 velocity=95 time=0
note_on channel=0 note=52 velocity=95 time=0
note_off channel=0 note=64 velocity=95 time=480
note_off channel=0 note=59 velocity=95 time=0
note_off channel=0 note=52 velocity=95 time=0
note_on channel=0 note=64 velocity=95 time=0
note_on channel=0 note=59 velocity=95 time=0
note_on channel=0 note=52 velocity=95 time=0
note_off channel=0 note=64 velocity=95 time=240
note_off channel=0 note=59 velocity=95 time=0
note_off channel=0 note=52 velocity=95 time=0
note_on channel=0 note=64 velocity=95 time=0
note_on channel=0 note=59 velocity=95 time=0
note_on channel=0 note=52 velocity=95 time=0
note_off channel=0 note=64 velocity=95 time=240
note_off channel=0 note=59 velocity=95 time=0
note_off channel=0 note=52 velocity=95 time=0
note_on channel=0 note=60 velocity=95 time=0
note_on channel=0 note=55 velocity=95 time=0
note_on channel=0 note=48 velocity=95 time=0
note_off channel=0 note=60 velocity=95 time=480
note_off channel=0 note=55 velocity=95 time=0
note_off channel=0 note=48 velocity=95 time=0
note_on channel=0 note=66 velocity=95 time=0
note_on channel=0 note=61 velocity=95 time=0
note_on channel=0 note=54 velocity=95 time=0
note_off channel=0 note=66 velocity=95 time=43
note_off channel=0 note=61 velocity=95 time=0
note_off channel=0 note=54 velocity=95 time=0
note_on channel=0 note=59 velocity=95 time=197
note_on channel=0 note=54 velocity=95 time=0
note_on channel=0 note=47 velocity=95 time=0
note_off channel=0 note=59 velocity=95 time=480
note_off channel=0 note=54 velocity=95 time=0
note_off channel=0 note=47 velocity=95 time=0
note_on channel=0 note=57 velocity=95 time=0
note_on channel=0 note=52 velocity=95 time=0
note_on channel=0 note=45 velocity=95 time=0
note_off channel=0 note=57 velocity=95 time=240
note_off channel=0 note=52 velocity=95 time=0
note_off channel=0 note=45 velocity=95 time=0
note_on channel=0 note=57 velocity=95 time=0
note_on channel=0 note=52 velocity=95 time=0
note_on channel=0 note=45 velocity=95 time=0
note_off channel=0 note=57 velocity=95 time=720
note_off channel=0 note=52 velocity=95 time=0
note_off channel=0 note=45 velocity=95 time=0
note_on channel=0 note=45 velocity=95 time=0
note_off channel=0 note=45 velocity=95 time=240
note_on channel=0 note=47 velocity=95 time=0
note_off channel=0 note=47 velocity=95 time=240
note_on channel=0 note=40 velocity=95 time=0
note_off channel=0 note=40 velocity=95 time=240
note_on channel=0 note=47 velocity=95 time=0
note_off channel=0 note=47 velocity=95 time=240
note_on channel=0 note=48 velocity=70 time=0
note_off channel=0 note=48 velocity=70 time=240
note_on channel=0 note=47 velocity=70 time=0
note_off channel=0 note=47 velocity=70 time=240
note_on channel=0 note=45 velocity=70 time=0
note_off channel=0 note=45 velocity=70 time=240
note_on channel=1 note=52 velocity=95 time=0
pitchwheel channel=1 pitch=0 time=160
pitchwheel channel=1 pitch=128 time=160
pitchwheel channel=1 pitch=0 time=160
pitchwheel channel=1 pitch=128 time=160
pitchwheel channel=1 pitch=0 time=160
pitchwheel channel=1 pitch=128 time=160
pitchwheel channel=1 pitch=0 time=160
pitchwheel channel=1 pitch=128 time=160
pitchwheel channel=1 pitch=0 time=160
pitchwheel channel=1 pitch=128 time=160
pitchwheel channel=1 pitch=0 time=160
pitchwheel channel=1 pitch=128 time=160
pitchwheel channel=1 pitch=0 time=160
pitchwheel channel=1 pitch=128 time=80
pitchwheel channel=1 pitch=0 time=0
note_off channel=1 note=52 velocity=95 time=0
note_on channel=0 note=55 velocity=95 time=0
note_off channel=0 note=55 velocity=95 time=480
note_on channel=0 note=54 velocity=95 time=0
note_off channel=0 note=54 velocity=95 time=240
note_on channel=0 note=55 velocity=95 time=0
note_off channel=0 note=55 velocity=95 time=240
note_on channel=0 note=54 velocity=95 time=0
note_off channel=0 note=54 velocity=95 time=240
note_on channel=0 note=50 velocity=95 time=0
note_off channel=0 note=50 velocity=95 time=240
note_on channel=0 note=50 velocity=95 time=0
note_on channel=1 note=50 velocity=95 time=60
note_off channel=0 note=50 velocity=95 time=180
note_off channel=1 note=50 velocity=95 time=0
note_on channel=1 note=52 velocity=95 time=0
pitchwheel channel=1 pitch=0 time=160
pitchwheel channel=1 pitch=128 time=160
pitchwheel channel=1 pitch=0 time=160
pitchwheel channel=1 pitch=128 time=160
pitchwheel channel=1 pitch=0 time=160
pitchwheel channel=1 pitch=128 time=160
pitchwheel channel=1 pitch=0 time=160
pitchwheel channel=1 pitch=128 time=160
pitchwheel channel=1 pitch=0 time=160
pitchwheel channel=1 pitch=128 time=160
pitchwheel channel=1 pitch=0 time=160
pitchwheel channel=1 pitch=128 time=160
pitchwheel channel=1 pitch=0 time=160
pitchwheel channel=1 pitch=128 time=80
pitchwheel channel=1 pitch=0 time=0
note_off channel=1 note=52 velocity=95 time=0
note_on channel=0 note=55 velocity=95 time=0
note_off channel=0 note=55 velocity=95 time=480
note_on channel=0 note=54 velocity=95 time=0
note_off channel=0 note=54 velocity=95 time=240
note_on channel=0 note=55 velocity=95 time=0
note_off channel=0 note=55 velocity=95 time=240
note_on channel=0 note=54 velocity=95 time=0
note_off channel=0 note=54 velocity=95 time=240
note_on channel=0 note=57 velocity=95 time=0
note_off channel=0 note=57 velocity=95 time=480
note_on channel=0 note=55 velocity=95 time=0
note_off channel=0 note=55 velocity=95 time=960
note_on channel=0 note=55 velocity=95 time=0
note_off channel=0 note=55 velocity=95 time=240
note_on channel=0 note=55 velocity=95 time=0
note_off channel=0 note=55 velocity=95 time=240
note_on channel=0 note=55 velocity=95 time=0
note_off channel=0 note=55 velocity=95 time=240
note_on channel=0 note=55 velocity=95 time=0
note_off channel=0 note=55 velocity=95 time=480
note_on channel=0 note=55 velocity=95 time=0
note_off channel=0 note=55 velocity=95 time=480
note_on channel=0 note=54 velocity=95 time=0
note_off channel=0 note=54 velocity=95 time=240
note_on channel=0 note=55 velocity=95 time=0
note_off channel=0 note=55 velocity=95 time=240
note_on channel=0 note=54 velocity=95 time=0
note_off channel=0 note=54 velocity=95 time=240
note_on channel=0 note=50 velocity=95 time=0
note_off channel=0 note=50 velocity=95 time=240
note_on channel=0 note=50 velocity=95 time=0
note_on channel=1 note=50 velocity=95 time=60
note_off channel=0 note=50 velocity=95 time=180
note_off channel=1 note=50 velocity=95 time=0
note_on channel=1 note=52 velocity=95 time=0
note_off channel=1 note=52 velocity=95 time=480
note_on channel=0 note=40 velocity=95 time=0
note_off channel=0 note=40 velocity=95 time=240
note_on channel=0 note=40 velocity=95 time=0
note_off channel=0 note=40 velocity=95 time=240
note_on channel=0 note=52 velocity=95 time=0
note_off channel=0 note=52 velocity=95 time=240
note_on channel=0 note=40 velocity=95 time=0
note_off channel=0 note=40 velocity=95 time=240
note_on channel=0 note=40 velocity=95 time=0
note_off channel=0 note=40 velocity=95 time=240
note_on channel=0 note=52 velocity=95 time=0
note_off channel=0 note=52 velocity=95 time=480
note_on channel=0 note=52 velocity=95 time=0
note_off channel=0 note=52 velocity=95 time=240
note_on channel=0 note=52 velocity=95 time=0
note_off channel=0 note=52 velocity=95 time=1440
note_on channel=1 note=62 velocity=95 time=0
pitchwheel channel=1 pitch=640 time=120
pitchwheel channel=1 pitch=1408 time=120
pitchwheel channel=1 pitch=0 time=0
note_off channel=1 note=62 velocity=95 time=0
note_on channel=1 note=64 velocity=95 time=0
pitchwheel channel=1 pitch=0 time=160
pitchwheel channel=1 pitch=128 time=160
pitchwheel channel=1 pitch=0 time=160
pitchwheel channel=1 pitch=128 time=160
pitchwheel channel=1 pitch=0 time=160
pitchwheel channel=1 pitch=128 time=160
pitchwheel channel=1 pitch=0 time=160
pitchwheel channel=1 pitch=128 time=160
pitchwheel channel=1 pitch=0 time=160
pitchwheel channel=1 pitch=128 time=160
pitchwheel channel=1 pitch=0 time=160
pitchwheel channel=1 pitch=128 time=160
pitchwheel channel=1 pitch=0 time=0
note_off channel=1 note=64 velocity=95 time=0
note_on channel=0 note=67 velocity=95 time=0
note_off channel=0 note=67 velocity=95 time=480
note_on channel=0 note=66 velocity=95 time=0
note_off channel=0 note=66 velocity=95 time=240
note_on channel=0 note=67 velocity=95 time=0
note_off channel=0 note=67 velocity=95 time=240
note_on channel=0 note=66 velocity=95 time=0
note_off channel=0 note=66 velocity=95 time=240
note_on channel=0 note=62 velocity=95 time=0
note_off channel=0 note=62 velocity=95 time=480
note_on channel=1 note=62 velocity=95 time=0
pitchwheel channel=1 pitch=640 time=120
pitchwheel channel=1 pitch=1408 time=120
pitchwheel channel=1 pitch=0 time=0
note_off channel=1 note=62 velocity=95 time=0
note_on channel=1 note=64 velocity=95 time=0
pitchwheel channel=1 pitch=0 time=160
pitchwheel channel=1 pitch=128 time=160
pitchwheel channel=1 pitch=0 time=160
pitchwheel channel=1 pitch=128 time=160
pitchwheel channel=1 pitch=0 time=160
pitchwheel channel=1 pitch=128 time=160
pitchwheel channel=1 pitch=0 time=160
pitchwheel channel=1 pitch=128 time=160
pitchwheel channel=1 pitch=0 time=160
pitchwheel channel=1 pitch=128 time=160
pitchwheel channel=1 pitch=0 time=160
pitchwheel channel=1 pitch=128 time=160
pitchwheel channel=1 pitch=0 time=0
note_off channel=1 note=64 velocity=95 time=0
note_on channel=0 note=67 velocity=95 time=0
note_off channel=0 note=67 velocity=95 time=480
note_on channel=0 note=66 velocity=95 time=0
note_off channel=0 note=66 velocity=95 time=240
note_on channel=0 note=67 velocity=95 time=0
note_off channel=0 note=67 velocity=95 time=240
note_on channel=0 note=66 velocity=95 time=0
note_off channel=0 note=66 velocity=95 time=240
note_on channel=0 note=69 velocity=95 time=0
note_off channel=0 note=69 velocity=95 time=480
note_on channel=0 note=67 velocity=95 time=0
note_off channel=0 note=67 velocity=95 time=960
note_on channel=0 note=67 velocity=95 time=0
note_off channel=0 note=67 velocity=95 time=480
note_on channel=0 note=67 velocity=95 time=0
note_off channel=0 note=67 velocity=95 time=240
note_on channel=0 note=67 velocity=95 time=0
note_off channel=0 note=67 velocity=95 time=480
note_on channel=0 note=67 velocity=95 time=0
note_off channel=0 note=67 velocity=95 time=480
note_on channel=0 note=66 velocity=95 time=0
note_off channel=0 note=66 velocity=95 time=240
note_on channel=0 note=67 velocity=95 time=0
note_off channel=0 note=67 velocity=95 time=240
note_on channel=0 note=66 velocity=95 time=0
note_off channel=0 note=66 velocity=95 time=240
note_on channel=0 note=62 velocity=95 time=0
note_off channel=0 note=62 velocity=95 time=480
note_on channel=1 note=62 velocity=95 time=0
pitchwheel channel=1 pitch=640 time=120
pitchwheel channel=1 pitch=1408 time=120
pitchwheel channel=1 pitch=0 time=0
note_off channel=1 note=62 velocity=95 time=0
note_on channel=1 note=64 velocity=95 time=0
pitchwheel channel=1 pitch=0 time=160
pitchwheel channel=1 pitch=128 time=160
pitchwheel channel=1 pitch=0 time=160
pitchwheel channel=1 pitch=128 time=160
pitchwheel channel=1 pitch=0 time=160
pitchwheel channel=1 pitch=128 time=160
pitchwheel channel=1 pitch=0 time=160
pitchwheel channel=1 pitch=128 time=160
pitchwheel channel=1 pitch=0 time=160
pitchwheel channel=1 pitch=128 time=160
pitchwheel channel=1 pitch=0 time=160
pitchwheel channel=1 pitch=128 time=160
pitchwheel channel=1 pitch=0 time=160
pitchwheel channel=1 pitch=128 time=160
pitchwheel channel=1 pitch=0 time=160
pitchwheel channel=1 pitch=128 time=160
pitchwheel channel=1 pitch=0 time=160
pitchwheel channel=1 pitch=128 time=160
pitchwheel channel=1 pitch=0 time=160
pitchwheel channel=1 pitch=128 time=160
pitchwheel channel=1 pitch=0 time=160
pitchwheel channel=1 pitch=128 time=160
pitchwheel channel=1 pitch=0 time=80
pitchwheel channel=1 pitch=128 time=0
pitchwheel channel=1 pitch=0 time=0
note_off channel=1 note=64 velocity=95 time=0
note_on channel=0 note=50 velocity=95 time=0
note_off channel=0 note=50 velocity=95 time=240
note_on channel=0 note=52 velocity=70 time=0
note_off channel=0 note=52 velocity=70 time=240
note_on channel=0 note=40 velocity=95 time=0
note_off channel=0 note=40 velocity=95 time=240
note_on channel=0 note=40 velocity=95 time=0
note_off channel=0 note=40 velocity=95 time=240
note_on channel=0 note=40 velocity=95 time=0
note_off channel=0 note=40 velocity=95 time=240
note_on channel=0 note=40 velocity=95 time=0
note_off channel=0 note=40 velocity=95 time=240
note_on channel=0 note=40 velocity=95 time=0
note_off channel=0 note=40 velocity=95 time=240
note_on channel=0 note=48 velocity=95 time=0
note_off channel=0 note=48 velocity=95 time=240
note_on channel=0 note=40 velocity=95 time=0
note_off channel=0 note=40 velocity=95 time=240
note_on channel=0 note=47 velocity=95 time=0
note_off channel=0 note=47 velocity=95 time=240
note_on channel=0 note=40 velocity=95 time=0
note_off channel=0 note=40 velocity=95 time=240
note_on channel=0 note=40 velocity=95 time=0
note_off channel=0 note=40 velocity=95 time=240
note_on channel=0 note=47 velocity=95 time=0
note_off channel=0 note=47 velocity=95 time=240
note_on channel=0 note=40 velocity=95 time=0
note_off channel=0 note=40 velocity=95 time=240
note_on channel=0 note=48 velocity=95 time=0
note_off channel=0 note=48 velocity=95 time=240
note_on channel=0 note=40 velocity=95 time=0
note_off channel=0 note=40 velocity=95 time=240
note_on channel=0 note=50 velocity=95 time=0
note_off channel=0 note=50 velocity=95 time=240
note_on channel=0 note=52 velocity=70 time=0
note_off channel=0 note=52 velocity=70 time=240
note_on channel=0 note=40 velocity=95 time=0
note_off channel=0 note=40 velocity=95 time=240
note_on channel=0 note=40 velocity=95 time=0
note_off channel=0 note=40 velocity=95 time=240
note_on channel=0 note=40 velocity=95 time=0
note_off channel=0 note=40 velocity=95 time=240
note_on channel=0 note=40 velocity=95 time=0
note_off channel=0 note=40 velocity=95 time=240
note_on channel=0 note=40 velocity=95 time=0
note_off channel=0 note=40 velocity=95 time=240
note_on channel=0 note=48 velocity=95 time=0
note_off channel=0 note=48 velocity=95 time=240
note_on channel=0 note=40 velocity=95 time=0
note_off channel=0 note=40 velocity=95 time=240
note_on channel=0 note=47 velocity=95 time=0
note_off channel=0 note=47 velocity=95 time=240
note_on channel=0 note=40 velocity=95 time=0
note_off channel=0 note=40 velocity=95 time=240
note_on channel=0 note=40 velocity=95 time=0
note_off channel=0 note=40 velocity=95 time=240
note_on channel=0 note=47 velocity=95 time=0
note_off channel=0 note=47 velocity=95 time=240
note_on channel=0 note=48 velocity=70 time=0
note_off channel=0 note=48 velocity=70 time=240
note_on channel=0 note=47 velocity=70 time=0
note_off channel=0 note=47 velocity=70 time=240
note_on channel=0 note=45 velocity=70 time=0
note_off channel=0 note=45 velocity=70 time=240
note_on channel=0 note=50 velocity=95 time=0
note_off channel=0 note=50 velocity=95 time=240
note_on channel=0 note=52 velocity=70 time=0
note_off channel=0 note=52 velocity=70 time=240
note_on channel=0 note=40 velocity=95 time=0
note_off channel=0 note=40 velocity=95 time=240
note_on channel=0 note=40 velocity=95 time=0
note_off channel=0 note=40 velocity=95 time=240
note_on channel=0 note=40 velocity=95 time=0
note_off channel=0 note=40 velocity=95 time=240
note_on channel=0 note=40 velocity=95 time=0
note_off channel=0 note=40 velocity=95 time=240
note_on channel=0 note=40 velocity=95 time=0
note_off channel=0 note=40 velocity=95 time=240
note_on channel=0 note=48 velocity=95 time=0
note_off channel=0 note=48 velocity=95 time=240
note_on channel=0 note=40 velocity=95 time=0
note_off channel=0 note=40 velocity=95 time=240
note_on channel=0 note=47 velocity=95 time=0
note_off channel=0 note=47 velocity=95 time=240
note_on channel=0 note=40 velocity=95 time=0
note_off channel=0 note=40 velocity=95 time=240
note_on channel=0 note=40 velocity=95 time=0
note_off channel=0 note=40 velocity=95 time=240
note_on channel=0 note=47 velocity=95 time=0
note_off channel=0 note=47 velocity=95 time=240
note_on channel=0 note=40 velocity=95 time=0
note_off channel=0 note=40 velocity=95 time=240
note_on channel=0 note=48 velocity=95 time=0
note_off channel=0 note=48 velocity=95 time=240
note_on channel=0 note=40 velocity=95 time=0
note_off channel=0 note=40 velocity=95 time=240
note_on channel=0 note=50 velocity=95 time=0
note_off channel=0 note=50 velocity=95 time=240
note_on channel=0 note=52 velocity=70 time=0
note_off channel=0 note=52 velocity=70 time=240
note_on channel=0 note=40 velocity=95 time=0
note_off channel=0 note=40 velocity=95 time=240
note_on channel=0 note=40 velocity=95 time=0
note_off channel=0 note=40 velocity=95 time=240
note_on channel=0 note=40 velocity=95 time=0
note_off channel=0 note=40 velocity=95 time=240
note_on channel=0 note=40 velocity=95 time=0
note_off channel=0 note=40 velocity=95 time=240
note_on channel=0 note=40 velocity=95 time=0
note_off channel=0 note=40 velocity=95 time=240
note_on channel=0 note=48 velocity=95 time=0
note_off channel=0 note=48 velocity=95 time=240
note_on channel=0 note=40 velocity=95 time=0
note_off channel=0 note=40 velocity=95 time=240
note_on channel=0 note=47 velocity=95 time=0
note_off channel=0 note=47 velocity=95 time=240
note_on channel=0 note=40 velocity=95 time=0
note_off channel=0 note=40 velocity=95 time=240
note_on channel=0 note=40 velocity=95 time=0
note_off channel=0 note=40 velocity=95 time=240
note_on channel=0 note=47 velocity=95 time=0
note_off channel=0 note=47 velocity=95 time=240
note_on channel=0 note=48 velocity=70 time=0
note_off channel=0 note=48 velocity=70 time=240
note_on channel=0 note=47 velocity=70 time=0
note_off channel=0 note=47 velocity=70 time=240
note_on channel=0 note=45 velocity=70 time=0
note_off channel=0 note=45 velocity=70 time=240
note_on channel=0 note=64 velocity=95 time=0
note_on channel=0 note=59 velocity=95 time=0
note_on channel=0 note=52 velocity=95 time=0
note_off channel=0 note=64 velocity=95 time=720
note_off channel=0 note=59 velocity=95 time=0
note_off channel=0 note=52 velocity=95 time=0
note_on channel=0 note=64 velocity=95 time=0
note_on channel=0 note=59 velocity=95 time=0
note_on channel=0 note=52 velocity=95 time=0
note_off channel=0 note=64 velocity=95 time=240
note_off channel=0 note=59 velocity=95 time=0
note_off channel=0 note=52 velocity=95 time=0
note_on channel=0 note=64 velocity=95 time=0
note_on channel=0 note=59 velocity=95 time=0
note_on channel=0 note=52 velocity=95 time=0
note_off channel=0 note=64 velocity=95 time=240
note_off channel=0 note=59 velocity=95 time=0
note_off channel=0 note=52 velocity=95 time=0
note_on channel=0 note=64 velocity=95 time=0
note_on channel=0 note=59 velocity=95 time=0
note_on channel=0 note=52 velocity=95 time=0
note_off channel=0 note=64 velocity=95 time=240
note_off channel=0 note=59 velocity=95 time=0
note_off channel=0 note=52 velocity=95 time=0
note_on channel=0 note=64 velocity=95 time=0
note_on channel=0 note=59 velocity=95 time=0
note_on channel=0 note=52 velocity=95 time=0
note_off channel=0 note=64 velocity=95 time=240
note_off channel=0 note=59 velocity=95 time=0
note_off channel=0 note=52 velocity=95 time=0
note_on channel=0 note=67 velocity=95 time=0
note_on channel=0 note=62 velocity=95 time=0
note_on channel=0 note=55 velocity=95 time=0
note_off channel=0 note=67 velocity=95 time=480
note_off channel=0 note=62 velocity=95 time=0
note_off channel=0 note=55 velocity=95 time=0
note_on channel=0 note=67 velocity=95 time=0
note_on channel=0 note=62 velocity=95 time=0
note_on channel=0 note=55 velocity=95 time=0
note_off channel=0 note=67 velocity=95 time=480
note_off channel=0 note=62 velocity=95 time=0
note_off channel=0 note=55 velocity=95 time=0
note_on channel=0 note=66 velocity=95 time=0
note_on channel=0 note=61 velocity=95 time=0
note_on channel=0 note=54 velocity=95 time=0
note_off channel=0 note=66 velocity=95 time=480
note_off channel=0 note=61 velocity=95 time=0
note_off channel=0 note=54 velocity=95 time=0
note_on channel=0 note=66 velocity=95 time=0
note_on channel=0 note=61 velocity=95 time=0
note_on channel=0 note=54 velocity=95 time=0
note_off channel=0 note=66 velocity=95 time=240
note_off channel=0 note=61 velocity=95 time=0
note_off channel=0 note=54 velocity=95 time=0
note_on channel=0 note=64 velocity=95 time=0
note_on channel=0 note=59 velocity=95 time=0
note_on channel=0 note=52 velocity=95 time=0
note_off channel=0 note=64 velocity=95 time=480
note_off channel=0 note=59 velocity=95 time=0
note_off channel=0 note=52 velocity=95 time=0
note_on channel=0 note=60 velocity=95 time=0
note_on channel=0 note=55 velocity=95 time=0
note_on channel=0 note=48 velocity=95 time=0
note_off channel=0 note=60 velocity=95 time=720
note_off channel=0 note=55 velocity=95 time=0
note_off channel=0 note=48 velocity=95 time=0
note_on channel=0 note=60 velocity=95 time=0
note_on channel=0 note=55 velocity=95 time=0
note_on channel=0 note=48 velocity=95 time=0
note_off channel=0 note=60 velocity=95 time=240
note_off channel=0 note=55 velocity=95 time=0
note_off channel=0 note=48 velocity=95 time=0
note_on channel=0 note=60 velocity=95 time=0
note_on channel=0 note=55 velocity=95 time=0
note_on channel=0 note=48 velocity=95 time=0
note_off channel=0 note=60 velocity=95 time=480
note_off channel=0 note=55 velocity=95 time=0
note_off channel=0 note=48 velocity=95 time=0
note_on channel=0 note=59 velocity=95 time=0
note_on channel=0 note=54 velocity=95 time=0
note_on channel=0 note=47 velocity=95 time=0
note_off channel=0 note=59 velocity=95 time=240
note_off channel=0 note=54 velocity=95 time=0
note_off channel=0 note=47 velocity=95 time=0
note_on channel=0 note=59 velocity=95 time=0
note_on channel=0 note=54 velocity=95 time=0
note_on channel=0 note=47 velocity=95 time=0
note_off channel=0 note=59 velocity=95 time=480
note_off channel=0 note=54 velocity=95 time=0
note_off channel=0 note=47 velocity=95 time=0
note_on channel=0 note=59 velocity=95 time=0
note_on channel=0 note=54 velocity=95 time=0
note_on channel=0 note=47 velocity=95 time=0
note_off channel=0 note=59 velocity=95 time=480
note_off channel=0 note=54 velocity=95 time=0
note_off channel=0 note=47 velocity=95 time=0
note_on channel=0 note=60 velocity=95 time=0
note_on channel=0 note=55 velocity=95 time=0
note_on channel=0 note=48 velocity=95 time=0
note_off channel=0 note=60 velocity=95 time=480
note_off channel=0 note=55 velocity=95 time=0
note_off channel=0 note=48 velocity=95 time=0
note_on channel=0 note=60 velocity=95 time=0
note_on channel=0 note=55 velocity=95 time=0
note_on channel=0 note=48 velocity=95 time=0
note_off channel=0 note=60 velocity=95 time=240
note_off channel=0 note=55 velocity=95 time=0
note_off channel=0 note=48 velocity=95 time=0
note_on channel=0 note=62 velocity=95 time=0
note_on channel=0 note=57 velocity=95 time=0
note_on channel=0 note=50 velocity=95 time=0
note_off channel=0 note=62 velocity=95 time=480
note_off channel=0 note=57 velocity=95 time=0
note_off channel=0 note=50 velocity=95 time=0
note_on channel=0 note=64 velocity=95 time=0
note_on channel=0 note=59 velocity=95 time=0
note_on channel=0 note=52 velocity=95 time=0
note_off channel=0 note=64 velocity=95 time=720
note_off channel=0 note=59 velocity=95 time=0
note_off channel=0 note=52 velocity=95 time=0
note_on channel=0 note=64 velocity=95 time=0
note_on channel=0 note=59 velocity=95 time=0
note_on channel=0 note=52 velocity=95 time=0
note_off channel=0 note=64 velocity=95 time=240
note_off channel=0 note=59 velocity=95 time=0
note_off channel=0 note=52 velocity=95 time=0
note_on channel=0 note=64 velocity=95 time=0
note_on channel=0 note=59 velocity=95 time=0
note_on channel=0 note=52 velocity=95 time=0
note_off channel=0 note=64 velocity=95 time=240
note_off channel=0 note=59 velocity=95 time=0
note_off channel=0 note=52 velocity=95 time=0
note_on channel=0 note=64 velocity=95 time=0
note_on channel=0 note=59 velocity=95 time=0
note_on channel=0 note=52 velocity=95 time=0
note_off channel=0 note=64 velocity=95 time=240
note_off channel=0 note=59 velocity=95 time=0
note_off channel=0 note=52 velocity=95 time=0
note_on channel=0 note=64 velocity=95 time=0
note_on channel=0 note=59 velocity=95 time=0
note_on channel=0 note=52 velocity=95 time=0
note_off channel=0 note=64 velocity=95 time=240
note_off channel=0 note=59 velocity=95 time=0
note_off channel=0 note=52 velocity=95 time=0
note_on channel=0 note=67 velocity=95 time=0
note_on channel=0 note=62 velocity=95 time=0
note_on channel=0 note=55 velocity=95 time=0
note_off channel=0 note=67 velocity=95 time=480
note_off channel=0 note=62 velocity=95 time=0
note_off channel=0 note=55 velocity=95 time=0
note_on channel=0 note=67 velocity=95 time=0
note_on channel=0 note=62 velocity=95 time=0
note_on channel=0 note=55 velocity=95 time=0
note_off channel=0 note=67 velocity=95 time=480
note_off channel=0 note=62 velocity=95 time=0
note_off channel=0 note=55 velocity=95 time=0
note_on channel=0 note=66 velocity=95 time=0
note_on channel=0 note=61 velocity=95 time=0
note_on channel=0 note=54 velocity=95 time=0
note_off channel=0 note=66 velocity=95 time=480
note_off channel=0 note=61 velocity=95 time=0
note_off channel=0 note=54 velocity=95 time=0
note_on channel=0 note=66 velocity=95 time=0
note_on channel=0 note=61 velocity=95 time=0
note_on channel=0 note=54 velocity=95 time=0
note_off channel=0 note=66 velocity=95 time=240
note_off channel=0 note=61 velocity=95 time=0
note_off channel=0 note=54 velocity=95 time=0
note_on channel=0 note=69 velocity=95 time=0
note_on channel=0 note=64 velocity=95 time=0
note_on channel=0 note=57 velocity=95 time=0
note_off channel=0 note=69 velocity=95 time=480
note_off channel=0 note=64 velocity=95 time=0
note_off channel=0 note=57 velocity=95 time=0
note_on channel=0 note=60 velocity=95 time=0
note_on channel=0 note=55 velocity=95 time=0
note_on channel=0 note=48 velocity=95 time=0
note_off channel=0 note=60 velocity=95 time=720
note_off channel=0 note=55 velocity=95 time=0
note_off channel=0 note=48 velocity=95 time=0
note_on channel=0 note=60 velocity=95 time=0
note_on channel=0 note=55 velocity=95 time=0
note_on channel=0 note=48 velocity=95 time=0
note_off channel=0 note=60 velocity=95 time=240
note_off channel=0 note=55 velocity=95 time=0
note_off channel=0 note=48 velocity=95 time=0
note_on channel=0 note=60 velocity=95 time=0
note_on channel=0 note=55 velocity=95 time=0
note_on channel=0 note=48 velocity=95 time=0
note_off channel=0 note=60 velocity=95 time=480
note_off channel=0 note=55 velocity=95 time=0
note_off channel=0 note=48 velocity=95 time=0
note_on channel=0 note=59 velocity=95 time=0
note_on channel=0 note=54 velocity=95 time=0
note_on channel=0 note=47 velocity=95 time=0
note_off channel=0 note=59 velocity=95 time=240
note_off channel=0 note=54 velocity=95 time=0
note_off channel=0 note=47 velocity=95 time=0
note_on channel=0 note=59 velocity=95 time=0
note_on channel=0 note=54 velocity=95 time=0
note_on channel=0 note=47 velocity=95 time=0
note_off channel=0 note=59 velocity=95 time=480
note_off channel=0 note=54 velocity=95 time=0
note_off channel=0 note=47 velocity=95 time=0
note_on channel=0 note=59 velocity=95 time=0
note_on channel=0 note=54 velocity=95 time=0
note_on channel=0 note=47 velocity=95 time=0
note_off channel=0 note=59 velocity=95 time=480
note_off channel=0 note=54 velocity=95 time=0
note_off channel=0 note=47 velocity=95 time=0
note_on channel=0 note=60 velocity=95 time=0
note_on channel=0 note=55 velocity=95 time=0
note_on channel=0 note=48 velocity=95 time=0
note_off channel=0 note=60 velocity=95 time=480
note_off channel=0 note=55 velocity=95 time=0
note_off channel=0 note=48 velocity=95 time=0
note_on channel=0 note=60 velocity=95 time=0
note_on channel=0 note=55 velocity=95 time=0
note_on channel=0 note=48 velocity=95 time=0
note_off channel=0 note=60 velocity=95 time=240
note_off channel=0 note=55 velocity=95 time=0
note_off channel=0 note=48 velocity=95 time=0
note_on channel=0 note=62 velocity=95 time=0
note_on channel=0 note=57 velocity=95 time=0
note_on channel=0 note=50 velocity=95 time=0
note_off channel=0 note=62 velocity=95 time=480
note_off channel=0 note=57 velocity=95 time=0
note_off channel=0 note=50 velocity=95 time=0
note_on channel=0 note=64 velocity=95 time=0
note_on channel=0 note=59 velocity=95 time=0
note_on channel=0 note=52 velocity=95 time=0
note_off channel=0 note=64 velocity=95 time=720
note_off channel=0 note=59 velocity=95 time=0
note_off channel=0 note=52 velocity=95 time=0
note_on channel=0 note=64 velocity=95 time=0
note_on channel=0 note=59 velocity=95 time=0
note_on channel=0 note=52 velocity=95 time=0
note_off channel=0 note=64 velocity=95 time=240
note_off channel=0 note=59 velocity=95 time=0
note_off channel=0 note=52 velocity=95 time=0
note_on channel=0 note=64 velocity=95 time=0
note_on channel=0 note=59 velocity=95 time=0
note_on channel=0 note=52 velocity=95 time=0
note_off channel=0 note=64 velocity=95 time=240
note_off channel=0 note=59 velocity=95 time=0
note_off channel=0 note=52 velocity=95 time=0
note_on channel=0 note=64 velocity=95 time=0
note_on channel=0 note=59 velocity=95 time=0
note_on channel=0 note=52 velocity=95 time=0
note_off channel=0 note=64 velocity=95 time=240
note_off channel=0 note=59 velocity=95 time=0
note_off channel=0 note=52 velocity=95 time=0
note_on channel=0 note=64 velocity=95 time=0
note_on channel=0 note=59 velocity=95 time=0
note_on channel=0 note=52 velocity=95 time=0
note_off channel=0 note=64 velocity=95 time=240
note_off channel=0 note=59 velocity=95 time=0
note_off channel=0 note=52 velocity=95 time=0
note_on channel=0 note=67 velocity=95 time=0
note_on channel=0 note=62 velocity=95 time=0
note_on channel=0 note=55 velocity=95 time=0
note_off channel=0 note=67 velocity=95 time=480
note_off channel=0 note=62 velocity=95 time=0
note_off channel=0 note=55 velocity=95 time=0
note_on channel=0 note=67 velocity=95 time=0
note_on channel=0 note=62 velocity=95 time=0
note_on channel=0 note=55 velocity=95 time=0
note_off channel=0 note=67 velocity=95 time=480
note_off channel=0 note=62 velocity=95 time=0
note_off channel=0 note=55 velocity=95 time=0
note_on channel=0 note=66 velocity=95 time=0
note_on channel=0 note=61 velocity=95 time=0
note_on channel=0 note=54 velocity=95 time=0
note_off channel=0 note=66 velocity=95 time=480
note_off channel=0 note=61 velocity=95 time=0
note_off channel=0 note=54 velocity=95 time=0
note_on channel=0 note=66 velocity=95 time=0
note_on channel=0 note=61 velocity=95 time=0
note_on channel=0 note=54 velocity=95 time=0
note_off channel=0 note=66 velocity=95 time=240
note_off channel=0 note=61 velocity=95 time=0
note_off channel=0 note=54 velocity=95 time=0
note_on channel=0 note=64 velocity=95 time=0
note_on channel=0 note=59 velocity=95 time=0
note_on channel=0 note=52 velocity=95 time=0
note_off channel=0 note=64 velocity=95 time=480
note_off channel=0 note=59 velocity=95 time=0
note_off channel=0 note=52 velocity=95 time=0
note_on channel=0 note=60 velocity=95 time=0
note_on channel=0 note=55 velocity=95 time=0
note_on channel=0 note=48 velocity=95 time=0
note_off channel=0 note=60 velocity=95 time=720
note_off channel=0 note=55 velocity=95 time=0
note_off channel=0 note=48 velocity=95 time=0
note_on channel=0 note=60 velocity=95 time=0
note_on channel=0 note=55 velocity=95 time=0
note_on channel=0 note=48 velocity=95 time=0
note_off channel=0 note=60 velocity=95 time=240
note_off channel=0 note=55 velocity=95 time=0
note_off channel=0 note=48 velocity=95 time=0
note_on channel=0 note=60 velocity=95 time=0
note_on channel=0 note=55 velocity=95 time=0
note_on channel=0 note=48 velocity=95 time=0
note_off channel=0 note=60 velocity=95 time=480
note_off channel=0 note=55 velocity=95 time=0
note_off channel=0 note=48 velocity=95 time=0
note_on channel=0 note=59 velocity=95 time=0
note_on channel=0 note=54 velocity=95 time=0
note_on channel=0 note=47 velocity=95 time=0
note_off channel=0 note=59 velocity=95 time=240
note_off channel=0 note=54 velocity=95 time=0
note_off channel=0 note=47 velocity=95 time=0
note_on channel=0 note=59 velocity=95 time=0
note_on channel=0 note=54 velocity=95 time=0
note_on channel=0 note=47 velocity=95 time=0
note_off channel=0 note=59 velocity=95 time=480
note_off channel=0 note=54 velocity=95 time=0
note_off channel=0 note=47 velocity=95 time=0
note_on channel=0 note=59 velocity=95 time=0
note_on channel=0 note=54 velocity=95 time=0
note_on channel=0 note=47 velocity=95 time=0
note_off channel=0 note=59 velocity=95 time=480
note_off channel=0 note=54 velocity=95 time=0
note_off channel=0 note=47 velocity=95 time=0
note_on channel=0 note=60 velocity=95 time=0
note_on channel=0 note=55 velocity=95 time=0
note_on channel=0 note=48 velocity=95 time=0
note_off channel=0 note=60 velocity=95 time=480
note_off channel=0 note=55 velocity=95 time=0
note_off channel=0 note=48 velocity=95 time=0
note_on channel=0 note=60 velocity=95 time=0
note_on channel=0 note=55 velocity=95 time=0
note_on channel=0 note=48 velocity=95 time=0
note_off channel=0 note=60 velocity=95 time=240
note_off channel=0 note=55 velocity=95 time=0
note_off channel=0 note=48 velocity=95 time=0
note_on channel=0 note=62 velocity=95 time=0
note_on channel=0 note=57 velocity=95 time=0
note_on channel=0 note=50 velocity=95 time=0
note_off channel=0 note=62 velocity=95 time=480
note_off channel=0 note=57 velocity=95 time=0
note_off channel=0 note=50 velocity=95 time=0
note_on channel=0 note=64 velocity=95 time=0
note_on channel=0 note=59 velocity=95 time=0
note_on channel=0 note=52 velocity=95 time=0
note_off channel=0 note=64 velocity=95 time=720
note_off channel=0 note=59 velocity=95 time=0
note_off channel=0 note=52 velocity=95 time=0
note_on channel=0 note=64 velocity=95 time=0
note_on channel=0 note=59 velocity=95 time=0
note_on channel=0 note=52 velocity=95 time=0
note_off channel=0 note=64 velocity=95 time=240
note_off channel=0 note=59 velocity=95 time=0
note_off channel=0 note=52 velocity=95 time=0
note_on channel=0 note=64 velocity=95 time=0
note_on channel=0 note=59 velocity=95 time=0
note_on channel=0 note=52 velocity=95 time=0
note_off channel=0 note=64 velocity=95 time=240
note_off channel=0 note=59 velocity=95 time=0
note_off channel=0 note=52 velocity=95 time=0
note_on channel=0 note=64 velocity=95 time=0
note_on channel=0 note=59 velocity=95 time=0
note_on channel=0 note=52 velocity=95 time=0
note_off channel=0 note=64 velocity=95 time=240
note_off channel=0 note=59 velocity=95 time=0
note_off channel=0 note=52 velocity=95 time=0
note_on channel=0 note=64 velocity=95 time=0
note_on channel=0 note=59 velocity=95 time=0
note_on channel=0 note=52 velocity=95 time=0
note_off channel=0 note=64 velocity=95 time=240
note_off channel=0 note=59 velocity=95 time=0
note_off channel=0 note=52 velocity=95 time=0
note_on channel=0 note=67 velocity=95 time=0
note_on channel=0 note=62 velocity=95 time=0
note_on channel=0 note=55 velocity=95 time=0
note_off channel=0 note=67 velocity=95 time=480
note_off channel=0 note=62 velocity=95 time=0
note_off channel=0 note=55 velocity=95 time=0
note_on channel=0 note=67 velocity=95 time=0
note_on channel=0 note=62 velocity=95 time=0
note_on channel=0 note=55 velocity=95 time=0
note_off channel=0 note=67 velocity=95 time=480
note_off channel=0 note=62 velocity=95 time=0
note_off channel=0 note=55 velocity=95 time=0
note_on channel=0 note=66 velocity=95 time=0
note_on channel=0 note=61 velocity=95 time=0
note_on channel=0 note=54 velocity=95 time=0
note_off channel=0 note=66 velocity=95 time=480
note_off channel=0 note=61 velocity=95 time=0
note_off channel=0 note=54 velocity=95 time=0
note_on channel=0 note=66 velocity=95 time=0
note_on channel=0 note=61 velocity=95 time=0
note_on channel=0 note=54 velocity=95 time=0
note_off channel=0 note=66 velocity=95 time=240
note_off channel=0 note=61 velocity=95 time=0
note_off channel=0 note=54 velocity=95 time=0
note_on channel=0 note=69 velocity=95 time=0
note_on channel=0 note=64 velocity=95 time=0
note_on channel=0 note=57 velocity=95 time=0
note_off channel=0 note=69 velocity=95 time=480
note_off channel=0 note=64 velocity=95 time=0
note_off channel=0 note=57 velocity=95 time=0
note_on channel=0 note=60 velocity=95 time=0
note_on channel=0 note=55 velocity=95 time=0
note_on channel=0 note=48 velocity=95 time=0
note_off channel=0 note=60 velocity=95 time=720
note_off channel=0 note=55 velocity=95 time=0
note_off channel=0 note=48 velocity=95 time=0
note_on channel=0 note=60 velocity=95 time=0
note_on channel=0 note=55 velocity=95 time=0
note_on channel=0 note=48 velocity=95 time=0
note_off channel=0 note=60 velocity=95 time=240
note_off channel=0 note=55 velocity=95 time=0
note_off channel=0 note=48 velocity=95 time=0
note_on channel=0 note=60 velocity=95 time=0
note_on channel=0 note=55 velocity=95 time=0
note_on channel=0 note=48 velocity=95 time=0
note_off channel=0 note=60 velocity=95 time=480
note_off channel=0 note=55 velocity=95 time=0
note_off channel=0 note=48 velocity=95 time=0
note_on channel=0 note=59 velocity=95 time=0
note_on channel=0 note=54 velocity=95 time=0
note_on channel=0 note=47 velocity=95 time=0
note_off channel=0 note=59 velocity=95 time=240
note_off channel=0 note=54 velocity=95 time=0
note_off channel=0 note=47 velocity=95 time=0
note_on channel=0 note=59 velocity=95 time=0
note_on channel=0 note=54 velocity=95 time=0
note_on channel=0 note=47 velocity=95 time=0
note_off channel=0 note=59 velocity=95 time=480
note_off channel=0 note=54 velocity=95 time=0
note_off channel=0 note=47 velocity=95 time=0
note_on channel=0 note=59 velocity=95 time=0
note_on channel=0 note=54 velocity=95 time=0
note_on channel=0 note=47 velocity=95 time=0
note_off channel=0 note=59 velocity=95 time=480
note_off channel=0 note=54 velocity=95 time=0
note_off channel=0 note=47 velocity=95 time=0
note_on channel=0 note=60 velocity=95 time=0
note_on channel=0 note=55 velocity=95 time=0
note_on channel=0 note=48 velocity=95 time=0
note_off channel=0 note=60 velocity=95 time=480
note_off channel=0 note=55 velocity=95 time=0
note_off channel=0 note=48 velocity=95 time=0
note_on channel=0 note=60 velocity=95 time=0
note_on channel=0 note=55 velocity=95 time=0
note_on channel=0 note=48 velocity=95 time=0
note_off channel=0 note=60 velocity=95 time=240
note_off channel=0 note=55 velocity=95 time=0
note_off channel=0 note=48 velocity=95 time=0
note_on channel=0 note=62 velocity=95 time=0
note_on channel=0 note=57 velocity=95 time=0
note_on channel=0 note=50 velocity=95 time=0
note_off channel=0 note=62 velocity=95 time=480
note_off channel=0 note=57 velocity=95 time=0
note_off channel=0 note=50 velocity=95 time=0
note_on channel=0 note=64 velocity=95 time=0
note_on channel=0 note=59 velocity=95 time=0
note_on channel=0 note=52 velocity=95 time=0
note_off channel=0 note=64 velocity=95 time=720
note_off channel=0 note=59 velocity=95 time=0
note_off channel=0 note=52 velocity=95 time=0
note_on channel=0 note=64 velocity=95 time=0
note_on channel=0 note=59 velocity=95 time=0
note_on channel=0 note=52 velocity=95 time=0
note_off channel=0 note=64 velocity=95 time=240
note_off channel=0 note=59 velocity=95 time=0
note_off channel=0 note=52 velocity=95 time=0
note_on channel=0 note=64 velocity=95 time=0
note_on channel=0 note=59 velocity=95 time=0
note_on channel=0 note=52 velocity=95 time=0
note_off channel=0 note=64 velocity=95 time=240
note_off channel=0 note=59 velocity=95 time=0
note_off channel=0 note=52 velocity=95 time=0
note_on channel=0 note=64 velocity=95 time=0
note_on channel=0 note=59 velocity=95 time=0
note_on channel=0 note=52 velocity=95 time=0
note_off channel=0 note=64 velocity=95 time=240
note_off channel=0 note=59 velocity=95 time=0
note_off channel=0 note=52 velocity=95 time=0
note_on channel=0 note=64 velocity=95 time=0
note_on channel=0 note=59 velocity=95 time=0
note_on channel=0 note=52 velocity=95 time=0
note_off channel=0 note=64 velocity=95 time=240
note_off channel=0 note=59 velocity=95 time=0
note_off channel=0 note=52 velocity=95 time=0
note_on channel=0 note=67 velocity=95 time=0
note_on channel=0 note=62 velocity=95 time=0
note_on channel=0 note=55 velocity=95 time=0
note_off channel=0 note=67 velocity=95 time=480
note_off channel=0 note=62 velocity=95 time=0
note_off channel=0 note=55 velocity=95 time=0
note_on channel=0 note=67 velocity=95 time=0
note_on channel=0 note=62 velocity=95 time=0
note_on channel=0 note=55 velocity=95 time=0
note_off channel=0 note=67 velocity=95 time=480
note_off channel=0 note=62 velocity=95 time=0
note_off channel=0 note=55 velocity=95 time=0
note_on channel=0 note=66 velocity=95 time=0
note_on channel=0 note=61 velocity=95 time=0
note_on channel=0 note=54 velocity=95 time=0
note_off channel=0 note=66 velocity=95 time=480
note_off channel=0 note=61 velocity=95 time=0
note_off channel=0 note=54 velocity=95 time=0
note_on channel=0 note=66 velocity=95 time=0
note_on channel=0 note=61 velocity=95 time=0
note_on channel=0 note=54 velocity=95 time=0
note_off channel=0 note=66 velocity=95 time=240
note_off channel=0 note=61 velocity=95 time=0
note_off channel=0 note=54 velocity=95 time=0
note_on channel=0 note=64 velocity=95 time=0
note_on channel=0 note=59 velocity=95 time=0
note_on channel=0 note=52 velocity=95 time=0
note_off channel=0 note=64 velocity=95 time=480
note_off channel=0 note=59 velocity=95 time=0
note_off channel=0 note=52 velocity=95 time=0
note_on channel=0 note=60 velocity=95 time=0
note_on channel=0 note=55 velocity=95 time=0
note_on channel=0 note=48 velocity=95 time=0
note_off channel=0 note=60 velocity=95 time=720
note_off channel=0 note=55 velocity=95 time=0
note_off channel=0 note=48 velocity=95 time=0
note_on channel=0 note=60 velocity=95 time=0
note_on channel=0 note=55 velocity=95 time=0
note_on channel=0 note=48 velocity=95 time=0
note_off channel=0 note=60 velocity=95 time=240
note_off channel=0 note=55 velocity=95 time=0
note_off channel=0 note=48 velocity=95 time=0
note_on channel=0 note=60 velocity=95 time=0
note_on channel=0 note=55 velocity=95 time=0
note_on channel=0 note=48 velocity=95 time=0
note_off channel=0 note=60 velocity=95 time=480
note_off channel=0 note=55 velocity=95 time=0
note_off channel=0 note=48 velocity=95 time=0
note_on channel=0 note=59 velocity=95 time=0
note_on channel=0 note=54 velocity=95 time=0
note_on channel=0 note=47 velocity=95 time=0
note_off channel=0 note=59 velocity=95 time=240
note_off channel=0 note=54 velocity=95 time=0
note_off channel=0 note=47 velocity=95 time=0
note_on channel=0 note=59 velocity=95 time=0
note_on channel=0 note=54 velocity=95 time=0
note_on channel=0 note=47 velocity=95 time=0
note_off channel=0 note=59 velocity=95 time=480
note_off channel=0 note=54 velocity=95 time=0
note_off channel=0 note=47 velocity=95 time=0
note_on channel=0 note=59 velocity=95 time=0
note_on channel=0 note=54 velocity=95 time=0
note_on channel=0 note=47 velocity=95 time=0
note_off channel=0 note=59 velocity=95 time=480
note_off channel=0 note=54 velocity=95 time=0
note_off channel=0 note=47 velocity=95 time=0
note_on channel=0 note=60 velocity=95 time=0
note_on channel=0 note=55 velocity=95 time=0
note_on channel=0 note=48 velocity=95 time=0
note_off channel=0 note=60 velocity=95 time=480
note_off channel=0 note=55 velocity=95 time=0
note_off channel=0 note=48 velocity=95 time=0
note_on channel=0 note=60 velocity=95 time=0
note_on channel=0 note=55 velocity=95 time=0
note_on channel=0 note=48 velocity=95 time=0
note_off channel=0 note=60 velocity=95 time=240
note_off channel=0 note=55 velocity=95 time=0
note_off channel=0 note=48 velocity=95 time=0
note_on channel=0 note=62 velocity=95 time=0
note_on channel=0 note=57 velocity=95 time=0
note_on channel=0 note=50 velocity=95 time=0
note_off channel=0 note=62 velocity=95 time=480
note_off channel=0 note=57 velocity=95 time=0
note_off channel=0 note=50 velocity=95 time=0
note_on channel=0 note=64 velocity=95 time=0
note_on channel=0 note=59 velocity=95 time=0
note_on channel=0 note=52 velocity=95 time=0
note_off channel=0 note=64 velocity=95 time=720
note_off channel=0 note=59 velocity=95 time=0
note_off channel=0 note=52 velocity=95 time=0
note_on channel=0 note=64 velocity=95 time=0
note_on channel=0 note=59 velocity=95 time=0
note_on channel=0 note=52 velocity=95 time=0
note_off channel=0 note=64 velocity=95 time=240
note_off channel=0 note=59 velocity=95 time=0
note_off channel=0 note=52 velocity=95 time=0
note_on channel=0 note=64 velocity=95 time=0
note_on channel=0 note=59 velocity=95 time=0
note_on channel=0 note=52 velocity=95 time=0
note_off channel=0 note=64 velocity=95 time=240
note_off channel=0 note=59 velocity=95 time=0
note_off channel=0 note=52 velocity=95 time=0
note_on channel=0 note=64 velocity=95 time=0
note_on channel=0 note=59 velocity=95 time=0
note_on channel=0 note=52 velocity=95 time=0
note_off channel=0 note=64 velocity=95 time=240
note_off channel=0 note=59 velocity=95 time=0
note_off channel=0 note=52 velocity=95 time=0
note_on channel=0 note=64 velocity=95 time=0
note_on channel=0 note=59 velocity=95 time=0
note_on channel=0 note=52 velocity=95 time=0
note_off channel=0 note=64 velocity=95 time=240
note_off channel=0 note=59 velocity=95 time=0
note_off channel=0 note=52 velocity=95 time=0
note_on channel=0 note=67 velocity=95 time=0
note_on channel=0 note=62 velocity=95 time=0
note_on channel=0 note=55 velocity=95 time=0
note_off channel=0 note=67 velocity=95 time=480
note_off channel=0 note=62 velocity=95 time=0
note_off channel=0 note=55 velocity=95 time=0
note_on channel=0 note=67 velocity=95 time=0
note_on channel=0 note=62 velocity=95 time=0
note_on channel=0 note=55 velocity=95 time=0
note_off channel=0 note=67 velocity=95 time=480
note_off channel=0 note=62 velocity=95 time=0
note_off channel=0 note=55 velocity=95 time=0
note_on channel=0 note=66 velocity=95 time=0
note_on channel=0 note=61 velocity=95 time=0
note_on channel=0 note=54 velocity=95 time=0
note_off channel=0 note=66 velocity=95 time=480
note_off channel=0 note=61 velocity=95 time=0
note_off channel=0 note=54 velocity=95 time=0
note_on channel=0 note=66 velocity=95 time=0
note_on channel=0 note=61 velocity=95 time=0
note_on channel=0 note=54 velocity=95 time=0
note_off channel=0 note=66 velocity=95 time=240
note_off channel=0 note=61 velocity=95 time=0
note_off channel=0 note=54 velocity=95 time=0
note_on channel=0 note=69 velocity=95 time=0
note_on channel=0 note=64 velocity=95 time=0
note_on channel=0 note=57 velocity=95 time=0
note_off channel=0 note=69 velocity=95 time=480
note_off channel=0 note=64 velocity=95 time=0
note_off channel=0 note=57 velocity=95 time=0
note_on channel=0 note=60 velocity=95 time=0
note_on channel=0 note=55 velocity=95 time=0
note_on channel=0 note=48 velocity=95 time=0
note_off channel=0 note=60 velocity=95 time=720
note_off channel=0 note=55 velocity=95 time=0
note_off channel=0 note=48 velocity=95 time=0
note_on channel=0 note=60 velocity=95 time=0
note_on channel=0 note=55 velocity=95 time=0
note_on channel=0 note=48 velocity=95 time=0
note_off channel=0 note=60 velocity=95 time=240
note_off channel=0 note=55 velocity=95 time=0
note_off channel=0 note=48 velocity=95 time=0
note_on channel=0 note=60 velocity=95 time=0
note_on channel=0 note=55 velocity=95 time=0
note_on channel=0 note=48 velocity=95 time=0
note_off channel=0 note=60 velocity=95 time=480
note_off channel=0 note=55 velocity=95 time=0
note_off channel=0 note=48 velocity=95 time=0
note_on channel=0 note=59 velocity=95 time=0
note_on channel=0 note=54 velocity=95 time=0
note_on channel=0 note=47 velocity=95 time=0
note_off channel=0 note=59 velocity=95 time=240
note_off channel=0 note=54 velocity=95 time=0
note_off channel=0 note=47 velocity=95 time=0
note_on channel=0 note=59 velocity=95 time=0
note_on channel=0 note=54 velocity=95 time=0
note_on channel=0 note=47 velocity=95 time=0
note_off channel=0 note=59 velocity=95 time=480
note_off channel=0 note=54 velocity=95 time=0
note_off channel=0 note=47 velocity=95 time=0
note_on channel=0 note=59 velocity=95 time=0
note_on channel=0 note=54 velocity=95 time=0
note_on channel=0 note=47 velocity=95 time=0
note_off channel=0 note=59 velocity=95 time=480
note_off channel=0 note=54 velocity=95 time=0
note_off channel=0 note=47 velocity=95 time=0
note_on channel=0 note=60 velocity=95 time=0
note_on channel=0 note=55 velocity=95 time=0
note_on channel=0 note=48 velocity=95 time=0
note_off channel=0 note=60 velocity=95 time=480
note_off channel=0 note=55 velocity=95 time=0
note_off channel=0 note=48 velocity=95 time=0
note_on channel=0 note=60 velocity=95 time=0
note_on channel=0 note=55 velocity=95 time=0
note_on channel=0 note=48 velocity=95 time=0
note_off channel=0 note=60 velocity=95 time=240
note_off channel=0 note=55 velocity=95 time=0
note_off channel=0 note=48 velocity=95 time=0
note_on channel=0 note=62 velocity=95 time=0
note_on channel=0 note=57 velocity=95 time=0
note_on channel=0 note=50 velocity=95 time=0
note_off channel=0 note=62 velocity=95 time=480
note_off channel=0 note=57 velocity=95 time=0
note_off channel=0 note=50 velocity=95 time=0
note_on channel=0 note=64 velocity=95 time=0
note_on channel=0 note=59 velocity=95 time=0
note_on channel=0 note=52 velocity=95 time=0
note_off channel=0 note=64 velocity=95 time=720
note_off channel=0 note=59 velocity=95 time=0
note_off channel=0 note=52 velocity=95 time=0
note_on channel=0 note=64 velocity=95 time=0
note_on channel=0 note=59 velocity=95 time=0
note_on channel=0 note=52 velocity=95 time=0
note_off channel=0 note=64 velocity=95 time=240
note_off channel=0 note=59 velocity=95 time=0
note_off channel=0 note=52 velocity=95 time=0
note_on channel=0 note=64 velocity=95 time=0
note_on channel=0 note=59 velocity=95 time=0
note_on channel=0 note=52 velocity=95 time=0
note_off channel=0 note=64 velocity=95 time=240
note_off channel=0 note=59 velocity=95 time=0
note_off channel=0 note=52 velocity=95 time=0
note_on channel=0 note=64 velocity=95 time=0
note_on channel=0 note=59 velocity=95 time=0
note_on channel=0 note=52 velocity=95 time=0
note_off channel=0 note=64 velocity=95 time=240
note_off channel=0 note=59 velocity=95 time=0
note_off channel=0 note=52 velocity=95 time=0
note_on channel=0 note=64 velocity=95 time=0
note_on channel=0 note=59 velocity=95 time=0
note_on channel=0 note=52 velocity=95 time=0
note_off channel=0 note=64 velocity=95 time=240
note_off channel=0 note=59 velocity=95 time=0
note_off channel=0 note=52 velocity=95 time=0
note_on channel=0 note=67 velocity=95 time=0
note_on channel=0 note=62 velocity=95 time=0
note_on channel=0 note=55 velocity=95 time=0
note_off channel=0 note=67 velocity=95 time=480
note_off channel=0 note=62 velocity=95 time=0
note_off channel=0 note=55 velocity=95 time=0
note_on channel=0 note=67 velocity=95 time=0
note_on channel=0 note=62 velocity=95 time=0
note_on channel=0 note=55 velocity=95 time=0
note_off channel=0 note=67 velocity=95 time=480
note_off channel=0 note=62 velocity=95 time=0
note_off channel=0 note=55 velocity=95 time=0
note_on channel=0 note=66 velocity=95 time=0
note_on channel=0 note=61 velocity=95 time=0
note_on channel=0 note=54 velocity=95 time=0
note_off channel=0 note=66 velocity=95 time=480
note_off channel=0 note=61 velocity=95 time=0
note_off channel=0 note=54 velocity=95 time=0
note_on channel=0 note=66 velocity=95 time=0
note_on channel=0 note=61 velocity=95 time=0
note_on channel=0 note=54 velocity=95 time=0
note_off channel=0 note=66 velocity=95 time=240
note_off channel=0 note=61 velocity=95 time=0
note_off channel=0 note=54 velocity=95 time=0
note_on channel=0 note=64 velocity=95 time=0
note_on channel=0 note=59 velocity=95 time=0
note_on channel=0 note=52 velocity=95 time=0
note_off channel=0 note=64 velocity=95 time=480
note_off channel=0 note=59 velocity=95 time=0
note_off channel=0 note=52 velocity=95 time=0
note_on channel=0 note=60 velocity=95 time=0
note_on channel=0 note=55 velocity=95 time=0
note_on channel=0 note=48 velocity=95 time=0
note_off channel=0 note=60 velocity=95 time=720
note_off channel=0 note=55 velocity=95 time=0
note_off channel=0 note=48 velocity=95 time=0
note_on channel=0 note=60 velocity=95 time=0
note_on channel=0 note=55 velocity=95 time=0
note_on channel=0 note=48 velocity=95 time=0
note_off channel=0 note=60 velocity=95 time=240
note_off channel=0 note=55 velocity=95 time=0
note_off channel=0 note=48 velocity=95 time=0
note_on channel=0 note=60 velocity=95 time=0
note_on channel=0 note=55 velocity=95 time=0
note_on channel=0 note=48 velocity=95 time=0
note_off channel=0 note=60 velocity=95 time=480
note_off channel=0 note=55 velocity=95 time=0
note_off channel=0 note=48 velocity=95 time=0
note_on channel=0 note=59 velocity=95 time=0
note_on channel=0 note=54 velocity=95 time=0
note_on channel=0 note=47 velocity=95 time=0
note_off channel=0 note=59 velocity=95 time=240
note_off channel=0 note=54 velocity=95 time=0
note_off channel=0 note=47 velocity=95 time=0
note_on channel=0 note=59 velocity=95 time=0
note_on channel=0 note=54 velocity=95 time=0
note_on channel=0 note=47 velocity=95 time=0
note_off channel=0 note=59 velocity=95 time=480
note_off channel=0 note=54 velocity=95 time=0
note_off channel=0 note=47 velocity=95 time=0
note_on channel=0 note=59 velocity=95 time=0
note_on channel=0 note=54 velocity=95 time=0
note_on channel=0 note=47 velocity=95 time=0
note_off channel=0 note=59 velocity=95 time=480
note_off channel=0 note=54 velocity=95 time=0
note_off channel=0 note=47 velocity=95 time=0
note_on channel=0 note=60 velocity=95 time=0
note_on channel=0 note=55 velocity=95 time=0
note_on channel=0 note=48 velocity=95 time=0
note_off channel=0 note=60 velocity=95 time=480
note_off channel=0 note=55 velocity=95 time=0
note_off channel=0 note=48 velocity=95 time=0
note_on channel=0 note=60 velocity=95 time=0
note_on channel=0 note=55 velocity=95 time=0
note_on channel=0 note=48 velocity=95 time=0
note_off channel=0 note=60 velocity=95 time=240
note_off channel=0 note=55 velocity=95 time=0
note_off channel=0 note=48 velocity=95 time=0
note_on channel=0 note=62 velocity=95 time=0
note_on channel=0 note=57 velocity=95 time=0
note_on channel=0 note=50 velocity=95 time=0
note_off channel=0 note=62 velocity=95 time=480
note_off channel=0 note=57 velocity=95 time=0
note_off channel=0 note=50 velocity=95 time=0
note_on channel=0 note=64 velocity=95 time=0
note_on channel=0 note=59 velocity=95 time=0
note_on channel=0 note=52 velocity=95 time=0
note_off channel=0 note=64 velocity=95 time=720
note_off channel=0 note=59 velocity=95 time=0
note_off channel=0 note=52 velocity=95 time=0
note_on channel=0 note=64 velocity=95 time=0
note_on channel=0 note=59 velocity=95 time=0
note_on channel=0 note=52 velocity=95 time=0
note_off channel=0 note=64 velocity=95 time=240
note_off channel=0 note=59 velocity=95 time=0
note_off channel=0 note=52 velocity=95 time=0
note_on channel=0 note=64 velocity=95 time=0
note_on channel=0 note=59 velocity=95 time=0
note_on channel=0 note=52 velocity=95 time=0
note_off channel=0 note=64 velocity=95 time=240
note_off channel=0 note=59 velocity=95 time=0
note_off channel=0 note=52 velocity=95 time=0
note_on channel=0 note=64 velocity=95 time=0
note_on channel=0 note=59 velocity=95 time=0
note_on channel=0 note=52 velocity=95 time=0
note_off channel=0 note=64 velocity=95 time=240
note_off channel=0 note=59 velocity=95 time=0
note_off channel=0 note=52 velocity=95 time=0
note_on channel=0 note=64 velocity=95 time=0
note_on channel=0 note=59 velocity=95 time=0
note_on channel=0 note=52 velocity=95 time=0
note_off channel=0 note=64 velocity=95 time=240
note_off channel=0 note=59 velocity=95 time=0
note_off channel=0 note=52 velocity=95 time=0
note_on channel=0 note=67 velocity=95 time=0
note_on channel=0 note=62 velocity=95 time=0
note_on channel=0 note=55 velocity=95 time=0
note_off channel=0 note=67 velocity=95 time=480
note_off channel=0 note=62 velocity=95 time=0
note_off channel=0 note=55 velocity=95 time=0
note_on channel=0 note=67 velocity=95 time=0
note_on channel=0 note=62 velocity=95 time=0
note_on channel=0 note=55 velocity=95 time=0
note_off channel=0 note=67 velocity=95 time=480
note_off channel=0 note=62 velocity=95 time=0
note_off channel=0 note=55 velocity=95 time=0
note_on channel=0 note=66 velocity=95 time=0
note_on channel=0 note=61 velocity=95 time=0
note_on channel=0 note=54 velocity=95 time=0
note_off channel=0 note=66 velocity=95 time=480
note_off channel=0 note=61 velocity=95 time=0
note_off channel=0 note=54 velocity=95 time=0
note_on channel=0 note=66 velocity=95 time=0
note_on channel=0 note=61 velocity=95 time=0
note_on channel=0 note=54 velocity=95 time=0
note_off channel=0 note=66 velocity=95 time=240
note_off channel=0 note=61 velocity=95 time=0
note_off channel=0 note=54 velocity=95 time=0
note_on channel=0 note=69 velocity=95 time=0
note_on channel=0 note=64 velocity=95 time=0
note_on channel=0 note=57 velocity=95 time=0
note_off channel=0 note=69 velocity=95 time=480
note_off channel=0 note=64 velocity=95 time=0
note_off channel=0 note=57 velocity=95 time=0
note_on channel=0 note=60 velocity=95 time=0
note_on channel=0 note=55 velocity=95 time=0
note_on channel=0 note=48 velocity=95 time=0
note_off channel=0 note=60 velocity=95 time=720
note_off channel=0 note=55 velocity=95 time=0
note_off channel=0 note=48 velocity=95 time=0
note_on channel=0 note=60 velocity=95 time=0
note_on channel=0 note=55 velocity=95 time=0
note_on channel=0 note=48 velocity=95 time=0
note_off channel=0 note=60 velocity=95 time=240
note_off channel=0 note=55 velocity=95 time=0
note_off channel=0 note=48 velocity=95 time=0
note_on channel=0 note=60 velocity=95 time=0
note_on channel=0 note=55 velocity=95 time=0
note_on channel=0 note=48 velocity=95 time=0
note_off channel=0 note=60 velocity=95 time=480
note_off channel=0 note=55 velocity=95 time=0
note_off channel=0 note=48 velocity=95 time=0
note_on channel=0 note=59 velocity=95 time=0
note_on channel=0 note=54 velocity=95 time=0
note_on channel=0 note=47 velocity=95 time=0
note_off channel=0 note=59 velocity=95 time=240
note_off channel=0 note=54 velocity=95 time=0
note_off channel=0 note=47 velocity=95 time=0
note_on channel=0 note=59 velocity=95 time=0
note_on channel=0 note=54 velocity=95 time=0
note_on channel=0 note=47 velocity=95 time=0
note_off channel=0 note=59 velocity=95 time=480
note_off channel=0 note=54 velocity=95 time=0
note_off channel=0 note=47 velocity=95 time=0
note_on channel=0 note=59 velocity=95 time=0
note_on channel=0 note=54 velocity=95 time=0
note_on channel=0 note=47 velocity=95 time=0
note_off channel=0 note=59 velocity=95 time=480
note_off channel=0 note=54 velocity=95 time=0
note_off channel=0 note=47 velocity=95 time=0
note_on channel=0 note=60 velocity=95 time=0
note_on channel=0 note=55 velocity=95 time=0
note_on channel=0 note=48 velocity=95 time=0
note_off channel=0 note=60 velocity=95 time=480
note_off channel=0 note=55 velocity=95 time=0
note_off channel=0 note=48 velocity=95 time=0
note_on channel=0 note=60 velocity=95 time=0
note_on channel=0 note=55 velocity=95 time=0
note_on channel=0 note=48 velocity=95 time=0
note_off channel=0 note=60 velocity=95 time=240
note_off channel=0 note=55 velocity=95 time=0
note_off channel=0 note=48 velocity=95 time=0
note_on channel=0 note=62 velocity=95 time=0
note_on channel=0 note=57 velocity=95 time=0
note_on channel=0 note=50 velocity=95 time=0
note_off channel=0 note=62 velocity=95 time=480
note_off channel=0 note=57 velocity=95 time=0
note_off channel=0 note=50 velocity=95 time=0
note_on channel=1 note=52 velocity=95 time=0
note_off channel=1 note=52 velocity=95 time=240
note_on channel=0 note=40 velocity=95 time=0
note_off channel=0 note=40 velocity=95 time=240
note_on channel=0 note=40 velocity=95 time=0
note_off channel=0 note=40 velocity=95 time=240
note_on channel=0 note=47 velocity=95 time=0
note_off channel=0 note=47 velocity=95 time=240
note_on channel=0 note=40 velocity=95 time=0
note_off channel=0 note=40 velocity=95 time=240
note_on channel=0 note=40 velocity=95 time=0
note_off channel=0 note=40 velocity=95 time=240
note_on channel=0 note=48 velocity=95 time=0
note_off channel=0 note=48 velocity=95 time=240
note_on channel=0 note=40 velocity=95 time=0
note_off channel=0 note=40 velocity=95 time=240
note_on channel=0 note=40 velocity=95 time=0
note_off channel=0 note=40 velocity=95 time=240
note_on channel=0 note=52 velocity=95 time=0
note_on channel=0 note=45 velocity=95 time=0
note_off channel=0 note=52 velocity=95 time=240
note_off channel=0 note=45 velocity=95 time=0
note_on channel=0 note=40 velocity=95 time=0
note_off channel=0 note=40 velocity=95 time=240
note_on channel=0 note=40 velocity=95 time=0
note_off channel=0 note=40 velocity=95 time=240
note_on channel=0 note=54 velocity=95 time=0
note_on channel=0 note=47 velocity=95 time=0
note_off channel=0 note=54 velocity=95 time=240
note_off channel=0 note=47 velocity=95 time=0
note_on channel=0 note=40 velocity=95 time=0
note_off channel=0 note=40 velocity=95 time=240
note_on channel=0 note=55 velocity=95 time=0
note_on channel=0 note=48 velocity=95 time=0
note_off channel=0 note=55 velocity=95 time=240
note_off channel=0 note=48 velocity=95 time=0
note_on channel=0 note=40 velocity=95 time=0
note_off channel=0 note=40 velocity=95 time=240
note_on channel=1 note=52 velocity=95 time=0
note_off channel=1 note=52 velocity=95 time=240
note_on channel=0 note=40 velocity=95 time=0
note_off channel=0 note=40 velocity=95 time=240
note_on channel=0 note=40 velocity=95 time=0
note_off channel=0 note=40 velocity=95 time=240
note_on channel=0 note=47 velocity=95 time=0
note_off channel=0 note=47 velocity=95 time=240
note_on channel=0 note=40 velocity=95 time=0
note_off channel=0 note=40 velocity=95 time=240
note_on channel=0 note=40 velocity=95 time=0
note_off channel=0 note=40 velocity=95 time=240
note_on channel=0 note=48 velocity=95 time=0
note_off channel=0 note=48 velocity=95 time=240
note_on channel=0 note=40 velocity=95 time=0
note_off channel=0 note=40 velocity=95 time=240
note_on channel=0 note=40 velocity=95 time=0
note_off channel=0 note=40 velocity=95 time=240
note_on channel=0 note=52 velocity=95 time=0
note_on channel=0 note=45 velocity=95 time=0
note_off channel=0 note=52 velocity=95 time=240
note_off channel=0 note=45 velocity=95 time=0
note_on channel=0 note=40 velocity=95 time=0
note_off channel=0 note=40 velocity=95 time=240
note_on channel=0 note=40 velocity=95 time=0
note_off channel=0 note=40 velocity=95 time=240
note_on channel=1 note=54 velocity=95 time=0
note_on channel=1 note=47 velocity=95 time=0
pitchwheel channel=1 pitch=256 time=120
pitchwheel channel=1 pitch=256 time=0
pitchwheel channel=1 pitch=640 time=120
pitchwheel channel=1 pitch=0 time=0
note_off channel=1 note=54 velocity=95 time=0
pitchwheel channel=1 pitch=640 time=0
pitchwheel channel=1 pitch=0 time=0
note_off channel=1 note=47 velocity=95 time=0
note_on channel=1 note=55 velocity=95 time=0
note_on channel=1 note=48 velocity=95 time=0
pitchwheel channel=1 pitch=-256 time=120
pitchwheel channel=1 pitch=-256 time=0
pitchwheel channel=1 pitch=-640 time=120
pitchwheel channel=1 pitch=0 time=0
note_off channel=1 note=55 velocity=95 time=0
pitchwheel channel=1 pitch=-640 time=0
pitchwheel channel=1 pitch=0 time=0
note_off channel=1 note=48 velocity=95 time=0
note_on channel=0 note=54 velocity=95 time=0
note_on channel=1 note=47 velocity=95 time=0
note_off channel=0 note=54 velocity=95 time=240
note_off channel=1 note=47 velocity=95 time=0
note_on channel=0 note=40 velocity=95 time=0
note_off channel=0 note=40 velocity=95 time=240
note_on channel=1 note=52 velocity=95 time=0
note_off channel=1 note=52 velocity=95 time=240
note_on channel=0 note=40 velocity=95 time=0
note_off channel=0 note=40 velocity=95 time=240
note_on channel=0 note=40 velocity=95 time=0
note_off channel=0 note=40 velocity=95 time=240
note_on channel=0 note=47 velocity=95 time=0
note_off channel=0 note=47 velocity=95 time=240
note_on channel=0 note=40 velocity=95 time=0
note_off channel=0 note=40 velocity=95 time=240
note_on channel=0 note=40 velocity=95 time=0
note_off channel=0 note=40 velocity=95 time=240
note_on channel=0 note=48 velocity=95 time=0
note_off channel=0 note=48 velocity=95 time=240
note_on channel=0 note=40 velocity=95 time=0
note_off channel=0 note=40 velocity=95 time=240
note_on channel=0 note=40 velocity=95 time=0
note_off channel=0 note=40 velocity=95 time=240
note_on channel=0 note=52 velocity=95 time=0
note_on channel=0 note=45 velocity=95 time=0
note_off channel=0 note=52 velocity=95 time=240
note_off channel=0 note=45 velocity=95 time=0
note_on channel=0 note=40 velocity=95 time=0
note_off channel=0 note=40 velocity=95 time=240
note_on channel=0 note=40 velocity=95 time=0
note_off channel=0 note=40 velocity=95 time=240
note_on channel=0 note=54 velocity=95 time=0
note_on channel=0 note=47 velocity=95 time=0
note_off channel=0 note=54 velocity=95 time=240
note_off channel=0 note=47 velocity=95 time=0
note_on channel=0 note=40 velocity=95 time=0
note_off channel=0 note=40 velocity=95 time=240
note_on channel=0 note=55 velocity=95 time=0
note_on channel=0 note=48 velocity=95 time=0
note_off channel=0 note=55 velocity=95 time=240
note_off channel=0 note=48 velocity=95 time=0
note_on channel=0 note=40 velocity=95 time=0
note_off channel=0 note=40 velocity=95 time=240
note_on channel=0 note=52 velocity=95 time=0
note_off channel=0 note=52 velocity=95 time=240
note_on channel=0 note=40 velocity=95 time=0
note_off channel=0 note=40 velocity=95 time=240
note_on channel=0 note=40 velocity=95 time=0
note_off channel=0 note=40 velocity=95 time=240
note_on channel=0 note=47 velocity=95 time=0
note_off channel=0 note=47 velocity=95 time=240
note_on channel=0 note=40 velocity=95 time=0
note_off channel=0 note=40 velocity=95 time=240
note_on channel=0 note=40 velocity=95 time=0
note_off channel=0 note=40 velocity=95 time=240
note_on channel=0 note=48 velocity=95 time=0
note_off channel=0 note=48 velocity=95 time=240
note_on channel=0 note=40 velocity=95 time=0
note_off channel=0 note=40 velocity=95 time=240
note_on channel=0 note=60 velocity=95 time=0
note_on channel=0 note=55 velocity=95 time=0
note_on channel=0 note=48 velocity=95 time=0
note_off channel=0 note=60 velocity=95 time=320
note_off channel=0 note=55 velocity=95 time=0
note_off channel=0 note=48 velocity=95 time=0
note_on channel=0 note=60 velocity=95 time=0
note_on channel=0 note=55 velocity=95 time=0
note_on channel=0 note=48 velocity=95 time=0
note_off channel=0 note=60 velocity=95 time=320
note_off channel=0 note=55 velocity=95 time=0
note_off channel=0 note=48 velocity=95 time=0
note_on channel=0 note=60 velocity=95 time=0
note_on channel=0 note=55 velocity=95 time=0
note_on channel=0 note=48 velocity=95 time=0
note_off channel=0 note=60 velocity=95 time=320
note_off channel=0 note=55 velocity=95 time=0
note_off channel=0 note=48 velocity=95 time=0
note_on channel=1 note=60 velocity=95 time=0
note_on channel=1 note=55 velocity=95 time=0
note_on channel=1 note=48 velocity=95 time=0
note_off channel=1 note=60 velocity=95 time=960
note_off channel=1 note=55 velocity=95 time=0
note_off channel=1 note=48 velocity=95 time=0
MetaMessage('end_of_track', time=0)
